<?xml version="1.0" encoding="UTF-8" standalone="no"?>
<!DOCTYPE svg PUBLIC "-//W3C//DTD SVG 1.1//EN"
 "http://www.w3.org/Graphics/SVG/1.1/DTD/svg11.dtd">
<!-- Generated by graphviz version 2.43.0 (0)
 -->
<!-- Title: src/abs/abs.cpp Pages: 1 -->
<svg width="835pt" height="308pt"
 viewBox="0.00 0.00 835.04 308.00" xmlns="http://www.w3.org/2000/svg" xmlns:xlink="http://www.w3.org/1999/xlink">
<g id="graph0" class="graph" transform="scale(1 1) rotate(0) translate(4 304)">
<title>src/abs/abs.cpp</title>
<!-- Node1 -->
<g id="node1" class="node">
<title>Node1</title>
<g id="a_node1"><a xlink:title=" ">
<polygon fill="#bfbfbf" stroke="black" points="392.04,-280.5 392.04,-299.5 484.04,-299.5 484.04,-280.5 392.04,-280.5"/>
<text text-anchor="middle" x="438.04" y="-287.5" font-family="Helvetica,sans-Serif" font-size="10.00">src/abs/abs.cpp</text>
</a>
</g>
</g>
<!-- Node2 -->
<g id="node2" class="node">
<title>Node2</title>
<g id="a_node2"><a xlink:href="absReport_8hpp.html" target="_top" xlink:title=" ">
<polygon fill="none" stroke="black" points="394.54,-224.5 394.54,-243.5 481.54,-243.5 481.54,-224.5 394.54,-224.5"/>
<text text-anchor="middle" x="438.04" y="-231.5" font-family="Helvetica,sans-Serif" font-size="10.00">absReport.hpp</text>
</a>
</g>
</g>
<!-- Node1&#45;&gt;Node2 -->
<g id="edge1" class="edge">
<title>Node1&#45;&gt;Node2</title>
<path fill="none" stroke="midnightblue" d="M438.04,-280.08C438.04,-273.01 438.04,-262.86 438.04,-253.99"/>
<polygon fill="midnightblue" stroke="midnightblue" points="441.54,-253.75 438.04,-243.75 434.54,-253.75 441.54,-253.75"/>
</g>
<!-- Node3 -->
<g id="node3" class="node">
<title>Node3</title>
<g id="a_node3"><a xlink:title=" ">
<polygon fill="none" stroke="#bfbfbf" points="230.04,-56.5 230.04,-75.5 274.04,-75.5 274.04,-56.5 230.04,-56.5"/>
<text text-anchor="middle" x="252.04" y="-63.5" font-family="Helvetica,sans-Serif" font-size="10.00">string</text>
</a>
</g>
</g>
<!-- Node1&#45;&gt;Node3 -->
<g id="edge38" class="edge">
<title>Node1&#45;&gt;Node3</title>
<path fill="none" stroke="midnightblue" d="M391.97,-289C298.57,-286.15 88.62,-264.57 4.04,-132 -0.74,-124.51 -1.65,-118.82 4.04,-112 10.95,-103.73 154.13,-81.53 219.73,-71.75"/>
<polygon fill="midnightblue" stroke="midnightblue" points="220.55,-75.16 229.93,-70.23 219.52,-68.24 220.55,-75.16"/>
</g>
<!-- Node4 -->
<g id="node4" class="node">
<title>Node4</title>
<g id="a_node4"><a xlink:title=" ">
<polygon fill="none" stroke="#bfbfbf" points="431.54,-168.5 431.54,-187.5 504.54,-187.5 504.54,-168.5 431.54,-168.5"/>
<text text-anchor="middle" x="468.04" y="-175.5" font-family="Helvetica,sans-Serif" font-size="10.00">string_view</text>
</a>
</g>
</g>
<!-- Node1&#45;&gt;Node4 -->
<g id="edge39" class="edge">
<title>Node1&#45;&gt;Node4</title>
<path fill="none" stroke="midnightblue" d="M454.38,-280.39C467,-272.72 483.54,-260.21 491.04,-244 498.4,-228.11 489.84,-209.16 481.15,-195.84"/>
<polygon fill="midnightblue" stroke="midnightblue" points="483.96,-193.74 475.31,-187.61 478.25,-197.79 483.96,-193.74"/>
</g>
<!-- Node5 -->
<g id="node5" class="node">
<title>Node5</title>
<g id="a_node5"><a xlink:href="argParse_8hpp.html" target="_top" xlink:title="This file contains the declaration of the ProgramArgs class and related helper classes and functions.">
<polygon fill="none" stroke="black" points="540.04,-224.5 540.04,-243.5 620.04,-243.5 620.04,-224.5 540.04,-224.5"/>
<text text-anchor="middle" x="580.04" y="-231.5" font-family="Helvetica,sans-Serif" font-size="10.00">argParse.hpp</text>
</a>
</g>
</g>
<!-- Node1&#45;&gt;Node5 -->
<g id="edge4" class="edge">
<title>Node1&#45;&gt;Node5</title>
<path fill="none" stroke="midnightblue" d="M460.54,-280.44C484.12,-271.48 521.37,-257.31 548.01,-247.18"/>
<polygon fill="midnightblue" stroke="midnightblue" points="549.55,-250.34 557.65,-243.52 547.06,-243.8 549.55,-250.34"/>
</g>
<!-- Node10 -->
<g id="node10" class="node">
<title>Node10</title>
<g id="a_node10"><a xlink:href="output_8hpp.html" target="_top" xlink:title="This file contains functions for displaying error, warning, and info messages.">
<polygon fill="none" stroke="black" points="213.54,-168.5 213.54,-187.5 282.54,-187.5 282.54,-168.5 213.54,-168.5"/>
<text text-anchor="middle" x="248.04" y="-175.5" font-family="Helvetica,sans-Serif" font-size="10.00">output.hpp</text>
</a>
</g>
</g>
<!-- Node1&#45;&gt;Node10 -->
<g id="edge10" class="edge">
<title>Node1&#45;&gt;Node10</title>
<path fill="none" stroke="midnightblue" d="M391.79,-283.15C344.91,-276.26 276.82,-263.24 259.04,-244 247.76,-231.8 245.74,-212.53 246.1,-198.13"/>
<polygon fill="midnightblue" stroke="midnightblue" points="249.61,-198.07 246.77,-187.86 242.63,-197.61 249.61,-198.07"/>
</g>
<!-- Node20 -->
<g id="node20" class="node">
<title>Node20</title>
<g id="a_node20"><a xlink:href="util_8hpp.html" target="_top" xlink:title="This file contains utility functions and macros for the Steppable project.">
<polygon fill="none" stroke="black" points="561.54,-112.5 561.54,-131.5 614.54,-131.5 614.54,-112.5 561.54,-112.5"/>
<text text-anchor="middle" x="588.04" y="-119.5" font-family="Helvetica,sans-Serif" font-size="10.00">util.hpp</text>
</a>
</g>
</g>
<!-- Node1&#45;&gt;Node20 -->
<g id="edge25" class="edge">
<title>Node1&#45;&gt;Node20</title>
<path fill="none" stroke="midnightblue" d="M484.37,-282.55C570.05,-269.55 747.68,-237.17 782.04,-188 821.25,-131.9 691.52,-123.43 624.96,-122.67"/>
<polygon fill="midnightblue" stroke="midnightblue" points="624.88,-119.17 614.86,-122.6 624.84,-126.17 624.88,-119.17"/>
</g>
<!-- Node25 -->
<g id="node25" class="node">
<title>Node25</title>
<g id="a_node25"><a xlink:href="basicArithm_8hpp.html" target="_top" xlink:title="This file contains functions for basic arithmetic operations on strings.">
<polygon fill="none" stroke="black" points="267.54,-224.5 267.54,-243.5 376.54,-243.5 376.54,-224.5 267.54,-224.5"/>
<text text-anchor="middle" x="322.04" y="-231.5" font-family="Helvetica,sans-Serif" font-size="10.00">fn/basicArithm.hpp</text>
</a>
</g>
</g>
<!-- Node1&#45;&gt;Node25 -->
<g id="edge34" class="edge">
<title>Node1&#45;&gt;Node25</title>
<path fill="none" stroke="midnightblue" d="M419.66,-280.44C400.83,-271.68 371.31,-257.94 349.66,-247.86"/>
<polygon fill="midnightblue" stroke="midnightblue" points="350.88,-244.56 340.34,-243.52 347.93,-250.91 350.88,-244.56"/>
</g>
<!-- Node2&#45;&gt;Node3 -->
<g id="edge2" class="edge">
<title>Node2&#45;&gt;Node3</title>
<path fill="none" stroke="midnightblue" d="M434.19,-224.25C430.49,-215.33 425.15,-201.01 423.04,-188 421.62,-179.23 421.3,-176.72 423.04,-168 426.44,-151 434.64,-149 438.04,-132 439.79,-123.28 443.54,-118.99 438.04,-112 428.5,-99.87 334.85,-81.65 284.19,-72.56"/>
<polygon fill="midnightblue" stroke="midnightblue" points="284.54,-69.07 274.08,-70.77 283.31,-75.96 284.54,-69.07"/>
</g>
<!-- Node2&#45;&gt;Node4 -->
<g id="edge3" class="edge">
<title>Node2&#45;&gt;Node4</title>
<path fill="none" stroke="midnightblue" d="M443,-224.08C447.15,-216.61 453.2,-205.72 458.31,-196.52"/>
<polygon fill="midnightblue" stroke="midnightblue" points="461.38,-198.19 463.18,-187.75 455.27,-194.79 461.38,-198.19"/>
</g>
<!-- Node5&#45;&gt;Node4 -->
<g id="edge7" class="edge">
<title>Node5&#45;&gt;Node4</title>
<path fill="none" stroke="midnightblue" d="M562.05,-224.32C544.01,-215.62 516,-202.12 495.24,-192.11"/>
<polygon fill="midnightblue" stroke="midnightblue" points="496.52,-188.84 485.99,-187.65 493.48,-195.15 496.52,-188.84"/>
</g>
<!-- Node6 -->
<g id="node6" class="node">
<title>Node6</title>
<g id="a_node6"><a xlink:title=" ">
<polygon fill="none" stroke="#bfbfbf" points="735.04,-168.5 735.04,-187.5 773.04,-187.5 773.04,-168.5 735.04,-168.5"/>
<text text-anchor="middle" x="754.04" y="-175.5" font-family="Helvetica,sans-Serif" font-size="10.00">map</text>
</a>
</g>
</g>
<!-- Node5&#45;&gt;Node6 -->
<g id="edge5" class="edge">
<title>Node5&#45;&gt;Node6</title>
<path fill="none" stroke="midnightblue" d="M608.06,-224.47C635.58,-216.07 679,-202.76 725.19,-188.24"/>
<polygon fill="midnightblue" stroke="midnightblue" points="726.29,-191.57 734.77,-185.23 724.18,-184.89 726.29,-191.57"/>
</g>
<!-- Node7 -->
<g id="node7" class="node">
<title>Node7</title>
<g id="a_node7"><a xlink:title=" ">
<polygon fill="none" stroke="#bfbfbf" points="561.04,-168.5 561.04,-187.5 605.04,-187.5 605.04,-168.5 561.04,-168.5"/>
<text text-anchor="middle" x="583.04" y="-175.5" font-family="Helvetica,sans-Serif" font-size="10.00">regex</text>
</a>
</g>
</g>
<!-- Node5&#45;&gt;Node7 -->
<g id="edge6" class="edge">
<title>Node5&#45;&gt;Node7</title>
<path fill="none" stroke="midnightblue" d="M580.54,-224.08C580.93,-217.01 581.5,-206.86 581.99,-197.99"/>
<polygon fill="midnightblue" stroke="midnightblue" points="585.5,-197.93 582.56,-187.75 578.51,-197.54 585.5,-197.93"/>
</g>
<!-- Node8 -->
<g id="node8" class="node">
<title>Node8</title>
<g id="a_node8"><a xlink:title=" ">
<polygon fill="none" stroke="#bfbfbf" points="623.54,-168.5 623.54,-187.5 716.54,-187.5 716.54,-168.5 623.54,-168.5"/>
<text text-anchor="middle" x="670.04" y="-175.5" font-family="Helvetica,sans-Serif" font-size="10.00">unordered_map</text>
</a>
</g>
</g>
<!-- Node5&#45;&gt;Node8 -->
<g id="edge8" class="edge">
<title>Node5&#45;&gt;Node8</title>
<path fill="none" stroke="midnightblue" d="M594.5,-224.32C608.54,-215.9 630.09,-202.97 646.59,-193.07"/>
<polygon fill="midnightblue" stroke="midnightblue" points="648.85,-195.8 655.62,-187.65 645.24,-189.8 648.85,-195.8"/>
</g>
<!-- Node9 -->
<g id="node9" class="node">
<title>Node9</title>
<g id="a_node9"><a xlink:title=" ">
<polygon fill="none" stroke="#bfbfbf" points="335.54,-56.5 335.54,-75.5 382.54,-75.5 382.54,-56.5 335.54,-56.5"/>
<text text-anchor="middle" x="359.04" y="-63.5" font-family="Helvetica,sans-Serif" font-size="10.00">vector</text>
</a>
</g>
</g>
<!-- Node5&#45;&gt;Node9 -->
<g id="edge9" class="edge">
<title>Node5&#45;&gt;Node9</title>
<path fill="none" stroke="midnightblue" d="M572.82,-224.36C554.6,-202.97 504.51,-146.8 453.04,-112 433.64,-98.88 409.83,-87.52 391.03,-79.5"/>
<polygon fill="midnightblue" stroke="midnightblue" points="392.28,-76.23 381.7,-75.62 389.59,-82.69 392.28,-76.23"/>
</g>
<!-- Node10&#45;&gt;Node3 -->
<g id="edge24" class="edge">
<title>Node10&#45;&gt;Node3</title>
<path fill="none" stroke="midnightblue" d="M241.08,-168.31C232.06,-155.97 218.16,-132.59 224.04,-112 226.95,-101.84 232.88,-91.75 238.53,-83.7"/>
<polygon fill="midnightblue" stroke="midnightblue" points="241.42,-85.69 244.63,-75.59 235.82,-81.48 241.42,-85.69"/>
</g>
<!-- Node11 -->
<g id="node11" class="node">
<title>Node11</title>
<g id="a_node11"><a xlink:href="colors_8hpp.html" target="_top" xlink:title="This file contains functions and macros for manipulating text colors and formats in the terminal.">
<polygon fill="none" stroke="black" points="461.54,-56.5 461.54,-75.5 528.54,-75.5 528.54,-56.5 461.54,-56.5"/>
<text text-anchor="middle" x="495.04" y="-63.5" font-family="Helvetica,sans-Serif" font-size="10.00">colors.hpp</text>
</a>
</g>
</g>
<!-- Node10&#45;&gt;Node11 -->
<g id="edge11" class="edge">
<title>Node10&#45;&gt;Node11</title>
<path fill="none" stroke="midnightblue" d="M282.66,-175.11C322.67,-171.57 389.25,-161.36 438.04,-132 457.67,-120.19 474.15,-99.37 484.26,-84.47"/>
<polygon fill="midnightblue" stroke="midnightblue" points="487.45,-85.99 489.95,-75.69 481.58,-82.18 487.45,-85.99"/>
</g>
<!-- Node13 -->
<g id="node13" class="node">
<title>Node13</title>
<g id="a_node13"><a xlink:href="format_8hpp.html" target="_top" xlink:title="This file contains the definition of the vFormat function template.">
<polygon fill="none" stroke="black" points="105.54,-112.5 105.54,-131.5 176.54,-131.5 176.54,-112.5 105.54,-112.5"/>
<text text-anchor="middle" x="141.04" y="-119.5" font-family="Helvetica,sans-Serif" font-size="10.00">format.hpp</text>
</a>
</g>
</g>
<!-- Node10&#45;&gt;Node13 -->
<g id="edge13" class="edge">
<title>Node10&#45;&gt;Node13</title>
<path fill="none" stroke="midnightblue" d="M230.85,-168.32C213.69,-159.66 187.1,-146.24 167.3,-136.25"/>
<polygon fill="midnightblue" stroke="midnightblue" points="168.7,-133.04 158.19,-131.65 165.54,-139.28 168.7,-133.04"/>
</g>
<!-- Node15 -->
<g id="node15" class="node">
<title>Node15</title>
<g id="a_node15"><a xlink:href="logging_8hpp.html" target="_top" xlink:title="This file contains the declaration of the Logger class. The Logger class provides logging functionali...">
<polygon fill="none" stroke="black" points="13.04,-112.5 13.04,-131.5 87.04,-131.5 87.04,-112.5 13.04,-112.5"/>
<text text-anchor="middle" x="50.04" y="-119.5" font-family="Helvetica,sans-Serif" font-size="10.00">logging.hpp</text>
</a>
</g>
</g>
<!-- Node10&#45;&gt;Node15 -->
<g id="edge17" class="edge">
<title>Node10&#45;&gt;Node15</title>
<path fill="none" stroke="midnightblue" d="M216.67,-168.44C182.78,-159.2 128.64,-144.44 91.32,-134.26"/>
<polygon fill="midnightblue" stroke="midnightblue" points="91.84,-130.77 81.27,-131.52 90,-137.52 91.84,-130.77"/>
</g>
<!-- Node17 -->
<g id="node17" class="node">
<title>Node17</title>
<g id="a_node17"><a xlink:href="symbols_8hpp.html" target="_top" xlink:title=" ">
<polygon fill="none" stroke="black" points="349.54,-112.5 349.54,-131.5 428.54,-131.5 428.54,-112.5 349.54,-112.5"/>
<text text-anchor="middle" x="389.04" y="-119.5" font-family="Helvetica,sans-Serif" font-size="10.00">symbols.hpp</text>
</a>
</g>
</g>
<!-- Node10&#45;&gt;Node17 -->
<g id="edge20" class="edge">
<title>Node10&#45;&gt;Node17</title>
<path fill="none" stroke="midnightblue" d="M270.39,-168.44C293.8,-159.48 330.78,-145.31 357.23,-135.18"/>
<polygon fill="midnightblue" stroke="midnightblue" points="358.72,-138.36 366.81,-131.52 356.22,-131.82 358.72,-138.36"/>
</g>
<!-- Node19 -->
<g id="node19" class="node">
<title>Node19</title>
<g id="a_node19"><a xlink:title=" ">
<polygon fill="none" stroke="#bfbfbf" points="233.04,-112.5 233.04,-131.5 293.04,-131.5 293.04,-112.5 233.04,-112.5"/>
<text text-anchor="middle" x="263.04" y="-119.5" font-family="Helvetica,sans-Serif" font-size="10.00">iostream</text>
</a>
</g>
</g>
<!-- Node10&#45;&gt;Node19 -->
<g id="edge23" class="edge">
<title>Node10&#45;&gt;Node19</title>
<path fill="none" stroke="midnightblue" d="M250.52,-168.08C252.53,-160.85 255.43,-150.41 257.93,-141.4"/>
<polygon fill="midnightblue" stroke="midnightblue" points="261.31,-142.32 260.61,-131.75 254.56,-140.45 261.31,-142.32"/>
</g>
<!-- Node12 -->
<g id="node12" class="node">
<title>Node12</title>
<g id="a_node12"><a xlink:title=" ">
<polygon fill="none" stroke="#bfbfbf" points="466.54,-0.5 466.54,-19.5 523.54,-19.5 523.54,-0.5 466.54,-0.5"/>
<text text-anchor="middle" x="495.04" y="-7.5" font-family="Helvetica,sans-Serif" font-size="10.00">ostream</text>
</a>
</g>
</g>
<!-- Node11&#45;&gt;Node12 -->
<g id="edge12" class="edge">
<title>Node11&#45;&gt;Node12</title>
<path fill="none" stroke="midnightblue" d="M495.04,-56.08C495.04,-49.01 495.04,-38.86 495.04,-29.99"/>
<polygon fill="midnightblue" stroke="midnightblue" points="498.54,-29.75 495.04,-19.75 491.54,-29.75 498.54,-29.75"/>
</g>
<!-- Node13&#45;&gt;Node3 -->
<g id="edge15" class="edge">
<title>Node13&#45;&gt;Node3</title>
<path fill="none" stroke="midnightblue" d="M158.88,-112.32C176.76,-103.62 204.52,-90.12 225.09,-80.11"/>
<polygon fill="midnightblue" stroke="midnightblue" points="226.79,-83.18 234.25,-75.65 223.73,-76.88 226.79,-83.18"/>
</g>
<!-- Node13&#45;&gt;Node9 -->
<g id="edge16" class="edge">
<title>Node13&#45;&gt;Node9</title>
<path fill="none" stroke="midnightblue" d="M175.59,-112.44C216.67,-102.27 284.79,-85.39 325.45,-75.32"/>
<polygon fill="midnightblue" stroke="midnightblue" points="326.55,-78.66 335.41,-72.85 324.86,-71.86 326.55,-78.66"/>
</g>
<!-- Node14 -->
<g id="node14" class="node">
<title>Node14</title>
<g id="a_node14"><a xlink:title=" ">
<polygon fill="none" stroke="#bfbfbf" points="114.54,-56.5 114.54,-75.5 167.54,-75.5 167.54,-56.5 114.54,-56.5"/>
<text text-anchor="middle" x="141.04" y="-63.5" font-family="Helvetica,sans-Serif" font-size="10.00">cstdarg</text>
</a>
</g>
</g>
<!-- Node13&#45;&gt;Node14 -->
<g id="edge14" class="edge">
<title>Node13&#45;&gt;Node14</title>
<path fill="none" stroke="midnightblue" d="M141.04,-112.08C141.04,-105.01 141.04,-94.86 141.04,-85.99"/>
<polygon fill="midnightblue" stroke="midnightblue" points="144.54,-85.75 141.04,-75.75 137.54,-85.75 144.54,-85.75"/>
</g>
<!-- Node15&#45;&gt;Node3 -->
<g id="edge19" class="edge">
<title>Node15&#45;&gt;Node3</title>
<path fill="none" stroke="midnightblue" d="M82.05,-112.44C119.78,-102.36 182.1,-85.7 219.89,-75.6"/>
<polygon fill="midnightblue" stroke="midnightblue" points="221.1,-78.89 229.86,-72.93 219.29,-72.13 221.1,-78.89"/>
</g>
<!-- Node16 -->
<g id="node16" class="node">
<title>Node16</title>
<g id="a_node16"><a xlink:title=" ">
<polygon fill="none" stroke="#bfbfbf" points="22.54,-56.5 22.54,-75.5 77.54,-75.5 77.54,-56.5 22.54,-56.5"/>
<text text-anchor="middle" x="50.04" y="-63.5" font-family="Helvetica,sans-Serif" font-size="10.00">fstream</text>
</a>
</g>
</g>
<!-- Node15&#45;&gt;Node16 -->
<g id="edge18" class="edge">
<title>Node15&#45;&gt;Node16</title>
<path fill="none" stroke="midnightblue" d="M50.04,-112.08C50.04,-105.01 50.04,-94.86 50.04,-85.99"/>
<polygon fill="midnightblue" stroke="midnightblue" points="53.54,-85.75 50.04,-75.75 46.54,-85.75 53.54,-85.75"/>
</g>
<!-- Node17&#45;&gt;Node3 -->
<g id="edge22" class="edge">
<title>Node17&#45;&gt;Node3</title>
<path fill="none" stroke="midnightblue" d="M367.34,-112.44C344.69,-103.52 308.97,-89.44 283.29,-79.32"/>
<polygon fill="midnightblue" stroke="midnightblue" points="284.24,-75.93 273.65,-75.52 281.67,-82.44 284.24,-75.93"/>
</g>
<!-- Node18 -->
<g id="node18" class="node">
<title>Node18</title>
<g id="a_node18"><a xlink:title=" ">
<polygon fill="none" stroke="#bfbfbf" points="401.04,-56.5 401.04,-75.5 443.04,-75.5 443.04,-56.5 401.04,-56.5"/>
<text text-anchor="middle" x="422.04" y="-63.5" font-family="Helvetica,sans-Serif" font-size="10.00">array</text>
</a>
</g>
</g>
<!-- Node17&#45;&gt;Node18 -->
<g id="edge21" class="edge">
<title>Node17&#45;&gt;Node18</title>
<path fill="none" stroke="midnightblue" d="M394.49,-112.08C399.06,-104.61 405.71,-93.72 411.34,-84.52"/>
<polygon fill="midnightblue" stroke="midnightblue" points="414.47,-86.11 416.7,-75.75 408.49,-82.46 414.47,-86.11"/>
</g>
<!-- Node20&#45;&gt;Node3 -->
<g id="edge32" class="edge">
<title>Node20&#45;&gt;Node3</title>
<path fill="none" stroke="midnightblue" d="M561.4,-116.72C500.38,-106.91 350.69,-82.85 284.47,-72.21"/>
<polygon fill="midnightblue" stroke="midnightblue" points="284.64,-68.69 274.21,-70.56 283.53,-75.61 284.64,-68.69"/>
</g>
<!-- Node20&#45;&gt;Node9 -->
<g id="edge33" class="edge">
<title>Node20&#45;&gt;Node9</title>
<path fill="none" stroke="midnightblue" d="M561.37,-115.02C519.02,-105.5 437.39,-87.05 392.78,-76.09"/>
<polygon fill="midnightblue" stroke="midnightblue" points="393.36,-72.62 382.81,-73.6 391.66,-79.42 393.36,-72.62"/>
</g>
<!-- Node20&#45;&gt;Node11 -->
<g id="edge26" class="edge">
<title>Node20&#45;&gt;Node11</title>
<path fill="none" stroke="midnightblue" d="M573.1,-112.32C558.46,-103.82 535.91,-90.73 518.81,-80.8"/>
<polygon fill="midnightblue" stroke="midnightblue" points="520.35,-77.65 509.95,-75.65 516.84,-83.7 520.35,-77.65"/>
</g>
<!-- Node20&#45;&gt;Node18 -->
<g id="edge28" class="edge">
<title>Node20&#45;&gt;Node18</title>
<path fill="none" stroke="midnightblue" d="M561.74,-112.44C532.13,-102.81 484.06,-87.18 452.75,-76.99"/>
<polygon fill="midnightblue" stroke="midnightblue" points="453.81,-73.65 443.22,-73.89 451.65,-80.31 453.81,-73.65"/>
</g>
<!-- Node21 -->
<g id="node21" class="node">
<title>Node21</title>
<g id="a_node21"><a xlink:title=" ">
<polygon fill="none" stroke="#bfbfbf" points="547.04,-56.5 547.04,-75.5 611.04,-75.5 611.04,-56.5 547.04,-56.5"/>
<text text-anchor="middle" x="579.04" y="-63.5" font-family="Helvetica,sans-Serif" font-size="10.00">algorithm</text>
</a>
</g>
</g>
<!-- Node20&#45;&gt;Node21 -->
<g id="edge27" class="edge">
<title>Node20&#45;&gt;Node21</title>
<path fill="none" stroke="midnightblue" d="M586.56,-112.08C585.36,-104.93 583.65,-94.64 582.16,-85.69"/>
<polygon fill="midnightblue" stroke="midnightblue" points="585.6,-85.04 580.5,-75.75 578.69,-86.19 585.6,-85.04"/>
</g>
<!-- Node22 -->
<g id="node22" class="node">
<title>Node22</title>
<g id="a_node22"><a xlink:title=" ">
<polygon fill="none" stroke="#bfbfbf" points="629.04,-56.5 629.04,-75.5 679.04,-75.5 679.04,-56.5 629.04,-56.5"/>
<text text-anchor="middle" x="654.04" y="-63.5" font-family="Helvetica,sans-Serif" font-size="10.00">chrono</text>
</a>
</g>
</g>
<!-- Node20&#45;&gt;Node22 -->
<g id="edge29" class="edge">
<title>Node20&#45;&gt;Node22</title>
<path fill="none" stroke="midnightblue" d="M598.65,-112.32C608.5,-104.26 623.39,-92.08 635.26,-82.37"/>
<polygon fill="midnightblue" stroke="midnightblue" points="637.72,-84.88 643.25,-75.83 633.29,-79.46 637.72,-84.88"/>
</g>
<!-- Node23 -->
<g id="node23" class="node">
<title>Node23</title>
<g id="a_node23"><a xlink:title=" ">
<polygon fill="none" stroke="#bfbfbf" points="697.04,-56.5 697.04,-75.5 753.04,-75.5 753.04,-56.5 697.04,-56.5"/>
<text text-anchor="middle" x="725.04" y="-63.5" font-family="Helvetica,sans-Serif" font-size="10.00">iomanip</text>
</a>
</g>
</g>
<!-- Node20&#45;&gt;Node23 -->
<g id="edge30" class="edge">
<title>Node20&#45;&gt;Node23</title>
<path fill="none" stroke="midnightblue" d="M609.75,-112.44C632.4,-103.52 668.12,-89.44 693.8,-79.32"/>
<polygon fill="midnightblue" stroke="midnightblue" points="695.42,-82.44 703.44,-75.52 692.85,-75.93 695.42,-82.44"/>
</g>
<!-- Node24 -->
<g id="node24" class="node">
<title>Node24</title>
<g id="a_node24"><a xlink:title=" ">
<polygon fill="none" stroke="#bfbfbf" points="771.04,-56.5 771.04,-75.5 827.04,-75.5 827.04,-56.5 771.04,-56.5"/>
<text text-anchor="middle" x="799.04" y="-63.5" font-family="Helvetica,sans-Serif" font-size="10.00">sstream</text>
</a>
</g>
</g>
<!-- Node20&#45;&gt;Node24 -->
<g id="edge31" class="edge">
<title>Node20&#45;&gt;Node24</title>
<path fill="none" stroke="midnightblue" d="M614.77,-114.16C651.75,-104.7 718.74,-87.55 760.95,-76.75"/>
<polygon fill="midnightblue" stroke="midnightblue" points="762.04,-80.08 770.86,-74.21 760.3,-73.3 762.04,-80.08"/>
</g>
<!-- Node25&#45;&gt;Node3 -->
<g id="edge36" class="edge">
<title>Node25&#45;&gt;Node3</title>
<path fill="none" stroke="midnightblue" d="M322.5,-224.46C323.21,-203.78 322.8,-149.91 302.04,-112 295.38,-99.84 284.14,-89.27 274.01,-81.45"/>
<polygon fill="midnightblue" stroke="midnightblue" points="276.02,-78.58 265.87,-75.54 271.91,-84.25 276.02,-78.58"/>
</g>
<!-- Node25&#45;&gt;Node4 -->
<g id="edge37" class="edge">
<title>Node25&#45;&gt;Node4</title>
<path fill="none" stroke="midnightblue" d="M345.18,-224.44C369.53,-215.44 408.05,-201.19 435.47,-191.05"/>
<polygon fill="midnightblue" stroke="midnightblue" points="436.85,-194.27 445.02,-187.52 434.42,-187.7 436.85,-194.27"/>
</g>
<!-- Node25&#45;&gt;Node10 -->
<g id="edge35" class="edge">
<title>Node25&#45;&gt;Node10</title>
<path fill="none" stroke="midnightblue" d="M310.15,-224.32C298.89,-216.11 281.76,-203.6 268.33,-193.81"/>
<polygon fill="midnightblue" stroke="midnightblue" points="270.29,-190.9 260.15,-187.83 266.16,-196.56 270.29,-190.9"/>
</g>
</g>
</svg>
