<?xml version="1.0" encoding="UTF-8" standalone="no"?>
<!DOCTYPE svg PUBLIC "-//W3C//DTD SVG 1.1//EN"
 "http://www.w3.org/Graphics/SVG/1.1/DTD/svg11.dtd">
<!-- Generated by graphviz version 2.43.0 (0)
 -->
<!-- Title: main Pages: 1 -->
<!--zoomable 294 -->
<svg id="main" version="1.1" xmlns="http://www.w3.org/2000/svg" xmlns:xlink="http://www.w3.org/1999/xlink" xml:space="preserve" onload="init(evt)">
<style type="text/css"><![CDATA[
.edge:hover path { stroke: red; }
.edge:hover polygon { stroke: red; fill: red; }
]]></style>
<script type="text/javascript"><![CDATA[
var edges = document.getElementsByTagName('g');
if (edges && edges.length) {
  for (var i=0;i<edges.length;i++) {
    if (edges[i].id.substr(0,4)=='edge') {
      edges[i].setAttribute('class','edge');
    }
  }
}
]]></script>
        <defs>
                <circle id="rim" cx="0" cy="0" r="7"/>
                <circle id="rim2" cx="0" cy="0" r="3.5"/>
                <g id="zoomPlus">
                        <use xlink:href="#rim" fill="#404040">
                                <set attributeName="fill" to="#808080" begin="zoomplus.mouseover" end="zoomplus.mouseout"/>
                        </use>
                        <path d="M-4,0h8M0,-4v8" fill="none" stroke="white" stroke-width="1.5" pointer-events="none"/>
                </g>
                <g id="zoomMin">
                        <use xlink:href="#rim" fill="#404040">
                                <set attributeName="fill" to="#808080" begin="zoomminus.mouseover" end="zoomminus.mouseout"/>
                        </use>
                        <path d="M-4,0h8" fill="none" stroke="white" stroke-width="1.5" pointer-events="none"/>
                </g>
                <g id="dirArrow">
                        <path fill="none" stroke="white" stroke-width="1.5" d="M0,-3.0v7 M-2.5,-0.5L0,-3.0L2.5,-0.5"/>
                </g>
               <g id="resetDef">
                       <use xlink:href="#rim2" fill="#404040">
                               <set attributeName="fill" to="#808080" begin="reset.mouseover" end="reset.mouseout"/>
                       </use>
               </g>
        </defs>

<script type="text/javascript">
var viewWidth = 918;
var viewHeight = 294;
var sectionId = 'dynsection-3';
</script>
<script xlink:href="svgpan.js"/>
<svg id="graph" class="graph">
<g id="viewport">
<title>main</title>
<!-- Node1 -->
<g id="node1" class="node">
<title>Node1</title>
<g id="a_node1"><a xlink:title=" ">
<polygon fill="#bfbfbf" stroke="black" points="0,-133.5 0,-152.5 41,-152.5 41,-133.5 0,-133.5"/>
<text text-anchor="middle" x="20.5" y="-140.5" font-family="Helvetica,sans-Serif" font-size="10.00">main</text>
</a>
</g>
</g>
<!-- Node2 -->
<g id="node2" class="node">
<title>Node2</title>
<g id="a_node2"><a xlink:href="abs_8cpp.html#a1930a867676803950db773f157663770" target="_top" xlink:title="Calculates the absolute value of a string representation of a number.">
<polygon fill="none" stroke="black" points="155.5,-266.5 155.5,-285.5 189.5,-285.5 189.5,-266.5 155.5,-266.5"/>
<text text-anchor="middle" x="172.5" y="-273.5" font-family="Helvetica,sans-Serif" font-size="10.00">abs</text>
</a>
</g>
</g>
<!-- Node1&#45;&gt;Node2 -->
<g id="edge1" class="edge">
<title>Node1&#45;&gt;Node2</title>
<path fill="none" stroke="midnightblue" d="M23.24,-152.78C27.74,-175.1 41.99,-229.94 77,-257 96.42,-272.01 124.6,-276.06 145.13,-276.78"/>
<polygon fill="midnightblue" stroke="midnightblue" points="145.33,-280.28 155.36,-276.89 145.4,-273.28 145.33,-280.28"/>
</g>
<!-- Node8 -->
<g id="node8" class="node">
<title>Node8</title>
<g id="a_node8"><a xlink:href="classProgramArgs.html#a8cfadc3e489780e1411ef0807ee6f336" target="_top" xlink:title="This function is used to add a keyword argument to the class.">
<polygon fill="none" stroke="black" points="91.5,-228.5 91.5,-247.5 253.5,-247.5 253.5,-228.5 91.5,-228.5"/>
<text text-anchor="middle" x="172.5" y="-235.5" font-family="Helvetica,sans-Serif" font-size="10.00">ProgramArgs::addKeywordArg</text>
</a>
</g>
</g>
<!-- Node1&#45;&gt;Node8 -->
<g id="edge7" class="edge">
<title>Node1&#45;&gt;Node8</title>
<path fill="none" stroke="midnightblue" d="M25.69,-152.73C33.32,-169.22 51.13,-202.44 77,-219 80.22,-221.06 83.62,-222.9 87.14,-224.55"/>
<polygon fill="midnightblue" stroke="midnightblue" points="86.11,-227.92 96.69,-228.48 88.77,-221.44 86.11,-227.92"/>
</g>
<!-- Node9 -->
<g id="node9" class="node">
<title>Node9</title>
<g id="a_node9"><a xlink:href="classProgramArgs.html#a419988f156cdd89651c16c65e6d26c14" target="_top" xlink:title="This function is used to add a positional argument to the class.">
<polygon fill="none" stroke="black" points="104,-190.5 104,-209.5 241,-209.5 241,-190.5 104,-190.5"/>
<text text-anchor="middle" x="172.5" y="-197.5" font-family="Helvetica,sans-Serif" font-size="10.00">ProgramArgs::addPosArg</text>
</a>
</g>
</g>
<!-- Node1&#45;&gt;Node9 -->
<g id="edge8" class="edge">
<title>Node1&#45;&gt;Node9</title>
<path fill="none" stroke="midnightblue" d="M32.61,-152.62C43.28,-161.35 60.22,-173.92 77,-181 83.16,-183.6 89.71,-185.85 96.36,-187.8"/>
<polygon fill="midnightblue" stroke="midnightblue" points="95.59,-191.22 106.16,-190.45 97.41,-184.46 95.59,-191.22"/>
</g>
<!-- Node10 -->
<g id="node10" class="node">
<title>Node10</title>
<g id="a_node10"><a xlink:href="classProgramArgs.html#a1517bda6763b0efc42b5a6ca579a3412" target="_top" xlink:title="This function is used to add a switch to the class.">
<polygon fill="none" stroke="black" points="104.5,-152.5 104.5,-171.5 240.5,-171.5 240.5,-152.5 104.5,-152.5"/>
<text text-anchor="middle" x="172.5" y="-159.5" font-family="Helvetica,sans-Serif" font-size="10.00">ProgramArgs::addSwitch</text>
</a>
</g>
</g>
<!-- Node1&#45;&gt;Node10 -->
<g id="edge9" class="edge">
<title>Node1&#45;&gt;Node10</title>
<path fill="none" stroke="midnightblue" d="M41.11,-145.48C54.97,-147.24 74.53,-149.72 94.29,-152.22"/>
<polygon fill="midnightblue" stroke="midnightblue" points="93.94,-155.7 104.3,-153.49 94.82,-148.76 93.94,-155.7"/>
</g>
<!-- Node11 -->
<g id="node11" class="node">
<title>Node11</title>
<g id="a_node11"><a xlink:href="classProgramArgs.html#a67d7bd75b7221946e8173398a6c2868e" target="_top" xlink:title="This function is used to get the value of a keyword argument.">
<polygon fill="none" stroke="black" points="77,-114.5 77,-133.5 268,-133.5 268,-114.5 77,-114.5"/>
<text text-anchor="middle" x="172.5" y="-121.5" font-family="Helvetica,sans-Serif" font-size="10.00">ProgramArgs::getKeywordArgument</text>
</a>
</g>
</g>
<!-- Node1&#45;&gt;Node11 -->
<g id="edge10" class="edge">
<title>Node1&#45;&gt;Node11</title>
<path fill="none" stroke="midnightblue" d="M41.11,-140.52C53.13,-138.99 69.43,-136.93 86.43,-134.78"/>
<polygon fill="midnightblue" stroke="midnightblue" points="87.02,-138.23 96.5,-133.5 86.14,-131.28 87.02,-138.23"/>
</g>
<!-- Node12 -->
<g id="node12" class="node">
<title>Node12</title>
<g id="a_node12"><a xlink:href="classProgramArgs.html#a37b2fdefcdd9a9317584d551c7dcf1d9" target="_top" xlink:title="This function is used to get the value of a positional argument.">
<polygon fill="none" stroke="black" points="105,-76.5 105,-95.5 240,-95.5 240,-76.5 105,-76.5"/>
<text text-anchor="middle" x="172.5" y="-83.5" font-family="Helvetica,sans-Serif" font-size="10.00">ProgramArgs::getPosArg</text>
</a>
</g>
</g>
<!-- Node1&#45;&gt;Node12 -->
<g id="edge11" class="edge">
<title>Node1&#45;&gt;Node12</title>
<path fill="none" stroke="midnightblue" d="M32.61,-133.38C43.28,-124.65 60.22,-112.08 77,-105 83.16,-102.4 89.71,-100.15 96.36,-98.2"/>
<polygon fill="midnightblue" stroke="midnightblue" points="97.41,-101.54 106.16,-95.55 95.59,-94.78 97.41,-101.54"/>
</g>
<!-- Node13 -->
<g id="node13" class="node">
<title>Node13</title>
<g id="a_node13"><a xlink:href="classProgramArgs.html#a1056310905a8c465549d1abcd54942c3" target="_top" xlink:title="This function is used to get the value of a switch.">
<polygon fill="none" stroke="black" points="105.5,-38.5 105.5,-57.5 239.5,-57.5 239.5,-38.5 105.5,-38.5"/>
<text text-anchor="middle" x="172.5" y="-45.5" font-family="Helvetica,sans-Serif" font-size="10.00">ProgramArgs::getSwitch</text>
</a>
</g>
</g>
<!-- Node1&#45;&gt;Node13 -->
<g id="edge12" class="edge">
<title>Node1&#45;&gt;Node13</title>
<path fill="none" stroke="midnightblue" d="M25.69,-133.27C33.32,-116.78 51.13,-83.56 77,-67 82.68,-63.36 88.92,-60.4 95.39,-57.99"/>
<polygon fill="midnightblue" stroke="midnightblue" points="96.6,-61.28 105.01,-54.84 94.42,-54.63 96.6,-61.28"/>
</g>
<!-- Node14 -->
<g id="node14" class="node">
<title>Node14</title>
<g id="a_node14"><a xlink:href="classProgramArgs.html#a849066672f4caced42480a76dec02fdd" target="_top" xlink:title="This function is used to parse the command&#45;line arguments and store them in the appropriate class mem...">
<polygon fill="none" stroke="black" points="105.5,-0.5 105.5,-19.5 239.5,-19.5 239.5,-0.5 105.5,-0.5"/>
<text text-anchor="middle" x="172.5" y="-7.5" font-family="Helvetica,sans-Serif" font-size="10.00">ProgramArgs::parseArgs</text>
</a>
</g>
</g>
<!-- Node1&#45;&gt;Node14 -->
<g id="edge13" class="edge">
<title>Node1&#45;&gt;Node14</title>
<path fill="none" stroke="midnightblue" d="M23.24,-133.22C27.74,-110.9 41.99,-56.06 77,-29 82.52,-24.74 88.74,-21.36 95.29,-18.69"/>
<polygon fill="midnightblue" stroke="midnightblue" points="96.8,-21.87 105.09,-15.26 94.49,-15.26 96.8,-21.87"/>
</g>
<!-- Node3 -->
<g id="node3" class="node">
<title>Node3</title>
<g id="a_node3"><a xlink:href="absReport_8cpp.html#a7e44e3e84696a88d84e6d9e3331ea6a3" target="_top" xlink:title=" ">
<polygon fill="none" stroke="black" points="304,-266.5 304,-285.5 368,-285.5 368,-266.5 304,-266.5"/>
<text text-anchor="middle" x="336" y="-273.5" font-family="Helvetica,sans-Serif" font-size="10.00">reportAbs</text>
</a>
</g>
</g>
<!-- Node2&#45;&gt;Node3 -->
<g id="edge2" class="edge">
<title>Node2&#45;&gt;Node3</title>
<path fill="none" stroke="midnightblue" d="M189.58,-276C213.65,-276 259.87,-276 293.76,-276"/>
<polygon fill="midnightblue" stroke="midnightblue" points="293.85,-279.5 303.85,-276 293.85,-272.5 293.85,-279.5"/>
</g>
<!-- Node4 -->
<g id="node4" class="node">
<title>Node4</title>
<g id="a_node4"><a xlink:href="util_8hpp.html#afbed3096b7064ba07c83c6c15212b793" target="_top" xlink:title="Standardizes a number string.">
<polygon fill="none" stroke="black" points="404,-266.5 404,-285.5 517,-285.5 517,-266.5 404,-266.5"/>
<text text-anchor="middle" x="460.5" y="-273.5" font-family="Helvetica,sans-Serif" font-size="10.00">standardizeNumber</text>
</a>
</g>
</g>
<!-- Node3&#45;&gt;Node4 -->
<g id="edge3" class="edge">
<title>Node3&#45;&gt;Node4</title>
<path fill="none" stroke="midnightblue" d="M368.23,-276C375.97,-276 384.57,-276 393.3,-276"/>
<polygon fill="midnightblue" stroke="midnightblue" points="393.57,-279.5 403.57,-276 393.57,-272.5 393.57,-279.5"/>
</g>
<!-- Node5 -->
<g id="node5" class="node">
<title>Node5</title>
<g id="a_node5"><a xlink:href="util_8cpp.html#a32344e51c6ae485367b4fbf6bb535742" target="_top" xlink:title="Simplifies a string with non&#45;standard polarity (e.g., –1, —1, etc.).">
<polygon fill="none" stroke="black" points="553,-266.5 553,-285.5 646,-285.5 646,-266.5 553,-266.5"/>
<text text-anchor="middle" x="599.5" y="-273.5" font-family="Helvetica,sans-Serif" font-size="10.00">simplifyPolarity</text>
</a>
</g>
</g>
<!-- Node4&#45;&gt;Node5 -->
<g id="edge4" class="edge">
<title>Node4&#45;&gt;Node5</title>
<path fill="none" stroke="midnightblue" d="M517.22,-276C525.65,-276 534.34,-276 542.77,-276"/>
<polygon fill="midnightblue" stroke="midnightblue" points="542.88,-279.5 552.88,-276 542.88,-272.5 542.88,-279.5"/>
</g>
<!-- Node6 -->
<g id="node6" class="node">
<title>Node6</title>
<g id="a_node6"><a xlink:href="util_8cpp.html#a70584872ee14fa0befa8f25788f98a2b" target="_top" xlink:title="Simplifies a string that represents a number with non&#45;standard polarity.">
<polygon fill="none" stroke="black" points="682,-266.5 682,-285.5 798,-285.5 798,-266.5 682,-266.5"/>
<text text-anchor="middle" x="740" y="-273.5" font-family="Helvetica,sans-Serif" font-size="10.00">simplifyZeroPolarity</text>
</a>
</g>
</g>
<!-- Node5&#45;&gt;Node6 -->
<g id="edge5" class="edge">
<title>Node5&#45;&gt;Node6</title>
<path fill="none" stroke="midnightblue" d="M646.23,-276C654.39,-276 663.04,-276 671.65,-276"/>
<polygon fill="midnightblue" stroke="midnightblue" points="671.7,-279.5 681.7,-276 671.7,-272.5 671.7,-279.5"/>
</g>
<!-- Node7 -->
<g id="node7" class="node">
<title>Node7</title>
<g id="a_node7"><a xlink:href="util_8hpp.html#a183c024df291889f90106e47bb64fe0b" target="_top" xlink:title="Checks if a given string is a zero string.">
<polygon fill="none" stroke="black" points="834,-266.5 834,-285.5 910,-285.5 910,-266.5 834,-266.5"/>
<text text-anchor="middle" x="872" y="-273.5" font-family="Helvetica,sans-Serif" font-size="10.00">isZeroString</text>
</a>
</g>
</g>
<!-- Node6&#45;&gt;Node7 -->
<g id="edge6" class="edge">
<title>Node6&#45;&gt;Node7</title>
<path fill="none" stroke="midnightblue" d="M798.02,-276C806.56,-276 815.28,-276 823.59,-276"/>
<polygon fill="midnightblue" stroke="midnightblue" points="823.85,-279.5 833.85,-276 823.85,-272.5 823.85,-279.5"/>
</g>
</g>
</svg>
        <g id="navigator" transform="translate(0 0)" fill="#404254">
                <rect fill="#f2f5e9" fill-opacity="0.5" stroke="#606060" stroke-width=".5" x="0" y="0" width="60" height="60"/>
                <use id="zoomplus" xlink:href="#zoomPlus" x="17" y="9" onmousedown="handleZoom(evt,'in')"/>
                <use id="zoomminus" xlink:href="#zoomMin" x="42" y="9" onmousedown="handleZoom(evt,'out')"/>
                <use id="reset" xlink:href="#resetDef" x="30" y="36" onmousedown="handleReset()"/>
                <g id="arrowUp" xlink:href="#dirArrow" transform="translate(30 24)" onmousedown="handlePan(0,-1)">
                  <use xlink:href="#rim" fill="#404040">
                        <set attributeName="fill" to="#808080" begin="arrowUp.mouseover" end="arrowUp.mouseout"/>
                  </use>
                  <path fill="none" stroke="white" stroke-width="1.5" d="M0,-3.0v7 M-2.5,-0.5L0,-3.0L2.5,-0.5"/>
                </g>
                <g id="arrowRight" xlink:href="#dirArrow" transform="rotate(90) translate(36 -43)" onmousedown="handlePan(1,0)">
                  <use xlink:href="#rim" fill="#404040">
                        <set attributeName="fill" to="#808080" begin="arrowRight.mouseover" end="arrowRight.mouseout"/>
                  </use>
                  <path fill="none" stroke="white" stroke-width="1.5" d="M0,-3.0v7 M-2.5,-0.5L0,-3.0L2.5,-0.5"/>
                </g>
                <g id="arrowDown" xlink:href="#dirArrow" transform="rotate(180) translate(-30 -48)" onmousedown="handlePan(0,1)">
                  <use xlink:href="#rim" fill="#404040">
                        <set attributeName="fill" to="#808080" begin="arrowDown.mouseover" end="arrowDown.mouseout"/>
                  </use>
                  <path fill="none" stroke="white" stroke-width="1.5" d="M0,-3.0v7 M-2.5,-0.5L0,-3.0L2.5,-0.5"/>
                </g>
                <g id="arrowLeft" xlink:href="#dirArrow" transform="rotate(270) translate(-36 17)" onmousedown="handlePan(-1,0)">
                  <use xlink:href="#rim" fill="#404040">
                        <set attributeName="fill" to="#808080" begin="arrowLeft.mouseover" end="arrowLeft.mouseout"/>
                  </use>
                  <path fill="none" stroke="white" stroke-width="1.5" d="M0,-3.0v7 M-2.5,-0.5L0,-3.0L2.5,-0.5"/>
                </g>
        </g>
        <svg viewBox="0 0 15 15" width="100%" height="30px" preserveAspectRatio="xMaxYMin meet">
         <g id="arrow_out" transform="scale(0.3 0.3)">
          <a xlink:href="abs_8cpp_a065a3ee9a7ec43a06ab2fddbc3019a17_cgraph_org.svg" target="_base">
           <rect id="button" ry="5" rx="5" y="6" x="6" height="38" width="38"
                fill="#f2f5e9" fill-opacity="0.5" stroke="#606060" stroke-width="1.0"/>
           <path id="arrow"
             d="M 11.500037,31.436501 C 11.940474,20.09759 22.043105,11.32322 32.158766,21.979434 L 37.068811,17.246167 C 37.068811,17.246167 37.088388,32 37.088388,32 L 22.160133,31.978069 C 22.160133,31.978069 26.997745,27.140456 26.997745,27.140456 C 18.528582,18.264221 13.291696,25.230495 11.500037,31.436501 z"
             style="fill:#404040;"/>
          </a>
         </g>
        </svg>
</svg>
