<?xml version="1.0" encoding="UTF-8" standalone="no"?>
<!DOCTYPE svg PUBLIC "-//W3C//DTD SVG 1.1//EN"
 "http://www.w3.org/Graphics/SVG/1.1/DTD/svg11.dtd">
<!-- Generated by graphviz version 2.43.0 (0)
 -->
<!-- Title: main Pages: 1 -->
<!--zoomable 571 -->
<svg id="main" version="1.1" xmlns="http://www.w3.org/2000/svg" xmlns:xlink="http://www.w3.org/1999/xlink" xml:space="preserve" onload="init(evt)">
<style type="text/css"><![CDATA[
.edge:hover path { stroke: red; }
.edge:hover polygon { stroke: red; fill: red; }
]]></style>
<script type="text/javascript"><![CDATA[
var edges = document.getElementsByTagName('g');
if (edges && edges.length) {
  for (var i=0;i<edges.length;i++) {
    if (edges[i].id.substr(0,4)=='edge') {
      edges[i].setAttribute('class','edge');
    }
  }
}
]]></script>
        <defs>
                <circle id="rim" cx="0" cy="0" r="7"/>
                <circle id="rim2" cx="0" cy="0" r="3.5"/>
                <g id="zoomPlus">
                        <use xlink:href="#rim" fill="#404040">
                                <set attributeName="fill" to="#808080" begin="zoomplus.mouseover" end="zoomplus.mouseout"/>
                        </use>
                        <path d="M-4,0h8M0,-4v8" fill="none" stroke="white" stroke-width="1.5" pointer-events="none"/>
                </g>
                <g id="zoomMin">
                        <use xlink:href="#rim" fill="#404040">
                                <set attributeName="fill" to="#808080" begin="zoomminus.mouseover" end="zoomminus.mouseout"/>
                        </use>
                        <path d="M-4,0h8" fill="none" stroke="white" stroke-width="1.5" pointer-events="none"/>
                </g>
                <g id="dirArrow">
                        <path fill="none" stroke="white" stroke-width="1.5" d="M0,-3.0v7 M-2.5,-0.5L0,-3.0L2.5,-0.5"/>
                </g>
               <g id="resetDef">
                       <use xlink:href="#rim2" fill="#404040">
                               <set attributeName="fill" to="#808080" begin="reset.mouseover" end="reset.mouseout"/>
                       </use>
               </g>
        </defs>

<script type="text/javascript">
var viewWidth = 1166;
var viewHeight = 571;
var sectionId = 'dynsection-3';
</script>
<script xlink:href="svgpan.js"/>
<svg id="graph" class="graph">
<g id="viewport">
<title>main</title>
<!-- Node1 -->
<g id="node1" class="node">
<title>Node1</title>
<g id="a_node1"><a xlink:title=" ">
<polygon fill="#bfbfbf" stroke="black" points="0,-348.05 0,-367.05 41,-367.05 41,-348.05 0,-348.05"/>
<text text-anchor="middle" x="20.5" y="-355.05" font-family="Helvetica,sans-Serif" font-size="10.00">main</text>
</a>
</g>
</g>
<!-- Node2 -->
<g id="node2" class="node">
<title>Node2</title>
<g id="a_node2"><a xlink:href="add_8cpp.html#a9dab42e311b982887e521b7ef2dc6ad1" target="_top" xlink:title="Adds two string representations of numbers, and performs with the column method.">
<polygon fill="none" stroke="black" points="77,-348.05 77,-367.05 112,-367.05 112,-348.05 77,-348.05"/>
<text text-anchor="middle" x="94.5" y="-355.05" font-family="Helvetica,sans-Serif" font-size="10.00">add</text>
</a>
</g>
</g>
<!-- Node1&#45;&gt;Node2 -->
<g id="edge1" class="edge">
<title>Node1&#45;&gt;Node2</title>
<path fill="none" stroke="midnightblue" d="M41.17,-357.55C49.02,-357.55 58.18,-357.55 66.62,-357.55"/>
<polygon fill="midnightblue" stroke="midnightblue" points="66.78,-361.05 76.78,-357.55 66.78,-354.05 66.78,-361.05"/>
</g>
<!-- Node3 -->
<g id="node3" class="node">
<title>Node3</title>
<g id="a_node3"><a xlink:href="util_8hpp.html#a183c024df291889f90106e47bb64fe0b" target="_top" xlink:title="Checks if a given string is a zero string.">
<polygon fill="none" stroke="black" points="1082,-325.05 1082,-344.05 1158,-344.05 1158,-325.05 1082,-325.05"/>
<text text-anchor="middle" x="1120" y="-332.05" font-family="Helvetica,sans-Serif" font-size="10.00">isZeroString</text>
</a>
</g>
</g>
<!-- Node2&#45;&gt;Node3 -->
<g id="edge2" class="edge">
<title>Node2&#45;&gt;Node3</title>
<path fill="none" stroke="midnightblue" d="M98.24,-367.16C110.43,-407.69 163.75,-562.55 267,-562.55 267,-562.55 267,-562.55 848.5,-562.55 944.06,-562.55 976.25,-542.87 1046,-477.55 1083.33,-442.6 1104.65,-384.3 1113.73,-354.07"/>
<polygon fill="midnightblue" stroke="midnightblue" points="1117.14,-354.87 1116.53,-344.29 1110.41,-352.94 1117.14,-354.87"/>
</g>
<!-- Node4 -->
<g id="node4" class="node">
<title>Node4</title>
<g id="a_node4"><a xlink:href="addReport_8cpp.html#ad77bd53c675044525fecd7273407c4a6" target="_top" xlink:title="Reports the sum of two number strings.">
<polygon fill="none" stroke="black" points="499,-363.05 499,-382.05 564,-382.05 564,-363.05 499,-363.05"/>
<text text-anchor="middle" x="531.5" y="-370.05" font-family="Helvetica,sans-Serif" font-size="10.00">reportAdd</text>
</a>
</g>
</g>
<!-- Node2&#45;&gt;Node4 -->
<g id="edge3" class="edge">
<title>Node2&#45;&gt;Node4</title>
<path fill="none" stroke="midnightblue" d="M112.21,-364.76C122.38,-368.85 135.72,-373.71 148,-376.55 265.08,-403.69 298.24,-401.59 418,-391.55 441.58,-389.58 467.65,-385.31 488.75,-381.31"/>
<polygon fill="midnightblue" stroke="midnightblue" points="489.53,-384.73 498.68,-379.39 488.19,-377.86 489.53,-384.73"/>
</g>
<!-- Node10 -->
<g id="node10" class="node">
<title>Node10</title>
<g id="a_node10"><a xlink:href="namespaceformats.html#a296119cbd1b0c858739af6b363fb262a" target="_top" xlink:title="Set the text format to reverse.">
<polygon fill="none" stroke="black" points="482.5,-287.05 482.5,-306.05 580.5,-306.05 580.5,-287.05 482.5,-287.05"/>
<text text-anchor="middle" x="531.5" y="-294.05" font-family="Helvetica,sans-Serif" font-size="10.00">formats::reverse</text>
</a>
</g>
</g>
<!-- Node2&#45;&gt;Node10 -->
<g id="edge11" class="edge">
<title>Node2&#45;&gt;Node10</title>
<path fill="none" stroke="midnightblue" d="M105.22,-347.77C127.01,-326.66 182.34,-277.26 240,-259.55 330.36,-231.8 442.7,-263.88 497.43,-283.52"/>
<polygon fill="midnightblue" stroke="midnightblue" points="496.37,-286.85 506.96,-287.02 498.78,-280.28 496.37,-286.85"/>
</g>
<!-- Node12 -->
<g id="node12" class="node">
<title>Node12</title>
<g id="a_node12"><a xlink:href="util_8hpp.html#ac76b4ec861cbb199d3349f225f969b82" target="_top" xlink:title=" ">
<polygon fill="none" stroke="black" points="493,-59.05 493,-78.05 570,-78.05 570,-59.05 493,-59.05"/>
<text text-anchor="middle" x="531.5" y="-66.05" font-family="Helvetica,sans-Serif" font-size="10.00">splitNumber</text>
</a>
</g>
</g>
<!-- Node2&#45;&gt;Node12 -->
<g id="edge13" class="edge">
<title>Node2&#45;&gt;Node12</title>
<path fill="none" stroke="midnightblue" d="M99.44,-347.97C117.73,-305 199.2,-130.22 332,-83.55 381.3,-66.23 441.6,-64.14 482.71,-65.33"/>
<polygon fill="midnightblue" stroke="midnightblue" points="482.61,-68.82 492.74,-65.69 482.87,-61.83 482.61,-68.82"/>
</g>
<!-- Node16 -->
<g id="node16" class="node">
<title>Node16</title>
<g id="a_node16"><a xlink:href="basicArithm_8hpp.html#a08faec0b8e863df19e3f978758166482" target="_top" xlink:title="Subtracts one string representation of a number from another string representation of a number.">
<polygon fill="none" stroke="black" points="148,-348.05 148,-367.05 204,-367.05 204,-348.05 148,-348.05"/>
<text text-anchor="middle" x="176" y="-355.05" font-family="Helvetica,sans-Serif" font-size="10.00">subtract</text>
</a>
</g>
</g>
<!-- Node2&#45;&gt;Node16 -->
<g id="edge20" class="edge">
<title>Node2&#45;&gt;Node16</title>
<path fill="none" stroke="midnightblue" d="M112.36,-357.55C119.76,-357.55 128.77,-357.55 137.63,-357.55"/>
<polygon fill="midnightblue" stroke="midnightblue" points="137.84,-361.05 147.84,-357.55 137.84,-354.05 137.84,-361.05"/>
</g>
<!-- Node4&#45;&gt;Node3 -->
<g id="edge4" class="edge">
<title>Node4&#45;&gt;Node3</title>
<path fill="none" stroke="midnightblue" d="M564.18,-372.64C644.87,-372.52 864.54,-370.08 1046,-348.55 1054.38,-347.56 1063.25,-346.16 1071.8,-344.62"/>
<polygon fill="midnightblue" stroke="midnightblue" points="1072.46,-348.06 1081.65,-342.78 1071.17,-341.18 1072.46,-348.06"/>
</g>
<!-- Node5 -->
<g id="node5" class="node">
<title>Node5</title>
<g id="a_node5"><a xlink:href="symbols_8hpp.html#a4c2486dd425b34a3a7b6f64db79add2c" target="_top" xlink:title="Create a subscript string from a normal string.">
<polygon fill="none" stroke="black" points="660.5,-401.05 660.5,-420.05 749.5,-420.05 749.5,-401.05 660.5,-401.05"/>
<text text-anchor="middle" x="705" y="-408.05" font-family="Helvetica,sans-Serif" font-size="10.00">makeSubscript</text>
</a>
</g>
</g>
<!-- Node4&#45;&gt;Node5 -->
<g id="edge5" class="edge">
<title>Node4&#45;&gt;Node5</title>
<path fill="none" stroke="midnightblue" d="M564.36,-379.61C588.71,-385.01 622.8,-392.56 651.21,-398.86"/>
<polygon fill="midnightblue" stroke="midnightblue" points="650.48,-402.28 661,-401.02 651.99,-395.44 650.48,-402.28"/>
</g>
<!-- Node7 -->
<g id="node7" class="node">
<title>Node7</title>
<g id="a_node7"><a xlink:href="util_8hpp.html#afbed3096b7064ba07c83c6c15212b793" target="_top" xlink:title="Standardizes a number string.">
<polygon fill="none" stroke="black" points="648.5,-211.05 648.5,-230.05 761.5,-230.05 761.5,-211.05 648.5,-211.05"/>
<text text-anchor="middle" x="705" y="-218.05" font-family="Helvetica,sans-Serif" font-size="10.00">standardizeNumber</text>
</a>
</g>
</g>
<!-- Node4&#45;&gt;Node7 -->
<g id="edge7" class="edge">
<title>Node4&#45;&gt;Node7</title>
<path fill="none" stroke="midnightblue" d="M546.88,-362.95C562.7,-352.14 588.57,-333.7 609,-315.55 626.39,-300.1 628.63,-294.08 645,-277.55 658.68,-263.74 674.55,-248.45 686.38,-237.19"/>
<polygon fill="midnightblue" stroke="midnightblue" points="689,-239.52 693.85,-230.1 684.18,-234.44 689,-239.52"/>
</g>
<!-- Node6 -->
<g id="node6" class="node">
<title>Node6</title>
<g id="a_node6"><a xlink:href="util_8hpp.html#a2c093cfa77eddb403db19eaecf57fa6e" target="_top" xlink:title="Converts a Unicode character to UTF&#45;8 encoding.">
<polygon fill="none" stroke="black" points="804.5,-401.05 804.5,-420.05 890.5,-420.05 890.5,-401.05 804.5,-401.05"/>
<text text-anchor="middle" x="847.5" y="-408.05" font-family="Helvetica,sans-Serif" font-size="10.00">unicodeToUtf8</text>
</a>
</g>
</g>
<!-- Node5&#45;&gt;Node6 -->
<g id="edge6" class="edge">
<title>Node5&#45;&gt;Node6</title>
<path fill="none" stroke="midnightblue" d="M749.68,-410.55C763.69,-410.55 779.34,-410.55 793.91,-410.55"/>
<polygon fill="midnightblue" stroke="midnightblue" points="794.29,-414.05 804.29,-410.55 794.29,-407.05 794.29,-414.05"/>
</g>
<!-- Node8 -->
<g id="node8" class="node">
<title>Node8</title>
<g id="a_node8"><a xlink:href="util_8cpp.html#a32344e51c6ae485367b4fbf6bb535742" target="_top" xlink:title="Simplifies a string with non&#45;standard polarity (e.g., –1, —1, etc.).">
<polygon fill="none" stroke="black" points="801,-97.05 801,-116.05 894,-116.05 894,-97.05 801,-97.05"/>
<text text-anchor="middle" x="847.5" y="-104.05" font-family="Helvetica,sans-Serif" font-size="10.00">simplifyPolarity</text>
</a>
</g>
</g>
<!-- Node7&#45;&gt;Node8 -->
<g id="edge8" class="edge">
<title>Node7&#45;&gt;Node8</title>
<path fill="none" stroke="midnightblue" d="M717.98,-210.83C742.14,-191.23 796.92,-146.78 826.56,-122.73"/>
<polygon fill="midnightblue" stroke="midnightblue" points="828.99,-125.27 834.55,-116.25 824.58,-119.83 828.99,-125.27"/>
</g>
<!-- Node9 -->
<g id="node9" class="node">
<title>Node9</title>
<g id="a_node9"><a xlink:href="util_8cpp.html#a70584872ee14fa0befa8f25788f98a2b" target="_top" xlink:title="Simplifies a string that represents a number with non&#45;standard polarity.">
<polygon fill="none" stroke="black" points="930,-135.05 930,-154.05 1046,-154.05 1046,-135.05 930,-135.05"/>
<text text-anchor="middle" x="988" y="-142.05" font-family="Helvetica,sans-Serif" font-size="10.00">simplifyZeroPolarity</text>
</a>
</g>
</g>
<!-- Node8&#45;&gt;Node9 -->
<g id="edge9" class="edge">
<title>Node8&#45;&gt;Node9</title>
<path fill="none" stroke="midnightblue" d="M883.45,-116.14C901.33,-121.05 923.29,-127.07 942.38,-132.31"/>
<polygon fill="midnightblue" stroke="midnightblue" points="941.49,-135.7 952.06,-134.97 943.34,-128.95 941.49,-135.7"/>
</g>
<!-- Node9&#45;&gt;Node3 -->
<g id="edge10" class="edge">
<title>Node9&#45;&gt;Node3</title>
<path fill="none" stroke="midnightblue" d="M1023.21,-154.05C1031.42,-157.58 1039.65,-162.3 1046,-168.55 1088.33,-210.22 1107.92,-280.64 1115.29,-314.79"/>
<polygon fill="midnightblue" stroke="midnightblue" points="1111.92,-315.79 1117.34,-324.89 1118.78,-314.4 1111.92,-315.79"/>
</g>
<!-- Node11 -->
<g id="node11" class="node">
<title>Node11</title>
<g id="a_node11"><a xlink:href="colors_8cpp.html#aea0b5c095796ad31bd8aa86853337868" target="_top" xlink:title="Check if the output stream is a terminal.">
<polygon fill="none" stroke="black" points="671.5,-287.05 671.5,-306.05 738.5,-306.05 738.5,-287.05 671.5,-287.05"/>
<text text-anchor="middle" x="705" y="-294.05" font-family="Helvetica,sans-Serif" font-size="10.00">isTerminal</text>
</a>
</g>
</g>
<!-- Node10&#45;&gt;Node11 -->
<g id="edge12" class="edge">
<title>Node10&#45;&gt;Node11</title>
<path fill="none" stroke="midnightblue" d="M580.73,-296.55C606.04,-296.55 636.79,-296.55 661.24,-296.55"/>
<polygon fill="midnightblue" stroke="midnightblue" points="661.3,-300.05 671.3,-296.55 661.3,-293.05 661.3,-300.05"/>
</g>
<!-- Node12&#45;&gt;Node3 -->
<g id="edge14" class="edge">
<title>Node12&#45;&gt;Node3</title>
<path fill="none" stroke="midnightblue" d="M569.94,-78.15C583.22,-82.81 597.67,-89.42 609,-98.55 631.46,-116.65 621.26,-136.17 645,-152.55 795.48,-256.43 890.83,-147.82 1046,-244.55 1074.59,-262.38 1097.02,-295.4 1109.11,-316.1"/>
<polygon fill="midnightblue" stroke="midnightblue" points="1106.1,-317.9 1114.06,-324.91 1112.21,-314.47 1106.1,-317.9"/>
</g>
<!-- Node12&#45;&gt;Node8 -->
<g id="edge17" class="edge">
<title>Node12&#45;&gt;Node8</title>
<path fill="none" stroke="midnightblue" d="M546.47,-58.96C583.56,-34.78 687.02,24.29 765,-11.55 799.05,-27.21 824.22,-64.89 837.01,-87.81"/>
<polygon fill="midnightblue" stroke="midnightblue" points="834.07,-89.73 841.87,-96.9 840.24,-86.43 834.07,-89.73"/>
</g>
<!-- Node12&#45;&gt;Node9 -->
<g id="edge18" class="edge">
<title>Node12&#45;&gt;Node9</title>
<path fill="none" stroke="midnightblue" d="M562.41,-78.16C576.89,-83.34 594.3,-90.35 609,-98.55 626.47,-108.29 626.21,-118.7 645,-125.55 735.8,-158.64 849.13,-157.38 919.8,-152.04"/>
<polygon fill="midnightblue" stroke="midnightblue" points="920.23,-155.52 929.91,-151.23 919.67,-148.54 920.23,-155.52"/>
</g>
<!-- Node13 -->
<g id="node13" class="node">
<title>Node13</title>
<g id="a_node13"><a xlink:href="util_8cpp.html#a8056dcad90ba9582ba25405a95c2f1e4" target="_top" xlink:title=" ">
<polygon fill="none" stroke="black" points="645,-97.05 645,-116.05 765,-116.05 765,-97.05 645,-97.05"/>
<text text-anchor="middle" x="705" y="-104.05" font-family="Helvetica,sans-Serif" font-size="10.00">removeLeadingZeros</text>
</a>
</g>
</g>
<!-- Node12&#45;&gt;Node13 -->
<g id="edge15" class="edge">
<title>Node12&#45;&gt;Node13</title>
<path fill="none" stroke="midnightblue" d="M570.14,-76.89C593.92,-82.16 625,-89.05 651.23,-94.86"/>
<polygon fill="midnightblue" stroke="midnightblue" points="650.49,-98.28 661.01,-97.03 652.01,-91.45 650.49,-98.28"/>
</g>
<!-- Node14 -->
<g id="node14" class="node">
<title>Node14</title>
<g id="a_node14"><a xlink:href="util_8cpp.html#a7f0f5e18cd1b1507ace9b814e6286dda" target="_top" xlink:title=" ">
<polygon fill="none" stroke="black" points="646.5,-59.05 646.5,-78.05 763.5,-78.05 763.5,-59.05 646.5,-59.05"/>
<text text-anchor="middle" x="705" y="-66.05" font-family="Helvetica,sans-Serif" font-size="10.00">removeTrailingZeros</text>
</a>
</g>
</g>
<!-- Node12&#45;&gt;Node14 -->
<g id="edge16" class="edge">
<title>Node12&#45;&gt;Node14</title>
<path fill="none" stroke="midnightblue" d="M570.14,-68.55C589.46,-68.55 613.6,-68.55 636.05,-68.55"/>
<polygon fill="midnightblue" stroke="midnightblue" points="636.22,-72.05 646.22,-68.55 636.22,-65.05 636.22,-72.05"/>
</g>
<!-- Node15 -->
<g id="node15" class="node">
<title>Node15</title>
<g id="a_node15"><a xlink:href="util_8hpp.html#a771e8f4ac1c095d4c0fef2c966cd69d7" target="_top" xlink:title="Splits a string into substrings based on a separator.">
<polygon fill="none" stroke="black" points="686,-21.05 686,-40.05 724,-40.05 724,-21.05 686,-21.05"/>
<text text-anchor="middle" x="705" y="-28.05" font-family="Helvetica,sans-Serif" font-size="10.00">split</text>
</a>
</g>
</g>
<!-- Node12&#45;&gt;Node15 -->
<g id="edge19" class="edge">
<title>Node12&#45;&gt;Node15</title>
<path fill="none" stroke="midnightblue" d="M570.14,-60.21C602.1,-53.13 647.26,-43.13 676.08,-36.74"/>
<polygon fill="midnightblue" stroke="midnightblue" points="676.9,-40.14 685.91,-34.56 675.39,-33.31 676.9,-40.14"/>
</g>
<!-- Node16&#45;&gt;Node3 -->
<g id="edge33" class="edge">
<title>Node16&#45;&gt;Node3</title>
<path fill="none" stroke="midnightblue" d="M182.27,-367.5C202.13,-403.45 276.26,-524.55 374,-524.55 374,-524.55 374,-524.55 848.5,-524.55 967.65,-524.55 1071.45,-399.58 1106.43,-352.35"/>
<polygon fill="midnightblue" stroke="midnightblue" points="1109.28,-354.38 1112.33,-344.24 1103.62,-350.27 1109.28,-354.38"/>
</g>
<!-- Node16&#45;&gt;Node10 -->
<g id="edge38" class="edge">
<title>Node16&#45;&gt;Node10</title>
<path fill="none" stroke="midnightblue" d="M204.15,-352.87C261.25,-343.01 394.84,-319.96 472.24,-306.61"/>
<polygon fill="midnightblue" stroke="midnightblue" points="473.05,-310.02 482.31,-304.87 471.86,-303.12 473.05,-310.02"/>
</g>
<!-- Node16&#45;&gt;Node12 -->
<g id="edge39" class="edge">
<title>Node16&#45;&gt;Node12</title>
<path fill="none" stroke="midnightblue" d="M179.88,-347.81C191.52,-310.38 238.97,-175.24 332,-120.55 378.96,-92.95 440.63,-79.77 482.69,-73.63"/>
<polygon fill="midnightblue" stroke="midnightblue" points="483.25,-77.09 492.67,-72.25 482.29,-70.15 483.25,-77.09"/>
</g>
<!-- Node17 -->
<g id="node17" class="node">
<title>Node17</title>
<g id="a_node17"><a xlink:href="basicArithm_8hpp.html#a22524b6e1ea1e62b578978978521148e" target="_top" xlink:title="Adds two string representations of numbers, and performs with the column method.">
<polygon fill="none" stroke="black" points="357.5,-363.05 357.5,-382.05 392.5,-382.05 392.5,-363.05 357.5,-363.05"/>
<text text-anchor="middle" x="375" y="-370.05" font-family="Helvetica,sans-Serif" font-size="10.00">add</text>
</a>
</g>
</g>
<!-- Node16&#45;&gt;Node17 -->
<g id="edge21" class="edge">
<title>Node16&#45;&gt;Node17</title>
<path fill="none" stroke="midnightblue" d="M204.39,-354.79C242.11,-355.11 309.62,-360.27 347.09,-365.69"/>
<polygon fill="midnightblue" stroke="midnightblue" points="346.82,-369.19 357.25,-367.3 347.92,-362.28 346.82,-369.19"/>
</g>
<!-- Node18 -->
<g id="node18" class="node">
<title>Node18</title>
<g id="a_node18"><a xlink:href="basicArithm_8hpp.html#aabb709fcb471467879352bf51bb0030a" target="_top" xlink:title="Compares two string representations of numbers.">
<polygon fill="none" stroke="black" points="345.5,-173.05 345.5,-192.05 404.5,-192.05 404.5,-173.05 345.5,-173.05"/>
<text text-anchor="middle" x="375" y="-180.05" font-family="Helvetica,sans-Serif" font-size="10.00">compare</text>
</a>
</g>
</g>
<!-- Node16&#45;&gt;Node18 -->
<g id="edge27" class="edge">
<title>Node16&#45;&gt;Node18</title>
<path fill="none" stroke="midnightblue" d="M181.3,-347.85C190.06,-328.94 211.59,-286.61 240,-259.55 269.67,-231.29 311.64,-209.34 340.66,-196.23"/>
<polygon fill="midnightblue" stroke="midnightblue" points="342.24,-199.37 349.98,-192.13 339.41,-192.96 342.24,-199.37"/>
</g>
<!-- Node22 -->
<g id="node22" class="node">
<title>Node22</title>
<g id="a_node22"><a xlink:href="subtractReport_8cpp.html#ad21f3d209885b1c419ff73800bb3b33b" target="_top" xlink:title="Reports a subtraction operation to the user.">
<polygon fill="none" stroke="black" points="332,-458.05 332,-477.05 418,-477.05 418,-458.05 332,-458.05"/>
<text text-anchor="middle" x="375" y="-465.05" font-family="Helvetica,sans-Serif" font-size="10.00">reportSubtract</text>
</a>
</g>
</g>
<!-- Node16&#45;&gt;Node22 -->
<g id="edge34" class="edge">
<title>Node16&#45;&gt;Node22</title>
<path fill="none" stroke="midnightblue" d="M194.14,-367.12C228.7,-386.42 306.96,-430.12 347.91,-452.98"/>
<polygon fill="midnightblue" stroke="midnightblue" points="346.32,-456.11 356.76,-457.93 349.74,-450 346.32,-456.11"/>
</g>
<!-- Node25 -->
<g id="node25" class="node">
<title>Node25</title>
<g id="a_node25"><a xlink:href="subtract_8cpp.html#ac94acf58b23f19e226b9263fa3a2b0da" target="_top" xlink:title="Subtracts one string representation of a number from another string representation of a number.">
<polygon fill="none" stroke="black" points="240,-269.05 240,-288.05 296,-288.05 296,-269.05 240,-269.05"/>
<text text-anchor="middle" x="268" y="-276.05" font-family="Helvetica,sans-Serif" font-size="10.00">subtract</text>
</a>
</g>
</g>
<!-- Node16&#45;&gt;Node25 -->
<g id="edge40" class="edge">
<title>Node16&#45;&gt;Node25</title>
<path fill="none" stroke="midnightblue" d="M188.04,-347.87C203.1,-334.65 230.29,-310.77 248.5,-294.79"/>
<polygon fill="midnightblue" stroke="midnightblue" points="250.95,-297.3 256.16,-288.07 246.33,-292.04 250.95,-297.3"/>
</g>
<!-- Node17&#45;&gt;Node3 -->
<g id="edge22" class="edge">
<title>Node17&#45;&gt;Node3</title>
<path fill="none" stroke="midnightblue" d="M392.58,-367.68C408.26,-363.27 432.53,-356.96 454,-353.55 564.05,-336.09 592.57,-334.55 704,-334.55 704,-334.55 704,-334.55 848.5,-334.55 926.65,-334.55 1017.49,-334.55 1071.51,-334.55"/>
<polygon fill="midnightblue" stroke="midnightblue" points="1071.81,-338.05 1081.81,-334.55 1071.81,-331.05 1071.81,-338.05"/>
</g>
<!-- Node17&#45;&gt;Node4 -->
<g id="edge23" class="edge">
<title>Node17&#45;&gt;Node4</title>
<path fill="none" stroke="midnightblue" d="M392.53,-372.55C415.26,-372.55 456.94,-372.55 488.56,-372.55"/>
<polygon fill="midnightblue" stroke="midnightblue" points="488.86,-376.05 498.86,-372.55 488.86,-369.05 488.86,-376.05"/>
</g>
<!-- Node17&#45;&gt;Node10 -->
<g id="edge24" class="edge">
<title>Node17&#45;&gt;Node10</title>
<path fill="none" stroke="midnightblue" d="M392.68,-363.73C400.52,-359.41 409.91,-353.97 418,-348.55 434.84,-337.27 436.04,-329.96 454,-320.55 462.33,-316.19 471.59,-312.46 480.71,-309.33"/>
<polygon fill="midnightblue" stroke="midnightblue" points="482.06,-312.57 490.51,-306.17 479.91,-305.91 482.06,-312.57"/>
</g>
<!-- Node17&#45;&gt;Node12 -->
<g id="edge25" class="edge">
<title>Node17&#45;&gt;Node12</title>
<path fill="none" stroke="midnightblue" d="M378.23,-362.79C387.66,-322.11 425.07,-166.23 454,-125.55 466.63,-107.79 486.5,-93.22 502.82,-83.26"/>
<polygon fill="midnightblue" stroke="midnightblue" points="504.59,-86.28 511.46,-78.21 501.06,-80.24 504.59,-86.28"/>
</g>
<!-- Node17&#45;&gt;Node16 -->
<g id="edge26" class="edge">
<title>Node17&#45;&gt;Node16</title>
<path fill="none" stroke="midnightblue" d="M357.25,-375.25C325.83,-375.98 257.38,-371.26 214.45,-365.84"/>
<polygon fill="midnightblue" stroke="midnightblue" points="214.77,-362.35 204.39,-364.48 213.84,-369.28 214.77,-362.35"/>
</g>
<!-- Node18&#45;&gt;Node7 -->
<g id="edge32" class="edge">
<title>Node18&#45;&gt;Node7</title>
<path fill="none" stroke="midnightblue" d="M394.96,-172.89C402.37,-168.82 410.81,-163.8 418,-158.55 435.53,-145.76 433.77,-133.42 454,-125.55 518.2,-100.58 550.3,-89.5 609,-125.55 639.15,-144.07 618.97,-172.59 645,-196.55 649.33,-200.53 654.4,-203.9 659.73,-206.73"/>
<polygon fill="midnightblue" stroke="midnightblue" points="658.3,-209.92 668.84,-211 661.27,-203.58 658.3,-209.92"/>
</g>
<!-- Node18&#45;&gt;Node12 -->
<g id="edge31" class="edge">
<title>Node18&#45;&gt;Node12</title>
<path fill="none" stroke="midnightblue" d="M398.1,-172.89C405.04,-169.12 412.36,-164.31 418,-158.55 441.39,-134.69 428.18,-113.76 454,-92.55 462.31,-85.72 472.58,-80.83 482.86,-77.33"/>
<polygon fill="midnightblue" stroke="midnightblue" points="484.1,-80.61 492.67,-74.37 482.08,-73.91 484.1,-80.61"/>
</g>
<!-- Node19 -->
<g id="node19" class="node">
<title>Node19</title>
<g id="a_node19"><a xlink:href="comparisonReport_8cpp.html#a9837660fa80278748f7f9bc397f5fba4" target="_top" xlink:title="Reports the comparison based on the integer. If the integer parts are of different length,...">
<polygon fill="none" stroke="black" points="457,-135.05 457,-154.05 606,-154.05 606,-135.05 457,-135.05"/>
<text text-anchor="middle" x="531.5" y="-142.05" font-family="Helvetica,sans-Serif" font-size="10.00">reportComparisonAtInteger</text>
</a>
</g>
</g>
<!-- Node18&#45;&gt;Node19 -->
<g id="edge28" class="edge">
<title>Node18&#45;&gt;Node19</title>
<path fill="none" stroke="midnightblue" d="M404.7,-175.49C426.35,-170.17 456.55,-162.74 481.93,-156.5"/>
<polygon fill="midnightblue" stroke="midnightblue" points="482.88,-159.87 491.76,-154.08 481.21,-153.07 482.88,-159.87"/>
</g>
<!-- Node20 -->
<g id="node20" class="node">
<title>Node20</title>
<g id="a_node20"><a xlink:href="comparisonReport_8cpp.html#adc6ac398c16b4d30ab55b0ec5ceef9f3" target="_top" xlink:title="Compares each digit and see if one is larger.">
<polygon fill="none" stroke="black" points="461.5,-211.05 461.5,-230.05 601.5,-230.05 601.5,-211.05 461.5,-211.05"/>
<text text-anchor="middle" x="531.5" y="-218.05" font-family="Helvetica,sans-Serif" font-size="10.00">reportComparisonByDigit</text>
</a>
</g>
</g>
<!-- Node18&#45;&gt;Node20 -->
<g id="edge29" class="edge">
<title>Node18&#45;&gt;Node20</title>
<path fill="none" stroke="midnightblue" d="M404.7,-189.61C426.35,-194.94 456.55,-202.36 481.93,-208.61"/>
<polygon fill="midnightblue" stroke="midnightblue" points="481.21,-212.03 491.76,-211.02 482.88,-205.24 481.21,-212.03"/>
</g>
<!-- Node21 -->
<g id="node21" class="node">
<title>Node21</title>
<g id="a_node21"><a xlink:href="comparisonReport_8cpp.html#a8bdddfcaa5a1d0339df5705ec6ff2aff" target="_top" xlink:title="Reports the comparison based on the polarity. If they are of different polarity, the one that is posi...">
<polygon fill="none" stroke="black" points="454,-173.05 454,-192.05 609,-192.05 609,-173.05 454,-173.05"/>
<text text-anchor="middle" x="531.5" y="-180.05" font-family="Helvetica,sans-Serif" font-size="10.00">reportComparisonByPolarity</text>
</a>
</g>
</g>
<!-- Node18&#45;&gt;Node21 -->
<g id="edge30" class="edge">
<title>Node18&#45;&gt;Node21</title>
<path fill="none" stroke="midnightblue" d="M404.7,-182.55C415.93,-182.55 429.47,-182.55 443.45,-182.55"/>
<polygon fill="midnightblue" stroke="midnightblue" points="443.67,-186.05 453.67,-182.55 443.67,-179.05 443.67,-186.05"/>
</g>
<!-- Node22&#45;&gt;Node5 -->
<g id="edge35" class="edge">
<title>Node22&#45;&gt;Node5</title>
<path fill="none" stroke="midnightblue" d="M393.67,-457.98C412.72,-447.83 441.93,-432.82 454,-429.55 519.84,-411.71 598.75,-408.6 650.06,-408.86"/>
<polygon fill="midnightblue" stroke="midnightblue" points="650.22,-412.36 660.26,-408.96 650.29,-405.36 650.22,-412.36"/>
</g>
<!-- Node23 -->
<g id="node23" class="node">
<title>Node23</title>
<g id="a_node23"><a xlink:href="util_8hpp.html#a8056dcad90ba9582ba25405a95c2f1e4" target="_top" xlink:title=" ">
<polygon fill="none" stroke="black" points="471.5,-477.05 471.5,-496.05 591.5,-496.05 591.5,-477.05 471.5,-477.05"/>
<text text-anchor="middle" x="531.5" y="-484.05" font-family="Helvetica,sans-Serif" font-size="10.00">removeLeadingZeros</text>
</a>
</g>
</g>
<!-- Node22&#45;&gt;Node23 -->
<g id="edge36" class="edge">
<title>Node22&#45;&gt;Node23</title>
<path fill="none" stroke="midnightblue" d="M418.22,-472.74C431.5,-474.38 446.54,-476.23 461.19,-478.03"/>
<polygon fill="midnightblue" stroke="midnightblue" points="460.9,-481.52 471.25,-479.27 461.75,-474.57 460.9,-481.52"/>
</g>
<!-- Node24 -->
<g id="node24" class="node">
<title>Node24</title>
<g id="a_node24"><a xlink:href="util_8hpp.html#ac87bf229222a2a4f32b8626281c6c282" target="_top" xlink:title=" ">
<polygon fill="none" stroke="black" points="472,-439.05 472,-458.05 591,-458.05 591,-439.05 472,-439.05"/>
<text text-anchor="middle" x="531.5" y="-446.05" font-family="Helvetica,sans-Serif" font-size="10.00">replaceLeadingZeros</text>
</a>
</g>
</g>
<!-- Node22&#45;&gt;Node24 -->
<g id="edge37" class="edge">
<title>Node22&#45;&gt;Node24</title>
<path fill="none" stroke="midnightblue" d="M418.22,-462.36C431.65,-460.71 446.87,-458.84 461.67,-457.02"/>
<polygon fill="midnightblue" stroke="midnightblue" points="462.33,-460.46 471.83,-455.77 461.48,-453.51 462.33,-460.46"/>
</g>
<!-- Node25&#45;&gt;Node3 -->
<g id="edge43" class="edge">
<title>Node25&#45;&gt;Node3</title>
<path fill="none" stroke="midnightblue" d="M296.46,-276.41C365.12,-271.25 549.77,-258.55 704,-258.55 704,-258.55 704,-258.55 848.5,-258.55 939.32,-258.55 1041.1,-298.75 1089.87,-320.67"/>
<polygon fill="midnightblue" stroke="midnightblue" points="1088.63,-323.95 1099.18,-324.93 1091.54,-317.59 1088.63,-323.95"/>
</g>
<!-- Node25&#45;&gt;Node10 -->
<g id="edge45" class="edge">
<title>Node25&#45;&gt;Node10</title>
<path fill="none" stroke="midnightblue" d="M296,-280.41C337.31,-283.25 417.2,-288.75 472.16,-292.54"/>
<polygon fill="midnightblue" stroke="midnightblue" points="472.24,-296.05 482.45,-293.25 472.72,-289.07 472.24,-296.05"/>
</g>
<!-- Node25&#45;&gt;Node12 -->
<g id="edge46" class="edge">
<title>Node25&#45;&gt;Node12</title>
<path fill="none" stroke="midnightblue" d="M272.02,-268.99C279.2,-247.56 299.21,-195.14 332,-163.55 362.78,-133.91 380.62,-141.27 418,-120.55 434.4,-111.46 437.21,-106.9 454,-98.55 466.52,-92.33 480.67,-86.48 493.36,-81.62"/>
<polygon fill="midnightblue" stroke="midnightblue" points="494.6,-84.89 502.73,-78.11 492.14,-78.34 494.6,-84.89"/>
</g>
<!-- Node25&#45;&gt;Node17 -->
<g id="edge41" class="edge">
<title>Node25&#45;&gt;Node17</title>
<path fill="none" stroke="midnightblue" d="M279.84,-288.26C297.78,-304.31 333.81,-336.57 355.73,-356.2"/>
<polygon fill="midnightblue" stroke="midnightblue" points="353.59,-358.98 363.37,-363.04 358.26,-353.76 353.59,-358.98"/>
</g>
<!-- Node25&#45;&gt;Node18 -->
<g id="edge42" class="edge">
<title>Node25&#45;&gt;Node18</title>
<path fill="none" stroke="midnightblue" d="M280.77,-268.99C285.69,-264.77 291.33,-259.63 296,-254.55 314.06,-234.93 312.01,-224.2 332,-206.55 335.74,-203.25 340,-200.19 344.35,-197.44"/>
<polygon fill="midnightblue" stroke="midnightblue" points="346.37,-200.31 353.23,-192.24 342.83,-194.27 346.37,-200.31"/>
</g>
<!-- Node25&#45;&gt;Node22 -->
<g id="edge44" class="edge">
<title>Node25&#45;&gt;Node22</title>
<path fill="none" stroke="midnightblue" d="M274.35,-288.18C290.92,-318 341.56,-409.17 363.59,-448.81"/>
<polygon fill="midnightblue" stroke="midnightblue" points="360.62,-450.67 368.53,-457.71 366.74,-447.27 360.62,-450.67"/>
</g>
<!-- Node25&#45;&gt;Node25 -->
<g id="edge47" class="edge">
<title>Node25&#45;&gt;Node25</title>
<path fill="none" stroke="midnightblue" d="M253.82,-288.31C246.92,-297.12 251.65,-306.55 268,-306.55 278.22,-306.55 283.9,-302.87 285.04,-297.95"/>
<polygon fill="midnightblue" stroke="midnightblue" points="288.38,-296.9 282.18,-288.31 281.66,-298.89 288.38,-296.9"/>
</g>
</g>
</svg>
        <g id="navigator" transform="translate(0 0)" fill="#404254">
                <rect fill="#f2f5e9" fill-opacity="0.5" stroke="#606060" stroke-width=".5" x="0" y="0" width="60" height="60"/>
                <use id="zoomplus" xlink:href="#zoomPlus" x="17" y="9" onmousedown="handleZoom(evt,'in')"/>
                <use id="zoomminus" xlink:href="#zoomMin" x="42" y="9" onmousedown="handleZoom(evt,'out')"/>
                <use id="reset" xlink:href="#resetDef" x="30" y="36" onmousedown="handleReset()"/>
                <g id="arrowUp" xlink:href="#dirArrow" transform="translate(30 24)" onmousedown="handlePan(0,-1)">
                  <use xlink:href="#rim" fill="#404040">
                        <set attributeName="fill" to="#808080" begin="arrowUp.mouseover" end="arrowUp.mouseout"/>
                  </use>
                  <path fill="none" stroke="white" stroke-width="1.5" d="M0,-3.0v7 M-2.5,-0.5L0,-3.0L2.5,-0.5"/>
                </g>
                <g id="arrowRight" xlink:href="#dirArrow" transform="rotate(90) translate(36 -43)" onmousedown="handlePan(1,0)">
                  <use xlink:href="#rim" fill="#404040">
                        <set attributeName="fill" to="#808080" begin="arrowRight.mouseover" end="arrowRight.mouseout"/>
                  </use>
                  <path fill="none" stroke="white" stroke-width="1.5" d="M0,-3.0v7 M-2.5,-0.5L0,-3.0L2.5,-0.5"/>
                </g>
                <g id="arrowDown" xlink:href="#dirArrow" transform="rotate(180) translate(-30 -48)" onmousedown="handlePan(0,1)">
                  <use xlink:href="#rim" fill="#404040">
                        <set attributeName="fill" to="#808080" begin="arrowDown.mouseover" end="arrowDown.mouseout"/>
                  </use>
                  <path fill="none" stroke="white" stroke-width="1.5" d="M0,-3.0v7 M-2.5,-0.5L0,-3.0L2.5,-0.5"/>
                </g>
                <g id="arrowLeft" xlink:href="#dirArrow" transform="rotate(270) translate(-36 17)" onmousedown="handlePan(-1,0)">
                  <use xlink:href="#rim" fill="#404040">
                        <set attributeName="fill" to="#808080" begin="arrowLeft.mouseover" end="arrowLeft.mouseout"/>
                  </use>
                  <path fill="none" stroke="white" stroke-width="1.5" d="M0,-3.0v7 M-2.5,-0.5L0,-3.0L2.5,-0.5"/>
                </g>
        </g>
        <svg viewBox="0 0 15 15" width="100%" height="30px" preserveAspectRatio="xMaxYMin meet">
         <g id="arrow_out" transform="scale(0.3 0.3)">
          <a xlink:href="add_8cpp_a065a3ee9a7ec43a06ab2fddbc3019a17_cgraph_org.svg" target="_base">
           <rect id="button" ry="5" rx="5" y="6" x="6" height="38" width="38"
                fill="#f2f5e9" fill-opacity="0.5" stroke="#606060" stroke-width="1.0"/>
           <path id="arrow"
             d="M 11.500037,31.436501 C 11.940474,20.09759 22.043105,11.32322 32.158766,21.979434 L 37.068811,17.246167 C 37.068811,17.246167 37.088388,32 37.088388,32 L 22.160133,31.978069 C 22.160133,31.978069 26.997745,27.140456 26.997745,27.140456 C 18.528582,18.264221 13.291696,25.230495 11.500037,31.436501 z"
             style="fill:#404040;"/>
          </a>
         </g>
        </svg>
</svg>
