<?xml version="1.0" encoding="UTF-8" standalone="no"?>
<!DOCTYPE svg PUBLIC "-//W3C//DTD SVG 1.1//EN"
 "http://www.w3.org/Graphics/SVG/1.1/DTD/svg11.dtd">
<!-- Generated by graphviz version 2.43.0 (0)
 -->
<!-- Title: include/argParse.hpp Pages: 1 -->
<!--zoomable 95 -->
<svg id="main" version="1.1" xmlns="http://www.w3.org/2000/svg" xmlns:xlink="http://www.w3.org/1999/xlink" xml:space="preserve" onload="init(evt)">
<style type="text/css"><![CDATA[
.edge:hover path { stroke: red; }
.edge:hover polygon { stroke: red; fill: red; }
]]></style>
<script type="text/javascript"><![CDATA[
var edges = document.getElementsByTagName('g');
if (edges && edges.length) {
  for (var i=0;i<edges.length;i++) {
    if (edges[i].id.substr(0,4)=='edge') {
      edges[i].setAttribute('class','edge');
    }
  }
}
]]></script>
        <defs>
                <circle id="rim" cx="0" cy="0" r="7"/>
                <circle id="rim2" cx="0" cy="0" r="3.5"/>
                <g id="zoomPlus">
                        <use xlink:href="#rim" fill="#404040">
                                <set attributeName="fill" to="#808080" begin="zoomplus.mouseover" end="zoomplus.mouseout"/>
                        </use>
                        <path d="M-4,0h8M0,-4v8" fill="none" stroke="white" stroke-width="1.5" pointer-events="none"/>
                </g>
                <g id="zoomMin">
                        <use xlink:href="#rim" fill="#404040">
                                <set attributeName="fill" to="#808080" begin="zoomminus.mouseover" end="zoomminus.mouseout"/>
                        </use>
                        <path d="M-4,0h8" fill="none" stroke="white" stroke-width="1.5" pointer-events="none"/>
                </g>
                <g id="dirArrow">
                        <path fill="none" stroke="white" stroke-width="1.5" d="M0,-3.0v7 M-2.5,-0.5L0,-3.0L2.5,-0.5"/>
                </g>
               <g id="resetDef">
                       <use xlink:href="#rim2" fill="#404040">
                               <set attributeName="fill" to="#808080" begin="reset.mouseover" end="reset.mouseout"/>
                       </use>
               </g>
        </defs>

<script type="text/javascript">
var viewWidth = 1561;
var viewHeight = 95;
var sectionId = 'dynsection-1';
</script>
<script xlink:href="svgpan.js"/>
<svg id="graph" class="graph">
<g id="viewport">
<title>include/argParse.hpp</title>
<!-- Node1 -->
<g id="node1" class="node">
<title>Node1</title>
<g id="a_node1"><a xlink:title="This file contains the declaration of the ProgramArgs class and related helper classes and functions.">
<polygon fill="#bfbfbf" stroke="black" points="723,-67.5 723,-86.5 841,-86.5 841,-67.5 723,-67.5"/>
<text text-anchor="middle" x="782" y="-74.5" font-family="Helvetica,sans-Serif" font-size="10.00">include/argParse.hpp</text>
</a>
</g>
</g>
<!-- Node2 -->
<g id="node2" class="node">
<title>Node2</title>
<g id="a_node2"><a xlink:href="abs_8cpp.html" target="_top" xlink:title="This file contains the implementation of the abs function, which gets the absolute value of a number ...">
<polygon fill="none" stroke="black" points="0,-6 0,-25 92,-25 92,-6 0,-6"/>
<text text-anchor="middle" x="46" y="-13" font-family="Helvetica,sans-Serif" font-size="10.00">src/abs/abs.cpp</text>
</a>
</g>
</g>
<!-- Node1&#45;&gt;Node2 -->
<g id="edge1" class="edge">
<title>Node1&#45;&gt;Node2</title>
<path fill="none" stroke="midnightblue" d="M712.73,-75.79C589.07,-74.45 322.51,-67.17 101,-31 92.13,-29.55 82.62,-27.3 74.04,-25"/>
<polygon fill="midnightblue" stroke="midnightblue" points="712.78,-79.29 722.81,-75.89 712.85,-72.29 712.78,-79.29"/>
</g>
<!-- Node3 -->
<g id="node3" class="node">
<title>Node3</title>
<g id="a_node3"><a xlink:href="add_8cpp.html" target="_top" xlink:title="This file contains the implementation of the add function, which add two number strings together.">
<polygon fill="none" stroke="black" points="110.5,-6 110.5,-25 203.5,-25 203.5,-6 110.5,-6"/>
<text text-anchor="middle" x="157" y="-13" font-family="Helvetica,sans-Serif" font-size="10.00">src/add/add.cpp</text>
</a>
</g>
</g>
<!-- Node1&#45;&gt;Node3 -->
<g id="edge2" class="edge">
<title>Node1&#45;&gt;Node3</title>
<path fill="none" stroke="midnightblue" d="M712.52,-74.4C604.84,-71.06 391.46,-60.93 213,-31 204.18,-29.52 194.73,-27.32 186.15,-25.07"/>
<polygon fill="midnightblue" stroke="midnightblue" points="712.51,-77.9 722.61,-74.71 712.72,-70.91 712.51,-77.9"/>
</g>
<!-- Node4 -->
<g id="node4" class="node">
<title>Node4</title>
<g id="a_node4"><a xlink:href="argParse_8cpp.html" target="_top" xlink:title=" ">
<polygon fill="none" stroke="black" points="222,-6 222,-25 318,-25 318,-6 222,-6"/>
<text text-anchor="middle" x="270" y="-13" font-family="Helvetica,sans-Serif" font-size="10.00">src/argParse.cpp</text>
</a>
</g>
</g>
<!-- Node1&#45;&gt;Node4 -->
<g id="edge3" class="edge">
<title>Node1&#45;&gt;Node4</title>
<path fill="none" stroke="midnightblue" d="M712.68,-72.4C623.09,-67 462.51,-54.8 327,-31 318.15,-29.45 308.65,-27.25 299.99,-25.03"/>
<polygon fill="midnightblue" stroke="midnightblue" points="712.53,-75.89 722.72,-72.99 712.94,-68.91 712.53,-75.89"/>
</g>
<!-- Node5 -->
<g id="node5" class="node">
<title>Node5</title>
<g id="a_node5"><a xlink:href="baseConvert_8cpp.html" target="_top" xlink:title="This file contains the implementation of the baseConvert function, which converts any number to any b...">
<polygon fill="none" stroke="black" points="336,-6 336,-25 516,-25 516,-6 336,-6"/>
<text text-anchor="middle" x="426" y="-13" font-family="Helvetica,sans-Serif" font-size="10.00">src/baseConvert/baseConvert.cpp</text>
</a>
</g>
</g>
<!-- Node1&#45;&gt;Node5 -->
<g id="edge4" class="edge">
<title>Node1&#45;&gt;Node5</title>
<path fill="none" stroke="midnightblue" d="M720.73,-65.76C651.84,-54.25 541.24,-35.76 476.91,-25.01"/>
<polygon fill="midnightblue" stroke="midnightblue" points="720.55,-69.28 730.99,-67.48 721.71,-62.37 720.55,-69.28"/>
</g>
<!-- Node6 -->
<g id="node6" class="node">
<title>Node6</title>
<g id="a_node6"><a xlink:href="comparison_8cpp.html" target="_top" xlink:title=" ">
<polygon fill="none" stroke="black" points="534.5,-6 534.5,-25 705.5,-25 705.5,-6 534.5,-6"/>
<text text-anchor="middle" x="620" y="-13" font-family="Helvetica,sans-Serif" font-size="10.00">src/comparison/comparison.cpp</text>
</a>
</g>
</g>
<!-- Node1&#45;&gt;Node6 -->
<g id="edge5" class="edge">
<title>Node1&#45;&gt;Node6</title>
<path fill="none" stroke="midnightblue" d="M749.15,-63.93C717.66,-52.37 670.94,-35.21 643.17,-25.01"/>
<polygon fill="midnightblue" stroke="midnightblue" points="748.2,-67.31 758.79,-67.48 750.61,-60.74 748.2,-67.31"/>
</g>
<!-- Node7 -->
<g id="node7" class="node">
<title>Node7</title>
<g id="a_node7"><a xlink:href="decimalConvert_8cpp.html" target="_top" xlink:title="This file contains the implementation of the decimalConvert function, which converts a number from on...">
<polygon fill="none" stroke="black" points="723.5,-0.5 723.5,-30.5 840.5,-30.5 840.5,-0.5 723.5,-0.5"/>
<text text-anchor="start" x="731.5" y="-18.5" font-family="Helvetica,sans-Serif" font-size="10.00">src/decimalConvert</text>
<text text-anchor="middle" x="782" y="-7.5" font-family="Helvetica,sans-Serif" font-size="10.00">/decimalConvert.cpp</text>
</a>
</g>
</g>
<!-- Node1&#45;&gt;Node7 -->
<g id="edge6" class="edge">
<title>Node1&#45;&gt;Node7</title>
<path fill="none" stroke="midnightblue" d="M782,-57.23C782,-48.59 782,-38.5 782,-30.52"/>
<polygon fill="midnightblue" stroke="midnightblue" points="778.5,-57.48 782,-67.48 785.5,-57.48 778.5,-57.48"/>
</g>
<!-- Node8 -->
<g id="node8" class="node">
<title>Node8</title>
<g id="a_node8"><a xlink:href="division_8cpp.html" target="_top" xlink:title="Performs division of two numbers represented in strings.">
<polygon fill="none" stroke="black" points="859,-6 859,-25 993,-25 993,-6 859,-6"/>
<text text-anchor="middle" x="926" y="-13" font-family="Helvetica,sans-Serif" font-size="10.00">src/division/division.cpp</text>
</a>
</g>
</g>
<!-- Node1&#45;&gt;Node8 -->
<g id="edge7" class="edge">
<title>Node1&#45;&gt;Node8</title>
<path fill="none" stroke="midnightblue" d="M811.93,-63.63C839.91,-52.07 880.94,-35.12 905.41,-25.01"/>
<polygon fill="midnightblue" stroke="midnightblue" points="810.54,-60.42 802.63,-67.48 813.21,-66.89 810.54,-60.42"/>
</g>
<!-- Node9 -->
<g id="node9" class="node">
<title>Node9</title>
<g id="a_node9"><a xlink:href="multiply_8cpp.html" target="_top" xlink:title="This file contains the implementation of the multiply function, which can multiply two strings togeth...">
<polygon fill="none" stroke="black" points="1011.5,-6 1011.5,-25 1148.5,-25 1148.5,-6 1011.5,-6"/>
<text text-anchor="middle" x="1080" y="-13" font-family="Helvetica,sans-Serif" font-size="10.00">src/multiply/multiply.cpp</text>
</a>
</g>
</g>
<!-- Node1&#45;&gt;Node9 -->
<g id="edge8" class="edge">
<title>Node1&#45;&gt;Node9</title>
<path fill="none" stroke="midnightblue" d="M834.72,-65.47C892.47,-53.94 983.98,-35.67 1037.38,-25.01"/>
<polygon fill="midnightblue" stroke="midnightblue" points="833.82,-62.08 824.7,-67.48 835.19,-68.95 833.82,-62.08"/>
</g>
<!-- Node10 -->
<g id="node10" class="node">
<title>Node10</title>
<g id="a_node10"><a xlink:href="power_8cpp.html" target="_top" xlink:title="This file contains the implementation for the function power, which raises a number to a power.">
<polygon fill="none" stroke="black" points="1167,-6 1167,-25 1283,-25 1283,-6 1167,-6"/>
<text text-anchor="middle" x="1225" y="-13" font-family="Helvetica,sans-Serif" font-size="10.00">src/power/power.cpp</text>
</a>
</g>
</g>
<!-- Node1&#45;&gt;Node10 -->
<g id="edge9" class="edge">
<title>Node1&#45;&gt;Node10</title>
<path fill="none" stroke="midnightblue" d="M851.53,-69.65C927.21,-62.29 1051.64,-48.83 1158,-31 1167.98,-29.33 1178.71,-27.17 1188.61,-25.03"/>
<polygon fill="midnightblue" stroke="midnightblue" points="850.8,-66.21 841.18,-70.65 851.47,-73.18 850.8,-66.21"/>
</g>
<!-- Node11 -->
<g id="node11" class="node">
<title>Node11</title>
<g id="a_node11"><a xlink:href="root_8cpp.html" target="_top" xlink:title="Takes the n&#45;th root of a number represented as a string.">
<polygon fill="none" stroke="black" points="1301,-6 1301,-25 1397,-25 1397,-6 1301,-6"/>
<text text-anchor="middle" x="1349" y="-13" font-family="Helvetica,sans-Serif" font-size="10.00">src/root/root.cpp</text>
</a>
</g>
</g>
<!-- Node1&#45;&gt;Node11 -->
<g id="edge10" class="edge">
<title>Node1&#45;&gt;Node11</title>
<path fill="none" stroke="midnightblue" d="M851.42,-73.42C949.98,-68.95 1135.86,-57.57 1292,-31 1300.96,-29.48 1310.58,-27.26 1319.32,-25.01"/>
<polygon fill="midnightblue" stroke="midnightblue" points="851.13,-69.93 841.29,-73.87 851.44,-76.92 851.13,-69.93"/>
</g>
<!-- Node12 -->
<g id="node12" class="node">
<title>Node12</title>
<g id="a_node12"><a xlink:href="subtract_8cpp.html" target="_top" xlink:title="This file contains the implementation of the subtract function, which subtracts two numbers using the...">
<polygon fill="none" stroke="black" points="1415.5,-6 1415.5,-25 1552.5,-25 1552.5,-6 1415.5,-6"/>
<text text-anchor="middle" x="1484" y="-13" font-family="Helvetica,sans-Serif" font-size="10.00">src/subtract/subtract.cpp</text>
</a>
</g>
</g>
<!-- Node1&#45;&gt;Node12 -->
<g id="edge11" class="edge">
<title>Node1&#45;&gt;Node12</title>
<path fill="none" stroke="midnightblue" d="M851.26,-73.54C966.68,-68.86 1205.48,-56.79 1406,-31 1418.02,-29.45 1431,-27.26 1442.85,-25.04"/>
<polygon fill="midnightblue" stroke="midnightblue" points="851,-70.04 841.15,-73.94 851.28,-77.04 851,-70.04"/>
</g>
</g>
</svg>
        <g id="navigator" transform="translate(0 0)" fill="#404254">
                <rect fill="#f2f5e9" fill-opacity="0.5" stroke="#606060" stroke-width=".5" x="0" y="0" width="60" height="60"/>
                <use id="zoomplus" xlink:href="#zoomPlus" x="17" y="9" onmousedown="handleZoom(evt,'in')"/>
                <use id="zoomminus" xlink:href="#zoomMin" x="42" y="9" onmousedown="handleZoom(evt,'out')"/>
                <use id="reset" xlink:href="#resetDef" x="30" y="36" onmousedown="handleReset()"/>
                <g id="arrowUp" xlink:href="#dirArrow" transform="translate(30 24)" onmousedown="handlePan(0,-1)">
                  <use xlink:href="#rim" fill="#404040">
                        <set attributeName="fill" to="#808080" begin="arrowUp.mouseover" end="arrowUp.mouseout"/>
                  </use>
                  <path fill="none" stroke="white" stroke-width="1.5" d="M0,-3.0v7 M-2.5,-0.5L0,-3.0L2.5,-0.5"/>
                </g>
                <g id="arrowRight" xlink:href="#dirArrow" transform="rotate(90) translate(36 -43)" onmousedown="handlePan(1,0)">
                  <use xlink:href="#rim" fill="#404040">
                        <set attributeName="fill" to="#808080" begin="arrowRight.mouseover" end="arrowRight.mouseout"/>
                  </use>
                  <path fill="none" stroke="white" stroke-width="1.5" d="M0,-3.0v7 M-2.5,-0.5L0,-3.0L2.5,-0.5"/>
                </g>
                <g id="arrowDown" xlink:href="#dirArrow" transform="rotate(180) translate(-30 -48)" onmousedown="handlePan(0,1)">
                  <use xlink:href="#rim" fill="#404040">
                        <set attributeName="fill" to="#808080" begin="arrowDown.mouseover" end="arrowDown.mouseout"/>
                  </use>
                  <path fill="none" stroke="white" stroke-width="1.5" d="M0,-3.0v7 M-2.5,-0.5L0,-3.0L2.5,-0.5"/>
                </g>
                <g id="arrowLeft" xlink:href="#dirArrow" transform="rotate(270) translate(-36 17)" onmousedown="handlePan(-1,0)">
                  <use xlink:href="#rim" fill="#404040">
                        <set attributeName="fill" to="#808080" begin="arrowLeft.mouseover" end="arrowLeft.mouseout"/>
                  </use>
                  <path fill="none" stroke="white" stroke-width="1.5" d="M0,-3.0v7 M-2.5,-0.5L0,-3.0L2.5,-0.5"/>
                </g>
        </g>
        <svg viewBox="0 0 15 15" width="100%" height="30px" preserveAspectRatio="xMaxYMin meet">
         <g id="arrow_out" transform="scale(0.3 0.3)">
          <a xlink:href="argParse_8hpp__dep__incl_org.svg" target="_base">
           <rect id="button" ry="5" rx="5" y="6" x="6" height="38" width="38"
                fill="#f2f5e9" fill-opacity="0.5" stroke="#606060" stroke-width="1.0"/>
           <path id="arrow"
             d="M 11.500037,31.436501 C 11.940474,20.09759 22.043105,11.32322 32.158766,21.979434 L 37.068811,17.246167 C 37.068811,17.246167 37.088388,32 37.088388,32 L 22.160133,31.978069 C 22.160133,31.978069 26.997745,27.140456 26.997745,27.140456 C 18.528582,18.264221 13.291696,25.230495 11.500037,31.436501 z"
             style="fill:#404040;"/>
          </a>
         </g>
        </svg>
</svg>
