<?xml version="1.0" encoding="UTF-8" standalone="no"?>
<!DOCTYPE svg PUBLIC "-//W3C//DTD SVG 1.1//EN"
 "http://www.w3.org/Graphics/SVG/1.1/DTD/svg11.dtd">
<!-- Generated by graphviz version 2.43.0 (0)
 -->
<!-- Title: representNumber Pages: 1 -->
<!--zoomable 218 -->
<svg id="main" version="1.1" xmlns="http://www.w3.org/2000/svg" xmlns:xlink="http://www.w3.org/1999/xlink" xml:space="preserve" onload="init(evt)">
<style type="text/css"><![CDATA[
.edge:hover path { stroke: red; }
.edge:hover polygon { stroke: red; fill: red; }
]]></style>
<script type="text/javascript"><![CDATA[
var edges = document.getElementsByTagName('g');
if (edges && edges.length) {
  for (var i=0;i<edges.length;i++) {
    if (edges[i].id.substr(0,4)=='edge') {
      edges[i].setAttribute('class','edge');
    }
  }
}
]]></script>
        <defs>
                <circle id="rim" cx="0" cy="0" r="7"/>
                <circle id="rim2" cx="0" cy="0" r="3.5"/>
                <g id="zoomPlus">
                        <use xlink:href="#rim" fill="#404040">
                                <set attributeName="fill" to="#808080" begin="zoomplus.mouseover" end="zoomplus.mouseout"/>
                        </use>
                        <path d="M-4,0h8M0,-4v8" fill="none" stroke="white" stroke-width="1.5" pointer-events="none"/>
                </g>
                <g id="zoomMin">
                        <use xlink:href="#rim" fill="#404040">
                                <set attributeName="fill" to="#808080" begin="zoomminus.mouseover" end="zoomminus.mouseout"/>
                        </use>
                        <path d="M-4,0h8" fill="none" stroke="white" stroke-width="1.5" pointer-events="none"/>
                </g>
                <g id="dirArrow">
                        <path fill="none" stroke="white" stroke-width="1.5" d="M0,-3.0v7 M-2.5,-0.5L0,-3.0L2.5,-0.5"/>
                </g>
               <g id="resetDef">
                       <use xlink:href="#rim2" fill="#404040">
                               <set attributeName="fill" to="#808080" begin="reset.mouseover" end="reset.mouseout"/>
                       </use>
               </g>
        </defs>

<script type="text/javascript">
var viewWidth = 816;
var viewHeight = 218;
var sectionId = 'dynsection-4';
</script>
<script xlink:href="svgpan.js"/>
<svg id="graph" class="graph">
<g id="viewport">
<title>representNumber</title>
<!-- Node1 -->
<g id="node1" class="node">
<title>Node1</title>
<g id="a_node1"><a xlink:title=" ">
<polygon fill="#bfbfbf" stroke="black" points="0,-114.5 0,-133.5 102,-133.5 102,-114.5 0,-114.5"/>
<text text-anchor="middle" x="51" y="-121.5" font-family="Helvetica,sans-Serif" font-size="10.00">representNumber</text>
</a>
</g>
</g>
<!-- Node2 -->
<g id="node2" class="node">
<title>Node2</title>
<g id="a_node2"><a xlink:href="basicArithm_8hpp.html#aabb709fcb471467879352bf51bb0030a" target="_top" xlink:title="Compares two string representations of numbers.">
<polygon fill="none" stroke="black" points="138,-114.5 138,-133.5 197,-133.5 197,-114.5 138,-114.5"/>
<text text-anchor="middle" x="167.5" y="-121.5" font-family="Helvetica,sans-Serif" font-size="10.00">compare</text>
</a>
</g>
</g>
<!-- Node1&#45;&gt;Node2 -->
<g id="edge1" class="edge">
<title>Node1&#45;&gt;Node2</title>
<path fill="none" stroke="midnightblue" d="M102.22,-124C110.76,-124 119.5,-124 127.68,-124"/>
<polygon fill="midnightblue" stroke="midnightblue" points="127.69,-127.5 137.69,-124 127.69,-120.5 127.69,-127.5"/>
</g>
<!-- Node3 -->
<g id="node3" class="node">
<title>Node3</title>
<g id="a_node3"><a xlink:href="comparisonReport_8cpp.html#a9837660fa80278748f7f9bc397f5fba4" target="_top" xlink:title=" ">
<polygon fill="none" stroke="black" points="236,-190.5 236,-209.5 385,-209.5 385,-190.5 236,-190.5"/>
<text text-anchor="middle" x="310.5" y="-197.5" font-family="Helvetica,sans-Serif" font-size="10.00">reportComparisonAtInteger</text>
</a>
</g>
</g>
<!-- Node2&#45;&gt;Node3 -->
<g id="edge2" class="edge">
<title>Node2&#45;&gt;Node3</title>
<path fill="none" stroke="midnightblue" d="M176.64,-133.64C187.96,-146.42 209.71,-168.77 233,-181 237.5,-183.37 242.31,-185.44 247.24,-187.27"/>
<polygon fill="midnightblue" stroke="midnightblue" points="246.23,-190.62 256.82,-190.48 248.45,-183.98 246.23,-190.62"/>
</g>
<!-- Node4 -->
<g id="node4" class="node">
<title>Node4</title>
<g id="a_node4"><a xlink:href="comparisonReport_8cpp.html#adc6ac398c16b4d30ab55b0ec5ceef9f3" target="_top" xlink:title=" ">
<polygon fill="none" stroke="black" points="240.5,-152.5 240.5,-171.5 380.5,-171.5 380.5,-152.5 240.5,-152.5"/>
<text text-anchor="middle" x="310.5" y="-159.5" font-family="Helvetica,sans-Serif" font-size="10.00">reportComparisonByDigit</text>
</a>
</g>
</g>
<!-- Node2&#45;&gt;Node4 -->
<g id="edge3" class="edge">
<title>Node2&#45;&gt;Node4</title>
<path fill="none" stroke="midnightblue" d="M197,-132.68C208.19,-136.02 221.17,-139.79 233,-143 241.64,-145.34 250.85,-147.73 259.79,-149.98"/>
<polygon fill="midnightblue" stroke="midnightblue" points="259.16,-153.43 269.71,-152.46 260.86,-146.64 259.16,-153.43"/>
</g>
<!-- Node5 -->
<g id="node5" class="node">
<title>Node5</title>
<g id="a_node5"><a xlink:href="comparisonReport_8cpp.html#a8bdddfcaa5a1d0339df5705ec6ff2aff" target="_top" xlink:title=" ">
<polygon fill="none" stroke="black" points="233,-114.5 233,-133.5 388,-133.5 388,-114.5 233,-114.5"/>
<text text-anchor="middle" x="310.5" y="-121.5" font-family="Helvetica,sans-Serif" font-size="10.00">reportComparisonByPolarity</text>
</a>
</g>
</g>
<!-- Node2&#45;&gt;Node5 -->
<g id="edge4" class="edge">
<title>Node2&#45;&gt;Node5</title>
<path fill="none" stroke="midnightblue" d="M197.03,-124C204.77,-124 213.58,-124 222.77,-124"/>
<polygon fill="midnightblue" stroke="midnightblue" points="222.87,-127.5 232.87,-124 222.87,-120.5 222.87,-127.5"/>
</g>
<!-- Node6 -->
<g id="node6" class="node">
<title>Node6</title>
<g id="a_node6"><a xlink:href="util_8hpp.html#a7e7fdd236a1593ed0124a3a7dd05946d" target="_top" xlink:title=" ">
<polygon fill="none" stroke="black" points="272,-76.5 272,-95.5 349,-95.5 349,-76.5 272,-76.5"/>
<text text-anchor="middle" x="310.5" y="-83.5" font-family="Helvetica,sans-Serif" font-size="10.00">splitNumber</text>
</a>
</g>
</g>
<!-- Node2&#45;&gt;Node6 -->
<g id="edge5" class="edge">
<title>Node2&#45;&gt;Node6</title>
<path fill="none" stroke="midnightblue" d="M197,-115.32C208.19,-111.98 221.17,-108.21 233,-105 242.31,-102.47 252.3,-99.9 261.88,-97.49"/>
<polygon fill="midnightblue" stroke="midnightblue" points="262.81,-100.86 271.67,-95.05 261.12,-94.07 262.81,-100.86"/>
</g>
<!-- Node13 -->
<g id="node13" class="node">
<title>Node13</title>
<g id="a_node13"><a xlink:href="util_8hpp.html#afbed3096b7064ba07c83c6c15212b793" target="_top" xlink:title="Standardizes a number string.">
<polygon fill="none" stroke="black" points="254,-19.5 254,-38.5 367,-38.5 367,-19.5 254,-19.5"/>
<text text-anchor="middle" x="310.5" y="-26.5" font-family="Helvetica,sans-Serif" font-size="10.00">standardizeNumber</text>
</a>
</g>
</g>
<!-- Node2&#45;&gt;Node13 -->
<g id="edge14" class="edge">
<title>Node2&#45;&gt;Node13</title>
<path fill="none" stroke="midnightblue" d="M177.89,-114.25C189.89,-102.15 211.68,-81.35 233,-67 246.69,-57.78 262.94,-49.4 276.94,-42.86"/>
<polygon fill="midnightblue" stroke="midnightblue" points="278.55,-45.97 286.2,-38.65 275.65,-39.6 278.55,-45.97"/>
</g>
<!-- Node7 -->
<g id="node7" class="node">
<title>Node7</title>
<g id="a_node7"><a xlink:href="util_8hpp.html#a183c024df291889f90106e47bb64fe0b" target="_top" xlink:title="Checks if a given string is a zero string.">
<polygon fill="none" stroke="black" points="732,-133.5 732,-152.5 808,-152.5 808,-133.5 732,-133.5"/>
<text text-anchor="middle" x="770" y="-140.5" font-family="Helvetica,sans-Serif" font-size="10.00">isZeroString</text>
</a>
</g>
</g>
<!-- Node6&#45;&gt;Node7 -->
<g id="edge6" class="edge">
<title>Node6&#45;&gt;Node7</title>
<path fill="none" stroke="midnightblue" d="M349.13,-88.68C362.58,-91.25 377.09,-96.07 388,-105 416.92,-128.67 392.42,-161.01 424,-181 525.74,-245.38 678.83,-186.11 741.14,-156.99"/>
<polygon fill="midnightblue" stroke="midnightblue" points="742.82,-160.07 750.34,-152.6 739.8,-153.75 742.82,-160.07"/>
</g>
<!-- Node8 -->
<g id="node8" class="node">
<title>Node8</title>
<g id="a_node8"><a xlink:href="util_8cpp.html#a8056dcad90ba9582ba25405a95c2f1e4" target="_top" xlink:title=" ">
<polygon fill="none" stroke="black" points="424,-152.5 424,-171.5 544,-171.5 544,-152.5 424,-152.5"/>
<text text-anchor="middle" x="484" y="-159.5" font-family="Helvetica,sans-Serif" font-size="10.00">removeLeadingZeros</text>
</a>
</g>
</g>
<!-- Node6&#45;&gt;Node8 -->
<g id="edge7" class="edge">
<title>Node6&#45;&gt;Node8</title>
<path fill="none" stroke="midnightblue" d="M349.32,-90.97C362.2,-93.79 376.3,-98.18 388,-105 408.1,-116.72 404.31,-130.6 424,-143 427.19,-145.01 430.62,-146.83 434.15,-148.46"/>
<polygon fill="midnightblue" stroke="midnightblue" points="433.1,-151.81 443.67,-152.39 435.76,-145.34 433.1,-151.81"/>
</g>
<!-- Node9 -->
<g id="node9" class="node">
<title>Node9</title>
<g id="a_node9"><a xlink:href="util_8cpp.html#a7f0f5e18cd1b1507ace9b814e6286dda" target="_top" xlink:title=" ">
<polygon fill="none" stroke="black" points="425.5,-114.5 425.5,-133.5 542.5,-133.5 542.5,-114.5 425.5,-114.5"/>
<text text-anchor="middle" x="484" y="-121.5" font-family="Helvetica,sans-Serif" font-size="10.00">removeTrailingZeros</text>
</a>
</g>
</g>
<!-- Node6&#45;&gt;Node9 -->
<g id="edge8" class="edge">
<title>Node6&#45;&gt;Node9</title>
<path fill="none" stroke="midnightblue" d="M349.14,-94.34C372.92,-99.61 404,-106.5 430.23,-112.31"/>
<polygon fill="midnightblue" stroke="midnightblue" points="429.49,-115.73 440.01,-114.48 431.01,-108.89 429.49,-115.73"/>
</g>
<!-- Node10 -->
<g id="node10" class="node">
<title>Node10</title>
<g id="a_node10"><a xlink:href="util_8cpp.html#a32344e51c6ae485367b4fbf6bb535742" target="_top" xlink:title="Simplifies a string with non&#45;standard polarity (e.g., –1, —1, etc.).">
<polygon fill="none" stroke="black" points="437.5,-0.5 437.5,-19.5 530.5,-19.5 530.5,-0.5 437.5,-0.5"/>
<text text-anchor="middle" x="484" y="-7.5" font-family="Helvetica,sans-Serif" font-size="10.00">simplifyPolarity</text>
</a>
</g>
</g>
<!-- Node6&#45;&gt;Node10 -->
<g id="edge9" class="edge">
<title>Node6&#45;&gt;Node10</title>
<path fill="none" stroke="midnightblue" d="M331.06,-76.45C346.56,-68.84 368.73,-57.87 388,-48 404.1,-39.75 407.33,-36.02 424,-29 429.14,-26.83 434.63,-24.76 440.1,-22.84"/>
<polygon fill="midnightblue" stroke="midnightblue" points="441.5,-26.06 449.86,-19.55 439.27,-19.43 441.5,-26.06"/>
</g>
<!-- Node11 -->
<g id="node11" class="node">
<title>Node11</title>
<g id="a_node11"><a xlink:href="util_8cpp.html#a70584872ee14fa0befa8f25788f98a2b" target="_top" xlink:title="Simplifies a string that represents a number with non&#45;standard polarity.">
<polygon fill="none" stroke="black" points="580,-76.5 580,-95.5 696,-95.5 696,-76.5 580,-76.5"/>
<text text-anchor="middle" x="638" y="-83.5" font-family="Helvetica,sans-Serif" font-size="10.00">simplifyZeroPolarity</text>
</a>
</g>
</g>
<!-- Node6&#45;&gt;Node11 -->
<g id="edge12" class="edge">
<title>Node6&#45;&gt;Node11</title>
<path fill="none" stroke="midnightblue" d="M349.16,-86C403.04,-86 502.98,-86 569.75,-86"/>
<polygon fill="midnightblue" stroke="midnightblue" points="569.76,-89.5 579.76,-86 569.76,-82.5 569.76,-89.5"/>
</g>
<!-- Node12 -->
<g id="node12" class="node">
<title>Node12</title>
<g id="a_node12"><a xlink:href="util_8hpp.html#a771e8f4ac1c095d4c0fef2c966cd69d7" target="_top" xlink:title="Splits a string into substrings based on a separator.">
<polygon fill="none" stroke="black" points="465,-38.5 465,-57.5 503,-57.5 503,-38.5 465,-38.5"/>
<text text-anchor="middle" x="484" y="-45.5" font-family="Helvetica,sans-Serif" font-size="10.00">split</text>
</a>
</g>
</g>
<!-- Node6&#45;&gt;Node12 -->
<g id="edge13" class="edge">
<title>Node6&#45;&gt;Node12</title>
<path fill="none" stroke="midnightblue" d="M349.14,-77.66C381.1,-70.58 426.26,-60.57 455.08,-54.19"/>
<polygon fill="midnightblue" stroke="midnightblue" points="455.9,-57.59 464.91,-52.01 454.39,-50.76 455.9,-57.59"/>
</g>
<!-- Node10&#45;&gt;Node11 -->
<g id="edge10" class="edge">
<title>Node10&#45;&gt;Node11</title>
<path fill="none" stroke="midnightblue" d="M519.53,-19.6C527.7,-22.28 536.28,-25.45 544,-29 569.61,-40.77 596.88,-58.12 615.22,-70.59"/>
<polygon fill="midnightblue" stroke="midnightblue" points="613.48,-73.64 623.7,-76.44 617.46,-67.88 613.48,-73.64"/>
</g>
<!-- Node11&#45;&gt;Node7 -->
<g id="edge11" class="edge">
<title>Node11&#45;&gt;Node7</title>
<path fill="none" stroke="midnightblue" d="M660.76,-95.54C681.85,-104.79 714.06,-118.91 737.86,-129.35"/>
<polygon fill="midnightblue" stroke="midnightblue" points="736.61,-132.62 747.17,-133.43 739.42,-126.21 736.61,-132.62"/>
</g>
<!-- Node13&#45;&gt;Node10 -->
<g id="edge15" class="edge">
<title>Node13&#45;&gt;Node10</title>
<path fill="none" stroke="midnightblue" d="M367.18,-22.83C386.42,-20.7 407.96,-18.31 427.2,-16.18"/>
<polygon fill="midnightblue" stroke="midnightblue" points="427.78,-19.64 437.33,-15.06 427.01,-12.68 427.78,-19.64"/>
</g>
</g>
</svg>
        <g id="navigator" transform="translate(0 0)" fill="#404254">
                <rect fill="#f2f5e9" fill-opacity="0.5" stroke="#606060" stroke-width=".5" x="0" y="0" width="60" height="60"/>
                <use id="zoomplus" xlink:href="#zoomPlus" x="17" y="9" onmousedown="handleZoom(evt,'in')"/>
                <use id="zoomminus" xlink:href="#zoomMin" x="42" y="9" onmousedown="handleZoom(evt,'out')"/>
                <use id="reset" xlink:href="#resetDef" x="30" y="36" onmousedown="handleReset()"/>
                <g id="arrowUp" xlink:href="#dirArrow" transform="translate(30 24)" onmousedown="handlePan(0,-1)">
                  <use xlink:href="#rim" fill="#404040">
                        <set attributeName="fill" to="#808080" begin="arrowUp.mouseover" end="arrowUp.mouseout"/>
                  </use>
                  <path fill="none" stroke="white" stroke-width="1.5" d="M0,-3.0v7 M-2.5,-0.5L0,-3.0L2.5,-0.5"/>
                </g>
                <g id="arrowRight" xlink:href="#dirArrow" transform="rotate(90) translate(36 -43)" onmousedown="handlePan(1,0)">
                  <use xlink:href="#rim" fill="#404040">
                        <set attributeName="fill" to="#808080" begin="arrowRight.mouseover" end="arrowRight.mouseout"/>
                  </use>
                  <path fill="none" stroke="white" stroke-width="1.5" d="M0,-3.0v7 M-2.5,-0.5L0,-3.0L2.5,-0.5"/>
                </g>
                <g id="arrowDown" xlink:href="#dirArrow" transform="rotate(180) translate(-30 -48)" onmousedown="handlePan(0,1)">
                  <use xlink:href="#rim" fill="#404040">
                        <set attributeName="fill" to="#808080" begin="arrowDown.mouseover" end="arrowDown.mouseout"/>
                  </use>
                  <path fill="none" stroke="white" stroke-width="1.5" d="M0,-3.0v7 M-2.5,-0.5L0,-3.0L2.5,-0.5"/>
                </g>
                <g id="arrowLeft" xlink:href="#dirArrow" transform="rotate(270) translate(-36 17)" onmousedown="handlePan(-1,0)">
                  <use xlink:href="#rim" fill="#404040">
                        <set attributeName="fill" to="#808080" begin="arrowLeft.mouseover" end="arrowLeft.mouseout"/>
                  </use>
                  <path fill="none" stroke="white" stroke-width="1.5" d="M0,-3.0v7 M-2.5,-0.5L0,-3.0L2.5,-0.5"/>
                </g>
        </g>
        <svg viewBox="0 0 15 15" width="100%" height="30px" preserveAspectRatio="xMaxYMin meet">
         <g id="arrow_out" transform="scale(0.3 0.3)">
          <a xlink:href="baseConvert_8cpp_a80419d3463efc029e66b9cb0a1390912_cgraph_org.svg" target="_base">
           <rect id="button" ry="5" rx="5" y="6" x="6" height="38" width="38"
                fill="#f2f5e9" fill-opacity="0.5" stroke="#606060" stroke-width="1.0"/>
           <path id="arrow"
             d="M 11.500037,31.436501 C 11.940474,20.09759 22.043105,11.32322 32.158766,21.979434 L 37.068811,17.246167 C 37.068811,17.246167 37.088388,32 37.088388,32 L 22.160133,31.978069 C 22.160133,31.978069 26.997745,27.140456 26.997745,27.140456 C 18.528582,18.264221 13.291696,25.230495 11.500037,31.436501 z"
             style="fill:#404040;"/>
          </a>
         </g>
        </svg>
</svg>
