<?xml version="1.0" encoding="UTF-8" standalone="no"?>
<!DOCTYPE svg PUBLIC "-//W3C//DTD SVG 1.1//EN"
 "http://www.w3.org/Graphics/SVG/1.1/DTD/svg11.dtd">
<!-- Generated by graphviz version 2.43.0 (0)
 -->
<!-- Title: main Pages: 1 -->
<svg width="1498pt" height="1097pt"
 viewBox="0.00 0.00 1498.00 1096.63" xmlns="http://www.w3.org/2000/svg" xmlns:xlink="http://www.w3.org/1999/xlink">
<g id="graph0" class="graph" transform="scale(1 1) rotate(0) translate(4 1092.63)">
<title>main</title>
<!-- Node1 -->
<g id="node1" class="node">
<title>Node1</title>
<g id="a_node1"><a xlink:title=" ">
<polygon fill="#bfbfbf" stroke="black" points="0,-532.5 0,-551.5 41,-551.5 41,-532.5 0,-532.5"/>
<text text-anchor="middle" x="20.5" y="-539.5" font-family="Helvetica,sans-Serif" font-size="10.00">main</text>
</a>
</g>
</g>
<!-- Node2 -->
<g id="node2" class="node">
<title>Node2</title>
<g id="a_node2"><a xlink:href="baseConvert_8cpp.html#a6443634f54179f61c6e58098cbb32210" target="_top" xlink:title=" ">
<polygon fill="none" stroke="black" points="77,-532.5 77,-551.5 155,-551.5 155,-532.5 77,-532.5"/>
<text text-anchor="middle" x="116" y="-539.5" font-family="Helvetica,sans-Serif" font-size="10.00">baseConvert</text>
</a>
</g>
</g>
<!-- Node1&#45;&gt;Node2 -->
<g id="edge1" class="edge">
<title>Node1&#45;&gt;Node2</title>
<path fill="none" stroke="midnightblue" d="M41.33,-542C48.81,-542 57.68,-542 66.63,-542"/>
<polygon fill="midnightblue" stroke="midnightblue" points="66.7,-545.5 76.7,-542 66.7,-538.5 66.7,-545.5"/>
</g>
<!-- Node3 -->
<g id="node3" class="node">
<title>Node3</title>
<g id="a_node3"><a xlink:href="basicArithm_8hpp.html#acf222f0bfc4ca97fbdc6db7fe808a9ee" target="_top" xlink:title="Adds two string representations of numbers, and performs with the column method.">
<polygon fill="none" stroke="black" points="403.5,-742.5 403.5,-761.5 438.5,-761.5 438.5,-742.5 403.5,-742.5"/>
<text text-anchor="middle" x="421" y="-749.5" font-family="Helvetica,sans-Serif" font-size="10.00">add</text>
</a>
</g>
</g>
<!-- Node2&#45;&gt;Node3 -->
<g id="edge2" class="edge">
<title>Node2&#45;&gt;Node3</title>
<path fill="none" stroke="midnightblue" d="M118.95,-551.67C124.81,-578.11 144.76,-652.16 191,-690 251.05,-739.14 346.74,-749.53 393.09,-751.59"/>
<polygon fill="midnightblue" stroke="midnightblue" points="393.13,-755.1 403.24,-751.94 393.37,-748.1 393.13,-755.1"/>
</g>
<!-- Node16 -->
<g id="node16" class="node">
<title>Node16</title>
<g id="a_node16"><a xlink:href="util_8hpp.html#a771e8f4ac1c095d4c0fef2c966cd69d7" target="_top" xlink:title="Splits a string into substrings based on a separator.">
<polygon fill="none" stroke="black" points="1147,-342.5 1147,-361.5 1185,-361.5 1185,-342.5 1147,-342.5"/>
<text text-anchor="middle" x="1166" y="-349.5" font-family="Helvetica,sans-Serif" font-size="10.00">split</text>
</a>
</g>
</g>
<!-- Node2&#45;&gt;Node16 -->
<g id="edge82" class="edge">
<title>Node2&#45;&gt;Node16</title>
<path fill="none" stroke="midnightblue" d="M118.06,-532.18C123.58,-482.78 150.22,-261.68 191,-208 260.76,-116.17 304.68,-86 420,-86 420,-86 420,-86 831,-86 886.69,-86 946.58,-88.01 1070,-200 1112.86,-238.89 1143.58,-301.49 1157.19,-332.83"/>
<polygon fill="midnightblue" stroke="midnightblue" points="1154.02,-334.33 1161.13,-342.18 1160.47,-331.61 1154.02,-334.33"/>
</g>
<!-- Node17 -->
<g id="node17" class="node">
<title>Node17</title>
<g id="a_node17"><a xlink:href="basicArithm_8hpp.html#a08faec0b8e863df19e3f978758166482" target="_top" xlink:title="Subtracts one string representation of a number from another string representation of a number.">
<polygon fill="none" stroke="black" points="544,-666.5 544,-685.5 600,-685.5 600,-666.5 544,-666.5"/>
<text text-anchor="middle" x="572" y="-673.5" font-family="Helvetica,sans-Serif" font-size="10.00">subtract</text>
</a>
</g>
</g>
<!-- Node2&#45;&gt;Node17 -->
<g id="edge83" class="edge">
<title>Node2&#45;&gt;Node17</title>
<path fill="none" stroke="midnightblue" d="M133.18,-551.64C170.9,-573.6 268.23,-627.36 357,-652 417.4,-668.76 490.49,-673.86 533.73,-675.39"/>
<polygon fill="midnightblue" stroke="midnightblue" points="533.69,-678.89 543.79,-675.7 533.9,-671.89 533.69,-678.89"/>
</g>
<!-- Node18 -->
<g id="node18" class="node">
<title>Node18</title>
<g id="a_node18"><a xlink:href="basicArithm_8hpp.html#aabb709fcb471467879352bf51bb0030a" target="_top" xlink:title="Compares two string representations of numbers.">
<polygon fill="none" stroke="black" points="800.5,-950.5 800.5,-969.5 859.5,-969.5 859.5,-950.5 800.5,-950.5"/>
<text text-anchor="middle" x="830" y="-957.5" font-family="Helvetica,sans-Serif" font-size="10.00">compare</text>
</a>
</g>
</g>
<!-- Node2&#45;&gt;Node18 -->
<g id="edge44" class="edge">
<title>Node2&#45;&gt;Node18</title>
<path fill="none" stroke="midnightblue" d="M118.4,-551.52C128.61,-617.01 197.58,-998 420,-998 420,-998 420,-998 573,-998 650.81,-998 740.5,-980.61 790.39,-969.36"/>
<polygon fill="midnightblue" stroke="midnightblue" points="791.45,-972.71 800.41,-967.06 789.88,-965.88 791.45,-972.71"/>
</g>
<!-- Node26 -->
<g id="node26" class="node">
<title>Node26</title>
<g id="a_node26"><a xlink:href="basicArithm_8hpp.html#acb4215189a8d1cfd37f4f6fe13890a8f" target="_top" xlink:title="Divides a string representation of a number by another string representation of a number.">
<polygon fill="none" stroke="black" points="232.5,-494.5 232.5,-513.5 279.5,-513.5 279.5,-494.5 232.5,-494.5"/>
<text text-anchor="middle" x="256" y="-501.5" font-family="Helvetica,sans-Serif" font-size="10.00">divide</text>
</a>
</g>
</g>
<!-- Node2&#45;&gt;Node26 -->
<g id="edge45" class="edge">
<title>Node2&#45;&gt;Node26</title>
<path fill="none" stroke="midnightblue" d="M151.82,-532.41C173.51,-526.44 201.21,-518.81 222.46,-512.96"/>
<polygon fill="midnightblue" stroke="midnightblue" points="223.6,-516.28 232.31,-510.25 221.74,-509.53 223.6,-516.28"/>
</g>
<!-- Node27 -->
<g id="node27" class="node">
<title>Node27</title>
<g id="a_node27"><a xlink:href="output_8hpp.html#a1f009ce0a12690c37c88f2adfe9d2e1e" target="_top" xlink:title="Prints an error message.">
<polygon fill="none" stroke="black" points="682,-171.5 682,-190.5 722,-190.5 722,-171.5 682,-171.5"/>
<text text-anchor="middle" x="702" y="-178.5" font-family="Helvetica,sans-Serif" font-size="10.00">error</text>
</a>
</g>
</g>
<!-- Node2&#45;&gt;Node27 -->
<g id="edge76" class="edge">
<title>Node2&#45;&gt;Node27</title>
<path fill="none" stroke="midnightblue" d="M119.99,-532.25C135.34,-484.04 210.4,-270.08 357,-187 459.92,-128.68 609.47,-157 671.91,-172.82"/>
<polygon fill="midnightblue" stroke="midnightblue" points="671.29,-176.27 681.85,-175.42 673.06,-169.5 671.29,-176.27"/>
</g>
<!-- Node34 -->
<g id="node34" class="node">
<title>Node34</title>
<g id="a_node34"><a xlink:href="basicArithm_8hpp.html#ac99d69ea51545fe30da4a36290f3fedc" target="_top" xlink:title="Multiplies two string representations of numbers.">
<polygon fill="none" stroke="black" points="543.5,-523.5 543.5,-542.5 600.5,-542.5 600.5,-523.5 543.5,-523.5"/>
<text text-anchor="middle" x="572" y="-530.5" font-family="Helvetica,sans-Serif" font-size="10.00">multiply</text>
</a>
</g>
</g>
<!-- Node2&#45;&gt;Node34 -->
<g id="edge78" class="edge">
<title>Node2&#45;&gt;Node34</title>
<path fill="none" stroke="midnightblue" d="M155.17,-543.03C222.04,-544.57 364.71,-546.75 485,-541 500.67,-540.25 517.89,-538.78 532.78,-537.3"/>
<polygon fill="midnightblue" stroke="midnightblue" points="533.57,-540.74 543.16,-536.23 532.85,-533.77 533.57,-540.74"/>
</g>
<!-- Node38 -->
<g id="node38" class="node">
<title>Node38</title>
<g id="a_node38"><a xlink:href="util_8hpp.html#a3dd6d942897366039648e301673915e2" target="_top" xlink:title="Joins a vector of elements into a single string using a delimiter.">
<polygon fill="none" stroke="black" points="238.5,-38.5 238.5,-57.5 273.5,-57.5 273.5,-38.5 238.5,-38.5"/>
<text text-anchor="middle" x="256" y="-45.5" font-family="Helvetica,sans-Serif" font-size="10.00">join</text>
</a>
</g>
</g>
<!-- Node2&#45;&gt;Node38 -->
<g id="edge77" class="edge">
<title>Node2&#45;&gt;Node38</title>
<path fill="none" stroke="midnightblue" d="M117.23,-532.34C118.87,-471.93 130.45,-146.26 191,-72 200.17,-60.75 215.19,-54.77 228.37,-51.6"/>
<polygon fill="midnightblue" stroke="midnightblue" points="229.28,-54.99 238.4,-49.6 227.91,-48.12 229.28,-54.99"/>
</g>
<!-- Node39 -->
<g id="node39" class="node">
<title>Node39</title>
<g id="a_node39"><a xlink:href="baseConvertReport_8cpp.html#ac1b7cbfa5848d3fdd2c0e3b8a63c380b" target="_top" xlink:title=" ">
<polygon fill="none" stroke="black" points="191,-0.5 191,-19.5 321,-19.5 321,-0.5 191,-0.5"/>
<text text-anchor="middle" x="256" y="-7.5" font-family="Helvetica,sans-Serif" font-size="10.00">reportBaseConvertStep</text>
</a>
</g>
</g>
<!-- Node2&#45;&gt;Node39 -->
<g id="edge79" class="edge">
<title>Node2&#45;&gt;Node39</title>
<path fill="none" stroke="midnightblue" d="M117.02,-532.24C117.38,-468.21 122.45,-108.31 191,-29 192.04,-27.79 193.16,-26.66 194.33,-25.6"/>
<polygon fill="midnightblue" stroke="midnightblue" points="196.73,-28.2 202.88,-19.57 192.69,-22.48 196.73,-28.2"/>
</g>
<!-- Node40 -->
<g id="node40" class="node">
<title>Node40</title>
<g id="a_node40"><a xlink:href="baseConvert_8cpp.html#a80419d3463efc029e66b9cb0a1390912" target="_top" xlink:title=" ">
<polygon fill="none" stroke="black" points="521,-1064.5 521,-1083.5 623,-1083.5 623,-1064.5 521,-1064.5"/>
<text text-anchor="middle" x="572" y="-1071.5" font-family="Helvetica,sans-Serif" font-size="10.00">representNumber</text>
</a>
</g>
</g>
<!-- Node2&#45;&gt;Node40 -->
<g id="edge80" class="edge">
<title>Node2&#45;&gt;Node40</title>
<path fill="none" stroke="midnightblue" d="M117.05,-551.83C117.56,-613.25 123.43,-944.06 191,-1012 275.16,-1096.63 426.78,-1093.37 510.81,-1083.65"/>
<polygon fill="midnightblue" stroke="midnightblue" points="511.47,-1087.09 520.97,-1082.4 510.62,-1080.15 511.47,-1087.09"/>
</g>
<!-- Node4 -->
<g id="node4" class="node">
<title>Node4</title>
<g id="a_node4"><a xlink:href="util_8hpp.html#a183c024df291889f90106e47bb64fe0b" target="_top" xlink:title="Checks if a given string is a zero string.">
<polygon fill="none" stroke="black" points="1414,-722.5 1414,-741.5 1490,-741.5 1490,-722.5 1414,-722.5"/>
<text text-anchor="middle" x="1452" y="-729.5" font-family="Helvetica,sans-Serif" font-size="10.00">isZeroString</text>
</a>
</g>
</g>
<!-- Node3&#45;&gt;Node4 -->
<g id="edge3" class="edge">
<title>Node3&#45;&gt;Node4</title>
<path fill="none" stroke="midnightblue" d="M425.76,-761.78C445.65,-811.71 543.76,-1036 701,-1036 701,-1036 701,-1036 1167,-1036 1323.33,-1036 1418.33,-818.68 1443.95,-751.53"/>
<polygon fill="midnightblue" stroke="midnightblue" points="1447.38,-752.36 1447.59,-741.77 1440.82,-749.92 1447.38,-752.36"/>
</g>
<!-- Node5 -->
<g id="node5" class="node">
<title>Node5</title>
<g id="a_node5"><a xlink:href="addReport_8cpp.html#a790c309eb43b10e2fca286cee3a94ac1" target="_top" xlink:title=" ">
<polygon fill="none" stroke="black" points="797.5,-874.5 797.5,-893.5 862.5,-893.5 862.5,-874.5 797.5,-874.5"/>
<text text-anchor="middle" x="830" y="-881.5" font-family="Helvetica,sans-Serif" font-size="10.00">reportAdd</text>
</a>
</g>
</g>
<!-- Node3&#45;&gt;Node5 -->
<g id="edge4" class="edge">
<title>Node3&#45;&gt;Node5</title>
<path fill="none" stroke="midnightblue" d="M427.38,-761.71C440.22,-783.8 475.04,-837.61 521,-860 608.06,-902.41 725.52,-896.94 787.2,-890.03"/>
<polygon fill="midnightblue" stroke="midnightblue" points="787.81,-893.48 797.33,-888.82 786.98,-886.53 787.81,-893.48"/>
</g>
<!-- Node11 -->
<g id="node11" class="node">
<title>Node11</title>
<g id="a_node11"><a xlink:href="namespaceformats.html#a296119cbd1b0c858739af6b363fb262a" target="_top" xlink:title="Set the text format to reverse.">
<polygon fill="none" stroke="black" points="781,-760.5 781,-779.5 879,-779.5 879,-760.5 781,-760.5"/>
<text text-anchor="middle" x="830" y="-767.5" font-family="Helvetica,sans-Serif" font-size="10.00">formats::reverse</text>
</a>
</g>
</g>
<!-- Node3&#45;&gt;Node11 -->
<g id="edge12" class="edge">
<title>Node3&#45;&gt;Node11</title>
<path fill="none" stroke="midnightblue" d="M438.71,-752.74C494.51,-755.21 676.16,-763.24 770.67,-767.42"/>
<polygon fill="midnightblue" stroke="midnightblue" points="770.78,-770.93 780.92,-767.87 771.09,-763.94 770.78,-770.93"/>
</g>
<!-- Node13 -->
<g id="node13" class="node">
<title>Node13</title>
<g id="a_node13"><a xlink:href="util_8hpp.html#a7e7fdd236a1593ed0124a3a7dd05946d" target="_top" xlink:title=" ">
<polygon fill="none" stroke="black" points="954,-722.5 954,-741.5 1031,-741.5 1031,-722.5 954,-722.5"/>
<text text-anchor="middle" x="992.5" y="-729.5" font-family="Helvetica,sans-Serif" font-size="10.00">splitNumber</text>
</a>
</g>
</g>
<!-- Node3&#45;&gt;Node13 -->
<g id="edge14" class="edge">
<title>Node3&#45;&gt;Node13</title>
<path fill="none" stroke="midnightblue" d="M438.51,-759.29C476.49,-775.6 573.37,-814.55 659,-827 756.16,-841.13 787.4,-842.33 879,-807 898.09,-799.64 943.33,-767.54 970.27,-747.79"/>
<polygon fill="midnightblue" stroke="midnightblue" points="972.66,-750.38 978.64,-741.62 968.51,-744.74 972.66,-750.38"/>
</g>
<!-- Node3&#45;&gt;Node17 -->
<g id="edge21" class="edge">
<title>Node3&#45;&gt;Node17</title>
<path fill="none" stroke="midnightblue" d="M434.95,-742.46C447.98,-737.25 468.46,-731.77 485,-724 504.38,-714.9 524.41,-701.87 540.26,-691.48"/>
<polygon fill="midnightblue" stroke="midnightblue" points="542.62,-694.12 549.08,-685.72 538.79,-688.26 542.62,-694.12"/>
</g>
<!-- Node5&#45;&gt;Node4 -->
<g id="edge5" class="edge">
<title>Node5&#45;&gt;Node4</title>
<path fill="none" stroke="midnightblue" d="M862.88,-878.47C878.56,-875.81 897.75,-872.63 915,-870 1121.52,-838.52 1190.25,-880.61 1378,-789 1399.26,-778.63 1420.2,-761.35 1434.16,-748.53"/>
<polygon fill="midnightblue" stroke="midnightblue" points="1436.65,-750.99 1441.52,-741.58 1431.84,-745.9 1436.65,-750.99"/>
</g>
<!-- Node6 -->
<g id="node6" class="node">
<title>Node6</title>
<g id="a_node6"><a xlink:href="symbols_8hpp.html#a4c2486dd425b34a3a7b6f64db79add2c" target="_top" xlink:title="Create a subscript string from a normal string.">
<polygon fill="none" stroke="black" points="948,-570.5 948,-589.5 1037,-589.5 1037,-570.5 948,-570.5"/>
<text text-anchor="middle" x="992.5" y="-577.5" font-family="Helvetica,sans-Serif" font-size="10.00">makeSubscript</text>
</a>
</g>
</g>
<!-- Node5&#45;&gt;Node6 -->
<g id="edge6" class="edge">
<title>Node5&#45;&gt;Node6</title>
<path fill="none" stroke="midnightblue" d="M835.99,-874.33C844.8,-857.2 863.65,-820.37 879,-789 895.43,-755.43 897.67,-746.11 915,-713 936.91,-671.15 965.17,-623.45 980.48,-598.1"/>
<polygon fill="midnightblue" stroke="midnightblue" points="983.48,-599.9 985.67,-589.53 977.49,-596.27 983.48,-599.9"/>
</g>
<!-- Node8 -->
<g id="node8" class="node">
<title>Node8</title>
<g id="a_node8"><a xlink:href="util_8hpp.html#afbed3096b7064ba07c83c6c15212b793" target="_top" xlink:title="Standardizes a number string.">
<polygon fill="none" stroke="black" points="936,-798.5 936,-817.5 1049,-817.5 1049,-798.5 936,-798.5"/>
<text text-anchor="middle" x="992.5" y="-805.5" font-family="Helvetica,sans-Serif" font-size="10.00">standardizeNumber</text>
</a>
</g>
</g>
<!-- Node5&#45;&gt;Node8 -->
<g id="edge8" class="edge">
<title>Node5&#45;&gt;Node8</title>
<path fill="none" stroke="midnightblue" d="M852.52,-874.36C860.98,-870.29 870.64,-865.27 879,-860 896.15,-849.19 897.04,-841.41 915,-832 923.33,-827.64 932.59,-823.9 941.71,-820.77"/>
<polygon fill="midnightblue" stroke="midnightblue" points="943.06,-824.02 951.51,-817.61 940.91,-817.35 943.06,-824.02"/>
</g>
<!-- Node7 -->
<g id="node7" class="node">
<title>Node7</title>
<g id="a_node7"><a xlink:href="util_8hpp.html#a2c093cfa77eddb403db19eaecf57fa6e" target="_top" xlink:title="Converts a Unicode character to UTF&#45;8 encoding.">
<polygon fill="none" stroke="black" points="1123,-570.5 1123,-589.5 1209,-589.5 1209,-570.5 1123,-570.5"/>
<text text-anchor="middle" x="1166" y="-577.5" font-family="Helvetica,sans-Serif" font-size="10.00">unicodeToUtf8</text>
</a>
</g>
</g>
<!-- Node6&#45;&gt;Node7 -->
<g id="edge7" class="edge">
<title>Node6&#45;&gt;Node7</title>
<path fill="none" stroke="midnightblue" d="M1037.22,-580C1060.23,-580 1088.61,-580 1112.77,-580"/>
<polygon fill="midnightblue" stroke="midnightblue" points="1112.84,-583.5 1122.84,-580 1112.84,-576.5 1112.84,-583.5"/>
</g>
<!-- Node9 -->
<g id="node9" class="node">
<title>Node9</title>
<g id="a_node9"><a xlink:href="util_8cpp.html#a32344e51c6ae485367b4fbf6bb535742" target="_top" xlink:title="Simplifies a string with non&#45;standard polarity (e.g., –1, —1, etc.).">
<polygon fill="none" stroke="black" points="1119.5,-798.5 1119.5,-817.5 1212.5,-817.5 1212.5,-798.5 1119.5,-798.5"/>
<text text-anchor="middle" x="1166" y="-805.5" font-family="Helvetica,sans-Serif" font-size="10.00">simplifyPolarity</text>
</a>
</g>
</g>
<!-- Node8&#45;&gt;Node9 -->
<g id="edge9" class="edge">
<title>Node8&#45;&gt;Node9</title>
<path fill="none" stroke="midnightblue" d="M1049.18,-808C1068.42,-808 1089.96,-808 1109.2,-808"/>
<polygon fill="midnightblue" stroke="midnightblue" points="1109.33,-811.5 1119.33,-808 1109.33,-804.5 1109.33,-811.5"/>
</g>
<!-- Node10 -->
<g id="node10" class="node">
<title>Node10</title>
<g id="a_node10"><a xlink:href="util_8cpp.html#a70584872ee14fa0befa8f25788f98a2b" target="_top" xlink:title="Simplifies a string that represents a number with non&#45;standard polarity.">
<polygon fill="none" stroke="black" points="1262,-760.5 1262,-779.5 1378,-779.5 1378,-760.5 1262,-760.5"/>
<text text-anchor="middle" x="1320" y="-767.5" font-family="Helvetica,sans-Serif" font-size="10.00">simplifyZeroPolarity</text>
</a>
</g>
</g>
<!-- Node9&#45;&gt;Node10 -->
<g id="edge10" class="edge">
<title>Node9&#45;&gt;Node10</title>
<path fill="none" stroke="midnightblue" d="M1205.36,-798.41C1225.32,-793.42 1249.93,-787.27 1271.13,-781.97"/>
<polygon fill="midnightblue" stroke="midnightblue" points="1272.07,-785.34 1280.92,-779.52 1270.37,-778.55 1272.07,-785.34"/>
</g>
<!-- Node10&#45;&gt;Node4 -->
<g id="edge11" class="edge">
<title>Node10&#45;&gt;Node4</title>
<path fill="none" stroke="midnightblue" d="M1353.8,-760.41C1370.28,-755.6 1390.44,-749.7 1408.13,-744.53"/>
<polygon fill="midnightblue" stroke="midnightblue" points="1409.59,-747.75 1418.21,-741.59 1407.63,-741.03 1409.59,-747.75"/>
</g>
<!-- Node12 -->
<g id="node12" class="node">
<title>Node12</title>
<g id="a_node12"><a xlink:href="colors_8cpp.html#aea0b5c095796ad31bd8aa86853337868" target="_top" xlink:title="Check if the output stream is a terminal.">
<polygon fill="none" stroke="black" points="959,-209.5 959,-228.5 1026,-228.5 1026,-209.5 959,-209.5"/>
<text text-anchor="middle" x="992.5" y="-216.5" font-family="Helvetica,sans-Serif" font-size="10.00">isTerminal</text>
</a>
</g>
</g>
<!-- Node11&#45;&gt;Node12 -->
<g id="edge13" class="edge">
<title>Node11&#45;&gt;Node12</title>
<path fill="none" stroke="midnightblue" d="M833.37,-760.48C842.96,-722.21 879.93,-576 915,-457 939.05,-375.39 971.12,-279.21 984.83,-238.63"/>
<polygon fill="midnightblue" stroke="midnightblue" points="988.23,-239.52 988.12,-228.92 981.6,-237.27 988.23,-239.52"/>
</g>
<!-- Node13&#45;&gt;Node4 -->
<g id="edge15" class="edge">
<title>Node13&#45;&gt;Node4</title>
<path fill="none" stroke="midnightblue" d="M1031.06,-724.04C1052.83,-719.83 1080.83,-715.11 1106,-713 1212.25,-704.09 1337.27,-716.71 1403.78,-725.26"/>
<polygon fill="midnightblue" stroke="midnightblue" points="1403.57,-728.76 1413.94,-726.59 1404.48,-721.82 1403.57,-728.76"/>
</g>
<!-- Node13&#45;&gt;Node9 -->
<g id="edge18" class="edge">
<title>Node13&#45;&gt;Node9</title>
<path fill="none" stroke="midnightblue" d="M1013.7,-741.68C1036.11,-752.35 1073.43,-769.86 1106,-784 1114.17,-787.55 1123.03,-791.23 1131.35,-794.63"/>
<polygon fill="midnightblue" stroke="midnightblue" points="1130.2,-797.94 1140.78,-798.44 1132.82,-791.45 1130.2,-797.94"/>
</g>
<!-- Node13&#45;&gt;Node10 -->
<g id="edge19" class="edge">
<title>Node13&#45;&gt;Node10</title>
<path fill="none" stroke="midnightblue" d="M1031.15,-739.12C1052.95,-743.05 1080.95,-747.77 1106,-751 1154.64,-757.27 1209.81,-762.13 1251.8,-765.36"/>
<polygon fill="midnightblue" stroke="midnightblue" points="1251.68,-768.86 1261.91,-766.13 1252.21,-761.88 1251.68,-768.86"/>
</g>
<!-- Node14 -->
<g id="node14" class="node">
<title>Node14</title>
<g id="a_node14"><a xlink:href="util_8cpp.html#a8056dcad90ba9582ba25405a95c2f1e4" target="_top" xlink:title=" ">
<polygon fill="none" stroke="black" points="1106,-646.5 1106,-665.5 1226,-665.5 1226,-646.5 1106,-646.5"/>
<text text-anchor="middle" x="1166" y="-653.5" font-family="Helvetica,sans-Serif" font-size="10.00">removeLeadingZeros</text>
</a>
</g>
</g>
<!-- Node13&#45;&gt;Node14 -->
<g id="edge16" class="edge">
<title>Node13&#45;&gt;Node14</title>
<path fill="none" stroke="midnightblue" d="M1013.7,-722.32C1036.11,-711.65 1073.43,-694.14 1106,-680 1114.17,-676.45 1123.03,-672.77 1131.35,-669.37"/>
<polygon fill="midnightblue" stroke="midnightblue" points="1132.82,-672.55 1140.78,-665.56 1130.2,-666.06 1132.82,-672.55"/>
</g>
<!-- Node15 -->
<g id="node15" class="node">
<title>Node15</title>
<g id="a_node15"><a xlink:href="util_8cpp.html#a7f0f5e18cd1b1507ace9b814e6286dda" target="_top" xlink:title=" ">
<polygon fill="none" stroke="black" points="1107.5,-722.5 1107.5,-741.5 1224.5,-741.5 1224.5,-722.5 1107.5,-722.5"/>
<text text-anchor="middle" x="1166" y="-729.5" font-family="Helvetica,sans-Serif" font-size="10.00">removeTrailingZeros</text>
</a>
</g>
</g>
<!-- Node13&#45;&gt;Node15 -->
<g id="edge17" class="edge">
<title>Node13&#45;&gt;Node15</title>
<path fill="none" stroke="midnightblue" d="M1031.14,-732C1050.46,-732 1074.6,-732 1097.05,-732"/>
<polygon fill="midnightblue" stroke="midnightblue" points="1097.22,-735.5 1107.22,-732 1097.22,-728.5 1097.22,-735.5"/>
</g>
<!-- Node13&#45;&gt;Node16 -->
<g id="edge20" class="edge">
<title>Node13&#45;&gt;Node16</title>
<path fill="none" stroke="midnightblue" d="M999.8,-722.27C1013.62,-700.68 1047.2,-646.86 1070,-599 1109.26,-516.58 1144.81,-413.3 1158.75,-371.19"/>
<polygon fill="midnightblue" stroke="midnightblue" points="1162.1,-372.24 1161.89,-361.64 1155.45,-370.05 1162.1,-372.24"/>
</g>
<!-- Node17&#45;&gt;Node3 -->
<g id="edge22" class="edge">
<title>Node17&#45;&gt;Node3</title>
<path fill="none" stroke="midnightblue" d="M565.11,-685.51C551.68,-700.55 517.43,-726.77 485,-742 473.44,-747.43 459.97,-751.74 448.45,-754.12"/>
<polygon fill="midnightblue" stroke="midnightblue" points="447.84,-750.68 438.54,-755.75 448.97,-757.58 447.84,-750.68"/>
</g>
<!-- Node17&#45;&gt;Node4 -->
<g id="edge29" class="edge">
<title>Node17&#45;&gt;Node4</title>
<path fill="none" stroke="midnightblue" d="M576.93,-666.15C590.09,-633.54 633.23,-529.74 659,-505 718.83,-447.55 746.06,-428 829,-428 829,-428 829,-428 1167,-428 1323.33,-428 1418.33,-645.32 1443.95,-712.47"/>
<polygon fill="midnightblue" stroke="midnightblue" points="1440.82,-714.08 1447.59,-722.23 1447.38,-711.64 1440.82,-714.08"/>
</g>
<!-- Node17&#45;&gt;Node11 -->
<g id="edge34" class="edge">
<title>Node17&#45;&gt;Node11</title>
<path fill="none" stroke="midnightblue" d="M599.87,-685.52C633.76,-697.56 693.81,-719.02 745,-738 761.32,-744.05 779.37,-750.91 794.54,-756.71"/>
<polygon fill="midnightblue" stroke="midnightblue" points="793.46,-760.05 804.05,-760.36 795.97,-753.51 793.46,-760.05"/>
</g>
<!-- Node17&#45;&gt;Node13 -->
<g id="edge35" class="edge">
<title>Node17&#45;&gt;Node13</title>
<path fill="none" stroke="midnightblue" d="M600.21,-680.53C639.89,-687.07 716,-699.3 781,-708 836.74,-715.46 900.98,-722.57 943.69,-727.09"/>
<polygon fill="midnightblue" stroke="midnightblue" points="943.49,-730.59 953.8,-728.15 944.22,-723.62 943.49,-730.59"/>
</g>
<!-- Node17&#45;&gt;Node18 -->
<g id="edge23" class="edge">
<title>Node17&#45;&gt;Node18</title>
<path fill="none" stroke="midnightblue" d="M600.2,-684.12C608.53,-687.79 617.05,-692.93 623,-700 660.78,-744.88 627.89,-777.26 659,-827 697.56,-888.65 720.84,-895.16 781,-936 786.14,-939.49 791.85,-942.78 797.49,-945.75"/>
<polygon fill="midnightblue" stroke="midnightblue" points="796.3,-949.07 806.81,-950.42 799.43,-942.81 796.3,-949.07"/>
</g>
<!-- Node22 -->
<g id="node22" class="node">
<title>Node22</title>
<g id="a_node22"><a xlink:href="subtractReport_8cpp.html#ad21f3d209885b1c419ff73800bb3b33b" target="_top" xlink:title=" ">
<polygon fill="none" stroke="black" points="787,-532.5 787,-551.5 873,-551.5 873,-532.5 787,-532.5"/>
<text text-anchor="middle" x="830" y="-539.5" font-family="Helvetica,sans-Serif" font-size="10.00">reportSubtract</text>
</a>
</g>
</g>
<!-- Node17&#45;&gt;Node22 -->
<g id="edge30" class="edge">
<title>Node17&#45;&gt;Node22</title>
<path fill="none" stroke="midnightblue" d="M591.41,-666.36C635.88,-643.09 749.32,-583.71 801.71,-556.28"/>
<polygon fill="midnightblue" stroke="midnightblue" points="803.52,-559.29 810.76,-551.55 800.27,-553.09 803.52,-559.29"/>
</g>
<!-- Node25 -->
<g id="node25" class="node">
<title>Node25</title>
<g id="a_node25"><a xlink:href="subtract_8cpp.html#ac94acf58b23f19e226b9263fa3a2b0da" target="_top" xlink:title="Subtracts one string representation of a number from another string representation of a number.">
<polygon fill="none" stroke="black" points="674,-780.5 674,-799.5 730,-799.5 730,-780.5 674,-780.5"/>
<text text-anchor="middle" x="702" y="-787.5" font-family="Helvetica,sans-Serif" font-size="10.00">subtract</text>
</a>
</g>
</g>
<!-- Node17&#45;&gt;Node25 -->
<g id="edge36" class="edge">
<title>Node17&#45;&gt;Node25</title>
<path fill="none" stroke="midnightblue" d="M598.06,-685.6C606.42,-689.41 615.5,-694.27 623,-700 650.24,-720.8 674.9,-752.39 688.91,-772.08"/>
<polygon fill="midnightblue" stroke="midnightblue" points="686.15,-774.24 694.73,-780.45 691.89,-770.25 686.15,-774.24"/>
</g>
<!-- Node18&#45;&gt;Node8 -->
<g id="edge28" class="edge">
<title>Node18&#45;&gt;Node8</title>
<path fill="none" stroke="midnightblue" d="M841.04,-950.49C867.72,-925.22 940.65,-856.15 974.2,-824.38"/>
<polygon fill="midnightblue" stroke="midnightblue" points="976.61,-826.92 981.46,-817.5 971.8,-821.84 976.61,-826.92"/>
</g>
<!-- Node18&#45;&gt;Node13 -->
<g id="edge27" class="edge">
<title>Node18&#45;&gt;Node13</title>
<path fill="none" stroke="midnightblue" d="M841.18,-950.41C851.95,-939.75 868.77,-921.59 879,-903 904.61,-856.45 884.21,-832.3 915,-789 927.63,-771.23 947.5,-756.67 963.82,-746.71"/>
<polygon fill="midnightblue" stroke="midnightblue" points="965.59,-749.73 972.46,-741.66 962.06,-743.69 965.59,-749.73"/>
</g>
<!-- Node19 -->
<g id="node19" class="node">
<title>Node19</title>
<g id="a_node19"><a xlink:href="comparisonReport_8cpp.html#a9837660fa80278748f7f9bc397f5fba4" target="_top" xlink:title=" ">
<polygon fill="none" stroke="black" points="918,-988.5 918,-1007.5 1067,-1007.5 1067,-988.5 918,-988.5"/>
<text text-anchor="middle" x="992.5" y="-995.5" font-family="Helvetica,sans-Serif" font-size="10.00">reportComparisonAtInteger</text>
</a>
</g>
</g>
<!-- Node18&#45;&gt;Node19 -->
<g id="edge24" class="edge">
<title>Node18&#45;&gt;Node19</title>
<path fill="none" stroke="midnightblue" d="M859.69,-966.79C882.32,-972.15 914.43,-979.75 941.29,-986.11"/>
<polygon fill="midnightblue" stroke="midnightblue" points="940.76,-989.58 951.3,-988.48 942.37,-982.77 940.76,-989.58"/>
</g>
<!-- Node20 -->
<g id="node20" class="node">
<title>Node20</title>
<g id="a_node20"><a xlink:href="comparisonReport_8cpp.html#adc6ac398c16b4d30ab55b0ec5ceef9f3" target="_top" xlink:title=" ">
<polygon fill="none" stroke="black" points="922.5,-950.5 922.5,-969.5 1062.5,-969.5 1062.5,-950.5 922.5,-950.5"/>
<text text-anchor="middle" x="992.5" y="-957.5" font-family="Helvetica,sans-Serif" font-size="10.00">reportComparisonByDigit</text>
</a>
</g>
</g>
<!-- Node18&#45;&gt;Node20 -->
<g id="edge25" class="edge">
<title>Node18&#45;&gt;Node20</title>
<path fill="none" stroke="midnightblue" d="M859.69,-960C874.52,-960 893.42,-960 912.25,-960"/>
<polygon fill="midnightblue" stroke="midnightblue" points="912.37,-963.5 922.37,-960 912.37,-956.5 912.37,-963.5"/>
</g>
<!-- Node21 -->
<g id="node21" class="node">
<title>Node21</title>
<g id="a_node21"><a xlink:href="comparisonReport_8cpp.html#a8bdddfcaa5a1d0339df5705ec6ff2aff" target="_top" xlink:title=" ">
<polygon fill="none" stroke="black" points="915,-912.5 915,-931.5 1070,-931.5 1070,-912.5 915,-912.5"/>
<text text-anchor="middle" x="992.5" y="-919.5" font-family="Helvetica,sans-Serif" font-size="10.00">reportComparisonByPolarity</text>
</a>
</g>
</g>
<!-- Node18&#45;&gt;Node21 -->
<g id="edge26" class="edge">
<title>Node18&#45;&gt;Node21</title>
<path fill="none" stroke="midnightblue" d="M859.69,-953.21C882.32,-947.85 914.43,-940.25 941.29,-933.89"/>
<polygon fill="midnightblue" stroke="midnightblue" points="942.37,-937.23 951.3,-931.52 940.76,-930.42 942.37,-937.23"/>
</g>
<!-- Node22&#45;&gt;Node6 -->
<g id="edge31" class="edge">
<title>Node22&#45;&gt;Node6</title>
<path fill="none" stroke="midnightblue" d="M871.5,-551.59C892.68,-556.6 918.8,-562.79 941.26,-568.11"/>
<polygon fill="midnightblue" stroke="midnightblue" points="940.75,-571.58 951.29,-570.48 942.37,-564.77 940.75,-571.58"/>
</g>
<!-- Node23 -->
<g id="node23" class="node">
<title>Node23</title>
<g id="a_node23"><a xlink:href="util_8hpp.html#a8056dcad90ba9582ba25405a95c2f1e4" target="_top" xlink:title=" ">
<polygon fill="none" stroke="black" points="932.5,-466.5 932.5,-485.5 1052.5,-485.5 1052.5,-466.5 932.5,-466.5"/>
<text text-anchor="middle" x="992.5" y="-473.5" font-family="Helvetica,sans-Serif" font-size="10.00">removeLeadingZeros</text>
</a>
</g>
</g>
<!-- Node22&#45;&gt;Node23 -->
<g id="edge32" class="edge">
<title>Node22&#45;&gt;Node23</title>
<path fill="none" stroke="midnightblue" d="M854.34,-532.4C881.87,-521.08 927.83,-502.18 958.88,-489.41"/>
<polygon fill="midnightblue" stroke="midnightblue" points="960.48,-492.54 968.39,-485.5 957.81,-486.07 960.48,-492.54"/>
</g>
<!-- Node24 -->
<g id="node24" class="node">
<title>Node24</title>
<g id="a_node24"><a xlink:href="util_8hpp.html#ac87bf229222a2a4f32b8626281c6c282" target="_top" xlink:title=" ">
<polygon fill="none" stroke="black" points="933,-523.5 933,-542.5 1052,-542.5 1052,-523.5 933,-523.5"/>
<text text-anchor="middle" x="992.5" y="-530.5" font-family="Helvetica,sans-Serif" font-size="10.00">replaceLeadingZeros</text>
</a>
</g>
</g>
<!-- Node22&#45;&gt;Node24 -->
<g id="edge33" class="edge">
<title>Node22&#45;&gt;Node24</title>
<path fill="none" stroke="midnightblue" d="M873.17,-539.64C888.24,-538.79 905.65,-537.81 922.4,-536.87"/>
<polygon fill="midnightblue" stroke="midnightblue" points="922.93,-540.35 932.72,-536.3 922.54,-533.36 922.93,-540.35"/>
</g>
<!-- Node25&#45;&gt;Node3 -->
<g id="edge37" class="edge">
<title>Node25&#45;&gt;Node3</title>
<path fill="none" stroke="midnightblue" d="M673.85,-786.45C638.61,-781.82 575.19,-773.44 521,-766 496.51,-762.64 468.63,-758.68 448.71,-755.84"/>
<polygon fill="midnightblue" stroke="midnightblue" points="449.21,-752.37 438.81,-754.42 448.21,-759.3 449.21,-752.37"/>
</g>
<!-- Node25&#45;&gt;Node4 -->
<g id="edge39" class="edge">
<title>Node25&#45;&gt;Node4</title>
<path fill="none" stroke="midnightblue" d="M718.92,-799.77C727.51,-805.66 737.8,-813.8 745,-823 769.02,-853.71 748.26,-881.83 781,-903 817.58,-926.65 835.52,-905.56 879,-903 991.04,-896.4 1283.63,-885.76 1378,-825 1407.05,-806.29 1429.46,-771.98 1441.4,-750.67"/>
<polygon fill="midnightblue" stroke="midnightblue" points="1444.61,-752.1 1446.27,-741.63 1438.45,-748.77 1444.61,-752.1"/>
</g>
<!-- Node25&#45;&gt;Node11 -->
<g id="edge41" class="edge">
<title>Node25&#45;&gt;Node11</title>
<path fill="none" stroke="midnightblue" d="M730.03,-785.71C741.96,-783.82 756.47,-781.51 770.67,-779.26"/>
<polygon fill="midnightblue" stroke="midnightblue" points="771.58,-782.66 780.91,-777.63 770.49,-775.74 771.58,-782.66"/>
</g>
<!-- Node25&#45;&gt;Node13 -->
<g id="edge42" class="edge">
<title>Node25&#45;&gt;Node13</title>
<path fill="none" stroke="midnightblue" d="M730.3,-793.67C765.31,-797.52 827.62,-801.43 879,-789 912.52,-780.89 947.38,-761.19 969.24,-747.22"/>
<polygon fill="midnightblue" stroke="midnightblue" points="971.32,-750.04 977.77,-741.64 967.49,-744.18 971.32,-750.04"/>
</g>
<!-- Node25&#45;&gt;Node18 -->
<g id="edge38" class="edge">
<title>Node25&#45;&gt;Node18</title>
<path fill="none" stroke="midnightblue" d="M705.91,-799.81C713.92,-825.33 738.58,-894.71 781,-936 784.74,-939.64 789.15,-942.84 793.75,-945.62"/>
<polygon fill="midnightblue" stroke="midnightblue" points="792.24,-948.78 802.7,-950.43 795.55,-942.61 792.24,-948.78"/>
</g>
<!-- Node25&#45;&gt;Node22 -->
<g id="edge40" class="edge">
<title>Node25&#45;&gt;Node22</title>
<path fill="none" stroke="midnightblue" d="M707.94,-780.28C726.8,-743.16 794.45,-610.01 819.54,-560.61"/>
<polygon fill="midnightblue" stroke="midnightblue" points="822.69,-562.16 824.09,-551.65 816.44,-558.98 822.69,-562.16"/>
</g>
<!-- Node25&#45;&gt;Node25 -->
<g id="edge43" class="edge">
<title>Node25&#45;&gt;Node25</title>
<path fill="none" stroke="midnightblue" d="M682.27,-799.76C672.67,-808.57 679.25,-818 702,-818 716.57,-818 724.51,-814.13 725.81,-809.03"/>
<polygon fill="midnightblue" stroke="midnightblue" points="728.96,-807.5 721.73,-799.76 722.55,-810.32 728.96,-807.5"/>
</g>
<!-- Node26&#45;&gt;Node3 -->
<g id="edge46" class="edge">
<title>Node26&#45;&gt;Node3</title>
<path fill="none" stroke="midnightblue" d="M258.35,-513.97C263.7,-549.42 286.6,-670.5 357,-733 366.98,-741.86 380.96,-746.59 393.22,-749.11"/>
<polygon fill="midnightblue" stroke="midnightblue" points="392.97,-752.62 403.41,-750.81 394.12,-745.71 392.97,-752.62"/>
</g>
<!-- Node26&#45;&gt;Node4 -->
<g id="edge58" class="edge">
<title>Node26&#45;&gt;Node4</title>
<path fill="none" stroke="midnightblue" d="M258.38,-494.05C263.69,-459.85 286.23,-346.63 357,-298 403.99,-265.71 605.43,-276 991.5,-276 991.5,-276 991.5,-276 1167,-276 1273.17,-276 1314.09,-303.22 1378,-388 1417.44,-440.31 1442.06,-646.68 1448.99,-712.04"/>
<polygon fill="midnightblue" stroke="midnightblue" points="1445.53,-712.64 1450.04,-722.22 1452.49,-711.91 1445.53,-712.64"/>
</g>
<!-- Node26&#45;&gt;Node13 -->
<g id="edge75" class="edge">
<title>Node26&#45;&gt;Node13</title>
<path fill="none" stroke="midnightblue" d="M279.89,-512.93C300.07,-520.68 330.32,-532.05 357,-541 543.62,-603.63 592.49,-612.34 781,-669 839.51,-686.59 907.2,-706.83 949.68,-719.52"/>
<polygon fill="midnightblue" stroke="midnightblue" points="948.81,-722.91 959.4,-722.42 950.82,-716.2 948.81,-722.91"/>
</g>
<!-- Node26&#45;&gt;Node23 -->
<g id="edge68" class="edge">
<title>Node26&#45;&gt;Node23</title>
<path fill="none" stroke="midnightblue" d="M279.53,-499.06C299.73,-494.78 330.22,-488.72 357,-485 451.58,-471.85 475.51,-466 571,-466 571,-466 571,-466 703,-466 777.94,-466 863.75,-469.41 922.18,-472.25"/>
<polygon fill="midnightblue" stroke="midnightblue" points="922.24,-475.76 932.4,-472.75 922.58,-468.76 922.24,-475.76"/>
</g>
<!-- Node26&#45;&gt;Node27 -->
<g id="edge47" class="edge">
<title>Node26&#45;&gt;Node27</title>
<path fill="none" stroke="midnightblue" d="M257.09,-494.29C258.06,-453.61 267.61,-295.7 357,-224 405.22,-185.32 597.51,-181.03 671.64,-180.84"/>
<polygon fill="midnightblue" stroke="midnightblue" points="671.69,-184.34 681.69,-180.84 671.69,-177.34 671.69,-184.34"/>
</g>
<!-- Node32 -->
<g id="node32" class="node">
<title>Node32</title>
<g id="a_node32"><a xlink:href="division_8cpp.html#afe2f9d37fbb1090dfb3af32476b43fca" target="_top" xlink:title=" ">
<polygon fill="none" stroke="black" points="357,-704.5 357,-723.5 485,-723.5 485,-704.5 357,-704.5"/>
<text text-anchor="middle" x="421" y="-711.5" font-family="Helvetica,sans-Serif" font-size="10.00">getQuotientRemainder</text>
</a>
</g>
</g>
<!-- Node26&#45;&gt;Node32 -->
<g id="edge55" class="edge">
<title>Node26&#45;&gt;Node32</title>
<path fill="none" stroke="midnightblue" d="M262.69,-513.82C277.07,-538.26 316.55,-603.36 357,-652 370.65,-668.41 388.07,-685.3 401.13,-697.29"/>
<polygon fill="midnightblue" stroke="midnightblue" points="398.87,-699.97 408.63,-704.08 403.57,-694.78 398.87,-699.97"/>
</g>
<!-- Node33 -->
<g id="node33" class="node">
<title>Node33</title>
<g id="a_node33"><a xlink:href="util_8hpp.html#a93b9ba3fe803c8e3fa1b128f4e83924f" target="_top" xlink:title="Makes the given string wider by adding 2 spaces between each character.">
<polygon fill="none" stroke="black" points="794,-304.5 794,-323.5 866,-323.5 866,-304.5 794,-304.5"/>
<text text-anchor="middle" x="830" y="-311.5" font-family="Helvetica,sans-Serif" font-size="10.00">makeWider</text>
</a>
</g>
</g>
<!-- Node26&#45;&gt;Node33 -->
<g id="edge59" class="edge">
<title>Node26&#45;&gt;Node33</title>
<path fill="none" stroke="midnightblue" d="M260.82,-494.39C271.76,-468.07 305.73,-394.12 357,-354 418,-306.26 444.69,-308.31 521,-295 613.3,-278.9 723.23,-293.67 783.63,-304.64"/>
<polygon fill="midnightblue" stroke="midnightblue" points="783.13,-308.1 793.6,-306.5 784.41,-301.22 783.13,-308.1"/>
</g>
<!-- Node26&#45;&gt;Node34 -->
<g id="edge60" class="edge">
<title>Node26&#45;&gt;Node34</title>
<path fill="none" stroke="midnightblue" d="M279.89,-509.3C300.07,-513.75 330.32,-519.86 357,-523 418.29,-530.22 490.04,-532.28 532.94,-532.84"/>
<polygon fill="midnightblue" stroke="midnightblue" points="533.16,-536.34 543.2,-532.95 533.23,-529.34 533.16,-536.34"/>
</g>
<!-- Node36 -->
<g id="node36" class="node">
<title>Node36</title>
<g id="a_node36"><a xlink:href="divisionReport_8cpp.html#a37e4e7cb6fe42ae3131cdc071b038687" target="_top" xlink:title=" ">
<polygon fill="none" stroke="black" points="529,-304.5 529,-323.5 615,-323.5 615,-304.5 529,-304.5"/>
<text text-anchor="middle" x="572" y="-311.5" font-family="Helvetica,sans-Serif" font-size="10.00">reportDivision</text>
</a>
</g>
</g>
<!-- Node26&#45;&gt;Node36 -->
<g id="edge69" class="edge">
<title>Node26&#45;&gt;Node36</title>
<path fill="none" stroke="midnightblue" d="M270.97,-494.42C309.75,-468 422.41,-392.43 521,-338 527.23,-334.56 534.03,-331.11 540.55,-327.93"/>
<polygon fill="midnightblue" stroke="midnightblue" points="542.29,-330.98 549.81,-323.52 539.28,-324.66 542.29,-330.98"/>
</g>
<!-- Node37 -->
<g id="node37" class="node">
<title>Node37</title>
<g id="a_node37"><a xlink:href="divisionReport_8cpp.html#aaebd1f284f6703b7629aa18d21f7ccf2" target="_top" xlink:title=" ">
<polygon fill="none" stroke="black" points="367.5,-494.5 367.5,-513.5 474.5,-513.5 474.5,-494.5 367.5,-494.5"/>
<text text-anchor="middle" x="421" y="-501.5" font-family="Helvetica,sans-Serif" font-size="10.00">reportDivisionStep</text>
</a>
</g>
</g>
<!-- Node26&#45;&gt;Node37 -->
<g id="edge71" class="edge">
<title>Node26&#45;&gt;Node37</title>
<path fill="none" stroke="midnightblue" d="M279.66,-504C299.68,-504 329.82,-504 357.05,-504"/>
<polygon fill="midnightblue" stroke="midnightblue" points="357.32,-507.5 367.32,-504 357.32,-500.5 357.32,-507.5"/>
</g>
<!-- Node28 -->
<g id="node28" class="node">
<title>Node28</title>
<g id="a_node28"><a xlink:href="namespaceformats.html#a02e589d39c7fb74bc6095fffeb1480fb" target="_top" xlink:title="Set the text format to bold.">
<polygon fill="none" stroke="black" points="789,-190.5 789,-209.5 871,-209.5 871,-190.5 789,-190.5"/>
<text text-anchor="middle" x="830" y="-197.5" font-family="Helvetica,sans-Serif" font-size="10.00">formats::bold</text>
</a>
</g>
</g>
<!-- Node27&#45;&gt;Node28 -->
<g id="edge48" class="edge">
<title>Node27&#45;&gt;Node28</title>
<path fill="none" stroke="midnightblue" d="M722.14,-183.89C737.21,-186.16 758.94,-189.44 778.88,-192.44"/>
<polygon fill="midnightblue" stroke="midnightblue" points="778.38,-195.91 788.79,-193.94 779.42,-188.98 778.38,-195.91"/>
</g>
<!-- Node29 -->
<g id="node29" class="node">
<title>Node29</title>
<g id="a_node29"><a xlink:href="namespacecolors.html#ae360f74f6cd6e0fc3de2c245aba4d500" target="_top" xlink:title="Set the text color to red.">
<polygon fill="none" stroke="black" points="796,-152.5 796,-171.5 864,-171.5 864,-152.5 796,-152.5"/>
<text text-anchor="middle" x="830" y="-159.5" font-family="Helvetica,sans-Serif" font-size="10.00">colors::red</text>
</a>
</g>
</g>
<!-- Node27&#45;&gt;Node29 -->
<g id="edge50" class="edge">
<title>Node27&#45;&gt;Node29</title>
<path fill="none" stroke="midnightblue" d="M722.14,-178.11C739.02,-175.57 764.23,-171.77 785.93,-168.49"/>
<polygon fill="midnightblue" stroke="midnightblue" points="786.56,-171.94 795.93,-166.99 785.52,-165.02 786.56,-171.94"/>
</g>
<!-- Node30 -->
<g id="node30" class="node">
<title>Node30</title>
<g id="a_node30"><a xlink:href="colors_8hpp.html#a4661597771a019efa3f0f92cfb0c6e02" target="_top" xlink:title="Reset the text color and format to the default values.">
<polygon fill="none" stroke="black" points="809.5,-228.5 809.5,-247.5 850.5,-247.5 850.5,-228.5 809.5,-228.5"/>
<text text-anchor="middle" x="830" y="-235.5" font-family="Helvetica,sans-Serif" font-size="10.00">reset</text>
</a>
</g>
</g>
<!-- Node27&#45;&gt;Node30 -->
<g id="edge52" class="edge">
<title>Node27&#45;&gt;Node30</title>
<path fill="none" stroke="midnightblue" d="M721.72,-190.62C737.41,-198.56 760.46,-209.95 781,-219 787.03,-221.66 793.55,-224.35 799.79,-226.85"/>
<polygon fill="midnightblue" stroke="midnightblue" points="798.66,-230.17 809.24,-230.57 801.22,-223.65 798.66,-230.17"/>
</g>
<!-- Node31 -->
<g id="node31" class="node">
<title>Node31</title>
<g id="a_node31"><a xlink:href="format_8hpp.html#aec7a78e0e53305094ec38dc8bd038de8" target="_top" xlink:title="Formats a string using a variable number of arguments.">
<polygon fill="none" stroke="black" points="801.5,-114.5 801.5,-133.5 858.5,-133.5 858.5,-114.5 801.5,-114.5"/>
<text text-anchor="middle" x="830" y="-121.5" font-family="Helvetica,sans-Serif" font-size="10.00">vFormat</text>
</a>
</g>
</g>
<!-- Node27&#45;&gt;Node31 -->
<g id="edge54" class="edge">
<title>Node27&#45;&gt;Node31</title>
<path fill="none" stroke="midnightblue" d="M721.72,-171.38C737.41,-163.44 760.46,-152.05 781,-143 785.38,-141.07 790.03,-139.12 794.63,-137.23"/>
<polygon fill="midnightblue" stroke="midnightblue" points="795.96,-140.47 803.94,-133.5 793.35,-133.98 795.96,-140.47"/>
</g>
<!-- Node28&#45;&gt;Node12 -->
<g id="edge49" class="edge">
<title>Node28&#45;&gt;Node12</title>
<path fill="none" stroke="midnightblue" d="M871.09,-204.75C894.81,-207.55 924.84,-211.11 948.98,-213.97"/>
<polygon fill="midnightblue" stroke="midnightblue" points="948.58,-217.44 958.93,-215.14 949.41,-210.49 948.58,-217.44"/>
</g>
<!-- Node29&#45;&gt;Node12 -->
<g id="edge51" class="edge">
<title>Node29&#45;&gt;Node12</title>
<path fill="none" stroke="midnightblue" d="M857.86,-171.54C884.48,-180.99 925.44,-195.54 955,-206.04"/>
<polygon fill="midnightblue" stroke="midnightblue" points="953.95,-209.38 964.55,-209.43 956.3,-202.78 953.95,-209.38"/>
</g>
<!-- Node30&#45;&gt;Node12 -->
<g id="edge53" class="edge">
<title>Node30&#45;&gt;Node12</title>
<path fill="none" stroke="midnightblue" d="M850.68,-235.67C875,-232.79 917.07,-227.81 948.91,-224.04"/>
<polygon fill="midnightblue" stroke="midnightblue" points="949.33,-227.52 958.85,-222.86 948.51,-220.56 949.33,-227.52"/>
</g>
<!-- Node32&#45;&gt;Node17 -->
<g id="edge57" class="edge">
<title>Node32&#45;&gt;Node17</title>
<path fill="none" stroke="midnightblue" d="M459.6,-704.41C482.33,-698.61 511.18,-691.26 533.83,-685.48"/>
<polygon fill="midnightblue" stroke="midnightblue" points="534.93,-688.81 543.76,-682.95 533.2,-682.03 534.93,-688.81"/>
</g>
<!-- Node32&#45;&gt;Node18 -->
<g id="edge56" class="edge">
<title>Node32&#45;&gt;Node18</title>
<path fill="none" stroke="midnightblue" d="M462.68,-723.53C470.33,-726.08 478.09,-729.21 485,-733 574.5,-782.15 572.95,-828.04 659,-883 702.18,-910.58 756.88,-933.47 792.39,-946.94"/>
<polygon fill="midnightblue" stroke="midnightblue" points="791.28,-950.26 801.87,-950.48 793.73,-943.7 791.28,-950.26"/>
</g>
<!-- Node34&#45;&gt;Node4 -->
<g id="edge61" class="edge">
<title>Node34&#45;&gt;Node4</title>
<path fill="none" stroke="midnightblue" d="M578.78,-523.34C591.01,-503.75 621.51,-459.24 659,-436 725.53,-394.76 750.73,-390 829,-390 829,-390 829,-390 1167,-390 1265.13,-390 1310.06,-384.2 1378,-455 1448.6,-528.57 1452.94,-661.97 1451.87,-712.18"/>
<polygon fill="midnightblue" stroke="midnightblue" points="1448.36,-712.22 1451.55,-722.33 1455.36,-712.44 1448.36,-712.22"/>
</g>
<!-- Node34&#45;&gt;Node13 -->
<g id="edge67" class="edge">
<title>Node34&#45;&gt;Node13</title>
<path fill="none" stroke="midnightblue" d="M593.19,-542.6C661.14,-574.91 881.82,-679.85 962.02,-717.98"/>
<polygon fill="midnightblue" stroke="midnightblue" points="960.98,-721.36 971.52,-722.5 963.99,-715.04 960.98,-721.36"/>
</g>
<!-- Node35 -->
<g id="node35" class="node">
<title>Node35</title>
<g id="a_node35"><a xlink:href="multiplyReport_8cpp.html#a66ad602068d3c80661db7d3cd3069681" target="_top" xlink:title=" ">
<polygon fill="none" stroke="black" points="659,-514.5 659,-533.5 745,-533.5 745,-514.5 659,-514.5"/>
<text text-anchor="middle" x="702" y="-521.5" font-family="Helvetica,sans-Serif" font-size="10.00">reportMultiply</text>
</a>
</g>
</g>
<!-- Node34&#45;&gt;Node35 -->
<g id="edge62" class="edge">
<title>Node34&#45;&gt;Node35</title>
<path fill="none" stroke="midnightblue" d="M600.77,-531.05C614.78,-530.06 632.23,-528.84 648.63,-527.68"/>
<polygon fill="midnightblue" stroke="midnightblue" points="648.94,-531.17 658.67,-526.98 648.45,-524.19 648.94,-531.17"/>
</g>
<!-- Node35&#45;&gt;Node6 -->
<g id="edge63" class="edge">
<title>Node35&#45;&gt;Node6</title>
<path fill="none" stroke="midnightblue" d="M718.79,-533.54C734.11,-542.29 758.3,-554.8 781,-561 833,-575.19 894.63,-579.35 937.72,-580.32"/>
<polygon fill="midnightblue" stroke="midnightblue" points="937.92,-583.83 947.98,-580.5 938.04,-576.83 937.92,-583.83"/>
</g>
<!-- Node35&#45;&gt;Node8 -->
<g id="edge66" class="edge">
<title>Node35&#45;&gt;Node8</title>
<path fill="none" stroke="midnightblue" d="M710.92,-533.65C737.79,-566.12 828.6,-673.69 915,-751 932.02,-766.23 952.91,-781.6 968.56,-792.53"/>
<polygon fill="midnightblue" stroke="midnightblue" points="966.87,-795.62 977.09,-798.42 970.85,-789.86 966.87,-795.62"/>
</g>
<!-- Node35&#45;&gt;Node24 -->
<g id="edge65" class="edge">
<title>Node35&#45;&gt;Node24</title>
<path fill="none" stroke="midnightblue" d="M745.1,-523.36C756.73,-523.21 769.35,-523.07 781,-523 824.55,-522.72 835.49,-521.07 879,-523 893.11,-523.63 908.18,-524.69 922.56,-525.9"/>
<polygon fill="midnightblue" stroke="midnightblue" points="922.62,-529.42 932.89,-526.8 923.23,-522.44 922.62,-529.42"/>
</g>
<!-- Node35&#45;&gt;Node33 -->
<g id="edge64" class="edge">
<title>Node35&#45;&gt;Node33</title>
<path fill="none" stroke="midnightblue" d="M708.74,-514.43C728.26,-481.91 792.25,-375.26 818.06,-332.23"/>
<polygon fill="midnightblue" stroke="midnightblue" points="821.08,-334 823.22,-323.63 815.08,-330.4 821.08,-334"/>
</g>
<!-- Node36&#45;&gt;Node33 -->
<g id="edge70" class="edge">
<title>Node36&#45;&gt;Node33</title>
<path fill="none" stroke="midnightblue" d="M615.27,-314C661.71,-314 736.01,-314 783.64,-314"/>
<polygon fill="midnightblue" stroke="midnightblue" points="783.68,-317.5 793.68,-314 783.68,-310.5 783.68,-317.5"/>
</g>
<!-- Node37&#45;&gt;Node16 -->
<g id="edge73" class="edge">
<title>Node37&#45;&gt;Node16</title>
<path fill="none" stroke="midnightblue" d="M431.12,-494.49C464.06,-461.22 581.3,-352 701,-352 701,-352 701,-352 831,-352 944.31,-352 1079.24,-352 1136.77,-352"/>
<polygon fill="midnightblue" stroke="midnightblue" points="1136.9,-355.5 1146.9,-352 1136.9,-348.5 1136.9,-355.5"/>
</g>
<!-- Node37&#45;&gt;Node17 -->
<g id="edge74" class="edge">
<title>Node37&#45;&gt;Node17</title>
<path fill="none" stroke="midnightblue" d="M430.44,-513.74C454.72,-541.77 524.99,-622.89 556,-658.68"/>
<polygon fill="midnightblue" stroke="midnightblue" points="553.46,-661.1 562.65,-666.37 558.75,-656.52 553.46,-661.1"/>
</g>
<!-- Node37&#45;&gt;Node34 -->
<g id="edge72" class="edge">
<title>Node37&#45;&gt;Node34</title>
<path fill="none" stroke="midnightblue" d="M471.2,-513.58C491.37,-517.5 514.35,-521.97 533.16,-525.64"/>
<polygon fill="midnightblue" stroke="midnightblue" points="532.66,-529.1 543.15,-527.58 534,-522.23 532.66,-529.1"/>
</g>
<!-- Node40&#45;&gt;Node18 -->
<g id="edge81" class="edge">
<title>Node40&#45;&gt;Node18</title>
<path fill="none" stroke="midnightblue" d="M605.84,-1064.41C641.07,-1053.61 698.27,-1034.58 745,-1012 767.02,-1001.36 790.57,-986.44 807.12,-975.31"/>
<polygon fill="midnightblue" stroke="midnightblue" points="809.24,-978.09 815.53,-969.57 805.3,-972.31 809.24,-978.09"/>
</g>
</g>
</svg>
