<?xml version="1.0" encoding="UTF-8" standalone="no"?>
<!DOCTYPE svg PUBLIC "-//W3C//DTD SVG 1.1//EN"
 "http://www.w3.org/Graphics/SVG/1.1/DTD/svg11.dtd">
<!-- Generated by graphviz version 2.43.0 (0)
 -->
<!-- Title: divide Pages: 1 -->
<svg width="923pt" height="958pt"
 viewBox="0.00 0.00 923.00 958.00" xmlns="http://www.w3.org/2000/svg" xmlns:xlink="http://www.w3.org/1999/xlink">
<g id="graph0" class="graph" transform="scale(1 1) rotate(0) translate(4 954)">
<title>divide</title>
<!-- Node1 -->
<g id="node1" class="node">
<title>Node1</title>
<g id="a_node1"><a xlink:title="Divides a string representation of a number by another string representation of a number.">
<polygon fill="#bfbfbf" stroke="black" points="0,-494.5 0,-513.5 47,-513.5 47,-494.5 0,-494.5"/>
<text text-anchor="middle" x="23.5" y="-501.5" font-family="Helvetica,sans-Serif" font-size="10.00">divide</text>
</a>
</g>
</g>
<!-- Node2 -->
<g id="node2" class="node">
<title>Node2</title>
<g id="a_node2"><a xlink:href="basicArithm_8hpp.html#a0bf76a4df6c2748fbcb5b33b3e8166b3" target="_top" xlink:title="Calculates the absolute value of a string representation of a number.">
<polygon fill="none" stroke="black" points="119.5,-930.5 119.5,-949.5 153.5,-949.5 153.5,-930.5 119.5,-930.5"/>
<text text-anchor="middle" x="136.5" y="-937.5" font-family="Helvetica,sans-Serif" font-size="10.00">abs</text>
</a>
</g>
</g>
<!-- Node1&#45;&gt;Node2 -->
<g id="edge1" class="edge">
<title>Node1&#45;&gt;Node2</title>
<path fill="none" stroke="midnightblue" d="M24.65,-513.83C25.68,-569.92 33.28,-849.44 83,-916 89.41,-924.58 99.62,-930.18 109.34,-933.79"/>
<polygon fill="midnightblue" stroke="midnightblue" points="108.52,-937.2 119.11,-936.88 110.62,-930.53 108.52,-937.2"/>
</g>
<!-- Node4 -->
<g id="node4" class="node">
<title>Node4</title>
<g id="a_node4"><a xlink:href="basicArithm_8hpp.html#acf222f0bfc4ca97fbdc6db7fe808a9ee" target="_top" xlink:title="Adds two string representations of numbers, and performs with the column method.">
<polygon fill="none" stroke="black" points="119,-456.5 119,-475.5 154,-475.5 154,-456.5 119,-456.5"/>
<text text-anchor="middle" x="136.5" y="-463.5" font-family="Helvetica,sans-Serif" font-size="10.00">add</text>
</a>
</g>
</g>
<!-- Node1&#45;&gt;Node4 -->
<g id="edge3" class="edge">
<title>Node1&#45;&gt;Node4</title>
<path fill="none" stroke="midnightblue" d="M47.23,-496.22C65.3,-490.03 90.58,-481.38 109.46,-474.92"/>
<polygon fill="midnightblue" stroke="midnightblue" points="110.61,-478.22 118.93,-471.67 108.34,-471.6 110.61,-478.22"/>
</g>
<!-- Node5 -->
<g id="node5" class="node">
<title>Node5</title>
<g id="a_node5"><a xlink:href="util_8hpp.html#a183c024df291889f90106e47bb64fe0b" target="_top" xlink:title="Checks if a given string is a zero string.">
<polygon fill="none" stroke="black" points="817,-380.5 817,-399.5 893,-399.5 893,-380.5 817,-380.5"/>
<text text-anchor="middle" x="855" y="-387.5" font-family="Helvetica,sans-Serif" font-size="10.00">isZeroString</text>
</a>
</g>
</g>
<!-- Node1&#45;&gt;Node5 -->
<g id="edge58" class="edge">
<title>Node1&#45;&gt;Node5</title>
<path fill="none" stroke="midnightblue" d="M25.48,-494.49C29.9,-453.45 49.23,-291.95 83,-256 141.82,-193.39 182.09,-200 268,-200 268,-200 268,-200 520,-200 631.07,-200 666.87,-210.97 759,-273 797.68,-299.05 828.55,-345.54 843.73,-371.38"/>
<polygon fill="midnightblue" stroke="midnightblue" points="840.77,-373.24 848.77,-380.19 846.85,-369.77 840.77,-373.24"/>
</g>
<!-- Node11 -->
<g id="node11" class="node">
<title>Node11</title>
<g id="a_node11"><a xlink:href="util_8hpp.html#a7e7fdd236a1593ed0124a3a7dd05946d" target="_top" xlink:title=" ">
<polygon fill="none" stroke="black" points="643,-693.5 643,-712.5 720,-712.5 720,-693.5 643,-693.5"/>
<text text-anchor="middle" x="681.5" y="-700.5" font-family="Helvetica,sans-Serif" font-size="10.00">splitNumber</text>
</a>
</g>
</g>
<!-- Node1&#45;&gt;Node11 -->
<g id="edge67" class="edge">
<title>Node1&#45;&gt;Node11</title>
<path fill="none" stroke="midnightblue" d="M27.39,-513.78C42.8,-563.71 120.24,-788 268,-788 268,-788 268,-788 392,-788 442.29,-788 580.22,-739.88 645.44,-716.05"/>
<polygon fill="midnightblue" stroke="midnightblue" points="646.71,-719.32 654.89,-712.59 644.3,-712.75 646.71,-719.32"/>
</g>
<!-- Node14 -->
<g id="node14" class="node">
<title>Node14</title>
<g id="a_node14"><a xlink:href="basicArithm_8hpp.html#a08faec0b8e863df19e3f978758166482" target="_top" xlink:title="Subtracts one string representation of a number from another string representation of a number.">
<polygon fill="none" stroke="black" points="241,-532.5 241,-551.5 297,-551.5 297,-532.5 241,-532.5"/>
<text text-anchor="middle" x="269" y="-539.5" font-family="Helvetica,sans-Serif" font-size="10.00">subtract</text>
</a>
</g>
</g>
<!-- Node1&#45;&gt;Node14 -->
<g id="edge68" class="edge">
<title>Node1&#45;&gt;Node14</title>
<path fill="none" stroke="midnightblue" d="M47.12,-505.7C79.1,-508.3 139.32,-513.95 190,-523 203.42,-525.4 217.98,-528.74 230.84,-531.95"/>
<polygon fill="midnightblue" stroke="midnightblue" points="230.19,-535.39 240.74,-534.48 231.92,-528.61 230.19,-535.39"/>
</g>
<!-- Node15 -->
<g id="node15" class="node">
<title>Node15</title>
<g id="a_node15"><a xlink:href="basicArithm_8hpp.html#aabb709fcb471467879352bf51bb0030a" target="_top" xlink:title="Compares two string representations of numbers.">
<polygon fill="none" stroke="black" points="489.5,-816.5 489.5,-835.5 548.5,-835.5 548.5,-816.5 489.5,-816.5"/>
<text text-anchor="middle" x="519" y="-823.5" font-family="Helvetica,sans-Serif" font-size="10.00">compare</text>
</a>
</g>
</g>
<!-- Node1&#45;&gt;Node15 -->
<g id="edge37" class="edge">
<title>Node1&#45;&gt;Node15</title>
<path fill="none" stroke="midnightblue" d="M24.87,-513.71C26.87,-560.59 38.05,-762.89 83,-802 196.39,-900.65 395.84,-860.61 479.43,-837.75"/>
<polygon fill="midnightblue" stroke="midnightblue" points="480.59,-841.06 489.27,-834.99 478.7,-834.32 480.59,-841.06"/>
</g>
<!-- Node20 -->
<g id="node20" class="node">
<title>Node20</title>
<g id="a_node20"><a xlink:href="util_8hpp.html#a8056dcad90ba9582ba25405a95c2f1e4" target="_top" xlink:title=" ">
<polygon fill="none" stroke="black" points="621.5,-342.5 621.5,-361.5 741.5,-361.5 741.5,-342.5 621.5,-342.5"/>
<text text-anchor="middle" x="681.5" y="-349.5" font-family="Helvetica,sans-Serif" font-size="10.00">removeLeadingZeros</text>
</a>
</g>
</g>
<!-- Node1&#45;&gt;Node20 -->
<g id="edge60" class="edge">
<title>Node1&#45;&gt;Node20</title>
<path fill="none" stroke="midnightblue" d="M27.81,-494.22C44.7,-446.23 126.19,-238 268,-238 268,-238 268,-238 392,-238 498.28,-238 612.14,-305.74 658.74,-336.79"/>
<polygon fill="midnightblue" stroke="midnightblue" points="656.9,-339.77 667.14,-342.48 660.82,-333.97 656.9,-339.77"/>
</g>
<!-- Node23 -->
<g id="node23" class="node">
<title>Node23</title>
<g id="a_node23"><a xlink:href="output_8hpp.html#a1f009ce0a12690c37c88f2adfe9d2e1e" target="_top" xlink:title="Prints an error message.">
<polygon fill="none" stroke="black" points="371,-76.5 371,-95.5 411,-95.5 411,-76.5 371,-76.5"/>
<text text-anchor="middle" x="391" y="-83.5" font-family="Helvetica,sans-Serif" font-size="10.00">error</text>
</a>
</g>
</g>
<!-- Node1&#45;&gt;Node23 -->
<g id="edge38" class="edge">
<title>Node1&#45;&gt;Node23</title>
<path fill="none" stroke="midnightblue" d="M24.4,-494.34C24.01,-439.23 25.07,-165.2 83,-111 159.81,-39.14 299.82,-62.95 360.57,-77.83"/>
<polygon fill="midnightblue" stroke="midnightblue" points="360.07,-81.32 370.62,-80.4 361.8,-74.53 360.07,-81.32"/>
</g>
<!-- Node28 -->
<g id="node28" class="node">
<title>Node28</title>
<g id="a_node28"><a xlink:href="division_8cpp.html#ab006d1ea81d0490f752bcadaee51b984" target="_top" xlink:title=" ">
<polygon fill="none" stroke="black" points="99.5,-570.5 99.5,-589.5 173.5,-589.5 173.5,-570.5 99.5,-570.5"/>
<text text-anchor="middle" x="136.5" y="-577.5" font-family="Helvetica,sans-Serif" font-size="10.00">getQuotient</text>
</a>
</g>
</g>
<!-- Node1&#45;&gt;Node28 -->
<g id="edge46" class="edge">
<title>Node1&#45;&gt;Node28</title>
<path fill="none" stroke="midnightblue" d="M32.23,-513.77C42.58,-526.27 62.09,-547.9 83,-561 86.14,-562.97 89.52,-564.77 92.98,-566.42"/>
<polygon fill="midnightblue" stroke="midnightblue" points="91.72,-569.68 102.29,-570.41 94.48,-563.25 91.72,-569.68"/>
</g>
<!-- Node29 -->
<g id="node29" class="node">
<title>Node29</title>
<g id="a_node29"><a xlink:href="division_8cpp.html#a8b6a82cb05abd6a1664e14df888f3cb7" target="_top" xlink:title=" ">
<polygon fill="none" stroke="black" points="93.5,-532.5 93.5,-551.5 179.5,-551.5 179.5,-532.5 93.5,-532.5"/>
<text text-anchor="middle" x="136.5" y="-539.5" font-family="Helvetica,sans-Serif" font-size="10.00">getRemainder</text>
</a>
</g>
</g>
<!-- Node1&#45;&gt;Node29 -->
<g id="edge49" class="edge">
<title>Node1&#45;&gt;Node29</title>
<path fill="none" stroke="midnightblue" d="M47.23,-511.78C61.86,-516.79 81.23,-523.42 98.1,-529.2"/>
<polygon fill="midnightblue" stroke="midnightblue" points="97.09,-532.55 107.68,-532.48 99.36,-525.93 97.09,-532.55"/>
</g>
<!-- Node32 -->
<g id="node32" class="node">
<title>Node32</title>
<g id="a_node32"><a xlink:href="util_8hpp.html#a93b9ba3fe803c8e3fa1b128f4e83924f" target="_top" xlink:title="Makes the given string wider by adding 2 spaces between each character.">
<polygon fill="none" stroke="black" points="483,-152.5 483,-171.5 555,-171.5 555,-152.5 483,-152.5"/>
<text text-anchor="middle" x="519" y="-159.5" font-family="Helvetica,sans-Serif" font-size="10.00">makeWider</text>
</a>
</g>
</g>
<!-- Node1&#45;&gt;Node32 -->
<g id="edge59" class="edge">
<title>Node1&#45;&gt;Node32</title>
<path fill="none" stroke="midnightblue" d="M24.74,-494.3C26.17,-445.57 35.18,-228.11 83,-186 139.74,-136.03 373.16,-149.47 472.7,-157.76"/>
<polygon fill="midnightblue" stroke="midnightblue" points="472.49,-161.25 482.75,-158.61 473.08,-154.28 472.49,-161.25"/>
</g>
<!-- Node33 -->
<g id="node33" class="node">
<title>Node33</title>
<g id="a_node33"><a xlink:href="divisionReport_8cpp.html#a37e4e7cb6fe42ae3131cdc071b038687" target="_top" xlink:title=" ">
<polygon fill="none" stroke="black" points="226,-114.5 226,-133.5 312,-133.5 312,-114.5 226,-114.5"/>
<text text-anchor="middle" x="269" y="-121.5" font-family="Helvetica,sans-Serif" font-size="10.00">reportDivision</text>
</a>
</g>
</g>
<!-- Node1&#45;&gt;Node33 -->
<g id="edge61" class="edge">
<title>Node1&#45;&gt;Node33</title>
<path fill="none" stroke="midnightblue" d="M24.6,-494.28C25.34,-442.31 31.55,-197.74 83,-148 117.56,-114.59 174.23,-111.85 215.76,-115.45"/>
<polygon fill="midnightblue" stroke="midnightblue" points="215.66,-118.96 225.97,-116.49 216.37,-112 215.66,-118.96"/>
</g>
<!-- Node34 -->
<g id="node34" class="node">
<title>Node34</title>
<g id="a_node34"><a xlink:href="divisionReport_8cpp.html#aaebd1f284f6703b7629aa18d21f7ccf2" target="_top" xlink:title=" ">
<polygon fill="none" stroke="black" points="83,-608.5 83,-627.5 190,-627.5 190,-608.5 83,-608.5"/>
<text text-anchor="middle" x="136.5" y="-615.5" font-family="Helvetica,sans-Serif" font-size="10.00">reportDivisionStep</text>
</a>
</g>
</g>
<!-- Node1&#45;&gt;Node34 -->
<g id="edge63" class="edge">
<title>Node1&#45;&gt;Node34</title>
<path fill="none" stroke="midnightblue" d="M27.89,-513.55C35.1,-532.52 53.7,-575.16 83,-599 85.15,-600.75 87.47,-602.34 89.9,-603.79"/>
<polygon fill="midnightblue" stroke="midnightblue" points="88.55,-607.04 99.05,-608.46 91.73,-600.8 88.55,-607.04"/>
</g>
<!-- Node3 -->
<g id="node3" class="node">
<title>Node3</title>
<g id="a_node3"><a xlink:href="absReport_8cpp.html#a7e44e3e84696a88d84e6d9e3331ea6a3" target="_top" xlink:title=" ">
<polygon fill="none" stroke="black" points="237,-930.5 237,-949.5 301,-949.5 301,-930.5 237,-930.5"/>
<text text-anchor="middle" x="269" y="-937.5" font-family="Helvetica,sans-Serif" font-size="10.00">reportAbs</text>
</a>
</g>
</g>
<!-- Node2&#45;&gt;Node3 -->
<g id="edge2" class="edge">
<title>Node2&#45;&gt;Node3</title>
<path fill="none" stroke="midnightblue" d="M153.5,-940C171.61,-940 201.8,-940 226.64,-940"/>
<polygon fill="midnightblue" stroke="midnightblue" points="226.91,-943.5 236.91,-940 226.91,-936.5 226.91,-943.5"/>
</g>
<!-- Node4&#45;&gt;Node5 -->
<g id="edge4" class="edge">
<title>Node4&#45;&gt;Node5</title>
<path fill="none" stroke="midnightblue" d="M143.57,-456.32C168.67,-417.6 268.76,-276 390,-276 390,-276 390,-276 520,-276 627.93,-276 660.01,-275.99 759,-319 789.46,-332.24 819.25,-356.98 837.12,-373.47"/>
<polygon fill="midnightblue" stroke="midnightblue" points="834.78,-376.08 844.45,-380.4 839.59,-370.99 834.78,-376.08"/>
</g>
<!-- Node6 -->
<g id="node6" class="node">
<title>Node6</title>
<g id="a_node6"><a xlink:href="addReport_8cpp.html#a790c309eb43b10e2fca286cee3a94ac1" target="_top" xlink:title=" ">
<polygon fill="none" stroke="black" points="486.5,-342.5 486.5,-361.5 551.5,-361.5 551.5,-342.5 486.5,-342.5"/>
<text text-anchor="middle" x="519" y="-349.5" font-family="Helvetica,sans-Serif" font-size="10.00">reportAdd</text>
</a>
</g>
</g>
<!-- Node4&#45;&gt;Node6 -->
<g id="edge5" class="edge">
<title>Node4&#45;&gt;Node6</title>
<path fill="none" stroke="midnightblue" d="M154.34,-460.95C210.73,-444.06 394,-389.15 476.77,-364.35"/>
<polygon fill="midnightblue" stroke="midnightblue" points="477.77,-367.71 486.35,-361.48 475.76,-361 477.77,-367.71"/>
</g>
<!-- Node9 -->
<g id="node9" class="node">
<title>Node9</title>
<g id="a_node9"><a xlink:href="namespaceformats.html#a296119cbd1b0c858739af6b363fb262a" target="_top" xlink:title="Set the text format to reverse.">
<polygon fill="none" stroke="black" points="470,-304.5 470,-323.5 568,-323.5 568,-304.5 470,-304.5"/>
<text text-anchor="middle" x="519" y="-311.5" font-family="Helvetica,sans-Serif" font-size="10.00">formats::reverse</text>
</a>
</g>
</g>
<!-- Node4&#45;&gt;Node9 -->
<g id="edge9" class="edge">
<title>Node4&#45;&gt;Node9</title>
<path fill="none" stroke="midnightblue" d="M151.31,-456.44C168.48,-444.71 198.85,-424.47 226,-409 278.67,-378.99 290.66,-367.67 348,-348 384.25,-335.56 426.49,-327.09 459.8,-321.71"/>
<polygon fill="midnightblue" stroke="midnightblue" points="460.5,-325.14 469.84,-320.14 459.42,-318.23 460.5,-325.14"/>
</g>
<!-- Node4&#45;&gt;Node11 -->
<g id="edge11" class="edge">
<title>Node4&#45;&gt;Node11</title>
<path fill="none" stroke="midnightblue" d="M154.12,-467.7C187.31,-471.83 262.81,-485.01 312,-523 335.42,-541.08 324.85,-560.58 348,-579 358.16,-587.09 555.86,-653.39 568,-658 595.07,-668.27 625.55,-680.5 647.95,-689.62"/>
<polygon fill="midnightblue" stroke="midnightblue" points="646.74,-692.91 657.33,-693.45 649.39,-686.43 646.74,-692.91"/>
</g>
<!-- Node4&#45;&gt;Node14 -->
<g id="edge15" class="edge">
<title>Node4&#45;&gt;Node14</title>
<path fill="none" stroke="midnightblue" d="M154.08,-464.7C164.67,-467.79 178.52,-474.04 190,-481 207.33,-491.51 209.16,-497.72 226,-509 234.72,-514.84 244.94,-520.7 253.11,-526.21"/>
<polygon fill="midnightblue" stroke="midnightblue" points="251.16,-529.12 261.28,-532.27 255.33,-523.5 251.16,-529.12"/>
</g>
<!-- Node6&#45;&gt;Node5 -->
<g id="edge6" class="edge">
<title>Node6&#45;&gt;Node5</title>
<path fill="none" stroke="midnightblue" d="M551.59,-342.68C597.97,-330.52 686.8,-313 759,-333 787.67,-340.94 816.38,-360.1 834.61,-374.02"/>
<polygon fill="midnightblue" stroke="midnightblue" points="832.65,-376.93 842.67,-380.36 836.98,-371.42 832.65,-376.93"/>
</g>
<!-- Node7 -->
<g id="node7" class="node">
<title>Node7</title>
<g id="a_node7"><a xlink:href="symbols_8hpp.html#a4c2486dd425b34a3a7b6f64db79add2c" target="_top" xlink:title="Create a subscript string from a normal string.">
<polygon fill="none" stroke="black" points="637,-456.5 637,-475.5 726,-475.5 726,-456.5 637,-456.5"/>
<text text-anchor="middle" x="681.5" y="-463.5" font-family="Helvetica,sans-Serif" font-size="10.00">makeSubscript</text>
</a>
</g>
</g>
<!-- Node6&#45;&gt;Node7 -->
<g id="edge7" class="edge">
<title>Node6&#45;&gt;Node7</title>
<path fill="none" stroke="midnightblue" d="M533.41,-361.52C561.07,-381.17 624.71,-426.37 658.49,-450.37"/>
<polygon fill="midnightblue" stroke="midnightblue" points="656.61,-453.32 666.79,-456.26 660.66,-447.62 656.61,-453.32"/>
</g>
<!-- Node8 -->
<g id="node8" class="node">
<title>Node8</title>
<g id="a_node8"><a xlink:href="util_8hpp.html#a2c093cfa77eddb403db19eaecf57fa6e" target="_top" xlink:title="Converts a Unicode character to UTF&#45;8 encoding.">
<polygon fill="none" stroke="black" points="812,-456.5 812,-475.5 898,-475.5 898,-456.5 812,-456.5"/>
<text text-anchor="middle" x="855" y="-463.5" font-family="Helvetica,sans-Serif" font-size="10.00">unicodeToUtf8</text>
</a>
</g>
</g>
<!-- Node7&#45;&gt;Node8 -->
<g id="edge8" class="edge">
<title>Node7&#45;&gt;Node8</title>
<path fill="none" stroke="midnightblue" d="M726.22,-466C749.23,-466 777.61,-466 801.77,-466"/>
<polygon fill="midnightblue" stroke="midnightblue" points="801.84,-469.5 811.84,-466 801.84,-462.5 801.84,-469.5"/>
</g>
<!-- Node10 -->
<g id="node10" class="node">
<title>Node10</title>
<g id="a_node10"><a xlink:href="colors_8cpp.html#aea0b5c095796ad31bd8aa86853337868" target="_top" xlink:title="Check if the output stream is a terminal.">
<polygon fill="none" stroke="black" points="648,-76.5 648,-95.5 715,-95.5 715,-76.5 648,-76.5"/>
<text text-anchor="middle" x="681.5" y="-83.5" font-family="Helvetica,sans-Serif" font-size="10.00">isTerminal</text>
</a>
</g>
</g>
<!-- Node9&#45;&gt;Node10 -->
<g id="edge10" class="edge">
<title>Node9&#45;&gt;Node10</title>
<path fill="none" stroke="midnightblue" d="M526.69,-304.49C551.11,-269.8 635.69,-149.66 667.9,-103.89"/>
<polygon fill="midnightblue" stroke="midnightblue" points="670.88,-105.74 673.78,-95.55 665.16,-101.71 670.88,-105.74"/>
</g>
<!-- Node11&#45;&gt;Node5 -->
<g id="edge12" class="edge">
<title>Node11&#45;&gt;Node5</title>
<path fill="none" stroke="midnightblue" d="M720.02,-695.02C734.28,-690.12 749.4,-682.32 759,-670 820.7,-590.8 748.52,-535.99 795,-447 803.65,-430.43 818.94,-415.87 831.79,-405.61"/>
<polygon fill="midnightblue" stroke="midnightblue" points="833.95,-408.36 839.78,-399.51 829.71,-402.8 833.95,-408.36"/>
</g>
<!-- Node12 -->
<g id="node12" class="node">
<title>Node12</title>
<g id="a_node12"><a xlink:href="util_8cpp.html#a8056dcad90ba9582ba25405a95c2f1e4" target="_top" xlink:title=" ">
<polygon fill="none" stroke="black" points="795,-693.5 795,-712.5 915,-712.5 915,-693.5 795,-693.5"/>
<text text-anchor="middle" x="855" y="-700.5" font-family="Helvetica,sans-Serif" font-size="10.00">removeLeadingZeros</text>
</a>
</g>
</g>
<!-- Node11&#45;&gt;Node12 -->
<g id="edge13" class="edge">
<title>Node11&#45;&gt;Node12</title>
<path fill="none" stroke="midnightblue" d="M720.14,-703C739.12,-703 762.75,-703 784.85,-703"/>
<polygon fill="midnightblue" stroke="midnightblue" points="784.88,-706.5 794.88,-703 784.88,-699.5 784.88,-706.5"/>
</g>
<!-- Node13 -->
<g id="node13" class="node">
<title>Node13</title>
<g id="a_node13"><a xlink:href="util_8hpp.html#a771e8f4ac1c095d4c0fef2c966cd69d7" target="_top" xlink:title="Splits a string into substrings based on a separator.">
<polygon fill="none" stroke="black" points="836,-792.5 836,-811.5 874,-811.5 874,-792.5 836,-792.5"/>
<text text-anchor="middle" x="855" y="-799.5" font-family="Helvetica,sans-Serif" font-size="10.00">split</text>
</a>
</g>
</g>
<!-- Node11&#45;&gt;Node13 -->
<g id="edge14" class="edge">
<title>Node11&#45;&gt;Node13</title>
<path fill="none" stroke="midnightblue" d="M715.04,-712.58C728.98,-717.27 745.2,-723.52 759,-731 787.73,-746.56 817.35,-770.11 835.71,-785.77"/>
<polygon fill="midnightblue" stroke="midnightblue" points="833.46,-788.45 843.31,-792.35 838.04,-783.16 833.46,-788.45"/>
</g>
<!-- Node14&#45;&gt;Node4 -->
<g id="edge16" class="edge">
<title>Node14&#45;&gt;Node4</title>
<path fill="none" stroke="midnightblue" d="M240.99,-536.15C235.93,-533.36 230.75,-530.18 226,-527 209.16,-515.72 207.33,-509.51 190,-499 178.96,-492.31 165.73,-486.27 155.32,-480.78"/>
<polygon fill="midnightblue" stroke="midnightblue" points="156.78,-477.59 146.36,-475.68 153.32,-483.67 156.78,-477.59"/>
</g>
<!-- Node14&#45;&gt;Node5 -->
<g id="edge22" class="edge">
<title>Node14&#45;&gt;Node5</title>
<path fill="none" stroke="midnightblue" d="M274.88,-532.24C285.31,-512.51 311.8,-467.96 348,-447 497.14,-360.64 712.55,-372.75 806.83,-383.44"/>
<polygon fill="midnightblue" stroke="midnightblue" points="806.57,-386.94 816.91,-384.63 807.39,-379.98 806.57,-386.94"/>
</g>
<!-- Node14&#45;&gt;Node9 -->
<g id="edge27" class="edge">
<title>Node14&#45;&gt;Node9</title>
<path fill="none" stroke="midnightblue" d="M274.08,-532.37C284.06,-509.68 311.56,-451.88 348,-414 393.12,-367.09 412.32,-363.14 470,-333 473.71,-331.06 477.66,-329.2 481.64,-327.45"/>
<polygon fill="midnightblue" stroke="midnightblue" points="483.02,-330.67 490.9,-323.58 480.32,-324.21 483.02,-330.67"/>
</g>
<!-- Node14&#45;&gt;Node11 -->
<g id="edge28" class="edge">
<title>Node14&#45;&gt;Node11</title>
<path fill="none" stroke="midnightblue" d="M278.06,-551.69C291.17,-566.82 318.61,-595.97 348,-612 441.52,-663 565.71,-687.07 632.73,-697.01"/>
<polygon fill="midnightblue" stroke="midnightblue" points="632.59,-700.52 642.98,-698.48 633.58,-693.59 632.59,-700.52"/>
</g>
<!-- Node14&#45;&gt;Node15 -->
<g id="edge17" class="edge">
<title>Node14&#45;&gt;Node15</title>
<path fill="none" stroke="midnightblue" d="M277.19,-551.64C285.61,-562.94 299.92,-582.25 312,-599 328.23,-621.5 330.31,-628.63 348,-650 399.44,-712.15 468.11,-778.94 500.14,-809.29"/>
<polygon fill="midnightblue" stroke="midnightblue" points="497.79,-811.88 507.46,-816.2 502.59,-806.79 497.79,-811.88"/>
</g>
<!-- Node19 -->
<g id="node19" class="node">
<title>Node19</title>
<g id="a_node19"><a xlink:href="subtractReport_8cpp.html#ad21f3d209885b1c419ff73800bb3b33b" target="_top" xlink:title=" ">
<polygon fill="none" stroke="black" points="476,-456.5 476,-475.5 562,-475.5 562,-456.5 476,-456.5"/>
<text text-anchor="middle" x="519" y="-463.5" font-family="Helvetica,sans-Serif" font-size="10.00">reportSubtract</text>
</a>
</g>
</g>
<!-- Node14&#45;&gt;Node19 -->
<g id="edge23" class="edge">
<title>Node14&#45;&gt;Node19</title>
<path fill="none" stroke="midnightblue" d="M297.12,-537.12C329.99,-530.85 386.84,-518.85 434,-503 453.01,-496.61 473.64,-487.56 489.69,-480.01"/>
<polygon fill="midnightblue" stroke="midnightblue" points="491.53,-483.01 499.04,-475.54 488.51,-476.69 491.53,-483.01"/>
</g>
<!-- Node22 -->
<g id="node22" class="node">
<title>Node22</title>
<g id="a_node22"><a xlink:href="subtract_8cpp.html#ac94acf58b23f19e226b9263fa3a2b0da" target="_top" xlink:title="Subtracts one string representation of a number from another string representation of a number.">
<polygon fill="none" stroke="black" points="363,-456.5 363,-475.5 419,-475.5 419,-456.5 363,-456.5"/>
<text text-anchor="middle" x="391" y="-463.5" font-family="Helvetica,sans-Serif" font-size="10.00">subtract</text>
</a>
</g>
</g>
<!-- Node14&#45;&gt;Node22 -->
<g id="edge29" class="edge">
<title>Node14&#45;&gt;Node22</title>
<path fill="none" stroke="midnightblue" d="M285.2,-532.37C305.67,-519.41 342.29,-496.21 366.37,-480.96"/>
<polygon fill="midnightblue" stroke="midnightblue" points="368.35,-483.85 374.93,-475.55 364.6,-477.94 368.35,-483.85"/>
</g>
<!-- Node15&#45;&gt;Node11 -->
<g id="edge21" class="edge">
<title>Node15&#45;&gt;Node11</title>
<path fill="none" stroke="midnightblue" d="M546.87,-816.27C554.36,-812.63 562.05,-807.91 568,-802 593.09,-777.05 577.55,-754.49 604,-731 612.34,-723.59 622.8,-718.09 633.28,-714.03"/>
<polygon fill="midnightblue" stroke="midnightblue" points="634.57,-717.29 642.86,-710.68 632.26,-710.68 634.57,-717.29"/>
</g>
<!-- Node16 -->
<g id="node16" class="node">
<title>Node16</title>
<g id="a_node16"><a xlink:href="comparisonReport_8cpp.html#a9837660fa80278748f7f9bc397f5fba4" target="_top" xlink:title=" ">
<polygon fill="none" stroke="black" points="607,-816.5 607,-835.5 756,-835.5 756,-816.5 607,-816.5"/>
<text text-anchor="middle" x="681.5" y="-823.5" font-family="Helvetica,sans-Serif" font-size="10.00">reportComparisonAtInteger</text>
</a>
</g>
</g>
<!-- Node15&#45;&gt;Node16 -->
<g id="edge18" class="edge">
<title>Node15&#45;&gt;Node16</title>
<path fill="none" stroke="midnightblue" d="M548.69,-826C562.34,-826 579.43,-826 596.74,-826"/>
<polygon fill="midnightblue" stroke="midnightblue" points="596.93,-829.5 606.93,-826 596.93,-822.5 596.93,-829.5"/>
</g>
<!-- Node17 -->
<g id="node17" class="node">
<title>Node17</title>
<g id="a_node17"><a xlink:href="comparisonReport_8cpp.html#adc6ac398c16b4d30ab55b0ec5ceef9f3" target="_top" xlink:title=" ">
<polygon fill="none" stroke="black" points="611.5,-778.5 611.5,-797.5 751.5,-797.5 751.5,-778.5 611.5,-778.5"/>
<text text-anchor="middle" x="681.5" y="-785.5" font-family="Helvetica,sans-Serif" font-size="10.00">reportComparisonByDigit</text>
</a>
</g>
</g>
<!-- Node15&#45;&gt;Node17 -->
<g id="edge19" class="edge">
<title>Node15&#45;&gt;Node17</title>
<path fill="none" stroke="midnightblue" d="M548.69,-819.21C571.32,-813.85 603.43,-806.25 630.29,-799.89"/>
<polygon fill="midnightblue" stroke="midnightblue" points="631.37,-803.23 640.3,-797.52 629.76,-796.42 631.37,-803.23"/>
</g>
<!-- Node18 -->
<g id="node18" class="node">
<title>Node18</title>
<g id="a_node18"><a xlink:href="comparisonReport_8cpp.html#a8bdddfcaa5a1d0339df5705ec6ff2aff" target="_top" xlink:title=" ">
<polygon fill="none" stroke="black" points="604,-740.5 604,-759.5 759,-759.5 759,-740.5 604,-740.5"/>
<text text-anchor="middle" x="681.5" y="-747.5" font-family="Helvetica,sans-Serif" font-size="10.00">reportComparisonByPolarity</text>
</a>
</g>
</g>
<!-- Node15&#45;&gt;Node18 -->
<g id="edge20" class="edge">
<title>Node15&#45;&gt;Node18</title>
<path fill="none" stroke="midnightblue" d="M542.23,-816.47C550.6,-812.48 560.02,-807.49 568,-802 585.88,-789.69 584.88,-779.27 604,-769 608.3,-766.69 612.88,-764.66 617.58,-762.87"/>
<polygon fill="midnightblue" stroke="midnightblue" points="619.03,-766.08 627.36,-759.53 616.76,-759.45 619.03,-766.08"/>
</g>
<!-- Node19&#45;&gt;Node7 -->
<g id="edge24" class="edge">
<title>Node19&#45;&gt;Node7</title>
<path fill="none" stroke="midnightblue" d="M562.17,-466C581.96,-466 605.78,-466 626.85,-466"/>
<polygon fill="midnightblue" stroke="midnightblue" points="626.93,-469.5 636.93,-466 626.93,-462.5 626.93,-469.5"/>
</g>
<!-- Node19&#45;&gt;Node20 -->
<g id="edge25" class="edge">
<title>Node19&#45;&gt;Node20</title>
<path fill="none" stroke="midnightblue" d="M533.41,-456.48C561.07,-436.83 624.71,-391.63 658.49,-367.63"/>
<polygon fill="midnightblue" stroke="midnightblue" points="660.66,-370.38 666.79,-361.74 656.61,-364.68 660.66,-370.38"/>
</g>
<!-- Node21 -->
<g id="node21" class="node">
<title>Node21</title>
<g id="a_node21"><a xlink:href="util_8hpp.html#ac87bf229222a2a4f32b8626281c6c282" target="_top" xlink:title=" ">
<polygon fill="none" stroke="black" points="622,-513.5 622,-532.5 741,-532.5 741,-513.5 622,-513.5"/>
<text text-anchor="middle" x="681.5" y="-520.5" font-family="Helvetica,sans-Serif" font-size="10.00">replaceLeadingZeros</text>
</a>
</g>
</g>
<!-- Node19&#45;&gt;Node21 -->
<g id="edge26" class="edge">
<title>Node19&#45;&gt;Node21</title>
<path fill="none" stroke="midnightblue" d="M546.86,-475.54C573.48,-484.99 614.44,-499.54 644,-510.04"/>
<polygon fill="midnightblue" stroke="midnightblue" points="642.95,-513.38 653.55,-513.43 645.3,-506.78 642.95,-513.38"/>
</g>
<!-- Node22&#45;&gt;Node4 -->
<g id="edge30" class="edge">
<title>Node22&#45;&gt;Node4</title>
<path fill="none" stroke="midnightblue" d="M362.68,-466C313.97,-466 212.73,-466 164.36,-466"/>
<polygon fill="midnightblue" stroke="midnightblue" points="164.07,-462.5 154.07,-466 164.07,-469.5 164.07,-462.5"/>
</g>
<!-- Node22&#45;&gt;Node5 -->
<g id="edge32" class="edge">
<title>Node22&#45;&gt;Node5</title>
<path fill="none" stroke="midnightblue" d="M419.3,-458.7C434.21,-454.88 453.04,-450.32 470,-447 474.13,-446.19 705.36,-411.98 806.96,-396.95"/>
<polygon fill="midnightblue" stroke="midnightblue" points="807.58,-400.4 816.96,-395.48 806.56,-393.48 807.58,-400.4"/>
</g>
<!-- Node22&#45;&gt;Node9 -->
<g id="edge34" class="edge">
<title>Node22&#45;&gt;Node9</title>
<path fill="none" stroke="midnightblue" d="M395.22,-456.17C403.63,-431.89 428.54,-368.54 470,-333 471.96,-331.32 474.1,-329.77 476.33,-328.35"/>
<polygon fill="midnightblue" stroke="midnightblue" points="478.2,-331.32 485.35,-323.5 474.88,-325.16 478.2,-331.32"/>
</g>
<!-- Node22&#45;&gt;Node11 -->
<g id="edge35" class="edge">
<title>Node22&#45;&gt;Node11</title>
<path fill="none" stroke="midnightblue" d="M405.01,-475.8C434.45,-498.06 508.27,-554.37 568,-604 601.89,-632.16 640.18,-666.39 662.21,-686.33"/>
<polygon fill="midnightblue" stroke="midnightblue" points="660.06,-689.11 669.82,-693.24 664.76,-683.92 660.06,-689.11"/>
</g>
<!-- Node22&#45;&gt;Node15 -->
<g id="edge31" class="edge">
<title>Node22&#45;&gt;Node15</title>
<path fill="none" stroke="midnightblue" d="M398.45,-475.83C407.41,-489.82 423.69,-516.52 434,-541 474.5,-637.18 503.45,-759.34 513.81,-806.35"/>
<polygon fill="midnightblue" stroke="midnightblue" points="510.45,-807.36 515.99,-816.39 517.29,-805.87 510.45,-807.36"/>
</g>
<!-- Node22&#45;&gt;Node19 -->
<g id="edge33" class="edge">
<title>Node22&#45;&gt;Node19</title>
<path fill="none" stroke="midnightblue" d="M419.03,-466C432.55,-466 449.4,-466 465.35,-466"/>
<polygon fill="midnightblue" stroke="midnightblue" points="465.65,-469.5 475.65,-466 465.65,-462.5 465.65,-469.5"/>
</g>
<!-- Node22&#45;&gt;Node22 -->
<g id="edge36" class="edge">
<title>Node22&#45;&gt;Node22</title>
<path fill="none" stroke="midnightblue" d="M372.2,-475.76C363.05,-484.57 369.32,-494 391,-494 404.89,-494 412.46,-490.13 413.69,-485.03"/>
<polygon fill="midnightblue" stroke="midnightblue" points="416.9,-483.62 409.8,-475.76 410.44,-486.33 416.9,-483.62"/>
</g>
<!-- Node24 -->
<g id="node24" class="node">
<title>Node24</title>
<g id="a_node24"><a xlink:href="namespaceformats.html#a02e589d39c7fb74bc6095fffeb1480fb" target="_top" xlink:title="Set the text format to bold.">
<polygon fill="none" stroke="black" points="478,-38.5 478,-57.5 560,-57.5 560,-38.5 478,-38.5"/>
<text text-anchor="middle" x="519" y="-45.5" font-family="Helvetica,sans-Serif" font-size="10.00">formats::bold</text>
</a>
</g>
</g>
<!-- Node23&#45;&gt;Node24 -->
<g id="edge39" class="edge">
<title>Node23&#45;&gt;Node24</title>
<path fill="none" stroke="midnightblue" d="M411.14,-80.23C428.45,-75.01 454.54,-67.14 476.6,-60.49"/>
<polygon fill="midnightblue" stroke="midnightblue" points="477.85,-63.77 486.41,-57.53 475.83,-57.06 477.85,-63.77"/>
</g>
<!-- Node25 -->
<g id="node25" class="node">
<title>Node25</title>
<g id="a_node25"><a xlink:href="namespacecolors.html#ae360f74f6cd6e0fc3de2c245aba4d500" target="_top" xlink:title="Set the text color to red.">
<polygon fill="none" stroke="black" points="485,-0.5 485,-19.5 553,-19.5 553,-0.5 485,-0.5"/>
<text text-anchor="middle" x="519" y="-7.5" font-family="Helvetica,sans-Serif" font-size="10.00">colors::red</text>
</a>
</g>
</g>
<!-- Node23&#45;&gt;Node25 -->
<g id="edge41" class="edge">
<title>Node23&#45;&gt;Node25</title>
<path fill="none" stroke="midnightblue" d="M403.27,-76.33C417.9,-64.12 444.59,-43.01 470,-29 473.48,-27.08 477.19,-25.26 480.95,-23.56"/>
<polygon fill="midnightblue" stroke="midnightblue" points="482.46,-26.72 490.29,-19.58 479.72,-20.28 482.46,-26.72"/>
</g>
<!-- Node26 -->
<g id="node26" class="node">
<title>Node26</title>
<g id="a_node26"><a xlink:href="colors_8hpp.html#a4661597771a019efa3f0f92cfb0c6e02" target="_top" xlink:title="Reset the text color and format to the default values.">
<polygon fill="none" stroke="black" points="498.5,-114.5 498.5,-133.5 539.5,-133.5 539.5,-114.5 498.5,-114.5"/>
<text text-anchor="middle" x="519" y="-121.5" font-family="Helvetica,sans-Serif" font-size="10.00">reset</text>
</a>
</g>
</g>
<!-- Node23&#45;&gt;Node26 -->
<g id="edge43" class="edge">
<title>Node23&#45;&gt;Node26</title>
<path fill="none" stroke="midnightblue" d="M411.14,-91.77C431.74,-97.98 464.76,-107.94 488.65,-115.15"/>
<polygon fill="midnightblue" stroke="midnightblue" points="487.68,-118.51 498.27,-118.05 489.7,-111.81 487.68,-118.51"/>
</g>
<!-- Node27 -->
<g id="node27" class="node">
<title>Node27</title>
<g id="a_node27"><a xlink:href="format_8hpp.html#aec7a78e0e53305094ec38dc8bd038de8" target="_top" xlink:title="Formats a string using a variable number of arguments.">
<polygon fill="none" stroke="black" points="490.5,-76.5 490.5,-95.5 547.5,-95.5 547.5,-76.5 490.5,-76.5"/>
<text text-anchor="middle" x="519" y="-83.5" font-family="Helvetica,sans-Serif" font-size="10.00">vFormat</text>
</a>
</g>
</g>
<!-- Node23&#45;&gt;Node27 -->
<g id="edge45" class="edge">
<title>Node23&#45;&gt;Node27</title>
<path fill="none" stroke="midnightblue" d="M411.14,-86C429.41,-86 457.44,-86 480.22,-86"/>
<polygon fill="midnightblue" stroke="midnightblue" points="480.25,-89.5 490.25,-86 480.25,-82.5 480.25,-89.5"/>
</g>
<!-- Node24&#45;&gt;Node10 -->
<g id="edge40" class="edge">
<title>Node24&#45;&gt;Node10</title>
<path fill="none" stroke="midnightblue" d="M560.09,-57.49C583.81,-63.11 613.84,-70.22 637.98,-75.93"/>
<polygon fill="midnightblue" stroke="midnightblue" points="637.39,-79.39 647.93,-78.29 639,-72.58 637.39,-79.39"/>
</g>
<!-- Node25&#45;&gt;Node10 -->
<g id="edge42" class="edge">
<title>Node25&#45;&gt;Node10</title>
<path fill="none" stroke="midnightblue" d="M545.59,-19.63C552.89,-22.51 560.81,-25.76 568,-29 597.87,-42.45 631.26,-59.65 653.84,-71.62"/>
<polygon fill="midnightblue" stroke="midnightblue" points="652.35,-74.79 662.82,-76.4 655.64,-68.61 652.35,-74.79"/>
</g>
<!-- Node26&#45;&gt;Node10 -->
<g id="edge44" class="edge">
<title>Node26&#45;&gt;Node10</title>
<path fill="none" stroke="midnightblue" d="M539.68,-119.34C564,-113.58 606.07,-103.62 637.91,-96.08"/>
<polygon fill="midnightblue" stroke="midnightblue" points="638.93,-99.44 647.85,-93.73 637.31,-92.63 638.93,-99.44"/>
</g>
<!-- Node28&#45;&gt;Node14 -->
<g id="edge48" class="edge">
<title>Node28&#45;&gt;Node14</title>
<path fill="none" stroke="midnightblue" d="M170.43,-570.41C188.86,-565.04 211.9,-558.34 230.96,-552.79"/>
<polygon fill="midnightblue" stroke="midnightblue" points="232.18,-556.08 240.8,-549.92 230.22,-549.36 232.18,-556.08"/>
</g>
<!-- Node28&#45;&gt;Node15 -->
<g id="edge47" class="edge">
<title>Node28&#45;&gt;Node15</title>
<path fill="none" stroke="midnightblue" d="M171.11,-589.52C177.64,-592.09 184.24,-595.23 190,-599 209.46,-611.75 208.11,-622.13 226,-637 316.47,-712.19 438.33,-782.39 491.43,-811.65"/>
<polygon fill="midnightblue" stroke="midnightblue" points="489.78,-814.74 500.23,-816.47 493.14,-808.6 489.78,-814.74"/>
</g>
<!-- Node29&#45;&gt;Node14 -->
<g id="edge57" class="edge">
<title>Node29&#45;&gt;Node14</title>
<path fill="none" stroke="midnightblue" d="M179.51,-542C196.01,-542 214.8,-542 230.8,-542"/>
<polygon fill="midnightblue" stroke="midnightblue" points="230.86,-545.5 240.86,-542 230.86,-538.5 230.86,-545.5"/>
</g>
<!-- Node30 -->
<g id="node30" class="node">
<title>Node30</title>
<g id="a_node30"><a xlink:href="basicArithm_8hpp.html#ac99d69ea51545fe30da4a36290f3fedc" target="_top" xlink:title="Multiplies two string representations of numbers.">
<polygon fill="none" stroke="black" points="240.5,-608.5 240.5,-627.5 297.5,-627.5 297.5,-608.5 240.5,-608.5"/>
<text text-anchor="middle" x="269" y="-615.5" font-family="Helvetica,sans-Serif" font-size="10.00">multiply</text>
</a>
</g>
</g>
<!-- Node29&#45;&gt;Node30 -->
<g id="edge50" class="edge">
<title>Node29&#45;&gt;Node30</title>
<path fill="none" stroke="midnightblue" d="M168.39,-551.53C175.65,-554.22 183.24,-557.4 190,-561 211.53,-572.46 233.78,-589.3 248.97,-601.71"/>
<polygon fill="midnightblue" stroke="midnightblue" points="247.12,-604.72 257.05,-608.42 251.6,-599.34 247.12,-604.72"/>
</g>
<!-- Node30&#45;&gt;Node5 -->
<g id="edge51" class="edge">
<title>Node30&#45;&gt;Node5</title>
<path fill="none" stroke="midnightblue" d="M297.54,-622.45C378.44,-633.88 618.53,-655.91 759,-542 794.07,-513.56 770.16,-484.71 795,-447 805.31,-431.34 820.62,-416.72 833.05,-406.2"/>
<polygon fill="midnightblue" stroke="midnightblue" points="835.58,-408.66 841.11,-399.62 831.15,-403.24 835.58,-408.66"/>
</g>
<!-- Node30&#45;&gt;Node11 -->
<g id="edge56" class="edge">
<title>Node30&#45;&gt;Node11</title>
<path fill="none" stroke="midnightblue" d="M277.46,-627.56C290.13,-643.05 317.48,-673.37 348,-688 440.93,-732.54 565.75,-722.3 632.93,-711.99"/>
<polygon fill="midnightblue" stroke="midnightblue" points="633.49,-715.45 642.81,-710.41 632.38,-708.54 633.49,-715.45"/>
</g>
<!-- Node31 -->
<g id="node31" class="node">
<title>Node31</title>
<g id="a_node31"><a xlink:href="multiplyReport_8cpp.html#a3e493cd7dde79f0eaa41c2eddd4cb895" target="_top" xlink:title=" ">
<polygon fill="none" stroke="black" points="348,-550.5 348,-569.5 434,-569.5 434,-550.5 348,-550.5"/>
<text text-anchor="middle" x="391" y="-557.5" font-family="Helvetica,sans-Serif" font-size="10.00">reportMultiply</text>
</a>
</g>
</g>
<!-- Node30&#45;&gt;Node31 -->
<g id="edge52" class="edge">
<title>Node30&#45;&gt;Node31</title>
<path fill="none" stroke="midnightblue" d="M289.82,-608.42C309.18,-599.06 338.89,-584.7 360.93,-574.05"/>
<polygon fill="midnightblue" stroke="midnightblue" points="362.67,-577.09 370.16,-569.59 359.63,-570.79 362.67,-577.09"/>
</g>
<!-- Node31&#45;&gt;Node7 -->
<g id="edge53" class="edge">
<title>Node31&#45;&gt;Node7</title>
<path fill="none" stroke="midnightblue" d="M420.51,-550.43C435.27,-545.49 453.59,-539.39 470,-534 529.46,-514.49 598.5,-492.27 640.84,-478.69"/>
<polygon fill="midnightblue" stroke="midnightblue" points="642.04,-481.98 650.49,-475.6 639.9,-475.32 642.04,-481.98"/>
</g>
<!-- Node31&#45;&gt;Node21 -->
<g id="edge55" class="edge">
<title>Node31&#45;&gt;Node21</title>
<path fill="none" stroke="midnightblue" d="M434.26,-554.58C480.89,-548.6 556.64,-538.88 611.83,-531.81"/>
<polygon fill="midnightblue" stroke="midnightblue" points="612.41,-535.26 621.88,-530.52 611.52,-528.32 612.41,-535.26"/>
</g>
<!-- Node31&#45;&gt;Node32 -->
<g id="edge54" class="edge">
<title>Node31&#45;&gt;Node32</title>
<path fill="none" stroke="midnightblue" d="M401.31,-550.39C411.08,-539.72 426.09,-521.54 434,-503 470.81,-416.7 445.98,-385.69 470,-295 480.99,-253.5 499.37,-206.62 509.91,-181.09"/>
<polygon fill="midnightblue" stroke="midnightblue" points="513.16,-182.4 513.78,-171.82 506.7,-179.7 513.16,-182.4"/>
</g>
<!-- Node33&#45;&gt;Node32 -->
<g id="edge62" class="edge">
<title>Node33&#45;&gt;Node32</title>
<path fill="none" stroke="midnightblue" d="M312.17,-129.94C345.31,-134.66 392.64,-141.53 434,-148 446.55,-149.96 460.14,-152.19 472.66,-154.27"/>
<polygon fill="midnightblue" stroke="midnightblue" points="472.44,-157.79 482.88,-155.99 473.59,-150.88 472.44,-157.79"/>
</g>
<!-- Node34&#45;&gt;Node13 -->
<g id="edge65" class="edge">
<title>Node34&#45;&gt;Node13</title>
<path fill="none" stroke="midnightblue" d="M141.52,-627.64C161.2,-673.13 251.99,-864 390,-864 390,-864 390,-864 520,-864 626.56,-864 655.81,-871.59 759,-845 783.63,-838.65 809.84,-826.32 828.48,-816.48"/>
<polygon fill="midnightblue" stroke="midnightblue" points="830.36,-819.45 837.49,-811.61 827.03,-813.29 830.36,-819.45"/>
</g>
<!-- Node34&#45;&gt;Node14 -->
<g id="edge66" class="edge">
<title>Node34&#45;&gt;Node14</title>
<path fill="none" stroke="midnightblue" d="M168.39,-608.47C175.65,-605.78 183.24,-602.6 190,-599 211.53,-587.54 233.78,-570.7 248.97,-558.29"/>
<polygon fill="midnightblue" stroke="midnightblue" points="251.6,-560.66 257.05,-551.58 247.12,-555.28 251.6,-560.66"/>
</g>
<!-- Node34&#45;&gt;Node30 -->
<g id="edge64" class="edge">
<title>Node34&#45;&gt;Node30</title>
<path fill="none" stroke="midnightblue" d="M190.2,-618C203.58,-618 217.68,-618 230.15,-618"/>
<polygon fill="midnightblue" stroke="midnightblue" points="230.2,-621.5 240.2,-618 230.2,-614.5 230.2,-621.5"/>
</g>
</g>
</svg>
