<?xml version="1.0" encoding="UTF-8" standalone="no"?>
<!DOCTYPE svg PUBLIC "-//W3C//DTD SVG 1.1//EN"
 "http://www.w3.org/Graphics/SVG/1.1/DTD/svg11.dtd">
<!-- Generated by graphviz version 2.43.0 (0)
 -->
<!-- Title: divide Pages: 1 -->
<!--zoomable 981 -->
<svg id="main" version="1.1" xmlns="http://www.w3.org/2000/svg" xmlns:xlink="http://www.w3.org/1999/xlink" xml:space="preserve" onload="init(evt)">
<style type="text/css"><![CDATA[
.edge:hover path { stroke: red; }
.edge:hover polygon { stroke: red; fill: red; }
]]></style>
<script type="text/javascript"><![CDATA[
var edges = document.getElementsByTagName('g');
if (edges && edges.length) {
  for (var i=0;i<edges.length;i++) {
    if (edges[i].id.substr(0,4)=='edge') {
      edges[i].setAttribute('class','edge');
    }
  }
}
]]></script>
        <defs>
                <circle id="rim" cx="0" cy="0" r="7"/>
                <circle id="rim2" cx="0" cy="0" r="3.5"/>
                <g id="zoomPlus">
                        <use xlink:href="#rim" fill="#404040">
                                <set attributeName="fill" to="#808080" begin="zoomplus.mouseover" end="zoomplus.mouseout"/>
                        </use>
                        <path d="M-4,0h8M0,-4v8" fill="none" stroke="white" stroke-width="1.5" pointer-events="none"/>
                </g>
                <g id="zoomMin">
                        <use xlink:href="#rim" fill="#404040">
                                <set attributeName="fill" to="#808080" begin="zoomminus.mouseover" end="zoomminus.mouseout"/>
                        </use>
                        <path d="M-4,0h8" fill="none" stroke="white" stroke-width="1.5" pointer-events="none"/>
                </g>
                <g id="dirArrow">
                        <path fill="none" stroke="white" stroke-width="1.5" d="M0,-3.0v7 M-2.5,-0.5L0,-3.0L2.5,-0.5"/>
                </g>
               <g id="resetDef">
                       <use xlink:href="#rim2" fill="#404040">
                               <set attributeName="fill" to="#808080" begin="reset.mouseover" end="reset.mouseout"/>
                       </use>
               </g>
        </defs>

<script type="text/javascript">
var viewWidth = 915;
var viewHeight = 981;
var sectionId = 'dynsection-10';
</script>
<script xlink:href="svgpan.js"/>
<svg id="graph" class="graph">
<g id="viewport">
<title>divide</title>
<!-- Node1 -->
<g id="node1" class="node">
<title>Node1</title>
<g id="a_node1"><a xlink:title="Divides a string representation of a number by another string representation of a number.">
<polygon fill="#bfbfbf" stroke="black" points="0,-555.56 0,-574.56 47,-574.56 47,-555.56 0,-555.56"/>
<text text-anchor="middle" x="23.5" y="-562.56" font-family="Helvetica,sans-Serif" font-size="10.00">divide</text>
</a>
</g>
</g>
<!-- Node2 -->
<g id="node2" class="node">
<title>Node2</title>
<g id="a_node2"><a xlink:href="basicArithm_8hpp.html#a0bf76a4df6c2748fbcb5b33b3e8166b3" target="_top" xlink:title="Calculates the absolute value of a string representation of a number.">
<polygon fill="none" stroke="black" points="130,-953.56 130,-972.56 164,-972.56 164,-953.56 130,-953.56"/>
<text text-anchor="middle" x="147" y="-960.56" font-family="Helvetica,sans-Serif" font-size="10.00">abs</text>
</a>
</g>
</g>
<!-- Node1&#45;&gt;Node2 -->
<g id="edge1" class="edge">
<title>Node1&#45;&gt;Node2</title>
<path fill="none" stroke="midnightblue" d="M24.73,-574.71C26.2,-627.46 35.63,-880.59 83,-939.06 92.07,-950.25 106.98,-956.23 120.02,-959.42"/>
<polygon fill="midnightblue" stroke="midnightblue" points="119.44,-962.87 129.93,-961.43 120.83,-956.01 119.44,-962.87"/>
</g>
<!-- Node4 -->
<g id="node4" class="node">
<title>Node4</title>
<g id="a_node4"><a xlink:href="basicArithm_8hpp.html#acf222f0bfc4ca97fbdc6db7fe808a9ee" target="_top" xlink:title="Adds two string representations of numbers, and performs with the column method.">
<polygon fill="none" stroke="black" points="129.5,-536.56 129.5,-555.56 164.5,-555.56 164.5,-536.56 129.5,-536.56"/>
<text text-anchor="middle" x="147" y="-543.56" font-family="Helvetica,sans-Serif" font-size="10.00">add</text>
</a>
</g>
</g>
<!-- Node1&#45;&gt;Node4 -->
<g id="edge3" class="edge">
<title>Node1&#45;&gt;Node4</title>
<path fill="none" stroke="midnightblue" d="M47.07,-561.53C67.5,-558.33 97.62,-553.62 119.25,-550.24"/>
<polygon fill="midnightblue" stroke="midnightblue" points="120.06,-553.66 129.4,-548.65 118.98,-546.74 120.06,-553.66"/>
</g>
<!-- Node5 -->
<g id="node5" class="node">
<title>Node5</title>
<g id="a_node5"><a xlink:href="util_8hpp.html#a183c024df291889f90106e47bb64fe0b" target="_top" xlink:title="Checks if a given string is a zero string.">
<polygon fill="none" stroke="black" points="809,-611.56 809,-630.56 885,-630.56 885,-611.56 809,-611.56"/>
<text text-anchor="middle" x="847" y="-618.56" font-family="Helvetica,sans-Serif" font-size="10.00">isZeroString</text>
</a>
</g>
</g>
<!-- Node1&#45;&gt;Node5 -->
<g id="edge49" class="edge">
<title>Node1&#45;&gt;Node5</title>
<path fill="none" stroke="midnightblue" d="M23.98,-574.58C22.5,-610.77 21.82,-741.63 83,-820.06 146.21,-901.08 186.24,-925.06 289,-925.06 289,-925.06 289,-925.06 512,-925.06 618.56,-925.06 667.09,-971.74 751,-906.06 836.13,-839.41 845.68,-693.83 846.24,-640.85"/>
<polygon fill="midnightblue" stroke="midnightblue" points="849.74,-640.75 846.24,-630.75 842.74,-640.75 849.74,-640.75"/>
</g>
<!-- Node11 -->
<g id="node11" class="node">
<title>Node11</title>
<g id="a_node11"><a xlink:href="util_8hpp.html#a7e7fdd236a1593ed0124a3a7dd05946d" target="_top" xlink:title=" ">
<polygon fill="none" stroke="black" points="635,-535.56 635,-554.56 712,-554.56 712,-535.56 635,-535.56"/>
<text text-anchor="middle" x="673.5" y="-542.56" font-family="Helvetica,sans-Serif" font-size="10.00">splitNumber</text>
</a>
</g>
</g>
<!-- Node1&#45;&gt;Node11 -->
<g id="edge64" class="edge">
<title>Node1&#45;&gt;Node11</title>
<path fill="none" stroke="midnightblue" d="M36.82,-555.31C48.2,-546.74 65.9,-534.5 83,-527.06 278.63,-441.91 355.23,-413.14 560,-473.06 569.83,-475.94 619.7,-509.15 649.64,-529.45"/>
<polygon fill="midnightblue" stroke="midnightblue" points="647.99,-532.56 658.23,-535.28 651.93,-526.77 647.99,-532.56"/>
</g>
<!-- Node14 -->
<g id="node14" class="node">
<title>Node14</title>
<g id="a_node14"><a xlink:href="basicArithm_8hpp.html#a08faec0b8e863df19e3f978758166482" target="_top" xlink:title="Subtracts one string representation of a number from another string representation of a number.">
<polygon fill="none" stroke="black" points="262,-574.56 262,-593.56 318,-593.56 318,-574.56 262,-574.56"/>
<text text-anchor="middle" x="290" y="-581.56" font-family="Helvetica,sans-Serif" font-size="10.00">subtract</text>
</a>
</g>
</g>
<!-- Node1&#45;&gt;Node14 -->
<g id="edge65" class="edge">
<title>Node1&#45;&gt;Node14</title>
<path fill="none" stroke="midnightblue" d="M47.05,-566.68C92.59,-569.95 195.92,-577.37 251.67,-581.38"/>
<polygon fill="midnightblue" stroke="midnightblue" points="251.6,-584.88 261.83,-582.11 252.11,-577.9 251.6,-584.88"/>
</g>
<!-- Node15 -->
<g id="node15" class="node">
<title>Node15</title>
<g id="a_node15"><a xlink:href="basicArithm_8hpp.html#aabb709fcb471467879352bf51bb0030a" target="_top" xlink:title="Compares two string representations of numbers.">
<polygon fill="none" stroke="black" points="481.5,-792.56 481.5,-811.56 540.5,-811.56 540.5,-792.56 481.5,-792.56"/>
<text text-anchor="middle" x="511" y="-799.56" font-family="Helvetica,sans-Serif" font-size="10.00">compare</text>
</a>
</g>
</g>
<!-- Node1&#45;&gt;Node15 -->
<g id="edge37" class="edge">
<title>Node1&#45;&gt;Node15</title>
<path fill="none" stroke="midnightblue" d="M29.57,-574.78C50.29,-613.41 132.93,-756.73 247,-815.06 318.11,-851.42 347.23,-844.27 426,-831.06 444.1,-828.02 463.51,-821.55 479.11,-815.48"/>
<polygon fill="midnightblue" stroke="midnightblue" points="480.79,-818.58 488.76,-811.6 478.18,-812.09 480.79,-818.58"/>
</g>
<!-- Node20 -->
<g id="node20" class="node">
<title>Node20</title>
<g id="a_node20"><a xlink:href="util_8hpp.html#a8056dcad90ba9582ba25405a95c2f1e4" target="_top" xlink:title=" ">
<polygon fill="none" stroke="black" points="613.5,-839.56 613.5,-858.56 733.5,-858.56 733.5,-839.56 613.5,-839.56"/>
<text text-anchor="middle" x="673.5" y="-846.56" font-family="Helvetica,sans-Serif" font-size="10.00">removeLeadingZeros</text>
</a>
</g>
</g>
<!-- Node1&#45;&gt;Node20 -->
<g id="edge51" class="edge">
<title>Node1&#45;&gt;Node20</title>
<path fill="none" stroke="midnightblue" d="M25.61,-574.74C29.26,-602.86 43,-685.97 83,-740.06 149.88,-830.49 176.52,-887.06 289,-887.06 289,-887.06 289,-887.06 398.5,-887.06 476.26,-887.06 565.27,-871.86 620.19,-860.68"/>
<polygon fill="midnightblue" stroke="midnightblue" points="620.95,-864.1 630.04,-858.65 619.54,-857.24 620.95,-864.1"/>
</g>
<!-- Node23 -->
<g id="node23" class="node">
<title>Node23</title>
<g id="a_node23"><a xlink:href="output_8hpp.html#a1f009ce0a12690c37c88f2adfe9d2e1e" target="_top" xlink:title="Prints an error message.">
<polygon fill="none" stroke="black" points="377.5,-155.56 377.5,-174.56 417.5,-174.56 417.5,-155.56 377.5,-155.56"/>
<text text-anchor="middle" x="397.5" y="-162.56" font-family="Helvetica,sans-Serif" font-size="10.00">error</text>
</a>
</g>
</g>
<!-- Node1&#45;&gt;Node23 -->
<g id="edge38" class="edge">
<title>Node1&#45;&gt;Node23</title>
<path fill="none" stroke="midnightblue" d="M24.46,-555.55C24.76,-521.64 29.81,-404.73 83,-331.06 154.56,-231.93 303.65,-186.72 367,-171.42"/>
<polygon fill="midnightblue" stroke="midnightblue" points="368.16,-174.74 377.1,-169.05 366.57,-167.92 368.16,-174.74"/>
</g>
<!-- Node28 -->
<g id="node28" class="node">
<title>Node28</title>
<g id="a_node28"><a xlink:href="division_8cpp.html#afe2f9d37fbb1090dfb3af32476b43fca" target="_top" xlink:title=" ">
<polygon fill="none" stroke="black" points="83,-612.56 83,-631.56 211,-631.56 211,-612.56 83,-612.56"/>
<text text-anchor="middle" x="147" y="-619.56" font-family="Helvetica,sans-Serif" font-size="10.00">getQuotientRemainder</text>
</a>
</g>
</g>
<!-- Node1&#45;&gt;Node28 -->
<g id="edge46" class="edge">
<title>Node1&#45;&gt;Node28</title>
<path fill="none" stroke="midnightblue" d="M40.05,-574.68C51.65,-581.64 68.01,-591.02 83,-598.06 91.24,-601.92 100.28,-605.66 108.88,-608.98"/>
<polygon fill="midnightblue" stroke="midnightblue" points="107.75,-612.29 118.34,-612.54 110.21,-605.74 107.75,-612.29"/>
</g>
<!-- Node29 -->
<g id="node29" class="node">
<title>Node29</title>
<g id="a_node29"><a xlink:href="util_8hpp.html#a93b9ba3fe803c8e3fa1b128f4e83924f" target="_top" xlink:title="Makes the given string wider by adding 2 spaces between each character.">
<polygon fill="none" stroke="black" points="637.5,-41.56 637.5,-60.56 709.5,-60.56 709.5,-41.56 637.5,-41.56"/>
<text text-anchor="middle" x="673.5" y="-48.56" font-family="Helvetica,sans-Serif" font-size="10.00">makeWider</text>
</a>
</g>
</g>
<!-- Node1&#45;&gt;Node29 -->
<g id="edge50" class="edge">
<title>Node1&#45;&gt;Node29</title>
<path fill="none" stroke="midnightblue" d="M25.26,-555.55C29.26,-506.73 49.15,-284.19 83,-225.06 142.54,-121.05 169.15,-51.06 289,-51.06 289,-51.06 289,-51.06 398.5,-51.06 479,-51.06 572.8,-51.06 627.14,-51.06"/>
<polygon fill="midnightblue" stroke="midnightblue" points="627.47,-54.56 637.47,-51.06 627.47,-47.56 627.47,-54.56"/>
</g>
<!-- Node30 -->
<g id="node30" class="node">
<title>Node30</title>
<g id="a_node30"><a xlink:href="divisionReport_8cpp.html#a37e4e7cb6fe42ae3131cdc071b038687" target="_top" xlink:title=" ">
<polygon fill="none" stroke="black" points="247,-3.56 247,-22.56 333,-22.56 333,-3.56 247,-3.56"/>
<text text-anchor="middle" x="290" y="-10.56" font-family="Helvetica,sans-Serif" font-size="10.00">reportDivision</text>
</a>
</g>
</g>
<!-- Node1&#45;&gt;Node30 -->
<g id="edge52" class="edge">
<title>Node1&#45;&gt;Node30</title>
<path fill="none" stroke="midnightblue" d="M24.86,-555.32C27.51,-486.53 44.88,-75.4 83,-37.06 122.5,2.66 190.08,2.97 237.01,-2.9"/>
<polygon fill="midnightblue" stroke="midnightblue" points="236.61,-6.38 246.99,-4.28 237.56,0.55 236.61,-6.38"/>
</g>
<!-- Node31 -->
<g id="node31" class="node">
<title>Node31</title>
<g id="a_node31"><a xlink:href="divisionReport_8cpp.html#aaebd1f284f6703b7629aa18d21f7ccf2" target="_top" xlink:title=" ">
<polygon fill="none" stroke="black" points="93.5,-340.56 93.5,-359.56 200.5,-359.56 200.5,-340.56 93.5,-340.56"/>
<text text-anchor="middle" x="147" y="-347.56" font-family="Helvetica,sans-Serif" font-size="10.00">reportDivisionStep</text>
</a>
</g>
</g>
<!-- Node1&#45;&gt;Node31 -->
<g id="edge54" class="edge">
<title>Node1&#45;&gt;Node31</title>
<path fill="none" stroke="midnightblue" d="M25.98,-555.18C30.45,-527.98 45.85,-450.63 83,-399.06 92.87,-385.36 107.62,-373.59 120.37,-365.03"/>
<polygon fill="midnightblue" stroke="midnightblue" points="122.26,-367.98 128.79,-359.63 118.48,-362.08 122.26,-367.98"/>
</g>
<!-- Node3 -->
<g id="node3" class="node">
<title>Node3</title>
<g id="a_node3"><a xlink:href="absReport_8cpp.html#a7e44e3e84696a88d84e6d9e3331ea6a3" target="_top" xlink:title=" ">
<polygon fill="none" stroke="black" points="258,-953.56 258,-972.56 322,-972.56 322,-953.56 258,-953.56"/>
<text text-anchor="middle" x="290" y="-960.56" font-family="Helvetica,sans-Serif" font-size="10.00">reportAbs</text>
</a>
</g>
</g>
<!-- Node2&#45;&gt;Node3 -->
<g id="edge2" class="edge">
<title>Node2&#45;&gt;Node3</title>
<path fill="none" stroke="midnightblue" d="M164.17,-963.06C184.38,-963.06 219.69,-963.06 247.61,-963.06"/>
<polygon fill="midnightblue" stroke="midnightblue" points="247.9,-966.56 257.9,-963.06 247.9,-959.56 247.9,-966.56"/>
</g>
<!-- Node4&#45;&gt;Node5 -->
<g id="edge4" class="edge">
<title>Node4&#45;&gt;Node5</title>
<path fill="none" stroke="midnightblue" d="M160.61,-555.85C193.12,-580.57 283.24,-645.82 369,-678.06 527.92,-737.81 589.68,-732.99 751,-680.06 779.54,-670.69 808.27,-651.11 826.55,-637.07"/>
<polygon fill="midnightblue" stroke="midnightblue" points="828.95,-639.63 834.63,-630.69 824.61,-634.13 828.95,-639.63"/>
</g>
<!-- Node6 -->
<g id="node6" class="node">
<title>Node6</title>
<g id="a_node6"><a xlink:href="addReport_8cpp.html#a790c309eb43b10e2fca286cee3a94ac1" target="_top" xlink:title=" ">
<polygon fill="none" stroke="black" points="478.5,-345.56 478.5,-364.56 543.5,-364.56 543.5,-345.56 478.5,-345.56"/>
<text text-anchor="middle" x="511" y="-352.56" font-family="Helvetica,sans-Serif" font-size="10.00">reportAdd</text>
</a>
</g>
</g>
<!-- Node4&#45;&gt;Node6 -->
<g id="edge5" class="edge">
<title>Node4&#45;&gt;Node6</title>
<path fill="none" stroke="midnightblue" d="M154.16,-536.32C168.08,-515.11 204.11,-464.42 247,-437.06 317.27,-392.23 413.74,-370.44 468.18,-361.09"/>
<polygon fill="midnightblue" stroke="midnightblue" points="468.87,-364.52 478.17,-359.43 467.73,-357.62 468.87,-364.52"/>
</g>
<!-- Node9 -->
<g id="node9" class="node">
<title>Node9</title>
<g id="a_node9"><a xlink:href="namespaceformats.html#a296119cbd1b0c858739af6b363fb262a" target="_top" xlink:title="Set the text format to reverse.">
<polygon fill="none" stroke="black" points="462,-497.56 462,-516.56 560,-516.56 560,-497.56 462,-497.56"/>
<text text-anchor="middle" x="511" y="-504.56" font-family="Helvetica,sans-Serif" font-size="10.00">formats::reverse</text>
</a>
</g>
</g>
<!-- Node4&#45;&gt;Node9 -->
<g id="edge9" class="edge">
<title>Node4&#45;&gt;Node9</title>
<path fill="none" stroke="midnightblue" d="M164.97,-544.23C215.61,-538.77 367.33,-522.43 451.73,-513.34"/>
<polygon fill="midnightblue" stroke="midnightblue" points="452.11,-516.82 461.68,-512.26 451.36,-509.86 452.11,-516.82"/>
</g>
<!-- Node4&#45;&gt;Node11 -->
<g id="edge11" class="edge">
<title>Node4&#45;&gt;Node11</title>
<path fill="none" stroke="midnightblue" d="M164.7,-539.3C221.02,-517.41 408.95,-451.98 560,-488.06 593.54,-496.07 628.39,-515.8 650.25,-529.79"/>
<polygon fill="midnightblue" stroke="midnightblue" points="648.5,-532.83 658.78,-535.39 652.34,-526.98 648.5,-532.83"/>
</g>
<!-- Node4&#45;&gt;Node14 -->
<g id="edge15" class="edge">
<title>Node4&#45;&gt;Node14</title>
<path fill="none" stroke="midnightblue" d="M164.73,-546.01C188.61,-549.87 232.76,-561.46 261.5,-571.17"/>
<polygon fill="midnightblue" stroke="midnightblue" points="260.37,-574.48 270.96,-574.5 262.69,-567.88 260.37,-574.48"/>
</g>
<!-- Node6&#45;&gt;Node5 -->
<g id="edge6" class="edge">
<title>Node6&#45;&gt;Node5</title>
<path fill="none" stroke="midnightblue" d="M543.61,-361.29C549.45,-363.42 555.21,-366.26 560,-370.06 584.67,-389.61 573.93,-408.61 596,-431.06 652.65,-488.67 688.23,-475.18 751,-526.06 769.07,-540.71 770.63,-547.53 787,-564.06 800.68,-577.87 816.55,-593.16 828.38,-604.42"/>
<polygon fill="midnightblue" stroke="midnightblue" points="826.18,-607.17 835.85,-611.51 831,-602.09 826.18,-607.17"/>
</g>
<!-- Node7 -->
<g id="node7" class="node">
<title>Node7</title>
<g id="a_node7"><a xlink:href="symbols_8hpp.html#a4c2486dd425b34a3a7b6f64db79add2c" target="_top" xlink:title="Create a subscript string from a normal string.">
<polygon fill="none" stroke="black" points="629,-345.56 629,-364.56 718,-364.56 718,-345.56 629,-345.56"/>
<text text-anchor="middle" x="673.5" y="-352.56" font-family="Helvetica,sans-Serif" font-size="10.00">makeSubscript</text>
</a>
</g>
</g>
<!-- Node6&#45;&gt;Node7 -->
<g id="edge7" class="edge">
<title>Node6&#45;&gt;Node7</title>
<path fill="none" stroke="midnightblue" d="M543.71,-355.06C565.07,-355.06 593.77,-355.06 618.66,-355.06"/>
<polygon fill="midnightblue" stroke="midnightblue" points="618.71,-358.56 628.71,-355.06 618.71,-351.56 618.71,-358.56"/>
</g>
<!-- Node8 -->
<g id="node8" class="node">
<title>Node8</title>
<g id="a_node8"><a xlink:href="util_8hpp.html#a2c093cfa77eddb403db19eaecf57fa6e" target="_top" xlink:title="Converts a Unicode character to UTF&#45;8 encoding.">
<polygon fill="none" stroke="black" points="804,-345.56 804,-364.56 890,-364.56 890,-345.56 804,-345.56"/>
<text text-anchor="middle" x="847" y="-352.56" font-family="Helvetica,sans-Serif" font-size="10.00">unicodeToUtf8</text>
</a>
</g>
</g>
<!-- Node7&#45;&gt;Node8 -->
<g id="edge8" class="edge">
<title>Node7&#45;&gt;Node8</title>
<path fill="none" stroke="midnightblue" d="M718.22,-355.06C741.23,-355.06 769.61,-355.06 793.77,-355.06"/>
<polygon fill="midnightblue" stroke="midnightblue" points="793.84,-358.56 803.84,-355.06 793.84,-351.56 793.84,-358.56"/>
</g>
<!-- Node10 -->
<g id="node10" class="node">
<title>Node10</title>
<g id="a_node10"><a xlink:href="colors_8cpp.html#aea0b5c095796ad31bd8aa86853337868" target="_top" xlink:title="Check if the output stream is a terminal.">
<polygon fill="none" stroke="black" points="640,-155.56 640,-174.56 707,-174.56 707,-155.56 640,-155.56"/>
<text text-anchor="middle" x="673.5" y="-162.56" font-family="Helvetica,sans-Serif" font-size="10.00">isTerminal</text>
</a>
</g>
</g>
<!-- Node9&#45;&gt;Node10 -->
<g id="edge10" class="edge">
<title>Node9&#45;&gt;Node10</title>
<path fill="none" stroke="midnightblue" d="M516.46,-497.55C538.28,-451.06 633.94,-247.22 663.66,-183.9"/>
<polygon fill="midnightblue" stroke="midnightblue" points="666.91,-185.22 667.99,-174.68 660.57,-182.24 666.91,-185.22"/>
</g>
<!-- Node11&#45;&gt;Node5 -->
<g id="edge12" class="edge">
<title>Node11&#45;&gt;Node5</title>
<path fill="none" stroke="midnightblue" d="M696.22,-554.68C726.25,-567.99 780.6,-592.08 814.92,-607.29"/>
<polygon fill="midnightblue" stroke="midnightblue" points="813.9,-610.66 824.46,-611.51 816.73,-604.26 813.9,-610.66"/>
</g>
<!-- Node12 -->
<g id="node12" class="node">
<title>Node12</title>
<g id="a_node12"><a xlink:href="util_8cpp.html#a8056dcad90ba9582ba25405a95c2f1e4" target="_top" xlink:title=" ">
<polygon fill="none" stroke="black" points="787,-535.56 787,-554.56 907,-554.56 907,-535.56 787,-535.56"/>
<text text-anchor="middle" x="847" y="-542.56" font-family="Helvetica,sans-Serif" font-size="10.00">removeLeadingZeros</text>
</a>
</g>
</g>
<!-- Node11&#45;&gt;Node12 -->
<g id="edge13" class="edge">
<title>Node11&#45;&gt;Node12</title>
<path fill="none" stroke="midnightblue" d="M712.14,-545.06C731.12,-545.06 754.75,-545.06 776.85,-545.06"/>
<polygon fill="midnightblue" stroke="midnightblue" points="776.88,-548.56 786.88,-545.06 776.88,-541.56 776.88,-548.56"/>
</g>
<!-- Node13 -->
<g id="node13" class="node">
<title>Node13</title>
<g id="a_node13"><a xlink:href="util_8hpp.html#a771e8f4ac1c095d4c0fef2c966cd69d7" target="_top" xlink:title="Splits a string into substrings based on a separator.">
<polygon fill="none" stroke="black" points="828,-459.56 828,-478.56 866,-478.56 866,-459.56 828,-459.56"/>
<text text-anchor="middle" x="847" y="-466.56" font-family="Helvetica,sans-Serif" font-size="10.00">split</text>
</a>
</g>
</g>
<!-- Node11&#45;&gt;Node13 -->
<g id="edge14" class="edge">
<title>Node11&#45;&gt;Node13</title>
<path fill="none" stroke="midnightblue" d="M696.22,-535.43C727.31,-521.65 784.5,-496.31 818.5,-481.24"/>
<polygon fill="midnightblue" stroke="midnightblue" points="820.12,-484.35 827.85,-477.1 817.29,-477.95 820.12,-484.35"/>
</g>
<!-- Node14&#45;&gt;Node4 -->
<g id="edge16" class="edge">
<title>Node14&#45;&gt;Node4</title>
<path fill="none" stroke="midnightblue" d="M261.92,-582.21C236.68,-577.16 199.27,-567.06 174.28,-558.54"/>
<polygon fill="midnightblue" stroke="midnightblue" points="175.32,-555.19 164.73,-555.12 172.97,-561.78 175.32,-555.19"/>
</g>
<!-- Node14&#45;&gt;Node5 -->
<g id="edge22" class="edge">
<title>Node14&#45;&gt;Node5</title>
<path fill="none" stroke="midnightblue" d="M297.57,-593.67C309.51,-610.17 336.56,-643.37 369,-656.06 523.97,-716.65 728.61,-660.94 810.19,-633.87"/>
<polygon fill="midnightblue" stroke="midnightblue" points="811.39,-637.16 819.75,-630.65 809.15,-630.53 811.39,-637.16"/>
</g>
<!-- Node14&#45;&gt;Node9 -->
<g id="edge27" class="edge">
<title>Node14&#45;&gt;Node9</title>
<path fill="none" stroke="midnightblue" d="M318.29,-574.46C357.33,-560.74 429.23,-535.46 473.02,-520.06"/>
<polygon fill="midnightblue" stroke="midnightblue" points="474.43,-523.27 482.71,-516.65 472.11,-516.67 474.43,-523.27"/>
</g>
<!-- Node14&#45;&gt;Node11 -->
<g id="edge28" class="edge">
<title>Node14&#45;&gt;Node11</title>
<path fill="none" stroke="midnightblue" d="M300.44,-593.95C314.08,-607.45 340.75,-630.97 369,-640.06 393.12,-647.82 401.03,-644.31 426,-640.06 510.03,-625.75 601.98,-582.14 646.05,-559.32"/>
<polygon fill="midnightblue" stroke="midnightblue" points="647.73,-562.4 654.96,-554.65 644.48,-556.2 647.73,-562.4"/>
</g>
<!-- Node14&#45;&gt;Node15 -->
<g id="edge17" class="edge">
<title>Node14&#45;&gt;Node15</title>
<path fill="none" stroke="midnightblue" d="M295.07,-593.64C305.02,-616.22 332.46,-673.69 369,-711.06 401.9,-744.7 449.41,-772.12 480,-787.77"/>
<polygon fill="midnightblue" stroke="midnightblue" points="478.79,-791.08 489.3,-792.43 481.93,-784.82 478.79,-791.08"/>
</g>
<!-- Node19 -->
<g id="node19" class="node">
<title>Node19</title>
<g id="a_node19"><a xlink:href="subtractReport_8cpp.html#ad21f3d209885b1c419ff73800bb3b33b" target="_top" xlink:title=" ">
<polygon fill="none" stroke="black" points="468,-535.56 468,-554.56 554,-554.56 554,-535.56 468,-535.56"/>
<text text-anchor="middle" x="511" y="-542.56" font-family="Helvetica,sans-Serif" font-size="10.00">reportSubtract</text>
</a>
</g>
</g>
<!-- Node14&#45;&gt;Node19 -->
<g id="edge23" class="edge">
<title>Node14&#45;&gt;Node19</title>
<path fill="none" stroke="midnightblue" d="M318.29,-579.2C353.08,-573 413.95,-562.16 457.77,-554.36"/>
<polygon fill="midnightblue" stroke="midnightblue" points="458.45,-557.79 467.69,-552.59 457.23,-550.9 458.45,-557.79"/>
</g>
<!-- Node22 -->
<g id="node22" class="node">
<title>Node22</title>
<g id="a_node22"><a xlink:href="subtract_8cpp.html#ac94acf58b23f19e226b9263fa3a2b0da" target="_top" xlink:title="Subtracts one string representation of a number from another string representation of a number.">
<polygon fill="none" stroke="black" points="369.5,-593.56 369.5,-612.56 425.5,-612.56 425.5,-593.56 369.5,-593.56"/>
<text text-anchor="middle" x="397.5" y="-600.56" font-family="Helvetica,sans-Serif" font-size="10.00">subtract</text>
</a>
</g>
</g>
<!-- Node14&#45;&gt;Node22 -->
<g id="edge29" class="edge">
<title>Node14&#45;&gt;Node22</title>
<path fill="none" stroke="midnightblue" d="M318.17,-588.95C330.72,-591.21 345.82,-593.93 359.4,-596.38"/>
<polygon fill="midnightblue" stroke="midnightblue" points="358.96,-599.85 369.42,-598.18 360.2,-592.96 358.96,-599.85"/>
</g>
<!-- Node15&#45;&gt;Node11 -->
<g id="edge21" class="edge">
<title>Node15&#45;&gt;Node11</title>
<path fill="none" stroke="midnightblue" d="M518.1,-792.3C541.98,-754.05 629.43,-614.03 661.02,-563.44"/>
<polygon fill="midnightblue" stroke="midnightblue" points="664.07,-565.16 666.4,-554.83 658.13,-561.46 664.07,-565.16"/>
</g>
<!-- Node16 -->
<g id="node16" class="node">
<title>Node16</title>
<g id="a_node16"><a xlink:href="comparisonReport_8cpp.html#a9837660fa80278748f7f9bc397f5fba4" target="_top" xlink:title=" ">
<polygon fill="none" stroke="black" points="599,-877.56 599,-896.56 748,-896.56 748,-877.56 599,-877.56"/>
<text text-anchor="middle" x="673.5" y="-884.56" font-family="Helvetica,sans-Serif" font-size="10.00">reportComparisonAtInteger</text>
</a>
</g>
</g>
<!-- Node15&#45;&gt;Node16 -->
<g id="edge18" class="edge">
<title>Node15&#45;&gt;Node16</title>
<path fill="none" stroke="midnightblue" d="M521.4,-811.7C536.01,-826.13 565.68,-853.23 596,-868.06 600.92,-870.46 606.17,-872.58 611.52,-874.44"/>
<polygon fill="midnightblue" stroke="midnightblue" points="610.64,-877.83 621.23,-877.52 612.76,-871.16 610.64,-877.83"/>
</g>
<!-- Node17 -->
<g id="node17" class="node">
<title>Node17</title>
<g id="a_node17"><a xlink:href="comparisonReport_8cpp.html#adc6ac398c16b4d30ab55b0ec5ceef9f3" target="_top" xlink:title=" ">
<polygon fill="none" stroke="black" points="603.5,-801.56 603.5,-820.56 743.5,-820.56 743.5,-801.56 603.5,-801.56"/>
<text text-anchor="middle" x="673.5" y="-808.56" font-family="Helvetica,sans-Serif" font-size="10.00">reportComparisonByDigit</text>
</a>
</g>
</g>
<!-- Node15&#45;&gt;Node17 -->
<g id="edge19" class="edge">
<title>Node15&#45;&gt;Node17</title>
<path fill="none" stroke="midnightblue" d="M540.69,-803.67C555.52,-804.5 574.42,-805.56 593.25,-806.61"/>
<polygon fill="midnightblue" stroke="midnightblue" points="593.19,-810.12 603.37,-807.18 593.58,-803.13 593.19,-810.12"/>
</g>
<!-- Node18 -->
<g id="node18" class="node">
<title>Node18</title>
<g id="a_node18"><a xlink:href="comparisonReport_8cpp.html#a8bdddfcaa5a1d0339df5705ec6ff2aff" target="_top" xlink:title=" ">
<polygon fill="none" stroke="black" points="596,-763.56 596,-782.56 751,-782.56 751,-763.56 596,-763.56"/>
<text text-anchor="middle" x="673.5" y="-770.56" font-family="Helvetica,sans-Serif" font-size="10.00">reportComparisonByPolarity</text>
</a>
</g>
</g>
<!-- Node15&#45;&gt;Node18 -->
<g id="edge20" class="edge">
<title>Node15&#45;&gt;Node18</title>
<path fill="none" stroke="midnightblue" d="M540.69,-796.87C559.87,-793.41 585.85,-788.72 609.67,-784.41"/>
<polygon fill="midnightblue" stroke="midnightblue" points="610.51,-787.82 619.73,-782.59 609.26,-780.93 610.51,-787.82"/>
</g>
<!-- Node19&#45;&gt;Node7 -->
<g id="edge24" class="edge">
<title>Node19&#45;&gt;Node7</title>
<path fill="none" stroke="midnightblue" d="M547.51,-535.5C552.18,-533.03 556.54,-529.93 560,-526.06 600.8,-480.39 557.16,-440.4 596,-393.06 604.77,-382.37 617.3,-374.43 629.68,-368.65"/>
<polygon fill="midnightblue" stroke="midnightblue" points="631.24,-371.79 639.06,-364.64 628.49,-365.35 631.24,-371.79"/>
</g>
<!-- Node19&#45;&gt;Node20 -->
<g id="edge25" class="edge">
<title>Node19&#45;&gt;Node20</title>
<path fill="none" stroke="midnightblue" d="M513.55,-554.82C520.96,-600.18 554.09,-789.92 596,-830.06 598.47,-832.42 601.19,-834.51 604.08,-836.35"/>
<polygon fill="midnightblue" stroke="midnightblue" points="602.73,-839.59 613.21,-841.14 605.99,-833.39 602.73,-839.59"/>
</g>
<!-- Node21 -->
<g id="node21" class="node">
<title>Node21</title>
<g id="a_node21"><a xlink:href="util_8hpp.html#ac87bf229222a2a4f32b8626281c6c282" target="_top" xlink:title=" ">
<polygon fill="none" stroke="black" points="614,-402.56 614,-421.56 733,-421.56 733,-402.56 614,-402.56"/>
<text text-anchor="middle" x="673.5" y="-409.56" font-family="Helvetica,sans-Serif" font-size="10.00">replaceLeadingZeros</text>
</a>
</g>
</g>
<!-- Node19&#45;&gt;Node21 -->
<g id="edge26" class="edge">
<title>Node19&#45;&gt;Node21</title>
<path fill="none" stroke="midnightblue" d="M541.65,-535.56C547.95,-532.93 554.39,-529.77 560,-526.06 601.31,-498.73 639.6,-454.24 659.07,-429.7"/>
<polygon fill="midnightblue" stroke="midnightblue" points="661.97,-431.67 665.36,-421.63 656.45,-427.36 661.97,-431.67"/>
</g>
<!-- Node22&#45;&gt;Node4 -->
<g id="edge30" class="edge">
<title>Node22&#45;&gt;Node4</title>
<path fill="none" stroke="midnightblue" d="M384.18,-593.43C371.94,-584.43 352.26,-571.46 333,-565.06 278.99,-547.11 211.65,-544.87 174.94,-545.22"/>
<polygon fill="midnightblue" stroke="midnightblue" points="174.52,-541.72 164.58,-545.39 174.64,-548.72 174.52,-541.72"/>
</g>
<!-- Node22&#45;&gt;Node5 -->
<g id="edge32" class="edge">
<title>Node22&#45;&gt;Node5</title>
<path fill="none" stroke="midnightblue" d="M425.82,-604.16C499.9,-607.14 705.27,-615.4 798.67,-619.15"/>
<polygon fill="midnightblue" stroke="midnightblue" points="798.55,-622.65 808.69,-619.56 798.84,-615.66 798.55,-622.65"/>
</g>
<!-- Node22&#45;&gt;Node9 -->
<g id="edge34" class="edge">
<title>Node22&#45;&gt;Node9</title>
<path fill="none" stroke="midnightblue" d="M404.14,-593.45C413.99,-577.42 435.8,-545.12 462,-526.06 464.49,-524.24 467.18,-522.58 469.97,-521.04"/>
<polygon fill="midnightblue" stroke="midnightblue" points="471.62,-524.13 479.09,-516.62 468.56,-517.84 471.62,-524.13"/>
</g>
<!-- Node22&#45;&gt;Node11 -->
<g id="edge35" class="edge">
<title>Node22&#45;&gt;Node11</title>
<path fill="none" stroke="midnightblue" d="M425.77,-597.28C472.25,-587.45 567.37,-567.31 624.97,-555.12"/>
<polygon fill="midnightblue" stroke="midnightblue" points="625.86,-558.51 634.92,-553.01 624.41,-551.66 625.86,-558.51"/>
</g>
<!-- Node22&#45;&gt;Node15 -->
<g id="edge31" class="edge">
<title>Node22&#45;&gt;Node15</title>
<path fill="none" stroke="midnightblue" d="M403.88,-612.66C421.32,-643.78 476.52,-742.31 499.65,-783.58"/>
<polygon fill="midnightblue" stroke="midnightblue" points="496.73,-785.54 504.68,-792.56 502.84,-782.12 496.73,-785.54"/>
</g>
<!-- Node22&#45;&gt;Node19 -->
<g id="edge33" class="edge">
<title>Node22&#45;&gt;Node19</title>
<path fill="none" stroke="midnightblue" d="M415.95,-593.55C428.67,-586.65 446.34,-577.16 462,-569.06 468.23,-565.84 474.94,-562.43 481.32,-559.24"/>
<polygon fill="midnightblue" stroke="midnightblue" points="482.93,-562.34 490.32,-554.74 479.81,-556.08 482.93,-562.34"/>
</g>
<!-- Node22&#45;&gt;Node22 -->
<g id="edge36" class="edge">
<title>Node22&#45;&gt;Node22</title>
<path fill="none" stroke="midnightblue" d="M381.16,-612.82C373.21,-621.62 378.66,-631.06 397.5,-631.06 409.27,-631.06 415.82,-627.37 417.13,-622.46"/>
<polygon fill="midnightblue" stroke="midnightblue" points="420.38,-621.15 413.84,-612.82 413.76,-623.41 420.38,-621.15"/>
</g>
<!-- Node24 -->
<g id="node24" class="node">
<title>Node24</title>
<g id="a_node24"><a xlink:href="namespaceformats.html#a02e589d39c7fb74bc6095fffeb1480fb" target="_top" xlink:title="Set the text format to bold.">
<polygon fill="none" stroke="black" points="470,-193.56 470,-212.56 552,-212.56 552,-193.56 470,-193.56"/>
<text text-anchor="middle" x="511" y="-200.56" font-family="Helvetica,sans-Serif" font-size="10.00">formats::bold</text>
</a>
</g>
</g>
<!-- Node23&#45;&gt;Node24 -->
<g id="edge39" class="edge">
<title>Node23&#45;&gt;Node24</title>
<path fill="none" stroke="midnightblue" d="M417.67,-171.59C432.66,-176.7 453.96,-183.96 472.33,-190.22"/>
<polygon fill="midnightblue" stroke="midnightblue" points="471.3,-193.57 481.9,-193.48 473.56,-186.94 471.3,-193.57"/>
</g>
<!-- Node25 -->
<g id="node25" class="node">
<title>Node25</title>
<g id="a_node25"><a xlink:href="namespacecolors.html#ae360f74f6cd6e0fc3de2c245aba4d500" target="_top" xlink:title="Set the text color to red.">
<polygon fill="none" stroke="black" points="477,-117.56 477,-136.56 545,-136.56 545,-117.56 477,-117.56"/>
<text text-anchor="middle" x="511" y="-124.56" font-family="Helvetica,sans-Serif" font-size="10.00">colors::red</text>
</a>
</g>
</g>
<!-- Node23&#45;&gt;Node25 -->
<g id="edge41" class="edge">
<title>Node23&#45;&gt;Node25</title>
<path fill="none" stroke="midnightblue" d="M417.67,-158.53C432.66,-153.42 453.96,-146.16 472.33,-139.9"/>
<polygon fill="midnightblue" stroke="midnightblue" points="473.56,-143.17 481.9,-136.64 471.3,-136.55 473.56,-143.17"/>
</g>
<!-- Node26 -->
<g id="node26" class="node">
<title>Node26</title>
<g id="a_node26"><a xlink:href="colors_8hpp.html#a4661597771a019efa3f0f92cfb0c6e02" target="_top" xlink:title="Reset the text color and format to the default values.">
<polygon fill="none" stroke="black" points="490.5,-79.56 490.5,-98.56 531.5,-98.56 531.5,-79.56 490.5,-79.56"/>
<text text-anchor="middle" x="511" y="-86.56" font-family="Helvetica,sans-Serif" font-size="10.00">reset</text>
</a>
</g>
</g>
<!-- Node23&#45;&gt;Node26 -->
<g id="edge43" class="edge">
<title>Node23&#45;&gt;Node26</title>
<path fill="none" stroke="midnightblue" d="M407.13,-155.44C418.62,-143.08 440.08,-121.62 462,-108.06 467.7,-104.53 474.17,-101.44 480.47,-98.84"/>
<polygon fill="midnightblue" stroke="midnightblue" points="482.01,-101.99 490.1,-95.15 479.51,-95.46 482.01,-101.99"/>
</g>
<!-- Node27 -->
<g id="node27" class="node">
<title>Node27</title>
<g id="a_node27"><a xlink:href="format_8hpp.html#aec7a78e0e53305094ec38dc8bd038de8" target="_top" xlink:title="Formats a string using a variable number of arguments.">
<polygon fill="none" stroke="black" points="482.5,-155.56 482.5,-174.56 539.5,-174.56 539.5,-155.56 482.5,-155.56"/>
<text text-anchor="middle" x="511" y="-162.56" font-family="Helvetica,sans-Serif" font-size="10.00">vFormat</text>
</a>
</g>
</g>
<!-- Node23&#45;&gt;Node27 -->
<g id="edge45" class="edge">
<title>Node23&#45;&gt;Node27</title>
<path fill="none" stroke="midnightblue" d="M417.67,-165.06C432.62,-165.06 453.87,-165.06 472.21,-165.06"/>
<polygon fill="midnightblue" stroke="midnightblue" points="472.32,-168.56 482.32,-165.06 472.32,-161.56 472.32,-168.56"/>
</g>
<!-- Node24&#45;&gt;Node10 -->
<g id="edge40" class="edge">
<title>Node24&#45;&gt;Node10</title>
<path fill="none" stroke="midnightblue" d="M552.09,-193.57C575.81,-187.95 605.84,-180.84 629.98,-175.13"/>
<polygon fill="midnightblue" stroke="midnightblue" points="631,-178.48 639.93,-172.77 629.39,-171.67 631,-178.48"/>
</g>
<!-- Node25&#45;&gt;Node10 -->
<g id="edge42" class="edge">
<title>Node25&#45;&gt;Node10</title>
<path fill="none" stroke="midnightblue" d="M545.26,-134.93C569.84,-140.75 603.52,-148.73 630.05,-155.01"/>
<polygon fill="midnightblue" stroke="midnightblue" points="629.3,-158.43 639.84,-157.32 630.91,-151.61 629.3,-158.43"/>
</g>
<!-- Node26&#45;&gt;Node10 -->
<g id="edge44" class="edge">
<title>Node26&#45;&gt;Node10</title>
<path fill="none" stroke="midnightblue" d="M531.79,-96.42C540.51,-99.79 550.85,-103.94 560,-108.06 589.87,-121.5 623.26,-138.7 645.84,-150.68"/>
<polygon fill="midnightblue" stroke="midnightblue" points="644.35,-153.85 654.82,-155.46 647.64,-147.67 644.35,-153.85"/>
</g>
<!-- Node28&#45;&gt;Node14 -->
<g id="edge48" class="edge">
<title>Node28&#45;&gt;Node14</title>
<path fill="none" stroke="midnightblue" d="M183.58,-612.47C204.47,-606.84 230.84,-599.73 251.98,-594.04"/>
<polygon fill="midnightblue" stroke="midnightblue" points="253.14,-597.35 261.89,-591.37 251.32,-590.59 253.14,-597.35"/>
</g>
<!-- Node28&#45;&gt;Node15 -->
<g id="edge47" class="edge">
<title>Node28&#45;&gt;Node15</title>
<path fill="none" stroke="midnightblue" d="M150.4,-631.76C158.27,-661.31 186.39,-750.42 247,-787.06 316.86,-829.29 417.16,-819.92 471.49,-810.38"/>
<polygon fill="midnightblue" stroke="midnightblue" points="472.2,-813.8 481.4,-808.54 470.93,-806.92 472.2,-813.8"/>
</g>
<!-- Node30&#45;&gt;Node29 -->
<g id="edge53" class="edge">
<title>Node30&#45;&gt;Node29</title>
<path fill="none" stroke="midnightblue" d="M333.44,-16.39C386.49,-20.65 480.04,-28.52 560,-37.06 582.1,-39.42 606.59,-42.42 627.07,-45.04"/>
<polygon fill="midnightblue" stroke="midnightblue" points="626.7,-48.52 637.07,-46.33 627.6,-41.58 626.7,-48.52"/>
</g>
<!-- Node31&#45;&gt;Node13 -->
<g id="edge62" class="edge">
<title>Node31&#45;&gt;Node13</title>
<path fill="none" stroke="midnightblue" d="M160.1,-340.39C194.72,-313.71 298.04,-241.06 396.5,-241.06 396.5,-241.06 396.5,-241.06 512,-241.06 618.95,-241.06 667.74,-201.93 751,-269.06 789.4,-300.02 765.85,-329.49 787,-374.06 800.39,-402.27 820.24,-432.53 833.15,-451.13"/>
<polygon fill="midnightblue" stroke="midnightblue" points="830.42,-453.33 839.03,-459.49 836.14,-449.3 830.42,-453.33"/>
</g>
<!-- Node31&#45;&gt;Node14 -->
<g id="edge63" class="edge">
<title>Node31&#45;&gt;Node14</title>
<path fill="none" stroke="midnightblue" d="M153.88,-359.81C175.34,-395.43 249.66,-518.77 277.95,-565.72"/>
<polygon fill="midnightblue" stroke="midnightblue" points="275.09,-567.76 283.25,-574.52 281.09,-564.15 275.09,-567.76"/>
</g>
<!-- Node32 -->
<g id="node32" class="node">
<title>Node32</title>
<g id="a_node32"><a xlink:href="basicArithm_8hpp.html#ac99d69ea51545fe30da4a36290f3fedc" target="_top" xlink:title="Multiplies two string representations of numbers.">
<polygon fill="none" stroke="black" points="369,-312.56 369,-331.56 426,-331.56 426,-312.56 369,-312.56"/>
<text text-anchor="middle" x="397.5" y="-319.56" font-family="Helvetica,sans-Serif" font-size="10.00">multiply</text>
</a>
</g>
</g>
<!-- Node31&#45;&gt;Node32 -->
<g id="edge55" class="edge">
<title>Node31&#45;&gt;Node32</title>
<path fill="none" stroke="midnightblue" d="M200.7,-344.12C248.11,-338.78 316.61,-331.06 358.76,-326.31"/>
<polygon fill="midnightblue" stroke="midnightblue" points="359.33,-329.77 368.87,-325.17 358.55,-322.81 359.33,-329.77"/>
</g>
<!-- Node32&#45;&gt;Node5 -->
<g id="edge56" class="edge">
<title>Node32&#45;&gt;Node5</title>
<path fill="none" stroke="midnightblue" d="M418.27,-312.46C430.54,-307.05 446.81,-300.83 462,-298.06 589.44,-274.78 661.23,-242.65 751,-336.06 822.08,-410.03 739.66,-473.04 787,-564.06 795.63,-580.64 810.92,-595.2 823.77,-605.46"/>
<polygon fill="midnightblue" stroke="midnightblue" points="821.69,-608.28 831.77,-611.55 825.93,-602.71 821.69,-608.28"/>
</g>
<!-- Node32&#45;&gt;Node11 -->
<g id="edge61" class="edge">
<title>Node32&#45;&gt;Node11</title>
<path fill="none" stroke="midnightblue" d="M408.62,-331.83C420.62,-343.06 441.59,-361.55 462,-374.06 502.55,-398.91 526.58,-383.21 560,-417.06 588.82,-446.25 568.65,-471.48 596,-502.06 607.16,-514.54 622.85,-524.23 637.11,-531.23"/>
<polygon fill="midnightblue" stroke="midnightblue" points="635.66,-534.42 646.21,-535.44 638.6,-528.06 635.66,-534.42"/>
</g>
<!-- Node33 -->
<g id="node33" class="node">
<title>Node33</title>
<g id="a_node33"><a xlink:href="multiplyReport_8cpp.html#a3e493cd7dde79f0eaa41c2eddd4cb895" target="_top" xlink:title=" ">
<polygon fill="none" stroke="black" points="468,-307.56 468,-326.56 554,-326.56 554,-307.56 468,-307.56"/>
<text text-anchor="middle" x="511" y="-314.56" font-family="Helvetica,sans-Serif" font-size="10.00">reportMultiply</text>
</a>
</g>
</g>
<!-- Node32&#45;&gt;Node33 -->
<g id="edge57" class="edge">
<title>Node32&#45;&gt;Node33</title>
<path fill="none" stroke="midnightblue" d="M426.06,-320.82C435.74,-320.39 446.95,-319.89 457.97,-319.39"/>
<polygon fill="midnightblue" stroke="midnightblue" points="458.16,-322.89 467.99,-318.94 457.84,-315.89 458.16,-322.89"/>
</g>
<!-- Node33&#45;&gt;Node7 -->
<g id="edge58" class="edge">
<title>Node33&#45;&gt;Node7</title>
<path fill="none" stroke="midnightblue" d="M552.5,-326.65C573.68,-331.66 599.8,-337.85 622.26,-343.16"/>
<polygon fill="midnightblue" stroke="midnightblue" points="621.75,-346.64 632.29,-345.54 623.37,-339.83 621.75,-346.64"/>
</g>
<!-- Node33&#45;&gt;Node21 -->
<g id="edge60" class="edge">
<title>Node33&#45;&gt;Node21</title>
<path fill="none" stroke="midnightblue" d="M541.96,-326.58C548.18,-329.19 554.51,-332.34 560,-336.06 579.27,-349.09 577.29,-360.23 596,-374.06 608.98,-383.66 624.76,-391.97 638.6,-398.34"/>
<polygon fill="midnightblue" stroke="midnightblue" points="637.26,-401.58 647.82,-402.44 640.11,-395.18 637.26,-401.58"/>
</g>
<!-- Node33&#45;&gt;Node29 -->
<g id="edge59" class="edge">
<title>Node33&#45;&gt;Node29</title>
<path fill="none" stroke="midnightblue" d="M516.99,-307.39C525.8,-290.26 544.65,-253.43 560,-222.06 576.43,-188.49 576.14,-177.72 596,-146.06 614.25,-116.97 640.07,-86.61 656.55,-68.27"/>
<polygon fill="midnightblue" stroke="midnightblue" points="659.27,-70.48 663.41,-60.73 654.09,-65.77 659.27,-70.48"/>
</g>
</g>
</svg>
        <g id="navigator" transform="translate(0 0)" fill="#404254">
                <rect fill="#f2f5e9" fill-opacity="0.5" stroke="#606060" stroke-width=".5" x="0" y="0" width="60" height="60"/>
                <use id="zoomplus" xlink:href="#zoomPlus" x="17" y="9" onmousedown="handleZoom(evt,'in')"/>
                <use id="zoomminus" xlink:href="#zoomMin" x="42" y="9" onmousedown="handleZoom(evt,'out')"/>
                <use id="reset" xlink:href="#resetDef" x="30" y="36" onmousedown="handleReset()"/>
                <g id="arrowUp" xlink:href="#dirArrow" transform="translate(30 24)" onmousedown="handlePan(0,-1)">
                  <use xlink:href="#rim" fill="#404040">
                        <set attributeName="fill" to="#808080" begin="arrowUp.mouseover" end="arrowUp.mouseout"/>
                  </use>
                  <path fill="none" stroke="white" stroke-width="1.5" d="M0,-3.0v7 M-2.5,-0.5L0,-3.0L2.5,-0.5"/>
                </g>
                <g id="arrowRight" xlink:href="#dirArrow" transform="rotate(90) translate(36 -43)" onmousedown="handlePan(1,0)">
                  <use xlink:href="#rim" fill="#404040">
                        <set attributeName="fill" to="#808080" begin="arrowRight.mouseover" end="arrowRight.mouseout"/>
                  </use>
                  <path fill="none" stroke="white" stroke-width="1.5" d="M0,-3.0v7 M-2.5,-0.5L0,-3.0L2.5,-0.5"/>
                </g>
                <g id="arrowDown" xlink:href="#dirArrow" transform="rotate(180) translate(-30 -48)" onmousedown="handlePan(0,1)">
                  <use xlink:href="#rim" fill="#404040">
                        <set attributeName="fill" to="#808080" begin="arrowDown.mouseover" end="arrowDown.mouseout"/>
                  </use>
                  <path fill="none" stroke="white" stroke-width="1.5" d="M0,-3.0v7 M-2.5,-0.5L0,-3.0L2.5,-0.5"/>
                </g>
                <g id="arrowLeft" xlink:href="#dirArrow" transform="rotate(270) translate(-36 17)" onmousedown="handlePan(-1,0)">
                  <use xlink:href="#rim" fill="#404040">
                        <set attributeName="fill" to="#808080" begin="arrowLeft.mouseover" end="arrowLeft.mouseout"/>
                  </use>
                  <path fill="none" stroke="white" stroke-width="1.5" d="M0,-3.0v7 M-2.5,-0.5L0,-3.0L2.5,-0.5"/>
                </g>
        </g>
        <svg viewBox="0 0 15 15" width="100%" height="30px" preserveAspectRatio="xMaxYMin meet">
         <g id="arrow_out" transform="scale(0.3 0.3)">
          <a xlink:href="basicArithm_8hpp_acb4215189a8d1cfd37f4f6fe13890a8f_cgraph_org.svg" target="_base">
           <rect id="button" ry="5" rx="5" y="6" x="6" height="38" width="38"
                fill="#f2f5e9" fill-opacity="0.5" stroke="#606060" stroke-width="1.0"/>
           <path id="arrow"
             d="M 11.500037,31.436501 C 11.940474,20.09759 22.043105,11.32322 32.158766,21.979434 L 37.068811,17.246167 C 37.068811,17.246167 37.088388,32 37.088388,32 L 22.160133,31.978069 C 22.160133,31.978069 26.997745,27.140456 26.997745,27.140456 C 18.528582,18.264221 13.291696,25.230495 11.500037,31.436501 z"
             style="fill:#404040;"/>
          </a>
         </g>
        </svg>
</svg>
