<?xml version="1.0" encoding="UTF-8" standalone="no"?>
<!DOCTYPE svg PUBLIC "-//W3C//DTD SVG 1.1//EN"
 "http://www.w3.org/Graphics/SVG/1.1/DTD/svg11.dtd">
<!-- Generated by graphviz version 2.43.0 (0)
 -->
<!-- Title: include/fn/basicArithm.hpp Pages: 1 -->
<!--zoomable 95 -->
<svg id="main" version="1.1" xmlns="http://www.w3.org/2000/svg" xmlns:xlink="http://www.w3.org/1999/xlink" xml:space="preserve" onload="init(evt)">
<style type="text/css"><![CDATA[
.edge:hover path { stroke: red; }
.edge:hover polygon { stroke: red; fill: red; }
]]></style>
<script type="text/javascript"><![CDATA[
var edges = document.getElementsByTagName('g');
if (edges && edges.length) {
  for (var i=0;i<edges.length;i++) {
    if (edges[i].id.substr(0,4)=='edge') {
      edges[i].setAttribute('class','edge');
    }
  }
}
]]></script>
        <defs>
                <circle id="rim" cx="0" cy="0" r="7"/>
                <circle id="rim2" cx="0" cy="0" r="3.5"/>
                <g id="zoomPlus">
                        <use xlink:href="#rim" fill="#404040">
                                <set attributeName="fill" to="#808080" begin="zoomplus.mouseover" end="zoomplus.mouseout"/>
                        </use>
                        <path d="M-4,0h8M0,-4v8" fill="none" stroke="white" stroke-width="1.5" pointer-events="none"/>
                </g>
                <g id="zoomMin">
                        <use xlink:href="#rim" fill="#404040">
                                <set attributeName="fill" to="#808080" begin="zoomminus.mouseover" end="zoomminus.mouseout"/>
                        </use>
                        <path d="M-4,0h8" fill="none" stroke="white" stroke-width="1.5" pointer-events="none"/>
                </g>
                <g id="dirArrow">
                        <path fill="none" stroke="white" stroke-width="1.5" d="M0,-3.0v7 M-2.5,-0.5L0,-3.0L2.5,-0.5"/>
                </g>
               <g id="resetDef">
                       <use xlink:href="#rim2" fill="#404040">
                               <set attributeName="fill" to="#808080" begin="reset.mouseover" end="reset.mouseout"/>
                       </use>
               </g>
        </defs>

<script type="text/javascript">
var viewWidth = 2407;
var viewHeight = 95;
var sectionId = 'dynsection-1';
</script>
<script xlink:href="svgpan.js"/>
<svg id="graph" class="graph">
<g id="viewport">
<title>include/fn/basicArithm.hpp</title>
<!-- Node1 -->
<g id="node1" class="node">
<title>Node1</title>
<g id="a_node1"><a xlink:title="This file contains functions for basic arithmetic operations on strings.">
<polygon fill="#bfbfbf" stroke="black" points="1165,-67.5 1165,-86.5 1312,-86.5 1312,-67.5 1165,-67.5"/>
<text text-anchor="middle" x="1238.5" y="-74.5" font-family="Helvetica,sans-Serif" font-size="10.00">include/fn/basicArithm.hpp</text>
</a>
</g>
</g>
<!-- Node2 -->
<g id="node2" class="node">
<title>Node2</title>
<g id="a_node2"><a xlink:href="bindings_8cpp.html" target="_top" xlink:title=" ">
<polygon fill="none" stroke="black" points="0,-6 0,-25 93,-25 93,-6 0,-6"/>
<text text-anchor="middle" x="46.5" y="-13" font-family="Helvetica,sans-Serif" font-size="10.00">lib/bindings.cpp</text>
</a>
</g>
</g>
<!-- Node1&#45;&gt;Node2 -->
<g id="edge1" class="edge">
<title>Node1&#45;&gt;Node2</title>
<path fill="none" stroke="midnightblue" d="M1154.45,-75C927.43,-71.92 305.38,-60.93 102.5,-31 93.36,-29.65 83.56,-27.4 74.75,-25.07"/>
<polygon fill="midnightblue" stroke="midnightblue" points="1154.59,-78.5 1164.63,-75.13 1154.68,-71.5 1154.59,-78.5"/>
</g>
<!-- Node3 -->
<g id="node3" class="node">
<title>Node3</title>
<g id="a_node3"><a xlink:href="abs_8cpp.html" target="_top" xlink:title="This file contains the implementation of the abs function, which gets the absolute value of a number ...">
<polygon fill="none" stroke="black" points="111.5,-6 111.5,-25 203.5,-25 203.5,-6 111.5,-6"/>
<text text-anchor="middle" x="157.5" y="-13" font-family="Helvetica,sans-Serif" font-size="10.00">src/abs/abs.cpp</text>
</a>
</g>
</g>
<!-- Node1&#45;&gt;Node3 -->
<g id="edge2" class="edge">
<title>Node1&#45;&gt;Node3</title>
<path fill="none" stroke="midnightblue" d="M1154.89,-74.64C943.82,-70.83 393.41,-58.49 212.5,-31 203.52,-29.64 193.89,-27.38 185.24,-25.05"/>
<polygon fill="midnightblue" stroke="midnightblue" points="1154.92,-78.14 1164.98,-74.82 1155.05,-71.14 1154.92,-78.14"/>
</g>
<!-- Node4 -->
<g id="node4" class="node">
<title>Node4</title>
<g id="a_node4"><a xlink:href="add_8cpp.html" target="_top" xlink:title="This file contains the implementation of the add function, which add two number strings together.">
<polygon fill="none" stroke="black" points="222,-6 222,-25 315,-25 315,-6 222,-6"/>
<text text-anchor="middle" x="268.5" y="-13" font-family="Helvetica,sans-Serif" font-size="10.00">src/add/add.cpp</text>
</a>
</g>
</g>
<!-- Node1&#45;&gt;Node4 -->
<g id="edge3" class="edge">
<title>Node1&#45;&gt;Node4</title>
<path fill="none" stroke="midnightblue" d="M1154.5,-74.06C959.97,-69.2 483.04,-55.17 324.5,-31 315.37,-29.61 305.56,-27.34 296.76,-25.01"/>
<polygon fill="midnightblue" stroke="midnightblue" points="1154.59,-77.56 1164.67,-74.31 1154.76,-70.56 1154.59,-77.56"/>
</g>
<!-- Node5 -->
<g id="node5" class="node">
<title>Node5</title>
<g id="a_node5"><a xlink:href="baseConvert_8cpp.html" target="_top" xlink:title="This file contains the implementation of the baseConvert function, which converts any number to any b...">
<polygon fill="none" stroke="black" points="333.5,-6 333.5,-25 513.5,-25 513.5,-6 333.5,-6"/>
<text text-anchor="middle" x="423.5" y="-13" font-family="Helvetica,sans-Serif" font-size="10.00">src/baseConvert/baseConvert.cpp</text>
</a>
</g>
</g>
<!-- Node1&#45;&gt;Node5 -->
<g id="edge4" class="edge">
<title>Node1&#45;&gt;Node5</title>
<path fill="none" stroke="midnightblue" d="M1154.71,-72.98C1020.83,-67.65 750.53,-54.82 522.5,-31 507.38,-29.42 491.03,-27.23 476.06,-25.02"/>
<polygon fill="midnightblue" stroke="midnightblue" points="1154.76,-76.49 1164.89,-73.38 1155.04,-69.49 1154.76,-76.49"/>
</g>
<!-- Node6 -->
<g id="node6" class="node">
<title>Node6</title>
<g id="a_node6"><a xlink:href="comparison_8cpp.html" target="_top" xlink:title=" ">
<polygon fill="none" stroke="black" points="532,-6 532,-25 703,-25 703,-6 532,-6"/>
<text text-anchor="middle" x="617.5" y="-13" font-family="Helvetica,sans-Serif" font-size="10.00">src/comparison/comparison.cpp</text>
</a>
</g>
</g>
<!-- Node1&#45;&gt;Node6 -->
<g id="edge5" class="edge">
<title>Node1&#45;&gt;Node6</title>
<path fill="none" stroke="midnightblue" d="M1154.45,-70.59C1050.29,-63.48 867.46,-49.67 711.5,-31 697.56,-29.33 682.52,-27.17 668.64,-25.03"/>
<polygon fill="midnightblue" stroke="midnightblue" points="1154.37,-74.09 1164.59,-71.28 1154.85,-67.11 1154.37,-74.09"/>
</g>
<!-- Node7 -->
<g id="node7" class="node">
<title>Node7</title>
<g id="a_node7"><a xlink:href="decimalConvert_8cpp.html" target="_top" xlink:title="This file contains the implementation of the decimalConvert function, which converts a number from on...">
<polygon fill="none" stroke="black" points="721,-0.5 721,-30.5 838,-30.5 838,-0.5 721,-0.5"/>
<text text-anchor="start" x="729" y="-18.5" font-family="Helvetica,sans-Serif" font-size="10.00">src/decimalConvert</text>
<text text-anchor="middle" x="779.5" y="-7.5" font-family="Helvetica,sans-Serif" font-size="10.00">/decimalConvert.cpp</text>
</a>
</g>
</g>
<!-- Node1&#45;&gt;Node7 -->
<g id="edge6" class="edge">
<title>Node1&#45;&gt;Node7</title>
<path fill="none" stroke="midnightblue" d="M1154.27,-68.65C1074.87,-61.17 952.69,-48.23 847.5,-31 844.4,-30.49 841.23,-29.94 838.04,-29.35"/>
<polygon fill="midnightblue" stroke="midnightblue" points="1154.42,-72.18 1164.7,-69.63 1155.07,-65.21 1154.42,-72.18"/>
</g>
<!-- Node8 -->
<g id="node8" class="node">
<title>Node8</title>
<g id="a_node8"><a xlink:href="division_8cpp.html" target="_top" xlink:title="Performs division of two numbers represented in strings.">
<polygon fill="none" stroke="black" points="856.5,-6 856.5,-25 990.5,-25 990.5,-6 856.5,-6"/>
<text text-anchor="middle" x="923.5" y="-13" font-family="Helvetica,sans-Serif" font-size="10.00">src/division/division.cpp</text>
</a>
</g>
</g>
<!-- Node1&#45;&gt;Node8 -->
<g id="edge7" class="edge">
<title>Node1&#45;&gt;Node8</title>
<path fill="none" stroke="midnightblue" d="M1183.16,-65.62C1134.71,-56.52 1062.43,-42.93 999.5,-31 989.34,-29.07 978.41,-26.99 968.1,-25.03"/>
<polygon fill="midnightblue" stroke="midnightblue" points="1182.65,-69.08 1193.12,-67.49 1183.94,-62.2 1182.65,-69.08"/>
</g>
<!-- Node9 -->
<g id="node9" class="node">
<title>Node9</title>
<g id="a_node9"><a xlink:href="divisionReport_8cpp.html" target="_top" xlink:title="This file contains the implementations for functions reportDivision and reportDivisionStep,...">
<polygon fill="none" stroke="black" points="1008.5,-6 1008.5,-25 1174.5,-25 1174.5,-6 1008.5,-6"/>
<text text-anchor="middle" x="1091.5" y="-13" font-family="Helvetica,sans-Serif" font-size="10.00">src/division/divisionReport.cpp</text>
</a>
</g>
</g>
<!-- Node1&#45;&gt;Node9 -->
<g id="edge8" class="edge">
<title>Node1&#45;&gt;Node9</title>
<path fill="none" stroke="midnightblue" d="M1207.94,-63.63C1179.38,-52.07 1137.5,-35.12 1112.52,-25.01"/>
<polygon fill="midnightblue" stroke="midnightblue" points="1206.86,-66.97 1217.44,-67.48 1209.48,-60.48 1206.86,-66.97"/>
</g>
<!-- Node10 -->
<g id="node10" class="node">
<title>Node10</title>
<g id="a_node10"><a xlink:href="fraction_8cpp.html" target="_top" xlink:title=" ">
<polygon fill="none" stroke="black" points="1192.5,-6 1192.5,-25 1284.5,-25 1284.5,-6 1192.5,-6"/>
<text text-anchor="middle" x="1238.5" y="-13" font-family="Helvetica,sans-Serif" font-size="10.00">src/fraction.cpp</text>
</a>
</g>
</g>
<!-- Node1&#45;&gt;Node10 -->
<g id="edge9" class="edge">
<title>Node1&#45;&gt;Node10</title>
<path fill="none" stroke="midnightblue" d="M1238.5,-57.32C1238.5,-46.5 1238.5,-33.4 1238.5,-25.01"/>
<polygon fill="midnightblue" stroke="midnightblue" points="1235,-57.48 1238.5,-67.48 1242,-57.48 1235,-57.48"/>
</g>
<!-- Node11 -->
<g id="node11" class="node">
<title>Node11</title>
<g id="a_node11"><a xlink:href="multiply_8cpp.html" target="_top" xlink:title="This file contains the implementation of the multiply function, which can multiply two strings togeth...">
<polygon fill="none" stroke="black" points="1303,-6 1303,-25 1440,-25 1440,-6 1303,-6"/>
<text text-anchor="middle" x="1371.5" y="-13" font-family="Helvetica,sans-Serif" font-size="10.00">src/multiply/multiply.cpp</text>
</a>
</g>
</g>
<!-- Node1&#45;&gt;Node11 -->
<g id="edge10" class="edge">
<title>Node1&#45;&gt;Node11</title>
<path fill="none" stroke="midnightblue" d="M1266.83,-63.33C1292.65,-51.78 1330.08,-35.03 1352.48,-25.01"/>
<polygon fill="midnightblue" stroke="midnightblue" points="1265.25,-60.2 1257.56,-67.48 1268.11,-66.59 1265.25,-60.2"/>
</g>
<!-- Node12 -->
<g id="node12" class="node">
<title>Node12</title>
<g id="a_node12"><a xlink:href="multiplyReport_8cpp.html" target="_top" xlink:title="This file contains the implementation of the reportMultiply function, which reports the product of tw...">
<polygon fill="none" stroke="black" points="1458.5,-6 1458.5,-25 1628.5,-25 1628.5,-6 1458.5,-6"/>
<text text-anchor="middle" x="1543.5" y="-13" font-family="Helvetica,sans-Serif" font-size="10.00">src/multiply/multiplyReport.cpp</text>
</a>
</g>
</g>
<!-- Node1&#45;&gt;Node12 -->
<g id="edge11" class="edge">
<title>Node1&#45;&gt;Node12</title>
<path fill="none" stroke="midnightblue" d="M1292.09,-65.55C1351.18,-54.02 1445.11,-35.69 1499.88,-25.01"/>
<polygon fill="midnightblue" stroke="midnightblue" points="1291.34,-62.13 1282.2,-67.48 1292.68,-69 1291.34,-62.13"/>
</g>
<!-- Node13 -->
<g id="node13" class="node">
<title>Node13</title>
<g id="a_node13"><a xlink:href="number_8cpp.html" target="_top" xlink:title=" ">
<polygon fill="none" stroke="black" points="1647,-6 1647,-25 1738,-25 1738,-6 1647,-6"/>
<text text-anchor="middle" x="1692.5" y="-13" font-family="Helvetica,sans-Serif" font-size="10.00">src/number.cpp</text>
</a>
</g>
</g>
<!-- Node1&#45;&gt;Node13 -->
<g id="edge12" class="edge">
<title>Node1&#45;&gt;Node13</title>
<path fill="none" stroke="midnightblue" d="M1322.3,-70.11C1403.41,-63.58 1529.57,-51.2 1637.5,-31 1645.94,-29.42 1655,-27.24 1663.28,-25.05"/>
<polygon fill="midnightblue" stroke="midnightblue" points="1321.84,-66.64 1312.15,-70.92 1322.39,-73.62 1321.84,-66.64"/>
</g>
<!-- Node14 -->
<g id="node14" class="node">
<title>Node14</title>
<g id="a_node14"><a xlink:href="power_8cpp.html" target="_top" xlink:title="This file contains the implementation for the function power, which raises a number to a power.">
<polygon fill="none" stroke="black" points="1756.5,-6 1756.5,-25 1872.5,-25 1872.5,-6 1756.5,-6"/>
<text text-anchor="middle" x="1814.5" y="-13" font-family="Helvetica,sans-Serif" font-size="10.00">src/power/power.cpp</text>
</a>
</g>
</g>
<!-- Node1&#45;&gt;Node14 -->
<g id="edge13" class="edge">
<title>Node1&#45;&gt;Node14</title>
<path fill="none" stroke="midnightblue" d="M1322.34,-71.81C1423.54,-66 1598.68,-53.59 1747.5,-31 1757.85,-29.43 1769.01,-27.22 1779.19,-25.01"/>
<polygon fill="midnightblue" stroke="midnightblue" points="1321.96,-68.32 1312.18,-72.38 1322.36,-75.31 1321.96,-68.32"/>
</g>
<!-- Node15 -->
<g id="node15" class="node">
<title>Node15</title>
<g id="a_node15"><a xlink:href="powerReport_8cpp.html" target="_top" xlink:title="This file contains the implementation for the function reportPower, which reports the result of raisi...">
<polygon fill="none" stroke="black" points="1891,-6 1891,-25 2040,-25 2040,-6 1891,-6"/>
<text text-anchor="middle" x="1965.5" y="-13" font-family="Helvetica,sans-Serif" font-size="10.00">src/power/powerReport.cpp</text>
</a>
</g>
</g>
<!-- Node1&#45;&gt;Node15 -->
<g id="edge14" class="edge">
<title>Node1&#45;&gt;Node15</title>
<path fill="none" stroke="midnightblue" d="M1322.11,-72.85C1445.03,-67.6 1681.59,-55.19 1881.5,-31 1894.43,-29.44 1908.39,-27.23 1921.16,-25.02"/>
<polygon fill="midnightblue" stroke="midnightblue" points="1321.86,-69.36 1312.02,-73.27 1322.16,-76.35 1321.86,-69.36"/>
</g>
<!-- Node16 -->
<g id="node16" class="node">
<title>Node16</title>
<g id="a_node16"><a xlink:href="rounding_8cpp.html" target="_top" xlink:title=" ">
<polygon fill="none" stroke="black" points="2058,-6 2058,-25 2155,-25 2155,-6 2058,-6"/>
<text text-anchor="middle" x="2106.5" y="-13" font-family="Helvetica,sans-Serif" font-size="10.00">src/rounding.cpp</text>
</a>
</g>
</g>
<!-- Node1&#45;&gt;Node16 -->
<g id="edge15" class="edge">
<title>Node1&#45;&gt;Node16</title>
<path fill="none" stroke="midnightblue" d="M1322.6,-76.67C1470.5,-76.67 1786.45,-71.37 2049.5,-31 2058.68,-29.59 2068.54,-27.35 2077.43,-25.05"/>
<polygon fill="midnightblue" stroke="midnightblue" points="1322.24,-73.17 1312.24,-76.66 1322.24,-80.17 1322.24,-73.17"/>
</g>
<!-- Node17 -->
<g id="node17" class="node">
<title>Node17</title>
<g id="a_node17"><a xlink:href="subtract_8cpp.html" target="_top" xlink:title="This file contains the implementation of the subtract function, which subtracts two numbers using the...">
<polygon fill="none" stroke="black" points="2173,-6 2173,-25 2310,-25 2310,-6 2173,-6"/>
<text text-anchor="middle" x="2241.5" y="-13" font-family="Helvetica,sans-Serif" font-size="10.00">src/subtract/subtract.cpp</text>
</a>
</g>
</g>
<!-- Node1&#45;&gt;Node17 -->
<g id="edge16" class="edge">
<title>Node1&#45;&gt;Node17</title>
<path fill="none" stroke="midnightblue" d="M1322.44,-75.78C1485.36,-74.5 1855.59,-67.42 2164.5,-31 2176.66,-29.57 2189.78,-27.35 2201.7,-25.08"/>
<polygon fill="midnightblue" stroke="midnightblue" points="1321.98,-72.28 1312.01,-75.85 1322.03,-79.28 1321.98,-72.28"/>
</g>
<!-- Node18 -->
<g id="node18" class="node">
<title>Node18</title>
<g id="a_node18"><a xlink:href="util_8cpp.html" target="_top" xlink:title=" ">
<polygon fill="none" stroke="black" points="2328.5,-6 2328.5,-25 2398.5,-25 2398.5,-6 2328.5,-6"/>
<text text-anchor="middle" x="2363.5" y="-13" font-family="Helvetica,sans-Serif" font-size="10.00">src/util.cpp</text>
</a>
</g>
</g>
<!-- Node1&#45;&gt;Node18 -->
<g id="edge17" class="edge">
<title>Node1&#45;&gt;Node18</title>
<path fill="none" stroke="midnightblue" d="M1322.41,-75.5C1541.79,-73.71 2128.6,-65.73 2319.5,-31 2326.78,-29.68 2334.51,-27.43 2341.43,-25.1"/>
<polygon fill="midnightblue" stroke="midnightblue" points="1322.22,-72 1312.25,-75.58 1322.27,-79 1322.22,-72"/>
</g>
</g>
</svg>
        <g id="navigator" transform="translate(0 0)" fill="#404254">
                <rect fill="#f2f5e9" fill-opacity="0.5" stroke="#606060" stroke-width=".5" x="0" y="0" width="60" height="60"/>
                <use id="zoomplus" xlink:href="#zoomPlus" x="17" y="9" onmousedown="handleZoom(evt,'in')"/>
                <use id="zoomminus" xlink:href="#zoomMin" x="42" y="9" onmousedown="handleZoom(evt,'out')"/>
                <use id="reset" xlink:href="#resetDef" x="30" y="36" onmousedown="handleReset()"/>
                <g id="arrowUp" xlink:href="#dirArrow" transform="translate(30 24)" onmousedown="handlePan(0,-1)">
                  <use xlink:href="#rim" fill="#404040">
                        <set attributeName="fill" to="#808080" begin="arrowUp.mouseover" end="arrowUp.mouseout"/>
                  </use>
                  <path fill="none" stroke="white" stroke-width="1.5" d="M0,-3.0v7 M-2.5,-0.5L0,-3.0L2.5,-0.5"/>
                </g>
                <g id="arrowRight" xlink:href="#dirArrow" transform="rotate(90) translate(36 -43)" onmousedown="handlePan(1,0)">
                  <use xlink:href="#rim" fill="#404040">
                        <set attributeName="fill" to="#808080" begin="arrowRight.mouseover" end="arrowRight.mouseout"/>
                  </use>
                  <path fill="none" stroke="white" stroke-width="1.5" d="M0,-3.0v7 M-2.5,-0.5L0,-3.0L2.5,-0.5"/>
                </g>
                <g id="arrowDown" xlink:href="#dirArrow" transform="rotate(180) translate(-30 -48)" onmousedown="handlePan(0,1)">
                  <use xlink:href="#rim" fill="#404040">
                        <set attributeName="fill" to="#808080" begin="arrowDown.mouseover" end="arrowDown.mouseout"/>
                  </use>
                  <path fill="none" stroke="white" stroke-width="1.5" d="M0,-3.0v7 M-2.5,-0.5L0,-3.0L2.5,-0.5"/>
                </g>
                <g id="arrowLeft" xlink:href="#dirArrow" transform="rotate(270) translate(-36 17)" onmousedown="handlePan(-1,0)">
                  <use xlink:href="#rim" fill="#404040">
                        <set attributeName="fill" to="#808080" begin="arrowLeft.mouseover" end="arrowLeft.mouseout"/>
                  </use>
                  <path fill="none" stroke="white" stroke-width="1.5" d="M0,-3.0v7 M-2.5,-0.5L0,-3.0L2.5,-0.5"/>
                </g>
        </g>
        <svg viewBox="0 0 15 15" width="100%" height="30px" preserveAspectRatio="xMaxYMin meet">
         <g id="arrow_out" transform="scale(0.3 0.3)">
          <a xlink:href="basicArithm_8hpp__dep__incl_org.svg" target="_base">
           <rect id="button" ry="5" rx="5" y="6" x="6" height="38" width="38"
                fill="#f2f5e9" fill-opacity="0.5" stroke="#606060" stroke-width="1.0"/>
           <path id="arrow"
             d="M 11.500037,31.436501 C 11.940474,20.09759 22.043105,11.32322 32.158766,21.979434 L 37.068811,17.246167 C 37.068811,17.246167 37.088388,32 37.088388,32 L 22.160133,31.978069 C 22.160133,31.978069 26.997745,27.140456 26.997745,27.140456 C 18.528582,18.264221 13.291696,25.230495 11.500037,31.436501 z"
             style="fill:#404040;"/>
          </a>
         </g>
        </svg>
</svg>
