<?xml version="1.0" encoding="UTF-8" standalone="no"?>
<!DOCTYPE svg PUBLIC "-//W3C//DTD SVG 1.1//EN"
 "http://www.w3.org/Graphics/SVG/1.1/DTD/svg11.dtd">
<!-- Generated by graphviz version 2.43.0 (0)
 -->
<!-- Title: loop Pages: 1 -->
<svg width="1046pt" height="626pt"
 viewBox="0.00 0.00 1046.00 626.00" xmlns="http://www.w3.org/2000/svg" xmlns:xlink="http://www.w3.org/1999/xlink">
<g id="graph0" class="graph" transform="scale(1 1) rotate(0) translate(4 622)">
<title>loop</title>
<!-- Node1 -->
<g id="node1" class="node">
<title>Node1</title>
<g id="a_node1"><a xlink:title="Executes a given predicate function a specified number of times.">
<polygon fill="#bfbfbf" stroke="black" points="0,-190.5 0,-209.5 38,-209.5 38,-190.5 0,-190.5"/>
<text text-anchor="middle" x="19" y="-197.5" font-family="Helvetica,sans-Serif" font-size="10.00">loop</text>
</a>
</g>
</g>
<!-- Node2 -->
<g id="node2" class="node">
<title>Node2</title>
<g id="a_node2"><a xlink:href="basicArithm_8hpp.html#acf222f0bfc4ca97fbdc6db7fe808a9ee" target="_top" xlink:title="Adds two string representations of numbers, and performs with the column method.">
<polygon fill="none" stroke="black" points="74,-323.5 74,-342.5 109,-342.5 109,-323.5 74,-323.5"/>
<text text-anchor="middle" x="91.5" y="-330.5" font-family="Helvetica,sans-Serif" font-size="10.00">add</text>
</a>
</g>
</g>
<!-- Node1&#45;&gt;Node2 -->
<g id="edge1" class="edge">
<title>Node1&#45;&gt;Node2</title>
<path fill="none" stroke="midnightblue" d="M25.07,-209.57C36.65,-231.41 65.21,-285.3 80.49,-314.11"/>
<polygon fill="midnightblue" stroke="midnightblue" points="77.51,-315.97 85.29,-323.16 83.69,-312.69 77.51,-315.97"/>
</g>
<!-- Node17 -->
<g id="node17" class="node">
<title>Node17</title>
<g id="a_node17"><a xlink:href="basicArithm_8hpp.html#aabb709fcb471467879352bf51bb0030a" target="_top" xlink:title="Compares two string representations of numbers.">
<polygon fill="none" stroke="black" points="348.5,-266.5 348.5,-285.5 407.5,-285.5 407.5,-266.5 348.5,-266.5"/>
<text text-anchor="middle" x="378" y="-273.5" font-family="Helvetica,sans-Serif" font-size="10.00">compare</text>
</a>
</g>
</g>
<!-- Node1&#45;&gt;Node17 -->
<g id="edge43" class="edge">
<title>Node1&#45;&gt;Node17</title>
<path fill="none" stroke="midnightblue" d="M38.19,-203.87C93.7,-215.69 261.72,-251.46 338.27,-267.75"/>
<polygon fill="midnightblue" stroke="midnightblue" points="337.93,-271.26 348.44,-269.92 339.39,-264.41 337.93,-271.26"/>
</g>
<!-- Node25 -->
<g id="node25" class="node">
<title>Node25</title>
<g id="a_node25"><a xlink:href="output_8hpp.html#a1f009ce0a12690c37c88f2adfe9d2e1e" target="_top" xlink:title="Prints an error message.">
<polygon fill="none" stroke="black" points="245,-76.5 245,-95.5 285,-95.5 285,-76.5 245,-76.5"/>
<text text-anchor="middle" x="265" y="-83.5" font-family="Helvetica,sans-Serif" font-size="10.00">error</text>
</a>
</g>
</g>
<!-- Node1&#45;&gt;Node25 -->
<g id="edge44" class="edge">
<title>Node1&#45;&gt;Node25</title>
<path fill="none" stroke="midnightblue" d="M38.34,-191.43C80.61,-171.68 185.13,-122.85 235.7,-99.22"/>
<polygon fill="midnightblue" stroke="midnightblue" points="237.2,-102.39 244.77,-94.98 234.23,-96.04 237.2,-102.39"/>
</g>
<!-- Node3 -->
<g id="node3" class="node">
<title>Node3</title>
<g id="a_node3"><a xlink:href="util_8hpp.html#a183c024df291889f90106e47bb64fe0b" target="_top" xlink:title="Checks if a given string is a zero string.">
<polygon fill="none" stroke="black" points="962,-494.5 962,-513.5 1038,-513.5 1038,-494.5 962,-494.5"/>
<text text-anchor="middle" x="1000" y="-501.5" font-family="Helvetica,sans-Serif" font-size="10.00">isZeroString</text>
</a>
</g>
</g>
<!-- Node2&#45;&gt;Node3 -->
<g id="edge2" class="edge">
<title>Node2&#45;&gt;Node3</title>
<path fill="none" stroke="midnightblue" d="M93.52,-342.81C99.31,-392.92 132.63,-618 264,-618 264,-618 264,-618 715,-618 811.58,-618 840.01,-609.99 926,-566 948.27,-554.61 969.58,-535.19 983.37,-521.11"/>
<polygon fill="midnightblue" stroke="midnightblue" points="986.21,-523.2 990.56,-513.54 981.14,-518.38 986.21,-523.2"/>
</g>
<!-- Node4 -->
<g id="node4" class="node">
<title>Node4</title>
<g id="a_node4"><a xlink:href="addReport_8cpp.html#a790c309eb43b10e2fca286cee3a94ac1" target="_top" xlink:title=" ">
<polygon fill="none" stroke="black" points="345.5,-494.5 345.5,-513.5 410.5,-513.5 410.5,-494.5 345.5,-494.5"/>
<text text-anchor="middle" x="378" y="-501.5" font-family="Helvetica,sans-Serif" font-size="10.00">reportAdd</text>
</a>
</g>
</g>
<!-- Node2&#45;&gt;Node4 -->
<g id="edge3" class="edge">
<title>Node2&#45;&gt;Node4</title>
<path fill="none" stroke="midnightblue" d="M93.45,-342.79C96.33,-366.87 107.25,-429.28 145,-460 199.32,-504.21 284.47,-509.01 335.1,-507.31"/>
<polygon fill="midnightblue" stroke="midnightblue" points="335.52,-510.79 345.36,-506.86 335.22,-503.8 335.52,-510.79"/>
</g>
<!-- Node10 -->
<g id="node10" class="node">
<title>Node10</title>
<g id="a_node10"><a xlink:href="namespaceformats.html#a296119cbd1b0c858739af6b363fb262a" target="_top" xlink:title="Set the text format to reverse.">
<polygon fill="none" stroke="black" points="329,-152.5 329,-171.5 427,-171.5 427,-152.5 329,-152.5"/>
<text text-anchor="middle" x="378" y="-159.5" font-family="Helvetica,sans-Serif" font-size="10.00">formats::reverse</text>
</a>
</g>
</g>
<!-- Node2&#45;&gt;Node10 -->
<g id="edge11" class="edge">
<title>Node2&#45;&gt;Node10</title>
<path fill="none" stroke="midnightblue" d="M98.94,-323.26C117.09,-296.66 171.62,-222.49 237,-188 262,-174.81 292.59,-168.22 318.79,-164.96"/>
<polygon fill="midnightblue" stroke="midnightblue" points="319.42,-168.41 328.97,-163.83 318.65,-161.46 319.42,-168.41"/>
</g>
<!-- Node12 -->
<g id="node12" class="node">
<title>Node12</title>
<g id="a_node12"><a xlink:href="util_8hpp.html#a7e7fdd236a1593ed0124a3a7dd05946d" target="_top" xlink:title=" ">
<polygon fill="none" stroke="black" points="502,-342.5 502,-361.5 579,-361.5 579,-342.5 502,-342.5"/>
<text text-anchor="middle" x="540.5" y="-349.5" font-family="Helvetica,sans-Serif" font-size="10.00">splitNumber</text>
</a>
</g>
</g>
<!-- Node2&#45;&gt;Node12 -->
<g id="edge13" class="edge">
<title>Node2&#45;&gt;Node12</title>
<path fill="none" stroke="midnightblue" d="M109.23,-341.95C135.52,-355.44 188.53,-380.33 237,-389 284.72,-397.54 419.11,-374.9 491.64,-361.34"/>
<polygon fill="midnightblue" stroke="midnightblue" points="492.7,-364.7 501.88,-359.41 491.4,-357.82 492.7,-364.7"/>
</g>
<!-- Node16 -->
<g id="node16" class="node">
<title>Node16</title>
<g id="a_node16"><a xlink:href="basicArithm_8hpp.html#a08faec0b8e863df19e3f978758166482" target="_top" xlink:title="Subtracts one string representation of a number from another string representation of a number.">
<polygon fill="none" stroke="black" points="145,-304.5 145,-323.5 201,-323.5 201,-304.5 145,-304.5"/>
<text text-anchor="middle" x="173" y="-311.5" font-family="Helvetica,sans-Serif" font-size="10.00">subtract</text>
</a>
</g>
</g>
<!-- Node2&#45;&gt;Node16 -->
<g id="edge20" class="edge">
<title>Node2&#45;&gt;Node16</title>
<path fill="none" stroke="midnightblue" d="M108.97,-323.47C116.51,-320.82 125.76,-318.22 134.84,-316.14"/>
<polygon fill="midnightblue" stroke="midnightblue" points="135.84,-319.51 144.91,-314.04 134.4,-312.66 135.84,-319.51"/>
</g>
<!-- Node4&#45;&gt;Node3 -->
<g id="edge4" class="edge">
<title>Node4&#45;&gt;Node3</title>
<path fill="none" stroke="midnightblue" d="M410.63,-512.9C426.25,-516.85 445.47,-521.04 463,-523 642.73,-543.07 858.26,-521.75 951.82,-510.29"/>
<polygon fill="midnightblue" stroke="midnightblue" points="952.33,-513.76 961.82,-509.05 951.46,-506.81 952.33,-513.76"/>
</g>
<!-- Node5 -->
<g id="node5" class="node">
<title>Node5</title>
<g id="a_node5"><a xlink:href="symbols_8hpp.html#a4c2486dd425b34a3a7b6f64db79add2c" target="_top" xlink:title="Create a subscript string from a normal string.">
<polygon fill="none" stroke="black" points="496,-494.5 496,-513.5 585,-513.5 585,-494.5 496,-494.5"/>
<text text-anchor="middle" x="540.5" y="-501.5" font-family="Helvetica,sans-Serif" font-size="10.00">makeSubscript</text>
</a>
</g>
</g>
<!-- Node4&#45;&gt;Node5 -->
<g id="edge5" class="edge">
<title>Node4&#45;&gt;Node5</title>
<path fill="none" stroke="midnightblue" d="M410.71,-504C432.07,-504 460.77,-504 485.66,-504"/>
<polygon fill="midnightblue" stroke="midnightblue" points="485.71,-507.5 495.71,-504 485.71,-500.5 485.71,-507.5"/>
</g>
<!-- Node7 -->
<g id="node7" class="node">
<title>Node7</title>
<g id="a_node7"><a xlink:href="util_8hpp.html#afbed3096b7064ba07c83c6c15212b793" target="_top" xlink:title="Standardizes a number string.">
<polygon fill="none" stroke="black" points="484,-418.5 484,-437.5 597,-437.5 597,-418.5 484,-418.5"/>
<text text-anchor="middle" x="540.5" y="-425.5" font-family="Helvetica,sans-Serif" font-size="10.00">standardizeNumber</text>
</a>
</g>
</g>
<!-- Node4&#45;&gt;Node7 -->
<g id="edge7" class="edge">
<title>Node4&#45;&gt;Node7</title>
<path fill="none" stroke="midnightblue" d="M408.96,-494.48C415.18,-491.87 421.51,-488.72 427,-485 446.27,-471.97 442.9,-458.72 463,-447 466.72,-444.83 470.69,-442.9 474.78,-441.2"/>
<polygon fill="midnightblue" stroke="midnightblue" points="476.34,-444.35 484.5,-437.6 473.91,-437.79 476.34,-444.35"/>
</g>
<!-- Node6 -->
<g id="node6" class="node">
<title>Node6</title>
<g id="a_node6"><a xlink:href="util_8hpp.html#a2c093cfa77eddb403db19eaecf57fa6e" target="_top" xlink:title="Converts a Unicode character to UTF&#45;8 encoding.">
<polygon fill="none" stroke="black" points="671,-494.5 671,-513.5 757,-513.5 757,-494.5 671,-494.5"/>
<text text-anchor="middle" x="714" y="-501.5" font-family="Helvetica,sans-Serif" font-size="10.00">unicodeToUtf8</text>
</a>
</g>
</g>
<!-- Node5&#45;&gt;Node6 -->
<g id="edge6" class="edge">
<title>Node5&#45;&gt;Node6</title>
<path fill="none" stroke="midnightblue" d="M585.22,-504C608.23,-504 636.61,-504 660.77,-504"/>
<polygon fill="midnightblue" stroke="midnightblue" points="660.84,-507.5 670.84,-504 660.84,-500.5 660.84,-507.5"/>
</g>
<!-- Node8 -->
<g id="node8" class="node">
<title>Node8</title>
<g id="a_node8"><a xlink:href="util_8cpp.html#a32344e51c6ae485367b4fbf6bb535742" target="_top" xlink:title="Simplifies a string with non&#45;standard polarity (e.g., –1, —1, etc.).">
<polygon fill="none" stroke="black" points="667.5,-456.5 667.5,-475.5 760.5,-475.5 760.5,-456.5 667.5,-456.5"/>
<text text-anchor="middle" x="714" y="-463.5" font-family="Helvetica,sans-Serif" font-size="10.00">simplifyPolarity</text>
</a>
</g>
</g>
<!-- Node7&#45;&gt;Node8 -->
<g id="edge8" class="edge">
<title>Node7&#45;&gt;Node8</title>
<path fill="none" stroke="midnightblue" d="M584.78,-437.59C607.61,-442.65 635.82,-448.9 659.96,-454.25"/>
<polygon fill="midnightblue" stroke="midnightblue" points="659.51,-457.73 670.03,-456.48 661.03,-450.9 659.51,-457.73"/>
</g>
<!-- Node9 -->
<g id="node9" class="node">
<title>Node9</title>
<g id="a_node9"><a xlink:href="util_8cpp.html#a70584872ee14fa0befa8f25788f98a2b" target="_top" xlink:title="Simplifies a string that represents a number with non&#45;standard polarity.">
<polygon fill="none" stroke="black" points="810,-456.5 810,-475.5 926,-475.5 926,-456.5 810,-456.5"/>
<text text-anchor="middle" x="868" y="-463.5" font-family="Helvetica,sans-Serif" font-size="10.00">simplifyZeroPolarity</text>
</a>
</g>
</g>
<!-- Node8&#45;&gt;Node9 -->
<g id="edge9" class="edge">
<title>Node8&#45;&gt;Node9</title>
<path fill="none" stroke="midnightblue" d="M760.61,-466C772.94,-466 786.55,-466 799.8,-466"/>
<polygon fill="midnightblue" stroke="midnightblue" points="799.84,-469.5 809.84,-466 799.84,-462.5 799.84,-469.5"/>
</g>
<!-- Node9&#45;&gt;Node3 -->
<g id="edge10" class="edge">
<title>Node9&#45;&gt;Node3</title>
<path fill="none" stroke="midnightblue" d="M901.8,-475.59C918.28,-480.4 938.44,-486.3 956.13,-491.47"/>
<polygon fill="midnightblue" stroke="midnightblue" points="955.63,-494.97 966.21,-494.41 957.59,-488.25 955.63,-494.97"/>
</g>
<!-- Node11 -->
<g id="node11" class="node">
<title>Node11</title>
<g id="a_node11"><a xlink:href="colors_8cpp.html#aea0b5c095796ad31bd8aa86853337868" target="_top" xlink:title="Check if the output stream is a terminal.">
<polygon fill="none" stroke="black" points="507,-95.5 507,-114.5 574,-114.5 574,-95.5 507,-95.5"/>
<text text-anchor="middle" x="540.5" y="-102.5" font-family="Helvetica,sans-Serif" font-size="10.00">isTerminal</text>
</a>
</g>
</g>
<!-- Node10&#45;&gt;Node11 -->
<g id="edge12" class="edge">
<title>Node10&#45;&gt;Node11</title>
<path fill="none" stroke="midnightblue" d="M405.86,-152.46C432.48,-143.01 473.44,-128.46 503,-117.96"/>
<polygon fill="midnightblue" stroke="midnightblue" points="504.3,-121.22 512.55,-114.57 501.95,-114.62 504.3,-121.22"/>
</g>
<!-- Node12&#45;&gt;Node3 -->
<g id="edge14" class="edge">
<title>Node12&#45;&gt;Node3</title>
<path fill="none" stroke="midnightblue" d="M579.32,-356.97C592.2,-359.79 606.3,-364.18 618,-371 638.1,-382.72 633.32,-398.35 654,-409 762.52,-464.89 813.61,-399.37 926,-447 948.03,-456.34 969.11,-474.08 982.91,-487.3"/>
<polygon fill="midnightblue" stroke="midnightblue" points="980.57,-489.91 990.14,-494.46 985.5,-484.94 980.57,-489.91"/>
</g>
<!-- Node12&#45;&gt;Node8 -->
<g id="edge17" class="edge">
<title>Node12&#45;&gt;Node8</title>
<path fill="none" stroke="midnightblue" d="M579.39,-354.91C592.72,-357.52 607.08,-362.3 618,-371 645.68,-393.04 627.97,-418.04 654,-442 658.33,-445.98 663.4,-449.34 668.73,-452.17"/>
<polygon fill="midnightblue" stroke="midnightblue" points="667.3,-455.37 677.84,-456.45 670.27,-449.03 667.3,-455.37"/>
</g>
<!-- Node12&#45;&gt;Node9 -->
<g id="edge18" class="edge">
<title>Node12&#45;&gt;Node9</title>
<path fill="none" stroke="midnightblue" d="M579.42,-344.07C636.45,-332.94 741.14,-315.88 774,-333 820.27,-357.11 848.26,-415.92 860.21,-446.62"/>
<polygon fill="midnightblue" stroke="midnightblue" points="857,-448.05 863.77,-456.21 863.57,-445.62 857,-448.05"/>
</g>
<!-- Node13 -->
<g id="node13" class="node">
<title>Node13</title>
<g id="a_node13"><a xlink:href="util_8cpp.html#a8056dcad90ba9582ba25405a95c2f1e4" target="_top" xlink:title=" ">
<polygon fill="none" stroke="black" points="654,-266.5 654,-285.5 774,-285.5 774,-266.5 654,-266.5"/>
<text text-anchor="middle" x="714" y="-273.5" font-family="Helvetica,sans-Serif" font-size="10.00">removeLeadingZeros</text>
</a>
</g>
</g>
<!-- Node12&#45;&gt;Node13 -->
<g id="edge15" class="edge">
<title>Node12&#45;&gt;Node13</title>
<path fill="none" stroke="midnightblue" d="M579.06,-346.56C591.92,-343.7 606.06,-339.41 618,-333 637.12,-322.73 635.66,-311.61 654,-300 660.3,-296.02 667.36,-292.47 674.36,-289.4"/>
<polygon fill="midnightblue" stroke="midnightblue" points="675.87,-292.56 683.78,-285.52 673.2,-286.09 675.87,-292.56"/>
</g>
<!-- Node14 -->
<g id="node14" class="node">
<title>Node14</title>
<g id="a_node14"><a xlink:href="util_8cpp.html#a7f0f5e18cd1b1507ace9b814e6286dda" target="_top" xlink:title=" ">
<polygon fill="none" stroke="black" points="655.5,-380.5 655.5,-399.5 772.5,-399.5 772.5,-380.5 655.5,-380.5"/>
<text text-anchor="middle" x="714" y="-387.5" font-family="Helvetica,sans-Serif" font-size="10.00">removeTrailingZeros</text>
</a>
</g>
</g>
<!-- Node12&#45;&gt;Node14 -->
<g id="edge16" class="edge">
<title>Node12&#45;&gt;Node14</title>
<path fill="none" stroke="midnightblue" d="M579.14,-360.34C602.92,-365.61 634,-372.5 660.23,-378.31"/>
<polygon fill="midnightblue" stroke="midnightblue" points="659.49,-381.73 670.01,-380.48 661.01,-374.89 659.49,-381.73"/>
</g>
<!-- Node15 -->
<g id="node15" class="node">
<title>Node15</title>
<g id="a_node15"><a xlink:href="util_8hpp.html#a771e8f4ac1c095d4c0fef2c966cd69d7" target="_top" xlink:title="Splits a string into substrings based on a separator.">
<polygon fill="none" stroke="black" points="695,-342.5 695,-361.5 733,-361.5 733,-342.5 695,-342.5"/>
<text text-anchor="middle" x="714" y="-349.5" font-family="Helvetica,sans-Serif" font-size="10.00">split</text>
</a>
</g>
</g>
<!-- Node12&#45;&gt;Node15 -->
<g id="edge19" class="edge">
<title>Node12&#45;&gt;Node15</title>
<path fill="none" stroke="midnightblue" d="M579.14,-352C610.96,-352 655.86,-352 684.7,-352"/>
<polygon fill="midnightblue" stroke="midnightblue" points="684.91,-355.5 694.91,-352 684.91,-348.5 684.91,-355.5"/>
</g>
<!-- Node16&#45;&gt;Node2 -->
<g id="edge21" class="edge">
<title>Node16&#45;&gt;Node2</title>
<path fill="none" stroke="midnightblue" d="M155.44,-323.56C144.99,-327.23 131.27,-330.79 119.3,-333.02"/>
<polygon fill="midnightblue" stroke="midnightblue" points="118.68,-329.57 109.36,-334.61 119.79,-336.48 118.68,-329.57"/>
</g>
<!-- Node16&#45;&gt;Node3 -->
<g id="edge28" class="edge">
<title>Node16&#45;&gt;Node3</title>
<path fill="none" stroke="midnightblue" d="M193.43,-304.48C272.47,-267.22 575.12,-139.01 774,-257 876.23,-317.65 958.97,-439.47 987.91,-485.67"/>
<polygon fill="midnightblue" stroke="midnightblue" points="985.03,-487.66 993.26,-494.33 990.98,-483.98 985.03,-487.66"/>
</g>
<!-- Node16&#45;&gt;Node10 -->
<g id="edge33" class="edge">
<title>Node16&#45;&gt;Node10</title>
<path fill="none" stroke="midnightblue" d="M178.54,-304.3C187.42,-286.26 208.72,-247.27 237,-224 265.12,-200.86 303.25,-184.73 332.61,-174.73"/>
<polygon fill="midnightblue" stroke="midnightblue" points="333.8,-178.03 342.2,-171.58 331.61,-171.38 333.8,-178.03"/>
</g>
<!-- Node16&#45;&gt;Node12 -->
<g id="edge34" class="edge">
<title>Node16&#45;&gt;Node12</title>
<path fill="none" stroke="midnightblue" d="M201.17,-316.83C262.84,-323.24 414.05,-338.96 491.73,-347.03"/>
<polygon fill="midnightblue" stroke="midnightblue" points="491.42,-350.52 501.73,-348.07 492.15,-343.56 491.42,-350.52"/>
</g>
<!-- Node16&#45;&gt;Node17 -->
<g id="edge22" class="edge">
<title>Node16&#45;&gt;Node17</title>
<path fill="none" stroke="midnightblue" d="M201.23,-307.64C212.3,-305.14 225.24,-302.31 237,-300 271.01,-293.31 309.87,-286.73 338.01,-282.16"/>
<polygon fill="midnightblue" stroke="midnightblue" points="338.92,-285.56 348.24,-280.51 337.81,-278.65 338.92,-285.56"/>
</g>
<!-- Node21 -->
<g id="node21" class="node">
<title>Node21</title>
<g id="a_node21"><a xlink:href="subtractReport_8cpp.html#ad21f3d209885b1c419ff73800bb3b33b" target="_top" xlink:title=" ">
<polygon fill="none" stroke="black" points="335,-456.5 335,-475.5 421,-475.5 421,-456.5 335,-456.5"/>
<text text-anchor="middle" x="378" y="-463.5" font-family="Helvetica,sans-Serif" font-size="10.00">reportSubtract</text>
</a>
</g>
</g>
<!-- Node16&#45;&gt;Node21 -->
<g id="edge29" class="edge">
<title>Node16&#45;&gt;Node21</title>
<path fill="none" stroke="midnightblue" d="M180.41,-323.75C190.85,-339.09 212.82,-369.14 237,-389 270.22,-416.28 314.53,-438.75 344.33,-452.24"/>
<polygon fill="midnightblue" stroke="midnightblue" points="343.28,-455.6 353.84,-456.46 346.12,-449.2 343.28,-455.6"/>
</g>
<!-- Node24 -->
<g id="node24" class="node">
<title>Node24</title>
<g id="a_node24"><a xlink:href="subtract_8cpp.html#ac94acf58b23f19e226b9263fa3a2b0da" target="_top" xlink:title="Subtracts one string representation of a number from another string representation of a number.">
<polygon fill="none" stroke="black" points="237,-342.5 237,-361.5 293,-361.5 293,-342.5 237,-342.5"/>
<text text-anchor="middle" x="265" y="-349.5" font-family="Helvetica,sans-Serif" font-size="10.00">subtract</text>
</a>
</g>
</g>
<!-- Node16&#45;&gt;Node24 -->
<g id="edge35" class="edge">
<title>Node16&#45;&gt;Node24</title>
<path fill="none" stroke="midnightblue" d="M196.71,-323.59C207.37,-328.09 220.26,-333.53 231.9,-338.44"/>
<polygon fill="midnightblue" stroke="midnightblue" points="230.72,-341.75 241.3,-342.41 233.45,-335.3 230.72,-341.75"/>
</g>
<!-- Node17&#45;&gt;Node7 -->
<g id="edge27" class="edge">
<title>Node17&#45;&gt;Node7</title>
<path fill="none" stroke="midnightblue" d="M382.27,-285.83C391.05,-310.65 417.61,-376.22 463,-409 466.49,-411.52 470.29,-413.71 474.25,-415.61"/>
<polygon fill="midnightblue" stroke="midnightblue" points="473.18,-418.96 483.76,-419.55 475.85,-412.49 473.18,-418.96"/>
</g>
<!-- Node17&#45;&gt;Node12 -->
<g id="edge26" class="edge">
<title>Node17&#45;&gt;Node12</title>
<path fill="none" stroke="midnightblue" d="M401.23,-285.53C409.6,-289.52 419.02,-294.51 427,-300 444.88,-312.31 443.88,-322.73 463,-333 471.95,-337.81 482.15,-341.42 492.11,-344.14"/>
<polygon fill="midnightblue" stroke="midnightblue" points="491.39,-347.56 501.94,-346.56 493.07,-340.77 491.39,-347.56"/>
</g>
<!-- Node18 -->
<g id="node18" class="node">
<title>Node18</title>
<g id="a_node18"><a xlink:href="comparisonReport_8cpp.html#a9837660fa80278748f7f9bc397f5fba4" target="_top" xlink:title=" ">
<polygon fill="none" stroke="black" points="466,-304.5 466,-323.5 615,-323.5 615,-304.5 466,-304.5"/>
<text text-anchor="middle" x="540.5" y="-311.5" font-family="Helvetica,sans-Serif" font-size="10.00">reportComparisonAtInteger</text>
</a>
</g>
</g>
<!-- Node17&#45;&gt;Node18 -->
<g id="edge23" class="edge">
<title>Node17&#45;&gt;Node18</title>
<path fill="none" stroke="midnightblue" d="M407.69,-282.79C430.32,-288.15 462.43,-295.75 489.29,-302.11"/>
<polygon fill="midnightblue" stroke="midnightblue" points="488.76,-305.58 499.3,-304.48 490.37,-298.77 488.76,-305.58"/>
</g>
<!-- Node19 -->
<g id="node19" class="node">
<title>Node19</title>
<g id="a_node19"><a xlink:href="comparisonReport_8cpp.html#adc6ac398c16b4d30ab55b0ec5ceef9f3" target="_top" xlink:title=" ">
<polygon fill="none" stroke="black" points="470.5,-266.5 470.5,-285.5 610.5,-285.5 610.5,-266.5 470.5,-266.5"/>
<text text-anchor="middle" x="540.5" y="-273.5" font-family="Helvetica,sans-Serif" font-size="10.00">reportComparisonByDigit</text>
</a>
</g>
</g>
<!-- Node17&#45;&gt;Node19 -->
<g id="edge24" class="edge">
<title>Node17&#45;&gt;Node19</title>
<path fill="none" stroke="midnightblue" d="M407.69,-276C422.52,-276 441.42,-276 460.25,-276"/>
<polygon fill="midnightblue" stroke="midnightblue" points="460.37,-279.5 470.37,-276 460.37,-272.5 460.37,-279.5"/>
</g>
<!-- Node20 -->
<g id="node20" class="node">
<title>Node20</title>
<g id="a_node20"><a xlink:href="comparisonReport_8cpp.html#a8bdddfcaa5a1d0339df5705ec6ff2aff" target="_top" xlink:title=" ">
<polygon fill="none" stroke="black" points="463,-228.5 463,-247.5 618,-247.5 618,-228.5 463,-228.5"/>
<text text-anchor="middle" x="540.5" y="-235.5" font-family="Helvetica,sans-Serif" font-size="10.00">reportComparisonByPolarity</text>
</a>
</g>
</g>
<!-- Node17&#45;&gt;Node20 -->
<g id="edge25" class="edge">
<title>Node17&#45;&gt;Node20</title>
<path fill="none" stroke="midnightblue" d="M407.69,-269.21C430.32,-263.85 462.43,-256.25 489.29,-249.89"/>
<polygon fill="midnightblue" stroke="midnightblue" points="490.37,-253.23 499.3,-247.52 488.76,-246.42 490.37,-253.23"/>
</g>
<!-- Node21&#45;&gt;Node5 -->
<g id="edge30" class="edge">
<title>Node21&#45;&gt;Node5</title>
<path fill="none" stroke="midnightblue" d="M419.5,-475.59C440.68,-480.6 466.8,-486.79 489.26,-492.11"/>
<polygon fill="midnightblue" stroke="midnightblue" points="488.75,-495.58 499.29,-494.48 490.37,-488.77 488.75,-495.58"/>
</g>
<!-- Node22 -->
<g id="node22" class="node">
<title>Node22</title>
<g id="a_node22"><a xlink:href="util_8hpp.html#a8056dcad90ba9582ba25405a95c2f1e4" target="_top" xlink:title=" ">
<polygon fill="none" stroke="black" points="480.5,-380.5 480.5,-399.5 600.5,-399.5 600.5,-380.5 480.5,-380.5"/>
<text text-anchor="middle" x="540.5" y="-387.5" font-family="Helvetica,sans-Serif" font-size="10.00">removeLeadingZeros</text>
</a>
</g>
</g>
<!-- Node21&#45;&gt;Node22 -->
<g id="edge31" class="edge">
<title>Node21&#45;&gt;Node22</title>
<path fill="none" stroke="midnightblue" d="M401.23,-456.47C409.6,-452.48 419.02,-447.49 427,-442 444.88,-429.69 443.88,-419.27 463,-409 467.3,-406.69 471.88,-404.66 476.58,-402.87"/>
<polygon fill="midnightblue" stroke="midnightblue" points="478.03,-406.08 486.36,-399.53 475.76,-399.45 478.03,-406.08"/>
</g>
<!-- Node23 -->
<g id="node23" class="node">
<title>Node23</title>
<g id="a_node23"><a xlink:href="util_8hpp.html#ac87bf229222a2a4f32b8626281c6c282" target="_top" xlink:title=" ">
<polygon fill="none" stroke="black" points="481,-456.5 481,-475.5 600,-475.5 600,-456.5 481,-456.5"/>
<text text-anchor="middle" x="540.5" y="-463.5" font-family="Helvetica,sans-Serif" font-size="10.00">replaceLeadingZeros</text>
</a>
</g>
</g>
<!-- Node21&#45;&gt;Node23 -->
<g id="edge32" class="edge">
<title>Node21&#45;&gt;Node23</title>
<path fill="none" stroke="midnightblue" d="M421.17,-466C436.24,-466 453.65,-466 470.4,-466"/>
<polygon fill="midnightblue" stroke="midnightblue" points="470.72,-469.5 480.72,-466 470.72,-462.5 470.72,-469.5"/>
</g>
<!-- Node24&#45;&gt;Node2 -->
<g id="edge36" class="edge">
<title>Node24&#45;&gt;Node2</title>
<path fill="none" stroke="midnightblue" d="M236.8,-348.99C204.58,-345.42 151.25,-339.51 119.24,-335.96"/>
<polygon fill="midnightblue" stroke="midnightblue" points="119.58,-332.48 109.26,-334.86 118.81,-339.44 119.58,-332.48"/>
</g>
<!-- Node24&#45;&gt;Node3 -->
<g id="edge38" class="edge">
<title>Node24&#45;&gt;Node3</title>
<path fill="none" stroke="midnightblue" d="M266.59,-361.82C268.89,-390.99 279.75,-477.93 329,-523 400.5,-588.44 442.58,-580 539.5,-580 539.5,-580 539.5,-580 715,-580 810.22,-580 917.49,-539.64 968.67,-517.74"/>
<polygon fill="midnightblue" stroke="midnightblue" points="970.36,-520.82 978.14,-513.63 967.57,-514.4 970.36,-520.82"/>
</g>
<!-- Node24&#45;&gt;Node10 -->
<g id="edge40" class="edge">
<title>Node24&#45;&gt;Node10</title>
<path fill="none" stroke="midnightblue" d="M271.66,-342.32C289.17,-312.34 342.71,-220.69 365.99,-180.84"/>
<polygon fill="midnightblue" stroke="midnightblue" points="369.2,-182.29 371.22,-171.89 363.15,-178.76 369.2,-182.29"/>
</g>
<!-- Node24&#45;&gt;Node12 -->
<g id="edge41" class="edge">
<title>Node24&#45;&gt;Node12</title>
<path fill="none" stroke="midnightblue" d="M293.22,-352C339.52,-352 434.16,-352 491.7,-352"/>
<polygon fill="midnightblue" stroke="midnightblue" points="491.99,-355.5 501.99,-352 491.99,-348.5 491.99,-355.5"/>
</g>
<!-- Node24&#45;&gt;Node17 -->
<g id="edge37" class="edge">
<title>Node24&#45;&gt;Node17</title>
<path fill="none" stroke="midnightblue" d="M280.06,-342.37C298.82,-329.53 332.28,-306.62 354.55,-291.37"/>
<polygon fill="midnightblue" stroke="midnightblue" points="356.78,-294.08 363.06,-285.55 352.83,-288.31 356.78,-294.08"/>
</g>
<!-- Node24&#45;&gt;Node21 -->
<g id="edge39" class="edge">
<title>Node24&#45;&gt;Node21</title>
<path fill="none" stroke="midnightblue" d="M275.46,-361.72C294.3,-381.07 336.72,-424.63 360.33,-448.88"/>
<polygon fill="midnightblue" stroke="midnightblue" points="358.08,-451.58 367.56,-456.31 363.09,-446.7 358.08,-451.58"/>
</g>
<!-- Node24&#45;&gt;Node24 -->
<g id="edge42" class="edge">
<title>Node24&#45;&gt;Node24</title>
<path fill="none" stroke="midnightblue" d="M250.82,-361.76C243.92,-370.57 248.65,-380 265,-380 275.22,-380 280.9,-376.31 282.04,-371.4"/>
<polygon fill="midnightblue" stroke="midnightblue" points="285.38,-370.35 279.18,-361.76 278.66,-372.34 285.38,-370.35"/>
</g>
<!-- Node26 -->
<g id="node26" class="node">
<title>Node26</title>
<g id="a_node26"><a xlink:href="namespaceformats.html#a02e589d39c7fb74bc6095fffeb1480fb" target="_top" xlink:title="Set the text format to bold.">
<polygon fill="none" stroke="black" points="337,-38.5 337,-57.5 419,-57.5 419,-38.5 337,-38.5"/>
<text text-anchor="middle" x="378" y="-45.5" font-family="Helvetica,sans-Serif" font-size="10.00">formats::bold</text>
</a>
</g>
</g>
<!-- Node25&#45;&gt;Node26 -->
<g id="edge45" class="edge">
<title>Node25&#45;&gt;Node26</title>
<path fill="none" stroke="midnightblue" d="M285.08,-79.47C300,-74.36 321.21,-67.1 339.5,-60.84"/>
<polygon fill="midnightblue" stroke="midnightblue" points="340.7,-64.13 349.02,-57.58 338.43,-57.51 340.7,-64.13"/>
</g>
<!-- Node27 -->
<g id="node27" class="node">
<title>Node27</title>
<g id="a_node27"><a xlink:href="namespacecolors.html#ae360f74f6cd6e0fc3de2c245aba4d500" target="_top" xlink:title="Set the text color to red.">
<polygon fill="none" stroke="black" points="344,-114.5 344,-133.5 412,-133.5 412,-114.5 344,-114.5"/>
<text text-anchor="middle" x="378" y="-121.5" font-family="Helvetica,sans-Serif" font-size="10.00">colors::red</text>
</a>
</g>
</g>
<!-- Node25&#45;&gt;Node27 -->
<g id="edge47" class="edge">
<title>Node25&#45;&gt;Node27</title>
<path fill="none" stroke="midnightblue" d="M285.08,-92.53C300,-97.64 321.21,-104.9 339.5,-111.16"/>
<polygon fill="midnightblue" stroke="midnightblue" points="338.43,-114.49 349.02,-114.42 340.7,-107.87 338.43,-114.49"/>
</g>
<!-- Node28 -->
<g id="node28" class="node">
<title>Node28</title>
<g id="a_node28"><a xlink:href="colors_8hpp.html#a4661597771a019efa3f0f92cfb0c6e02" target="_top" xlink:title="Reset the text color and format to the default values.">
<polygon fill="none" stroke="black" points="357.5,-76.5 357.5,-95.5 398.5,-95.5 398.5,-76.5 357.5,-76.5"/>
<text text-anchor="middle" x="378" y="-83.5" font-family="Helvetica,sans-Serif" font-size="10.00">reset</text>
</a>
</g>
</g>
<!-- Node25&#45;&gt;Node28 -->
<g id="edge49" class="edge">
<title>Node25&#45;&gt;Node28</title>
<path fill="none" stroke="midnightblue" d="M285.08,-86C302.21,-86 327.63,-86 347.39,-86"/>
<polygon fill="midnightblue" stroke="midnightblue" points="347.42,-89.5 357.42,-86 347.42,-82.5 347.42,-89.5"/>
</g>
<!-- Node29 -->
<g id="node29" class="node">
<title>Node29</title>
<g id="a_node29"><a xlink:href="format_8hpp.html#aec7a78e0e53305094ec38dc8bd038de8" target="_top" xlink:title="Formats a string using a variable number of arguments.">
<polygon fill="none" stroke="black" points="349.5,-0.5 349.5,-19.5 406.5,-19.5 406.5,-0.5 349.5,-0.5"/>
<text text-anchor="middle" x="378" y="-7.5" font-family="Helvetica,sans-Serif" font-size="10.00">vFormat</text>
</a>
</g>
</g>
<!-- Node25&#45;&gt;Node29 -->
<g id="edge51" class="edge">
<title>Node25&#45;&gt;Node29</title>
<path fill="none" stroke="midnightblue" d="M274.54,-76.37C285.93,-64.01 307.2,-42.55 329,-29 332.41,-26.88 336.1,-24.92 339.87,-23.12"/>
<polygon fill="midnightblue" stroke="midnightblue" points="341.5,-26.23 349.27,-19.02 338.7,-19.81 341.5,-26.23"/>
</g>
<!-- Node26&#45;&gt;Node11 -->
<g id="edge46" class="edge">
<title>Node26&#45;&gt;Node11</title>
<path fill="none" stroke="midnightblue" d="M405.86,-57.54C432.48,-66.99 473.44,-81.54 503,-92.04"/>
<polygon fill="midnightblue" stroke="midnightblue" points="501.95,-95.38 512.55,-95.43 504.3,-88.78 501.95,-95.38"/>
</g>
<!-- Node27&#45;&gt;Node11 -->
<g id="edge48" class="edge">
<title>Node27&#45;&gt;Node11</title>
<path fill="none" stroke="midnightblue" d="M412.26,-120.06C436.74,-117.17 470.22,-113.2 496.7,-110.07"/>
<polygon fill="midnightblue" stroke="midnightblue" points="497.32,-113.52 506.84,-108.87 496.49,-106.57 497.32,-113.52"/>
</g>
<!-- Node28&#45;&gt;Node11 -->
<g id="edge50" class="edge">
<title>Node28&#45;&gt;Node11</title>
<path fill="none" stroke="midnightblue" d="M398.68,-88.33C423,-91.21 465.07,-96.19 496.91,-99.96"/>
<polygon fill="midnightblue" stroke="midnightblue" points="496.51,-103.44 506.85,-101.14 497.33,-96.48 496.51,-103.44"/>
</g>
</g>
</svg>
