<?xml version="1.0" encoding="UTF-8" standalone="no"?>
<!DOCTYPE svg PUBLIC "-//W3C//DTD SVG 1.1//EN"
 "http://www.w3.org/Graphics/SVG/1.1/DTD/svg11.dtd">
<!-- Generated by graphviz version 13.1.0 (20250701.0955)
 -->
<!-- Title: steppable::Matrix::rref Pages: 1 -->
<!--zoomable 643 -->

<svg id="main" version="1.1" xmlns="http://www.w3.org/2000/svg" xmlns:xlink="http://www.w3.org/1999/xlink" xml:space="preserve" onload="init(evt)">

<style type="text/css"><![CDATA[
.node, .edge {opacity: 0.7;}
.node.selected, .edge.selected {opacity: 1;}
.edge:hover path { stroke: red; }
.edge:hover polygon { stroke: red; fill: red; }
]]></style>

<defs>
  <circle id="rim" cx="0" cy="0" r="7"/>
  <circle id="rim2" cx="0" cy="0" r="3.5"/>
  <g id="zoomPlus">
    <use xlink:href="#rim" fill="#404040"><set attributeName="fill" to="#808080" begin="zoomplus.mouseover" end="zoomplus.mouseout"/></use>
    <path d="M-4,0h8M0,-4v8" fill="none" stroke="white" stroke-width="1.5" pointer-events="none"/>
  </g>
  <g id="zoomMin">
    <use xlink:href="#rim" fill="#404040"><set attributeName="fill" to="#808080" begin="zoomminus.mouseover" end="zoomminus.mouseout"/></use>
    <path d="M-4,0h8" fill="none" stroke="white" stroke-width="1.5" pointer-events="none"/>
  </g>
  <g id="arrowUp" transform="translate(30 24)">
    <use xlink:href="#rim"/>
    <path pointer-events="none" fill="none" stroke="white" stroke-width="1.5" d="M0,-3.0v7 M-2.5,-0.5L0,-3.0L2.5,-0.5"/>
  </g>
  <g id="arrowRight" transform="rotate(90) translate(36 -43)">
    <use xlink:href="#rim"/>
    <path pointer-events="none" fill="none" stroke="white" stroke-width="1.5" d="M0,-3.0v7 M-2.5,-0.5L0,-3.0L2.5,-0.5"/>
  </g>
  <g id="arrowDown" transform="rotate(180) translate(-30 -48)">
    <use xlink:href="#rim"/>
    <path pointer-events="none" fill="none" stroke="white" stroke-width="1.5" d="M0,-3.0v7 M-2.5,-0.5L0,-3.0L2.5,-0.5"/>
  </g>
  <g id="arrowLeft" transform="rotate(270) translate(-36 17)">
    <use xlink:href="#rim"/>
    <path pointer-events="none" fill="none" stroke="white" stroke-width="1.5" d="M0,-3.0v7 M-2.5,-0.5L0,-3.0L2.5,-0.5"/>
  </g>
  <g id="resetDef">
    <use xlink:href="#rim2" fill="#404040"><set attributeName="fill" to="#808080" begin="reset.mouseover" end="reset.mouseout"/></use>
  </g>
</defs>
<script type="application/ecmascript">
var viewWidth = 2397;
var viewHeight = 643;
var sectionId = 'dynsection-40';
</script>
<script type="application/ecmascript" xlink:href="svg.min.js"/>
<svg id="graph" class="graph">
<g id="viewport">
<title>steppable::Matrix::rref</title>
<!-- Node1 -->
<g id="Node000001" class="node">
<title>Node1</title>
<g id="a_Node000001"><a xlink:title="Converts the matrix to its reduced row echelon form.">
<polygon fill="#999999" stroke="#666666" points="124.75,-522.07 0,-522.07 0,-501.32 124.75,-501.32 124.75,-522.07"/>
<text xml:space="preserve" text-anchor="middle" x="62.38" y="-508.57" font-family="Helvetica,sans-Serif" font-size="10.00">steppable::Matrix::rref</text>
</a>
</g>
</g>
<!-- Node2 -->
<g id="Node000002" class="node">
<title>Node2</title>
<g id="a_Node000002"><a xlink:href="namespacesteppable_1_1output.html#abf5e49d885e17b4267904b4f9bfdea76" target="_top" xlink:title="Prints an info message.">
<polygon fill="white" stroke="#666666" points="287,-635.07 160.75,-635.07 160.75,-614.32 287,-614.32 287,-635.07"/>
<text xml:space="preserve" text-anchor="middle" x="223.88" y="-621.57" font-family="Helvetica,sans-Serif" font-size="10.00">steppable::output::info</text>
</a>
</g>
</g>
<!-- Node1&#45;&gt;Node2 -->
<g id="edge1_Node000001_Node000002" class="edge">
<title>Node1&#45;&gt;Node2</title>
<g id="a_edge1_Node000001_Node000002"><a xlink:title=" ">
<path fill="none" stroke="#63b8ff" d="M71.54,-522.39C86.91,-541.8 122.08,-582.92 160.75,-605.69 163.05,-607.05 165.45,-608.31 167.91,-609.49"/>
<polygon fill="#63b8ff" stroke="#63b8ff" points="166.36,-612.64 176.94,-613.3 169.09,-606.19 166.36,-612.64"/>
</a>
</g>
</g>
<!-- Node3 -->
<g id="Node000003" class="node">
<title>Node3</title>
<g id="a_Node000003"><a xlink:href="classsteppable_1_1Matrix.html#acfafe4150b4948391b6e6a7be3649411" target="_top" xlink:title="Default constructor for the Matrix class.">
<polygon fill="white" stroke="#666666" points="277.62,-596.44 170.12,-596.44 170.12,-562.94 277.62,-562.94 277.62,-596.44"/>
<text xml:space="preserve" text-anchor="start" x="178.12" y="-582.94" font-family="Helvetica,sans-Serif" font-size="10.00">steppable::Matrix::</text>
<text xml:space="preserve" text-anchor="middle" x="223.88" y="-570.19" font-family="Helvetica,sans-Serif" font-size="10.00">Matrix</text>
</a>
</g>
</g>
<!-- Node1&#45;&gt;Node3 -->
<g id="edge2_Node000001_Node000003" class="edge">
<title>Node1&#45;&gt;Node3</title>
<g id="a_edge2_Node000001_Node000003"><a xlink:title=" ">
<path fill="none" stroke="#63b8ff" d="M88.65,-522.47C111,-532 144.3,-546.19 172.13,-558.06"/>
<polygon fill="#63b8ff" stroke="#63b8ff" points="170.53,-561.18 181.11,-561.89 173.28,-554.75 170.53,-561.18"/>
</a>
</g>
</g>
<!-- Node4 -->
<g id="Node000004" class="node">
<title>Node4</title>
<g id="a_Node000004"><a xlink:href="namespacesteppable_1_1prettyPrint_1_1printers.html#aa7a36981f941d27d5003c2db6d4b8413" target="_top" xlink:title="Pretty prints a matrix.">
<polygon fill="white" stroke="#666666" points="445.5,-528.44 323.75,-528.44 323.75,-494.94 445.5,-494.94 445.5,-528.44"/>
<text xml:space="preserve" text-anchor="start" x="331.75" y="-514.94" font-family="Helvetica,sans-Serif" font-size="10.00">steppable::prettyPrint</text>
<text xml:space="preserve" text-anchor="middle" x="384.62" y="-502.19" font-family="Helvetica,sans-Serif" font-size="10.00">::printers::ppMatrix</text>
</a>
</g>
</g>
<!-- Node1&#45;&gt;Node4 -->
<g id="edge3_Node000001_Node000004" class="edge">
<title>Node1&#45;&gt;Node4</title>
<g id="a_edge3_Node000001_Node000004"><a xlink:title=" ">
<path fill="none" stroke="#63b8ff" d="M125.18,-514.62C136.98,-515.07 149.25,-515.46 160.75,-515.69 216.85,-516.85 230.9,-516.86 287,-515.69 295.08,-515.53 303.53,-515.28 311.94,-514.99"/>
<polygon fill="#63b8ff" stroke="#63b8ff" points="311.95,-518.49 321.82,-514.63 311.7,-511.5 311.95,-518.49"/>
</a>
</g>
</g>
<!-- Node5 -->
<g id="Node000005" class="node">
<title>Node5</title>
<g id="a_Node000005"><a xlink:href="classsteppable_1_1Matrix.html#a2e60d5815edf306d4ec7a06418239d7f" target="_top" xlink:title="Presents the matrix as a string.">
<polygon fill="white" stroke="#666666" points="277.62,-506.44 170.12,-506.44 170.12,-472.94 277.62,-472.94 277.62,-506.44"/>
<text xml:space="preserve" text-anchor="start" x="178.12" y="-492.94" font-family="Helvetica,sans-Serif" font-size="10.00">steppable::Matrix::</text>
<text xml:space="preserve" text-anchor="middle" x="223.88" y="-480.19" font-family="Helvetica,sans-Serif" font-size="10.00">present</text>
</a>
</g>
</g>
<!-- Node1&#45;&gt;Node5 -->
<g id="edge4_Node000001_Node000005" class="edge">
<title>Node1&#45;&gt;Node5</title>
<g id="a_edge4_Node000001_Node000005"><a xlink:title=" ">
<path fill="none" stroke="#63b8ff" d="M125.04,-503.19C135.97,-501.68 147.38,-500.11 158.39,-498.59"/>
<polygon fill="#63b8ff" stroke="#63b8ff" points="158.75,-502.07 168.17,-497.24 157.79,-495.14 158.75,-502.07"/>
</a>
</g>
</g>
<!-- Node6 -->
<g id="Node000006" class="node">
<title>Node6</title>
<g id="a_Node000006"><a xlink:href="classsteppable_1_1Number.html#aa512ee40e93e4cd6b891fb6d6f76be2c" target="_top" xlink:title="Presents the number in a human&#45;readable format.">
<polygon fill="white" stroke="#666666" points="281.38,-454.44 166.38,-454.44 166.38,-420.94 281.38,-420.94 281.38,-454.44"/>
<text xml:space="preserve" text-anchor="start" x="174.38" y="-440.94" font-family="Helvetica,sans-Serif" font-size="10.00">steppable::Number::</text>
<text xml:space="preserve" text-anchor="middle" x="223.88" y="-428.19" font-family="Helvetica,sans-Serif" font-size="10.00">present</text>
</a>
</g>
</g>
<!-- Node1&#45;&gt;Node6 -->
<g id="edge6_Node000001_Node000006" class="edge">
<title>Node1&#45;&gt;Node6</title>
<g id="a_edge6_Node000001_Node000006"><a xlink:title=" ">
<path fill="none" stroke="#63b8ff" d="M84.47,-500.83C104.07,-490.84 134.16,-475.8 160.75,-463.69 163.89,-462.26 167.14,-460.82 170.42,-459.38"/>
<polygon fill="#63b8ff" stroke="#63b8ff" points="171.77,-462.61 179.56,-455.43 168.99,-456.18 171.77,-462.61"/>
</a>
</g>
</g>
<!-- Node7 -->
<g id="Node000007" class="node">
<title>Node7</title>
<g id="a_Node000007"><a xlink:href="classsteppable_1_1Matrix.html#ab5c7f1432b6b5e7c510d20a92083bd16" target="_top" xlink:title="Rounds off all data inside a vector to a specified precision.">
<polygon fill="white" stroke="#666666" points="277.62,-402.44 170.12,-402.44 170.12,-368.94 277.62,-368.94 277.62,-402.44"/>
<text xml:space="preserve" text-anchor="start" x="178.12" y="-388.94" font-family="Helvetica,sans-Serif" font-size="10.00">steppable::Matrix::</text>
<text xml:space="preserve" text-anchor="middle" x="223.88" y="-376.19" font-family="Helvetica,sans-Serif" font-size="10.00">roundOffValues</text>
</a>
</g>
</g>
<!-- Node1&#45;&gt;Node7 -->
<g id="edge7_Node000001_Node000007" class="edge">
<title>Node1&#45;&gt;Node7</title>
<g id="a_edge7_Node000001_Node000007"><a xlink:title=" ">
<path fill="none" stroke="#63b8ff" d="M71.38,-500.98C86.74,-481.03 122.29,-437.87 160.75,-411.69 162.53,-410.49 164.37,-409.32 166.26,-408.19"/>
<polygon fill="#63b8ff" stroke="#63b8ff" points="167.56,-411.46 174.67,-403.6 164.21,-405.31 167.56,-411.46"/>
</a>
</g>
</g>
<!-- Node5&#45;&gt;Node4 -->
<g id="edge5_Node000005_Node000004" class="edge">
<title>Node5&#45;&gt;Node4</title>
<g id="a_edge5_Node000005_Node000004"><a xlink:title=" ">
<path fill="none" stroke="#63b8ff" d="M277.74,-497.02C288.7,-498.54 300.42,-500.16 311.92,-501.76"/>
<polygon fill="#63b8ff" stroke="#63b8ff" points="311.43,-505.22 321.82,-503.13 312.39,-498.29 311.43,-505.22"/>
</a>
</g>
</g>
<!-- Node8 -->
<g id="Node000008" class="node">
<title>Node8</title>
<g id="a_Node000008"><a xlink:href="namespacesteppable_1_1____internals_1_1numUtils.html#aa8d578b5e8f5c2eceb4ce481d5e0a148" target="_top" xlink:title="Round off a number to the nearest integer.">
<polygon fill="white" stroke="#666666" points="446.25,-311.44 323,-311.44 323,-277.94 446.25,-277.94 446.25,-311.44"/>
<text xml:space="preserve" text-anchor="start" x="331" y="-297.94" font-family="Helvetica,sans-Serif" font-size="10.00">steppable::__internals</text>
<text xml:space="preserve" text-anchor="middle" x="384.62" y="-285.19" font-family="Helvetica,sans-Serif" font-size="10.00">::numUtils::roundOff</text>
</a>
</g>
</g>
<!-- Node7&#45;&gt;Node8 -->
<g id="edge8_Node000007_Node000008" class="edge">
<title>Node7&#45;&gt;Node8</title>
<g id="a_edge8_Node000007_Node000008"><a xlink:title=" ">
<path fill="none" stroke="#63b8ff" d="M254.73,-368.58C279.93,-354.13 316.21,-333.34 343.87,-317.48"/>
<polygon fill="#63b8ff" stroke="#63b8ff" points="345.38,-320.65 352.32,-312.64 341.9,-314.58 345.38,-320.65"/>
</a>
</g>
</g>
<!-- Node24 -->
<g id="Node000024" class="node">
<title>Node24</title>
<g id="a_Node000024"><a xlink:href="namespacesteppable_1_1____internals_1_1numUtils.html#ae9066a66afcc38203d68643378d1fde8" target="_top" xlink:title="Standardizes a number string.">
<polygon fill="white" stroke="#666666" points="1805,-333.44 1636.75,-333.44 1636.75,-299.94 1805,-299.94 1805,-333.44"/>
<text xml:space="preserve" text-anchor="start" x="1644.75" y="-319.94" font-family="Helvetica,sans-Serif" font-size="10.00">steppable::__internals</text>
<text xml:space="preserve" text-anchor="middle" x="1720.88" y="-307.19" font-family="Helvetica,sans-Serif" font-size="10.00">::numUtils::standardizeNumber</text>
</a>
</g>
</g>
<!-- Node7&#45;&gt;Node24 -->
<g id="edge43_Node000007_Node000024" class="edge">
<title>Node7&#45;&gt;Node24</title>
<g id="a_edge43_Node000007_Node000024"><a xlink:title=" ">
<path fill="none" stroke="#63b8ff" d="M277.89,-399.77C340.67,-415.17 448.61,-437.69 542.88,-437.69 542.88,-437.69 542.88,-437.69 1380.88,-437.69 1496.36,-437.69 1621.78,-374.64 1682.6,-339.56"/>
<polygon fill="#63b8ff" stroke="#63b8ff" points="1684.32,-342.61 1691.19,-334.54 1680.79,-336.57 1684.32,-342.61"/>
</a>
</g>
</g>
<!-- Node9 -->
<g id="Node000009" class="node">
<title>Node9</title>
<g id="a_Node000009"><a xlink:href="namespacesteppable_1_1____internals_1_1calc.html#a8ee74a3b901b7b3f12f0391a0d2be7b8" target="_top" xlink:title="Adds two string representations of numbers, and performs with the column method.">
<polygon fill="white" stroke="#666666" points="605.5,-298.44 482.25,-298.44 482.25,-264.94 605.5,-264.94 605.5,-298.44"/>
<text xml:space="preserve" text-anchor="start" x="490.25" y="-284.94" font-family="Helvetica,sans-Serif" font-size="10.00">steppable::__internals</text>
<text xml:space="preserve" text-anchor="middle" x="543.88" y="-272.19" font-family="Helvetica,sans-Serif" font-size="10.00">::calc::add</text>
</a>
</g>
</g>
<!-- Node8&#45;&gt;Node9 -->
<g id="edge9_Node000008_Node000009" class="edge">
<title>Node8&#45;&gt;Node9</title>
<g id="a_edge9_Node000008_Node000009"><a xlink:title=" ">
<path fill="none" stroke="#63b8ff" d="M446.42,-289.67C454.35,-289.01 462.54,-288.34 470.63,-287.67"/>
<polygon fill="#63b8ff" stroke="#63b8ff" points="470.79,-291.17 480.47,-286.85 470.22,-284.19 470.79,-291.17"/>
</a>
</g>
</g>
<!-- Node19 -->
<g id="Node000019" class="node">
<title>Node19</title>
<g id="a_Node000019"><a xlink:href="namespacesteppable_1_1____internals_1_1numUtils.html#af904a63deb5a7cc413325eb08b2118f3" target="_top" xlink:title=" ">
<polygon fill="white" stroke="#666666" points="1787,-207.44 1654.75,-207.44 1654.75,-173.94 1787,-173.94 1787,-207.44"/>
<text xml:space="preserve" text-anchor="start" x="1662.75" y="-193.94" font-family="Helvetica,sans-Serif" font-size="10.00">steppable::__internals</text>
<text xml:space="preserve" text-anchor="middle" x="1720.88" y="-181.19" font-family="Helvetica,sans-Serif" font-size="10.00">::numUtils::splitNumber</text>
</a>
</g>
</g>
<!-- Node8&#45;&gt;Node19 -->
<g id="edge42_Node000008_Node000019" class="edge">
<title>Node8&#45;&gt;Node19</title>
<g id="a_edge42_Node000008_Node000019"><a xlink:title=" ">
<path fill="none" stroke="#63b8ff" d="M400.96,-277.65C437.9,-237.85 536.52,-138.86 641.5,-94.69 811.37,-23.23 868.21,-39.69 1052.5,-39.69 1052.5,-39.69 1052.5,-39.69 1380.88,-39.69 1480.9,-39.69 1511.3,-42.94 1600.75,-87.69 1639.29,-106.98 1675.54,-141.57 1697.7,-165.3"/>
<polygon fill="#63b8ff" stroke="#63b8ff" points="1694.85,-167.38 1704.19,-172.39 1700.02,-162.65 1694.85,-167.38"/>
</a>
</g>
</g>
<!-- Node25 -->
<g id="Node000025" class="node">
<title>Node25</title>
<g id="a_Node000025"><a xlink:href="namespacesteppable_1_1____internals_1_1numUtils.html#a4d4ffec10442fd8ab9b778e4ff5168dc" target="_top" xlink:title="Simplifies a string with non&#45;standard polarity (e.g., –1, —1, etc.).">
<polygon fill="white" stroke="#666666" points="2001.75,-333.44 1853,-333.44 1853,-299.94 2001.75,-299.94 2001.75,-333.44"/>
<text xml:space="preserve" text-anchor="start" x="1861" y="-319.94" font-family="Helvetica,sans-Serif" font-size="10.00">steppable::__internals</text>
<text xml:space="preserve" text-anchor="middle" x="1927.38" y="-307.19" font-family="Helvetica,sans-Serif" font-size="10.00">::numUtils::simplifyPolarity</text>
</a>
</g>
</g>
<!-- Node8&#45;&gt;Node25 -->
<g id="edge41_Node000008_Node000025" class="edge">
<title>Node8&#45;&gt;Node25</title>
<g id="a_edge41_Node000008_Node000025"><a xlink:title=" ">
<path fill="none" stroke="#63b8ff" d="M420.13,-311.9C478.31,-339.27 600.3,-389.69 709.62,-389.69 709.62,-389.69 709.62,-389.69 1054.5,-389.69 1388.71,-389.69 1473.91,-388.27 1805,-342.69 1817.47,-340.98 1830.56,-338.69 1843.35,-336.19"/>
<polygon fill="#63b8ff" stroke="#63b8ff" points="1843.89,-339.65 1853,-334.24 1842.5,-332.79 1843.89,-339.65"/>
</a>
</g>
</g>
<!-- Node10 -->
<g id="Node000010" class="node">
<title>Node10</title>
<g id="a_Node000010"><a xlink:href="namespacesteppable_1_1localization.html#ae3e0bed8db649955a0360fa32175a0bc" target="_top" xlink:title="Gets a string from origin, and by the key.">
<polygon fill="white" stroke="#666666" points="779.75,-249.07 641.5,-249.07 641.5,-228.32 779.75,-228.32 779.75,-249.07"/>
<text xml:space="preserve" text-anchor="middle" x="710.62" y="-235.57" font-family="Helvetica,sans-Serif" font-size="10.00">steppable::localization::$</text>
</a>
</g>
</g>
<!-- Node9&#45;&gt;Node10 -->
<g id="edge10_Node000009_Node000010" class="edge">
<title>Node9&#45;&gt;Node10</title>
<g id="a_edge10_Node000009_Node000010"><a xlink:title=" ">
<path fill="none" stroke="#63b8ff" d="M605.75,-265.81C622.59,-261.41 640.7,-256.68 657.02,-252.42"/>
<polygon fill="#63b8ff" stroke="#63b8ff" points="657.74,-255.85 666.53,-249.94 655.97,-249.08 657.74,-255.85"/>
</a>
</g>
</g>
<!-- Node17 -->
<g id="Node000017" class="node">
<title>Node17</title>
<g id="a_Node000017"><a xlink:href="namespacesteppable_1_1____internals_1_1calc.html#a2173185243502a4e962d22b97becdbbb" target="_top" xlink:title="Subtracts one string representation of a number from another string representation of a number.">
<polygon fill="white" stroke="#666666" points="1441.5,-327.44 1318.25,-327.44 1318.25,-293.94 1441.5,-293.94 1441.5,-327.44"/>
<text xml:space="preserve" text-anchor="start" x="1326.25" y="-313.94" font-family="Helvetica,sans-Serif" font-size="10.00">steppable::__internals</text>
<text xml:space="preserve" text-anchor="middle" x="1379.88" y="-301.19" font-family="Helvetica,sans-Serif" font-size="10.00">::calc::subtract</text>
</a>
</g>
</g>
<!-- Node9&#45;&gt;Node17 -->
<g id="edge40_Node000009_Node000017" class="edge">
<title>Node9&#45;&gt;Node17</title>
<g id="a_edge40_Node000009_Node000017"><a xlink:title=" ">
<path fill="none" stroke="#63b8ff" d="M605.89,-292.96C672.76,-308.58 783.5,-333.69 880.88,-333.69 880.88,-333.69 880.88,-333.69 1054.5,-333.69 1141.38,-333.69 1240.72,-322.18 1306.33,-314.91"/>
<polygon fill="#63b8ff" stroke="#63b8ff" points="1306.71,-318.39 1316.27,-313.82 1305.94,-311.43 1306.71,-318.39"/>
</a>
</g>
</g>
<!-- Node9&#45;&gt;Node19 -->
<g id="edge39_Node000009_Node000019" class="edge">
<title>Node9&#45;&gt;Node19</title>
<g id="a_edge39_Node000009_Node000019"><a xlink:title=" ">
<path fill="none" stroke="#63b8ff" d="M559.33,-264.65C602.63,-215.62 737.22,-77.69 880.88,-77.69 880.88,-77.69 880.88,-77.69 1380.88,-77.69 1494.06,-77.69 1618.1,-135.09 1680.03,-168.07"/>
<polygon fill="#63b8ff" stroke="#63b8ff" points="1678.35,-171.14 1688.81,-172.81 1681.68,-164.98 1678.35,-171.14"/>
</a>
</g>
</g>
<!-- Node20 -->
<g id="Node000020" class="node">
<title>Node20</title>
<g id="a_Node000020"><a xlink:href="namespacesteppable_1_1____internals_1_1numUtils.html#a6cc23d8eda7defd591a87a8b1d8b869d" target="_top" xlink:title="Checks if a given string is a zero string.">
<polygon fill="white" stroke="#666666" points="2388.5,-210.44 2257,-210.44 2257,-176.94 2388.5,-176.94 2388.5,-210.44"/>
<text xml:space="preserve" text-anchor="start" x="2265" y="-196.94" font-family="Helvetica,sans-Serif" font-size="10.00">steppable::__internals</text>
<text xml:space="preserve" text-anchor="middle" x="2322.75" y="-184.19" font-family="Helvetica,sans-Serif" font-size="10.00">::numUtils::isZeroString</text>
</a>
</g>
</g>
<!-- Node9&#45;&gt;Node20 -->
<g id="edge38_Node000009_Node000020" class="edge">
<title>Node9&#45;&gt;Node20</title>
<g id="a_edge38_Node000009_Node000020"><a xlink:title=" ">
<path fill="none" stroke="#63b8ff" d="M548.56,-264.63C557.49,-227.5 583.97,-139.18 641.5,-94.69 789.66,19.87 865.22,-1.69 1052.5,-1.69 1052.5,-1.69 1052.5,-1.69 1928.38,-1.69 2079.45,-1.69 2233.1,-117.47 2294.23,-169.22"/>
<polygon fill="#63b8ff" stroke="#63b8ff" points="2291.88,-171.82 2301.75,-175.67 2296.44,-166.5 2291.88,-171.82"/>
</a>
</g>
</g>
<!-- Node11 -->
<g id="Node000011" class="node">
<title>Node11</title>
<g id="a_Node000011"><a xlink:href="namespacesteppable_1_1output.html#aaeed30985adb9664fb71758754dad2fa" target="_top" xlink:title="Prints an error message.">
<polygon fill="white" stroke="#666666" points="1274.38,-229.44 1166.88,-229.44 1166.88,-195.94 1274.38,-195.94 1274.38,-229.44"/>
<text xml:space="preserve" text-anchor="start" x="1174.88" y="-215.94" font-family="Helvetica,sans-Serif" font-size="10.00">steppable::output::</text>
<text xml:space="preserve" text-anchor="middle" x="1220.62" y="-203.19" font-family="Helvetica,sans-Serif" font-size="10.00">error</text>
</a>
</g>
</g>
<!-- Node10&#45;&gt;Node11 -->
<g id="edge11_Node000010_Node000011" class="edge">
<title>Node10&#45;&gt;Node11</title>
<g id="a_edge11_Node000010_Node000011"><a xlink:title=" ">
<path fill="none" stroke="#63b8ff" d="M780.14,-235.19C878.64,-230.15 1058.98,-220.92 1155.17,-215.99"/>
<polygon fill="#63b8ff" stroke="#63b8ff" points="1155.16,-219.5 1164.96,-215.49 1154.8,-212.51 1155.16,-219.5"/>
</a>
</g>
</g>
<!-- Node12 -->
<g id="Node000012" class="node">
<title>Node12</title>
<g id="a_Node000012"><a xlink:href="namespacesteppable_1_1____internals_1_1utils.html#a9f8874d38acee1827b2ad2aef3dc8386" target="_top" xlink:title=" ">
<polygon fill="white" stroke="#666666" points="948,-191.44 815.75,-191.44 815.75,-157.94 948,-157.94 948,-191.44"/>
<text xml:space="preserve" text-anchor="start" x="823.75" y="-177.94" font-family="Helvetica,sans-Serif" font-size="10.00">steppable::__internals</text>
<text xml:space="preserve" text-anchor="middle" x="881.88" y="-165.19" font-family="Helvetica,sans-Serif" font-size="10.00">::utils::getConfDirectory</text>
</a>
</g>
</g>
<!-- Node10&#45;&gt;Node12 -->
<g id="edge12_Node000010_Node000012" class="edge">
<title>Node10&#45;&gt;Node12</title>
<g id="a_edge12_Node000010_Node000012"><a xlink:title=" ">
<path fill="none" stroke="#63b8ff" d="M740.34,-227.84C763.42,-219.11 796.54,-206.58 824.84,-195.88"/>
<polygon fill="#63b8ff" stroke="#63b8ff" points="825.88,-199.23 834,-192.42 823.41,-192.68 825.88,-199.23"/>
</a>
</g>
</g>
<!-- Node26 -->
<g id="Node000026" class="node">
<title>Node26</title>
<g id="a_Node000026"><a xlink:href="namespacesteppable_1_1localization.html#abb3cdf12222c59b01352ee909d1d5e97" target="_top" xlink:title=" ">
<polygon fill="white" stroke="#666666" points="1116.62,-139.44 990.38,-139.44 990.38,-105.94 1116.62,-105.94 1116.62,-139.44"/>
<text xml:space="preserve" text-anchor="start" x="998.38" y="-125.94" font-family="Helvetica,sans-Serif" font-size="10.00">steppable::localization</text>
<text xml:space="preserve" text-anchor="middle" x="1053.5" y="-113.19" font-family="Helvetica,sans-Serif" font-size="10.00">::getLanguage</text>
</a>
</g>
</g>
<!-- Node10&#45;&gt;Node26 -->
<g id="edge36_Node000010_Node000026" class="edge">
<title>Node10&#45;&gt;Node26</title>
<g id="a_edge36_Node000010_Node000026"><a xlink:title=" ">
<path fill="none" stroke="#63b8ff" d="M720.01,-228.07C736.15,-208.49 773.7,-167.03 815.75,-148.69 867.16,-126.28 930.55,-120.32 978.79,-119.67"/>
<polygon fill="#63b8ff" stroke="#63b8ff" points="978.59,-123.17 988.58,-119.62 978.56,-116.17 978.59,-123.17"/>
</a>
</g>
</g>
<!-- Node13 -->
<g id="Node000013" class="node">
<title>Node13</title>
<g id="a_Node000013"><a xlink:href="namespacesteppable_1_1____internals_1_1utils.html#af55d306f308c40f7cf64ad6cdb0235f7" target="_top" xlink:title=" ">
<polygon fill="white" stroke="#666666" points="1123,-191.44 984,-191.44 984,-157.94 1123,-157.94 1123,-191.44"/>
<text xml:space="preserve" text-anchor="start" x="992" y="-177.94" font-family="Helvetica,sans-Serif" font-size="10.00">steppable::__internals</text>
<text xml:space="preserve" text-anchor="middle" x="1053.5" y="-165.19" font-family="Helvetica,sans-Serif" font-size="10.00">::utils::getHomeDirectory</text>
</a>
</g>
</g>
<!-- Node12&#45;&gt;Node13 -->
<g id="edge13_Node000012_Node000013" class="edge">
<title>Node12&#45;&gt;Node13</title>
<g id="a_edge13_Node000012_Node000013"><a xlink:title=" ">
<path fill="none" stroke="#63b8ff" d="M948.46,-174.69C956.31,-174.69 964.4,-174.69 972.44,-174.69"/>
<polygon fill="#63b8ff" stroke="#63b8ff" points="972.21,-178.19 982.21,-174.69 972.21,-171.19 972.21,-178.19"/>
</a>
</g>
</g>
<!-- Node13&#45;&gt;Node11 -->
<g id="edge35_Node000013_Node000011" class="edge">
<title>Node13&#45;&gt;Node11</title>
<g id="a_edge35_Node000013_Node000011"><a xlink:title=" ">
<path fill="none" stroke="#63b8ff" d="M1123.09,-190.48C1133.88,-192.96 1144.99,-195.52 1155.67,-197.98"/>
<polygon fill="#63b8ff" stroke="#63b8ff" points="1154.6,-201.32 1165.13,-200.15 1156.17,-194.5 1154.6,-201.32"/>
</a>
</g>
</g>
<!-- Node14 -->
<g id="Node000014" class="node">
<title>Node14</title>
<g id="a_Node000014"><a xlink:href="namespacesteppable_1_1____internals_1_1calc.html#a4733396b66cc027f38d17f6aac309590" target="_top" xlink:title="Calculate the error between values a and b.">
<polygon fill="white" stroke="#666666" points="1282.25,-177.44 1159,-177.44 1159,-143.94 1282.25,-143.94 1282.25,-177.44"/>
<text xml:space="preserve" text-anchor="start" x="1167" y="-163.94" font-family="Helvetica,sans-Serif" font-size="10.00">steppable::__internals</text>
<text xml:space="preserve" text-anchor="middle" x="1220.62" y="-151.19" font-family="Helvetica,sans-Serif" font-size="10.00">::calc::error</text>
</a>
</g>
</g>
<!-- Node13&#45;&gt;Node14 -->
<g id="edge14_Node000013_Node000014" class="edge">
<title>Node13&#45;&gt;Node14</title>
<g id="a_edge14_Node000013_Node000014"><a xlink:title=" ">
<path fill="none" stroke="#63b8ff" d="M1123.09,-168.88C1131.1,-168.2 1139.29,-167.51 1147.35,-166.82"/>
<polygon fill="#63b8ff" stroke="#63b8ff" points="1147.45,-170.33 1157.12,-165.99 1146.86,-163.35 1147.45,-170.33"/>
</a>
</g>
</g>
<!-- Node15 -->
<g id="Node000015" class="node">
<title>Node15</title>
<g id="a_Node000015"><a xlink:href="namespacesteppable_1_1____internals_1_1calc.html#ad4d7034aa4fea1469c85db9ddbb006c2" target="_top" xlink:title="Calculates the absolute value of a string representation of a number.">
<polygon fill="white" stroke="#666666" points="1441.5,-177.44 1318.25,-177.44 1318.25,-143.94 1441.5,-143.94 1441.5,-177.44"/>
<text xml:space="preserve" text-anchor="start" x="1326.25" y="-163.94" font-family="Helvetica,sans-Serif" font-size="10.00">steppable::__internals</text>
<text xml:space="preserve" text-anchor="middle" x="1379.88" y="-151.19" font-family="Helvetica,sans-Serif" font-size="10.00">::calc::abs</text>
</a>
</g>
</g>
<!-- Node14&#45;&gt;Node15 -->
<g id="edge15_Node000014_Node000015" class="edge">
<title>Node14&#45;&gt;Node15</title>
<g id="a_edge15_Node000014_Node000015"><a xlink:title=" ">
<path fill="none" stroke="#63b8ff" d="M1282.42,-160.69C1290.35,-160.69 1298.54,-160.69 1306.63,-160.69"/>
<polygon fill="#63b8ff" stroke="#63b8ff" points="1306.47,-164.19 1316.47,-160.69 1306.47,-157.19 1306.47,-164.19"/>
</a>
</g>
</g>
<!-- Node14&#45;&gt;Node17 -->
<g id="edge17_Node000014_Node000017" class="edge">
<title>Node14&#45;&gt;Node17</title>
<g id="a_edge17_Node000014_Node000017"><a xlink:title=" ">
<path fill="none" stroke="#63b8ff" d="M1268.35,-177.81C1273.25,-180.45 1277.99,-183.41 1282.25,-186.69 1317.32,-213.74 1346.75,-256.32 1363.6,-283.88"/>
<polygon fill="#63b8ff" stroke="#63b8ff" points="1360.52,-285.55 1368.66,-292.34 1366.53,-281.96 1360.52,-285.55"/>
</a>
</g>
</g>
<!-- Node16 -->
<g id="Node000016" class="node">
<title>Node16</title>
<g id="a_Node000016"><a xlink:href="namespacesteppable_1_1____internals_1_1calc.html#af34324955c6772c7a3cacd9fe4c9a915" target="_top" xlink:title=" ">
<polygon fill="white" stroke="#666666" points="1600.75,-177.44 1477.5,-177.44 1477.5,-143.94 1600.75,-143.94 1600.75,-177.44"/>
<text xml:space="preserve" text-anchor="start" x="1485.5" y="-163.94" font-family="Helvetica,sans-Serif" font-size="10.00">steppable::__internals</text>
<text xml:space="preserve" text-anchor="middle" x="1539.12" y="-151.19" font-family="Helvetica,sans-Serif" font-size="10.00">::calc::_abs</text>
</a>
</g>
</g>
<!-- Node15&#45;&gt;Node16 -->
<g id="edge16_Node000015_Node000016" class="edge">
<title>Node15&#45;&gt;Node16</title>
<g id="a_edge16_Node000015_Node000016"><a xlink:title=" ">
<path fill="none" stroke="#63b8ff" d="M1441.67,-160.69C1449.6,-160.69 1457.79,-160.69 1465.88,-160.69"/>
<polygon fill="#63b8ff" stroke="#63b8ff" points="1465.72,-164.19 1475.72,-160.69 1465.72,-157.19 1465.72,-164.19"/>
</a>
</g>
</g>
<!-- Node17&#45;&gt;Node9 -->
<g id="edge19_Node000017_Node000009" class="edge">
<title>Node17&#45;&gt;Node9</title>
<g id="a_edge19_Node000017_Node000009"><a xlink:title=" ">
<path fill="none" stroke="#63b8ff" d="M1317.77,-327.03C1252.7,-338.76 1146.6,-351.69 1054.5,-351.69 880.88,-351.69 880.88,-351.69 880.88,-351.69 777.47,-351.69 659.01,-323.38 594,-302.49"/>
<polygon fill="#63b8ff" stroke="#63b8ff" points="595.3,-299.23 584.7,-299.42 593.1,-305.88 595.3,-299.23"/>
</a>
</g>
</g>
<!-- Node17&#45;&gt;Node10 -->
<g id="edge18_Node000017_Node000010" class="edge">
<title>Node17&#45;&gt;Node10</title>
<g id="a_edge18_Node000017_Node000010"><a xlink:title=" ">
<path fill="none" stroke="#63b8ff" d="M1318.07,-304.13C1197.08,-291.08 926.25,-261.85 791.26,-247.29"/>
<polygon fill="#63b8ff" stroke="#63b8ff" points="792.03,-243.85 781.71,-246.26 791.28,-250.81 792.03,-243.85"/>
</a>
</g>
</g>
<!-- Node17&#45;&gt;Node17 -->
<g id="edge34_Node000017_Node000017" class="edge">
<title>Node17&#45;&gt;Node17</title>
<g id="a_edge34_Node000017_Node000017"><a xlink:title=" ">
<path fill="none" stroke="#63b8ff" d="M1351.25,-327.86C1346.38,-337.06 1355.93,-345.44 1379.88,-345.44 1393.35,-345.44 1402.26,-342.79 1406.61,-338.83"/>
<polygon fill="#63b8ff" stroke="#63b8ff" points="1410,-339.8 1408.25,-329.35 1403.1,-338.61 1410,-339.8"/>
</a>
</g>
</g>
<!-- Node18 -->
<g id="Node000018" class="node">
<title>Node18</title>
<g id="a_Node000018"><a xlink:href="namespacesteppable_1_1____internals_1_1calc.html#a42acdef9fc1e043591a9f42918ba7984" target="_top" xlink:title="Compares two string representations of numbers.">
<polygon fill="white" stroke="#666666" points="1600.75,-252.44 1477.5,-252.44 1477.5,-218.94 1600.75,-218.94 1600.75,-252.44"/>
<text xml:space="preserve" text-anchor="start" x="1485.5" y="-238.94" font-family="Helvetica,sans-Serif" font-size="10.00">steppable::__internals</text>
<text xml:space="preserve" text-anchor="middle" x="1539.12" y="-226.19" font-family="Helvetica,sans-Serif" font-size="10.00">::calc::compare</text>
</a>
</g>
</g>
<!-- Node17&#45;&gt;Node18 -->
<g id="edge20_Node000017_Node000018" class="edge">
<title>Node17&#45;&gt;Node18</title>
<g id="a_edge20_Node000017_Node000018"><a xlink:title=" ">
<path fill="none" stroke="#63b8ff" d="M1416.95,-293.49C1439.23,-282.86 1468.02,-269.13 1491.95,-257.72"/>
<polygon fill="#63b8ff" stroke="#63b8ff" points="1493.33,-260.94 1500.85,-253.47 1490.32,-254.62 1493.33,-260.94"/>
</a>
</g>
</g>
<!-- Node17&#45;&gt;Node19 -->
<g id="edge32_Node000017_Node000019" class="edge">
<title>Node17&#45;&gt;Node19</title>
<g id="a_edge32_Node000017_Node000019"><a xlink:title=" ">
<path fill="none" stroke="#63b8ff" d="M1441.67,-302.48C1486.7,-295.13 1548.96,-282.28 1600.75,-261.69 1631.68,-249.4 1663.95,-229.68 1687.08,-214.14"/>
<polygon fill="#63b8ff" stroke="#63b8ff" points="1688.88,-217.15 1695.16,-208.62 1684.93,-211.37 1688.88,-217.15"/>
</a>
</g>
</g>
<!-- Node17&#45;&gt;Node20 -->
<g id="edge31_Node000017_Node000020" class="edge">
<title>Node17&#45;&gt;Node20</title>
<g id="a_edge31_Node000017_Node000020"><a xlink:title=" ">
<path fill="none" stroke="#63b8ff" d="M1419.67,-327.85C1481.77,-353.72 1607.91,-399.69 1719.88,-399.69 1719.88,-399.69 1719.88,-399.69 1928.38,-399.69 2083.05,-399.69 2236.9,-273.17 2296.21,-218.43"/>
<polygon fill="#63b8ff" stroke="#63b8ff" points="2298.25,-221.32 2303.16,-211.94 2293.47,-216.21 2298.25,-221.32"/>
</a>
</g>
</g>
<!-- Node17&#45;&gt;Node24 -->
<g id="edge33_Node000017_Node000024" class="edge">
<title>Node17&#45;&gt;Node24</title>
<g id="a_edge33_Node000017_Node000024"><a xlink:title=" ">
<path fill="none" stroke="#63b8ff" d="M1441.87,-311.77C1492.91,-312.68 1566.59,-313.98 1625.28,-315.02"/>
<polygon fill="#63b8ff" stroke="#63b8ff" points="1624.86,-318.51 1634.92,-315.19 1624.98,-311.51 1624.86,-318.51"/>
</a>
</g>
</g>
<!-- Node18&#45;&gt;Node10 -->
<g id="edge21_Node000018_Node000010" class="edge">
<title>Node18&#45;&gt;Node10</title>
<g id="a_edge21_Node000018_Node000010"><a xlink:title=" ">
<path fill="none" stroke="#63b8ff" d="M1477.12,-236.61C1425.28,-237.34 1348.89,-238.3 1282.25,-238.69 1107.16,-239.72 901.84,-239.33 791.49,-238.99"/>
<polygon fill="#63b8ff" stroke="#63b8ff" points="791.66,-235.49 781.65,-238.96 791.64,-242.49 791.66,-235.49"/>
</a>
</g>
</g>
<!-- Node18&#45;&gt;Node19 -->
<g id="edge22_Node000018_Node000019" class="edge">
<title>Node18&#45;&gt;Node19</title>
<g id="a_edge22_Node000018_Node000019"><a xlink:title=" ">
<path fill="none" stroke="#63b8ff" d="M1601.23,-220.4C1614.72,-217.02 1629.18,-213.4 1643.2,-209.89"/>
<polygon fill="#63b8ff" stroke="#63b8ff" points="1644.01,-213.3 1652.86,-207.47 1642.31,-206.51 1644.01,-213.3"/>
</a>
</g>
</g>
<!-- Node18&#45;&gt;Node24 -->
<g id="edge28_Node000018_Node000024" class="edge">
<title>Node18&#45;&gt;Node24</title>
<g id="a_edge28_Node000018_Node000024"><a xlink:title=" ">
<path fill="none" stroke="#63b8ff" d="M1578.25,-252.87C1605.41,-265.12 1642.15,-281.67 1671.4,-294.85"/>
<polygon fill="#63b8ff" stroke="#63b8ff" points="1669.87,-298 1680.43,-298.92 1672.75,-291.62 1669.87,-298"/>
</a>
</g>
</g>
<!-- Node19&#45;&gt;Node20 -->
<g id="edge23_Node000019_Node000020" class="edge">
<title>Node19&#45;&gt;Node20</title>
<g id="a_edge23_Node000019_Node000020"><a xlink:title=" ">
<path fill="none" stroke="#63b8ff" d="M1787.29,-190.07C1882.66,-189.31 2065.47,-188.38 2221,-190.69 2228.85,-190.81 2237.04,-190.98 2245.21,-191.18"/>
<polygon fill="#63b8ff" stroke="#63b8ff" points="2245.12,-194.68 2255.21,-191.43 2245.3,-187.68 2245.12,-194.68"/>
</a>
</g>
</g>
<!-- Node21 -->
<g id="Node000021" class="node">
<title>Node21</title>
<g id="a_Node000021"><a xlink:href="namespacesteppable_1_1____internals_1_1numUtils.html#a5d7e8d74d304a1ac7fc2ad4dbf5b40ae" target="_top" xlink:title=" ">
<polygon fill="white" stroke="#666666" points="2013.75,-271.44 1841,-271.44 1841,-237.94 2013.75,-237.94 2013.75,-271.44"/>
<text xml:space="preserve" text-anchor="start" x="1849" y="-257.94" font-family="Helvetica,sans-Serif" font-size="10.00">steppable::__internals</text>
<text xml:space="preserve" text-anchor="middle" x="1927.38" y="-245.19" font-family="Helvetica,sans-Serif" font-size="10.00">::numUtils::removeTrailingZeros</text>
</a>
</g>
</g>
<!-- Node19&#45;&gt;Node21 -->
<g id="edge24_Node000019_Node000021" class="edge">
<title>Node19&#45;&gt;Node21</title>
<g id="a_edge24_Node000019_Node000021"><a xlink:title=" ">
<path fill="none" stroke="#63b8ff" d="M1776.95,-207.93C1802.73,-216 1833.64,-225.67 1860.65,-234.12"/>
<polygon fill="#63b8ff" stroke="#63b8ff" points="1859.53,-237.44 1870.12,-237.09 1861.62,-230.76 1859.53,-237.44"/>
</a>
</g>
</g>
<!-- Node22 -->
<g id="Node000022" class="node">
<title>Node22</title>
<g id="a_Node000022"><a xlink:href="namespacesteppable_1_1____internals_1_1numUtils.html#a503084b920a7cfd569d321e04dcb4ae5" target="_top" xlink:title="Simplifies a string that represents a number with non&#45;standard polarity.">
<polygon fill="white" stroke="#666666" points="2221,-233.44 2049.75,-233.44 2049.75,-199.94 2221,-199.94 2221,-233.44"/>
<text xml:space="preserve" text-anchor="start" x="2057.75" y="-219.94" font-family="Helvetica,sans-Serif" font-size="10.00">steppable::__internals</text>
<text xml:space="preserve" text-anchor="middle" x="2135.38" y="-207.19" font-family="Helvetica,sans-Serif" font-size="10.00">::numUtils::simplifyZeroPolarity</text>
</a>
</g>
</g>
<!-- Node19&#45;&gt;Node22 -->
<g id="edge25_Node000019_Node000022" class="edge">
<title>Node19&#45;&gt;Node22</title>
<g id="a_edge25_Node000019_Node000022"><a xlink:title=" ">
<path fill="none" stroke="#63b8ff" d="M1787.24,-194.81C1854.79,-199.07 1960.98,-205.77 2038.13,-210.63"/>
<polygon fill="#63b8ff" stroke="#63b8ff" points="2037.58,-214.1 2047.79,-211.24 2038.03,-207.11 2037.58,-214.1"/>
</a>
</g>
</g>
<!-- Node23 -->
<g id="Node000023" class="node">
<title>Node23</title>
<g id="a_Node000023"><a xlink:href="namespacesteppable_1_1____internals_1_1stringUtils.html#a2600efb348f0dd19cc0068946d06b1b7" target="_top" xlink:title="Splits a string into substrings based on a separator.">
<polygon fill="white" stroke="#666666" points="1989,-137.44 1865.75,-137.44 1865.75,-103.94 1989,-103.94 1989,-137.44"/>
<text xml:space="preserve" text-anchor="start" x="1873.75" y="-123.94" font-family="Helvetica,sans-Serif" font-size="10.00">steppable::__internals</text>
<text xml:space="preserve" text-anchor="middle" x="1927.38" y="-111.19" font-family="Helvetica,sans-Serif" font-size="10.00">::stringUtils::split</text>
</a>
</g>
</g>
<!-- Node19&#45;&gt;Node23 -->
<g id="edge27_Node000019_Node000023" class="edge">
<title>Node19&#45;&gt;Node23</title>
<g id="a_edge27_Node000019_Node000023"><a xlink:title=" ">
<path fill="none" stroke="#63b8ff" d="M1772.16,-173.48C1800.39,-163.82 1835.81,-151.69 1865.59,-141.5"/>
<polygon fill="#63b8ff" stroke="#63b8ff" points="1866.52,-144.88 1874.85,-138.33 1864.25,-138.26 1866.52,-144.88"/>
</a>
</g>
</g>
<!-- Node22&#45;&gt;Node20 -->
<g id="edge26_Node000022_Node000020" class="edge">
<title>Node22&#45;&gt;Node20</title>
<g id="a_edge26_Node000022_Node000020"><a xlink:title=" ">
<path fill="none" stroke="#63b8ff" d="M2221.47,-206.14C2229.4,-205.15 2237.4,-204.16 2245.25,-203.19"/>
<polygon fill="#63b8ff" stroke="#63b8ff" points="2245.6,-206.67 2255.1,-201.96 2244.74,-199.72 2245.6,-206.67"/>
</a>
</g>
</g>
<!-- Node24&#45;&gt;Node25 -->
<g id="edge29_Node000024_Node000025" class="edge">
<title>Node24&#45;&gt;Node25</title>
<g id="a_edge29_Node000024_Node000025"><a xlink:title=" ">
<path fill="none" stroke="#63b8ff" d="M1805.35,-316.69C1817.23,-316.69 1829.47,-316.69 1841.38,-316.69"/>
<polygon fill="#63b8ff" stroke="#63b8ff" points="1841.17,-320.19 1851.17,-316.69 1841.17,-313.19 1841.17,-320.19"/>
</a>
</g>
</g>
<!-- Node25&#45;&gt;Node22 -->
<g id="edge30_Node000025_Node000022" class="edge">
<title>Node25&#45;&gt;Node22</title>
<g id="a_edge30_Node000025_Node000022"><a xlink:title=" ">
<path fill="none" stroke="#63b8ff" d="M1971.26,-299.48C1984.95,-293.76 2000.09,-287.18 2013.75,-280.69 2040.98,-267.76 2070.93,-251.88 2094.17,-239.18"/>
<polygon fill="#63b8ff" stroke="#63b8ff" points="2095.61,-242.38 2102.69,-234.49 2092.24,-236.24 2095.61,-242.38"/>
</a>
</g>
</g>
<!-- Node26&#45;&gt;Node23 -->
<g id="edge37_Node000026_Node000023" class="edge">
<title>Node26&#45;&gt;Node23</title>
<g id="a_edge37_Node000026_Node000023"><a xlink:title=" ">
<path fill="none" stroke="#63b8ff" d="M1116.98,-120.55C1182.29,-118.49 1287.76,-115.69 1378.88,-115.69 1378.88,-115.69 1378.88,-115.69 1540.12,-115.69 1649.75,-115.69 1776.85,-117.73 1854.42,-119.21"/>
<polygon fill="#63b8ff" stroke="#63b8ff" points="1853.92,-122.7 1863.99,-119.39 1854.06,-115.7 1853.92,-122.7"/>
</a>
</g>
</g>
</g>
</svg>

<g id="navigator" transform="translate(0 0)" fill="#404254">
  <rect fill="#f2f5e9" fill-opacity="0.5" stroke="#606060" stroke-width=".5" x="0" y="0" width="60" height="60"/>
  <use id="zoomplus" xlink:href="#zoomPlus" x="17" y="9" onmousedown="handleZoom(evt,'in')"/>
  <use id="zoomminus" xlink:href="#zoomMin" x="42" y="9" onmousedown="handleZoom(evt,'out')"/>
  <use id="reset" xlink:href="#resetDef" x="30" y="36" onmousedown="handleReset()"/>
   <use id="arrowup" xlink:href="#arrowUp" x="0" y="0" onmousedown="handlePan(0,-1)"/>
  <use id="arrowright" xlink:href="#arrowRight" x="0" y="0" onmousedown="handlePan(1,0)"/>
  <use id="arrowdown" xlink:href="#arrowDown" x="0" y="0" onmousedown="handlePan(0,1)"/>
  <use id="arrowleft" xlink:href="#arrowLeft" x="0" y="0" onmousedown="handlePan(-1,0)"/>
</g>
<svg viewBox="0 0 15 15" width="100%" height="30px" preserveAspectRatio="xMaxYMin meet">
 <g id="arrow_out" transform="scale(0.3 0.3)">
  <a xlink:href="classsteppable_1_1Matrix_a138d4246237d27a368e2080e8c7ce482_cgraph_org.svg" target="_base">
   <rect id="button" ry="5" rx="5" y="6" x="6" height="38" width="38"
        fill="#f2f5e9" fill-opacity="0.5" stroke="#606060" stroke-width="1.0"/>
   <path id="arrow"
     d="M 11.500037,31.436501 C 11.940474,20.09759 22.043105,11.32322 32.158766,21.979434 L 37.068811,17.246167 C 37.068811,17.246167 37.088388,32 37.088388,32 L 22.160133,31.978069 C 22.160133,31.978069 26.997745,27.140456 26.997745,27.140456 C 18.528582,18.264221 13.291696,25.230495 11.500037,31.436501 z"
     style="fill:#404040;"/>
  </a>
 </g>
</svg>

<style type='text/css'>
<![CDATA[
[data-mouse-over-selected='false'] { opacity: 0.7; }
[data-mouse-over-selected='true']  { opacity: 1.0; }
]]>
</style>
<script type="application/ecmascript"><![CDATA[
document.addEventListener('DOMContentLoaded', (event) => {
  highlightEdges();
  highlightAdjacentNodes();
});
]]></script>
</svg>
