<?xml version="1.0" encoding="UTF-8" standalone="no"?>
<!DOCTYPE svg PUBLIC "-//W3C//DTD SVG 1.1//EN"
 "http://www.w3.org/Graphics/SVG/1.1/DTD/svg11.dtd">
<!-- Generated by graphviz version 2.43.0 (0)
 -->
<!-- Title: logging::Logger::info Pages: 1 -->
<svg width="437pt" height="28pt"
 viewBox="0.00 0.00 437.00 28.00" xmlns="http://www.w3.org/2000/svg" xmlns:xlink="http://www.w3.org/1999/xlink">
<g id="graph0" class="graph" transform="scale(1 1) rotate(0) translate(4 24)">
<title>logging::Logger::info</title>
<!-- Node1 -->
<g id="node1" class="node">
<title>Node1</title>
<g id="a_node1"><a xlink:title="Logs an info message.">
<polygon fill="#bfbfbf" stroke="black" points="0,-0.5 0,-19.5 116,-19.5 116,-0.5 0,-0.5"/>
<text text-anchor="middle" x="58" y="-7.5" font-family="Helvetica,sans-Serif" font-size="10.00">logging::Logger::info</text>
</a>
</g>
</g>
<!-- Node2 -->
<g id="node2" class="node">
<title>Node2</title>
<g id="a_node2"><a xlink:href="classlogging_1_1Logger.html#a752fb9d5de5858235bf6ad0e7ed61797" target="_top" xlink:title="Logs a message.">
<polygon fill="none" stroke="black" points="152,-0.5 152,-19.5 265,-19.5 265,-0.5 152,-0.5"/>
<text text-anchor="middle" x="208.5" y="-7.5" font-family="Helvetica,sans-Serif" font-size="10.00">logging::Logger::log</text>
</a>
</g>
</g>
<!-- Node1&#45;&gt;Node2 -->
<g id="edge1" class="edge">
<title>Node1&#45;&gt;Node2</title>
<path fill="none" stroke="midnightblue" d="M116.41,-10C124.65,-10 133.18,-10 141.57,-10"/>
<polygon fill="midnightblue" stroke="midnightblue" points="141.7,-13.5 151.7,-10 141.7,-6.5 141.7,-13.5"/>
</g>
<!-- Node3 -->
<g id="node3" class="node">
<title>Node3</title>
<g id="a_node3"><a xlink:href="namespaceinternals.html#a27d06fa2d5220c9128fdbb6674cf79c0" target="_top" xlink:title=" ">
<polygon fill="none" stroke="black" points="301,-0.5 301,-19.5 429,-19.5 429,-0.5 301,-0.5"/>
<text text-anchor="middle" x="365" y="-7.5" font-family="Helvetica,sans-Serif" font-size="10.00">internals::localtime_xp</text>
</a>
</g>
</g>
<!-- Node2&#45;&gt;Node3 -->
<g id="edge2" class="edge">
<title>Node2&#45;&gt;Node3</title>
<path fill="none" stroke="midnightblue" d="M265.28,-10C273.6,-10 282.29,-10 290.91,-10"/>
<polygon fill="midnightblue" stroke="midnightblue" points="290.96,-13.5 300.96,-10 290.96,-6.5 290.96,-13.5"/>
</g>
</g>
</svg>
