<?xml version="1.0" encoding="UTF-8" standalone="no"?>
<!DOCTYPE svg PUBLIC "-//W3C//DTD SVG 1.1//EN"
 "http://www.w3.org/Graphics/SVG/1.1/DTD/svg11.dtd">
<!-- Generated by graphviz version 11.0.0 (20240428.1522)
 -->
<!-- Title: steppable::__internals::utils::ProgramArgs::printUsage Pages: 1 -->
<svg width="628pt" height="241pt"
 viewBox="0.00 0.00 627.75 240.50" xmlns="http://www.w3.org/2000/svg" xmlns:xlink="http://www.w3.org/1999/xlink">
<g id="graph0" class="graph" transform="scale(1 1) rotate(0) translate(4 236.5)">
<title>steppable::__internals::utils::ProgramArgs::printUsage</title>
<!-- Node1 -->
<g id="Node000001" class="node">
<title>Node1</title>
<g id="a_Node000001"><a xlink:title="This function is used to print the possible command&#45;line arguments. Usually called when the user spec...">
<polygon fill="#999999" stroke="#666666" points="123.25,-143.88 0,-143.88 0,-97.62 123.25,-97.62 123.25,-143.88"/>
<text text-anchor="start" x="8" y="-130.38" font-family="Helvetica,sans-Serif" font-size="10.00">steppable::__internals</text>
<text text-anchor="start" x="8" y="-117.62" font-family="Helvetica,sans-Serif" font-size="10.00">::utils::ProgramArgs::</text>
<text text-anchor="middle" x="61.62" y="-104.88" font-family="Helvetica,sans-Serif" font-size="10.00">printUsage</text>
</a>
</g>
</g>
<!-- Node2 -->
<g id="Node000002" class="node">
<title>Node2</title>
<g id="a_Node000002"><a xlink:href="namespacesteppable_1_1____internals_1_1utils_1_1formats.html#a020bdff691dad4ade1a65f76bef6bfd0" target="_top" xlink:title="Set the text format to bold.">
<polygon fill="white" stroke="#666666" points="460.5,-189.5 337.25,-189.5 337.25,-156 460.5,-156 460.5,-189.5"/>
<text text-anchor="start" x="345.25" y="-176" font-family="Helvetica,sans-Serif" font-size="10.00">steppable::__internals</text>
<text text-anchor="middle" x="398.88" y="-163.25" font-family="Helvetica,sans-Serif" font-size="10.00">::utils::formats::bold</text>
</a>
</g>
</g>
<!-- Node1&#45;&gt;Node2 -->
<g id="edge1_Node000001_Node000002" class="edge">
<title>Node1&#45;&gt;Node2</title>
<g id="a_edge1_Node000001_Node000002"><a xlink:title=" ">
<path fill="none" stroke="#63b8ff" d="M123.64,-138.69C135.38,-141.71 147.64,-144.57 159.25,-146.75 214.68,-157.16 278.2,-163.83 325.76,-167.81"/>
<polygon fill="#63b8ff" stroke="#63b8ff" points="325.42,-171.29 335.67,-168.61 325.99,-164.31 325.42,-171.29"/>
</a>
</g>
</g>
<!-- Node4 -->
<g id="Node000004" class="node">
<title>Node4</title>
<g id="a_Node000004"><a xlink:href="namespacesteppable_1_1____internals_1_1utils_1_1colors.html#a0c81a57789690db931ec76b0407d1e17" target="_top" xlink:title="Set the text color to bright green.">
<polygon fill="white" stroke="#666666" points="301.25,-232.5 159.25,-232.5 159.25,-199 301.25,-199 301.25,-232.5"/>
<text text-anchor="start" x="167.25" y="-219" font-family="Helvetica,sans-Serif" font-size="10.00">steppable::__internals</text>
<text text-anchor="middle" x="230.25" y="-206.25" font-family="Helvetica,sans-Serif" font-size="10.00">::utils::colors::brightGreen</text>
</a>
</g>
</g>
<!-- Node1&#45;&gt;Node4 -->
<g id="edge3_Node000001_Node000004" class="edge">
<title>Node1&#45;&gt;Node4</title>
<g id="a_edge3_Node000001_Node000004"><a xlink:title=" ">
<path fill="none" stroke="#63b8ff" d="M96.84,-144.25C115.03,-156.34 137.97,-170.97 159.25,-182.75 165.96,-186.47 173.16,-190.17 180.3,-193.67"/>
<polygon fill="#63b8ff" stroke="#63b8ff" points="178.76,-196.81 189.29,-197.99 181.79,-190.51 178.76,-196.81"/>
</a>
</g>
</g>
<!-- Node5 -->
<g id="Node000005" class="node">
<title>Node5</title>
<g id="a_Node000005"><a xlink:href="namespacesteppable_1_1output.html#a076ed2ffbc6d17c02f91f3b9cb4026b7" target="_top" xlink:title="Prints an error message.">
<polygon fill="white" stroke="#666666" points="284,-137.5 176.5,-137.5 176.5,-104 284,-104 284,-137.5"/>
<text text-anchor="start" x="184.5" y="-124" font-family="Helvetica,sans-Serif" font-size="10.00">steppable::output::</text>
<text text-anchor="middle" x="230.25" y="-111.25" font-family="Helvetica,sans-Serif" font-size="10.00">error</text>
</a>
</g>
</g>
<!-- Node1&#45;&gt;Node5 -->
<g id="edge5_Node000001_Node000005" class="edge">
<title>Node1&#45;&gt;Node5</title>
<g id="a_edge5_Node000001_Node000005"><a xlink:title=" ">
<path fill="none" stroke="#63b8ff" d="M123.72,-120.75C137.15,-120.75 151.4,-120.75 164.95,-120.75"/>
<polygon fill="#63b8ff" stroke="#63b8ff" points="164.61,-124.25 174.61,-120.75 164.61,-117.25 164.61,-124.25"/>
</a>
</g>
</g>
<!-- Node7 -->
<g id="Node000007" class="node">
<title>Node7</title>
<g id="a_Node000007"><a xlink:href="namespacesteppable_1_1____internals_1_1utils.html#a1d55e037764ba41ec8682f00b30701ff" target="_top" xlink:title="Reset the text color and format to the default values.">
<polygon fill="white" stroke="#666666" points="460.5,-33.5 337.25,-33.5 337.25,0 460.5,0 460.5,-33.5"/>
<text text-anchor="start" x="345.25" y="-20" font-family="Helvetica,sans-Serif" font-size="10.00">steppable::__internals</text>
<text text-anchor="middle" x="398.88" y="-7.25" font-family="Helvetica,sans-Serif" font-size="10.00">::utils::reset</text>
</a>
</g>
</g>
<!-- Node1&#45;&gt;Node7 -->
<g id="edge13_Node000001_Node000007" class="edge">
<title>Node1&#45;&gt;Node7</title>
<g id="a_edge13_Node000001_Node000007"><a xlink:title=" ">
<path fill="none" stroke="#63b8ff" d="M123.7,-104.3C135.5,-101.13 147.76,-97.83 159.25,-94.75 222.35,-77.82 239.38,-77.73 301.25,-56.75 310.49,-53.62 329.01,-46.06 347.38,-38.35"/>
<polygon fill="#63b8ff" stroke="#63b8ff" points="348.57,-41.65 356.42,-34.54 345.85,-35.2 348.57,-41.65"/>
</a>
</g>
</g>
<!-- Node9 -->
<g id="Node000009" class="node">
<title>Node9</title>
<g id="a_Node000009"><a xlink:href="namespacesteppable_1_1____internals_1_1utils.html#a265f606a0e1f8eb0fc678593f7f44be7" target="_top" xlink:title="Exit the program safely.">
<polygon fill="white" stroke="#666666" points="295.62,-47.5 164.88,-47.5 164.88,-14 295.62,-14 295.62,-47.5"/>
<text text-anchor="start" x="172.88" y="-34" font-family="Helvetica,sans-Serif" font-size="10.00">steppable::__internals</text>
<text text-anchor="middle" x="230.25" y="-21.25" font-family="Helvetica,sans-Serif" font-size="10.00">::utils::programSafeExit</text>
</a>
</g>
</g>
<!-- Node1&#45;&gt;Node9 -->
<g id="edge12_Node000001_Node000009" class="edge">
<title>Node1&#45;&gt;Node9</title>
<g id="a_edge12_Node000001_Node000009"><a xlink:title=" ">
<path fill="none" stroke="#63b8ff" d="M98.68,-97.18C116.57,-85.89 138.71,-72.51 159.25,-61.75 165.13,-58.67 171.39,-55.61 177.64,-52.68"/>
<polygon fill="#63b8ff" stroke="#63b8ff" points="179.09,-55.87 186.73,-48.52 176.18,-49.5 179.09,-55.87"/>
</a>
</g>
</g>
<!-- Node3 -->
<g id="Node000003" class="node">
<title>Node3</title>
<g id="a_Node000003"><a xlink:href="namespacesteppable_1_1____internals_1_1utils.html#a65d6e9f0b589e6d5eab0da73a4ebb16c" target="_top" xlink:title="Check if the output stream is a terminal.">
<polygon fill="white" stroke="#666666" points="619.75,-137.5 496.5,-137.5 496.5,-104 619.75,-104 619.75,-137.5"/>
<text text-anchor="start" x="504.5" y="-124" font-family="Helvetica,sans-Serif" font-size="10.00">steppable::__internals</text>
<text text-anchor="middle" x="558.12" y="-111.25" font-family="Helvetica,sans-Serif" font-size="10.00">::utils::isTerminal</text>
</a>
</g>
</g>
<!-- Node2&#45;&gt;Node3 -->
<g id="edge2_Node000002_Node000003" class="edge">
<title>Node2&#45;&gt;Node3</title>
<g id="a_edge2_Node000002_Node000003"><a xlink:title=" ">
<path fill="none" stroke="#63b8ff" d="M451.8,-155.58C465.42,-151.08 480.24,-146.17 494.36,-141.5"/>
<polygon fill="#63b8ff" stroke="#63b8ff" points="495.15,-144.93 503.55,-138.47 492.96,-138.28 495.15,-144.93"/>
</a>
</g>
</g>
<!-- Node4&#45;&gt;Node3 -->
<g id="edge4_Node000004_Node000003" class="edge">
<title>Node4&#45;&gt;Node3</title>
<g id="a_edge4_Node000004_Node000003"><a xlink:title=" ">
<path fill="none" stroke="#63b8ff" d="M301.61,-221.2C348.25,-222.27 409.93,-218.75 460.5,-198.75 489.53,-187.27 516.64,-163.82 534.71,-145.61"/>
<polygon fill="#63b8ff" stroke="#63b8ff" points="536.88,-148.4 541.3,-138.77 531.84,-143.54 536.88,-148.4"/>
</a>
</g>
</g>
<!-- Node5&#45;&gt;Node2 -->
<g id="edge6_Node000005_Node000002" class="edge">
<title>Node5&#45;&gt;Node2</title>
<g id="a_edge6_Node000005_Node000002"><a xlink:title=" ">
<path fill="none" stroke="#63b8ff" d="M284.43,-137.35C299.52,-142.06 316.13,-147.24 331.88,-152.16"/>
<polygon fill="#63b8ff" stroke="#63b8ff" points="330.59,-155.42 341.18,-155.06 332.67,-148.74 330.59,-155.42"/>
</a>
</g>
</g>
<!-- Node6 -->
<g id="Node000006" class="node">
<title>Node6</title>
<g id="a_Node000006"><a xlink:href="namespacesteppable_1_1____internals_1_1utils_1_1colors.html#a36cc73ec1844a03d7cba5b409109c999" target="_top" xlink:title="Set the text color to red.">
<polygon fill="white" stroke="#666666" points="460.5,-85.5 337.25,-85.5 337.25,-52 460.5,-52 460.5,-85.5"/>
<text text-anchor="start" x="345.25" y="-72" font-family="Helvetica,sans-Serif" font-size="10.00">steppable::__internals</text>
<text text-anchor="middle" x="398.88" y="-59.25" font-family="Helvetica,sans-Serif" font-size="10.00">::utils::colors::red</text>
</a>
</g>
</g>
<!-- Node5&#45;&gt;Node6 -->
<g id="edge7_Node000005_Node000006" class="edge">
<title>Node5&#45;&gt;Node6</title>
<g id="a_edge7_Node000005_Node000006"><a xlink:title=" ">
<path fill="none" stroke="#63b8ff" d="M284.43,-104.15C299.52,-99.44 316.13,-94.26 331.88,-89.34"/>
<polygon fill="#63b8ff" stroke="#63b8ff" points="332.67,-92.76 341.18,-86.44 330.59,-86.08 332.67,-92.76"/>
</a>
</g>
</g>
<!-- Node5&#45;&gt;Node7 -->
<g id="edge9_Node000005_Node000007" class="edge">
<title>Node5&#45;&gt;Node7</title>
<g id="a_edge9_Node000005_Node000007"><a xlink:title=" ">
<path fill="none" stroke="#63b8ff" d="M278.67,-103.66C286.61,-99.72 294.46,-95.09 301.25,-89.75 321.92,-73.47 316.48,-58.91 337.25,-42.75 338.58,-41.72 339.95,-40.72 341.36,-39.75"/>
<polygon fill="#63b8ff" stroke="#63b8ff" points="343.09,-42.8 349.83,-34.62 339.46,-36.81 343.09,-42.8"/>
</a>
</g>
</g>
<!-- Node8 -->
<g id="Node000008" class="node">
<title>Node8</title>
<g id="a_Node000008"><a xlink:href="namespacesteppable_1_1____internals_1_1format.html#a135f5fd1fc2dfbe08f6659e29b39b0e9" target="_top" xlink:title="Formats a string using a variable number of arguments.">
<polygon fill="white" stroke="#666666" points="460.5,-137.5 337.25,-137.5 337.25,-104 460.5,-104 460.5,-137.5"/>
<text text-anchor="start" x="345.25" y="-124" font-family="Helvetica,sans-Serif" font-size="10.00">steppable::__internals</text>
<text text-anchor="middle" x="398.88" y="-111.25" font-family="Helvetica,sans-Serif" font-size="10.00">::format::vFormat</text>
</a>
</g>
</g>
<!-- Node5&#45;&gt;Node8 -->
<g id="edge11_Node000005_Node000008" class="edge">
<title>Node5&#45;&gt;Node8</title>
<g id="a_edge11_Node000005_Node000008"><a xlink:title=" ">
<path fill="none" stroke="#63b8ff" d="M284.43,-120.75C297.45,-120.75 311.61,-120.75 325.36,-120.75"/>
<polygon fill="#63b8ff" stroke="#63b8ff" points="325.28,-124.25 335.28,-120.75 325.28,-117.25 325.28,-124.25"/>
</a>
</g>
</g>
<!-- Node6&#45;&gt;Node3 -->
<g id="edge8_Node000006_Node000003" class="edge">
<title>Node6&#45;&gt;Node3</title>
<g id="a_edge8_Node000006_Node000003"><a xlink:title=" ">
<path fill="none" stroke="#63b8ff" d="M451.8,-85.92C465.42,-90.42 480.24,-95.33 494.36,-100"/>
<polygon fill="#63b8ff" stroke="#63b8ff" points="492.96,-103.22 503.55,-103.03 495.15,-96.57 492.96,-103.22"/>
</a>
</g>
</g>
<!-- Node7&#45;&gt;Node3 -->
<g id="edge10_Node000007_Node000003" class="edge">
<title>Node7&#45;&gt;Node3</title>
<g id="a_edge10_Node000007_Node000003"><a xlink:title=" ">
<path fill="none" stroke="#63b8ff" d="M443.97,-33.96C449.66,-36.67 455.3,-39.62 460.5,-42.75 485.89,-58.05 511.88,-79.41 530.5,-95.92"/>
<polygon fill="#63b8ff" stroke="#63b8ff" points="528.12,-98.48 537.89,-102.57 532.8,-93.27 528.12,-98.48"/>
</a>
</g>
</g>
</g>
</svg>
