<?xml version="1.0" encoding="UTF-8" standalone="no"?>
<!DOCTYPE svg PUBLIC "-//W3C//DTD SVG 1.1//EN"
 "http://www.w3.org/Graphics/SVG/1.1/DTD/svg11.dtd">
<!-- Generated by graphviz version 2.43.0 (0)
 -->
<!-- Title: logging::Logger::error Pages: 1 -->
<svg width="599pt" height="66pt"
 viewBox="0.00 0.00 599.00 66.00" xmlns="http://www.w3.org/2000/svg" xmlns:xlink="http://www.w3.org/1999/xlink">
<g id="graph0" class="graph" transform="scale(1 1) rotate(0) translate(4 62)">
<title>logging::Logger::error</title>
<!-- Node1 -->
<g id="node1" class="node">
<title>Node1</title>
<g id="a_node1"><a xlink:title="Logs an error message with additional arguments.">
<polygon fill="#bfbfbf" stroke="black" points="0,-19.5 0,-38.5 121,-38.5 121,-19.5 0,-19.5"/>
<text text-anchor="middle" x="60.5" y="-26.5" font-family="Helvetica,sans-Serif" font-size="10.00">logging::Logger::error</text>
</a>
</g>
</g>
<!-- Node2 -->
<g id="node2" class="node">
<title>Node2</title>
<g id="a_node2"><a xlink:href="classlogging_1_1Logger.html#a0f4ae46910f08896ab6ff8e394e3dbb1" target="_top" xlink:title="Logs an error message.">
<polygon fill="none" stroke="black" points="157,-38.5 157,-57.5 278,-57.5 278,-38.5 157,-38.5"/>
<text text-anchor="middle" x="217.5" y="-45.5" font-family="Helvetica,sans-Serif" font-size="10.00">logging::Logger::error</text>
</a>
</g>
</g>
<!-- Node1&#45;&gt;Node2 -->
<g id="edge1" class="edge">
<title>Node1&#45;&gt;Node2</title>
<path fill="none" stroke="midnightblue" d="M121.43,-36.35C129.82,-37.37 138.49,-38.44 147.04,-39.49"/>
<polygon fill="midnightblue" stroke="midnightblue" points="146.64,-42.96 156.99,-40.7 147.49,-36.01 146.64,-42.96"/>
</g>
<!-- Node5 -->
<g id="node5" class="node">
<title>Node5</title>
<g id="a_node5"><a xlink:href="format_8hpp.html#aec7a78e0e53305094ec38dc8bd038de8" target="_top" xlink:title="Formats a string using a variable number of arguments.">
<polygon fill="none" stroke="black" points="189,-0.5 189,-19.5 246,-19.5 246,-0.5 189,-0.5"/>
<text text-anchor="middle" x="217.5" y="-7.5" font-family="Helvetica,sans-Serif" font-size="10.00">vFormat</text>
</a>
</g>
</g>
<!-- Node1&#45;&gt;Node5 -->
<g id="edge4" class="edge">
<title>Node1&#45;&gt;Node5</title>
<path fill="none" stroke="midnightblue" d="M121.43,-21.65C140.62,-19.3 161.32,-16.76 178.5,-14.66"/>
<polygon fill="midnightblue" stroke="midnightblue" points="179.19,-18.1 188.69,-13.41 178.34,-11.15 179.19,-18.1"/>
</g>
<!-- Node3 -->
<g id="node3" class="node">
<title>Node3</title>
<g id="a_node3"><a xlink:href="classlogging_1_1Logger.html#a752fb9d5de5858235bf6ad0e7ed61797" target="_top" xlink:title="Logs a message.">
<polygon fill="none" stroke="black" points="314,-38.5 314,-57.5 427,-57.5 427,-38.5 314,-38.5"/>
<text text-anchor="middle" x="370.5" y="-45.5" font-family="Helvetica,sans-Serif" font-size="10.00">logging::Logger::log</text>
</a>
</g>
</g>
<!-- Node2&#45;&gt;Node3 -->
<g id="edge2" class="edge">
<title>Node2&#45;&gt;Node3</title>
<path fill="none" stroke="midnightblue" d="M278.18,-48C286.5,-48 295.09,-48 303.52,-48"/>
<polygon fill="midnightblue" stroke="midnightblue" points="303.7,-51.5 313.7,-48 303.7,-44.5 303.7,-51.5"/>
</g>
<!-- Node4 -->
<g id="node4" class="node">
<title>Node4</title>
<g id="a_node4"><a xlink:href="namespaceinternals.html#a27d06fa2d5220c9128fdbb6674cf79c0" target="_top" xlink:title=" ">
<polygon fill="none" stroke="black" points="463,-38.5 463,-57.5 591,-57.5 591,-38.5 463,-38.5"/>
<text text-anchor="middle" x="527" y="-45.5" font-family="Helvetica,sans-Serif" font-size="10.00">internals::localtime_xp</text>
</a>
</g>
</g>
<!-- Node3&#45;&gt;Node4 -->
<g id="edge3" class="edge">
<title>Node3&#45;&gt;Node4</title>
<path fill="none" stroke="midnightblue" d="M427.28,-48C435.6,-48 444.29,-48 452.91,-48"/>
<polygon fill="midnightblue" stroke="midnightblue" points="452.96,-51.5 462.96,-48 452.96,-44.5 452.96,-51.5"/>
</g>
</g>
</svg>
