<?xml version="1.0" encoding="UTF-8" standalone="no"?>
<!DOCTYPE svg PUBLIC "-//W3C//DTD SVG 1.1//EN"
 "http://www.w3.org/Graphics/SVG/1.1/DTD/svg11.dtd">
<!-- Generated by graphviz version 13.0.1 (20250615.1724)
 -->
<!-- Title: steppable::__internals::utils::ProgramArgs::printUsage Pages: 1 -->
<!--zoomable 431 -->

<svg id="main" version="1.1" xmlns="http://www.w3.org/2000/svg" xmlns:xlink="http://www.w3.org/1999/xlink" xml:space="preserve" onload="init(evt)">

<style type="text/css"><![CDATA[
.node, .edge {opacity: 0.7;}
.node.selected, .edge.selected {opacity: 1;}
.edge:hover path { stroke: red; }
.edge:hover polygon { stroke: red; fill: red; }
]]></style>

<defs>
  <circle id="rim" cx="0" cy="0" r="7"/>
  <circle id="rim2" cx="0" cy="0" r="3.5"/>
  <g id="zoomPlus">
    <use xlink:href="#rim" fill="#404040"><set attributeName="fill" to="#808080" begin="zoomplus.mouseover" end="zoomplus.mouseout"/></use>
    <path d="M-4,0h8M0,-4v8" fill="none" stroke="white" stroke-width="1.5" pointer-events="none"/>
  </g>
  <g id="zoomMin">
    <use xlink:href="#rim" fill="#404040"><set attributeName="fill" to="#808080" begin="zoomminus.mouseover" end="zoomminus.mouseout"/></use>
    <path d="M-4,0h8" fill="none" stroke="white" stroke-width="1.5" pointer-events="none"/>
  </g>
  <g id="arrowUp" transform="translate(30 24)">
    <use xlink:href="#rim"/>
    <path pointer-events="none" fill="none" stroke="white" stroke-width="1.5" d="M0,-3.0v7 M-2.5,-0.5L0,-3.0L2.5,-0.5"/>
  </g>
  <g id="arrowRight" transform="rotate(90) translate(36 -43)">
    <use xlink:href="#rim"/>
    <path pointer-events="none" fill="none" stroke="white" stroke-width="1.5" d="M0,-3.0v7 M-2.5,-0.5L0,-3.0L2.5,-0.5"/>
  </g>
  <g id="arrowDown" transform="rotate(180) translate(-30 -48)">
    <use xlink:href="#rim"/>
    <path pointer-events="none" fill="none" stroke="white" stroke-width="1.5" d="M0,-3.0v7 M-2.5,-0.5L0,-3.0L2.5,-0.5"/>
  </g>
  <g id="arrowLeft" transform="rotate(270) translate(-36 17)">
    <use xlink:href="#rim"/>
    <path pointer-events="none" fill="none" stroke="white" stroke-width="1.5" d="M0,-3.0v7 M-2.5,-0.5L0,-3.0L2.5,-0.5"/>
  </g>
  <g id="resetDef">
    <use xlink:href="#rim2" fill="#404040"><set attributeName="fill" to="#808080" begin="reset.mouseover" end="reset.mouseout"/></use>
  </g>
</defs>
<script type="application/ecmascript">
var viewWidth = 1918;
var viewHeight = 431;
var sectionId = 'dynsection-4';
</script>
<script type="application/ecmascript" xlink:href="svg.min.js"/>
<svg id="graph" class="graph">
<g id="viewport">
<title>steppable::__internals::utils::ProgramArgs::printUsage</title>
<!-- Node1 -->
<g id="Node000001" class="node">
<title>Node1</title>
<g id="a_Node000001"><a xlink:title="This function is used to print the possible command&#45;line arguments. Usually called when the user spec...">
<polygon fill="#999999" stroke="#666666" points="123.25,-195.88 0,-195.88 0,-149.62 123.25,-149.62 123.25,-195.88"/>
<text xml:space="preserve" text-anchor="start" x="8" y="-182.38" font-family="Helvetica,sans-Serif" font-size="10.00">steppable::__internals</text>
<text xml:space="preserve" text-anchor="start" x="8" y="-169.62" font-family="Helvetica,sans-Serif" font-size="10.00">::utils::ProgramArgs::</text>
<text xml:space="preserve" text-anchor="middle" x="61.62" y="-156.88" font-family="Helvetica,sans-Serif" font-size="10.00">printUsage</text>
</a>
</g>
</g>
<!-- Node2 -->
<g id="Node000002" class="node">
<title>Node2</title>
<g id="a_Node000002"><a xlink:href="namespacesteppable_1_1localization.html#ae3e0bed8db649955a0360fa32175a0bc" target="_top" xlink:title="Gets a string from origin, and by the key.">
<polygon fill="white" stroke="#666666" points="299.38,-280.12 161.12,-280.12 161.12,-259.38 299.38,-259.38 299.38,-280.12"/>
<text xml:space="preserve" text-anchor="middle" x="230.25" y="-266.62" font-family="Helvetica,sans-Serif" font-size="10.00">steppable::localization::$</text>
</a>
</g>
</g>
<!-- Node1&#45;&gt;Node2 -->
<g id="edge1_Node000001_Node000002" class="edge">
<title>Node1&#45;&gt;Node2</title>
<g id="a_edge1_Node000001_Node000002"><a xlink:title=" ">
<path fill="none" stroke="#63b8ff" d="M86.05,-196.37C104.48,-213.72 131.6,-236.63 159.25,-250.75 162.29,-252.3 165.48,-253.74 168.74,-255.07"/>
<polygon fill="#63b8ff" stroke="#63b8ff" points="167.32,-258.28 177.91,-258.43 169.73,-251.7 167.32,-258.28"/>
</a>
</g>
</g>
<!-- Node3 -->
<g id="Node000003" class="node">
<title>Node3</title>
<g id="a_Node000003"><a xlink:href="namespacesteppable_1_1output.html#aaeed30985adb9664fb71758754dad2fa" target="_top" xlink:title="Prints an error message.">
<polygon fill="white" stroke="#666666" points="795.88,-407.5 688.38,-407.5 688.38,-374 795.88,-374 795.88,-407.5"/>
<text xml:space="preserve" text-anchor="start" x="696.38" y="-394" font-family="Helvetica,sans-Serif" font-size="10.00">steppable::output::</text>
<text xml:space="preserve" text-anchor="middle" x="742.12" y="-381.25" font-family="Helvetica,sans-Serif" font-size="10.00">error</text>
</a>
</g>
</g>
<!-- Node1&#45;&gt;Node3 -->
<g id="edge36_Node000001_Node000003" class="edge">
<title>Node1&#45;&gt;Node3</title>
<g id="a_edge36_Node000001_Node000003"><a xlink:title=" ">
<path fill="none" stroke="#63b8ff" d="M78.43,-196.11C96.1,-221.08 126.56,-260.84 159.25,-288.75 229.28,-348.54 249.48,-366.91 337.25,-394.75 452.48,-431.29 595.66,-416.81 676.9,-403.44"/>
<polygon fill="#63b8ff" stroke="#63b8ff" points="677.17,-406.95 686.45,-401.83 676,-400.05 677.17,-406.95"/>
</a>
</g>
</g>
<!-- Node20 -->
<g id="Node000020" class="node">
<title>Node20</title>
<g id="a_Node000020"><a xlink:href="namespacesteppable_1_1____internals_1_1utils_1_1formats.html#a020bdff691dad4ade1a65f76bef6bfd0" target="_top" xlink:title="Set the text format to bold.">
<polygon fill="white" stroke="#666666" points="291.88,-241.5 168.62,-241.5 168.62,-208 291.88,-208 291.88,-241.5"/>
<text xml:space="preserve" text-anchor="start" x="176.62" y="-228" font-family="Helvetica,sans-Serif" font-size="10.00">steppable::__internals</text>
<text xml:space="preserve" text-anchor="middle" x="230.25" y="-215.25" font-family="Helvetica,sans-Serif" font-size="10.00">::utils::formats::bold</text>
</a>
</g>
</g>
<!-- Node1&#45;&gt;Node20 -->
<g id="edge32_Node000001_Node000020" class="edge">
<title>Node1&#45;&gt;Node20</title>
<g id="a_edge32_Node000001_Node000020"><a xlink:title=" ">
<path fill="none" stroke="#63b8ff" d="M123.72,-191.82C136.64,-195.85 150.32,-200.12 163.41,-204.2"/>
<polygon fill="#63b8ff" stroke="#63b8ff" points="162.19,-207.49 172.78,-207.13 164.28,-200.81 162.19,-207.49"/>
</a>
</g>
</g>
<!-- Node22 -->
<g id="Node000022" class="node">
<title>Node22</title>
<g id="a_Node000022"><a xlink:href="namespacesteppable_1_1____internals_1_1utils_1_1colors.html#a0c81a57789690db931ec76b0407d1e17" target="_top" xlink:title="Set the text color to bright green.">
<polygon fill="white" stroke="#666666" points="301.25,-189.5 159.25,-189.5 159.25,-156 301.25,-156 301.25,-189.5"/>
<text xml:space="preserve" text-anchor="start" x="167.25" y="-176" font-family="Helvetica,sans-Serif" font-size="10.00">steppable::__internals</text>
<text xml:space="preserve" text-anchor="middle" x="230.25" y="-163.25" font-family="Helvetica,sans-Serif" font-size="10.00">::utils::colors::brightGreen</text>
</a>
</g>
</g>
<!-- Node1&#45;&gt;Node22 -->
<g id="edge34_Node000001_Node000022" class="edge">
<title>Node1&#45;&gt;Node22</title>
<g id="a_edge34_Node000001_Node000022"><a xlink:title=" ">
<path fill="none" stroke="#63b8ff" d="M123.72,-172.75C131.49,-172.75 139.53,-172.75 147.55,-172.75"/>
<polygon fill="#63b8ff" stroke="#63b8ff" points="147.34,-176.25 157.34,-172.75 147.34,-169.25 147.34,-176.25"/>
</a>
</g>
</g>
<!-- Node23 -->
<g id="Node000023" class="node">
<title>Node23</title>
<g id="a_Node000023"><a xlink:href="namespacesteppable_1_1____internals_1_1numUtils.html#ae2707a98e2f9ce61b19a5c17c23f6991" target="_top" xlink:title="Checks if a given string is a valid number.">
<polygon fill="white" stroke="#666666" points="291.88,-85.5 168.62,-85.5 168.62,-52 291.88,-52 291.88,-85.5"/>
<text xml:space="preserve" text-anchor="start" x="176.62" y="-72" font-family="Helvetica,sans-Serif" font-size="10.00">steppable::__internals</text>
<text xml:space="preserve" text-anchor="middle" x="230.25" y="-59.25" font-family="Helvetica,sans-Serif" font-size="10.00">::numUtils::isNumber</text>
</a>
</g>
</g>
<!-- Node1&#45;&gt;Node23 -->
<g id="edge37_Node000001_Node000023" class="edge">
<title>Node1&#45;&gt;Node23</title>
<g id="a_edge37_Node000001_Node000023"><a xlink:title=" ">
<path fill="none" stroke="#63b8ff" d="M87.21,-149.13C105.82,-132.23 132.64,-109.89 159.25,-94.75 161.71,-93.35 164.27,-91.99 166.88,-90.69"/>
<polygon fill="#63b8ff" stroke="#63b8ff" points="168.18,-93.95 175.79,-86.57 165.24,-87.59 168.18,-93.95"/>
</a>
</g>
</g>
<!-- Node24 -->
<g id="Node000024" class="node">
<title>Node24</title>
<g id="a_Node000024"><a xlink:href="namespacesteppable_1_1____internals_1_1utils.html#a265f606a0e1f8eb0fc678593f7f44be7" target="_top" xlink:title="Exit the program safely.">
<polygon fill="white" stroke="#666666" points="295.62,-33.5 164.88,-33.5 164.88,0 295.62,0 295.62,-33.5"/>
<text xml:space="preserve" text-anchor="start" x="172.88" y="-20" font-family="Helvetica,sans-Serif" font-size="10.00">steppable::__internals</text>
<text xml:space="preserve" text-anchor="middle" x="230.25" y="-7.25" font-family="Helvetica,sans-Serif" font-size="10.00">::utils::programSafeExit</text>
</a>
</g>
</g>
<!-- Node1&#45;&gt;Node24 -->
<g id="edge38_Node000001_Node000024" class="edge">
<title>Node1&#45;&gt;Node24</title>
<g id="a_edge38_Node000001_Node000024"><a xlink:title=" ">
<path fill="none" stroke="#63b8ff" d="M74.51,-149.32C90.24,-120.48 120.56,-71.78 159.25,-42.75 160.78,-41.6 162.37,-40.5 164.01,-39.44"/>
<polygon fill="#63b8ff" stroke="#63b8ff" points="165.52,-42.6 172.46,-34.6 162.04,-36.53 165.52,-42.6"/>
</a>
</g>
</g>
<!-- Node25 -->
<g id="Node000025" class="node">
<title>Node25</title>
<g id="a_Node000025"><a xlink:href="namespacesteppable_1_1____internals_1_1utils.html#a1d55e037764ba41ec8682f00b30701ff" target="_top" xlink:title="Reset the text color and format to the default values.">
<polygon fill="white" stroke="#666666" points="291.88,-137.5 168.62,-137.5 168.62,-104 291.88,-104 291.88,-137.5"/>
<text xml:space="preserve" text-anchor="start" x="176.62" y="-124" font-family="Helvetica,sans-Serif" font-size="10.00">steppable::__internals</text>
<text xml:space="preserve" text-anchor="middle" x="230.25" y="-111.25" font-family="Helvetica,sans-Serif" font-size="10.00">::utils::reset</text>
</a>
</g>
</g>
<!-- Node1&#45;&gt;Node25 -->
<g id="edge39_Node000001_Node000025" class="edge">
<title>Node1&#45;&gt;Node25</title>
<g id="a_edge39_Node000001_Node000025"><a xlink:title=" ">
<path fill="none" stroke="#63b8ff" d="M123.72,-153.68C136.64,-149.65 150.32,-145.38 163.41,-141.3"/>
<polygon fill="#63b8ff" stroke="#63b8ff" points="164.28,-144.69 172.78,-138.37 162.19,-138.01 164.28,-144.69"/>
</a>
</g>
</g>
<!-- Node2&#45;&gt;Node3 -->
<g id="edge2_Node000002_Node000003" class="edge">
<title>Node2&#45;&gt;Node3</title>
<g id="a_edge2_Node000002_Node000003"><a xlink:title=" ">
<path fill="none" stroke="#63b8ff" d="M239.11,-280.5C254.97,-301.2 293.05,-346.19 337.25,-364.75 449.28,-411.79 594.25,-407.14 676.54,-399.17"/>
<polygon fill="#63b8ff" stroke="#63b8ff" points="676.87,-402.66 686.46,-398.16 676.16,-395.69 676.87,-402.66"/>
</a>
</g>
</g>
<!-- Node4 -->
<g id="Node000004" class="node">
<title>Node4</title>
<g id="a_Node000004"><a xlink:href="namespacesteppable_1_1____internals_1_1utils.html#a9f8874d38acee1827b2ad2aef3dc8386" target="_top" xlink:title=" ">
<polygon fill="white" stroke="#666666" points="469.5,-355.5 337.25,-355.5 337.25,-322 469.5,-322 469.5,-355.5"/>
<text xml:space="preserve" text-anchor="start" x="345.25" y="-342" font-family="Helvetica,sans-Serif" font-size="10.00">steppable::__internals</text>
<text xml:space="preserve" text-anchor="middle" x="403.38" y="-329.25" font-family="Helvetica,sans-Serif" font-size="10.00">::utils::getConfDirectory</text>
</a>
</g>
</g>
<!-- Node2&#45;&gt;Node4 -->
<g id="edge3_Node000002_Node000004" class="edge">
<title>Node2&#45;&gt;Node4</title>
<g id="a_edge3_Node000002_Node000004"><a xlink:title=" ">
<path fill="none" stroke="#63b8ff" d="M257.99,-280.53C282.37,-290.36 319.11,-305.18 349.43,-317.4"/>
<polygon fill="#63b8ff" stroke="#63b8ff" points="347.87,-320.55 358.45,-321.04 350.49,-314.05 347.87,-320.55"/>
</a>
</g>
</g>
<!-- Node19 -->
<g id="Node000019" class="node">
<title>Node19</title>
<g id="a_Node000019"><a xlink:href="namespacesteppable_1_1localization.html#abb3cdf12222c59b01352ee909d1d5e97" target="_top" xlink:title=" ">
<polygon fill="white" stroke="#666666" points="638.12,-153.5 511.88,-153.5 511.88,-120 638.12,-120 638.12,-153.5"/>
<text xml:space="preserve" text-anchor="start" x="519.88" y="-140" font-family="Helvetica,sans-Serif" font-size="10.00">steppable::localization</text>
<text xml:space="preserve" text-anchor="middle" x="575" y="-127.25" font-family="Helvetica,sans-Serif" font-size="10.00">::getLanguage</text>
</a>
</g>
</g>
<!-- Node2&#45;&gt;Node19 -->
<g id="edge30_Node000002_Node000019" class="edge">
<title>Node2&#45;&gt;Node19</title>
<g id="a_edge30_Node000002_Node000019"><a xlink:title=" ">
<path fill="none" stroke="#63b8ff" d="M285.57,-258.89C291.1,-256.66 296.44,-253.98 301.25,-250.75 323.1,-236.09 315.48,-218.53 337.25,-203.75 351.07,-194.36 436.42,-171.43 500.71,-155.01"/>
<polygon fill="#63b8ff" stroke="#63b8ff" points="501.34,-158.46 510.17,-152.6 499.62,-151.67 501.34,-158.46"/>
</a>
</g>
</g>
<!-- Node5 -->
<g id="Node000005" class="node">
<title>Node5</title>
<g id="a_Node000005"><a xlink:href="namespacesteppable_1_1____internals_1_1utils.html#af55d306f308c40f7cf64ad6cdb0235f7" target="_top" xlink:title=" ">
<polygon fill="white" stroke="#666666" points="644.5,-355.5 505.5,-355.5 505.5,-322 644.5,-322 644.5,-355.5"/>
<text xml:space="preserve" text-anchor="start" x="513.5" y="-342" font-family="Helvetica,sans-Serif" font-size="10.00">steppable::__internals</text>
<text xml:space="preserve" text-anchor="middle" x="575" y="-329.25" font-family="Helvetica,sans-Serif" font-size="10.00">::utils::getHomeDirectory</text>
</a>
</g>
</g>
<!-- Node4&#45;&gt;Node5 -->
<g id="edge4_Node000004_Node000005" class="edge">
<title>Node4&#45;&gt;Node5</title>
<g id="a_edge4_Node000004_Node000005"><a xlink:title=" ">
<path fill="none" stroke="#63b8ff" d="M469.96,-338.75C477.81,-338.75 485.9,-338.75 493.94,-338.75"/>
<polygon fill="#63b8ff" stroke="#63b8ff" points="493.71,-342.25 503.71,-338.75 493.71,-335.25 493.71,-342.25"/>
</a>
</g>
</g>
<!-- Node5&#45;&gt;Node3 -->
<g id="edge29_Node000005_Node000003" class="edge">
<title>Node5&#45;&gt;Node3</title>
<g id="a_edge29_Node000005_Node000003"><a xlink:title=" ">
<path fill="none" stroke="#63b8ff" d="M630.53,-355.92C645.56,-360.66 662.01,-365.83 677.51,-370.72"/>
<polygon fill="#63b8ff" stroke="#63b8ff" points="676.03,-373.92 686.62,-373.58 678.13,-367.24 676.03,-373.92"/>
</a>
</g>
</g>
<!-- Node6 -->
<g id="Node000006" class="node">
<title>Node6</title>
<g id="a_Node000006"><a xlink:href="namespacesteppable_1_1____internals_1_1calc.html#a4733396b66cc027f38d17f6aac309590" target="_top" xlink:title="Calculate the error between values a and b.">
<polygon fill="white" stroke="#666666" points="803.75,-355.5 680.5,-355.5 680.5,-322 803.75,-322 803.75,-355.5"/>
<text xml:space="preserve" text-anchor="start" x="688.5" y="-342" font-family="Helvetica,sans-Serif" font-size="10.00">steppable::__internals</text>
<text xml:space="preserve" text-anchor="middle" x="742.12" y="-329.25" font-family="Helvetica,sans-Serif" font-size="10.00">::calc::error</text>
</a>
</g>
</g>
<!-- Node5&#45;&gt;Node6 -->
<g id="edge5_Node000005_Node000006" class="edge">
<title>Node5&#45;&gt;Node6</title>
<g id="a_edge5_Node000005_Node000006"><a xlink:title=" ">
<path fill="none" stroke="#63b8ff" d="M644.59,-338.75C652.6,-338.75 660.79,-338.75 668.85,-338.75"/>
<polygon fill="#63b8ff" stroke="#63b8ff" points="668.61,-342.25 678.61,-338.75 668.61,-335.25 668.61,-342.25"/>
</a>
</g>
</g>
<!-- Node7 -->
<g id="Node000007" class="node">
<title>Node7</title>
<g id="a_Node000007"><a xlink:href="namespacesteppable_1_1____internals_1_1calc.html#ad4d7034aa4fea1469c85db9ddbb006c2" target="_top" xlink:title="Calculates the absolute value of a string representation of a number.">
<polygon fill="white" stroke="#666666" points="963,-406.5 839.75,-406.5 839.75,-373 963,-373 963,-406.5"/>
<text xml:space="preserve" text-anchor="start" x="847.75" y="-393" font-family="Helvetica,sans-Serif" font-size="10.00">steppable::__internals</text>
<text xml:space="preserve" text-anchor="middle" x="901.38" y="-380.25" font-family="Helvetica,sans-Serif" font-size="10.00">::calc::abs</text>
</a>
</g>
</g>
<!-- Node6&#45;&gt;Node7 -->
<g id="edge6_Node000006_Node000007" class="edge">
<title>Node6&#45;&gt;Node7</title>
<g id="a_edge6_Node000006_Node000007"><a xlink:title=" ">
<path fill="none" stroke="#63b8ff" d="M795.92,-355.87C809.02,-360.12 823.19,-364.72 836.74,-369.11"/>
<polygon fill="#63b8ff" stroke="#63b8ff" points="835.42,-372.36 846.01,-372.12 837.58,-365.7 835.42,-372.36"/>
</a>
</g>
</g>
<!-- Node9 -->
<g id="Node000009" class="node">
<title>Node9</title>
<g id="a_Node000009"><a xlink:href="namespacesteppable_1_1____internals_1_1calc.html#a2173185243502a4e962d22b97becdbbb" target="_top" xlink:title="Subtracts one string representation of a number from another string representation of a number.">
<polygon fill="white" stroke="#666666" points="963,-320.5 839.75,-320.5 839.75,-287 963,-287 963,-320.5"/>
<text xml:space="preserve" text-anchor="start" x="847.75" y="-307" font-family="Helvetica,sans-Serif" font-size="10.00">steppable::__internals</text>
<text xml:space="preserve" text-anchor="middle" x="901.38" y="-294.25" font-family="Helvetica,sans-Serif" font-size="10.00">::calc::subtract</text>
</a>
</g>
</g>
<!-- Node6&#45;&gt;Node9 -->
<g id="edge8_Node000006_Node000009" class="edge">
<title>Node6&#45;&gt;Node9</title>
<g id="a_edge8_Node000006_Node000009"><a xlink:title=" ">
<path fill="none" stroke="#63b8ff" d="M803.92,-325.22C811.94,-323.43 820.23,-321.59 828.41,-319.77"/>
<polygon fill="#63b8ff" stroke="#63b8ff" points="829,-323.22 838,-317.63 827.48,-316.39 829,-323.22"/>
</a>
</g>
</g>
<!-- Node8 -->
<g id="Node000008" class="node">
<title>Node8</title>
<g id="a_Node000008"><a xlink:href="namespacesteppable_1_1____internals_1_1calc.html#af34324955c6772c7a3cacd9fe4c9a915" target="_top" xlink:title=" ">
<polygon fill="white" stroke="#666666" points="1122.25,-422.5 999,-422.5 999,-389 1122.25,-389 1122.25,-422.5"/>
<text xml:space="preserve" text-anchor="start" x="1007" y="-409" font-family="Helvetica,sans-Serif" font-size="10.00">steppable::__internals</text>
<text xml:space="preserve" text-anchor="middle" x="1060.62" y="-396.25" font-family="Helvetica,sans-Serif" font-size="10.00">::calc::_abs</text>
</a>
</g>
</g>
<!-- Node7&#45;&gt;Node8 -->
<g id="edge7_Node000007_Node000008" class="edge">
<title>Node7&#45;&gt;Node8</title>
<g id="a_edge7_Node000007_Node000008"><a xlink:title=" ">
<path fill="none" stroke="#63b8ff" d="M963.17,-395.94C971.1,-396.74 979.29,-397.58 987.38,-398.4"/>
<polygon fill="#63b8ff" stroke="#63b8ff" points="986.92,-401.87 997.22,-399.4 987.63,-394.91 986.92,-401.87"/>
</a>
</g>
</g>
<!-- Node9&#45;&gt;Node2 -->
<g id="edge9_Node000009_Node000002" class="edge">
<title>Node9&#45;&gt;Node2</title>
<g id="a_edge9_Node000009_Node000002"><a xlink:title=" ">
<path fill="none" stroke="#63b8ff" d="M839.33,-300.65C717.99,-294.48 446.56,-280.69 311.2,-273.81"/>
<polygon fill="#63b8ff" stroke="#63b8ff" points="311.39,-270.32 301.23,-273.31 311.03,-277.31 311.39,-270.32"/>
</a>
</g>
</g>
<!-- Node9&#45;&gt;Node9 -->
<g id="edge28_Node000009_Node000009" class="edge">
<title>Node9&#45;&gt;Node9</title>
<g id="a_edge28_Node000009_Node000009"><a xlink:title=" ">
<path fill="none" stroke="#63b8ff" d="M872.75,-320.91C867.88,-330.12 877.43,-338.5 901.38,-338.5 914.85,-338.5 923.76,-335.85 928.11,-331.89"/>
<polygon fill="#63b8ff" stroke="#63b8ff" points="931.5,-332.85 929.75,-322.41 924.6,-331.67 931.5,-332.85"/>
</a>
</g>
</g>
<!-- Node10 -->
<g id="Node000010" class="node">
<title>Node10</title>
<g id="a_Node000010"><a xlink:href="namespacesteppable_1_1____internals_1_1calc.html#a8ee74a3b901b7b3f12f0391a0d2be7b8" target="_top" xlink:title="Adds two string representations of numbers, and performs with the column method.">
<polygon fill="white" stroke="#666666" points="1122.25,-320.5 999,-320.5 999,-287 1122.25,-287 1122.25,-320.5"/>
<text xml:space="preserve" text-anchor="start" x="1007" y="-307" font-family="Helvetica,sans-Serif" font-size="10.00">steppable::__internals</text>
<text xml:space="preserve" text-anchor="middle" x="1060.62" y="-294.25" font-family="Helvetica,sans-Serif" font-size="10.00">::calc::add</text>
</a>
</g>
</g>
<!-- Node9&#45;&gt;Node10 -->
<g id="edge10_Node000009_Node000010" class="edge">
<title>Node9&#45;&gt;Node10</title>
<g id="a_edge10_Node000009_Node000010"><a xlink:title=" ">
<path fill="none" stroke="#63b8ff" d="M963.17,-297.16C971.1,-297.02 979.29,-296.97 987.38,-297.02"/>
<polygon fill="#63b8ff" stroke="#63b8ff" points="987.18,-300.52 997.22,-297.14 987.26,-293.52 987.18,-300.52"/>
</a>
</g>
</g>
<!-- Node11 -->
<g id="Node000011" class="node">
<title>Node11</title>
<g id="a_Node000011"><a xlink:href="namespacesteppable_1_1____internals_1_1numUtils.html#a6cc23d8eda7defd591a87a8b1d8b869d" target="_top" xlink:title="Checks if a given string is a zero string.">
<polygon fill="white" stroke="#666666" points="1910,-320.5 1778.5,-320.5 1778.5,-287 1910,-287 1910,-320.5"/>
<text xml:space="preserve" text-anchor="start" x="1786.5" y="-307" font-family="Helvetica,sans-Serif" font-size="10.00">steppable::__internals</text>
<text xml:space="preserve" text-anchor="middle" x="1844.25" y="-294.25" font-family="Helvetica,sans-Serif" font-size="10.00">::numUtils::isZeroString</text>
</a>
</g>
</g>
<!-- Node9&#45;&gt;Node11 -->
<g id="edge26_Node000009_Node000011" class="edge">
<title>Node9&#45;&gt;Node11</title>
<g id="a_edge26_Node000009_Node000011"><a xlink:title=" ">
<path fill="none" stroke="#63b8ff" d="M961.35,-320.98C973.72,-324.21 986.73,-327.33 999,-329.75 1105.54,-350.8 1132.78,-360.75 1241.38,-360.75 1241.38,-360.75 1241.38,-360.75 1449.88,-360.75 1561.26,-360.75 1688.57,-338.09 1767.44,-321.35"/>
<polygon fill="#63b8ff" stroke="#63b8ff" points="1767.72,-324.87 1776.76,-319.34 1766.25,-318.02 1767.72,-324.87"/>
</a>
</g>
</g>
<!-- Node12 -->
<g id="Node000012" class="node">
<title>Node12</title>
<g id="a_Node000012"><a xlink:href="namespacesteppable_1_1____internals_1_1numUtils.html#af904a63deb5a7cc413325eb08b2118f3" target="_top" xlink:title=" ">
<polygon fill="white" stroke="#666666" points="1308.5,-263.5 1176.25,-263.5 1176.25,-230 1308.5,-230 1308.5,-263.5"/>
<text xml:space="preserve" text-anchor="start" x="1184.25" y="-250" font-family="Helvetica,sans-Serif" font-size="10.00">steppable::__internals</text>
<text xml:space="preserve" text-anchor="middle" x="1242.38" y="-237.25" font-family="Helvetica,sans-Serif" font-size="10.00">::numUtils::splitNumber</text>
</a>
</g>
</g>
<!-- Node9&#45;&gt;Node12 -->
<g id="edge27_Node000009_Node000012" class="edge">
<title>Node9&#45;&gt;Node12</title>
<g id="a_edge27_Node000009_Node000012"><a xlink:title=" ">
<path fill="none" stroke="#63b8ff" d="M961.35,-286.52C973.72,-283.29 986.73,-280.17 999,-277.75 1054,-266.89 1116.81,-258.98 1164.7,-253.87"/>
<polygon fill="#63b8ff" stroke="#63b8ff" points="1164.84,-257.37 1174.42,-252.85 1164.11,-250.41 1164.84,-257.37"/>
</a>
</g>
</g>
<!-- Node16 -->
<g id="Node000016" class="node">
<title>Node16</title>
<g id="a_Node000016"><a xlink:href="namespacesteppable_1_1____internals_1_1calc.html#a42acdef9fc1e043591a9f42918ba7984" target="_top" xlink:title="Compares two string representations of numbers.">
<polygon fill="white" stroke="#666666" points="1122.25,-230.5 999,-230.5 999,-197 1122.25,-197 1122.25,-230.5"/>
<text xml:space="preserve" text-anchor="start" x="1007" y="-217" font-family="Helvetica,sans-Serif" font-size="10.00">steppable::__internals</text>
<text xml:space="preserve" text-anchor="middle" x="1060.62" y="-204.25" font-family="Helvetica,sans-Serif" font-size="10.00">::calc::compare</text>
</a>
</g>
</g>
<!-- Node9&#45;&gt;Node16 -->
<g id="edge20_Node000009_Node000016" class="edge">
<title>Node9&#45;&gt;Node16</title>
<g id="a_edge20_Node000009_Node000016"><a xlink:title=" ">
<path fill="none" stroke="#63b8ff" d="M929.12,-286.67C948.34,-274.58 974.99,-258.19 999,-244.75 1004.22,-241.83 1009.75,-238.85 1015.26,-235.95"/>
<polygon fill="#63b8ff" stroke="#63b8ff" points="1016.48,-239.26 1023.74,-231.54 1013.25,-233.05 1016.48,-239.26"/>
</a>
</g>
</g>
<!-- Node10&#45;&gt;Node2 -->
<g id="edge11_Node000010_Node000002" class="edge">
<title>Node10&#45;&gt;Node2</title>
<g id="a_edge11_Node000010_Node000002"><a xlink:title=" ">
<path fill="none" stroke="#63b8ff" d="M1001.73,-286.53C989.05,-283.22 975.64,-280.07 963,-277.75 866.4,-260.04 841.34,-255.75 743.12,-255.75 574,-255.75 574,-255.75 574,-255.75 483.88,-255.75 380.54,-260.64 311.1,-264.64"/>
<polygon fill="#63b8ff" stroke="#63b8ff" points="311.11,-261.14 301.33,-265.21 311.52,-268.12 311.11,-261.14"/>
</a>
</g>
</g>
<!-- Node10&#45;&gt;Node9 -->
<g id="edge19_Node000010_Node000009" class="edge">
<title>Node10&#45;&gt;Node9</title>
<g id="a_edge19_Node000010_Node000009"><a xlink:title=" ">
<path fill="none" stroke="#63b8ff" d="M998.73,-310.35C990.8,-310.49 982.61,-310.53 974.52,-310.48"/>
<polygon fill="#63b8ff" stroke="#63b8ff" points="974.73,-306.98 964.69,-310.36 974.64,-313.98 974.73,-306.98"/>
</a>
</g>
</g>
<!-- Node10&#45;&gt;Node11 -->
<g id="edge12_Node000010_Node000011" class="edge">
<title>Node10&#45;&gt;Node11</title>
<g id="a_edge12_Node000010_Node000011"><a xlink:title=" ">
<path fill="none" stroke="#63b8ff" d="M1122.63,-303.75C1263.63,-303.75 1611.83,-303.75 1766.77,-303.75"/>
<polygon fill="#63b8ff" stroke="#63b8ff" points="1766.52,-307.25 1776.52,-303.75 1766.52,-300.25 1766.52,-307.25"/>
</a>
</g>
</g>
<!-- Node10&#45;&gt;Node12 -->
<g id="edge13_Node000010_Node000012" class="edge">
<title>Node10&#45;&gt;Node12</title>
<g id="a_edge13_Node000010_Node000012"><a xlink:title=" ">
<path fill="none" stroke="#63b8ff" d="M1115.56,-286.65C1134.66,-280.59 1156.37,-273.71 1176.31,-267.38"/>
<polygon fill="#63b8ff" stroke="#63b8ff" points="1177.25,-270.75 1185.73,-264.4 1175.14,-264.08 1177.25,-270.75"/>
</a>
</g>
</g>
<!-- Node12&#45;&gt;Node11 -->
<g id="edge14_Node000012_Node000011" class="edge">
<title>Node12&#45;&gt;Node11</title>
<g id="a_edge14_Node000012_Node000011"><a xlink:title=" ">
<path fill="none" stroke="#63b8ff" d="M1308.71,-252.96C1420.65,-263.59 1648.47,-285.24 1767.29,-296.53"/>
<polygon fill="#63b8ff" stroke="#63b8ff" points="1766.65,-299.99 1776.94,-297.45 1767.32,-293.02 1766.65,-299.99"/>
</a>
</g>
</g>
<!-- Node13 -->
<g id="Node000013" class="node">
<title>Node13</title>
<g id="a_Node000013"><a xlink:href="namespacesteppable_1_1____internals_1_1numUtils.html#a5d7e8d74d304a1ac7fc2ad4dbf5b40ae" target="_top" xlink:title=" ">
<polygon fill="white" stroke="#666666" points="1535.25,-218.5 1362.5,-218.5 1362.5,-185 1535.25,-185 1535.25,-218.5"/>
<text xml:space="preserve" text-anchor="start" x="1370.5" y="-205" font-family="Helvetica,sans-Serif" font-size="10.00">steppable::__internals</text>
<text xml:space="preserve" text-anchor="middle" x="1448.88" y="-192.25" font-family="Helvetica,sans-Serif" font-size="10.00">::numUtils::removeTrailingZeros</text>
</a>
</g>
</g>
<!-- Node12&#45;&gt;Node13 -->
<g id="edge15_Node000012_Node000013" class="edge">
<title>Node12&#45;&gt;Node13</title>
<g id="a_edge15_Node000012_Node000013"><a xlink:title=" ">
<path fill="none" stroke="#63b8ff" d="M1308.92,-232.33C1324.83,-228.83 1342.11,-225.02 1358.9,-221.33"/>
<polygon fill="#63b8ff" stroke="#63b8ff" points="1359.35,-224.81 1368.36,-219.25 1357.84,-217.98 1359.35,-224.81"/>
</a>
</g>
</g>
<!-- Node14 -->
<g id="Node000014" class="node">
<title>Node14</title>
<g id="a_Node000014"><a xlink:href="namespacesteppable_1_1____internals_1_1numUtils.html#a503084b920a7cfd569d321e04dcb4ae5" target="_top" xlink:title="Simplifies a string that represents a number with non&#45;standard polarity.">
<polygon fill="white" stroke="#666666" points="1742.5,-256.5 1571.25,-256.5 1571.25,-223 1742.5,-223 1742.5,-256.5"/>
<text xml:space="preserve" text-anchor="start" x="1579.25" y="-243" font-family="Helvetica,sans-Serif" font-size="10.00">steppable::__internals</text>
<text xml:space="preserve" text-anchor="middle" x="1656.88" y="-230.25" font-family="Helvetica,sans-Serif" font-size="10.00">::numUtils::simplifyZeroPolarity</text>
</a>
</g>
</g>
<!-- Node12&#45;&gt;Node14 -->
<g id="edge16_Node000012_Node000014" class="edge">
<title>Node12&#45;&gt;Node14</title>
<g id="a_edge16_Node000012_Node000014"><a xlink:title=" ">
<path fill="none" stroke="#63b8ff" d="M1308.74,-245.64C1376.29,-244.49 1482.48,-242.69 1559.63,-241.38"/>
<polygon fill="#63b8ff" stroke="#63b8ff" points="1559.34,-244.89 1569.28,-241.22 1559.22,-237.89 1559.34,-244.89"/>
</a>
</g>
</g>
<!-- Node15 -->
<g id="Node000015" class="node">
<title>Node15</title>
<g id="a_Node000015"><a xlink:href="namespacesteppable_1_1____internals_1_1stringUtils.html#a2600efb348f0dd19cc0068946d06b1b7" target="_top" xlink:title="Splits a string into substrings based on a separator.">
<polygon fill="white" stroke="#666666" points="1510.5,-114.5 1387.25,-114.5 1387.25,-81 1510.5,-81 1510.5,-114.5"/>
<text xml:space="preserve" text-anchor="start" x="1395.25" y="-101" font-family="Helvetica,sans-Serif" font-size="10.00">steppable::__internals</text>
<text xml:space="preserve" text-anchor="middle" x="1448.88" y="-88.25" font-family="Helvetica,sans-Serif" font-size="10.00">::stringUtils::split</text>
</a>
</g>
</g>
<!-- Node12&#45;&gt;Node15 -->
<g id="edge18_Node000012_Node000015" class="edge">
<title>Node12&#45;&gt;Node15</title>
<g id="a_edge18_Node000012_Node000015"><a xlink:title=" ">
<path fill="none" stroke="#63b8ff" d="M1282.72,-229.66C1297.82,-221.64 1314.34,-210.92 1326.5,-197.75 1351.31,-170.88 1334.69,-147.5 1362.5,-123.75 1366.81,-120.07 1371.63,-116.91 1376.72,-114.2"/>
<polygon fill="#63b8ff" stroke="#63b8ff" points="1377.84,-117.54 1385.43,-110.16 1374.89,-111.19 1377.84,-117.54"/>
</a>
</g>
</g>
<!-- Node14&#45;&gt;Node11 -->
<g id="edge17_Node000014_Node000011" class="edge">
<title>Node14&#45;&gt;Node11</title>
<g id="a_edge17_Node000014_Node000011"><a xlink:title=" ">
<path fill="none" stroke="#63b8ff" d="M1707.55,-256.9C1730.72,-264.9 1758.5,-274.49 1782.87,-282.9"/>
<polygon fill="#63b8ff" stroke="#63b8ff" points="1781.41,-286.1 1792.01,-286.06 1783.69,-279.49 1781.41,-286.1"/>
</a>
</g>
</g>
<!-- Node16&#45;&gt;Node2 -->
<g id="edge21_Node000016_Node000002" class="edge">
<title>Node16&#45;&gt;Node2</title>
<g id="a_edge21_Node000016_Node000002"><a xlink:title=" ">
<path fill="none" stroke="#63b8ff" d="M998.66,-214.98C934.93,-216.15 832.01,-217.75 743.12,-217.75 574,-217.75 574,-217.75 574,-217.75 471.16,-217.75 352.91,-240.91 285.64,-256.32"/>
<polygon fill="#63b8ff" stroke="#63b8ff" points="284.91,-252.9 275.96,-258.57 286.49,-259.72 284.91,-252.9"/>
</a>
</g>
</g>
<!-- Node16&#45;&gt;Node12 -->
<g id="edge22_Node000016_Node000012" class="edge">
<title>Node16&#45;&gt;Node12</title>
<g id="a_edge22_Node000016_Node000012"><a xlink:title=" ">
<path fill="none" stroke="#63b8ff" d="M1122.73,-224.97C1136.22,-227.45 1150.68,-230.1 1164.7,-232.67"/>
<polygon fill="#63b8ff" stroke="#63b8ff" points="1163.87,-236.08 1174.34,-234.44 1165.13,-229.19 1163.87,-236.08"/>
</a>
</g>
</g>
<!-- Node17 -->
<g id="Node000017" class="node">
<title>Node17</title>
<g id="a_Node000017"><a xlink:href="namespacesteppable_1_1____internals_1_1numUtils.html#ae9066a66afcc38203d68643378d1fde8" target="_top" xlink:title="Standardizes a number string.">
<polygon fill="white" stroke="#666666" points="1326.5,-188.5 1158.25,-188.5 1158.25,-155 1326.5,-155 1326.5,-188.5"/>
<text xml:space="preserve" text-anchor="start" x="1166.25" y="-175" font-family="Helvetica,sans-Serif" font-size="10.00">steppable::__internals</text>
<text xml:space="preserve" text-anchor="middle" x="1242.38" y="-162.25" font-family="Helvetica,sans-Serif" font-size="10.00">::numUtils::standardizeNumber</text>
</a>
</g>
</g>
<!-- Node16&#45;&gt;Node17 -->
<g id="edge23_Node000016_Node000017" class="edge">
<title>Node16&#45;&gt;Node17</title>
<g id="a_edge23_Node000016_Node000017"><a xlink:title=" ">
<path fill="none" stroke="#63b8ff" d="M1122.73,-199.47C1133.68,-196.91 1145.27,-194.21 1156.75,-191.52"/>
<polygon fill="#63b8ff" stroke="#63b8ff" points="1157.27,-195 1166.22,-189.31 1155.68,-188.18 1157.27,-195"/>
</a>
</g>
</g>
<!-- Node18 -->
<g id="Node000018" class="node">
<title>Node18</title>
<g id="a_Node000018"><a xlink:href="namespacesteppable_1_1____internals_1_1numUtils.html#a4d4ffec10442fd8ab9b778e4ff5168dc" target="_top" xlink:title="Simplifies a string with non&#45;standard polarity (e.g., –1, —1, etc.).">
<polygon fill="white" stroke="#666666" points="1523.25,-166.5 1374.5,-166.5 1374.5,-133 1523.25,-133 1523.25,-166.5"/>
<text xml:space="preserve" text-anchor="start" x="1382.5" y="-153" font-family="Helvetica,sans-Serif" font-size="10.00">steppable::__internals</text>
<text xml:space="preserve" text-anchor="middle" x="1448.88" y="-140.25" font-family="Helvetica,sans-Serif" font-size="10.00">::numUtils::simplifyPolarity</text>
</a>
</g>
</g>
<!-- Node17&#45;&gt;Node18 -->
<g id="edge24_Node000017_Node000018" class="edge">
<title>Node17&#45;&gt;Node18</title>
<g id="a_edge24_Node000017_Node000018"><a xlink:title=" ">
<path fill="none" stroke="#63b8ff" d="M1326.85,-162.77C1338.73,-161.49 1350.97,-160.18 1362.88,-158.89"/>
<polygon fill="#63b8ff" stroke="#63b8ff" points="1363.11,-162.39 1372.68,-157.84 1362.36,-155.43 1363.11,-162.39"/>
</a>
</g>
</g>
<!-- Node18&#45;&gt;Node14 -->
<g id="edge25_Node000018_Node000014" class="edge">
<title>Node18&#45;&gt;Node14</title>
<g id="a_edge25_Node000018_Node000014"><a xlink:title=" ">
<path fill="none" stroke="#63b8ff" d="M1511.47,-166.95C1519.55,-169.66 1527.66,-172.61 1535.25,-175.75 1563.69,-187.5 1594.3,-203.78 1617.57,-216.99"/>
<polygon fill="#63b8ff" stroke="#63b8ff" points="1615.65,-219.93 1626.07,-221.87 1619.14,-213.85 1615.65,-219.93"/>
</a>
</g>
</g>
<!-- Node19&#45;&gt;Node15 -->
<g id="edge31_Node000019_Node000015" class="edge">
<title>Node19&#45;&gt;Node15</title>
<g id="a_edge31_Node000019_Node000015"><a xlink:title=" ">
<path fill="none" stroke="#63b8ff" d="M638.56,-125.66C703.72,-115.08 808.87,-100.75 900.38,-100.75 900.38,-100.75 900.38,-100.75 1061.62,-100.75 1171.24,-100.75 1298.35,-99.53 1375.92,-98.64"/>
<polygon fill="#63b8ff" stroke="#63b8ff" points="1375.53,-102.15 1385.49,-98.53 1375.45,-95.15 1375.53,-102.15"/>
</a>
</g>
</g>
<!-- Node21 -->
<g id="Node000021" class="node">
<title>Node21</title>
<g id="a_Node000021"><a xlink:href="namespacesteppable_1_1____internals_1_1utils.html#a65d6e9f0b589e6d5eab0da73a4ebb16c" target="_top" xlink:title="Check if the output stream is a terminal.">
<polygon fill="white" stroke="#666666" points="465,-151.5 341.75,-151.5 341.75,-118 465,-118 465,-151.5"/>
<text xml:space="preserve" text-anchor="start" x="349.75" y="-138" font-family="Helvetica,sans-Serif" font-size="10.00">steppable::__internals</text>
<text xml:space="preserve" text-anchor="middle" x="403.38" y="-125.25" font-family="Helvetica,sans-Serif" font-size="10.00">::utils::isTerminal</text>
</a>
</g>
</g>
<!-- Node20&#45;&gt;Node21 -->
<g id="edge33_Node000020_Node000021" class="edge">
<title>Node20&#45;&gt;Node21</title>
<g id="a_edge33_Node000020_Node000021"><a xlink:title=" ">
<path fill="none" stroke="#63b8ff" d="M284.28,-207.58C290.16,-204.94 295.94,-202 301.25,-198.75 319.77,-187.43 319.25,-177.88 337.25,-165.75 341.69,-162.76 346.46,-159.9 351.33,-157.22"/>
<polygon fill="#63b8ff" stroke="#63b8ff" points="352.81,-160.39 360.05,-152.66 349.57,-154.19 352.81,-160.39"/>
</a>
</g>
</g>
<!-- Node22&#45;&gt;Node21 -->
<g id="edge35_Node000022_Node000021" class="edge">
<title>Node22&#45;&gt;Node21</title>
<g id="a_edge35_Node000022_Node000021"><a xlink:title=" ">
<path fill="none" stroke="#63b8ff" d="M301.35,-157.18C310.9,-155.06 320.72,-152.88 330.31,-150.75"/>
<polygon fill="#63b8ff" stroke="#63b8ff" points="330.94,-154.2 339.95,-148.61 329.43,-147.36 330.94,-154.2"/>
</a>
</g>
</g>
<!-- Node25&#45;&gt;Node21 -->
<g id="edge40_Node000025_Node000021" class="edge">
<title>Node25&#45;&gt;Node21</title>
<g id="a_edge40_Node000025_Node000021"><a xlink:title=" ">
<path fill="none" stroke="#63b8ff" d="M292.06,-125.73C304.35,-126.73 317.37,-127.8 330.01,-128.83"/>
<polygon fill="#63b8ff" stroke="#63b8ff" points="329.71,-132.32 339.96,-129.64 330.28,-125.34 329.71,-132.32"/>
</a>
</g>
</g>
</g>
</svg>

<g id="navigator" transform="translate(0 0)" fill="#404254">
  <rect fill="#f2f5e9" fill-opacity="0.5" stroke="#606060" stroke-width=".5" x="0" y="0" width="60" height="60"/>
  <use id="zoomplus" xlink:href="#zoomPlus" x="17" y="9" onmousedown="handleZoom(evt,'in')"/>
  <use id="zoomminus" xlink:href="#zoomMin" x="42" y="9" onmousedown="handleZoom(evt,'out')"/>
  <use id="reset" xlink:href="#resetDef" x="30" y="36" onmousedown="handleReset()"/>
   <use id="arrowup" xlink:href="#arrowUp" x="0" y="0" onmousedown="handlePan(0,-1)"/>
  <use id="arrowright" xlink:href="#arrowRight" x="0" y="0" onmousedown="handlePan(1,0)"/>
  <use id="arrowdown" xlink:href="#arrowDown" x="0" y="0" onmousedown="handlePan(0,1)"/>
  <use id="arrowleft" xlink:href="#arrowLeft" x="0" y="0" onmousedown="handlePan(-1,0)"/>
</g>
<svg viewBox="0 0 15 15" width="100%" height="30px" preserveAspectRatio="xMaxYMin meet">
 <g id="arrow_out" transform="scale(0.3 0.3)">
  <a xlink:href="classsteppable_1_1____internals_1_1utils_1_1ProgramArgs_af23f24f2657aad9931800258c08cd49f_cgraph_org.svg" target="_base">
   <rect id="button" ry="5" rx="5" y="6" x="6" height="38" width="38"
        fill="#f2f5e9" fill-opacity="0.5" stroke="#606060" stroke-width="1.0"/>
   <path id="arrow"
     d="M 11.500037,31.436501 C 11.940474,20.09759 22.043105,11.32322 32.158766,21.979434 L 37.068811,17.246167 C 37.068811,17.246167 37.088388,32 37.088388,32 L 22.160133,31.978069 C 22.160133,31.978069 26.997745,27.140456 26.997745,27.140456 C 18.528582,18.264221 13.291696,25.230495 11.500037,31.436501 z"
     style="fill:#404040;"/>
  </a>
 </g>
</svg>

<style type='text/css'>
<![CDATA[
[data-mouse-over-selected='false'] { opacity: 0.7; }
[data-mouse-over-selected='true']  { opacity: 1.0; }
]]>
</style>
<script type="application/ecmascript"><![CDATA[
document.addEventListener('DOMContentLoaded', (event) => {
  highlightEdges();
  highlightAdjacentNodes();
});
]]></script>
</svg>
