<?xml version="1.0" encoding="UTF-8" standalone="no"?>
<!DOCTYPE svg PUBLIC "-//W3C//DTD SVG 1.1//EN"
 "http://www.w3.org/Graphics/SVG/1.1/DTD/svg11.dtd">
<!-- Generated by graphviz version 11.0.0 (20240428.1522)
 -->
<!-- Title: steppable::Fraction::operator* Pages: 1 -->
<svg width="1434pt" height="402pt"
 viewBox="0.00 0.00 1434.25 401.50" xmlns="http://www.w3.org/2000/svg" xmlns:xlink="http://www.w3.org/1999/xlink">
<g id="graph0" class="graph" transform="scale(1 1) rotate(0) translate(4 397.5)">
<title>steppable::Fraction::operator*</title>
<!-- Node1 -->
<g id="Node000001" class="node">
<title>Node1</title>
<g id="a_Node000001"><a xlink:title="Multiplies two fractions together. This function does it by doing a simple fraction multiplication an...">
<polygon fill="#999999" stroke="#666666" points="109,-352.5 0,-352.5 0,-319 109,-319 109,-352.5"/>
<text text-anchor="start" x="8" y="-339" font-family="Helvetica,sans-Serif" font-size="10.00">steppable::Fraction</text>
<text text-anchor="middle" x="54.5" y="-326.25" font-family="Helvetica,sans-Serif" font-size="10.00">::operator*</text>
</a>
</g>
</g>
<!-- Node2 -->
<g id="Node000002" class="node">
<title>Node2</title>
<g id="a_Node000002"><a xlink:href="classsteppable_1_1Fraction.html#ab5b4a2bd2c9223f2ea7bc5c699857aee" target="_top" xlink:title="Initializes a fraction with no top component and bottom component specified. By default,...">
<polygon fill="white" stroke="#666666" points="261.12,-378.5 152.12,-378.5 152.12,-345 261.12,-345 261.12,-378.5"/>
<text text-anchor="start" x="160.12" y="-365" font-family="Helvetica,sans-Serif" font-size="10.00">steppable::Fraction</text>
<text text-anchor="middle" x="206.62" y="-352.25" font-family="Helvetica,sans-Serif" font-size="10.00">::Fraction</text>
</a>
</g>
</g>
<!-- Node1&#45;&gt;Node2 -->
<g id="edge1_Node000001_Node000002" class="edge">
<title>Node1&#45;&gt;Node2</title>
<g id="a_edge1_Node000001_Node000002"><a xlink:title=" ">
<path fill="none" stroke="#63b8ff" d="M109.27,-345.06C119.41,-346.82 130.1,-348.67 140.54,-350.48"/>
<polygon fill="#63b8ff" stroke="#63b8ff" points="139.78,-353.9 150.23,-352.16 140.97,-347 139.78,-353.9"/>
</a>
</g>
</g>
<!-- Node3 -->
<g id="Node000003" class="node">
<title>Node3</title>
<g id="a_Node000003"><a xlink:href="namespacesteppable_1_1____internals_1_1arithmetic.html#a59c559ff2ec84dc1964531893a457c66" target="_top" xlink:title="Multiplies two string representations of numbers.">
<polygon fill="white" stroke="#666666" points="268.25,-326.5 145,-326.5 145,-293 268.25,-293 268.25,-326.5"/>
<text text-anchor="start" x="153" y="-313" font-family="Helvetica,sans-Serif" font-size="10.00">steppable::__internals</text>
<text text-anchor="middle" x="206.62" y="-300.25" font-family="Helvetica,sans-Serif" font-size="10.00">::arithmetic::multiply</text>
</a>
</g>
</g>
<!-- Node1&#45;&gt;Node3 -->
<g id="edge2_Node000001_Node000003" class="edge">
<title>Node1&#45;&gt;Node3</title>
<g id="a_edge2_Node000001_Node000003"><a xlink:title=" ">
<path fill="none" stroke="#63b8ff" d="M109.27,-326.44C117.05,-325.09 125.16,-323.69 133.23,-322.29"/>
<polygon fill="#63b8ff" stroke="#63b8ff" points="133.82,-325.74 143.08,-320.58 132.63,-318.84 133.82,-325.74"/>
</a>
</g>
</g>
<!-- Node4 -->
<g id="Node000004" class="node">
<title>Node4</title>
<g id="a_Node000004"><a xlink:href="namespacesteppable_1_1____internals_1_1numUtils.html#a8ce9e01517c4e53205ea82fc8ad1124b" target="_top" xlink:title="Determines whether the number is a power of 10.">
<polygon fill="white" stroke="#666666" points="459.38,-393.5 321.12,-393.5 321.12,-360 459.38,-360 459.38,-393.5"/>
<text text-anchor="start" x="329.12" y="-380" font-family="Helvetica,sans-Serif" font-size="10.00">steppable::__internals</text>
<text text-anchor="middle" x="390.25" y="-367.25" font-family="Helvetica,sans-Serif" font-size="10.00">::numUtils::isPowerOfTen</text>
</a>
</g>
</g>
<!-- Node3&#45;&gt;Node4 -->
<g id="edge3_Node000003_Node000004" class="edge">
<title>Node3&#45;&gt;Node4</title>
<g id="a_edge3_Node000003_Node000004"><a xlink:title=" ">
<path fill="none" stroke="#63b8ff" d="M253.31,-326.85C269.4,-332.85 287.62,-339.62 304.25,-345.75 313.04,-348.99 322.35,-352.41 331.46,-355.74"/>
<polygon fill="#63b8ff" stroke="#63b8ff" points="330,-358.93 340.6,-359.07 332.41,-352.35 330,-358.93"/>
</a>
</g>
</g>
<!-- Node5 -->
<g id="Node000005" class="node">
<title>Node5</title>
<g id="a_Node000005"><a xlink:href="namespacesteppable_1_1____internals_1_1numUtils.html#afce13d9dd949a08a7e75b27246a276b2" target="_top" xlink:title="Checks if a given string is a zero string.">
<polygon fill="white" stroke="#666666" points="1426.25,-239.5 1294.75,-239.5 1294.75,-206 1426.25,-206 1426.25,-239.5"/>
<text text-anchor="start" x="1302.75" y="-226" font-family="Helvetica,sans-Serif" font-size="10.00">steppable::__internals</text>
<text text-anchor="middle" x="1360.5" y="-213.25" font-family="Helvetica,sans-Serif" font-size="10.00">::numUtils::isZeroString</text>
</a>
</g>
</g>
<!-- Node3&#45;&gt;Node5 -->
<g id="edge4_Node000003_Node000005" class="edge">
<title>Node3&#45;&gt;Node5</title>
<g id="a_edge4_Node000003_Node000005"><a xlink:title=" ">
<path fill="none" stroke="#63b8ff" d="M268.63,-315.67C341.09,-322.19 465.67,-331.75 572.88,-331.75 572.88,-331.75 572.88,-331.75 964.62,-331.75 1098.13,-331.75 1132.22,-313.32 1258.75,-270.75 1279.01,-263.93 1300.53,-254.07 1318.45,-245.06"/>
<polygon fill="#63b8ff" stroke="#63b8ff" points="1319.9,-248.25 1327.2,-240.58 1316.7,-242.02 1319.9,-248.25"/>
</a>
</g>
</g>
<!-- Node6 -->
<g id="Node000006" class="node">
<title>Node6</title>
<g id="a_Node000006"><a xlink:href="namespacesteppable_1_1____internals_1_1numUtils.html#a2564d0f1e7f1bd71ad9c497cf72fc118" target="_top" xlink:title="Move the decimal places of a number.">
<polygon fill="white" stroke="#666666" points="476.25,-217.5 304.25,-217.5 304.25,-184 476.25,-184 476.25,-217.5"/>
<text text-anchor="start" x="312.25" y="-204" font-family="Helvetica,sans-Serif" font-size="10.00">steppable::__internals</text>
<text text-anchor="middle" x="390.25" y="-191.25" font-family="Helvetica,sans-Serif" font-size="10.00">::numUtils::moveDecimalPlaces</text>
</a>
</g>
</g>
<!-- Node3&#45;&gt;Node6 -->
<g id="edge5_Node000003_Node000006" class="edge">
<title>Node3&#45;&gt;Node6</title>
<g id="a_edge5_Node000003_Node000006"><a xlink:title=" ">
<path fill="none" stroke="#63b8ff" d="M236,-292.72C266.97,-274.14 316.7,-244.29 351.07,-223.66"/>
<polygon fill="#63b8ff" stroke="#63b8ff" points="352.7,-226.77 359.47,-218.62 349.1,-220.76 352.7,-226.77"/>
</a>
</g>
</g>
<!-- Node8 -->
<g id="Node000008" class="node">
<title>Node8</title>
<g id="a_Node000008"><a xlink:href="namespacesteppable_1_1____internals_1_1numUtils.html#a6ec6b1fba5358e4335ddce9d58ad60ff" target="_top" xlink:title=" ">
<polygon fill="white" stroke="#666666" points="821.75,-194.5 689.5,-194.5 689.5,-161 821.75,-161 821.75,-194.5"/>
<text text-anchor="start" x="697.5" y="-181" font-family="Helvetica,sans-Serif" font-size="10.00">steppable::__internals</text>
<text text-anchor="middle" x="755.62" y="-168.25" font-family="Helvetica,sans-Serif" font-size="10.00">::numUtils::splitNumber</text>
</a>
</g>
</g>
<!-- Node3&#45;&gt;Node8 -->
<g id="edge20_Node000003_Node000008" class="edge">
<title>Node3&#45;&gt;Node8</title>
<g id="a_edge20_Node000003_Node000008"><a xlink:title=" ">
<path fill="none" stroke="#63b8ff" d="M268.58,-308.56C353.23,-305.25 510.09,-293.05 635.5,-248.75 667.28,-237.52 699.93,-217.34 722.99,-201.36"/>
<polygon fill="#63b8ff" stroke="#63b8ff" points="724.88,-204.31 731.02,-195.68 720.84,-198.59 724.88,-204.31"/>
</a>
</g>
</g>
<!-- Node7 -->
<g id="Node000007" class="node">
<title>Node7</title>
<g id="a_Node000007"><a xlink:href="namespacesteppable_1_1____internals_1_1numUtils.html#acc0d8c2dcee479d9b8c4b5b4585c70d8" target="_top" xlink:title="Determines whether the number is an integer or not.">
<polygon fill="white" stroke="#666666" points="635.5,-239.5 512.25,-239.5 512.25,-206 635.5,-206 635.5,-239.5"/>
<text text-anchor="start" x="520.25" y="-226" font-family="Helvetica,sans-Serif" font-size="10.00">steppable::__internals</text>
<text text-anchor="middle" x="573.88" y="-213.25" font-family="Helvetica,sans-Serif" font-size="10.00">::numUtils::isInteger</text>
</a>
</g>
</g>
<!-- Node6&#45;&gt;Node7 -->
<g id="edge6_Node000006_Node000007" class="edge">
<title>Node6&#45;&gt;Node7</title>
<g id="a_edge6_Node000006_Node000007"><a xlink:title=" ">
<path fill="none" stroke="#63b8ff" d="M476.74,-211.11C484.72,-212.07 492.75,-213.04 500.59,-213.99"/>
<polygon fill="#63b8ff" stroke="#63b8ff" points="500.05,-217.45 510.4,-215.18 500.89,-210.51 500.05,-217.45"/>
</a>
</g>
</g>
<!-- Node6&#45;&gt;Node8 -->
<g id="edge17_Node000006_Node000008" class="edge">
<title>Node6&#45;&gt;Node8</title>
<g id="a_edge17_Node000006_Node000008"><a xlink:title=" ">
<path fill="none" stroke="#63b8ff" d="M476.45,-195.36C537.41,-191.5 618.79,-186.35 677.77,-182.61"/>
<polygon fill="#63b8ff" stroke="#63b8ff" points="677.99,-186.11 687.75,-181.98 677.55,-179.12 677.99,-186.11"/>
</a>
</g>
</g>
<!-- Node14 -->
<g id="Node000014" class="node">
<title>Node14</title>
<g id="a_Node000014"><a xlink:href="namespacesteppable_1_1____internals_1_1numUtils.html#a97316c4c4bc4640d519cec4841c7b0e9" target="_top" xlink:title="Standardizes a number string.">
<polygon fill="white" stroke="#666666" points="839.75,-97.5 671.5,-97.5 671.5,-64 839.75,-64 839.75,-97.5"/>
<text text-anchor="start" x="679.5" y="-84" font-family="Helvetica,sans-Serif" font-size="10.00">steppable::__internals</text>
<text text-anchor="middle" x="755.62" y="-71.25" font-family="Helvetica,sans-Serif" font-size="10.00">::numUtils::standardizeNumber</text>
</a>
</g>
</g>
<!-- Node6&#45;&gt;Node14 -->
<g id="edge18_Node000006_Node000014" class="edge">
<title>Node6&#45;&gt;Node14</title>
<g id="a_edge18_Node000006_Node000014"><a xlink:title=" ">
<path fill="none" stroke="#63b8ff" d="M443.31,-183.56C508.88,-161.9 621.45,-124.73 691.75,-101.51"/>
<polygon fill="#63b8ff" stroke="#63b8ff" points="692.82,-104.85 701.22,-98.39 690.63,-98.2 692.82,-104.85"/>
</a>
</g>
</g>
<!-- Node7&#45;&gt;Node5 -->
<g id="edge7_Node000007_Node000005" class="edge">
<title>Node7&#45;&gt;Node5</title>
<g id="a_edge7_Node000007_Node000005"><a xlink:title=" ">
<path fill="none" stroke="#63b8ff" d="M635.85,-236.45C696.35,-249.29 791.91,-267.56 875.75,-274.75 953.58,-281.43 973.66,-281.27 1051.5,-274.75 1131.12,-268.08 1221.11,-251.86 1283.16,-239.3"/>
<polygon fill="#63b8ff" stroke="#63b8ff" points="1283.83,-242.73 1292.93,-237.3 1282.43,-235.87 1283.83,-242.73"/>
</a>
</g>
</g>
<!-- Node7&#45;&gt;Node8 -->
<g id="edge8_Node000007_Node000008" class="edge">
<title>Node7&#45;&gt;Node8</title>
<g id="a_edge8_Node000007_Node000008"><a xlink:title=" ">
<path fill="none" stroke="#63b8ff" d="M635.98,-207.45C649.47,-204.07 663.93,-200.45 677.95,-196.94"/>
<polygon fill="#63b8ff" stroke="#63b8ff" points="678.76,-200.35 687.61,-194.53 677.06,-193.56 678.76,-200.35"/>
</a>
</g>
</g>
<!-- Node8&#45;&gt;Node5 -->
<g id="edge9_Node000008_Node000005" class="edge">
<title>Node8&#45;&gt;Node5</title>
<g id="a_edge9_Node000008_Node000005"><a xlink:title=" ">
<path fill="none" stroke="#63b8ff" d="M822.13,-173.21C839.55,-172.19 858.36,-171.26 875.75,-170.75 953.83,-168.46 973.66,-164.23 1051.5,-170.75 1131.12,-177.42 1221.11,-193.64 1283.16,-206.2"/>
<polygon fill="#63b8ff" stroke="#63b8ff" points="1282.43,-209.63 1292.93,-208.2 1283.83,-202.77 1282.43,-209.63"/>
</a>
</g>
</g>
<!-- Node9 -->
<g id="Node000009" class="node">
<title>Node9</title>
<g id="a_Node000009"><a xlink:href="namespacesteppable_1_1____internals_1_1numUtils.html#a3d4e1e21ccf1afecd766d3152df87212" target="_top" xlink:title=" ">
<polygon fill="white" stroke="#666666" points="1051.5,-85.5 875.75,-85.5 875.75,-52 1051.5,-52 1051.5,-85.5"/>
<text text-anchor="start" x="883.75" y="-72" font-family="Helvetica,sans-Serif" font-size="10.00">steppable::__internals</text>
<text text-anchor="middle" x="963.62" y="-59.25" font-family="Helvetica,sans-Serif" font-size="10.00">::numUtils::removeLeadingZeros</text>
</a>
</g>
</g>
<!-- Node8&#45;&gt;Node9 -->
<g id="edge10_Node000008_Node000009" class="edge">
<title>Node8&#45;&gt;Node9</title>
<g id="a_edge10_Node000008_Node000009"><a xlink:title=" ">
<path fill="none" stroke="#63b8ff" d="M778.94,-160.82C802.18,-143.75 840.11,-117.46 875.75,-99.75 882.67,-96.31 890.07,-93.07 897.52,-90.07"/>
<polygon fill="#63b8ff" stroke="#63b8ff" points="898.57,-93.41 906.63,-86.54 896.04,-86.88 898.57,-93.41"/>
</a>
</g>
</g>
<!-- Node10 -->
<g id="Node000010" class="node">
<title>Node10</title>
<g id="a_Node000010"><a xlink:href="namespacesteppable_1_1____internals_1_1numUtils.html#a5d7e8d74d304a1ac7fc2ad4dbf5b40ae" target="_top" xlink:title=" ">
<polygon fill="white" stroke="#666666" points="1050,-265.5 877.25,-265.5 877.25,-232 1050,-232 1050,-265.5"/>
<text text-anchor="start" x="885.25" y="-252" font-family="Helvetica,sans-Serif" font-size="10.00">steppable::__internals</text>
<text text-anchor="middle" x="963.62" y="-239.25" font-family="Helvetica,sans-Serif" font-size="10.00">::numUtils::removeTrailingZeros</text>
</a>
</g>
</g>
<!-- Node8&#45;&gt;Node10 -->
<g id="edge11_Node000008_Node000010" class="edge">
<title>Node8&#45;&gt;Node10</title>
<g id="a_edge11_Node000008_Node000010"><a xlink:title=" ">
<path fill="none" stroke="#63b8ff" d="M799.93,-194.95C822.41,-203.66 850.41,-214.18 875.75,-222.75 881.11,-224.56 886.68,-226.38 892.29,-228.16"/>
<polygon fill="#63b8ff" stroke="#63b8ff" points="891.07,-231.44 901.65,-231.09 893.15,-224.76 891.07,-231.44"/>
</a>
</g>
</g>
<!-- Node11 -->
<g id="Node000011" class="node">
<title>Node11</title>
<g id="a_Node000011"><a xlink:href="namespacesteppable_1_1____internals_1_1numUtils.html#a32fc3a968fc9629ed8616c539e840472" target="_top" xlink:title="Simplifies a string with non&#45;standard polarity (e.g., –1, —1, etc.).">
<polygon fill="white" stroke="#666666" points="1038,-33.5 889.25,-33.5 889.25,0 1038,0 1038,-33.5"/>
<text text-anchor="start" x="897.25" y="-20" font-family="Helvetica,sans-Serif" font-size="10.00">steppable::__internals</text>
<text text-anchor="middle" x="963.62" y="-7.25" font-family="Helvetica,sans-Serif" font-size="10.00">::numUtils::simplifyPolarity</text>
</a>
</g>
</g>
<!-- Node8&#45;&gt;Node11 -->
<g id="edge12_Node000008_Node000011" class="edge">
<title>Node8&#45;&gt;Node11</title>
<g id="a_edge12_Node000008_Node000011"><a xlink:title=" ">
<path fill="none" stroke="#63b8ff" d="M780.84,-160.72C798.6,-147.41 822.51,-127.71 839.75,-106.75 860.48,-81.54 850.26,-63.13 875.75,-42.75 877.06,-41.71 878.4,-40.7 879.79,-39.74"/>
<polygon fill="#63b8ff" stroke="#63b8ff" points="881.32,-42.9 888.08,-34.74 877.71,-36.91 881.32,-42.9"/>
</a>
</g>
</g>
<!-- Node12 -->
<g id="Node000012" class="node">
<title>Node12</title>
<g id="a_Node000012"><a xlink:href="namespacesteppable_1_1____internals_1_1numUtils.html#a5e6d1c6139edf65f76c0bd6aeba82066" target="_top" xlink:title="Simplifies a string that represents a number with non&#45;standard polarity.">
<polygon fill="white" stroke="#666666" points="1258.75,-123.5 1087.5,-123.5 1087.5,-90 1258.75,-90 1258.75,-123.5"/>
<text text-anchor="start" x="1095.5" y="-110" font-family="Helvetica,sans-Serif" font-size="10.00">steppable::__internals</text>
<text text-anchor="middle" x="1173.12" y="-97.25" font-family="Helvetica,sans-Serif" font-size="10.00">::numUtils::simplifyZeroPolarity</text>
</a>
</g>
</g>
<!-- Node8&#45;&gt;Node12 -->
<g id="edge15_Node000008_Node000012" class="edge">
<title>Node8&#45;&gt;Node12</title>
<g id="a_edge15_Node000008_Node000012"><a xlink:title=" ">
<path fill="none" stroke="#63b8ff" d="M800.1,-160.59C822.39,-152.45 850.17,-143.31 875.75,-137.75 941.63,-123.43 1017.23,-115.65 1075.59,-111.47"/>
<polygon fill="#63b8ff" stroke="#63b8ff" points="1075.78,-114.97 1085.52,-110.79 1075.3,-107.98 1075.78,-114.97"/>
</a>
</g>
</g>
<!-- Node13 -->
<g id="Node000013" class="node">
<title>Node13</title>
<g id="a_Node000013"><a xlink:href="namespacesteppable_1_1____internals_1_1stringUtils.html#a2600efb348f0dd19cc0068946d06b1b7" target="_top" xlink:title="Splits a string into substrings based on a separator.">
<polygon fill="white" stroke="#666666" points="1025.25,-213.5 902,-213.5 902,-180 1025.25,-180 1025.25,-213.5"/>
<text text-anchor="start" x="910" y="-200" font-family="Helvetica,sans-Serif" font-size="10.00">steppable::__internals</text>
<text text-anchor="middle" x="963.62" y="-187.25" font-family="Helvetica,sans-Serif" font-size="10.00">::stringUtils::split</text>
</a>
</g>
</g>
<!-- Node8&#45;&gt;Node13 -->
<g id="edge16_Node000008_Node000013" class="edge">
<title>Node8&#45;&gt;Node13</title>
<g id="a_edge16_Node000008_Node000013"><a xlink:title=" ">
<path fill="none" stroke="#63b8ff" d="M822.09,-183.79C843.76,-185.79 868,-188.02 890.16,-190.07"/>
<polygon fill="#63b8ff" stroke="#63b8ff" points="889.75,-193.54 900.03,-190.98 890.39,-186.57 889.75,-193.54"/>
</a>
</g>
</g>
<!-- Node11&#45;&gt;Node12 -->
<g id="edge13_Node000011_Node000012" class="edge">
<title>Node11&#45;&gt;Node12</title>
<g id="a_edge13_Node000011_Node000012"><a xlink:title=" ">
<path fill="none" stroke="#63b8ff" d="M1027.31,-33.89C1035.53,-36.61 1043.78,-39.58 1051.5,-42.75 1079.97,-54.43 1110.58,-70.72 1133.84,-83.94"/>
<polygon fill="#63b8ff" stroke="#63b8ff" points="1131.92,-86.87 1142.34,-88.83 1135.41,-80.81 1131.92,-86.87"/>
</a>
</g>
</g>
<!-- Node12&#45;&gt;Node5 -->
<g id="edge14_Node000012_Node000005" class="edge">
<title>Node12&#45;&gt;Node5</title>
<g id="a_edge14_Node000012_Node000005"><a xlink:title=" ">
<path fill="none" stroke="#63b8ff" d="M1229.57,-123.89C1239.57,-127.86 1249.68,-132.49 1258.75,-137.75 1287.24,-154.29 1315.55,-179.11 1334.87,-197.66"/>
<polygon fill="#63b8ff" stroke="#63b8ff" points="1332.4,-200.14 1342,-204.63 1337.3,-195.14 1332.4,-200.14"/>
</a>
</g>
</g>
<!-- Node14&#45;&gt;Node11 -->
<g id="edge19_Node000014_Node000011" class="edge">
<title>Node14&#45;&gt;Node11</title>
<g id="a_edge19_Node000014_Node000011"><a xlink:title=" ">
<path fill="none" stroke="#63b8ff" d="M809.93,-63.52C830.48,-56.94 854.18,-49.42 875.75,-42.75 881.58,-40.95 887.63,-39.1 893.71,-37.25"/>
<polygon fill="#63b8ff" stroke="#63b8ff" points="894.63,-40.63 903.19,-34.39 892.6,-33.93 894.63,-40.63"/>
</a>
</g>
</g>
</g>
</svg>
