<?xml version="1.0" encoding="UTF-8" standalone="no"?>
<!DOCTYPE svg PUBLIC "-//W3C//DTD SVG 1.1//EN"
 "http://www.w3.org/Graphics/SVG/1.1/DTD/svg11.dtd">
<!-- Generated by graphviz version 2.43.0 (0)
 -->
<!-- Title: steppable::Fraction::operator&#45; Pages: 1 -->
<!--zoomable 405 -->
<svg id="main" version="1.1" xmlns="http://www.w3.org/2000/svg" xmlns:xlink="http://www.w3.org/1999/xlink" xml:space="preserve" onload="init(evt)">
<style type="text/css"><![CDATA[
.edge:hover path { stroke: red; }
.edge:hover polygon { stroke: red; fill: red; }
]]></style>
<script type="text/javascript"><![CDATA[
var edges = document.getElementsByTagName('g');
if (edges && edges.length) {
  for (var i=0;i<edges.length;i++) {
    if (edges[i].id.substr(0,4)=='edge') {
      edges[i].setAttribute('class','edge');
    }
  }
}
]]></script>
        <defs>
                <circle id="rim" cx="0" cy="0" r="7"/>
                <circle id="rim2" cx="0" cy="0" r="3.5"/>
                <g id="zoomPlus">
                        <use xlink:href="#rim" fill="#404040">
                                <set attributeName="fill" to="#808080" begin="zoomplus.mouseover" end="zoomplus.mouseout"/>
                        </use>
                        <path d="M-4,0h8M0,-4v8" fill="none" stroke="white" stroke-width="1.5" pointer-events="none"/>
                </g>
                <g id="zoomMin">
                        <use xlink:href="#rim" fill="#404040">
                                <set attributeName="fill" to="#808080" begin="zoomminus.mouseover" end="zoomminus.mouseout"/>
                        </use>
                        <path d="M-4,0h8" fill="none" stroke="white" stroke-width="1.5" pointer-events="none"/>
                </g>
                <g id="dirArrow">
                        <path fill="none" stroke="white" stroke-width="1.5" d="M0,-3.0v7 M-2.5,-0.5L0,-3.0L2.5,-0.5"/>
                </g>
               <g id="resetDef">
                       <use xlink:href="#rim2" fill="#404040">
                               <set attributeName="fill" to="#808080" begin="reset.mouseover" end="reset.mouseout"/>
                       </use>
               </g>
        </defs>

<script type="text/javascript">
var viewWidth = 1440;
var viewHeight = 405;
var sectionId = 'dynsection-4';
</script>
<script xlink:href="svgpan.js"/>
<svg id="graph" class="graph">
<g id="viewport">
<title>steppable::Fraction::operator&#45;</title>
<!-- Node1 -->
<g id="node1" class="node">
<title>Node1</title>
<g id="a_node1"><a xlink:title="Subtracts a fraction from another fraction. This function does it by doing a simple fraction subtract...">
<polygon fill="#bfbfbf" stroke="black" points="0,-146.7 0,-176.7 110,-176.7 110,-146.7 0,-146.7"/>
<text text-anchor="start" x="8" y="-164.7" font-family="Helvetica,sans-Serif" font-size="10.00">steppable::Fraction</text>
<text text-anchor="middle" x="55" y="-153.7" font-family="Helvetica,sans-Serif" font-size="10.00">::operator&#45;</text>
</a>
</g>
</g>
<!-- Node2 -->
<g id="node2" class="node">
<title>Node2</title>
<g id="a_node2"><a xlink:href="namespacesteppable_1_1____internals_1_1arithmetic.html#a59c559ff2ec84dc1964531893a457c66" target="_top" xlink:title="Multiplies two string representations of numbers.">
<polygon fill="none" stroke="black" points="146,-199.7 146,-229.7 270,-229.7 270,-199.7 146,-199.7"/>
<text text-anchor="start" x="154" y="-217.7" font-family="Helvetica,sans-Serif" font-size="10.00">steppable::__internals</text>
<text text-anchor="middle" x="208" y="-206.7" font-family="Helvetica,sans-Serif" font-size="10.00">::arithmetic::multiply</text>
</a>
</g>
</g>
<!-- Node1&#45;&gt;Node2 -->
<g id="edge1" class="edge">
<title>Node1&#45;&gt;Node2</title>
<path fill="none" stroke="midnightblue" d="M98.87,-176.75C116.16,-182.82 136.28,-189.88 154.45,-196.26"/>
<polygon fill="midnightblue" stroke="midnightblue" points="153.43,-199.61 164.03,-199.62 155.75,-193.01 153.43,-199.61"/>
</g>
<!-- Node14 -->
<g id="node14" class="node">
<title>Node14</title>
<g id="a_node14"><a xlink:href="namespacesteppable_1_1____internals_1_1arithmetic.html#ae61ae2915786a49aebb7025105cf058e" target="_top" xlink:title="Subtracts one string representation of a number from another string representation of a number.">
<polygon fill="none" stroke="black" points="330.5,-68.7 330.5,-98.7 454.5,-98.7 454.5,-68.7 330.5,-68.7"/>
<text text-anchor="start" x="338.5" y="-86.7" font-family="Helvetica,sans-Serif" font-size="10.00">steppable::__internals</text>
<text text-anchor="middle" x="392.5" y="-75.7" font-family="Helvetica,sans-Serif" font-size="10.00">::arithmetic::subtract</text>
</a>
</g>
</g>
<!-- Node1&#45;&gt;Node14 -->
<g id="edge21" class="edge">
<title>Node1&#45;&gt;Node14</title>
<path fill="none" stroke="midnightblue" d="M110.28,-149.09C167.49,-135.78 257.85,-114.78 320.65,-100.18"/>
<polygon fill="midnightblue" stroke="midnightblue" points="321.53,-103.56 330.48,-97.89 319.95,-96.75 321.53,-103.56"/>
</g>
<!-- Node2&#45;&gt;Node2 -->
<g id="edge19" class="edge">
<title>Node2&#45;&gt;Node2</title>
<path fill="none" stroke="midnightblue" d="M181.51,-229.86C175.12,-239.26 183.95,-248.2 208,-248.2 222.65,-248.2 231.66,-244.88 235.01,-240.16"/>
<polygon fill="midnightblue" stroke="midnightblue" points="238.49,-239.67 234.49,-229.86 231.5,-240.03 238.49,-239.67"/>
</g>
<!-- Node3 -->
<g id="node3" class="node">
<title>Node3</title>
<g id="a_node3"><a xlink:href="namespacesteppable_1_1____internals_1_1numUtils.html#a8ce9e01517c4e53205ea82fc8ad1124b" target="_top" xlink:title="Determines whether the number is a power of 10.">
<polygon fill="none" stroke="black" points="323,-199.7 323,-229.7 462,-229.7 462,-199.7 323,-199.7"/>
<text text-anchor="start" x="331" y="-217.7" font-family="Helvetica,sans-Serif" font-size="10.00">steppable::__internals</text>
<text text-anchor="middle" x="392.5" y="-206.7" font-family="Helvetica,sans-Serif" font-size="10.00">::numUtils::isPowerOfTen</text>
</a>
</g>
</g>
<!-- Node2&#45;&gt;Node3 -->
<g id="edge2" class="edge">
<title>Node2&#45;&gt;Node3</title>
<path fill="none" stroke="midnightblue" d="M270.02,-214.7C283.7,-214.7 298.39,-214.7 312.68,-214.7"/>
<polygon fill="midnightblue" stroke="midnightblue" points="312.98,-218.2 322.98,-214.7 312.98,-211.2 312.98,-218.2"/>
</g>
<!-- Node4 -->
<g id="node4" class="node">
<title>Node4</title>
<g id="a_node4"><a xlink:href="namespacesteppable_1_1____internals_1_1numUtils.html#afce13d9dd949a08a7e75b27246a276b2" target="_top" xlink:title="Checks if a given string is a zero string.">
<polygon fill="none" stroke="black" points="1300,-162.7 1300,-192.7 1432,-192.7 1432,-162.7 1300,-162.7"/>
<text text-anchor="start" x="1308" y="-180.7" font-family="Helvetica,sans-Serif" font-size="10.00">steppable::__internals</text>
<text text-anchor="middle" x="1366" y="-169.7" font-family="Helvetica,sans-Serif" font-size="10.00">::numUtils::isZeroString</text>
</a>
</g>
</g>
<!-- Node2&#45;&gt;Node4 -->
<g id="edge3" class="edge">
<title>Node2&#45;&gt;Node4</title>
<path fill="none" stroke="midnightblue" d="M219.74,-229.92C235.98,-251.8 268.83,-292.03 306,-314.7 413.06,-380.01 450.59,-396.7 576,-396.7 576,-396.7 576,-396.7 969,-396.7 1103.35,-396.7 1153.4,-406.98 1264,-330.7 1310.74,-298.47 1341.38,-236.87 1355.67,-202.48"/>
<polygon fill="midnightblue" stroke="midnightblue" points="1358.94,-203.73 1359.42,-193.14 1352.44,-201.12 1358.94,-203.73"/>
</g>
<!-- Node5 -->
<g id="node5" class="node">
<title>Node5</title>
<g id="a_node5"><a xlink:href="namespacesteppable_1_1____internals_1_1numUtils.html#a2564d0f1e7f1bd71ad9c497cf72fc118" target="_top" xlink:title="Move the decimal places of a number.">
<polygon fill="none" stroke="black" points="306,-274.7 306,-304.7 479,-304.7 479,-274.7 306,-274.7"/>
<text text-anchor="start" x="314" y="-292.7" font-family="Helvetica,sans-Serif" font-size="10.00">steppable::__internals</text>
<text text-anchor="middle" x="392.5" y="-281.7" font-family="Helvetica,sans-Serif" font-size="10.00">::numUtils::moveDecimalPlaces</text>
</a>
</g>
</g>
<!-- Node2&#45;&gt;Node5 -->
<g id="edge4" class="edge">
<title>Node2&#45;&gt;Node5</title>
<path fill="none" stroke="midnightblue" d="M245.93,-229.88C274.6,-241.66 314.51,-258.06 345.29,-270.71"/>
<polygon fill="midnightblue" stroke="midnightblue" points="344.36,-274.11 354.94,-274.68 347.02,-267.64 344.36,-274.11"/>
</g>
<!-- Node7 -->
<g id="node7" class="node">
<title>Node7</title>
<g id="a_node7"><a xlink:href="namespacesteppable_1_1____internals_1_1numUtils.html#a6ec6b1fba5358e4335ddce9d58ad60ff" target="_top" xlink:title=" ">
<polygon fill="none" stroke="black" points="693,-177.7 693,-207.7 826,-207.7 826,-177.7 693,-177.7"/>
<text text-anchor="start" x="701" y="-195.7" font-family="Helvetica,sans-Serif" font-size="10.00">steppable::__internals</text>
<text text-anchor="middle" x="759.5" y="-184.7" font-family="Helvetica,sans-Serif" font-size="10.00">::numUtils::splitNumber</text>
</a>
</g>
</g>
<!-- Node2&#45;&gt;Node7 -->
<g id="edge20" class="edge">
<title>Node2&#45;&gt;Node7</title>
<path fill="none" stroke="midnightblue" d="M260.96,-199.68C275.42,-196.09 291.22,-192.72 306,-190.7 452.66,-170.69 491.06,-179.76 639,-184.7 653.05,-185.17 668.01,-185.95 682.42,-186.85"/>
<polygon fill="midnightblue" stroke="midnightblue" points="682.59,-190.36 692.8,-187.51 683.04,-183.38 682.59,-190.36"/>
</g>
<!-- Node6 -->
<g id="node6" class="node">
<title>Node6</title>
<g id="a_node6"><a xlink:href="namespacesteppable_1_1____internals_1_1numUtils.html#acc0d8c2dcee479d9b8c4b5b4585c70d8" target="_top" xlink:title="Determines whether the number is an integer or not.">
<polygon fill="none" stroke="black" points="515,-337.7 515,-367.7 639,-367.7 639,-337.7 515,-337.7"/>
<text text-anchor="start" x="523" y="-355.7" font-family="Helvetica,sans-Serif" font-size="10.00">steppable::__internals</text>
<text text-anchor="middle" x="577" y="-344.7" font-family="Helvetica,sans-Serif" font-size="10.00">::numUtils::isInteger</text>
</a>
</g>
</g>
<!-- Node5&#45;&gt;Node6 -->
<g id="edge5" class="edge">
<title>Node5&#45;&gt;Node6</title>
<path fill="none" stroke="midnightblue" d="M437.21,-304.79C462.85,-313.64 495.44,-324.89 522.59,-334.27"/>
<polygon fill="midnightblue" stroke="midnightblue" points="521.73,-337.67 532.33,-337.63 524.02,-331.06 521.73,-337.67"/>
</g>
<!-- Node5&#45;&gt;Node7 -->
<g id="edge16" class="edge">
<title>Node5&#45;&gt;Node7</title>
<path fill="none" stroke="midnightblue" d="M479.04,-282.93C526.9,-277.54 587.18,-268.08 639,-251.7 669.19,-242.16 701.25,-225.97 724.55,-212.95"/>
<polygon fill="midnightblue" stroke="midnightblue" points="726.37,-215.94 733.34,-207.96 722.92,-209.85 726.37,-215.94"/>
</g>
<!-- Node13 -->
<g id="node13" class="node">
<title>Node13</title>
<g id="a_node13"><a xlink:href="namespacesteppable_1_1____internals_1_1numUtils.html#a97316c4c4bc4640d519cec4841c7b0e9" target="_top" xlink:title="Standardizes a number string.">
<polygon fill="none" stroke="black" points="675,-293.7 675,-323.7 844,-323.7 844,-293.7 675,-293.7"/>
<text text-anchor="start" x="683" y="-311.7" font-family="Helvetica,sans-Serif" font-size="10.00">steppable::__internals</text>
<text text-anchor="middle" x="759.5" y="-300.7" font-family="Helvetica,sans-Serif" font-size="10.00">::numUtils::standardizeNumber</text>
</a>
</g>
</g>
<!-- Node5&#45;&gt;Node13 -->
<g id="edge17" class="edge">
<title>Node5&#45;&gt;Node13</title>
<path fill="none" stroke="midnightblue" d="M479.08,-294.16C534.73,-297.06 607.33,-300.84 664.58,-303.82"/>
<polygon fill="midnightblue" stroke="midnightblue" points="664.55,-307.32 674.72,-304.34 664.91,-300.33 664.55,-307.32"/>
</g>
<!-- Node6&#45;&gt;Node4 -->
<g id="edge6" class="edge">
<title>Node6&#45;&gt;Node4</title>
<path fill="none" stroke="midnightblue" d="M639.25,-354.32C787.17,-357.18 1159.37,-357.81 1264,-295.7 1303,-272.56 1334.34,-228.9 1351.26,-201.67"/>
<polygon fill="midnightblue" stroke="midnightblue" points="1354.46,-203.15 1356.63,-192.78 1348.47,-199.53 1354.46,-203.15"/>
</g>
<!-- Node6&#45;&gt;Node7 -->
<g id="edge7" class="edge">
<title>Node6&#45;&gt;Node7</title>
<path fill="none" stroke="midnightblue" d="M594.98,-337.65C626.96,-309.3 696.26,-247.87 733.55,-214.82"/>
<polygon fill="midnightblue" stroke="midnightblue" points="736.27,-217.09 741.43,-207.83 731.63,-211.85 736.27,-217.09"/>
</g>
<!-- Node7&#45;&gt;Node4 -->
<g id="edge8" class="edge">
<title>Node7&#45;&gt;Node4</title>
<path fill="none" stroke="midnightblue" d="M774.16,-177.7C794.68,-156.4 835.8,-118.35 880,-103.7 1038.23,-51.26 1237.98,-122.25 1323.3,-158.6"/>
<polygon fill="midnightblue" stroke="midnightblue" points="1322.07,-161.88 1332.64,-162.63 1324.85,-155.45 1322.07,-161.88"/>
</g>
<!-- Node8 -->
<g id="node8" class="node">
<title>Node8</title>
<g id="a_node8"><a xlink:href="namespacesteppable_1_1____internals_1_1numUtils.html#a3d4e1e21ccf1afecd766d3152df87212" target="_top" xlink:title=" ">
<polygon fill="none" stroke="black" points="880,-211.7 880,-241.7 1056,-241.7 1056,-211.7 880,-211.7"/>
<text text-anchor="start" x="888" y="-229.7" font-family="Helvetica,sans-Serif" font-size="10.00">steppable::__internals</text>
<text text-anchor="middle" x="968" y="-218.7" font-family="Helvetica,sans-Serif" font-size="10.00">::numUtils::removeLeadingZeros</text>
</a>
</g>
</g>
<!-- Node7&#45;&gt;Node8 -->
<g id="edge9" class="edge">
<title>Node7&#45;&gt;Node8</title>
<path fill="none" stroke="midnightblue" d="M826.12,-203.51C839.94,-205.78 854.8,-208.23 869.5,-210.65"/>
<polygon fill="midnightblue" stroke="midnightblue" points="869.2,-214.15 879.64,-212.32 870.34,-207.24 869.2,-214.15"/>
</g>
<!-- Node9 -->
<g id="node9" class="node">
<title>Node9</title>
<g id="a_node9"><a xlink:href="namespacesteppable_1_1____internals_1_1numUtils.html#a5d7e8d74d304a1ac7fc2ad4dbf5b40ae" target="_top" xlink:title=" ">
<polygon fill="none" stroke="black" points="881.5,-162.7 881.5,-192.7 1054.5,-192.7 1054.5,-162.7 881.5,-162.7"/>
<text text-anchor="start" x="889.5" y="-180.7" font-family="Helvetica,sans-Serif" font-size="10.00">steppable::__internals</text>
<text text-anchor="middle" x="968" y="-169.7" font-family="Helvetica,sans-Serif" font-size="10.00">::numUtils::removeTrailingZeros</text>
</a>
</g>
</g>
<!-- Node7&#45;&gt;Node9 -->
<g id="edge10" class="edge">
<title>Node7&#45;&gt;Node9</title>
<path fill="none" stroke="midnightblue" d="M826.12,-187.94C840.32,-186.91 855.62,-185.79 870.73,-184.7"/>
<polygon fill="midnightblue" stroke="midnightblue" points="871.41,-188.16 881.13,-183.94 870.91,-181.18 871.41,-188.16"/>
</g>
<!-- Node10 -->
<g id="node10" class="node">
<title>Node10</title>
<g id="a_node10"><a xlink:href="namespacesteppable_1_1____internals_1_1numUtils.html#a32fc3a968fc9629ed8616c539e840472" target="_top" xlink:title="Simplifies a string with non&#45;standard polarity (e.g., –1, —1, etc.).">
<polygon fill="none" stroke="black" points="893.5,-299.7 893.5,-329.7 1042.5,-329.7 1042.5,-299.7 893.5,-299.7"/>
<text text-anchor="start" x="901.5" y="-317.7" font-family="Helvetica,sans-Serif" font-size="10.00">steppable::__internals</text>
<text text-anchor="middle" x="968" y="-306.7" font-family="Helvetica,sans-Serif" font-size="10.00">::numUtils::simplifyPolarity</text>
</a>
</g>
</g>
<!-- Node7&#45;&gt;Node10 -->
<g id="edge11" class="edge">
<title>Node7&#45;&gt;Node10</title>
<path fill="none" stroke="midnightblue" d="M776.7,-207.98C798.63,-227.96 839.66,-262.98 880,-284.7 887.77,-288.89 896.23,-292.66 904.73,-296.01"/>
<polygon fill="midnightblue" stroke="midnightblue" points="903.71,-299.37 914.31,-299.61 906.18,-292.81 903.71,-299.37"/>
</g>
<!-- Node11 -->
<g id="node11" class="node">
<title>Node11</title>
<g id="a_node11"><a xlink:href="namespacesteppable_1_1____internals_1_1numUtils.html#a5e6d1c6139edf65f76c0bd6aeba82066" target="_top" xlink:title="Simplifies a string that represents a number with non&#45;standard polarity.">
<polygon fill="none" stroke="black" points="1092,-255.7 1092,-285.7 1264,-285.7 1264,-255.7 1092,-255.7"/>
<text text-anchor="start" x="1100" y="-273.7" font-family="Helvetica,sans-Serif" font-size="10.00">steppable::__internals</text>
<text text-anchor="middle" x="1178" y="-262.7" font-family="Helvetica,sans-Serif" font-size="10.00">::numUtils::simplifyZeroPolarity</text>
</a>
</g>
</g>
<!-- Node7&#45;&gt;Node11 -->
<g id="edge14" class="edge">
<title>Node7&#45;&gt;Node11</title>
<path fill="none" stroke="midnightblue" d="M784.1,-207.87C807.44,-222 844.68,-242.26 880,-251.7 945.82,-269.3 1022.64,-273.81 1081.66,-274.05"/>
<polygon fill="midnightblue" stroke="midnightblue" points="1081.72,-277.55 1091.72,-274.05 1081.72,-270.55 1081.72,-277.55"/>
</g>
<!-- Node12 -->
<g id="node12" class="node">
<title>Node12</title>
<g id="a_node12"><a xlink:href="namespacesteppable_1_1____internals_1_1stringUtils.html#a2600efb348f0dd19cc0068946d06b1b7" target="_top" xlink:title="Splits a string into substrings based on a separator.">
<polygon fill="none" stroke="black" points="906,-113.7 906,-143.7 1030,-143.7 1030,-113.7 906,-113.7"/>
<text text-anchor="start" x="914" y="-131.7" font-family="Helvetica,sans-Serif" font-size="10.00">steppable::__internals</text>
<text text-anchor="middle" x="968" y="-120.7" font-family="Helvetica,sans-Serif" font-size="10.00">::stringUtils::split</text>
</a>
</g>
</g>
<!-- Node7&#45;&gt;Node12 -->
<g id="edge15" class="edge">
<title>Node7&#45;&gt;Node12</title>
<path fill="none" stroke="midnightblue" d="M803.46,-177.7C826.13,-169.94 854.47,-160.49 880,-152.7 886.8,-150.63 893.92,-148.54 901.04,-146.5"/>
<polygon fill="midnightblue" stroke="midnightblue" points="902.05,-149.85 910.71,-143.75 900.14,-143.12 902.05,-149.85"/>
</g>
<!-- Node10&#45;&gt;Node11 -->
<g id="edge12" class="edge">
<title>Node10&#45;&gt;Node11</title>
<path fill="none" stroke="midnightblue" d="M1040,-299.68C1058.06,-295.87 1077.59,-291.73 1096.1,-287.82"/>
<polygon fill="midnightblue" stroke="midnightblue" points="1096.91,-291.22 1105.97,-285.73 1095.46,-284.38 1096.91,-291.22"/>
</g>
<!-- Node11&#45;&gt;Node4 -->
<g id="edge13" class="edge">
<title>Node11&#45;&gt;Node4</title>
<path fill="none" stroke="midnightblue" d="M1209.3,-255.55C1240.91,-239.75 1290.63,-214.89 1325.35,-197.53"/>
<polygon fill="midnightblue" stroke="midnightblue" points="1327.34,-200.45 1334.71,-192.85 1324.21,-194.19 1327.34,-200.45"/>
</g>
<!-- Node13&#45;&gt;Node10 -->
<g id="edge18" class="edge">
<title>Node13&#45;&gt;Node10</title>
<path fill="none" stroke="midnightblue" d="M844.19,-311.14C857.07,-311.51 870.37,-311.9 883.26,-312.27"/>
<polygon fill="midnightblue" stroke="midnightblue" points="883.38,-315.78 893.48,-312.57 883.59,-308.78 883.38,-315.78"/>
</g>
<!-- Node14&#45;&gt;Node4 -->
<g id="edge31" class="edge">
<title>Node14&#45;&gt;Node4</title>
<path fill="none" stroke="midnightblue" d="M428.49,-68.7C452.43,-59.02 485.12,-46.92 515,-39.7 621.05,-14.09 649.4,-8.7 758.5,-8.7 758.5,-8.7 758.5,-8.7 969,-8.7 1100.88,-8.7 1149.67,25.03 1264,-40.7 1308.84,-66.49 1339.59,-121.07 1354.54,-153.01"/>
<polygon fill="midnightblue" stroke="midnightblue" points="1351.53,-154.85 1358.84,-162.52 1357.91,-151.96 1351.53,-154.85"/>
</g>
<!-- Node14&#45;&gt;Node7 -->
<g id="edge32" class="edge">
<title>Node14&#45;&gt;Node7</title>
<path fill="none" stroke="midnightblue" d="M453.38,-98.77C503.3,-111.63 576.15,-131.11 639,-150.7 662.03,-157.88 687.27,-166.62 708.59,-174.27"/>
<polygon fill="midnightblue" stroke="midnightblue" points="707.49,-177.59 718.09,-177.69 709.87,-171.01 707.49,-177.59"/>
</g>
<!-- Node14&#45;&gt;Node14 -->
<g id="edge33" class="edge">
<title>Node14&#45;&gt;Node14</title>
<path fill="none" stroke="midnightblue" d="M360.43,-98.86C352.7,-108.26 363.39,-117.2 392.5,-117.2 410.24,-117.2 421.14,-113.88 425.19,-109.16"/>
<polygon fill="midnightblue" stroke="midnightblue" points="428.67,-108.63 424.57,-98.86 421.68,-109.06 428.67,-108.63"/>
</g>
<!-- Node15 -->
<g id="node15" class="node">
<title>Node15</title>
<g id="a_node15"><a xlink:href="namespacesteppable_1_1____internals_1_1arithmetic.html#a1deb38d5027df01a66b6c3efd57aedca" target="_top" xlink:title="Adds two string representations of numbers, and performs with the column method.">
<polygon fill="none" stroke="black" points="515,-49.7 515,-79.7 639,-79.7 639,-49.7 515,-49.7"/>
<text text-anchor="start" x="523" y="-67.7" font-family="Helvetica,sans-Serif" font-size="10.00">steppable::__internals</text>
<text text-anchor="middle" x="577" y="-56.7" font-family="Helvetica,sans-Serif" font-size="10.00">::arithmetic::add</text>
</a>
</g>
</g>
<!-- Node14&#45;&gt;Node15 -->
<g id="edge22" class="edge">
<title>Node14&#45;&gt;Node15</title>
<path fill="none" stroke="midnightblue" d="M454.52,-70.94C470.57,-68.9 488.02,-67.01 504.56,-65.53"/>
<polygon fill="midnightblue" stroke="midnightblue" points="505.06,-69.01 514.72,-64.67 504.46,-62.03 505.06,-69.01"/>
</g>
<!-- Node16 -->
<g id="node16" class="node">
<title>Node16</title>
<g id="a_node16"><a xlink:href="namespacesteppable_1_1____internals_1_1arithmetic.html#a5e20e50f3da461a8f9d50b14afd68ea8" target="_top" xlink:title="Compares two string representations of numbers.">
<polygon fill="none" stroke="black" points="515,-193.7 515,-223.7 639,-223.7 639,-193.7 515,-193.7"/>
<text text-anchor="start" x="523" y="-211.7" font-family="Helvetica,sans-Serif" font-size="10.00">steppable::__internals</text>
<text text-anchor="middle" x="577" y="-200.7" font-family="Helvetica,sans-Serif" font-size="10.00">::arithmetic::compare</text>
</a>
</g>
</g>
<!-- Node14&#45;&gt;Node16 -->
<g id="edge27" class="edge">
<title>Node14&#45;&gt;Node16</title>
<path fill="none" stroke="midnightblue" d="M415.51,-98.78C447.99,-121.02 508.84,-162.71 545.57,-187.86"/>
<polygon fill="midnightblue" stroke="midnightblue" points="543.68,-190.81 553.91,-193.57 547.64,-185.03 543.68,-190.81"/>
</g>
<!-- Node15&#45;&gt;Node4 -->
<g id="edge24" class="edge">
<title>Node15&#45;&gt;Node4</title>
<path fill="none" stroke="midnightblue" d="M639.03,-53.59C762.34,-33.92 1047.8,-2.69 1264,-88.7 1298.47,-102.42 1329.02,-133.34 1347.26,-154.86"/>
<polygon fill="midnightblue" stroke="midnightblue" points="1344.57,-157.1 1353.63,-162.59 1349.98,-152.65 1344.57,-157.1"/>
</g>
<!-- Node15&#45;&gt;Node7 -->
<g id="edge25" class="edge">
<title>Node15&#45;&gt;Node7</title>
<path fill="none" stroke="midnightblue" d="M599.41,-79.89C631.58,-102.7 692.45,-145.86 728.86,-171.68"/>
<polygon fill="midnightblue" stroke="midnightblue" points="726.93,-174.61 737.11,-177.54 730.98,-168.9 726.93,-174.61"/>
</g>
<!-- Node15&#45;&gt;Node14 -->
<g id="edge26" class="edge">
<title>Node15&#45;&gt;Node14</title>
<path fill="none" stroke="midnightblue" d="M514.72,-77.5C498.66,-79.54 481.21,-81.42 464.68,-82.9"/>
<polygon fill="midnightblue" stroke="midnightblue" points="464.19,-79.43 454.52,-83.76 464.78,-86.4 464.19,-79.43"/>
</g>
<!-- Node15&#45;&gt;Node15 -->
<g id="edge23" class="edge">
<title>Node15&#45;&gt;Node15</title>
<path fill="none" stroke="midnightblue" d="M545.28,-79.86C537.63,-89.26 548.21,-98.2 577,-98.2 594.55,-98.2 605.33,-94.88 609.34,-90.16"/>
<polygon fill="midnightblue" stroke="midnightblue" points="612.81,-89.63 608.72,-79.86 605.83,-90.06 612.81,-89.63"/>
</g>
<!-- Node16&#45;&gt;Node7 -->
<g id="edge29" class="edge">
<title>Node16&#45;&gt;Node7</title>
<path fill="none" stroke="midnightblue" d="M639.11,-203.29C653.15,-202.04 668.25,-200.7 682.83,-199.41"/>
<polygon fill="midnightblue" stroke="midnightblue" points="683.16,-202.9 692.82,-198.53 682.55,-195.92 683.16,-202.9"/>
</g>
<!-- Node16&#45;&gt;Node13 -->
<g id="edge30" class="edge">
<title>Node16&#45;&gt;Node13</title>
<path fill="none" stroke="midnightblue" d="M605.41,-223.89C636.74,-241.25 688.11,-269.71 722.6,-288.82"/>
<polygon fill="midnightblue" stroke="midnightblue" points="720.98,-291.92 731.42,-293.7 724.37,-285.79 720.98,-291.92"/>
</g>
<!-- Node16&#45;&gt;Node16 -->
<g id="edge28" class="edge">
<title>Node16&#45;&gt;Node16</title>
<path fill="none" stroke="midnightblue" d="M545.28,-223.86C537.63,-233.26 548.21,-242.2 577,-242.2 594.55,-242.2 605.33,-238.88 609.34,-234.16"/>
<polygon fill="midnightblue" stroke="midnightblue" points="612.81,-233.63 608.72,-223.86 605.83,-234.06 612.81,-233.63"/>
</g>
</g>
</svg>
        <g id="navigator" transform="translate(0 0)" fill="#404254">
                <rect fill="#f2f5e9" fill-opacity="0.5" stroke="#606060" stroke-width=".5" x="0" y="0" width="60" height="60"/>
                <use id="zoomplus" xlink:href="#zoomPlus" x="17" y="9" onmousedown="handleZoom(evt,'in')"/>
                <use id="zoomminus" xlink:href="#zoomMin" x="42" y="9" onmousedown="handleZoom(evt,'out')"/>
                <use id="reset" xlink:href="#resetDef" x="30" y="36" onmousedown="handleReset()"/>
                <g id="arrowUp" xlink:href="#dirArrow" transform="translate(30 24)" onmousedown="handlePan(0,-1)">
                  <use xlink:href="#rim" fill="#404040">
                        <set attributeName="fill" to="#808080" begin="arrowUp.mouseover" end="arrowUp.mouseout"/>
                  </use>
                  <path fill="none" stroke="white" stroke-width="1.5" d="M0,-3.0v7 M-2.5,-0.5L0,-3.0L2.5,-0.5"/>
                </g>
                <g id="arrowRight" xlink:href="#dirArrow" transform="rotate(90) translate(36 -43)" onmousedown="handlePan(1,0)">
                  <use xlink:href="#rim" fill="#404040">
                        <set attributeName="fill" to="#808080" begin="arrowRight.mouseover" end="arrowRight.mouseout"/>
                  </use>
                  <path fill="none" stroke="white" stroke-width="1.5" d="M0,-3.0v7 M-2.5,-0.5L0,-3.0L2.5,-0.5"/>
                </g>
                <g id="arrowDown" xlink:href="#dirArrow" transform="rotate(180) translate(-30 -48)" onmousedown="handlePan(0,1)">
                  <use xlink:href="#rim" fill="#404040">
                        <set attributeName="fill" to="#808080" begin="arrowDown.mouseover" end="arrowDown.mouseout"/>
                  </use>
                  <path fill="none" stroke="white" stroke-width="1.5" d="M0,-3.0v7 M-2.5,-0.5L0,-3.0L2.5,-0.5"/>
                </g>
                <g id="arrowLeft" xlink:href="#dirArrow" transform="rotate(270) translate(-36 17)" onmousedown="handlePan(-1,0)">
                  <use xlink:href="#rim" fill="#404040">
                        <set attributeName="fill" to="#808080" begin="arrowLeft.mouseover" end="arrowLeft.mouseout"/>
                  </use>
                  <path fill="none" stroke="white" stroke-width="1.5" d="M0,-3.0v7 M-2.5,-0.5L0,-3.0L2.5,-0.5"/>
                </g>
        </g>
        <svg viewBox="0 0 15 15" width="100%" height="30px" preserveAspectRatio="xMaxYMin meet">
         <g id="arrow_out" transform="scale(0.3 0.3)">
          <a xlink:href="classsteppable_1_1Fraction_a0220c31296f34e81e58d3b57c1aefe62_cgraph_org.svg" target="_base">
           <rect id="button" ry="5" rx="5" y="6" x="6" height="38" width="38"
                fill="#f2f5e9" fill-opacity="0.5" stroke="#606060" stroke-width="1.0"/>
           <path id="arrow"
             d="M 11.500037,31.436501 C 11.940474,20.09759 22.043105,11.32322 32.158766,21.979434 L 37.068811,17.246167 C 37.068811,17.246167 37.088388,32 37.088388,32 L 22.160133,31.978069 C 22.160133,31.978069 26.997745,27.140456 26.997745,27.140456 C 18.528582,18.264221 13.291696,25.230495 11.500037,31.436501 z"
             style="fill:#404040;"/>
          </a>
         </g>
        </svg>
</svg>
