<?xml version="1.0" encoding="UTF-8" standalone="no"?>
<!DOCTYPE svg PUBLIC "-//W3C//DTD SVG 1.1//EN"
 "http://www.w3.org/Graphics/SVG/1.1/DTD/svg11.dtd">
<!-- Generated by graphviz version 13.1.0 (20250701.0955)
 -->
<!-- Title: steppable::__internals::stringUtils::GraphemeIterator::next Pages: 1 -->
<!--zoomable 238 -->

<svg id="main" version="1.1" xmlns="http://www.w3.org/2000/svg" xmlns:xlink="http://www.w3.org/1999/xlink" xml:space="preserve" onload="init(evt)">

<style type="text/css"><![CDATA[
.node, .edge {opacity: 0.7;}
.node.selected, .edge.selected {opacity: 1;}
.edge:hover path { stroke: red; }
.edge:hover polygon { stroke: red; fill: red; }
]]></style>

<defs>
  <circle id="rim" cx="0" cy="0" r="7"/>
  <circle id="rim2" cx="0" cy="0" r="3.5"/>
  <g id="zoomPlus">
    <use xlink:href="#rim" fill="#404040"><set attributeName="fill" to="#808080" begin="zoomplus.mouseover" end="zoomplus.mouseout"/></use>
    <path d="M-4,0h8M0,-4v8" fill="none" stroke="white" stroke-width="1.5" pointer-events="none"/>
  </g>
  <g id="zoomMin">
    <use xlink:href="#rim" fill="#404040"><set attributeName="fill" to="#808080" begin="zoomminus.mouseover" end="zoomminus.mouseout"/></use>
    <path d="M-4,0h8" fill="none" stroke="white" stroke-width="1.5" pointer-events="none"/>
  </g>
  <g id="arrowUp" transform="translate(30 24)">
    <use xlink:href="#rim"/>
    <path pointer-events="none" fill="none" stroke="white" stroke-width="1.5" d="M0,-3.0v7 M-2.5,-0.5L0,-3.0L2.5,-0.5"/>
  </g>
  <g id="arrowRight" transform="rotate(90) translate(36 -43)">
    <use xlink:href="#rim"/>
    <path pointer-events="none" fill="none" stroke="white" stroke-width="1.5" d="M0,-3.0v7 M-2.5,-0.5L0,-3.0L2.5,-0.5"/>
  </g>
  <g id="arrowDown" transform="rotate(180) translate(-30 -48)">
    <use xlink:href="#rim"/>
    <path pointer-events="none" fill="none" stroke="white" stroke-width="1.5" d="M0,-3.0v7 M-2.5,-0.5L0,-3.0L2.5,-0.5"/>
  </g>
  <g id="arrowLeft" transform="rotate(270) translate(-36 17)">
    <use xlink:href="#rim"/>
    <path pointer-events="none" fill="none" stroke="white" stroke-width="1.5" d="M0,-3.0v7 M-2.5,-0.5L0,-3.0L2.5,-0.5"/>
  </g>
  <g id="resetDef">
    <use xlink:href="#rim2" fill="#404040"><set attributeName="fill" to="#808080" begin="reset.mouseover" end="reset.mouseout"/></use>
  </g>
</defs>
<script type="application/ecmascript">
var viewWidth = 622;
var viewHeight = 238;
var sectionId = 'dynsection-0';
</script>
<script type="application/ecmascript" xlink:href="svg.min.js"/>
<svg id="graph" class="graph">
<g id="viewport">
<title>steppable::__internals::stringUtils::GraphemeIterator::next</title>
<!-- Node1 -->
<g id="Node000001" class="node">
<title>Node1</title>
<g id="a_Node000001"><a xlink:title=" ">
<polygon fill="#999999" stroke="#666666" points="193,-134.5 0,-134.5 0,-101 193,-101 193,-134.5"/>
<text xml:space="preserve" text-anchor="start" x="8" y="-121" font-family="Helvetica,sans-Serif" font-size="10.00">steppable::__internals</text>
<text xml:space="preserve" text-anchor="middle" x="96.5" y="-108.25" font-family="Helvetica,sans-Serif" font-size="10.00">::stringUtils::GraphemeIterator::next</text>
</a>
</g>
</g>
<!-- Node2 -->
<g id="Node000002" class="node">
<title>Node2</title>
<g id="a_Node000002"><a xlink:href="namespacesteppable_1_1____internals_1_1stringUtils.html#a6383476c95ce1499dafab1e75d66c2ca" target="_top" xlink:title=" ">
<polygon fill="white" stroke="#666666" points="393.5,-211.5 229,-211.5 229,-178 393.5,-178 393.5,-211.5"/>
<text xml:space="preserve" text-anchor="start" x="237" y="-198" font-family="Helvetica,sans-Serif" font-size="10.00">steppable::__internals</text>
<text xml:space="preserve" text-anchor="middle" x="311.25" y="-185.25" font-family="Helvetica,sans-Serif" font-size="10.00">::stringUtils::isClusterExtender</text>
</a>
</g>
</g>
<!-- Node1&#45;&gt;Node2 -->
<g id="edge1_Node000001_Node000002" class="edge">
<title>Node1&#45;&gt;Node2</title>
<g id="a_edge1_Node000001_Node000002"><a xlink:title=" ">
<path fill="none" stroke="#63b8ff" d="M144.98,-134.93C176.7,-146.41 218.61,-161.58 252.29,-173.77"/>
<polygon fill="#63b8ff" stroke="#63b8ff" points="250.9,-176.99 261.49,-177.1 253.28,-170.41 250.9,-176.99"/>
</a>
</g>
</g>
<!-- Node3 -->
<g id="Node000003" class="node">
<title>Node3</title>
<g id="a_Node000003"><a xlink:href="namespacesteppable_1_1____internals_1_1stringUtils.html#a0bc9c3e3de39edf347d4391c4a7eec46" target="_top" xlink:title="Checks if a Unicode code point represents a zero&#45;width character.">
<polygon fill="white" stroke="#666666" points="614.25,-188.5 429.5,-188.5 429.5,-155 614.25,-155 614.25,-188.5"/>
<text xml:space="preserve" text-anchor="start" x="437.5" y="-175" font-family="Helvetica,sans-Serif" font-size="10.00">steppable::__internals</text>
<text xml:space="preserve" text-anchor="middle" x="521.88" y="-162.25" font-family="Helvetica,sans-Serif" font-size="10.00">::stringUtils::isZeroWidthCharacter</text>
</a>
</g>
</g>
<!-- Node1&#45;&gt;Node3 -->
<g id="edge7_Node000001_Node000003" class="edge">
<title>Node1&#45;&gt;Node3</title>
<g id="a_edge7_Node000001_Node000003"><a xlink:title=" ">
<path fill="none" stroke="#63b8ff" d="M193.31,-129.97C260.2,-138.5 349.41,-149.88 417.84,-158.61"/>
<polygon fill="#63b8ff" stroke="#63b8ff" points="417.2,-162.05 427.56,-159.85 418.09,-155.11 417.2,-162.05"/>
</a>
</g>
</g>
<!-- Node4 -->
<g id="Node000004" class="node">
<title>Node4</title>
<g id="a_Node000004"><a xlink:href="namespacesteppable_1_1____internals_1_1stringUtils.html#a3d99742bd2c9dd1f182a681c8c898d88" target="_top" xlink:title=" ">
<polygon fill="white" stroke="#666666" points="380.38,-103.5 242.12,-103.5 242.12,-70 380.38,-70 380.38,-103.5"/>
<text xml:space="preserve" text-anchor="start" x="250.12" y="-90" font-family="Helvetica,sans-Serif" font-size="10.00">steppable::__internals</text>
<text xml:space="preserve" text-anchor="middle" x="311.25" y="-77.25" font-family="Helvetica,sans-Serif" font-size="10.00">::stringUtils::isEmojiBase</text>
</a>
</g>
</g>
<!-- Node1&#45;&gt;Node4 -->
<g id="edge5_Node000001_Node000004" class="edge">
<title>Node1&#45;&gt;Node4</title>
<g id="a_edge5_Node000001_Node000004"><a xlink:title=" ">
<path fill="none" stroke="#63b8ff" d="M193.29,-103.79C205.79,-101.97 218.49,-100.12 230.68,-98.34"/>
<polygon fill="#63b8ff" stroke="#63b8ff" points="230.82,-101.86 240.22,-96.95 229.82,-94.93 230.82,-101.86"/>
</a>
</g>
</g>
<!-- Node5 -->
<g id="Node000005" class="node">
<title>Node5</title>
<g id="a_Node000005"><a xlink:href="namespacesteppable_1_1____internals_1_1stringUtils.html#ad3d6aab0b869f7839a792874caf0bba4" target="_top" xlink:title=" ">
<polygon fill="white" stroke="#666666" points="378.5,-33.5 244,-33.5 244,0 378.5,0 378.5,-33.5"/>
<text xml:space="preserve" text-anchor="start" x="252" y="-20" font-family="Helvetica,sans-Serif" font-size="10.00">steppable::__internals</text>
<text xml:space="preserve" text-anchor="middle" x="311.25" y="-7.25" font-family="Helvetica,sans-Serif" font-size="10.00">::stringUtils::utf8Decode</text>
</a>
</g>
</g>
<!-- Node1&#45;&gt;Node5 -->
<g id="edge8_Node000001_Node000005" class="edge">
<title>Node1&#45;&gt;Node5</title>
<g id="a_edge8_Node000001_Node000005"><a xlink:title=" ">
<path fill="none" stroke="#63b8ff" d="M133.59,-100.62C169.43,-83.6 224.53,-57.45 263.65,-38.87"/>
<polygon fill="#63b8ff" stroke="#63b8ff" points="265.08,-42.07 272.62,-34.62 262.08,-35.74 265.08,-42.07"/>
</a>
</g>
</g>
<!-- Node2&#45;&gt;Node2 -->
<g id="edge2_Node000002_Node000002" class="edge">
<title>Node2&#45;&gt;Node2</title>
<g id="a_edge2_Node000002_Node000002"><a xlink:title=" ">
<path fill="none" stroke="#63b8ff" d="M273.39,-211.91C266.95,-221.12 279.57,-229.5 311.25,-229.5 328.82,-229.5 340.53,-226.92 346.37,-223.05"/>
<polygon fill="#63b8ff" stroke="#63b8ff" points="349.76,-223.93 348.75,-213.38 342.96,-222.26 349.76,-223.93"/>
</a>
</g>
</g>
<!-- Node2&#45;&gt;Node3 -->
<g id="edge3_Node000002_Node000003" class="edge">
<title>Node2&#45;&gt;Node3</title>
<g id="a_edge3_Node000002_Node000003"><a xlink:title=" ">
<path fill="none" stroke="#63b8ff" d="M393.81,-185.76C401.65,-184.89 409.68,-184.01 417.69,-183.13"/>
<polygon fill="#63b8ff" stroke="#63b8ff" points="417.94,-186.62 427.5,-182.04 417.18,-179.66 417.94,-186.62"/>
</a>
</g>
</g>
<!-- Node3&#45;&gt;Node3 -->
<g id="edge4_Node000003_Node000003" class="edge">
<title>Node3&#45;&gt;Node3</title>
<g id="a_edge4_Node000003_Node000003"><a xlink:title=" ">
<path fill="none" stroke="#63b8ff" d="M484.01,-188.91C477.58,-198.12 490.2,-206.5 521.88,-206.5 539.45,-206.5 551.15,-203.92 557,-200.05"/>
<polygon fill="#63b8ff" stroke="#63b8ff" points="560.39,-200.93 559.38,-190.38 553.59,-199.26 560.39,-200.93"/>
</a>
</g>
</g>
<!-- Node4&#45;&gt;Node4 -->
<g id="edge6_Node000004_Node000004" class="edge">
<title>Node4&#45;&gt;Node4</title>
<g id="a_edge6_Node000004_Node000004"><a xlink:title=" ">
<path fill="none" stroke="#63b8ff" d="M273.39,-103.91C266.95,-113.12 279.57,-121.5 311.25,-121.5 328.82,-121.5 340.53,-118.92 346.37,-115.05"/>
<polygon fill="#63b8ff" stroke="#63b8ff" points="349.76,-115.93 348.75,-105.38 342.96,-114.26 349.76,-115.93"/>
</a>
</g>
</g>
<!-- Node5&#45;&gt;Node5 -->
<g id="edge9_Node000005_Node000005" class="edge">
<title>Node5&#45;&gt;Node5</title>
<g id="a_edge9_Node000005_Node000005"><a xlink:title=" ">
<path fill="none" stroke="#63b8ff" d="M273.39,-33.91C266.95,-43.12 279.57,-51.5 311.25,-51.5 328.82,-51.5 340.53,-48.92 346.37,-45.05"/>
<polygon fill="#63b8ff" stroke="#63b8ff" points="349.76,-45.93 348.75,-35.38 342.96,-44.26 349.76,-45.93"/>
</a>
</g>
</g>
</g>
</svg>

<g id="navigator" transform="translate(0 0)" fill="#404254">
  <rect fill="#f2f5e9" fill-opacity="0.5" stroke="#606060" stroke-width=".5" x="0" y="0" width="60" height="60"/>
  <use id="zoomplus" xlink:href="#zoomPlus" x="17" y="9" onmousedown="handleZoom(evt,'in')"/>
  <use id="zoomminus" xlink:href="#zoomMin" x="42" y="9" onmousedown="handleZoom(evt,'out')"/>
  <use id="reset" xlink:href="#resetDef" x="30" y="36" onmousedown="handleReset()"/>
   <use id="arrowup" xlink:href="#arrowUp" x="0" y="0" onmousedown="handlePan(0,-1)"/>
  <use id="arrowright" xlink:href="#arrowRight" x="0" y="0" onmousedown="handlePan(1,0)"/>
  <use id="arrowdown" xlink:href="#arrowDown" x="0" y="0" onmousedown="handlePan(0,1)"/>
  <use id="arrowleft" xlink:href="#arrowLeft" x="0" y="0" onmousedown="handlePan(-1,0)"/>
</g>
<svg viewBox="0 0 15 15" width="100%" height="30px" preserveAspectRatio="xMaxYMin meet">
 <g id="arrow_out" transform="scale(0.3 0.3)">
  <a xlink:href="classsteppable_1_1____internals_1_1stringUtils_1_1GraphemeIterator_aebf959c44352eb34b9e3b401361704ad_cgraph_org.svg" target="_base">
   <rect id="button" ry="5" rx="5" y="6" x="6" height="38" width="38"
        fill="#f2f5e9" fill-opacity="0.5" stroke="#606060" stroke-width="1.0"/>
   <path id="arrow"
     d="M 11.500037,31.436501 C 11.940474,20.09759 22.043105,11.32322 32.158766,21.979434 L 37.068811,17.246167 C 37.068811,17.246167 37.088388,32 37.088388,32 L 22.160133,31.978069 C 22.160133,31.978069 26.997745,27.140456 26.997745,27.140456 C 18.528582,18.264221 13.291696,25.230495 11.500037,31.436501 z"
     style="fill:#404040;"/>
  </a>
 </g>
</svg>

<style type='text/css'>
<![CDATA[
[data-mouse-over-selected='false'] { opacity: 0.7; }
[data-mouse-over-selected='true']  { opacity: 1.0; }
]]>
</style>
<script type="application/ecmascript"><![CDATA[
document.addEventListener('DOMContentLoaded', (event) => {
  highlightEdges();
  highlightAdjacentNodes();
});
]]></script>
</svg>
