<?xml version="1.0" encoding="UTF-8" standalone="no"?>
<!DOCTYPE svg PUBLIC "-//W3C//DTD SVG 1.1//EN"
 "http://www.w3.org/Graphics/SVG/1.1/DTD/svg11.dtd">
<!-- Generated by graphviz version 2.43.0 (0)
 -->
<!-- Title: Fraction::operator+ Pages: 1 -->
<svg width="1186pt" height="577pt"
 viewBox="0.00 0.00 1186.00 577.00" xmlns="http://www.w3.org/2000/svg" xmlns:xlink="http://www.w3.org/1999/xlink">
<g id="graph0" class="graph" transform="scale(1 1) rotate(0) translate(4 573)">
<title>Fraction::operator+</title>
<!-- Node1 -->
<g id="node1" class="node">
<title>Node1</title>
<g id="a_node1"><a xlink:title="Adds two fractions together. This function does it by doing a simple fraction addition and returns th...">
<polygon fill="#bfbfbf" stroke="black" points="0,-237.5 0,-256.5 111,-256.5 111,-237.5 0,-237.5"/>
<text text-anchor="middle" x="55.5" y="-244.5" font-family="Helvetica,sans-Serif" font-size="10.00">Fraction::operator+</text>
</a>
</g>
</g>
<!-- Node2 -->
<g id="node2" class="node">
<title>Node2</title>
<g id="a_node2"><a xlink:href="basicArithm_8hpp.html#acf222f0bfc4ca97fbdc6db7fe808a9ee" target="_top" xlink:title="Adds two string representations of numbers, and performs with the column method.">
<polygon fill="none" stroke="black" points="180,-370.5 180,-389.5 215,-389.5 215,-370.5 180,-370.5"/>
<text text-anchor="middle" x="197.5" y="-377.5" font-family="Helvetica,sans-Serif" font-size="10.00">add</text>
</a>
</g>
</g>
<!-- Node1&#45;&gt;Node2 -->
<g id="edge1" class="edge">
<title>Node1&#45;&gt;Node2</title>
<path fill="none" stroke="midnightblue" d="M66.57,-256.57C90.07,-278.89 148.78,-334.66 178.56,-362.96"/>
<polygon fill="midnightblue" stroke="midnightblue" points="176.48,-365.81 186.15,-370.16 181.31,-360.74 176.48,-365.81"/>
</g>
<!-- Node25 -->
<g id="node25" class="node">
<title>Node25</title>
<g id="a_node25"><a xlink:href="classFraction.html#a29efaf0ef03cceab0bfa637e9eea2b7b" target="_top" xlink:title="Initializes a fraction with no top component and bottom component specified. By default,...">
<polygon fill="none" stroke="black" points="147,-237.5 147,-256.5 248,-256.5 248,-237.5 147,-237.5"/>
<text text-anchor="middle" x="197.5" y="-244.5" font-family="Helvetica,sans-Serif" font-size="10.00">Fraction::Fraction</text>
</a>
</g>
</g>
<!-- Node1&#45;&gt;Node25 -->
<g id="edge43" class="edge">
<title>Node1&#45;&gt;Node25</title>
<path fill="none" stroke="midnightblue" d="M111.03,-247C119.43,-247 128.15,-247 136.67,-247"/>
<polygon fill="midnightblue" stroke="midnightblue" points="136.92,-250.5 146.92,-247 136.92,-243.5 136.92,-250.5"/>
</g>
<!-- Node26 -->
<g id="node26" class="node">
<title>Node26</title>
<g id="a_node26"><a xlink:href="basicArithm_8hpp.html#ac99d69ea51545fe30da4a36290f3fedc" target="_top" xlink:title="Multiplies two string representations of numbers.">
<polygon fill="none" stroke="black" points="376,-104.5 376,-123.5 433,-123.5 433,-104.5 376,-104.5"/>
<text text-anchor="middle" x="404.5" y="-111.5" font-family="Helvetica,sans-Serif" font-size="10.00">multiply</text>
</a>
</g>
</g>
<!-- Node1&#45;&gt;Node26 -->
<g id="edge44" class="edge">
<title>Node1&#45;&gt;Node26</title>
<path fill="none" stroke="midnightblue" d="M72.74,-237.46C109.26,-216.42 201.13,-165.69 284,-138 310.75,-129.06 342.03,-122.93 365.88,-119.1"/>
<polygon fill="midnightblue" stroke="midnightblue" points="366.59,-122.53 375.94,-117.55 365.53,-115.61 366.59,-122.53"/>
</g>
<!-- Node3 -->
<g id="node3" class="node">
<title>Node3</title>
<g id="a_node3"><a xlink:href="util_8hpp.html#a183c024df291889f90106e47bb64fe0b" target="_top" xlink:title="Checks if a given string is a zero string.">
<polygon fill="none" stroke="black" points="1102,-275.5 1102,-294.5 1178,-294.5 1178,-275.5 1102,-275.5"/>
<text text-anchor="middle" x="1140" y="-282.5" font-family="Helvetica,sans-Serif" font-size="10.00">isZeroString</text>
</a>
</g>
</g>
<!-- Node2&#45;&gt;Node3 -->
<g id="edge2" class="edge">
<title>Node2&#45;&gt;Node3</title>
<path fill="none" stroke="midnightblue" d="M202.95,-389.63C221.47,-428.15 296.52,-569 403.5,-569 403.5,-569 403.5,-569 855,-569 968.29,-569 990.75,-510.68 1066,-426 1099.28,-388.54 1122.11,-333.19 1132.54,-304.24"/>
<polygon fill="midnightblue" stroke="midnightblue" points="1135.94,-305.12 1135.93,-294.53 1129.33,-302.82 1135.94,-305.12"/>
</g>
<!-- Node4 -->
<g id="node4" class="node">
<title>Node4</title>
<g id="a_node4"><a xlink:href="addReport_8cpp.html#a790c309eb43b10e2fca286cee3a94ac1" target="_top" xlink:title=" ">
<polygon fill="none" stroke="black" points="485.5,-142.5 485.5,-161.5 550.5,-161.5 550.5,-142.5 485.5,-142.5"/>
<text text-anchor="middle" x="518" y="-149.5" font-family="Helvetica,sans-Serif" font-size="10.00">reportAdd</text>
</a>
</g>
</g>
<!-- Node2&#45;&gt;Node4 -->
<g id="edge3" class="edge">
<title>Node2&#45;&gt;Node4</title>
<path fill="none" stroke="midnightblue" d="M203.67,-370.25C222,-336.75 287.58,-225.65 376,-176 406.27,-159 445.54,-153.41 474.95,-151.84"/>
<polygon fill="midnightblue" stroke="midnightblue" points="475.45,-155.32 485.3,-151.43 475.17,-148.33 475.45,-155.32"/>
</g>
<!-- Node10 -->
<g id="node10" class="node">
<title>Node10</title>
<g id="a_node10"><a xlink:href="namespaceformats.html#a296119cbd1b0c858739af6b363fb262a" target="_top" xlink:title="Set the text format to reverse.">
<polygon fill="none" stroke="black" points="469,-503.5 469,-522.5 567,-522.5 567,-503.5 469,-503.5"/>
<text text-anchor="middle" x="518" y="-510.5" font-family="Helvetica,sans-Serif" font-size="10.00">formats::reverse</text>
</a>
</g>
</g>
<!-- Node2&#45;&gt;Node10 -->
<g id="edge11" class="edge">
<title>Node2&#45;&gt;Node10</title>
<path fill="none" stroke="midnightblue" d="M208.62,-389.79C234.16,-413.81 304.31,-475.51 376,-501 402.16,-510.3 432.69,-513.73 458.65,-514.66"/>
<polygon fill="midnightblue" stroke="midnightblue" points="458.64,-518.16 468.72,-514.9 458.81,-511.16 458.64,-518.16"/>
</g>
<!-- Node12 -->
<g id="node12" class="node">
<title>Node12</title>
<g id="a_node12"><a xlink:href="util_8hpp.html#a7e7fdd236a1593ed0124a3a7dd05946d" target="_top" xlink:title=" ">
<polygon fill="none" stroke="black" points="642,-408.5 642,-427.5 719,-427.5 719,-408.5 642,-408.5"/>
<text text-anchor="middle" x="680.5" y="-415.5" font-family="Helvetica,sans-Serif" font-size="10.00">splitNumber</text>
</a>
</g>
</g>
<!-- Node2&#45;&gt;Node12 -->
<g id="edge13" class="edge">
<title>Node2&#45;&gt;Node12</title>
<path fill="none" stroke="midnightblue" d="M215.06,-381.31C281.08,-386.52 527.06,-405.96 631.79,-414.23"/>
<polygon fill="midnightblue" stroke="midnightblue" points="631.53,-417.72 641.77,-415.02 632.08,-410.74 631.53,-417.72"/>
</g>
<!-- Node16 -->
<g id="node16" class="node">
<title>Node16</title>
<g id="a_node16"><a xlink:href="basicArithm_8hpp.html#a08faec0b8e863df19e3f978758166482" target="_top" xlink:title="Subtracts one string representation of a number from another string representation of a number.">
<polygon fill="none" stroke="black" points="284,-351.5 284,-370.5 340,-370.5 340,-351.5 284,-351.5"/>
<text text-anchor="middle" x="312" y="-358.5" font-family="Helvetica,sans-Serif" font-size="10.00">subtract</text>
</a>
</g>
</g>
<!-- Node2&#45;&gt;Node16 -->
<g id="edge20" class="edge">
<title>Node2&#45;&gt;Node16</title>
<path fill="none" stroke="midnightblue" d="M215.1,-372.24C230.51,-367.91 253.99,-363.46 273.86,-360.88"/>
<polygon fill="midnightblue" stroke="midnightblue" points="274.33,-364.35 283.86,-359.71 273.52,-357.4 274.33,-364.35"/>
</g>
<!-- Node4&#45;&gt;Node3 -->
<g id="edge4" class="edge">
<title>Node4&#45;&gt;Node3</title>
<path fill="none" stroke="midnightblue" d="M550.82,-149.72C653.92,-142.91 977.24,-126.09 1066,-176 1101.07,-195.72 1122.5,-240.13 1132.42,-265.76"/>
<polygon fill="midnightblue" stroke="midnightblue" points="1129.14,-266.99 1135.86,-275.18 1135.71,-264.58 1129.14,-266.99"/>
</g>
<!-- Node5 -->
<g id="node5" class="node">
<title>Node5</title>
<g id="a_node5"><a xlink:href="symbols_8hpp.html#a4c2486dd425b34a3a7b6f64db79add2c" target="_top" xlink:title="Create a subscript string from a normal string.">
<polygon fill="none" stroke="black" points="636,-66.5 636,-85.5 725,-85.5 725,-66.5 636,-66.5"/>
<text text-anchor="middle" x="680.5" y="-73.5" font-family="Helvetica,sans-Serif" font-size="10.00">makeSubscript</text>
</a>
</g>
</g>
<!-- Node4&#45;&gt;Node5 -->
<g id="edge5" class="edge">
<title>Node4&#45;&gt;Node5</title>
<path fill="none" stroke="midnightblue" d="M548.96,-142.48C555.18,-139.87 561.51,-136.72 567,-133 586.27,-119.97 582.9,-106.72 603,-95 610.06,-90.88 617.99,-87.65 626,-85.12"/>
<polygon fill="midnightblue" stroke="midnightblue" points="627.08,-88.45 635.75,-82.36 625.18,-81.71 627.08,-88.45"/>
</g>
<!-- Node7 -->
<g id="node7" class="node">
<title>Node7</title>
<g id="a_node7"><a xlink:href="util_8hpp.html#afbed3096b7064ba07c83c6c15212b793" target="_top" xlink:title="Standardizes a number string.">
<polygon fill="none" stroke="black" points="624,-218.5 624,-237.5 737,-237.5 737,-218.5 624,-218.5"/>
<text text-anchor="middle" x="680.5" y="-225.5" font-family="Helvetica,sans-Serif" font-size="10.00">standardizeNumber</text>
</a>
</g>
</g>
<!-- Node4&#45;&gt;Node7 -->
<g id="edge7" class="edge">
<title>Node4&#45;&gt;Node7</title>
<path fill="none" stroke="midnightblue" d="M539.33,-161.63C567.31,-174.87 617.86,-198.81 650,-214.03"/>
<polygon fill="midnightblue" stroke="midnightblue" points="648.8,-217.34 659.34,-218.45 651.8,-211.01 648.8,-217.34"/>
</g>
<!-- Node6 -->
<g id="node6" class="node">
<title>Node6</title>
<g id="a_node6"><a xlink:href="util_8hpp.html#a2c093cfa77eddb403db19eaecf57fa6e" target="_top" xlink:title="Converts a Unicode character to UTF&#45;8 encoding.">
<polygon fill="none" stroke="black" points="811,-66.5 811,-85.5 897,-85.5 897,-66.5 811,-66.5"/>
<text text-anchor="middle" x="854" y="-73.5" font-family="Helvetica,sans-Serif" font-size="10.00">unicodeToUtf8</text>
</a>
</g>
</g>
<!-- Node5&#45;&gt;Node6 -->
<g id="edge6" class="edge">
<title>Node5&#45;&gt;Node6</title>
<path fill="none" stroke="midnightblue" d="M725.22,-76C748.23,-76 776.61,-76 800.77,-76"/>
<polygon fill="midnightblue" stroke="midnightblue" points="800.84,-79.5 810.84,-76 800.84,-72.5 800.84,-79.5"/>
</g>
<!-- Node8 -->
<g id="node8" class="node">
<title>Node8</title>
<g id="a_node8"><a xlink:href="util_8cpp.html#a32344e51c6ae485367b4fbf6bb535742" target="_top" xlink:title="Simplifies a string with non&#45;standard polarity (e.g., –1, —1, etc.).">
<polygon fill="none" stroke="black" points="807.5,-237.5 807.5,-256.5 900.5,-256.5 900.5,-237.5 807.5,-237.5"/>
<text text-anchor="middle" x="854" y="-244.5" font-family="Helvetica,sans-Serif" font-size="10.00">simplifyPolarity</text>
</a>
</g>
</g>
<!-- Node7&#45;&gt;Node8 -->
<g id="edge8" class="edge">
<title>Node7&#45;&gt;Node8</title>
<path fill="none" stroke="midnightblue" d="M737.18,-234.17C756.42,-236.3 777.96,-238.69 797.2,-240.82"/>
<polygon fill="midnightblue" stroke="midnightblue" points="797.01,-244.32 807.33,-241.94 797.78,-237.36 797.01,-244.32"/>
</g>
<!-- Node9 -->
<g id="node9" class="node">
<title>Node9</title>
<g id="a_node9"><a xlink:href="util_8cpp.html#a70584872ee14fa0befa8f25788f98a2b" target="_top" xlink:title="Simplifies a string that represents a number with non&#45;standard polarity.">
<polygon fill="none" stroke="black" points="950,-275.5 950,-294.5 1066,-294.5 1066,-275.5 950,-275.5"/>
<text text-anchor="middle" x="1008" y="-282.5" font-family="Helvetica,sans-Serif" font-size="10.00">simplifyZeroPolarity</text>
</a>
</g>
</g>
<!-- Node8&#45;&gt;Node9 -->
<g id="edge9" class="edge">
<title>Node8&#45;&gt;Node9</title>
<path fill="none" stroke="midnightblue" d="M893.36,-256.59C913.32,-261.58 937.93,-267.73 959.13,-273.03"/>
<polygon fill="midnightblue" stroke="midnightblue" points="958.37,-276.45 968.92,-275.48 960.07,-269.66 958.37,-276.45"/>
</g>
<!-- Node9&#45;&gt;Node3 -->
<g id="edge10" class="edge">
<title>Node9&#45;&gt;Node3</title>
<path fill="none" stroke="midnightblue" d="M1066.02,-285C1074.56,-285 1083.28,-285 1091.59,-285"/>
<polygon fill="midnightblue" stroke="midnightblue" points="1091.85,-288.5 1101.85,-285 1091.85,-281.5 1091.85,-288.5"/>
</g>
<!-- Node11 -->
<g id="node11" class="node">
<title>Node11</title>
<g id="a_node11"><a xlink:href="colors_8cpp.html#aea0b5c095796ad31bd8aa86853337868" target="_top" xlink:title="Check if the output stream is a terminal.">
<polygon fill="none" stroke="black" points="647,-503.5 647,-522.5 714,-522.5 714,-503.5 647,-503.5"/>
<text text-anchor="middle" x="680.5" y="-510.5" font-family="Helvetica,sans-Serif" font-size="10.00">isTerminal</text>
</a>
</g>
</g>
<!-- Node10&#45;&gt;Node11 -->
<g id="edge12" class="edge">
<title>Node10&#45;&gt;Node11</title>
<path fill="none" stroke="midnightblue" d="M567.16,-513C589.22,-513 615.15,-513 636.54,-513"/>
<polygon fill="midnightblue" stroke="midnightblue" points="636.64,-516.5 646.64,-513 636.64,-509.5 636.64,-516.5"/>
</g>
<!-- Node12&#45;&gt;Node3 -->
<g id="edge14" class="edge">
<title>Node12&#45;&gt;Node3</title>
<path fill="none" stroke="midnightblue" d="M719.11,-413.88C765.55,-408.22 846.67,-396.46 914,-377 986.97,-355.91 1068.55,-319 1110.56,-298.94"/>
<polygon fill="midnightblue" stroke="midnightblue" points="1112.15,-302.06 1119.64,-294.57 1109.11,-295.76 1112.15,-302.06"/>
</g>
<!-- Node12&#45;&gt;Node8 -->
<g id="edge17" class="edge">
<title>Node12&#45;&gt;Node8</title>
<path fill="none" stroke="midnightblue" d="M719.23,-416.46C733.02,-414.06 747.73,-409.05 758,-399 801.75,-356.15 751.73,-310.31 794,-266 795.42,-264.51 796.96,-263.14 798.59,-261.87"/>
<polygon fill="midnightblue" stroke="midnightblue" points="800.74,-264.66 807.38,-256.4 797.04,-258.71 800.74,-264.66"/>
</g>
<!-- Node12&#45;&gt;Node9 -->
<g id="edge18" class="edge">
<title>Node12&#45;&gt;Node9</title>
<path fill="none" stroke="midnightblue" d="M719.12,-409.67C731.59,-406.64 745.48,-402.97 758,-399 774.36,-393.81 777.92,-391.01 794,-385 847.07,-365.18 862.91,-366.49 914,-342 939.27,-329.89 966.41,-312.73 984.8,-300.41"/>
<polygon fill="midnightblue" stroke="midnightblue" points="987.02,-303.13 993.33,-294.62 983.09,-297.34 987.02,-303.13"/>
</g>
<!-- Node13 -->
<g id="node13" class="node">
<title>Node13</title>
<g id="a_node13"><a xlink:href="util_8cpp.html#a8056dcad90ba9582ba25405a95c2f1e4" target="_top" xlink:title=" ">
<polygon fill="none" stroke="black" points="794,-313.5 794,-332.5 914,-332.5 914,-313.5 794,-313.5"/>
<text text-anchor="middle" x="854" y="-320.5" font-family="Helvetica,sans-Serif" font-size="10.00">removeLeadingZeros</text>
</a>
</g>
</g>
<!-- Node12&#45;&gt;Node13 -->
<g id="edge15" class="edge">
<title>Node12&#45;&gt;Node13</title>
<path fill="none" stroke="midnightblue" d="M719.16,-414.18C732.32,-411.47 746.63,-406.85 758,-399 781.13,-383.03 772.07,-364.58 794,-347 798.98,-343.01 804.72,-339.59 810.62,-336.7"/>
<polygon fill="midnightblue" stroke="midnightblue" points="812.2,-339.83 819.93,-332.58 809.37,-333.42 812.2,-339.83"/>
</g>
<!-- Node14 -->
<g id="node14" class="node">
<title>Node14</title>
<g id="a_node14"><a xlink:href="util_8cpp.html#a7f0f5e18cd1b1507ace9b814e6286dda" target="_top" xlink:title=" ">
<polygon fill="none" stroke="black" points="795.5,-275.5 795.5,-294.5 912.5,-294.5 912.5,-275.5 795.5,-275.5"/>
<text text-anchor="middle" x="854" y="-282.5" font-family="Helvetica,sans-Serif" font-size="10.00">removeTrailingZeros</text>
</a>
</g>
</g>
<!-- Node12&#45;&gt;Node14 -->
<g id="edge16" class="edge">
<title>Node12&#45;&gt;Node14</title>
<path fill="none" stroke="midnightblue" d="M719.13,-415.85C732.74,-413.36 747.36,-408.45 758,-399 791.77,-369.02 761.27,-335.11 794,-304 795.65,-302.43 797.43,-301 799.3,-299.68"/>
<polygon fill="midnightblue" stroke="midnightblue" points="801.14,-302.66 808.04,-294.62 797.63,-296.6 801.14,-302.66"/>
</g>
<!-- Node15 -->
<g id="node15" class="node">
<title>Node15</title>
<g id="a_node15"><a xlink:href="util_8hpp.html#a771e8f4ac1c095d4c0fef2c966cd69d7" target="_top" xlink:title="Splits a string into substrings based on a separator.">
<polygon fill="none" stroke="black" points="835,-427.5 835,-446.5 873,-446.5 873,-427.5 835,-427.5"/>
<text text-anchor="middle" x="854" y="-434.5" font-family="Helvetica,sans-Serif" font-size="10.00">split</text>
</a>
</g>
</g>
<!-- Node12&#45;&gt;Node15 -->
<g id="edge19" class="edge">
<title>Node12&#45;&gt;Node15</title>
<path fill="none" stroke="midnightblue" d="M719.14,-422.17C750.96,-425.7 795.86,-430.67 824.7,-433.86"/>
<polygon fill="midnightblue" stroke="midnightblue" points="824.58,-437.37 834.91,-435 825.35,-430.42 824.58,-437.37"/>
</g>
<!-- Node16&#45;&gt;Node2 -->
<g id="edge21" class="edge">
<title>Node16&#45;&gt;Node2</title>
<path fill="none" stroke="midnightblue" d="M287.68,-370.53C269.48,-375.06 244.19,-379.41 225.19,-381.33"/>
<polygon fill="midnightblue" stroke="midnightblue" points="224.78,-377.86 215.1,-382.15 225.35,-384.83 224.78,-377.86"/>
</g>
<!-- Node16&#45;&gt;Node3 -->
<g id="edge28" class="edge">
<title>Node16&#45;&gt;Node3</title>
<path fill="none" stroke="midnightblue" d="M318.21,-351.32C338.45,-315.14 415.79,-190 517,-190 517,-190 517,-190 855,-190 955.16,-190 1065.41,-243.8 1113.84,-270.43"/>
<polygon fill="midnightblue" stroke="midnightblue" points="1112.24,-273.55 1122.68,-275.37 1115.66,-267.44 1112.24,-273.55"/>
</g>
<!-- Node16&#45;&gt;Node10 -->
<g id="edge33" class="edge">
<title>Node16&#45;&gt;Node10</title>
<path fill="none" stroke="midnightblue" d="M315.56,-370.54C321.91,-392.35 340.5,-446.11 376,-474 399.57,-492.52 431.37,-502.25 458.8,-507.36"/>
<polygon fill="midnightblue" stroke="midnightblue" points="458.25,-510.82 468.69,-509.05 459.42,-503.92 458.25,-510.82"/>
</g>
<!-- Node16&#45;&gt;Node12 -->
<g id="edge34" class="edge">
<title>Node16&#45;&gt;Node12</title>
<path fill="none" stroke="midnightblue" d="M340.09,-361.12C386.97,-361.86 485.97,-365.81 567,-385 583.71,-388.96 586.64,-393.81 603,-399 612.29,-401.95 622.34,-404.73 632,-407.2"/>
<polygon fill="midnightblue" stroke="midnightblue" points="631.33,-410.64 641.88,-409.67 633.02,-403.85 631.33,-410.64"/>
</g>
<!-- Node17 -->
<g id="node17" class="node">
<title>Node17</title>
<g id="a_node17"><a xlink:href="basicArithm_8hpp.html#aabb709fcb471467879352bf51bb0030a" target="_top" xlink:title="Compares two string representations of numbers.">
<polygon fill="none" stroke="black" points="488.5,-275.5 488.5,-294.5 547.5,-294.5 547.5,-275.5 488.5,-275.5"/>
<text text-anchor="middle" x="518" y="-282.5" font-family="Helvetica,sans-Serif" font-size="10.00">compare</text>
</a>
</g>
</g>
<!-- Node16&#45;&gt;Node17 -->
<g id="edge22" class="edge">
<title>Node16&#45;&gt;Node17</title>
<path fill="none" stroke="midnightblue" d="M338.84,-351.37C375.09,-337.87 441.16,-313.25 481.86,-298.09"/>
<polygon fill="midnightblue" stroke="midnightblue" points="483.22,-301.32 491.37,-294.55 480.78,-294.76 483.22,-301.32"/>
</g>
<!-- Node21 -->
<g id="node21" class="node">
<title>Node21</title>
<g id="a_node21"><a xlink:href="subtractReport_8cpp.html#ad21f3d209885b1c419ff73800bb3b33b" target="_top" xlink:title=" ">
<polygon fill="none" stroke="black" points="475,-237.5 475,-256.5 561,-256.5 561,-237.5 475,-237.5"/>
<text text-anchor="middle" x="518" y="-244.5" font-family="Helvetica,sans-Serif" font-size="10.00">reportSubtract</text>
</a>
</g>
</g>
<!-- Node16&#45;&gt;Node21 -->
<g id="edge29" class="edge">
<title>Node16&#45;&gt;Node21</title>
<path fill="none" stroke="midnightblue" d="M324.66,-351.38C337.01,-341.43 357.26,-325.72 376,-314 415.44,-289.34 426.66,-285.25 469,-266 473.15,-264.11 477.55,-262.23 481.93,-260.41"/>
<polygon fill="midnightblue" stroke="midnightblue" points="483.43,-263.58 491.39,-256.59 480.81,-257.09 483.43,-263.58"/>
</g>
<!-- Node24 -->
<g id="node24" class="node">
<title>Node24</title>
<g id="a_node24"><a xlink:href="subtract_8cpp.html#ac94acf58b23f19e226b9263fa3a2b0da" target="_top" xlink:title="Subtracts one string representation of a number from another string representation of a number.">
<polygon fill="none" stroke="black" points="376.5,-427.5 376.5,-446.5 432.5,-446.5 432.5,-427.5 376.5,-427.5"/>
<text text-anchor="middle" x="404.5" y="-434.5" font-family="Helvetica,sans-Serif" font-size="10.00">subtract</text>
</a>
</g>
</g>
<!-- Node16&#45;&gt;Node24 -->
<g id="edge35" class="edge">
<title>Node16&#45;&gt;Node24</title>
<path fill="none" stroke="midnightblue" d="M324.46,-370.63C339.56,-383.3 366.31,-405.77 384.47,-421.02"/>
<polygon fill="midnightblue" stroke="midnightblue" points="382.22,-423.7 392.13,-427.45 386.72,-418.34 382.22,-423.7"/>
</g>
<!-- Node17&#45;&gt;Node7 -->
<g id="edge27" class="edge">
<title>Node17&#45;&gt;Node7</title>
<path fill="none" stroke="midnightblue" d="M544.63,-275.45C551.92,-272.57 559.84,-269.3 567,-266 583.44,-258.44 586.1,-253.45 603,-247 609.44,-244.54 616.31,-242.31 623.19,-240.32"/>
<polygon fill="midnightblue" stroke="midnightblue" points="624.51,-243.59 633.23,-237.58 622.66,-236.84 624.51,-243.59"/>
</g>
<!-- Node17&#45;&gt;Node12 -->
<g id="edge26" class="edge">
<title>Node17&#45;&gt;Node12</title>
<path fill="none" stroke="midnightblue" d="M546.71,-294.65C554.04,-298.25 561.45,-302.97 567,-309 596.17,-340.7 570.52,-370.69 603,-399 611.13,-406.09 621.51,-410.61 631.97,-413.48"/>
<polygon fill="midnightblue" stroke="midnightblue" points="631.44,-416.95 641.97,-415.75 632.99,-410.12 631.44,-416.95"/>
</g>
<!-- Node18 -->
<g id="node18" class="node">
<title>Node18</title>
<g id="a_node18"><a xlink:href="comparisonReport_8cpp.html#a9837660fa80278748f7f9bc397f5fba4" target="_top" xlink:title=" ">
<polygon fill="none" stroke="black" points="606,-370.5 606,-389.5 755,-389.5 755,-370.5 606,-370.5"/>
<text text-anchor="middle" x="680.5" y="-377.5" font-family="Helvetica,sans-Serif" font-size="10.00">reportComparisonAtInteger</text>
</a>
</g>
</g>
<!-- Node17&#45;&gt;Node18 -->
<g id="edge23" class="edge">
<title>Node17&#45;&gt;Node18</title>
<path fill="none" stroke="midnightblue" d="M543.89,-294.54C551.8,-298.3 560.24,-303.14 567,-309 588.24,-327.42 579.87,-345.03 603,-361 605.9,-363 609,-364.8 612.21,-366.4"/>
<polygon fill="midnightblue" stroke="midnightblue" points="610.98,-369.68 621.55,-370.44 613.76,-363.26 610.98,-369.68"/>
</g>
<!-- Node19 -->
<g id="node19" class="node">
<title>Node19</title>
<g id="a_node19"><a xlink:href="comparisonReport_8cpp.html#adc6ac398c16b4d30ab55b0ec5ceef9f3" target="_top" xlink:title=" ">
<polygon fill="none" stroke="black" points="610.5,-332.5 610.5,-351.5 750.5,-351.5 750.5,-332.5 610.5,-332.5"/>
<text text-anchor="middle" x="680.5" y="-339.5" font-family="Helvetica,sans-Serif" font-size="10.00">reportComparisonByDigit</text>
</a>
</g>
</g>
<!-- Node17&#45;&gt;Node19 -->
<g id="edge24" class="edge">
<title>Node17&#45;&gt;Node19</title>
<path fill="none" stroke="midnightblue" d="M537.62,-294.6C554.38,-302.96 579.86,-314.97 603,-323 610.19,-325.5 617.87,-327.81 625.48,-329.89"/>
<polygon fill="midnightblue" stroke="midnightblue" points="624.85,-333.34 635.41,-332.5 626.63,-326.57 624.85,-333.34"/>
</g>
<!-- Node20 -->
<g id="node20" class="node">
<title>Node20</title>
<g id="a_node20"><a xlink:href="comparisonReport_8cpp.html#a8bdddfcaa5a1d0339df5705ec6ff2aff" target="_top" xlink:title=" ">
<polygon fill="none" stroke="black" points="603,-294.5 603,-313.5 758,-313.5 758,-294.5 603,-294.5"/>
<text text-anchor="middle" x="680.5" y="-301.5" font-family="Helvetica,sans-Serif" font-size="10.00">reportComparisonByPolarity</text>
</a>
</g>
</g>
<!-- Node17&#45;&gt;Node20 -->
<g id="edge25" class="edge">
<title>Node17&#45;&gt;Node20</title>
<path fill="none" stroke="midnightblue" d="M547.69,-288.4C560.54,-289.92 576.44,-291.8 592.7,-293.72"/>
<polygon fill="midnightblue" stroke="midnightblue" points="592.5,-297.23 602.84,-294.93 593.32,-290.27 592.5,-297.23"/>
</g>
<!-- Node21&#45;&gt;Node5 -->
<g id="edge30" class="edge">
<title>Node21&#45;&gt;Node5</title>
<path fill="none" stroke="midnightblue" d="M525.6,-237.39C535.23,-223.19 553.46,-195.61 567,-171 585.01,-138.25 574.08,-118.67 603,-95 609.7,-89.52 617.76,-85.58 626.09,-82.77"/>
<polygon fill="midnightblue" stroke="midnightblue" points="627.29,-86.07 635.94,-79.95 625.37,-79.34 627.29,-86.07"/>
</g>
<!-- Node22 -->
<g id="node22" class="node">
<title>Node22</title>
<g id="a_node22"><a xlink:href="util_8hpp.html#a8056dcad90ba9582ba25405a95c2f1e4" target="_top" xlink:title=" ">
<polygon fill="none" stroke="black" points="620.5,-256.5 620.5,-275.5 740.5,-275.5 740.5,-256.5 620.5,-256.5"/>
<text text-anchor="middle" x="680.5" y="-263.5" font-family="Helvetica,sans-Serif" font-size="10.00">removeLeadingZeros</text>
</a>
</g>
</g>
<!-- Node21&#45;&gt;Node22 -->
<g id="edge31" class="edge">
<title>Node21&#45;&gt;Node22</title>
<path fill="none" stroke="midnightblue" d="M561.17,-251.99C576.17,-253.77 593.48,-255.82 610.15,-257.79"/>
<polygon fill="midnightblue" stroke="midnightblue" points="610.07,-261.31 620.42,-259.01 610.9,-254.35 610.07,-261.31"/>
</g>
<!-- Node23 -->
<g id="node23" class="node">
<title>Node23</title>
<g id="a_node23"><a xlink:href="util_8hpp.html#ac87bf229222a2a4f32b8626281c6c282" target="_top" xlink:title=" ">
<polygon fill="none" stroke="black" points="621,-104.5 621,-123.5 740,-123.5 740,-104.5 621,-104.5"/>
<text text-anchor="middle" x="680.5" y="-111.5" font-family="Helvetica,sans-Serif" font-size="10.00">replaceLeadingZeros</text>
</a>
</g>
</g>
<!-- Node21&#45;&gt;Node23 -->
<g id="edge32" class="edge">
<title>Node21&#45;&gt;Node23</title>
<path fill="none" stroke="midnightblue" d="M530.54,-237.43C557.71,-214.92 625.94,-158.38 659.81,-130.32"/>
<polygon fill="midnightblue" stroke="midnightblue" points="662.16,-132.91 667.63,-123.84 657.7,-127.52 662.16,-132.91"/>
</g>
<!-- Node24&#45;&gt;Node2 -->
<g id="edge36" class="edge">
<title>Node24&#45;&gt;Node2</title>
<path fill="none" stroke="midnightblue" d="M376.13,-432.87C351.7,-428.85 315.09,-422.05 284,-413 263.76,-407.11 241.57,-398.47 224.86,-391.52"/>
<polygon fill="midnightblue" stroke="midnightblue" points="225.81,-388.12 215.24,-387.44 223.08,-394.56 225.81,-388.12"/>
</g>
<!-- Node24&#45;&gt;Node3 -->
<g id="edge38" class="edge">
<title>Node24&#45;&gt;Node3</title>
<path fill="none" stroke="midnightblue" d="M432.55,-443.27C481.52,-454.07 588.25,-475 679.5,-475 679.5,-475 679.5,-475 855,-475 978.16,-475 1088.35,-350.03 1125.6,-302.79"/>
<polygon fill="midnightblue" stroke="midnightblue" points="1128.52,-304.73 1131.88,-294.68 1122.99,-300.45 1128.52,-304.73"/>
</g>
<!-- Node24&#45;&gt;Node10 -->
<g id="edge40" class="edge">
<title>Node24&#45;&gt;Node10</title>
<path fill="none" stroke="midnightblue" d="M415.73,-446.59C427.84,-457.66 448.91,-475.98 469,-489 474.44,-492.52 480.47,-495.91 486.36,-498.96"/>
<polygon fill="midnightblue" stroke="midnightblue" points="484.9,-502.14 495.41,-503.47 488.02,-495.88 484.9,-502.14"/>
</g>
<!-- Node24&#45;&gt;Node12 -->
<g id="edge41" class="edge">
<title>Node24&#45;&gt;Node12</title>
<path fill="none" stroke="midnightblue" d="M432.77,-435.11C479.16,-431.89 573.97,-425.32 631.61,-421.32"/>
<polygon fill="midnightblue" stroke="midnightblue" points="632.19,-424.79 641.92,-420.61 631.7,-417.81 632.19,-424.79"/>
</g>
<!-- Node24&#45;&gt;Node17 -->
<g id="edge37" class="edge">
<title>Node24&#45;&gt;Node17</title>
<path fill="none" stroke="midnightblue" d="M412.47,-427.49C430.78,-402.54 480.4,-334.89 504.08,-302.61"/>
<polygon fill="midnightblue" stroke="midnightblue" points="506.94,-304.64 510.03,-294.5 501.29,-300.5 506.94,-304.64"/>
</g>
<!-- Node24&#45;&gt;Node21 -->
<g id="edge39" class="edge">
<title>Node24&#45;&gt;Node21</title>
<path fill="none" stroke="midnightblue" d="M406.36,-427.43C409.43,-398.95 422.26,-313.75 469,-266 470.41,-264.56 471.94,-263.22 473.57,-261.99"/>
<polygon fill="midnightblue" stroke="midnightblue" points="475.62,-264.83 482.29,-256.6 471.94,-258.88 475.62,-264.83"/>
</g>
<!-- Node24&#45;&gt;Node24 -->
<g id="edge42" class="edge">
<title>Node24&#45;&gt;Node24</title>
<path fill="none" stroke="midnightblue" d="M390.32,-446.76C383.42,-455.57 388.15,-465 404.5,-465 414.72,-465 420.4,-461.31 421.54,-456.4"/>
<polygon fill="midnightblue" stroke="midnightblue" points="424.88,-455.35 418.68,-446.76 418.16,-457.34 424.88,-455.35"/>
</g>
<!-- Node26&#45;&gt;Node3 -->
<g id="edge45" class="edge">
<title>Node26&#45;&gt;Node3</title>
<path fill="none" stroke="midnightblue" d="M418.11,-104.48C455.69,-77.08 571.05,0 679.5,0 679.5,0 679.5,0 855,0 968.54,0 990.72,-59.01 1066,-144 1099.22,-181.51 1122.07,-236.84 1132.53,-265.77"/>
<polygon fill="midnightblue" stroke="midnightblue" points="1129.32,-267.2 1135.92,-275.48 1135.92,-264.88 1129.32,-267.2"/>
</g>
<!-- Node26&#45;&gt;Node12 -->
<g id="edge51" class="edge">
<title>Node26&#45;&gt;Node12</title>
<path fill="none" stroke="midnightblue" d="M406.05,-123.65C408.26,-154.09 419.05,-249.29 469,-304 501.07,-339.13 530.3,-316.75 567,-347 588.69,-364.88 579.87,-383.03 603,-399 611.53,-404.89 621.71,-408.96 631.82,-411.77"/>
<polygon fill="midnightblue" stroke="midnightblue" points="631.29,-415.24 641.84,-414.18 632.93,-408.43 631.29,-415.24"/>
</g>
<!-- Node27 -->
<g id="node27" class="node">
<title>Node27</title>
<g id="a_node27"><a xlink:href="multiplyReport_8cpp.html#a66ad602068d3c80661db7d3cd3069681" target="_top" xlink:title=" ">
<polygon fill="none" stroke="black" points="475,-104.5 475,-123.5 561,-123.5 561,-104.5 475,-104.5"/>
<text text-anchor="middle" x="518" y="-111.5" font-family="Helvetica,sans-Serif" font-size="10.00">reportMultiply</text>
</a>
</g>
</g>
<!-- Node26&#45;&gt;Node27 -->
<g id="edge46" class="edge">
<title>Node26&#45;&gt;Node27</title>
<path fill="none" stroke="midnightblue" d="M433.06,-114C442.74,-114 453.95,-114 464.97,-114"/>
<polygon fill="midnightblue" stroke="midnightblue" points="464.99,-117.5 474.99,-114 464.99,-110.5 464.99,-117.5"/>
</g>
<!-- Node27&#45;&gt;Node5 -->
<g id="edge47" class="edge">
<title>Node27&#45;&gt;Node5</title>
<path fill="none" stroke="midnightblue" d="M559.5,-104.41C580.68,-99.4 606.8,-93.21 629.26,-87.89"/>
<polygon fill="midnightblue" stroke="midnightblue" points="630.37,-91.23 639.29,-85.52 628.75,-84.42 630.37,-91.23"/>
</g>
<!-- Node27&#45;&gt;Node7 -->
<g id="edge50" class="edge">
<title>Node27&#45;&gt;Node7</title>
<path fill="none" stroke="midnightblue" d="M547.65,-123.58C554.2,-126.25 561,-129.41 567,-133 604.74,-155.57 642.56,-190.71 663.31,-211.33"/>
<polygon fill="midnightblue" stroke="midnightblue" points="660.86,-213.83 670.39,-218.46 665.83,-208.9 660.86,-213.83"/>
</g>
<!-- Node27&#45;&gt;Node23 -->
<g id="edge49" class="edge">
<title>Node27&#45;&gt;Node23</title>
<path fill="none" stroke="midnightblue" d="M561.17,-114C576.24,-114 593.65,-114 610.4,-114"/>
<polygon fill="midnightblue" stroke="midnightblue" points="610.72,-117.5 620.72,-114 610.72,-110.5 610.72,-117.5"/>
</g>
<!-- Node28 -->
<g id="node28" class="node">
<title>Node28</title>
<g id="a_node28"><a xlink:href="util_8hpp.html#a93b9ba3fe803c8e3fa1b128f4e83924f" target="_top" xlink:title="Makes the given string wider by adding 2 spaces between each character.">
<polygon fill="none" stroke="black" points="644.5,-28.5 644.5,-47.5 716.5,-47.5 716.5,-28.5 644.5,-28.5"/>
<text text-anchor="middle" x="680.5" y="-35.5" font-family="Helvetica,sans-Serif" font-size="10.00">makeWider</text>
</a>
</g>
</g>
<!-- Node27&#45;&gt;Node28 -->
<g id="edge48" class="edge">
<title>Node27&#45;&gt;Node28</title>
<path fill="none" stroke="midnightblue" d="M530.18,-104.48C545.59,-91.84 574.68,-69.64 603,-57 612.85,-52.6 623.88,-49.11 634.44,-46.39"/>
<polygon fill="midnightblue" stroke="midnightblue" points="635.46,-49.74 644.36,-44.01 633.82,-42.94 635.46,-49.74"/>
</g>
</g>
</svg>
