<?xml version="1.0" encoding="UTF-8" standalone="no"?>
<!DOCTYPE svg PUBLIC "-//W3C//DTD SVG 1.1//EN"
 "http://www.w3.org/Graphics/SVG/1.1/DTD/svg11.dtd">
<!-- Generated by graphviz version 11.0.0 (20240428.1522)
 -->
<!-- Title: steppable::Number::operator* Pages: 1 -->
<svg width="1043pt" height="364pt"
 viewBox="0.00 0.00 1043.00 363.50" xmlns="http://www.w3.org/2000/svg" xmlns:xlink="http://www.w3.org/1999/xlink">
<g id="graph0" class="graph" transform="scale(1 1) rotate(0) translate(4 359.5)">
<title>steppable::Number::operator*</title>
<!-- Node1 -->
<g id="Node000001" class="node">
<title>Node1</title>
<g id="a_Node000001"><a xlink:title="Multiplies two numbers.">
<polygon fill="#999999" stroke="#666666" points="115,-310.5 0,-310.5 0,-277 115,-277 115,-310.5"/>
<text text-anchor="start" x="8" y="-297" font-family="Helvetica,sans-Serif" font-size="10.00">steppable::Number::</text>
<text text-anchor="middle" x="57.5" y="-284.25" font-family="Helvetica,sans-Serif" font-size="10.00">operator*</text>
</a>
</g>
</g>
<!-- Node2 -->
<g id="Node000002" class="node">
<title>Node2</title>
<g id="a_Node000002"><a xlink:href="namespacesteppable_1_1____internals_1_1arithmetic.html#a59c559ff2ec84dc1964531893a457c66" target="_top" xlink:title="Multiplies two string representations of numbers.">
<polygon fill="white" stroke="#666666" points="274.25,-310.5 151,-310.5 151,-277 274.25,-277 274.25,-310.5"/>
<text text-anchor="start" x="159" y="-297" font-family="Helvetica,sans-Serif" font-size="10.00">steppable::__internals</text>
<text text-anchor="middle" x="212.62" y="-284.25" font-family="Helvetica,sans-Serif" font-size="10.00">::arithmetic::multiply</text>
</a>
</g>
</g>
<!-- Node1&#45;&gt;Node2 -->
<g id="edge1_Node000001_Node000002" class="edge">
<title>Node1&#45;&gt;Node2</title>
<g id="a_edge1_Node000001_Node000002"><a xlink:title=" ">
<path fill="none" stroke="#63b8ff" d="M115.08,-293.75C122.96,-293.75 131.14,-293.75 139.25,-293.75"/>
<polygon fill="#63b8ff" stroke="#63b8ff" points="139.13,-297.25 149.13,-293.75 139.13,-290.25 139.13,-297.25"/>
</a>
</g>
</g>
<!-- Node3 -->
<g id="Node000003" class="node">
<title>Node3</title>
<g id="a_Node000003"><a xlink:href="namespacesteppable_1_1____internals_1_1numUtils.html#a8ce9e01517c4e53205ea82fc8ad1124b" target="_top" xlink:title="Determines whether the number is a power of 10.">
<polygon fill="white" stroke="#666666" points="448.5,-355.5 310.25,-355.5 310.25,-322 448.5,-322 448.5,-355.5"/>
<text text-anchor="start" x="318.25" y="-342" font-family="Helvetica,sans-Serif" font-size="10.00">steppable::__internals</text>
<text text-anchor="middle" x="379.38" y="-329.25" font-family="Helvetica,sans-Serif" font-size="10.00">::numUtils::isPowerOfTen</text>
</a>
</g>
</g>
<!-- Node2&#45;&gt;Node3 -->
<g id="edge2_Node000002_Node000003" class="edge">
<title>Node2&#45;&gt;Node3</title>
<g id="a_edge2_Node000002_Node000003"><a xlink:title=" ">
<path fill="none" stroke="#63b8ff" d="M274.5,-310.38C284.16,-313.02 294.24,-315.77 304.16,-318.48"/>
<polygon fill="#63b8ff" stroke="#63b8ff" points="303.24,-321.85 313.8,-321.11 305.08,-315.1 303.24,-321.85"/>
</a>
</g>
</g>
<!-- Node4 -->
<g id="Node000004" class="node">
<title>Node4</title>
<g id="a_Node000004"><a xlink:href="namespacesteppable_1_1____internals_1_1numUtils.html#afce13d9dd949a08a7e75b27246a276b2" target="_top" xlink:title="Checks if a given string is a zero string.">
<polygon fill="white" stroke="#666666" points="1035,-272.5 903.5,-272.5 903.5,-239 1035,-239 1035,-272.5"/>
<text text-anchor="start" x="911.5" y="-259" font-family="Helvetica,sans-Serif" font-size="10.00">steppable::__internals</text>
<text text-anchor="middle" x="969.25" y="-246.25" font-family="Helvetica,sans-Serif" font-size="10.00">::numUtils::isZeroString</text>
</a>
</g>
</g>
<!-- Node2&#45;&gt;Node4 -->
<g id="edge3_Node000002_Node000004" class="edge">
<title>Node2&#45;&gt;Node4</title>
<g id="a_edge3_Node000002_Node000004"><a xlink:title=" ">
<path fill="none" stroke="#63b8ff" d="M274.34,-296.73C390.22,-301.47 650.7,-307.57 867.5,-279.75 876.09,-278.65 885.01,-277.11 893.84,-275.34"/>
<polygon fill="#63b8ff" stroke="#63b8ff" points="894.4,-278.8 903.46,-273.31 892.95,-271.95 894.4,-278.8"/>
</a>
</g>
</g>
<!-- Node5 -->
<g id="Node000005" class="node">
<title>Node5</title>
<g id="a_Node000005"><a xlink:href="namespacesteppable_1_1____internals_1_1numUtils.html#a6ec6b1fba5358e4335ddce9d58ad60ff" target="_top" xlink:title=" ">
<polygon fill="white" stroke="#666666" points="445.5,-175.5 313.25,-175.5 313.25,-142 445.5,-142 445.5,-175.5"/>
<text text-anchor="start" x="321.25" y="-162" font-family="Helvetica,sans-Serif" font-size="10.00">steppable::__internals</text>
<text text-anchor="middle" x="379.38" y="-149.25" font-family="Helvetica,sans-Serif" font-size="10.00">::numUtils::splitNumber</text>
</a>
</g>
</g>
<!-- Node2&#45;&gt;Node5 -->
<g id="edge4_Node000002_Node000005" class="edge">
<title>Node2&#45;&gt;Node5</title>
<g id="a_edge4_Node000002_Node000005"><a xlink:title=" ">
<path fill="none" stroke="#63b8ff" d="M234.49,-276.65C263.38,-252.98 315.71,-210.1 348.67,-183.09"/>
<polygon fill="#63b8ff" stroke="#63b8ff" points="350.73,-185.93 356.25,-176.88 346.3,-180.51 350.73,-185.93"/>
</a>
</g>
</g>
<!-- Node5&#45;&gt;Node4 -->
<g id="edge5_Node000005_Node000004" class="edge">
<title>Node5&#45;&gt;Node4</title>
<g id="a_edge5_Node000005_Node000004"><a xlink:title=" ">
<path fill="none" stroke="#63b8ff" d="M396.49,-175.9C415.47,-194.78 448.95,-224.13 484.5,-236.75 621.64,-285.43 794.56,-276.95 892.13,-266.37"/>
<polygon fill="#63b8ff" stroke="#63b8ff" points="892.31,-269.87 901.85,-265.27 891.52,-262.91 892.31,-269.87"/>
</a>
</g>
</g>
<!-- Node6 -->
<g id="Node000006" class="node">
<title>Node6</title>
<g id="a_Node000006"><a xlink:href="namespacesteppable_1_1____internals_1_1numUtils.html#a3d4e1e21ccf1afecd766d3152df87212" target="_top" xlink:title=" ">
<polygon fill="white" stroke="#666666" points="660.25,-227.5 484.5,-227.5 484.5,-194 660.25,-194 660.25,-227.5"/>
<text text-anchor="start" x="492.5" y="-214" font-family="Helvetica,sans-Serif" font-size="10.00">steppable::__internals</text>
<text text-anchor="middle" x="572.38" y="-201.25" font-family="Helvetica,sans-Serif" font-size="10.00">::numUtils::removeLeadingZeros</text>
</a>
</g>
</g>
<!-- Node5&#45;&gt;Node6 -->
<g id="edge6_Node000005_Node000006" class="edge">
<title>Node5&#45;&gt;Node6</title>
<g id="a_edge6_Node000005_Node000006"><a xlink:title=" ">
<path fill="none" stroke="#63b8ff" d="M443.71,-175.99C460.89,-180.67 479.63,-185.77 497.34,-190.59"/>
<polygon fill="#63b8ff" stroke="#63b8ff" points="496.18,-193.91 506.75,-193.16 498.02,-187.15 496.18,-193.91"/>
</a>
</g>
</g>
<!-- Node7 -->
<g id="Node000007" class="node">
<title>Node7</title>
<g id="a_Node000007"><a xlink:href="namespacesteppable_1_1____internals_1_1numUtils.html#a5d7e8d74d304a1ac7fc2ad4dbf5b40ae" target="_top" xlink:title=" ">
<polygon fill="white" stroke="#666666" points="658.75,-175.5 486,-175.5 486,-142 658.75,-142 658.75,-175.5"/>
<text text-anchor="start" x="494" y="-162" font-family="Helvetica,sans-Serif" font-size="10.00">steppable::__internals</text>
<text text-anchor="middle" x="572.38" y="-149.25" font-family="Helvetica,sans-Serif" font-size="10.00">::numUtils::removeTrailingZeros</text>
</a>
</g>
</g>
<!-- Node5&#45;&gt;Node7 -->
<g id="edge7_Node000005_Node000007" class="edge">
<title>Node5&#45;&gt;Node7</title>
<g id="a_edge7_Node000005_Node000007"><a xlink:title=" ">
<path fill="none" stroke="#63b8ff" d="M445.84,-158.75C455.08,-158.75 464.73,-158.75 474.4,-158.75"/>
<polygon fill="#63b8ff" stroke="#63b8ff" points="474.23,-162.25 484.23,-158.75 474.23,-155.25 474.23,-162.25"/>
</a>
</g>
</g>
<!-- Node8 -->
<g id="Node000008" class="node">
<title>Node8</title>
<g id="a_Node000008"><a xlink:href="namespacesteppable_1_1____internals_1_1numUtils.html#a32fc3a968fc9629ed8616c539e840472" target="_top" xlink:title="Simplifies a string with non&#45;standard polarity (e.g., –1, —1, etc.).">
<polygon fill="white" stroke="#666666" points="646.75,-123.5 498,-123.5 498,-90 646.75,-90 646.75,-123.5"/>
<text text-anchor="start" x="506" y="-110" font-family="Helvetica,sans-Serif" font-size="10.00">steppable::__internals</text>
<text text-anchor="middle" x="572.38" y="-97.25" font-family="Helvetica,sans-Serif" font-size="10.00">::numUtils::simplifyPolarity</text>
</a>
</g>
</g>
<!-- Node5&#45;&gt;Node8 -->
<g id="edge8_Node000005_Node000008" class="edge">
<title>Node5&#45;&gt;Node8</title>
<g id="a_edge8_Node000005_Node000008"><a xlink:title=" ">
<path fill="none" stroke="#63b8ff" d="M443.71,-141.51C460.89,-136.83 479.63,-131.73 497.34,-126.91"/>
<polygon fill="#63b8ff" stroke="#63b8ff" points="498.02,-130.35 506.75,-124.34 496.18,-123.59 498.02,-130.35"/>
</a>
</g>
</g>
<!-- Node9 -->
<g id="Node000009" class="node">
<title>Node9</title>
<g id="a_Node000009"><a xlink:href="namespacesteppable_1_1____internals_1_1numUtils.html#a5e6d1c6139edf65f76c0bd6aeba82066" target="_top" xlink:title="Simplifies a string that represents a number with non&#45;standard polarity.">
<polygon fill="white" stroke="#666666" points="867.5,-123.5 696.25,-123.5 696.25,-90 867.5,-90 867.5,-123.5"/>
<text text-anchor="start" x="704.25" y="-110" font-family="Helvetica,sans-Serif" font-size="10.00">steppable::__internals</text>
<text text-anchor="middle" x="781.88" y="-97.25" font-family="Helvetica,sans-Serif" font-size="10.00">::numUtils::simplifyZeroPolarity</text>
</a>
</g>
</g>
<!-- Node5&#45;&gt;Node9 -->
<g id="edge11_Node000005_Node000009" class="edge">
<title>Node5&#45;&gt;Node9</title>
<g id="a_edge11_Node000005_Node000009"><a xlink:title=" ">
<path fill="none" stroke="#63b8ff" d="M396.07,-141.69C414.91,-122.58 448.5,-92.74 484.5,-80.75 561.43,-55.13 655.45,-70.71 716.68,-86.59"/>
<polygon fill="#63b8ff" stroke="#63b8ff" points="715.69,-89.95 726.26,-89.16 717.51,-83.19 715.69,-89.95"/>
</a>
</g>
</g>
<!-- Node10 -->
<g id="Node000010" class="node">
<title>Node10</title>
<g id="a_Node000010"><a xlink:href="namespacesteppable_1_1____internals_1_1stringUtils.html#a2600efb348f0dd19cc0068946d06b1b7" target="_top" xlink:title="Splits a string into substrings based on a separator.">
<polygon fill="white" stroke="#666666" points="634,-33.5 510.75,-33.5 510.75,0 634,0 634,-33.5"/>
<text text-anchor="start" x="518.75" y="-20" font-family="Helvetica,sans-Serif" font-size="10.00">steppable::__internals</text>
<text text-anchor="middle" x="572.38" y="-7.25" font-family="Helvetica,sans-Serif" font-size="10.00">::stringUtils::split</text>
</a>
</g>
</g>
<!-- Node5&#45;&gt;Node10 -->
<g id="edge12_Node000005_Node000010" class="edge">
<title>Node5&#45;&gt;Node10</title>
<g id="a_edge12_Node000005_Node000010"><a xlink:title=" ">
<path fill="none" stroke="#63b8ff" d="M392.23,-141.7C409.79,-117.61 444.94,-73.67 484.5,-47.75 489.61,-44.4 495.12,-41.37 500.8,-38.62"/>
<polygon fill="#63b8ff" stroke="#63b8ff" points="502.09,-41.88 509.79,-34.61 499.23,-35.49 502.09,-41.88"/>
</a>
</g>
</g>
<!-- Node8&#45;&gt;Node9 -->
<g id="edge9_Node000008_Node000009" class="edge">
<title>Node8&#45;&gt;Node9</title>
<g id="a_edge9_Node000008_Node000009"><a xlink:title=" ">
<path fill="none" stroke="#63b8ff" d="M647.12,-106.75C659.25,-106.75 671.97,-106.75 684.55,-106.75"/>
<polygon fill="#63b8ff" stroke="#63b8ff" points="684.53,-110.25 694.53,-106.75 684.53,-103.25 684.53,-110.25"/>
</a>
</g>
</g>
<!-- Node9&#45;&gt;Node4 -->
<g id="edge10_Node000009_Node000004" class="edge">
<title>Node9&#45;&gt;Node4</title>
<g id="a_edge10_Node000009_Node000004"><a xlink:title=" ">
<path fill="none" stroke="#63b8ff" d="M804.14,-123.84C837.16,-150.38 900.85,-201.58 938.44,-231.79"/>
<polygon fill="#63b8ff" stroke="#63b8ff" points="935.78,-234.14 945.77,-237.68 940.17,-228.69 935.78,-234.14"/>
</a>
</g>
</g>
</g>
</svg>
