<?xml version="1.0" encoding="UTF-8" standalone="no"?>
<!DOCTYPE svg PUBLIC "-//W3C//DTD SVG 1.1//EN"
 "http://www.w3.org/Graphics/SVG/1.1/DTD/svg11.dtd">
<!-- Generated by graphviz version 2.43.0 (0)
 -->
<!-- Title: include/colors.hpp Pages: 1 -->
<svg width="3398pt" height="207pt"
 viewBox="0.00 0.00 3397.50 207.00" xmlns="http://www.w3.org/2000/svg" xmlns:xlink="http://www.w3.org/1999/xlink">
<g id="graph0" class="graph" transform="scale(1 1) rotate(0) translate(4 203)">
<title>include/colors.hpp</title>
<!-- Node1 -->
<g id="node1" class="node">
<title>Node1</title>
<g id="a_node1"><a xlink:title="This file contains functions and macros for manipulating text colors and formats in the terminal.">
<polygon fill="#bfbfbf" stroke="black" points="2012,-179.5 2012,-198.5 2117,-198.5 2117,-179.5 2012,-179.5"/>
<text text-anchor="middle" x="2064.5" y="-186.5" font-family="Helvetica,sans-Serif" font-size="10.00">include/colors.hpp</text>
</a>
</g>
</g>
<!-- Node2 -->
<g id="node2" class="node">
<title>Node2</title>
<g id="a_node2"><a xlink:href="output_8hpp.html" target="_top" xlink:title="This file contains functions for displaying error, warning, and info messages.">
<polygon fill="none" stroke="black" points="712,-123.5 712,-142.5 819,-142.5 819,-123.5 712,-123.5"/>
<text text-anchor="middle" x="765.5" y="-130.5" font-family="Helvetica,sans-Serif" font-size="10.00">include/output.hpp</text>
</a>
</g>
</g>
<!-- Node1&#45;&gt;Node2 -->
<g id="edge1" class="edge">
<title>Node1&#45;&gt;Node2</title>
<path fill="none" stroke="midnightblue" d="M2001.75,-185.39C1778.76,-176.12 1026.76,-144.86 819.04,-136.23"/>
<polygon fill="midnightblue" stroke="midnightblue" points="2001.83,-188.9 2011.97,-185.82 2002.12,-181.9 2001.83,-188.9"/>
</g>
<!-- Node21 -->
<g id="node21" class="node">
<title>Node21</title>
<g id="a_node21"><a xlink:href="argParse_8cpp.html" target="_top" xlink:title=" ">
<polygon fill="none" stroke="black" points="3293.5,-6 3293.5,-25 3389.5,-25 3389.5,-6 3293.5,-6"/>
<text text-anchor="middle" x="3341.5" y="-13" font-family="Helvetica,sans-Serif" font-size="10.00">src/argParse.cpp</text>
</a>
</g>
</g>
<!-- Node1&#45;&gt;Node21 -->
<g id="edge48" class="edge">
<title>Node1&#45;&gt;Node21</title>
<path fill="none" stroke="midnightblue" d="M2072.26,-170.32C2080.04,-154.93 2093.58,-133.5 2112.5,-123 2340.94,3.74 3026.75,-73.58 3284.5,-31 3293.47,-29.52 3303.09,-27.31 3311.82,-25.07"/>
<polygon fill="midnightblue" stroke="midnightblue" points="2069.08,-168.85 2067.98,-179.39 2075.41,-171.84 2069.08,-168.85"/>
</g>
<!-- Node23 -->
<g id="node23" class="node">
<title>Node23</title>
<g id="a_node23"><a xlink:href="util_8hpp.html" target="_top" xlink:title="This file contains utility functions and macros for the Steppable project.">
<polygon fill="none" stroke="black" points="1934.5,-67.5 1934.5,-86.5 2026.5,-86.5 2026.5,-67.5 1934.5,-67.5"/>
<text text-anchor="middle" x="1980.5" y="-74.5" font-family="Helvetica,sans-Serif" font-size="10.00">include/util.hpp</text>
</a>
</g>
</g>
<!-- Node1&#45;&gt;Node23 -->
<g id="edge26" class="edge">
<title>Node1&#45;&gt;Node23</title>
<path fill="none" stroke="midnightblue" d="M2051.73,-171.27C2033.57,-147.49 2000.96,-104.79 1987.06,-86.59"/>
<polygon fill="midnightblue" stroke="midnightblue" points="2049.06,-173.54 2057.91,-179.37 2054.62,-169.3 2049.06,-173.54"/>
</g>
<!-- Node30 -->
<g id="node30" class="node">
<title>Node30</title>
<g id="a_node30"><a xlink:href="colors_8cpp.html" target="_top" xlink:title=" ">
<polygon fill="none" stroke="black" points="2121,-123.5 2121,-142.5 2204,-142.5 2204,-123.5 2121,-123.5"/>
<text text-anchor="middle" x="2162.5" y="-130.5" font-family="Helvetica,sans-Serif" font-size="10.00">src/colors.cpp</text>
</a>
</g>
</g>
<!-- Node1&#45;&gt;Node30 -->
<g id="edge49" class="edge">
<title>Node1&#45;&gt;Node30</title>
<path fill="none" stroke="midnightblue" d="M2089.09,-174.45C2107.18,-164.48 2131.23,-151.23 2146.79,-142.65"/>
<polygon fill="midnightblue" stroke="midnightblue" points="2087.31,-171.43 2080.25,-179.32 2090.69,-177.56 2087.31,-171.43"/>
</g>
<!-- Node3 -->
<g id="node3" class="node">
<title>Node3</title>
<g id="a_node3"><a xlink:href="basicArithm_8hpp.html" target="_top" xlink:title="This file contains functions for basic arithmetic operations on strings.">
<polygon fill="none" stroke="black" points="1053,-67.5 1053,-86.5 1200,-86.5 1200,-67.5 1053,-67.5"/>
<text text-anchor="middle" x="1126.5" y="-74.5" font-family="Helvetica,sans-Serif" font-size="10.00">include/fn/basicArithm.hpp</text>
</a>
</g>
</g>
<!-- Node2&#45;&gt;Node3 -->
<g id="edge2" class="edge">
<title>Node2&#45;&gt;Node3</title>
<path fill="none" stroke="midnightblue" d="M829.32,-122.45C897.41,-112.27 1004.25,-96.29 1069.57,-86.52"/>
<polygon fill="midnightblue" stroke="midnightblue" points="828.53,-119.03 819.16,-123.97 829.56,-125.96 828.53,-119.03"/>
</g>
<!-- Node5 -->
<g id="node5" class="node">
<title>Node5</title>
<g id="a_node5"><a xlink:href="abs_8cpp.html" target="_top" xlink:title="This file contains the implementation of the abs function, which gets the absolute value of a number ...">
<polygon fill="none" stroke="black" points="738.5,-6 738.5,-25 830.5,-25 830.5,-6 738.5,-6"/>
<text text-anchor="middle" x="784.5" y="-13" font-family="Helvetica,sans-Serif" font-size="10.00">src/abs/abs.cpp</text>
</a>
</g>
</g>
<!-- Node2&#45;&gt;Node5 -->
<g id="edge20" class="edge">
<title>Node2&#45;&gt;Node5</title>
<path fill="none" stroke="midnightblue" d="M768.6,-113.16C772.76,-87.87 779.99,-43.94 783.06,-25.28"/>
<polygon fill="midnightblue" stroke="midnightblue" points="765.1,-112.88 766.93,-123.32 772,-114.02 765.1,-112.88"/>
</g>
<!-- Node7 -->
<g id="node7" class="node">
<title>Node7</title>
<g id="a_node7"><a xlink:href="baseConvert_8cpp.html" target="_top" xlink:title="This file contains the implementation of the baseConvert function, which converts any number to any b...">
<polygon fill="none" stroke="black" points="220.5,-6 220.5,-25 400.5,-25 400.5,-6 220.5,-6"/>
<text text-anchor="middle" x="310.5" y="-13" font-family="Helvetica,sans-Serif" font-size="10.00">src/baseConvert/baseConvert.cpp</text>
</a>
</g>
</g>
<!-- Node2&#45;&gt;Node7 -->
<g id="edge22" class="edge">
<title>Node2&#45;&gt;Node7</title>
<path fill="none" stroke="midnightblue" d="M751.8,-115.79C737.83,-100.46 714.67,-78.18 689.5,-67 575.23,-16.25 534.37,-47.97 410.5,-31 396.77,-29.12 381.99,-27.02 368.12,-25.01"/>
<polygon fill="midnightblue" stroke="midnightblue" points="749.34,-118.29 758.58,-123.48 754.59,-113.66 749.34,-118.29"/>
</g>
<!-- Node10 -->
<g id="node10" class="node">
<title>Node10</title>
<g id="a_node10"><a xlink:href="division_8cpp.html" target="_top" xlink:title="Performs division of two numbers represented in strings.">
<polygon fill="none" stroke="black" points="586.5,-6 586.5,-25 720.5,-25 720.5,-6 586.5,-6"/>
<text text-anchor="middle" x="653.5" y="-13" font-family="Helvetica,sans-Serif" font-size="10.00">src/division/division.cpp</text>
</a>
</g>
</g>
<!-- Node2&#45;&gt;Node10 -->
<g id="edge23" class="edge">
<title>Node2&#45;&gt;Node10</title>
<path fill="none" stroke="midnightblue" d="M756.13,-114.36C748.28,-100.55 736.18,-81.34 722.5,-67 706.01,-49.7 682.97,-34.19 668.14,-25.06"/>
<polygon fill="midnightblue" stroke="midnightblue" points="753.17,-116.24 761.06,-123.31 759.3,-112.86 753.17,-116.24"/>
</g>
<!-- Node15 -->
<g id="node15" class="node">
<title>Node15</title>
<g id="a_node15"><a xlink:href="number_8cpp.html" target="_top" xlink:title="This file contains the implementation of the Number class, which represents a number in math.">
<polygon fill="none" stroke="black" points="0,-6 0,-25 91,-25 91,-6 0,-6"/>
<text text-anchor="middle" x="45.5" y="-13" font-family="Helvetica,sans-Serif" font-size="10.00">src/number.cpp</text>
</a>
</g>
</g>
<!-- Node2&#45;&gt;Node15 -->
<g id="edge24" class="edge">
<title>Node2&#45;&gt;Node15</title>
<path fill="none" stroke="midnightblue" d="M701.68,-124.62C582.74,-110.35 319.39,-76.34 100.5,-31 92.38,-29.32 83.66,-27.18 75.62,-25.06"/>
<polygon fill="midnightblue" stroke="midnightblue" points="701.37,-128.1 711.71,-125.81 702.2,-121.15 701.37,-128.1"/>
</g>
<!-- Node2&#45;&gt;Node21 -->
<g id="edge21" class="edge">
<title>Node2&#45;&gt;Node21</title>
<path fill="none" stroke="midnightblue" d="M829.31,-131.23C1070.38,-128.1 1917.92,-115.2 2035.5,-87 2056,-82.08 2057.99,-71.86 2078.5,-67 2339.4,-5.2 3018.98,-68.27 3284.5,-31 3293.9,-29.68 3304,-27.41 3313.04,-25.04"/>
<polygon fill="midnightblue" stroke="midnightblue" points="829.26,-127.73 819.3,-131.36 829.35,-134.73 829.26,-127.73"/>
</g>
<!-- Node22 -->
<g id="node22" class="node">
<title>Node22</title>
<g id="a_node22"><a xlink:href="testing_8cpp.html" target="_top" xlink:title=" ">
<polygon fill="none" stroke="black" points="592.5,-67.5 592.5,-86.5 680.5,-86.5 680.5,-67.5 592.5,-67.5"/>
<text text-anchor="middle" x="636.5" y="-74.5" font-family="Helvetica,sans-Serif" font-size="10.00">src/testing.cpp</text>
</a>
</g>
</g>
<!-- Node2&#45;&gt;Node22 -->
<g id="edge25" class="edge">
<title>Node2&#45;&gt;Node22</title>
<path fill="none" stroke="midnightblue" d="M735.65,-119.5C711.46,-109.38 678.04,-95.39 656.84,-86.52"/>
<polygon fill="midnightblue" stroke="midnightblue" points="734.48,-122.81 745.06,-123.44 737.19,-116.35 734.48,-122.81"/>
</g>
<!-- Node4 -->
<g id="node4" class="node">
<title>Node4</title>
<g id="a_node4"><a xlink:href="bindings_8cpp.html" target="_top" xlink:title=" ">
<polygon fill="none" stroke="black" points="109,-6 109,-25 202,-25 202,-6 109,-6"/>
<text text-anchor="middle" x="155.5" y="-13" font-family="Helvetica,sans-Serif" font-size="10.00">lib/bindings.cpp</text>
</a>
</g>
</g>
<!-- Node3&#45;&gt;Node4 -->
<g id="edge3" class="edge">
<title>Node3&#45;&gt;Node4</title>
<path fill="none" stroke="midnightblue" d="M1042.77,-74.07C848.24,-69.23 370.31,-55.21 211.5,-31 202.37,-29.61 192.56,-27.34 183.76,-25.01"/>
<polygon fill="midnightblue" stroke="midnightblue" points="1042.85,-77.57 1052.93,-74.32 1043.02,-70.57 1042.85,-77.57"/>
</g>
<!-- Node3&#45;&gt;Node5 -->
<g id="edge4" class="edge">
<title>Node3&#45;&gt;Node5</title>
<path fill="none" stroke="midnightblue" d="M1050.42,-66.08C992.58,-58.05 911.18,-45.68 840.5,-31 832.24,-29.29 823.37,-27.13 815.18,-25.02"/>
<polygon fill="midnightblue" stroke="midnightblue" points="1050.19,-69.58 1060.57,-67.48 1051.14,-62.65 1050.19,-69.58"/>
</g>
<!-- Node6 -->
<g id="node6" class="node">
<title>Node6</title>
<g id="a_node6"><a xlink:href="add_8cpp.html" target="_top" xlink:title="This file contains the implementation of the add function, which add two number strings together.">
<polygon fill="none" stroke="black" points="849,-6 849,-25 942,-25 942,-6 849,-6"/>
<text text-anchor="middle" x="895.5" y="-13" font-family="Helvetica,sans-Serif" font-size="10.00">src/add/add.cpp</text>
</a>
</g>
</g>
<!-- Node3&#45;&gt;Node6 -->
<g id="edge5" class="edge">
<title>Node3&#45;&gt;Node6</title>
<path fill="none" stroke="midnightblue" d="M1083.27,-64.91C1047.85,-55.81 996.43,-42.59 951.5,-31 944.01,-29.07 935.96,-26.99 928.37,-25.02"/>
<polygon fill="midnightblue" stroke="midnightblue" points="1082.72,-68.38 1093.27,-67.47 1084.46,-61.6 1082.72,-68.38"/>
</g>
<!-- Node3&#45;&gt;Node7 -->
<g id="edge6" class="edge">
<title>Node3&#45;&gt;Node7</title>
<path fill="none" stroke="midnightblue" d="M1042.71,-72.94C908.84,-67.56 638.55,-54.66 410.5,-31 395.23,-29.42 378.72,-27.22 363.59,-25.02"/>
<polygon fill="midnightblue" stroke="midnightblue" points="1042.77,-76.45 1052.9,-73.35 1043.04,-69.45 1042.77,-76.45"/>
</g>
<!-- Node8 -->
<g id="node8" class="node">
<title>Node8</title>
<g id="a_node8"><a xlink:href="comparison_8cpp.html" target="_top" xlink:title=" ">
<polygon fill="none" stroke="black" points="960,-6 960,-25 1131,-25 1131,-6 960,-6"/>
<text text-anchor="middle" x="1045.5" y="-13" font-family="Helvetica,sans-Serif" font-size="10.00">src/comparison/comparison.cpp</text>
</a>
</g>
</g>
<!-- Node3&#45;&gt;Node8 -->
<g id="edge7" class="edge">
<title>Node3&#45;&gt;Node8</title>
<path fill="none" stroke="midnightblue" d="M1106.48,-61.29C1090.94,-49.88 1069.95,-34.46 1057.08,-25.01"/>
<polygon fill="midnightblue" stroke="midnightblue" points="1104.76,-64.38 1114.89,-67.48 1108.91,-58.73 1104.76,-64.38"/>
</g>
<!-- Node9 -->
<g id="node9" class="node">
<title>Node9</title>
<g id="a_node9"><a xlink:href="decimalConvert_8cpp.html" target="_top" xlink:title="This file contains the implementation of the decimalConvert function, which converts a number from on...">
<polygon fill="none" stroke="black" points="1149,-0.5 1149,-30.5 1266,-30.5 1266,-0.5 1149,-0.5"/>
<text text-anchor="start" x="1157" y="-18.5" font-family="Helvetica,sans-Serif" font-size="10.00">src/decimalConvert</text>
<text text-anchor="middle" x="1207.5" y="-7.5" font-family="Helvetica,sans-Serif" font-size="10.00">/decimalConvert.cpp</text>
</a>
</g>
</g>
<!-- Node3&#45;&gt;Node9 -->
<g id="edge8" class="edge">
<title>Node3&#45;&gt;Node9</title>
<path fill="none" stroke="midnightblue" d="M1146.28,-61.47C1159.11,-52.05 1175.73,-39.84 1188.41,-30.52"/>
<polygon fill="midnightblue" stroke="midnightblue" points="1144.09,-58.73 1138.11,-67.48 1148.24,-64.38 1144.09,-58.73"/>
</g>
<!-- Node3&#45;&gt;Node10 -->
<g id="edge9" class="edge">
<title>Node3&#45;&gt;Node10</title>
<path fill="none" stroke="midnightblue" d="M1042.66,-68.36C962.15,-60.58 837.19,-47.35 729.5,-31 718.34,-29.31 706.33,-27.16 695.21,-25.05"/>
<polygon fill="midnightblue" stroke="midnightblue" points="1042.46,-71.85 1052.75,-69.32 1043.13,-64.88 1042.46,-71.85"/>
</g>
<!-- Node11 -->
<g id="node11" class="node">
<title>Node11</title>
<g id="a_node11"><a xlink:href="divisionReport_8cpp.html" target="_top" xlink:title="This file contains the implementations for functions reportDivision and reportDivisionStep,...">
<polygon fill="none" stroke="black" points="1284.5,-6 1284.5,-25 1450.5,-25 1450.5,-6 1284.5,-6"/>
<text text-anchor="middle" x="1367.5" y="-13" font-family="Helvetica,sans-Serif" font-size="10.00">src/division/divisionReport.cpp</text>
</a>
</g>
</g>
<!-- Node3&#45;&gt;Node11 -->
<g id="edge10" class="edge">
<title>Node3&#45;&gt;Node11</title>
<path fill="none" stroke="midnightblue" d="M1170.89,-65.04C1217.68,-53.49 1290.38,-35.54 1333.03,-25.01"/>
<polygon fill="midnightblue" stroke="midnightblue" points="1169.9,-61.68 1161.03,-67.48 1171.58,-68.48 1169.9,-61.68"/>
</g>
<!-- Node12 -->
<g id="node12" class="node">
<title>Node12</title>
<g id="a_node12"><a xlink:href="fraction_8cpp.html" target="_top" xlink:title="This file contains the implementation of the Fraction class, which represents a fraction in math.">
<polygon fill="none" stroke="black" points="1468.5,-6 1468.5,-25 1560.5,-25 1560.5,-6 1468.5,-6"/>
<text text-anchor="middle" x="1514.5" y="-13" font-family="Helvetica,sans-Serif" font-size="10.00">src/fraction.cpp</text>
</a>
</g>
</g>
<!-- Node3&#45;&gt;Node12 -->
<g id="edge11" class="edge">
<title>Node3&#45;&gt;Node12</title>
<path fill="none" stroke="midnightblue" d="M1210.19,-67.59C1277.82,-60.1 1375.27,-47.73 1459.5,-31 1467.83,-29.35 1476.77,-27.17 1484.97,-25"/>
<polygon fill="midnightblue" stroke="midnightblue" points="1209.57,-64.13 1200.01,-68.7 1210.33,-71.09 1209.57,-64.13"/>
</g>
<!-- Node13 -->
<g id="node13" class="node">
<title>Node13</title>
<g id="a_node13"><a xlink:href="multiply_8cpp.html" target="_top" xlink:title="This file contains the implementation of the multiply function, which can multiply two strings togeth...">
<polygon fill="none" stroke="black" points="1579,-6 1579,-25 1716,-25 1716,-6 1579,-6"/>
<text text-anchor="middle" x="1647.5" y="-13" font-family="Helvetica,sans-Serif" font-size="10.00">src/multiply/multiply.cpp</text>
</a>
</g>
</g>
<!-- Node3&#45;&gt;Node13 -->
<g id="edge12" class="edge">
<title>Node3&#45;&gt;Node13</title>
<path fill="none" stroke="midnightblue" d="M1210.08,-69.58C1299.33,-62.24 1444.79,-48.89 1569.5,-31 1581.09,-29.34 1593.58,-27.18 1605.1,-25.04"/>
<polygon fill="midnightblue" stroke="midnightblue" points="1209.7,-66.1 1200.02,-70.4 1210.27,-73.08 1209.7,-66.1"/>
</g>
<!-- Node14 -->
<g id="node14" class="node">
<title>Node14</title>
<g id="a_node14"><a xlink:href="multiplyReport_8cpp.html" target="_top" xlink:title="This file contains the implementation of the reportMultiply function, which reports the product of tw...">
<polygon fill="none" stroke="black" points="1734.5,-6 1734.5,-25 1904.5,-25 1904.5,-6 1734.5,-6"/>
<text text-anchor="middle" x="1819.5" y="-13" font-family="Helvetica,sans-Serif" font-size="10.00">src/multiply/multiplyReport.cpp</text>
</a>
</g>
</g>
<!-- Node3&#45;&gt;Node14 -->
<g id="edge13" class="edge">
<title>Node3&#45;&gt;Node14</title>
<path fill="none" stroke="midnightblue" d="M1210.68,-71.75C1326.78,-65.42 1542.46,-51.96 1725.5,-31 1739.61,-29.38 1754.85,-27.22 1768.86,-25.05"/>
<polygon fill="midnightblue" stroke="midnightblue" points="1210.24,-68.27 1200.45,-72.31 1210.62,-75.26 1210.24,-68.27"/>
</g>
<!-- Node3&#45;&gt;Node15 -->
<g id="edge14" class="edge">
<title>Node3&#45;&gt;Node15</title>
<path fill="none" stroke="midnightblue" d="M1042.89,-74.64C831.82,-70.83 281.41,-58.49 100.5,-31 91.52,-29.64 81.89,-27.38 73.24,-25.05"/>
<polygon fill="midnightblue" stroke="midnightblue" points="1042.92,-78.14 1052.98,-74.82 1043.05,-71.14 1042.92,-78.14"/>
</g>
<!-- Node16 -->
<g id="node16" class="node">
<title>Node16</title>
<g id="a_node16"><a xlink:href="power_8cpp.html" target="_top" xlink:title="This file contains the implementation for the function power, which raises a number to a power.">
<polygon fill="none" stroke="black" points="1922.5,-6 1922.5,-25 2038.5,-25 2038.5,-6 1922.5,-6"/>
<text text-anchor="middle" x="1980.5" y="-13" font-family="Helvetica,sans-Serif" font-size="10.00">src/power/power.cpp</text>
</a>
</g>
</g>
<!-- Node3&#45;&gt;Node16 -->
<g id="edge15" class="edge">
<title>Node3&#45;&gt;Node16</title>
<path fill="none" stroke="midnightblue" d="M1210.21,-75.49C1354.46,-73.66 1658.9,-65.61 1913.5,-31 1924.11,-29.56 1935.55,-27.34 1945.91,-25.06"/>
<polygon fill="midnightblue" stroke="midnightblue" points="1210.06,-71.99 1200.1,-75.61 1210.15,-78.99 1210.06,-71.99"/>
</g>
<!-- Node17 -->
<g id="node17" class="node">
<title>Node17</title>
<g id="a_node17"><a xlink:href="powerReport_8cpp.html" target="_top" xlink:title="This file contains the implementation for the function reportPower, which reports the result of raisi...">
<polygon fill="none" stroke="black" points="419,-6 419,-25 568,-25 568,-6 419,-6"/>
<text text-anchor="middle" x="493.5" y="-13" font-family="Helvetica,sans-Serif" font-size="10.00">src/power/powerReport.cpp</text>
</a>
</g>
</g>
<!-- Node3&#45;&gt;Node17 -->
<g id="edge16" class="edge">
<title>Node3&#45;&gt;Node17</title>
<path fill="none" stroke="midnightblue" d="M1042.4,-71.44C934.47,-65.06 741.55,-51.84 577.5,-31 564.87,-29.4 551.25,-27.23 538.73,-25.07"/>
<polygon fill="midnightblue" stroke="midnightblue" points="1042.39,-74.95 1052.58,-72.04 1042.8,-67.96 1042.39,-74.95"/>
</g>
<!-- Node18 -->
<g id="node18" class="node">
<title>Node18</title>
<g id="a_node18"><a xlink:href="root_8cpp.html" target="_top" xlink:title="Takes the n&#45;th root of a number represented as a string.">
<polygon fill="none" stroke="black" points="2056.5,-6 2056.5,-25 2152.5,-25 2152.5,-6 2056.5,-6"/>
<text text-anchor="middle" x="2104.5" y="-13" font-family="Helvetica,sans-Serif" font-size="10.00">src/root/root.cpp</text>
</a>
</g>
</g>
<!-- Node3&#45;&gt;Node18 -->
<g id="edge17" class="edge">
<title>Node3&#45;&gt;Node18</title>
<path fill="none" stroke="midnightblue" d="M1210.42,-74.05C1405.98,-69.16 1887.5,-55.01 2047.5,-31 2056.79,-29.61 2066.76,-27.34 2075.73,-25.01"/>
<polygon fill="midnightblue" stroke="midnightblue" points="1210.11,-70.56 1200.2,-74.3 1210.28,-77.56 1210.11,-70.56"/>
</g>
<!-- Node19 -->
<g id="node19" class="node">
<title>Node19</title>
<g id="a_node19"><a xlink:href="rounding_8cpp.html" target="_top" xlink:title=" ">
<polygon fill="none" stroke="black" points="2171,-6 2171,-25 2268,-25 2268,-6 2171,-6"/>
<text text-anchor="middle" x="2219.5" y="-13" font-family="Helvetica,sans-Serif" font-size="10.00">src/rounding.cpp</text>
</a>
</g>
</g>
<!-- Node3&#45;&gt;Node19 -->
<g id="edge18" class="edge">
<title>Node3&#45;&gt;Node19</title>
<path fill="none" stroke="midnightblue" d="M1210.44,-74.53C1423.03,-70.46 1978.72,-57.54 2161.5,-31 2170.95,-29.63 2181.1,-27.37 2190.22,-25.04"/>
<polygon fill="midnightblue" stroke="midnightblue" points="1210.21,-71.04 1200.27,-74.72 1210.34,-78.03 1210.21,-71.04"/>
</g>
<!-- Node20 -->
<g id="node20" class="node">
<title>Node20</title>
<g id="a_node20"><a xlink:href="subtract_8cpp.html" target="_top" xlink:title="This file contains the implementation of the subtract function, which subtracts two numbers using the...">
<polygon fill="none" stroke="black" points="2286,-6 2286,-25 2423,-25 2423,-6 2286,-6"/>
<text text-anchor="middle" x="2354.5" y="-13" font-family="Helvetica,sans-Serif" font-size="10.00">src/subtract/subtract.cpp</text>
</a>
</g>
</g>
<!-- Node3&#45;&gt;Node20 -->
<g id="edge19" class="edge">
<title>Node3&#45;&gt;Node20</title>
<path fill="none" stroke="midnightblue" d="M1210.34,-74.32C1439.1,-69.5 2070.66,-54.39 2277.5,-31 2289.8,-29.61 2303.09,-27.37 2315.1,-25.07"/>
<polygon fill="midnightblue" stroke="midnightblue" points="1210.01,-70.83 1200.09,-74.54 1210.16,-77.83 1210.01,-70.83"/>
</g>
<!-- Node23&#45;&gt;Node5 -->
<g id="edge27" class="edge">
<title>Node23&#45;&gt;Node5</title>
<path fill="none" stroke="midnightblue" d="M1923.97,-75.37C1724.35,-72.89 1053.1,-62.35 840.5,-31 831.36,-29.65 821.56,-27.4 812.75,-25.07"/>
<polygon fill="midnightblue" stroke="midnightblue" points="1924.18,-78.87 1934.23,-75.49 1924.27,-71.87 1924.18,-78.87"/>
</g>
<!-- Node23&#45;&gt;Node6 -->
<g id="edge29" class="edge">
<title>Node23&#45;&gt;Node6</title>
<path fill="none" stroke="midnightblue" d="M1924.24,-75.09C1737.84,-71.84 1141.56,-59.44 951.5,-31 942.36,-29.63 932.56,-27.38 923.75,-25.04"/>
<polygon fill="midnightblue" stroke="midnightblue" points="1924.3,-78.59 1934.36,-75.27 1924.43,-71.6 1924.3,-78.59"/>
</g>
<!-- Node23&#45;&gt;Node7 -->
<g id="edge32" class="edge">
<title>Node23&#45;&gt;Node7</title>
<path fill="none" stroke="midnightblue" d="M1924.21,-75.26C1680.32,-71.91 713.47,-57.22 410.5,-31 394.42,-29.61 376.98,-27.34 361.24,-25.01"/>
<polygon fill="midnightblue" stroke="midnightblue" points="1924.22,-78.76 1934.27,-75.4 1924.32,-71.76 1924.22,-78.76"/>
</g>
<!-- Node23&#45;&gt;Node8 -->
<g id="edge34" class="edge">
<title>Node23&#45;&gt;Node8</title>
<path fill="none" stroke="midnightblue" d="M1924.27,-74.89C1788.97,-71.8 1434.65,-61.25 1140.5,-31 1125.73,-29.48 1109.75,-27.27 1095.18,-25.02"/>
<polygon fill="midnightblue" stroke="midnightblue" points="1924.32,-78.39 1934.39,-75.12 1924.47,-71.39 1924.32,-78.39"/>
</g>
<!-- Node23&#45;&gt;Node9 -->
<g id="edge35" class="edge">
<title>Node23&#45;&gt;Node9</title>
<path fill="none" stroke="midnightblue" d="M1924.46,-75.2C1804.76,-72.89 1515.45,-64.06 1275.5,-31 1272.39,-30.57 1269.21,-30.08 1266.01,-29.54"/>
<polygon fill="midnightblue" stroke="midnightblue" points="1924.43,-78.7 1934.49,-75.39 1924.56,-71.7 1924.43,-78.7"/>
</g>
<!-- Node23&#45;&gt;Node10 -->
<g id="edge36" class="edge">
<title>Node23&#45;&gt;Node10</title>
<path fill="none" stroke="midnightblue" d="M1923.91,-75.11C1712.05,-71.61 965.77,-57.63 729.5,-31 717.22,-29.62 703.95,-27.35 691.99,-25.02"/>
<polygon fill="midnightblue" stroke="midnightblue" points="1924.13,-78.62 1934.18,-75.28 1924.24,-71.62 1924.13,-78.62"/>
</g>
<!-- Node23&#45;&gt;Node11 -->
<g id="edge37" class="edge">
<title>Node23&#45;&gt;Node11</title>
<path fill="none" stroke="midnightblue" d="M1924.36,-72.45C1828.73,-66.11 1628.19,-51.55 1459.5,-31 1445.86,-29.34 1431.13,-27.18 1417.55,-25.04"/>
<polygon fill="midnightblue" stroke="midnightblue" points="1924.18,-75.94 1934.39,-73.11 1924.64,-68.96 1924.18,-75.94"/>
</g>
<!-- Node23&#45;&gt;Node12 -->
<g id="edge38" class="edge">
<title>Node23&#45;&gt;Node12</title>
<path fill="none" stroke="midnightblue" d="M1924.11,-72.39C1844.73,-66.73 1695.71,-53.96 1570.5,-31 1561.91,-29.42 1552.69,-27.24 1544.26,-25.05"/>
<polygon fill="midnightblue" stroke="midnightblue" points="1924.16,-75.9 1934.38,-73.11 1924.65,-68.92 1924.16,-75.9"/>
</g>
<!-- Node23&#45;&gt;Node13 -->
<g id="edge39" class="edge">
<title>Node23&#45;&gt;Node13</title>
<path fill="none" stroke="midnightblue" d="M1924.45,-66.26C1872.76,-57.24 1793.93,-43.4 1725.5,-31 1714.93,-29.08 1703.56,-26.99 1692.86,-25"/>
<polygon fill="midnightblue" stroke="midnightblue" points="1923.96,-69.73 1934.41,-68 1925.16,-62.83 1923.96,-69.73"/>
</g>
<!-- Node23&#45;&gt;Node14 -->
<g id="edge40" class="edge">
<title>Node23&#45;&gt;Node14</title>
<path fill="none" stroke="midnightblue" d="M1947.85,-63.93C1916.56,-52.37 1870.12,-35.21 1842.52,-25.01"/>
<polygon fill="midnightblue" stroke="midnightblue" points="1946.84,-67.29 1957.43,-67.48 1949.27,-60.73 1946.84,-67.29"/>
</g>
<!-- Node23&#45;&gt;Node16 -->
<g id="edge41" class="edge">
<title>Node23&#45;&gt;Node16</title>
<path fill="none" stroke="midnightblue" d="M1980.5,-57.32C1980.5,-46.5 1980.5,-33.4 1980.5,-25.01"/>
<polygon fill="midnightblue" stroke="midnightblue" points="1977,-57.48 1980.5,-67.48 1984,-57.48 1977,-57.48"/>
</g>
<!-- Node23&#45;&gt;Node18 -->
<g id="edge42" class="edge">
<title>Node23&#45;&gt;Node18</title>
<path fill="none" stroke="midnightblue" d="M2007.55,-63.02C2031.6,-51.48 2066.06,-34.94 2086.77,-25.01"/>
<polygon fill="midnightblue" stroke="midnightblue" points="2005.77,-59.99 1998.27,-67.48 2008.8,-66.3 2005.77,-59.99"/>
</g>
<!-- Node23&#45;&gt;Node19 -->
<g id="edge43" class="edge">
<title>Node23&#45;&gt;Node19</title>
<path fill="none" stroke="midnightblue" d="M2024.74,-65.02C2061.39,-55.92 2114.83,-42.63 2161.5,-31 2169.25,-29.07 2177.59,-26.98 2185.46,-25.02"/>
<polygon fill="midnightblue" stroke="midnightblue" points="2023.73,-61.66 2014.87,-67.47 2025.41,-68.46 2023.73,-61.66"/>
</g>
<!-- Node23&#45;&gt;Node20 -->
<g id="edge44" class="edge">
<title>Node23&#45;&gt;Node20</title>
<path fill="none" stroke="midnightblue" d="M2036.81,-67.52C2119.61,-55.05 2265.76,-32.99 2277.5,-31 2288.23,-29.18 2299.77,-27.08 2310.57,-25.05"/>
<polygon fill="midnightblue" stroke="midnightblue" points="2036.16,-64.08 2026.79,-69.03 2037.2,-71 2036.16,-64.08"/>
</g>
<!-- Node23&#45;&gt;Node21 -->
<g id="edge31" class="edge">
<title>Node23&#45;&gt;Node21</title>
<path fill="none" stroke="midnightblue" d="M2036.66,-67.37C2037.95,-67.24 2039.23,-67.11 2040.5,-67 2591.44,-17.89 2736.72,-107.65 3284.5,-31 3293.9,-29.68 3304,-27.41 3313.04,-25.05"/>
<polygon fill="midnightblue" stroke="midnightblue" points="2036.16,-63.9 2026.62,-68.51 2036.95,-70.86 2036.16,-63.9"/>
</g>
<!-- Node24 -->
<g id="node24" class="node">
<title>Node24</title>
<g id="a_node24"><a xlink:href="absReport_8cpp.html" target="_top" xlink:title="This file contains the implementation of the reportAbs function, which reports the absolute value of ...">
<polygon fill="none" stroke="black" points="2829.5,-6 2829.5,-25 2953.5,-25 2953.5,-6 2829.5,-6"/>
<text text-anchor="middle" x="2891.5" y="-13" font-family="Helvetica,sans-Serif" font-size="10.00">src/abs/absReport.cpp</text>
</a>
</g>
</g>
<!-- Node23&#45;&gt;Node24 -->
<g id="edge28" class="edge">
<title>Node23&#45;&gt;Node24</title>
<path fill="none" stroke="midnightblue" d="M2036.66,-67.4C2037.95,-67.26 2039.23,-67.12 2040.5,-67 2385.89,-33.22 2476.12,-73.85 2820.5,-31 2831.86,-29.59 2844.12,-27.35 2855.19,-25.04"/>
<polygon fill="midnightblue" stroke="midnightblue" points="2036.14,-63.93 2026.63,-68.59 2036.97,-70.88 2036.14,-63.93"/>
</g>
<!-- Node25 -->
<g id="node25" class="node">
<title>Node25</title>
<g id="a_node25"><a xlink:href="addReport_8cpp.html" target="_top" xlink:title="This file contains the implementation of the reportAdd function, which reports the sum of two number ...">
<polygon fill="none" stroke="black" points="2972,-6 2972,-25 3097,-25 3097,-6 2972,-6"/>
<text text-anchor="middle" x="3034.5" y="-13" font-family="Helvetica,sans-Serif" font-size="10.00">src/add/addReport.cpp</text>
</a>
</g>
</g>
<!-- Node23&#45;&gt;Node25 -->
<g id="edge30" class="edge">
<title>Node23&#45;&gt;Node25</title>
<path fill="none" stroke="midnightblue" d="M2036.66,-67.38C2037.95,-67.25 2039.23,-67.12 2040.5,-67 2448.78,-28.53 2555.3,-79.64 2962.5,-31 2974.15,-29.61 2986.72,-27.34 2998.05,-25.02"/>
<polygon fill="midnightblue" stroke="midnightblue" points="2036.15,-63.92 2026.63,-68.56 2036.96,-70.87 2036.15,-63.92"/>
</g>
<!-- Node26 -->
<g id="node26" class="node">
<title>Node26</title>
<g id="a_node26"><a xlink:href="baseConvertReport_8cpp.html" target="_top" xlink:title="This file contains the implementation of the reportBaseConvert function, which reports the converted ...">
<polygon fill="none" stroke="black" points="3115.5,-0.5 3115.5,-30.5 3275.5,-30.5 3275.5,-0.5 3115.5,-0.5"/>
<text text-anchor="start" x="3123.5" y="-18.5" font-family="Helvetica,sans-Serif" font-size="10.00">src/baseConvert/baseConvert</text>
<text text-anchor="middle" x="3195.5" y="-7.5" font-family="Helvetica,sans-Serif" font-size="10.00">Report.cpp</text>
</a>
</g>
</g>
<!-- Node23&#45;&gt;Node26 -->
<g id="edge33" class="edge">
<title>Node23&#45;&gt;Node26</title>
<path fill="none" stroke="midnightblue" d="M2036.66,-67.37C2037.95,-67.24 2039.23,-67.12 2040.5,-67 2512.57,-23.77 2634.71,-77.21 3106.5,-31 3109.3,-30.73 3112.15,-30.42 3115.03,-30.08"/>
<polygon fill="midnightblue" stroke="midnightblue" points="2036.15,-63.91 2026.62,-68.53 2036.96,-70.86 2036.15,-63.91"/>
</g>
<!-- Node27 -->
<g id="node27" class="node">
<title>Node27</title>
<g id="a_node27"><a xlink:href="subtractReport_8cpp.html" target="_top" xlink:title="This file contains the implementation of the reportSubtract function, which reports the result of a s...">
<polygon fill="none" stroke="black" points="2441,-6 2441,-25 2610,-25 2610,-6 2441,-6"/>
<text text-anchor="middle" x="2525.5" y="-13" font-family="Helvetica,sans-Serif" font-size="10.00">src/subtract/subtractReport.cpp</text>
</a>
</g>
</g>
<!-- Node23&#45;&gt;Node27 -->
<g id="edge45" class="edge">
<title>Node23&#45;&gt;Node27</title>
<path fill="none" stroke="midnightblue" d="M2036.67,-67.47C2037.96,-67.31 2039.24,-67.15 2040.5,-67 2214.19,-46.01 2258.87,-52.49 2432.5,-31 2446.12,-29.31 2460.82,-27.17 2474.42,-25.06"/>
<polygon fill="midnightblue" stroke="midnightblue" points="2036.1,-64.02 2026.65,-68.8 2037.03,-70.96 2036.1,-64.02"/>
</g>
<!-- Node28 -->
<g id="node28" class="node">
<title>Node28</title>
<g id="a_node28"><a xlink:href="symbols_8cpp.html" target="_top" xlink:title=" ">
<polygon fill="none" stroke="black" points="2628,-6 2628,-25 2723,-25 2723,-6 2628,-6"/>
<text text-anchor="middle" x="2675.5" y="-13" font-family="Helvetica,sans-Serif" font-size="10.00">src/symbols.cpp</text>
</a>
</g>
</g>
<!-- Node23&#45;&gt;Node28 -->
<g id="edge46" class="edge">
<title>Node23&#45;&gt;Node28</title>
<path fill="none" stroke="midnightblue" d="M2036.66,-67.42C2037.95,-67.28 2039.23,-67.13 2040.5,-67 2296.9,-39.85 2364.87,-71.5 2619.5,-31 2628.53,-29.56 2638.21,-27.32 2646.95,-25.02"/>
<polygon fill="midnightblue" stroke="midnightblue" points="2036.13,-63.96 2026.64,-68.67 2036.99,-70.91 2036.13,-63.96"/>
</g>
<!-- Node29 -->
<g id="node29" class="node">
<title>Node29</title>
<g id="a_node29"><a xlink:href="util_8cpp.html" target="_top" xlink:title=" ">
<polygon fill="none" stroke="black" points="2741.5,-6 2741.5,-25 2811.5,-25 2811.5,-6 2741.5,-6"/>
<text text-anchor="middle" x="2776.5" y="-13" font-family="Helvetica,sans-Serif" font-size="10.00">src/util.cpp</text>
</a>
</g>
</g>
<!-- Node23&#45;&gt;Node29 -->
<g id="edge47" class="edge">
<title>Node23&#45;&gt;Node29</title>
<path fill="none" stroke="midnightblue" d="M2036.66,-67.41C2037.95,-67.26 2039.23,-67.13 2040.5,-67 2346.92,-36.12 2429.79,-87.7 2732.5,-31 2739.77,-29.64 2747.5,-27.38 2754.42,-25.05"/>
<polygon fill="midnightblue" stroke="midnightblue" points="2036.14,-63.94 2026.63,-68.62 2036.98,-70.89 2036.14,-63.94"/>
</g>
</g>
</svg>
