<?xml version="1.0" encoding="UTF-8" standalone="no"?>
<!DOCTYPE svg PUBLIC "-//W3C//DTD SVG 1.1//EN"
 "http://www.w3.org/Graphics/SVG/1.1/DTD/svg11.dtd">
<!-- Generated by graphviz version 2.43.0 (0)
 -->
<!-- Title: reportComparisonByPolarity Pages: 1 -->
<!--zoomable 514 -->
<svg id="main" version="1.1" xmlns="http://www.w3.org/2000/svg" xmlns:xlink="http://www.w3.org/1999/xlink" xml:space="preserve" onload="init(evt)">
<style type="text/css"><![CDATA[
.edge:hover path { stroke: red; }
.edge:hover polygon { stroke: red; fill: red; }
]]></style>
<script type="text/javascript"><![CDATA[
var edges = document.getElementsByTagName('g');
if (edges && edges.length) {
  for (var i=0;i<edges.length;i++) {
    if (edges[i].id.substr(0,4)=='edge') {
      edges[i].setAttribute('class','edge');
    }
  }
}
]]></script>
        <defs>
                <circle id="rim" cx="0" cy="0" r="7"/>
                <circle id="rim2" cx="0" cy="0" r="3.5"/>
                <g id="zoomPlus">
                        <use xlink:href="#rim" fill="#404040">
                                <set attributeName="fill" to="#808080" begin="zoomplus.mouseover" end="zoomplus.mouseout"/>
                        </use>
                        <path d="M-4,0h8M0,-4v8" fill="none" stroke="white" stroke-width="1.5" pointer-events="none"/>
                </g>
                <g id="zoomMin">
                        <use xlink:href="#rim" fill="#404040">
                                <set attributeName="fill" to="#808080" begin="zoomminus.mouseover" end="zoomminus.mouseout"/>
                        </use>
                        <path d="M-4,0h8" fill="none" stroke="white" stroke-width="1.5" pointer-events="none"/>
                </g>
                <g id="dirArrow">
                        <path fill="none" stroke="white" stroke-width="1.5" d="M0,-3.0v7 M-2.5,-0.5L0,-3.0L2.5,-0.5"/>
                </g>
               <g id="resetDef">
                       <use xlink:href="#rim2" fill="#404040">
                               <set attributeName="fill" to="#808080" begin="reset.mouseover" end="reset.mouseout"/>
                       </use>
               </g>
        </defs>

<script type="text/javascript">
var viewWidth = 1111;
var viewHeight = 514;
var sectionId = 'dynsection-4';
</script>
<script xlink:href="svgpan.js"/>
<svg id="graph" class="graph">
<g id="viewport">
<title>reportComparisonByPolarity</title>
<!-- Node1 -->
<g id="node1" class="node">
<title>Node1</title>
<g id="a_node1"><a xlink:title="Reports the comparison based on the polarity. If they are of different polarity, the one that is posi...">
<polygon fill="#bfbfbf" stroke="black" points="948,-304.5 948,-323.5 1103,-323.5 1103,-304.5 948,-304.5"/>
<text text-anchor="middle" x="1025.5" y="-311.5" font-family="Helvetica,sans-Serif" font-size="10.00">reportComparisonByPolarity</text>
</a>
</g>
</g>
<!-- Node2 -->
<g id="node2" class="node">
<title>Node2</title>
<g id="a_node2"><a xlink:href="basicArithm_8hpp.html#aabb709fcb471467879352bf51bb0030a" target="_top" xlink:title="Compares two string representations of numbers.">
<polygon fill="none" stroke="black" points="853,-304.5 853,-323.5 912,-323.5 912,-304.5 853,-304.5"/>
<text text-anchor="middle" x="882.5" y="-311.5" font-family="Helvetica,sans-Serif" font-size="10.00">compare</text>
</a>
</g>
</g>
<!-- Node1&#45;&gt;Node2 -->
<g id="edge1" class="edge">
<title>Node1&#45;&gt;Node2</title>
<path fill="none" stroke="midnightblue" d="M937.81,-314C928.7,-314 919.98,-314 912.29,-314"/>
<polygon fill="midnightblue" stroke="midnightblue" points="937.81,-317.5 947.81,-314 937.81,-310.5 937.81,-317.5"/>
</g>
<!-- Node3 -->
<g id="node3" class="node">
<title>Node3</title>
<g id="a_node3"><a xlink:href="baseConvert_8cpp.html#a6443634f54179f61c6e58098cbb32210" target="_top" xlink:title=" ">
<polygon fill="none" stroke="black" points="290,-152.5 290,-171.5 368,-171.5 368,-152.5 290,-152.5"/>
<text text-anchor="middle" x="329" y="-159.5" font-family="Helvetica,sans-Serif" font-size="10.00">baseConvert</text>
</a>
</g>
</g>
<!-- Node2&#45;&gt;Node3 -->
<g id="edge2" class="edge">
<title>Node2&#45;&gt;Node3</title>
<path fill="none" stroke="midnightblue" d="M868.76,-296.21C856.59,-279.93 837.15,-255.77 817,-238 762.07,-189.58 748.93,-169.72 679,-148 562.27,-111.74 525.37,-129.45 404,-144 390.08,-145.67 375.01,-149.04 362.11,-152.42"/>
<polygon fill="midnightblue" stroke="midnightblue" points="865.99,-298.35 874.73,-304.34 871.64,-294.21 865.99,-298.35"/>
</g>
<!-- Node5 -->
<g id="node5" class="node">
<title>Node5</title>
<g id="a_node5"><a xlink:href="basicArithm_8hpp.html#aedf78136562346db852758c848f8e83d" target="_top" xlink:title="Converts a string representation of a number from one base to another.">
<polygon fill="none" stroke="black" points="77,-266.5 77,-285.5 171,-285.5 171,-266.5 77,-266.5"/>
<text text-anchor="middle" x="124" y="-273.5" font-family="Helvetica,sans-Serif" font-size="10.00">decimalConvert</text>
</a>
</g>
</g>
<!-- Node2&#45;&gt;Node5 -->
<g id="edge4" class="edge">
<title>Node2&#45;&gt;Node5</title>
<path fill="none" stroke="midnightblue" d="M879.23,-294.17C872.7,-240.92 852.07,-96.83 817,-67 748.65,-8.86 705.73,-48 616,-48 616,-48 616,-48 328,-48 209.02,-48 142.6,-223.34 128.06,-266.49"/>
<polygon fill="midnightblue" stroke="midnightblue" points="875.78,-294.82 880.44,-304.34 882.73,-294 875.78,-294.82"/>
</g>
<!-- Node7 -->
<g id="node7" class="node">
<title>Node7</title>
<g id="a_node7"><a xlink:href="division_8cpp.html#a222752517a35fde0e4de4bb32cbaa9be" target="_top" xlink:title="Determines the scale of the quotient of division.">
<polygon fill="none" stroke="black" points="553,-418.5 553,-437.5 677,-437.5 677,-418.5 553,-418.5"/>
<text text-anchor="middle" x="615" y="-425.5" font-family="Helvetica,sans-Serif" font-size="10.00">determineResultScale</text>
</a>
</g>
</g>
<!-- Node2&#45;&gt;Node7 -->
<g id="edge6" class="edge">
<title>Node2&#45;&gt;Node7</title>
<path fill="none" stroke="midnightblue" d="M873.66,-332.93C863.79,-354.11 844.73,-387.61 817,-404 774.95,-428.86 719.3,-433.8 677.23,-433.12"/>
<polygon fill="midnightblue" stroke="midnightblue" points="876.92,-334.21 877.76,-323.65 870.51,-331.38 876.92,-334.21"/>
</g>
<!-- Node8 -->
<g id="node8" class="node">
<title>Node8</title>
<g id="a_node8"><a xlink:href="basicArithm_8hpp.html#acb4215189a8d1cfd37f4f6fe13890a8f" target="_top" xlink:title="Divides a string representation of a number by another string representation of a number.">
<polygon fill="none" stroke="black" points="436,-380.5 436,-399.5 483,-399.5 483,-380.5 436,-380.5"/>
<text text-anchor="middle" x="459.5" y="-387.5" font-family="Helvetica,sans-Serif" font-size="10.00">divide</text>
</a>
</g>
</g>
<!-- Node2&#45;&gt;Node8 -->
<g id="edge15" class="edge">
<title>Node2&#45;&gt;Node8</title>
<path fill="none" stroke="midnightblue" d="M854.9,-328.14C843.49,-333.74 829.85,-339.82 817,-344 695.63,-383.45 540.68,-389.23 483.24,-389.95"/>
<polygon fill="midnightblue" stroke="midnightblue" points="856.55,-331.23 863.9,-323.6 853.4,-324.98 856.55,-331.23"/>
</g>
<!-- Node11 -->
<g id="node11" class="node">
<title>Node11</title>
<g id="a_node11"><a xlink:href="basicArithm_8hpp.html#a5967cef8aeb4f6ea90014159becd286d" target="_top" xlink:title="Raises a string representation of a number to a power.">
<polygon fill="none" stroke="black" points="207,-437.5 207,-456.5 254,-456.5 254,-437.5 207,-437.5"/>
<text text-anchor="middle" x="230.5" y="-444.5" font-family="Helvetica,sans-Serif" font-size="10.00">power</text>
</a>
</g>
</g>
<!-- Node2&#45;&gt;Node11 -->
<g id="edge21" class="edge">
<title>Node2&#45;&gt;Node11</title>
<path fill="none" stroke="midnightblue" d="M878.75,-333.73C873.18,-365.84 857.46,-429.09 817,-462 746.2,-519.59 707.26,-504 616,-504 616,-504 616,-504 458.5,-504 381.5,-504 294.11,-472.77 253.91,-456.54"/>
<polygon fill="midnightblue" stroke="midnightblue" points="882.22,-334.2 880.32,-323.78 875.3,-333.11 882.22,-334.2"/>
</g>
<!-- Node13 -->
<g id="node13" class="node">
<title>Node13</title>
<g id="a_node13"><a xlink:href="basicArithm_8hpp.html#afe2f9d37fbb1090dfb3af32476b43fca" target="_top" xlink:title=" ">
<polygon fill="none" stroke="black" points="551,-342.5 551,-361.5 679,-361.5 679,-342.5 551,-342.5"/>
<text text-anchor="middle" x="615" y="-349.5" font-family="Helvetica,sans-Serif" font-size="10.00">getQuotientRemainder</text>
</a>
</g>
</g>
<!-- Node2&#45;&gt;Node13 -->
<g id="edge16" class="edge">
<title>Node2&#45;&gt;Node13</title>
<path fill="none" stroke="midnightblue" d="M842.8,-319.54C799.89,-325.68 730.03,-335.68 679.16,-342.96"/>
<polygon fill="midnightblue" stroke="midnightblue" points="843.43,-322.98 852.83,-318.1 842.44,-316.05 843.43,-322.98"/>
</g>
<!-- Node14 -->
<g id="node14" class="node">
<title>Node14</title>
<g id="a_node14"><a xlink:href="basicArithm_8hpp.html#a4e1bb2f02ee5d9df627a57d0899ac07b" target="_top" xlink:title="Executes a given predicate function a specified number of times.">
<polygon fill="none" stroke="black" points="440.5,-418.5 440.5,-437.5 478.5,-437.5 478.5,-418.5 440.5,-418.5"/>
<text text-anchor="middle" x="459.5" y="-425.5" font-family="Helvetica,sans-Serif" font-size="10.00">loop</text>
</a>
</g>
</g>
<!-- Node2&#45;&gt;Node14 -->
<g id="edge18" class="edge">
<title>Node2&#45;&gt;Node14</title>
<path fill="none" stroke="midnightblue" d="M876.79,-333.37C869.16,-360.19 851.36,-407.93 817,-431 708.05,-504.13 535.07,-454.08 478.82,-434.72"/>
<polygon fill="midnightblue" stroke="midnightblue" points="880.2,-334.16 879.38,-323.59 873.43,-332.36 880.2,-334.16"/>
</g>
<!-- Node15 -->
<g id="node15" class="node">
<title>Node15</title>
<g id="a_node15"><a xlink:href="comparison_8cpp.html#a01b8b8bd5868995ae4a51d8c87cc82dd" target="_top" xlink:title=" ">
<polygon fill="none" stroke="black" points="745.5,-0.5 745.5,-19.5 786.5,-19.5 786.5,-0.5 745.5,-0.5"/>
<text text-anchor="middle" x="766" y="-7.5" font-family="Helvetica,sans-Serif" font-size="10.00">main</text>
</a>
</g>
</g>
<!-- Node2&#45;&gt;Node15 -->
<g id="edge20" class="edge">
<title>Node2&#45;&gt;Node15</title>
<path fill="none" stroke="midnightblue" d="M879.17,-294.11C872.17,-237.16 849.73,-74.9 817,-34 809.42,-24.53 797.19,-18.57 786.72,-14.95"/>
<polygon fill="midnightblue" stroke="midnightblue" points="875.73,-294.8 880.4,-304.31 882.68,-293.96 875.73,-294.8"/>
</g>
<!-- Node16 -->
<g id="node16" class="node">
<title>Node16</title>
<g id="a_node16"><a xlink:href="baseConvert_8cpp.html#a80419d3463efc029e66b9cb0a1390912" target="_top" xlink:title="Represents a number using alphabets and numberals.">
<polygon fill="none" stroke="black" points="715,-76.5 715,-95.5 817,-95.5 817,-76.5 715,-76.5"/>
<text text-anchor="middle" x="766" y="-83.5" font-family="Helvetica,sans-Serif" font-size="10.00">representNumber</text>
</a>
</g>
</g>
<!-- Node2&#45;&gt;Node16 -->
<g id="edge22" class="edge">
<title>Node2&#45;&gt;Node16</title>
<path fill="none" stroke="midnightblue" d="M880.33,-293.95C877.02,-254.23 864.42,-164.64 817,-110 811.64,-103.82 804.32,-99.1 796.94,-95.55"/>
<polygon fill="midnightblue" stroke="midnightblue" points="876.86,-294.45 881.07,-304.18 883.84,-293.95 876.86,-294.45"/>
</g>
<!-- Node17 -->
<g id="node17" class="node">
<title>Node17</title>
<g id="a_node17"><a xlink:href="basicArithm_8hpp.html#a08faec0b8e863df19e3f978758166482" target="_top" xlink:title="Subtracts one string representation of a number from another string representation of a number.">
<polygon fill="none" stroke="black" points="738,-247.5 738,-266.5 794,-266.5 794,-247.5 738,-247.5"/>
<text text-anchor="middle" x="766" y="-254.5" font-family="Helvetica,sans-Serif" font-size="10.00">subtract</text>
</a>
</g>
</g>
<!-- Node2&#45;&gt;Node17 -->
<g id="edge24" class="edge">
<title>Node2&#45;&gt;Node17</title>
<path fill="none" stroke="midnightblue" d="M853.3,-299.96C832.44,-289.58 804.58,-275.71 786.23,-266.57"/>
<polygon fill="midnightblue" stroke="midnightblue" points="851.82,-303.14 862.34,-304.46 854.94,-296.87 851.82,-303.14"/>
</g>
<!-- Node4 -->
<g id="node4" class="node">
<title>Node4</title>
<g id="a_node4"><a xlink:href="baseConvert_8cpp.html#ae66f6b31b5ad750f1fe042a706a4e3d4" target="_top" xlink:title=" ">
<polygon fill="none" stroke="black" points="210,-152.5 210,-171.5 251,-171.5 251,-152.5 210,-152.5"/>
<text text-anchor="middle" x="230.5" y="-159.5" font-family="Helvetica,sans-Serif" font-size="10.00">main</text>
</a>
</g>
</g>
<!-- Node3&#45;&gt;Node4 -->
<g id="edge3" class="edge">
<title>Node3&#45;&gt;Node4</title>
<path fill="none" stroke="midnightblue" d="M279.77,-162C269.61,-162 259.45,-162 251.09,-162"/>
<polygon fill="midnightblue" stroke="midnightblue" points="279.86,-165.5 289.86,-162 279.86,-158.5 279.86,-165.5"/>
</g>
<!-- Node6 -->
<g id="node6" class="node">
<title>Node6</title>
<g id="a_node6"><a xlink:href="decimalConvert_8cpp.html#ac2c7bcd6d73ca32ee42312d0fa0b1aa9" target="_top" xlink:title=" ">
<polygon fill="none" stroke="black" points="0,-266.5 0,-285.5 41,-285.5 41,-266.5 0,-266.5"/>
<text text-anchor="middle" x="20.5" y="-273.5" font-family="Helvetica,sans-Serif" font-size="10.00">main</text>
</a>
</g>
</g>
<!-- Node5&#45;&gt;Node6 -->
<g id="edge5" class="edge">
<title>Node5&#45;&gt;Node6</title>
<path fill="none" stroke="midnightblue" d="M66.69,-276C57.49,-276 48.54,-276 41.06,-276"/>
<polygon fill="midnightblue" stroke="midnightblue" points="66.71,-279.5 76.71,-276 66.71,-272.5 66.71,-279.5"/>
</g>
<!-- Node7&#45;&gt;Node8 -->
<g id="edge7" class="edge">
<title>Node7&#45;&gt;Node8</title>
<path fill="none" stroke="midnightblue" d="M565.39,-415.97C537.8,-409.14 504.58,-400.91 483.03,-395.58"/>
<polygon fill="midnightblue" stroke="midnightblue" points="564.72,-419.41 575.27,-418.41 566.4,-412.61 564.72,-419.41"/>
</g>
<!-- Node8&#45;&gt;Node3 -->
<g id="edge8" class="edge">
<title>Node8&#45;&gt;Node3</title>
<path fill="none" stroke="midnightblue" d="M439.55,-373.43C428.16,-362.74 413.99,-348.06 404,-333 366.81,-276.93 341.2,-199.09 332.91,-171.87"/>
<polygon fill="midnightblue" stroke="midnightblue" points="437.51,-376.3 447.25,-380.46 442.22,-371.13 437.51,-376.3"/>
</g>
<!-- Node9 -->
<g id="node9" class="node">
<title>Node9</title>
<g id="a_node9"><a xlink:href="division_8cpp.html#a065a3ee9a7ec43a06ab2fddbc3019a17" target="_top" xlink:title=" ">
<polygon fill="none" stroke="black" points="308.5,-380.5 308.5,-399.5 349.5,-399.5 349.5,-380.5 308.5,-380.5"/>
<text text-anchor="middle" x="329" y="-387.5" font-family="Helvetica,sans-Serif" font-size="10.00">main</text>
</a>
</g>
</g>
<!-- Node8&#45;&gt;Node9 -->
<g id="edge9" class="edge">
<title>Node8&#45;&gt;Node9</title>
<path fill="none" stroke="midnightblue" d="M425.71,-390C401.62,-390 369.71,-390 349.51,-390"/>
<polygon fill="midnightblue" stroke="midnightblue" points="425.82,-393.5 435.82,-390 425.82,-386.5 425.82,-393.5"/>
</g>
<!-- Node10 -->
<g id="node10" class="node">
<title>Node10</title>
<g id="a_node10"><a xlink:href="powerReport_8cpp.html#afff5f8aa771cf432836ef03f6f442dae" target="_top" xlink:title="Reports a power operation.">
<polygon fill="none" stroke="black" points="291,-418.5 291,-437.5 367,-437.5 367,-418.5 291,-418.5"/>
<text text-anchor="middle" x="329" y="-425.5" font-family="Helvetica,sans-Serif" font-size="10.00">reportPower</text>
</a>
</g>
</g>
<!-- Node8&#45;&gt;Node10 -->
<g id="edge10" class="edge">
<title>Node8&#45;&gt;Node10</title>
<path fill="none" stroke="midnightblue" d="M426.19,-399.56C406.74,-405.31 382.07,-412.6 362.58,-418.37"/>
<polygon fill="midnightblue" stroke="midnightblue" points="427.23,-402.9 435.82,-396.71 425.24,-396.19 427.23,-402.9"/>
</g>
<!-- Node10&#45;&gt;Node11 -->
<g id="edge11" class="edge">
<title>Node10&#45;&gt;Node11</title>
<path fill="none" stroke="midnightblue" d="M280.9,-437.27C271.54,-439.12 262.12,-440.97 254.06,-442.56"/>
<polygon fill="midnightblue" stroke="midnightblue" points="281.83,-440.66 290.97,-435.29 280.48,-433.79 281.83,-440.66"/>
</g>
<!-- Node11&#45;&gt;Node5 -->
<g id="edge12" class="edge">
<title>Node11&#45;&gt;Node5</title>
<path fill="none" stroke="midnightblue" d="M218.34,-428.73C196.25,-392.59 147.66,-313.07 130.85,-285.58"/>
<polygon fill="midnightblue" stroke="midnightblue" points="215.38,-430.61 223.58,-437.32 221.35,-426.96 215.38,-430.61"/>
</g>
<!-- Node11&#45;&gt;Node7 -->
<g id="edge13" class="edge">
<title>Node11&#45;&gt;Node7</title>
<path fill="none" stroke="midnightblue" d="M264.51,-449.02C317.48,-451.81 424.7,-455.59 515,-447 534.51,-445.14 555.9,-441.28 573.79,-437.51"/>
<polygon fill="midnightblue" stroke="midnightblue" points="264.53,-445.52 254.35,-448.46 264.15,-452.51 264.53,-445.52"/>
</g>
<!-- Node12 -->
<g id="node12" class="node">
<title>Node12</title>
<g id="a_node12"><a xlink:href="power_8cpp.html#a065a3ee9a7ec43a06ab2fddbc3019a17" target="_top" xlink:title=" ">
<polygon fill="none" stroke="black" points="103.5,-437.5 103.5,-456.5 144.5,-456.5 144.5,-437.5 103.5,-437.5"/>
<text text-anchor="middle" x="124" y="-444.5" font-family="Helvetica,sans-Serif" font-size="10.00">main</text>
</a>
</g>
</g>
<!-- Node11&#45;&gt;Node12 -->
<g id="edge14" class="edge">
<title>Node11&#45;&gt;Node12</title>
<path fill="none" stroke="midnightblue" d="M196.72,-447C179.69,-447 159.44,-447 144.81,-447"/>
<polygon fill="midnightblue" stroke="midnightblue" points="196.83,-450.5 206.83,-447 196.83,-443.5 196.83,-450.5"/>
</g>
<!-- Node13&#45;&gt;Node8 -->
<g id="edge17" class="edge">
<title>Node13&#45;&gt;Node8</title>
<path fill="none" stroke="midnightblue" d="M565.39,-364.03C537.8,-370.86 504.58,-379.09 483.03,-384.42"/>
<polygon fill="midnightblue" stroke="midnightblue" points="566.4,-367.39 575.27,-361.59 564.72,-360.59 566.4,-367.39"/>
</g>
<!-- Node14&#45;&gt;Node10 -->
<g id="edge19" class="edge">
<title>Node14&#45;&gt;Node10</title>
<path fill="none" stroke="midnightblue" d="M430.2,-428C411.64,-428 387.19,-428 367.08,-428"/>
<polygon fill="midnightblue" stroke="midnightblue" points="430.36,-431.5 440.36,-428 430.36,-424.5 430.36,-431.5"/>
</g>
<!-- Node16&#45;&gt;Node3 -->
<g id="edge23" class="edge">
<title>Node16&#45;&gt;Node3</title>
<path fill="none" stroke="midnightblue" d="M704.86,-80.31C631.56,-75.53 504.97,-74.34 404,-110 378.24,-119.1 353.31,-139.85 339.98,-152.21"/>
<polygon fill="midnightblue" stroke="midnightblue" points="704.63,-83.8 714.84,-81 705.11,-76.82 704.63,-83.8"/>
</g>
<!-- Node17&#45;&gt;Node3 -->
<g id="edge34" class="edge">
<title>Node17&#45;&gt;Node3</title>
<path fill="none" stroke="midnightblue" d="M751.17,-239.17C735.79,-220.86 709.1,-193.34 679,-181 573.31,-137.67 434.34,-147.79 368.18,-156.18"/>
<polygon fill="midnightblue" stroke="midnightblue" points="748.76,-241.75 757.78,-247.31 754.2,-237.34 748.76,-241.75"/>
</g>
<!-- Node17&#45;&gt;Node13 -->
<g id="edge35" class="edge">
<title>Node17&#45;&gt;Node13</title>
<path fill="none" stroke="midnightblue" d="M749.75,-274.27C733.71,-291.45 706.97,-317.42 679,-333 672.21,-336.78 664.59,-339.89 657.05,-342.43"/>
<polygon fill="midnightblue" stroke="midnightblue" points="752.56,-276.38 756.72,-266.63 747.39,-271.66 752.56,-276.38"/>
</g>
<!-- Node17&#45;&gt;Node17 -->
<g id="edge40" class="edge">
<title>Node17&#45;&gt;Node17</title>
<path fill="none" stroke="midnightblue" d="M787.48,-276.4C786.05,-281.31 778.89,-285 766,-285 745.38,-285 739.42,-275.57 748.12,-266.76"/>
<polygon fill="midnightblue" stroke="midnightblue" points="790.66,-274.9 783.88,-266.76 784.1,-277.35 790.66,-274.9"/>
</g>
<!-- Node18 -->
<g id="node18" class="node">
<title>Node18</title>
<g id="a_node18"><a xlink:href="basicArithm_8hpp.html#a22524b6e1ea1e62b578978978521148e" target="_top" xlink:title="Adds two string representations of numbers, and performs with the column method.">
<polygon fill="none" stroke="black" points="597.5,-228.5 597.5,-247.5 632.5,-247.5 632.5,-228.5 597.5,-228.5"/>
<text text-anchor="middle" x="615" y="-235.5" font-family="Helvetica,sans-Serif" font-size="10.00">add</text>
</a>
</g>
</g>
<!-- Node17&#45;&gt;Node18 -->
<g id="edge25" class="edge">
<title>Node17&#45;&gt;Node18</title>
<path fill="none" stroke="midnightblue" d="M727.78,-246.32C697.22,-240.96 655.38,-236.13 632.54,-235.67"/>
<polygon fill="midnightblue" stroke="midnightblue" points="727.2,-249.77 737.67,-248.15 728.48,-242.89 727.2,-249.77"/>
</g>
<!-- Node21 -->
<g id="node21" class="node">
<title>Node21</title>
<g id="a_node21"><a xlink:href="subtract_8cpp.html#ac2c7bcd6d73ca32ee42312d0fa0b1aa9" target="_top" xlink:title=" ">
<polygon fill="none" stroke="black" points="594.5,-266.5 594.5,-285.5 635.5,-285.5 635.5,-266.5 594.5,-266.5"/>
<text text-anchor="middle" x="615" y="-273.5" font-family="Helvetica,sans-Serif" font-size="10.00">main</text>
</a>
</g>
</g>
<!-- Node17&#45;&gt;Node21 -->
<g id="edge36" class="edge">
<title>Node17&#45;&gt;Node21</title>
<path fill="none" stroke="midnightblue" d="M727.41,-261.79C698.19,-265.52 658.82,-270.54 635.56,-273.51"/>
<polygon fill="midnightblue" stroke="midnightblue" points="728.19,-265.22 737.67,-260.48 727.31,-258.28 728.19,-265.22"/>
</g>
<!-- Node22 -->
<g id="node22" class="node">
<title>Node22</title>
<g id="a_node22"><a xlink:href="classFraction.html#a4f19125df2684e17c9a9f439eb38261d" target="_top" xlink:title="Subtracts a fraction from another fraction. This function does it by doing a simple fraction subtract...">
<polygon fill="none" stroke="black" points="561.5,-190.5 561.5,-209.5 668.5,-209.5 668.5,-190.5 561.5,-190.5"/>
<text text-anchor="middle" x="615" y="-197.5" font-family="Helvetica,sans-Serif" font-size="10.00">Fraction::operator&#45;</text>
</a>
</g>
</g>
<!-- Node17&#45;&gt;Node22 -->
<g id="edge37" class="edge">
<title>Node17&#45;&gt;Node22</title>
<path fill="none" stroke="midnightblue" d="M736,-243.12C719.5,-235.49 698.32,-226.15 679,-219 669.89,-215.63 659.89,-212.4 650.59,-209.6"/>
<polygon fill="midnightblue" stroke="midnightblue" points="734.59,-246.32 745.13,-247.38 737.55,-239.98 734.59,-246.32"/>
</g>
<!-- Node23 -->
<g id="node23" class="node">
<title>Node23</title>
<g id="a_node23"><a xlink:href="divisionReport_8cpp.html#aaebd1f284f6703b7629aa18d21f7ccf2" target="_top" xlink:title="Reports a division step.">
<polygon fill="none" stroke="black" points="561.5,-304.5 561.5,-323.5 668.5,-323.5 668.5,-304.5 561.5,-304.5"/>
<text text-anchor="middle" x="615" y="-311.5" font-family="Helvetica,sans-Serif" font-size="10.00">reportDivisionStep</text>
</a>
</g>
</g>
<!-- Node17&#45;&gt;Node23 -->
<g id="edge38" class="edge">
<title>Node17&#45;&gt;Node23</title>
<path fill="none" stroke="midnightblue" d="M736,-270.88C719.5,-278.51 698.32,-287.85 679,-295 669.89,-298.37 659.89,-301.6 650.59,-304.4"/>
<polygon fill="midnightblue" stroke="midnightblue" points="737.55,-274.02 745.13,-266.62 734.59,-267.68 737.55,-274.02"/>
</g>
<!-- Node18&#45;&gt;Node3 -->
<g id="edge26" class="edge">
<title>Node18&#45;&gt;Node3</title>
<path fill="none" stroke="midnightblue" d="M587.38,-230.88C536.03,-217.13 423.25,-186.95 365.54,-171.51"/>
<polygon fill="midnightblue" stroke="midnightblue" points="586.52,-234.27 597.09,-233.47 588.33,-227.51 586.52,-234.27"/>
</g>
<!-- Node18&#45;&gt;Node5 -->
<g id="edge27" class="edge">
<title>Node18&#45;&gt;Node5</title>
<path fill="none" stroke="midnightblue" d="M587.44,-244.15C567.6,-248.49 539.75,-254.04 515,-257 391.32,-271.81 244.26,-275.15 171.1,-275.85"/>
<polygon fill="midnightblue" stroke="midnightblue" points="588.3,-247.55 597.3,-241.95 586.77,-240.72 588.3,-247.55"/>
</g>
<!-- Node18&#45;&gt;Node8 -->
<g id="edge28" class="edge">
<title>Node18&#45;&gt;Node8</title>
<path fill="none" stroke="midnightblue" d="M587.47,-240.36C574.98,-242.76 560.72,-247.53 551,-257 514.46,-292.6 549.31,-328.24 515,-366 506.66,-375.18 494.16,-381.03 483.24,-384.65"/>
<polygon fill="midnightblue" stroke="midnightblue" points="588.05,-243.82 597.41,-238.86 587,-236.9 588.05,-243.82"/>
</g>
<!-- Node18&#45;&gt;Node10 -->
<g id="edge32" class="edge">
<title>Node18&#45;&gt;Node10</title>
<path fill="none" stroke="midnightblue" d="M587.34,-241.02C575.11,-243.58 561.11,-248.3 551,-257 522.67,-281.38 542.87,-308.1 515,-333 476.11,-367.74 447.87,-342.81 404,-371 384.43,-383.58 386.69,-395.14 368,-409 363.26,-412.51 357.77,-415.69 352.47,-418.39"/>
<polygon fill="midnightblue" stroke="midnightblue" points="588.23,-244.42 597.5,-239.29 587.05,-237.52 588.23,-244.42"/>
</g>
<!-- Node18&#45;&gt;Node14 -->
<g id="edge29" class="edge">
<title>Node18&#45;&gt;Node14</title>
<path fill="none" stroke="midnightblue" d="M587.36,-239.96C574.71,-242.26 560.36,-247.06 551,-257 503.41,-307.55 561.5,-357.45 515,-409 505.74,-419.27 490.62,-423.99 478.66,-426.16"/>
<polygon fill="midnightblue" stroke="midnightblue" points="588,-243.41 597.43,-238.57 587.04,-236.48 588,-243.41"/>
</g>
<!-- Node18&#45;&gt;Node17 -->
<g id="edge33" class="edge">
<title>Node18&#45;&gt;Node17</title>
<path fill="none" stroke="midnightblue" d="M642.38,-246.66C669.19,-251.99 710.53,-257.29 737.67,-258.88"/>
<polygon fill="midnightblue" stroke="midnightblue" points="643.05,-243.23 632.54,-244.54 641.58,-250.07 643.05,-243.23"/>
</g>
<!-- Node19 -->
<g id="node19" class="node">
<title>Node19</title>
<g id="a_node19"><a xlink:href="add_8cpp.html#a065a3ee9a7ec43a06ab2fddbc3019a17" target="_top" xlink:title=" ">
<polygon fill="none" stroke="black" points="439,-228.5 439,-247.5 480,-247.5 480,-228.5 439,-228.5"/>
<text text-anchor="middle" x="459.5" y="-235.5" font-family="Helvetica,sans-Serif" font-size="10.00">main</text>
</a>
</g>
</g>
<!-- Node18&#45;&gt;Node19 -->
<g id="edge30" class="edge">
<title>Node18&#45;&gt;Node19</title>
<path fill="none" stroke="midnightblue" d="M586.91,-238C556.3,-238 507.2,-238 480.09,-238"/>
<polygon fill="midnightblue" stroke="midnightblue" points="587.28,-241.5 597.28,-238 587.28,-234.5 587.28,-241.5"/>
</g>
<!-- Node20 -->
<g id="node20" class="node">
<title>Node20</title>
<g id="a_node20"><a xlink:href="classFraction.html#abf6c69e3adc859e25d9040583f3ca1d5" target="_top" xlink:title="Adds two fractions together. This function does it by doing a simple fraction addition and returns th...">
<polygon fill="none" stroke="black" points="404,-304.5 404,-323.5 515,-323.5 515,-304.5 404,-304.5"/>
<text text-anchor="middle" x="459.5" y="-311.5" font-family="Helvetica,sans-Serif" font-size="10.00">Fraction::operator+</text>
</a>
</g>
</g>
<!-- Node18&#45;&gt;Node20 -->
<g id="edge31" class="edge">
<title>Node18&#45;&gt;Node20</title>
<path fill="none" stroke="midnightblue" d="M587.35,-243.22C575.7,-246.2 562.17,-250.64 551,-257 532.14,-267.74 533.17,-278.13 515,-290 506.34,-295.65 496.13,-300.55 486.9,-304.42"/>
<polygon fill="midnightblue" stroke="midnightblue" points="588.45,-246.56 597.4,-240.88 586.87,-239.74 588.45,-246.56"/>
</g>
<!-- Node23&#45;&gt;Node8 -->
<g id="edge39" class="edge">
<title>Node23&#45;&gt;Node8</title>
<path fill="none" stroke="midnightblue" d="M563.2,-327.1C558.97,-328.85 554.85,-330.81 551,-333 532.14,-343.74 533.17,-354.13 515,-366 505.13,-372.44 493.24,-377.91 483.09,-381.99"/>
<polygon fill="midnightblue" stroke="midnightblue" points="564.43,-330.37 572.56,-323.59 561.97,-323.82 564.43,-330.37"/>
</g>
</g>
</svg>
        <g id="navigator" transform="translate(0 0)" fill="#404254">
                <rect fill="#f2f5e9" fill-opacity="0.5" stroke="#606060" stroke-width=".5" x="0" y="0" width="60" height="60"/>
                <use id="zoomplus" xlink:href="#zoomPlus" x="17" y="9" onmousedown="handleZoom(evt,'in')"/>
                <use id="zoomminus" xlink:href="#zoomMin" x="42" y="9" onmousedown="handleZoom(evt,'out')"/>
                <use id="reset" xlink:href="#resetDef" x="30" y="36" onmousedown="handleReset()"/>
                <g id="arrowUp" xlink:href="#dirArrow" transform="translate(30 24)" onmousedown="handlePan(0,-1)">
                  <use xlink:href="#rim" fill="#404040">
                        <set attributeName="fill" to="#808080" begin="arrowUp.mouseover" end="arrowUp.mouseout"/>
                  </use>
                  <path fill="none" stroke="white" stroke-width="1.5" d="M0,-3.0v7 M-2.5,-0.5L0,-3.0L2.5,-0.5"/>
                </g>
                <g id="arrowRight" xlink:href="#dirArrow" transform="rotate(90) translate(36 -43)" onmousedown="handlePan(1,0)">
                  <use xlink:href="#rim" fill="#404040">
                        <set attributeName="fill" to="#808080" begin="arrowRight.mouseover" end="arrowRight.mouseout"/>
                  </use>
                  <path fill="none" stroke="white" stroke-width="1.5" d="M0,-3.0v7 M-2.5,-0.5L0,-3.0L2.5,-0.5"/>
                </g>
                <g id="arrowDown" xlink:href="#dirArrow" transform="rotate(180) translate(-30 -48)" onmousedown="handlePan(0,1)">
                  <use xlink:href="#rim" fill="#404040">
                        <set attributeName="fill" to="#808080" begin="arrowDown.mouseover" end="arrowDown.mouseout"/>
                  </use>
                  <path fill="none" stroke="white" stroke-width="1.5" d="M0,-3.0v7 M-2.5,-0.5L0,-3.0L2.5,-0.5"/>
                </g>
                <g id="arrowLeft" xlink:href="#dirArrow" transform="rotate(270) translate(-36 17)" onmousedown="handlePan(-1,0)">
                  <use xlink:href="#rim" fill="#404040">
                        <set attributeName="fill" to="#808080" begin="arrowLeft.mouseover" end="arrowLeft.mouseout"/>
                  </use>
                  <path fill="none" stroke="white" stroke-width="1.5" d="M0,-3.0v7 M-2.5,-0.5L0,-3.0L2.5,-0.5"/>
                </g>
        </g>
        <svg viewBox="0 0 15 15" width="100%" height="30px" preserveAspectRatio="xMaxYMin meet">
         <g id="arrow_out" transform="scale(0.3 0.3)">
          <a xlink:href="comparisonReport_8hpp_a4d8e360e5845468ad9de413dea6b7a85_icgraph_org.svg" target="_base">
           <rect id="button" ry="5" rx="5" y="6" x="6" height="38" width="38"
                fill="#f2f5e9" fill-opacity="0.5" stroke="#606060" stroke-width="1.0"/>
           <path id="arrow"
             d="M 11.500037,31.436501 C 11.940474,20.09759 22.043105,11.32322 32.158766,21.979434 L 37.068811,17.246167 C 37.068811,17.246167 37.088388,32 37.088388,32 L 22.160133,31.978069 C 22.160133,31.978069 26.997745,27.140456 26.997745,27.140456 C 18.528582,18.264221 13.291696,25.230495 11.500037,31.436501 z"
             style="fill:#404040;"/>
          </a>
         </g>
        </svg>
</svg>
