<?xml version="1.0" encoding="UTF-8" standalone="no"?>
<!DOCTYPE svg PUBLIC "-//W3C//DTD SVG 1.1//EN"
 "http://www.w3.org/Graphics/SVG/1.1/DTD/svg11.dtd">
<!-- Generated by graphviz version 2.43.0 (0)
 -->
<!-- Title: getQuotientRemainder Pages: 1 -->
<!--zoomable 256 -->
<svg id="main" version="1.1" xmlns="http://www.w3.org/2000/svg" xmlns:xlink="http://www.w3.org/1999/xlink" xml:space="preserve" onload="init(evt)">
<style type="text/css"><![CDATA[
.edge:hover path { stroke: red; }
.edge:hover polygon { stroke: red; fill: red; }
]]></style>
<script type="text/javascript"><![CDATA[
var edges = document.getElementsByTagName('g');
if (edges && edges.length) {
  for (var i=0;i<edges.length;i++) {
    if (edges[i].id.substr(0,4)=='edge') {
      edges[i].setAttribute('class','edge');
    }
  }
}
]]></script>
        <defs>
                <circle id="rim" cx="0" cy="0" r="7"/>
                <circle id="rim2" cx="0" cy="0" r="3.5"/>
                <g id="zoomPlus">
                        <use xlink:href="#rim" fill="#404040">
                                <set attributeName="fill" to="#808080" begin="zoomplus.mouseover" end="zoomplus.mouseout"/>
                        </use>
                        <path d="M-4,0h8M0,-4v8" fill="none" stroke="white" stroke-width="1.5" pointer-events="none"/>
                </g>
                <g id="zoomMin">
                        <use xlink:href="#rim" fill="#404040">
                                <set attributeName="fill" to="#808080" begin="zoomminus.mouseover" end="zoomminus.mouseout"/>
                        </use>
                        <path d="M-4,0h8" fill="none" stroke="white" stroke-width="1.5" pointer-events="none"/>
                </g>
                <g id="dirArrow">
                        <path fill="none" stroke="white" stroke-width="1.5" d="M0,-3.0v7 M-2.5,-0.5L0,-3.0L2.5,-0.5"/>
                </g>
               <g id="resetDef">
                       <use xlink:href="#rim2" fill="#404040">
                               <set attributeName="fill" to="#808080" begin="reset.mouseover" end="reset.mouseout"/>
                       </use>
               </g>
        </defs>

<script type="text/javascript">
var viewWidth = 693;
var viewHeight = 256;
var sectionId = 'dynsection-9';
</script>
<script xlink:href="svgpan.js"/>
<svg id="graph" class="graph">
<g id="viewport">
<title>getQuotientRemainder</title>
<!-- Node1 -->
<g id="node1" class="node">
<title>Node1</title>
<g id="a_node1"><a xlink:title=" ">
<polygon fill="#bfbfbf" stroke="black" points="557,-57.5 557,-76.5 685,-76.5 685,-57.5 557,-57.5"/>
<text text-anchor="middle" x="621" y="-64.5" font-family="Helvetica,sans-Serif" font-size="10.00">getQuotientRemainder</text>
</a>
</g>
</g>
<!-- Node2 -->
<g id="node2" class="node">
<title>Node2</title>
<g id="a_node2"><a xlink:href="basicArithm_8hpp.html#acb4215189a8d1cfd37f4f6fe13890a8f" target="_top" xlink:title="Divides a string representation of a number by another string representation of a number.">
<polygon fill="none" stroke="black" points="470.5,-85.5 470.5,-104.5 517.5,-104.5 517.5,-85.5 470.5,-85.5"/>
<text text-anchor="middle" x="494" y="-92.5" font-family="Helvetica,sans-Serif" font-size="10.00">divide</text>
</a>
</g>
</g>
<!-- Node1&#45;&gt;Node2 -->
<g id="edge1" class="edge">
<title>Node1&#45;&gt;Node2</title>
<path fill="none" stroke="midnightblue" d="M567.31,-78.8C550.03,-82.67 531.71,-86.78 517.84,-89.88"/>
<polygon fill="midnightblue" stroke="midnightblue" points="568.34,-82.16 577.33,-76.56 566.81,-75.33 568.34,-82.16"/>
</g>
<!-- Node14 -->
<g id="node14" class="node">
<title>Node14</title>
<g id="a_node14"><a xlink:href="basicArithm_8hpp.html#a7b131aff3518e538acc7c87b822e70d2" target="_top" xlink:title="Gets the greatest common divisor of two string representations of numbers.">
<polygon fill="none" stroke="black" points="467,-29.5 467,-48.5 521,-48.5 521,-29.5 467,-29.5"/>
<text text-anchor="middle" x="494" y="-36.5" font-family="Helvetica,sans-Serif" font-size="10.00">getGCD</text>
</a>
</g>
</g>
<!-- Node1&#45;&gt;Node14 -->
<g id="edge14" class="edge">
<title>Node1&#45;&gt;Node14</title>
<path fill="none" stroke="midnightblue" d="M567.51,-55.24C551.49,-51.65 534.56,-47.86 521.09,-44.85"/>
<polygon fill="midnightblue" stroke="midnightblue" points="566.81,-58.67 577.33,-57.44 568.34,-51.84 566.81,-58.67"/>
</g>
<!-- Node3 -->
<g id="node3" class="node">
<title>Node3</title>
<g id="a_node3"><a xlink:href="baseConvert_8cpp.html#a6443634f54179f61c6e58098cbb32210" target="_top" xlink:title=" ">
<polygon fill="none" stroke="black" points="336.5,-114.5 336.5,-133.5 414.5,-133.5 414.5,-114.5 336.5,-114.5"/>
<text text-anchor="middle" x="375.5" y="-121.5" font-family="Helvetica,sans-Serif" font-size="10.00">baseConvert</text>
</a>
</g>
</g>
<!-- Node2&#45;&gt;Node3 -->
<g id="edge2" class="edge">
<title>Node2&#45;&gt;Node3</title>
<path fill="none" stroke="midnightblue" d="M460.45,-103.1C446.27,-106.63 429.55,-110.79 414.78,-114.47"/>
<polygon fill="midnightblue" stroke="midnightblue" points="461.4,-106.47 470.26,-100.66 459.71,-99.68 461.4,-106.47"/>
</g>
<!-- Node5 -->
<g id="node5" class="node">
<title>Node5</title>
<g id="a_node5"><a xlink:href="basicArithm_8hpp.html#a3b20eba6c9046b375489c668443c165d" target="_top" xlink:title=" ">
<polygon fill="none" stroke="black" points="320,-76.5 320,-95.5 431,-95.5 431,-76.5 320,-76.5"/>
<text text-anchor="middle" x="375.5" y="-83.5" font-family="Helvetica,sans-Serif" font-size="10.00">divideWithQuotient</text>
</a>
</g>
</g>
<!-- Node2&#45;&gt;Node5 -->
<g id="edge4" class="edge">
<title>Node2&#45;&gt;Node5</title>
<path fill="none" stroke="midnightblue" d="M460.15,-92.46C451.08,-91.76 440.99,-90.98 431.05,-90.21"/>
<polygon fill="midnightblue" stroke="midnightblue" points="460.02,-95.96 470.26,-93.24 460.56,-88.98 460.02,-95.96"/>
</g>
<!-- Node6 -->
<g id="node6" class="node">
<title>Node6</title>
<g id="a_node6"><a xlink:href="division_8cpp.html#a065a3ee9a7ec43a06ab2fddbc3019a17" target="_top" xlink:title=" ">
<polygon fill="none" stroke="black" points="355,-38.5 355,-57.5 396,-57.5 396,-38.5 355,-38.5"/>
<text text-anchor="middle" x="375.5" y="-45.5" font-family="Helvetica,sans-Serif" font-size="10.00">main</text>
</a>
</g>
</g>
<!-- Node2&#45;&gt;Node6 -->
<g id="edge5" class="edge">
<title>Node2&#45;&gt;Node6</title>
<path fill="none" stroke="midnightblue" d="M463.75,-81.15C453.48,-76.45 441.81,-71.31 431,-67 419.55,-62.43 406.52,-57.87 396.08,-54.36"/>
<polygon fill="midnightblue" stroke="midnightblue" points="462.54,-84.45 473.09,-85.47 465.48,-78.09 462.54,-84.45"/>
</g>
<!-- Node7 -->
<g id="node7" class="node">
<title>Node7</title>
<g id="a_node7"><a xlink:href="powerReport_8cpp.html#afff5f8aa771cf432836ef03f6f442dae" target="_top" xlink:title="Reports a power operation.">
<polygon fill="none" stroke="black" points="337.5,-190.5 337.5,-209.5 413.5,-209.5 413.5,-190.5 337.5,-190.5"/>
<text text-anchor="middle" x="375.5" y="-197.5" font-family="Helvetica,sans-Serif" font-size="10.00">reportPower</text>
</a>
</g>
</g>
<!-- Node2&#45;&gt;Node7 -->
<g id="edge6" class="edge">
<title>Node2&#45;&gt;Node7</title>
<path fill="none" stroke="midnightblue" d="M482.5,-113.71C471.61,-131.69 453.09,-158.64 431,-176 423.44,-181.94 414.18,-186.73 405.45,-190.43"/>
<polygon fill="midnightblue" stroke="midnightblue" points="485.71,-115.15 487.74,-104.75 479.67,-111.62 485.71,-115.15"/>
</g>
<!-- Node13 -->
<g id="node13" class="node">
<title>Node13</title>
<g id="a_node13"><a xlink:href="classFraction.html#a6a5092eb855dac602718b19eb7fe0d6d" target="_top" xlink:title="Simplifies a fraction. This function simplifies the fraction by dividing the top and bottom component...">
<polygon fill="none" stroke="black" points="325,-0.5 325,-19.5 426,-19.5 426,-0.5 325,-0.5"/>
<text text-anchor="middle" x="375.5" y="-7.5" font-family="Helvetica,sans-Serif" font-size="10.00">Fraction::simplify</text>
</a>
</g>
</g>
<!-- Node2&#45;&gt;Node13 -->
<g id="edge13" class="edge">
<title>Node2&#45;&gt;Node13</title>
<path fill="none" stroke="midnightblue" d="M470.38,-79.11C469.21,-78.09 468.07,-77.05 467,-76 448.19,-57.61 452.32,-44.42 431,-29 425.72,-25.18 419.61,-22.08 413.43,-19.57"/>
<polygon fill="midnightblue" stroke="midnightblue" points="468.37,-81.98 478.38,-85.44 472.71,-76.49 468.37,-81.98"/>
</g>
<!-- Node4 -->
<g id="node4" class="node">
<title>Node4</title>
<g id="a_node4"><a xlink:href="baseConvert_8cpp.html#ae66f6b31b5ad750f1fe042a706a4e3d4" target="_top" xlink:title=" ">
<polygon fill="none" stroke="black" points="240,-114.5 240,-133.5 281,-133.5 281,-114.5 240,-114.5"/>
<text text-anchor="middle" x="260.5" y="-121.5" font-family="Helvetica,sans-Serif" font-size="10.00">main</text>
</a>
</g>
</g>
<!-- Node3&#45;&gt;Node4 -->
<g id="edge3" class="edge">
<title>Node3&#45;&gt;Node4</title>
<path fill="none" stroke="midnightblue" d="M326.07,-124C310.33,-124 293.74,-124 281.31,-124"/>
<polygon fill="midnightblue" stroke="midnightblue" points="326.24,-127.5 336.24,-124 326.24,-120.5 326.24,-127.5"/>
</g>
<!-- Node8 -->
<g id="node8" class="node">
<title>Node8</title>
<g id="a_node8"><a xlink:href="basicArithm_8hpp.html#a5967cef8aeb4f6ea90014159becd286d" target="_top" xlink:title="Raises a string representation of a number to a power.">
<polygon fill="none" stroke="black" points="237,-190.5 237,-209.5 284,-209.5 284,-190.5 237,-190.5"/>
<text text-anchor="middle" x="260.5" y="-197.5" font-family="Helvetica,sans-Serif" font-size="10.00">power</text>
</a>
</g>
</g>
<!-- Node7&#45;&gt;Node8 -->
<g id="edge7" class="edge">
<title>Node7&#45;&gt;Node8</title>
<path fill="none" stroke="midnightblue" d="M327.33,-200C312.35,-200 296.47,-200 284.07,-200"/>
<polygon fill="midnightblue" stroke="midnightblue" points="327.5,-203.5 337.5,-200 327.5,-196.5 327.5,-203.5"/>
</g>
<!-- Node9 -->
<g id="node9" class="node">
<title>Node9</title>
<g id="a_node9"><a xlink:href="basicArithm_8hpp.html#aedf78136562346db852758c848f8e83d" target="_top" xlink:title="Converts a string representation of a number from one base to another.">
<polygon fill="none" stroke="black" points="92,-190.5 92,-209.5 186,-209.5 186,-190.5 92,-190.5"/>
<text text-anchor="middle" x="139" y="-197.5" font-family="Helvetica,sans-Serif" font-size="10.00">decimalConvert</text>
</a>
</g>
</g>
<!-- Node8&#45;&gt;Node9 -->
<g id="edge8" class="edge">
<title>Node8&#45;&gt;Node9</title>
<path fill="none" stroke="midnightblue" d="M226.44,-200C214.07,-200 199.78,-200 186.42,-200"/>
<polygon fill="midnightblue" stroke="midnightblue" points="226.74,-203.5 236.74,-200 226.74,-196.5 226.74,-203.5"/>
</g>
<!-- Node11 -->
<g id="node11" class="node">
<title>Node11</title>
<g id="a_node11"><a xlink:href="division_8cpp.html#a222752517a35fde0e4de4bb32cbaa9be" target="_top" xlink:title="Determines the scale of the quotient of division.">
<polygon fill="none" stroke="black" points="77,-152.5 77,-171.5 201,-171.5 201,-152.5 77,-152.5"/>
<text text-anchor="middle" x="139" y="-159.5" font-family="Helvetica,sans-Serif" font-size="10.00">determineResultScale</text>
</a>
</g>
</g>
<!-- Node8&#45;&gt;Node11 -->
<g id="edge10" class="edge">
<title>Node8&#45;&gt;Node11</title>
<path fill="none" stroke="midnightblue" d="M227.15,-189.41C218.65,-186.66 209.48,-183.7 201,-181 191.28,-177.91 180.66,-174.58 171.06,-171.59"/>
<polygon fill="midnightblue" stroke="midnightblue" points="226.15,-192.77 236.74,-192.54 228.31,-186.11 226.15,-192.77"/>
</g>
<!-- Node12 -->
<g id="node12" class="node">
<title>Node12</title>
<g id="a_node12"><a xlink:href="power_8cpp.html#a065a3ee9a7ec43a06ab2fddbc3019a17" target="_top" xlink:title=" ">
<polygon fill="none" stroke="black" points="118.5,-228.5 118.5,-247.5 159.5,-247.5 159.5,-228.5 118.5,-228.5"/>
<text text-anchor="middle" x="139" y="-235.5" font-family="Helvetica,sans-Serif" font-size="10.00">main</text>
</a>
</g>
</g>
<!-- Node8&#45;&gt;Node12 -->
<g id="edge12" class="edge">
<title>Node8&#45;&gt;Node12</title>
<path fill="none" stroke="midnightblue" d="M227.15,-210.59C218.65,-213.34 209.48,-216.3 201,-219 187.15,-223.4 171.5,-228.28 159.52,-231.98"/>
<polygon fill="midnightblue" stroke="midnightblue" points="228.31,-213.89 236.74,-207.46 226.15,-207.23 228.31,-213.89"/>
</g>
<!-- Node10 -->
<g id="node10" class="node">
<title>Node10</title>
<g id="a_node10"><a xlink:href="decimalConvert_8cpp.html#ac2c7bcd6d73ca32ee42312d0fa0b1aa9" target="_top" xlink:title=" ">
<polygon fill="none" stroke="black" points="0,-190.5 0,-209.5 41,-209.5 41,-190.5 0,-190.5"/>
<text text-anchor="middle" x="20.5" y="-197.5" font-family="Helvetica,sans-Serif" font-size="10.00">main</text>
</a>
</g>
</g>
<!-- Node9&#45;&gt;Node10 -->
<g id="edge9" class="edge">
<title>Node9&#45;&gt;Node10</title>
<path fill="none" stroke="midnightblue" d="M81.89,-200C67.24,-200 52.42,-200 41.12,-200"/>
<polygon fill="midnightblue" stroke="midnightblue" points="81.96,-203.5 91.96,-200 81.96,-196.5 81.96,-203.5"/>
</g>
<!-- Node11&#45;&gt;Node2 -->
<g id="edge11" class="edge">
<title>Node11&#45;&gt;Node2</title>
<path fill="none" stroke="midnightblue" d="M211.46,-168.74C271.92,-171.8 359.84,-169.95 431,-143 452.64,-134.8 472.88,-116.33 484.04,-104.84"/>
<polygon fill="midnightblue" stroke="midnightblue" points="211.43,-165.23 201.25,-168.16 211.04,-172.22 211.43,-165.23"/>
</g>
<!-- Node14&#45;&gt;Node6 -->
<g id="edge16" class="edge">
<title>Node14&#45;&gt;Node6</title>
<path fill="none" stroke="midnightblue" d="M456.8,-41.8C436.73,-43.35 412.58,-45.21 396.03,-46.49"/>
<polygon fill="midnightblue" stroke="midnightblue" points="457.15,-45.28 466.86,-41.02 456.62,-38.3 457.15,-45.28"/>
</g>
<!-- Node14&#45;&gt;Node13 -->
<g id="edge17" class="edge">
<title>Node14&#45;&gt;Node13</title>
<path fill="none" stroke="midnightblue" d="M457.06,-30.05C443.71,-26.73 428.51,-22.95 414.94,-19.57"/>
<polygon fill="midnightblue" stroke="midnightblue" points="456.31,-33.47 466.86,-32.49 458,-26.68 456.31,-33.47"/>
</g>
<!-- Node14&#45;&gt;Node14 -->
<g id="edge15" class="edge">
<title>Node14&#45;&gt;Node14</title>
<path fill="none" stroke="midnightblue" d="M515.95,-58.03C514.75,-63.13 507.44,-67 494,-67 473.03,-67 466.96,-57.57 475.81,-48.76"/>
<polygon fill="midnightblue" stroke="midnightblue" points="519.19,-56.71 512.19,-48.76 512.7,-59.34 519.19,-56.71"/>
</g>
</g>
</svg>
        <g id="navigator" transform="translate(0 0)" fill="#404254">
                <rect fill="#f2f5e9" fill-opacity="0.5" stroke="#606060" stroke-width=".5" x="0" y="0" width="60" height="60"/>
                <use id="zoomplus" xlink:href="#zoomPlus" x="17" y="9" onmousedown="handleZoom(evt,'in')"/>
                <use id="zoomminus" xlink:href="#zoomMin" x="42" y="9" onmousedown="handleZoom(evt,'out')"/>
                <use id="reset" xlink:href="#resetDef" x="30" y="36" onmousedown="handleReset()"/>
                <g id="arrowUp" xlink:href="#dirArrow" transform="translate(30 24)" onmousedown="handlePan(0,-1)">
                  <use xlink:href="#rim" fill="#404040">
                        <set attributeName="fill" to="#808080" begin="arrowUp.mouseover" end="arrowUp.mouseout"/>
                  </use>
                  <path fill="none" stroke="white" stroke-width="1.5" d="M0,-3.0v7 M-2.5,-0.5L0,-3.0L2.5,-0.5"/>
                </g>
                <g id="arrowRight" xlink:href="#dirArrow" transform="rotate(90) translate(36 -43)" onmousedown="handlePan(1,0)">
                  <use xlink:href="#rim" fill="#404040">
                        <set attributeName="fill" to="#808080" begin="arrowRight.mouseover" end="arrowRight.mouseout"/>
                  </use>
                  <path fill="none" stroke="white" stroke-width="1.5" d="M0,-3.0v7 M-2.5,-0.5L0,-3.0L2.5,-0.5"/>
                </g>
                <g id="arrowDown" xlink:href="#dirArrow" transform="rotate(180) translate(-30 -48)" onmousedown="handlePan(0,1)">
                  <use xlink:href="#rim" fill="#404040">
                        <set attributeName="fill" to="#808080" begin="arrowDown.mouseover" end="arrowDown.mouseout"/>
                  </use>
                  <path fill="none" stroke="white" stroke-width="1.5" d="M0,-3.0v7 M-2.5,-0.5L0,-3.0L2.5,-0.5"/>
                </g>
                <g id="arrowLeft" xlink:href="#dirArrow" transform="rotate(270) translate(-36 17)" onmousedown="handlePan(-1,0)">
                  <use xlink:href="#rim" fill="#404040">
                        <set attributeName="fill" to="#808080" begin="arrowLeft.mouseover" end="arrowLeft.mouseout"/>
                  </use>
                  <path fill="none" stroke="white" stroke-width="1.5" d="M0,-3.0v7 M-2.5,-0.5L0,-3.0L2.5,-0.5"/>
                </g>
        </g>
        <svg viewBox="0 0 15 15" width="100%" height="30px" preserveAspectRatio="xMaxYMin meet">
         <g id="arrow_out" transform="scale(0.3 0.3)">
          <a xlink:href="division_8cpp_afe2f9d37fbb1090dfb3af32476b43fca_icgraph_org.svg" target="_base">
           <rect id="button" ry="5" rx="5" y="6" x="6" height="38" width="38"
                fill="#f2f5e9" fill-opacity="0.5" stroke="#606060" stroke-width="1.0"/>
           <path id="arrow"
             d="M 11.500037,31.436501 C 11.940474,20.09759 22.043105,11.32322 32.158766,21.979434 L 37.068811,17.246167 C 37.068811,17.246167 37.088388,32 37.088388,32 L 22.160133,31.978069 C 22.160133,31.978069 26.997745,27.140456 26.997745,27.140456 C 18.528582,18.264221 13.291696,25.230495 11.500037,31.436501 z"
             style="fill:#404040;"/>
          </a>
         </g>
        </svg>
</svg>
