<?xml version="1.0" encoding="UTF-8" standalone="no"?>
<!DOCTYPE svg PUBLIC "-//W3C//DTD SVG 1.1//EN"
 "http://www.w3.org/Graphics/SVG/1.1/DTD/svg11.dtd">
<!-- Generated by graphviz version 2.43.0 (0)
 -->
<!-- Title: reportDivision Pages: 1 -->
<!--zoomable 417 -->
<svg id="main" version="1.1" xmlns="http://www.w3.org/2000/svg" xmlns:xlink="http://www.w3.org/1999/xlink" xml:space="preserve" onload="init(evt)">
<style type="text/css"><![CDATA[
.edge:hover path { stroke: red; }
.edge:hover polygon { stroke: red; fill: red; }
]]></style>
<script type="text/javascript"><![CDATA[
var edges = document.getElementsByTagName('g');
if (edges && edges.length) {
  for (var i=0;i<edges.length;i++) {
    if (edges[i].id.substr(0,4)=='edge') {
      edges[i].setAttribute('class','edge');
    }
  }
}
]]></script>
        <defs>
                <circle id="rim" cx="0" cy="0" r="7"/>
                <circle id="rim2" cx="0" cy="0" r="3.5"/>
                <g id="zoomPlus">
                        <use xlink:href="#rim" fill="#404040">
                                <set attributeName="fill" to="#808080" begin="zoomplus.mouseover" end="zoomplus.mouseout"/>
                        </use>
                        <path d="M-4,0h8M0,-4v8" fill="none" stroke="white" stroke-width="1.5" pointer-events="none"/>
                </g>
                <g id="zoomMin">
                        <use xlink:href="#rim" fill="#404040">
                                <set attributeName="fill" to="#808080" begin="zoomminus.mouseover" end="zoomminus.mouseout"/>
                        </use>
                        <path d="M-4,0h8" fill="none" stroke="white" stroke-width="1.5" pointer-events="none"/>
                </g>
                <g id="dirArrow">
                        <path fill="none" stroke="white" stroke-width="1.5" d="M0,-3.0v7 M-2.5,-0.5L0,-3.0L2.5,-0.5"/>
                </g>
               <g id="resetDef">
                       <use xlink:href="#rim2" fill="#404040">
                               <set attributeName="fill" to="#808080" begin="reset.mouseover" end="reset.mouseout"/>
                       </use>
               </g>
        </defs>

<script type="text/javascript">
var viewWidth = 922;
var viewHeight = 417;
var sectionId = 'dynsection-3';
</script>
<script xlink:href="svgpan.js"/>
<svg id="graph" class="graph">
<g id="viewport">
<title>reportDivision</title>
<!-- Node1 -->
<g id="node1" class="node">
<title>Node1</title>
<g id="a_node1"><a xlink:title="Reports a division operation to the user.">
<polygon fill="#bfbfbf" stroke="black" points="828,-175 828,-194 914,-194 914,-175 828,-175"/>
<text text-anchor="middle" x="871" y="-182" font-family="Helvetica,sans-Serif" font-size="10.00">reportDivision</text>
</a>
</g>
</g>
<!-- Node2 -->
<g id="node2" class="node">
<title>Node2</title>
<g id="a_node2"><a xlink:href="namespacesteppable_1_1____internals_1_1arithmetic.html#a26194ae8ddb44afb942fbf8335ae1730" target="_top" xlink:title="Divides a string representation of a number by another string representation of a number.">
<polygon fill="none" stroke="black" points="668,-169.5 668,-199.5 792,-199.5 792,-169.5 668,-169.5"/>
<text text-anchor="start" x="676" y="-187.5" font-family="Helvetica,sans-Serif" font-size="10.00">steppable::__internals</text>
<text text-anchor="middle" x="730" y="-176.5" font-family="Helvetica,sans-Serif" font-size="10.00">::arithmetic::divide</text>
</a>
</g>
</g>
<!-- Node1&#45;&gt;Node2 -->
<g id="edge1" class="edge">
<title>Node1&#45;&gt;Node2</title>
<path fill="none" stroke="midnightblue" d="M817.9,-184.5C809.5,-184.5 800.75,-184.5 792.17,-184.5"/>
<polygon fill="midnightblue" stroke="midnightblue" points="817.92,-188 827.92,-184.5 817.92,-181 817.92,-188"/>
</g>
<!-- Node3 -->
<g id="node3" class="node">
<title>Node3</title>
<g id="a_node3"><a xlink:href="namespacesteppable_1_1____internals_1_1arithmetic.html#a5b80b731e3e2c0d16dcbe5d52b08ffd5" target="_top" xlink:title="Converts a string representation of a number from decimal to another one.">
<polygon fill="none" stroke="black" points="475.5,-367.5 475.5,-397.5 615.5,-397.5 615.5,-367.5 475.5,-367.5"/>
<text text-anchor="start" x="483.5" y="-385.5" font-family="Helvetica,sans-Serif" font-size="10.00">steppable::__internals</text>
<text text-anchor="middle" x="545.5" y="-374.5" font-family="Helvetica,sans-Serif" font-size="10.00">::arithmetic::baseConvert</text>
</a>
</g>
</g>
<!-- Node2&#45;&gt;Node3 -->
<g id="edge2" class="edge">
<title>Node2&#45;&gt;Node3</title>
<path fill="none" stroke="midnightblue" d="M718.97,-209.46C704.3,-243.24 674.11,-303.65 632,-341.5 619.88,-352.4 604.35,-361 589.85,-367.45"/>
<polygon fill="midnightblue" stroke="midnightblue" points="722.35,-210.45 723.02,-199.88 715.9,-207.73 722.35,-210.45"/>
</g>
<!-- Node5 -->
<g id="node5" class="node">
<title>Node5</title>
<g id="a_node5"><a xlink:href="namespacesteppable_1_1____internals_1_1arithmetic.html#ac9102075acd398b3bdf388f6cc2ef978" target="_top" xlink:title=" ">
<polygon fill="none" stroke="black" points="459,-301.5 459,-331.5 632,-331.5 632,-301.5 459,-301.5"/>
<text text-anchor="start" x="467" y="-319.5" font-family="Helvetica,sans-Serif" font-size="10.00">steppable::__internals</text>
<text text-anchor="middle" x="545.5" y="-308.5" font-family="Helvetica,sans-Serif" font-size="10.00">::arithmetic::divideWithQuotient</text>
</a>
</g>
</g>
<!-- Node2&#45;&gt;Node5 -->
<g id="edge4" class="edge">
<title>Node2&#45;&gt;Node5</title>
<path fill="none" stroke="midnightblue" d="M712.03,-207.98C694.37,-230.9 664.75,-265.32 632,-286.5 622.75,-292.48 612.17,-297.43 601.67,-301.47"/>
<polygon fill="midnightblue" stroke="midnightblue" points="714.97,-209.91 718.2,-199.82 709.38,-205.69 714.97,-209.91"/>
</g>
<!-- Node6 -->
<g id="node6" class="node">
<title>Node6</title>
<g id="a_node6"><a xlink:href="bindings_8cpp.html#a60a9e23ee91f2ac9ac64e78f1c2ccded" target="_top" xlink:title=" ">
<polygon fill="none" stroke="black" points="130.5,-356 130.5,-375 209.5,-375 209.5,-356 130.5,-356"/>
<text text-anchor="middle" x="170" y="-363" font-family="Helvetica,sans-Serif" font-size="10.00">NB_MODULE</text>
</a>
</g>
</g>
<!-- Node2&#45;&gt;Node6 -->
<g id="edge8" class="edge">
<title>Node2&#45;&gt;Node6</title>
<path fill="none" stroke="midnightblue" d="M701.53,-205.76C682.93,-219.06 657.22,-235.33 632,-244.5 491.46,-295.57 425.45,-212.7 299,-292.5 274.61,-307.89 286.92,-330.37 263,-346.5 247.45,-356.99 227.3,-361.88 209.83,-364.1"/>
<polygon fill="midnightblue" stroke="midnightblue" points="703.8,-208.44 709.81,-199.72 699.67,-202.79 703.8,-208.44"/>
</g>
<!-- Node8 -->
<g id="node8" class="node">
<title>Node8</title>
<g id="a_node8"><a xlink:href="division_8cpp.html#a065a3ee9a7ec43a06ab2fddbc3019a17" target="_top" xlink:title=" ">
<polygon fill="none" stroke="black" points="525,-99 525,-118 566,-118 566,-99 525,-99"/>
<text text-anchor="middle" x="545.5" y="-106" font-family="Helvetica,sans-Serif" font-size="10.00">main</text>
</a>
</g>
</g>
<!-- Node2&#45;&gt;Node8 -->
<g id="edge7" class="edge">
<title>Node2&#45;&gt;Node8</title>
<path fill="none" stroke="midnightblue" d="M695.78,-164.35C677.44,-153.84 653.99,-141.35 632,-132.5 610.12,-123.69 583.85,-116.84 566.26,-112.75"/>
<polygon fill="midnightblue" stroke="midnightblue" points="694.2,-167.48 704.6,-169.49 697.72,-161.43 694.2,-167.48"/>
</g>
<!-- Node9 -->
<g id="node9" class="node">
<title>Node9</title>
<g id="a_node9"><a xlink:href="classsteppable_1_1Number.html#aebdaf5d342a2a897793556bd390bc184" target="_top" xlink:title="Divides two numbers.">
<polygon fill="none" stroke="black" points="487.5,-49.5 487.5,-79.5 603.5,-79.5 603.5,-49.5 487.5,-49.5"/>
<text text-anchor="start" x="495.5" y="-67.5" font-family="Helvetica,sans-Serif" font-size="10.00">steppable::Number::</text>
<text text-anchor="middle" x="545.5" y="-56.5" font-family="Helvetica,sans-Serif" font-size="10.00">operator/</text>
</a>
</g>
</g>
<!-- Node2&#45;&gt;Node9 -->
<g id="edge9" class="edge">
<title>Node2&#45;&gt;Node9</title>
<path fill="none" stroke="midnightblue" d="M711.08,-161.31C693.24,-139.75 663.96,-108.22 632,-89.5 623.33,-84.42 613.54,-80.31 603.78,-77"/>
<polygon fill="midnightblue" stroke="midnightblue" points="708.54,-163.75 717.56,-169.32 713.99,-159.35 708.54,-163.75"/>
</g>
<!-- Node10 -->
<g id="node10" class="node">
<title>Node10</title>
<g id="a_node10"><a xlink:href="powerReport_8cpp.html#a313053d8232850bdcca6d6b88ab53778" target="_top" xlink:title="Reports a power operation.">
<polygon fill="none" stroke="black" points="507.5,-216 507.5,-235 583.5,-235 583.5,-216 507.5,-216"/>
<text text-anchor="middle" x="545.5" y="-223" font-family="Helvetica,sans-Serif" font-size="10.00">reportPower</text>
</a>
</g>
</g>
<!-- Node2&#45;&gt;Node10 -->
<g id="edge10" class="edge">
<title>Node2&#45;&gt;Node10</title>
<path fill="none" stroke="midnightblue" d="M657.98,-200.45C632.55,-206.17 604.91,-212.38 583.51,-217.19"/>
<polygon fill="midnightblue" stroke="midnightblue" points="658.99,-203.82 667.98,-198.21 657.45,-196.99 658.99,-203.82"/>
</g>
<!-- Node18 -->
<g id="node18" class="node">
<title>Node18</title>
<g id="a_node18"><a xlink:href="namespacesteppable_1_1____internals_1_1arithmetic.html#a8c20a75a55d968bd679a1a550a46a497" target="_top" xlink:title="Takes the n&#45;th root of a numer.">
<polygon fill="none" stroke="black" points="108,-71.5 108,-101.5 232,-101.5 232,-71.5 108,-71.5"/>
<text text-anchor="start" x="116" y="-89.5" font-family="Helvetica,sans-Serif" font-size="10.00">steppable::__internals</text>
<text text-anchor="middle" x="170" y="-78.5" font-family="Helvetica,sans-Serif" font-size="10.00">::arithmetic::root</text>
</a>
</g>
</g>
<!-- Node2&#45;&gt;Node18 -->
<g id="edge22" class="edge">
<title>Node2&#45;&gt;Node18</title>
<path fill="none" stroke="midnightblue" d="M657.9,-172.01C547.35,-152.6 336.14,-115.5 232.06,-97.22"/>
<polygon fill="midnightblue" stroke="midnightblue" points="657.5,-175.5 667.96,-173.78 658.71,-168.6 657.5,-175.5"/>
</g>
<!-- Node20 -->
<g id="node20" class="node">
<title>Node20</title>
<g id="a_node20"><a xlink:href="classsteppable_1_1Fraction.html#a9cf64d847c268d9334775c572ef75dfa" target="_top" xlink:title="Simplifies a fraction. This function simplifies the fraction by dividing the top and bottom component...">
<polygon fill="none" stroke="black" points="490.5,-0.5 490.5,-30.5 600.5,-30.5 600.5,-0.5 490.5,-0.5"/>
<text text-anchor="start" x="498.5" y="-18.5" font-family="Helvetica,sans-Serif" font-size="10.00">steppable::Fraction</text>
<text text-anchor="middle" x="545.5" y="-7.5" font-family="Helvetica,sans-Serif" font-size="10.00">::simplify</text>
</a>
</g>
</g>
<!-- Node2&#45;&gt;Node20 -->
<g id="edge23" class="edge">
<title>Node2&#45;&gt;Node20</title>
<path fill="none" stroke="midnightblue" d="M719.1,-159.93C704.75,-127.47 675.11,-70.76 632,-39.5 622.76,-32.8 611.72,-27.97 600.69,-24.49"/>
<polygon fill="midnightblue" stroke="midnightblue" points="715.9,-161.36 723.06,-169.17 722.34,-158.6 715.9,-161.36"/>
</g>
<!-- Node4 -->
<g id="node4" class="node">
<title>Node4</title>
<g id="a_node4"><a xlink:href="baseConvert_8cpp.html#a065a3ee9a7ec43a06ab2fddbc3019a17" target="_top" xlink:title=" ">
<polygon fill="none" stroke="black" points="340.5,-389 340.5,-408 381.5,-408 381.5,-389 340.5,-389"/>
<text text-anchor="middle" x="361" y="-396" font-family="Helvetica,sans-Serif" font-size="10.00">main</text>
</a>
</g>
</g>
<!-- Node3&#45;&gt;Node4 -->
<g id="edge3" class="edge">
<title>Node3&#45;&gt;Node4</title>
<path fill="none" stroke="midnightblue" d="M464.93,-389.48C434.27,-392.16 401.82,-395.01 381.74,-396.77"/>
<polygon fill="midnightblue" stroke="midnightblue" points="465.59,-392.93 475.24,-388.57 464.98,-385.96 465.59,-392.93"/>
</g>
<!-- Node5&#45;&gt;Node6 -->
<g id="edge5" class="edge">
<title>Node5&#45;&gt;Node6</title>
<path fill="none" stroke="midnightblue" d="M467.76,-333.6C452.96,-336.52 437.54,-339.32 423,-341.5 347.81,-352.78 259.16,-359.78 209.58,-363.13"/>
<polygon fill="midnightblue" stroke="midnightblue" points="468.78,-336.96 477.89,-331.56 467.39,-330.1 468.78,-336.96"/>
</g>
<!-- Node7 -->
<g id="node7" class="node">
<title>Node7</title>
<g id="a_node7"><a xlink:href="classsteppable_1_1Number.html#a719a8a93fcfe91b30c38ba0830d6de50" target="_top" xlink:title="Calculates the remainder of two numbers. (Modulus)">
<polygon fill="none" stroke="black" points="303,-301.5 303,-331.5 419,-331.5 419,-301.5 303,-301.5"/>
<text text-anchor="start" x="311" y="-319.5" font-family="Helvetica,sans-Serif" font-size="10.00">steppable::Number::</text>
<text text-anchor="middle" x="361" y="-308.5" font-family="Helvetica,sans-Serif" font-size="10.00">operator%</text>
</a>
</g>
</g>
<!-- Node5&#45;&gt;Node7 -->
<g id="edge6" class="edge">
<title>Node5&#45;&gt;Node7</title>
<path fill="none" stroke="midnightblue" d="M448.78,-316.5C438.7,-316.5 428.7,-316.5 419.26,-316.5"/>
<polygon fill="midnightblue" stroke="midnightblue" points="448.86,-320 458.86,-316.5 448.86,-313 448.86,-320"/>
</g>
<!-- Node11 -->
<g id="node11" class="node">
<title>Node11</title>
<g id="a_node11"><a xlink:href="namespacesteppable_1_1____internals_1_1arithmetic.html#a50acfa1ad06ce385943ddd207146c9e0" target="_top" xlink:title="Raises a string representation of a number to a power.">
<polygon fill="none" stroke="black" points="299,-213.5 299,-243.5 423,-243.5 423,-213.5 299,-213.5"/>
<text text-anchor="start" x="307" y="-231.5" font-family="Helvetica,sans-Serif" font-size="10.00">steppable::__internals</text>
<text text-anchor="middle" x="361" y="-220.5" font-family="Helvetica,sans-Serif" font-size="10.00">::arithmetic::power</text>
</a>
</g>
</g>
<!-- Node10&#45;&gt;Node11 -->
<g id="edge11" class="edge">
<title>Node10&#45;&gt;Node11</title>
<path fill="none" stroke="midnightblue" d="M497.1,-226.28C474.49,-226.65 447.17,-227.1 423.03,-227.5"/>
<polygon fill="midnightblue" stroke="midnightblue" points="497.19,-229.78 507.13,-226.11 497.07,-222.78 497.19,-229.78"/>
</g>
<!-- Node11&#45;&gt;Node6 -->
<g id="edge17" class="edge">
<title>Node11&#45;&gt;Node6</title>
<path fill="none" stroke="midnightblue" d="M310.17,-248.96C306.1,-251.79 302.3,-254.97 299,-258.5 270.16,-289.39 295.51,-319.5 263,-346.5 248.32,-358.69 227.84,-363.71 209.93,-365.56"/>
<polygon fill="midnightblue" stroke="midnightblue" points="312.15,-251.85 318.8,-243.61 308.46,-245.9 312.15,-251.85"/>
</g>
<!-- Node12 -->
<g id="node12" class="node">
<title>Node12</title>
<g id="a_node12"><a xlink:href="namespacesteppable_1_1____internals_1_1arithmetic.html#afc4c4f319dadbb5b1ff481132f008374" target="_top" xlink:title="Converts a string representation of a number from any base to decimal.">
<polygon fill="none" stroke="black" points="92,-257.5 92,-287.5 248,-287.5 248,-257.5 92,-257.5"/>
<text text-anchor="start" x="100" y="-275.5" font-family="Helvetica,sans-Serif" font-size="10.00">steppable::__internals</text>
<text text-anchor="middle" x="170" y="-264.5" font-family="Helvetica,sans-Serif" font-size="10.00">::arithmetic::decimalConvert</text>
</a>
</g>
</g>
<!-- Node11&#45;&gt;Node12 -->
<g id="edge12" class="edge">
<title>Node11&#45;&gt;Node12</title>
<path fill="none" stroke="midnightblue" d="M288.75,-245.09C271.25,-249.16 252.63,-253.5 235.47,-257.49"/>
<polygon fill="midnightblue" stroke="midnightblue" points="289.95,-248.4 298.9,-242.72 288.36,-241.58 289.95,-248.4"/>
</g>
<!-- Node14 -->
<g id="node14" class="node">
<title>Node14</title>
<g id="a_node14"><a xlink:href="namespacesteppable_1_1____internals_1_1arithmetic.html#aa150ef39a272f7228ae239679247fab3" target="_top" xlink:title="Determines the scale of the quotient of division.">
<polygon fill="none" stroke="black" points="77,-120.5 77,-150.5 263,-150.5 263,-120.5 77,-120.5"/>
<text text-anchor="start" x="85" y="-138.5" font-family="Helvetica,sans-Serif" font-size="10.00">steppable::__internals</text>
<text text-anchor="middle" x="170" y="-127.5" font-family="Helvetica,sans-Serif" font-size="10.00">::arithmetic::determineResultScale</text>
</a>
</g>
</g>
<!-- Node11&#45;&gt;Node14 -->
<g id="edge14" class="edge">
<title>Node11&#45;&gt;Node14</title>
<path fill="none" stroke="midnightblue" d="M314.7,-208.51C309.24,-205.44 303.87,-202.09 299,-198.5 280.27,-184.7 282.97,-172.44 263,-160.5 256.61,-156.68 249.62,-153.43 242.44,-150.66"/>
<polygon fill="midnightblue" stroke="midnightblue" points="313.45,-211.81 323.93,-213.4 316.73,-205.62 313.45,-211.81"/>
</g>
<!-- Node15 -->
<g id="node15" class="node">
<title>Node15</title>
<g id="a_node15"><a xlink:href="power_8cpp.html#a065a3ee9a7ec43a06ab2fddbc3019a17" target="_top" xlink:title=" ">
<polygon fill="none" stroke="black" points="149.5,-219 149.5,-238 190.5,-238 190.5,-219 149.5,-219"/>
<text text-anchor="middle" x="170" y="-226" font-family="Helvetica,sans-Serif" font-size="10.00">main</text>
</a>
</g>
</g>
<!-- Node11&#45;&gt;Node15 -->
<g id="edge16" class="edge">
<title>Node11&#45;&gt;Node15</title>
<path fill="none" stroke="midnightblue" d="M288.67,-228.5C253.6,-228.5 214.01,-228.5 190.85,-228.5"/>
<polygon fill="midnightblue" stroke="midnightblue" points="288.9,-232 298.9,-228.5 288.9,-225 288.9,-232"/>
</g>
<!-- Node16 -->
<g id="node16" class="node">
<title>Node16</title>
<g id="a_node16"><a xlink:href="classsteppable_1_1Fraction.html#abaf8678e0b61e3097789959b66e4c23c" target="_top" xlink:title="Raises the fraction to a power.">
<polygon fill="none" stroke="black" points="115,-169.5 115,-199.5 225,-199.5 225,-169.5 115,-169.5"/>
<text text-anchor="start" x="123" y="-187.5" font-family="Helvetica,sans-Serif" font-size="10.00">steppable::Fraction</text>
<text text-anchor="middle" x="170" y="-176.5" font-family="Helvetica,sans-Serif" font-size="10.00">::operator^</text>
</a>
</g>
</g>
<!-- Node11&#45;&gt;Node16 -->
<g id="edge18" class="edge">
<title>Node11&#45;&gt;Node16</title>
<path fill="none" stroke="midnightblue" d="M289,-211.97C267.88,-207.05 245.07,-201.74 225.2,-197.12"/>
<polygon fill="midnightblue" stroke="midnightblue" points="288.36,-215.42 298.9,-214.28 289.95,-208.6 288.36,-215.42"/>
</g>
<!-- Node17 -->
<g id="node17" class="node">
<title>Node17</title>
<g id="a_node17"><a xlink:href="classsteppable_1_1Number.html#ae3e13c5f73bc67cd464c84a8640e1387" target="_top" xlink:title="Raises the number to a power.">
<polygon fill="none" stroke="black" points="112,-306.5 112,-336.5 228,-336.5 228,-306.5 112,-306.5"/>
<text text-anchor="start" x="120" y="-324.5" font-family="Helvetica,sans-Serif" font-size="10.00">steppable::Number::</text>
<text text-anchor="middle" x="170" y="-313.5" font-family="Helvetica,sans-Serif" font-size="10.00">operator^</text>
</a>
</g>
</g>
<!-- Node11&#45;&gt;Node17 -->
<g id="edge19" class="edge">
<title>Node11&#45;&gt;Node17</title>
<path fill="none" stroke="midnightblue" d="M314.66,-248.43C309.2,-251.51 303.85,-254.88 299,-258.5 280.1,-272.61 283.23,-285.37 263,-297.5 252.38,-303.87 240.09,-308.56 228.02,-312.02"/>
<polygon fill="midnightblue" stroke="midnightblue" points="316.69,-251.32 323.88,-243.53 313.4,-245.13 316.69,-251.32"/>
</g>
<!-- Node11&#45;&gt;Node18 -->
<g id="edge20" class="edge">
<title>Node11&#45;&gt;Node18</title>
<path fill="none" stroke="midnightblue" d="M338.44,-205.71C326.47,-192.75 311.52,-176.05 299,-160.5 281.83,-139.17 285.59,-125.98 263,-110.5 253.88,-104.25 243.23,-99.62 232.48,-96.2"/>
<polygon fill="midnightblue" stroke="midnightblue" points="336.09,-208.31 345.46,-213.25 341.21,-203.54 336.09,-208.31"/>
</g>
<!-- Node13 -->
<g id="node13" class="node">
<title>Node13</title>
<g id="a_node13"><a xlink:href="decimalConvert_8cpp.html#ac2c7bcd6d73ca32ee42312d0fa0b1aa9" target="_top" xlink:title=" ">
<polygon fill="none" stroke="black" points="0,-263 0,-282 41,-282 41,-263 0,-263"/>
<text text-anchor="middle" x="20.5" y="-270" font-family="Helvetica,sans-Serif" font-size="10.00">main</text>
</a>
</g>
</g>
<!-- Node12&#45;&gt;Node13 -->
<g id="edge13" class="edge">
<title>Node12&#45;&gt;Node13</title>
<path fill="none" stroke="midnightblue" d="M81.71,-272.5C66.49,-272.5 52.07,-272.5 41.15,-272.5"/>
<polygon fill="midnightblue" stroke="midnightblue" points="81.79,-276 91.79,-272.5 81.79,-269 81.79,-276"/>
</g>
<!-- Node14&#45;&gt;Node2 -->
<g id="edge15" class="edge">
<title>Node14&#45;&gt;Node2</title>
<path fill="none" stroke="midnightblue" d="M248.94,-152.49C265.4,-155.58 282.72,-158.47 299,-160.5 429.76,-176.84 584.29,-182.06 667.88,-183.72"/>
<polygon fill="midnightblue" stroke="midnightblue" points="249.29,-148.99 238.81,-150.54 247.97,-155.87 249.29,-148.99"/>
</g>
<!-- Node19 -->
<g id="node19" class="node">
<title>Node19</title>
<g id="a_node19"><a xlink:href="root_8cpp.html#a065a3ee9a7ec43a06ab2fddbc3019a17" target="_top" xlink:title=" ">
<polygon fill="none" stroke="black" points="0,-77 0,-96 41,-96 41,-77 0,-77"/>
<text text-anchor="middle" x="20.5" y="-84" font-family="Helvetica,sans-Serif" font-size="10.00">main</text>
</a>
</g>
</g>
<!-- Node18&#45;&gt;Node19 -->
<g id="edge21" class="edge">
<title>Node18&#45;&gt;Node19</title>
<path fill="none" stroke="midnightblue" d="M97.57,-86.5C76.77,-86.5 55.72,-86.5 41.05,-86.5"/>
<polygon fill="midnightblue" stroke="midnightblue" points="97.73,-90 107.73,-86.5 97.73,-83 97.73,-90"/>
</g>
</g>
</svg>
        <g id="navigator" transform="translate(0 0)" fill="#404254">
                <rect fill="#f2f5e9" fill-opacity="0.5" stroke="#606060" stroke-width=".5" x="0" y="0" width="60" height="60"/>
                <use id="zoomplus" xlink:href="#zoomPlus" x="17" y="9" onmousedown="handleZoom(evt,'in')"/>
                <use id="zoomminus" xlink:href="#zoomMin" x="42" y="9" onmousedown="handleZoom(evt,'out')"/>
                <use id="reset" xlink:href="#resetDef" x="30" y="36" onmousedown="handleReset()"/>
                <g id="arrowUp" xlink:href="#dirArrow" transform="translate(30 24)" onmousedown="handlePan(0,-1)">
                  <use xlink:href="#rim" fill="#404040">
                        <set attributeName="fill" to="#808080" begin="arrowUp.mouseover" end="arrowUp.mouseout"/>
                  </use>
                  <path fill="none" stroke="white" stroke-width="1.5" d="M0,-3.0v7 M-2.5,-0.5L0,-3.0L2.5,-0.5"/>
                </g>
                <g id="arrowRight" xlink:href="#dirArrow" transform="rotate(90) translate(36 -43)" onmousedown="handlePan(1,0)">
                  <use xlink:href="#rim" fill="#404040">
                        <set attributeName="fill" to="#808080" begin="arrowRight.mouseover" end="arrowRight.mouseout"/>
                  </use>
                  <path fill="none" stroke="white" stroke-width="1.5" d="M0,-3.0v7 M-2.5,-0.5L0,-3.0L2.5,-0.5"/>
                </g>
                <g id="arrowDown" xlink:href="#dirArrow" transform="rotate(180) translate(-30 -48)" onmousedown="handlePan(0,1)">
                  <use xlink:href="#rim" fill="#404040">
                        <set attributeName="fill" to="#808080" begin="arrowDown.mouseover" end="arrowDown.mouseout"/>
                  </use>
                  <path fill="none" stroke="white" stroke-width="1.5" d="M0,-3.0v7 M-2.5,-0.5L0,-3.0L2.5,-0.5"/>
                </g>
                <g id="arrowLeft" xlink:href="#dirArrow" transform="rotate(270) translate(-36 17)" onmousedown="handlePan(-1,0)">
                  <use xlink:href="#rim" fill="#404040">
                        <set attributeName="fill" to="#808080" begin="arrowLeft.mouseover" end="arrowLeft.mouseout"/>
                  </use>
                  <path fill="none" stroke="white" stroke-width="1.5" d="M0,-3.0v7 M-2.5,-0.5L0,-3.0L2.5,-0.5"/>
                </g>
        </g>
        <svg viewBox="0 0 15 15" width="100%" height="30px" preserveAspectRatio="xMaxYMin meet">
         <g id="arrow_out" transform="scale(0.3 0.3)">
          <a xlink:href="divisionReport_8hpp_a37e4e7cb6fe42ae3131cdc071b038687_icgraph_org.svg" target="_base">
           <rect id="button" ry="5" rx="5" y="6" x="6" height="38" width="38"
                fill="#f2f5e9" fill-opacity="0.5" stroke="#606060" stroke-width="1.0"/>
           <path id="arrow"
             d="M 11.500037,31.436501 C 11.940474,20.09759 22.043105,11.32322 32.158766,21.979434 L 37.068811,17.246167 C 37.068811,17.246167 37.088388,32 37.088388,32 L 22.160133,31.978069 C 22.160133,31.978069 26.997745,27.140456 26.997745,27.140456 C 18.528582,18.264221 13.291696,25.230495 11.500037,31.436501 z"
             style="fill:#404040;"/>
          </a>
         </g>
        </svg>
</svg>
