<?xml version="1.0" encoding="UTF-8" standalone="no"?>
<!DOCTYPE svg PUBLIC "-//W3C//DTD SVG 1.1//EN"
 "http://www.w3.org/Graphics/SVG/1.1/DTD/svg11.dtd">
<!-- Generated by graphviz version 2.43.0 (0)
 -->
<!-- Title: main Pages: 1 -->
<svg width="1165pt" height="922pt"
 viewBox="0.00 0.00 1165.00 922.43" xmlns="http://www.w3.org/2000/svg" xmlns:xlink="http://www.w3.org/1999/xlink">
<g id="graph0" class="graph" transform="scale(1 1) rotate(0) translate(4 918.43)">
<title>main</title>
<!-- Node1 -->
<g id="node1" class="node">
<title>Node1</title>
<g id="a_node1"><a xlink:title=" ">
<polygon fill="#bfbfbf" stroke="black" points="0,-259.93 0,-278.93 41,-278.93 41,-259.93 0,-259.93"/>
<text text-anchor="middle" x="20.5" y="-266.93" font-family="Helvetica,sans-Serif" font-size="10.00">main</text>
</a>
</g>
</g>
<!-- Node2 -->
<g id="node2" class="node">
<title>Node2</title>
<g id="a_node2"><a xlink:href="classProgramArgs.html#a8cfadc3e489780e1411ef0807ee6f336" target="_top" xlink:title="This function is used to add a keyword argument to the class.">
<polygon fill="none" stroke="black" points="91.5,-392.93 91.5,-411.93 253.5,-411.93 253.5,-392.93 91.5,-392.93"/>
<text text-anchor="middle" x="172.5" y="-399.93" font-family="Helvetica,sans-Serif" font-size="10.00">ProgramArgs::addKeywordArg</text>
</a>
</g>
</g>
<!-- Node1&#45;&gt;Node2 -->
<g id="edge1" class="edge">
<title>Node1&#45;&gt;Node2</title>
<path fill="none" stroke="midnightblue" d="M23.24,-279.21C27.74,-301.53 41.99,-356.37 77,-383.43 79.22,-385.15 81.55,-386.72 83.98,-388.16"/>
<polygon fill="midnightblue" stroke="midnightblue" points="82.61,-391.39 93.11,-392.82 85.79,-385.16 82.61,-391.39"/>
</g>
<!-- Node3 -->
<g id="node3" class="node">
<title>Node3</title>
<g id="a_node3"><a xlink:href="classProgramArgs.html#a419988f156cdd89651c16c65e6d26c14" target="_top" xlink:title="This function is used to add a positional argument to the class.">
<polygon fill="none" stroke="black" points="104,-354.93 104,-373.93 241,-373.93 241,-354.93 104,-354.93"/>
<text text-anchor="middle" x="172.5" y="-361.93" font-family="Helvetica,sans-Serif" font-size="10.00">ProgramArgs::addPosArg</text>
</a>
</g>
</g>
<!-- Node1&#45;&gt;Node3 -->
<g id="edge2" class="edge">
<title>Node1&#45;&gt;Node3</title>
<path fill="none" stroke="midnightblue" d="M25.69,-279.17C33.32,-295.65 51.13,-328.88 77,-345.43 82.27,-348.81 88.02,-351.6 94,-353.91"/>
<polygon fill="midnightblue" stroke="midnightblue" points="92.94,-357.25 103.53,-357.16 95.2,-350.62 92.94,-357.25"/>
</g>
<!-- Node4 -->
<g id="node4" class="node">
<title>Node4</title>
<g id="a_node4"><a xlink:href="classProgramArgs.html#a1517bda6763b0efc42b5a6ca579a3412" target="_top" xlink:title="This function is used to add a switch to the class.">
<polygon fill="none" stroke="black" points="104.5,-316.93 104.5,-335.93 240.5,-335.93 240.5,-316.93 104.5,-316.93"/>
<text text-anchor="middle" x="172.5" y="-323.93" font-family="Helvetica,sans-Serif" font-size="10.00">ProgramArgs::addSwitch</text>
</a>
</g>
</g>
<!-- Node1&#45;&gt;Node4 -->
<g id="edge3" class="edge">
<title>Node1&#45;&gt;Node4</title>
<path fill="none" stroke="midnightblue" d="M32.61,-279.05C43.28,-287.79 60.22,-300.35 77,-307.43 83.16,-310.03 89.71,-312.28 96.36,-314.23"/>
<polygon fill="midnightblue" stroke="midnightblue" points="95.59,-317.65 106.16,-316.88 97.41,-310.89 95.59,-317.65"/>
</g>
<!-- Node5 -->
<g id="node5" class="node">
<title>Node5</title>
<g id="a_node5"><a xlink:href="division_8cpp.html#ad8fb7bec6096894294df4c15d498dab7" target="_top" xlink:title="Divides a string representation of a number by another string representation of a number.">
<polygon fill="none" stroke="black" points="149,-278.93 149,-297.93 196,-297.93 196,-278.93 149,-278.93"/>
<text text-anchor="middle" x="172.5" y="-285.93" font-family="Helvetica,sans-Serif" font-size="10.00">divide</text>
</a>
</g>
</g>
<!-- Node1&#45;&gt;Node5 -->
<g id="edge4" class="edge">
<title>Node1&#45;&gt;Node5</title>
<path fill="none" stroke="midnightblue" d="M41.11,-271.92C65.97,-275.06 109.19,-280.54 139.01,-284.32"/>
<polygon fill="midnightblue" stroke="midnightblue" points="138.59,-287.79 148.95,-285.57 139.47,-280.85 138.59,-287.79"/>
</g>
<!-- Node37 -->
<g id="node37" class="node">
<title>Node37</title>
<g id="a_node37"><a xlink:href="classProgramArgs.html#a67d7bd75b7221946e8173398a6c2868e" target="_top" xlink:title="This function is used to get the value of a keyword argument.">
<polygon fill="none" stroke="black" points="77,-240.93 77,-259.93 268,-259.93 268,-240.93 77,-240.93"/>
<text text-anchor="middle" x="172.5" y="-247.93" font-family="Helvetica,sans-Serif" font-size="10.00">ProgramArgs::getKeywordArgument</text>
</a>
</g>
</g>
<!-- Node1&#45;&gt;Node37 -->
<g id="edge68" class="edge">
<title>Node1&#45;&gt;Node37</title>
<path fill="none" stroke="midnightblue" d="M41.11,-266.95C53.13,-265.43 69.43,-263.36 86.43,-261.21"/>
<polygon fill="midnightblue" stroke="midnightblue" points="87.02,-264.66 96.5,-259.93 86.14,-257.72 87.02,-264.66"/>
</g>
<!-- Node38 -->
<g id="node38" class="node">
<title>Node38</title>
<g id="a_node38"><a xlink:href="classProgramArgs.html#a37b2fdefcdd9a9317584d551c7dcf1d9" target="_top" xlink:title="This function is used to get the value of a positional argument.">
<polygon fill="none" stroke="black" points="105,-202.93 105,-221.93 240,-221.93 240,-202.93 105,-202.93"/>
<text text-anchor="middle" x="172.5" y="-209.93" font-family="Helvetica,sans-Serif" font-size="10.00">ProgramArgs::getPosArg</text>
</a>
</g>
</g>
<!-- Node1&#45;&gt;Node38 -->
<g id="edge69" class="edge">
<title>Node1&#45;&gt;Node38</title>
<path fill="none" stroke="midnightblue" d="M32.61,-259.81C43.28,-251.08 60.22,-238.51 77,-231.43 83.16,-228.83 89.71,-226.58 96.36,-224.63"/>
<polygon fill="midnightblue" stroke="midnightblue" points="97.41,-227.97 106.16,-221.99 95.59,-221.21 97.41,-227.97"/>
</g>
<!-- Node39 -->
<g id="node39" class="node">
<title>Node39</title>
<g id="a_node39"><a xlink:href="classProgramArgs.html#a1056310905a8c465549d1abcd54942c3" target="_top" xlink:title="This function is used to get the value of a switch.">
<polygon fill="none" stroke="black" points="105.5,-164.93 105.5,-183.93 239.5,-183.93 239.5,-164.93 105.5,-164.93"/>
<text text-anchor="middle" x="172.5" y="-171.93" font-family="Helvetica,sans-Serif" font-size="10.00">ProgramArgs::getSwitch</text>
</a>
</g>
</g>
<!-- Node1&#45;&gt;Node39 -->
<g id="edge70" class="edge">
<title>Node1&#45;&gt;Node39</title>
<path fill="none" stroke="midnightblue" d="M25.69,-259.7C33.32,-243.21 51.13,-209.99 77,-193.43 82.68,-189.8 88.92,-186.83 95.39,-184.42"/>
<polygon fill="midnightblue" stroke="midnightblue" points="96.6,-187.71 105.01,-181.27 94.42,-181.06 96.6,-187.71"/>
</g>
<!-- Node40 -->
<g id="node40" class="node">
<title>Node40</title>
<g id="a_node40"><a xlink:href="classProgramArgs.html#a849066672f4caced42480a76dec02fdd" target="_top" xlink:title="This function is used to parse the command&#45;line arguments and store them in the appropriate class mem...">
<polygon fill="none" stroke="black" points="105.5,-126.93 105.5,-145.93 239.5,-145.93 239.5,-126.93 105.5,-126.93"/>
<text text-anchor="middle" x="172.5" y="-133.93" font-family="Helvetica,sans-Serif" font-size="10.00">ProgramArgs::parseArgs</text>
</a>
</g>
</g>
<!-- Node1&#45;&gt;Node40 -->
<g id="edge71" class="edge">
<title>Node1&#45;&gt;Node40</title>
<path fill="none" stroke="midnightblue" d="M23.24,-259.65C27.74,-237.34 41.99,-182.49 77,-155.43 82.52,-151.17 88.74,-147.79 95.29,-145.12"/>
<polygon fill="midnightblue" stroke="midnightblue" points="96.8,-148.3 105.09,-141.7 94.49,-141.69 96.8,-148.3"/>
</g>
<!-- Node6 -->
<g id="node6" class="node">
<title>Node6</title>
<g id="a_node6"><a xlink:href="basicArithm_8hpp.html#acf222f0bfc4ca97fbdc6db7fe808a9ee" target="_top" xlink:title="Adds two string representations of numbers, and performs with the column method.">
<polygon fill="none" stroke="black" points="350.5,-439.93 350.5,-458.93 385.5,-458.93 385.5,-439.93 350.5,-439.93"/>
<text text-anchor="middle" x="368" y="-446.93" font-family="Helvetica,sans-Serif" font-size="10.00">add</text>
</a>
</g>
</g>
<!-- Node5&#45;&gt;Node6 -->
<g id="edge5" class="edge">
<title>Node5&#45;&gt;Node6</title>
<path fill="none" stroke="midnightblue" d="M196.29,-288.35C216.63,-289.3 246.45,-293.3 268,-307.43 314.75,-338.07 345.82,-399.13 359.32,-430.25"/>
<polygon fill="midnightblue" stroke="midnightblue" points="356.13,-431.69 363.23,-439.56 362.59,-428.99 356.13,-431.69"/>
</g>
<!-- Node7 -->
<g id="node7" class="node">
<title>Node7</title>
<g id="a_node7"><a xlink:href="util_8hpp.html#a183c024df291889f90106e47bb64fe0b" target="_top" xlink:title="Checks if a given string is a zero string.">
<polygon fill="none" stroke="black" points="1059,-572.93 1059,-591.93 1135,-591.93 1135,-572.93 1059,-572.93"/>
<text text-anchor="middle" x="1097" y="-579.93" font-family="Helvetica,sans-Serif" font-size="10.00">isZeroString</text>
</a>
</g>
</g>
<!-- Node5&#45;&gt;Node7 -->
<g id="edge51" class="edge">
<title>Node5&#45;&gt;Node7</title>
<path fill="none" stroke="midnightblue" d="M196.4,-286.26C217.99,-285.58 249.7,-288.35 268,-307.43 339.01,-381.47 258.64,-443.42 304,-535.43 362.8,-654.71 377.02,-752.43 510,-752.43 510,-752.43 510,-752.43 762,-752.43 896.42,-752.43 1031.41,-641.71 1078.5,-598.98"/>
<polygon fill="midnightblue" stroke="midnightblue" points="1081.03,-601.41 1086.02,-592.06 1076.29,-596.26 1081.03,-601.41"/>
</g>
<!-- Node13 -->
<g id="node13" class="node">
<title>Node13</title>
<g id="a_node13"><a xlink:href="util_8hpp.html#a7e7fdd236a1593ed0124a3a7dd05946d" target="_top" xlink:title=" ">
<polygon fill="none" stroke="black" points="885,-211.93 885,-230.93 962,-230.93 962,-211.93 885,-211.93"/>
<text text-anchor="middle" x="923.5" y="-218.93" font-family="Helvetica,sans-Serif" font-size="10.00">splitNumber</text>
</a>
</g>
</g>
<!-- Node5&#45;&gt;Node13 -->
<g id="edge67" class="edge">
<title>Node5&#45;&gt;Node13</title>
<path fill="none" stroke="midnightblue" d="M196.04,-288.76C216.5,-288 246.64,-284.14 268,-269.43 292.68,-252.44 281.11,-231.77 304,-212.43 379.79,-148.4 410.79,-126.43 510,-126.43 510,-126.43 510,-126.43 634,-126.43 735.59,-126.43 847.67,-180.23 896.91,-206.86"/>
<polygon fill="midnightblue" stroke="midnightblue" points="895.45,-210.05 905.9,-211.8 898.82,-203.92 895.45,-210.05"/>
</g>
<!-- Node23 -->
<g id="node23" class="node">
<title>Node23</title>
<g id="a_node23"><a xlink:href="util_8hpp.html#a8056dcad90ba9582ba25405a95c2f1e4" target="_top" xlink:title=" ">
<polygon fill="none" stroke="black" points="863.5,-534.93 863.5,-553.93 983.5,-553.93 983.5,-534.93 863.5,-534.93"/>
<text text-anchor="middle" x="923.5" y="-541.93" font-family="Helvetica,sans-Serif" font-size="10.00">removeLeadingZeros</text>
</a>
</g>
</g>
<!-- Node5&#45;&gt;Node23 -->
<g id="edge60" class="edge">
<title>Node5&#45;&gt;Node23</title>
<path fill="none" stroke="midnightblue" d="M196.14,-286.52C217.54,-286.03 249.1,-288.94 268,-307.43 320.4,-358.72 256.94,-412.21 304,-468.43 430.2,-619.2 519.24,-600.67 712,-639.43 754.7,-648.02 769.09,-654.39 810,-639.43 852.15,-624.01 889.4,-585.06 908.65,-562.11"/>
<polygon fill="midnightblue" stroke="midnightblue" points="911.51,-564.14 915.11,-554.17 906.08,-559.71 911.51,-564.14"/>
</g>
<!-- Node26 -->
<g id="node26" class="node">
<title>Node26</title>
<g id="a_node26"><a xlink:href="output_8hpp.html#a1f009ce0a12690c37c88f2adfe9d2e1e" target="_top" xlink:title="Prints an error message.">
<polygon fill="none" stroke="black" points="613,-818.93 613,-837.93 653,-837.93 653,-818.93 613,-818.93"/>
<text text-anchor="middle" x="633" y="-825.93" font-family="Helvetica,sans-Serif" font-size="10.00">error</text>
</a>
</g>
</g>
<!-- Node5&#45;&gt;Node26 -->
<g id="edge40" class="edge">
<title>Node5&#45;&gt;Node26</title>
<path fill="none" stroke="midnightblue" d="M196.32,-285.97C218.17,-285.01 250.35,-287.52 268,-307.43 335.87,-383.99 235.68,-690.27 304,-766.43 381.34,-852.66 537.86,-842.04 602.77,-833.23"/>
<polygon fill="midnightblue" stroke="midnightblue" points="603.33,-836.69 612.73,-831.8 602.33,-829.76 603.33,-836.69"/>
</g>
<!-- Node31 -->
<g id="node31" class="node">
<title>Node31</title>
<g id="a_node31"><a xlink:href="division_8cpp.html#afe2f9d37fbb1090dfb3af32476b43fca" target="_top" xlink:title=" ">
<polygon fill="none" stroke="black" points="304,-306.93 304,-325.93 432,-325.93 432,-306.93 304,-306.93"/>
<text text-anchor="middle" x="368" y="-313.93" font-family="Helvetica,sans-Serif" font-size="10.00">getQuotientRemainder</text>
</a>
</g>
</g>
<!-- Node5&#45;&gt;Node31 -->
<g id="edge48" class="edge">
<title>Node5&#45;&gt;Node31</title>
<path fill="none" stroke="midnightblue" d="M196.08,-291.7C219.94,-295.15 258.85,-300.78 293.52,-305.8"/>
<polygon fill="midnightblue" stroke="midnightblue" points="293.25,-309.3 303.65,-307.26 294.25,-302.37 293.25,-309.3"/>
</g>
<!-- Node32 -->
<g id="node32" class="node">
<title>Node32</title>
<g id="a_node32"><a xlink:href="util_8hpp.html#a93b9ba3fe803c8e3fa1b128f4e83924f" target="_top" xlink:title="Makes the given string wider by adding 2 spaces between each character.">
<polygon fill="none" stroke="black" points="725,-40.93 725,-59.93 797,-59.93 797,-40.93 725,-40.93"/>
<text text-anchor="middle" x="761" y="-47.93" font-family="Helvetica,sans-Serif" font-size="10.00">makeWider</text>
</a>
</g>
</g>
<!-- Node5&#45;&gt;Node32 -->
<g id="edge52" class="edge">
<title>Node5&#45;&gt;Node32</title>
<path fill="none" stroke="midnightblue" d="M196.11,-290.32C217.5,-290.79 249.05,-287.87 268,-269.43 319.3,-219.5 253.44,-163.11 304,-112.43 360.87,-55.43 610.91,-49.75 714.65,-49.92"/>
<polygon fill="midnightblue" stroke="midnightblue" points="714.79,-53.42 724.8,-49.95 714.82,-46.42 714.79,-53.42"/>
</g>
<!-- Node33 -->
<g id="node33" class="node">
<title>Node33</title>
<g id="a_node33"><a xlink:href="basicArithm_8hpp.html#ac99d69ea51545fe30da4a36290f3fedc" target="_top" xlink:title="Multiplies two string representations of numbers.">
<polygon fill="none" stroke="black" points="482.5,-192.93 482.5,-211.93 539.5,-211.93 539.5,-192.93 482.5,-192.93"/>
<text text-anchor="middle" x="511" y="-199.93" font-family="Helvetica,sans-Serif" font-size="10.00">multiply</text>
</a>
</g>
</g>
<!-- Node5&#45;&gt;Node33 -->
<g id="edge53" class="edge">
<title>Node5&#45;&gt;Node33</title>
<path fill="none" stroke="midnightblue" d="M196.14,-285.74C215.59,-282.99 244.19,-277.91 268,-269.43 285.04,-263.36 287.05,-256.76 304,-250.43 360.93,-229.18 430.33,-215.35 472.3,-208.22"/>
<polygon fill="midnightblue" stroke="midnightblue" points="473.06,-211.64 482.35,-206.55 471.91,-204.74 473.06,-211.64"/>
</g>
<!-- Node35 -->
<g id="node35" class="node">
<title>Node35</title>
<g id="a_node35"><a xlink:href="divisionReport_8cpp.html#a37e4e7cb6fe42ae3131cdc071b038687" target="_top" xlink:title=" ">
<polygon fill="none" stroke="black" points="468,-2.93 468,-21.93 554,-21.93 554,-2.93 468,-2.93"/>
<text text-anchor="middle" x="511" y="-9.93" font-family="Helvetica,sans-Serif" font-size="10.00">reportDivision</text>
</a>
</g>
</g>
<!-- Node5&#45;&gt;Node35 -->
<g id="edge61" class="edge">
<title>Node5&#45;&gt;Node35</title>
<path fill="none" stroke="midnightblue" d="M196,-290.6C217.61,-291.34 249.61,-288.67 268,-269.43 340.4,-193.68 228.54,-109.13 304,-36.43 344.22,2.32 411.33,2.92 457.98,-2.62"/>
<polygon fill="midnightblue" stroke="midnightblue" points="457.53,-6.09 467.9,-3.93 458.44,0.85 457.53,-6.09"/>
</g>
<!-- Node36 -->
<g id="node36" class="node">
<title>Node36</title>
<g id="a_node36"><a xlink:href="divisionReport_8cpp.html#aaebd1f284f6703b7629aa18d21f7ccf2" target="_top" xlink:title=" ">
<polygon fill="none" stroke="black" points="314.5,-259.93 314.5,-278.93 421.5,-278.93 421.5,-259.93 314.5,-259.93"/>
<text text-anchor="middle" x="368" y="-266.93" font-family="Helvetica,sans-Serif" font-size="10.00">reportDivisionStep</text>
</a>
</g>
</g>
<!-- Node5&#45;&gt;Node36 -->
<g id="edge63" class="edge">
<title>Node5&#45;&gt;Node36</title>
<path fill="none" stroke="midnightblue" d="M196.08,-286.21C222.41,-283.63 267.07,-279.24 304.14,-275.6"/>
<polygon fill="midnightblue" stroke="midnightblue" points="304.76,-279.06 314.37,-274.6 304.07,-272.09 304.76,-279.06"/>
</g>
<!-- Node6&#45;&gt;Node7 -->
<g id="edge6" class="edge">
<title>Node6&#45;&gt;Node7</title>
<path fill="none" stroke="midnightblue" d="M380.79,-458.97C422.65,-492.16 569.31,-602.55 712,-639.43 839.86,-672.48 996.95,-621.54 1063.62,-595.83"/>
<polygon fill="midnightblue" stroke="midnightblue" points="1065.13,-599 1073.16,-592.08 1062.57,-592.48 1065.13,-599"/>
</g>
<!-- Node8 -->
<g id="node8" class="node">
<title>Node8</title>
<g id="a_node8"><a xlink:href="addReport_8cpp.html#a790c309eb43b10e2fca286cee3a94ac1" target="_top" xlink:title=" ">
<polygon fill="none" stroke="black" points="728.5,-534.93 728.5,-553.93 793.5,-553.93 793.5,-534.93 728.5,-534.93"/>
<text text-anchor="middle" x="761" y="-541.93" font-family="Helvetica,sans-Serif" font-size="10.00">reportAdd</text>
</a>
</g>
</g>
<!-- Node6&#45;&gt;Node8 -->
<g id="edge7" class="edge">
<title>Node6&#45;&gt;Node8</title>
<path fill="none" stroke="midnightblue" d="M385.6,-453.77C422.36,-463.36 513.43,-486.95 590,-505.43 633.61,-515.96 683.69,-527.36 718.14,-535.11"/>
<polygon fill="midnightblue" stroke="midnightblue" points="717.78,-538.61 728.3,-537.39 719.31,-531.78 717.78,-538.61"/>
</g>
<!-- Node11 -->
<g id="node11" class="node">
<title>Node11</title>
<g id="a_node11"><a xlink:href="namespaceformats.html#a296119cbd1b0c858739af6b363fb262a" target="_top" xlink:title="Set the text format to reverse.">
<polygon fill="none" stroke="black" points="712,-610.93 712,-629.93 810,-629.93 810,-610.93 712,-610.93"/>
<text text-anchor="middle" x="761" y="-617.93" font-family="Helvetica,sans-Serif" font-size="10.00">formats::reverse</text>
</a>
</g>
</g>
<!-- Node6&#45;&gt;Node11 -->
<g id="edge11" class="edge">
<title>Node6&#45;&gt;Node11</title>
<path fill="none" stroke="midnightblue" d="M385.63,-458.31C405.15,-468.62 438.6,-485.94 468,-499.43 559.79,-541.56 670.52,-585.65 725.52,-607.11"/>
<polygon fill="midnightblue" stroke="midnightblue" points="724.53,-610.48 735.12,-610.85 727.07,-603.96 724.53,-610.48"/>
</g>
<!-- Node6&#45;&gt;Node13 -->
<g id="edge13" class="edge">
<title>Node6&#45;&gt;Node13</title>
<path fill="none" stroke="midnightblue" d="M377.83,-439.68C414.17,-400.48 557.64,-255.08 712,-225.43 767.05,-214.86 831.68,-215.52 874.66,-217.74"/>
<polygon fill="midnightblue" stroke="midnightblue" points="874.65,-221.25 884.84,-218.32 875.05,-214.26 874.65,-221.25"/>
</g>
<!-- Node17 -->
<g id="node17" class="node">
<title>Node17</title>
<g id="a_node17"><a xlink:href="basicArithm_8hpp.html#a08faec0b8e863df19e3f978758166482" target="_top" xlink:title="Subtracts one string representation of a number from another string representation of a number.">
<polygon fill="none" stroke="black" points="483,-420.93 483,-439.93 539,-439.93 539,-420.93 483,-420.93"/>
<text text-anchor="middle" x="511" y="-427.93" font-family="Helvetica,sans-Serif" font-size="10.00">subtract</text>
</a>
</g>
</g>
<!-- Node6&#45;&gt;Node17 -->
<g id="edge18" class="edge">
<title>Node6&#45;&gt;Node17</title>
<path fill="none" stroke="midnightblue" d="M385.73,-442.62C407.01,-437.46 444.38,-431.93 472.6,-429.43"/>
<polygon fill="midnightblue" stroke="midnightblue" points="473.22,-432.89 482.92,-428.63 472.68,-425.91 473.22,-432.89"/>
</g>
<!-- Node8&#45;&gt;Node7 -->
<g id="edge8" class="edge">
<title>Node8&#45;&gt;Node7</title>
<path fill="none" stroke="midnightblue" d="M793.7,-552.76C809.34,-556.57 828.55,-560.81 846,-563.43 916.12,-573.97 998.24,-578.79 1048.69,-580.9"/>
<polygon fill="midnightblue" stroke="midnightblue" points="1048.83,-584.41 1058.96,-581.31 1049.11,-577.42 1048.83,-584.41"/>
</g>
<!-- Node9 -->
<g id="node9" class="node">
<title>Node9</title>
<g id="a_node9"><a xlink:href="symbols_8hpp.html#a4c2486dd425b34a3a7b6f64db79add2c" target="_top" xlink:title="Create a subscript string from a normal string.">
<polygon fill="none" stroke="black" points="879,-458.93 879,-477.93 968,-477.93 968,-458.93 879,-458.93"/>
<text text-anchor="middle" x="923.5" y="-465.93" font-family="Helvetica,sans-Serif" font-size="10.00">makeSubscript</text>
</a>
</g>
</g>
<!-- Node8&#45;&gt;Node9 -->
<g id="edge9" class="edge">
<title>Node8&#45;&gt;Node9</title>
<path fill="none" stroke="midnightblue" d="M782.33,-534.81C810.31,-521.56 860.86,-497.62 893,-482.4"/>
<polygon fill="midnightblue" stroke="midnightblue" points="894.8,-485.42 902.34,-477.98 891.8,-479.09 894.8,-485.42"/>
</g>
<!-- Node10 -->
<g id="node10" class="node">
<title>Node10</title>
<g id="a_node10"><a xlink:href="util_8hpp.html#a2c093cfa77eddb403db19eaecf57fa6e" target="_top" xlink:title="Converts a Unicode character to UTF&#45;8 encoding.">
<polygon fill="none" stroke="black" points="1054,-458.93 1054,-477.93 1140,-477.93 1140,-458.93 1054,-458.93"/>
<text text-anchor="middle" x="1097" y="-465.93" font-family="Helvetica,sans-Serif" font-size="10.00">unicodeToUtf8</text>
</a>
</g>
</g>
<!-- Node9&#45;&gt;Node10 -->
<g id="edge10" class="edge">
<title>Node9&#45;&gt;Node10</title>
<path fill="none" stroke="midnightblue" d="M968.22,-468.43C991.23,-468.43 1019.61,-468.43 1043.77,-468.43"/>
<polygon fill="midnightblue" stroke="midnightblue" points="1043.84,-471.93 1053.84,-468.43 1043.84,-464.93 1043.84,-471.93"/>
</g>
<!-- Node12 -->
<g id="node12" class="node">
<title>Node12</title>
<g id="a_node12"><a xlink:href="colors_8cpp.html#aea0b5c095796ad31bd8aa86853337868" target="_top" xlink:title="Check if the output stream is a terminal.">
<polygon fill="none" stroke="black" points="890,-837.93 890,-856.93 957,-856.93 957,-837.93 890,-837.93"/>
<text text-anchor="middle" x="923.5" y="-844.93" font-family="Helvetica,sans-Serif" font-size="10.00">isTerminal</text>
</a>
</g>
</g>
<!-- Node11&#45;&gt;Node12 -->
<g id="edge12" class="edge">
<title>Node11&#45;&gt;Node12</title>
<path fill="none" stroke="midnightblue" d="M768.9,-630.19C793.54,-665.04 877.48,-783.76 909.74,-829.38"/>
<polygon fill="midnightblue" stroke="midnightblue" points="907,-831.57 915.63,-837.71 912.71,-827.53 907,-831.57"/>
</g>
<!-- Node13&#45;&gt;Node7 -->
<g id="edge14" class="edge">
<title>Node13&#45;&gt;Node7</title>
<path fill="none" stroke="midnightblue" d="M959.77,-230.96C974.73,-236.78 991,-245.8 1001,-259.43 1061.7,-342.13 1001.23,-391.28 1037,-487.43 1047.88,-516.67 1068.35,-546.64 1082.08,-564.9"/>
<polygon fill="midnightblue" stroke="midnightblue" points="1079.34,-567.07 1088.21,-572.86 1084.89,-562.8 1079.34,-567.07"/>
</g>
<!-- Node14 -->
<g id="node14" class="node">
<title>Node14</title>
<g id="a_node14"><a xlink:href="util_8cpp.html#a8056dcad90ba9582ba25405a95c2f1e4" target="_top" xlink:title=" ">
<polygon fill="none" stroke="black" points="1037,-192.93 1037,-211.93 1157,-211.93 1157,-192.93 1037,-192.93"/>
<text text-anchor="middle" x="1097" y="-199.93" font-family="Helvetica,sans-Serif" font-size="10.00">removeLeadingZeros</text>
</a>
</g>
</g>
<!-- Node13&#45;&gt;Node14 -->
<g id="edge15" class="edge">
<title>Node13&#45;&gt;Node14</title>
<path fill="none" stroke="midnightblue" d="M962.14,-217.26C981.12,-215.16 1004.75,-212.54 1026.85,-210.09"/>
<polygon fill="midnightblue" stroke="midnightblue" points="1027.33,-213.56 1036.88,-208.98 1026.56,-206.6 1027.33,-213.56"/>
</g>
<!-- Node15 -->
<g id="node15" class="node">
<title>Node15</title>
<g id="a_node15"><a xlink:href="util_8cpp.html#a7f0f5e18cd1b1507ace9b814e6286dda" target="_top" xlink:title=" ">
<polygon fill="none" stroke="black" points="1038.5,-230.93 1038.5,-249.93 1155.5,-249.93 1155.5,-230.93 1038.5,-230.93"/>
<text text-anchor="middle" x="1097" y="-237.93" font-family="Helvetica,sans-Serif" font-size="10.00">removeTrailingZeros</text>
</a>
</g>
</g>
<!-- Node13&#45;&gt;Node15 -->
<g id="edge16" class="edge">
<title>Node13&#45;&gt;Node15</title>
<path fill="none" stroke="midnightblue" d="M962.14,-225.6C981.46,-227.74 1005.6,-230.42 1028.05,-232.9"/>
<polygon fill="midnightblue" stroke="midnightblue" points="1027.89,-236.41 1038.22,-234.03 1028.66,-229.45 1027.89,-236.41"/>
</g>
<!-- Node16 -->
<g id="node16" class="node">
<title>Node16</title>
<g id="a_node16"><a xlink:href="util_8hpp.html#a771e8f4ac1c095d4c0fef2c966cd69d7" target="_top" xlink:title="Splits a string into substrings based on a separator.">
<polygon fill="none" stroke="black" points="1078,-107.93 1078,-126.93 1116,-126.93 1116,-107.93 1078,-107.93"/>
<text text-anchor="middle" x="1097" y="-114.93" font-family="Helvetica,sans-Serif" font-size="10.00">split</text>
</a>
</g>
</g>
<!-- Node13&#45;&gt;Node16 -->
<g id="edge17" class="edge">
<title>Node13&#45;&gt;Node16</title>
<path fill="none" stroke="midnightblue" d="M940.33,-211.83C970.32,-193.65 1035.62,-154.05 1071.38,-132.36"/>
<polygon fill="midnightblue" stroke="midnightblue" points="1073.48,-135.18 1080.21,-127.01 1069.85,-129.2 1073.48,-135.18"/>
</g>
<!-- Node17&#45;&gt;Node6 -->
<g id="edge19" class="edge">
<title>Node17&#45;&gt;Node6</title>
<path fill="none" stroke="midnightblue" d="M482.92,-439.53C457.9,-444.64 420.93,-449.62 395.95,-451.24"/>
<polygon fill="midnightblue" stroke="midnightblue" points="395.55,-447.76 385.73,-451.73 395.88,-454.75 395.55,-447.76"/>
</g>
<!-- Node17&#45;&gt;Node7 -->
<g id="edge25" class="edge">
<title>Node17&#45;&gt;Node7</title>
<path fill="none" stroke="midnightblue" d="M519.69,-439.98C532.7,-455.59 560.51,-486.69 590,-505.43 624.55,-527.39 639.81,-519.28 676,-538.43 693.22,-547.54 693.92,-556.18 712,-563.43 825.91,-609.09 974.26,-598.97 1048.83,-589.63"/>
<polygon fill="midnightblue" stroke="midnightblue" points="1049.39,-593.09 1058.86,-588.33 1048.49,-586.15 1049.39,-593.09"/>
</g>
<!-- Node17&#45;&gt;Node11 -->
<g id="edge30" class="edge">
<title>Node17&#45;&gt;Node11</title>
<path fill="none" stroke="midnightblue" d="M516.79,-440.02C527.43,-460.5 554.9,-509.02 590,-538.43 628.92,-571.03 682.99,-594.21 719.63,-607.43"/>
<polygon fill="midnightblue" stroke="midnightblue" points="718.88,-610.87 729.47,-610.89 721.2,-604.27 718.88,-610.87"/>
</g>
<!-- Node17&#45;&gt;Node13 -->
<g id="edge31" class="edge">
<title>Node17&#45;&gt;Node13</title>
<path fill="none" stroke="midnightblue" d="M519.42,-420.64C543.35,-389.92 622.11,-295.14 712,-255.43 764.51,-232.24 830.64,-224.67 874.63,-222.3"/>
<polygon fill="midnightblue" stroke="midnightblue" points="874.93,-225.79 884.76,-221.83 874.61,-218.8 874.93,-225.79"/>
</g>
<!-- Node18 -->
<g id="node18" class="node">
<title>Node18</title>
<g id="a_node18"><a xlink:href="basicArithm_8hpp.html#aabb709fcb471467879352bf51bb0030a" target="_top" xlink:title="Compares two string representations of numbers.">
<polygon fill="none" stroke="black" points="731.5,-306.93 731.5,-325.93 790.5,-325.93 790.5,-306.93 731.5,-306.93"/>
<text text-anchor="middle" x="761" y="-313.93" font-family="Helvetica,sans-Serif" font-size="10.00">compare</text>
</a>
</g>
</g>
<!-- Node17&#45;&gt;Node18 -->
<g id="edge20" class="edge">
<title>Node17&#45;&gt;Node18</title>
<path fill="none" stroke="midnightblue" d="M532.72,-420.91C576.57,-400.75 678.94,-353.69 729.97,-330.24"/>
<polygon fill="midnightblue" stroke="midnightblue" points="731.54,-333.36 739.17,-326.01 728.62,-327 731.54,-333.36"/>
</g>
<!-- Node22 -->
<g id="node22" class="node">
<title>Node22</title>
<g id="a_node22"><a xlink:href="subtractReport_8cpp.html#ad21f3d209885b1c419ff73800bb3b33b" target="_top" xlink:title=" ">
<polygon fill="none" stroke="black" points="718,-458.93 718,-477.93 804,-477.93 804,-458.93 718,-458.93"/>
<text text-anchor="middle" x="761" y="-465.93" font-family="Helvetica,sans-Serif" font-size="10.00">reportSubtract</text>
</a>
</g>
</g>
<!-- Node17&#45;&gt;Node22 -->
<g id="edge26" class="edge">
<title>Node17&#45;&gt;Node22</title>
<path fill="none" stroke="midnightblue" d="M539.11,-432.68C571.74,-435.58 628.11,-441.26 676,-449.43 687.63,-451.41 700.07,-453.98 711.71,-456.58"/>
<polygon fill="midnightblue" stroke="midnightblue" points="711.17,-460.05 721.7,-458.86 712.73,-453.22 711.17,-460.05"/>
</g>
<!-- Node25 -->
<g id="node25" class="node">
<title>Node25</title>
<g id="a_node25"><a xlink:href="subtract_8cpp.html#ac94acf58b23f19e226b9263fa3a2b0da" target="_top" xlink:title="Subtracts one string representation of a number from another string representation of a number.">
<polygon fill="none" stroke="black" points="605,-458.93 605,-477.93 661,-477.93 661,-458.93 605,-458.93"/>
<text text-anchor="middle" x="633" y="-465.93" font-family="Helvetica,sans-Serif" font-size="10.00">subtract</text>
</a>
</g>
</g>
<!-- Node17&#45;&gt;Node25 -->
<g id="edge32" class="edge">
<title>Node17&#45;&gt;Node25</title>
<path fill="none" stroke="midnightblue" d="M539.23,-439.05C555.8,-444.3 577.18,-451.07 595.24,-456.79"/>
<polygon fill="midnightblue" stroke="midnightblue" points="594.29,-460.16 604.88,-459.84 596.4,-453.49 594.29,-460.16"/>
</g>
<!-- Node18&#45;&gt;Node13 -->
<g id="edge24" class="edge">
<title>Node18&#45;&gt;Node13</title>
<path fill="none" stroke="midnightblue" d="M784.23,-306.91C792.6,-302.92 802.02,-297.92 810,-292.43 827.88,-280.13 828.1,-271.71 846,-259.43 859.61,-250.09 875.85,-241.69 889.85,-235.17"/>
<polygon fill="midnightblue" stroke="midnightblue" points="891.47,-238.29 899.14,-230.98 888.58,-231.91 891.47,-238.29"/>
</g>
<!-- Node19 -->
<g id="node19" class="node">
<title>Node19</title>
<g id="a_node19"><a xlink:href="comparisonReport_8cpp.html#a9837660fa80278748f7f9bc397f5fba4" target="_top" xlink:title=" ">
<polygon fill="none" stroke="black" points="849,-268.93 849,-287.93 998,-287.93 998,-268.93 849,-268.93"/>
<text text-anchor="middle" x="923.5" y="-275.93" font-family="Helvetica,sans-Serif" font-size="10.00">reportComparisonAtInteger</text>
</a>
</g>
</g>
<!-- Node18&#45;&gt;Node19 -->
<g id="edge21" class="edge">
<title>Node18&#45;&gt;Node19</title>
<path fill="none" stroke="midnightblue" d="M790.69,-309.64C813.32,-304.28 845.43,-296.68 872.29,-290.32"/>
<polygon fill="midnightblue" stroke="midnightblue" points="873.37,-293.66 882.3,-287.95 871.76,-286.85 873.37,-293.66"/>
</g>
<!-- Node20 -->
<g id="node20" class="node">
<title>Node20</title>
<g id="a_node20"><a xlink:href="comparisonReport_8cpp.html#adc6ac398c16b4d30ab55b0ec5ceef9f3" target="_top" xlink:title=" ">
<polygon fill="none" stroke="black" points="853.5,-344.93 853.5,-363.93 993.5,-363.93 993.5,-344.93 853.5,-344.93"/>
<text text-anchor="middle" x="923.5" y="-351.93" font-family="Helvetica,sans-Serif" font-size="10.00">reportComparisonByDigit</text>
</a>
</g>
</g>
<!-- Node18&#45;&gt;Node20 -->
<g id="edge22" class="edge">
<title>Node18&#45;&gt;Node20</title>
<path fill="none" stroke="midnightblue" d="M790.69,-323.22C813.32,-328.58 845.43,-336.18 872.29,-342.54"/>
<polygon fill="midnightblue" stroke="midnightblue" points="871.76,-346.01 882.3,-344.91 873.37,-339.2 871.76,-346.01"/>
</g>
<!-- Node21 -->
<g id="node21" class="node">
<title>Node21</title>
<g id="a_node21"><a xlink:href="comparisonReport_8cpp.html#a8bdddfcaa5a1d0339df5705ec6ff2aff" target="_top" xlink:title=" ">
<polygon fill="none" stroke="black" points="846,-306.93 846,-325.93 1001,-325.93 1001,-306.93 846,-306.93"/>
<text text-anchor="middle" x="923.5" y="-313.93" font-family="Helvetica,sans-Serif" font-size="10.00">reportComparisonByPolarity</text>
</a>
</g>
</g>
<!-- Node18&#45;&gt;Node21 -->
<g id="edge23" class="edge">
<title>Node18&#45;&gt;Node21</title>
<path fill="none" stroke="midnightblue" d="M790.69,-316.43C803.54,-316.43 819.44,-316.43 835.7,-316.43"/>
<polygon fill="midnightblue" stroke="midnightblue" points="835.84,-319.93 845.84,-316.43 835.84,-312.93 835.84,-319.93"/>
</g>
<!-- Node22&#45;&gt;Node9 -->
<g id="edge27" class="edge">
<title>Node22&#45;&gt;Node9</title>
<path fill="none" stroke="midnightblue" d="M804.17,-468.43C823.96,-468.43 847.78,-468.43 868.85,-468.43"/>
<polygon fill="midnightblue" stroke="midnightblue" points="868.93,-471.93 878.93,-468.43 868.93,-464.93 868.93,-471.93"/>
</g>
<!-- Node22&#45;&gt;Node23 -->
<g id="edge28" class="edge">
<title>Node22&#45;&gt;Node23</title>
<path fill="none" stroke="midnightblue" d="M782.33,-478.06C810.31,-491.31 860.86,-515.24 893,-530.46"/>
<polygon fill="midnightblue" stroke="midnightblue" points="891.8,-533.77 902.34,-534.88 894.8,-527.44 891.8,-533.77"/>
</g>
<!-- Node24 -->
<g id="node24" class="node">
<title>Node24</title>
<g id="a_node24"><a xlink:href="util_8hpp.html#ac87bf229222a2a4f32b8626281c6c282" target="_top" xlink:title=" ">
<polygon fill="none" stroke="black" points="864,-420.93 864,-439.93 983,-439.93 983,-420.93 864,-420.93"/>
<text text-anchor="middle" x="923.5" y="-427.93" font-family="Helvetica,sans-Serif" font-size="10.00">replaceLeadingZeros</text>
</a>
</g>
</g>
<!-- Node22&#45;&gt;Node24 -->
<g id="edge29" class="edge">
<title>Node22&#45;&gt;Node24</title>
<path fill="none" stroke="midnightblue" d="M802.5,-458.84C823.68,-453.83 849.8,-447.64 872.26,-442.33"/>
<polygon fill="midnightblue" stroke="midnightblue" points="873.37,-445.66 882.29,-439.95 871.75,-438.85 873.37,-445.66"/>
</g>
<!-- Node25&#45;&gt;Node6 -->
<g id="edge33" class="edge">
<title>Node25&#45;&gt;Node6</title>
<path fill="none" stroke="midnightblue" d="M604.68,-466.46C554.07,-462.8 446.3,-455.02 395.96,-451.38"/>
<polygon fill="midnightblue" stroke="midnightblue" points="396.08,-447.88 385.85,-450.65 395.57,-454.86 396.08,-447.88"/>
</g>
<!-- Node25&#45;&gt;Node7 -->
<g id="edge35" class="edge">
<title>Node25&#45;&gt;Node7</title>
<path fill="none" stroke="midnightblue" d="M661.28,-475.84C676.18,-479.7 695.01,-484.25 712,-487.43 839.34,-511.24 878.68,-482.77 1001,-525.43 1028.78,-535.12 1057.28,-553.58 1075.72,-566.87"/>
<polygon fill="midnightblue" stroke="midnightblue" points="1073.79,-569.8 1083.92,-572.92 1077.95,-564.17 1073.79,-569.8"/>
</g>
<!-- Node25&#45;&gt;Node11 -->
<g id="edge37" class="edge">
<title>Node25&#45;&gt;Node11</title>
<path fill="none" stroke="midnightblue" d="M641.93,-478.17C655.99,-495.42 686.21,-532.42 712,-563.43 723.07,-576.75 735.69,-591.73 745.21,-602.98"/>
<polygon fill="midnightblue" stroke="midnightblue" points="742.68,-605.41 751.81,-610.78 748.02,-600.89 742.68,-605.41"/>
</g>
<!-- Node25&#45;&gt;Node13 -->
<g id="edge38" class="edge">
<title>Node25&#45;&gt;Node13</title>
<path fill="none" stroke="midnightblue" d="M635.69,-458.76C641.21,-430 661.37,-344.09 712,-297.43 724.94,-285.51 824.94,-252.41 882.33,-234.07"/>
<polygon fill="midnightblue" stroke="midnightblue" points="883.71,-237.31 892.18,-230.94 881.59,-230.64 883.71,-237.31"/>
</g>
<!-- Node25&#45;&gt;Node18 -->
<g id="edge34" class="edge">
<title>Node25&#45;&gt;Node18</title>
<path fill="none" stroke="midnightblue" d="M641.88,-458.92C662.57,-433.97 718.64,-366.33 745.4,-334.04"/>
<polygon fill="midnightblue" stroke="midnightblue" points="748.43,-335.87 752.12,-325.94 743.04,-331.4 748.43,-335.87"/>
</g>
<!-- Node25&#45;&gt;Node22 -->
<g id="edge36" class="edge">
<title>Node25&#45;&gt;Node22</title>
<path fill="none" stroke="midnightblue" d="M661.03,-468.43C674.55,-468.43 691.4,-468.43 707.35,-468.43"/>
<polygon fill="midnightblue" stroke="midnightblue" points="707.65,-471.93 717.65,-468.43 707.65,-464.93 707.65,-471.93"/>
</g>
<!-- Node25&#45;&gt;Node25 -->
<g id="edge39" class="edge">
<title>Node25&#45;&gt;Node25</title>
<path fill="none" stroke="midnightblue" d="M614.2,-478.19C605.05,-487 611.32,-496.43 633,-496.43 646.89,-496.43 654.46,-492.56 655.69,-487.46"/>
<polygon fill="midnightblue" stroke="midnightblue" points="658.9,-486.06 651.8,-478.19 652.44,-488.76 658.9,-486.06"/>
</g>
<!-- Node27 -->
<g id="node27" class="node">
<title>Node27</title>
<g id="a_node27"><a xlink:href="namespaceformats.html#a02e589d39c7fb74bc6095fffeb1480fb" target="_top" xlink:title="Set the text format to bold.">
<polygon fill="none" stroke="black" points="720,-894.93 720,-913.93 802,-913.93 802,-894.93 720,-894.93"/>
<text text-anchor="middle" x="761" y="-901.93" font-family="Helvetica,sans-Serif" font-size="10.00">formats::bold</text>
</a>
</g>
</g>
<!-- Node26&#45;&gt;Node27 -->
<g id="edge41" class="edge">
<title>Node26&#45;&gt;Node27</title>
<path fill="none" stroke="midnightblue" d="M645.27,-838.1C659.9,-850.31 686.59,-871.42 712,-885.43 715.48,-887.35 719.19,-889.17 722.95,-890.87"/>
<polygon fill="midnightblue" stroke="midnightblue" points="721.72,-894.15 732.29,-894.85 724.46,-887.71 721.72,-894.15"/>
</g>
<!-- Node28 -->
<g id="node28" class="node">
<title>Node28</title>
<g id="a_node28"><a xlink:href="namespacecolors.html#ae360f74f6cd6e0fc3de2c245aba4d500" target="_top" xlink:title="Set the text color to red.">
<polygon fill="none" stroke="black" points="727,-856.93 727,-875.93 795,-875.93 795,-856.93 727,-856.93"/>
<text text-anchor="middle" x="761" y="-863.93" font-family="Helvetica,sans-Serif" font-size="10.00">colors::red</text>
</a>
</g>
</g>
<!-- Node26&#45;&gt;Node28 -->
<g id="edge43" class="edge">
<title>Node26&#45;&gt;Node28</title>
<path fill="none" stroke="midnightblue" d="M653.14,-834.2C670.45,-839.42 696.54,-847.29 718.6,-853.95"/>
<polygon fill="midnightblue" stroke="midnightblue" points="717.83,-857.37 728.41,-856.9 719.85,-850.67 717.83,-857.37"/>
</g>
<!-- Node29 -->
<g id="node29" class="node">
<title>Node29</title>
<g id="a_node29"><a xlink:href="colors_8hpp.html#a4661597771a019efa3f0f92cfb0c6e02" target="_top" xlink:title="Reset the text color and format to the default values.">
<polygon fill="none" stroke="black" points="740.5,-818.93 740.5,-837.93 781.5,-837.93 781.5,-818.93 740.5,-818.93"/>
<text text-anchor="middle" x="761" y="-825.93" font-family="Helvetica,sans-Serif" font-size="10.00">reset</text>
</a>
</g>
</g>
<!-- Node26&#45;&gt;Node29 -->
<g id="edge45" class="edge">
<title>Node26&#45;&gt;Node29</title>
<path fill="none" stroke="midnightblue" d="M653.14,-828.43C673.55,-828.43 706.17,-828.43 730.01,-828.43"/>
<polygon fill="midnightblue" stroke="midnightblue" points="730.27,-831.93 740.27,-828.43 730.27,-824.93 730.27,-831.93"/>
</g>
<!-- Node30 -->
<g id="node30" class="node">
<title>Node30</title>
<g id="a_node30"><a xlink:href="format_8hpp.html#aec7a78e0e53305094ec38dc8bd038de8" target="_top" xlink:title="Formats a string using a variable number of arguments.">
<polygon fill="none" stroke="black" points="732.5,-780.93 732.5,-799.93 789.5,-799.93 789.5,-780.93 732.5,-780.93"/>
<text text-anchor="middle" x="761" y="-787.93" font-family="Helvetica,sans-Serif" font-size="10.00">vFormat</text>
</a>
</g>
</g>
<!-- Node26&#45;&gt;Node30 -->
<g id="edge47" class="edge">
<title>Node26&#45;&gt;Node30</title>
<path fill="none" stroke="midnightblue" d="M653.14,-822.66C671.49,-817.13 699.69,-808.62 722.52,-801.73"/>
<polygon fill="midnightblue" stroke="midnightblue" points="723.69,-805.04 732.25,-798.8 721.67,-798.34 723.69,-805.04"/>
</g>
<!-- Node27&#45;&gt;Node12 -->
<g id="edge42" class="edge">
<title>Node27&#45;&gt;Node12</title>
<path fill="none" stroke="midnightblue" d="M788.86,-894.89C815.48,-885.44 856.44,-870.89 886,-860.39"/>
<polygon fill="midnightblue" stroke="midnightblue" points="887.3,-863.65 895.55,-857 884.95,-857.05 887.3,-863.65"/>
</g>
<!-- Node28&#45;&gt;Node12 -->
<g id="edge44" class="edge">
<title>Node28&#45;&gt;Node12</title>
<path fill="none" stroke="midnightblue" d="M795.26,-862.49C819.74,-859.6 853.22,-855.63 879.7,-852.5"/>
<polygon fill="midnightblue" stroke="midnightblue" points="880.32,-855.95 889.84,-851.3 879.49,-849 880.32,-855.95"/>
</g>
<!-- Node29&#45;&gt;Node12 -->
<g id="edge46" class="edge">
<title>Node29&#45;&gt;Node12</title>
<path fill="none" stroke="midnightblue" d="M781.68,-830.76C806,-833.64 848.07,-838.62 879.91,-842.39"/>
<polygon fill="midnightblue" stroke="midnightblue" points="879.51,-845.87 889.85,-843.57 880.33,-838.91 879.51,-845.87"/>
</g>
<!-- Node31&#45;&gt;Node17 -->
<g id="edge50" class="edge">
<title>Node31&#45;&gt;Node17</title>
<path fill="none" stroke="midnightblue" d="M381.02,-326.15C405.27,-345.75 460.24,-390.2 489.99,-414.25"/>
<polygon fill="midnightblue" stroke="midnightblue" points="488.03,-417.17 498.01,-420.74 492.43,-411.73 488.03,-417.17"/>
</g>
<!-- Node31&#45;&gt;Node18 -->
<g id="edge49" class="edge">
<title>Node31&#45;&gt;Node18</title>
<path fill="none" stroke="midnightblue" d="M432.26,-316.43C513.91,-316.43 653.5,-316.43 721.08,-316.43"/>
<polygon fill="midnightblue" stroke="midnightblue" points="721.28,-319.93 731.28,-316.43 721.28,-312.93 721.28,-319.93"/>
</g>
<!-- Node33&#45;&gt;Node7 -->
<g id="edge54" class="edge">
<title>Node33&#45;&gt;Node7</title>
<path fill="none" stroke="midnightblue" d="M523.84,-212.26C553.61,-236.52 634.73,-299.85 712,-335.43 768.23,-361.33 786.15,-357.61 846,-373.43 914.57,-391.55 946.05,-366.59 1001,-411.43 1029.96,-435.06 1019.11,-454.61 1037,-487.43 1051.94,-514.85 1071.4,-545.31 1083.8,-564.17"/>
<polygon fill="midnightblue" stroke="midnightblue" points="1080.98,-566.26 1089.42,-572.67 1086.82,-562.4 1080.98,-566.26"/>
</g>
<!-- Node33&#45;&gt;Node13 -->
<g id="edge59" class="edge">
<title>Node33&#45;&gt;Node13</title>
<path fill="none" stroke="midnightblue" d="M539.5,-194.03C554.31,-189.94 572.98,-185.47 590,-183.43 687.11,-171.77 713.47,-172.72 810,-188.43 836.31,-192.71 865.14,-201.25 887.02,-208.57"/>
<polygon fill="midnightblue" stroke="midnightblue" points="885.96,-211.9 896.56,-211.82 888.23,-205.28 885.96,-211.9"/>
</g>
<!-- Node34 -->
<g id="node34" class="node">
<title>Node34</title>
<g id="a_node34"><a xlink:href="multiplyReport_8cpp.html#a66ad602068d3c80661db7d3cd3069681" target="_top" xlink:title=" ">
<polygon fill="none" stroke="black" points="590,-192.93 590,-211.93 676,-211.93 676,-192.93 590,-192.93"/>
<text text-anchor="middle" x="633" y="-199.93" font-family="Helvetica,sans-Serif" font-size="10.00">reportMultiply</text>
</a>
</g>
</g>
<!-- Node33&#45;&gt;Node34 -->
<g id="edge55" class="edge">
<title>Node33&#45;&gt;Node34</title>
<path fill="none" stroke="midnightblue" d="M539.53,-202.43C551.33,-202.43 565.53,-202.43 579.22,-202.43"/>
<polygon fill="midnightblue" stroke="midnightblue" points="579.54,-205.93 589.54,-202.43 579.54,-198.93 579.54,-205.93"/>
</g>
<!-- Node34&#45;&gt;Node9 -->
<g id="edge56" class="edge">
<title>Node34&#45;&gt;Node9</title>
<path fill="none" stroke="midnightblue" d="M635.93,-212.05C642.11,-240.73 663.91,-326.85 712,-378.43 753.88,-423.35 821.88,-446.83 869.22,-458.39"/>
<polygon fill="midnightblue" stroke="midnightblue" points="868.46,-461.81 879,-460.68 870.06,-454.99 868.46,-461.81"/>
</g>
<!-- Node34&#45;&gt;Node24 -->
<g id="edge58" class="edge">
<title>Node34&#45;&gt;Node24</title>
<path fill="none" stroke="midnightblue" d="M637.32,-212.15C645.97,-236.15 671.39,-298.93 712,-335.43 759.23,-377.88 828.59,-404.17 874.62,-418.04"/>
<polygon fill="midnightblue" stroke="midnightblue" points="873.78,-421.44 884.36,-420.9 875.75,-414.72 873.78,-421.44"/>
</g>
<!-- Node34&#45;&gt;Node32 -->
<g id="edge57" class="edge">
<title>Node34&#45;&gt;Node32</title>
<path fill="none" stroke="midnightblue" d="M641.88,-192.92C662.57,-167.97 718.64,-100.33 745.4,-68.04"/>
<polygon fill="midnightblue" stroke="midnightblue" points="748.43,-69.87 752.12,-59.94 743.04,-65.4 748.43,-69.87"/>
</g>
<!-- Node35&#45;&gt;Node32 -->
<g id="edge62" class="edge">
<title>Node35&#45;&gt;Node32</title>
<path fill="none" stroke="midnightblue" d="M554.17,-18.37C587.31,-23.09 634.64,-29.96 676,-36.43 688.55,-38.4 702.14,-40.62 714.66,-42.71"/>
<polygon fill="midnightblue" stroke="midnightblue" points="714.44,-46.22 724.88,-44.42 715.59,-39.31 714.44,-46.22"/>
</g>
<!-- Node36&#45;&gt;Node16 -->
<g id="edge65" class="edge">
<title>Node36&#45;&gt;Node16</title>
<path fill="none" stroke="midnightblue" d="M375.91,-259.7C403.47,-222.1 510.06,-88.43 632,-88.43 632,-88.43 632,-88.43 762,-88.43 875.73,-88.43 1010.44,-105.33 1067.84,-113.33"/>
<polygon fill="midnightblue" stroke="midnightblue" points="1067.55,-116.82 1077.95,-114.75 1068.53,-109.89 1067.55,-116.82"/>
</g>
<!-- Node36&#45;&gt;Node17 -->
<g id="edge66" class="edge">
<title>Node36&#45;&gt;Node17</title>
<path fill="none" stroke="midnightblue" d="M400.41,-278.94C411.28,-283.32 422.99,-289.38 432,-297.43 468.1,-329.7 492.13,-382.77 503.12,-411.14"/>
<polygon fill="midnightblue" stroke="midnightblue" points="499.92,-412.56 506.69,-420.7 506.47,-410.11 499.92,-412.56"/>
</g>
<!-- Node36&#45;&gt;Node33 -->
<g id="edge64" class="edge">
<title>Node36&#45;&gt;Node33</title>
<path fill="none" stroke="midnightblue" d="M389.2,-259.83C413.18,-248.44 453.35,-229.35 480.73,-216.34"/>
<polygon fill="midnightblue" stroke="midnightblue" points="482.31,-219.47 489.84,-212.01 479.3,-213.14 482.31,-219.47"/>
</g>
</g>
</svg>
