<?xml version="1.0" encoding="UTF-8" standalone="no"?>
<!DOCTYPE svg PUBLIC "-//W3C//DTD SVG 1.1//EN"
 "http://www.w3.org/Graphics/SVG/1.1/DTD/svg11.dtd">
<!-- Generated by graphviz version 2.43.0 (0)
 -->
<!-- Title: reportDivisionStep Pages: 1 -->
<!--zoomable 388 -->
<svg id="main" version="1.1" xmlns="http://www.w3.org/2000/svg" xmlns:xlink="http://www.w3.org/1999/xlink" xml:space="preserve" onload="init(evt)">
<style type="text/css"><![CDATA[
.edge:hover path { stroke: red; }
.edge:hover polygon { stroke: red; fill: red; }
]]></style>
<script type="text/javascript"><![CDATA[
var edges = document.getElementsByTagName('g');
if (edges && edges.length) {
  for (var i=0;i<edges.length;i++) {
    if (edges[i].id.substr(0,4)=='edge') {
      edges[i].setAttribute('class','edge');
    }
  }
}
]]></script>
        <defs>
                <circle id="rim" cx="0" cy="0" r="7"/>
                <circle id="rim2" cx="0" cy="0" r="3.5"/>
                <g id="zoomPlus">
                        <use xlink:href="#rim" fill="#404040">
                                <set attributeName="fill" to="#808080" begin="zoomplus.mouseover" end="zoomplus.mouseout"/>
                        </use>
                        <path d="M-4,0h8M0,-4v8" fill="none" stroke="white" stroke-width="1.5" pointer-events="none"/>
                </g>
                <g id="zoomMin">
                        <use xlink:href="#rim" fill="#404040">
                                <set attributeName="fill" to="#808080" begin="zoomminus.mouseover" end="zoomminus.mouseout"/>
                        </use>
                        <path d="M-4,0h8" fill="none" stroke="white" stroke-width="1.5" pointer-events="none"/>
                </g>
                <g id="dirArrow">
                        <path fill="none" stroke="white" stroke-width="1.5" d="M0,-3.0v7 M-2.5,-0.5L0,-3.0L2.5,-0.5"/>
                </g>
               <g id="resetDef">
                       <use xlink:href="#rim2" fill="#404040">
                               <set attributeName="fill" to="#808080" begin="reset.mouseover" end="reset.mouseout"/>
                       </use>
               </g>
        </defs>

<script type="text/javascript">
var viewWidth = 943;
var viewHeight = 388;
var sectionId = 'dynsection-4';
</script>
<script xlink:href="svgpan.js"/>
<svg id="graph" class="graph">
<g id="viewport">
<title>reportDivisionStep</title>
<!-- Node1 -->
<g id="node1" class="node">
<title>Node1</title>
<g id="a_node1"><a xlink:title="Reports a division step.">
<polygon fill="#bfbfbf" stroke="black" points="828,-174.45 828,-193.45 935,-193.45 935,-174.45 828,-174.45"/>
<text text-anchor="middle" x="881.5" y="-181.45" font-family="Helvetica,sans-Serif" font-size="10.00">reportDivisionStep</text>
</a>
</g>
</g>
<!-- Node2 -->
<g id="node2" class="node">
<title>Node2</title>
<g id="a_node2"><a xlink:href="namespacesteppable_1_1____internals_1_1arithmetic.html#a26194ae8ddb44afb942fbf8335ae1730" target="_top" xlink:title="Divides a string representation of a number by another string representation of a number.">
<polygon fill="none" stroke="black" points="668,-168.95 668,-198.95 792,-198.95 792,-168.95 668,-168.95"/>
<text text-anchor="start" x="676" y="-186.95" font-family="Helvetica,sans-Serif" font-size="10.00">steppable::__internals</text>
<text text-anchor="middle" x="730" y="-175.95" font-family="Helvetica,sans-Serif" font-size="10.00">::arithmetic::divide</text>
</a>
</g>
</g>
<!-- Node1&#45;&gt;Node2 -->
<g id="edge1" class="edge">
<title>Node1&#45;&gt;Node2</title>
<path fill="none" stroke="midnightblue" d="M817.64,-183.95C809.21,-183.95 800.58,-183.95 792.18,-183.95"/>
<polygon fill="midnightblue" stroke="midnightblue" points="817.79,-187.45 827.79,-183.95 817.79,-180.45 817.79,-187.45"/>
</g>
<!-- Node3 -->
<g id="node3" class="node">
<title>Node3</title>
<g id="a_node3"><a xlink:href="namespacesteppable_1_1____internals_1_1arithmetic.html#a7e727b70fed2eba6324a6e41d1a1fe03" target="_top" xlink:title=" ">
<polygon fill="none" stroke="black" points="475.5,-338.95 475.5,-368.95 615.5,-368.95 615.5,-338.95 475.5,-338.95"/>
<text text-anchor="start" x="483.5" y="-356.95" font-family="Helvetica,sans-Serif" font-size="10.00">steppable::__internals</text>
<text text-anchor="middle" x="545.5" y="-345.95" font-family="Helvetica,sans-Serif" font-size="10.00">::arithmetic::baseConvert</text>
</a>
</g>
</g>
<!-- Node2&#45;&gt;Node3 -->
<g id="edge2" class="edge">
<title>Node2&#45;&gt;Node3</title>
<path fill="none" stroke="midnightblue" d="M715.67,-208.17C699.13,-236.38 668.6,-282.95 632,-312.95 619.01,-323.6 602.8,-332.27 588,-338.85"/>
<polygon fill="midnightblue" stroke="midnightblue" points="718.78,-209.77 720.73,-199.36 712.71,-206.29 718.78,-209.77"/>
</g>
<!-- Node5 -->
<g id="node5" class="node">
<title>Node5</title>
<g id="a_node5"><a xlink:href="namespacesteppable_1_1____internals_1_1arithmetic.html#ac9102075acd398b3bdf388f6cc2ef978" target="_top" xlink:title=" ">
<polygon fill="none" stroke="black" points="459,-272.95 459,-302.95 632,-302.95 632,-272.95 459,-272.95"/>
<text text-anchor="start" x="467" y="-290.95" font-family="Helvetica,sans-Serif" font-size="10.00">steppable::__internals</text>
<text text-anchor="middle" x="545.5" y="-279.95" font-family="Helvetica,sans-Serif" font-size="10.00">::arithmetic::divideWithQuotient</text>
</a>
</g>
</g>
<!-- Node2&#45;&gt;Node5 -->
<g id="edge4" class="edge">
<title>Node2&#45;&gt;Node5</title>
<path fill="none" stroke="midnightblue" d="M704.86,-205.83C686.08,-221.95 658.8,-243.5 632,-257.95 621.34,-263.7 609.36,-268.71 597.81,-272.9"/>
<polygon fill="midnightblue" stroke="midnightblue" points="707.37,-208.28 712.6,-199.07 702.77,-203.01 707.37,-208.28"/>
</g>
<!-- Node7 -->
<g id="node7" class="node">
<title>Node7</title>
<g id="a_node7"><a xlink:href="bindings_8cpp.html#a666bdddd9974c5edbfc711175806eccd" target="_top" xlink:title=" ">
<polygon fill="none" stroke="black" points="113.5,-234.45 113.5,-253.45 226.5,-253.45 226.5,-234.45 113.5,-234.45"/>
<text text-anchor="middle" x="170" y="-241.45" font-family="Helvetica,sans-Serif" font-size="10.00">PYBIND11_MODULE</text>
</a>
</g>
</g>
<!-- Node2&#45;&gt;Node7 -->
<g id="edge9" class="edge">
<title>Node2&#45;&gt;Node7</title>
<path fill="none" stroke="midnightblue" d="M691.3,-203.62C673.76,-211.78 652.32,-220.4 632,-224.95 488.77,-257.07 314.38,-252.94 226.83,-248"/>
<polygon fill="midnightblue" stroke="midnightblue" points="693.11,-206.63 700.62,-199.16 690.09,-200.32 693.11,-206.63"/>
</g>
<!-- Node8 -->
<g id="node8" class="node">
<title>Node8</title>
<g id="a_node8"><a xlink:href="division_8cpp.html#a065a3ee9a7ec43a06ab2fddbc3019a17" target="_top" xlink:title=" ">
<polygon fill="none" stroke="black" points="525,-196.45 525,-215.45 566,-215.45 566,-196.45 525,-196.45"/>
<text text-anchor="middle" x="545.5" y="-203.45" font-family="Helvetica,sans-Serif" font-size="10.00">main</text>
</a>
</g>
</g>
<!-- Node2&#45;&gt;Node8 -->
<g id="edge7" class="edge">
<title>Node2&#45;&gt;Node8</title>
<path fill="none" stroke="midnightblue" d="M657.85,-192.53C624.77,-196.52 587.98,-200.95 566.06,-203.6"/>
<polygon fill="midnightblue" stroke="midnightblue" points="658.47,-195.98 667.98,-191.31 657.63,-189.03 658.47,-195.98"/>
</g>
<!-- Node9 -->
<g id="node9" class="node">
<title>Node9</title>
<g id="a_node9"><a xlink:href="classsteppable_1_1Number.html#aa66cc95056779a87d04caaf621b662bb" target="_top" xlink:title="Divides two numbers.">
<polygon fill="none" stroke="black" points="487.5,-146.95 487.5,-176.95 603.5,-176.95 603.5,-146.95 487.5,-146.95"/>
<text text-anchor="start" x="495.5" y="-164.95" font-family="Helvetica,sans-Serif" font-size="10.00">steppable::Number::</text>
<text text-anchor="middle" x="545.5" y="-153.95" font-family="Helvetica,sans-Serif" font-size="10.00">operator/</text>
</a>
</g>
</g>
<!-- Node2&#45;&gt;Node9 -->
<g id="edge8" class="edge">
<title>Node2&#45;&gt;Node9</title>
<path fill="none" stroke="midnightblue" d="M657.86,-175.38C639.93,-173.22 620.91,-170.92 603.76,-168.86"/>
<polygon fill="midnightblue" stroke="midnightblue" points="657.63,-178.88 667.98,-176.6 658.47,-171.93 657.63,-178.88"/>
</g>
<!-- Node10 -->
<g id="node10" class="node">
<title>Node10</title>
<g id="a_node10"><a xlink:href="powerReport_8cpp.html#afff5f8aa771cf432836ef03f6f442dae" target="_top" xlink:title="Reports a power operation.">
<polygon fill="none" stroke="black" points="507.5,-108.45 507.5,-127.45 583.5,-127.45 583.5,-108.45 507.5,-108.45"/>
<text text-anchor="middle" x="545.5" y="-115.45" font-family="Helvetica,sans-Serif" font-size="10.00">reportPower</text>
</a>
</g>
</g>
<!-- Node2&#45;&gt;Node10 -->
<g id="edge10" class="edge">
<title>Node2&#45;&gt;Node10</title>
<path fill="none" stroke="midnightblue" d="M692.32,-164.28C674.49,-155.32 652.53,-145.13 632,-137.95 616.46,-132.52 598.81,-128.11 583.6,-124.83"/>
<polygon fill="midnightblue" stroke="midnightblue" points="690.73,-167.41 701.23,-168.84 693.92,-161.17 690.73,-167.41"/>
</g>
<!-- Node17 -->
<g id="node17" class="node">
<title>Node17</title>
<g id="a_node17"><a xlink:href="classsteppable_1_1Fraction.html#a9cf64d847c268d9334775c572ef75dfa" target="_top" xlink:title="Simplifies a fraction. This function simplifies the fraction by dividing the top and bottom component...">
<polygon fill="none" stroke="black" points="490.5,-58.95 490.5,-88.95 600.5,-88.95 600.5,-58.95 490.5,-58.95"/>
<text text-anchor="start" x="498.5" y="-76.95" font-family="Helvetica,sans-Serif" font-size="10.00">steppable::Fraction</text>
<text text-anchor="middle" x="545.5" y="-65.95" font-family="Helvetica,sans-Serif" font-size="10.00">::simplify</text>
</a>
</g>
</g>
<!-- Node2&#45;&gt;Node17 -->
<g id="edge19" class="edge">
<title>Node2&#45;&gt;Node17</title>
<path fill="none" stroke="midnightblue" d="M708.77,-161.39C690.46,-142.24 661.85,-115.34 632,-98.95 622.37,-93.67 611.51,-89.39 600.84,-85.97"/>
<polygon fill="midnightblue" stroke="midnightblue" points="706.34,-163.92 715.73,-168.82 711.45,-159.13 706.34,-163.92"/>
</g>
<!-- Node4 -->
<g id="node4" class="node">
<title>Node4</title>
<g id="a_node4"><a xlink:href="baseConvert_8cpp.html#ae66f6b31b5ad750f1fe042a706a4e3d4" target="_top" xlink:title=" ">
<polygon fill="none" stroke="black" points="340.5,-360.45 340.5,-379.45 381.5,-379.45 381.5,-360.45 340.5,-360.45"/>
<text text-anchor="middle" x="361" y="-367.45" font-family="Helvetica,sans-Serif" font-size="10.00">main</text>
</a>
</g>
</g>
<!-- Node3&#45;&gt;Node4 -->
<g id="edge3" class="edge">
<title>Node3&#45;&gt;Node4</title>
<path fill="none" stroke="midnightblue" d="M464.93,-360.93C434.27,-363.62 401.82,-366.46 381.74,-368.22"/>
<polygon fill="midnightblue" stroke="midnightblue" points="465.59,-364.39 475.24,-360.03 464.98,-357.41 465.59,-364.39"/>
</g>
<!-- Node6 -->
<g id="node6" class="node">
<title>Node6</title>
<g id="a_node6"><a xlink:href="classsteppable_1_1Number.html#a6e98fb3dedfd70f3956e9d299733a58d" target="_top" xlink:title="Calculates the remainder of two numbers. (Modulus)">
<polygon fill="none" stroke="black" points="303,-310.95 303,-340.95 419,-340.95 419,-310.95 303,-310.95"/>
<text text-anchor="start" x="311" y="-328.95" font-family="Helvetica,sans-Serif" font-size="10.00">steppable::Number::</text>
<text text-anchor="middle" x="361" y="-317.95" font-family="Helvetica,sans-Serif" font-size="10.00">operator%</text>
</a>
</g>
</g>
<!-- Node5&#45;&gt;Node6 -->
<g id="edge5" class="edge">
<title>Node5&#45;&gt;Node6</title>
<path fill="none" stroke="midnightblue" d="M462.36,-305.06C447.81,-308.09 432.95,-311.18 419.27,-314.03"/>
<polygon fill="midnightblue" stroke="midnightblue" points="463.29,-308.44 472.37,-302.97 461.87,-301.58 463.29,-308.44"/>
</g>
<!-- Node5&#45;&gt;Node7 -->
<g id="edge6" class="edge">
<title>Node5&#45;&gt;Node7</title>
<path fill="none" stroke="midnightblue" d="M448.61,-276.66C378.29,-268.37 285.24,-257.41 226.75,-250.52"/>
<polygon fill="midnightblue" stroke="midnightblue" points="448.47,-280.17 458.81,-277.86 449.29,-273.21 448.47,-280.17"/>
</g>
<!-- Node11 -->
<g id="node11" class="node">
<title>Node11</title>
<g id="a_node11"><a xlink:href="namespacesteppable_1_1____internals_1_1arithmetic.html#a50acfa1ad06ce385943ddd207146c9e0" target="_top" xlink:title="Raises a string representation of a number to a power.">
<polygon fill="none" stroke="black" points="299,-104.95 299,-134.95 423,-134.95 423,-104.95 299,-104.95"/>
<text text-anchor="start" x="307" y="-122.95" font-family="Helvetica,sans-Serif" font-size="10.00">steppable::__internals</text>
<text text-anchor="middle" x="361" y="-111.95" font-family="Helvetica,sans-Serif" font-size="10.00">::arithmetic::power</text>
</a>
</g>
</g>
<!-- Node10&#45;&gt;Node11 -->
<g id="edge11" class="edge">
<title>Node10&#45;&gt;Node11</title>
<path fill="none" stroke="midnightblue" d="M497.1,-118.47C474.49,-118.72 447.17,-119.02 423.03,-119.29"/>
<polygon fill="midnightblue" stroke="midnightblue" points="497.17,-121.97 507.13,-118.36 497.09,-114.97 497.17,-121.97"/>
</g>
<!-- Node11&#45;&gt;Node7 -->
<g id="edge18" class="edge">
<title>Node11&#45;&gt;Node7</title>
<path fill="none" stroke="midnightblue" d="M333.21,-141.25C314.08,-156.1 287.51,-176.02 263,-191.95 238.24,-208.06 208.23,-224.47 189.37,-234.44"/>
<polygon fill="midnightblue" stroke="midnightblue" points="335.45,-143.93 341.18,-135.02 331.14,-138.42 335.45,-143.93"/>
</g>
<!-- Node12 -->
<g id="node12" class="node">
<title>Node12</title>
<g id="a_node12"><a xlink:href="namespacesteppable_1_1____internals_1_1arithmetic.html#afc4c4f319dadbb5b1ff481132f008374" target="_top" xlink:title="Converts a string representation of a number from one base to another.">
<polygon fill="none" stroke="black" points="92,-151.95 92,-181.95 248,-181.95 248,-151.95 92,-151.95"/>
<text text-anchor="start" x="100" y="-169.95" font-family="Helvetica,sans-Serif" font-size="10.00">steppable::__internals</text>
<text text-anchor="middle" x="170" y="-158.95" font-family="Helvetica,sans-Serif" font-size="10.00">::arithmetic::decimalConvert</text>
</a>
</g>
</g>
<!-- Node11&#45;&gt;Node12 -->
<g id="edge12" class="edge">
<title>Node11&#45;&gt;Node12</title>
<path fill="none" stroke="midnightblue" d="M289.79,-137.41C270.61,-142.18 249.98,-147.31 231.4,-151.93"/>
<polygon fill="midnightblue" stroke="midnightblue" points="290.82,-140.76 299.68,-134.95 289.13,-133.97 290.82,-140.76"/>
</g>
<!-- Node14 -->
<g id="node14" class="node">
<title>Node14</title>
<g id="a_node14"><a xlink:href="namespacesteppable_1_1____internals_1_1arithmetic.html#aa150ef39a272f7228ae239679247fab3" target="_top" xlink:title="Determines the scale of the quotient of division.">
<polygon fill="none" stroke="black" points="77,-14.95 77,-44.95 263,-44.95 263,-14.95 77,-14.95"/>
<text text-anchor="start" x="85" y="-32.95" font-family="Helvetica,sans-Serif" font-size="10.00">steppable::__internals</text>
<text text-anchor="middle" x="170" y="-21.95" font-family="Helvetica,sans-Serif" font-size="10.00">::arithmetic::determineResultScale</text>
</a>
</g>
</g>
<!-- Node11&#45;&gt;Node14 -->
<g id="edge14" class="edge">
<title>Node11&#45;&gt;Node14</title>
<path fill="none" stroke="midnightblue" d="M333.79,-98.46C315.07,-84.05 288.73,-65.64 263,-53.95 255.64,-50.61 247.72,-47.67 239.73,-45.09"/>
<polygon fill="midnightblue" stroke="midnightblue" points="331.8,-101.34 341.83,-104.76 336.12,-95.83 331.8,-101.34"/>
</g>
<!-- Node15 -->
<g id="node15" class="node">
<title>Node15</title>
<g id="a_node15"><a xlink:href="power_8cpp.html#a065a3ee9a7ec43a06ab2fddbc3019a17" target="_top" xlink:title=" ">
<polygon fill="none" stroke="black" points="149.5,-113.45 149.5,-132.45 190.5,-132.45 190.5,-113.45 149.5,-113.45"/>
<text text-anchor="middle" x="170" y="-120.45" font-family="Helvetica,sans-Serif" font-size="10.00">main</text>
</a>
</g>
</g>
<!-- Node11&#45;&gt;Node15 -->
<g id="edge16" class="edge">
<title>Node11&#45;&gt;Node15</title>
<path fill="none" stroke="midnightblue" d="M288.67,-121.09C253.6,-121.64 214.01,-122.27 190.85,-122.64"/>
<polygon fill="midnightblue" stroke="midnightblue" points="288.95,-124.58 298.9,-120.92 288.84,-117.58 288.95,-124.58"/>
</g>
<!-- Node16 -->
<g id="node16" class="node">
<title>Node16</title>
<g id="a_node16"><a xlink:href="classsteppable_1_1Number.html#aed9d4c238a2876ca951187b6f6173fd9" target="_top" xlink:title="Raises the number to a power.">
<polygon fill="none" stroke="black" points="112,-63.95 112,-93.95 228,-93.95 228,-63.95 112,-63.95"/>
<text text-anchor="start" x="120" y="-81.95" font-family="Helvetica,sans-Serif" font-size="10.00">steppable::Number::</text>
<text text-anchor="middle" x="170" y="-70.95" font-family="Helvetica,sans-Serif" font-size="10.00">operator^</text>
</a>
</g>
</g>
<!-- Node11&#45;&gt;Node16 -->
<g id="edge17" class="edge">
<title>Node11&#45;&gt;Node16</title>
<path fill="none" stroke="midnightblue" d="M288.86,-104.52C268.78,-100.16 247.19,-95.48 228.04,-91.33"/>
<polygon fill="midnightblue" stroke="midnightblue" points="288.38,-108 298.9,-106.7 289.87,-101.16 288.38,-108"/>
</g>
<!-- Node13 -->
<g id="node13" class="node">
<title>Node13</title>
<g id="a_node13"><a xlink:href="decimalConvert_8cpp.html#ac2c7bcd6d73ca32ee42312d0fa0b1aa9" target="_top" xlink:title=" ">
<polygon fill="none" stroke="black" points="0,-157.45 0,-176.45 41,-176.45 41,-157.45 0,-157.45"/>
<text text-anchor="middle" x="20.5" y="-164.45" font-family="Helvetica,sans-Serif" font-size="10.00">main</text>
</a>
</g>
</g>
<!-- Node12&#45;&gt;Node13 -->
<g id="edge13" class="edge">
<title>Node12&#45;&gt;Node13</title>
<path fill="none" stroke="midnightblue" d="M81.71,-166.95C66.49,-166.95 52.07,-166.95 41.15,-166.95"/>
<polygon fill="midnightblue" stroke="midnightblue" points="81.79,-170.45 91.79,-166.95 81.79,-163.45 81.79,-170.45"/>
</g>
<!-- Node14&#45;&gt;Node2 -->
<g id="edge15" class="edge">
<title>Node14&#45;&gt;Node2</title>
<path fill="none" stroke="midnightblue" d="M250.75,-13.2C347.27,2.77 511.81,15.85 632,-48.95 681.28,-75.52 711.58,-139.35 723.36,-168.71"/>
<polygon fill="midnightblue" stroke="midnightblue" points="250.03,-9.77 240.76,-14.9 251.2,-16.67 250.03,-9.77"/>
</g>
</g>
</svg>
        <g id="navigator" transform="translate(0 0)" fill="#404254">
                <rect fill="#f2f5e9" fill-opacity="0.5" stroke="#606060" stroke-width=".5" x="0" y="0" width="60" height="60"/>
                <use id="zoomplus" xlink:href="#zoomPlus" x="17" y="9" onmousedown="handleZoom(evt,'in')"/>
                <use id="zoomminus" xlink:href="#zoomMin" x="42" y="9" onmousedown="handleZoom(evt,'out')"/>
                <use id="reset" xlink:href="#resetDef" x="30" y="36" onmousedown="handleReset()"/>
                <g id="arrowUp" xlink:href="#dirArrow" transform="translate(30 24)" onmousedown="handlePan(0,-1)">
                  <use xlink:href="#rim" fill="#404040">
                        <set attributeName="fill" to="#808080" begin="arrowUp.mouseover" end="arrowUp.mouseout"/>
                  </use>
                  <path fill="none" stroke="white" stroke-width="1.5" d="M0,-3.0v7 M-2.5,-0.5L0,-3.0L2.5,-0.5"/>
                </g>
                <g id="arrowRight" xlink:href="#dirArrow" transform="rotate(90) translate(36 -43)" onmousedown="handlePan(1,0)">
                  <use xlink:href="#rim" fill="#404040">
                        <set attributeName="fill" to="#808080" begin="arrowRight.mouseover" end="arrowRight.mouseout"/>
                  </use>
                  <path fill="none" stroke="white" stroke-width="1.5" d="M0,-3.0v7 M-2.5,-0.5L0,-3.0L2.5,-0.5"/>
                </g>
                <g id="arrowDown" xlink:href="#dirArrow" transform="rotate(180) translate(-30 -48)" onmousedown="handlePan(0,1)">
                  <use xlink:href="#rim" fill="#404040">
                        <set attributeName="fill" to="#808080" begin="arrowDown.mouseover" end="arrowDown.mouseout"/>
                  </use>
                  <path fill="none" stroke="white" stroke-width="1.5" d="M0,-3.0v7 M-2.5,-0.5L0,-3.0L2.5,-0.5"/>
                </g>
                <g id="arrowLeft" xlink:href="#dirArrow" transform="rotate(270) translate(-36 17)" onmousedown="handlePan(-1,0)">
                  <use xlink:href="#rim" fill="#404040">
                        <set attributeName="fill" to="#808080" begin="arrowLeft.mouseover" end="arrowLeft.mouseout"/>
                  </use>
                  <path fill="none" stroke="white" stroke-width="1.5" d="M0,-3.0v7 M-2.5,-0.5L0,-3.0L2.5,-0.5"/>
                </g>
        </g>
        <svg viewBox="0 0 15 15" width="100%" height="30px" preserveAspectRatio="xMaxYMin meet">
         <g id="arrow_out" transform="scale(0.3 0.3)">
          <a xlink:href="divisionReport_8cpp_aaebd1f284f6703b7629aa18d21f7ccf2_icgraph_org.svg" target="_base">
           <rect id="button" ry="5" rx="5" y="6" x="6" height="38" width="38"
                fill="#f2f5e9" fill-opacity="0.5" stroke="#606060" stroke-width="1.0"/>
           <path id="arrow"
             d="M 11.500037,31.436501 C 11.940474,20.09759 22.043105,11.32322 32.158766,21.979434 L 37.068811,17.246167 C 37.068811,17.246167 37.088388,32 37.088388,32 L 22.160133,31.978069 C 22.160133,31.978069 26.997745,27.140456 26.997745,27.140456 C 18.528582,18.264221 13.291696,25.230495 11.500037,31.436501 z"
             style="fill:#404040;"/>
          </a>
         </g>
        </svg>
</svg>
