<?xml version="1.0" encoding="UTF-8" standalone="no"?>
<!DOCTYPE svg PUBLIC "-//W3C//DTD SVG 1.1//EN"
 "http://www.w3.org/Graphics/SVG/1.1/DTD/svg11.dtd">
<!-- Generated by graphviz version 2.43.0 (0)
 -->
<!-- Title: divide Pages: 1 -->
<!--zoomable 274 -->
<svg id="main" version="1.1" xmlns="http://www.w3.org/2000/svg" xmlns:xlink="http://www.w3.org/1999/xlink" xml:space="preserve" onload="init(evt)">
<style type="text/css"><![CDATA[
.edge:hover path { stroke: red; }
.edge:hover polygon { stroke: red; fill: red; }
]]></style>
<script type="text/javascript"><![CDATA[
var edges = document.getElementsByTagName('g');
if (edges && edges.length) {
  for (var i=0;i<edges.length;i++) {
    if (edges[i].id.substr(0,4)=='edge') {
      edges[i].setAttribute('class','edge');
    }
  }
}
]]></script>
        <defs>
                <circle id="rim" cx="0" cy="0" r="7"/>
                <circle id="rim2" cx="0" cy="0" r="3.5"/>
                <g id="zoomPlus">
                        <use xlink:href="#rim" fill="#404040">
                                <set attributeName="fill" to="#808080" begin="zoomplus.mouseover" end="zoomplus.mouseout"/>
                        </use>
                        <path d="M-4,0h8M0,-4v8" fill="none" stroke="white" stroke-width="1.5" pointer-events="none"/>
                </g>
                <g id="zoomMin">
                        <use xlink:href="#rim" fill="#404040">
                                <set attributeName="fill" to="#808080" begin="zoomminus.mouseover" end="zoomminus.mouseout"/>
                        </use>
                        <path d="M-4,0h8" fill="none" stroke="white" stroke-width="1.5" pointer-events="none"/>
                </g>
                <g id="dirArrow">
                        <path fill="none" stroke="white" stroke-width="1.5" d="M0,-3.0v7 M-2.5,-0.5L0,-3.0L2.5,-0.5"/>
                </g>
               <g id="resetDef">
                       <use xlink:href="#rim2" fill="#404040">
                               <set attributeName="fill" to="#808080" begin="reset.mouseover" end="reset.mouseout"/>
                       </use>
               </g>
        </defs>

<script type="text/javascript">
var viewWidth = 717;
var viewHeight = 274;
var sectionId = 'dynsection-4';
</script>
<script xlink:href="svgpan.js"/>
<svg id="graph" class="graph">
<g id="viewport">
<title>divide</title>
<!-- Node1 -->
<g id="node1" class="node">
<title>Node1</title>
<g id="a_node1"><a xlink:title="Divides a string representation of a number by another string representation of a number.">
<polygon fill="#bfbfbf" stroke="black" points="662,-104.5 662,-123.5 709,-123.5 709,-104.5 662,-104.5"/>
<text text-anchor="middle" x="685.5" y="-111.5" font-family="Helvetica,sans-Serif" font-size="10.00">divide</text>
</a>
</g>
</g>
<!-- Node2 -->
<g id="node2" class="node">
<title>Node2</title>
<g id="a_node2"><a xlink:href="baseConvert_8cpp.html#a6443634f54179f61c6e58098cbb32210" target="_top" xlink:title=" ">
<polygon fill="none" stroke="black" points="93.5,-199.5 93.5,-218.5 171.5,-218.5 171.5,-199.5 93.5,-199.5"/>
<text text-anchor="middle" x="132.5" y="-206.5" font-family="Helvetica,sans-Serif" font-size="10.00">baseConvert</text>
</a>
</g>
</g>
<!-- Node1&#45;&gt;Node2 -->
<g id="edge1" class="edge">
<title>Node1&#45;&gt;Node2</title>
<path fill="none" stroke="midnightblue" d="M676.56,-132.84C667.13,-153.23 649.66,-185.58 626,-206 576.45,-248.77 556.96,-266 491.5,-266 491.5,-266 491.5,-266 368,-266 288.6,-266 198.26,-234.77 156.68,-218.54"/>
<polygon fill="midnightblue" stroke="midnightblue" points="679.79,-134.2 680.64,-123.64 673.39,-131.36 679.79,-134.2"/>
</g>
<!-- Node4 -->
<g id="node4" class="node">
<title>Node4</title>
<g id="a_node4"><a xlink:href="basicArithm_8hpp.html#a3b20eba6c9046b375489c668443c165d" target="_top" xlink:title=" ">
<polygon fill="none" stroke="black" points="77,-142.5 77,-161.5 188,-161.5 188,-142.5 77,-142.5"/>
<text text-anchor="middle" x="132.5" y="-149.5" font-family="Helvetica,sans-Serif" font-size="10.00">divideWithQuotient</text>
</a>
</g>
</g>
<!-- Node1&#45;&gt;Node4 -->
<g id="edge3" class="edge">
<title>Node1&#45;&gt;Node4</title>
<path fill="none" stroke="midnightblue" d="M669.12,-131.02C638.6,-162.81 566.84,-228 491.5,-228 491.5,-228 491.5,-228 368,-228 303.45,-228 284.72,-230.93 224,-209 207.93,-203.2 168.21,-176.29 147.14,-161.61"/>
<polygon fill="midnightblue" stroke="midnightblue" points="671.67,-133.41 675.96,-123.72 666.57,-128.62 671.67,-133.41"/>
</g>
<!-- Node5 -->
<g id="node5" class="node">
<title>Node5</title>
<g id="a_node5"><a xlink:href="division_8cpp.html#a065a3ee9a7ec43a06ab2fddbc3019a17" target="_top" xlink:title=" ">
<polygon fill="none" stroke="black" points="112,-66.5 112,-85.5 153,-85.5 153,-66.5 112,-66.5"/>
<text text-anchor="middle" x="132.5" y="-73.5" font-family="Helvetica,sans-Serif" font-size="10.00">main</text>
</a>
</g>
</g>
<!-- Node1&#45;&gt;Node5 -->
<g id="edge4" class="edge">
<title>Node1&#45;&gt;Node5</title>
<path fill="none" stroke="midnightblue" d="M662.26,-98.87C627.46,-76.7 557.28,-38 491.5,-38 491.5,-38 491.5,-38 368,-38 287.37,-38 193.13,-60.16 153.09,-70.64"/>
<polygon fill="midnightblue" stroke="midnightblue" points="660.43,-101.85 670.71,-104.37 664.25,-95.98 660.43,-101.85"/>
</g>
<!-- Node6 -->
<g id="node6" class="node">
<title>Node6</title>
<g id="a_node6"><a xlink:href="powerReport_8cpp.html#afff5f8aa771cf432836ef03f6f442dae" target="_top" xlink:title="Reports a power operation.">
<polygon fill="none" stroke="black" points="550,-104.5 550,-123.5 626,-123.5 626,-104.5 550,-104.5"/>
<text text-anchor="middle" x="588" y="-111.5" font-family="Helvetica,sans-Serif" font-size="10.00">reportPower</text>
</a>
</g>
</g>
<!-- Node1&#45;&gt;Node6 -->
<g id="edge5" class="edge">
<title>Node1&#45;&gt;Node6</title>
<path fill="none" stroke="midnightblue" d="M651.8,-114C643.5,-114 634.53,-114 626.03,-114"/>
<polygon fill="midnightblue" stroke="midnightblue" points="651.87,-117.5 661.87,-114 651.87,-110.5 651.87,-117.5"/>
</g>
<!-- Node12 -->
<g id="node12" class="node">
<title>Node12</title>
<g id="a_node12"><a xlink:href="classFraction.html#a6a5092eb855dac602718b19eb7fe0d6d" target="_top" xlink:title="Simplifies a fraction. This function simplifies the fraction by dividing the top and bottom component...">
<polygon fill="none" stroke="black" points="82,-28.5 82,-47.5 183,-47.5 183,-28.5 82,-28.5"/>
<text text-anchor="middle" x="132.5" y="-35.5" font-family="Helvetica,sans-Serif" font-size="10.00">Fraction::simplify</text>
</a>
</g>
</g>
<!-- Node1&#45;&gt;Node12 -->
<g id="edge17" class="edge">
<title>Node1&#45;&gt;Node12</title>
<path fill="none" stroke="midnightblue" d="M673.33,-95.53C662.9,-79.76 645.98,-57.53 626,-44 573.93,-8.73 554.4,0 491.5,0 491.5,0 491.5,0 368,0 297.06,0 215.59,-17.15 169.76,-28.41"/>
<polygon fill="midnightblue" stroke="midnightblue" points="670.63,-97.82 678.95,-104.38 676.54,-94.06 670.63,-97.82"/>
</g>
<!-- Node3 -->
<g id="node3" class="node">
<title>Node3</title>
<g id="a_node3"><a xlink:href="baseConvert_8cpp.html#ae66f6b31b5ad750f1fe042a706a4e3d4" target="_top" xlink:title=" ">
<polygon fill="none" stroke="black" points="0,-199.5 0,-218.5 41,-218.5 41,-199.5 0,-199.5"/>
<text text-anchor="middle" x="20.5" y="-206.5" font-family="Helvetica,sans-Serif" font-size="10.00">main</text>
</a>
</g>
</g>
<!-- Node2&#45;&gt;Node3 -->
<g id="edge2" class="edge">
<title>Node2&#45;&gt;Node3</title>
<path fill="none" stroke="midnightblue" d="M83.21,-209C68.35,-209 52.82,-209 41.06,-209"/>
<polygon fill="midnightblue" stroke="midnightblue" points="83.34,-212.5 93.34,-209 83.34,-205.5 83.34,-212.5"/>
</g>
<!-- Node7 -->
<g id="node7" class="node">
<title>Node7</title>
<g id="a_node7"><a xlink:href="basicArithm_8hpp.html#a5967cef8aeb4f6ea90014159becd286d" target="_top" xlink:title="Raises a string representation of a number to a power.">
<polygon fill="none" stroke="black" points="467,-123.5 467,-142.5 514,-142.5 514,-123.5 467,-123.5"/>
<text text-anchor="middle" x="490.5" y="-130.5" font-family="Helvetica,sans-Serif" font-size="10.00">power</text>
</a>
</g>
</g>
<!-- Node6&#45;&gt;Node7 -->
<g id="edge6" class="edge">
<title>Node6&#45;&gt;Node7</title>
<path fill="none" stroke="midnightblue" d="M539.78,-123.39C530.83,-125.18 521.86,-126.96 514.12,-128.5"/>
<polygon fill="midnightblue" stroke="midnightblue" points="540.68,-126.78 549.8,-121.4 539.31,-119.92 540.68,-126.78"/>
</g>
<!-- Node8 -->
<g id="node8" class="node">
<title>Node8</title>
<g id="a_node8"><a xlink:href="basicArithm_8hpp.html#aedf78136562346db852758c848f8e83d" target="_top" xlink:title="Converts a string representation of a number from one base to another.">
<polygon fill="none" stroke="black" points="322,-180.5 322,-199.5 416,-199.5 416,-180.5 322,-180.5"/>
<text text-anchor="middle" x="369" y="-187.5" font-family="Helvetica,sans-Serif" font-size="10.00">decimalConvert</text>
</a>
</g>
</g>
<!-- Node7&#45;&gt;Node8 -->
<g id="edge7" class="edge">
<title>Node7&#45;&gt;Node8</title>
<path fill="none" stroke="midnightblue" d="M468.73,-148.49C457.9,-156.04 444.19,-164.81 431,-171 423.27,-174.63 414.67,-177.8 406.42,-180.45"/>
<polygon fill="midnightblue" stroke="midnightblue" points="470.99,-151.18 477.08,-142.52 466.91,-145.49 470.99,-151.18"/>
</g>
<!-- Node10 -->
<g id="node10" class="node">
<title>Node10</title>
<g id="a_node10"><a xlink:href="division_8cpp.html#a222752517a35fde0e4de4bb32cbaa9be" target="_top" xlink:title="Determines the scale of the quotient of division.">
<polygon fill="none" stroke="black" points="307,-142.5 307,-161.5 431,-161.5 431,-142.5 307,-142.5"/>
<text text-anchor="middle" x="369" y="-149.5" font-family="Helvetica,sans-Serif" font-size="10.00">determineResultScale</text>
</a>
</g>
</g>
<!-- Node7&#45;&gt;Node10 -->
<g id="edge9" class="edge">
<title>Node7&#45;&gt;Node10</title>
<path fill="none" stroke="midnightblue" d="M456.73,-138.21C448.39,-139.54 439.17,-141 429.95,-142.47"/>
<polygon fill="midnightblue" stroke="midnightblue" points="457.42,-141.65 466.74,-136.62 456.32,-134.73 457.42,-141.65"/>
</g>
<!-- Node13 -->
<g id="node13" class="node">
<title>Node13</title>
<g id="a_node13"><a xlink:href="power_8cpp.html#a065a3ee9a7ec43a06ab2fddbc3019a17" target="_top" xlink:title=" ">
<polygon fill="none" stroke="black" points="348.5,-104.5 348.5,-123.5 389.5,-123.5 389.5,-104.5 348.5,-104.5"/>
<text text-anchor="middle" x="369" y="-111.5" font-family="Helvetica,sans-Serif" font-size="10.00">main</text>
</a>
</g>
</g>
<!-- Node7&#45;&gt;Node13 -->
<g id="edge16" class="edge">
<title>Node7&#45;&gt;Node13</title>
<path fill="none" stroke="midnightblue" d="M456.71,-127.79C435.16,-124.36 407.69,-119.99 389.51,-117.1"/>
<polygon fill="midnightblue" stroke="midnightblue" points="456.32,-131.27 466.74,-129.38 457.42,-124.35 456.32,-131.27"/>
</g>
<!-- Node9 -->
<g id="node9" class="node">
<title>Node9</title>
<g id="a_node9"><a xlink:href="decimalConvert_8cpp.html#ac2c7bcd6d73ca32ee42312d0fa0b1aa9" target="_top" xlink:title=" ">
<polygon fill="none" stroke="black" points="227,-180.5 227,-199.5 268,-199.5 268,-180.5 227,-180.5"/>
<text text-anchor="middle" x="247.5" y="-187.5" font-family="Helvetica,sans-Serif" font-size="10.00">main</text>
</a>
</g>
</g>
<!-- Node8&#45;&gt;Node9 -->
<g id="edge8" class="edge">
<title>Node8&#45;&gt;Node9</title>
<path fill="none" stroke="midnightblue" d="M311.61,-190C295.97,-190 280.02,-190 268.06,-190"/>
<polygon fill="midnightblue" stroke="midnightblue" points="311.8,-193.5 321.8,-190 311.8,-186.5 311.8,-193.5"/>
</g>
<!-- Node11 -->
<g id="node11" class="node">
<title>Node11</title>
<g id="a_node11"><a xlink:href="basicArithm_8hpp.html#acb4215189a8d1cfd37f4f6fe13890a8f" target="_top" xlink:title="Divides a string representation of a number by another string representation of a number.">
<polygon fill="none" stroke="black" points="224,-104.5 224,-123.5 271,-123.5 271,-104.5 224,-104.5"/>
<text text-anchor="middle" x="247.5" y="-111.5" font-family="Helvetica,sans-Serif" font-size="10.00">divide</text>
</a>
</g>
</g>
<!-- Node10&#45;&gt;Node11 -->
<g id="edge10" class="edge">
<title>Node10&#45;&gt;Node11</title>
<path fill="none" stroke="midnightblue" d="M327.23,-139.38C320.47,-137.26 313.53,-135.08 307,-133 295.2,-129.24 282.08,-124.99 271.26,-121.46"/>
<polygon fill="midnightblue" stroke="midnightblue" points="326.36,-142.77 336.94,-142.41 328.44,-136.09 326.36,-142.77"/>
</g>
<!-- Node11&#45;&gt;Node2 -->
<g id="edge11" class="edge">
<title>Node11&#45;&gt;Node2</title>
<path fill="none" stroke="midnightblue" d="M230.32,-131.19C218.93,-142.92 203.1,-158.52 188,-171 175.37,-181.43 159.99,-191.98 148.79,-199.31"/>
<polygon fill="midnightblue" stroke="midnightblue" points="233.03,-133.42 237.42,-123.78 227.97,-128.57 233.03,-133.42"/>
</g>
<!-- Node11&#45;&gt;Node4 -->
<g id="edge12" class="edge">
<title>Node11&#45;&gt;Node4</title>
<path fill="none" stroke="midnightblue" d="M214.17,-124.87C197.74,-130.4 177.95,-137.05 162.09,-142.39"/>
<polygon fill="midnightblue" stroke="midnightblue" points="215.54,-128.1 223.9,-121.6 213.31,-121.47 215.54,-128.1"/>
</g>
<!-- Node11&#45;&gt;Node5 -->
<g id="edge13" class="edge">
<title>Node11&#45;&gt;Node5</title>
<path fill="none" stroke="midnightblue" d="M214.37,-103.19C194.6,-96.55 169.91,-88.24 153.04,-82.57"/>
<polygon fill="midnightblue" stroke="midnightblue" points="213.31,-106.53 223.9,-106.4 215.54,-99.9 213.31,-106.53"/>
</g>
<!-- Node11&#45;&gt;Node6 -->
<g id="edge14" class="edge">
<title>Node11&#45;&gt;Node6</title>
<path fill="none" stroke="midnightblue" d="M280.65,-101.56C289.1,-98.85 298.28,-96.38 307,-95 393.14,-81.36 495.71,-96.09 549.62,-106.18"/>
<polygon fill="midnightblue" stroke="midnightblue" points="279.48,-98.26 271.15,-104.81 281.75,-104.89 279.48,-98.26"/>
</g>
<!-- Node11&#45;&gt;Node12 -->
<g id="edge15" class="edge">
<title>Node11&#45;&gt;Node12</title>
<path fill="none" stroke="midnightblue" d="M232.07,-96.29C221.11,-83.83 205.05,-67.55 188,-57 181.95,-53.26 175.06,-50.13 168.27,-47.56"/>
<polygon fill="midnightblue" stroke="midnightblue" points="229.65,-98.85 238.8,-104.2 234.98,-94.31 229.65,-98.85"/>
</g>
</g>
</svg>
        <g id="navigator" transform="translate(0 0)" fill="#404254">
                <rect fill="#f2f5e9" fill-opacity="0.5" stroke="#606060" stroke-width=".5" x="0" y="0" width="60" height="60"/>
                <use id="zoomplus" xlink:href="#zoomPlus" x="17" y="9" onmousedown="handleZoom(evt,'in')"/>
                <use id="zoomminus" xlink:href="#zoomMin" x="42" y="9" onmousedown="handleZoom(evt,'out')"/>
                <use id="reset" xlink:href="#resetDef" x="30" y="36" onmousedown="handleReset()"/>
                <g id="arrowUp" xlink:href="#dirArrow" transform="translate(30 24)" onmousedown="handlePan(0,-1)">
                  <use xlink:href="#rim" fill="#404040">
                        <set attributeName="fill" to="#808080" begin="arrowUp.mouseover" end="arrowUp.mouseout"/>
                  </use>
                  <path fill="none" stroke="white" stroke-width="1.5" d="M0,-3.0v7 M-2.5,-0.5L0,-3.0L2.5,-0.5"/>
                </g>
                <g id="arrowRight" xlink:href="#dirArrow" transform="rotate(90) translate(36 -43)" onmousedown="handlePan(1,0)">
                  <use xlink:href="#rim" fill="#404040">
                        <set attributeName="fill" to="#808080" begin="arrowRight.mouseover" end="arrowRight.mouseout"/>
                  </use>
                  <path fill="none" stroke="white" stroke-width="1.5" d="M0,-3.0v7 M-2.5,-0.5L0,-3.0L2.5,-0.5"/>
                </g>
                <g id="arrowDown" xlink:href="#dirArrow" transform="rotate(180) translate(-30 -48)" onmousedown="handlePan(0,1)">
                  <use xlink:href="#rim" fill="#404040">
                        <set attributeName="fill" to="#808080" begin="arrowDown.mouseover" end="arrowDown.mouseout"/>
                  </use>
                  <path fill="none" stroke="white" stroke-width="1.5" d="M0,-3.0v7 M-2.5,-0.5L0,-3.0L2.5,-0.5"/>
                </g>
                <g id="arrowLeft" xlink:href="#dirArrow" transform="rotate(270) translate(-36 17)" onmousedown="handlePan(-1,0)">
                  <use xlink:href="#rim" fill="#404040">
                        <set attributeName="fill" to="#808080" begin="arrowLeft.mouseover" end="arrowLeft.mouseout"/>
                  </use>
                  <path fill="none" stroke="white" stroke-width="1.5" d="M0,-3.0v7 M-2.5,-0.5L0,-3.0L2.5,-0.5"/>
                </g>
        </g>
        <svg viewBox="0 0 15 15" width="100%" height="30px" preserveAspectRatio="xMaxYMin meet">
         <g id="arrow_out" transform="scale(0.3 0.3)">
          <a xlink:href="division_8cpp_ad8fb7bec6096894294df4c15d498dab7_icgraph_org.svg" target="_base">
           <rect id="button" ry="5" rx="5" y="6" x="6" height="38" width="38"
                fill="#f2f5e9" fill-opacity="0.5" stroke="#606060" stroke-width="1.0"/>
           <path id="arrow"
             d="M 11.500037,31.436501 C 11.940474,20.09759 22.043105,11.32322 32.158766,21.979434 L 37.068811,17.246167 C 37.068811,17.246167 37.088388,32 37.088388,32 L 22.160133,31.978069 C 22.160133,31.978069 26.997745,27.140456 26.997745,27.140456 C 18.528582,18.264221 13.291696,25.230495 11.500037,31.436501 z"
             style="fill:#404040;"/>
          </a>
         </g>
        </svg>
</svg>
