<?xml version="1.0" encoding="UTF-8" standalone="no"?>
<!DOCTYPE svg PUBLIC "-//W3C//DTD SVG 1.1//EN"
 "http://www.w3.org/Graphics/SVG/1.1/DTD/svg11.dtd">
<!-- Generated by graphviz version 2.43.0 (0)
 -->
<!-- Title: getGCD Pages: 1 -->
<svg width="289pt" height="88pt"
 viewBox="0.00 0.00 289.00 87.72" xmlns="http://www.w3.org/2000/svg" xmlns:xlink="http://www.w3.org/1999/xlink">
<g id="graph0" class="graph" transform="scale(1 1) rotate(0) translate(4 83.72)">
<title>getGCD</title>
<!-- Node1 -->
<g id="node1" class="node">
<title>Node1</title>
<g id="a_node1"><a xlink:title="Gets the greatest common divisor of two string representations of numbers.">
<polygon fill="#bfbfbf" stroke="black" points="227,-28.5 227,-47.5 281,-47.5 281,-28.5 227,-28.5"/>
<text text-anchor="middle" x="254" y="-35.5" font-family="Helvetica,sans-Serif" font-size="10.00">getGCD</text>
</a>
</g>
</g>
<!-- Node2 -->
<g id="node2" class="node">
<title>Node2</title>
<g id="a_node2"><a xlink:href="basicArithm_8hpp.html#a7b131aff3518e538acc7c87b822e70d2" target="_top" xlink:title="Gets the greatest common divisor of two string representations of numbers.">
<polygon fill="none" stroke="black" points="137,-28.5 137,-47.5 191,-47.5 191,-28.5 137,-28.5"/>
<text text-anchor="middle" x="164" y="-35.5" font-family="Helvetica,sans-Serif" font-size="10.00">getGCD</text>
</a>
</g>
</g>
<!-- Node1&#45;&gt;Node2 -->
<g id="edge1" class="edge">
<title>Node1&#45;&gt;Node2</title>
<path fill="none" stroke="midnightblue" d="M216.48,-38C207.96,-38 199.05,-38 191.08,-38"/>
<polygon fill="midnightblue" stroke="midnightblue" points="216.6,-41.5 226.6,-38 216.6,-34.5 216.6,-41.5"/>
</g>
<!-- Node3 -->
<g id="node3" class="node">
<title>Node3</title>
<g id="a_node3"><a xlink:href="division_8cpp.html#a065a3ee9a7ec43a06ab2fddbc3019a17" target="_top" xlink:title=" ">
<polygon fill="none" stroke="black" points="30,-47.5 30,-66.5 71,-66.5 71,-47.5 30,-47.5"/>
<text text-anchor="middle" x="50.5" y="-54.5" font-family="Helvetica,sans-Serif" font-size="10.00">main</text>
</a>
</g>
</g>
<!-- Node1&#45;&gt;Node3 -->
<g id="edge5" class="edge">
<title>Node1&#45;&gt;Node3</title>
<path fill="none" stroke="midnightblue" d="M232.69,-53.94C221.16,-61.96 206.07,-70.85 191,-75 149.33,-86.49 98.6,-73.49 71.25,-64.37"/>
<polygon fill="midnightblue" stroke="midnightblue" points="235.08,-56.53 241.09,-47.8 230.95,-50.87 235.08,-56.53"/>
</g>
<!-- Node4 -->
<g id="node4" class="node">
<title>Node4</title>
<g id="a_node4"><a xlink:href="classFraction.html#a6a5092eb855dac602718b19eb7fe0d6d" target="_top" xlink:title="Simplifies a fraction. This function simplifies the fraction by dividing the top and bottom component...">
<polygon fill="none" stroke="black" points="0,-0.5 0,-19.5 101,-19.5 101,-0.5 0,-0.5"/>
<text text-anchor="middle" x="50.5" y="-7.5" font-family="Helvetica,sans-Serif" font-size="10.00">Fraction::simplify</text>
</a>
</g>
</g>
<!-- Node1&#45;&gt;Node4 -->
<g id="edge6" class="edge">
<title>Node1&#45;&gt;Node4</title>
<path fill="none" stroke="midnightblue" d="M217.17,-25.47C208.68,-22.94 199.6,-20.57 191,-19 161.52,-13.61 128.01,-11.32 101.23,-10.4"/>
<polygon fill="midnightblue" stroke="midnightblue" points="216.2,-28.84 226.79,-28.48 218.29,-22.16 216.2,-28.84"/>
</g>
<!-- Node2&#45;&gt;Node2 -->
<g id="edge2" class="edge">
<title>Node2&#45;&gt;Node2</title>
<path fill="none" stroke="midnightblue" d="M180.67,-57.4C179.55,-62.31 174,-66 164,-66 148,-66 143.38,-56.57 150.13,-47.76"/>
<polygon fill="midnightblue" stroke="midnightblue" points="184.02,-56.39 177.87,-47.76 177.29,-58.34 184.02,-56.39"/>
</g>
<!-- Node2&#45;&gt;Node3 -->
<g id="edge3" class="edge">
<title>Node2&#45;&gt;Node3</title>
<path fill="none" stroke="midnightblue" d="M126.98,-44.14C108.46,-47.29 86.62,-51.02 71.21,-53.64"/>
<polygon fill="midnightblue" stroke="midnightblue" points="127.59,-47.58 136.86,-42.45 126.41,-40.68 127.59,-47.58"/>
</g>
<!-- Node2&#45;&gt;Node4 -->
<g id="edge4" class="edge">
<title>Node2&#45;&gt;Node4</title>
<path fill="none" stroke="midnightblue" d="M126.84,-28.92C114.97,-25.94 101.75,-22.62 89.73,-19.6"/>
<polygon fill="midnightblue" stroke="midnightblue" points="126.31,-32.39 136.86,-31.44 128.01,-25.6 126.31,-32.39"/>
</g>
</g>
</svg>
