<?xml version="1.0" encoding="UTF-8" standalone="no"?>
<!DOCTYPE svg PUBLIC "-//W3C//DTD SVG 1.1//EN"
 "http://www.w3.org/Graphics/SVG/1.1/DTD/svg11.dtd">
<!-- Generated by graphviz version 2.43.0 (0)
 -->
<!-- Title: getQuotientRemainder Pages: 1 -->
<!--zoomable 408 -->
<svg id="main" version="1.1" xmlns="http://www.w3.org/2000/svg" xmlns:xlink="http://www.w3.org/1999/xlink" xml:space="preserve" onload="init(evt)">
<style type="text/css"><![CDATA[
.edge:hover path { stroke: red; }
.edge:hover polygon { stroke: red; fill: red; }
]]></style>
<script type="text/javascript"><![CDATA[
var edges = document.getElementsByTagName('g');
if (edges && edges.length) {
  for (var i=0;i<edges.length;i++) {
    if (edges[i].id.substr(0,4)=='edge') {
      edges[i].setAttribute('class','edge');
    }
  }
}
]]></script>
        <defs>
                <circle id="rim" cx="0" cy="0" r="7"/>
                <circle id="rim2" cx="0" cy="0" r="3.5"/>
                <g id="zoomPlus">
                        <use xlink:href="#rim" fill="#404040">
                                <set attributeName="fill" to="#808080" begin="zoomplus.mouseover" end="zoomplus.mouseout"/>
                        </use>
                        <path d="M-4,0h8M0,-4v8" fill="none" stroke="white" stroke-width="1.5" pointer-events="none"/>
                </g>
                <g id="zoomMin">
                        <use xlink:href="#rim" fill="#404040">
                                <set attributeName="fill" to="#808080" begin="zoomminus.mouseover" end="zoomminus.mouseout"/>
                        </use>
                        <path d="M-4,0h8" fill="none" stroke="white" stroke-width="1.5" pointer-events="none"/>
                </g>
                <g id="dirArrow">
                        <path fill="none" stroke="white" stroke-width="1.5" d="M0,-3.0v7 M-2.5,-0.5L0,-3.0L2.5,-0.5"/>
                </g>
               <g id="resetDef">
                       <use xlink:href="#rim2" fill="#404040">
                               <set attributeName="fill" to="#808080" begin="reset.mouseover" end="reset.mouseout"/>
                       </use>
               </g>
        </defs>

<script type="text/javascript">
var viewWidth = 765;
var viewHeight = 408;
var sectionId = 'dynsection-10';
</script>
<script xlink:href="svgpan.js"/>
<svg id="graph" class="graph">
<g id="viewport">
<title>getQuotientRemainder</title>
<!-- Node1 -->
<g id="node1" class="node">
<title>Node1</title>
<g id="a_node1"><a xlink:title=" ">
<polygon fill="#bfbfbf" stroke="black" points="629,-190.5 629,-209.5 757,-209.5 757,-190.5 629,-190.5"/>
<text text-anchor="middle" x="693" y="-197.5" font-family="Helvetica,sans-Serif" font-size="10.00">getQuotientRemainder</text>
</a>
</g>
</g>
<!-- Node2 -->
<g id="node2" class="node">
<title>Node2</title>
<g id="a_node2"><a xlink:href="basicArithm_8hpp.html#acb4215189a8d1cfd37f4f6fe13890a8f" target="_top" xlink:title="Divides a string representation of a number by another string representation of a number.">
<polygon fill="none" stroke="black" points="542.5,-171.5 542.5,-190.5 589.5,-190.5 589.5,-171.5 542.5,-171.5"/>
<text text-anchor="middle" x="566" y="-178.5" font-family="Helvetica,sans-Serif" font-size="10.00">divide</text>
</a>
</g>
</g>
<!-- Node1&#45;&gt;Node2 -->
<g id="edge1" class="edge">
<title>Node1&#45;&gt;Node2</title>
<path fill="none" stroke="midnightblue" d="M618.93,-188.89C608.38,-187.29 598.24,-185.75 589.77,-184.46"/>
<polygon fill="midnightblue" stroke="midnightblue" points="618.72,-192.4 629.13,-190.44 619.77,-185.48 618.72,-192.4"/>
</g>
<!-- Node22 -->
<g id="node22" class="node">
<title>Node22</title>
<g id="a_node22"><a xlink:href="basicArithm_8hpp.html#a7b131aff3518e538acc7c87b822e70d2" target="_top" xlink:title="Gets the greatest common divisor of two string representations of numbers.">
<polygon fill="none" stroke="black" points="539,-228.5 539,-247.5 593,-247.5 593,-228.5 539,-228.5"/>
<text text-anchor="middle" x="566" y="-235.5" font-family="Helvetica,sans-Serif" font-size="10.00">getGCD</text>
</a>
</g>
</g>
<!-- Node1&#45;&gt;Node22 -->
<g id="edge22" class="edge">
<title>Node1&#45;&gt;Node22</title>
<path fill="none" stroke="midnightblue" d="M650.82,-212.52C631.78,-218.31 609.75,-225 593.05,-230.08"/>
<polygon fill="midnightblue" stroke="midnightblue" points="651.91,-215.85 660.46,-209.59 649.87,-209.15 651.91,-215.85"/>
</g>
<!-- Node3 -->
<g id="node3" class="node">
<title>Node3</title>
<g id="a_node3"><a xlink:href="baseConvert_8cpp.html#a6443634f54179f61c6e58098cbb32210" target="_top" xlink:title=" ">
<polygon fill="none" stroke="black" points="408.5,-190.5 408.5,-209.5 486.5,-209.5 486.5,-190.5 408.5,-190.5"/>
<text text-anchor="middle" x="447.5" y="-197.5" font-family="Helvetica,sans-Serif" font-size="10.00">baseConvert</text>
</a>
</g>
</g>
<!-- Node2&#45;&gt;Node3 -->
<g id="edge2" class="edge">
<title>Node2&#45;&gt;Node3</title>
<path fill="none" stroke="midnightblue" d="M532.04,-186.38C517.94,-188.67 501.4,-191.37 486.78,-193.76"/>
<polygon fill="midnightblue" stroke="midnightblue" points="532.95,-189.77 542.26,-184.71 531.83,-182.86 532.95,-189.77"/>
</g>
<!-- Node5 -->
<g id="node5" class="node">
<title>Node5</title>
<g id="a_node5"><a xlink:href="basicArithm_8hpp.html#a3b20eba6c9046b375489c668443c165d" target="_top" xlink:title=" ">
<polygon fill="none" stroke="black" points="392,-152.5 392,-171.5 503,-171.5 503,-152.5 392,-152.5"/>
<text text-anchor="middle" x="447.5" y="-159.5" font-family="Helvetica,sans-Serif" font-size="10.00">divideWithQuotient</text>
</a>
</g>
</g>
<!-- Node2&#45;&gt;Node5 -->
<g id="edge4" class="edge">
<title>Node2&#45;&gt;Node5</title>
<path fill="none" stroke="midnightblue" d="M532.15,-175.64C523.08,-174.16 512.99,-172.52 503.05,-170.9"/>
<polygon fill="midnightblue" stroke="midnightblue" points="531.83,-179.14 542.26,-177.29 532.95,-172.23 531.83,-179.14"/>
</g>
<!-- Node7 -->
<g id="node7" class="node">
<title>Node7</title>
<g id="a_node7"><a xlink:href="division_8cpp.html#a065a3ee9a7ec43a06ab2fddbc3019a17" target="_top" xlink:title=" ">
<polygon fill="none" stroke="black" points="427,-228.5 427,-247.5 468,-247.5 468,-228.5 427,-228.5"/>
<text text-anchor="middle" x="447.5" y="-235.5" font-family="Helvetica,sans-Serif" font-size="10.00">main</text>
</a>
</g>
</g>
<!-- Node2&#45;&gt;Node7 -->
<g id="edge6" class="edge">
<title>Node2&#45;&gt;Node7</title>
<path fill="none" stroke="midnightblue" d="M542.67,-196.3C531.15,-203.76 516.68,-212.51 503,-219 491.77,-224.32 478.63,-228.95 468.07,-232.3"/>
<polygon fill="midnightblue" stroke="midnightblue" points="544.79,-199.09 551.2,-190.65 540.93,-193.25 544.79,-199.09"/>
</g>
<!-- Node8 -->
<g id="node8" class="node">
<title>Node8</title>
<g id="a_node8"><a xlink:href="classNumber.html#a149a0b50f21e5e73af612d3d7b8fecb7" target="_top" xlink:title="Divides two numbers.">
<polygon fill="none" stroke="black" points="394.5,-76.5 394.5,-95.5 500.5,-95.5 500.5,-76.5 394.5,-76.5"/>
<text text-anchor="middle" x="447.5" y="-83.5" font-family="Helvetica,sans-Serif" font-size="10.00">Number::operator/</text>
</a>
</g>
</g>
<!-- Node2&#45;&gt;Node8 -->
<g id="edge7" class="edge">
<title>Node2&#45;&gt;Node8</title>
<path fill="none" stroke="midnightblue" d="M552.57,-162.71C541.17,-147.04 523.06,-124.75 503,-110 495,-104.12 485.34,-99.28 476.38,-95.52"/>
<polygon fill="midnightblue" stroke="midnightblue" points="549.84,-164.91 558.47,-171.05 555.56,-160.87 549.84,-164.91"/>
</g>
<!-- Node9 -->
<g id="node9" class="node">
<title>Node9</title>
<g id="a_node9"><a xlink:href="powerReport_8cpp.html#afff5f8aa771cf432836ef03f6f442dae" target="_top" xlink:title="Reports a power operation.">
<polygon fill="none" stroke="black" points="409.5,-38.5 409.5,-57.5 485.5,-57.5 485.5,-38.5 409.5,-38.5"/>
<text text-anchor="middle" x="447.5" y="-45.5" font-family="Helvetica,sans-Serif" font-size="10.00">reportPower</text>
</a>
</g>
</g>
<!-- Node2&#45;&gt;Node9 -->
<g id="edge8" class="edge">
<title>Node2&#45;&gt;Node9</title>
<path fill="none" stroke="midnightblue" d="M559.33,-161.65C550.99,-136.42 533.05,-92.52 503,-67 497.96,-62.72 491.9,-59.38 485.67,-56.79"/>
<polygon fill="midnightblue" stroke="midnightblue" points="556,-162.71 562.33,-171.21 562.68,-160.62 556,-162.71"/>
</g>
<!-- Node16 -->
<g id="node16" class="node">
<title>Node16</title>
<g id="a_node16"><a xlink:href="classFraction.html#a6a5092eb855dac602718b19eb7fe0d6d" target="_top" xlink:title="Simplifies a fraction. This function simplifies the fraction by dividing the top and bottom component...">
<polygon fill="none" stroke="black" points="397,-266.5 397,-285.5 498,-285.5 498,-266.5 397,-266.5"/>
<text text-anchor="middle" x="447.5" y="-273.5" font-family="Helvetica,sans-Serif" font-size="10.00">Fraction::simplify</text>
</a>
</g>
</g>
<!-- Node2&#45;&gt;Node16 -->
<g id="edge16" class="edge">
<title>Node2&#45;&gt;Node16</title>
<path fill="none" stroke="midnightblue" d="M552.27,-198.78C537.82,-218.54 514.73,-248.78 503,-257 497.58,-260.79 491.34,-263.89 485.05,-266.41"/>
<polygon fill="midnightblue" stroke="midnightblue" points="555.2,-200.7 558.23,-190.55 549.53,-196.59 555.2,-200.7"/>
</g>
<!-- Node4 -->
<g id="node4" class="node">
<title>Node4</title>
<g id="a_node4"><a xlink:href="baseConvert_8cpp.html#ae66f6b31b5ad750f1fe042a706a4e3d4" target="_top" xlink:title=" ">
<polygon fill="none" stroke="black" points="276,-190.5 276,-209.5 317,-209.5 317,-190.5 276,-190.5"/>
<text text-anchor="middle" x="296.5" y="-197.5" font-family="Helvetica,sans-Serif" font-size="10.00">main</text>
</a>
</g>
</g>
<!-- Node3&#45;&gt;Node4 -->
<g id="edge3" class="edge">
<title>Node3&#45;&gt;Node4</title>
<path fill="none" stroke="midnightblue" d="M397.89,-200C370.38,-200 337.49,-200 317.05,-200"/>
<polygon fill="midnightblue" stroke="midnightblue" points="398.13,-203.5 408.13,-200 398.13,-196.5 398.13,-203.5"/>
</g>
<!-- Node6 -->
<g id="node6" class="node">
<title>Node6</title>
<g id="a_node6"><a xlink:href="classNumber.html#ad8409f892bbe8cb1be5b4385914b40b2" target="_top" xlink:title="Calculates the remainder of two numbers. (Modulus)">
<polygon fill="none" stroke="black" points="240,-152.5 240,-171.5 353,-171.5 353,-152.5 240,-152.5"/>
<text text-anchor="middle" x="296.5" y="-159.5" font-family="Helvetica,sans-Serif" font-size="10.00">Number::operator%</text>
</a>
</g>
</g>
<!-- Node5&#45;&gt;Node6 -->
<g id="edge5" class="edge">
<title>Node5&#45;&gt;Node6</title>
<path fill="none" stroke="midnightblue" d="M381.66,-162C372.15,-162 362.43,-162 353.13,-162"/>
<polygon fill="midnightblue" stroke="midnightblue" points="381.86,-165.5 391.86,-162 381.86,-158.5 381.86,-165.5"/>
</g>
<!-- Node10 -->
<g id="node10" class="node">
<title>Node10</title>
<g id="a_node10"><a xlink:href="basicArithm_8hpp.html#a5967cef8aeb4f6ea90014159becd286d" target="_top" xlink:title="Raises a string representation of a number to a power.">
<polygon fill="none" stroke="black" points="273,-38.5 273,-57.5 320,-57.5 320,-38.5 273,-38.5"/>
<text text-anchor="middle" x="296.5" y="-45.5" font-family="Helvetica,sans-Serif" font-size="10.00">power</text>
</a>
</g>
</g>
<!-- Node9&#45;&gt;Node10 -->
<g id="edge9" class="edge">
<title>Node9&#45;&gt;Node10</title>
<path fill="none" stroke="midnightblue" d="M399.12,-48C372.79,-48 341.24,-48 320.35,-48"/>
<polygon fill="midnightblue" stroke="midnightblue" points="399.29,-51.5 409.29,-48 399.29,-44.5 399.29,-51.5"/>
</g>
<!-- Node11 -->
<g id="node11" class="node">
<title>Node11</title>
<g id="a_node11"><a xlink:href="basicArithm_8hpp.html#aedf78136562346db852758c848f8e83d" target="_top" xlink:title="Converts a string representation of a number from one base to another.">
<polygon fill="none" stroke="black" points="92,-0.5 92,-19.5 186,-19.5 186,-0.5 92,-0.5"/>
<text text-anchor="middle" x="139" y="-7.5" font-family="Helvetica,sans-Serif" font-size="10.00">decimalConvert</text>
</a>
</g>
</g>
<!-- Node10&#45;&gt;Node11 -->
<g id="edge10" class="edge">
<title>Node10&#45;&gt;Node11</title>
<path fill="none" stroke="midnightblue" d="M263,-40.06C238.51,-34.07 204.82,-25.84 178.9,-19.51"/>
<polygon fill="midnightblue" stroke="midnightblue" points="262.34,-43.5 272.89,-42.47 264.01,-36.7 262.34,-43.5"/>
</g>
<!-- Node13 -->
<g id="node13" class="node">
<title>Node13</title>
<g id="a_node13"><a xlink:href="division_8cpp.html#a222752517a35fde0e4de4bb32cbaa9be" target="_top" xlink:title="Determines the scale of the quotient of division.">
<polygon fill="none" stroke="black" points="77,-114.5 77,-133.5 201,-133.5 201,-114.5 77,-114.5"/>
<text text-anchor="middle" x="139" y="-121.5" font-family="Helvetica,sans-Serif" font-size="10.00">determineResultScale</text>
</a>
</g>
</g>
<!-- Node10&#45;&gt;Node13 -->
<g id="edge12" class="edge">
<title>Node10&#45;&gt;Node13</title>
<path fill="none" stroke="midnightblue" d="M273.62,-63.28C254.98,-75.78 227.13,-93.26 201,-105 193.01,-108.59 184.14,-111.78 175.7,-114.46"/>
<polygon fill="midnightblue" stroke="midnightblue" points="275.69,-66.11 281.98,-57.59 271.75,-60.32 275.69,-66.11"/>
</g>
<!-- Node14 -->
<g id="node14" class="node">
<title>Node14</title>
<g id="a_node14"><a xlink:href="power_8cpp.html#a065a3ee9a7ec43a06ab2fddbc3019a17" target="_top" xlink:title=" ">
<polygon fill="none" stroke="black" points="118.5,-76.5 118.5,-95.5 159.5,-95.5 159.5,-76.5 118.5,-76.5"/>
<text text-anchor="middle" x="139" y="-83.5" font-family="Helvetica,sans-Serif" font-size="10.00">main</text>
</a>
</g>
</g>
<!-- Node10&#45;&gt;Node14 -->
<g id="edge14" class="edge">
<title>Node10&#45;&gt;Node14</title>
<path fill="none" stroke="midnightblue" d="M262.93,-55.96C231.72,-63.59 185.66,-74.84 159.68,-81.19"/>
<polygon fill="midnightblue" stroke="midnightblue" points="264.01,-59.3 272.89,-53.53 262.34,-52.5 264.01,-59.3"/>
</g>
<!-- Node15 -->
<g id="node15" class="node">
<title>Node15</title>
<g id="a_node15"><a xlink:href="classNumber.html#a98a2fe6b66184133f1261d2825875cd9" target="_top" xlink:title="Raises the number to a power.">
<polygon fill="none" stroke="black" points="83.5,-38.5 83.5,-57.5 194.5,-57.5 194.5,-38.5 83.5,-38.5"/>
<text text-anchor="middle" x="139" y="-45.5" font-family="Helvetica,sans-Serif" font-size="10.00">Number::operator^</text>
</a>
</g>
</g>
<!-- Node10&#45;&gt;Node15 -->
<g id="edge15" class="edge">
<title>Node10&#45;&gt;Node15</title>
<path fill="none" stroke="midnightblue" d="M262.85,-48C243.08,-48 217.35,-48 194.55,-48"/>
<polygon fill="midnightblue" stroke="midnightblue" points="262.89,-51.5 272.89,-48 262.89,-44.5 262.89,-51.5"/>
</g>
<!-- Node12 -->
<g id="node12" class="node">
<title>Node12</title>
<g id="a_node12"><a xlink:href="decimalConvert_8cpp.html#ac2c7bcd6d73ca32ee42312d0fa0b1aa9" target="_top" xlink:title=" ">
<polygon fill="none" stroke="black" points="0,-0.5 0,-19.5 41,-19.5 41,-0.5 0,-0.5"/>
<text text-anchor="middle" x="20.5" y="-7.5" font-family="Helvetica,sans-Serif" font-size="10.00">main</text>
</a>
</g>
</g>
<!-- Node11&#45;&gt;Node12 -->
<g id="edge11" class="edge">
<title>Node11&#45;&gt;Node12</title>
<path fill="none" stroke="midnightblue" d="M81.89,-10C67.24,-10 52.42,-10 41.12,-10"/>
<polygon fill="midnightblue" stroke="midnightblue" points="81.96,-13.5 91.96,-10 81.96,-6.5 81.96,-13.5"/>
</g>
<!-- Node13&#45;&gt;Node2 -->
<g id="edge13" class="edge">
<title>Node13&#45;&gt;Node2</title>
<path fill="none" stroke="midnightblue" d="M211.22,-117.55C285.75,-113.13 405.29,-112.66 503,-143 522.05,-148.92 541.2,-162 553.07,-171.16"/>
<polygon fill="midnightblue" stroke="midnightblue" points="210.77,-114.07 201.01,-118.2 211.21,-121.06 210.77,-114.07"/>
</g>
<!-- Node17 -->
<g id="node17" class="node">
<title>Node17</title>
<g id="a_node17"><a xlink:href="classFraction.html#a260e2faf8062c854a286b79591f87b65" target="_top" xlink:title="Multiplies two fractions together and stores the result in the current one. This function does it by ...">
<polygon fill="none" stroke="black" points="238.5,-304.5 238.5,-323.5 354.5,-323.5 354.5,-304.5 238.5,-304.5"/>
<text text-anchor="middle" x="296.5" y="-311.5" font-family="Helvetica,sans-Serif" font-size="10.00">Fraction::operator*=</text>
</a>
</g>
</g>
<!-- Node16&#45;&gt;Node17 -->
<g id="edge17" class="edge">
<title>Node16&#45;&gt;Node17</title>
<path fill="none" stroke="midnightblue" d="M399.01,-288.11C378.26,-293.4 354.27,-299.52 334.83,-304.48"/>
<polygon fill="midnightblue" stroke="midnightblue" points="400.08,-291.45 408.9,-285.59 398.35,-284.67 400.08,-291.45"/>
</g>
<!-- Node18 -->
<g id="node18" class="node">
<title>Node18</title>
<g id="a_node18"><a xlink:href="classFraction.html#a2c891f9bf7f6dbed8e5a8b4386ce3688" target="_top" xlink:title="Adds two fractions together and stores the result in the current one. This function does it by doing ...">
<polygon fill="none" stroke="black" points="237,-266.5 237,-285.5 356,-285.5 356,-266.5 237,-266.5"/>
<text text-anchor="middle" x="296.5" y="-273.5" font-family="Helvetica,sans-Serif" font-size="10.00">Fraction::operator+=</text>
</a>
</g>
</g>
<!-- Node16&#45;&gt;Node18 -->
<g id="edge18" class="edge">
<title>Node16&#45;&gt;Node18</title>
<path fill="none" stroke="midnightblue" d="M386.6,-276C376.58,-276 366.19,-276 356.2,-276"/>
<polygon fill="midnightblue" stroke="midnightblue" points="386.89,-279.5 396.89,-276 386.89,-272.5 386.89,-279.5"/>
</g>
<!-- Node19 -->
<g id="node19" class="node">
<title>Node19</title>
<g id="a_node19"><a xlink:href="classFraction.html#a2e3544fa85d66736287a981fe24bed1b" target="_top" xlink:title="Subtracts a fraction from another fraction and stores the result in the current one....">
<polygon fill="none" stroke="black" points="239,-228.5 239,-247.5 354,-247.5 354,-228.5 239,-228.5"/>
<text text-anchor="middle" x="296.5" y="-235.5" font-family="Helvetica,sans-Serif" font-size="10.00">Fraction::operator&#45;=</text>
</a>
</g>
</g>
<!-- Node16&#45;&gt;Node19 -->
<g id="edge19" class="edge">
<title>Node16&#45;&gt;Node19</title>
<path fill="none" stroke="midnightblue" d="M399.01,-263.89C378.26,-258.6 354.27,-252.48 334.83,-247.52"/>
<polygon fill="midnightblue" stroke="midnightblue" points="398.35,-267.33 408.9,-266.41 400.08,-260.55 398.35,-267.33"/>
</g>
<!-- Node20 -->
<g id="node20" class="node">
<title>Node20</title>
<g id="a_node20"><a xlink:href="classFraction.html#a2f92ff208c733cbd53e268c710f885d9" target="_top" xlink:title="Divides a fraction by abother fraction and stores the result in the current one. This function does i...">
<polygon fill="none" stroke="black" points="239.5,-380.5 239.5,-399.5 353.5,-399.5 353.5,-380.5 239.5,-380.5"/>
<text text-anchor="middle" x="296.5" y="-387.5" font-family="Helvetica,sans-Serif" font-size="10.00">Fraction::operator/=</text>
</a>
</g>
</g>
<!-- Node16&#45;&gt;Node20 -->
<g id="edge20" class="edge">
<title>Node16&#45;&gt;Node20</title>
<path fill="none" stroke="midnightblue" d="M433.99,-293.74C418.14,-314.99 388.89,-350.29 356,-371 349.95,-374.81 343.05,-377.93 336.18,-380.46"/>
<polygon fill="midnightblue" stroke="midnightblue" points="436.88,-295.72 439.94,-285.58 431.22,-291.6 436.88,-295.72"/>
</g>
<!-- Node21 -->
<g id="node21" class="node">
<title>Node21</title>
<g id="a_node21"><a xlink:href="classFraction.html#a166ddec943ec4f6ded679ab8d29ebe68" target="_top" xlink:title=" ">
<polygon fill="none" stroke="black" points="247.5,-342.5 247.5,-361.5 345.5,-361.5 345.5,-342.5 247.5,-342.5"/>
<text text-anchor="middle" x="296.5" y="-349.5" font-family="Helvetica,sans-Serif" font-size="10.00">Fraction::present</text>
</a>
</g>
</g>
<!-- Node16&#45;&gt;Node21 -->
<g id="edge21" class="edge">
<title>Node16&#45;&gt;Node21</title>
<path fill="none" stroke="midnightblue" d="M425.12,-291.61C407.31,-304.07 380.92,-321.33 356,-333 348.36,-336.58 339.87,-339.76 331.77,-342.44"/>
<polygon fill="midnightblue" stroke="midnightblue" points="427.48,-294.23 433.6,-285.58 423.42,-288.52 427.48,-294.23"/>
</g>
<!-- Node22&#45;&gt;Node7 -->
<g id="edge24" class="edge">
<title>Node22&#45;&gt;Node7</title>
<path fill="none" stroke="midnightblue" d="M528.8,-238C508.73,-238 484.58,-238 468.03,-238"/>
<polygon fill="midnightblue" stroke="midnightblue" points="528.86,-241.5 538.86,-238 528.86,-234.5 528.86,-241.5"/>
</g>
<!-- Node22&#45;&gt;Node16 -->
<g id="edge25" class="edge">
<title>Node22&#45;&gt;Node16</title>
<path fill="none" stroke="midnightblue" d="M529.04,-249.73C512.6,-255.09 493.38,-261.36 477.84,-266.43"/>
<polygon fill="midnightblue" stroke="midnightblue" points="530.43,-252.96 538.86,-246.53 528.26,-246.3 530.43,-252.96"/>
</g>
<!-- Node22&#45;&gt;Node22 -->
<g id="edge23" class="edge">
<title>Node22&#45;&gt;Node22</title>
<path fill="none" stroke="midnightblue" d="M587.95,-257.03C586.75,-262.13 579.44,-266 566,-266 545.03,-266 538.96,-256.57 547.81,-247.76"/>
<polygon fill="midnightblue" stroke="midnightblue" points="591.19,-255.71 584.19,-247.76 584.7,-258.34 591.19,-255.71"/>
</g>
</g>
</svg>
        <g id="navigator" transform="translate(0 0)" fill="#404254">
                <rect fill="#f2f5e9" fill-opacity="0.5" stroke="#606060" stroke-width=".5" x="0" y="0" width="60" height="60"/>
                <use id="zoomplus" xlink:href="#zoomPlus" x="17" y="9" onmousedown="handleZoom(evt,'in')"/>
                <use id="zoomminus" xlink:href="#zoomMin" x="42" y="9" onmousedown="handleZoom(evt,'out')"/>
                <use id="reset" xlink:href="#resetDef" x="30" y="36" onmousedown="handleReset()"/>
                <g id="arrowUp" xlink:href="#dirArrow" transform="translate(30 24)" onmousedown="handlePan(0,-1)">
                  <use xlink:href="#rim" fill="#404040">
                        <set attributeName="fill" to="#808080" begin="arrowUp.mouseover" end="arrowUp.mouseout"/>
                  </use>
                  <path fill="none" stroke="white" stroke-width="1.5" d="M0,-3.0v7 M-2.5,-0.5L0,-3.0L2.5,-0.5"/>
                </g>
                <g id="arrowRight" xlink:href="#dirArrow" transform="rotate(90) translate(36 -43)" onmousedown="handlePan(1,0)">
                  <use xlink:href="#rim" fill="#404040">
                        <set attributeName="fill" to="#808080" begin="arrowRight.mouseover" end="arrowRight.mouseout"/>
                  </use>
                  <path fill="none" stroke="white" stroke-width="1.5" d="M0,-3.0v7 M-2.5,-0.5L0,-3.0L2.5,-0.5"/>
                </g>
                <g id="arrowDown" xlink:href="#dirArrow" transform="rotate(180) translate(-30 -48)" onmousedown="handlePan(0,1)">
                  <use xlink:href="#rim" fill="#404040">
                        <set attributeName="fill" to="#808080" begin="arrowDown.mouseover" end="arrowDown.mouseout"/>
                  </use>
                  <path fill="none" stroke="white" stroke-width="1.5" d="M0,-3.0v7 M-2.5,-0.5L0,-3.0L2.5,-0.5"/>
                </g>
                <g id="arrowLeft" xlink:href="#dirArrow" transform="rotate(270) translate(-36 17)" onmousedown="handlePan(-1,0)">
                  <use xlink:href="#rim" fill="#404040">
                        <set attributeName="fill" to="#808080" begin="arrowLeft.mouseover" end="arrowLeft.mouseout"/>
                  </use>
                  <path fill="none" stroke="white" stroke-width="1.5" d="M0,-3.0v7 M-2.5,-0.5L0,-3.0L2.5,-0.5"/>
                </g>
        </g>
        <svg viewBox="0 0 15 15" width="100%" height="30px" preserveAspectRatio="xMaxYMin meet">
         <g id="arrow_out" transform="scale(0.3 0.3)">
          <a xlink:href="division_8cpp_afe2f9d37fbb1090dfb3af32476b43fca_icgraph_org.svg" target="_base">
           <rect id="button" ry="5" rx="5" y="6" x="6" height="38" width="38"
                fill="#f2f5e9" fill-opacity="0.5" stroke="#606060" stroke-width="1.0"/>
           <path id="arrow"
             d="M 11.500037,31.436501 C 11.940474,20.09759 22.043105,11.32322 32.158766,21.979434 L 37.068811,17.246167 C 37.068811,17.246167 37.088388,32 37.088388,32 L 22.160133,31.978069 C 22.160133,31.978069 26.997745,27.140456 26.997745,27.140456 C 18.528582,18.264221 13.291696,25.230495 11.500037,31.436501 z"
             style="fill:#404040;"/>
          </a>
         </g>
        </svg>
</svg>
