<?xml version="1.0" encoding="UTF-8" standalone="no"?>
<!DOCTYPE svg PUBLIC "-//W3C//DTD SVG 1.1//EN"
 "http://www.w3.org/Graphics/SVG/1.1/DTD/svg11.dtd">
<!-- Generated by graphviz version 2.43.0 (0)
 -->
<!-- Title: determineScale Pages: 1 -->
<svg width="748pt" height="142pt"
 viewBox="0.00 0.00 748.00 142.00" xmlns="http://www.w3.org/2000/svg" xmlns:xlink="http://www.w3.org/1999/xlink">
<g id="graph0" class="graph" transform="scale(1 1) rotate(0) translate(4 138)">
<title>determineScale</title>
<!-- Node1 -->
<g id="node1" class="node">
<title>Node1</title>
<g id="a_node1"><a xlink:title=" ">
<polygon fill="#bfbfbf" stroke="black" points="647,-19.5 647,-38.5 740,-38.5 740,-19.5 647,-19.5"/>
<text text-anchor="middle" x="693.5" y="-26.5" font-family="Helvetica,sans-Serif" font-size="10.00">determineScale</text>
</a>
</g>
</g>
<!-- Node2 -->
<g id="node2" class="node">
<title>Node2</title>
<g id="a_node2"><a xlink:href="division_8cpp.html#a222752517a35fde0e4de4bb32cbaa9be" target="_top" xlink:title=" ">
<polygon fill="none" stroke="black" points="487,-19.5 487,-38.5 611,-38.5 611,-19.5 487,-19.5"/>
<text text-anchor="middle" x="549" y="-26.5" font-family="Helvetica,sans-Serif" font-size="10.00">determineResultScale</text>
</a>
</g>
</g>
<!-- Node1&#45;&gt;Node2 -->
<g id="edge1" class="edge">
<title>Node1&#45;&gt;Node2</title>
<path fill="none" stroke="midnightblue" d="M636.61,-29C628.25,-29 619.59,-29 611.12,-29"/>
<polygon fill="midnightblue" stroke="midnightblue" points="636.63,-32.5 646.63,-29 636.63,-25.5 636.63,-32.5"/>
</g>
<!-- Node3 -->
<g id="node3" class="node">
<title>Node3</title>
<g id="a_node3"><a xlink:href="basicArithm_8hpp.html#acb4215189a8d1cfd37f4f6fe13890a8f" target="_top" xlink:title="Divides a string representation of a number by another string representation of a number.">
<polygon fill="none" stroke="black" points="404,-57.5 404,-76.5 451,-76.5 451,-57.5 404,-57.5"/>
<text text-anchor="middle" x="427.5" y="-64.5" font-family="Helvetica,sans-Serif" font-size="10.00">divide</text>
</a>
</g>
</g>
<!-- Node2&#45;&gt;Node3 -->
<g id="edge2" class="edge">
<title>Node2&#45;&gt;Node3</title>
<path fill="none" stroke="midnightblue" d="M508.23,-41.64C489.24,-47.69 467.19,-54.7 451.1,-59.81"/>
<polygon fill="midnightblue" stroke="midnightblue" points="509.38,-44.95 517.85,-38.59 507.25,-38.28 509.38,-44.95"/>
</g>
<!-- Node4 -->
<g id="node4" class="node">
<title>Node4</title>
<g id="a_node4"><a xlink:href="baseConvert_8cpp.html#a6443634f54179f61c6e58098cbb32210" target="_top" xlink:title=" ">
<polygon fill="none" stroke="black" points="290,-114.5 290,-133.5 368,-133.5 368,-114.5 290,-114.5"/>
<text text-anchor="middle" x="329" y="-121.5" font-family="Helvetica,sans-Serif" font-size="10.00">baseConvert</text>
</a>
</g>
</g>
<!-- Node3&#45;&gt;Node4 -->
<g id="edge3" class="edge">
<title>Node3&#45;&gt;Node4</title>
<path fill="none" stroke="midnightblue" d="M404.42,-82.18C393.62,-89.39 380.32,-97.95 368,-105 362.37,-108.22 356.12,-111.48 350.34,-114.36"/>
<polygon fill="midnightblue" stroke="midnightblue" points="406.49,-85 412.83,-76.51 402.58,-79.2 406.49,-85"/>
</g>
<!-- Node6 -->
<g id="node6" class="node">
<title>Node6</title>
<g id="a_node6"><a xlink:href="division_8cpp.html#a065a3ee9a7ec43a06ab2fddbc3019a17" target="_top" xlink:title=" ">
<polygon fill="none" stroke="black" points="308.5,-76.5 308.5,-95.5 349.5,-95.5 349.5,-76.5 308.5,-76.5"/>
<text text-anchor="middle" x="329" y="-83.5" font-family="Helvetica,sans-Serif" font-size="10.00">main</text>
</a>
</g>
</g>
<!-- Node3&#45;&gt;Node6 -->
<g id="edge5" class="edge">
<title>Node3&#45;&gt;Node6</title>
<path fill="none" stroke="midnightblue" d="M393.49,-73.5C378.95,-76.36 362.35,-79.63 349.77,-82.11"/>
<polygon fill="midnightblue" stroke="midnightblue" points="394.5,-76.87 403.63,-71.5 393.14,-70 394.5,-76.87"/>
</g>
<!-- Node7 -->
<g id="node7" class="node">
<title>Node7</title>
<g id="a_node7"><a xlink:href="powerReport_8cpp.html#afff5f8aa771cf432836ef03f6f442dae" target="_top" xlink:title=" ">
<polygon fill="none" stroke="black" points="291,-38.5 291,-57.5 367,-57.5 367,-38.5 291,-38.5"/>
<text text-anchor="middle" x="329" y="-45.5" font-family="Helvetica,sans-Serif" font-size="10.00">reportPower</text>
</a>
</g>
</g>
<!-- Node3&#45;&gt;Node7 -->
<g id="edge6" class="edge">
<title>Node3&#45;&gt;Node7</title>
<path fill="none" stroke="midnightblue" d="M393.63,-60.53C385.07,-58.84 375.8,-57.02 367.04,-55.29"/>
<polygon fill="midnightblue" stroke="midnightblue" points="393.14,-64 403.63,-62.5 394.5,-57.13 393.14,-64"/>
</g>
<!-- Node5 -->
<g id="node5" class="node">
<title>Node5</title>
<g id="a_node5"><a xlink:href="baseConvert_8cpp.html#ae66f6b31b5ad750f1fe042a706a4e3d4" target="_top" xlink:title=" ">
<polygon fill="none" stroke="black" points="210,-114.5 210,-133.5 251,-133.5 251,-114.5 210,-114.5"/>
<text text-anchor="middle" x="230.5" y="-121.5" font-family="Helvetica,sans-Serif" font-size="10.00">main</text>
</a>
</g>
</g>
<!-- Node4&#45;&gt;Node5 -->
<g id="edge4" class="edge">
<title>Node4&#45;&gt;Node5</title>
<path fill="none" stroke="midnightblue" d="M279.77,-124C269.61,-124 259.45,-124 251.09,-124"/>
<polygon fill="midnightblue" stroke="midnightblue" points="279.86,-127.5 289.86,-124 279.86,-120.5 279.86,-127.5"/>
</g>
<!-- Node8 -->
<g id="node8" class="node">
<title>Node8</title>
<g id="a_node8"><a xlink:href="basicArithm_8hpp.html#a5967cef8aeb4f6ea90014159becd286d" target="_top" xlink:title="Raises a string representation of a number to a power.">
<polygon fill="none" stroke="black" points="207,-19.5 207,-38.5 254,-38.5 254,-19.5 207,-19.5"/>
<text text-anchor="middle" x="230.5" y="-26.5" font-family="Helvetica,sans-Serif" font-size="10.00">power</text>
</a>
</g>
</g>
<!-- Node7&#45;&gt;Node8 -->
<g id="edge7" class="edge">
<title>Node7&#45;&gt;Node8</title>
<path fill="none" stroke="midnightblue" d="M280.9,-38.73C271.54,-36.88 262.12,-35.03 254.06,-33.44"/>
<polygon fill="midnightblue" stroke="midnightblue" points="280.48,-42.21 290.97,-40.71 281.83,-35.34 280.48,-42.21"/>
</g>
<!-- Node8&#45;&gt;Node2 -->
<g id="edge10" class="edge">
<title>Node8&#45;&gt;Node2</title>
<path fill="none" stroke="midnightblue" d="M264.41,-29C316.95,-29 420.59,-29 486.98,-29"/>
<polygon fill="midnightblue" stroke="midnightblue" points="264.31,-25.5 254.31,-29 264.31,-32.5 264.31,-25.5"/>
</g>
<!-- Node9 -->
<g id="node9" class="node">
<title>Node9</title>
<g id="a_node9"><a xlink:href="basicArithm_8hpp.html#aedf78136562346db852758c848f8e83d" target="_top" xlink:title="Converts a string representation of a number from one base to another.">
<polygon fill="none" stroke="black" points="77,-38.5 77,-57.5 171,-57.5 171,-38.5 77,-38.5"/>
<text text-anchor="middle" x="124" y="-45.5" font-family="Helvetica,sans-Serif" font-size="10.00">decimalConvert</text>
</a>
</g>
</g>
<!-- Node8&#45;&gt;Node9 -->
<g id="edge8" class="edge">
<title>Node8&#45;&gt;Node9</title>
<path fill="none" stroke="midnightblue" d="M196.97,-34.91C188.82,-36.4 179.92,-38.01 171.24,-39.59"/>
<polygon fill="midnightblue" stroke="midnightblue" points="197.61,-38.36 206.83,-33.12 196.36,-31.47 197.61,-38.36"/>
</g>
<!-- Node11 -->
<g id="node11" class="node">
<title>Node11</title>
<g id="a_node11"><a xlink:href="power_8cpp.html#a065a3ee9a7ec43a06ab2fddbc3019a17" target="_top" xlink:title=" ">
<polygon fill="none" stroke="black" points="103.5,-0.5 103.5,-19.5 144.5,-19.5 144.5,-0.5 103.5,-0.5"/>
<text text-anchor="middle" x="124" y="-7.5" font-family="Helvetica,sans-Serif" font-size="10.00">main</text>
</a>
</g>
</g>
<!-- Node8&#45;&gt;Node11 -->
<g id="edge11" class="edge">
<title>Node8&#45;&gt;Node11</title>
<path fill="none" stroke="midnightblue" d="M196.72,-23.04C179.69,-19.94 159.44,-16.26 144.81,-13.6"/>
<polygon fill="midnightblue" stroke="midnightblue" points="196.36,-26.53 206.83,-24.88 197.61,-19.64 196.36,-26.53"/>
</g>
<!-- Node10 -->
<g id="node10" class="node">
<title>Node10</title>
<g id="a_node10"><a xlink:href="decimalConvert_8cpp.html#ac2c7bcd6d73ca32ee42312d0fa0b1aa9" target="_top" xlink:title=" ">
<polygon fill="none" stroke="black" points="0,-38.5 0,-57.5 41,-57.5 41,-38.5 0,-38.5"/>
<text text-anchor="middle" x="20.5" y="-45.5" font-family="Helvetica,sans-Serif" font-size="10.00">main</text>
</a>
</g>
</g>
<!-- Node9&#45;&gt;Node10 -->
<g id="edge9" class="edge">
<title>Node9&#45;&gt;Node10</title>
<path fill="none" stroke="midnightblue" d="M66.69,-48C57.49,-48 48.54,-48 41.06,-48"/>
<polygon fill="midnightblue" stroke="midnightblue" points="66.71,-51.5 76.71,-48 66.71,-44.5 66.71,-51.5"/>
</g>
</g>
</svg>
