<?xml version="1.0" encoding="UTF-8" standalone="no"?>
<!DOCTYPE svg PUBLIC "-//W3C//DTD SVG 1.1//EN"
 "http://www.w3.org/Graphics/SVG/1.1/DTD/svg11.dtd">
<!-- Generated by graphviz version 2.43.0 (0)
 -->
<!-- Title: include/format.hpp Pages: 1 -->
<svg width="2309pt" height="207pt"
 viewBox="0.00 0.00 2309.00 207.00" xmlns="http://www.w3.org/2000/svg" xmlns:xlink="http://www.w3.org/1999/xlink">
<g id="graph0" class="graph" transform="scale(1 1) rotate(0) translate(4 203)">
<title>include/format.hpp</title>
<!-- Node1 -->
<g id="node1" class="node">
<title>Node1</title>
<g id="a_node1"><a xlink:title="This file contains the definition of the vFormat function template.">
<polygon fill="#bfbfbf" stroke="black" points="1730.5,-179.5 1730.5,-198.5 1839.5,-198.5 1839.5,-179.5 1730.5,-179.5"/>
<text text-anchor="middle" x="1785" y="-186.5" font-family="Helvetica,sans-Serif" font-size="10.00">include/format.hpp</text>
</a>
</g>
</g>
<!-- Node2 -->
<g id="node2" class="node">
<title>Node2</title>
<g id="a_node2"><a xlink:href="output_8hpp.html" target="_top" xlink:title="This file contains functions for displaying error, warning, and info messages.">
<polygon fill="none" stroke="black" points="1690.5,-123.5 1690.5,-142.5 1797.5,-142.5 1797.5,-123.5 1690.5,-123.5"/>
<text text-anchor="middle" x="1744" y="-130.5" font-family="Helvetica,sans-Serif" font-size="10.00">include/output.hpp</text>
</a>
</g>
</g>
<!-- Node1&#45;&gt;Node2 -->
<g id="edge1" class="edge">
<title>Node1&#45;&gt;Node2</title>
<path fill="none" stroke="midnightblue" d="M1771.98,-170.86C1764.88,-161.5 1756.4,-150.33 1750.64,-142.75"/>
<polygon fill="midnightblue" stroke="midnightblue" points="1769.39,-173.24 1778.23,-179.08 1774.97,-169 1769.39,-173.24"/>
</g>
<!-- Node21 -->
<g id="node21" class="node">
<title>Node21</title>
<g id="a_node21"><a xlink:href="testing_8cpp.html" target="_top" xlink:title=" ">
<polygon fill="none" stroke="black" points="1810,-67.5 1810,-86.5 1898,-86.5 1898,-67.5 1810,-67.5"/>
<text text-anchor="middle" x="1854" y="-74.5" font-family="Helvetica,sans-Serif" font-size="10.00">src/testing.cpp</text>
</a>
</g>
</g>
<!-- Node1&#45;&gt;Node21 -->
<g id="edge24" class="edge">
<title>Node1&#45;&gt;Node21</title>
<path fill="none" stroke="midnightblue" d="M1795.89,-170.64C1810.88,-146.74 1837.3,-104.63 1848.61,-86.59"/>
<polygon fill="midnightblue" stroke="midnightblue" points="1792.76,-169.04 1790.41,-179.37 1798.69,-172.76 1792.76,-169.04"/>
</g>
<!-- Node3 -->
<g id="node3" class="node">
<title>Node3</title>
<g id="a_node3"><a xlink:href="basicArithm_8hpp.html" target="_top" xlink:title="This file contains functions for basic arithmetic operations on strings.">
<polygon fill="none" stroke="black" points="1142.5,-67.5 1142.5,-86.5 1289.5,-86.5 1289.5,-67.5 1142.5,-67.5"/>
<text text-anchor="middle" x="1216" y="-74.5" font-family="Helvetica,sans-Serif" font-size="10.00">include/fn/basicArithm.hpp</text>
</a>
</g>
</g>
<!-- Node2&#45;&gt;Node3 -->
<g id="edge2" class="edge">
<title>Node2&#45;&gt;Node3</title>
<path fill="none" stroke="midnightblue" d="M1680.38,-125.49C1582.14,-115.45 1393.99,-96.2 1289.87,-85.56"/>
<polygon fill="midnightblue" stroke="midnightblue" points="1680.16,-128.99 1690.47,-126.53 1680.87,-122.03 1680.16,-128.99"/>
</g>
<!-- Node4 -->
<g id="node4" class="node">
<title>Node4</title>
<g id="a_node4"><a xlink:href="abs_8cpp.html" target="_top" xlink:title="This file contains the implementation of the abs function, which gets the absolute value of a number ...">
<polygon fill="none" stroke="black" points="2011,-6 2011,-25 2103,-25 2103,-6 2011,-6"/>
<text text-anchor="middle" x="2057" y="-13" font-family="Helvetica,sans-Serif" font-size="10.00">src/abs/abs.cpp</text>
</a>
</g>
</g>
<!-- Node2&#45;&gt;Node4 -->
<g id="edge19" class="edge">
<title>Node2&#45;&gt;Node4</title>
<path fill="none" stroke="midnightblue" d="M1745.84,-113.13C1748.33,-98.29 1754.19,-78.28 1768,-67 1849.5,-0.44 1898.98,-52.44 2002,-31 2010.12,-29.31 2018.83,-27.17 2026.88,-25.05"/>
<polygon fill="midnightblue" stroke="midnightblue" points="1742.34,-112.88 1744.51,-123.25 1749.28,-113.79 1742.34,-112.88"/>
</g>
<!-- Node6 -->
<g id="node6" class="node">
<title>Node6</title>
<g id="a_node6"><a xlink:href="baseConvert_8cpp.html" target="_top" xlink:title="This file contains the implementation of the baseConvert function, which converts any number to any b...">
<polygon fill="none" stroke="black" points="2121,-6 2121,-25 2301,-25 2301,-6 2121,-6"/>
<text text-anchor="middle" x="2211" y="-13" font-family="Helvetica,sans-Serif" font-size="10.00">src/baseConvert/baseConvert.cpp</text>
</a>
</g>
</g>
<!-- Node2&#45;&gt;Node6 -->
<g id="edge21" class="edge">
<title>Node2&#45;&gt;Node6</title>
<path fill="none" stroke="midnightblue" d="M1753.86,-114.88C1763.7,-99.55 1780.31,-77.85 1801,-67 1924.22,-2.37 1974.04,-49.08 2112,-31 2125.95,-29.17 2140.98,-27.05 2155.02,-25"/>
<polygon fill="midnightblue" stroke="midnightblue" points="1750.86,-113.09 1748.64,-123.45 1756.83,-116.74 1750.86,-113.09"/>
</g>
<!-- Node9 -->
<g id="node9" class="node">
<title>Node9</title>
<g id="a_node9"><a xlink:href="division_8cpp.html" target="_top" xlink:title="Performs division of two numbers represented in strings.">
<polygon fill="none" stroke="black" points="0,-6 0,-25 134,-25 134,-6 0,-6"/>
<text text-anchor="middle" x="67" y="-13" font-family="Helvetica,sans-Serif" font-size="10.00">src/division/division.cpp</text>
</a>
</g>
</g>
<!-- Node2&#45;&gt;Node9 -->
<g id="edge22" class="edge">
<title>Node2&#45;&gt;Node9</title>
<path fill="none" stroke="midnightblue" d="M1679.98,-130.84C1463.22,-126.32 737.34,-106.14 143,-31 131.14,-29.5 118.34,-27.29 106.69,-25.05"/>
<polygon fill="midnightblue" stroke="midnightblue" points="1680.15,-134.35 1690.22,-131.05 1680.29,-127.35 1680.15,-134.35"/>
</g>
<!-- Node20 -->
<g id="node20" class="node">
<title>Node20</title>
<g id="a_node20"><a xlink:href="argParse_8cpp.html" target="_top" xlink:title=" ">
<polygon fill="none" stroke="black" points="1620,-67.5 1620,-86.5 1716,-86.5 1716,-67.5 1620,-67.5"/>
<text text-anchor="middle" x="1668" y="-74.5" font-family="Helvetica,sans-Serif" font-size="10.00">src/argParse.cpp</text>
</a>
</g>
</g>
<!-- Node2&#45;&gt;Node20 -->
<g id="edge20" class="edge">
<title>Node2&#45;&gt;Node20</title>
<path fill="none" stroke="midnightblue" d="M1723.42,-117.38C1709.69,-107.62 1692.07,-95.11 1680.43,-86.83"/>
<polygon fill="midnightblue" stroke="midnightblue" points="1721.61,-120.38 1731.79,-123.32 1725.66,-114.68 1721.61,-120.38"/>
</g>
<!-- Node2&#45;&gt;Node21 -->
<g id="edge23" class="edge">
<title>Node2&#45;&gt;Node21</title>
<path fill="none" stroke="midnightblue" d="M1770.76,-118.86C1791.16,-108.85 1818.67,-95.35 1836.37,-86.65"/>
<polygon fill="midnightblue" stroke="midnightblue" points="1769.11,-115.78 1761.67,-123.32 1772.19,-122.06 1769.11,-115.78"/>
</g>
<!-- Node3&#45;&gt;Node4 -->
<g id="edge3" class="edge">
<title>Node3&#45;&gt;Node4</title>
<path fill="none" stroke="midnightblue" d="M1299.65,-73.34C1473.49,-67.45 1868.74,-52.16 2002,-31 2010.87,-29.59 2020.39,-27.35 2028.97,-25.05"/>
<polygon fill="midnightblue" stroke="midnightblue" points="1299.4,-69.84 1289.52,-73.68 1299.64,-76.84 1299.4,-69.84"/>
</g>
<!-- Node5 -->
<g id="node5" class="node">
<title>Node5</title>
<g id="a_node5"><a xlink:href="add_8cpp.html" target="_top" xlink:title="This file contains the implementation of the add function, which add two number strings together.">
<polygon fill="none" stroke="black" points="1391.5,-6 1391.5,-25 1484.5,-25 1484.5,-6 1391.5,-6"/>
<text text-anchor="middle" x="1438" y="-13" font-family="Helvetica,sans-Serif" font-size="10.00">src/add/add.cpp</text>
</a>
</g>
</g>
<!-- Node3&#45;&gt;Node5 -->
<g id="edge4" class="edge">
<title>Node3&#45;&gt;Node5</title>
<path fill="none" stroke="midnightblue" d="M1257.7,-64.82C1300.83,-53.26 1367.21,-35.47 1406.25,-25.01"/>
<polygon fill="midnightblue" stroke="midnightblue" points="1256.56,-61.51 1247.81,-67.48 1258.37,-68.27 1256.56,-61.51"/>
</g>
<!-- Node3&#45;&gt;Node6 -->
<g id="edge5" class="edge">
<title>Node3&#45;&gt;Node6</title>
<path fill="none" stroke="midnightblue" d="M1299.81,-74.45C1458.62,-70.93 1814.14,-60.23 2112,-31 2127.39,-29.49 2144.04,-27.28 2159.22,-25.03"/>
<polygon fill="midnightblue" stroke="midnightblue" points="1299.56,-70.96 1289.64,-74.67 1299.71,-77.96 1299.56,-70.96"/>
</g>
<!-- Node7 -->
<g id="node7" class="node">
<title>Node7</title>
<g id="a_node7"><a xlink:href="comparison_8cpp.html" target="_top" xlink:title=" ">
<polygon fill="none" stroke="black" points="1502.5,-6 1502.5,-25 1673.5,-25 1673.5,-6 1502.5,-6"/>
<text text-anchor="middle" x="1588" y="-13" font-family="Helvetica,sans-Serif" font-size="10.00">src/comparison/comparison.cpp</text>
</a>
</g>
</g>
<!-- Node3&#45;&gt;Node7 -->
<g id="edge6" class="edge">
<title>Node3&#45;&gt;Node7</title>
<path fill="none" stroke="midnightblue" d="M1279.58,-65.83C1351.53,-54.32 1467.45,-35.78 1534.8,-25.01"/>
<polygon fill="midnightblue" stroke="midnightblue" points="1278.62,-62.44 1269.3,-67.48 1279.73,-69.35 1278.62,-62.44"/>
</g>
<!-- Node8 -->
<g id="node8" class="node">
<title>Node8</title>
<g id="a_node8"><a xlink:href="decimalConvert_8cpp.html" target="_top" xlink:title="This file contains the implementation of the decimalConvert function, which converts a number from on...">
<polygon fill="none" stroke="black" points="1691.5,-0.5 1691.5,-30.5 1808.5,-30.5 1808.5,-0.5 1691.5,-0.5"/>
<text text-anchor="start" x="1699.5" y="-18.5" font-family="Helvetica,sans-Serif" font-size="10.00">src/decimalConvert</text>
<text text-anchor="middle" x="1750" y="-7.5" font-family="Helvetica,sans-Serif" font-size="10.00">/decimalConvert.cpp</text>
</a>
</g>
</g>
<!-- Node3&#45;&gt;Node8 -->
<g id="edge7" class="edge">
<title>Node3&#45;&gt;Node8</title>
<path fill="none" stroke="midnightblue" d="M1300.03,-70.78C1393.62,-64.29 1549.22,-51.5 1682,-31 1685.1,-30.52 1688.27,-29.99 1691.47,-29.42"/>
<polygon fill="midnightblue" stroke="midnightblue" points="1299.51,-67.3 1289.77,-71.48 1299.99,-74.29 1299.51,-67.3"/>
</g>
<!-- Node3&#45;&gt;Node9 -->
<g id="edge8" class="edge">
<title>Node3&#45;&gt;Node9</title>
<path fill="none" stroke="midnightblue" d="M1131.94,-76.65C950.63,-77.15 509.55,-73.42 143,-31 130.86,-29.59 117.74,-27.36 105.88,-25.05"/>
<polygon fill="midnightblue" stroke="midnightblue" points="1132.22,-80.15 1142.21,-76.62 1132.19,-73.15 1132.22,-80.15"/>
</g>
<!-- Node10 -->
<g id="node10" class="node">
<title>Node10</title>
<g id="a_node10"><a xlink:href="divisionReport_8cpp.html" target="_top" xlink:title="This file contains the implementations for functions reportDivision and reportDivisionStep,...">
<polygon fill="none" stroke="black" points="1827,-6 1827,-25 1993,-25 1993,-6 1827,-6"/>
<text text-anchor="middle" x="1910" y="-13" font-family="Helvetica,sans-Serif" font-size="10.00">src/division/divisionReport.cpp</text>
</a>
</g>
</g>
<!-- Node3&#45;&gt;Node10 -->
<g id="edge9" class="edge">
<title>Node3&#45;&gt;Node10</title>
<path fill="none" stroke="midnightblue" d="M1300.14,-71.89C1416.71,-65.69 1633.82,-52.36 1818,-31 1831.81,-29.4 1846.73,-27.24 1860.45,-25.07"/>
<polygon fill="midnightblue" stroke="midnightblue" points="1299.66,-68.41 1289.86,-72.43 1300.03,-75.4 1299.66,-68.41"/>
</g>
<!-- Node11 -->
<g id="node11" class="node">
<title>Node11</title>
<g id="a_node11"><a xlink:href="fraction_8cpp.html" target="_top" xlink:title=" ">
<polygon fill="none" stroke="black" points="152,-6 152,-25 244,-25 244,-6 152,-6"/>
<text text-anchor="middle" x="198" y="-13" font-family="Helvetica,sans-Serif" font-size="10.00">src/fraction.cpp</text>
</a>
</g>
</g>
<!-- Node3&#45;&gt;Node11 -->
<g id="edge10" class="edge">
<title>Node3&#45;&gt;Node11</title>
<path fill="none" stroke="midnightblue" d="M1132.24,-74.35C930.37,-70.02 421.3,-56.82 253,-31 244.02,-29.62 234.39,-27.36 225.74,-25.03"/>
<polygon fill="midnightblue" stroke="midnightblue" points="1132.41,-77.86 1142.48,-74.57 1132.56,-70.86 1132.41,-77.86"/>
</g>
<!-- Node12 -->
<g id="node12" class="node">
<title>Node12</title>
<g id="a_node12"><a xlink:href="main_8cpp.html" target="_top" xlink:title=" ">
<polygon fill="none" stroke="black" points="262.5,-6 262.5,-25 369.5,-25 369.5,-6 262.5,-6"/>
<text text-anchor="middle" x="316" y="-13" font-family="Helvetica,sans-Serif" font-size="10.00">src/main/main.cpp</text>
</a>
</g>
</g>
<!-- Node3&#45;&gt;Node12 -->
<g id="edge11" class="edge">
<title>Node3&#45;&gt;Node12</title>
<path fill="none" stroke="midnightblue" d="M1132.29,-76.36C980.94,-75.95 652.06,-70.09 378,-31 368.04,-29.58 357.33,-27.34 347.66,-25.04"/>
<polygon fill="midnightblue" stroke="midnightblue" points="1132.43,-79.86 1142.44,-76.39 1132.44,-72.86 1132.43,-79.86"/>
</g>
<!-- Node13 -->
<g id="node13" class="node">
<title>Node13</title>
<g id="a_node13"><a xlink:href="multiply_8cpp.html" target="_top" xlink:title="This file contains the implementation of the multiply function, which can multiply two strings togeth...">
<polygon fill="none" stroke="black" points="387.5,-6 387.5,-25 524.5,-25 524.5,-6 387.5,-6"/>
<text text-anchor="middle" x="456" y="-13" font-family="Helvetica,sans-Serif" font-size="10.00">src/multiply/multiply.cpp</text>
</a>
</g>
</g>
<!-- Node3&#45;&gt;Node13 -->
<g id="edge12" class="edge">
<title>Node3&#45;&gt;Node13</title>
<path fill="none" stroke="midnightblue" d="M1132.11,-73.65C1003.12,-69.31 748.51,-57.92 534,-31 521.84,-29.47 508.7,-27.26 496.74,-25.01"/>
<polygon fill="midnightblue" stroke="midnightblue" points="1132.2,-77.15 1142.31,-73.98 1132.43,-70.16 1132.2,-77.15"/>
</g>
<!-- Node14 -->
<g id="node14" class="node">
<title>Node14</title>
<g id="a_node14"><a xlink:href="multiplyReport_8cpp.html" target="_top" xlink:title="This file contains the implementation of the reportMultiply function, which reports the product of tw...">
<polygon fill="none" stroke="black" points="543,-6 543,-25 713,-25 713,-6 543,-6"/>
<text text-anchor="middle" x="628" y="-13" font-family="Helvetica,sans-Serif" font-size="10.00">src/multiply/multiplyReport.cpp</text>
</a>
</g>
</g>
<!-- Node3&#45;&gt;Node14 -->
<g id="edge13" class="edge">
<title>Node3&#45;&gt;Node14</title>
<path fill="none" stroke="midnightblue" d="M1132.01,-69.95C1033.58,-62.49 865.65,-48.6 722,-31 708.23,-29.31 693.38,-27.17 679.64,-25.06"/>
<polygon fill="midnightblue" stroke="midnightblue" points="1131.96,-73.46 1142.2,-70.72 1132.49,-66.48 1131.96,-73.46"/>
</g>
<!-- Node15 -->
<g id="node15" class="node">
<title>Node15</title>
<g id="a_node15"><a xlink:href="power_8cpp.html" target="_top" xlink:title="This file contains the implementation for the function power, which raises a number to a power.">
<polygon fill="none" stroke="black" points="731,-6 731,-25 847,-25 847,-6 731,-6"/>
<text text-anchor="middle" x="789" y="-13" font-family="Helvetica,sans-Serif" font-size="10.00">src/power/power.cpp</text>
</a>
</g>
</g>
<!-- Node3&#45;&gt;Node15 -->
<g id="edge14" class="edge">
<title>Node3&#45;&gt;Node15</title>
<path fill="none" stroke="midnightblue" d="M1132.21,-67.66C1059.05,-59.86 950.14,-47.04 856,-31 846.14,-29.32 835.54,-27.18 825.75,-25.07"/>
<polygon fill="midnightblue" stroke="midnightblue" points="1131.98,-71.15 1142.29,-68.72 1132.71,-64.19 1131.98,-71.15"/>
</g>
<!-- Node16 -->
<g id="node16" class="node">
<title>Node16</title>
<g id="a_node16"><a xlink:href="powerReport_8cpp.html" target="_top" xlink:title="This file contains the implementation for the function reportPower, which reports the result of raisi...">
<polygon fill="none" stroke="black" points="865.5,-6 865.5,-25 1014.5,-25 1014.5,-6 865.5,-6"/>
<text text-anchor="middle" x="940" y="-13" font-family="Helvetica,sans-Serif" font-size="10.00">src/power/powerReport.cpp</text>
</a>
</g>
</g>
<!-- Node3&#45;&gt;Node16 -->
<g id="edge15" class="edge">
<title>Node3&#45;&gt;Node16</title>
<path fill="none" stroke="midnightblue" d="M1166.51,-65.33C1112.98,-53.79 1028.73,-35.63 979.47,-25.01"/>
<polygon fill="midnightblue" stroke="midnightblue" points="1165.94,-68.79 1176.46,-67.48 1167.42,-61.95 1165.94,-68.79"/>
</g>
<!-- Node17 -->
<g id="node17" class="node">
<title>Node17</title>
<g id="a_node17"><a xlink:href="rounding_8cpp.html" target="_top" xlink:title=" ">
<polygon fill="none" stroke="black" points="1032.5,-6 1032.5,-25 1129.5,-25 1129.5,-6 1032.5,-6"/>
<text text-anchor="middle" x="1081" y="-13" font-family="Helvetica,sans-Serif" font-size="10.00">src/rounding.cpp</text>
</a>
</g>
</g>
<!-- Node3&#45;&gt;Node17 -->
<g id="edge16" class="edge">
<title>Node3&#45;&gt;Node17</title>
<path fill="none" stroke="midnightblue" d="M1187.25,-63.33C1161.04,-51.78 1123.05,-35.03 1100.31,-25.01"/>
<polygon fill="midnightblue" stroke="midnightblue" points="1186.1,-66.64 1196.66,-67.48 1188.92,-60.24 1186.1,-66.64"/>
</g>
<!-- Node18 -->
<g id="node18" class="node">
<title>Node18</title>
<g id="a_node18"><a xlink:href="subtract_8cpp.html" target="_top" xlink:title="This file contains the implementation of the subtract function, which subtracts two numbers using the...">
<polygon fill="none" stroke="black" points="1147.5,-6 1147.5,-25 1284.5,-25 1284.5,-6 1147.5,-6"/>
<text text-anchor="middle" x="1216" y="-13" font-family="Helvetica,sans-Serif" font-size="10.00">src/subtract/subtract.cpp</text>
</a>
</g>
</g>
<!-- Node3&#45;&gt;Node18 -->
<g id="edge17" class="edge">
<title>Node3&#45;&gt;Node18</title>
<path fill="none" stroke="midnightblue" d="M1216,-57.32C1216,-46.5 1216,-33.4 1216,-25.01"/>
<polygon fill="midnightblue" stroke="midnightblue" points="1212.5,-57.48 1216,-67.48 1219.5,-57.48 1212.5,-57.48"/>
</g>
<!-- Node19 -->
<g id="node19" class="node">
<title>Node19</title>
<g id="a_node19"><a xlink:href="util_8cpp.html" target="_top" xlink:title=" ">
<polygon fill="none" stroke="black" points="1303,-6 1303,-25 1373,-25 1373,-6 1303,-6"/>
<text text-anchor="middle" x="1338" y="-13" font-family="Helvetica,sans-Serif" font-size="10.00">src/util.cpp</text>
</a>
</g>
</g>
<!-- Node3&#45;&gt;Node19 -->
<g id="edge18" class="edge">
<title>Node3&#45;&gt;Node19</title>
<path fill="none" stroke="midnightblue" d="M1242.61,-63.02C1266.27,-51.48 1300.18,-34.94 1320.55,-25.01"/>
<polygon fill="midnightblue" stroke="midnightblue" points="1240.93,-59.95 1233.48,-67.48 1244,-66.24 1240.93,-59.95"/>
</g>
</g>
</svg>
