<?xml version="1.0" encoding="UTF-8" standalone="no"?>
<!DOCTYPE svg PUBLIC "-//W3C//DTD SVG 1.1//EN"
 "http://www.w3.org/Graphics/SVG/1.1/DTD/svg11.dtd">
<!-- Generated by graphviz version 2.43.0 (0)
 -->
<!-- Title: include/format.hpp Pages: 1 -->
<svg width="2419pt" height="207pt"
 viewBox="0.00 0.00 2419.00 207.00" xmlns="http://www.w3.org/2000/svg" xmlns:xlink="http://www.w3.org/1999/xlink">
<g id="graph0" class="graph" transform="scale(1 1) rotate(0) translate(4 203)">
<title>include/format.hpp</title>
<!-- Node1 -->
<g id="node1" class="node">
<title>Node1</title>
<g id="a_node1"><a xlink:title="This file contains the definition of the vFormat function template.">
<polygon fill="#bfbfbf" stroke="black" points="1840.5,-179.5 1840.5,-198.5 1949.5,-198.5 1949.5,-179.5 1840.5,-179.5"/>
<text text-anchor="middle" x="1895" y="-186.5" font-family="Helvetica,sans-Serif" font-size="10.00">include/format.hpp</text>
</a>
</g>
</g>
<!-- Node2 -->
<g id="node2" class="node">
<title>Node2</title>
<g id="a_node2"><a xlink:href="output_8hpp.html" target="_top" xlink:title="This file contains functions for displaying error, warning, and info messages.">
<polygon fill="none" stroke="black" points="1800.5,-123.5 1800.5,-142.5 1907.5,-142.5 1907.5,-123.5 1800.5,-123.5"/>
<text text-anchor="middle" x="1854" y="-130.5" font-family="Helvetica,sans-Serif" font-size="10.00">include/output.hpp</text>
</a>
</g>
</g>
<!-- Node1&#45;&gt;Node2 -->
<g id="edge1" class="edge">
<title>Node1&#45;&gt;Node2</title>
<path fill="none" stroke="midnightblue" d="M1881.98,-170.86C1874.88,-161.5 1866.4,-150.33 1860.64,-142.75"/>
<polygon fill="midnightblue" stroke="midnightblue" points="1879.39,-173.24 1888.23,-179.08 1884.97,-169 1879.39,-173.24"/>
</g>
<!-- Node22 -->
<g id="node22" class="node">
<title>Node22</title>
<g id="a_node22"><a xlink:href="testing_8cpp.html" target="_top" xlink:title=" ">
<polygon fill="none" stroke="black" points="1920,-67.5 1920,-86.5 2008,-86.5 2008,-67.5 1920,-67.5"/>
<text text-anchor="middle" x="1964" y="-74.5" font-family="Helvetica,sans-Serif" font-size="10.00">src/testing.cpp</text>
</a>
</g>
</g>
<!-- Node1&#45;&gt;Node22 -->
<g id="edge25" class="edge">
<title>Node1&#45;&gt;Node22</title>
<path fill="none" stroke="midnightblue" d="M1905.89,-170.64C1920.88,-146.74 1947.3,-104.63 1958.61,-86.59"/>
<polygon fill="midnightblue" stroke="midnightblue" points="1902.76,-169.04 1900.41,-179.37 1908.69,-172.76 1902.76,-169.04"/>
</g>
<!-- Node3 -->
<g id="node3" class="node">
<title>Node3</title>
<g id="a_node3"><a xlink:href="basicArithm_8hpp.html" target="_top" xlink:title="This file contains functions for basic arithmetic operations on strings.">
<polygon fill="none" stroke="black" points="1184.5,-67.5 1184.5,-86.5 1331.5,-86.5 1331.5,-67.5 1184.5,-67.5"/>
<text text-anchor="middle" x="1258" y="-74.5" font-family="Helvetica,sans-Serif" font-size="10.00">include/fn/basicArithm.hpp</text>
</a>
</g>
</g>
<!-- Node2&#45;&gt;Node3 -->
<g id="edge2" class="edge">
<title>Node2&#45;&gt;Node3</title>
<path fill="none" stroke="midnightblue" d="M1790.24,-126.22C1678.88,-116.13 1449.58,-95.36 1331.63,-84.67"/>
<polygon fill="midnightblue" stroke="midnightblue" points="1790.05,-129.72 1800.32,-127.14 1790.68,-122.75 1790.05,-129.72"/>
</g>
<!-- Node4 -->
<g id="node4" class="node">
<title>Node4</title>
<g id="a_node4"><a xlink:href="abs_8cpp.html" target="_top" xlink:title="This file contains the implementation of the abs function, which gets the absolute value of a number ...">
<polygon fill="none" stroke="black" points="2121,-6 2121,-25 2213,-25 2213,-6 2121,-6"/>
<text text-anchor="middle" x="2167" y="-13" font-family="Helvetica,sans-Serif" font-size="10.00">src/abs/abs.cpp</text>
</a>
</g>
</g>
<!-- Node2&#45;&gt;Node4 -->
<g id="edge20" class="edge">
<title>Node2&#45;&gt;Node4</title>
<path fill="none" stroke="midnightblue" d="M1855.84,-113.13C1858.33,-98.29 1864.19,-78.28 1878,-67 1959.5,-0.44 2008.98,-52.44 2112,-31 2120.12,-29.31 2128.83,-27.17 2136.88,-25.05"/>
<polygon fill="midnightblue" stroke="midnightblue" points="1852.34,-112.88 1854.51,-123.25 1859.28,-113.79 1852.34,-112.88"/>
</g>
<!-- Node6 -->
<g id="node6" class="node">
<title>Node6</title>
<g id="a_node6"><a xlink:href="baseConvert_8cpp.html" target="_top" xlink:title="This file contains the implementation of the baseConvert function, which converts any number to any b...">
<polygon fill="none" stroke="black" points="2231,-6 2231,-25 2411,-25 2411,-6 2231,-6"/>
<text text-anchor="middle" x="2321" y="-13" font-family="Helvetica,sans-Serif" font-size="10.00">src/baseConvert/baseConvert.cpp</text>
</a>
</g>
</g>
<!-- Node2&#45;&gt;Node6 -->
<g id="edge22" class="edge">
<title>Node2&#45;&gt;Node6</title>
<path fill="none" stroke="midnightblue" d="M1863.86,-114.88C1873.7,-99.55 1890.31,-77.85 1911,-67 2034.22,-2.37 2084.04,-49.08 2222,-31 2235.95,-29.17 2250.98,-27.05 2265.02,-25"/>
<polygon fill="midnightblue" stroke="midnightblue" points="1860.86,-113.09 1858.64,-123.45 1866.83,-116.74 1860.86,-113.09"/>
</g>
<!-- Node9 -->
<g id="node9" class="node">
<title>Node9</title>
<g id="a_node9"><a xlink:href="division_8cpp.html" target="_top" xlink:title="Performs division of two numbers represented in strings.">
<polygon fill="none" stroke="black" points="0,-6 0,-25 134,-25 134,-6 0,-6"/>
<text text-anchor="middle" x="67" y="-13" font-family="Helvetica,sans-Serif" font-size="10.00">src/division/division.cpp</text>
</a>
</g>
</g>
<!-- Node2&#45;&gt;Node9 -->
<g id="edge23" class="edge">
<title>Node2&#45;&gt;Node9</title>
<path fill="none" stroke="midnightblue" d="M1790.17,-131.21C1564.35,-127.78 782.44,-110.53 143,-31 131,-29.51 118.05,-27.27 106.29,-25"/>
<polygon fill="midnightblue" stroke="midnightblue" points="1790.14,-134.71 1800.19,-131.36 1790.24,-127.71 1790.14,-134.71"/>
</g>
<!-- Node21 -->
<g id="node21" class="node">
<title>Node21</title>
<g id="a_node21"><a xlink:href="argParse_8cpp.html" target="_top" xlink:title=" ">
<polygon fill="none" stroke="black" points="1730,-67.5 1730,-86.5 1826,-86.5 1826,-67.5 1730,-67.5"/>
<text text-anchor="middle" x="1778" y="-74.5" font-family="Helvetica,sans-Serif" font-size="10.00">src/argParse.cpp</text>
</a>
</g>
</g>
<!-- Node2&#45;&gt;Node21 -->
<g id="edge21" class="edge">
<title>Node2&#45;&gt;Node21</title>
<path fill="none" stroke="midnightblue" d="M1833.42,-117.38C1819.69,-107.62 1802.07,-95.11 1790.43,-86.83"/>
<polygon fill="midnightblue" stroke="midnightblue" points="1831.61,-120.38 1841.79,-123.32 1835.66,-114.68 1831.61,-120.38"/>
</g>
<!-- Node2&#45;&gt;Node22 -->
<g id="edge24" class="edge">
<title>Node2&#45;&gt;Node22</title>
<path fill="none" stroke="midnightblue" d="M1880.76,-118.86C1901.16,-108.85 1928.67,-95.35 1946.37,-86.65"/>
<polygon fill="midnightblue" stroke="midnightblue" points="1879.11,-115.78 1871.67,-123.32 1882.19,-122.06 1879.11,-115.78"/>
</g>
<!-- Node3&#45;&gt;Node4 -->
<g id="edge3" class="edge">
<title>Node3&#45;&gt;Node4</title>
<path fill="none" stroke="midnightblue" d="M1341.74,-73.77C1526.72,-68.5 1965.34,-53.95 2112,-31 2120.88,-29.61 2130.39,-27.38 2138.97,-25.07"/>
<polygon fill="midnightblue" stroke="midnightblue" points="1341.43,-70.28 1331.53,-74.06 1341.62,-77.28 1341.43,-70.28"/>
</g>
<!-- Node5 -->
<g id="node5" class="node">
<title>Node5</title>
<g id="a_node5"><a xlink:href="add_8cpp.html" target="_top" xlink:title="This file contains the implementation of the add function, which add two number strings together.">
<polygon fill="none" stroke="black" points="1501.5,-6 1501.5,-25 1594.5,-25 1594.5,-6 1501.5,-6"/>
<text text-anchor="middle" x="1548" y="-13" font-family="Helvetica,sans-Serif" font-size="10.00">src/add/add.cpp</text>
</a>
</g>
</g>
<!-- Node3&#45;&gt;Node5 -->
<g id="edge4" class="edge">
<title>Node3&#45;&gt;Node5</title>
<path fill="none" stroke="midnightblue" d="M1317.59,-65.62C1365.01,-57.1 1432.97,-44.3 1492,-31 1499.94,-29.21 1508.46,-27.1 1516.4,-25.06"/>
<polygon fill="midnightblue" stroke="midnightblue" points="1316.72,-62.22 1307.49,-67.42 1317.95,-69.11 1316.72,-62.22"/>
</g>
<!-- Node3&#45;&gt;Node6 -->
<g id="edge5" class="edge">
<title>Node3&#45;&gt;Node6</title>
<path fill="none" stroke="midnightblue" d="M1341.88,-74.87C1509.48,-71.99 1897.54,-62.26 2222,-31 2237.48,-29.51 2254.23,-27.29 2269.48,-25.03"/>
<polygon fill="midnightblue" stroke="midnightblue" points="1341.58,-71.37 1331.64,-75.04 1341.7,-78.37 1341.58,-71.37"/>
</g>
<!-- Node7 -->
<g id="node7" class="node">
<title>Node7</title>
<g id="a_node7"><a xlink:href="comparison_8cpp.html" target="_top" xlink:title=" ">
<polygon fill="none" stroke="black" points="1612.5,-6 1612.5,-25 1783.5,-25 1783.5,-6 1612.5,-6"/>
<text text-anchor="middle" x="1698" y="-13" font-family="Helvetica,sans-Serif" font-size="10.00">src/comparison/comparison.cpp</text>
</a>
</g>
</g>
<!-- Node3&#45;&gt;Node7 -->
<g id="edge6" class="edge">
<title>Node3&#45;&gt;Node7</title>
<path fill="none" stroke="midnightblue" d="M1336.85,-66.21C1406.82,-57.41 1511.79,-43.91 1603,-31 1616.13,-29.14 1630.27,-27.04 1643.52,-25.02"/>
<polygon fill="midnightblue" stroke="midnightblue" points="1336.28,-62.76 1326.79,-67.47 1337.15,-69.7 1336.28,-62.76"/>
</g>
<!-- Node8 -->
<g id="node8" class="node">
<title>Node8</title>
<g id="a_node8"><a xlink:href="decimalConvert_8cpp.html" target="_top" xlink:title="This file contains the implementation of the decimalConvert function, which converts a number from on...">
<polygon fill="none" stroke="black" points="1801.5,-0.5 1801.5,-30.5 1918.5,-30.5 1918.5,-0.5 1801.5,-0.5"/>
<text text-anchor="start" x="1809.5" y="-18.5" font-family="Helvetica,sans-Serif" font-size="10.00">src/decimalConvert</text>
<text text-anchor="middle" x="1860" y="-7.5" font-family="Helvetica,sans-Serif" font-size="10.00">/decimalConvert.cpp</text>
</a>
</g>
</g>
<!-- Node3&#45;&gt;Node8 -->
<g id="edge7" class="edge">
<title>Node3&#45;&gt;Node8</title>
<path fill="none" stroke="midnightblue" d="M1342.03,-72.2C1447.54,-66.67 1633.91,-54.42 1792,-31 1795.1,-30.54 1798.28,-30.02 1801.48,-29.47"/>
<polygon fill="midnightblue" stroke="midnightblue" points="1341.57,-68.72 1331.76,-72.73 1341.93,-75.71 1341.57,-68.72"/>
</g>
<!-- Node3&#45;&gt;Node9 -->
<g id="edge8" class="edge">
<title>Node3&#45;&gt;Node9</title>
<path fill="none" stroke="midnightblue" d="M1174.4,-74.23C950.83,-69.25 342.62,-53.94 143,-31 130.86,-29.6 117.74,-27.37 105.88,-25.07"/>
<polygon fill="midnightblue" stroke="midnightblue" points="1174.36,-77.73 1184.43,-74.46 1174.51,-70.73 1174.36,-77.73"/>
</g>
<!-- Node10 -->
<g id="node10" class="node">
<title>Node10</title>
<g id="a_node10"><a xlink:href="divisionReport_8cpp.html" target="_top" xlink:title="This file contains the implementations for functions reportDivision and reportDivisionStep,...">
<polygon fill="none" stroke="black" points="1937,-6 1937,-25 2103,-25 2103,-6 1937,-6"/>
<text text-anchor="middle" x="2020" y="-13" font-family="Helvetica,sans-Serif" font-size="10.00">src/division/divisionReport.cpp</text>
</a>
</g>
</g>
<!-- Node3&#45;&gt;Node10 -->
<g id="edge9" class="edge">
<title>Node3&#45;&gt;Node10</title>
<path fill="none" stroke="midnightblue" d="M1341.6,-72.78C1468.6,-67.36 1717.63,-54.6 1928,-31 1941.98,-29.43 1957.08,-27.26 1970.93,-25.06"/>
<polygon fill="midnightblue" stroke="midnightblue" points="1341.4,-69.29 1331.56,-73.21 1341.7,-76.28 1341.4,-69.29"/>
</g>
<!-- Node11 -->
<g id="node11" class="node">
<title>Node11</title>
<g id="a_node11"><a xlink:href="fraction_8cpp.html" target="_top" xlink:title=" ">
<polygon fill="none" stroke="black" points="152,-6 152,-25 244,-25 244,-6 152,-6"/>
<text text-anchor="middle" x="198" y="-13" font-family="Helvetica,sans-Serif" font-size="10.00">src/fraction.cpp</text>
</a>
</g>
</g>
<!-- Node3&#45;&gt;Node11 -->
<g id="edge10" class="edge">
<title>Node3&#45;&gt;Node11</title>
<path fill="none" stroke="midnightblue" d="M1173.92,-74.54C965.59,-70.55 429.59,-57.92 253,-31 244.02,-29.63 234.39,-27.37 225.74,-25.04"/>
<polygon fill="midnightblue" stroke="midnightblue" points="1174.13,-78.04 1184.19,-74.73 1174.26,-71.04 1174.13,-78.04"/>
</g>
<!-- Node12 -->
<g id="node12" class="node">
<title>Node12</title>
<g id="a_node12"><a xlink:href="main_8cpp.html" target="_top" xlink:title=" ">
<polygon fill="none" stroke="black" points="262.5,-6 262.5,-25 369.5,-25 369.5,-6 262.5,-6"/>
<text text-anchor="middle" x="316" y="-13" font-family="Helvetica,sans-Serif" font-size="10.00">src/main/main.cpp</text>
</a>
</g>
</g>
<!-- Node3&#45;&gt;Node12 -->
<g id="edge11" class="edge">
<title>Node3&#45;&gt;Node12</title>
<path fill="none" stroke="midnightblue" d="M1174.21,-76.68C1017.2,-76.85 668.32,-72.04 378,-31 368.04,-29.59 357.33,-27.35 347.65,-25.05"/>
<polygon fill="midnightblue" stroke="midnightblue" points="1174.28,-80.18 1184.27,-76.66 1174.27,-73.18 1174.28,-80.18"/>
</g>
<!-- Node13 -->
<g id="node13" class="node">
<title>Node13</title>
<g id="a_node13"><a xlink:href="multiply_8cpp.html" target="_top" xlink:title="This file contains the implementation of the multiply function, which can multiply two strings togeth...">
<polygon fill="none" stroke="black" points="387.5,-6 387.5,-25 524.5,-25 524.5,-6 387.5,-6"/>
<text text-anchor="middle" x="456" y="-13" font-family="Helvetica,sans-Serif" font-size="10.00">src/multiply/multiply.cpp</text>
</a>
</g>
</g>
<!-- Node3&#45;&gt;Node13 -->
<g id="edge12" class="edge">
<title>Node3&#45;&gt;Node13</title>
<path fill="none" stroke="midnightblue" d="M1173.96,-74.09C1038.7,-70.28 764.53,-59.48 534,-31 521.83,-29.5 508.7,-27.29 496.74,-25.04"/>
<polygon fill="midnightblue" stroke="midnightblue" points="1174.15,-77.6 1184.25,-74.38 1174.35,-70.6 1174.15,-77.6"/>
</g>
<!-- Node14 -->
<g id="node14" class="node">
<title>Node14</title>
<g id="a_node14"><a xlink:href="multiplyReport_8cpp.html" target="_top" xlink:title="This file contains the implementation of the reportMultiply function, which reports the product of tw...">
<polygon fill="none" stroke="black" points="543,-6 543,-25 713,-25 713,-6 543,-6"/>
<text text-anchor="middle" x="628" y="-13" font-family="Helvetica,sans-Serif" font-size="10.00">src/multiply/multiplyReport.cpp</text>
</a>
</g>
</g>
<!-- Node3&#45;&gt;Node14 -->
<g id="edge13" class="edge">
<title>Node3&#45;&gt;Node14</title>
<path fill="none" stroke="midnightblue" d="M1173.85,-70.75C1068.15,-63.73 881.29,-49.95 722,-31 708.06,-29.34 693.02,-27.19 679.14,-25.05"/>
<polygon fill="midnightblue" stroke="midnightblue" points="1173.93,-74.26 1184.14,-71.42 1174.39,-67.27 1173.93,-74.26"/>
</g>
<!-- Node15 -->
<g id="node15" class="node">
<title>Node15</title>
<g id="a_node15"><a xlink:href="number_8cpp.html" target="_top" xlink:title=" ">
<polygon fill="none" stroke="black" points="731.5,-6 731.5,-25 822.5,-25 822.5,-6 731.5,-6"/>
<text text-anchor="middle" x="777" y="-13" font-family="Helvetica,sans-Serif" font-size="10.00">src/number.cpp</text>
</a>
</g>
</g>
<!-- Node3&#45;&gt;Node15 -->
<g id="edge14" class="edge">
<title>Node3&#45;&gt;Node15</title>
<path fill="none" stroke="midnightblue" d="M1174.39,-70.95C1088.11,-64.86 949.86,-52.63 832,-31 823.45,-29.43 814.28,-27.23 805.93,-25.01"/>
<polygon fill="midnightblue" stroke="midnightblue" points="1174.18,-74.44 1184.39,-71.65 1174.66,-67.46 1174.18,-74.44"/>
</g>
<!-- Node16 -->
<g id="node16" class="node">
<title>Node16</title>
<g id="a_node16"><a xlink:href="power_8cpp.html" target="_top" xlink:title="This file contains the implementation for the function power, which raises a number to a power.">
<polygon fill="none" stroke="black" points="841,-6 841,-25 957,-25 957,-6 841,-6"/>
<text text-anchor="middle" x="899" y="-13" font-family="Helvetica,sans-Serif" font-size="10.00">src/power/power.cpp</text>
</a>
</g>
</g>
<!-- Node3&#45;&gt;Node16 -->
<g id="edge15" class="edge">
<title>Node3&#45;&gt;Node16</title>
<path fill="none" stroke="midnightblue" d="M1185.44,-66.06C1126.23,-57.65 1040.5,-44.79 966,-31 956.4,-29.22 946.08,-27.1 936.48,-25.03"/>
<polygon fill="midnightblue" stroke="midnightblue" points="1185.05,-69.54 1195.44,-67.47 1186.03,-62.61 1185.05,-69.54"/>
</g>
<!-- Node17 -->
<g id="node17" class="node">
<title>Node17</title>
<g id="a_node17"><a xlink:href="powerReport_8cpp.html" target="_top" xlink:title="This file contains the implementation for the function reportPower, which reports the result of raisi...">
<polygon fill="none" stroke="black" points="975.5,-6 975.5,-25 1124.5,-25 1124.5,-6 975.5,-6"/>
<text text-anchor="middle" x="1050" y="-13" font-family="Helvetica,sans-Serif" font-size="10.00">src/power/powerReport.cpp</text>
</a>
</g>
</g>
<!-- Node3&#45;&gt;Node17 -->
<g id="edge16" class="edge">
<title>Node3&#45;&gt;Node17</title>
<path fill="none" stroke="midnightblue" d="M1218.41,-64.68C1178,-53.11 1116.17,-35.43 1079.75,-25.01"/>
<polygon fill="midnightblue" stroke="midnightblue" points="1217.62,-68.09 1228.2,-67.48 1219.55,-61.36 1217.62,-68.09"/>
</g>
<!-- Node18 -->
<g id="node18" class="node">
<title>Node18</title>
<g id="a_node18"><a xlink:href="rounding_8cpp.html" target="_top" xlink:title=" ">
<polygon fill="none" stroke="black" points="1142.5,-6 1142.5,-25 1239.5,-25 1239.5,-6 1142.5,-6"/>
<text text-anchor="middle" x="1191" y="-13" font-family="Helvetica,sans-Serif" font-size="10.00">src/rounding.cpp</text>
</a>
</g>
</g>
<!-- Node3&#45;&gt;Node18 -->
<g id="edge17" class="edge">
<title>Node3&#45;&gt;Node18</title>
<path fill="none" stroke="midnightblue" d="M1240.71,-60.65C1227.94,-49.31 1211.02,-34.28 1200.58,-25.01"/>
<polygon fill="midnightblue" stroke="midnightblue" points="1238.6,-63.45 1248.4,-67.48 1243.25,-58.22 1238.6,-63.45"/>
</g>
<!-- Node19 -->
<g id="node19" class="node">
<title>Node19</title>
<g id="a_node19"><a xlink:href="subtract_8cpp.html" target="_top" xlink:title="This file contains the implementation of the subtract function, which subtracts two numbers using the...">
<polygon fill="none" stroke="black" points="1257.5,-6 1257.5,-25 1394.5,-25 1394.5,-6 1257.5,-6"/>
<text text-anchor="middle" x="1326" y="-13" font-family="Helvetica,sans-Serif" font-size="10.00">src/subtract/subtract.cpp</text>
</a>
</g>
</g>
<!-- Node3&#45;&gt;Node19 -->
<g id="edge18" class="edge">
<title>Node3&#45;&gt;Node19</title>
<path fill="none" stroke="midnightblue" d="M1275.54,-60.65C1288.51,-49.31 1305.68,-34.28 1316.28,-25.01"/>
<polygon fill="midnightblue" stroke="midnightblue" points="1272.96,-58.26 1267.74,-67.48 1277.57,-63.52 1272.96,-58.26"/>
</g>
<!-- Node20 -->
<g id="node20" class="node">
<title>Node20</title>
<g id="a_node20"><a xlink:href="util_8cpp.html" target="_top" xlink:title=" ">
<polygon fill="none" stroke="black" points="1413,-6 1413,-25 1483,-25 1483,-6 1413,-6"/>
<text text-anchor="middle" x="1448" y="-13" font-family="Helvetica,sans-Serif" font-size="10.00">src/util.cpp</text>
</a>
</g>
</g>
<!-- Node3&#45;&gt;Node20 -->
<g id="edge19" class="edge">
<title>Node3&#45;&gt;Node20</title>
<path fill="none" stroke="midnightblue" d="M1295.64,-64.44C1324.93,-55.42 1366.58,-42.52 1403,-31 1408.95,-29.12 1415.33,-27.08 1421.36,-25.13"/>
<polygon fill="midnightblue" stroke="midnightblue" points="1294.35,-61.17 1285.83,-67.46 1296.41,-67.86 1294.35,-61.17"/>
</g>
</g>
</svg>
