<?xml version="1.0" encoding="UTF-8" standalone="no"?>
<!DOCTYPE svg PUBLIC "-//W3C//DTD SVG 1.1//EN"
 "http://www.w3.org/Graphics/SVG/1.1/DTD/svg11.dtd">
<!-- Generated by graphviz version 2.43.0 (0)
 -->
<!-- Title: vFormat Pages: 1 -->
<!--zoomable 712 -->
<svg id="main" version="1.1" xmlns="http://www.w3.org/2000/svg" xmlns:xlink="http://www.w3.org/1999/xlink" xml:space="preserve" onload="init(evt)">
<style type="text/css"><![CDATA[
.edge:hover path { stroke: red; }
.edge:hover polygon { stroke: red; fill: red; }
]]></style>
<script type="text/javascript"><![CDATA[
var edges = document.getElementsByTagName('g');
if (edges && edges.length) {
  for (var i=0;i<edges.length;i++) {
    if (edges[i].id.substr(0,4)=='edge') {
      edges[i].setAttribute('class','edge');
    }
  }
}
]]></script>
        <defs>
                <circle id="rim" cx="0" cy="0" r="7"/>
                <circle id="rim2" cx="0" cy="0" r="3.5"/>
                <g id="zoomPlus">
                        <use xlink:href="#rim" fill="#404040">
                                <set attributeName="fill" to="#808080" begin="zoomplus.mouseover" end="zoomplus.mouseout"/>
                        </use>
                        <path d="M-4,0h8M0,-4v8" fill="none" stroke="white" stroke-width="1.5" pointer-events="none"/>
                </g>
                <g id="zoomMin">
                        <use xlink:href="#rim" fill="#404040">
                                <set attributeName="fill" to="#808080" begin="zoomminus.mouseover" end="zoomminus.mouseout"/>
                        </use>
                        <path d="M-4,0h8" fill="none" stroke="white" stroke-width="1.5" pointer-events="none"/>
                </g>
                <g id="dirArrow">
                        <path fill="none" stroke="white" stroke-width="1.5" d="M0,-3.0v7 M-2.5,-0.5L0,-3.0L2.5,-0.5"/>
                </g>
               <g id="resetDef">
                       <use xlink:href="#rim2" fill="#404040">
                               <set attributeName="fill" to="#808080" begin="reset.mouseover" end="reset.mouseout"/>
                       </use>
               </g>
        </defs>

<script type="text/javascript">
var viewWidth = 956;
var viewHeight = 712;
var sectionId = 'dynsection-2';
</script>
<script xlink:href="svgpan.js"/>
<svg id="graph" class="graph">
<g id="viewport">
<title>vFormat</title>
<!-- Node1 -->
<g id="node1" class="node">
<title>Node1</title>
<g id="a_node1"><a xlink:title="Formats a string using a variable number of arguments.">
<polygon fill="#bfbfbf" stroke="black" points="891,-513.5 891,-532.5 948,-532.5 948,-513.5 891,-513.5"/>
<text text-anchor="middle" x="919.5" y="-520.5" font-family="Helvetica,sans-Serif" font-size="10.00">vFormat</text>
</a>
</g>
</g>
<!-- Node2 -->
<g id="node2" class="node">
<title>Node2</title>
<g id="a_node2"><a xlink:href="classTestCase.html#ad85adf6c1abe41b1f6577905e7a78b76" target="_top" xlink:title="Asserts that a boolean value is false.">
<polygon fill="none" stroke="black" points="720,-684.5 720,-703.5 841,-703.5 841,-684.5 720,-684.5"/>
<text text-anchor="middle" x="780.5" y="-691.5" font-family="Helvetica,sans-Serif" font-size="10.00">TestCase::assertFalse</text>
</a>
</g>
</g>
<!-- Node1&#45;&gt;Node2 -->
<g id="edge1" class="edge">
<title>Node1&#45;&gt;Node2</title>
<path fill="none" stroke="midnightblue" d="M915.95,-542.56C910.66,-575.05 895.41,-639.99 855,-675 850.52,-678.88 845.34,-681.99 839.85,-684.47"/>
<polygon fill="midnightblue" stroke="midnightblue" points="919.44,-542.93 917.43,-532.53 912.51,-541.91 919.44,-542.93"/>
</g>
<!-- Node3 -->
<g id="node3" class="node">
<title>Node3</title>
<g id="a_node3"><a xlink:href="classTestCase.html#abecee8f4e5536c81da631de091f49d3d" target="_top" xlink:title="Asserts that two strings are equal.">
<polygon fill="none" stroke="black" points="715,-646.5 715,-665.5 846,-665.5 846,-646.5 715,-646.5"/>
<text text-anchor="middle" x="780.5" y="-653.5" font-family="Helvetica,sans-Serif" font-size="10.00">TestCase::assertIsEqual</text>
</a>
</g>
</g>
<!-- Node1&#45;&gt;Node3 -->
<g id="edge2" class="edge">
<title>Node1&#45;&gt;Node3</title>
<path fill="none" stroke="midnightblue" d="M913,-542.35C904.71,-567.95 886.53,-612.64 855,-637 849.99,-640.87 844.28,-643.95 838.3,-646.41"/>
<polygon fill="midnightblue" stroke="midnightblue" points="916.38,-543.26 915.96,-532.67 909.69,-541.21 916.38,-543.26"/>
</g>
<!-- Node4 -->
<g id="node4" class="node">
<title>Node4</title>
<g id="a_node4"><a xlink:href="classTestCase.html#a14aa13de91243652b103aa0e68990bd2" target="_top" xlink:title="Asserts that two strings are not equal.">
<polygon fill="none" stroke="black" points="706,-608.5 706,-627.5 855,-627.5 855,-608.5 706,-608.5"/>
<text text-anchor="middle" x="780.5" y="-615.5" font-family="Helvetica,sans-Serif" font-size="10.00">TestCase::assertIsNotEqual</text>
</a>
</g>
</g>
<!-- Node1&#45;&gt;Node4 -->
<g id="edge3" class="edge">
<title>Node1&#45;&gt;Node4</title>
<path fill="none" stroke="midnightblue" d="M907.93,-541.3C896.92,-558.73 878.05,-584.42 855,-599 848.87,-602.87 841.99,-605.96 834.95,-608.42"/>
<polygon fill="midnightblue" stroke="midnightblue" points="911.03,-542.95 913.22,-532.58 905.04,-539.31 911.03,-542.95"/>
</g>
<!-- Node5 -->
<g id="node5" class="node">
<title>Node5</title>
<g id="a_node5"><a xlink:href="classTestCase.html#aa22816a3159d8ca22cdfa5f6b15b3789" target="_top" xlink:title="Asserts that a boolean value is true.">
<polygon fill="none" stroke="black" points="722.5,-570.5 722.5,-589.5 838.5,-589.5 838.5,-570.5 722.5,-570.5"/>
<text text-anchor="middle" x="780.5" y="-577.5" font-family="Helvetica,sans-Serif" font-size="10.00">TestCase::assertTrue</text>
</a>
</g>
</g>
<!-- Node1&#45;&gt;Node5 -->
<g id="edge4" class="edge">
<title>Node1&#45;&gt;Node5</title>
<path fill="none" stroke="midnightblue" d="M896.61,-538.23C884.74,-545.93 869.55,-554.92 855,-561 846.12,-564.71 836.33,-567.85 826.87,-570.44"/>
<polygon fill="midnightblue" stroke="midnightblue" points="898.6,-541.11 904.98,-532.65 894.72,-535.28 898.6,-541.11"/>
</g>
<!-- Node6 -->
<g id="node6" class="node">
<title>Node6</title>
<g id="a_node6"><a xlink:href="classlogging_1_1Logger.html#ae837458cd97c046dd97154e213935a1e" target="_top" xlink:title="Logs a debug message with additional arguments.">
<polygon fill="none" stroke="black" points="716.5,-532.5 716.5,-551.5 844.5,-551.5 844.5,-532.5 716.5,-532.5"/>
<text text-anchor="middle" x="780.5" y="-539.5" font-family="Helvetica,sans-Serif" font-size="10.00">logging::Logger::debug</text>
</a>
</g>
</g>
<!-- Node1&#45;&gt;Node6 -->
<g id="edge5" class="edge">
<title>Node1&#45;&gt;Node6</title>
<path fill="none" stroke="midnightblue" d="M880.54,-528.26C869.38,-529.81 856.85,-531.55 844.56,-533.25"/>
<polygon fill="midnightblue" stroke="midnightblue" points="881.35,-531.69 890.78,-526.84 880.39,-524.75 881.35,-531.69"/>
</g>
<!-- Node7 -->
<g id="node7" class="node">
<title>Node7</title>
<g id="a_node7"><a xlink:href="classlogging_1_1Logger.html#a93150375a166594f9b5f9f5170bc0722" target="_top" xlink:title="Logs an error message with additional arguments.">
<polygon fill="none" stroke="black" points="720,-494.5 720,-513.5 841,-513.5 841,-494.5 720,-494.5"/>
<text text-anchor="middle" x="780.5" y="-501.5" font-family="Helvetica,sans-Serif" font-size="10.00">logging::Logger::error</text>
</a>
</g>
</g>
<!-- Node1&#45;&gt;Node7 -->
<g id="edge6" class="edge">
<title>Node1&#45;&gt;Node7</title>
<path fill="none" stroke="midnightblue" d="M880.53,-517.73C868.33,-516.04 854.51,-514.13 841.15,-512.27"/>
<polygon fill="midnightblue" stroke="midnightblue" points="880.39,-521.25 890.78,-519.16 881.35,-514.31 880.39,-521.25"/>
</g>
<!-- Node8 -->
<g id="node8" class="node">
<title>Node8</title>
<g id="a_node8"><a xlink:href="output_8hpp.html#a1f009ce0a12690c37c88f2adfe9d2e1e" target="_top" xlink:title="Prints an error message.">
<polygon fill="none" stroke="black" points="760.5,-418.5 760.5,-437.5 800.5,-437.5 800.5,-418.5 760.5,-418.5"/>
<text text-anchor="middle" x="780.5" y="-425.5" font-family="Helvetica,sans-Serif" font-size="10.00">error</text>
</a>
</g>
</g>
<!-- Node1&#45;&gt;Node8 -->
<g id="edge7" class="edge">
<title>Node1&#45;&gt;Node8</title>
<path fill="none" stroke="midnightblue" d="M907.93,-504.7C896.92,-487.27 878.05,-461.58 855,-447 838.4,-436.5 816.23,-431.79 800.59,-429.68"/>
<polygon fill="midnightblue" stroke="midnightblue" points="905.04,-506.69 913.22,-513.42 911.03,-503.05 905.04,-506.69"/>
</g>
<!-- Node31 -->
<g id="node31" class="node">
<title>Node31</title>
<g id="a_node31"><a xlink:href="output_8hpp.html#afa50372fb14acf84c371c61d2cc6585a" target="_top" xlink:title="Prints an info message.">
<polygon fill="none" stroke="black" points="763,-456.5 763,-475.5 798,-475.5 798,-456.5 763,-456.5"/>
<text text-anchor="middle" x="780.5" y="-463.5" font-family="Helvetica,sans-Serif" font-size="10.00">info</text>
</a>
</g>
</g>
<!-- Node1&#45;&gt;Node31 -->
<g id="edge34" class="edge">
<title>Node1&#45;&gt;Node31</title>
<path fill="none" stroke="midnightblue" d="M896.61,-507.77C884.74,-500.07 869.55,-491.08 855,-485 836.27,-477.17 813.48,-471.88 798.29,-468.92"/>
<polygon fill="midnightblue" stroke="midnightblue" points="894.72,-510.72 904.98,-513.35 898.6,-504.89 894.72,-510.72"/>
</g>
<!-- Node33 -->
<g id="node33" class="node">
<title>Node33</title>
<g id="a_node33"><a xlink:href="classlogging_1_1Logger.html#af60b9846b37367a61e68b115ead98c9f" target="_top" xlink:title="Logs a warning message with additional arguments.">
<polygon fill="none" stroke="black" points="712,-380.5 712,-399.5 849,-399.5 849,-380.5 712,-380.5"/>
<text text-anchor="middle" x="780.5" y="-387.5" font-family="Helvetica,sans-Serif" font-size="10.00">logging::Logger::warning</text>
</a>
</g>
</g>
<!-- Node1&#45;&gt;Node33 -->
<g id="edge37" class="edge">
<title>Node1&#45;&gt;Node33</title>
<path fill="none" stroke="midnightblue" d="M913,-503.65C904.71,-478.05 886.53,-433.36 855,-409 849.99,-405.13 844.28,-402.05 838.3,-399.59"/>
<polygon fill="midnightblue" stroke="midnightblue" points="909.69,-504.79 915.96,-513.33 916.38,-502.74 909.69,-504.79"/>
</g>
<!-- Node34 -->
<g id="node34" class="node">
<title>Node34</title>
<g id="a_node34"><a xlink:href="output_8hpp.html#a4a49ff5b1e760d5e8b77261236222156" target="_top" xlink:title="Prints a warning message.">
<polygon fill="none" stroke="black" points="752.5,-342.5 752.5,-361.5 808.5,-361.5 808.5,-342.5 752.5,-342.5"/>
<text text-anchor="middle" x="780.5" y="-349.5" font-family="Helvetica,sans-Serif" font-size="10.00">warning</text>
</a>
</g>
</g>
<!-- Node1&#45;&gt;Node34 -->
<g id="edge38" class="edge">
<title>Node1&#45;&gt;Node34</title>
<path fill="none" stroke="midnightblue" d="M915.95,-503.44C910.66,-470.95 895.41,-406.01 855,-371 842.25,-359.95 823.88,-355.2 808.69,-353.21"/>
<polygon fill="midnightblue" stroke="midnightblue" points="912.51,-504.09 917.43,-513.47 919.44,-503.07 912.51,-504.09"/>
</g>
<!-- Node9 -->
<g id="node9" class="node">
<title>Node9</title>
<g id="a_node9"><a xlink:href="classTestCase.html#a0d11e5a480783f9a30c443c28a6a7cae" target="_top" xlink:title="Asserts a given condition and logs the condition name if it fails.">
<polygon fill="none" stroke="black" points="556.5,-456.5 556.5,-475.5 652.5,-475.5 652.5,-456.5 556.5,-456.5"/>
<text text-anchor="middle" x="604.5" y="-463.5" font-family="Helvetica,sans-Serif" font-size="10.00">TestCase::assert</text>
</a>
</g>
</g>
<!-- Node8&#45;&gt;Node9 -->
<g id="edge8" class="edge">
<title>Node8&#45;&gt;Node9</title>
<path fill="none" stroke="midnightblue" d="M750.36,-434.36C722.7,-440.41 680.75,-449.57 649.1,-456.48"/>
<polygon fill="midnightblue" stroke="midnightblue" points="751.19,-437.76 760.21,-432.21 749.7,-430.93 751.19,-437.76"/>
</g>
<!-- Node10 -->
<g id="node10" class="node">
<title>Node10</title>
<g id="a_node10"><a xlink:href="baseConvert_8cpp.html#a6443634f54179f61c6e58098cbb32210" target="_top" xlink:title=" ">
<polygon fill="none" stroke="black" points="408.5,-342.5 408.5,-361.5 486.5,-361.5 486.5,-342.5 408.5,-342.5"/>
<text text-anchor="middle" x="447.5" y="-349.5" font-family="Helvetica,sans-Serif" font-size="10.00">baseConvert</text>
</a>
</g>
</g>
<!-- Node8&#45;&gt;Node10 -->
<g id="edge9" class="edge">
<title>Node8&#45;&gt;Node10</title>
<path fill="none" stroke="midnightblue" d="M750.11,-424.27C736.04,-421.55 719.39,-416.89 706,-409 685.96,-397.19 690.96,-381.1 670,-371 610.89,-342.52 532.61,-343.49 486.68,-347.35"/>
<polygon fill="midnightblue" stroke="midnightblue" points="749.82,-427.77 760.27,-426 750.99,-420.87 749.82,-427.77"/>
</g>
<!-- Node12 -->
<g id="node12" class="node">
<title>Node12</title>
<g id="a_node12"><a xlink:href="basicArithm_8hpp.html#aedf78136562346db852758c848f8e83d" target="_top" xlink:title="Converts a string representation of a number from one base to another.">
<polygon fill="none" stroke="black" points="92,-418.5 92,-437.5 186,-437.5 186,-418.5 92,-418.5"/>
<text text-anchor="middle" x="139" y="-425.5" font-family="Helvetica,sans-Serif" font-size="10.00">decimalConvert</text>
</a>
</g>
</g>
<!-- Node8&#45;&gt;Node12 -->
<g id="edge11" class="edge">
<title>Node8&#45;&gt;Node12</title>
<path fill="none" stroke="midnightblue" d="M750.21,-428C648.57,-428 310.46,-428 186.27,-428"/>
<polygon fill="midnightblue" stroke="midnightblue" points="750.36,-431.5 760.36,-428 750.36,-424.5 750.36,-431.5"/>
</g>
<!-- Node14 -->
<g id="node14" class="node">
<title>Node14</title>
<g id="a_node14"><a xlink:href="basicArithm_8hpp.html#acb4215189a8d1cfd37f4f6fe13890a8f" target="_top" xlink:title="Divides a string representation of a number by another string representation of a number.">
<polygon fill="none" stroke="black" points="581,-285.5 581,-304.5 628,-304.5 628,-285.5 581,-285.5"/>
<text text-anchor="middle" x="604.5" y="-292.5" font-family="Helvetica,sans-Serif" font-size="10.00">divide</text>
</a>
</g>
</g>
<!-- Node8&#45;&gt;Node14 -->
<g id="edge13" class="edge">
<title>Node8&#45;&gt;Node14</title>
<path fill="none" stroke="midnightblue" d="M750.29,-426.09C735.67,-423.82 718.48,-419.04 706,-409 678.43,-386.83 693.49,-364.46 670,-338 657.4,-323.81 639.11,-312.21 625.23,-304.64"/>
<polygon fill="midnightblue" stroke="midnightblue" points="750.02,-429.58 760.38,-427.33 750.88,-422.63 750.02,-429.58"/>
</g>
<!-- Node30 -->
<g id="node30" class="node">
<title>Node30</title>
<g id="a_node30"><a xlink:href="basicArithm_8hpp.html#a4e1bb2f02ee5d9df627a57d0899ac07b" target="_top" xlink:title="Executes a given predicate function a specified number of times.">
<polygon fill="none" stroke="black" points="585.5,-380.5 585.5,-399.5 623.5,-399.5 623.5,-380.5 585.5,-380.5"/>
<text text-anchor="middle" x="604.5" y="-387.5" font-family="Helvetica,sans-Serif" font-size="10.00">loop</text>
</a>
</g>
</g>
<!-- Node8&#45;&gt;Node30 -->
<g id="edge32" class="edge">
<title>Node8&#45;&gt;Node30</title>
<path fill="none" stroke="midnightblue" d="M750.26,-421.62C714.09,-413.71 653.6,-400.5 623.56,-393.94"/>
<polygon fill="midnightblue" stroke="midnightblue" points="749.7,-425.07 760.21,-423.79 751.19,-418.24 749.7,-425.07"/>
</g>
<!-- Node11 -->
<g id="node11" class="node">
<title>Node11</title>
<g id="a_node11"><a xlink:href="baseConvert_8cpp.html#ae66f6b31b5ad750f1fe042a706a4e3d4" target="_top" xlink:title=" ">
<polygon fill="none" stroke="black" points="276,-342.5 276,-361.5 317,-361.5 317,-342.5 276,-342.5"/>
<text text-anchor="middle" x="296.5" y="-349.5" font-family="Helvetica,sans-Serif" font-size="10.00">main</text>
</a>
</g>
</g>
<!-- Node10&#45;&gt;Node11 -->
<g id="edge10" class="edge">
<title>Node10&#45;&gt;Node11</title>
<path fill="none" stroke="midnightblue" d="M397.89,-352C370.38,-352 337.49,-352 317.05,-352"/>
<polygon fill="midnightblue" stroke="midnightblue" points="398.13,-355.5 408.13,-352 398.13,-348.5 398.13,-355.5"/>
</g>
<!-- Node13 -->
<g id="node13" class="node">
<title>Node13</title>
<g id="a_node13"><a xlink:href="decimalConvert_8cpp.html#ac2c7bcd6d73ca32ee42312d0fa0b1aa9" target="_top" xlink:title=" ">
<polygon fill="none" stroke="black" points="0,-418.5 0,-437.5 41,-437.5 41,-418.5 0,-418.5"/>
<text text-anchor="middle" x="20.5" y="-425.5" font-family="Helvetica,sans-Serif" font-size="10.00">main</text>
</a>
</g>
</g>
<!-- Node12&#45;&gt;Node13 -->
<g id="edge12" class="edge">
<title>Node12&#45;&gt;Node13</title>
<path fill="none" stroke="midnightblue" d="M81.89,-428C67.24,-428 52.42,-428 41.12,-428"/>
<polygon fill="midnightblue" stroke="midnightblue" points="81.96,-431.5 91.96,-428 81.96,-424.5 81.96,-431.5"/>
</g>
<!-- Node14&#45;&gt;Node10 -->
<g id="edge14" class="edge">
<title>Node14&#45;&gt;Node10</title>
<path fill="none" stroke="midnightblue" d="M571.39,-307.38C551.7,-314.92 525.95,-324.66 503,-333 494.34,-336.15 484.86,-339.49 476.28,-342.47"/>
<polygon fill="midnightblue" stroke="midnightblue" points="572.73,-310.62 580.81,-303.77 570.22,-304.08 572.73,-310.62"/>
</g>
<!-- Node15 -->
<g id="node15" class="node">
<title>Node15</title>
<g id="a_node15"><a xlink:href="basicArithm_8hpp.html#a3b20eba6c9046b375489c668443c165d" target="_top" xlink:title=" ">
<polygon fill="none" stroke="black" points="392,-304.5 392,-323.5 503,-323.5 503,-304.5 392,-304.5"/>
<text text-anchor="middle" x="447.5" y="-311.5" font-family="Helvetica,sans-Serif" font-size="10.00">divideWithQuotient</text>
</a>
</g>
</g>
<!-- Node14&#45;&gt;Node15 -->
<g id="edge15" class="edge">
<title>Node14&#45;&gt;Node15</title>
<path fill="none" stroke="midnightblue" d="M571,-298.98C551.38,-301.39 525.87,-304.52 503.21,-307.29"/>
<polygon fill="midnightblue" stroke="midnightblue" points="571.46,-302.45 580.96,-297.76 570.61,-295.51 571.46,-302.45"/>
</g>
<!-- Node17 -->
<g id="node17" class="node">
<title>Node17</title>
<g id="a_node17"><a xlink:href="division_8cpp.html#a065a3ee9a7ec43a06ab2fddbc3019a17" target="_top" xlink:title=" ">
<polygon fill="none" stroke="black" points="427,-266.5 427,-285.5 468,-285.5 468,-266.5 427,-266.5"/>
<text text-anchor="middle" x="447.5" y="-273.5" font-family="Helvetica,sans-Serif" font-size="10.00">main</text>
</a>
</g>
</g>
<!-- Node14&#45;&gt;Node17 -->
<g id="edge17" class="edge">
<title>Node14&#45;&gt;Node17</title>
<path fill="none" stroke="midnightblue" d="M571.03,-291.02C539.93,-287.21 494.01,-281.58 468.12,-278.41"/>
<polygon fill="midnightblue" stroke="midnightblue" points="570.61,-294.49 580.96,-292.24 571.46,-287.55 570.61,-294.49"/>
</g>
<!-- Node18 -->
<g id="node18" class="node">
<title>Node18</title>
<g id="a_node18"><a xlink:href="classNumber.html#a149a0b50f21e5e73af612d3d7b8fecb7" target="_top" xlink:title="Divides two numbers.">
<polygon fill="none" stroke="black" points="394.5,-228.5 394.5,-247.5 500.5,-247.5 500.5,-228.5 394.5,-228.5"/>
<text text-anchor="middle" x="447.5" y="-235.5" font-family="Helvetica,sans-Serif" font-size="10.00">Number::operator/</text>
</a>
</g>
</g>
<!-- Node14&#45;&gt;Node18 -->
<g id="edge18" class="edge">
<title>Node14&#45;&gt;Node18</title>
<path fill="none" stroke="midnightblue" d="M571.39,-282.62C551.7,-275.08 525.95,-265.34 503,-257 494.34,-253.85 484.86,-250.51 476.28,-247.53"/>
<polygon fill="midnightblue" stroke="midnightblue" points="570.22,-285.92 580.81,-286.23 572.73,-279.38 570.22,-285.92"/>
</g>
<!-- Node19 -->
<g id="node19" class="node">
<title>Node19</title>
<g id="a_node19"><a xlink:href="powerReport_8cpp.html#afff5f8aa771cf432836ef03f6f442dae" target="_top" xlink:title="Reports a power operation.">
<polygon fill="none" stroke="black" points="409.5,-380.5 409.5,-399.5 485.5,-399.5 485.5,-380.5 409.5,-380.5"/>
<text text-anchor="middle" x="447.5" y="-387.5" font-family="Helvetica,sans-Serif" font-size="10.00">reportPower</text>
</a>
</g>
</g>
<!-- Node14&#45;&gt;Node19 -->
<g id="edge19" class="edge">
<title>Node14&#45;&gt;Node19</title>
<path fill="none" stroke="midnightblue" d="M585.45,-311.44C566.2,-328.28 534.25,-354.27 503,-371 496.2,-374.64 488.56,-377.81 481.2,-380.46"/>
<polygon fill="midnightblue" stroke="midnightblue" points="587.96,-313.89 593.11,-304.63 583.31,-308.66 587.96,-313.89"/>
</g>
<!-- Node24 -->
<g id="node24" class="node">
<title>Node24</title>
<g id="a_node24"><a xlink:href="classFraction.html#a6a5092eb855dac602718b19eb7fe0d6d" target="_top" xlink:title="Simplifies a fraction. This function simplifies the fraction by dividing the top and bottom component...">
<polygon fill="none" stroke="black" points="397,-95.5 397,-114.5 498,-114.5 498,-95.5 397,-95.5"/>
<text text-anchor="middle" x="447.5" y="-102.5" font-family="Helvetica,sans-Serif" font-size="10.00">Fraction::simplify</text>
</a>
</g>
</g>
<!-- Node14&#45;&gt;Node24 -->
<g id="edge26" class="edge">
<title>Node14&#45;&gt;Node24</title>
<path fill="none" stroke="midnightblue" d="M589.17,-277.43C557.31,-238.38 481.47,-145.41 456.57,-114.89"/>
<polygon fill="midnightblue" stroke="midnightblue" points="586.57,-279.78 595.6,-285.32 591.99,-275.36 586.57,-279.78"/>
</g>
<!-- Node16 -->
<g id="node16" class="node">
<title>Node16</title>
<g id="a_node16"><a xlink:href="classNumber.html#ad8409f892bbe8cb1be5b4385914b40b2" target="_top" xlink:title="Calculates the remainder of two numbers. (Modulus)">
<polygon fill="none" stroke="black" points="240,-304.5 240,-323.5 353,-323.5 353,-304.5 240,-304.5"/>
<text text-anchor="middle" x="296.5" y="-311.5" font-family="Helvetica,sans-Serif" font-size="10.00">Number::operator%</text>
</a>
</g>
</g>
<!-- Node15&#45;&gt;Node16 -->
<g id="edge16" class="edge">
<title>Node15&#45;&gt;Node16</title>
<path fill="none" stroke="midnightblue" d="M381.66,-314C372.15,-314 362.43,-314 353.13,-314"/>
<polygon fill="midnightblue" stroke="midnightblue" points="381.86,-317.5 391.86,-314 381.86,-310.5 381.86,-317.5"/>
</g>
<!-- Node20 -->
<g id="node20" class="node">
<title>Node20</title>
<g id="a_node20"><a xlink:href="basicArithm_8hpp.html#a5967cef8aeb4f6ea90014159becd286d" target="_top" xlink:title="Raises a string representation of a number to a power.">
<polygon fill="none" stroke="black" points="273,-380.5 273,-399.5 320,-399.5 320,-380.5 273,-380.5"/>
<text text-anchor="middle" x="296.5" y="-387.5" font-family="Helvetica,sans-Serif" font-size="10.00">power</text>
</a>
</g>
</g>
<!-- Node19&#45;&gt;Node20 -->
<g id="edge20" class="edge">
<title>Node19&#45;&gt;Node20</title>
<path fill="none" stroke="midnightblue" d="M399.12,-390C372.79,-390 341.24,-390 320.35,-390"/>
<polygon fill="midnightblue" stroke="midnightblue" points="399.29,-393.5 409.29,-390 399.29,-386.5 399.29,-393.5"/>
</g>
<!-- Node20&#45;&gt;Node12 -->
<g id="edge21" class="edge">
<title>Node20&#45;&gt;Node12</title>
<path fill="none" stroke="midnightblue" d="M263,-397.94C238.51,-403.93 204.82,-412.16 178.9,-418.49"/>
<polygon fill="midnightblue" stroke="midnightblue" points="264.01,-401.3 272.89,-395.53 262.34,-394.5 264.01,-401.3"/>
</g>
<!-- Node21 -->
<g id="node21" class="node">
<title>Node21</title>
<g id="a_node21"><a xlink:href="division_8cpp.html#a222752517a35fde0e4de4bb32cbaa9be" target="_top" xlink:title="Determines the scale of the quotient of division.">
<polygon fill="none" stroke="black" points="77,-247.5 77,-266.5 201,-266.5 201,-247.5 77,-247.5"/>
<text text-anchor="middle" x="139" y="-254.5" font-family="Helvetica,sans-Serif" font-size="10.00">determineResultScale</text>
</a>
</g>
</g>
<!-- Node20&#45;&gt;Node21 -->
<g id="edge22" class="edge">
<title>Node20&#45;&gt;Node21</title>
<path fill="none" stroke="midnightblue" d="M263.05,-382.94C254.14,-380.1 244.8,-376.22 237,-371 225.77,-363.48 168.75,-292.92 147.77,-266.73"/>
<polygon fill="midnightblue" stroke="midnightblue" points="262.23,-386.34 272.81,-385.72 264.15,-379.61 262.23,-386.34"/>
</g>
<!-- Node22 -->
<g id="node22" class="node">
<title>Node22</title>
<g id="a_node22"><a xlink:href="power_8cpp.html#a065a3ee9a7ec43a06ab2fddbc3019a17" target="_top" xlink:title=" ">
<polygon fill="none" stroke="black" points="118.5,-342.5 118.5,-361.5 159.5,-361.5 159.5,-342.5 118.5,-342.5"/>
<text text-anchor="middle" x="139" y="-349.5" font-family="Helvetica,sans-Serif" font-size="10.00">main</text>
</a>
</g>
</g>
<!-- Node20&#45;&gt;Node22 -->
<g id="edge24" class="edge">
<title>Node20&#45;&gt;Node22</title>
<path fill="none" stroke="midnightblue" d="M262.93,-382.04C231.72,-374.41 185.66,-363.16 159.68,-356.81"/>
<polygon fill="midnightblue" stroke="midnightblue" points="262.34,-385.5 272.89,-384.47 264.01,-378.7 262.34,-385.5"/>
</g>
<!-- Node23 -->
<g id="node23" class="node">
<title>Node23</title>
<g id="a_node23"><a xlink:href="classNumber.html#a98a2fe6b66184133f1261d2825875cd9" target="_top" xlink:title="Raises the number to a power.">
<polygon fill="none" stroke="black" points="83.5,-380.5 83.5,-399.5 194.5,-399.5 194.5,-380.5 83.5,-380.5"/>
<text text-anchor="middle" x="139" y="-387.5" font-family="Helvetica,sans-Serif" font-size="10.00">Number::operator^</text>
</a>
</g>
</g>
<!-- Node20&#45;&gt;Node23 -->
<g id="edge25" class="edge">
<title>Node20&#45;&gt;Node23</title>
<path fill="none" stroke="midnightblue" d="M262.85,-390C243.08,-390 217.35,-390 194.55,-390"/>
<polygon fill="midnightblue" stroke="midnightblue" points="262.89,-393.5 272.89,-390 262.89,-386.5 262.89,-393.5"/>
</g>
<!-- Node21&#45;&gt;Node14 -->
<g id="edge23" class="edge">
<title>Node21&#45;&gt;Node14</title>
<path fill="none" stroke="midnightblue" d="M174.46,-244.02C240.21,-221.28 387.29,-180.18 503,-219 542.61,-232.29 579.06,-268.06 595.01,-285.36"/>
<polygon fill="midnightblue" stroke="midnightblue" points="173.26,-240.74 165,-247.37 175.59,-247.34 173.26,-240.74"/>
</g>
<!-- Node25 -->
<g id="node25" class="node">
<title>Node25</title>
<g id="a_node25"><a xlink:href="classFraction.html#a260e2faf8062c854a286b79591f87b65" target="_top" xlink:title="Multiplies two fractions together and stores the result in the current one. This function does it by ...">
<polygon fill="none" stroke="black" points="238.5,-114.5 238.5,-133.5 354.5,-133.5 354.5,-114.5 238.5,-114.5"/>
<text text-anchor="middle" x="296.5" y="-121.5" font-family="Helvetica,sans-Serif" font-size="10.00">Fraction::operator*=</text>
</a>
</g>
</g>
<!-- Node24&#45;&gt;Node25 -->
<g id="edge27" class="edge">
<title>Node24&#45;&gt;Node25</title>
<path fill="none" stroke="midnightblue" d="M386.86,-112.61C376.23,-113.96 365.18,-115.37 354.63,-116.72"/>
<polygon fill="midnightblue" stroke="midnightblue" points="387.41,-116.06 396.89,-111.33 386.52,-109.12 387.41,-116.06"/>
</g>
<!-- Node26 -->
<g id="node26" class="node">
<title>Node26</title>
<g id="a_node26"><a xlink:href="classFraction.html#a2c891f9bf7f6dbed8e5a8b4386ce3688" target="_top" xlink:title="Adds two fractions together and stores the result in the current one. This function does it by doing ...">
<polygon fill="none" stroke="black" points="237,-76.5 237,-95.5 356,-95.5 356,-76.5 237,-76.5"/>
<text text-anchor="middle" x="296.5" y="-83.5" font-family="Helvetica,sans-Serif" font-size="10.00">Fraction::operator+=</text>
</a>
</g>
</g>
<!-- Node24&#45;&gt;Node26 -->
<g id="edge28" class="edge">
<title>Node24&#45;&gt;Node26</title>
<path fill="none" stroke="midnightblue" d="M386.92,-97.4C376.8,-96.11 366.3,-94.77 356.2,-93.49"/>
<polygon fill="midnightblue" stroke="midnightblue" points="386.52,-100.88 396.89,-98.67 387.41,-93.94 386.52,-100.88"/>
</g>
<!-- Node27 -->
<g id="node27" class="node">
<title>Node27</title>
<g id="a_node27"><a xlink:href="classFraction.html#a2e3544fa85d66736287a981fe24bed1b" target="_top" xlink:title="Subtracts a fraction from another fraction and stores the result in the current one....">
<polygon fill="none" stroke="black" points="239,-38.5 239,-57.5 354,-57.5 354,-38.5 239,-38.5"/>
<text text-anchor="middle" x="296.5" y="-45.5" font-family="Helvetica,sans-Serif" font-size="10.00">Fraction::operator&#45;=</text>
</a>
</g>
</g>
<!-- Node24&#45;&gt;Node27 -->
<g id="edge29" class="edge">
<title>Node24&#45;&gt;Node27</title>
<path fill="none" stroke="midnightblue" d="M415.51,-91.23C398.15,-83.71 376.03,-74.44 356,-67 347.19,-63.73 337.53,-60.46 328.63,-57.58"/>
<polygon fill="midnightblue" stroke="midnightblue" points="414.56,-94.64 425.12,-95.43 417.36,-88.22 414.56,-94.64"/>
</g>
<!-- Node28 -->
<g id="node28" class="node">
<title>Node28</title>
<g id="a_node28"><a xlink:href="classFraction.html#a2f92ff208c733cbd53e268c710f885d9" target="_top" xlink:title="Divides a fraction by abother fraction and stores the result in the current one. This function does i...">
<polygon fill="none" stroke="black" points="239.5,-0.5 239.5,-19.5 353.5,-19.5 353.5,-0.5 239.5,-0.5"/>
<text text-anchor="middle" x="296.5" y="-7.5" font-family="Helvetica,sans-Serif" font-size="10.00">Fraction::operator/=</text>
</a>
</g>
</g>
<!-- Node24&#45;&gt;Node28 -->
<g id="edge30" class="edge">
<title>Node24&#45;&gt;Node28</title>
<path fill="none" stroke="midnightblue" d="M430.2,-87.89C413.13,-70.85 384.84,-44.99 356,-29 349.28,-25.27 341.71,-22.14 334.3,-19.56"/>
<polygon fill="midnightblue" stroke="midnightblue" points="428.13,-90.78 437.63,-95.47 433.13,-85.88 428.13,-90.78"/>
</g>
<!-- Node29 -->
<g id="node29" class="node">
<title>Node29</title>
<g id="a_node29"><a xlink:href="classFraction.html#a166ddec943ec4f6ded679ab8d29ebe68" target="_top" xlink:title=" ">
<polygon fill="none" stroke="black" points="247.5,-152.5 247.5,-171.5 345.5,-171.5 345.5,-152.5 247.5,-152.5"/>
<text text-anchor="middle" x="296.5" y="-159.5" font-family="Helvetica,sans-Serif" font-size="10.00">Fraction::present</text>
</a>
</g>
</g>
<!-- Node24&#45;&gt;Node29 -->
<g id="edge31" class="edge">
<title>Node24&#45;&gt;Node29</title>
<path fill="none" stroke="midnightblue" d="M415.51,-118.77C398.15,-126.29 376.03,-135.56 356,-143 347.19,-146.27 337.53,-149.54 328.63,-152.42"/>
<polygon fill="midnightblue" stroke="midnightblue" points="417.36,-121.78 425.12,-114.57 414.56,-115.36 417.36,-121.78"/>
</g>
<!-- Node30&#45;&gt;Node19 -->
<g id="edge33" class="edge">
<title>Node30&#45;&gt;Node19</title>
<path fill="none" stroke="midnightblue" d="M575.09,-390C549.94,-390 513.07,-390 485.6,-390"/>
<polygon fill="midnightblue" stroke="midnightblue" points="575.42,-393.5 585.42,-390 575.42,-386.5 575.42,-393.5"/>
</g>
<!-- Node31&#45;&gt;Node9 -->
<g id="edge35" class="edge">
<title>Node31&#45;&gt;Node9</title>
<path fill="none" stroke="midnightblue" d="M752.74,-466C726.18,-466 684.9,-466 652.8,-466"/>
<polygon fill="midnightblue" stroke="midnightblue" points="752.82,-469.5 762.82,-466 752.82,-462.5 752.82,-469.5"/>
</g>
<!-- Node32 -->
<g id="node32" class="node">
<title>Node32</title>
<g id="a_node32"><a xlink:href="classlogging_1_1Logger.html#a5eb000375caf0992557c973f7dfaff9a" target="_top" xlink:title="Constructs a Logger object.">
<polygon fill="none" stroke="black" points="539,-494.5 539,-513.5 670,-513.5 670,-494.5 539,-494.5"/>
<text text-anchor="middle" x="604.5" y="-501.5" font-family="Helvetica,sans-Serif" font-size="10.00">logging::Logger::Logger</text>
</a>
</g>
</g>
<!-- Node31&#45;&gt;Node32 -->
<g id="edge36" class="edge">
<title>Node31&#45;&gt;Node32</title>
<path fill="none" stroke="midnightblue" d="M752.73,-471.85C725.14,-477.87 681.69,-487.36 649.13,-494.47"/>
<polygon fill="midnightblue" stroke="midnightblue" points="753.79,-475.2 762.82,-469.64 752.3,-468.36 753.79,-475.2"/>
</g>
</g>
</svg>
        <g id="navigator" transform="translate(0 0)" fill="#404254">
                <rect fill="#f2f5e9" fill-opacity="0.5" stroke="#606060" stroke-width=".5" x="0" y="0" width="60" height="60"/>
                <use id="zoomplus" xlink:href="#zoomPlus" x="17" y="9" onmousedown="handleZoom(evt,'in')"/>
                <use id="zoomminus" xlink:href="#zoomMin" x="42" y="9" onmousedown="handleZoom(evt,'out')"/>
                <use id="reset" xlink:href="#resetDef" x="30" y="36" onmousedown="handleReset()"/>
                <g id="arrowUp" xlink:href="#dirArrow" transform="translate(30 24)" onmousedown="handlePan(0,-1)">
                  <use xlink:href="#rim" fill="#404040">
                        <set attributeName="fill" to="#808080" begin="arrowUp.mouseover" end="arrowUp.mouseout"/>
                  </use>
                  <path fill="none" stroke="white" stroke-width="1.5" d="M0,-3.0v7 M-2.5,-0.5L0,-3.0L2.5,-0.5"/>
                </g>
                <g id="arrowRight" xlink:href="#dirArrow" transform="rotate(90) translate(36 -43)" onmousedown="handlePan(1,0)">
                  <use xlink:href="#rim" fill="#404040">
                        <set attributeName="fill" to="#808080" begin="arrowRight.mouseover" end="arrowRight.mouseout"/>
                  </use>
                  <path fill="none" stroke="white" stroke-width="1.5" d="M0,-3.0v7 M-2.5,-0.5L0,-3.0L2.5,-0.5"/>
                </g>
                <g id="arrowDown" xlink:href="#dirArrow" transform="rotate(180) translate(-30 -48)" onmousedown="handlePan(0,1)">
                  <use xlink:href="#rim" fill="#404040">
                        <set attributeName="fill" to="#808080" begin="arrowDown.mouseover" end="arrowDown.mouseout"/>
                  </use>
                  <path fill="none" stroke="white" stroke-width="1.5" d="M0,-3.0v7 M-2.5,-0.5L0,-3.0L2.5,-0.5"/>
                </g>
                <g id="arrowLeft" xlink:href="#dirArrow" transform="rotate(270) translate(-36 17)" onmousedown="handlePan(-1,0)">
                  <use xlink:href="#rim" fill="#404040">
                        <set attributeName="fill" to="#808080" begin="arrowLeft.mouseover" end="arrowLeft.mouseout"/>
                  </use>
                  <path fill="none" stroke="white" stroke-width="1.5" d="M0,-3.0v7 M-2.5,-0.5L0,-3.0L2.5,-0.5"/>
                </g>
        </g>
        <svg viewBox="0 0 15 15" width="100%" height="30px" preserveAspectRatio="xMaxYMin meet">
         <g id="arrow_out" transform="scale(0.3 0.3)">
          <a xlink:href="format_8hpp_aec7a78e0e53305094ec38dc8bd038de8_icgraph_org.svg" target="_base">
           <rect id="button" ry="5" rx="5" y="6" x="6" height="38" width="38"
                fill="#f2f5e9" fill-opacity="0.5" stroke="#606060" stroke-width="1.0"/>
           <path id="arrow"
             d="M 11.500037,31.436501 C 11.940474,20.09759 22.043105,11.32322 32.158766,21.979434 L 37.068811,17.246167 C 37.068811,17.246167 37.088388,32 37.088388,32 L 22.160133,31.978069 C 22.160133,31.978069 26.997745,27.140456 26.997745,27.140456 C 18.528582,18.264221 13.291696,25.230495 11.500037,31.436501 z"
             style="fill:#404040;"/>
          </a>
         </g>
        </svg>
</svg>
