<?xml version="1.0" encoding="UTF-8" standalone="no"?>
<!DOCTYPE svg PUBLIC "-//W3C//DTD SVG 1.1//EN"
 "http://www.w3.org/Graphics/SVG/1.1/DTD/svg11.dtd">
<!-- Generated by graphviz version 12.0.0 (20240704.0754)
 -->
<!-- Title: Graphical Class Hierarchy Pages: 1 -->
<svg width="277pt" height="68pt"
 viewBox="0.00 0.00 277.00 67.75" xmlns="http://www.w3.org/2000/svg" xmlns:xlink="http://www.w3.org/1999/xlink">
<g id="graph0" class="graph" transform="scale(1 1) rotate(0) translate(4 63.75)">
<title>Graphical Class Hierarchy</title>
<!-- Node0 -->
<g id="Node000000" class="node">
<title>Node0</title>
<g id="a_Node000000"><a xlink:title=" ">
<polygon fill="#e0e0e0" stroke="#999999" points="119.5,-59.75 0,-59.75 0,-39 119.5,-39 119.5,-59.75"/>
<text text-anchor="middle" x="59.75" y="-46.25" font-family="Helvetica,sans-Serif" font-size="10.00">&lt;NSTextInputClient&gt;</text>
</a>
</g>
</g>
<!-- Node1 -->
<g id="Node000001" class="node">
<title>Node1</title>
<g id="a_Node000001"><a xlink:href="interfaceKeyEventResponder.html" target="_top" xlink:title=" ">
<polygon fill="white" stroke="#666666" points="269,-39.75 155.5,-39.75 155.5,-19 269,-19 269,-39.75"/>
<text text-anchor="middle" x="212.25" y="-26.25" font-family="Helvetica,sans-Serif" font-size="10.00">KeyEventResponder</text>
</a>
</g>
</g>
<!-- Node0&#45;&gt;Node1 -->
<g id="edge10_Node000000_Node000001" class="edge">
<title>Node0&#45;&gt;Node1</title>
<g id="a_edge10_Node000000_Node000001"><a xlink:title=" ">
<path fill="none" stroke="#63b8ff" d="M131.17,-40.02C139.27,-38.94 147.45,-37.85 155.32,-36.81"/>
<polygon fill="#63b8ff" stroke="#63b8ff" points="130.75,-36.54 121.3,-41.33 131.67,-43.48 130.75,-36.54"/>
</a>
</g>
</g>
<!-- Node2 -->
<g id="Node000002" class="node">
<title>Node2</title>
<g id="a_Node000002"><a xlink:title=" ">
<polygon fill="#e0e0e0" stroke="#999999" points="86.5,-20.75 33,-20.75 33,0 86.5,0 86.5,-20.75"/>
<text text-anchor="middle" x="59.75" y="-7.25" font-family="Helvetica,sans-Serif" font-size="10.00">NSView</text>
</a>
</g>
</g>
<!-- Node2&#45;&gt;Node1 -->
<g id="edge11_Node000002_Node000001" class="edge">
<title>Node2&#45;&gt;Node1</title>
<g id="a_edge11_Node000002_Node000001"><a xlink:title=" ">
<path fill="none" stroke="#63b8ff" d="M98.23,-15.11C115.4,-17.27 136.12,-19.89 155.11,-22.29"/>
<polygon fill="#63b8ff" stroke="#63b8ff" points="98.83,-11.65 88.47,-13.87 97.95,-18.6 98.83,-11.65"/>
</a>
</g>
</g>
</g>
</svg>
