<?xml version="1.0" encoding="UTF-8" standalone="no"?>
<!DOCTYPE svg PUBLIC "-//W3C//DTD SVG 1.1//EN"
 "http://www.w3.org/Graphics/SVG/1.1/DTD/svg11.dtd">
<!-- Generated by graphviz version 12.0.0 (20240704.0754)
 -->
<!-- Title: FramebufferDescriptor Pages: 1 -->
<svg width="172pt" height="86pt"
 viewBox="0.00 0.00 172.38 85.50" xmlns="http://www.w3.org/2000/svg" xmlns:xlink="http://www.w3.org/1999/xlink">
<g id="graph0" class="graph" transform="scale(1 1) rotate(0) translate(4 81.5)">
<title>FramebufferDescriptor</title>
<!-- Node1 -->
<g id="Node000001" class="node">
<title>Node1</title>
<g id="a_Node000001"><a xlink:title=" ">
<polygon fill="#999999" stroke="#666666" points="138.25,-20.75 12.75,-20.75 12.75,0 138.25,0 138.25,-20.75"/>
<text text-anchor="middle" x="75.5" y="-7.25" font-family="Helvetica,sans-Serif" font-size="10.00">FramebufferDescriptor</text>
</a>
</g>
</g>
<!-- Node2 -->
<g id="Node000002" class="node">
<title>Node2</title>
<g id="a_Node000002"><a xlink:title=" ">
<polygon fill="white" stroke="#666666" points="61,-77.5 0,-77.5 0,-56.75 61,-56.75 61,-77.5"/>
<text text-anchor="middle" x="30.5" y="-64" font-family="Helvetica,sans-Serif" font-size="10.00">NSObject</text>
</a>
</g>
</g>
<!-- Node2&#45;&gt;Node1 -->
<g id="edge1_Node000001_Node000002" class="edge">
<title>Node2&#45;&gt;Node1</title>
<g id="a_edge1_Node000001_Node000002"><a xlink:title=" ">
<path fill="none" stroke="#63b8ff" d="M45.84,-47.46C53.13,-38.59 61.53,-28.37 67.52,-21.08"/>
<polygon fill="#63b8ff" stroke="#63b8ff" points="43.15,-45.22 39.51,-55.17 48.56,-49.66 43.15,-45.22"/>
</a>
</g>
</g>
<!-- Node3 -->
<g id="Node000003" class="node">
<title>Node3</title>
<g id="a_Node000003"><a xlink:title=" ">
<polygon fill="white" stroke="#666666" points="164.38,-77.5 78.62,-77.5 78.62,-56.75 164.38,-56.75 164.38,-77.5"/>
<text text-anchor="middle" x="121.5" y="-64" font-family="Helvetica,sans-Serif" font-size="10.00">&lt;NSCopying&gt;</text>
</a>
</g>
</g>
<!-- Node3&#45;&gt;Node1 -->
<g id="edge2_Node000001_Node000003" class="edge">
<title>Node3&#45;&gt;Node1</title>
<g id="a_edge2_Node000001_Node000003"><a xlink:title=" ">
<path fill="none" stroke="#63b8ff" d="M106.05,-47.74C98.55,-38.81 89.85,-28.45 83.65,-21.08"/>
<polygon fill="#63b8ff" stroke="#63b8ff" points="103.19,-49.77 112.3,-55.18 108.55,-45.27 103.19,-49.77"/>
</a>
</g>
</g>
</g>
</svg>
