<?xml version="1.0" encoding="UTF-8" standalone="no"?>
<!DOCTYPE svg PUBLIC "-//W3C//DTD SVG 1.1//EN"
 "http://www.w3.org/Graphics/SVG/1.1/DTD/svg11.dtd">
<!-- Generated by graphviz version 2.43.0 (0)
 -->
<!-- Title: include/logging.hpp Pages: 1 -->
<svg width="1808pt" height="207pt"
 viewBox="0.00 0.00 1807.50 207.00" xmlns="http://www.w3.org/2000/svg" xmlns:xlink="http://www.w3.org/1999/xlink">
<g id="graph0" class="graph" transform="scale(1 1) rotate(0) translate(4 203)">
<title>include/logging.hpp</title>
<!-- Node1 -->
<g id="node1" class="node">
<title>Node1</title>
<g id="a_node1"><a xlink:title="This file contains the declaration of the Logger class. The Logger class provides logging functionali...">
<polygon fill="#bfbfbf" stroke="black" points="588,-179.5 588,-198.5 700,-198.5 700,-179.5 588,-179.5"/>
<text text-anchor="middle" x="644" y="-186.5" font-family="Helvetica,sans-Serif" font-size="10.00">include/logging.hpp</text>
</a>
</g>
</g>
<!-- Node2 -->
<g id="node2" class="node">
<title>Node2</title>
<g id="a_node2"><a xlink:href="output_8hpp.html" target="_top" xlink:title="This file contains functions for displaying error, warning, and info messages.">
<polygon fill="none" stroke="black" points="532.5,-123.5 532.5,-142.5 639.5,-142.5 639.5,-123.5 532.5,-123.5"/>
<text text-anchor="middle" x="586" y="-130.5" font-family="Helvetica,sans-Serif" font-size="10.00">include/output.hpp</text>
</a>
</g>
</g>
<!-- Node1&#45;&gt;Node2 -->
<g id="edge1" class="edge">
<title>Node1&#45;&gt;Node2</title>
<path fill="none" stroke="midnightblue" d="M627.09,-172.25C616.8,-162.67 604.03,-150.79 595.49,-142.83"/>
<polygon fill="midnightblue" stroke="midnightblue" points="624.98,-175.07 634.68,-179.32 629.75,-169.95 624.98,-175.07"/>
</g>
<!-- Node18 -->
<g id="node18" class="node">
<title>Node18</title>
<g id="a_node18"><a xlink:href="logging_8cpp.html" target="_top" xlink:title=" ">
<polygon fill="none" stroke="black" points="658,-123.5 658,-142.5 748,-142.5 748,-123.5 658,-123.5"/>
<text text-anchor="middle" x="703" y="-130.5" font-family="Helvetica,sans-Serif" font-size="10.00">src/logging.cpp</text>
</a>
</g>
</g>
<!-- Node1&#45;&gt;Node18 -->
<g id="edge20" class="edge">
<title>Node1&#45;&gt;Node18</title>
<path fill="none" stroke="midnightblue" d="M660.89,-172.54C671.41,-162.91 684.57,-150.87 693.35,-142.83"/>
<polygon fill="midnightblue" stroke="midnightblue" points="658.49,-169.99 653.48,-179.32 663.22,-175.15 658.49,-169.99"/>
</g>
<!-- Node3 -->
<g id="node3" class="node">
<title>Node3</title>
<g id="a_node3"><a xlink:href="basicArithm_8hpp.html" target="_top" xlink:title="This file contains functions for basic arithmetic operations on strings.">
<polygon fill="none" stroke="black" points="583.5,-67.5 583.5,-86.5 730.5,-86.5 730.5,-67.5 583.5,-67.5"/>
<text text-anchor="middle" x="657" y="-74.5" font-family="Helvetica,sans-Serif" font-size="10.00">include/fn/basicArithm.hpp</text>
</a>
</g>
</g>
<!-- Node2&#45;&gt;Node3 -->
<g id="edge2" class="edge">
<title>Node2&#45;&gt;Node3</title>
<path fill="none" stroke="midnightblue" d="M605.59,-117.1C618.37,-107.38 634.61,-95.03 645.39,-86.83"/>
<polygon fill="midnightblue" stroke="midnightblue" points="603.25,-114.48 597.41,-123.32 607.49,-120.06 603.25,-114.48"/>
</g>
<!-- Node4 -->
<g id="node4" class="node">
<title>Node4</title>
<g id="a_node4"><a xlink:href="abs_8cpp.html" target="_top" xlink:title=" ">
<polygon fill="none" stroke="black" points="0,-6 0,-25 92,-25 92,-6 0,-6"/>
<text text-anchor="middle" x="46" y="-13" font-family="Helvetica,sans-Serif" font-size="10.00">src/abs/abs.cpp</text>
</a>
</g>
</g>
<!-- Node2&#45;&gt;Node4 -->
<g id="edge15" class="edge">
<title>Node2&#45;&gt;Node4</title>
<path fill="none" stroke="midnightblue" d="M530.67,-121.53C440.38,-104.2 255.9,-67.82 101,-31 93.31,-29.17 85.06,-27.07 77.35,-25.05"/>
<polygon fill="midnightblue" stroke="midnightblue" points="530.2,-125 540.68,-123.44 531.51,-118.13 530.2,-125"/>
</g>
<!-- Node6 -->
<g id="node6" class="node">
<title>Node6</title>
<g id="a_node6"><a xlink:href="baseConvert_8cpp.html" target="_top" xlink:title=" ">
<polygon fill="none" stroke="black" points="110,-6 110,-25 290,-25 290,-6 110,-6"/>
<text text-anchor="middle" x="200" y="-13" font-family="Helvetica,sans-Serif" font-size="10.00">src/baseConvert/baseConvert.cpp</text>
</a>
</g>
</g>
<!-- Node2&#45;&gt;Node6 -->
<g id="edge17" class="edge">
<title>Node2&#45;&gt;Node6</title>
<path fill="none" stroke="midnightblue" d="M547.47,-120.47C470.01,-97.29 297.02,-45.53 228.62,-25.06"/>
<polygon fill="midnightblue" stroke="midnightblue" points="546.72,-123.9 557.3,-123.41 548.73,-117.19 546.72,-123.9"/>
</g>
<!-- Node9 -->
<g id="node9" class="node">
<title>Node9</title>
<g id="a_node9"><a xlink:href="division_8cpp.html" target="_top" xlink:title=" ">
<polygon fill="none" stroke="black" points="308,-6 308,-25 442,-25 442,-6 308,-6"/>
<text text-anchor="middle" x="375" y="-13" font-family="Helvetica,sans-Serif" font-size="10.00">src/division/division.cpp</text>
</a>
</g>
</g>
<!-- Node2&#45;&gt;Node9 -->
<g id="edge18" class="edge">
<title>Node2&#45;&gt;Node9</title>
<path fill="none" stroke="midnightblue" d="M561.27,-118.46C517.41,-94.45 427.17,-45.06 390.76,-25.12"/>
<polygon fill="midnightblue" stroke="midnightblue" points="559.69,-121.59 570.14,-123.32 563.05,-115.45 559.69,-121.59"/>
</g>
<!-- Node16 -->
<g id="node16" class="node">
<title>Node16</title>
<g id="a_node16"><a xlink:href="argParse_8cpp.html" target="_top" xlink:title=" ">
<polygon fill="none" stroke="black" points="749,-67.5 749,-86.5 845,-86.5 845,-67.5 749,-67.5"/>
<text text-anchor="middle" x="797" y="-74.5" font-family="Helvetica,sans-Serif" font-size="10.00">src/argParse.cpp</text>
</a>
</g>
</g>
<!-- Node2&#45;&gt;Node16 -->
<g id="edge16" class="edge">
<title>Node2&#45;&gt;Node16</title>
<path fill="none" stroke="midnightblue" d="M629.14,-120.96C668.99,-110.76 727.36,-95.82 763.72,-86.52"/>
<polygon fill="midnightblue" stroke="midnightblue" points="628.25,-117.57 619.43,-123.44 629.99,-124.35 628.25,-117.57"/>
</g>
<!-- Node17 -->
<g id="node17" class="node">
<title>Node17</title>
<g id="a_node17"><a xlink:href="testing_8cpp.html" target="_top" xlink:title=" ">
<polygon fill="none" stroke="black" points="863,-67.5 863,-86.5 951,-86.5 951,-67.5 863,-67.5"/>
<text text-anchor="middle" x="907" y="-74.5" font-family="Helvetica,sans-Serif" font-size="10.00">src/testing.cpp</text>
</a>
</g>
</g>
<!-- Node2&#45;&gt;Node17 -->
<g id="edge19" class="edge">
<title>Node2&#45;&gt;Node17</title>
<path fill="none" stroke="midnightblue" d="M647.04,-121.78C701.36,-112.68 782.98,-98.99 854,-87 856.85,-86.52 859.79,-86.02 862.75,-85.52"/>
<polygon fill="midnightblue" stroke="midnightblue" points="646.17,-118.38 636.88,-123.48 647.32,-125.28 646.17,-118.38"/>
</g>
<!-- Node3&#45;&gt;Node4 -->
<g id="edge3" class="edge">
<title>Node3&#45;&gt;Node4</title>
<path fill="none" stroke="midnightblue" d="M572.87,-73.82C463.47,-69.93 266.76,-59.33 101,-31 92.34,-29.52 83.05,-27.32 74.62,-25.07"/>
<polygon fill="midnightblue" stroke="midnightblue" points="573.07,-77.33 583.18,-74.18 573.31,-70.33 573.07,-77.33"/>
</g>
<!-- Node5 -->
<g id="node5" class="node">
<title>Node5</title>
<g id="a_node5"><a xlink:href="add_8cpp.html" target="_top" xlink:title=" ">
<polygon fill="none" stroke="black" points="460.5,-6 460.5,-25 553.5,-25 553.5,-6 460.5,-6"/>
<text text-anchor="middle" x="507" y="-13" font-family="Helvetica,sans-Serif" font-size="10.00">src/add/add.cpp</text>
</a>
</g>
</g>
<!-- Node3&#45;&gt;Node5 -->
<g id="edge4" class="edge">
<title>Node3&#45;&gt;Node5</title>
<path fill="none" stroke="midnightblue" d="M626.2,-63.78C597.05,-52.22 554.05,-35.16 528.45,-25.01"/>
<polygon fill="midnightblue" stroke="midnightblue" points="624.92,-67.04 635.51,-67.48 627.5,-60.53 624.92,-67.04"/>
</g>
<!-- Node3&#45;&gt;Node6 -->
<g id="edge5" class="edge">
<title>Node3&#45;&gt;Node6</title>
<path fill="none" stroke="midnightblue" d="M575.63,-66.25C503.03,-57.44 393.85,-43.91 299,-31 285.32,-29.14 270.58,-27.03 256.77,-25.02"/>
<polygon fill="midnightblue" stroke="midnightblue" points="575.28,-69.73 585.62,-67.46 576.12,-62.78 575.28,-69.73"/>
</g>
<!-- Node7 -->
<g id="node7" class="node">
<title>Node7</title>
<g id="a_node7"><a xlink:href="comparison_8cpp.html" target="_top" xlink:title=" ">
<polygon fill="none" stroke="black" points="571.5,-6 571.5,-25 742.5,-25 742.5,-6 571.5,-6"/>
<text text-anchor="middle" x="657" y="-13" font-family="Helvetica,sans-Serif" font-size="10.00">src/comparison/comparison.cpp</text>
</a>
</g>
</g>
<!-- Node3&#45;&gt;Node7 -->
<g id="edge6" class="edge">
<title>Node3&#45;&gt;Node7</title>
<path fill="none" stroke="midnightblue" d="M657,-57.32C657,-46.5 657,-33.4 657,-25.01"/>
<polygon fill="midnightblue" stroke="midnightblue" points="653.5,-57.48 657,-67.48 660.5,-57.48 653.5,-57.48"/>
</g>
<!-- Node8 -->
<g id="node8" class="node">
<title>Node8</title>
<g id="a_node8"><a xlink:href="decimalConvert_8cpp.html" target="_top" xlink:title=" ">
<polygon fill="none" stroke="black" points="760.5,-0.5 760.5,-30.5 877.5,-30.5 877.5,-0.5 760.5,-0.5"/>
<text text-anchor="start" x="768.5" y="-18.5" font-family="Helvetica,sans-Serif" font-size="10.00">src/decimalConvert</text>
<text text-anchor="middle" x="819" y="-7.5" font-family="Helvetica,sans-Serif" font-size="10.00">/decimalConvert.cpp</text>
</a>
</g>
</g>
<!-- Node3&#45;&gt;Node8 -->
<g id="edge7" class="edge">
<title>Node3&#45;&gt;Node8</title>
<path fill="none" stroke="midnightblue" d="M689.74,-63.98C716.08,-54.3 753.13,-40.69 780.82,-30.52"/>
<polygon fill="midnightblue" stroke="midnightblue" points="688.39,-60.74 680.21,-67.48 690.8,-67.31 688.39,-60.74"/>
</g>
<!-- Node3&#45;&gt;Node9 -->
<g id="edge8" class="edge">
<title>Node3&#45;&gt;Node9</title>
<path fill="none" stroke="midnightblue" d="M606.77,-65.4C552.1,-53.87 465.76,-35.65 415.33,-25.01"/>
<polygon fill="midnightblue" stroke="midnightblue" points="606.09,-68.84 616.6,-67.48 607.53,-61.99 606.09,-68.84"/>
</g>
<!-- Node10 -->
<g id="node10" class="node">
<title>Node10</title>
<g id="a_node10"><a xlink:href="divisionReport_8cpp.html" target="_top" xlink:title=" ">
<polygon fill="none" stroke="black" points="896,-6 896,-25 1062,-25 1062,-6 896,-6"/>
<text text-anchor="middle" x="979" y="-13" font-family="Helvetica,sans-Serif" font-size="10.00">src/division/divisionReport.cpp</text>
</a>
</g>
</g>
<!-- Node3&#45;&gt;Node10 -->
<g id="edge9" class="edge">
<title>Node3&#45;&gt;Node10</title>
<path fill="none" stroke="midnightblue" d="M713.19,-65.62C775.55,-54.09 875.01,-35.72 932.95,-25.01"/>
<polygon fill="midnightblue" stroke="midnightblue" points="712.33,-62.22 703.13,-67.48 713.6,-69.1 712.33,-62.22"/>
</g>
<!-- Node11 -->
<g id="node11" class="node">
<title>Node11</title>
<g id="a_node11"><a xlink:href="main_8cpp.html" target="_top" xlink:title=" ">
<polygon fill="none" stroke="black" points="1080.5,-6 1080.5,-25 1187.5,-25 1187.5,-6 1080.5,-6"/>
<text text-anchor="middle" x="1134" y="-13" font-family="Helvetica,sans-Serif" font-size="10.00">src/main/main.cpp</text>
</a>
</g>
</g>
<!-- Node3&#45;&gt;Node11 -->
<g id="edge10" class="edge">
<title>Node3&#45;&gt;Node11</title>
<path fill="none" stroke="midnightblue" d="M740.75,-66.91C861.42,-53.82 1069.99,-31.17 1071,-31 1080.52,-29.39 1090.75,-27.23 1100.14,-25.06"/>
<polygon fill="midnightblue" stroke="midnightblue" points="740.35,-63.43 730.79,-67.99 741.11,-70.39 740.35,-63.43"/>
</g>
<!-- Node12 -->
<g id="node12" class="node">
<title>Node12</title>
<g id="a_node12"><a xlink:href="multiply_8cpp.html" target="_top" xlink:title=" ">
<polygon fill="none" stroke="black" points="1205.5,-6 1205.5,-25 1342.5,-25 1342.5,-6 1205.5,-6"/>
<text text-anchor="middle" x="1274" y="-13" font-family="Helvetica,sans-Serif" font-size="10.00">src/multiply/multiply.cpp</text>
</a>
</g>
</g>
<!-- Node3&#45;&gt;Node12 -->
<g id="edge11" class="edge">
<title>Node3&#45;&gt;Node12</title>
<path fill="none" stroke="midnightblue" d="M740.88,-66.95C944.57,-48.32 998.3,-57.46 1197,-31 1208.73,-29.44 1221.38,-27.26 1232.97,-25.07"/>
<polygon fill="midnightblue" stroke="midnightblue" points="740.39,-63.48 730.75,-67.89 741.03,-70.45 740.39,-63.48"/>
</g>
<!-- Node13 -->
<g id="node13" class="node">
<title>Node13</title>
<g id="a_node13"><a xlink:href="power_8cpp.html" target="_top" xlink:title=" ">
<polygon fill="none" stroke="black" points="1361,-6 1361,-25 1477,-25 1477,-6 1361,-6"/>
<text text-anchor="middle" x="1419" y="-13" font-family="Helvetica,sans-Serif" font-size="10.00">src/power/power.cpp</text>
</a>
</g>
</g>
<!-- Node3&#45;&gt;Node13 -->
<g id="edge12" class="edge">
<title>Node3&#45;&gt;Node13</title>
<path fill="none" stroke="midnightblue" d="M740.94,-66.97C1013.27,-44.87 1085.34,-67.48 1352,-31 1362.61,-29.55 1374.04,-27.33 1384.41,-25.05"/>
<polygon fill="midnightblue" stroke="midnightblue" points="740.43,-63.5 730.75,-67.81 741,-70.48 740.43,-63.5"/>
</g>
<!-- Node14 -->
<g id="node14" class="node">
<title>Node14</title>
<g id="a_node14"><a xlink:href="powerReport_8cpp.html" target="_top" xlink:title=" ">
<polygon fill="none" stroke="black" points="1495.5,-6 1495.5,-25 1644.5,-25 1644.5,-6 1495.5,-6"/>
<text text-anchor="middle" x="1570" y="-13" font-family="Helvetica,sans-Serif" font-size="10.00">src/power/powerReport.cpp</text>
</a>
</g>
</g>
<!-- Node3&#45;&gt;Node14 -->
<g id="edge13" class="edge">
<title>Node3&#45;&gt;Node14</title>
<path fill="none" stroke="midnightblue" d="M741.13,-66.97C1072.7,-41.63 1159.43,-66.93 1486,-31 1499.24,-29.54 1513.55,-27.32 1526.55,-25.05"/>
<polygon fill="midnightblue" stroke="midnightblue" points="740.44,-63.51 730.74,-67.77 740.99,-70.49 740.44,-63.51"/>
</g>
<!-- Node15 -->
<g id="node15" class="node">
<title>Node15</title>
<g id="a_node15"><a xlink:href="subtract_8cpp.html" target="_top" xlink:title=" ">
<polygon fill="none" stroke="black" points="1662.5,-6 1662.5,-25 1799.5,-25 1799.5,-6 1662.5,-6"/>
<text text-anchor="middle" x="1731" y="-13" font-family="Helvetica,sans-Serif" font-size="10.00">src/subtract/subtract.cpp</text>
</a>
</g>
</g>
<!-- Node3&#45;&gt;Node15 -->
<g id="edge14" class="edge">
<title>Node3&#45;&gt;Node15</title>
<path fill="none" stroke="midnightblue" d="M741.01,-66.99C1147.19,-37.72 1253.4,-76.36 1654,-31 1666.3,-29.61 1679.59,-27.37 1691.6,-25.07"/>
<polygon fill="midnightblue" stroke="midnightblue" points="740.46,-63.52 730.74,-67.74 740.97,-70.5 740.46,-63.52"/>
</g>
</g>
</svg>
