<?xml version="1.0" encoding="UTF-8" standalone="no"?>
<!DOCTYPE svg PUBLIC "-//W3C//DTD SVG 1.1//EN"
 "http://www.w3.org/Graphics/SVG/1.1/DTD/svg11.dtd">
<!-- Generated by graphviz version 2.43.0 (0)
 -->
<!-- Title: include/logging.hpp Pages: 1 -->
<!--zoomable 207 -->
<svg id="main" version="1.1" xmlns="http://www.w3.org/2000/svg" xmlns:xlink="http://www.w3.org/1999/xlink" xml:space="preserve" onload="init(evt)">
<style type="text/css"><![CDATA[
.edge:hover path { stroke: red; }
.edge:hover polygon { stroke: red; fill: red; }
]]></style>
<script type="text/javascript"><![CDATA[
var edges = document.getElementsByTagName('g');
if (edges && edges.length) {
  for (var i=0;i<edges.length;i++) {
    if (edges[i].id.substr(0,4)=='edge') {
      edges[i].setAttribute('class','edge');
    }
  }
}
]]></script>
        <defs>
                <circle id="rim" cx="0" cy="0" r="7"/>
                <circle id="rim2" cx="0" cy="0" r="3.5"/>
                <g id="zoomPlus">
                        <use xlink:href="#rim" fill="#404040">
                                <set attributeName="fill" to="#808080" begin="zoomplus.mouseover" end="zoomplus.mouseout"/>
                        </use>
                        <path d="M-4,0h8M0,-4v8" fill="none" stroke="white" stroke-width="1.5" pointer-events="none"/>
                </g>
                <g id="zoomMin">
                        <use xlink:href="#rim" fill="#404040">
                                <set attributeName="fill" to="#808080" begin="zoomminus.mouseover" end="zoomminus.mouseout"/>
                        </use>
                        <path d="M-4,0h8" fill="none" stroke="white" stroke-width="1.5" pointer-events="none"/>
                </g>
                <g id="dirArrow">
                        <path fill="none" stroke="white" stroke-width="1.5" d="M0,-3.0v7 M-2.5,-0.5L0,-3.0L2.5,-0.5"/>
                </g>
               <g id="resetDef">
                       <use xlink:href="#rim2" fill="#404040">
                               <set attributeName="fill" to="#808080" begin="reset.mouseover" end="reset.mouseout"/>
                       </use>
               </g>
        </defs>

<script type="text/javascript">
var viewWidth = 1609;
var viewHeight = 207;
var sectionId = 'dynsection-1';
</script>
<script xlink:href="svgpan.js"/>
<svg id="graph" class="graph">
<g id="viewport">
<title>include/logging.hpp</title>
<!-- Node1 -->
<g id="node1" class="node">
<title>Node1</title>
<g id="a_node1"><a xlink:title="This file contains the declaration of the Logger class. The Logger class provides logging functionali...">
<polygon fill="#bfbfbf" stroke="black" points="634,-179.5 634,-198.5 746,-198.5 746,-179.5 634,-179.5"/>
<text text-anchor="middle" x="690" y="-186.5" font-family="Helvetica,sans-Serif" font-size="10.00">include/logging.hpp</text>
</a>
</g>
</g>
<!-- Node2 -->
<g id="node2" class="node">
<title>Node2</title>
<g id="a_node2"><a xlink:href="output_8hpp.html" target="_top" xlink:title="This file contains functions for displaying error, warning, and info messages.">
<polygon fill="none" stroke="black" points="578.5,-123.5 578.5,-142.5 685.5,-142.5 685.5,-123.5 578.5,-123.5"/>
<text text-anchor="middle" x="632" y="-130.5" font-family="Helvetica,sans-Serif" font-size="10.00">include/output.hpp</text>
</a>
</g>
</g>
<!-- Node1&#45;&gt;Node2 -->
<g id="edge1" class="edge">
<title>Node1&#45;&gt;Node2</title>
<path fill="none" stroke="midnightblue" d="M673.09,-172.25C662.8,-162.67 650.03,-150.79 641.49,-142.83"/>
<polygon fill="midnightblue" stroke="midnightblue" points="670.98,-175.07 680.68,-179.32 675.75,-169.95 670.98,-175.07"/>
</g>
<!-- Node17 -->
<g id="node17" class="node">
<title>Node17</title>
<g id="a_node17"><a xlink:href="logging_8cpp.html" target="_top" xlink:title=" ">
<polygon fill="none" stroke="black" points="704,-123.5 704,-142.5 794,-142.5 794,-123.5 704,-123.5"/>
<text text-anchor="middle" x="749" y="-130.5" font-family="Helvetica,sans-Serif" font-size="10.00">src/logging.cpp</text>
</a>
</g>
</g>
<!-- Node1&#45;&gt;Node17 -->
<g id="edge18" class="edge">
<title>Node1&#45;&gt;Node17</title>
<path fill="none" stroke="midnightblue" d="M706.89,-172.54C717.41,-162.91 730.57,-150.87 739.35,-142.83"/>
<polygon fill="midnightblue" stroke="midnightblue" points="704.49,-169.99 699.48,-179.32 709.22,-175.15 704.49,-169.99"/>
</g>
<!-- Node3 -->
<g id="node3" class="node">
<title>Node3</title>
<g id="a_node3"><a xlink:href="basicArithm_8hpp.html" target="_top" xlink:title="This file contains functions for basic arithmetic operations on strings.">
<polygon fill="none" stroke="black" points="558.5,-67.5 558.5,-86.5 705.5,-86.5 705.5,-67.5 558.5,-67.5"/>
<text text-anchor="middle" x="632" y="-74.5" font-family="Helvetica,sans-Serif" font-size="10.00">include/fn/basicArithm.hpp</text>
</a>
</g>
</g>
<!-- Node2&#45;&gt;Node3 -->
<g id="edge2" class="edge">
<title>Node2&#45;&gt;Node3</title>
<path fill="none" stroke="midnightblue" d="M632,-112.8C632,-103.91 632,-93.78 632,-86.75"/>
<polygon fill="midnightblue" stroke="midnightblue" points="628.5,-113.08 632,-123.08 635.5,-113.08 628.5,-113.08"/>
</g>
<!-- Node4 -->
<g id="node4" class="node">
<title>Node4</title>
<g id="a_node4"><a xlink:href="abs_8cpp.html" target="_top" xlink:title=" ">
<polygon fill="none" stroke="black" points="0,-6 0,-25 92,-25 92,-6 0,-6"/>
<text text-anchor="middle" x="46" y="-13" font-family="Helvetica,sans-Serif" font-size="10.00">src/abs/abs.cpp</text>
</a>
</g>
</g>
<!-- Node2&#45;&gt;Node4 -->
<g id="edge14" class="edge">
<title>Node2&#45;&gt;Node4</title>
<path fill="none" stroke="midnightblue" d="M569.01,-121.8C469.2,-105.24 268.82,-70.37 101,-31 93.21,-29.17 84.85,-27.05 77.05,-25"/>
<polygon fill="midnightblue" stroke="midnightblue" points="568.49,-125.26 578.93,-123.44 569.63,-118.36 568.49,-125.26"/>
</g>
<!-- Node8 -->
<g id="node8" class="node">
<title>Node8</title>
<g id="a_node8"><a xlink:href="division_8cpp.html" target="_top" xlink:title=" ">
<polygon fill="none" stroke="black" points="110,-6 110,-25 244,-25 244,-6 110,-6"/>
<text text-anchor="middle" x="177" y="-13" font-family="Helvetica,sans-Serif" font-size="10.00">src/division/division.cpp</text>
</a>
</g>
</g>
<!-- Node2&#45;&gt;Node8 -->
<g id="edge16" class="edge">
<title>Node2&#45;&gt;Node8</title>
<path fill="none" stroke="midnightblue" d="M588.24,-120.89C497.78,-97.93 291.86,-45.66 210.74,-25.06"/>
<polygon fill="midnightblue" stroke="midnightblue" points="587.62,-124.34 598.17,-123.41 589.34,-117.56 587.62,-124.34"/>
</g>
<!-- Node15 -->
<g id="node15" class="node">
<title>Node15</title>
<g id="a_node15"><a xlink:href="argParse_8cpp.html" target="_top" xlink:title=" ">
<polygon fill="none" stroke="black" points="724,-67.5 724,-86.5 820,-86.5 820,-67.5 724,-67.5"/>
<text text-anchor="middle" x="772" y="-74.5" font-family="Helvetica,sans-Serif" font-size="10.00">src/argParse.cpp</text>
</a>
</g>
</g>
<!-- Node2&#45;&gt;Node15 -->
<g id="edge15" class="edge">
<title>Node2&#45;&gt;Node15</title>
<path fill="none" stroke="midnightblue" d="M663.7,-119.77C690,-109.63 726.72,-95.47 749.92,-86.52"/>
<polygon fill="midnightblue" stroke="midnightblue" points="662.25,-116.58 654.18,-123.44 664.77,-123.11 662.25,-116.58"/>
</g>
<!-- Node16 -->
<g id="node16" class="node">
<title>Node16</title>
<g id="a_node16"><a xlink:href="testing_8cpp.html" target="_top" xlink:title=" ">
<polygon fill="none" stroke="black" points="838,-67.5 838,-86.5 926,-86.5 926,-67.5 838,-67.5"/>
<text text-anchor="middle" x="882" y="-74.5" font-family="Helvetica,sans-Serif" font-size="10.00">src/testing.cpp</text>
</a>
</g>
</g>
<!-- Node2&#45;&gt;Node16 -->
<g id="edge17" class="edge">
<title>Node2&#45;&gt;Node16</title>
<path fill="none" stroke="midnightblue" d="M681.62,-121.28C728.87,-111.08 799.04,-95.92 842.57,-86.52"/>
<polygon fill="midnightblue" stroke="midnightblue" points="680.65,-117.91 671.61,-123.44 682.13,-124.75 680.65,-117.91"/>
</g>
<!-- Node3&#45;&gt;Node4 -->
<g id="edge3" class="edge">
<title>Node3&#45;&gt;Node4</title>
<path fill="none" stroke="midnightblue" d="M548.25,-73.38C443.13,-69.07 257.6,-58.07 101,-31 92.34,-29.5 83.05,-27.29 74.62,-25.05"/>
<polygon fill="midnightblue" stroke="midnightblue" points="548.35,-76.89 558.48,-73.79 548.63,-69.89 548.35,-76.89"/>
</g>
<!-- Node5 -->
<g id="node5" class="node">
<title>Node5</title>
<g id="a_node5"><a xlink:href="add_8cpp.html" target="_top" xlink:title=" ">
<polygon fill="none" stroke="black" points="718.5,-6 718.5,-25 811.5,-25 811.5,-6 718.5,-6"/>
<text text-anchor="middle" x="765" y="-13" font-family="Helvetica,sans-Serif" font-size="10.00">src/add/add.cpp</text>
</a>
</g>
</g>
<!-- Node3&#45;&gt;Node5 -->
<g id="edge4" class="edge">
<title>Node3&#45;&gt;Node5</title>
<path fill="none" stroke="midnightblue" d="M660.33,-63.33C686.15,-51.78 723.58,-35.03 745.98,-25.01"/>
<polygon fill="midnightblue" stroke="midnightblue" points="658.75,-60.2 651.06,-67.48 661.61,-66.59 658.75,-60.2"/>
</g>
<!-- Node6 -->
<g id="node6" class="node">
<title>Node6</title>
<g id="a_node6"><a xlink:href="comparison_8cpp.html" target="_top" xlink:title=" ">
<polygon fill="none" stroke="black" points="829.5,-6 829.5,-25 1000.5,-25 1000.5,-6 829.5,-6"/>
<text text-anchor="middle" x="915" y="-13" font-family="Helvetica,sans-Serif" font-size="10.00">src/comparison/comparison.cpp</text>
</a>
</g>
</g>
<!-- Node3&#45;&gt;Node6 -->
<g id="edge5" class="edge">
<title>Node3&#45;&gt;Node6</title>
<path fill="none" stroke="midnightblue" d="M682.41,-65.4C737.27,-53.87 823.92,-35.65 874.53,-25.01"/>
<polygon fill="midnightblue" stroke="midnightblue" points="681.61,-61.99 672.55,-67.48 683.05,-68.84 681.61,-61.99"/>
</g>
<!-- Node7 -->
<g id="node7" class="node">
<title>Node7</title>
<g id="a_node7"><a xlink:href="decimalConvert_8cpp.html" target="_top" xlink:title=" ">
<polygon fill="none" stroke="black" points="1018.5,-0.5 1018.5,-30.5 1135.5,-30.5 1135.5,-0.5 1018.5,-0.5"/>
<text text-anchor="start" x="1026.5" y="-18.5" font-family="Helvetica,sans-Serif" font-size="10.00">src/decimalConvert</text>
<text text-anchor="middle" x="1077" y="-7.5" font-family="Helvetica,sans-Serif" font-size="10.00">/decimalConvert.cpp</text>
</a>
</g>
</g>
<!-- Node3&#45;&gt;Node7 -->
<g id="edge6" class="edge">
<title>Node3&#45;&gt;Node7</title>
<path fill="none" stroke="midnightblue" d="M715.71,-66.46C818.2,-54.71 981.73,-35.73 1010,-31 1012.7,-30.55 1015.46,-30.06 1018.23,-29.55"/>
<polygon fill="midnightblue" stroke="midnightblue" points="715.22,-62.99 705.68,-67.61 716.01,-69.95 715.22,-62.99"/>
</g>
<!-- Node3&#45;&gt;Node8 -->
<g id="edge7" class="edge">
<title>Node3&#45;&gt;Node8</title>
<path fill="none" stroke="midnightblue" d="M548.31,-67.77C471.36,-59.8 354.21,-46.64 253,-31 241.85,-29.28 229.83,-27.12 218.72,-25.01"/>
<polygon fill="midnightblue" stroke="midnightblue" points="548.12,-71.27 558.43,-68.81 548.84,-64.31 548.12,-71.27"/>
</g>
<!-- Node9 -->
<g id="node9" class="node">
<title>Node9</title>
<g id="a_node9"><a xlink:href="divisionReport_8cpp.html" target="_top" xlink:title=" ">
<polygon fill="none" stroke="black" points="1154,-6 1154,-25 1320,-25 1320,-6 1154,-6"/>
<text text-anchor="middle" x="1237" y="-13" font-family="Helvetica,sans-Serif" font-size="10.00">src/division/divisionReport.cpp</text>
</a>
</g>
</g>
<!-- Node3&#45;&gt;Node9 -->
<g id="edge8" class="edge">
<title>Node3&#45;&gt;Node9</title>
<path fill="none" stroke="midnightblue" d="M715.89,-66.94C907.61,-48.83 957.85,-53.55 1145,-31 1158.65,-29.36 1173.37,-27.2 1186.96,-25.06"/>
<polygon fill="midnightblue" stroke="midnightblue" points="715.38,-63.47 705.76,-67.91 716.04,-70.44 715.38,-63.47"/>
</g>
<!-- Node10 -->
<g id="node10" class="node">
<title>Node10</title>
<g id="a_node10"><a xlink:href="main_8cpp.html" target="_top" xlink:title=" ">
<polygon fill="none" stroke="black" points="1338.5,-6 1338.5,-25 1445.5,-25 1445.5,-6 1338.5,-6"/>
<text text-anchor="middle" x="1392" y="-13" font-family="Helvetica,sans-Serif" font-size="10.00">src/main/main.cpp</text>
</a>
</g>
</g>
<!-- Node3&#45;&gt;Node10 -->
<g id="edge9" class="edge">
<title>Node3&#45;&gt;Node10</title>
<path fill="none" stroke="midnightblue" d="M715.97,-66.97C989.17,-44.87 1061.71,-69.32 1329,-31 1339,-29.57 1349.75,-27.35 1359.5,-25.08"/>
<polygon fill="midnightblue" stroke="midnightblue" points="715.43,-63.5 705.75,-67.81 716,-70.48 715.43,-63.5"/>
</g>
<!-- Node11 -->
<g id="node11" class="node">
<title>Node11</title>
<g id="a_node11"><a xlink:href="multiply_8cpp.html" target="_top" xlink:title=" ">
<polygon fill="none" stroke="black" points="1463.5,-6 1463.5,-25 1600.5,-25 1600.5,-6 1463.5,-6"/>
<text text-anchor="middle" x="1532" y="-13" font-family="Helvetica,sans-Serif" font-size="10.00">src/multiply/multiply.cpp</text>
</a>
</g>
</g>
<!-- Node3&#45;&gt;Node11 -->
<g id="edge10" class="edge">
<title>Node3&#45;&gt;Node11</title>
<path fill="none" stroke="midnightblue" d="M716.05,-66.97C1045.03,-41.81 1131.34,-69.16 1455,-31 1467.16,-29.57 1480.28,-27.35 1492.2,-25.08"/>
<polygon fill="midnightblue" stroke="midnightblue" points="715.44,-63.51 705.74,-67.77 715.99,-70.49 715.44,-63.51"/>
</g>
<!-- Node12 -->
<g id="node12" class="node">
<title>Node12</title>
<g id="a_node12"><a xlink:href="power_8cpp.html" target="_top" xlink:title=" ">
<polygon fill="none" stroke="black" points="262,-6 262,-25 378,-25 378,-6 262,-6"/>
<text text-anchor="middle" x="320" y="-13" font-family="Helvetica,sans-Serif" font-size="10.00">src/power/power.cpp</text>
</a>
</g>
</g>
<!-- Node3&#45;&gt;Node12 -->
<g id="edge11" class="edge">
<title>Node3&#45;&gt;Node12</title>
<path fill="none" stroke="midnightblue" d="M573.43,-65.67C523.95,-56.83 451.24,-43.57 388,-31 378.65,-29.14 368.59,-27.05 359.16,-25.04"/>
<polygon fill="midnightblue" stroke="midnightblue" points="572.86,-69.12 583.31,-67.43 574.08,-62.23 572.86,-69.12"/>
</g>
<!-- Node13 -->
<g id="node13" class="node">
<title>Node13</title>
<g id="a_node13"><a xlink:href="powerReport_8cpp.html" target="_top" xlink:title=" ">
<polygon fill="none" stroke="black" points="396.5,-6 396.5,-25 545.5,-25 545.5,-6 396.5,-6"/>
<text text-anchor="middle" x="471" y="-13" font-family="Helvetica,sans-Serif" font-size="10.00">src/power/powerReport.cpp</text>
</a>
</g>
</g>
<!-- Node3&#45;&gt;Node13 -->
<g id="edge12" class="edge">
<title>Node3&#45;&gt;Node13</title>
<path fill="none" stroke="midnightblue" d="M599.35,-63.93C568.06,-52.37 521.62,-35.21 494.02,-25.01"/>
<polygon fill="midnightblue" stroke="midnightblue" points="598.34,-67.29 608.93,-67.48 600.77,-60.73 598.34,-67.29"/>
</g>
<!-- Node14 -->
<g id="node14" class="node">
<title>Node14</title>
<g id="a_node14"><a xlink:href="subtract_8cpp.html" target="_top" xlink:title=" ">
<polygon fill="none" stroke="black" points="563.5,-6 563.5,-25 700.5,-25 700.5,-6 563.5,-6"/>
<text text-anchor="middle" x="632" y="-13" font-family="Helvetica,sans-Serif" font-size="10.00">src/subtract/subtract.cpp</text>
</a>
</g>
</g>
<!-- Node3&#45;&gt;Node14 -->
<g id="edge13" class="edge">
<title>Node3&#45;&gt;Node14</title>
<path fill="none" stroke="midnightblue" d="M632,-57.32C632,-46.5 632,-33.4 632,-25.01"/>
<polygon fill="midnightblue" stroke="midnightblue" points="628.5,-57.48 632,-67.48 635.5,-57.48 628.5,-57.48"/>
</g>
</g>
</svg>
        <g id="navigator" transform="translate(0 0)" fill="#404254">
                <rect fill="#f2f5e9" fill-opacity="0.5" stroke="#606060" stroke-width=".5" x="0" y="0" width="60" height="60"/>
                <use id="zoomplus" xlink:href="#zoomPlus" x="17" y="9" onmousedown="handleZoom(evt,'in')"/>
                <use id="zoomminus" xlink:href="#zoomMin" x="42" y="9" onmousedown="handleZoom(evt,'out')"/>
                <use id="reset" xlink:href="#resetDef" x="30" y="36" onmousedown="handleReset()"/>
                <g id="arrowUp" xlink:href="#dirArrow" transform="translate(30 24)" onmousedown="handlePan(0,-1)">
                  <use xlink:href="#rim" fill="#404040">
                        <set attributeName="fill" to="#808080" begin="arrowUp.mouseover" end="arrowUp.mouseout"/>
                  </use>
                  <path fill="none" stroke="white" stroke-width="1.5" d="M0,-3.0v7 M-2.5,-0.5L0,-3.0L2.5,-0.5"/>
                </g>
                <g id="arrowRight" xlink:href="#dirArrow" transform="rotate(90) translate(36 -43)" onmousedown="handlePan(1,0)">
                  <use xlink:href="#rim" fill="#404040">
                        <set attributeName="fill" to="#808080" begin="arrowRight.mouseover" end="arrowRight.mouseout"/>
                  </use>
                  <path fill="none" stroke="white" stroke-width="1.5" d="M0,-3.0v7 M-2.5,-0.5L0,-3.0L2.5,-0.5"/>
                </g>
                <g id="arrowDown" xlink:href="#dirArrow" transform="rotate(180) translate(-30 -48)" onmousedown="handlePan(0,1)">
                  <use xlink:href="#rim" fill="#404040">
                        <set attributeName="fill" to="#808080" begin="arrowDown.mouseover" end="arrowDown.mouseout"/>
                  </use>
                  <path fill="none" stroke="white" stroke-width="1.5" d="M0,-3.0v7 M-2.5,-0.5L0,-3.0L2.5,-0.5"/>
                </g>
                <g id="arrowLeft" xlink:href="#dirArrow" transform="rotate(270) translate(-36 17)" onmousedown="handlePan(-1,0)">
                  <use xlink:href="#rim" fill="#404040">
                        <set attributeName="fill" to="#808080" begin="arrowLeft.mouseover" end="arrowLeft.mouseout"/>
                  </use>
                  <path fill="none" stroke="white" stroke-width="1.5" d="M0,-3.0v7 M-2.5,-0.5L0,-3.0L2.5,-0.5"/>
                </g>
        </g>
        <svg viewBox="0 0 15 15" width="100%" height="30px" preserveAspectRatio="xMaxYMin meet">
         <g id="arrow_out" transform="scale(0.3 0.3)">
          <a xlink:href="logging_8hpp__dep__incl_org.svg" target="_base">
           <rect id="button" ry="5" rx="5" y="6" x="6" height="38" width="38"
                fill="#f2f5e9" fill-opacity="0.5" stroke="#606060" stroke-width="1.0"/>
           <path id="arrow"
             d="M 11.500037,31.436501 C 11.940474,20.09759 22.043105,11.32322 32.158766,21.979434 L 37.068811,17.246167 C 37.068811,17.246167 37.088388,32 37.088388,32 L 22.160133,31.978069 C 22.160133,31.978069 26.997745,27.140456 26.997745,27.140456 C 18.528582,18.264221 13.291696,25.230495 11.500037,31.436501 z"
             style="fill:#404040;"/>
          </a>
         </g>
        </svg>
</svg>
