<?xml version="1.0" encoding="UTF-8" standalone="no"?>
<!DOCTYPE svg PUBLIC "-//W3C//DTD SVG 1.1//EN"
 "http://www.w3.org/Graphics/SVG/1.1/DTD/svg11.dtd">
<!-- Generated by graphviz version 2.43.0 (0)
 -->
<!-- Title: reportMultiply Pages: 1 -->
<!--zoomable 598 -->
<svg id="main" version="1.1" xmlns="http://www.w3.org/2000/svg" xmlns:xlink="http://www.w3.org/1999/xlink" xml:space="preserve" onload="init(evt)">
<style type="text/css"><![CDATA[
.edge:hover path { stroke: red; }
.edge:hover polygon { stroke: red; fill: red; }
]]></style>
<script type="text/javascript"><![CDATA[
var edges = document.getElementsByTagName('g');
if (edges && edges.length) {
  for (var i=0;i<edges.length;i++) {
    if (edges[i].id.substr(0,4)=='edge') {
      edges[i].setAttribute('class','edge');
    }
  }
}
]]></script>
        <defs>
                <circle id="rim" cx="0" cy="0" r="7"/>
                <circle id="rim2" cx="0" cy="0" r="3.5"/>
                <g id="zoomPlus">
                        <use xlink:href="#rim" fill="#404040">
                                <set attributeName="fill" to="#808080" begin="zoomplus.mouseover" end="zoomplus.mouseout"/>
                        </use>
                        <path d="M-4,0h8M0,-4v8" fill="none" stroke="white" stroke-width="1.5" pointer-events="none"/>
                </g>
                <g id="zoomMin">
                        <use xlink:href="#rim" fill="#404040">
                                <set attributeName="fill" to="#808080" begin="zoomminus.mouseover" end="zoomminus.mouseout"/>
                        </use>
                        <path d="M-4,0h8" fill="none" stroke="white" stroke-width="1.5" pointer-events="none"/>
                </g>
                <g id="dirArrow">
                        <path fill="none" stroke="white" stroke-width="1.5" d="M0,-3.0v7 M-2.5,-0.5L0,-3.0L2.5,-0.5"/>
                </g>
               <g id="resetDef">
                       <use xlink:href="#rim2" fill="#404040">
                               <set attributeName="fill" to="#808080" begin="reset.mouseover" end="reset.mouseout"/>
                       </use>
               </g>
        </defs>

<script type="text/javascript">
var viewWidth = 1131;
var viewHeight = 598;
var sectionId = 'dynsection-1';
</script>
<script xlink:href="svgpan.js"/>
<svg id="graph" class="graph">
<g id="viewport">
<title>reportMultiply</title>
<!-- Node1 -->
<g id="node1" class="node">
<title>Node1</title>
<g id="a_node1"><a xlink:title="Reports a multiplication operation to the user.">
<polygon fill="#bfbfbf" stroke="black" points="0,-195.5 0,-214.5 86,-214.5 86,-195.5 0,-195.5"/>
<text text-anchor="middle" x="43" y="-202.5" font-family="Helvetica,sans-Serif" font-size="10.00">reportMultiply</text>
</a>
</g>
</g>
<!-- Node2 -->
<g id="node2" class="node">
<title>Node2</title>
<g id="a_node2"><a xlink:href="basicArithm_8hpp.html#a22524b6e1ea1e62b578978978521148e" target="_top" xlink:title="Adds two string representations of numbers, and performs with the column method.">
<polygon fill="none" stroke="black" points="140.5,-257.5 140.5,-276.5 175.5,-276.5 175.5,-257.5 140.5,-257.5"/>
<text text-anchor="middle" x="158" y="-264.5" font-family="Helvetica,sans-Serif" font-size="10.00">add</text>
</a>
</g>
</g>
<!-- Node1&#45;&gt;Node2 -->
<g id="edge1" class="edge">
<title>Node1&#45;&gt;Node2</title>
<path fill="none" stroke="midnightblue" d="M61.66,-214.69C80.36,-224.95 110.09,-241.26 131.37,-252.94"/>
<polygon fill="midnightblue" stroke="midnightblue" points="129.75,-256.04 140.2,-257.78 133.12,-249.91 129.75,-256.04"/>
</g>
<!-- Node5 -->
<g id="node5" class="node">
<title>Node5</title>
<g id="a_node5"><a xlink:href="symbols_8hpp.html#a4c2486dd425b34a3a7b6f64db79add2c" target="_top" xlink:title="Create a subscript string from a normal string.">
<polygon fill="none" stroke="black" points="581,-142.5 581,-161.5 670,-161.5 670,-142.5 581,-142.5"/>
<text text-anchor="middle" x="625.5" y="-149.5" font-family="Helvetica,sans-Serif" font-size="10.00">makeSubscript</text>
</a>
</g>
</g>
<!-- Node1&#45;&gt;Node5 -->
<g id="edge44" class="edge">
<title>Node1&#45;&gt;Node5</title>
<path fill="none" stroke="midnightblue" d="M73.67,-195.48C147.41,-172.9 345.09,-119 512,-133 531.32,-134.62 552.31,-137.78 570.87,-141.06"/>
<polygon fill="midnightblue" stroke="midnightblue" points="570.44,-144.54 580.91,-142.89 571.7,-137.65 570.44,-144.54"/>
</g>
<!-- Node7 -->
<g id="node7" class="node">
<title>Node7</title>
<g id="a_node7"><a xlink:href="util_8hpp.html#afbed3096b7064ba07c83c6c15212b793" target="_top" xlink:title="Standardizes a number string.">
<polygon fill="none" stroke="black" points="569,-370.5 569,-389.5 682,-389.5 682,-370.5 569,-370.5"/>
<text text-anchor="middle" x="625.5" y="-377.5" font-family="Helvetica,sans-Serif" font-size="10.00">standardizeNumber</text>
</a>
</g>
</g>
<!-- Node1&#45;&gt;Node7 -->
<g id="edge47" class="edge">
<title>Node1&#45;&gt;Node7</title>
<path fill="none" stroke="midnightblue" d="M51.2,-214.81C73.76,-244.75 146.55,-335.41 230,-377 344.84,-434.23 502.87,-409.3 579.37,-391.82"/>
<polygon fill="midnightblue" stroke="midnightblue" points="580.24,-395.21 589.17,-389.52 578.64,-388.4 580.24,-395.21"/>
</g>
<!-- Node17 -->
<g id="node17" class="node">
<title>Node17</title>
<g id="a_node17"><a xlink:href="basicArithm_8hpp.html#ad245e4f72a78f746e7e16ae14f21f2e1" target="_top" xlink:title="Compares two string representations of numbers.">
<polygon fill="none" stroke="black" points="433.5,-446.5 433.5,-465.5 492.5,-465.5 492.5,-446.5 433.5,-446.5"/>
<text text-anchor="middle" x="463" y="-453.5" font-family="Helvetica,sans-Serif" font-size="10.00">compare</text>
</a>
</g>
</g>
<!-- Node1&#45;&gt;Node17 -->
<g id="edge43" class="edge">
<title>Node1&#45;&gt;Node17</title>
<path fill="none" stroke="midnightblue" d="M44.65,-214.8C48.29,-266.07 67.86,-502.85 122,-546 210.97,-616.92 273.65,-591.35 378,-546 411.47,-531.46 437.66,-496.28 451.39,-474.46"/>
<polygon fill="midnightblue" stroke="midnightblue" points="454.47,-476.13 456.65,-465.76 448.48,-472.51 454.47,-476.13"/>
</g>
<!-- Node23 -->
<g id="node23" class="node">
<title>Node23</title>
<g id="a_node23"><a xlink:href="util_8hpp.html#ac87bf229222a2a4f32b8626281c6c282" target="_top" xlink:title=" ">
<polygon fill="none" stroke="black" points="566,-66.5 566,-85.5 685,-85.5 685,-66.5 566,-66.5"/>
<text text-anchor="middle" x="625.5" y="-73.5" font-family="Helvetica,sans-Serif" font-size="10.00">replaceLeadingZeros</text>
</a>
</g>
</g>
<!-- Node1&#45;&gt;Node23 -->
<g id="edge46" class="edge">
<title>Node1&#45;&gt;Node23</title>
<path fill="none" stroke="midnightblue" d="M57.37,-195.33C72.36,-184.96 97.76,-168.81 122,-160 270.73,-105.93 457.02,-86.41 555.71,-79.55"/>
<polygon fill="midnightblue" stroke="midnightblue" points="556.12,-83.03 565.86,-78.87 555.65,-76.05 556.12,-83.03"/>
</g>
<!-- Node25 -->
<g id="node25" class="node">
<title>Node25</title>
<g id="a_node25"><a xlink:href="util_8hpp.html#a93b9ba3fe803c8e3fa1b128f4e83924f" target="_top" xlink:title="Makes the given string wider by adding 2 spaces between each character.">
<polygon fill="none" stroke="black" points="122,-0.5 122,-19.5 194,-19.5 194,-0.5 122,-0.5"/>
<text text-anchor="middle" x="158" y="-7.5" font-family="Helvetica,sans-Serif" font-size="10.00">makeWider</text>
</a>
</g>
</g>
<!-- Node1&#45;&gt;Node25 -->
<g id="edge45" class="edge">
<title>Node1&#45;&gt;Node25</title>
<path fill="none" stroke="midnightblue" d="M46.49,-195.1C53.9,-167.15 78.13,-86.21 122,-34 124.59,-30.92 127.67,-28.05 130.92,-25.46"/>
<polygon fill="midnightblue" stroke="midnightblue" points="133.03,-28.25 139.13,-19.59 128.96,-22.56 133.03,-28.25"/>
</g>
<!-- Node3 -->
<g id="node3" class="node">
<title>Node3</title>
<g id="a_node3"><a xlink:href="util_8hpp.html#a183c024df291889f90106e47bb64fe0b" target="_top" xlink:title="Checks if a given string is a zero string.">
<polygon fill="none" stroke="black" points="1047,-294.5 1047,-313.5 1123,-313.5 1123,-294.5 1047,-294.5"/>
<text text-anchor="middle" x="1085" y="-301.5" font-family="Helvetica,sans-Serif" font-size="10.00">isZeroString</text>
</a>
</g>
</g>
<!-- Node2&#45;&gt;Node3 -->
<g id="edge2" class="edge">
<title>Node2&#45;&gt;Node3</title>
<path fill="none" stroke="midnightblue" d="M169.23,-257.45C216.75,-214.11 422.3,-38 624.5,-38 624.5,-38 624.5,-38 800,-38 944.64,-38 1046,-224.08 1075.3,-284.97"/>
<polygon fill="midnightblue" stroke="midnightblue" points="1072.22,-286.66 1079.65,-294.22 1078.56,-283.68 1072.22,-286.66"/>
</g>
<!-- Node4 -->
<g id="node4" class="node">
<title>Node4</title>
<g id="a_node4"><a xlink:href="addReport_8cpp.html#ad77bd53c675044525fecd7273407c4a6" target="_top" xlink:title="Reports the sum of two number strings.">
<polygon fill="none" stroke="black" points="430.5,-180.5 430.5,-199.5 495.5,-199.5 495.5,-180.5 430.5,-180.5"/>
<text text-anchor="middle" x="463" y="-187.5" font-family="Helvetica,sans-Serif" font-size="10.00">reportAdd</text>
</a>
</g>
</g>
<!-- Node2&#45;&gt;Node4 -->
<g id="edge3" class="edge">
<title>Node2&#45;&gt;Node4</title>
<path fill="none" stroke="midnightblue" d="M175.74,-257.77C189.83,-250.36 210.72,-240.2 230,-234 294.76,-213.16 373.05,-200.85 420.12,-194.77"/>
<polygon fill="midnightblue" stroke="midnightblue" points="420.76,-198.22 430.24,-193.49 419.88,-191.27 420.76,-198.22"/>
</g>
<!-- Node10 -->
<g id="node10" class="node">
<title>Node10</title>
<g id="a_node10"><a xlink:href="namespaceformats.html#a296119cbd1b0c858739af6b363fb262a" target="_top" xlink:title="Set the text format to reverse.">
<polygon fill="none" stroke="black" points="414,-370.5 414,-389.5 512,-389.5 512,-370.5 414,-370.5"/>
<text text-anchor="middle" x="463" y="-377.5" font-family="Helvetica,sans-Serif" font-size="10.00">formats::reverse</text>
</a>
</g>
</g>
<!-- Node2&#45;&gt;Node10 -->
<g id="edge11" class="edge">
<title>Node2&#45;&gt;Node10</title>
<path fill="none" stroke="midnightblue" d="M164.23,-276.6C174.42,-294.38 198.72,-332.39 230,-352 281.99,-384.59 353.52,-388.45 403.36,-386.14"/>
<polygon fill="midnightblue" stroke="midnightblue" points="403.87,-389.62 413.66,-385.57 403.48,-382.63 403.87,-389.62"/>
</g>
<!-- Node12 -->
<g id="node12" class="node">
<title>Node12</title>
<g id="a_node12"><a xlink:href="util_8hpp.html#a3cd8277bb803a7241ab377e88d8c6876" target="_top" xlink:title=" ">
<polygon fill="none" stroke="black" points="587,-294.5 587,-313.5 664,-313.5 664,-294.5 587,-294.5"/>
<text text-anchor="middle" x="625.5" y="-301.5" font-family="Helvetica,sans-Serif" font-size="10.00">splitNumber</text>
</a>
</g>
</g>
<!-- Node2&#45;&gt;Node12 -->
<g id="edge13" class="edge">
<title>Node2&#45;&gt;Node12</title>
<path fill="none" stroke="midnightblue" d="M175.51,-266.21C212.06,-264.63 302.53,-261.68 378,-267 438,-271.23 452.52,-277.03 512,-286 533.24,-289.2 556.69,-292.93 576.67,-296.15"/>
<polygon fill="midnightblue" stroke="midnightblue" points="576.34,-299.65 586.77,-297.79 577.46,-292.74 576.34,-299.65"/>
</g>
<!-- Node16 -->
<g id="node16" class="node">
<title>Node16</title>
<g id="a_node16"><a xlink:href="basicArithm_8hpp.html#a08faec0b8e863df19e3f978758166482" target="_top" xlink:title="Subtracts one string representation of a number from another string representation of a number.">
<polygon fill="none" stroke="black" points="230,-323.5 230,-342.5 286,-342.5 286,-323.5 230,-323.5"/>
<text text-anchor="middle" x="258" y="-330.5" font-family="Helvetica,sans-Serif" font-size="10.00">subtract</text>
</a>
</g>
</g>
<!-- Node2&#45;&gt;Node16 -->
<g id="edge20" class="edge">
<title>Node2&#45;&gt;Node16</title>
<path fill="none" stroke="midnightblue" d="M175.62,-272.98C193.83,-283.18 222.84,-302.73 240.85,-316.96"/>
<polygon fill="midnightblue" stroke="midnightblue" points="238.78,-319.79 248.72,-323.46 243.24,-314.39 238.78,-319.79"/>
</g>
<!-- Node4&#45;&gt;Node3 -->
<g id="edge4" class="edge">
<title>Node4&#45;&gt;Node3</title>
<path fill="none" stroke="midnightblue" d="M495.64,-188.05C598.2,-182.25 920.06,-168.19 1011,-214 1041.4,-229.31 1063.51,-263.7 1075,-285.26"/>
<polygon fill="midnightblue" stroke="midnightblue" points="1072,-287.08 1079.65,-294.41 1078.24,-283.91 1072,-287.08"/>
</g>
<!-- Node4&#45;&gt;Node5 -->
<g id="edge5" class="edge">
<title>Node4&#45;&gt;Node5</title>
<path fill="none" stroke="midnightblue" d="M495.71,-182.49C518.13,-177.18 548.65,-169.96 574.35,-163.87"/>
<polygon fill="midnightblue" stroke="midnightblue" points="575.38,-167.23 584.3,-161.52 573.76,-160.42 575.38,-167.23"/>
</g>
<!-- Node4&#45;&gt;Node7 -->
<g id="edge7" class="edge">
<title>Node4&#45;&gt;Node7</title>
<path fill="none" stroke="midnightblue" d="M465.75,-199.52C471.63,-228.6 493.42,-316.97 548,-361 551.51,-363.83 555.38,-366.25 559.47,-368.31"/>
<polygon fill="midnightblue" stroke="midnightblue" points="558.13,-371.54 568.69,-372.28 560.89,-365.11 558.13,-371.54"/>
</g>
<!-- Node6 -->
<g id="node6" class="node">
<title>Node6</title>
<g id="a_node6"><a xlink:href="util_8hpp.html#a2c093cfa77eddb403db19eaecf57fa6e" target="_top" xlink:title="Converts a Unicode character to UTF&#45;8 encoding.">
<polygon fill="none" stroke="black" points="756,-142.5 756,-161.5 842,-161.5 842,-142.5 756,-142.5"/>
<text text-anchor="middle" x="799" y="-149.5" font-family="Helvetica,sans-Serif" font-size="10.00">unicodeToUtf8</text>
</a>
</g>
</g>
<!-- Node5&#45;&gt;Node6 -->
<g id="edge6" class="edge">
<title>Node5&#45;&gt;Node6</title>
<path fill="none" stroke="midnightblue" d="M670.22,-152C693.23,-152 721.61,-152 745.77,-152"/>
<polygon fill="midnightblue" stroke="midnightblue" points="745.84,-155.5 755.84,-152 745.84,-148.5 745.84,-155.5"/>
</g>
<!-- Node8 -->
<g id="node8" class="node">
<title>Node8</title>
<g id="a_node8"><a xlink:href="util_8cpp.html#a32344e51c6ae485367b4fbf6bb535742" target="_top" xlink:title="Simplifies a string with non&#45;standard polarity (e.g., –1, —1, etc.).">
<polygon fill="none" stroke="black" points="752.5,-446.5 752.5,-465.5 845.5,-465.5 845.5,-446.5 752.5,-446.5"/>
<text text-anchor="middle" x="799" y="-453.5" font-family="Helvetica,sans-Serif" font-size="10.00">simplifyPolarity</text>
</a>
</g>
</g>
<!-- Node7&#45;&gt;Node8 -->
<g id="edge8" class="edge">
<title>Node7&#45;&gt;Node8</title>
<path fill="none" stroke="midnightblue" d="M679.64,-389.53C687.72,-392.01 695.77,-395.12 703,-399 722.12,-409.27 720.66,-420.39 739,-432 745.3,-435.98 752.36,-439.53 759.36,-442.6"/>
<polygon fill="midnightblue" stroke="midnightblue" points="758.2,-445.91 768.78,-446.48 760.87,-439.44 758.2,-445.91"/>
</g>
<!-- Node9 -->
<g id="node9" class="node">
<title>Node9</title>
<g id="a_node9"><a xlink:href="util_8cpp.html#a70584872ee14fa0befa8f25788f98a2b" target="_top" xlink:title="Simplifies a string that represents a number with non&#45;standard polarity.">
<polygon fill="none" stroke="black" points="895,-408.5 895,-427.5 1011,-427.5 1011,-408.5 895,-408.5"/>
<text text-anchor="middle" x="953" y="-415.5" font-family="Helvetica,sans-Serif" font-size="10.00">simplifyZeroPolarity</text>
</a>
</g>
</g>
<!-- Node8&#45;&gt;Node9 -->
<g id="edge9" class="edge">
<title>Node8&#45;&gt;Node9</title>
<path fill="none" stroke="midnightblue" d="M838.36,-446.41C858.32,-441.42 882.93,-435.27 904.13,-429.97"/>
<polygon fill="midnightblue" stroke="midnightblue" points="905.07,-433.34 913.92,-427.52 903.37,-426.55 905.07,-433.34"/>
</g>
<!-- Node9&#45;&gt;Node3 -->
<g id="edge10" class="edge">
<title>Node9&#45;&gt;Node3</title>
<path fill="none" stroke="midnightblue" d="M984.19,-408.49C993.31,-404.8 1003.01,-399.99 1011,-394 1037.55,-374.07 1060.2,-342.44 1072.95,-322.48"/>
<polygon fill="midnightblue" stroke="midnightblue" points="1076.09,-324.06 1078.39,-313.71 1070.14,-320.37 1076.09,-324.06"/>
</g>
<!-- Node11 -->
<g id="node11" class="node">
<title>Node11</title>
<g id="a_node11"><a xlink:href="colors_8cpp.html#aea0b5c095796ad31bd8aa86853337868" target="_top" xlink:title="Check if the output stream is a terminal.">
<polygon fill="none" stroke="black" points="592,-332.5 592,-351.5 659,-351.5 659,-332.5 592,-332.5"/>
<text text-anchor="middle" x="625.5" y="-339.5" font-family="Helvetica,sans-Serif" font-size="10.00">isTerminal</text>
</a>
</g>
</g>
<!-- Node10&#45;&gt;Node11 -->
<g id="edge12" class="edge">
<title>Node10&#45;&gt;Node11</title>
<path fill="none" stroke="midnightblue" d="M504.5,-370.41C528.15,-364.81 557.95,-357.76 581.94,-352.08"/>
<polygon fill="midnightblue" stroke="midnightblue" points="582.91,-355.44 591.83,-349.73 581.3,-348.63 582.91,-355.44"/>
</g>
<!-- Node12&#45;&gt;Node3 -->
<g id="edge14" class="edge">
<title>Node12&#45;&gt;Node3</title>
<path fill="none" stroke="midnightblue" d="M664.32,-308.97C677.2,-311.79 691.3,-316.18 703,-323 723.1,-334.72 717.63,-351.81 739,-361 850.2,-408.83 997.48,-347.57 1057.17,-318.14"/>
<polygon fill="midnightblue" stroke="midnightblue" points="1058.94,-321.17 1066.3,-313.55 1055.8,-314.91 1058.94,-321.17"/>
</g>
<!-- Node12&#45;&gt;Node8 -->
<g id="edge17" class="edge">
<title>Node12&#45;&gt;Node8</title>
<path fill="none" stroke="midnightblue" d="M664.34,-305.91C677.98,-308.37 692.56,-313.32 703,-323 740.41,-357.69 704.16,-394.73 739,-432 742.59,-435.84 746.88,-439.08 751.49,-441.81"/>
<polygon fill="midnightblue" stroke="midnightblue" points="750.14,-445.05 760.64,-446.47 753.31,-438.81 750.14,-445.05"/>
</g>
<!-- Node12&#45;&gt;Node9 -->
<g id="edge18" class="edge">
<title>Node12&#45;&gt;Node9</title>
<path fill="none" stroke="midnightblue" d="M664.39,-306.91C677.72,-309.52 692.08,-314.3 703,-323 730.68,-345.04 709.94,-373.82 739,-394 781.11,-423.24 839.59,-427.96 884.62,-426.08"/>
<polygon fill="midnightblue" stroke="midnightblue" points="885.08,-429.56 894.88,-425.53 884.71,-422.57 885.08,-429.56"/>
</g>
<!-- Node13 -->
<g id="node13" class="node">
<title>Node13</title>
<g id="a_node13"><a xlink:href="util_8cpp.html#a8056dcad90ba9582ba25405a95c2f1e4" target="_top" xlink:title=" ">
<polygon fill="none" stroke="black" points="739,-332.5 739,-351.5 859,-351.5 859,-332.5 739,-332.5"/>
<text text-anchor="middle" x="799" y="-339.5" font-family="Helvetica,sans-Serif" font-size="10.00">removeLeadingZeros</text>
</a>
</g>
</g>
<!-- Node12&#45;&gt;Node13 -->
<g id="edge15" class="edge">
<title>Node12&#45;&gt;Node13</title>
<path fill="none" stroke="midnightblue" d="M664.14,-312.34C687.92,-317.61 719,-324.5 745.23,-330.31"/>
<polygon fill="midnightblue" stroke="midnightblue" points="744.49,-333.73 755.01,-332.48 746.01,-326.89 744.49,-333.73"/>
</g>
<!-- Node14 -->
<g id="node14" class="node">
<title>Node14</title>
<g id="a_node14"><a xlink:href="util_8cpp.html#a7f0f5e18cd1b1507ace9b814e6286dda" target="_top" xlink:title=" ">
<polygon fill="none" stroke="black" points="740.5,-294.5 740.5,-313.5 857.5,-313.5 857.5,-294.5 740.5,-294.5"/>
<text text-anchor="middle" x="799" y="-301.5" font-family="Helvetica,sans-Serif" font-size="10.00">removeTrailingZeros</text>
</a>
</g>
</g>
<!-- Node12&#45;&gt;Node14 -->
<g id="edge16" class="edge">
<title>Node12&#45;&gt;Node14</title>
<path fill="none" stroke="midnightblue" d="M664.14,-304C683.46,-304 707.6,-304 730.05,-304"/>
<polygon fill="midnightblue" stroke="midnightblue" points="730.22,-307.5 740.22,-304 730.22,-300.5 730.22,-307.5"/>
</g>
<!-- Node15 -->
<g id="node15" class="node">
<title>Node15</title>
<g id="a_node15"><a xlink:href="util_8hpp.html#a771e8f4ac1c095d4c0fef2c966cd69d7" target="_top" xlink:title="Splits a string into substrings based on a separator.">
<polygon fill="none" stroke="black" points="780,-256.5 780,-275.5 818,-275.5 818,-256.5 780,-256.5"/>
<text text-anchor="middle" x="799" y="-263.5" font-family="Helvetica,sans-Serif" font-size="10.00">split</text>
</a>
</g>
</g>
<!-- Node12&#45;&gt;Node15 -->
<g id="edge19" class="edge">
<title>Node12&#45;&gt;Node15</title>
<path fill="none" stroke="midnightblue" d="M664.14,-295.66C696.1,-288.58 741.26,-278.57 770.08,-272.19"/>
<polygon fill="midnightblue" stroke="midnightblue" points="770.9,-275.59 779.91,-270.01 769.39,-268.76 770.9,-275.59"/>
</g>
<!-- Node16&#45;&gt;Node2 -->
<g id="edge21" class="edge">
<title>Node16&#45;&gt;Node2</title>
<path fill="none" stroke="midnightblue" d="M234.08,-323.38C216.04,-312.66 191.35,-295.82 175.29,-283.15"/>
<polygon fill="midnightblue" stroke="midnightblue" points="177.3,-280.27 167.36,-276.61 172.84,-285.67 177.3,-280.27"/>
</g>
<!-- Node16&#45;&gt;Node3 -->
<g id="edge28" class="edge">
<title>Node16&#45;&gt;Node3</title>
<path fill="none" stroke="midnightblue" d="M266.14,-342.53C286.21,-368.53 346.09,-441.07 414,-475 529.89,-532.9 574.37,-528.44 703,-513 842.99,-496.2 899.35,-523.1 1011,-437 1048.92,-407.76 1069.79,-352.99 1078.71,-323.68"/>
<polygon fill="midnightblue" stroke="midnightblue" points="1082.15,-324.38 1081.55,-313.81 1075.42,-322.45 1082.15,-324.38"/>
</g>
<!-- Node16&#45;&gt;Node10 -->
<g id="edge33" class="edge">
<title>Node16&#45;&gt;Node10</title>
<path fill="none" stroke="midnightblue" d="M282.02,-342.54C293.81,-347.13 308.5,-352.41 322,-356 348.5,-363.05 378.38,-368.5 403.72,-372.41"/>
<polygon fill="midnightblue" stroke="midnightblue" points="403.5,-375.92 413.91,-373.94 404.54,-369 403.5,-375.92"/>
</g>
<!-- Node16&#45;&gt;Node12 -->
<g id="edge34" class="edge">
<title>Node16&#45;&gt;Node12</title>
<path fill="none" stroke="midnightblue" d="M286.17,-330.84C347.84,-325.95 499.05,-313.95 576.73,-307.79"/>
<polygon fill="midnightblue" stroke="midnightblue" points="577.04,-311.28 586.73,-307 576.49,-304.3 577.04,-311.28"/>
</g>
<!-- Node16&#45;&gt;Node17 -->
<g id="edge22" class="edge">
<title>Node16&#45;&gt;Node17</title>
<path fill="none" stroke="midnightblue" d="M272.85,-342.6C285.5,-351.28 304.81,-364.31 322,-375 360.99,-399.24 407.29,-425.56 435.65,-441.42"/>
<polygon fill="midnightblue" stroke="midnightblue" points="434.11,-444.56 444.55,-446.37 437.52,-438.45 434.11,-444.56"/>
</g>
<!-- Node21 -->
<g id="node21" class="node">
<title>Node21</title>
<g id="a_node21"><a xlink:href="subtractReport_8cpp.html#ad21f3d209885b1c419ff73800bb3b33b" target="_top" xlink:title="Reports a subtraction operation to the user.">
<polygon fill="none" stroke="black" points="420,-142.5 420,-161.5 506,-161.5 506,-142.5 420,-142.5"/>
<text text-anchor="middle" x="463" y="-149.5" font-family="Helvetica,sans-Serif" font-size="10.00">reportSubtract</text>
</a>
</g>
</g>
<!-- Node16&#45;&gt;Node21 -->
<g id="edge29" class="edge">
<title>Node16&#45;&gt;Node21</title>
<path fill="none" stroke="midnightblue" d="M265.93,-323.21C285.9,-295.64 346.48,-216.38 414,-171 416.75,-169.15 419.71,-167.44 422.76,-165.86"/>
<polygon fill="midnightblue" stroke="midnightblue" points="424.46,-168.93 432.06,-161.55 421.52,-162.58 424.46,-168.93"/>
</g>
<!-- Node24 -->
<g id="node24" class="node">
<title>Node24</title>
<g id="a_node24"><a xlink:href="subtract_8cpp.html#ac94acf58b23f19e226b9263fa3a2b0da" target="_top" xlink:title="Subtracts one string representation of a number from another string representation of a number.">
<polygon fill="none" stroke="black" points="322,-276.5 322,-295.5 378,-295.5 378,-276.5 322,-276.5"/>
<text text-anchor="middle" x="350" y="-283.5" font-family="Helvetica,sans-Serif" font-size="10.00">subtract</text>
</a>
</g>
</g>
<!-- Node16&#45;&gt;Node24 -->
<g id="edge35" class="edge">
<title>Node16&#45;&gt;Node24</title>
<path fill="none" stroke="midnightblue" d="M277.21,-323.49C289.94,-316.84 307.15,-307.85 321.54,-300.34"/>
<polygon fill="midnightblue" stroke="midnightblue" points="323.26,-303.39 330.51,-295.66 320.02,-297.18 323.26,-303.39"/>
</g>
<!-- Node17&#45;&gt;Node7 -->
<g id="edge27" class="edge">
<title>Node17&#45;&gt;Node7</title>
<path fill="none" stroke="midnightblue" d="M486.23,-446.47C494.6,-442.48 504.02,-437.49 512,-432 529.88,-419.69 528.88,-409.27 548,-399 552.3,-396.69 556.88,-394.66 561.58,-392.87"/>
<polygon fill="midnightblue" stroke="midnightblue" points="563.03,-396.08 571.36,-389.53 560.76,-389.45 563.03,-396.08"/>
</g>
<!-- Node17&#45;&gt;Node12 -->
<g id="edge26" class="edge">
<title>Node17&#45;&gt;Node12</title>
<path fill="none" stroke="midnightblue" d="M473.7,-446.12C484.06,-435.22 500.53,-416.85 512,-399 532.2,-367.56 519.08,-346.67 548,-323 556.27,-316.23 566.6,-311.83 576.98,-308.97"/>
<polygon fill="midnightblue" stroke="midnightblue" points="577.92,-312.35 586.87,-306.68 576.34,-305.53 577.92,-312.35"/>
</g>
<!-- Node18 -->
<g id="node18" class="node">
<title>Node18</title>
<g id="a_node18"><a xlink:href="comparisonReport_8cpp.html#a9837660fa80278748f7f9bc397f5fba4" target="_top" xlink:title="Reports the comparison based on the integer. If the integer parts are of different length,...">
<polygon fill="none" stroke="black" points="551,-446.5 551,-465.5 700,-465.5 700,-446.5 551,-446.5"/>
<text text-anchor="middle" x="625.5" y="-453.5" font-family="Helvetica,sans-Serif" font-size="10.00">reportComparisonAtInteger</text>
</a>
</g>
</g>
<!-- Node17&#45;&gt;Node18 -->
<g id="edge23" class="edge">
<title>Node17&#45;&gt;Node18</title>
<path fill="none" stroke="midnightblue" d="M492.69,-456C506.34,-456 523.43,-456 540.74,-456"/>
<polygon fill="midnightblue" stroke="midnightblue" points="540.93,-459.5 550.93,-456 540.93,-452.5 540.93,-459.5"/>
</g>
<!-- Node19 -->
<g id="node19" class="node">
<title>Node19</title>
<g id="a_node19"><a xlink:href="comparisonReport_8cpp.html#adc6ac398c16b4d30ab55b0ec5ceef9f3" target="_top" xlink:title="Compares each digit and see if one is larger.">
<polygon fill="none" stroke="black" points="555.5,-408.5 555.5,-427.5 695.5,-427.5 695.5,-408.5 555.5,-408.5"/>
<text text-anchor="middle" x="625.5" y="-415.5" font-family="Helvetica,sans-Serif" font-size="10.00">reportComparisonByDigit</text>
</a>
</g>
</g>
<!-- Node17&#45;&gt;Node19 -->
<g id="edge24" class="edge">
<title>Node17&#45;&gt;Node19</title>
<path fill="none" stroke="midnightblue" d="M492.69,-449.21C515.32,-443.85 547.43,-436.25 574.29,-429.89"/>
<polygon fill="midnightblue" stroke="midnightblue" points="575.37,-433.23 584.3,-427.52 573.76,-426.42 575.37,-433.23"/>
</g>
<!-- Node20 -->
<g id="node20" class="node">
<title>Node20</title>
<g id="a_node20"><a xlink:href="comparisonReport_8cpp.html#a8bdddfcaa5a1d0339df5705ec6ff2aff" target="_top" xlink:title="Reports the comparison based on the polarity. If they are of different polarity, the one that is posi...">
<polygon fill="none" stroke="black" points="548,-484.5 548,-503.5 703,-503.5 703,-484.5 548,-484.5"/>
<text text-anchor="middle" x="625.5" y="-491.5" font-family="Helvetica,sans-Serif" font-size="10.00">reportComparisonByPolarity</text>
</a>
</g>
</g>
<!-- Node17&#45;&gt;Node20 -->
<g id="edge25" class="edge">
<title>Node17&#45;&gt;Node20</title>
<path fill="none" stroke="midnightblue" d="M492.69,-462.79C515.32,-468.15 547.43,-475.75 574.29,-482.11"/>
<polygon fill="midnightblue" stroke="midnightblue" points="573.76,-485.58 584.3,-484.48 575.37,-478.77 573.76,-485.58"/>
</g>
<!-- Node21&#45;&gt;Node5 -->
<g id="edge30" class="edge">
<title>Node21&#45;&gt;Node5</title>
<path fill="none" stroke="midnightblue" d="M506.17,-152C525.96,-152 549.78,-152 570.85,-152"/>
<polygon fill="midnightblue" stroke="midnightblue" points="570.93,-155.5 580.93,-152 570.93,-148.5 570.93,-155.5"/>
</g>
<!-- Node22 -->
<g id="node22" class="node">
<title>Node22</title>
<g id="a_node22"><a xlink:href="util_8hpp.html#a8056dcad90ba9582ba25405a95c2f1e4" target="_top" xlink:title=" ">
<polygon fill="none" stroke="black" points="565.5,-104.5 565.5,-123.5 685.5,-123.5 685.5,-104.5 565.5,-104.5"/>
<text text-anchor="middle" x="625.5" y="-111.5" font-family="Helvetica,sans-Serif" font-size="10.00">removeLeadingZeros</text>
</a>
</g>
</g>
<!-- Node21&#45;&gt;Node22 -->
<g id="edge31" class="edge">
<title>Node21&#45;&gt;Node22</title>
<path fill="none" stroke="midnightblue" d="M504.5,-142.41C525.68,-137.4 551.8,-131.21 574.26,-125.89"/>
<polygon fill="midnightblue" stroke="midnightblue" points="575.37,-129.23 584.29,-123.52 573.75,-122.42 575.37,-129.23"/>
</g>
<!-- Node21&#45;&gt;Node23 -->
<g id="edge32" class="edge">
<title>Node21&#45;&gt;Node23</title>
<path fill="none" stroke="midnightblue" d="M475.18,-142.48C490.59,-129.84 519.68,-107.64 548,-95 553.44,-92.57 559.25,-90.42 565.14,-88.52"/>
<polygon fill="midnightblue" stroke="midnightblue" points="566.49,-91.77 575.07,-85.55 564.49,-85.06 566.49,-91.77"/>
</g>
<!-- Node24&#45;&gt;Node2 -->
<g id="edge36" class="edge">
<title>Node24&#45;&gt;Node2</title>
<path fill="none" stroke="midnightblue" d="M321.8,-283.28C285.55,-279.66 221.79,-273.28 185.76,-269.68"/>
<polygon fill="midnightblue" stroke="midnightblue" points="185.83,-266.17 175.53,-268.65 185.13,-273.13 185.83,-266.17"/>
</g>
<!-- Node24&#45;&gt;Node3 -->
<g id="edge38" class="edge">
<title>Node24&#45;&gt;Node3</title>
<path fill="none" stroke="midnightblue" d="M377.77,-276.42C426.29,-259.95 532.28,-228 624.5,-228 624.5,-228 624.5,-228 800,-228 895.22,-228 1002.49,-268.36 1053.67,-290.26"/>
<polygon fill="midnightblue" stroke="midnightblue" points="1052.57,-293.6 1063.14,-294.37 1055.36,-287.18 1052.57,-293.6"/>
</g>
<!-- Node24&#45;&gt;Node10 -->
<g id="edge40" class="edge">
<title>Node24&#45;&gt;Node10</title>
<path fill="none" stroke="midnightblue" d="M362.46,-295.71C381.5,-311.83 419.85,-344.31 442.99,-363.9"/>
<polygon fill="midnightblue" stroke="midnightblue" points="440.87,-366.7 450.77,-370.49 445.4,-361.35 440.87,-366.7"/>
</g>
<!-- Node24&#45;&gt;Node12 -->
<g id="edge41" class="edge">
<title>Node24&#45;&gt;Node12</title>
<path fill="none" stroke="midnightblue" d="M378.22,-287.79C424.52,-290.84 519.16,-297.07 576.7,-300.85"/>
<polygon fill="midnightblue" stroke="midnightblue" points="576.78,-304.37 586.99,-301.53 577.24,-297.38 576.78,-304.37"/>
</g>
<!-- Node24&#45;&gt;Node17 -->
<g id="edge37" class="edge">
<title>Node24&#45;&gt;Node17</title>
<path fill="none" stroke="midnightblue" d="M355.64,-295.74C365.35,-315.78 388.99,-362.77 414,-399 423.72,-413.08 436.21,-427.83 446.02,-438.8"/>
<polygon fill="midnightblue" stroke="midnightblue" points="443.58,-441.32 452.9,-446.37 448.76,-436.62 443.58,-441.32"/>
</g>
<!-- Node24&#45;&gt;Node21 -->
<g id="edge39" class="edge">
<title>Node24&#45;&gt;Node21</title>
<path fill="none" stroke="midnightblue" d="M355.26,-276.33C366.34,-251.53 396.42,-186.52 414,-171 415.75,-169.46 417.63,-168.03 419.61,-166.72"/>
<polygon fill="midnightblue" stroke="midnightblue" points="421.72,-169.55 428.76,-161.63 418.32,-163.43 421.72,-169.55"/>
</g>
<!-- Node24&#45;&gt;Node24 -->
<g id="edge42" class="edge">
<title>Node24&#45;&gt;Node24</title>
<path fill="none" stroke="midnightblue" d="M335.82,-295.76C328.92,-304.57 333.65,-314 350,-314 360.22,-314 365.9,-310.31 367.04,-305.4"/>
<polygon fill="midnightblue" stroke="midnightblue" points="370.38,-304.35 364.18,-295.76 363.66,-306.34 370.38,-304.35"/>
</g>
</g>
</svg>
        <g id="navigator" transform="translate(0 0)" fill="#404254">
                <rect fill="#f2f5e9" fill-opacity="0.5" stroke="#606060" stroke-width=".5" x="0" y="0" width="60" height="60"/>
                <use id="zoomplus" xlink:href="#zoomPlus" x="17" y="9" onmousedown="handleZoom(evt,'in')"/>
                <use id="zoomminus" xlink:href="#zoomMin" x="42" y="9" onmousedown="handleZoom(evt,'out')"/>
                <use id="reset" xlink:href="#resetDef" x="30" y="36" onmousedown="handleReset()"/>
                <g id="arrowUp" xlink:href="#dirArrow" transform="translate(30 24)" onmousedown="handlePan(0,-1)">
                  <use xlink:href="#rim" fill="#404040">
                        <set attributeName="fill" to="#808080" begin="arrowUp.mouseover" end="arrowUp.mouseout"/>
                  </use>
                  <path fill="none" stroke="white" stroke-width="1.5" d="M0,-3.0v7 M-2.5,-0.5L0,-3.0L2.5,-0.5"/>
                </g>
                <g id="arrowRight" xlink:href="#dirArrow" transform="rotate(90) translate(36 -43)" onmousedown="handlePan(1,0)">
                  <use xlink:href="#rim" fill="#404040">
                        <set attributeName="fill" to="#808080" begin="arrowRight.mouseover" end="arrowRight.mouseout"/>
                  </use>
                  <path fill="none" stroke="white" stroke-width="1.5" d="M0,-3.0v7 M-2.5,-0.5L0,-3.0L2.5,-0.5"/>
                </g>
                <g id="arrowDown" xlink:href="#dirArrow" transform="rotate(180) translate(-30 -48)" onmousedown="handlePan(0,1)">
                  <use xlink:href="#rim" fill="#404040">
                        <set attributeName="fill" to="#808080" begin="arrowDown.mouseover" end="arrowDown.mouseout"/>
                  </use>
                  <path fill="none" stroke="white" stroke-width="1.5" d="M0,-3.0v7 M-2.5,-0.5L0,-3.0L2.5,-0.5"/>
                </g>
                <g id="arrowLeft" xlink:href="#dirArrow" transform="rotate(270) translate(-36 17)" onmousedown="handlePan(-1,0)">
                  <use xlink:href="#rim" fill="#404040">
                        <set attributeName="fill" to="#808080" begin="arrowLeft.mouseover" end="arrowLeft.mouseout"/>
                  </use>
                  <path fill="none" stroke="white" stroke-width="1.5" d="M0,-3.0v7 M-2.5,-0.5L0,-3.0L2.5,-0.5"/>
                </g>
        </g>
        <svg viewBox="0 0 15 15" width="100%" height="30px" preserveAspectRatio="xMaxYMin meet">
         <g id="arrow_out" transform="scale(0.3 0.3)">
          <a xlink:href="multiplyReport_8cpp_a551f62010399287bf016fd805c5d4cd3_cgraph_org.svg" target="_base">
           <rect id="button" ry="5" rx="5" y="6" x="6" height="38" width="38"
                fill="#f2f5e9" fill-opacity="0.5" stroke="#606060" stroke-width="1.0"/>
           <path id="arrow"
             d="M 11.500037,31.436501 C 11.940474,20.09759 22.043105,11.32322 32.158766,21.979434 L 37.068811,17.246167 C 37.068811,17.246167 37.088388,32 37.088388,32 L 22.160133,31.978069 C 22.160133,31.978069 26.997745,27.140456 26.997745,27.140456 C 18.528582,18.264221 13.291696,25.230495 11.500037,31.436501 z"
             style="fill:#404040;"/>
          </a>
         </g>
        </svg>
</svg>
