<?xml version="1.0" encoding="UTF-8" standalone="no"?>
<!DOCTYPE svg PUBLIC "-//W3C//DTD SVG 1.1//EN"
 "http://www.w3.org/Graphics/SVG/1.1/DTD/svg11.dtd">
<!-- Generated by graphviz version 11.0.0 (20240428.1522)
 -->
<!-- Title: steppable::__internals::arithmetic::abs Pages: 1 -->
<!--zoomable 837 -->

<svg id="main" version="1.1" xmlns="http://www.w3.org/2000/svg" xmlns:xlink="http://www.w3.org/1999/xlink" xml:space="preserve" onload="init(evt)">
<style type="text/css"><![CDATA[
.node, .edge {opacity: 0.7;}
.node.selected, .edge.selected {opacity: 1;}
.edge:hover path { stroke: red; }
.edge:hover polygon { stroke: red; fill: red; }
]]></style>

<defs>
  <circle id="rim" cx="0" cy="0" r="7"/>
  <circle id="rim2" cx="0" cy="0" r="3.5"/>
  <g id="zoomPlus">
    <use xlink:href="#rim" fill="#404040"><set attributeName="fill" to="#808080" begin="zoomplus.mouseover" end="zoomplus.mouseout"/></use>
    <path d="M-4,0h8M0,-4v8" fill="none" stroke="white" stroke-width="1.5" pointer-events="none"/>
  </g>
  <g id="zoomMin">
    <use xlink:href="#rim" fill="#404040"><set attributeName="fill" to="#808080" begin="zoomminus.mouseover" end="zoomminus.mouseout"/></use>
    <path d="M-4,0h8" fill="none" stroke="white" stroke-width="1.5" pointer-events="none"/>
  </g>
  <g id="arrowUp" transform="translate(30 24)">
    <use xlink:href="#rim"/>
    <path pointer-events="none" fill="none" stroke="white" stroke-width="1.5" d="M0,-3.0v7 M-2.5,-0.5L0,-3.0L2.5,-0.5"/>
  </g>
  <g id="arrowRight" transform="rotate(90) translate(36 -43)">
    <use xlink:href="#rim"/>
    <path pointer-events="none" fill="none" stroke="white" stroke-width="1.5" d="M0,-3.0v7 M-2.5,-0.5L0,-3.0L2.5,-0.5"/>
  </g>
  <g id="arrowDown" transform="rotate(180) translate(-30 -48)">
    <use xlink:href="#rim"/>
    <path pointer-events="none" fill="none" stroke="white" stroke-width="1.5" d="M0,-3.0v7 M-2.5,-0.5L0,-3.0L2.5,-0.5"/>
  </g>
  <g id="arrowLeft" transform="rotate(270) translate(-36 17)">
    <use xlink:href="#rim"/>
    <path pointer-events="none" fill="none" stroke="white" stroke-width="1.5" d="M0,-3.0v7 M-2.5,-0.5L0,-3.0L2.5,-0.5"/>
  </g>
  <g id="resetDef">
    <use xlink:href="#rim2" fill="#404040"><set attributeName="fill" to="#808080" begin="reset.mouseover" end="reset.mouseout"/></use>
  </g>
</defs>
<script type="application/ecmascript">
var viewWidth = 1745;
var viewHeight = 837;
var sectionId = 'dynsection-2';
</script>
<script type="application/ecmascript" xlink:href="svg.min.js"/>
<svg id="graph" class="graph">
<g id="viewport">
<title>steppable::__internals::arithmetic::abs</title>
<!-- Node1 -->
<g id="Node000001" class="node">
<title>Node1</title>
<g id="a_Node000001"><a xlink:title="Calculates the absolute value of a string representation of a number.">
<polygon fill="#999999" stroke="#666666" points="1737.25,-289.5 1614,-289.5 1614,-256 1737.25,-256 1737.25,-289.5"/>
<text text-anchor="start" x="1622" y="-276" font-family="Helvetica,sans-Serif" font-size="10.00">steppable::__internals</text>
<text text-anchor="middle" x="1675.62" y="-263.25" font-family="Helvetica,sans-Serif" font-size="10.00">::arithmetic::abs</text>
</a>
</g>
</g>
<!-- Node2 -->
<g id="Node000002" class="node">
<title>Node2</title>
<g id="a_Node000002"><a xlink:href="namespacesteppable_1_1____internals_1_1numUtils.html#a5eeb396144a9e1d3edd3339abb6f434f" target="_top" xlink:title="Get the factors of a number.">
<polygon fill="white" stroke="#666666" points="1578,-334.5 1454.75,-334.5 1454.75,-301 1578,-301 1578,-334.5"/>
<text text-anchor="start" x="1462.75" y="-321" font-family="Helvetica,sans-Serif" font-size="10.00">steppable::__internals</text>
<text text-anchor="middle" x="1516.38" y="-308.25" font-family="Helvetica,sans-Serif" font-size="10.00">::numUtils::getFactors</text>
</a>
</g>
</g>
<!-- Node1&#45;&gt;Node2 -->
<g id="edge1_Node000001_Node000002" class="edge">
<title>Node1&#45;&gt;Node2</title>
<g id="a_edge1_Node000001_Node000002"><a xlink:title=" ">
<path fill="none" stroke="#63b8ff" d="M1603.77,-293.03C1595.04,-295.52 1586.18,-298.06 1577.63,-300.51"/>
<polygon fill="#63b8ff" stroke="#63b8ff" points="1604.62,-296.42 1613.27,-290.31 1602.69,-289.69 1604.62,-296.42"/>
</a>
</g>
</g>
<!-- Node31 -->
<g id="Node000031" class="node">
<title>Node31</title>
<g id="a_Node000031"><a xlink:href="namespacesteppable_1_1____internals_1_1arithmetic.html#a7ff9976bf48df9c832d7489e88004813" target="_top" xlink:title="Gets the greatest common divisor of two string representations of numbers.">
<polygon fill="white" stroke="#666666" points="1243,-267.5 1119.75,-267.5 1119.75,-234 1243,-234 1243,-267.5"/>
<text text-anchor="start" x="1127.75" y="-254" font-family="Helvetica,sans-Serif" font-size="10.00">steppable::__internals</text>
<text text-anchor="middle" x="1181.38" y="-241.25" font-family="Helvetica,sans-Serif" font-size="10.00">::arithmetic::getGCD</text>
</a>
</g>
</g>
<!-- Node1&#45;&gt;Node31 -->
<g id="edge40_Node000001_Node000031" class="edge">
<title>Node1&#45;&gt;Node31</title>
<g id="a_edge40_Node000001_Node000031"><a xlink:title=" ">
<path fill="none" stroke="#63b8ff" d="M1602.31,-269.52C1505.22,-265.18 1334.46,-257.55 1243.48,-253.48"/>
<polygon fill="#63b8ff" stroke="#63b8ff" points="1602.11,-273.01 1612.26,-269.96 1602.43,-266.02 1602.11,-273.01"/>
</a>
</g>
</g>
<!-- Node3 -->
<g id="Node000003" class="node">
<title>Node3</title>
<g id="a_Node000003"><a xlink:href="namespacesteppable_1_1____internals_1_1numUtils.html#a379086734493f9c5d59b1bca39908074" target="_top" xlink:title="Get the largest factor of a number, that is a root number.">
<polygon fill="white" stroke="#666666" points="1418.75,-424.5 1279,-424.5 1279,-391 1418.75,-391 1418.75,-424.5"/>
<text text-anchor="start" x="1287" y="-411" font-family="Helvetica,sans-Serif" font-size="10.00">steppable::__internals</text>
<text text-anchor="middle" x="1348.88" y="-398.25" font-family="Helvetica,sans-Serif" font-size="10.00">::numUtils::getRootFactor</text>
</a>
</g>
</g>
<!-- Node2&#45;&gt;Node3 -->
<g id="edge2_Node000002_Node000003" class="edge">
<title>Node2&#45;&gt;Node3</title>
<g id="a_edge2_Node000002_Node000003"><a xlink:title=" ">
<path fill="none" stroke="#63b8ff" d="M1473.75,-340.38C1445.15,-355.94 1407.75,-376.28 1381.56,-390.52"/>
<polygon fill="#63b8ff" stroke="#63b8ff" points="1475.41,-343.47 1482.53,-335.61 1472.07,-337.32 1475.41,-343.47"/>
</a>
</g>
</g>
<!-- Node30 -->
<g id="Node000030" class="node">
<title>Node30</title>
<g id="a_Node000030"><a xlink:href="namespacesteppable_1_1____internals_1_1numUtils.html#a1a51aabb1fe846587df780d136efd45f" target="_top" xlink:title="Check if a number is prime.">
<polygon fill="white" stroke="#666666" points="1410.5,-312.5 1287.25,-312.5 1287.25,-279 1410.5,-279 1410.5,-312.5"/>
<text text-anchor="start" x="1295.25" y="-299" font-family="Helvetica,sans-Serif" font-size="10.00">steppable::__internals</text>
<text text-anchor="middle" x="1348.88" y="-286.25" font-family="Helvetica,sans-Serif" font-size="10.00">::numUtils::isPrime</text>
</a>
</g>
</g>
<!-- Node2&#45;&gt;Node30 -->
<g id="edge39_Node000002_Node000030" class="edge">
<title>Node2&#45;&gt;Node30</title>
<g id="a_edge39_Node000002_Node000030"><a xlink:title=" ">
<path fill="none" stroke="#63b8ff" d="M1443.47,-308.19C1432.59,-306.75 1421.45,-305.26 1410.83,-303.85"/>
<polygon fill="#63b8ff" stroke="#63b8ff" points="1442.81,-311.64 1453.19,-309.48 1443.74,-304.7 1442.81,-311.64"/>
</a>
</g>
</g>
<!-- Node4 -->
<g id="Node000004" class="node">
<title>Node4</title>
<g id="a_Node000004"><a xlink:href="namespacesteppable_1_1____internals_1_1arithmetic.html#a118bc6cb979317a7c762ee90fb44d0a4" target="_top" xlink:title="Converts a root operation into a surd.">
<polygon fill="white" stroke="#666666" points="1243,-424.5 1119.75,-424.5 1119.75,-391 1243,-391 1243,-424.5"/>
<text text-anchor="start" x="1127.75" y="-411" font-family="Helvetica,sans-Serif" font-size="10.00">steppable::__internals</text>
<text text-anchor="middle" x="1181.38" y="-398.25" font-family="Helvetica,sans-Serif" font-size="10.00">::arithmetic::rootSurd</text>
</a>
</g>
</g>
<!-- Node3&#45;&gt;Node4 -->
<g id="edge3_Node000003_Node000004" class="edge">
<title>Node3&#45;&gt;Node4</title>
<g id="a_edge3_Node000003_Node000004"><a xlink:title=" ">
<path fill="none" stroke="#63b8ff" d="M1267.33,-407.75C1259.29,-407.75 1251.22,-407.75 1243.43,-407.75"/>
<polygon fill="#63b8ff" stroke="#63b8ff" points="1267.13,-411.25 1277.13,-407.75 1267.13,-404.25 1267.13,-411.25"/>
</a>
</g>
</g>
<!-- Node5 -->
<g id="Node000005" class="node">
<title>Node5</title>
<g id="a_Node000005"><a xlink:href="namespacesteppable_1_1____internals_1_1arithmetic.html#a4aa89d1787b7578cd2ed73392bdcd7df" target="_top" xlink:title="Takes the n&#45;th root of a numer.">
<polygon fill="white" stroke="#666666" points="1083.75,-402.5 960.5,-402.5 960.5,-369 1083.75,-369 1083.75,-402.5"/>
<text text-anchor="start" x="968.5" y="-389" font-family="Helvetica,sans-Serif" font-size="10.00">steppable::__internals</text>
<text text-anchor="middle" x="1022.12" y="-376.25" font-family="Helvetica,sans-Serif" font-size="10.00">::arithmetic::root</text>
</a>
</g>
</g>
<!-- Node4&#45;&gt;Node5 -->
<g id="edge4_Node000004_Node000005" class="edge">
<title>Node4&#45;&gt;Node5</title>
<g id="a_edge4_Node000004_Node000005"><a xlink:title=" ">
<path fill="none" stroke="#63b8ff" d="M1108.23,-397.66C1100.14,-396.52 1091.95,-395.38 1084.02,-394.27"/>
<polygon fill="#63b8ff" stroke="#63b8ff" points="1107.69,-401.12 1118.08,-399.03 1108.66,-394.18 1107.69,-401.12"/>
</a>
</g>
</g>
<!-- Node6 -->
<g id="Node000006" class="node">
<title>Node6</title>
<g id="a_Node000006"><a xlink:href="namespacesteppable_1_1____internals_1_1arithmetic.html#a50acfa1ad06ce385943ddd207146c9e0" target="_top" xlink:title="Raises a string representation of a number to a power.">
<polygon fill="white" stroke="#666666" points="924.5,-613.5 801.25,-613.5 801.25,-580 924.5,-580 924.5,-613.5"/>
<text text-anchor="start" x="809.25" y="-600" font-family="Helvetica,sans-Serif" font-size="10.00">steppable::__internals</text>
<text text-anchor="middle" x="862.88" y="-587.25" font-family="Helvetica,sans-Serif" font-size="10.00">::arithmetic::power</text>
</a>
</g>
</g>
<!-- Node5&#45;&gt;Node6 -->
<g id="edge5_Node000005_Node000006" class="edge">
<title>Node5&#45;&gt;Node6</title>
<g id="a_edge5_Node000005_Node000006"><a xlink:title=" ">
<path fill="none" stroke="#63b8ff" d="M1001.7,-411.82C969.02,-455.66 903.97,-542.96 876.54,-579.76"/>
<polygon fill="#63b8ff" stroke="#63b8ff" points="1004.45,-413.98 1007.62,-403.87 998.84,-409.8 1004.45,-413.98"/>
</a>
</g>
</g>
<!-- Node6&#45;&gt;Node6 -->
<g id="edge37_Node000006_Node000006" class="edge">
<title>Node6&#45;&gt;Node6</title>
<g id="a_edge37_Node000006_Node000006"><a xlink:title=" ">
<path fill="none" stroke="#63b8ff" d="M889.61,-624.89C885.26,-628.85 876.35,-631.5 862.88,-631.5 838.93,-631.5 829.38,-623.12 834.25,-613.91"/>
<polygon fill="#63b8ff" stroke="#63b8ff" points="893,-625.85 891.25,-615.41 886.1,-624.67 893,-625.85"/>
</a>
</g>
</g>
<!-- Node7 -->
<g id="Node000007" class="node">
<title>Node7</title>
<g id="a_Node000007"><a xlink:href="namespacesteppable_1_1____internals_1_1arithmetic.html#a1eedcdd2349ec452f6319cd0ff443e0a" target="_top" xlink:title=" ">
<polygon fill="white" stroke="#666666" points="359.75,-408.5 236.5,-408.5 236.5,-375 359.75,-375 359.75,-408.5"/>
<text text-anchor="start" x="244.5" y="-395" font-family="Helvetica,sans-Serif" font-size="10.00">steppable::__internals</text>
<text text-anchor="middle" x="298.12" y="-382.25" font-family="Helvetica,sans-Serif" font-size="10.00">::arithmetic::_root</text>
</a>
</g>
</g>
<!-- Node6&#45;&gt;Node7 -->
<g id="edge6_Node000006_Node000007" class="edge">
<title>Node6&#45;&gt;Node7</title>
<g id="a_edge6_Node000006_Node000007"><a xlink:title=" ">
<path fill="none" stroke="#63b8ff" d="M845.73,-570.29C828.87,-545.01 800.04,-507.87 765.25,-487.75 696.77,-448.15 469.91,-414.07 359.94,-399.42"/>
<polygon fill="#63b8ff" stroke="#63b8ff" points="842.61,-571.9 850.98,-578.39 848.48,-568.09 842.61,-571.9"/>
</a>
</g>
</g>
<!-- Node8 -->
<g id="Node000008" class="node">
<title>Node8</title>
<g id="a_Node000008"><a xlink:href="namespacesteppable_1_1____internals_1_1arithmetic.html#afc4c4f319dadbb5b1ff481132f008374" target="_top" xlink:title="Converts a string representation of a number from any base to decimal.">
<polygon fill="white" stroke="#666666" points="750.25,-762.5 594.75,-762.5 594.75,-729 750.25,-729 750.25,-762.5"/>
<text text-anchor="start" x="602.75" y="-749" font-family="Helvetica,sans-Serif" font-size="10.00">steppable::__internals</text>
<text text-anchor="middle" x="672.5" y="-736.25" font-family="Helvetica,sans-Serif" font-size="10.00">::arithmetic::decimalConvert</text>
</a>
</g>
</g>
<!-- Node6&#45;&gt;Node8 -->
<g id="edge9_Node000006_Node000008" class="edge">
<title>Node6&#45;&gt;Node8</title>
<g id="a_edge9_Node000006_Node000008"><a xlink:title=" ">
<path fill="none" stroke="#63b8ff" d="M847.49,-623.82C831.19,-651.9 802.05,-695.08 765.25,-719.75 760.3,-723.07 754.93,-725.97 749.35,-728.5"/>
<polygon fill="#63b8ff" stroke="#63b8ff" points="850.49,-625.61 852.35,-615.18 844.39,-622.18 850.49,-625.61"/>
</a>
</g>
</g>
<!-- Node9 -->
<g id="Node000009" class="node">
<title>Node9</title>
<g id="a_Node000009"><a xlink:href="namespacesteppable_1_1____internals_1_1arithmetic.html#aa150ef39a272f7228ae239679247fab3" target="_top" xlink:title="Determines the scale of the quotient of division.">
<polygon fill="white" stroke="#666666" points="765.25,-530.5 579.75,-530.5 579.75,-497 765.25,-497 765.25,-530.5"/>
<text text-anchor="start" x="587.75" y="-517" font-family="Helvetica,sans-Serif" font-size="10.00">steppable::__internals</text>
<text text-anchor="middle" x="672.5" y="-504.25" font-family="Helvetica,sans-Serif" font-size="10.00">::arithmetic::determineResultScale</text>
</a>
</g>
</g>
<!-- Node6&#45;&gt;Node9 -->
<g id="edge10_Node000006_Node000009" class="edge">
<title>Node6&#45;&gt;Node9</title>
<g id="a_edge10_Node000006_Node000009"><a xlink:title=" ">
<path fill="none" stroke="#63b8ff" d="M823.13,-573.97C805.77,-564.27 784.82,-553.25 765.25,-544.75 753.84,-539.79 741.36,-535.11 729.38,-530.96"/>
<polygon fill="#63b8ff" stroke="#63b8ff" points="821.17,-576.88 831.59,-578.76 824.61,-570.79 821.17,-576.88"/>
</a>
</g>
</g>
<!-- Node15 -->
<g id="Node000015" class="node">
<title>Node15</title>
<g id="a_Node000015"><a xlink:href="namespacesteppable_1_1____internals_1_1arithmetic.html#a6f1429e9d7719e6376dc68ae28d36dbe" target="_top" xlink:title="Gets the integer part of the root of a number.">
<polygon fill="white" stroke="#666666" points="362.75,-620.5 233.5,-620.5 233.5,-587 362.75,-587 362.75,-620.5"/>
<text text-anchor="start" x="241.5" y="-607" font-family="Helvetica,sans-Serif" font-size="10.00">steppable::__internals</text>
<text text-anchor="middle" x="298.12" y="-594.25" font-family="Helvetica,sans-Serif" font-size="10.00">::arithmetic::rootIntPart</text>
</a>
</g>
</g>
<!-- Node6&#45;&gt;Node15 -->
<g id="edge38_Node000006_Node000015" class="edge">
<title>Node6&#45;&gt;Node15</title>
<g id="a_edge38_Node000006_Node000015"><a xlink:title=" ">
<path fill="none" stroke="#63b8ff" d="M789.46,-597.65C678.58,-599.03 468.52,-601.64 363,-602.96"/>
<polygon fill="#63b8ff" stroke="#63b8ff" points="789.38,-601.15 799.33,-597.53 789.29,-594.15 789.38,-601.15"/>
</a>
</g>
</g>
<!-- Node16 -->
<g id="Node000016" class="node">
<title>Node16</title>
<g id="a_Node000016"><a xlink:href="namespacesteppable_1_1____internals_1_1numUtils.html#a9af210044669c6dd27a2fca4723fe831" target="_top" xlink:title="Get the greatest root number less than or equal to the given number.">
<polygon fill="white" stroke="#666666" points="175.75,-598.5 0,-598.5 0,-565 175.75,-565 175.75,-598.5"/>
<text text-anchor="start" x="8" y="-585" font-family="Helvetica,sans-Serif" font-size="10.00">steppable::__internals</text>
<text text-anchor="middle" x="87.88" y="-572.25" font-family="Helvetica,sans-Serif" font-size="10.00">::numUtils::getGreatestRootNum</text>
</a>
</g>
</g>
<!-- Node6&#45;&gt;Node16 -->
<g id="edge33_Node000006_Node000016" class="edge">
<title>Node6&#45;&gt;Node16</title>
<g id="a_edge33_Node000006_Node000016"><a xlink:title=" ">
<path fill="none" stroke="#63b8ff" d="M789.56,-592.98C696.06,-588.3 528.19,-580.61 384.5,-577.75 307.74,-576.22 288.52,-576.5 211.75,-577.75 200.23,-577.94 188.1,-578.22 176.13,-578.56"/>
<polygon fill="#63b8ff" stroke="#63b8ff" points="789.18,-596.46 799.35,-593.47 789.54,-589.47 789.18,-596.46"/>
</a>
</g>
</g>
<!-- Node17 -->
<g id="Node000017" class="node">
<title>Node17</title>
<g id="a_Node000017"><a xlink:href="namespacesteppable_1_1____internals_1_1numUtils.html#af5d859c9839f7f49bf06f891693d5dfc" target="_top" xlink:title="Check if a number is a root number.">
<polygon fill="white" stroke="#666666" points="149.5,-807.5 26.25,-807.5 26.25,-774 149.5,-774 149.5,-807.5"/>
<text text-anchor="start" x="34.25" y="-794" font-family="Helvetica,sans-Serif" font-size="10.00">steppable::__internals</text>
<text text-anchor="middle" x="87.88" y="-781.25" font-family="Helvetica,sans-Serif" font-size="10.00">::numUtils::isRoot</text>
</a>
</g>
</g>
<!-- Node6&#45;&gt;Node17 -->
<g id="edge34_Node000006_Node000017" class="edge">
<title>Node6&#45;&gt;Node17</title>
<g id="a_edge34_Node000006_Node000017"><a xlink:title=" ">
<path fill="none" stroke="#63b8ff" d="M855.61,-624.82C844.89,-665.39 818.8,-739.13 765.25,-771.75 663.24,-833.9 296.43,-809.29 149.94,-796.55"/>
<polygon fill="#63b8ff" stroke="#63b8ff" points="858.95,-625.86 857.98,-615.31 852.16,-624.17 858.95,-625.86"/>
</a>
</g>
</g>
<!-- Node28 -->
<g id="Node000028" class="node">
<title>Node28</title>
<g id="a_Node000028"><a xlink:href="classsteppable_1_1Fraction.html#abaf8678e0b61e3097789959b66e4c23c" target="_top" xlink:title="Raises the fraction to a power.">
<polygon fill="white" stroke="#666666" points="727,-710.5 618,-710.5 618,-677 727,-677 727,-710.5"/>
<text text-anchor="start" x="626" y="-697" font-family="Helvetica,sans-Serif" font-size="10.00">steppable::Fraction</text>
<text text-anchor="middle" x="672.5" y="-684.25" font-family="Helvetica,sans-Serif" font-size="10.00">::operator^</text>
</a>
</g>
</g>
<!-- Node6&#45;&gt;Node28 -->
<g id="edge35_Node000006_Node000028" class="edge">
<title>Node6&#45;&gt;Node28</title>
<g id="a_edge35_Node000006_Node000028"><a xlink:title=" ">
<path fill="none" stroke="#63b8ff" d="M834.16,-621.3C815.72,-636.53 790.37,-655.47 765.25,-667.75 753.35,-673.57 739.93,-678.29 727.1,-682.03"/>
<polygon fill="#63b8ff" stroke="#63b8ff" points="836.33,-624.05 841.72,-614.92 831.81,-618.7 836.33,-624.05"/>
</a>
</g>
</g>
<!-- Node29 -->
<g id="Node000029" class="node">
<title>Node29</title>
<g id="a_Node000029"><a xlink:href="classsteppable_1_1Number.html#ae3e13c5f73bc67cd464c84a8640e1387" target="_top" xlink:title="Raises the number to a power.">
<polygon fill="white" stroke="#666666" points="730,-658.5 615,-658.5 615,-625 730,-625 730,-658.5"/>
<text text-anchor="start" x="623" y="-645" font-family="Helvetica,sans-Serif" font-size="10.00">steppable::Number::</text>
<text text-anchor="middle" x="672.5" y="-632.25" font-family="Helvetica,sans-Serif" font-size="10.00">operator^</text>
</a>
</g>
</g>
<!-- Node6&#45;&gt;Node29 -->
<g id="edge36_Node000006_Node000029" class="edge">
<title>Node6&#45;&gt;Node29</title>
<g id="a_edge36_Node000006_Node000029"><a xlink:title=" ">
<path fill="none" stroke="#63b8ff" d="M789.88,-613.95C770.17,-618.66 749.09,-623.69 730.35,-628.17"/>
<polygon fill="#63b8ff" stroke="#63b8ff" points="790.59,-617.38 799.5,-611.65 788.96,-610.57 790.59,-617.38"/>
</a>
</g>
</g>
<!-- Node7&#45;&gt;Node5 -->
<g id="edge8_Node000007_Node000005" class="edge">
<title>Node7&#45;&gt;Node5</title>
<g id="a_edge8_Node000007_Node000005"><a xlink:title=" ">
<path fill="none" stroke="#63b8ff" d="M371.32,-391.15C513.54,-389.97 827.62,-387.36 960.19,-386.26"/>
<polygon fill="#63b8ff" stroke="#63b8ff" points="371.64,-387.65 361.67,-391.23 371.69,-394.65 371.64,-387.65"/>
</a>
</g>
</g>
<!-- Node7&#45;&gt;Node7 -->
<g id="edge7_Node000007_Node000007" class="edge">
<title>Node7&#45;&gt;Node7</title>
<g id="a_edge7_Node000007_Node000007"><a xlink:title=" ">
<path fill="none" stroke="#63b8ff" d="M329.02,-419.89C323.99,-423.85 313.69,-426.5 298.12,-426.5 270.45,-426.5 259.43,-418.12 265.05,-408.91"/>
<polygon fill="#63b8ff" stroke="#63b8ff" points="332.39,-420.89 330.91,-410.4 325.52,-419.52 332.39,-420.89"/>
</a>
</g>
</g>
<!-- Node10 -->
<g id="Node000010" class="node">
<title>Node10</title>
<g id="a_Node000010"><a xlink:href="namespacesteppable_1_1____internals_1_1arithmetic.html#a26194ae8ddb44afb942fbf8335ae1730" target="_top" xlink:title="Divides a string representation of a number by another string representation of a number.">
<polygon fill="white" stroke="#666666" points="543.75,-530.5 420.5,-530.5 420.5,-497 543.75,-497 543.75,-530.5"/>
<text text-anchor="start" x="428.5" y="-517" font-family="Helvetica,sans-Serif" font-size="10.00">steppable::__internals</text>
<text text-anchor="middle" x="482.12" y="-504.25" font-family="Helvetica,sans-Serif" font-size="10.00">::arithmetic::divide</text>
</a>
</g>
</g>
<!-- Node9&#45;&gt;Node10 -->
<g id="edge11_Node000009_Node000010" class="edge">
<title>Node9&#45;&gt;Node10</title>
<g id="a_edge11_Node000009_Node000010"><a xlink:title=" ">
<path fill="none" stroke="#63b8ff" d="M568.23,-513.75C559.98,-513.75 551.83,-513.75 544.02,-513.75"/>
<polygon fill="#63b8ff" stroke="#63b8ff" points="568.01,-517.25 578.01,-513.75 568.01,-510.25 568.01,-517.25"/>
</a>
</g>
</g>
<!-- Node10&#45;&gt;Node4 -->
<g id="edge22_Node000010_Node000004" class="edge">
<title>Node10&#45;&gt;Node4</title>
<g id="a_edge22_Node000010_Node000004"><a xlink:title=" ">
<path fill="none" stroke="#63b8ff" d="M553.44,-493.69C562.26,-491.51 571.19,-489.46 579.75,-487.75 775.22,-448.61 1010.41,-423.58 1119.41,-413.22"/>
<polygon fill="#63b8ff" stroke="#63b8ff" points="552.67,-490.27 543.84,-496.13 554.39,-497.06 552.67,-490.27"/>
</a>
</g>
</g>
<!-- Node10&#45;&gt;Node7 -->
<g id="edge12_Node000010_Node000007" class="edge">
<title>Node10&#45;&gt;Node7</title>
<g id="a_edge12_Node000010_Node000007"><a xlink:title=" ">
<path fill="none" stroke="#63b8ff" d="M431.54,-490.8C427.66,-488.29 423.93,-485.61 420.5,-482.75 400.29,-465.9 404.68,-452.63 384.5,-435.75 371.71,-425.05 355.88,-416 341.35,-408.94"/>
<polygon fill="#63b8ff" stroke="#63b8ff" points="429.68,-493.77 440.07,-495.88 433.26,-487.76 429.68,-493.77"/>
</a>
</g>
</g>
<!-- Node11 -->
<g id="Node000011" class="node">
<title>Node11</title>
<g id="a_Node000011"><a xlink:href="namespacesteppable_1_1____internals_1_1arithmetic.html#a814abbd0fc1772320626c4c0ca3f677a" target="_top" xlink:title="Converts a string representation of a number from decimal to another one.">
<polygon fill="white" stroke="#666666" points="368,-530.5 228.25,-530.5 228.25,-497 368,-497 368,-530.5"/>
<text text-anchor="start" x="236.25" y="-517" font-family="Helvetica,sans-Serif" font-size="10.00">steppable::__internals</text>
<text text-anchor="middle" x="298.12" y="-504.25" font-family="Helvetica,sans-Serif" font-size="10.00">::arithmetic::baseConvert</text>
</a>
</g>
</g>
<!-- Node10&#45;&gt;Node11 -->
<g id="edge13_Node000010_Node000011" class="edge">
<title>Node10&#45;&gt;Node11</title>
<g id="a_edge13_Node000010_Node000011"><a xlink:title=" ">
<path fill="none" stroke="#63b8ff" d="M408.51,-513.75C395.23,-513.75 381.41,-513.75 368.23,-513.75"/>
<polygon fill="#63b8ff" stroke="#63b8ff" points="408.5,-517.25 418.5,-513.75 408.5,-510.25 408.5,-517.25"/>
</a>
</g>
</g>
<!-- Node12 -->
<g id="Node000012" class="node">
<title>Node12</title>
<g id="a_Node000012"><a xlink:href="namespacesteppable_1_1____internals_1_1arithmetic.html#ac9102075acd398b3bdf388f6cc2ef978" target="_top" xlink:title=" ">
<polygon fill="white" stroke="#666666" points="384.5,-356.5 211.75,-356.5 211.75,-323 384.5,-323 384.5,-356.5"/>
<text text-anchor="start" x="219.75" y="-343" font-family="Helvetica,sans-Serif" font-size="10.00">steppable::__internals</text>
<text text-anchor="middle" x="298.12" y="-330.25" font-family="Helvetica,sans-Serif" font-size="10.00">::arithmetic::divideWithQuotient</text>
</a>
</g>
</g>
<!-- Node10&#45;&gt;Node12 -->
<g id="edge14_Node000010_Node000012" class="edge">
<title>Node10&#45;&gt;Node12</title>
<g id="a_edge14_Node000010_Node000012"><a xlink:title=" ">
<path fill="none" stroke="#63b8ff" d="M470.27,-486.41C455.68,-453.1 426.61,-397.37 384.5,-365.75 380.04,-362.4 375.15,-359.48 370.03,-356.93"/>
<polygon fill="#63b8ff" stroke="#63b8ff" points="466.95,-487.54 474.08,-495.38 473.4,-484.81 466.95,-487.54"/>
</a>
</g>
</g>
<!-- Node14 -->
<g id="Node000014" class="node">
<title>Node14</title>
<g id="a_Node000014"><a xlink:href="classsteppable_1_1Number.html#aebdaf5d342a2a897793556bd390bc184" target="_top" xlink:title="Divides two numbers.">
<polygon fill="white" stroke="#666666" points="355.62,-478.5 240.62,-478.5 240.62,-445 355.62,-445 355.62,-478.5"/>
<text text-anchor="start" x="248.62" y="-465" font-family="Helvetica,sans-Serif" font-size="10.00">steppable::Number::</text>
<text text-anchor="middle" x="298.12" y="-452.25" font-family="Helvetica,sans-Serif" font-size="10.00">operator/</text>
</a>
</g>
</g>
<!-- Node10&#45;&gt;Node14 -->
<g id="edge17_Node000010_Node000014" class="edge">
<title>Node10&#45;&gt;Node14</title>
<g id="a_edge17_Node000010_Node000014"><a xlink:title=" ">
<path fill="none" stroke="#63b8ff" d="M409.81,-493.37C391.93,-488.27 372.99,-482.85 355.92,-477.98"/>
<polygon fill="#63b8ff" stroke="#63b8ff" points="408.74,-496.71 419.32,-496.09 410.67,-489.98 408.74,-496.71"/>
</a>
</g>
</g>
<!-- Node10&#45;&gt;Node15 -->
<g id="edge18_Node000010_Node000015" class="edge">
<title>Node10&#45;&gt;Node15</title>
<g id="a_edge18_Node000010_Node000015"><a xlink:title=" ">
<path fill="none" stroke="#63b8ff" d="M436.18,-535.98C404.62,-551.58 363.02,-572.15 333.97,-586.52"/>
<polygon fill="#63b8ff" stroke="#63b8ff" points="437.69,-539.13 445.11,-531.56 434.59,-532.86 437.69,-539.13"/>
</a>
</g>
</g>
<!-- Node18 -->
<g id="Node000018" class="node">
<title>Node18</title>
<g id="a_Node000018"><a xlink:href="classsteppable_1_1Fraction.html#a9cf64d847c268d9334775c572ef75dfa" target="_top" xlink:title="Simplifies a fraction. This function simplifies the fraction by dividing the top and bottom component...">
<polygon fill="white" stroke="#666666" points="352.62,-267.5 243.62,-267.5 243.62,-234 352.62,-234 352.62,-267.5"/>
<text text-anchor="start" x="251.62" y="-254" font-family="Helvetica,sans-Serif" font-size="10.00">steppable::Fraction</text>
<text text-anchor="middle" x="298.12" y="-241.25" font-family="Helvetica,sans-Serif" font-size="10.00">::simplify</text>
</a>
</g>
</g>
<!-- Node10&#45;&gt;Node18 -->
<g id="edge23_Node000010_Node000018" class="edge">
<title>Node10&#45;&gt;Node18</title>
<g id="a_edge23_Node000010_Node000018"><a xlink:title=" ">
<path fill="none" stroke="#63b8ff" d="M472.49,-485.87C458.78,-444.86 428.97,-367.35 384.5,-313.75 369.09,-295.18 347.1,-279.12 329.29,-267.86"/>
<polygon fill="#63b8ff" stroke="#63b8ff" points="469.11,-486.79 475.53,-495.21 475.76,-484.62 469.11,-486.79"/>
</a>
</g>
</g>
<!-- Node12&#45;&gt;Node2 -->
<g id="edge15_Node000012_Node000002" class="edge">
<title>Node12&#45;&gt;Node2</title>
<g id="a_edge15_Node000012_Node000002"><a xlink:title=" ">
<path fill="none" stroke="#63b8ff" d="M396.22,-340.15C471.37,-340.43 578.03,-340.75 671.5,-340.75 1182.38,-340.75 1182.38,-340.75 1182.38,-340.75 1277.56,-340.75 1387.68,-331.28 1454.39,-324.5"/>
<polygon fill="#63b8ff" stroke="#63b8ff" points="396.43,-336.65 386.42,-340.12 396.41,-343.65 396.43,-336.65"/>
</a>
</g>
</g>
<!-- Node13 -->
<g id="Node000013" class="node">
<title>Node13</title>
<g id="a_Node000013"><a xlink:href="classsteppable_1_1Number.html#a719a8a93fcfe91b30c38ba0830d6de50" target="_top" xlink:title="Calculates the remainder of two numbers. (Modulus)">
<polygon fill="white" stroke="#666666" points="145.38,-501.5 30.38,-501.5 30.38,-468 145.38,-468 145.38,-501.5"/>
<text text-anchor="start" x="38.38" y="-488" font-family="Helvetica,sans-Serif" font-size="10.00">steppable::Number::</text>
<text text-anchor="middle" x="87.88" y="-475.25" font-family="Helvetica,sans-Serif" font-size="10.00">operator%</text>
</a>
</g>
</g>
<!-- Node12&#45;&gt;Node13 -->
<g id="edge16_Node000012_Node000013" class="edge">
<title>Node12&#45;&gt;Node13</title>
<g id="a_edge16_Node000012_Node000013"><a xlink:title=" ">
<path fill="none" stroke="#63b8ff" d="M214.55,-363.3C213.59,-364.09 212.66,-364.91 211.75,-365.75 179.28,-395.91 208.3,-428.66 175.75,-458.75 167.31,-466.55 156.62,-472.02 145.65,-475.85"/>
<polygon fill="#63b8ff" stroke="#63b8ff" points="216.32,-366.34 222.52,-357.75 212.32,-360.59 216.32,-366.34"/>
</a>
</g>
</g>
<!-- Node15&#45;&gt;Node16 -->
<g id="edge19_Node000015_Node000016" class="edge">
<title>Node15&#45;&gt;Node16</title>
<g id="a_edge19_Node000015_Node000016"><a xlink:title=" ">
<path fill="none" stroke="#63b8ff" d="M222.01,-595.81C207.1,-594.24 191.32,-592.57 176.04,-590.96"/>
<polygon fill="#63b8ff" stroke="#63b8ff" points="221.41,-599.27 231.72,-596.84 222.15,-592.31 221.41,-599.27"/>
</a>
</g>
</g>
<!-- Node15&#45;&gt;Node17 -->
<g id="edge20_Node000015_Node000017" class="edge">
<title>Node15&#45;&gt;Node17</title>
<g id="a_edge20_Node000015_Node000017"><a xlink:title=" ">
<path fill="none" stroke="#63b8ff" d="M269.74,-628.34C226.84,-666.87 144.84,-740.5 107.83,-773.73"/>
<polygon fill="#63b8ff" stroke="#63b8ff" points="272.05,-630.97 277.15,-621.69 267.37,-625.76 272.05,-630.97"/>
</a>
</g>
</g>
<!-- Node17&#45;&gt;Node3 -->
<g id="edge21_Node000017_Node000003" class="edge">
<title>Node17&#45;&gt;Node3</title>
<g id="a_edge21_Node000017_Node000003"><a xlink:title=" ">
<path fill="none" stroke="#63b8ff" d="M161.13,-806.62C177.69,-809.77 195.27,-812.72 211.75,-814.75 330.74,-829.39 361.24,-828.75 481.12,-828.75 1023.12,-828.75 1023.12,-828.75 1023.12,-828.75 1230.82,-828.75 1324.29,-503.54 1343.88,-424.78"/>
<polygon fill="#63b8ff" stroke="#63b8ff" points="161.82,-803.19 151.34,-804.71 160.48,-810.06 161.82,-803.19"/>
</a>
</g>
</g>
<!-- Node19 -->
<g id="Node000019" class="node">
<title>Node19</title>
<g id="a_Node000019"><a xlink:href="classsteppable_1_1Fraction.html#a4647e3f3062426a91d1ef7cdbde23bb6" target="_top" xlink:title="Initialized a fraction from a number.">
<polygon fill="white" stroke="#666666" points="142.38,-449.5 33.38,-449.5 33.38,-416 142.38,-416 142.38,-449.5"/>
<text text-anchor="start" x="41.38" y="-436" font-family="Helvetica,sans-Serif" font-size="10.00">steppable::Fraction</text>
<text text-anchor="middle" x="87.88" y="-423.25" font-family="Helvetica,sans-Serif" font-size="10.00">::Fraction</text>
</a>
</g>
</g>
<!-- Node18&#45;&gt;Node19 -->
<g id="edge24_Node000018_Node000019" class="edge">
<title>Node18&#45;&gt;Node19</title>
<g id="a_edge24_Node000018_Node000019"><a xlink:title=" ">
<path fill="none" stroke="#63b8ff" d="M256.11,-274.06C240.54,-284.55 223.69,-298.11 211.75,-313.75 184.85,-348.97 208.3,-376.66 175.75,-406.75 166.5,-415.3 154.55,-421.04 142.49,-424.9"/>
<polygon fill="#63b8ff" stroke="#63b8ff" points="257.82,-277.13 264.32,-268.76 254.02,-271.25 257.82,-277.13"/>
</a>
</g>
</g>
<!-- Node20 -->
<g id="Node000020" class="node">
<title>Node20</title>
<g id="a_Node000020"><a xlink:href="classsteppable_1_1Fraction.html#a1fa38ab4cede78e19fa478242f6e5b46" target="_top" xlink:title="Initializes a fraction with a specified top component and bottom component.">
<polygon fill="white" stroke="#666666" points="142.38,-397.5 33.38,-397.5 33.38,-364 142.38,-364 142.38,-397.5"/>
<text text-anchor="start" x="41.38" y="-384" font-family="Helvetica,sans-Serif" font-size="10.00">steppable::Fraction</text>
<text text-anchor="middle" x="87.88" y="-371.25" font-family="Helvetica,sans-Serif" font-size="10.00">::Fraction</text>
</a>
</g>
</g>
<!-- Node18&#45;&gt;Node20 -->
<g id="edge25_Node000018_Node000020" class="edge">
<title>Node18&#45;&gt;Node20</title>
<g id="a_edge25_Node000018_Node000020"><a xlink:title=" ">
<path fill="none" stroke="#63b8ff" d="M261.96,-274.13C246.01,-285.37 227.29,-299.48 211.75,-313.75 193.89,-330.15 196.16,-341.65 175.75,-354.75 165.81,-361.13 154.24,-366 142.85,-369.7"/>
<polygon fill="#63b8ff" stroke="#63b8ff" points="263.52,-277.31 269.74,-268.73 259.53,-271.56 263.52,-277.31"/>
</a>
</g>
</g>
<!-- Node21 -->
<g id="Node000021" class="node">
<title>Node21</title>
<g id="a_Node000021"><a xlink:href="classsteppable_1_1Fraction.html#a21eef8107e9cd1e590f7595c4ecbe147" target="_top" xlink:title="Multiplies two fractions together and stores the result in the current one. This function does it by ...">
<polygon fill="white" stroke="#666666" points="142.38,-345.5 33.38,-345.5 33.38,-312 142.38,-312 142.38,-345.5"/>
<text text-anchor="start" x="41.38" y="-332" font-family="Helvetica,sans-Serif" font-size="10.00">steppable::Fraction</text>
<text text-anchor="middle" x="87.88" y="-319.25" font-family="Helvetica,sans-Serif" font-size="10.00">::operator*=</text>
</a>
</g>
</g>
<!-- Node18&#45;&gt;Node21 -->
<g id="edge26_Node000018_Node000021" class="edge">
<title>Node18&#45;&gt;Node21</title>
<g id="a_edge26_Node000018_Node000021"><a xlink:title=" ">
<path fill="none" stroke="#63b8ff" d="M249.62,-272.59C227.42,-282.41 200.48,-293.79 175.75,-302.75 165.09,-306.61 153.56,-310.36 142.48,-313.75"/>
<polygon fill="#63b8ff" stroke="#63b8ff" points="251.02,-275.8 258.73,-268.53 248.17,-269.41 251.02,-275.8"/>
</a>
</g>
</g>
<!-- Node22 -->
<g id="Node000022" class="node">
<title>Node22</title>
<g id="a_Node000022"><a xlink:href="classsteppable_1_1Fraction.html#ab10a5f43f6e60253ab6f4a097c73cf6e" target="_top" xlink:title="Adds two fractions together and stores the result in the current one. This function does it by doing ...">
<polygon fill="white" stroke="#666666" points="142.38,-293.5 33.38,-293.5 33.38,-260 142.38,-260 142.38,-293.5"/>
<text text-anchor="start" x="41.38" y="-280" font-family="Helvetica,sans-Serif" font-size="10.00">steppable::Fraction</text>
<text text-anchor="middle" x="87.88" y="-267.25" font-family="Helvetica,sans-Serif" font-size="10.00">::operator+=</text>
</a>
</g>
</g>
<!-- Node18&#45;&gt;Node22 -->
<g id="edge27_Node000018_Node000022" class="edge">
<title>Node18&#45;&gt;Node22</title>
<g id="a_edge27_Node000018_Node000022"><a xlink:title=" ">
<path fill="none" stroke="#63b8ff" d="M232.04,-258.88C203.27,-262.47 169.86,-266.64 142.55,-270.05"/>
<polygon fill="#63b8ff" stroke="#63b8ff" points="232.23,-262.38 241.72,-257.67 231.37,-255.43 232.23,-262.38"/>
</a>
</g>
</g>
<!-- Node23 -->
<g id="Node000023" class="node">
<title>Node23</title>
<g id="a_Node000023"><a xlink:href="classsteppable_1_1Fraction.html#aad3d96fbba7e7a0fa36c3f69f0463b8b" target="_top" xlink:title="Subtracts a fraction from another fraction and stores the result in the current one....">
<polygon fill="white" stroke="#666666" points="142.38,-241.5 33.38,-241.5 33.38,-208 142.38,-208 142.38,-241.5"/>
<text text-anchor="start" x="41.38" y="-228" font-family="Helvetica,sans-Serif" font-size="10.00">steppable::Fraction</text>
<text text-anchor="middle" x="87.88" y="-215.25" font-family="Helvetica,sans-Serif" font-size="10.00">::operator&#45;=</text>
</a>
</g>
</g>
<!-- Node18&#45;&gt;Node23 -->
<g id="edge28_Node000018_Node000023" class="edge">
<title>Node18&#45;&gt;Node23</title>
<g id="a_edge28_Node000018_Node000023"><a xlink:title=" ">
<path fill="none" stroke="#63b8ff" d="M232.04,-242.62C203.27,-239.03 169.86,-234.86 142.55,-231.45"/>
<polygon fill="#63b8ff" stroke="#63b8ff" points="231.37,-246.07 241.72,-243.83 232.23,-239.12 231.37,-246.07"/>
</a>
</g>
</g>
<!-- Node24 -->
<g id="Node000024" class="node">
<title>Node24</title>
<g id="a_Node000024"><a xlink:href="classsteppable_1_1Fraction.html#a86913160c5f596b74be3007bd16bda6b" target="_top" xlink:title="Divides a fraction by abother fraction and stores the result in the current one. This function does i...">
<polygon fill="white" stroke="#666666" points="142.38,-189.5 33.38,-189.5 33.38,-156 142.38,-156 142.38,-189.5"/>
<text text-anchor="start" x="41.38" y="-176" font-family="Helvetica,sans-Serif" font-size="10.00">steppable::Fraction</text>
<text text-anchor="middle" x="87.88" y="-163.25" font-family="Helvetica,sans-Serif" font-size="10.00">::operator/=</text>
</a>
</g>
</g>
<!-- Node18&#45;&gt;Node24 -->
<g id="edge29_Node000018_Node000024" class="edge">
<title>Node18&#45;&gt;Node24</title>
<g id="a_edge29_Node000018_Node000024"><a xlink:title=" ">
<path fill="none" stroke="#63b8ff" d="M249.62,-228.91C227.42,-219.09 200.48,-207.71 175.75,-198.75 165.09,-194.89 153.56,-191.14 142.48,-187.75"/>
<polygon fill="#63b8ff" stroke="#63b8ff" points="248.17,-232.09 258.73,-232.97 251.02,-225.7 248.17,-232.09"/>
</a>
</g>
</g>
<!-- Node25 -->
<g id="Node000025" class="node">
<title>Node25</title>
<g id="a_Node000025"><a xlink:href="classsteppable_1_1Fraction.html#ac0a3d392ac70f42f74392fe08c1ab8be" target="_top" xlink:title="Raises the fraction to a power and stores the result in the current one.">
<polygon fill="white" stroke="#666666" points="142.38,-137.5 33.38,-137.5 33.38,-104 142.38,-104 142.38,-137.5"/>
<text text-anchor="start" x="41.38" y="-124" font-family="Helvetica,sans-Serif" font-size="10.00">steppable::Fraction</text>
<text text-anchor="middle" x="87.88" y="-111.25" font-family="Helvetica,sans-Serif" font-size="10.00">::operator^=</text>
</a>
</g>
</g>
<!-- Node18&#45;&gt;Node25 -->
<g id="edge30_Node000018_Node000025" class="edge">
<title>Node18&#45;&gt;Node25</title>
<g id="a_edge30_Node000018_Node000025"><a xlink:title=" ">
<path fill="none" stroke="#63b8ff" d="M274.15,-225.77C251.28,-202.29 214.15,-167.71 175.75,-146.75 165.52,-141.17 153.95,-136.64 142.66,-133.03"/>
<polygon fill="#63b8ff" stroke="#63b8ff" points="271.41,-227.98 280.85,-232.78 276.47,-223.14 271.41,-227.98"/>
</a>
</g>
</g>
<!-- Node26 -->
<g id="Node000026" class="node">
<title>Node26</title>
<g id="a_Node000026"><a xlink:href="classsteppable_1_1Fraction.html#a939fea669a7f630672f7215e77f335b6" target="_top" xlink:title="Returns the fraction as a string. The string is formatted as &quot;top/bottom&quot;, and it will automatically ...">
<polygon fill="white" stroke="#666666" points="142.38,-85.5 33.38,-85.5 33.38,-52 142.38,-52 142.38,-85.5"/>
<text text-anchor="start" x="41.38" y="-72" font-family="Helvetica,sans-Serif" font-size="10.00">steppable::Fraction</text>
<text text-anchor="middle" x="87.88" y="-59.25" font-family="Helvetica,sans-Serif" font-size="10.00">::present</text>
</a>
</g>
</g>
<!-- Node18&#45;&gt;Node26 -->
<g id="edge31_Node000018_Node000026" class="edge">
<title>Node18&#45;&gt;Node26</title>
<g id="a_edge31_Node000018_Node000026"><a xlink:title=" ">
<path fill="none" stroke="#63b8ff" d="M283.21,-223.91C263.79,-189.05 225.28,-128.65 175.75,-94.75 165.88,-87.99 154.21,-82.96 142.68,-79.21"/>
<polygon fill="#63b8ff" stroke="#63b8ff" points="280.04,-225.41 287.9,-232.52 286.19,-222.07 280.04,-225.41"/>
</a>
</g>
</g>
<!-- Node27 -->
<g id="Node000027" class="node">
<title>Node27</title>
<g id="a_Node000027"><a xlink:href="classsteppable_1_1Fraction.html#a2d20a7ae3e6a1fd18b06c86db601e6e4" target="_top" xlink:title="Converts a fraction to its reciprocal. This function converts the fraction to its reciprocal.">
<polygon fill="white" stroke="#666666" points="142.38,-33.5 33.38,-33.5 33.38,0 142.38,0 142.38,-33.5"/>
<text text-anchor="start" x="41.38" y="-20" font-family="Helvetica,sans-Serif" font-size="10.00">steppable::Fraction</text>
<text text-anchor="middle" x="87.88" y="-7.25" font-family="Helvetica,sans-Serif" font-size="10.00">::reciprocal</text>
</a>
</g>
</g>
<!-- Node18&#45;&gt;Node27 -->
<g id="edge32_Node000018_Node000027" class="edge">
<title>Node18&#45;&gt;Node27</title>
<g id="a_edge32_Node000018_Node000027"><a xlink:title=" ">
<path fill="none" stroke="#63b8ff" d="M288.41,-222.93C273,-178.25 236.66,-90.67 175.75,-42.75 166.1,-35.16 154.26,-29.78 142.47,-25.97"/>
<polygon fill="#63b8ff" stroke="#63b8ff" points="285,-223.75 291.49,-232.13 291.64,-221.54 285,-223.75"/>
</a>
</g>
</g>
<!-- Node31&#45;&gt;Node18 -->
<g id="edge42_Node000031_Node000018" class="edge">
<title>Node31&#45;&gt;Node18</title>
<g id="a_edge42_Node000031_Node000018"><a xlink:title=" ">
<path fill="none" stroke="#63b8ff" d="M1108.21,-250.75C1044.06,-250.75 947.72,-250.75 863.88,-250.75 863.88,-250.75 863.88,-250.75 671.5,-250.75 558.2,-250.75 425.52,-250.75 353.08,-250.75"/>
<polygon fill="#63b8ff" stroke="#63b8ff" points="1107.89,-254.25 1117.89,-250.75 1107.89,-247.25 1107.89,-254.25"/>
</a>
</g>
</g>
<!-- Node31&#45;&gt;Node31 -->
<g id="edge41_Node000031_Node000031" class="edge">
<title>Node31&#45;&gt;Node31</title>
<g id="a_edge41_Node000031_Node000031"><a xlink:title=" ">
<path fill="none" stroke="#63b8ff" d="M1208.11,-278.89C1203.76,-282.85 1194.85,-285.5 1181.38,-285.5 1157.43,-285.5 1147.88,-277.12 1152.75,-267.91"/>
<polygon fill="#63b8ff" stroke="#63b8ff" points="1211.5,-279.85 1209.75,-269.41 1204.6,-278.67 1211.5,-279.85"/>
</a>
</g>
</g>
</g>
</svg>

<g id="navigator" transform="translate(0 0)" fill="#404254">
  <rect fill="#f2f5e9" fill-opacity="0.5" stroke="#606060" stroke-width=".5" x="0" y="0" width="60" height="60"/>
  <use id="zoomplus" xlink:href="#zoomPlus" x="17" y="9" onmousedown="handleZoom(evt,'in')"/>
  <use id="zoomminus" xlink:href="#zoomMin" x="42" y="9" onmousedown="handleZoom(evt,'out')"/>
  <use id="reset" xlink:href="#resetDef" x="30" y="36" onmousedown="handleReset()"/>
   <use id="arrowup" xlink:href="#arrowUp" x="0" y="0" onmousedown="handlePan(0,-1)"/>
  <use id="arrowright" xlink:href="#arrowRight" x="0" y="0" onmousedown="handlePan(1,0)"/>
  <use id="arrowdown" xlink:href="#arrowDown" x="0" y="0" onmousedown="handlePan(0,1)"/>
  <use id="arrowleft" xlink:href="#arrowLeft" x="0" y="0" onmousedown="handlePan(-1,0)"/>
</g>
<svg viewBox="0 0 15 15" width="100%" height="30px" preserveAspectRatio="xMaxYMin meet">
 <g id="arrow_out" transform="scale(0.3 0.3)">
  <a xlink:href="namespacesteppable_1_1____internals_1_1arithmetic_a37bfff2d022f3dd5e5a15e800ecfd5d6_icgraph_org.svg" target="_base">
   <rect id="button" ry="5" rx="5" y="6" x="6" height="38" width="38"
        fill="#f2f5e9" fill-opacity="0.5" stroke="#606060" stroke-width="1.0"/>
   <path id="arrow"
     d="M 11.500037,31.436501 C 11.940474,20.09759 22.043105,11.32322 32.158766,21.979434 L 37.068811,17.246167 C 37.068811,17.246167 37.088388,32 37.088388,32 L 22.160133,31.978069 C 22.160133,31.978069 26.997745,27.140456 26.997745,27.140456 C 18.528582,18.264221 13.291696,25.230495 11.500037,31.436501 z"
     style="fill:#404040;"/>
  </a>
 </g>
</svg>

<style type='text/css'>
<![CDATA[
[data-mouse-over-selected='false'] { opacity: 0.7; }
[data-mouse-over-selected='true']  { opacity: 1.0; }
]]>
</style>
<script type="application/ecmascript"><![CDATA[
document.addEventListener('DOMContentLoaded', (event) => {
  highlightEdges();
  highlightAdjacentNodes();
});
]]></script>
</svg>
