<?xml version="1.0" encoding="UTF-8" standalone="no"?>
<!DOCTYPE svg PUBLIC "-//W3C//DTD SVG 1.1//EN"
 "http://www.w3.org/Graphics/SVG/1.1/DTD/svg11.dtd">
<!-- Generated by graphviz version 2.43.0 (0)
 -->
<!-- Title: steppable::__internals::arithmetic::subtract Pages: 1 -->
<!--zoomable 555 -->
<svg id="main" version="1.1" xmlns="http://www.w3.org/2000/svg" xmlns:xlink="http://www.w3.org/1999/xlink" xml:space="preserve" onload="init(evt)">
<style type="text/css"><![CDATA[
.edge:hover path { stroke: red; }
.edge:hover polygon { stroke: red; fill: red; }
]]></style>
<script type="text/javascript"><![CDATA[
var edges = document.getElementsByTagName('g');
if (edges && edges.length) {
  for (var i=0;i<edges.length;i++) {
    if (edges[i].id.substr(0,4)=='edge') {
      edges[i].setAttribute('class','edge');
    }
  }
}
]]></script>
        <defs>
                <circle id="rim" cx="0" cy="0" r="7"/>
                <circle id="rim2" cx="0" cy="0" r="3.5"/>
                <g id="zoomPlus">
                        <use xlink:href="#rim" fill="#404040">
                                <set attributeName="fill" to="#808080" begin="zoomplus.mouseover" end="zoomplus.mouseout"/>
                        </use>
                        <path d="M-4,0h8M0,-4v8" fill="none" stroke="white" stroke-width="1.5" pointer-events="none"/>
                </g>
                <g id="zoomMin">
                        <use xlink:href="#rim" fill="#404040">
                                <set attributeName="fill" to="#808080" begin="zoomminus.mouseover" end="zoomminus.mouseout"/>
                        </use>
                        <path d="M-4,0h8" fill="none" stroke="white" stroke-width="1.5" pointer-events="none"/>
                </g>
                <g id="dirArrow">
                        <path fill="none" stroke="white" stroke-width="1.5" d="M0,-3.0v7 M-2.5,-0.5L0,-3.0L2.5,-0.5"/>
                </g>
               <g id="resetDef">
                       <use xlink:href="#rim2" fill="#404040">
                               <set attributeName="fill" to="#808080" begin="reset.mouseover" end="reset.mouseout"/>
                       </use>
               </g>
        </defs>

<script type="text/javascript">
var viewWidth = 1256;
var viewHeight = 555;
var sectionId = 'dynsection-30';
</script>
<script xlink:href="svgpan.js"/>
<svg id="graph" class="graph">
<g id="viewport">
<title>steppable::__internals::arithmetic::subtract</title>
<!-- Node1 -->
<g id="node1" class="node">
<title>Node1</title>
<g id="a_node1"><a xlink:title="Subtracts one string representation of a number from another string representation of a number.">
<polygon fill="#bfbfbf" stroke="black" points="0,-253 0,-283 124,-283 124,-253 0,-253"/>
<text text-anchor="start" x="8" y="-271" font-family="Helvetica,sans-Serif" font-size="10.00">steppable::__internals</text>
<text text-anchor="middle" x="62" y="-260" font-family="Helvetica,sans-Serif" font-size="10.00">::arithmetic::subtract</text>
</a>
</g>
</g>
<!-- Node2 -->
<g id="node2" class="node">
<title>Node2</title>
<g id="a_node2"><a xlink:href="namespacesteppable_1_1____internals_1_1arithmetic.html#a1deb38d5027df01a66b6c3efd57aedca" target="_top" xlink:title="Adds two string representations of numbers, and performs with the column method.">
<polygon fill="none" stroke="black" points="160,-297 160,-327 284,-327 284,-297 160,-297"/>
<text text-anchor="start" x="168" y="-315" font-family="Helvetica,sans-Serif" font-size="10.00">steppable::__internals</text>
<text text-anchor="middle" x="222" y="-304" font-family="Helvetica,sans-Serif" font-size="10.00">::arithmetic::add</text>
</a>
</g>
</g>
<!-- Node1&#45;&gt;Node2 -->
<g id="edge1" class="edge">
<title>Node1&#45;&gt;Node2</title>
<path fill="none" stroke="midnightblue" d="M124.09,-278.42C141.78,-283.03 160.73,-288.47 177.15,-293.67"/>
<polygon fill="midnightblue" stroke="midnightblue" points="176.41,-297.11 187,-296.87 178.57,-290.45 176.41,-297.11"/>
</g>
<!-- Node3 -->
<g id="node3" class="node">
<title>Node3</title>
<g id="a_node3"><a xlink:href="namespacesteppable_1_1____internals_1_1numUtils.html#afce13d9dd949a08a7e75b27246a276b2" target="_top" xlink:title="Checks if a given string is a zero string.">
<polygon fill="none" stroke="black" points="1116,-272 1116,-302 1248,-302 1248,-272 1116,-272"/>
<text text-anchor="start" x="1124" y="-290" font-family="Helvetica,sans-Serif" font-size="10.00">steppable::__internals</text>
<text text-anchor="middle" x="1182" y="-279" font-family="Helvetica,sans-Serif" font-size="10.00">::numUtils::isZeroString</text>
</a>
</g>
</g>
<!-- Node1&#45;&gt;Node3 -->
<g id="edge27" class="edge">
<title>Node1&#45;&gt;Node3</title>
<path fill="none" stroke="midnightblue" d="M68.69,-252.84C80.95,-221.96 112.66,-151.14 160,-109 246.44,-32.04 280.76,0 396.5,0 396.5,0 396.5,0 798.5,0 973.7,0 1119.97,-195.02 1165.95,-263.54"/>
<polygon fill="midnightblue" stroke="midnightblue" points="1163.1,-265.57 1171.53,-271.97 1168.94,-261.7 1163.1,-265.57"/>
</g>
<!-- Node10 -->
<g id="node10" class="node">
<title>Node10</title>
<g id="a_node10"><a xlink:href="namespacesteppable_1_1____internals_1_1utils_1_1formats.html#a588a3cdce1fef100d63d64816a37981a" target="_top" xlink:title="Set the text format to reverse.">
<polygon fill="none" stroke="black" points="332,-516 332,-546 463,-546 463,-516 332,-516"/>
<text text-anchor="start" x="340" y="-534" font-family="Helvetica,sans-Serif" font-size="10.00">steppable::__internals</text>
<text text-anchor="middle" x="397.5" y="-523" font-family="Helvetica,sans-Serif" font-size="10.00">::utils::formats::reverse</text>
</a>
</g>
</g>
<!-- Node1&#45;&gt;Node10 -->
<g id="edge32" class="edge">
<title>Node1&#45;&gt;Node10</title>
<path fill="none" stroke="midnightblue" d="M76,-283.12C111.41,-323.51 214.05,-435.3 320,-501 326.33,-504.93 333.27,-508.5 340.3,-511.7"/>
<polygon fill="midnightblue" stroke="midnightblue" points="339.32,-515.09 349.89,-515.84 342.09,-508.67 339.32,-515.09"/>
</g>
<!-- Node12 -->
<g id="node12" class="node">
<title>Node12</title>
<g id="a_node12"><a xlink:href="namespacesteppable_1_1____internals_1_1numUtils.html#ad13b8651b0d069d596f7e25f78a8b4ed" target="_top" xlink:title=" ">
<polygon fill="none" stroke="black" points="331,-297 331,-327 464,-327 464,-297 331,-297"/>
<text text-anchor="start" x="339" y="-315" font-family="Helvetica,sans-Serif" font-size="10.00">steppable::__internals</text>
<text text-anchor="middle" x="397.5" y="-304" font-family="Helvetica,sans-Serif" font-size="10.00">::numUtils::splitNumber</text>
</a>
</g>
</g>
<!-- Node1&#45;&gt;Node12 -->
<g id="edge33" class="edge">
<title>Node1&#45;&gt;Node12</title>
<path fill="none" stroke="midnightblue" d="M124.23,-271.07C168.74,-273.84 230.33,-278.77 284,-287 297.61,-289.09 312.02,-291.86 325.84,-294.79"/>
<polygon fill="midnightblue" stroke="midnightblue" points="325.25,-298.25 335.77,-296.95 326.74,-291.41 325.25,-298.25"/>
</g>
<!-- Node16 -->
<g id="node16" class="node">
<title>Node16</title>
<g id="a_node16"><a xlink:href="namespacesteppable_1_1____internals_1_1arithmetic.html#a5e20e50f3da461a8f9d50b14afd68ea8" target="_top" xlink:title="Compares two string representations of numbers.">
<polygon fill="none" stroke="black" points="160,-193 160,-223 284,-223 284,-193 160,-193"/>
<text text-anchor="start" x="168" y="-211" font-family="Helvetica,sans-Serif" font-size="10.00">steppable::__internals</text>
<text text-anchor="middle" x="222" y="-200" font-family="Helvetica,sans-Serif" font-size="10.00">::arithmetic::compare</text>
</a>
</g>
</g>
<!-- Node1&#45;&gt;Node16 -->
<g id="edge21" class="edge">
<title>Node1&#45;&gt;Node16</title>
<path fill="none" stroke="midnightblue" d="M102.87,-252.86C123.81,-244.91 149.67,-235.09 171.84,-226.67"/>
<polygon fill="midnightblue" stroke="midnightblue" points="173.31,-229.85 181.42,-223.03 170.83,-223.31 173.31,-229.85"/>
</g>
<!-- Node20 -->
<g id="node20" class="node">
<title>Node20</title>
<g id="a_node20"><a xlink:href="subtractReport_8cpp.html#ad21f3d209885b1c419ff73800bb3b33b" target="_top" xlink:title="Reports a subtraction operation to the user.">
<polygon fill="none" stroke="black" points="354.5,-68.5 354.5,-87.5 440.5,-87.5 440.5,-68.5 354.5,-68.5"/>
<text text-anchor="middle" x="397.5" y="-75.5" font-family="Helvetica,sans-Serif" font-size="10.00">reportSubtract</text>
</a>
</g>
</g>
<!-- Node1&#45;&gt;Node20 -->
<g id="edge28" class="edge">
<title>Node1&#45;&gt;Node20</title>
<path fill="none" stroke="midnightblue" d="M78.22,-252.69C96.59,-234.7 128.91,-204.57 160,-183 226.34,-136.99 244.68,-126.07 320,-97 327.72,-94.02 336.05,-91.39 344.28,-89.11"/>
<polygon fill="midnightblue" stroke="midnightblue" points="345.44,-92.43 354.23,-86.5 343.67,-85.65 345.44,-92.43"/>
</g>
<!-- Node2&#45;&gt;Node1 -->
<g id="edge20" class="edge">
<title>Node2&#45;&gt;Node1</title>
<path fill="none" stroke="midnightblue" d="M159.75,-301.54C142.06,-296.92 123.13,-291.49 106.74,-286.29"/>
<polygon fill="midnightblue" stroke="midnightblue" points="107.49,-282.86 96.89,-283.1 105.32,-289.51 107.49,-282.86"/>
</g>
<!-- Node2&#45;&gt;Node3 -->
<g id="edge2" class="edge">
<title>Node2&#45;&gt;Node3</title>
<path fill="none" stroke="midnightblue" d="M240.72,-327.22C292.18,-369.8 447.49,-487 598,-487 598,-487 598,-487 798.5,-487 950.63,-487 1102.03,-361.22 1158.18,-309.16"/>
<polygon fill="midnightblue" stroke="midnightblue" points="1160.87,-311.43 1165.76,-302.03 1156.08,-306.33 1160.87,-311.43"/>
</g>
<!-- Node4 -->
<g id="node4" class="node">
<title>Node4</title>
<g id="a_node4"><a xlink:href="addReport_8cpp.html#ad77bd53c675044525fecd7273407c4a6" target="_top" xlink:title="Reports the sum of two number strings.">
<polygon fill="none" stroke="black" points="365,-220.5 365,-239.5 430,-239.5 430,-220.5 365,-220.5"/>
<text text-anchor="middle" x="397.5" y="-227.5" font-family="Helvetica,sans-Serif" font-size="10.00">reportAdd</text>
</a>
</g>
</g>
<!-- Node2&#45;&gt;Node4 -->
<g id="edge3" class="edge">
<title>Node2&#45;&gt;Node4</title>
<path fill="none" stroke="midnightblue" d="M254.82,-296.96C286.92,-281.79 336.05,-258.57 367.21,-243.84"/>
<polygon fill="midnightblue" stroke="midnightblue" points="368.72,-247 376.26,-239.56 365.73,-240.67 368.72,-247"/>
</g>
<!-- Node2&#45;&gt;Node10 -->
<g id="edge11" class="edge">
<title>Node2&#45;&gt;Node10</title>
<path fill="none" stroke="midnightblue" d="M230.98,-327.1C242.71,-349.35 265.25,-392.28 284,-429 300.27,-460.86 293.59,-476.86 320,-501 324.15,-504.79 328.83,-508.12 333.78,-511.05"/>
<polygon fill="midnightblue" stroke="midnightblue" points="332.46,-514.31 342.93,-515.89 335.73,-508.12 332.46,-514.31"/>
</g>
<!-- Node2&#45;&gt;Node12 -->
<g id="edge13" class="edge">
<title>Node2&#45;&gt;Node12</title>
<path fill="none" stroke="midnightblue" d="M284.17,-312C295.98,-312 308.49,-312 320.71,-312"/>
<polygon fill="midnightblue" stroke="midnightblue" points="320.88,-315.5 330.88,-312 320.88,-308.5 320.88,-315.5"/>
</g>
<!-- Node4&#45;&gt;Node3 -->
<g id="edge4" class="edge">
<title>Node4&#45;&gt;Node3</title>
<path fill="none" stroke="midnightblue" d="M430.12,-227.48C444.84,-225.03 461.94,-220.27 475,-211 498.82,-194.09 485.3,-169.89 511,-156 579.81,-118.8 609.43,-145.89 687,-156 852.16,-177.53 1040.72,-237.92 1129.56,-268.6"/>
<polygon fill="midnightblue" stroke="midnightblue" points="1128.53,-271.95 1139.12,-271.93 1130.82,-265.34 1128.53,-271.95"/>
</g>
<!-- Node5 -->
<g id="node5" class="node">
<title>Node5</title>
<g id="a_node5"><a xlink:href="namespacesteppable_1_1____internals_1_1symbols.html#a69d3b3d195d72c87d2e9038acc4e8143" target="_top" xlink:title="Create a subscript string from a normal string.">
<polygon fill="none" stroke="black" points="528,-78 528,-108 670,-108 670,-78 528,-78"/>
<text text-anchor="start" x="536" y="-96" font-family="Helvetica,sans-Serif" font-size="10.00">steppable::__internals</text>
<text text-anchor="middle" x="599" y="-85" font-family="Helvetica,sans-Serif" font-size="10.00">::symbols::makeSubscript</text>
</a>
</g>
</g>
<!-- Node4&#45;&gt;Node5 -->
<g id="edge5" class="edge">
<title>Node4&#45;&gt;Node5</title>
<path fill="none" stroke="midnightblue" d="M430.19,-228.65C445.29,-226.51 462.68,-221.65 475,-211 506.96,-183.36 480.29,-152.03 511,-123 515.06,-119.16 519.64,-115.81 524.52,-112.88"/>
<polygon fill="midnightblue" stroke="midnightblue" points="526.39,-115.85 533.57,-108.07 523.1,-109.67 526.39,-115.85"/>
</g>
<!-- Node7 -->
<g id="node7" class="node">
<title>Node7</title>
<g id="a_node7"><a xlink:href="namespacesteppable_1_1____internals_1_1numUtils.html#a97316c4c4bc4640d519cec4841c7b0e9" target="_top" xlink:title="Standardizes a number string.">
<polygon fill="none" stroke="black" points="514.5,-166 514.5,-196 683.5,-196 683.5,-166 514.5,-166"/>
<text text-anchor="start" x="522.5" y="-184" font-family="Helvetica,sans-Serif" font-size="10.00">steppable::__internals</text>
<text text-anchor="middle" x="599" y="-173" font-family="Helvetica,sans-Serif" font-size="10.00">::numUtils::standardizeNumber</text>
</a>
</g>
</g>
<!-- Node4&#45;&gt;Node7 -->
<g id="edge7" class="edge">
<title>Node4&#45;&gt;Node7</title>
<path fill="none" stroke="midnightblue" d="M430.11,-222.24C456,-215.88 493.62,-206.64 526.68,-198.52"/>
<polygon fill="midnightblue" stroke="midnightblue" points="527.91,-201.82 536.78,-196.04 526.24,-195.02 527.91,-201.82"/>
</g>
<!-- Node6 -->
<g id="node6" class="node">
<title>Node6</title>
<g id="a_node6"><a xlink:href="namespacesteppable_1_1____internals_1_1stringUtils.html#a5dcad3b5c7b08e6541b5ae68cdf4ef0b" target="_top" xlink:title="Converts a Unicode character to UTF&#45;8 encoding.">
<polygon fill="none" stroke="black" points="723,-78 723,-108 872,-108 872,-78 723,-78"/>
<text text-anchor="start" x="731" y="-96" font-family="Helvetica,sans-Serif" font-size="10.00">steppable::__internals</text>
<text text-anchor="middle" x="797.5" y="-85" font-family="Helvetica,sans-Serif" font-size="10.00">::stringUtils::unicodeToUtf8</text>
</a>
</g>
</g>
<!-- Node5&#45;&gt;Node6 -->
<g id="edge6" class="edge">
<title>Node5&#45;&gt;Node6</title>
<path fill="none" stroke="midnightblue" d="M670.11,-93C683.86,-93 698.41,-93 712.55,-93"/>
<polygon fill="midnightblue" stroke="midnightblue" points="712.76,-96.5 722.76,-93 712.76,-89.5 712.76,-96.5"/>
</g>
<!-- Node8 -->
<g id="node8" class="node">
<title>Node8</title>
<g id="a_node8"><a xlink:href="namespacesteppable_1_1____internals_1_1numUtils.html#a32fc3a968fc9629ed8616c539e840472" target="_top" xlink:title="Simplifies a string with non&#45;standard polarity (e.g., –1, —1, etc.).">
<polygon fill="none" stroke="black" points="723,-253 723,-283 872,-283 872,-253 723,-253"/>
<text text-anchor="start" x="731" y="-271" font-family="Helvetica,sans-Serif" font-size="10.00">steppable::__internals</text>
<text text-anchor="middle" x="797.5" y="-260" font-family="Helvetica,sans-Serif" font-size="10.00">::numUtils::simplifyPolarity</text>
</a>
</g>
</g>
<!-- Node7&#45;&gt;Node8 -->
<g id="edge8" class="edge">
<title>Node7&#45;&gt;Node8</title>
<path fill="none" stroke="midnightblue" d="M661.97,-196.01C670.5,-198.68 679.05,-201.68 687,-205 714.8,-216.61 744.3,-233.9 765.66,-247.43"/>
<polygon fill="midnightblue" stroke="midnightblue" points="763.99,-250.52 774.29,-252.98 767.77,-244.63 763.99,-250.52"/>
</g>
<!-- Node9 -->
<g id="node9" class="node">
<title>Node9</title>
<g id="a_node9"><a xlink:href="namespacesteppable_1_1____internals_1_1numUtils.html#a5e6d1c6139edf65f76c0bd6aeba82066" target="_top" xlink:title="Simplifies a string that represents a number with non&#45;standard polarity.">
<polygon fill="none" stroke="black" points="908,-272 908,-302 1080,-302 1080,-272 908,-272"/>
<text text-anchor="start" x="916" y="-290" font-family="Helvetica,sans-Serif" font-size="10.00">steppable::__internals</text>
<text text-anchor="middle" x="994" y="-279" font-family="Helvetica,sans-Serif" font-size="10.00">::numUtils::simplifyZeroPolarity</text>
</a>
</g>
</g>
<!-- Node8&#45;&gt;Node9 -->
<g id="edge9" class="edge">
<title>Node8&#45;&gt;Node9</title>
<path fill="none" stroke="midnightblue" d="M872.03,-275.18C880.46,-276.01 889.14,-276.85 897.8,-277.7"/>
<polygon fill="midnightblue" stroke="midnightblue" points="897.65,-281.2 907.94,-278.69 898.33,-274.23 897.65,-281.2"/>
</g>
<!-- Node9&#45;&gt;Node3 -->
<g id="edge10" class="edge">
<title>Node9&#45;&gt;Node3</title>
<path fill="none" stroke="midnightblue" d="M1080.11,-287C1088.68,-287 1097.33,-287 1105.79,-287"/>
<polygon fill="midnightblue" stroke="midnightblue" points="1105.98,-290.5 1115.98,-287 1105.98,-283.5 1105.98,-290.5"/>
</g>
<!-- Node11 -->
<g id="node11" class="node">
<title>Node11</title>
<g id="a_node11"><a xlink:href="namespacesteppable_1_1____internals_1_1utils.html#a65d6e9f0b589e6d5eab0da73a4ebb16c" target="_top" xlink:title="Check if the output stream is a terminal.">
<polygon fill="none" stroke="black" points="537,-516 537,-546 661,-546 661,-516 537,-516"/>
<text text-anchor="start" x="545" y="-534" font-family="Helvetica,sans-Serif" font-size="10.00">steppable::__internals</text>
<text text-anchor="middle" x="599" y="-523" font-family="Helvetica,sans-Serif" font-size="10.00">::utils::isTerminal</text>
</a>
</g>
</g>
<!-- Node10&#45;&gt;Node11 -->
<g id="edge12" class="edge">
<title>Node10&#45;&gt;Node11</title>
<path fill="none" stroke="midnightblue" d="M463.27,-531C483.61,-531 506.17,-531 526.92,-531"/>
<polygon fill="midnightblue" stroke="midnightblue" points="526.94,-534.5 536.94,-531 526.94,-527.5 526.94,-534.5"/>
</g>
<!-- Node12&#45;&gt;Node3 -->
<g id="edge14" class="edge">
<title>Node12&#45;&gt;Node3</title>
<path fill="none" stroke="midnightblue" d="M464.21,-316.09C479.56,-316.89 495.85,-317.6 511,-318 763.82,-324.74 829.08,-342.67 1080,-311 1092.28,-309.45 1105.23,-307.01 1117.62,-304.26"/>
<polygon fill="midnightblue" stroke="midnightblue" points="1118.45,-307.66 1127.41,-302 1116.87,-300.84 1118.45,-307.66"/>
</g>
<!-- Node12&#45;&gt;Node8 -->
<g id="edge17" class="edge">
<title>Node12&#45;&gt;Node8</title>
<path fill="none" stroke="midnightblue" d="M464.21,-303.61C479.56,-301.71 495.85,-299.74 511,-298 578.85,-290.21 655.86,-282.17 712.78,-276.37"/>
<polygon fill="midnightblue" stroke="midnightblue" points="713.22,-279.85 722.81,-275.35 712.51,-272.88 713.22,-279.85"/>
</g>
<!-- Node12&#45;&gt;Node9 -->
<g id="edge18" class="edge">
<title>Node12&#45;&gt;Node9</title>
<path fill="none" stroke="midnightblue" d="M464.11,-309.24C569.33,-304.82 776.3,-296.11 897.79,-291"/>
<polygon fill="midnightblue" stroke="midnightblue" points="897.99,-294.5 907.83,-290.58 897.69,-287.5 897.99,-294.5"/>
</g>
<!-- Node13 -->
<g id="node13" class="node">
<title>Node13</title>
<g id="a_node13"><a xlink:href="namespacesteppable_1_1____internals_1_1numUtils.html#a3d4e1e21ccf1afecd766d3152df87212" target="_top" xlink:title=" ">
<polygon fill="none" stroke="black" points="511,-215 511,-245 687,-245 687,-215 511,-215"/>
<text text-anchor="start" x="519" y="-233" font-family="Helvetica,sans-Serif" font-size="10.00">steppable::__internals</text>
<text text-anchor="middle" x="599" y="-222" font-family="Helvetica,sans-Serif" font-size="10.00">::numUtils::removeLeadingZeros</text>
</a>
</g>
</g>
<!-- Node12&#45;&gt;Node13 -->
<g id="edge15" class="edge">
<title>Node12&#45;&gt;Node13</title>
<path fill="none" stroke="midnightblue" d="M440.76,-296.95C452.06,-292.52 464.14,-287.4 475,-282 491.79,-273.66 494.04,-267.99 511,-260 519.69,-255.91 529.09,-252.08 538.4,-248.62"/>
<polygon fill="midnightblue" stroke="midnightblue" points="539.81,-251.84 548.03,-245.16 537.44,-245.25 539.81,-251.84"/>
</g>
<!-- Node14 -->
<g id="node14" class="node">
<title>Node14</title>
<g id="a_node14"><a xlink:href="namespacesteppable_1_1____internals_1_1numUtils.html#a5d7e8d74d304a1ac7fc2ad4dbf5b40ae" target="_top" xlink:title=" ">
<polygon fill="none" stroke="black" points="512.5,-428 512.5,-458 685.5,-458 685.5,-428 512.5,-428"/>
<text text-anchor="start" x="520.5" y="-446" font-family="Helvetica,sans-Serif" font-size="10.00">steppable::__internals</text>
<text text-anchor="middle" x="599" y="-435" font-family="Helvetica,sans-Serif" font-size="10.00">::numUtils::removeTrailingZeros</text>
</a>
</g>
</g>
<!-- Node12&#45;&gt;Node14 -->
<g id="edge16" class="edge">
<title>Node12&#45;&gt;Node14</title>
<path fill="none" stroke="midnightblue" d="M410.32,-327.01C429.18,-349.97 468.33,-393.7 511,-418 514.87,-420.2 518.95,-422.23 523.14,-424.08"/>
<polygon fill="midnightblue" stroke="midnightblue" points="521.88,-427.35 532.47,-427.87 524.52,-420.86 521.88,-427.35"/>
</g>
<!-- Node15 -->
<g id="node15" class="node">
<title>Node15</title>
<g id="a_node15"><a xlink:href="namespacesteppable_1_1____internals_1_1stringUtils.html#a2600efb348f0dd19cc0068946d06b1b7" target="_top" xlink:title="Splits a string into substrings based on a separator.">
<polygon fill="none" stroke="black" points="537,-379 537,-409 661,-409 661,-379 537,-379"/>
<text text-anchor="start" x="545" y="-397" font-family="Helvetica,sans-Serif" font-size="10.00">steppable::__internals</text>
<text text-anchor="middle" x="599" y="-386" font-family="Helvetica,sans-Serif" font-size="10.00">::stringUtils::split</text>
</a>
</g>
</g>
<!-- Node12&#45;&gt;Node15 -->
<g id="edge19" class="edge">
<title>Node12&#45;&gt;Node15</title>
<path fill="none" stroke="midnightblue" d="M429.17,-327.2C451.58,-338.05 482.85,-352.68 511,-364 520.99,-368.02 531.74,-372 542.17,-375.68"/>
<polygon fill="midnightblue" stroke="midnightblue" points="541.03,-378.99 551.63,-378.98 543.33,-372.38 541.03,-378.99"/>
</g>
<!-- Node16&#45;&gt;Node7 -->
<g id="edge26" class="edge">
<title>Node16&#45;&gt;Node7</title>
<path fill="none" stroke="midnightblue" d="M251.73,-223.07C300.16,-246.26 400.1,-284.5 475,-249 497.83,-238.18 489.83,-218.79 511,-205 513.46,-203.4 516.03,-201.9 518.68,-200.5"/>
<polygon fill="midnightblue" stroke="midnightblue" points="520.39,-203.57 527.93,-196.12 517.39,-197.24 520.39,-203.57"/>
</g>
<!-- Node16&#45;&gt;Node12 -->
<g id="edge25" class="edge">
<title>Node16&#45;&gt;Node12</title>
<path fill="none" stroke="midnightblue" d="M243.11,-223.05C255.03,-232 270.42,-243.6 284,-254 300.09,-266.32 302.38,-271.97 320,-282 327.05,-286.01 334.75,-289.72 342.45,-293.07"/>
<polygon fill="midnightblue" stroke="midnightblue" points="341.23,-296.35 351.81,-296.96 343.92,-289.89 341.23,-296.35"/>
</g>
<!-- Node17 -->
<g id="node17" class="node">
<title>Node17</title>
<g id="a_node17"><a xlink:href="comparisonReport_8cpp.html#a9837660fa80278748f7f9bc397f5fba4" target="_top" xlink:title="Reports the comparison based on the integer. If the integer parts are of different length,...">
<polygon fill="none" stroke="black" points="323,-182.5 323,-201.5 472,-201.5 472,-182.5 323,-182.5"/>
<text text-anchor="middle" x="397.5" y="-189.5" font-family="Helvetica,sans-Serif" font-size="10.00">reportComparisonAtInteger</text>
</a>
</g>
</g>
<!-- Node16&#45;&gt;Node17 -->
<g id="edge22" class="edge">
<title>Node16&#45;&gt;Node17</title>
<path fill="none" stroke="midnightblue" d="M284.17,-202.36C293.44,-201.5 303.13,-200.61 312.78,-199.72"/>
<polygon fill="midnightblue" stroke="midnightblue" points="313.16,-203.2 322.79,-198.8 312.52,-196.23 313.16,-203.2"/>
</g>
<!-- Node18 -->
<g id="node18" class="node">
<title>Node18</title>
<g id="a_node18"><a xlink:href="comparisonReport_8cpp.html#adc6ac398c16b4d30ab55b0ec5ceef9f3" target="_top" xlink:title="Compares each digit and see if one is larger.">
<polygon fill="none" stroke="black" points="327.5,-144.5 327.5,-163.5 467.5,-163.5 467.5,-144.5 327.5,-144.5"/>
<text text-anchor="middle" x="397.5" y="-151.5" font-family="Helvetica,sans-Serif" font-size="10.00">reportComparisonByDigit</text>
</a>
</g>
</g>
<!-- Node16&#45;&gt;Node18 -->
<g id="edge23" class="edge">
<title>Node16&#45;&gt;Node18</title>
<path fill="none" stroke="midnightblue" d="M261.87,-192.94C279.47,-186.39 300.64,-178.88 320,-173 328,-170.57 336.54,-168.22 344.9,-166.05"/>
<polygon fill="midnightblue" stroke="midnightblue" points="345.77,-169.44 354.6,-163.58 344.04,-162.65 345.77,-169.44"/>
</g>
<!-- Node19 -->
<g id="node19" class="node">
<title>Node19</title>
<g id="a_node19"><a xlink:href="comparisonReport_8cpp.html#a8bdddfcaa5a1d0339df5705ec6ff2aff" target="_top" xlink:title="Reports the comparison based on the polarity. If they are of different polarity, the one that is posi...">
<polygon fill="none" stroke="black" points="320,-106.5 320,-125.5 475,-125.5 475,-106.5 320,-106.5"/>
<text text-anchor="middle" x="397.5" y="-113.5" font-family="Helvetica,sans-Serif" font-size="10.00">reportComparisonByPolarity</text>
</a>
</g>
</g>
<!-- Node16&#45;&gt;Node19 -->
<g id="edge24" class="edge">
<title>Node16&#45;&gt;Node19</title>
<path fill="none" stroke="midnightblue" d="M238.82,-192.85C257,-176.27 288.41,-150.04 320,-135 325.02,-132.61 330.37,-130.5 335.83,-128.64"/>
<polygon fill="midnightblue" stroke="midnightblue" points="337.2,-131.88 345.7,-125.56 335.11,-125.2 337.2,-131.88"/>
</g>
<!-- Node20&#45;&gt;Node5 -->
<g id="edge29" class="edge">
<title>Node20&#45;&gt;Node5</title>
<path fill="none" stroke="midnightblue" d="M440.81,-81.18C463.22,-82.87 491.51,-84.99 517.88,-86.98"/>
<polygon fill="midnightblue" stroke="midnightblue" points="517.65,-90.47 527.88,-87.73 518.17,-83.49 517.65,-90.47"/>
</g>
<!-- Node20&#45;&gt;Node13 -->
<g id="edge30" class="edge">
<title>Node20&#45;&gt;Node13</title>
<path fill="none" stroke="midnightblue" d="M440.68,-80.79C453,-83.49 465.66,-88.36 475,-97 512.15,-131.35 474.48,-169.98 511,-205 512.49,-206.43 514.05,-207.77 515.68,-209.05"/>
<polygon fill="midnightblue" stroke="midnightblue" points="514.05,-212.16 524.31,-214.79 517.92,-206.33 514.05,-212.16"/>
</g>
<!-- Node21 -->
<g id="node21" class="node">
<title>Node21</title>
<g id="a_node21"><a xlink:href="namespacesteppable_1_1____internals_1_1numUtils.html#ae8dde3fc958f32009443d1aeaa2c0900" target="_top" xlink:title=" ">
<polygon fill="none" stroke="black" points="511.5,-29 511.5,-59 686.5,-59 686.5,-29 511.5,-29"/>
<text text-anchor="start" x="519.5" y="-47" font-family="Helvetica,sans-Serif" font-size="10.00">steppable::__internals</text>
<text text-anchor="middle" x="599" y="-36" font-family="Helvetica,sans-Serif" font-size="10.00">::numUtils::replaceLeadingZeros</text>
</a>
</g>
</g>
<!-- Node20&#45;&gt;Node21 -->
<g id="edge31" class="edge">
<title>Node20&#45;&gt;Node21</title>
<path fill="none" stroke="midnightblue" d="M440.81,-70.79C458.58,-67.76 480.05,-64.1 501.32,-60.48"/>
<polygon fill="midnightblue" stroke="midnightblue" points="502.13,-63.89 511.4,-58.76 500.96,-56.99 502.13,-63.89"/>
</g>
</g>
</svg>
        <g id="navigator" transform="translate(0 0)" fill="#404254">
                <rect fill="#f2f5e9" fill-opacity="0.5" stroke="#606060" stroke-width=".5" x="0" y="0" width="60" height="60"/>
                <use id="zoomplus" xlink:href="#zoomPlus" x="17" y="9" onmousedown="handleZoom(evt,'in')"/>
                <use id="zoomminus" xlink:href="#zoomMin" x="42" y="9" onmousedown="handleZoom(evt,'out')"/>
                <use id="reset" xlink:href="#resetDef" x="30" y="36" onmousedown="handleReset()"/>
                <g id="arrowUp" xlink:href="#dirArrow" transform="translate(30 24)" onmousedown="handlePan(0,-1)">
                  <use xlink:href="#rim" fill="#404040">
                        <set attributeName="fill" to="#808080" begin="arrowUp.mouseover" end="arrowUp.mouseout"/>
                  </use>
                  <path fill="none" stroke="white" stroke-width="1.5" d="M0,-3.0v7 M-2.5,-0.5L0,-3.0L2.5,-0.5"/>
                </g>
                <g id="arrowRight" xlink:href="#dirArrow" transform="rotate(90) translate(36 -43)" onmousedown="handlePan(1,0)">
                  <use xlink:href="#rim" fill="#404040">
                        <set attributeName="fill" to="#808080" begin="arrowRight.mouseover" end="arrowRight.mouseout"/>
                  </use>
                  <path fill="none" stroke="white" stroke-width="1.5" d="M0,-3.0v7 M-2.5,-0.5L0,-3.0L2.5,-0.5"/>
                </g>
                <g id="arrowDown" xlink:href="#dirArrow" transform="rotate(180) translate(-30 -48)" onmousedown="handlePan(0,1)">
                  <use xlink:href="#rim" fill="#404040">
                        <set attributeName="fill" to="#808080" begin="arrowDown.mouseover" end="arrowDown.mouseout"/>
                  </use>
                  <path fill="none" stroke="white" stroke-width="1.5" d="M0,-3.0v7 M-2.5,-0.5L0,-3.0L2.5,-0.5"/>
                </g>
                <g id="arrowLeft" xlink:href="#dirArrow" transform="rotate(270) translate(-36 17)" onmousedown="handlePan(-1,0)">
                  <use xlink:href="#rim" fill="#404040">
                        <set attributeName="fill" to="#808080" begin="arrowLeft.mouseover" end="arrowLeft.mouseout"/>
                  </use>
                  <path fill="none" stroke="white" stroke-width="1.5" d="M0,-3.0v7 M-2.5,-0.5L0,-3.0L2.5,-0.5"/>
                </g>
        </g>
        <svg viewBox="0 0 15 15" width="100%" height="30px" preserveAspectRatio="xMaxYMin meet">
         <g id="arrow_out" transform="scale(0.3 0.3)">
          <a xlink:href="namespacesteppable_1_1____internals_1_1arithmetic_ae61ae2915786a49aebb7025105cf058e_cgraph_org.svg" target="_base">
           <rect id="button" ry="5" rx="5" y="6" x="6" height="38" width="38"
                fill="#f2f5e9" fill-opacity="0.5" stroke="#606060" stroke-width="1.0"/>
           <path id="arrow"
             d="M 11.500037,31.436501 C 11.940474,20.09759 22.043105,11.32322 32.158766,21.979434 L 37.068811,17.246167 C 37.068811,17.246167 37.088388,32 37.088388,32 L 22.160133,31.978069 C 22.160133,31.978069 26.997745,27.140456 26.997745,27.140456 C 18.528582,18.264221 13.291696,25.230495 11.500037,31.436501 z"
             style="fill:#404040;"/>
          </a>
         </g>
        </svg>
</svg>
