<?xml version="1.0" encoding="UTF-8" standalone="no"?>
<!DOCTYPE svg PUBLIC "-//W3C//DTD SVG 1.1//EN"
 "http://www.w3.org/Graphics/SVG/1.1/DTD/svg11.dtd">
<!-- Generated by graphviz version 12.2.1 (20241206.2353)
 -->
<!-- Title: ImGui::UpdateKeyboardInputs Pages: 1 -->
<!--zoomable 345 -->

<svg id="main" version="1.1" xmlns="http://www.w3.org/2000/svg" xmlns:xlink="http://www.w3.org/1999/xlink" xml:space="preserve" onload="init(evt)">

<style type="text/css"><![CDATA[
.node, .edge {opacity: 0.7;}
.node.selected, .edge.selected {opacity: 1;}
.edge:hover path { stroke: red; }
.edge:hover polygon { stroke: red; fill: red; }
]]></style>

<defs>
  <circle id="rim" cx="0" cy="0" r="7"/>
  <circle id="rim2" cx="0" cy="0" r="3.5"/>
  <g id="zoomPlus">
    <use xlink:href="#rim" fill="#404040"><set attributeName="fill" to="#808080" begin="zoomplus.mouseover" end="zoomplus.mouseout"/></use>
    <path d="M-4,0h8M0,-4v8" fill="none" stroke="white" stroke-width="1.5" pointer-events="none"/>
  </g>
  <g id="zoomMin">
    <use xlink:href="#rim" fill="#404040"><set attributeName="fill" to="#808080" begin="zoomminus.mouseover" end="zoomminus.mouseout"/></use>
    <path d="M-4,0h8" fill="none" stroke="white" stroke-width="1.5" pointer-events="none"/>
  </g>
  <g id="arrowUp" transform="translate(30 24)">
    <use xlink:href="#rim"/>
    <path pointer-events="none" fill="none" stroke="white" stroke-width="1.5" d="M0,-3.0v7 M-2.5,-0.5L0,-3.0L2.5,-0.5"/>
  </g>
  <g id="arrowRight" transform="rotate(90) translate(36 -43)">
    <use xlink:href="#rim"/>
    <path pointer-events="none" fill="none" stroke="white" stroke-width="1.5" d="M0,-3.0v7 M-2.5,-0.5L0,-3.0L2.5,-0.5"/>
  </g>
  <g id="arrowDown" transform="rotate(180) translate(-30 -48)">
    <use xlink:href="#rim"/>
    <path pointer-events="none" fill="none" stroke="white" stroke-width="1.5" d="M0,-3.0v7 M-2.5,-0.5L0,-3.0L2.5,-0.5"/>
  </g>
  <g id="arrowLeft" transform="rotate(270) translate(-36 17)">
    <use xlink:href="#rim"/>
    <path pointer-events="none" fill="none" stroke="white" stroke-width="1.5" d="M0,-3.0v7 M-2.5,-0.5L0,-3.0L2.5,-0.5"/>
  </g>
  <g id="resetDef">
    <use xlink:href="#rim2" fill="#404040"><set attributeName="fill" to="#808080" begin="reset.mouseover" end="reset.mouseout"/></use>
  </g>
</defs>
<script type="application/ecmascript">
var viewWidth = 749;
var viewHeight = 345;
var sectionId = 'dynsection-1379';
</script>
<script type="application/ecmascript" xlink:href="svg.min.js"/>
<svg id="graph" class="graph">
<g id="viewport">
<title>ImGui::UpdateKeyboardInputs</title>
<!-- Node1 -->
<g id="Node000001" class="node">
<title>Node1</title>
<g id="a_Node000001"><a xlink:title=" ">
<polygon fill="#999999" stroke="#666666" points="162.25,-193.75 0,-193.75 0,-173 162.25,-173 162.25,-193.75"/>
<text text-anchor="middle" x="81.12" y="-180.25" font-family="Helvetica,sans-Serif" font-size="10.00">ImGui::UpdateKeyboardInputs</text>
</a>
</g>
</g>
<!-- Node2 -->
<g id="Node000002" class="node">
<title>Node2</title>
<g id="a_Node000002"><a xlink:href="structImGuiIO.html#a5d87fb4f10e366ef8a4603ac57e39da1" target="_top" xlink:title=" ">
<polygon fill="white" stroke="#666666" points="349.62,-336.75 214.38,-336.75 214.38,-316 349.62,-316 349.62,-336.75"/>
<text text-anchor="middle" x="282" y="-323.25" font-family="Helvetica,sans-Serif" font-size="10.00">ImGuiIO::ClearInputKeys</text>
</a>
</g>
</g>
<!-- Node1&#45;&gt;Node2 -->
<g id="edge1_Node000001_Node000002" class="edge">
<title>Node1&#45;&gt;Node2</title>
<g id="a_edge1_Node000001_Node000002"><a xlink:title=" ">
<path fill="none" stroke="#63b8ff" d="M89.5,-194.05C106.14,-217.32 148.98,-272.84 198.25,-302.38 204.31,-306.01 210.96,-309.12 217.76,-311.77"/>
<polygon fill="#63b8ff" stroke="#63b8ff" points="216.5,-315.04 227.09,-315.08 218.84,-308.44 216.5,-315.04"/>
</a>
</g>
</g>
<!-- Node4 -->
<g id="Node000004" class="node">
<title>Node4</title>
<g id="a_Node000004"><a xlink:href="namespaceImGui.html#a6d32d70d6beb45537b605508b78216c3" target="_top" xlink:title=" ">
<polygon fill="white" stroke="#666666" points="336.88,-204.75 227.12,-204.75 227.12,-184 336.88,-184 336.88,-204.75"/>
<text text-anchor="middle" x="282" y="-191.25" font-family="Helvetica,sans-Serif" font-size="10.00">ImGui::GetKeyData</text>
</a>
</g>
</g>
<!-- Node1&#45;&gt;Node4 -->
<g id="edge3_Node000001_Node000004" class="edge">
<title>Node1&#45;&gt;Node4</title>
<g id="a_edge3_Node000001_Node000004"><a xlink:title=" ">
<path fill="none" stroke="#63b8ff" d="M162.73,-187.83C180.22,-188.8 198.53,-189.81 215.37,-190.74"/>
<polygon fill="#63b8ff" stroke="#63b8ff" points="215.07,-194.23 225.25,-191.29 215.46,-187.24 215.07,-194.23"/>
</a>
</g>
</g>
<!-- Node6 -->
<g id="Node000006" class="node">
<title>Node6</title>
<g id="a_Node000006"><a xlink:href="namespaceImGui.html#a8737377cd9666008318a3fa66fa943c7" target="_top" xlink:title=" ">
<polygon fill="white" stroke="#666666" points="528.38,-260.75 416.38,-260.75 416.38,-240 528.38,-240 528.38,-260.75"/>
<text text-anchor="middle" x="472.38" y="-247.25" font-family="Helvetica,sans-Serif" font-size="10.00">ImGui::IsLegacyKey</text>
</a>
</g>
</g>
<!-- Node1&#45;&gt;Node6 -->
<g id="edge10_Node000001_Node000006" class="edge">
<title>Node1&#45;&gt;Node6</title>
<g id="a_edge10_Node000001_Node000006"><a xlink:title=" ">
<path fill="none" stroke="#63b8ff" d="M119.52,-194.24C142.16,-200.51 171.69,-208.16 198.25,-213.38 268.32,-227.12 349.5,-237.41 405.03,-243.61"/>
<polygon fill="#63b8ff" stroke="#63b8ff" points="404.3,-247.05 414.63,-244.66 405.07,-240.09 404.3,-247.05"/>
</a>
</g>
</g>
<!-- Node7 -->
<g id="Node000007" class="node">
<title>Node7</title>
<g id="a_Node000007"><a xlink:href="namespaceImGui.html#a1e6a2ce7696a25d0dd0cf318e3b48a33" target="_top" xlink:title=" ">
<polygon fill="white" stroke="#666666" points="716.12,-222.75 603.38,-222.75 603.38,-202 716.12,-202 716.12,-222.75"/>
<text text-anchor="middle" x="659.75" y="-209.25" font-family="Helvetica,sans-Serif" font-size="10.00">ImGui::IsNamedKey</text>
</a>
</g>
</g>
<!-- Node1&#45;&gt;Node7 -->
<g id="edge11_Node000001_Node000007" class="edge">
<title>Node1&#45;&gt;Node7</title>
<g id="a_edge11_Node000001_Node000007"><a xlink:title=" ">
<path fill="none" stroke="#63b8ff" d="M99.93,-194.08C122.14,-206.93 161.66,-228.14 198.25,-239.38 345.28,-284.51 393.21,-304.26 543,-269.38 576.11,-261.67 610.64,-243.07 633.27,-229.2"/>
<polygon fill="#63b8ff" stroke="#63b8ff" points="634.9,-232.31 641.5,-224.02 631.18,-226.38 634.9,-232.31"/>
</a>
</g>
</g>
<!-- Node8 -->
<g id="Node000008" class="node">
<title>Node8</title>
<g id="a_Node000008"><a xlink:href="namespaceImGui.html#a21498048e9bc00052c395518ba96a6e4" target="_top" xlink:title=" ">
<polygon fill="white" stroke="#666666" points="343.62,-116.75 220.38,-116.75 220.38,-96 343.62,-96 343.62,-116.75"/>
<text text-anchor="middle" x="282" y="-103.25" font-family="Helvetica,sans-Serif" font-size="10.00">ImGui::IsKeyboardKey</text>
</a>
</g>
</g>
<!-- Node1&#45;&gt;Node8 -->
<g id="edge7_Node000001_Node000008" class="edge">
<title>Node1&#45;&gt;Node8</title>
<g id="a_edge7_Node000001_Node000008"><a xlink:title=" ">
<path fill="none" stroke="#63b8ff" d="M100.88,-172.57C123.38,-159.98 162.55,-139.27 198.25,-126.38 204.64,-124.07 211.39,-121.94 218.19,-120.01"/>
<polygon fill="#63b8ff" stroke="#63b8ff" points="218.63,-123.52 227.38,-117.53 216.81,-116.76 218.63,-123.52"/>
</a>
</g>
</g>
<!-- Node9 -->
<g id="Node000009" class="node">
<title>Node9</title>
<g id="a_Node000009"><a xlink:href="namespaceImGui.html#a82095f2501c1df5ccd1928a53edaad99" target="_top" xlink:title=" ">
<polygon fill="white" stroke="#666666" points="334.62,-59.75 229.38,-59.75 229.38,-39 334.62,-39 334.62,-59.75"/>
<text text-anchor="middle" x="282" y="-46.25" font-family="Helvetica,sans-Serif" font-size="10.00">ImGui::IsKeyDown</text>
</a>
</g>
</g>
<!-- Node1&#45;&gt;Node9 -->
<g id="edge8_Node000001_Node000009" class="edge">
<title>Node1&#45;&gt;Node9</title>
<g id="a_edge8_Node000001_Node000009"><a xlink:title=" ">
<path fill="none" stroke="#63b8ff" d="M92.91,-172.79C112.58,-153.88 156.16,-113.8 198.25,-87.38 212.01,-78.73 228.07,-70.91 242.35,-64.63"/>
<polygon fill="#63b8ff" stroke="#63b8ff" points="243.64,-67.88 251.47,-60.74 240.9,-61.44 243.64,-67.88"/>
</a>
</g>
</g>
<!-- Node10 -->
<g id="Node000010" class="node">
<title>Node10</title>
<g id="a_Node000010"><a xlink:href="namespaceImGui.html#a25689086f813c9714c4bbd4e3d5e669c" target="_top" xlink:title=" ">
<polygon fill="white" stroke="#666666" points="354.12,-20.75 209.88,-20.75 209.88,0 354.12,0 354.12,-20.75"/>
<text text-anchor="middle" x="282" y="-7.25" font-family="Helvetica,sans-Serif" font-size="10.00">ImGui::MouseButtonToKey</text>
</a>
</g>
</g>
<!-- Node1&#45;&gt;Node10 -->
<g id="edge12_Node000001_Node000010" class="edge">
<title>Node1&#45;&gt;Node10</title>
<g id="a_edge12_Node000001_Node000010"><a xlink:title=" ">
<path fill="none" stroke="#63b8ff" d="M86.91,-172.86C100.21,-144.88 140.49,-68.17 198.25,-30.38 200.83,-28.69 203.53,-27.14 206.33,-25.73"/>
<polygon fill="#63b8ff" stroke="#63b8ff" points="207.64,-28.98 215.4,-21.76 204.84,-22.56 207.64,-28.98"/>
</a>
</g>
</g>
<!-- Node11 -->
<g id="Node000011" class="node">
<title>Node11</title>
<g id="a_Node000011"><a xlink:href="namespaceImGui.html#ae48847b764f778b336dcb65519295c84" target="_top" xlink:title=" ">
<polygon fill="white" stroke="#666666" points="365.75,-155.75 198.25,-155.75 198.25,-135 365.75,-135 365.75,-155.75"/>
<text text-anchor="middle" x="282" y="-142.25" font-family="Helvetica,sans-Serif" font-size="10.00">ImGui::UpdateKeyRoutingTable</text>
</a>
</g>
</g>
<!-- Node1&#45;&gt;Node11 -->
<g id="edge13_Node000001_Node000011" class="edge">
<title>Node1&#45;&gt;Node11</title>
<g id="a_edge13_Node000001_Node000011"><a xlink:title=" ">
<path fill="none" stroke="#63b8ff" d="M138.85,-172.54C161.94,-168.12 188.83,-162.99 212.97,-158.37"/>
<polygon fill="#63b8ff" stroke="#63b8ff" points="213.55,-161.83 222.71,-156.51 212.24,-154.95 213.55,-161.83"/>
</a>
</g>
</g>
<!-- Node3 -->
<g id="Node000003" class="node">
<title>Node3</title>
<g id="a_Node000003"><a xlink:href="namespaceImGui.html#a7da544966780a0000f0ad395d98ca63d" target="_top" xlink:title=" ">
<polygon fill="white" stroke="#666666" points="527.25,-336.75 417.5,-336.75 417.5,-316 527.25,-316 527.25,-336.75"/>
<text text-anchor="middle" x="472.38" y="-323.25" font-family="Helvetica,sans-Serif" font-size="10.00">ImGui::IsMouseKey</text>
</a>
</g>
</g>
<!-- Node2&#45;&gt;Node3 -->
<g id="edge2_Node000002_Node000003" class="edge">
<title>Node2&#45;&gt;Node3</title>
<g id="a_edge2_Node000002_Node000003"><a xlink:title=" ">
<path fill="none" stroke="#63b8ff" d="M349.94,-326.38C368.07,-326.38 387.68,-326.38 405.73,-326.38"/>
<polygon fill="#63b8ff" stroke="#63b8ff" points="405.53,-329.88 415.53,-326.38 405.53,-322.88 405.53,-329.88"/>
</a>
</g>
</g>
<!-- Node5 -->
<g id="Node000005" class="node">
<title>Node5</title>
<g id="a_Node000005"><a xlink:href="namespaceImGui.html#ad540a8f07e5834f77f76a84626cdc70e" target="_top" xlink:title=" ">
<polygon fill="white" stroke="#666666" points="740.5,-172.12 579,-172.12 579,-138.62 740.5,-138.62 740.5,-172.12"/>
<text text-anchor="start" x="587" y="-158.62" font-family="Helvetica,sans-Serif" font-size="10.00">ImGui::ConvertSingleModFlag</text>
<text text-anchor="middle" x="659.75" y="-145.88" font-family="Helvetica,sans-Serif" font-size="10.00">ToKey</text>
</a>
</g>
</g>
<!-- Node4&#45;&gt;Node5 -->
<g id="edge4_Node000004_Node000005" class="edge">
<title>Node4&#45;&gt;Node5</title>
<g id="a_edge4_Node000004_Node000005"><a xlink:title=" ">
<path fill="none" stroke="#63b8ff" d="M337.24,-188.75C397.33,-182.51 495.24,-172.35 567.25,-164.87"/>
<polygon fill="#63b8ff" stroke="#63b8ff" points="567.49,-168.37 577.07,-163.85 566.76,-161.4 567.49,-168.37"/>
</a>
</g>
</g>
<!-- Node4&#45;&gt;Node6 -->
<g id="edge5_Node000004_Node000006" class="edge">
<title>Node4&#45;&gt;Node6</title>
<g id="a_edge5_Node000004_Node000006"><a xlink:title=" ">
<path fill="none" stroke="#63b8ff" d="M319.32,-205.17C349.06,-214.01 391.38,-226.59 423.82,-236.24"/>
<polygon fill="#63b8ff" stroke="#63b8ff" points="422.81,-239.59 433.39,-239.08 424.81,-232.88 422.81,-239.59"/>
</a>
</g>
</g>
<!-- Node4&#45;&gt;Node7 -->
<g id="edge6_Node000004_Node000007" class="edge">
<title>Node4&#45;&gt;Node7</title>
<g id="a_edge6_Node000004_Node000007"><a xlink:title=" ">
<path fill="none" stroke="#63b8ff" d="M337.24,-196.97C404.47,-200.19 519.04,-205.68 591.71,-209.16"/>
<polygon fill="#63b8ff" stroke="#63b8ff" points="591.33,-212.65 601.49,-209.63 591.67,-205.66 591.33,-212.65"/>
</a>
</g>
</g>
<!-- Node9&#45;&gt;Node9 -->
<g id="edge9_Node000009_Node000009" class="edge">
<title>Node9&#45;&gt;Node9</title>
<g id="a_edge9_Node000009_Node000009"><a xlink:title=" ">
<path fill="none" stroke="#63b8ff" d="M251.32,-60.15C239.05,-68.81 249.28,-77.75 282,-77.75 299.89,-77.75 311.06,-75.08 315.5,-71.24"/>
<polygon fill="#63b8ff" stroke="#63b8ff" points="318.91,-70.44 313.05,-61.61 312.12,-72.17 318.91,-70.44"/>
</a>
</g>
</g>
<!-- Node12 -->
<g id="Node000012" class="node">
<title>Node12</title>
<g id="a_Node000012"><a xlink:href="namespaceImGui.html#a05ada04953ac91c563334fb0fe934e03" target="_top" xlink:title=" ">
<polygon fill="white" stroke="#666666" points="543,-146.75 401.75,-146.75 401.75,-126 543,-126 543,-146.75"/>
<text text-anchor="middle" x="472.38" y="-133.25" font-family="Helvetica,sans-Serif" font-size="10.00">ImGui::GetKeyOwnerData</text>
</a>
</g>
</g>
<!-- Node11&#45;&gt;Node12 -->
<g id="edge14_Node000011_Node000012" class="edge">
<title>Node11&#45;&gt;Node12</title>
<g id="a_edge14_Node000011_Node000012"><a xlink:title=" ">
<path fill="none" stroke="#63b8ff" d="M366.17,-141.4C374.05,-141.02 382.04,-140.64 389.9,-140.27"/>
<polygon fill="#63b8ff" stroke="#63b8ff" points="389.98,-143.77 399.8,-139.79 389.64,-136.78 389.98,-143.77"/>
</a>
</g>
</g>
<!-- Node13 -->
<g id="Node000013" class="node">
<title>Node13</title>
<g id="a_Node000013"><a xlink:href="structImVector.html#aab5df48e0711a48bd12f3206e08c4108" target="_top" xlink:title=" ">
<polygon fill="white" stroke="#666666" points="531,-29.75 413.75,-29.75 413.75,-9 531,-9 531,-29.75"/>
<text text-anchor="middle" x="472.38" y="-16.25" font-family="Helvetica,sans-Serif" font-size="10.00">ImVector::push_back</text>
</a>
</g>
</g>
<!-- Node11&#45;&gt;Node13 -->
<g id="edge17_Node000011_Node000013" class="edge">
<title>Node11&#45;&gt;Node13</title>
<g id="a_edge17_Node000011_Node000013"><a xlink:title=" ">
<path fill="none" stroke="#63b8ff" d="M351.12,-134.69C356.39,-132.18 361.36,-129.11 365.75,-125.38 397.29,-98.5 370.79,-66.92 401.75,-39.38 403.17,-38.11 404.67,-36.93 406.23,-35.82"/>
<polygon fill="#63b8ff" stroke="#63b8ff" points="407.56,-39.09 414.41,-31.01 404.02,-33.05 407.56,-39.09"/>
</a>
</g>
</g>
<!-- Node16 -->
<g id="Node000016" class="node">
<title>Node16</title>
<g id="a_Node000016"><a xlink:href="structImVector.html#ac371dd62e56ae486b1a5038cf07eee56" target="_top" xlink:title=" ">
<polygon fill="white" stroke="#666666" points="519.75,-68.75 425,-68.75 425,-48 519.75,-48 519.75,-68.75"/>
<text text-anchor="middle" x="472.38" y="-55.25" font-family="Helvetica,sans-Serif" font-size="10.00">ImVector::resize</text>
</a>
</g>
</g>
<!-- Node11&#45;&gt;Node16 -->
<g id="edge20_Node000011_Node000016" class="edge">
<title>Node11&#45;&gt;Node16</title>
<g id="a_edge20_Node000011_Node000016"><a xlink:title=" ">
<path fill="none" stroke="#63b8ff" d="M347.19,-134.57C353.73,-132.11 360.05,-129.08 365.75,-125.38 387.8,-111.02 380.01,-93.2 401.75,-78.38 405.61,-75.74 409.81,-73.46 414.18,-71.47"/>
<polygon fill="#63b8ff" stroke="#63b8ff" points="415.17,-74.84 423.17,-67.9 412.59,-68.33 415.17,-74.84"/>
</a>
</g>
</g>
<!-- Node17 -->
<g id="Node000017" class="node">
<title>Node17</title>
<g id="a_Node000017"><a xlink:href="structImVector.html#afcec0d2a1e28aebe412b6efd06f0a77a" target="_top" xlink:title=" ">
<polygon fill="white" stroke="#666666" points="517.88,-107.75 426.88,-107.75 426.88,-87 517.88,-87 517.88,-107.75"/>
<text text-anchor="middle" x="472.38" y="-94.25" font-family="Helvetica,sans-Serif" font-size="10.00">ImVector::swap</text>
</a>
</g>
</g>
<!-- Node11&#45;&gt;Node17 -->
<g id="edge23_Node000011_Node000017" class="edge">
<title>Node11&#45;&gt;Node17</title>
<g id="a_edge23_Node000011_Node000017"><a xlink:title=" ">
<path fill="none" stroke="#63b8ff" d="M328.57,-134.55C340.67,-131.63 353.72,-128.42 365.75,-125.38 383.55,-120.86 402.99,-115.76 420.29,-111.16"/>
<polygon fill="#63b8ff" stroke="#63b8ff" points="421.08,-114.57 429.84,-108.61 419.28,-107.81 421.08,-114.57"/>
</a>
</g>
</g>
<!-- Node12&#45;&gt;Node5 -->
<g id="edge15_Node000012_Node000005" class="edge">
<title>Node12&#45;&gt;Node5</title>
<g id="a_edge15_Node000012_Node000005"><a xlink:title=" ">
<path fill="none" stroke="#63b8ff" d="M543.46,-143.56C551.26,-144.36 559.3,-145.18 567.32,-146"/>
<polygon fill="#63b8ff" stroke="#63b8ff" points="566.81,-149.47 577.12,-147.01 567.52,-142.51 566.81,-149.47"/>
</a>
</g>
</g>
<!-- Node12&#45;&gt;Node7 -->
<g id="edge16_Node000012_Node000007" class="edge">
<title>Node12&#45;&gt;Node7</title>
<g id="a_edge16_Node000012_Node000007"><a xlink:title=" ">
<path fill="none" stroke="#63b8ff" d="M498.04,-147.15C519.39,-156.41 551.12,-170.02 579,-181.38 592.22,-186.76 606.75,-192.47 619.75,-197.5"/>
<polygon fill="#63b8ff" stroke="#63b8ff" points="618.24,-200.67 628.83,-201 620.76,-194.14 618.24,-200.67"/>
</a>
</g>
</g>
<!-- Node14 -->
<g id="Node000014" class="node">
<title>Node14</title>
<g id="a_Node000014"><a xlink:href="structImVector.html#a3a097635d464b1b70dc7d59996a88b28" target="_top" xlink:title=" ">
<polygon fill="white" stroke="#666666" points="730.38,-68.75 589.12,-68.75 589.12,-48 730.38,-48 730.38,-68.75"/>
<text text-anchor="middle" x="659.75" y="-55.25" font-family="Helvetica,sans-Serif" font-size="10.00">ImVector::_grow_capacity</text>
</a>
</g>
</g>
<!-- Node13&#45;&gt;Node14 -->
<g id="edge18_Node000013_Node000014" class="edge">
<title>Node13&#45;&gt;Node14</title>
<g id="a_edge18_Node000013_Node000014"><a xlink:title=" ">
<path fill="none" stroke="#63b8ff" d="M525.01,-30.24C547.02,-34.87 572.89,-40.31 595.98,-45.17"/>
<polygon fill="#63b8ff" stroke="#63b8ff" points="595.08,-48.56 605.59,-47.19 596.52,-41.71 595.08,-48.56"/>
</a>
</g>
</g>
<!-- Node15 -->
<g id="Node000015" class="node">
<title>Node15</title>
<g id="a_Node000015"><a xlink:href="structImVector.html#a0f14f5736c3372157856eebb67123b75" target="_top" xlink:title=" ">
<polygon fill="white" stroke="#666666" points="710.88,-29.75 608.62,-29.75 608.62,-9 710.88,-9 710.88,-29.75"/>
<text text-anchor="middle" x="659.75" y="-16.25" font-family="Helvetica,sans-Serif" font-size="10.00">ImVector::reserve</text>
</a>
</g>
</g>
<!-- Node13&#45;&gt;Node15 -->
<g id="edge19_Node000013_Node000015" class="edge">
<title>Node13&#45;&gt;Node15</title>
<g id="a_edge19_Node000013_Node000015"><a xlink:title=" ">
<path fill="none" stroke="#63b8ff" d="M531.27,-19.38C552.06,-19.38 575.59,-19.38 596.72,-19.38"/>
<polygon fill="#63b8ff" stroke="#63b8ff" points="596.67,-22.88 606.67,-19.38 596.67,-15.88 596.67,-22.88"/>
</a>
</g>
</g>
<!-- Node16&#45;&gt;Node14 -->
<g id="edge21_Node000016_Node000014" class="edge">
<title>Node16&#45;&gt;Node14</title>
<g id="a_edge21_Node000016_Node000014"><a xlink:title=" ">
<path fill="none" stroke="#63b8ff" d="M520.15,-58.38C537.55,-58.38 557.83,-58.38 577.42,-58.38"/>
<polygon fill="#63b8ff" stroke="#63b8ff" points="577.34,-61.88 587.34,-58.38 577.34,-54.88 577.34,-61.88"/>
</a>
</g>
</g>
<!-- Node16&#45;&gt;Node15 -->
<g id="edge22_Node000016_Node000015" class="edge">
<title>Node16&#45;&gt;Node15</title>
<g id="a_edge22_Node000016_Node000015"><a xlink:title=" ">
<path fill="none" stroke="#63b8ff" d="M520.15,-48.53C543.5,-43.62 572.04,-37.62 597.15,-32.34"/>
<polygon fill="#63b8ff" stroke="#63b8ff" points="597.86,-35.76 606.93,-30.28 596.42,-28.91 597.86,-35.76"/>
</a>
</g>
</g>
<!-- Node18 -->
<g id="Node000018" class="node">
<title>Node18</title>
<g id="a_Node000018"><a xlink:href="structImVector.html#a547fff373659fd848c3ecc6b25a83f25" target="_top" xlink:title=" ">
<polygon fill="white" stroke="#666666" points="714.25,-107.75 605.25,-107.75 605.25,-87 714.25,-87 714.25,-107.75"/>
<text text-anchor="middle" x="659.75" y="-94.25" font-family="Helvetica,sans-Serif" font-size="10.00">ImVector::ImVector</text>
</a>
</g>
</g>
<!-- Node17&#45;&gt;Node18 -->
<g id="edge24_Node000017_Node000018" class="edge">
<title>Node17&#45;&gt;Node18</title>
<g id="a_edge24_Node000017_Node000018"><a xlink:title=" ">
<path fill="none" stroke="#63b8ff" d="M518.25,-97.38C540.92,-97.38 568.85,-97.38 593.82,-97.38"/>
<polygon fill="#63b8ff" stroke="#63b8ff" points="593.54,-100.88 603.54,-97.38 593.54,-93.88 593.54,-100.88"/>
</a>
</g>
</g>
</g>
</svg>

<g id="navigator" transform="translate(0 0)" fill="#404254">
  <rect fill="#f2f5e9" fill-opacity="0.5" stroke="#606060" stroke-width=".5" x="0" y="0" width="60" height="60"/>
  <use id="zoomplus" xlink:href="#zoomPlus" x="17" y="9" onmousedown="handleZoom(evt,'in')"/>
  <use id="zoomminus" xlink:href="#zoomMin" x="42" y="9" onmousedown="handleZoom(evt,'out')"/>
  <use id="reset" xlink:href="#resetDef" x="30" y="36" onmousedown="handleReset()"/>
   <use id="arrowup" xlink:href="#arrowUp" x="0" y="0" onmousedown="handlePan(0,-1)"/>
  <use id="arrowright" xlink:href="#arrowRight" x="0" y="0" onmousedown="handlePan(1,0)"/>
  <use id="arrowdown" xlink:href="#arrowDown" x="0" y="0" onmousedown="handlePan(0,1)"/>
  <use id="arrowleft" xlink:href="#arrowLeft" x="0" y="0" onmousedown="handlePan(-1,0)"/>
</g>
<svg viewBox="0 0 15 15" width="100%" height="30px" preserveAspectRatio="xMaxYMin meet">
 <g id="arrow_out" transform="scale(0.3 0.3)">
  <a xlink:href="namespaceImGui_ab9f7d60c2c00ab2bad55e49288983766_cgraph_org.svg" target="_base">
   <rect id="button" ry="5" rx="5" y="6" x="6" height="38" width="38"
        fill="#f2f5e9" fill-opacity="0.5" stroke="#606060" stroke-width="1.0"/>
   <path id="arrow"
     d="M 11.500037,31.436501 C 11.940474,20.09759 22.043105,11.32322 32.158766,21.979434 L 37.068811,17.246167 C 37.068811,17.246167 37.088388,32 37.088388,32 L 22.160133,31.978069 C 22.160133,31.978069 26.997745,27.140456 26.997745,27.140456 C 18.528582,18.264221 13.291696,25.230495 11.500037,31.436501 z"
     style="fill:#404040;"/>
  </a>
 </g>
</svg>

<style type='text/css'>
<![CDATA[
[data-mouse-over-selected='false'] { opacity: 0.7; }
[data-mouse-over-selected='true']  { opacity: 1.0; }
]]>
</style>
<script type="application/ecmascript"><![CDATA[
document.addEventListener('DOMContentLoaded', (event) => {
  highlightEdges();
  highlightAdjacentNodes();
});
]]></script>
</svg>
