<?xml version="1.0" encoding="UTF-8" standalone="no"?>
<!DOCTYPE svg PUBLIC "-//W3C//DTD SVG 1.1//EN"
 "http://www.w3.org/Graphics/SVG/1.1/DTD/svg11.dtd">
<!-- Generated by graphviz version 12.0.0 (20240704.0754)
 -->
<!-- Title: ImGui::GetTextLineHeightWithSpacing Pages: 1 -->
<svg width="520pt" height="183pt"
 viewBox="0.00 0.00 519.50 182.75" xmlns="http://www.w3.org/2000/svg" xmlns:xlink="http://www.w3.org/1999/xlink">
<g id="graph0" class="graph" transform="scale(1 1) rotate(0) translate(4 178.75)">
<title>ImGui::GetTextLineHeightWithSpacing</title>
<!-- Node1 -->
<g id="Node000001" class="node">
<title>Node1</title>
<g id="a_Node000001"><a xlink:title=" ">
<polygon fill="#999999" stroke="#666666" points="511.5,-105.12 370.25,-105.12 370.25,-71.62 511.5,-71.62 511.5,-105.12"/>
<text text-anchor="start" x="378.25" y="-91.62" font-family="Helvetica,sans-Serif" font-size="10.00">ImGui::GetTextLineHeight</text>
<text text-anchor="middle" x="440.88" y="-78.88" font-family="Helvetica,sans-Serif" font-size="10.00">WithSpacing</text>
</a>
</g>
</g>
<!-- Node2 -->
<g id="Node000002" class="node">
<title>Node2</title>
<g id="a_Node000002"><a xlink:href="namespaceImGui.html#a2f37c541760a39c189ebdd86c15b60d9" target="_top" xlink:title=" ">
<polygon fill="white" stroke="#666666" points="315.5,-174.75 200.5,-174.75 200.5,-154 315.5,-154 315.5,-174.75"/>
<text text-anchor="middle" x="258" y="-161.25" font-family="Helvetica,sans-Serif" font-size="10.00">ImGui::BeginListBox</text>
</a>
</g>
</g>
<!-- Node1&#45;&gt;Node2 -->
<g id="edge1_Node000001_Node000002" class="edge">
<title>Node1&#45;&gt;Node2</title>
<g id="a_edge1_Node000001_Node000002"><a xlink:title=" ">
<path fill="none" stroke="#63b8ff" d="M397.91,-110.83C378.79,-120.59 355.68,-131.74 334.25,-140.38 322.17,-145.24 308.69,-149.81 296.52,-153.62"/>
<polygon fill="#63b8ff" stroke="#63b8ff" points="399.46,-113.96 406.74,-106.27 396.25,-107.75 399.46,-113.96"/>
</a>
</g>
</g>
<!-- Node3 -->
<g id="Node000003" class="node">
<title>Node3</title>
<g id="a_Node000003"><a xlink:href="namespaceImGui.html#a94c78076bd40ff548ecd124f95af8710" target="_top" xlink:title=" ">
<polygon fill="white" stroke="#666666" points="116.5,-155.75 29.25,-155.75 29.25,-135 116.5,-135 116.5,-155.75"/>
<text text-anchor="middle" x="72.88" y="-142.25" font-family="Helvetica,sans-Serif" font-size="10.00">ImGui::ListBox</text>
</a>
</g>
</g>
<!-- Node1&#45;&gt;Node3 -->
<g id="edge3_Node000001_Node000003" class="edge">
<title>Node1&#45;&gt;Node3</title>
<g id="a_edge3_Node000001_Node000003"><a xlink:title=" ">
<path fill="none" stroke="#63b8ff" d="M358.59,-103.28C350.38,-104.7 342.15,-106.09 334.25,-107.38 257.82,-119.82 168.46,-132.45 116.79,-139.55"/>
<polygon fill="#63b8ff" stroke="#63b8ff" points="359.02,-106.75 368.27,-101.58 357.82,-99.86 359.02,-106.75"/>
</a>
</g>
</g>
<!-- Node4 -->
<g id="Node000004" class="node">
<title>Node4</title>
<g id="a_Node000004"><a xlink:href="namespaceImGui.html#ac297462e33309d0540fa459bccdc9304" target="_top" xlink:title=" ">
<polygon fill="white" stroke="#666666" points="330.5,-98.75 185.5,-98.75 185.5,-78 330.5,-78 330.5,-98.75"/>
<text text-anchor="middle" x="258" y="-85.25" font-family="Helvetica,sans-Serif" font-size="10.00">ImGui::ShowAboutWindow</text>
</a>
</g>
</g>
<!-- Node1&#45;&gt;Node4 -->
<g id="edge4_Node000001_Node000004" class="edge">
<title>Node1&#45;&gt;Node4</title>
<g id="a_edge4_Node000001_Node000004"><a xlink:title=" ">
<path fill="none" stroke="#63b8ff" d="M358.7,-88.38C349.41,-88.38 339.99,-88.38 330.84,-88.38"/>
<polygon fill="#63b8ff" stroke="#63b8ff" points="358.43,-91.88 368.43,-88.38 358.43,-84.88 358.43,-91.88"/>
</a>
</g>
</g>
<!-- Node6 -->
<g id="Node000006" class="node">
<title>Node6</title>
<g id="a_Node000006"><a xlink:href="namespaceImGui.html#afe7a28c6eb52fff3cc27d5a698fea4ff" target="_top" xlink:title=" ">
<polygon fill="white" stroke="#666666" points="334.25,-59.75 181.75,-59.75 181.75,-39 334.25,-39 334.25,-59.75"/>
<text text-anchor="middle" x="258" y="-46.25" font-family="Helvetica,sans-Serif" font-size="10.00">ImGui::ShowMetricsWindow</text>
</a>
</g>
</g>
<!-- Node1&#45;&gt;Node6 -->
<g id="edge6_Node000001_Node000006" class="edge">
<title>Node1&#45;&gt;Node6</title>
<g id="a_edge6_Node000001_Node000006"><a xlink:title=" ">
<path fill="none" stroke="#63b8ff" d="M358.95,-70.93C342.09,-67.29 324.78,-63.56 309.4,-60.24"/>
<polygon fill="#63b8ff" stroke="#63b8ff" points="357.95,-74.29 368.46,-72.98 359.43,-67.45 357.95,-74.29"/>
</a>
</g>
</g>
<!-- Node7 -->
<g id="Node000007" class="node">
<title>Node7</title>
<g id="a_Node000007"><a xlink:href="namespaceImGui.html#ab2eb3dec78d054fe3feab1c091ec5de5" target="_top" xlink:title=" ">
<polygon fill="white" stroke="#666666" points="323.38,-20.75 192.62,-20.75 192.62,0 323.38,0 323.38,-20.75"/>
<text text-anchor="middle" x="258" y="-7.25" font-family="Helvetica,sans-Serif" font-size="10.00">ImGui::ShowStyleEditor</text>
</a>
</g>
</g>
<!-- Node1&#45;&gt;Node7 -->
<g id="edge8_Node000001_Node000007" class="edge">
<title>Node1&#45;&gt;Node7</title>
<g id="a_edge8_Node000001_Node000007"><a xlink:title=" ">
<path fill="none" stroke="#63b8ff" d="M403.13,-65.32C383.3,-53.62 358.06,-39.91 334.25,-30.38 325.59,-26.91 316.13,-23.86 306.94,-21.25"/>
<polygon fill="#63b8ff" stroke="#63b8ff" points="401.3,-68.3 411.67,-70.44 404.9,-62.29 401.3,-68.3"/>
</a>
</g>
</g>
<!-- Node2&#45;&gt;Node3 -->
<g id="edge2_Node000002_Node000003" class="edge">
<title>Node2&#45;&gt;Node3</title>
<g id="a_edge2_Node000002_Node000003"><a xlink:title=" ">
<path fill="none" stroke="#63b8ff" d="M188.8,-157.3C164.68,-154.8 138.24,-152.05 116.81,-149.83"/>
<polygon fill="#63b8ff" stroke="#63b8ff" points="188.25,-160.76 198.56,-158.31 188.97,-153.8 188.25,-160.76"/>
</a>
</g>
</g>
<!-- Node5 -->
<g id="Node000005" class="node">
<title>Node5</title>
<g id="a_Node000005"><a xlink:href="namespaceImGui.html#af95643a0ce4893b9e57c12991922fb18" target="_top" xlink:title=" ">
<polygon fill="white" stroke="#666666" points="145.75,-59.75 0,-59.75 0,-39 145.75,-39 145.75,-59.75"/>
<text text-anchor="middle" x="72.88" y="-46.25" font-family="Helvetica,sans-Serif" font-size="10.00">ImGui::ShowDemoWindow</text>
</a>
</g>
</g>
<!-- Node4&#45;&gt;Node5 -->
<g id="edge5_Node000004_Node000005" class="edge">
<title>Node4&#45;&gt;Node5</title>
<g id="a_edge5_Node000004_Node000005"><a xlink:title=" ">
<path fill="none" stroke="#63b8ff" d="M194.73,-75.11C172,-70.27 146.57,-64.86 124.93,-60.25"/>
<polygon fill="#63b8ff" stroke="#63b8ff" points="194,-78.54 204.51,-77.2 195.46,-71.69 194,-78.54"/>
</a>
</g>
</g>
<!-- Node6&#45;&gt;Node5 -->
<g id="edge7_Node000006_Node000005" class="edge">
<title>Node6&#45;&gt;Node5</title>
<g id="a_edge7_Node000006_Node000005"><a xlink:title=" ">
<path fill="none" stroke="#63b8ff" d="M170.11,-49.38C162.04,-49.38 153.92,-49.38 146,-49.38"/>
<polygon fill="#63b8ff" stroke="#63b8ff" points="169.95,-52.88 179.95,-49.38 169.95,-45.88 169.95,-52.88"/>
</a>
</g>
</g>
<!-- Node7&#45;&gt;Node5 -->
<g id="edge9_Node000007_Node000005" class="edge">
<title>Node7&#45;&gt;Node5</title>
<g id="a_edge9_Node000007_Node000005"><a xlink:title=" ">
<path fill="none" stroke="#63b8ff" d="M194.73,-23.64C172,-28.48 146.57,-33.89 124.93,-38.5"/>
<polygon fill="#63b8ff" stroke="#63b8ff" points="195.46,-27.06 204.51,-21.55 194,-20.21 195.46,-27.06"/>
</a>
</g>
</g>
</g>
</svg>
