<?xml version="1.0" encoding="UTF-8" standalone="no"?>
<!DOCTYPE svg PUBLIC "-//W3C//DTD SVG 1.1//EN"
 "http://www.w3.org/Graphics/SVG/1.1/DTD/svg11.dtd">
<!-- Generated by graphviz version 11.0.0 (20240428.1522)
 -->
<!-- Title: steppable::__internals::numUtils::roundDown Pages: 1 -->
<!--zoomable 515 -->

<svg id="main" version="1.1" xmlns="http://www.w3.org/2000/svg" xmlns:xlink="http://www.w3.org/1999/xlink" xml:space="preserve" onload="init(evt)">
<style type="text/css"><![CDATA[
.node, .edge {opacity: 0.7;}
.node.selected, .edge.selected {opacity: 1;}
.edge:hover path { stroke: red; }
.edge:hover polygon { stroke: red; fill: red; }
]]></style>

<defs>
  <circle id="rim" cx="0" cy="0" r="7"/>
  <circle id="rim2" cx="0" cy="0" r="3.5"/>
  <g id="zoomPlus">
    <use xlink:href="#rim" fill="#404040"><set attributeName="fill" to="#808080" begin="zoomplus.mouseover" end="zoomplus.mouseout"/></use>
    <path d="M-4,0h8M0,-4v8" fill="none" stroke="white" stroke-width="1.5" pointer-events="none"/>
  </g>
  <g id="zoomMin">
    <use xlink:href="#rim" fill="#404040"><set attributeName="fill" to="#808080" begin="zoomminus.mouseover" end="zoomminus.mouseout"/></use>
    <path d="M-4,0h8" fill="none" stroke="white" stroke-width="1.5" pointer-events="none"/>
  </g>
  <g id="arrowUp" transform="translate(30 24)">
    <use xlink:href="#rim"/>
    <path pointer-events="none" fill="none" stroke="white" stroke-width="1.5" d="M0,-3.0v7 M-2.5,-0.5L0,-3.0L2.5,-0.5"/>
  </g>
  <g id="arrowRight" transform="rotate(90) translate(36 -43)">
    <use xlink:href="#rim"/>
    <path pointer-events="none" fill="none" stroke="white" stroke-width="1.5" d="M0,-3.0v7 M-2.5,-0.5L0,-3.0L2.5,-0.5"/>
  </g>
  <g id="arrowDown" transform="rotate(180) translate(-30 -48)">
    <use xlink:href="#rim"/>
    <path pointer-events="none" fill="none" stroke="white" stroke-width="1.5" d="M0,-3.0v7 M-2.5,-0.5L0,-3.0L2.5,-0.5"/>
  </g>
  <g id="arrowLeft" transform="rotate(270) translate(-36 17)">
    <use xlink:href="#rim"/>
    <path pointer-events="none" fill="none" stroke="white" stroke-width="1.5" d="M0,-3.0v7 M-2.5,-0.5L0,-3.0L2.5,-0.5"/>
  </g>
  <g id="resetDef">
    <use xlink:href="#rim2" fill="#404040"><set attributeName="fill" to="#808080" begin="reset.mouseover" end="reset.mouseout"/></use>
  </g>
</defs>
<script type="application/ecmascript">
var viewWidth = 2022;
var viewHeight = 515;
var sectionId = 'dynsection-21';
</script>
<script type="application/ecmascript" xlink:href="svg.min.js"/>
<svg id="graph" class="graph">
<g id="viewport">
<title>steppable::__internals::numUtils::roundDown</title>
<!-- Node1 -->
<g id="Node000001" class="node">
<title>Node1</title>
<g id="a_Node000001"><a xlink:title="Round down a number to the nearest integer.">
<polygon fill="#999999" stroke="#666666" points="2013.75,-282.5 1886,-282.5 1886,-249 2013.75,-249 2013.75,-282.5"/>
<text text-anchor="start" x="1894" y="-269" font-family="Helvetica,sans-Serif" font-size="10.00">steppable::__internals</text>
<text text-anchor="middle" x="1949.88" y="-256.25" font-family="Helvetica,sans-Serif" font-size="10.00">::numUtils::roundDown</text>
</a>
</g>
</g>
<!-- Node2 -->
<g id="Node000002" class="node">
<title>Node2</title>
<g id="a_Node000002"><a xlink:href="namespacesteppable_1_1____internals_1_1arithmetic.html#a6f1429e9d7719e6376dc68ae28d36dbe" target="_top" xlink:title="Gets the integer part of the root of a number.">
<polygon fill="white" stroke="#666666" points="1850,-260.5 1720.75,-260.5 1720.75,-227 1850,-227 1850,-260.5"/>
<text text-anchor="start" x="1728.75" y="-247" font-family="Helvetica,sans-Serif" font-size="10.00">steppable::__internals</text>
<text text-anchor="middle" x="1785.38" y="-234.25" font-family="Helvetica,sans-Serif" font-size="10.00">::arithmetic::rootIntPart</text>
</a>
</g>
</g>
<!-- Node1&#45;&gt;Node2 -->
<g id="edge1_Node000001_Node000002" class="edge">
<title>Node1&#45;&gt;Node2</title>
<g id="a_edge1_Node000001_Node000002"><a xlink:title=" ">
<path fill="none" stroke="#63b8ff" d="M1874.33,-255.66C1866.3,-254.57 1858.18,-253.47 1850.3,-252.4"/>
<polygon fill="#63b8ff" stroke="#63b8ff" points="1873.7,-259.1 1884.08,-256.98 1874.64,-252.17 1873.7,-259.1"/>
</a>
</g>
</g>
<!-- Node6 -->
<g id="Node000006" class="node">
<title>Node6</title>
<g id="a_Node000006"><a xlink:href="namespacesteppable_1_1____internals_1_1arithmetic.html#a118bc6cb979317a7c762ee90fb44d0a4" target="_top" xlink:title="Converts a root operation into a surd.">
<polygon fill="white" stroke="#666666" points="1349.75,-289.5 1226.5,-289.5 1226.5,-256 1349.75,-256 1349.75,-289.5"/>
<text text-anchor="start" x="1234.5" y="-276" font-family="Helvetica,sans-Serif" font-size="10.00">steppable::__internals</text>
<text text-anchor="middle" x="1288.12" y="-263.25" font-family="Helvetica,sans-Serif" font-size="10.00">::arithmetic::rootSurd</text>
</a>
</g>
</g>
<!-- Node1&#45;&gt;Node6 -->
<g id="edge40_Node000001_Node000006" class="edge">
<title>Node1&#45;&gt;Node6</title>
<g id="a_edge40_Node000001_Node000006"><a xlink:title=" ">
<path fill="none" stroke="#63b8ff" d="M1874.13,-268.92C1865.99,-269.22 1857.82,-269.51 1850,-269.75 1643.74,-276.15 1592.06,-281.02 1385.75,-276.75 1374.25,-276.51 1361.99,-276.12 1350.19,-275.66"/>
<polygon fill="#63b8ff" stroke="#63b8ff" points="1874.21,-272.42 1884.07,-268.55 1873.95,-265.43 1874.21,-272.42"/>
</a>
</g>
</g>
<!-- Node3 -->
<g id="Node000003" class="node">
<title>Node3</title>
<g id="a_Node000003"><a xlink:href="namespacesteppable_1_1____internals_1_1numUtils.html#a9af210044669c6dd27a2fca4723fe831" target="_top" xlink:title="Get the greatest root number less than or equal to the given number.">
<polygon fill="white" stroke="#666666" points="867.12,-397.5 691.38,-397.5 691.38,-364 867.12,-364 867.12,-397.5"/>
<text text-anchor="start" x="699.38" y="-384" font-family="Helvetica,sans-Serif" font-size="10.00">steppable::__internals</text>
<text text-anchor="middle" x="779.25" y="-371.25" font-family="Helvetica,sans-Serif" font-size="10.00">::numUtils::getGreatestRootNum</text>
</a>
</g>
</g>
<!-- Node2&#45;&gt;Node3 -->
<g id="edge2_Node000002_Node000003" class="edge">
<title>Node2&#45;&gt;Node3</title>
<g id="a_edge2_Node000002_Node000003"><a xlink:title=" ">
<path fill="none" stroke="#63b8ff" d="M1745.95,-266.38C1686.19,-299.36 1566.44,-356.75 1456.62,-356.75 1456.62,-356.75 1456.62,-356.75 1127.88,-356.75 1038.95,-356.75 937.53,-364.66 867.28,-371.4"/>
<polygon fill="#63b8ff" stroke="#63b8ff" points="1747.37,-269.59 1754.38,-261.65 1743.95,-263.48 1747.37,-269.59"/>
</a>
</g>
</g>
<!-- Node4 -->
<g id="Node000004" class="node">
<title>Node4</title>
<g id="a_Node000004"><a xlink:href="namespacesteppable_1_1____internals_1_1numUtils.html#a07e07f04261f727113c0cfcb02afc6db" target="_top" xlink:title="Check if a number is a root number.">
<polygon fill="white" stroke="#666666" points="1684.75,-199.5 1561.5,-199.5 1561.5,-166 1684.75,-166 1684.75,-199.5"/>
<text text-anchor="start" x="1569.5" y="-186" font-family="Helvetica,sans-Serif" font-size="10.00">steppable::__internals</text>
<text text-anchor="middle" x="1623.12" y="-173.25" font-family="Helvetica,sans-Serif" font-size="10.00">::numUtils::isRoot</text>
</a>
</g>
</g>
<!-- Node2&#45;&gt;Node4 -->
<g id="edge3_Node000002_Node000004" class="edge">
<title>Node2&#45;&gt;Node4</title>
<g id="a_edge3_Node000002_Node000004"><a xlink:title=" ">
<path fill="none" stroke="#63b8ff" d="M1728.78,-222.59C1709.39,-215.21 1687.86,-207.01 1669.41,-199.99"/>
<polygon fill="#63b8ff" stroke="#63b8ff" points="1727.3,-225.77 1737.9,-226.06 1729.79,-219.23 1727.3,-225.77"/>
</a>
</g>
</g>
<!-- Node2&#45;&gt;Node6 -->
<g id="edge39_Node000002_Node000006" class="edge">
<title>Node2&#45;&gt;Node6</title>
<g id="a_edge39_Node000002_Node000006"><a xlink:title=" ">
<path fill="none" stroke="#63b8ff" d="M1709.07,-248.16C1610.84,-253.91 1440.86,-263.86 1350.21,-269.17"/>
<polygon fill="#63b8ff" stroke="#63b8ff" points="1709.1,-251.66 1718.88,-247.59 1708.69,-244.68 1709.1,-251.66"/>
</a>
</g>
</g>
<!-- Node5 -->
<g id="Node000005" class="node">
<title>Node5</title>
<g id="a_Node000005"><a xlink:href="namespacesteppable_1_1____internals_1_1numUtils.html#a56e89ee4d61b127912e22822a2323558" target="_top" xlink:title="Get the largest factor of a number, that is a root number.">
<polygon fill="white" stroke="#666666" points="1525.5,-199.5 1385.75,-199.5 1385.75,-166 1525.5,-166 1525.5,-199.5"/>
<text text-anchor="start" x="1393.75" y="-186" font-family="Helvetica,sans-Serif" font-size="10.00">steppable::__internals</text>
<text text-anchor="middle" x="1455.62" y="-173.25" font-family="Helvetica,sans-Serif" font-size="10.00">::numUtils::getRootFactor</text>
</a>
</g>
</g>
<!-- Node4&#45;&gt;Node5 -->
<g id="edge4_Node000004_Node000005" class="edge">
<title>Node4&#45;&gt;Node5</title>
<g id="a_edge4_Node000004_Node000005"><a xlink:title=" ">
<path fill="none" stroke="#63b8ff" d="M1550.2,-182.75C1542.16,-182.75 1533.99,-182.75 1525.98,-182.75"/>
<polygon fill="#63b8ff" stroke="#63b8ff" points="1549.93,-186.25 1559.93,-182.75 1549.93,-179.25 1549.93,-186.25"/>
</a>
</g>
</g>
<!-- Node5&#45;&gt;Node6 -->
<g id="edge5_Node000005_Node000006" class="edge">
<title>Node5&#45;&gt;Node6</title>
<g id="a_edge5_Node000005_Node000006"><a xlink:title=" ">
<path fill="none" stroke="#63b8ff" d="M1413,-205.38C1384.4,-220.94 1347,-241.28 1320.81,-255.52"/>
<polygon fill="#63b8ff" stroke="#63b8ff" points="1414.66,-208.47 1421.78,-200.61 1411.32,-202.32 1414.66,-208.47"/>
</a>
</g>
</g>
<!-- Node7 -->
<g id="Node000007" class="node">
<title>Node7</title>
<g id="a_Node000007"><a xlink:href="namespacesteppable_1_1____internals_1_1arithmetic.html#a4aa89d1787b7578cd2ed73392bdcd7df" target="_top" xlink:title="Takes the n&#45;th root of a numer.">
<polygon fill="white" stroke="#666666" points="1190.5,-289.5 1067.25,-289.5 1067.25,-256 1190.5,-256 1190.5,-289.5"/>
<text text-anchor="start" x="1075.25" y="-276" font-family="Helvetica,sans-Serif" font-size="10.00">steppable::__internals</text>
<text text-anchor="middle" x="1128.88" y="-263.25" font-family="Helvetica,sans-Serif" font-size="10.00">::arithmetic::root</text>
</a>
</g>
</g>
<!-- Node6&#45;&gt;Node7 -->
<g id="edge6_Node000006_Node000007" class="edge">
<title>Node6&#45;&gt;Node7</title>
<g id="a_edge6_Node000006_Node000007"><a xlink:title=" ">
<path fill="none" stroke="#63b8ff" d="M1214.98,-272.75C1206.89,-272.75 1198.7,-272.75 1190.77,-272.75"/>
<polygon fill="#63b8ff" stroke="#63b8ff" points="1214.81,-276.25 1224.81,-272.75 1214.81,-269.25 1214.81,-276.25"/>
</a>
</g>
</g>
<!-- Node8 -->
<g id="Node000008" class="node">
<title>Node8</title>
<g id="a_Node000008"><a xlink:href="namespacesteppable_1_1____internals_1_1arithmetic.html#a50acfa1ad06ce385943ddd207146c9e0" target="_top" xlink:title="Raises a string representation of a number to a power.">
<polygon fill="white" stroke="#666666" points="1031.25,-255.5 908,-255.5 908,-222 1031.25,-222 1031.25,-255.5"/>
<text text-anchor="start" x="916" y="-242" font-family="Helvetica,sans-Serif" font-size="10.00">steppable::__internals</text>
<text text-anchor="middle" x="969.62" y="-229.25" font-family="Helvetica,sans-Serif" font-size="10.00">::arithmetic::power</text>
</a>
</g>
</g>
<!-- Node7&#45;&gt;Node8 -->
<g id="edge7_Node000007_Node000008" class="edge">
<title>Node7&#45;&gt;Node8</title>
<g id="a_edge7_Node000007_Node000008"><a xlink:title=" ">
<path fill="none" stroke="#63b8ff" d="M1056.01,-257.21C1047.83,-255.44 1039.54,-253.65 1031.52,-251.92"/>
<polygon fill="#63b8ff" stroke="#63b8ff" points="1055.08,-260.59 1065.6,-259.28 1056.56,-253.75 1055.08,-260.59"/>
</a>
</g>
</g>
<!-- Node8&#45;&gt;Node2 -->
<g id="edge38_Node000008_Node000002" class="edge">
<title>Node8&#45;&gt;Node2</title>
<g id="a_edge38_Node000008_Node000002"><a xlink:title=" ">
<path fill="none" stroke="#63b8ff" d="M1042.77,-234.82C1106.9,-231.66 1203.23,-227.75 1287.12,-227.75 1456.62,-227.75 1456.62,-227.75 1456.62,-227.75 1548.34,-227.75 1654.33,-234.08 1720.36,-238.78"/>
<polygon fill="#63b8ff" stroke="#63b8ff" points="1042.9,-231.3 1033.09,-235.3 1043.25,-238.3 1042.9,-231.3"/>
</a>
</g>
</g>
<!-- Node8&#45;&gt;Node3 -->
<g id="edge33_Node000008_Node000003" class="edge">
<title>Node8&#45;&gt;Node3</title>
<g id="a_edge33_Node000008_Node000003"><a xlink:title=" ">
<path fill="none" stroke="#63b8ff" d="M951.74,-265.21C934.49,-290.26 905.54,-327.28 872,-349.75 863.9,-355.18 854.76,-359.74 845.46,-363.54"/>
<polygon fill="#63b8ff" stroke="#63b8ff" points="954.46,-267.44 957.13,-257.18 948.65,-263.53 954.46,-267.44"/>
</a>
</g>
</g>
<!-- Node8&#45;&gt;Node4 -->
<g id="edge34_Node000008_Node000004" class="edge">
<title>Node8&#45;&gt;Node4</title>
<g id="a_edge34_Node000008_Node000004"><a xlink:title=" ">
<path fill="none" stroke="#63b8ff" d="M1032.56,-218.25C1135,-186.9 1346.2,-133.05 1525.5,-156.75 1539.54,-158.61 1554.43,-161.91 1568.21,-165.56"/>
<polygon fill="#63b8ff" stroke="#63b8ff" points="1031.77,-214.83 1023.25,-221.13 1033.84,-221.52 1031.77,-214.83"/>
</a>
</g>
</g>
<!-- Node8&#45;&gt;Node8 -->
<g id="edge37_Node000008_Node000008" class="edge">
<title>Node8&#45;&gt;Node8</title>
<g id="a_edge37_Node000008_Node000008"><a xlink:title=" ">
<path fill="none" stroke="#63b8ff" d="M996.36,-266.89C992.01,-270.85 983.1,-273.5 969.62,-273.5 945.68,-273.5 936.13,-265.12 941,-255.91"/>
<polygon fill="#63b8ff" stroke="#63b8ff" points="999.75,-267.85 998,-257.41 992.85,-266.67 999.75,-267.85"/>
</a>
</g>
</g>
<!-- Node9 -->
<g id="Node000009" class="node">
<title>Node9</title>
<g id="a_Node000009"><a xlink:href="namespacesteppable_1_1____internals_1_1arithmetic.html#a1eedcdd2349ec452f6319cd0ff443e0a" target="_top" xlink:title=" ">
<polygon fill="white" stroke="#666666" points="466.5,-352.5 343.25,-352.5 343.25,-319 466.5,-319 466.5,-352.5"/>
<text text-anchor="start" x="351.25" y="-339" font-family="Helvetica,sans-Serif" font-size="10.00">steppable::__internals</text>
<text text-anchor="middle" x="404.88" y="-326.25" font-family="Helvetica,sans-Serif" font-size="10.00">::arithmetic::_root</text>
</a>
</g>
</g>
<!-- Node8&#45;&gt;Node9 -->
<g id="edge8_Node000008_Node000009" class="edge">
<title>Node8&#45;&gt;Node9</title>
<g id="a_edge8_Node000008_Node000009"><a xlink:title=" ">
<path fill="none" stroke="#63b8ff" d="M946.31,-263.88C928.3,-282.24 901.22,-305.75 872,-316.75 734.61,-368.45 558.11,-356.47 466.75,-345.06"/>
<polygon fill="#63b8ff" stroke="#63b8ff" points="948.53,-266.63 952.88,-256.98 943.46,-261.81 948.53,-266.63"/>
</a>
</g>
</g>
<!-- Node10 -->
<g id="Node000010" class="node">
<title>Node10</title>
<g id="a_Node000010"><a xlink:href="namespacesteppable_1_1____internals_1_1arithmetic.html#afc4c4f319dadbb5b1ff481132f008374" target="_top" xlink:title="Converts a string representation of a number from any base to decimal.">
<polygon fill="white" stroke="#666666" points="857,-151.5 701.5,-151.5 701.5,-118 857,-118 857,-151.5"/>
<text text-anchor="start" x="709.5" y="-138" font-family="Helvetica,sans-Serif" font-size="10.00">steppable::__internals</text>
<text text-anchor="middle" x="779.25" y="-125.25" font-family="Helvetica,sans-Serif" font-size="10.00">::arithmetic::decimalConvert</text>
</a>
</g>
</g>
<!-- Node8&#45;&gt;Node10 -->
<g id="edge11_Node000008_Node000010" class="edge">
<title>Node8&#45;&gt;Node10</title>
<g id="a_edge11_Node000008_Node000010"><a xlink:title=" ">
<path fill="none" stroke="#63b8ff" d="M943.88,-214.03C925.46,-196.88 898.94,-174.7 872,-160.75 865.68,-157.48 858.89,-154.57 851.97,-152"/>
<polygon fill="#63b8ff" stroke="#63b8ff" points="941.24,-216.34 950.89,-220.7 946.06,-211.27 941.24,-216.34"/>
</a>
</g>
</g>
<!-- Node11 -->
<g id="Node000011" class="node">
<title>Node11</title>
<g id="a_Node000011"><a xlink:href="namespacesteppable_1_1____internals_1_1arithmetic.html#aa150ef39a272f7228ae239679247fab3" target="_top" xlink:title="Determines the scale of the quotient of division.">
<polygon fill="white" stroke="#666666" points="872,-307.5 686.5,-307.5 686.5,-274 872,-274 872,-307.5"/>
<text text-anchor="start" x="694.5" y="-294" font-family="Helvetica,sans-Serif" font-size="10.00">steppable::__internals</text>
<text text-anchor="middle" x="779.25" y="-281.25" font-family="Helvetica,sans-Serif" font-size="10.00">::arithmetic::determineResultScale</text>
</a>
</g>
</g>
<!-- Node8&#45;&gt;Node11 -->
<g id="edge12_Node000008_Node000011" class="edge">
<title>Node8&#45;&gt;Node11</title>
<g id="a_edge12_Node000008_Node000011"><a xlink:title=" ">
<path fill="none" stroke="#63b8ff" d="M896.78,-258.58C878.91,-263.51 859.92,-268.76 842.56,-273.55"/>
<polygon fill="#63b8ff" stroke="#63b8ff" points="897.56,-262 906.27,-255.96 895.7,-255.25 897.56,-262"/>
</a>
</g>
</g>
<!-- Node28 -->
<g id="Node000028" class="node">
<title>Node28</title>
<g id="a_Node000028"><a xlink:href="classsteppable_1_1Fraction.html#abaf8678e0b61e3097789959b66e4c23c" target="_top" xlink:title="Raises the fraction to a power.">
<polygon fill="white" stroke="#666666" points="833.75,-255.5 724.75,-255.5 724.75,-222 833.75,-222 833.75,-255.5"/>
<text text-anchor="start" x="732.75" y="-242" font-family="Helvetica,sans-Serif" font-size="10.00">steppable::Fraction</text>
<text text-anchor="middle" x="779.25" y="-229.25" font-family="Helvetica,sans-Serif" font-size="10.00">::operator^</text>
</a>
</g>
</g>
<!-- Node8&#45;&gt;Node28 -->
<g id="edge35_Node000008_Node000028" class="edge">
<title>Node8&#45;&gt;Node28</title>
<g id="a_edge35_Node000008_Node000028"><a xlink:title=" ">
<path fill="none" stroke="#63b8ff" d="M896.38,-238.75C875.63,-238.75 853.37,-238.75 833.96,-238.75"/>
<polygon fill="#63b8ff" stroke="#63b8ff" points="896.21,-242.25 906.21,-238.75 896.21,-235.25 896.21,-242.25"/>
</a>
</g>
</g>
<!-- Node29 -->
<g id="Node000029" class="node">
<title>Node29</title>
<g id="a_Node000029"><a xlink:href="classsteppable_1_1Number.html#ae3e13c5f73bc67cd464c84a8640e1387" target="_top" xlink:title="Raises the number to a power.">
<polygon fill="white" stroke="#666666" points="836.75,-203.5 721.75,-203.5 721.75,-170 836.75,-170 836.75,-203.5"/>
<text text-anchor="start" x="729.75" y="-190" font-family="Helvetica,sans-Serif" font-size="10.00">steppable::Number::</text>
<text text-anchor="middle" x="779.25" y="-177.25" font-family="Helvetica,sans-Serif" font-size="10.00">operator^</text>
</a>
</g>
</g>
<!-- Node8&#45;&gt;Node29 -->
<g id="edge36_Node000008_Node000029" class="edge">
<title>Node8&#45;&gt;Node29</title>
<g id="a_edge36_Node000008_Node000029"><a xlink:title=" ">
<path fill="none" stroke="#63b8ff" d="M896.9,-218.95C877.11,-213.49 855.92,-207.64 837.1,-202.44"/>
<polygon fill="#63b8ff" stroke="#63b8ff" points="895.7,-222.25 906.27,-221.54 897.56,-215.5 895.7,-222.25"/>
</a>
</g>
</g>
<!-- Node9&#45;&gt;Node7 -->
<g id="edge10_Node000009_Node000007" class="edge">
<title>Node9&#45;&gt;Node7</title>
<g id="a_edge10_Node000009_Node000007"><a xlink:title=" ">
<path fill="none" stroke="#63b8ff" d="M458.15,-356.91C545,-389.13 724.12,-443.13 872,-406.75 965.01,-383.87 1061.66,-320.54 1104.75,-289.85"/>
<polygon fill="#63b8ff" stroke="#63b8ff" points="459.53,-353.69 448.93,-353.44 457.06,-360.24 459.53,-353.69"/>
</a>
</g>
</g>
<!-- Node9&#45;&gt;Node9 -->
<g id="edge9_Node000009_Node000009" class="edge">
<title>Node9&#45;&gt;Node9</title>
<g id="a_edge9_Node000009_Node000009"><a xlink:title=" ">
<path fill="none" stroke="#63b8ff" d="M435.77,-363.89C430.74,-367.85 420.44,-370.5 404.88,-370.5 377.2,-370.5 366.18,-362.12 371.8,-352.91"/>
<polygon fill="#63b8ff" stroke="#63b8ff" points="439.14,-364.89 437.66,-354.4 432.27,-363.52 439.14,-364.89"/>
</a>
</g>
</g>
<!-- Node12 -->
<g id="Node000012" class="node">
<title>Node12</title>
<g id="a_Node000012"><a xlink:href="namespacesteppable_1_1____internals_1_1arithmetic.html#a26194ae8ddb44afb942fbf8335ae1730" target="_top" xlink:title="Divides a string representation of a number by another string representation of a number.">
<polygon fill="white" stroke="#666666" points="650.5,-153.5 527.25,-153.5 527.25,-120 650.5,-120 650.5,-153.5"/>
<text text-anchor="start" x="535.25" y="-140" font-family="Helvetica,sans-Serif" font-size="10.00">steppable::__internals</text>
<text text-anchor="middle" x="588.88" y="-127.25" font-family="Helvetica,sans-Serif" font-size="10.00">::arithmetic::divide</text>
</a>
</g>
</g>
<!-- Node11&#45;&gt;Node12 -->
<g id="edge13_Node000011_Node000012" class="edge">
<title>Node11&#45;&gt;Node12</title>
<g id="a_edge13_Node000011_Node000012"><a xlink:title=" ">
<path fill="none" stroke="#63b8ff" d="M692.2,-268.36C690.25,-267.21 688.34,-266.01 686.5,-264.75 643.76,-235.5 612.12,-181.18 598.01,-153.67"/>
<polygon fill="#63b8ff" stroke="#63b8ff" points="690.5,-271.42 700.99,-272.91 693.72,-265.2 690.5,-271.42"/>
</a>
</g>
</g>
<!-- Node12&#45;&gt;Node2 -->
<g id="edge22_Node000012_Node000002" class="edge">
<title>Node12&#45;&gt;Node2</title>
<g id="a_edge22_Node000012_Node000002"><a xlink:title=" ">
<path fill="none" stroke="#63b8ff" d="M633.77,-114.81C650,-107.47 668.77,-99.86 686.5,-94.75 808.37,-59.62 841.79,-51.75 968.62,-51.75 1456.62,-51.75 1456.62,-51.75 1456.62,-51.75 1594.45,-51.75 1725.68,-179.72 1769.23,-226.71"/>
<polygon fill="#63b8ff" stroke="#63b8ff" points="632.49,-111.55 624.88,-118.93 635.43,-117.9 632.49,-111.55"/>
</a>
</g>
</g>
<!-- Node12&#45;&gt;Node6 -->
<g id="edge23_Node000012_Node000006" class="edge">
<title>Node12&#45;&gt;Node6</title>
<g id="a_edge23_Node000012_Node000006"><a xlink:title=" ">
<path fill="none" stroke="#63b8ff" d="M649.78,-116.56C661.81,-113.31 674.45,-110.46 686.5,-108.75 768.13,-97.16 791.01,-93.33 872,-108.75 1022.53,-137.41 1188.21,-219.65 1255.81,-255.59"/>
<polygon fill="#63b8ff" stroke="#63b8ff" points="649.06,-113.13 640.4,-119.22 650.97,-119.86 649.06,-113.13"/>
</a>
</g>
</g>
<!-- Node12&#45;&gt;Node9 -->
<g id="edge14_Node000012_Node000009" class="edge">
<title>Node12&#45;&gt;Node9</title>
<g id="a_edge14_Node000012_Node000009"><a xlink:title=" ">
<path fill="none" stroke="#63b8ff" d="M579.32,-164.51C566.3,-202.26 537.97,-269.45 491.25,-307.75 484.01,-313.68 475.48,-318.37 466.65,-322.08"/>
<polygon fill="#63b8ff" stroke="#63b8ff" points="582.57,-165.84 582.4,-155.24 575.93,-163.63 582.57,-165.84"/>
</a>
</g>
</g>
<!-- Node13 -->
<g id="Node000013" class="node">
<title>Node13</title>
<g id="a_Node000013"><a xlink:href="namespacesteppable_1_1____internals_1_1arithmetic.html#a814abbd0fc1772320626c4c0ca3f677a" target="_top" xlink:title="Converts a string representation of a number from decimal to another one.">
<polygon fill="white" stroke="#666666" points="474.75,-179.5 335,-179.5 335,-146 474.75,-146 474.75,-179.5"/>
<text text-anchor="start" x="343" y="-166" font-family="Helvetica,sans-Serif" font-size="10.00">steppable::__internals</text>
<text text-anchor="middle" x="404.88" y="-153.25" font-family="Helvetica,sans-Serif" font-size="10.00">::arithmetic::baseConvert</text>
</a>
</g>
</g>
<!-- Node12&#45;&gt;Node13 -->
<g id="edge15_Node000012_Node000013" class="edge">
<title>Node12&#45;&gt;Node13</title>
<g id="a_edge15_Node000012_Node000013"><a xlink:title=" ">
<path fill="none" stroke="#63b8ff" d="M515.67,-147.07C502.26,-148.98 488.29,-150.98 474.98,-152.88"/>
<polygon fill="#63b8ff" stroke="#63b8ff" points="515.86,-150.57 525.27,-145.69 514.87,-143.64 515.86,-150.57"/>
</a>
</g>
</g>
<!-- Node14 -->
<g id="Node000014" class="node">
<title>Node14</title>
<g id="a_Node000014"><a xlink:href="namespacesteppable_1_1____internals_1_1arithmetic.html#ac9102075acd398b3bdf388f6cc2ef978" target="_top" xlink:title=" ">
<polygon fill="white" stroke="#666666" points="491.25,-127.5 318.5,-127.5 318.5,-94 491.25,-94 491.25,-127.5"/>
<text text-anchor="start" x="326.5" y="-114" font-family="Helvetica,sans-Serif" font-size="10.00">steppable::__internals</text>
<text text-anchor="middle" x="404.88" y="-101.25" font-family="Helvetica,sans-Serif" font-size="10.00">::arithmetic::divideWithQuotient</text>
</a>
</g>
</g>
<!-- Node12&#45;&gt;Node14 -->
<g id="edge16_Node000012_Node000014" class="edge">
<title>Node12&#45;&gt;Node14</title>
<g id="a_edge16_Node000012_Node000014"><a xlink:title=" ">
<path fill="none" stroke="#63b8ff" d="M515.49,-126.41C507.68,-125.29 499.69,-124.15 491.74,-123.02"/>
<polygon fill="#63b8ff" stroke="#63b8ff" points="514.87,-129.86 525.27,-127.81 515.86,-122.93 514.87,-129.86"/>
</a>
</g>
</g>
<!-- Node18 -->
<g id="Node000018" class="node">
<title>Node18</title>
<g id="a_Node000018"><a xlink:href="classsteppable_1_1Number.html#aebdaf5d342a2a897793556bd390bc184" target="_top" xlink:title="Divides two numbers.">
<polygon fill="white" stroke="#666666" points="462.38,-75.5 347.38,-75.5 347.38,-42 462.38,-42 462.38,-75.5"/>
<text text-anchor="start" x="355.38" y="-62" font-family="Helvetica,sans-Serif" font-size="10.00">steppable::Number::</text>
<text text-anchor="middle" x="404.88" y="-49.25" font-family="Helvetica,sans-Serif" font-size="10.00">operator/</text>
</a>
</g>
</g>
<!-- Node12&#45;&gt;Node18 -->
<g id="edge21_Node000012_Node000018" class="edge">
<title>Node12&#45;&gt;Node18</title>
<g id="a_edge21_Node000012_Node000018"><a xlink:title=" ">
<path fill="none" stroke="#63b8ff" d="M549.64,-113.91C532.22,-104.1 511.1,-93.02 491.25,-84.75 482.1,-80.94 472.18,-77.41 462.46,-74.25"/>
<polygon fill="#63b8ff" stroke="#63b8ff" points="547.7,-116.83 558.12,-118.76 551.18,-110.75 547.7,-116.83"/>
</a>
</g>
</g>
<!-- Node19 -->
<g id="Node000019" class="node">
<title>Node19</title>
<g id="a_Node000019"><a xlink:href="classsteppable_1_1Fraction.html#a9cf64d847c268d9334775c572ef75dfa" target="_top" xlink:title="Simplifies a fraction. This function simplifies the fraction by dividing the top and bottom component...">
<polygon fill="white" stroke="#666666" points="459.38,-298.5 350.38,-298.5 350.38,-265 459.38,-265 459.38,-298.5"/>
<text text-anchor="start" x="358.38" y="-285" font-family="Helvetica,sans-Serif" font-size="10.00">steppable::Fraction</text>
<text text-anchor="middle" x="404.88" y="-272.25" font-family="Helvetica,sans-Serif" font-size="10.00">::simplify</text>
</a>
</g>
</g>
<!-- Node12&#45;&gt;Node19 -->
<g id="edge24_Node000012_Node000019" class="edge">
<title>Node12&#45;&gt;Node19</title>
<g id="a_edge24_Node000012_Node000019"><a xlink:title=" ">
<path fill="none" stroke="#63b8ff" d="M557.49,-160.96C520.71,-190.26 459.71,-238.86 427.44,-264.57"/>
<polygon fill="#63b8ff" stroke="#63b8ff" points="559.46,-163.86 565.1,-154.9 555.1,-158.39 559.46,-163.86"/>
</a>
</g>
</g>
<!-- Node15 -->
<g id="Node000015" class="node">
<title>Node15</title>
<g id="a_Node000015"><a xlink:href="namespacesteppable_1_1____internals_1_1numUtils.html#a5eeb396144a9e1d3edd3339abb6f434f" target="_top" xlink:title="Get the factors of a number.">
<polygon fill="white" stroke="#666666" points="282.5,-33.5 159.25,-33.5 159.25,0 282.5,0 282.5,-33.5"/>
<text text-anchor="start" x="167.25" y="-20" font-family="Helvetica,sans-Serif" font-size="10.00">steppable::__internals</text>
<text text-anchor="middle" x="220.88" y="-7.25" font-family="Helvetica,sans-Serif" font-size="10.00">::numUtils::getFactors</text>
</a>
</g>
</g>
<!-- Node14&#45;&gt;Node15 -->
<g id="edge17_Node000014_Node000015" class="edge">
<title>Node14&#45;&gt;Node15</title>
<g id="a_edge17_Node000014_Node000015"><a xlink:title=" ">
<path fill="none" stroke="#63b8ff" d="M325.59,-88.73C323.16,-87.47 320.79,-86.14 318.5,-84.75 298.91,-72.81 300.96,-61.38 282.5,-47.75 275.65,-42.7 267.86,-38.03 260.2,-33.94"/>
<polygon fill="#63b8ff" stroke="#63b8ff" points="323.94,-91.82 334.48,-92.89 326.9,-85.48 323.94,-91.82"/>
</a>
</g>
</g>
<!-- Node17 -->
<g id="Node000017" class="node">
<title>Node17</title>
<g id="a_Node000017"><a xlink:href="classsteppable_1_1Number.html#a719a8a93fcfe91b30c38ba0830d6de50" target="_top" xlink:title="Calculates the remainder of two numbers. (Modulus)">
<polygon fill="white" stroke="#666666" points="278.38,-90.5 163.38,-90.5 163.38,-57 278.38,-57 278.38,-90.5"/>
<text text-anchor="start" x="171.38" y="-77" font-family="Helvetica,sans-Serif" font-size="10.00">steppable::Number::</text>
<text text-anchor="middle" x="220.88" y="-64.25" font-family="Helvetica,sans-Serif" font-size="10.00">operator%</text>
</a>
</g>
</g>
<!-- Node14&#45;&gt;Node17 -->
<g id="edge20_Node000014_Node000017" class="edge">
<title>Node14&#45;&gt;Node17</title>
<g id="a_edge20_Node000014_Node000017"><a xlink:title=" ">
<path fill="none" stroke="#63b8ff" d="M308.3,-91.32C298.2,-89.27 288.18,-87.23 278.73,-85.31"/>
<polygon fill="#63b8ff" stroke="#63b8ff" points="307.29,-94.69 317.79,-93.25 308.68,-87.83 307.29,-94.69"/>
</a>
</g>
</g>
<!-- Node15&#45;&gt;Node5 -->
<g id="edge18_Node000015_Node000005" class="edge">
<title>Node15&#45;&gt;Node5</title>
<g id="a_edge18_Node000015_Node000005"><a xlink:title=" ">
<path fill="none" stroke="#63b8ff" d="M294.21,-15.81C368.04,-14.93 485.94,-13.75 587.88,-13.75 1129.88,-13.75 1129.88,-13.75 1129.88,-13.75 1260.49,-13.75 1390.67,-122.65 1436.95,-165.62"/>
<polygon fill="#63b8ff" stroke="#63b8ff" points="294.22,-12.31 284.26,-15.93 294.3,-19.31 294.22,-12.31"/>
</a>
</g>
</g>
<!-- Node16 -->
<g id="Node000016" class="node">
<title>Node16</title>
<g id="a_Node000016"><a xlink:href="namespacesteppable_1_1____internals_1_1numUtils.html#a1a51aabb1fe846587df780d136efd45f" target="_top" xlink:title="Check if a number is prime.">
<polygon fill="white" stroke="#666666" points="123.25,-33.5 0,-33.5 0,0 123.25,0 123.25,-33.5"/>
<text text-anchor="start" x="8" y="-20" font-family="Helvetica,sans-Serif" font-size="10.00">steppable::__internals</text>
<text text-anchor="middle" x="61.62" y="-7.25" font-family="Helvetica,sans-Serif" font-size="10.00">::numUtils::isPrime</text>
</a>
</g>
</g>
<!-- Node15&#45;&gt;Node16 -->
<g id="edge19_Node000015_Node000016" class="edge">
<title>Node15&#45;&gt;Node16</title>
<g id="a_edge19_Node000015_Node000016"><a xlink:title=" ">
<path fill="none" stroke="#63b8ff" d="M147.73,-16.75C139.64,-16.75 131.45,-16.75 123.52,-16.75"/>
<polygon fill="#63b8ff" stroke="#63b8ff" points="147.56,-20.25 157.56,-16.75 147.56,-13.25 147.56,-20.25"/>
</a>
</g>
</g>
<!-- Node20 -->
<g id="Node000020" class="node">
<title>Node20</title>
<g id="a_Node000020"><a xlink:href="classsteppable_1_1Fraction.html#a4647e3f3062426a91d1ef7cdbde23bb6" target="_top" xlink:title="Initialized a fraction from a number.">
<polygon fill="white" stroke="#666666" points="275.38,-402.5 166.38,-402.5 166.38,-369 275.38,-369 275.38,-402.5"/>
<text text-anchor="start" x="174.38" y="-389" font-family="Helvetica,sans-Serif" font-size="10.00">steppable::Fraction</text>
<text text-anchor="middle" x="220.88" y="-376.25" font-family="Helvetica,sans-Serif" font-size="10.00">::Fraction</text>
</a>
</g>
</g>
<!-- Node19&#45;&gt;Node20 -->
<g id="edge25_Node000019_Node000020" class="edge">
<title>Node19&#45;&gt;Node20</title>
<g id="a_edge25_Node000019_Node000020"><a xlink:title=" ">
<path fill="none" stroke="#63b8ff" d="M339.35,-297.96C331.97,-301.22 324.83,-305.12 318.5,-309.75 296.4,-325.92 303.86,-342.62 282.5,-359.75 278.39,-363.05 273.8,-366 269.03,-368.62"/>
<polygon fill="#63b8ff" stroke="#63b8ff" points="340.51,-301.27 348.49,-294.31 337.91,-294.76 340.51,-301.27"/>
</a>
</g>
</g>
<!-- Node21 -->
<g id="Node000021" class="node">
<title>Node21</title>
<g id="a_Node000021"><a xlink:href="classsteppable_1_1Fraction.html#a1fa38ab4cede78e19fa478242f6e5b46" target="_top" xlink:title="Initializes a fraction with a specified top component and bottom component.">
<polygon fill="white" stroke="#666666" points="275.38,-350.5 166.38,-350.5 166.38,-317 275.38,-317 275.38,-350.5"/>
<text text-anchor="start" x="174.38" y="-337" font-family="Helvetica,sans-Serif" font-size="10.00">steppable::Fraction</text>
<text text-anchor="middle" x="220.88" y="-324.25" font-family="Helvetica,sans-Serif" font-size="10.00">::Fraction</text>
</a>
</g>
</g>
<!-- Node19&#45;&gt;Node21 -->
<g id="edge26_Node000019_Node000021" class="edge">
<title>Node19&#45;&gt;Node21</title>
<g id="a_edge26_Node000019_Node000021"><a xlink:title=" ">
<path fill="none" stroke="#63b8ff" d="M339.27,-300.21C318.48,-306.15 295.68,-312.66 275.74,-318.36"/>
<polygon fill="#63b8ff" stroke="#63b8ff" points="340.14,-303.6 348.8,-297.49 338.22,-296.87 340.14,-303.6"/>
</a>
</g>
</g>
<!-- Node22 -->
<g id="Node000022" class="node">
<title>Node22</title>
<g id="a_Node000022"><a xlink:href="classsteppable_1_1Fraction.html#a21eef8107e9cd1e590f7595c4ecbe147" target="_top" xlink:title="Multiplies two fractions together and stores the result in the current one. This function does it by ...">
<polygon fill="white" stroke="#666666" points="275.38,-298.5 166.38,-298.5 166.38,-265 275.38,-265 275.38,-298.5"/>
<text text-anchor="start" x="174.38" y="-285" font-family="Helvetica,sans-Serif" font-size="10.00">steppable::Fraction</text>
<text text-anchor="middle" x="220.88" y="-272.25" font-family="Helvetica,sans-Serif" font-size="10.00">::operator*=</text>
</a>
</g>
</g>
<!-- Node19&#45;&gt;Node22 -->
<g id="edge27_Node000019_Node000022" class="edge">
<title>Node19&#45;&gt;Node22</title>
<g id="a_edge27_Node000019_Node000022"><a xlink:title=" ">
<path fill="none" stroke="#63b8ff" d="M338.98,-281.75C318.27,-281.75 295.58,-281.75 275.74,-281.75"/>
<polygon fill="#63b8ff" stroke="#63b8ff" points="338.74,-285.25 348.74,-281.75 338.74,-278.25 338.74,-285.25"/>
</a>
</g>
</g>
<!-- Node23 -->
<g id="Node000023" class="node">
<title>Node23</title>
<g id="a_Node000023"><a xlink:href="classsteppable_1_1Fraction.html#ab10a5f43f6e60253ab6f4a097c73cf6e" target="_top" xlink:title="Adds two fractions together and stores the result in the current one. This function does it by doing ...">
<polygon fill="white" stroke="#666666" points="275.38,-246.5 166.38,-246.5 166.38,-213 275.38,-213 275.38,-246.5"/>
<text text-anchor="start" x="174.38" y="-233" font-family="Helvetica,sans-Serif" font-size="10.00">steppable::Fraction</text>
<text text-anchor="middle" x="220.88" y="-220.25" font-family="Helvetica,sans-Serif" font-size="10.00">::operator+=</text>
</a>
</g>
</g>
<!-- Node19&#45;&gt;Node23 -->
<g id="edge28_Node000019_Node000023" class="edge">
<title>Node19&#45;&gt;Node23</title>
<g id="a_edge28_Node000019_Node000023"><a xlink:title=" ">
<path fill="none" stroke="#63b8ff" d="M339.27,-263.29C318.48,-257.35 295.68,-250.84 275.74,-245.14"/>
<polygon fill="#63b8ff" stroke="#63b8ff" points="338.22,-266.63 348.8,-266.01 340.14,-259.9 338.22,-266.63"/>
</a>
</g>
</g>
<!-- Node24 -->
<g id="Node000024" class="node">
<title>Node24</title>
<g id="a_Node000024"><a xlink:href="classsteppable_1_1Fraction.html#aad3d96fbba7e7a0fa36c3f69f0463b8b" target="_top" xlink:title="Subtracts a fraction from another fraction and stores the result in the current one....">
<polygon fill="white" stroke="#666666" points="275.38,-194.5 166.38,-194.5 166.38,-161 275.38,-161 275.38,-194.5"/>
<text text-anchor="start" x="174.38" y="-181" font-family="Helvetica,sans-Serif" font-size="10.00">steppable::Fraction</text>
<text text-anchor="middle" x="220.88" y="-168.25" font-family="Helvetica,sans-Serif" font-size="10.00">::operator&#45;=</text>
</a>
</g>
</g>
<!-- Node19&#45;&gt;Node24 -->
<g id="edge29_Node000019_Node000024" class="edge">
<title>Node19&#45;&gt;Node24</title>
<g id="a_edge29_Node000019_Node000024"><a xlink:title=" ">
<path fill="none" stroke="#63b8ff" d="M370.64,-258.26C346.75,-241.9 313.42,-220.17 282.5,-203.75 276.73,-200.69 270.53,-197.7 264.37,-194.91"/>
<polygon fill="#63b8ff" stroke="#63b8ff" points="368.49,-261.03 378.71,-263.83 372.47,-255.26 368.49,-261.03"/>
</a>
</g>
</g>
<!-- Node25 -->
<g id="Node000025" class="node">
<title>Node25</title>
<g id="a_Node000025"><a xlink:href="classsteppable_1_1Fraction.html#a86913160c5f596b74be3007bd16bda6b" target="_top" xlink:title="Divides a fraction by abother fraction and stores the result in the current one. This function does i...">
<polygon fill="white" stroke="#666666" points="275.38,-142.5 166.38,-142.5 166.38,-109 275.38,-109 275.38,-142.5"/>
<text text-anchor="start" x="174.38" y="-129" font-family="Helvetica,sans-Serif" font-size="10.00">steppable::Fraction</text>
<text text-anchor="middle" x="220.88" y="-116.25" font-family="Helvetica,sans-Serif" font-size="10.00">::operator/=</text>
</a>
</g>
</g>
<!-- Node19&#45;&gt;Node25 -->
<g id="edge30_Node000019_Node000025" class="edge">
<title>Node19&#45;&gt;Node25</title>
<g id="a_edge30_Node000019_Node000025"><a xlink:title=" ">
<path fill="none" stroke="#63b8ff" d="M380.71,-256.4C347.12,-219.73 288.25,-155.79 282.5,-151.75 277.91,-148.52 272.85,-145.58 267.68,-142.93"/>
<polygon fill="#63b8ff" stroke="#63b8ff" points="377.9,-258.52 387.24,-263.54 383.07,-253.8 377.9,-258.52"/>
</a>
</g>
</g>
<!-- Node26 -->
<g id="Node000026" class="node">
<title>Node26</title>
<g id="a_Node000026"><a xlink:href="classsteppable_1_1Fraction.html#ac0a3d392ac70f42f74392fe08c1ab8be" target="_top" xlink:title="Raises the fraction to a power and stores the result in the current one.">
<polygon fill="white" stroke="#666666" points="275.38,-506.5 166.38,-506.5 166.38,-473 275.38,-473 275.38,-506.5"/>
<text text-anchor="start" x="174.38" y="-493" font-family="Helvetica,sans-Serif" font-size="10.00">steppable::Fraction</text>
<text text-anchor="middle" x="220.88" y="-480.25" font-family="Helvetica,sans-Serif" font-size="10.00">::operator^=</text>
</a>
</g>
</g>
<!-- Node19&#45;&gt;Node26 -->
<g id="edge31_Node000019_Node000026" class="edge">
<title>Node19&#45;&gt;Node26</title>
<g id="a_edge31_Node000019_Node000026"><a xlink:title=" ">
<path fill="none" stroke="#63b8ff" d="M339.61,-294.6C331.71,-298.41 324.36,-303.35 318.5,-309.75 271.01,-361.57 327.66,-409.88 282.5,-463.75 279.7,-467.09 276.4,-470 272.81,-472.55"/>
<polygon fill="#63b8ff" stroke="#63b8ff" points="340.95,-297.84 348.86,-290.79 338.28,-291.37 340.95,-297.84"/>
</a>
</g>
</g>
<!-- Node27 -->
<g id="Node000027" class="node">
<title>Node27</title>
<g id="a_Node000027"><a xlink:href="classsteppable_1_1Fraction.html#a939fea669a7f630672f7215e77f335b6" target="_top" xlink:title="Returns the fraction as a string. The string is formatted as &quot;top/bottom&quot;, and it will automatically ...">
<polygon fill="white" stroke="#666666" points="275.38,-454.5 166.38,-454.5 166.38,-421 275.38,-421 275.38,-454.5"/>
<text text-anchor="start" x="174.38" y="-441" font-family="Helvetica,sans-Serif" font-size="10.00">steppable::Fraction</text>
<text text-anchor="middle" x="220.88" y="-428.25" font-family="Helvetica,sans-Serif" font-size="10.00">::present</text>
</a>
</g>
</g>
<!-- Node19&#45;&gt;Node27 -->
<g id="edge32_Node000019_Node000027" class="edge">
<title>Node19&#45;&gt;Node27</title>
<g id="a_edge32_Node000019_Node000027"><a xlink:title=" ">
<path fill="none" stroke="#63b8ff" d="M339.64,-295.49C331.87,-299.17 324.55,-303.84 318.5,-309.75 284.13,-343.36 315.36,-376.66 282.5,-411.75 279.37,-415.09 275.74,-418.03 271.84,-420.6"/>
<polygon fill="#63b8ff" stroke="#63b8ff" points="340.75,-298.82 348.67,-291.77 338.09,-292.35 340.75,-298.82"/>
</a>
</g>
</g>
</g>
</svg>

<g id="navigator" transform="translate(0 0)" fill="#404254">
  <rect fill="#f2f5e9" fill-opacity="0.5" stroke="#606060" stroke-width=".5" x="0" y="0" width="60" height="60"/>
  <use id="zoomplus" xlink:href="#zoomPlus" x="17" y="9" onmousedown="handleZoom(evt,'in')"/>
  <use id="zoomminus" xlink:href="#zoomMin" x="42" y="9" onmousedown="handleZoom(evt,'out')"/>
  <use id="reset" xlink:href="#resetDef" x="30" y="36" onmousedown="handleReset()"/>
   <use id="arrowup" xlink:href="#arrowUp" x="0" y="0" onmousedown="handlePan(0,-1)"/>
  <use id="arrowright" xlink:href="#arrowRight" x="0" y="0" onmousedown="handlePan(1,0)"/>
  <use id="arrowdown" xlink:href="#arrowDown" x="0" y="0" onmousedown="handlePan(0,1)"/>
  <use id="arrowleft" xlink:href="#arrowLeft" x="0" y="0" onmousedown="handlePan(-1,0)"/>
</g>
<svg viewBox="0 0 15 15" width="100%" height="30px" preserveAspectRatio="xMaxYMin meet">
 <g id="arrow_out" transform="scale(0.3 0.3)">
  <a xlink:href="namespacesteppable_1_1____internals_1_1numUtils_a61df4994403fa57d99f1687e62afe468_icgraph_org.svg" target="_base">
   <rect id="button" ry="5" rx="5" y="6" x="6" height="38" width="38"
        fill="#f2f5e9" fill-opacity="0.5" stroke="#606060" stroke-width="1.0"/>
   <path id="arrow"
     d="M 11.500037,31.436501 C 11.940474,20.09759 22.043105,11.32322 32.158766,21.979434 L 37.068811,17.246167 C 37.068811,17.246167 37.088388,32 37.088388,32 L 22.160133,31.978069 C 22.160133,31.978069 26.997745,27.140456 26.997745,27.140456 C 18.528582,18.264221 13.291696,25.230495 11.500037,31.436501 z"
     style="fill:#404040;"/>
  </a>
 </g>
</svg>

<style type='text/css'>
<![CDATA[
[data-mouse-over-selected='false'] { opacity: 0.7; }
[data-mouse-over-selected='true']  { opacity: 1.0; }
]]>
</style>
<script type="application/ecmascript"><![CDATA[
document.addEventListener('DOMContentLoaded', (event) => {
  highlightEdges();
  highlightAdjacentNodes();
});
]]></script>
</svg>
