<?xml version="1.0" encoding="UTF-8" standalone="no"?>
<!DOCTYPE svg PUBLIC "-//W3C//DTD SVG 1.1//EN"
 "http://www.w3.org/Graphics/SVG/1.1/DTD/svg11.dtd">
<!-- Generated by graphviz version 11.0.0 (20240428.1522)
 -->
<!-- Title: steppable::__internals::arithmetic::determineResultScale Pages: 1 -->
<svg width="912pt" height="606pt"
 viewBox="0.00 0.00 912.25 605.50" xmlns="http://www.w3.org/2000/svg" xmlns:xlink="http://www.w3.org/1999/xlink">
<g id="graph0" class="graph" transform="scale(1 1) rotate(0) translate(4 601.5)">
<title>steppable::__internals::arithmetic::determineResultScale</title>
<!-- Node1 -->
<g id="Node000001" class="node">
<title>Node1</title>
<g id="a_Node000001"><a xlink:title="Determines the scale of the quotient of division.">
<polygon fill="#999999" stroke="#666666" points="904.25,-97.5 718.75,-97.5 718.75,-64 904.25,-64 904.25,-97.5"/>
<text text-anchor="start" x="726.75" y="-84" font-family="Helvetica,sans-Serif" font-size="10.00">steppable::__internals</text>
<text text-anchor="middle" x="811.5" y="-71.25" font-family="Helvetica,sans-Serif" font-size="10.00">::arithmetic::determineResultScale</text>
</a>
</g>
</g>
<!-- Node2 -->
<g id="Node000002" class="node">
<title>Node2</title>
<g id="a_Node000002"><a xlink:href="namespacesteppable_1_1____internals_1_1arithmetic.html#a26194ae8ddb44afb942fbf8335ae1730" target="_top" xlink:title="Divides a string representation of a number by another string representation of a number.">
<polygon fill="white" stroke="#666666" points="682.75,-181.5 559.5,-181.5 559.5,-148 682.75,-148 682.75,-181.5"/>
<text text-anchor="start" x="567.5" y="-168" font-family="Helvetica,sans-Serif" font-size="10.00">steppable::__internals</text>
<text text-anchor="middle" x="621.12" y="-155.25" font-family="Helvetica,sans-Serif" font-size="10.00">::arithmetic::divide</text>
</a>
</g>
</g>
<!-- Node1&#45;&gt;Node2 -->
<g id="edge1_Node000001_Node000002" class="edge">
<title>Node1&#45;&gt;Node2</title>
<g id="a_edge1_Node000001_Node000002"><a xlink:title=" ">
<path fill="none" stroke="#63b8ff" d="M761.62,-102.55C730.16,-116.58 689.84,-134.55 660.65,-147.57"/>
<polygon fill="#63b8ff" stroke="#63b8ff" points="762.83,-105.84 770.54,-98.57 759.98,-99.44 762.83,-105.84"/>
</a>
</g>
</g>
<!-- Node3 -->
<g id="Node000003" class="node">
<title>Node3</title>
<g id="a_Node000003"><a xlink:href="namespacesteppable_1_1____internals_1_1arithmetic.html#a5b80b731e3e2c0d16dcbe5d52b08ffd5" target="_top" xlink:title="Converts a string representation of a number from decimal to another one.">
<polygon fill="white" stroke="#666666" points="507,-259.5 367.25,-259.5 367.25,-226 507,-226 507,-259.5"/>
<text text-anchor="start" x="375.25" y="-246" font-family="Helvetica,sans-Serif" font-size="10.00">steppable::__internals</text>
<text text-anchor="middle" x="437.12" y="-233.25" font-family="Helvetica,sans-Serif" font-size="10.00">::arithmetic::baseConvert</text>
</a>
</g>
</g>
<!-- Node2&#45;&gt;Node3 -->
<g id="edge2_Node000002_Node000003" class="edge">
<title>Node2&#45;&gt;Node3</title>
<g id="a_edge2_Node000002_Node000003"><a xlink:title=" ">
<path fill="none" stroke="#63b8ff" d="M581.89,-187.59C564.47,-197.4 543.35,-208.48 523.5,-216.75 515.92,-219.91 507.82,-222.87 499.74,-225.59"/>
<polygon fill="#63b8ff" stroke="#63b8ff" points="583.43,-190.75 590.37,-182.74 579.95,-184.67 583.43,-190.75"/>
</a>
</g>
</g>
<!-- Node4 -->
<g id="Node000004" class="node">
<title>Node4</title>
<g id="a_Node000004"><a xlink:href="namespacesteppable_1_1____internals_1_1arithmetic.html#ac9102075acd398b3bdf388f6cc2ef978" target="_top" xlink:title=" ">
<polygon fill="white" stroke="#666666" points="523.5,-207.5 350.75,-207.5 350.75,-174 523.5,-174 523.5,-207.5"/>
<text text-anchor="start" x="358.75" y="-194" font-family="Helvetica,sans-Serif" font-size="10.00">steppable::__internals</text>
<text text-anchor="middle" x="437.12" y="-181.25" font-family="Helvetica,sans-Serif" font-size="10.00">::arithmetic::divideWithQuotient</text>
</a>
</g>
</g>
<!-- Node2&#45;&gt;Node4 -->
<g id="edge3_Node000002_Node000004" class="edge">
<title>Node2&#45;&gt;Node4</title>
<g id="a_edge3_Node000002_Node000004"><a xlink:title=" ">
<path fill="none" stroke="#63b8ff" d="M547.74,-175.09C539.93,-176.21 531.94,-177.35 523.99,-178.48"/>
<polygon fill="#63b8ff" stroke="#63b8ff" points="548.11,-178.57 557.52,-173.69 547.12,-171.64 548.11,-178.57"/>
</a>
</g>
</g>
<!-- Node6 -->
<g id="Node000006" class="node">
<title>Node6</title>
<g id="a_Node000006"><a xlink:href="classsteppable_1_1Number.html#aebdaf5d342a2a897793556bd390bc184" target="_top" xlink:title="Divides two numbers.">
<polygon fill="white" stroke="#666666" points="494.62,-155.5 379.62,-155.5 379.62,-122 494.62,-122 494.62,-155.5"/>
<text text-anchor="start" x="387.62" y="-142" font-family="Helvetica,sans-Serif" font-size="10.00">steppable::Number::</text>
<text text-anchor="middle" x="437.12" y="-129.25" font-family="Helvetica,sans-Serif" font-size="10.00">operator/</text>
</a>
</g>
</g>
<!-- Node2&#45;&gt;Node6 -->
<g id="edge5_Node000002_Node000006" class="edge">
<title>Node2&#45;&gt;Node6</title>
<g id="a_edge5_Node000002_Node000006"><a xlink:title=" ">
<path fill="none" stroke="#63b8ff" d="M547.69,-154.4C530.19,-151.9 511.75,-149.27 495.08,-146.89"/>
<polygon fill="#63b8ff" stroke="#63b8ff" points="547.12,-157.86 557.52,-155.81 548.11,-150.93 547.12,-157.86"/>
</a>
</g>
</g>
<!-- Node7 -->
<g id="Node000007" class="node">
<title>Node7</title>
<g id="a_Node000007"><a xlink:href="namespacesteppable_1_1____internals_1_1arithmetic.html#a1b2a13f3be54bd279552f57aba88907d" target="_top" xlink:title="Takes the n&#45;th root of a numer.">
<polygon fill="white" stroke="#666666" points="498.75,-85.5 375.5,-85.5 375.5,-52 498.75,-52 498.75,-85.5"/>
<text text-anchor="start" x="383.5" y="-72" font-family="Helvetica,sans-Serif" font-size="10.00">steppable::__internals</text>
<text text-anchor="middle" x="437.12" y="-59.25" font-family="Helvetica,sans-Serif" font-size="10.00">::arithmetic::root</text>
</a>
</g>
</g>
<!-- Node2&#45;&gt;Node7 -->
<g id="edge6_Node000002_Node000007" class="edge">
<title>Node2&#45;&gt;Node7</title>
<g id="a_edge6_Node000002_Node000007"><a xlink:title=" ">
<path fill="none" stroke="#63b8ff" d="M578.76,-142.28C561.68,-133.06 541.68,-122.32 523.5,-112.75 506.53,-103.81 487.58,-94.03 471.85,-85.96"/>
<polygon fill="#63b8ff" stroke="#63b8ff" points="576.64,-145.11 587.1,-146.79 579.97,-138.95 576.64,-145.11"/>
</a>
</g>
</g>
<!-- Node12 -->
<g id="Node000012" class="node">
<title>Node12</title>
<g id="a_Node000012"><a xlink:href="classsteppable_1_1Fraction.html#a9cf64d847c268d9334775c572ef75dfa" target="_top" xlink:title="Simplifies a fraction. This function simplifies the fraction by dividing the top and bottom component...">
<polygon fill="white" stroke="#666666" points="491.62,-389.5 382.62,-389.5 382.62,-356 491.62,-356 491.62,-389.5"/>
<text text-anchor="start" x="390.62" y="-376" font-family="Helvetica,sans-Serif" font-size="10.00">steppable::Fraction</text>
<text text-anchor="middle" x="437.12" y="-363.25" font-family="Helvetica,sans-Serif" font-size="10.00">::simplify</text>
</a>
</g>
</g>
<!-- Node2&#45;&gt;Node12 -->
<g id="edge15_Node000002_Node000012" class="edge">
<title>Node2&#45;&gt;Node12</title>
<g id="a_edge15_Node000002_Node000012"><a xlink:title=" ">
<path fill="none" stroke="#63b8ff" d="M597.79,-190.28C560.1,-233.35 484.87,-319.33 452.97,-355.79"/>
<polygon fill="#63b8ff" stroke="#63b8ff" points="600.28,-192.74 604.23,-182.91 595.02,-188.13 600.28,-192.74"/>
</a>
</g>
</g>
<!-- Node5 -->
<g id="Node000005" class="node">
<title>Node5</title>
<g id="a_Node000005"><a xlink:href="classsteppable_1_1Number.html#a719a8a93fcfe91b30c38ba0830d6de50" target="_top" xlink:title="Calculates the remainder of two numbers. (Modulus)">
<polygon fill="white" stroke="#666666" points="310.62,-181.5 195.62,-181.5 195.62,-148 310.62,-148 310.62,-181.5"/>
<text text-anchor="start" x="203.62" y="-168" font-family="Helvetica,sans-Serif" font-size="10.00">steppable::Number::</text>
<text text-anchor="middle" x="253.12" y="-155.25" font-family="Helvetica,sans-Serif" font-size="10.00">operator%</text>
</a>
</g>
</g>
<!-- Node4&#45;&gt;Node5 -->
<g id="edge4_Node000004_Node000005" class="edge">
<title>Node4&#45;&gt;Node5</title>
<g id="a_edge4_Node000004_Node000005"><a xlink:title=" ">
<path fill="none" stroke="#63b8ff" d="M339.16,-176.9C329.56,-175.53 320.04,-174.17 311.05,-172.88"/>
<polygon fill="#63b8ff" stroke="#63b8ff" points="338.56,-180.35 348.96,-178.3 339.55,-173.42 338.56,-180.35"/>
</a>
</g>
</g>
<!-- Node7&#45;&gt;Node7 -->
<g id="edge14_Node000007_Node000007" class="edge">
<title>Node7&#45;&gt;Node7</title>
<g id="a_edge14_Node000007_Node000007"><a xlink:title=" ">
<path fill="none" stroke="#63b8ff" d="M468.02,-96.89C462.99,-100.85 452.69,-103.5 437.12,-103.5 409.45,-103.5 398.43,-95.12 404.05,-85.91"/>
<polygon fill="#63b8ff" stroke="#63b8ff" points="471.39,-97.89 469.91,-87.4 464.52,-96.52 471.39,-97.89"/>
</a>
</g>
</g>
<!-- Node8 -->
<g id="Node000008" class="node">
<title>Node8</title>
<g id="a_Node000008"><a xlink:href="namespacesteppable_1_1____internals_1_1arithmetic.html#a50acfa1ad06ce385943ddd207146c9e0" target="_top" xlink:title="Raises a string representation of a number to a power.">
<polygon fill="white" stroke="#666666" points="314.75,-85.5 191.5,-85.5 191.5,-52 314.75,-52 314.75,-85.5"/>
<text text-anchor="start" x="199.5" y="-72" font-family="Helvetica,sans-Serif" font-size="10.00">steppable::__internals</text>
<text text-anchor="middle" x="253.12" y="-59.25" font-family="Helvetica,sans-Serif" font-size="10.00">::arithmetic::power</text>
</a>
</g>
</g>
<!-- Node7&#45;&gt;Node8 -->
<g id="edge7_Node000007_Node000008" class="edge">
<title>Node7&#45;&gt;Node8</title>
<g id="a_edge7_Node000007_Node000008"><a xlink:title=" ">
<path fill="none" stroke="#63b8ff" d="M363.97,-62.13C347.78,-61.9 330.75,-61.97 315.07,-62.34"/>
<polygon fill="#63b8ff" stroke="#63b8ff" points="363.44,-65.62 373.5,-62.31 363.57,-58.62 363.44,-65.62"/>
</a>
</g>
</g>
<!-- Node8&#45;&gt;Node1 -->
<g id="edge9_Node000008_Node000001" class="edge">
<title>Node8&#45;&gt;Node1</title>
<g id="a_edge9_Node000008_Node000001"><a xlink:title=" ">
<path fill="none" stroke="#63b8ff" d="M318.89,-48.83C329.44,-46.3 340.33,-44.13 350.75,-42.75 482.55,-25.33 636.74,-46.48 728.85,-63.5"/>
<polygon fill="#63b8ff" stroke="#63b8ff" points="318.35,-45.35 309.51,-51.19 320.06,-52.14 318.35,-45.35"/>
</a>
</g>
</g>
<!-- Node8&#45;&gt;Node7 -->
<g id="edge13_Node000008_Node000007" class="edge">
<title>Node8&#45;&gt;Node7</title>
<g id="a_edge13_Node000008_Node000007"><a xlink:title=" ">
<path fill="none" stroke="#63b8ff" d="M326.58,-75.37C342.63,-75.59 359.48,-75.53 375.02,-75.17"/>
<polygon fill="#63b8ff" stroke="#63b8ff" points="326.65,-71.87 316.59,-75.19 326.52,-78.87 326.65,-71.87"/>
</a>
</g>
</g>
<!-- Node8&#45;&gt;Node8 -->
<g id="edge12_Node000008_Node000008" class="edge">
<title>Node8&#45;&gt;Node8</title>
<g id="a_edge12_Node000008_Node000008"><a xlink:title=" ">
<path fill="none" stroke="#63b8ff" d="M282.57,-96.89C277.78,-100.85 267.96,-103.5 253.12,-103.5 226.75,-103.5 216.24,-95.12 221.6,-85.91"/>
<polygon fill="#63b8ff" stroke="#63b8ff" points="285.95,-97.88 284.37,-87.4 279.07,-96.58 285.95,-97.88"/>
</a>
</g>
</g>
<!-- Node9 -->
<g id="Node000009" class="node">
<title>Node9</title>
<g id="a_Node000009"><a xlink:href="namespacesteppable_1_1____internals_1_1arithmetic.html#afc4c4f319dadbb5b1ff481132f008374" target="_top" xlink:title="Converts a string representation of a number from any base to decimal.">
<polygon fill="white" stroke="#666666" points="155.5,-137.5 0,-137.5 0,-104 155.5,-104 155.5,-137.5"/>
<text text-anchor="start" x="8" y="-124" font-family="Helvetica,sans-Serif" font-size="10.00">steppable::__internals</text>
<text text-anchor="middle" x="77.75" y="-111.25" font-family="Helvetica,sans-Serif" font-size="10.00">::arithmetic::decimalConvert</text>
</a>
</g>
</g>
<!-- Node8&#45;&gt;Node9 -->
<g id="edge8_Node000008_Node000009" class="edge">
<title>Node8&#45;&gt;Node9</title>
<g id="a_edge8_Node000008_Node000009"><a xlink:title=" ">
<path fill="none" stroke="#63b8ff" d="M184.08,-89.16C168.26,-93.9 151.56,-98.91 136.24,-103.51"/>
<polygon fill="#63b8ff" stroke="#63b8ff" points="184.85,-92.58 193.43,-86.36 182.84,-85.88 184.85,-92.58"/>
</a>
</g>
</g>
<!-- Node10 -->
<g id="Node000010" class="node">
<title>Node10</title>
<g id="a_Node000010"><a xlink:href="classsteppable_1_1Fraction.html#abaf8678e0b61e3097789959b66e4c23c" target="_top" xlink:title="Raises the fraction to a power.">
<polygon fill="white" stroke="#666666" points="132.25,-85.5 23.25,-85.5 23.25,-52 132.25,-52 132.25,-85.5"/>
<text text-anchor="start" x="31.25" y="-72" font-family="Helvetica,sans-Serif" font-size="10.00">steppable::Fraction</text>
<text text-anchor="middle" x="77.75" y="-59.25" font-family="Helvetica,sans-Serif" font-size="10.00">::operator^</text>
</a>
</g>
</g>
<!-- Node8&#45;&gt;Node10 -->
<g id="edge10_Node000008_Node000010" class="edge">
<title>Node8&#45;&gt;Node10</title>
<g id="a_edge10_Node000008_Node000010"><a xlink:title=" ">
<path fill="none" stroke="#63b8ff" d="M180.09,-68.75C164.23,-68.75 147.7,-68.75 132.7,-68.75"/>
<polygon fill="#63b8ff" stroke="#63b8ff" points="179.97,-72.25 189.97,-68.75 179.97,-65.25 179.97,-72.25"/>
</a>
</g>
</g>
<!-- Node11 -->
<g id="Node000011" class="node">
<title>Node11</title>
<g id="a_Node000011"><a xlink:href="classsteppable_1_1Number.html#ae3e13c5f73bc67cd464c84a8640e1387" target="_top" xlink:title="Raises the number to a power.">
<polygon fill="white" stroke="#666666" points="135.25,-33.5 20.25,-33.5 20.25,0 135.25,0 135.25,-33.5"/>
<text text-anchor="start" x="28.25" y="-20" font-family="Helvetica,sans-Serif" font-size="10.00">steppable::Number::</text>
<text text-anchor="middle" x="77.75" y="-7.25" font-family="Helvetica,sans-Serif" font-size="10.00">operator^</text>
</a>
</g>
</g>
<!-- Node8&#45;&gt;Node11 -->
<g id="edge11_Node000008_Node000011" class="edge">
<title>Node8&#45;&gt;Node11</title>
<g id="a_edge11_Node000008_Node000011"><a xlink:title=" ">
<path fill="none" stroke="#63b8ff" d="M183.97,-48.31C167.97,-43.51 151.09,-38.45 135.64,-33.81"/>
<polygon fill="#63b8ff" stroke="#63b8ff" points="182.84,-51.62 193.43,-51.14 184.85,-44.92 182.84,-51.62"/>
</a>
</g>
</g>
<!-- Node13 -->
<g id="Node000013" class="node">
<title>Node13</title>
<g id="a_Node000013"><a xlink:href="classsteppable_1_1Fraction.html#a4647e3f3062426a91d1ef7cdbde23bb6" target="_top" xlink:title="Initialized a fraction from a number.">
<polygon fill="white" stroke="#666666" points="307.62,-493.5 198.62,-493.5 198.62,-460 307.62,-460 307.62,-493.5"/>
<text text-anchor="start" x="206.62" y="-480" font-family="Helvetica,sans-Serif" font-size="10.00">steppable::Fraction</text>
<text text-anchor="middle" x="253.12" y="-467.25" font-family="Helvetica,sans-Serif" font-size="10.00">::Fraction</text>
</a>
</g>
</g>
<!-- Node12&#45;&gt;Node13 -->
<g id="edge16_Node000012_Node000013" class="edge">
<title>Node12&#45;&gt;Node13</title>
<g id="a_edge16_Node000012_Node000013"><a xlink:title=" ">
<path fill="none" stroke="#63b8ff" d="M402.89,-396.24C379,-412.6 345.67,-434.33 314.75,-450.75 308.98,-453.81 302.78,-456.8 296.62,-459.59"/>
<polygon fill="#63b8ff" stroke="#63b8ff" points="404.72,-399.24 410.96,-390.67 400.74,-393.47 404.72,-399.24"/>
</a>
</g>
</g>
<!-- Node14 -->
<g id="Node000014" class="node">
<title>Node14</title>
<g id="a_Node000014"><a xlink:href="classsteppable_1_1Fraction.html#a1fa38ab4cede78e19fa478242f6e5b46" target="_top" xlink:title="Initializes a fraction with a specified top component and bottom component.">
<polygon fill="white" stroke="#666666" points="307.62,-441.5 198.62,-441.5 198.62,-408 307.62,-408 307.62,-441.5"/>
<text text-anchor="start" x="206.62" y="-428" font-family="Helvetica,sans-Serif" font-size="10.00">steppable::Fraction</text>
<text text-anchor="middle" x="253.12" y="-415.25" font-family="Helvetica,sans-Serif" font-size="10.00">::Fraction</text>
</a>
</g>
</g>
<!-- Node12&#45;&gt;Node14 -->
<g id="edge17_Node000012_Node000014" class="edge">
<title>Node12&#45;&gt;Node14</title>
<g id="a_edge17_Node000012_Node000014"><a xlink:title=" ">
<path fill="none" stroke="#63b8ff" d="M371.52,-391.21C350.73,-397.15 327.93,-403.66 307.99,-409.36"/>
<polygon fill="#63b8ff" stroke="#63b8ff" points="372.39,-394.6 381.05,-388.49 370.47,-387.87 372.39,-394.6"/>
</a>
</g>
</g>
<!-- Node15 -->
<g id="Node000015" class="node">
<title>Node15</title>
<g id="a_Node000015"><a xlink:href="classsteppable_1_1Fraction.html#a21eef8107e9cd1e590f7595c4ecbe147" target="_top" xlink:title="Multiplies two fractions together and stores the result in the current one. This function does it by ...">
<polygon fill="white" stroke="#666666" points="307.62,-389.5 198.62,-389.5 198.62,-356 307.62,-356 307.62,-389.5"/>
<text text-anchor="start" x="206.62" y="-376" font-family="Helvetica,sans-Serif" font-size="10.00">steppable::Fraction</text>
<text text-anchor="middle" x="253.12" y="-363.25" font-family="Helvetica,sans-Serif" font-size="10.00">::operator*=</text>
</a>
</g>
</g>
<!-- Node12&#45;&gt;Node15 -->
<g id="edge18_Node000012_Node000015" class="edge">
<title>Node12&#45;&gt;Node15</title>
<g id="a_edge18_Node000012_Node000015"><a xlink:title=" ">
<path fill="none" stroke="#63b8ff" d="M371.23,-372.75C350.52,-372.75 327.83,-372.75 307.99,-372.75"/>
<polygon fill="#63b8ff" stroke="#63b8ff" points="370.99,-376.25 380.99,-372.75 370.99,-369.25 370.99,-376.25"/>
</a>
</g>
</g>
<!-- Node16 -->
<g id="Node000016" class="node">
<title>Node16</title>
<g id="a_Node000016"><a xlink:href="classsteppable_1_1Fraction.html#ab10a5f43f6e60253ab6f4a097c73cf6e" target="_top" xlink:title="Adds two fractions together and stores the result in the current one. This function does it by doing ...">
<polygon fill="white" stroke="#666666" points="307.62,-337.5 198.62,-337.5 198.62,-304 307.62,-304 307.62,-337.5"/>
<text text-anchor="start" x="206.62" y="-324" font-family="Helvetica,sans-Serif" font-size="10.00">steppable::Fraction</text>
<text text-anchor="middle" x="253.12" y="-311.25" font-family="Helvetica,sans-Serif" font-size="10.00">::operator+=</text>
</a>
</g>
</g>
<!-- Node12&#45;&gt;Node16 -->
<g id="edge19_Node000012_Node000016" class="edge">
<title>Node12&#45;&gt;Node16</title>
<g id="a_edge19_Node000012_Node000016"><a xlink:title=" ">
<path fill="none" stroke="#63b8ff" d="M371.52,-354.29C350.73,-348.35 327.93,-341.84 307.99,-336.14"/>
<polygon fill="#63b8ff" stroke="#63b8ff" points="370.47,-357.63 381.05,-357.01 372.39,-350.9 370.47,-357.63"/>
</a>
</g>
</g>
<!-- Node17 -->
<g id="Node000017" class="node">
<title>Node17</title>
<g id="a_Node000017"><a xlink:href="classsteppable_1_1Fraction.html#aad3d96fbba7e7a0fa36c3f69f0463b8b" target="_top" xlink:title="Subtracts a fraction from another fraction and stores the result in the current one....">
<polygon fill="white" stroke="#666666" points="307.62,-285.5 198.62,-285.5 198.62,-252 307.62,-252 307.62,-285.5"/>
<text text-anchor="start" x="206.62" y="-272" font-family="Helvetica,sans-Serif" font-size="10.00">steppable::Fraction</text>
<text text-anchor="middle" x="253.12" y="-259.25" font-family="Helvetica,sans-Serif" font-size="10.00">::operator&#45;=</text>
</a>
</g>
</g>
<!-- Node12&#45;&gt;Node17 -->
<g id="edge20_Node000012_Node000017" class="edge">
<title>Node12&#45;&gt;Node17</title>
<g id="a_edge20_Node000012_Node000017"><a xlink:title=" ">
<path fill="none" stroke="#63b8ff" d="M402.89,-349.26C379,-332.9 345.67,-311.17 314.75,-294.75 308.98,-291.69 302.78,-288.7 296.62,-285.91"/>
<polygon fill="#63b8ff" stroke="#63b8ff" points="400.74,-352.03 410.96,-354.83 404.72,-346.26 400.74,-352.03"/>
</a>
</g>
</g>
<!-- Node18 -->
<g id="Node000018" class="node">
<title>Node18</title>
<g id="a_Node000018"><a xlink:href="classsteppable_1_1Fraction.html#a86913160c5f596b74be3007bd16bda6b" target="_top" xlink:title="Divides a fraction by abother fraction and stores the result in the current one. This function does i...">
<polygon fill="white" stroke="#666666" points="307.62,-233.5 198.62,-233.5 198.62,-200 307.62,-200 307.62,-233.5"/>
<text text-anchor="start" x="206.62" y="-220" font-family="Helvetica,sans-Serif" font-size="10.00">steppable::Fraction</text>
<text text-anchor="middle" x="253.12" y="-207.25" font-family="Helvetica,sans-Serif" font-size="10.00">::operator/=</text>
</a>
</g>
</g>
<!-- Node12&#45;&gt;Node18 -->
<g id="edge21_Node000012_Node000018" class="edge">
<title>Node12&#45;&gt;Node18</title>
<g id="a_edge21_Node000012_Node000018"><a xlink:title=" ">
<path fill="none" stroke="#63b8ff" d="M417.3,-346.88C395.37,-318.25 356.74,-272.25 314.75,-242.75 310.16,-239.52 305.1,-236.58 299.93,-233.93"/>
<polygon fill="#63b8ff" stroke="#63b8ff" points="414.36,-348.79 423.17,-354.67 419.95,-344.57 414.36,-348.79"/>
</a>
</g>
</g>
<!-- Node19 -->
<g id="Node000019" class="node">
<title>Node19</title>
<g id="a_Node000019"><a xlink:href="classsteppable_1_1Fraction.html#ac0a3d392ac70f42f74392fe08c1ab8be" target="_top" xlink:title="Raises the fraction to a power and stores the result in the current one.">
<polygon fill="white" stroke="#666666" points="307.62,-597.5 198.62,-597.5 198.62,-564 307.62,-564 307.62,-597.5"/>
<text text-anchor="start" x="206.62" y="-584" font-family="Helvetica,sans-Serif" font-size="10.00">steppable::Fraction</text>
<text text-anchor="middle" x="253.12" y="-571.25" font-family="Helvetica,sans-Serif" font-size="10.00">::operator^=</text>
</a>
</g>
</g>
<!-- Node12&#45;&gt;Node19 -->
<g id="edge22_Node000012_Node000019" class="edge">
<title>Node12&#45;&gt;Node19</title>
<g id="a_edge22_Node000012_Node000019"><a xlink:title=" ">
<path fill="none" stroke="#63b8ff" d="M424.04,-400.29C405.63,-439.43 367.08,-511.22 314.75,-554.75 310.79,-558.05 306.35,-560.99 301.71,-563.59"/>
<polygon fill="#63b8ff" stroke="#63b8ff" points="427.17,-401.86 428.17,-391.32 420.81,-398.94 427.17,-401.86"/>
</a>
</g>
</g>
<!-- Node20 -->
<g id="Node000020" class="node">
<title>Node20</title>
<g id="a_Node000020"><a xlink:href="classsteppable_1_1Fraction.html#a24daec3e07be2176c6efbcb569d8c921" target="_top" xlink:title="Returns the fraction as a string. The string is formatted as &quot;top/bottom&quot;, and it will automatically ...">
<polygon fill="white" stroke="#666666" points="307.62,-545.5 198.62,-545.5 198.62,-512 307.62,-512 307.62,-545.5"/>
<text text-anchor="start" x="206.62" y="-532" font-family="Helvetica,sans-Serif" font-size="10.00">steppable::Fraction</text>
<text text-anchor="middle" x="253.12" y="-519.25" font-family="Helvetica,sans-Serif" font-size="10.00">::present</text>
</a>
</g>
</g>
<!-- Node12&#45;&gt;Node20 -->
<g id="edge23_Node000012_Node000020" class="edge">
<title>Node12&#45;&gt;Node20</title>
<g id="a_edge23_Node000012_Node000020"><a xlink:title=" ">
<path fill="none" stroke="#63b8ff" d="M417.3,-398.62C395.37,-427.25 356.74,-473.25 314.75,-502.75 310.16,-505.98 305.1,-508.92 299.93,-511.57"/>
<polygon fill="#63b8ff" stroke="#63b8ff" points="419.95,-400.93 423.17,-390.83 414.36,-396.71 419.95,-400.93"/>
</a>
</g>
</g>
</g>
</svg>
