<?xml version="1.0" encoding="UTF-8" standalone="no"?>
<!DOCTYPE svg PUBLIC "-//W3C//DTD SVG 1.1//EN"
 "http://www.w3.org/Graphics/SVG/1.1/DTD/svg11.dtd">
<!-- Generated by graphviz version 2.43.0 (0)
 -->
<!-- Title: steppable::output::info Pages: 1 -->
<svg width="474pt" height="186pt"
 viewBox="0.00 0.00 474.00 186.00" xmlns="http://www.w3.org/2000/svg" xmlns:xlink="http://www.w3.org/1999/xlink">
<g id="graph0" class="graph" transform="scale(1 1) rotate(0) translate(4 182)">
<title>steppable::output::info</title>
<!-- Node1 -->
<g id="node1" class="node">
<title>Node1</title>
<g id="a_node1"><a xlink:title="Prints an info message.">
<polygon fill="#bfbfbf" stroke="black" points="0,-79 0,-98 127,-98 127,-79 0,-79"/>
<text text-anchor="middle" x="63.5" y="-86" font-family="Helvetica,sans-Serif" font-size="10.00">steppable::output::info</text>
</a>
</g>
</g>
<!-- Node2 -->
<g id="node2" class="node">
<title>Node2</title>
<g id="a_node2"><a xlink:href="namespacesteppable_1_1____internals_1_1utils_1_1formats.html#a020bdff691dad4ade1a65f76bef6bfd0" target="_top" xlink:title="Set the text format to bold.">
<polygon fill="none" stroke="black" points="172.5,-147.5 172.5,-177.5 296.5,-177.5 296.5,-147.5 172.5,-147.5"/>
<text text-anchor="start" x="180.5" y="-165.5" font-family="Helvetica,sans-Serif" font-size="10.00">steppable::__internals</text>
<text text-anchor="middle" x="234.5" y="-154.5" font-family="Helvetica,sans-Serif" font-size="10.00">::utils::formats::bold</text>
</a>
</g>
</g>
<!-- Node1&#45;&gt;Node2 -->
<g id="edge1" class="edge">
<title>Node1&#45;&gt;Node2</title>
<path fill="none" stroke="midnightblue" d="M81.59,-98.11C100.96,-108.78 133.66,-126.13 163,-138.5 167.39,-140.35 171.97,-142.16 176.6,-143.91"/>
<polygon fill="midnightblue" stroke="midnightblue" points="175.54,-147.25 186.13,-147.41 177.94,-140.68 175.54,-147.25"/>
</g>
<!-- Node4 -->
<g id="node4" class="node">
<title>Node4</title>
<g id="a_node4"><a xlink:href="namespacesteppable_1_1____internals_1_1utils_1_1colors.html#a0c81a57789690db931ec76b0407d1e17" target="_top" xlink:title="Set the text color to bright green.">
<polygon fill="none" stroke="black" points="163,-98.5 163,-128.5 306,-128.5 306,-98.5 163,-98.5"/>
<text text-anchor="start" x="171" y="-116.5" font-family="Helvetica,sans-Serif" font-size="10.00">steppable::__internals</text>
<text text-anchor="middle" x="234.5" y="-105.5" font-family="Helvetica,sans-Serif" font-size="10.00">::utils::colors::brightGreen</text>
</a>
</g>
</g>
<!-- Node1&#45;&gt;Node4 -->
<g id="edge3" class="edge">
<title>Node1&#45;&gt;Node4</title>
<path fill="none" stroke="midnightblue" d="M127.43,-97.81C135.73,-99.04 144.32,-100.31 152.86,-101.57"/>
<polygon fill="midnightblue" stroke="midnightblue" points="152.44,-105.05 162.84,-103.05 153.46,-98.12 152.44,-105.05"/>
</g>
<!-- Node5 -->
<g id="node5" class="node">
<title>Node5</title>
<g id="a_node5"><a xlink:href="namespacesteppable_1_1____internals_1_1utils.html#a1d55e037764ba41ec8682f00b30701ff" target="_top" xlink:title="Reset the text color and format to the default values.">
<polygon fill="none" stroke="black" points="172.5,-49.5 172.5,-79.5 296.5,-79.5 296.5,-49.5 172.5,-49.5"/>
<text text-anchor="start" x="180.5" y="-67.5" font-family="Helvetica,sans-Serif" font-size="10.00">steppable::__internals</text>
<text text-anchor="middle" x="234.5" y="-56.5" font-family="Helvetica,sans-Serif" font-size="10.00">::utils::reset</text>
</a>
</g>
</g>
<!-- Node1&#45;&gt;Node5 -->
<g id="edge5" class="edge">
<title>Node1&#45;&gt;Node5</title>
<path fill="none" stroke="midnightblue" d="M127.43,-79.56C138.83,-77.94 150.78,-76.25 162.39,-74.6"/>
<polygon fill="midnightblue" stroke="midnightblue" points="163.07,-78.04 172.48,-73.17 162.09,-71.11 163.07,-78.04"/>
</g>
<!-- Node6 -->
<g id="node6" class="node">
<title>Node6</title>
<g id="a_node6"><a xlink:href="namespacesteppable_1_1____internals_1_1format.html#a4ce7e3333d78668b52ce033ea3307ce5" target="_top" xlink:title="Formats a string using a variable number of arguments.">
<polygon fill="none" stroke="black" points="172.5,-0.5 172.5,-30.5 296.5,-30.5 296.5,-0.5 172.5,-0.5"/>
<text text-anchor="start" x="180.5" y="-18.5" font-family="Helvetica,sans-Serif" font-size="10.00">steppable::__internals</text>
<text text-anchor="middle" x="234.5" y="-7.5" font-family="Helvetica,sans-Serif" font-size="10.00">::format::vFormat</text>
</a>
</g>
</g>
<!-- Node1&#45;&gt;Node6 -->
<g id="edge7" class="edge">
<title>Node1&#45;&gt;Node6</title>
<path fill="none" stroke="midnightblue" d="M82.73,-78.85C102.29,-68.67 134.41,-52.49 163,-40.5 168.09,-38.37 173.43,-36.25 178.8,-34.21"/>
<polygon fill="midnightblue" stroke="midnightblue" points="180.3,-37.38 188.46,-30.62 177.86,-30.82 180.3,-37.38"/>
</g>
<!-- Node3 -->
<g id="node3" class="node">
<title>Node3</title>
<g id="a_node3"><a xlink:href="namespacesteppable_1_1____internals_1_1utils.html#a65d6e9f0b589e6d5eab0da73a4ebb16c" target="_top" xlink:title="Check if the output stream is a terminal.">
<polygon fill="none" stroke="black" points="342,-98.5 342,-128.5 466,-128.5 466,-98.5 342,-98.5"/>
<text text-anchor="start" x="350" y="-116.5" font-family="Helvetica,sans-Serif" font-size="10.00">steppable::__internals</text>
<text text-anchor="middle" x="404" y="-105.5" font-family="Helvetica,sans-Serif" font-size="10.00">::utils::isTerminal</text>
</a>
</g>
</g>
<!-- Node2&#45;&gt;Node3 -->
<g id="edge2" class="edge">
<title>Node2&#45;&gt;Node3</title>
<path fill="none" stroke="midnightblue" d="M287.12,-147.4C304.4,-142.34 323.82,-136.66 341.76,-131.42"/>
<polygon fill="midnightblue" stroke="midnightblue" points="342.93,-134.72 351.55,-128.55 340.97,-128 342.93,-134.72"/>
</g>
<!-- Node4&#45;&gt;Node3 -->
<g id="edge4" class="edge">
<title>Node4&#45;&gt;Node3</title>
<path fill="none" stroke="midnightblue" d="M306.05,-113.5C314.5,-113.5 323.14,-113.5 331.61,-113.5"/>
<polygon fill="midnightblue" stroke="midnightblue" points="331.82,-117 341.82,-113.5 331.82,-110 331.82,-117"/>
</g>
<!-- Node5&#45;&gt;Node3 -->
<g id="edge6" class="edge">
<title>Node5&#45;&gt;Node3</title>
<path fill="none" stroke="midnightblue" d="M287.12,-79.6C304.4,-84.66 323.82,-90.34 341.76,-95.58"/>
<polygon fill="midnightblue" stroke="midnightblue" points="340.97,-99 351.55,-98.45 342.93,-92.28 340.97,-99"/>
</g>
</g>
</svg>
