<?xml version="1.0" encoding="UTF-8" standalone="no"?>
<!DOCTYPE svg PUBLIC "-//W3C//DTD SVG 1.1//EN"
 "http://www.w3.org/Graphics/SVG/1.1/DTD/svg11.dtd">
<!-- Generated by graphviz version 12.2.1 (20241206.2353)
 -->
<!-- Title: ImGui::GetCursorScreenPos Pages: 1 -->
<!--zoomable 317 -->

<svg id="main" version="1.1" xmlns="http://www.w3.org/2000/svg" xmlns:xlink="http://www.w3.org/1999/xlink" xml:space="preserve" onload="init(evt)">

<style type="text/css"><![CDATA[
.node, .edge {opacity: 0.7;}
.node.selected, .edge.selected {opacity: 1;}
.edge:hover path { stroke: red; }
.edge:hover polygon { stroke: red; fill: red; }
]]></style>

<defs>
  <circle id="rim" cx="0" cy="0" r="7"/>
  <circle id="rim2" cx="0" cy="0" r="3.5"/>
  <g id="zoomPlus">
    <use xlink:href="#rim" fill="#404040"><set attributeName="fill" to="#808080" begin="zoomplus.mouseover" end="zoomplus.mouseout"/></use>
    <path d="M-4,0h8M0,-4v8" fill="none" stroke="white" stroke-width="1.5" pointer-events="none"/>
  </g>
  <g id="zoomMin">
    <use xlink:href="#rim" fill="#404040"><set attributeName="fill" to="#808080" begin="zoomminus.mouseover" end="zoomminus.mouseout"/></use>
    <path d="M-4,0h8" fill="none" stroke="white" stroke-width="1.5" pointer-events="none"/>
  </g>
  <g id="arrowUp" transform="translate(30 24)">
    <use xlink:href="#rim"/>
    <path pointer-events="none" fill="none" stroke="white" stroke-width="1.5" d="M0,-3.0v7 M-2.5,-0.5L0,-3.0L2.5,-0.5"/>
  </g>
  <g id="arrowRight" transform="rotate(90) translate(36 -43)">
    <use xlink:href="#rim"/>
    <path pointer-events="none" fill="none" stroke="white" stroke-width="1.5" d="M0,-3.0v7 M-2.5,-0.5L0,-3.0L2.5,-0.5"/>
  </g>
  <g id="arrowDown" transform="rotate(180) translate(-30 -48)">
    <use xlink:href="#rim"/>
    <path pointer-events="none" fill="none" stroke="white" stroke-width="1.5" d="M0,-3.0v7 M-2.5,-0.5L0,-3.0L2.5,-0.5"/>
  </g>
  <g id="arrowLeft" transform="rotate(270) translate(-36 17)">
    <use xlink:href="#rim"/>
    <path pointer-events="none" fill="none" stroke="white" stroke-width="1.5" d="M0,-3.0v7 M-2.5,-0.5L0,-3.0L2.5,-0.5"/>
  </g>
  <g id="resetDef">
    <use xlink:href="#rim2" fill="#404040"><set attributeName="fill" to="#808080" begin="reset.mouseover" end="reset.mouseout"/></use>
  </g>
</defs>
<script type="application/ecmascript">
var viewWidth = 1114;
var viewHeight = 317;
var sectionId = 'dynsection-539';
</script>
<script type="application/ecmascript" xlink:href="svg.min.js"/>
<svg id="graph" class="graph">
<g id="viewport">
<title>ImGui::GetCursorScreenPos</title>
<!-- Node1 -->
<g id="Node000001" class="node">
<title>Node1</title>
<g id="a_Node000001"><a xlink:title=" ">
<polygon fill="#999999" stroke="#666666" points="1106.25,-164.75 956,-164.75 956,-144 1106.25,-144 1106.25,-164.75"/>
<text text-anchor="middle" x="1031.12" y="-151.25" font-family="Helvetica,sans-Serif" font-size="10.00">ImGui::GetCursorScreenPos</text>
</a>
</g>
</g>
<!-- Node2 -->
<g id="Node000002" class="node">
<title>Node2</title>
<g id="a_Node000002"><a xlink:href="namespaceImGui.html#a6d112eeb6d8ffdebbc9d9a8c66babbee" target="_top" xlink:title=" ">
<polygon fill="white" stroke="#666666" points="910.25,-293.12 766.75,-293.12 766.75,-259.62 910.25,-259.62 910.25,-293.12"/>
<text text-anchor="start" x="774.75" y="-279.62" font-family="Helvetica,sans-Serif" font-size="10.00">ImGui::ColorPickerOptions</text>
<text text-anchor="middle" x="838.5" y="-266.88" font-family="Helvetica,sans-Serif" font-size="10.00">Popup</text>
</a>
</g>
</g>
<!-- Node1&#45;&gt;Node2 -->
<g id="edge1_Node000001_Node000002" class="edge">
<title>Node1&#45;&gt;Node2</title>
<g id="a_edge1_Node000001_Node000002"><a xlink:title=" ">
<path fill="none" stroke="#63b8ff" d="M1005.74,-171.7C983.63,-187.23 950.02,-210.42 920,-229.38 903.72,-239.66 885.18,-250.54 870,-259.23"/>
<polygon fill="#63b8ff" stroke="#63b8ff" points="1007.64,-174.65 1013.79,-166.02 1003.6,-168.93 1007.64,-174.65"/>
</a>
</g>
</g>
<!-- Node7 -->
<g id="Node000007" class="node">
<title>Node7</title>
<g id="a_Node000007"><a xlink:href="namespaceImGui.html#ab2eb3dec78d054fe3feab1c091ec5de5" target="_top" xlink:title=" ">
<polygon fill="white" stroke="#666666" points="312.5,-206.75 181.75,-206.75 181.75,-186 312.5,-186 312.5,-206.75"/>
<text text-anchor="middle" x="247.12" y="-193.25" font-family="Helvetica,sans-Serif" font-size="10.00">ImGui::ShowStyleEditor</text>
</a>
</g>
</g>
<!-- Node1&#45;&gt;Node7 -->
<g id="edge19_Node000001_Node000007" class="edge">
<title>Node1&#45;&gt;Node7</title>
<g id="a_edge19_Node000001_Node000007"><a xlink:title=" ">
<path fill="none" stroke="#63b8ff" d="M998.65,-169.79C977.09,-179.49 947.51,-191.13 920,-196.38 700.57,-238.19 433.47,-217.44 312.8,-204.34"/>
<polygon fill="#63b8ff" stroke="#63b8ff" points="999.86,-173.08 1007.47,-165.71 996.93,-166.73 999.86,-173.08"/>
</a>
</g>
</g>
<!-- Node10 -->
<g id="Node000010" class="node">
<title>Node10</title>
<g id="a_Node000010"><a xlink:href="namespaceImGui.html#ae0207d60728f7e6a47dbcd1d7d84e3cb" target="_top" xlink:title=" ">
<polygon fill="white" stroke="#666666" points="903.12,-187.75 773.88,-187.75 773.88,-167 903.12,-167 903.12,-187.75"/>
<text text-anchor="middle" x="838.5" y="-174.25" font-family="Helvetica,sans-Serif" font-size="10.00">ImGui::DebugNodeFont</text>
</a>
</g>
</g>
<!-- Node1&#45;&gt;Node10 -->
<g id="edge11_Node000001_Node000010" class="edge">
<title>Node1&#45;&gt;Node10</title>
<g id="a_edge11_Node000001_Node000010"><a xlink:title=" ">
<path fill="none" stroke="#63b8ff" d="M944.19,-164.74C930.49,-166.4 916.53,-168.08 903.46,-169.66"/>
<polygon fill="#63b8ff" stroke="#63b8ff" points="944.59,-168.22 954.1,-163.55 943.76,-161.27 944.59,-168.22"/>
</a>
</g>
</g>
<!-- Node13 -->
<g id="Node000013" class="node">
<title>Node13</title>
<g id="a_Node000013"><a xlink:href="namespaceImGui.html#a1355ddf2e5435da21acf2a9944b52ab4" target="_top" xlink:title=" ">
<polygon fill="white" stroke="#666666" points="920,-149.12 757,-149.12 757,-115.62 920,-115.62 920,-149.12"/>
<text text-anchor="start" x="765" y="-135.62" font-family="Helvetica,sans-Serif" font-size="10.00">ImGui::DebugRenderKeyboard</text>
<text text-anchor="middle" x="838.5" y="-122.88" font-family="Helvetica,sans-Serif" font-size="10.00">Preview</text>
</a>
</g>
</g>
<!-- Node1&#45;&gt;Node13 -->
<g id="edge16_Node000001_Node000013" class="edge">
<title>Node1&#45;&gt;Node13</title>
<g id="a_edge16_Node000001_Node000013"><a xlink:title=" ">
<path fill="none" stroke="#63b8ff" d="M944.36,-144.48C936.34,-143.55 928.24,-142.62 920.27,-141.7"/>
<polygon fill="#63b8ff" stroke="#63b8ff" points="943.77,-147.93 954.1,-145.6 944.57,-140.98 943.77,-147.93"/>
</a>
</g>
</g>
<!-- Node14 -->
<g id="Node000014" class="node">
<title>Node14</title>
<g id="a_Node000014"><a xlink:href="structExampleAssetsBrowser.html#a2b36e1f9b7d764e547611baa4c7fd8d1" target="_top" xlink:title=" ">
<polygon fill="white" stroke="#666666" points="699.62,-111.12 568.88,-111.12 568.88,-77.62 699.62,-77.62 699.62,-111.12"/>
<text text-anchor="start" x="576.88" y="-97.62" font-family="Helvetica,sans-Serif" font-size="10.00">ExampleAssetsBrowser</text>
<text text-anchor="middle" x="634.25" y="-84.88" font-family="Helvetica,sans-Serif" font-size="10.00">::Draw</text>
</a>
</g>
</g>
<!-- Node1&#45;&gt;Node14 -->
<g id="edge18_Node000001_Node000014" class="edge">
<title>Node1&#45;&gt;Node14</title>
<g id="a_edge18_Node000001_Node000014"><a xlink:title=" ">
<path fill="none" stroke="#63b8ff" d="M1001.23,-138.26C979.59,-127.07 948.86,-113.03 920,-106.38 845.99,-89.31 758.36,-88.4 700.05,-90.4"/>
<polygon fill="#63b8ff" stroke="#63b8ff" points="999.56,-141.33 1010.03,-142.92 1002.84,-135.15 999.56,-141.33"/>
</a>
</g>
</g>
<!-- Node15 -->
<g id="Node000015" class="node">
<title>Node15</title>
<g id="a_Node000015"><a xlink:href="namespaceImGui.html#a0c16791f4620e8db38511553d5d63335" target="_top" xlink:title=" ">
<polygon fill="white" stroke="#666666" points="907.62,-59.75 769.38,-59.75 769.38,-39 907.62,-39 907.62,-59.75"/>
<text text-anchor="middle" x="838.5" y="-46.25" font-family="Helvetica,sans-Serif" font-size="10.00">ImGui::TableHeadersRow</text>
</a>
</g>
</g>
<!-- Node1&#45;&gt;Node15 -->
<g id="edge20_Node000001_Node000015" class="edge">
<title>Node1&#45;&gt;Node15</title>
<g id="a_edge20_Node000001_Node000015"><a xlink:title=" ">
<path fill="none" stroke="#63b8ff" d="M1010.08,-136.28C989.01,-118.1 954.24,-90.42 920,-73.38 909.29,-68.05 897.19,-63.67 885.68,-60.18"/>
<polygon fill="#63b8ff" stroke="#63b8ff" points="1007.52,-138.69 1017.34,-142.66 1012.14,-133.43 1007.52,-138.69"/>
</a>
</g>
</g>
<!-- Node3 -->
<g id="Node000003" class="node">
<title>Node3</title>
<g id="a_Node000003"><a xlink:href="namespaceImGui.html#a3d5aae9e0a14aa051d5a799abbe97b32" target="_top" xlink:title=" ">
<polygon fill="white" stroke="#666666" points="690.25,-286.75 578.25,-286.75 578.25,-266 690.25,-266 690.25,-286.75"/>
<text text-anchor="middle" x="634.25" y="-273.25" font-family="Helvetica,sans-Serif" font-size="10.00">ImGui::ColorPicker4</text>
</a>
</g>
</g>
<!-- Node2&#45;&gt;Node3 -->
<g id="edge2_Node000002_Node000003" class="edge">
<title>Node2&#45;&gt;Node3</title>
<g id="a_edge2_Node000002_Node000003"><a xlink:title=" ">
<path fill="none" stroke="#63b8ff" d="M755.22,-269.73C733.45,-269.48 710.46,-269.67 690.5,-270.28"/>
<polygon fill="#63b8ff" stroke="#63b8ff" points="754.91,-273.23 764.97,-269.88 755.02,-266.23 754.91,-273.23"/>
</a>
</g>
</g>
<!-- Node3&#45;&gt;Node2 -->
<g id="edge10_Node000003_Node000002" class="edge">
<title>Node3&#45;&gt;Node2</title>
<g id="a_edge10_Node000003_Node000002"><a xlink:title=" ">
<path fill="none" stroke="#63b8ff" d="M701.77,-282.76C722.5,-283.21 745.45,-283.24 766.48,-282.85"/>
<polygon fill="#63b8ff" stroke="#63b8ff" points="702.1,-279.27 692.01,-282.51 701.92,-286.27 702.1,-279.27"/>
</a>
</g>
</g>
<!-- Node4 -->
<g id="Node000004" class="node">
<title>Node4</title>
<g id="a_Node000004"><a xlink:href="namespaceImGui.html#ac3f45e2aa0b1d591cc8a2cdf8b566a45" target="_top" xlink:title=" ">
<polygon fill="white" stroke="#666666" points="480.75,-302.75 379.25,-302.75 379.25,-282 480.75,-282 480.75,-302.75"/>
<text text-anchor="middle" x="430" y="-289.25" font-family="Helvetica,sans-Serif" font-size="10.00">ImGui::ColorEdit4</text>
</a>
</g>
</g>
<!-- Node3&#45;&gt;Node4 -->
<g id="edge3_Node000003_Node000004" class="edge">
<title>Node3&#45;&gt;Node4</title>
<g id="a_edge3_Node000003_Node000004"><a xlink:title=" ">
<path fill="none" stroke="#63b8ff" d="M566.7,-275.25C538.78,-276.85 506.87,-279.53 481.01,-282.5"/>
<polygon fill="#63b8ff" stroke="#63b8ff" points="566.67,-278.76 576.47,-274.74 566.3,-271.77 566.67,-278.76"/>
</a>
</g>
</g>
<!-- Node9 -->
<g id="Node000009" class="node">
<title>Node9</title>
<g id="a_Node000009"><a xlink:href="namespaceImGui.html#a2a2a98cb9a17b18702be6b954670b388" target="_top" xlink:title=" ">
<polygon fill="white" stroke="#666666" points="486,-263.75 374,-263.75 374,-243 486,-243 486,-263.75"/>
<text text-anchor="middle" x="430" y="-250.25" font-family="Helvetica,sans-Serif" font-size="10.00">ImGui::ColorPicker3</text>
</a>
</g>
</g>
<!-- Node3&#45;&gt;Node9 -->
<g id="edge9_Node000003_Node000009" class="edge">
<title>Node3&#45;&gt;Node9</title>
<g id="a_edge9_Node000003_Node000009"><a xlink:title=" ">
<path fill="none" stroke="#63b8ff" d="M566.67,-268.8C540.6,-265.84 511.05,-262.48 486.2,-259.65"/>
<polygon fill="#63b8ff" stroke="#63b8ff" points="566.15,-272.27 576.48,-269.92 566.94,-265.31 566.15,-272.27"/>
</a>
</g>
</g>
<!-- Node4&#45;&gt;Node3 -->
<g id="edge6_Node000004_Node000003" class="edge">
<title>Node4&#45;&gt;Node3</title>
<g id="a_edge6_Node000004_Node000003"><a xlink:title=" ">
<path fill="none" stroke="#63b8ff" d="M492.38,-293.78C519.64,-292.33 551.48,-289.75 577.98,-286.84"/>
<polygon fill="#63b8ff" stroke="#63b8ff" points="492.34,-290.28 482.52,-294.26 492.68,-297.27 492.34,-290.28"/>
</a>
</g>
</g>
<!-- Node5 -->
<g id="Node000005" class="node">
<title>Node5</title>
<g id="a_Node000005"><a xlink:href="namespaceImGui.html#a5afe76ba1c91f07363e40396e7df656e" target="_top" xlink:title=" ">
<polygon fill="white" stroke="#666666" points="297.88,-302.75 196.38,-302.75 196.38,-282 297.88,-282 297.88,-302.75"/>
<text text-anchor="middle" x="247.12" y="-289.25" font-family="Helvetica,sans-Serif" font-size="10.00">ImGui::ColorEdit3</text>
</a>
</g>
</g>
<!-- Node4&#45;&gt;Node5 -->
<g id="edge4_Node000004_Node000005" class="edge">
<title>Node4&#45;&gt;Node5</title>
<g id="a_edge4_Node000004_Node000005"><a xlink:title=" ">
<path fill="none" stroke="#63b8ff" d="M367.87,-292.38C345.19,-292.38 319.76,-292.38 298.18,-292.38"/>
<polygon fill="#63b8ff" stroke="#63b8ff" points="367.58,-295.88 377.58,-292.38 367.58,-288.88 367.58,-295.88"/>
</a>
</g>
</g>
<!-- Node4&#45;&gt;Node7 -->
<g id="edge7_Node000004_Node000007" class="edge">
<title>Node4&#45;&gt;Node7</title>
<g id="a_edge7_Node000004_Node000007"><a xlink:title=" ">
<path fill="none" stroke="#63b8ff" d="M368.24,-280.11C361.44,-277.91 354.72,-275.35 348.5,-272.38 312.41,-255.13 276.63,-223.7 259.15,-207.18"/>
<polygon fill="#63b8ff" stroke="#63b8ff" points="366.91,-283.37 377.49,-282.85 368.9,-276.65 366.91,-283.37"/>
</a>
</g>
</g>
<!-- Node6 -->
<g id="Node000006" class="node">
<title>Node6</title>
<g id="a_Node000006"><a xlink:href="structExampleAppDocuments.html#a007a1a59693a3c7fc7d87815e022dbe4" target="_top" xlink:title=" ">
<polygon fill="white" stroke="#666666" points="139.38,-309.12 6.38,-309.12 6.38,-275.62 139.38,-275.62 139.38,-309.12"/>
<text text-anchor="start" x="14.38" y="-295.62" font-family="Helvetica,sans-Serif" font-size="10.00">ExampleAppDocuments</text>
<text text-anchor="middle" x="72.88" y="-282.88" font-family="Helvetica,sans-Serif" font-size="10.00">::DisplayDocContents</text>
</a>
</g>
</g>
<!-- Node5&#45;&gt;Node6 -->
<g id="edge5_Node000005_Node000006" class="edge">
<title>Node5&#45;&gt;Node6</title>
<g id="a_edge5_Node000005_Node000006"><a xlink:title=" ">
<path fill="none" stroke="#63b8ff" d="M184.81,-292.38C170.16,-292.38 154.46,-292.38 139.62,-292.38"/>
<polygon fill="#63b8ff" stroke="#63b8ff" points="184.79,-295.88 194.79,-292.38 184.79,-288.88 184.79,-295.88"/>
</a>
</g>
</g>
<!-- Node8 -->
<g id="Node000008" class="node">
<title>Node8</title>
<g id="a_Node000008"><a xlink:href="namespaceImGui.html#af95643a0ce4893b9e57c12991922fb18" target="_top" xlink:title=" ">
<polygon fill="white" stroke="#666666" points="145.75,-132.75 0,-132.75 0,-112 145.75,-112 145.75,-132.75"/>
<text text-anchor="middle" x="72.88" y="-119.25" font-family="Helvetica,sans-Serif" font-size="10.00">ImGui::ShowDemoWindow</text>
</a>
</g>
</g>
<!-- Node7&#45;&gt;Node8 -->
<g id="edge8_Node000007_Node000008" class="edge">
<title>Node7&#45;&gt;Node8</title>
<g id="a_edge8_Node000007_Node000008"><a xlink:title=" ">
<path fill="none" stroke="#63b8ff" d="M210.87,-181.23C177.56,-166.92 128.43,-145.81 98.95,-133.15"/>
<polygon fill="#63b8ff" stroke="#63b8ff" points="209.12,-184.29 219.69,-185.02 211.88,-177.85 209.12,-184.29"/>
</a>
</g>
</g>
<!-- Node11 -->
<g id="Node000011" class="node">
<title>Node11</title>
<g id="a_Node000011"><a xlink:href="namespaceImGui.html#acab51ec2b39577845309f24535381038" target="_top" xlink:title=" ">
<polygon fill="white" stroke="#666666" points="695.88,-187.75 572.62,-187.75 572.62,-167 695.88,-167 695.88,-187.75"/>
<text text-anchor="middle" x="634.25" y="-174.25" font-family="Helvetica,sans-Serif" font-size="10.00">ImGui::ShowFontAtlas</text>
</a>
</g>
</g>
<!-- Node10&#45;&gt;Node11 -->
<g id="edge12_Node000010_Node000011" class="edge">
<title>Node10&#45;&gt;Node11</title>
<g id="a_edge12_Node000010_Node000011"><a xlink:title=" ">
<path fill="none" stroke="#63b8ff" d="M762.27,-177.38C740.45,-177.38 716.89,-177.38 696.07,-177.38"/>
<polygon fill="#63b8ff" stroke="#63b8ff" points="761.99,-180.88 771.99,-177.38 761.99,-173.88 761.99,-180.88"/>
</a>
</g>
</g>
<!-- Node11&#45;&gt;Node7 -->
<g id="edge15_Node000011_Node000007" class="edge">
<title>Node11&#45;&gt;Node7</title>
<g id="a_edge15_Node000011_Node000007"><a xlink:title=" ">
<path fill="none" stroke="#63b8ff" d="M561.09,-180.93C489.68,-184.46 381.37,-189.8 312.72,-193.19"/>
<polygon fill="#63b8ff" stroke="#63b8ff" points="560.9,-184.45 570.71,-180.46 560.55,-177.46 560.9,-184.45"/>
</a>
</g>
</g>
<!-- Node12 -->
<g id="Node000012" class="node">
<title>Node12</title>
<g id="a_Node000012"><a xlink:href="namespaceImGui.html#afe7a28c6eb52fff3cc27d5a698fea4ff" target="_top" xlink:title=" ">
<polygon fill="white" stroke="#666666" points="506.25,-132.75 353.75,-132.75 353.75,-112 506.25,-112 506.25,-132.75"/>
<text text-anchor="middle" x="430" y="-119.25" font-family="Helvetica,sans-Serif" font-size="10.00">ImGui::ShowMetricsWindow</text>
</a>
</g>
</g>
<!-- Node11&#45;&gt;Node12 -->
<g id="edge13_Node000011_Node000012" class="edge">
<title>Node11&#45;&gt;Node12</title>
<g id="a_edge13_Node000011_Node000012"><a xlink:title=" ">
<path fill="none" stroke="#63b8ff" d="M582.47,-163.57C547.92,-154.17 502.85,-141.91 470.88,-133.22"/>
<polygon fill="#63b8ff" stroke="#63b8ff" points="581.26,-166.86 591.83,-166.11 583.1,-160.11 581.26,-166.86"/>
</a>
</g>
</g>
<!-- Node12&#45;&gt;Node8 -->
<g id="edge14_Node000012_Node000008" class="edge">
<title>Node12&#45;&gt;Node8</title>
<g id="a_edge14_Node000012_Node000008"><a xlink:title=" ">
<path fill="none" stroke="#63b8ff" d="M341.88,-122.38C281.77,-122.38 202.79,-122.38 146.17,-122.38"/>
<polygon fill="#63b8ff" stroke="#63b8ff" points="341.74,-125.88 351.74,-122.38 341.74,-118.88 341.74,-125.88"/>
</a>
</g>
</g>
<!-- Node13&#45;&gt;Node12 -->
<g id="edge17_Node000013_Node000012" class="edge">
<title>Node13&#45;&gt;Node12</title>
<g id="a_edge17_Node000013_Node000012"><a xlink:title=" ">
<path fill="none" stroke="#63b8ff" d="M745.36,-130.11C673.18,-128.33 574.02,-125.89 506.5,-124.23"/>
<polygon fill="#63b8ff" stroke="#63b8ff" points="745.11,-133.6 755.19,-130.35 745.28,-126.61 745.11,-133.6"/>
</a>
</g>
</g>
<!-- Node15&#45;&gt;Node14 -->
<g id="edge23_Node000015_Node000014" class="edge">
<title>Node15&#45;&gt;Node14</title>
<g id="a_edge23_Node000015_Node000014"><a xlink:title=" ">
<path fill="none" stroke="#63b8ff" d="M777.85,-62.65C753.37,-68.09 724.96,-74.42 699.97,-79.97"/>
<polygon fill="#63b8ff" stroke="#63b8ff" points="778.32,-66.13 787.32,-60.54 776.8,-59.3 778.32,-66.13"/>
</a>
</g>
</g>
<!-- Node16 -->
<g id="Node000016" class="node">
<title>Node16</title>
<g id="a_Node000016"><a xlink:href="namespaceImGui.html#a326f0badd138d1dea078a31b0e8dd685" target="_top" xlink:title=" ">
<polygon fill="white" stroke="#666666" points="707.88,-59.75 560.62,-59.75 560.62,-39 707.88,-39 707.88,-59.75"/>
<text text-anchor="middle" x="634.25" y="-46.25" font-family="Helvetica,sans-Serif" font-size="10.00">ImGui::DebugTextEncoding</text>
</a>
</g>
</g>
<!-- Node15&#45;&gt;Node16 -->
<g id="edge21_Node000015_Node000016" class="edge">
<title>Node15&#45;&gt;Node16</title>
<g id="a_edge21_Node000015_Node000016"><a xlink:title=" ">
<path fill="none" stroke="#63b8ff" d="M757.83,-49.38C741.45,-49.38 724.28,-49.38 708.15,-49.38"/>
<polygon fill="#63b8ff" stroke="#63b8ff" points="757.51,-52.88 767.51,-49.38 757.51,-45.88 757.51,-52.88"/>
</a>
</g>
</g>
<!-- Node17 -->
<g id="Node000017" class="node">
<title>Node17</title>
<g id="a_Node000017"><a xlink:href="namespaceImGui.html#ab4a87bf4a874a8e5872b60b4a9b1d99e" target="_top" xlink:title=" ">
<polygon fill="white" stroke="#666666" points="721,-20.75 547.5,-20.75 547.5,0 721,0 721,-20.75"/>
<text text-anchor="middle" x="634.25" y="-7.25" font-family="Helvetica,sans-Serif" font-size="10.00">ImGui::ShowIDStackToolWindow</text>
</a>
</g>
</g>
<!-- Node15&#45;&gt;Node17 -->
<g id="edge24_Node000015_Node000017" class="edge">
<title>Node15&#45;&gt;Node17</title>
<g id="a_edge24_Node000015_Node000017"><a xlink:title=" ">
<path fill="none" stroke="#63b8ff" d="M770.1,-36.38C744.65,-31.47 715.98,-25.94 691.64,-21.25"/>
<polygon fill="#63b8ff" stroke="#63b8ff" points="769.19,-39.77 779.68,-38.22 770.52,-32.89 769.19,-39.77"/>
</a>
</g>
</g>
<!-- Node16&#45;&gt;Node12 -->
<g id="edge22_Node000016_Node000012" class="edge">
<title>Node16&#45;&gt;Node12</title>
<g id="a_edge22_Node000016_Node000012"><a xlink:title=" ">
<path fill="none" stroke="#63b8ff" d="M562.05,-63.34C557.07,-64.87 552.18,-66.54 547.5,-68.38 530.25,-75.13 528.11,-81.18 511.5,-89.38 494.84,-97.6 475.61,-105.54 460.12,-111.57"/>
<polygon fill="#63b8ff" stroke="#63b8ff" points="562.91,-66.74 571.58,-60.64 561,-60 562.91,-66.74"/>
</a>
</g>
</g>
<!-- Node17&#45;&gt;Node8 -->
<g id="edge25_Node000017_Node000008" class="edge">
<title>Node17&#45;&gt;Node8</title>
<g id="a_edge25_Node000017_Node000008"><a xlink:title=" ">
<path fill="none" stroke="#63b8ff" d="M567.89,-24.09C560.94,-26 554.04,-28.1 547.5,-30.38 530.79,-36.19 528.38,-42.05 511.5,-47.38 386.34,-86.84 234.1,-106.99 146.16,-116.05"/>
<polygon fill="#63b8ff" stroke="#63b8ff" points="568.52,-27.54 577.31,-21.63 566.75,-20.77 568.52,-27.54"/>
</a>
</g>
</g>
<!-- Node17&#45;&gt;Node12 -->
<g id="edge26_Node000017_Node000012" class="edge">
<title>Node17&#45;&gt;Node12</title>
<g id="a_edge26_Node000017_Node000012"><a xlink:title=" ">
<path fill="none" stroke="#63b8ff" d="M553.95,-26.22C551.72,-27.5 549.56,-28.88 547.5,-30.38 522.61,-48.37 534.88,-69.45 511.5,-89.38 499.89,-99.27 484.91,-106.5 471.03,-111.62"/>
<polygon fill="#63b8ff" stroke="#63b8ff" points="555.34,-29.44 562.78,-21.9 552.26,-23.15 555.34,-29.44"/>
</a>
</g>
</g>
<!-- Node18 -->
<g id="Node000018" class="node">
<title>Node18</title>
<g id="a_Node000018"><a xlink:href="namespaceImGui.html#a1b6e100d30894c9379908efc540e5486" target="_top" xlink:title=" ">
<polygon fill="white" stroke="#666666" points="511.5,-20.75 348.5,-20.75 348.5,0 511.5,0 511.5,-20.75"/>
<text text-anchor="middle" x="430" y="-7.25" font-family="Helvetica,sans-Serif" font-size="10.00">ImGui::ShowStackToolWindow</text>
</a>
</g>
</g>
<!-- Node17&#45;&gt;Node18 -->
<g id="edge27_Node000017_Node000018" class="edge">
<title>Node17&#45;&gt;Node18</title>
<g id="a_edge27_Node000017_Node000018"><a xlink:title=" ">
<path fill="none" stroke="#63b8ff" d="M535.86,-10.38C527.82,-10.38 519.75,-10.38 511.85,-10.38"/>
<polygon fill="#63b8ff" stroke="#63b8ff" points="535.67,-13.88 545.67,-10.38 535.67,-6.88 535.67,-13.88"/>
</a>
</g>
</g>
<!-- Node18&#45;&gt;Node18 -->
<g id="edge28_Node000018_Node000018" class="edge">
<title>Node18&#45;&gt;Node18</title>
<g id="a_edge28_Node000018_Node000018"><a xlink:title=" ">
<path fill="none" stroke="#63b8ff" d="M462.18,-32.24C457.92,-36.08 447.19,-38.75 430,-38.75 398.57,-38.75 388.75,-29.81 400.53,-21.15"/>
<polygon fill="#63b8ff" stroke="#63b8ff" points="465.6,-31.5 459.83,-22.62 458.8,-33.16 465.6,-31.5"/>
</a>
</g>
</g>
</g>
</svg>

<g id="navigator" transform="translate(0 0)" fill="#404254">
  <rect fill="#f2f5e9" fill-opacity="0.5" stroke="#606060" stroke-width=".5" x="0" y="0" width="60" height="60"/>
  <use id="zoomplus" xlink:href="#zoomPlus" x="17" y="9" onmousedown="handleZoom(evt,'in')"/>
  <use id="zoomminus" xlink:href="#zoomMin" x="42" y="9" onmousedown="handleZoom(evt,'out')"/>
  <use id="reset" xlink:href="#resetDef" x="30" y="36" onmousedown="handleReset()"/>
   <use id="arrowup" xlink:href="#arrowUp" x="0" y="0" onmousedown="handlePan(0,-1)"/>
  <use id="arrowright" xlink:href="#arrowRight" x="0" y="0" onmousedown="handlePan(1,0)"/>
  <use id="arrowdown" xlink:href="#arrowDown" x="0" y="0" onmousedown="handlePan(0,1)"/>
  <use id="arrowleft" xlink:href="#arrowLeft" x="0" y="0" onmousedown="handlePan(-1,0)"/>
</g>
<svg viewBox="0 0 15 15" width="100%" height="30px" preserveAspectRatio="xMaxYMin meet">
 <g id="arrow_out" transform="scale(0.3 0.3)">
  <a xlink:href="namespaceImGui_adb0db3c1ee36f5085f35890a4229ae75_icgraph_org.svg" target="_base">
   <rect id="button" ry="5" rx="5" y="6" x="6" height="38" width="38"
        fill="#f2f5e9" fill-opacity="0.5" stroke="#606060" stroke-width="1.0"/>
   <path id="arrow"
     d="M 11.500037,31.436501 C 11.940474,20.09759 22.043105,11.32322 32.158766,21.979434 L 37.068811,17.246167 C 37.068811,17.246167 37.088388,32 37.088388,32 L 22.160133,31.978069 C 22.160133,31.978069 26.997745,27.140456 26.997745,27.140456 C 18.528582,18.264221 13.291696,25.230495 11.500037,31.436501 z"
     style="fill:#404040;"/>
  </a>
 </g>
</svg>

<style type='text/css'>
<![CDATA[
[data-mouse-over-selected='false'] { opacity: 0.7; }
[data-mouse-over-selected='true']  { opacity: 1.0; }
]]>
</style>
<script type="application/ecmascript"><![CDATA[
document.addEventListener('DOMContentLoaded', (event) => {
  highlightEdges();
  highlightAdjacentNodes();
});
]]></script>
</svg>
