<?xml version="1.0" encoding="UTF-8" standalone="no"?>
<!DOCTYPE svg PUBLIC "-//W3C//DTD SVG 1.1//EN"
 "http://www.w3.org/Graphics/SVG/1.1/DTD/svg11.dtd">
<!-- Generated by graphviz version 12.0.0 (20240704.0754)
 -->
<!-- Title: ImGui::EndTabItem Pages: 1 -->
<svg width="465pt" height="29pt"
 viewBox="0.00 0.00 464.75 28.75" xmlns="http://www.w3.org/2000/svg" xmlns:xlink="http://www.w3.org/1999/xlink">
<g id="graph0" class="graph" transform="scale(1 1) rotate(0) translate(4 24.75)">
<title>ImGui::EndTabItem</title>
<!-- Node1 -->
<g id="Node000001" class="node">
<title>Node1</title>
<g id="a_Node000001"><a xlink:title=" ">
<polygon fill="#999999" stroke="#666666" points="456.75,-20.75 348.5,-20.75 348.5,0 456.75,0 456.75,-20.75"/>
<text text-anchor="middle" x="402.62" y="-7.25" font-family="Helvetica,sans-Serif" font-size="10.00">ImGui::EndTabItem</text>
</a>
</g>
</g>
<!-- Node2 -->
<g id="Node000002" class="node">
<title>Node2</title>
<g id="a_Node000002"><a xlink:href="namespaceImGui.html#ab2eb3dec78d054fe3feab1c091ec5de5" target="_top" xlink:title=" ">
<polygon fill="white" stroke="#666666" points="312.5,-20.75 181.75,-20.75 181.75,0 312.5,0 312.5,-20.75"/>
<text text-anchor="middle" x="247.12" y="-7.25" font-family="Helvetica,sans-Serif" font-size="10.00">ImGui::ShowStyleEditor</text>
</a>
</g>
</g>
<!-- Node1&#45;&gt;Node2 -->
<g id="edge1_Node000001_Node000002" class="edge">
<title>Node1&#45;&gt;Node2</title>
<g id="a_edge1_Node000001_Node000002"><a xlink:title=" ">
<path fill="none" stroke="#63b8ff" d="M336.91,-10.38C328.97,-10.38 320.86,-10.38 312.93,-10.38"/>
<polygon fill="#63b8ff" stroke="#63b8ff" points="336.86,-13.88 346.86,-10.38 336.86,-6.88 336.86,-13.88"/>
</a>
</g>
</g>
<!-- Node3 -->
<g id="Node000003" class="node">
<title>Node3</title>
<g id="a_Node000003"><a xlink:href="namespaceImGui.html#af95643a0ce4893b9e57c12991922fb18" target="_top" xlink:title=" ">
<polygon fill="white" stroke="#666666" points="145.75,-20.75 0,-20.75 0,0 145.75,0 145.75,-20.75"/>
<text text-anchor="middle" x="72.88" y="-7.25" font-family="Helvetica,sans-Serif" font-size="10.00">ImGui::ShowDemoWindow</text>
</a>
</g>
</g>
<!-- Node2&#45;&gt;Node3 -->
<g id="edge2_Node000002_Node000003" class="edge">
<title>Node2&#45;&gt;Node3</title>
<g id="a_edge2_Node000002_Node000003"><a xlink:title=" ">
<path fill="none" stroke="#63b8ff" d="M170.26,-10.38C162.23,-10.38 154.08,-10.38 146.09,-10.38"/>
<polygon fill="#63b8ff" stroke="#63b8ff" points="169.98,-13.88 179.98,-10.38 169.98,-6.88 169.98,-13.88"/>
</a>
</g>
</g>
</g>
</svg>
