<?xml version="1.0" encoding="UTF-8" standalone="no"?>
<!DOCTYPE svg PUBLIC "-//W3C//DTD SVG 1.1//EN"
 "http://www.w3.org/Graphics/SVG/1.1/DTD/svg11.dtd">
<!-- Generated by graphviz version 12.0.0 (20240704.0754)
 -->
<!-- Title: ImGui::GetNavTweakPressedAmount Pages: 1 -->
<svg width="767pt" height="153pt"
 viewBox="0.00 0.00 767.25 153.12" xmlns="http://www.w3.org/2000/svg" xmlns:xlink="http://www.w3.org/1999/xlink">
<g id="graph0" class="graph" transform="scale(1 1) rotate(0) translate(4 149.12)">
<title>ImGui::GetNavTweakPressedAmount</title>
<!-- Node1 -->
<g id="Node000001" class="node">
<title>Node1</title>
<g id="a_Node000001"><a xlink:title=" ">
<polygon fill="#999999" stroke="#666666" points="157,-84.12 0,-84.12 0,-50.62 157,-50.62 157,-84.12"/>
<text text-anchor="start" x="8" y="-70.62" font-family="Helvetica,sans-Serif" font-size="10.00">ImGui::GetNavTweakPressed</text>
<text text-anchor="middle" x="78.5" y="-57.88" font-family="Helvetica,sans-Serif" font-size="10.00">Amount</text>
</a>
</g>
</g>
<!-- Node2 -->
<g id="Node000002" class="node">
<title>Node2</title>
<g id="a_Node000002"><a xlink:href="namespaceImGui.html#a48359a9849c1cb2af8fb30c655cf8ff5" target="_top" xlink:title=" ">
<polygon fill="white" stroke="#666666" points="362.38,-116.75 199.38,-116.75 199.38,-96 362.38,-96 362.38,-116.75"/>
<text text-anchor="middle" x="280.88" y="-103.25" font-family="Helvetica,sans-Serif" font-size="10.00">ImGui::GetKeyPressedAmount</text>
</a>
</g>
</g>
<!-- Node1&#45;&gt;Node2 -->
<g id="edge1_Node000001_Node000002" class="edge">
<title>Node1&#45;&gt;Node2</title>
<g id="a_edge1_Node000001_Node000002"><a xlink:title=" ">
<path fill="none" stroke="#63b8ff" d="M157.26,-82.51C175.66,-86.09 195.13,-89.88 213.01,-93.36"/>
<polygon fill="#63b8ff" stroke="#63b8ff" points="212.23,-96.77 222.71,-95.25 213.57,-89.9 212.23,-96.77"/>
</a>
</g>
</g>
<!-- Node8 -->
<g id="Node000008" class="node">
<title>Node8</title>
<g id="a_Node000008"><a xlink:href="namespaceImGui.html#a1cc0e048762c17bef27b0f403708cc0b" target="_top" xlink:title=" ">
<polygon fill="white" stroke="#666666" points="368.75,-77.75 193,-77.75 193,-57 368.75,-57 368.75,-77.75"/>
<text text-anchor="middle" x="280.88" y="-64.25" font-family="Helvetica,sans-Serif" font-size="10.00">ImGui::GetTypematicRepeatRate</text>
</a>
</g>
</g>
<!-- Node1&#45;&gt;Node8 -->
<g id="edge7_Node000001_Node000008" class="edge">
<title>Node1&#45;&gt;Node8</title>
<g id="a_edge7_Node000001_Node000008"><a xlink:title=" ">
<path fill="none" stroke="#63b8ff" d="M157.26,-67.38C165.11,-67.38 173.15,-67.38 181.18,-67.38"/>
<polygon fill="#63b8ff" stroke="#63b8ff" points="181,-70.88 191,-67.38 181,-63.88 181,-70.88"/>
</a>
</g>
</g>
<!-- Node9 -->
<g id="Node000009" class="node">
<title>Node9</title>
<g id="a_Node000009"><a xlink:href="namespaceImGui.html#a82095f2501c1df5ccd1928a53edaad99" target="_top" xlink:title=" ">
<polygon fill="white" stroke="#666666" points="333.5,-20.75 228.25,-20.75 228.25,0 333.5,0 333.5,-20.75"/>
<text text-anchor="middle" x="280.88" y="-7.25" font-family="Helvetica,sans-Serif" font-size="10.00">ImGui::IsKeyDown</text>
</a>
</g>
</g>
<!-- Node1&#45;&gt;Node9 -->
<g id="edge8_Node000001_Node000009" class="edge">
<title>Node1&#45;&gt;Node9</title>
<g id="a_edge8_Node000001_Node000009"><a xlink:title=" ">
<path fill="none" stroke="#63b8ff" d="M139.89,-50.2C168.96,-41.93 203.36,-32.14 230.79,-24.34"/>
<polygon fill="#63b8ff" stroke="#63b8ff" points="231.58,-27.75 240.24,-21.65 229.66,-21.02 231.58,-27.75"/>
</a>
</g>
</g>
<!-- Node3 -->
<g id="Node000003" class="node">
<title>Node3</title>
<g id="a_Node000003"><a xlink:href="namespaceImGui.html#ab9804506fa0fe8823f63eadb3043916f" target="_top" xlink:title=" ">
<polygon fill="white" stroke="#666666" points="561.75,-145.12 404.75,-145.12 404.75,-111.62 561.75,-111.62 561.75,-145.12"/>
<text text-anchor="start" x="412.75" y="-131.62" font-family="Helvetica,sans-Serif" font-size="10.00">ImGui::CalcTypematicRepeat</text>
<text text-anchor="middle" x="483.25" y="-118.88" font-family="Helvetica,sans-Serif" font-size="10.00">Amount</text>
</a>
</g>
</g>
<!-- Node2&#45;&gt;Node3 -->
<g id="edge2_Node000002_Node000003" class="edge">
<title>Node2&#45;&gt;Node3</title>
<g id="a_edge2_Node000002_Node000003"><a xlink:title=" ">
<path fill="none" stroke="#63b8ff" d="M362.8,-115.26C372.74,-116.35 382.95,-117.47 393.01,-118.58"/>
<polygon fill="#63b8ff" stroke="#63b8ff" points="392.45,-122.04 402.77,-119.65 393.21,-115.08 392.45,-122.04"/>
</a>
</g>
</g>
<!-- Node4 -->
<g id="Node000004" class="node">
<title>Node4</title>
<g id="a_Node000004"><a xlink:href="namespaceImGui.html#a6d32d70d6beb45537b605508b78216c3" target="_top" xlink:title=" ">
<polygon fill="white" stroke="#666666" points="538.12,-93.75 428.38,-93.75 428.38,-73 538.12,-73 538.12,-93.75"/>
<text text-anchor="middle" x="483.25" y="-80.25" font-family="Helvetica,sans-Serif" font-size="10.00">ImGui::GetKeyData</text>
</a>
</g>
</g>
<!-- Node2&#45;&gt;Node4 -->
<g id="edge3_Node000002_Node000004" class="edge">
<title>Node2&#45;&gt;Node4</title>
<g id="a_edge3_Node000002_Node000004"><a xlink:title=" ">
<path fill="none" stroke="#63b8ff" d="M362.8,-97.09C380.8,-95.02 399.66,-92.86 416.93,-90.87"/>
<polygon fill="#63b8ff" stroke="#63b8ff" points="417,-94.39 426.53,-89.77 416.2,-87.43 417,-94.39"/>
</a>
</g>
</g>
<!-- Node5 -->
<g id="Node000005" class="node">
<title>Node5</title>
<g id="a_Node000005"><a xlink:href="namespaceImGui.html#ad540a8f07e5834f77f76a84626cdc70e" target="_top" xlink:title=" ">
<polygon fill="white" stroke="#666666" points="759.25,-145.12 597.75,-145.12 597.75,-111.62 759.25,-111.62 759.25,-145.12"/>
<text text-anchor="start" x="605.75" y="-131.62" font-family="Helvetica,sans-Serif" font-size="10.00">ImGui::ConvertSingleModFlag</text>
<text text-anchor="middle" x="678.5" y="-118.88" font-family="Helvetica,sans-Serif" font-size="10.00">ToKey</text>
</a>
</g>
</g>
<!-- Node4&#45;&gt;Node5 -->
<g id="edge4_Node000004_Node000005" class="edge">
<title>Node4&#45;&gt;Node5</title>
<g id="a_edge4_Node000004_Node000005"><a xlink:title=" ">
<path fill="none" stroke="#63b8ff" d="M530.54,-94.15C549.18,-98.49 571.28,-103.64 592.61,-108.61"/>
<polygon fill="#63b8ff" stroke="#63b8ff" points="591.66,-111.98 602.2,-110.84 593.25,-105.16 591.66,-111.98"/>
</a>
</g>
</g>
<!-- Node6 -->
<g id="Node000006" class="node">
<title>Node6</title>
<g id="a_Node000006"><a xlink:href="namespaceImGui.html#a8737377cd9666008318a3fa66fa943c7" target="_top" xlink:title=" ">
<polygon fill="white" stroke="#666666" points="734.5,-93.75 622.5,-93.75 622.5,-73 734.5,-73 734.5,-93.75"/>
<text text-anchor="middle" x="678.5" y="-80.25" font-family="Helvetica,sans-Serif" font-size="10.00">ImGui::IsLegacyKey</text>
</a>
</g>
</g>
<!-- Node4&#45;&gt;Node6 -->
<g id="edge5_Node000004_Node000006" class="edge">
<title>Node4&#45;&gt;Node6</title>
<g id="a_edge5_Node000004_Node000006"><a xlink:title=" ">
<path fill="none" stroke="#63b8ff" d="M538.6,-83.38C561.04,-83.38 587.29,-83.38 610.88,-83.38"/>
<polygon fill="#63b8ff" stroke="#63b8ff" points="610.71,-86.88 620.71,-83.38 610.71,-79.88 610.71,-86.88"/>
</a>
</g>
</g>
<!-- Node7 -->
<g id="Node000007" class="node">
<title>Node7</title>
<g id="a_Node000007"><a xlink:href="namespaceImGui.html#a1e6a2ce7696a25d0dd0cf318e3b48a33" target="_top" xlink:title=" ">
<polygon fill="white" stroke="#666666" points="734.88,-54.75 622.12,-54.75 622.12,-34 734.88,-34 734.88,-54.75"/>
<text text-anchor="middle" x="678.5" y="-41.25" font-family="Helvetica,sans-Serif" font-size="10.00">ImGui::IsNamedKey</text>
</a>
</g>
</g>
<!-- Node4&#45;&gt;Node7 -->
<g id="edge6_Node000004_Node000007" class="edge">
<title>Node4&#45;&gt;Node7</title>
<g id="a_edge6_Node000004_Node000007"><a xlink:title=" ">
<path fill="none" stroke="#63b8ff" d="M538.08,-72.51C561.12,-67.86 588.24,-62.39 612.39,-57.51"/>
<polygon fill="#63b8ff" stroke="#63b8ff" points="613.03,-60.96 622.14,-55.55 611.64,-54.09 613.03,-60.96"/>
</a>
</g>
</g>
<!-- Node9&#45;&gt;Node9 -->
<g id="edge9_Node000009_Node000009" class="edge">
<title>Node9&#45;&gt;Node9</title>
<g id="a_edge9_Node000009_Node000009"><a xlink:title=" ">
<path fill="none" stroke="#63b8ff" d="M248.27,-21.15C235.22,-29.81 246.09,-38.75 280.88,-38.75 299.9,-38.75 311.77,-36.08 316.49,-32.24"/>
<polygon fill="#63b8ff" stroke="#63b8ff" points="319.87,-31.35 313.88,-22.61 313.11,-33.18 319.87,-31.35"/>
</a>
</g>
</g>
</g>
</svg>
