<?xml version="1.0" encoding="UTF-8" standalone="no"?>
<!DOCTYPE svg PUBLIC "-//W3C//DTD SVG 1.1//EN"
 "http://www.w3.org/Graphics/SVG/1.1/DTD/svg11.dtd">
<!-- Generated by graphviz version 13.1.0 (20250701.0955)
 -->
<!-- Title: steppable::__internals::stringUtils::getUnicodeDisplayWidth Pages: 1 -->
<!--zoomable 519 -->

<svg id="main" version="1.1" xmlns="http://www.w3.org/2000/svg" xmlns:xlink="http://www.w3.org/1999/xlink" xml:space="preserve" onload="init(evt)">

<style type="text/css"><![CDATA[
.node, .edge {opacity: 0.7;}
.node.selected, .edge.selected {opacity: 1;}
.edge:hover path { stroke: red; }
.edge:hover polygon { stroke: red; fill: red; }
]]></style>

<defs>
  <circle id="rim" cx="0" cy="0" r="7"/>
  <circle id="rim2" cx="0" cy="0" r="3.5"/>
  <g id="zoomPlus">
    <use xlink:href="#rim" fill="#404040"><set attributeName="fill" to="#808080" begin="zoomplus.mouseover" end="zoomplus.mouseout"/></use>
    <path d="M-4,0h8M0,-4v8" fill="none" stroke="white" stroke-width="1.5" pointer-events="none"/>
  </g>
  <g id="zoomMin">
    <use xlink:href="#rim" fill="#404040"><set attributeName="fill" to="#808080" begin="zoomminus.mouseover" end="zoomminus.mouseout"/></use>
    <path d="M-4,0h8" fill="none" stroke="white" stroke-width="1.5" pointer-events="none"/>
  </g>
  <g id="arrowUp" transform="translate(30 24)">
    <use xlink:href="#rim"/>
    <path pointer-events="none" fill="none" stroke="white" stroke-width="1.5" d="M0,-3.0v7 M-2.5,-0.5L0,-3.0L2.5,-0.5"/>
  </g>
  <g id="arrowRight" transform="rotate(90) translate(36 -43)">
    <use xlink:href="#rim"/>
    <path pointer-events="none" fill="none" stroke="white" stroke-width="1.5" d="M0,-3.0v7 M-2.5,-0.5L0,-3.0L2.5,-0.5"/>
  </g>
  <g id="arrowDown" transform="rotate(180) translate(-30 -48)">
    <use xlink:href="#rim"/>
    <path pointer-events="none" fill="none" stroke="white" stroke-width="1.5" d="M0,-3.0v7 M-2.5,-0.5L0,-3.0L2.5,-0.5"/>
  </g>
  <g id="arrowLeft" transform="rotate(270) translate(-36 17)">
    <use xlink:href="#rim"/>
    <path pointer-events="none" fill="none" stroke="white" stroke-width="1.5" d="M0,-3.0v7 M-2.5,-0.5L0,-3.0L2.5,-0.5"/>
  </g>
  <g id="resetDef">
    <use xlink:href="#rim2" fill="#404040"><set attributeName="fill" to="#808080" begin="reset.mouseover" end="reset.mouseout"/></use>
  </g>
</defs>
<script type="application/ecmascript">
var viewWidth = 891;
var viewHeight = 519;
var sectionId = 'dynsection-4';
</script>
<script type="application/ecmascript" xlink:href="svg.min.js"/>
<svg id="graph" class="graph">
<g id="viewport">
<title>steppable::__internals::stringUtils::getUnicodeDisplayWidth</title>
<!-- Node1 -->
<g id="Node000001" class="node">
<title>Node1</title>
<g id="a_Node000001"><a xlink:title="Calculates the display width of a UTF&#45;8 encoded string.">
<polygon fill="#999999" stroke="#666666" points="882.5,-279.5 683.5,-279.5 683.5,-246 882.5,-246 882.5,-279.5"/>
<text xml:space="preserve" text-anchor="start" x="691.5" y="-266" font-family="Helvetica,sans-Serif" font-size="10.00">steppable::__internals</text>
<text xml:space="preserve" text-anchor="middle" x="783" y="-253.25" font-family="Helvetica,sans-Serif" font-size="10.00">::stringUtils::getUnicodeDisplayWidth</text>
</a>
</g>
</g>
<!-- Node1&#45;&gt;Node1 -->
<g id="edge25_Node000001_Node000001" class="edge">
<title>Node1&#45;&gt;Node1</title>
<g id="a_edge25_Node000001_Node000001"><a xlink:title=" ">
<path fill="none" stroke="#63b8ff" d="M816.67,-290.89C811.18,-294.85 799.96,-297.5 783,-297.5 752.85,-297.5 740.83,-289.12 746.96,-279.91"/>
<polygon fill="#63b8ff" stroke="#63b8ff" points="820.03,-291.91 818.72,-281.39 813.18,-290.43 820.03,-291.91"/>
</a>
</g>
</g>
<!-- Node2 -->
<g id="Node000002" class="node">
<title>Node2</title>
<g id="a_Node000002"><a xlink:href="classsteppable_1_1prettyPrint_1_1ConsoleOutput.html#a69ac944c1ac894a103bbb81a6886cc31" target="_top" xlink:title="Writes a string to the buffer.">
<polygon fill="white" stroke="#666666" points="647.5,-357.5 517.5,-357.5 517.5,-324 647.5,-324 647.5,-357.5"/>
<text xml:space="preserve" text-anchor="start" x="525.5" y="-344" font-family="Helvetica,sans-Serif" font-size="10.00">steppable::prettyPrint</text>
<text xml:space="preserve" text-anchor="middle" x="582.5" y="-331.25" font-family="Helvetica,sans-Serif" font-size="10.00">::ConsoleOutput::_write</text>
</a>
</g>
</g>
<!-- Node1&#45;&gt;Node2 -->
<g id="edge1_Node000001_Node000002" class="edge">
<title>Node1&#45;&gt;Node2</title>
<g id="a_edge1_Node000001_Node000002"><a xlink:title=" ">
<path fill="none" stroke="#63b8ff" d="M728.04,-283.95C696.42,-296.38 656.99,-311.87 627.3,-323.54"/>
<polygon fill="#63b8ff" stroke="#63b8ff" points="729,-287.34 737.03,-280.42 726.44,-280.82 729,-287.34"/>
</a>
</g>
</g>
<!-- Node5 -->
<g id="Node000005" class="node">
<title>Node5</title>
<g id="a_Node000005"><a xlink:href="namespacesteppable_1_1graphing.html#a64db77b3ee20711fc1eb79242f1bbb57" target="_top" xlink:title=" ">
<polygon fill="white" stroke="#666666" points="112.75,-487.5 0,-487.5 0,-454 112.75,-454 112.75,-487.5"/>
<text xml:space="preserve" text-anchor="start" x="8" y="-474" font-family="Helvetica,sans-Serif" font-size="10.00">steppable::graphing</text>
<text xml:space="preserve" text-anchor="middle" x="56.38" y="-461.25" font-family="Helvetica,sans-Serif" font-size="10.00">::conPlotBar</text>
</a>
</g>
</g>
<!-- Node1&#45;&gt;Node5 -->
<g id="edge17_Node000001_Node000005" class="edge">
<title>Node1&#45;&gt;Node5</title>
<g id="a_edge17_Node000001_Node000005"><a xlink:title=" ">
<path fill="none" stroke="#63b8ff" d="M754.27,-287.12C727.95,-309.52 686.7,-342.79 647.5,-366.75 510.81,-450.32 471.33,-475.7 313.25,-501.75 241.11,-513.64 220.89,-513.65 148.75,-501.75 131.89,-498.97 113.96,-493.48 98.49,-487.89"/>
<polygon fill="#63b8ff" stroke="#63b8ff" points="756.48,-289.84 761.78,-280.67 751.91,-284.53 756.48,-289.84"/>
</a>
</g>
</g>
<!-- Node8 -->
<g id="Node000008" class="node">
<title>Node8</title>
<g id="a_Node000008"><a xlink:href="namespacesteppable_1_1graphing.html#a56069e71ca1aa10e4ee202eb85b6b29d" target="_top" xlink:title=" ">
<polygon fill="white" stroke="#666666" points="112.75,-305.5 0,-305.5 0,-272 112.75,-272 112.75,-305.5"/>
<text xml:space="preserve" text-anchor="start" x="8" y="-292" font-family="Helvetica,sans-Serif" font-size="10.00">steppable::graphing</text>
<text xml:space="preserve" text-anchor="middle" x="56.38" y="-279.25" font-family="Helvetica,sans-Serif" font-size="10.00">::conPlot</text>
</a>
</g>
</g>
<!-- Node1&#45;&gt;Node8 -->
<g id="edge16_Node000001_Node000008" class="edge">
<title>Node1&#45;&gt;Node8</title>
<g id="a_edge16_Node000001_Node000008"><a xlink:title=" ">
<path fill="none" stroke="#63b8ff" d="M695.59,-243.3C572.03,-219.03 338.8,-186.46 148.75,-236.75 123.16,-243.52 97.25,-259.3 79.58,-271.72"/>
<polygon fill="#63b8ff" stroke="#63b8ff" points="694.86,-246.72 705.35,-245.25 696.23,-239.86 694.86,-246.72"/>
</a>
</g>
</g>
<!-- Node9 -->
<g id="Node000009" class="node">
<title>Node9</title>
<g id="a_Node000009"><a xlink:href="namespacesteppable_1_1graphing_1_1____internals.html#af1f0d4471f220c173d3adea9d3a1b3d5" target="_top" xlink:title=" ">
<polygon fill="white" stroke="#666666" points="293.75,-279.5 168.25,-279.5 168.25,-246 293.75,-246 293.75,-279.5"/>
<text xml:space="preserve" text-anchor="start" x="176.25" y="-266" font-family="Helvetica,sans-Serif" font-size="10.00">steppable::graphing</text>
<text xml:space="preserve" text-anchor="middle" x="231" y="-253.25" font-family="Helvetica,sans-Serif" font-size="10.00">::__internals::drawGrid</text>
</a>
</g>
</g>
<!-- Node1&#45;&gt;Node9 -->
<g id="edge18_Node000001_Node000009" class="edge">
<title>Node1&#45;&gt;Node9</title>
<g id="a_edge18_Node000001_Node000009"><a xlink:title=" ">
<path fill="none" stroke="#63b8ff" d="M671.56,-262.75C558.04,-262.75 385.35,-262.75 293.89,-262.75"/>
<polygon fill="#63b8ff" stroke="#63b8ff" points="671.52,-266.25 681.52,-262.75 671.52,-259.25 671.52,-266.25"/>
</a>
</g>
</g>
<!-- Node12 -->
<g id="Node000012" class="node">
<title>Node12</title>
<g id="a_Node000012"><a xlink:href="namespacesteppable_1_1prettyPrint.html#a1a21e6713926f95247a2db8963a0ae2d" target="_top" xlink:title="Gets the minimal width needed to print a string.">
<polygon fill="white" stroke="#666666" points="643.38,-137.5 521.62,-137.5 521.62,-104 643.38,-104 643.38,-137.5"/>
<text xml:space="preserve" text-anchor="start" x="529.62" y="-124" font-family="Helvetica,sans-Serif" font-size="10.00">steppable::prettyPrint</text>
<text xml:space="preserve" text-anchor="middle" x="582.5" y="-111.25" font-family="Helvetica,sans-Serif" font-size="10.00">::getStringWidth</text>
</a>
</g>
</g>
<!-- Node1&#45;&gt;Node12 -->
<g id="edge19_Node000001_Node000012" class="edge">
<title>Node1&#45;&gt;Node12</title>
<g id="a_edge19_Node000001_Node000012"><a xlink:title=" ">
<path fill="none" stroke="#63b8ff" d="M748.74,-238.96C708.81,-210.39 642.82,-163.19 607.53,-137.94"/>
<polygon fill="#63b8ff" stroke="#63b8ff" points="746.66,-241.77 756.83,-244.74 750.73,-236.08 746.66,-241.77"/>
</a>
</g>
</g>
<!-- Node3 -->
<g id="Node000003" class="node">
<title>Node3</title>
<g id="a_Node000003"><a xlink:href="classsteppable_1_1prettyPrint_1_1ConsoleOutput.html#ac8200290d8baa9e453df8e8d9adb2878" target="_top" xlink:title="Writes a character to the buffer.">
<polygon fill="white" stroke="#666666" points="477.75,-435.5 353,-435.5 353,-402 477.75,-402 477.75,-435.5"/>
<text xml:space="preserve" text-anchor="start" x="361" y="-422" font-family="Helvetica,sans-Serif" font-size="10.00">steppable::prettyPrint</text>
<text xml:space="preserve" text-anchor="middle" x="415.38" y="-409.25" font-family="Helvetica,sans-Serif" font-size="10.00">::ConsoleOutput::write</text>
</a>
</g>
</g>
<!-- Node2&#45;&gt;Node3 -->
<g id="edge2_Node000002_Node000003" class="edge">
<title>Node2&#45;&gt;Node3</title>
<g id="a_edge2_Node000002_Node000003"><a xlink:title=" ">
<path fill="none" stroke="#63b8ff" d="M540.28,-363.36C522.42,-372.85 501.13,-383.76 481.5,-392.75 474.97,-395.74 467.99,-398.74 461.12,-401.57"/>
<polygon fill="#63b8ff" stroke="#63b8ff" points="541.87,-366.48 549.04,-358.67 538.57,-360.31 541.87,-366.48"/>
</a>
</g>
</g>
<!-- Node4 -->
<g id="Node000004" class="node">
<title>Node4</title>
<g id="a_Node000004"><a xlink:href="classsteppable_1_1prettyPrint_1_1ConsoleOutput.html#ab5cec970f8eba7b6ca23db89f094dece" target="_top" xlink:title="Writes a character to the buffer.">
<polygon fill="white" stroke="#666666" points="477.75,-383.5 353,-383.5 353,-350 477.75,-350 477.75,-383.5"/>
<text xml:space="preserve" text-anchor="start" x="361" y="-370" font-family="Helvetica,sans-Serif" font-size="10.00">steppable::prettyPrint</text>
<text xml:space="preserve" text-anchor="middle" x="415.38" y="-357.25" font-family="Helvetica,sans-Serif" font-size="10.00">::ConsoleOutput::write</text>
</a>
</g>
</g>
<!-- Node2&#45;&gt;Node4 -->
<g id="edge3_Node000002_Node000004" class="edge">
<title>Node2&#45;&gt;Node4</title>
<g id="a_edge3_Node000002_Node000004"><a xlink:title=" ">
<path fill="none" stroke="#63b8ff" d="M505.91,-352.65C496.59,-354.12 487.16,-355.61 478.08,-357.03"/>
<polygon fill="#63b8ff" stroke="#63b8ff" points="506.36,-356.13 515.69,-351.11 505.27,-349.21 506.36,-356.13"/>
</a>
</g>
</g>
<!-- Node11 -->
<g id="Node000011" class="node">
<title>Node11</title>
<g id="a_Node000011"><a xlink:href="classsteppable_1_1prettyPrint_1_1ConsoleOutput.html#afeb8d1e89269705cc5b5afcaa2f6ffb1" target="_top" xlink:title="Writes a string_view object to the buffer.">
<polygon fill="white" stroke="#666666" points="477.75,-331.5 353,-331.5 353,-298 477.75,-298 477.75,-331.5"/>
<text xml:space="preserve" text-anchor="start" x="361" y="-318" font-family="Helvetica,sans-Serif" font-size="10.00">steppable::prettyPrint</text>
<text xml:space="preserve" text-anchor="middle" x="415.38" y="-305.25" font-family="Helvetica,sans-Serif" font-size="10.00">::ConsoleOutput::write</text>
</a>
</g>
</g>
<!-- Node2&#45;&gt;Node11 -->
<g id="edge15_Node000002_Node000011" class="edge">
<title>Node2&#45;&gt;Node11</title>
<g id="a_edge15_Node000002_Node000011"><a xlink:title=" ">
<path fill="none" stroke="#63b8ff" d="M505.91,-328.85C496.59,-327.38 487.16,-325.89 478.08,-324.47"/>
<polygon fill="#63b8ff" stroke="#63b8ff" points="505.27,-332.29 515.69,-330.39 506.36,-325.37 505.27,-332.29"/>
</a>
</g>
</g>
<!-- Node4&#45;&gt;Node5 -->
<g id="edge4_Node000004_Node000005" class="edge">
<title>Node4&#45;&gt;Node5</title>
<g id="a_edge4_Node000004_Node000005"><a xlink:title=" ">
<path fill="none" stroke="#63b8ff" d="M351.97,-390.29C351.03,-391.08 350.13,-391.9 349.25,-392.75 320.63,-420.41 346.57,-452.99 313.25,-474.75 253.08,-514.05 166.8,-502.09 111.42,-487.96"/>
<polygon fill="#63b8ff" stroke="#63b8ff" points="353.68,-393.37 359.77,-384.7 349.6,-387.68 353.68,-393.37"/>
</a>
</g>
</g>
<!-- Node6 -->
<g id="Node000006" class="node">
<title>Node6</title>
<g id="a_Node000006"><a xlink:href="namespacesteppable_1_1graphing_1_1anonymous__namespace_02conPlot_8cpp_03.html#a4b51332b7cd965f9a214083e16673c96" target="_top" xlink:title=" ">
<polygon fill="white" stroke="#666666" points="313.25,-395.88 148.75,-395.88 148.75,-349.62 313.25,-349.62 313.25,-395.88"/>
<text xml:space="preserve" text-anchor="start" x="156.75" y="-382.38" font-family="Helvetica,sans-Serif" font-size="10.00">steppable::graphing</text>
<text xml:space="preserve" text-anchor="start" x="156.75" y="-369.62" font-family="Helvetica,sans-Serif" font-size="10.00">::anonymous_namespace</text>
<text xml:space="preserve" text-anchor="middle" x="231" y="-356.88" font-family="Helvetica,sans-Serif" font-size="10.00">{conPlot::cpp}::conPlotLegend</text>
</a>
</g>
</g>
<!-- Node4&#45;&gt;Node6 -->
<g id="edge5_Node000004_Node000006" class="edge">
<title>Node4&#45;&gt;Node6</title>
<g id="a_edge5_Node000004_Node000006"><a xlink:title=" ">
<path fill="none" stroke="#63b8ff" d="M341.3,-369.15C332.24,-369.45 322.92,-369.76 313.73,-370.06"/>
<polygon fill="#63b8ff" stroke="#63b8ff" points="341.24,-372.66 351.12,-368.83 341.01,-365.66 341.24,-372.66"/>
</a>
</g>
</g>
<!-- Node7 -->
<g id="Node000007" class="node">
<title>Node7</title>
<g id="a_Node000007"><a xlink:href="namespacesteppable_1_1graphing_1_1____internals.html#a74a1e8ee67ccb31d4440d91f8e801e08" target="_top" xlink:title=" ">
<polygon fill="white" stroke="#666666" points="299.75,-331.5 162.25,-331.5 162.25,-298 299.75,-298 299.75,-331.5"/>
<text xml:space="preserve" text-anchor="start" x="170.25" y="-318" font-family="Helvetica,sans-Serif" font-size="10.00">steppable::graphing</text>
<text xml:space="preserve" text-anchor="middle" x="231" y="-305.25" font-family="Helvetica,sans-Serif" font-size="10.00">::__internals::conPlotLine</text>
</a>
</g>
</g>
<!-- Node4&#45;&gt;Node7 -->
<g id="edge7_Node000004_Node000007" class="edge">
<title>Node4&#45;&gt;Node7</title>
<g id="a_edge7_Node000004_Node000007"><a xlink:title=" ">
<path fill="none" stroke="#63b8ff" d="M343.04,-346.41C326.26,-341.63 308.55,-336.58 292.31,-331.95"/>
<polygon fill="#63b8ff" stroke="#63b8ff" points="341.87,-349.72 352.44,-349.09 343.79,-342.98 341.87,-349.72"/>
</a>
</g>
</g>
<!-- Node4&#45;&gt;Node9 -->
<g id="edge9_Node000004_Node000009" class="edge">
<title>Node4&#45;&gt;Node9</title>
<g id="a_edge9_Node000004_Node000009"><a xlink:title=" ">
<path fill="none" stroke="#63b8ff" d="M353.31,-343.77C351.92,-342.8 350.56,-341.79 349.25,-340.75 327.26,-323.24 335.84,-305.48 313.25,-288.75 307.42,-284.43 300.84,-280.81 294.02,-277.78"/>
<polygon fill="#63b8ff" stroke="#63b8ff" points="351.33,-346.66 361.69,-348.87 354.97,-340.68 351.33,-346.66"/>
</a>
</g>
</g>
<!-- Node10 -->
<g id="Node000010" class="node">
<title>Node10</title>
<g id="a_Node000010"><a xlink:href="namespacesteppable_1_1graphing_1_1____internals.html#acdecbb80953262caa8fb8c9a01170670" target="_top" xlink:title=" ">
<polygon fill="white" stroke="#666666" points="296.38,-465.5 165.62,-465.5 165.62,-432 296.38,-432 296.38,-465.5"/>
<text xml:space="preserve" text-anchor="start" x="173.62" y="-452" font-family="Helvetica,sans-Serif" font-size="10.00">steppable::graphing</text>
<text xml:space="preserve" text-anchor="middle" x="231" y="-439.25" font-family="Helvetica,sans-Serif" font-size="10.00">::__internals::drawTicks</text>
</a>
</g>
</g>
<!-- Node4&#45;&gt;Node10 -->
<g id="edge12_Node000004_Node000010" class="edge">
<title>Node4&#45;&gt;Node10</title>
<g id="a_edge12_Node000004_Node000010"><a xlink:title=" ">
<path fill="none" stroke="#63b8ff" d="M355.95,-389C353.66,-390.21 351.42,-391.46 349.25,-392.75 331.36,-403.41 331.51,-412.72 313.25,-422.75 307.28,-426.03 300.83,-428.97 294.27,-431.59"/>
<polygon fill="#63b8ff" stroke="#63b8ff" points="357.44,-392.16 364.88,-384.62 354.36,-385.88 357.44,-392.16"/>
</a>
</g>
</g>
<!-- Node6&#45;&gt;Node6 -->
<g id="edge6_Node000006_Node000006" class="edge">
<title>Node6&#45;&gt;Node6</title>
<g id="a_edge6_Node000006_Node000006"><a xlink:title=" ">
<path fill="none" stroke="#63b8ff" d="M259.72,-406.61C254.75,-410.98 245.18,-413.88 231,-413.88 207.13,-413.88 196.31,-405.68 198.55,-396"/>
<polygon fill="#63b8ff" stroke="#63b8ff" points="262.93,-408.02 262.95,-397.43 256.33,-405.7 262.93,-408.02"/>
</a>
</g>
</g>
<!-- Node7&#45;&gt;Node8 -->
<g id="edge8_Node000007_Node000008" class="edge">
<title>Node7&#45;&gt;Node8</title>
<g id="a_edge8_Node000007_Node000008"><a xlink:title=" ">
<path fill="none" stroke="#63b8ff" d="M150.71,-302.81C138.03,-300.9 125.15,-298.96 113.17,-297.15"/>
<polygon fill="#63b8ff" stroke="#63b8ff" points="149.87,-306.22 160.28,-304.25 150.91,-299.3 149.87,-306.22"/>
</a>
</g>
</g>
<!-- Node9&#45;&gt;Node5 -->
<g id="edge11_Node000009_Node000005" class="edge">
<title>Node9&#45;&gt;Node5</title>
<g id="a_edge11_Node000009_Node000005"><a xlink:title=" ">
<path fill="none" stroke="#63b8ff" d="M157.8,-282.18C154.6,-284.16 151.56,-286.34 148.75,-288.75 95.69,-334.14 70.11,-417.82 61.2,-453.69"/>
<polygon fill="#63b8ff" stroke="#63b8ff" points="159.29,-285.35 166.44,-277.53 155.97,-279.18 159.29,-285.35"/>
</a>
</g>
</g>
<!-- Node9&#45;&gt;Node8 -->
<g id="edge10_Node000009_Node000008" class="edge">
<title>Node9&#45;&gt;Node8</title>
<g id="a_edge10_Node000009_Node000008"><a xlink:title=" ">
<path fill="none" stroke="#63b8ff" d="M157.04,-273.74C142.31,-275.96 127.06,-278.25 113.04,-280.37"/>
<polygon fill="#63b8ff" stroke="#63b8ff" points="157.3,-277.24 166.67,-272.29 156.26,-270.32 157.3,-277.24"/>
</a>
</g>
</g>
<!-- Node10&#45;&gt;Node5 -->
<g id="edge14_Node000010_Node000005" class="edge">
<title>Node10&#45;&gt;Node5</title>
<g id="a_edge14_Node000010_Node000005"><a xlink:title=" ">
<path fill="none" stroke="#63b8ff" d="M153.85,-458.46C140.17,-460.2 126.14,-461.99 113.17,-463.64"/>
<polygon fill="#63b8ff" stroke="#63b8ff" points="154.25,-461.93 163.73,-457.2 153.37,-454.99 154.25,-461.93"/>
</a>
</g>
</g>
<!-- Node10&#45;&gt;Node8 -->
<g id="edge13_Node000010_Node000008" class="edge">
<title>Node10&#45;&gt;Node8</title>
<g id="a_edge13_Node000010_Node000008"><a xlink:title=" ">
<path fill="none" stroke="#63b8ff" d="M155.49,-427.28C153.16,-425.87 150.9,-424.36 148.75,-422.75 106.55,-391.26 77.24,-334.28 64.51,-305.84"/>
<polygon fill="#63b8ff" stroke="#63b8ff" points="153.65,-430.27 164.12,-431.9 156.96,-424.1 153.65,-430.27"/>
</a>
</g>
</g>
<!-- Node13 -->
<g id="Node000013" class="node">
<title>Node13</title>
<g id="a_Node000013"><a xlink:href="namespacesteppable_1_1prettyPrint_1_1printers.html#a3719e82a7cebdb935632d16277530279" target="_top" xlink:title="Pretty print a fraction.">
<polygon fill="white" stroke="#666666" points="476.25,-85.5 354.5,-85.5 354.5,-52 476.25,-52 476.25,-85.5"/>
<text xml:space="preserve" text-anchor="start" x="362.5" y="-72" font-family="Helvetica,sans-Serif" font-size="10.00">steppable::prettyPrint</text>
<text xml:space="preserve" text-anchor="middle" x="415.38" y="-59.25" font-family="Helvetica,sans-Serif" font-size="10.00">::printers::ppFraction</text>
</a>
</g>
</g>
<!-- Node12&#45;&gt;Node13 -->
<g id="edge20_Node000012_Node000013" class="edge">
<title>Node12&#45;&gt;Node13</title>
<g id="a_edge20_Node000012_Node000013"><a xlink:title=" ">
<path fill="none" stroke="#63b8ff" d="M516.26,-100.21C501.32,-95.5 485.58,-90.54 471.13,-85.99"/>
<polygon fill="#63b8ff" stroke="#63b8ff" points="514.94,-103.46 525.53,-103.12 517.04,-96.78 514.94,-103.46"/>
</a>
</g>
</g>
<!-- Node15 -->
<g id="Node000015" class="node">
<title>Node15</title>
<g id="a_Node000015"><a xlink:href="namespacesteppable_1_1prettyPrint_1_1printers.html#a6d34546de5b88d97f80eae7d256611dc" target="_top" xlink:title="Pretty print a root expression.">
<polygon fill="white" stroke="#666666" points="476.25,-33.5 354.5,-33.5 354.5,0 476.25,0 476.25,-33.5"/>
<text xml:space="preserve" text-anchor="start" x="362.5" y="-20" font-family="Helvetica,sans-Serif" font-size="10.00">steppable::prettyPrint</text>
<text xml:space="preserve" text-anchor="middle" x="415.38" y="-7.25" font-family="Helvetica,sans-Serif" font-size="10.00">::printers::ppRoot</text>
</a>
</g>
</g>
<!-- Node12&#45;&gt;Node15 -->
<g id="edge22_Node000012_Node000015" class="edge">
<title>Node12&#45;&gt;Node15</title>
<g id="a_edge22_Node000012_Node000015"><a xlink:title=" ">
<path fill="none" stroke="#63b8ff" d="M554.56,-96.31C535.24,-79.67 508.04,-57.99 481.5,-42.75 476.01,-39.6 470.06,-36.65 464.07,-33.96"/>
<polygon fill="#63b8ff" stroke="#63b8ff" points="552.14,-98.84 561.97,-102.79 556.75,-93.57 552.14,-98.84"/>
</a>
</g>
</g>
<!-- Node16 -->
<g id="Node000016" class="node">
<title>Node16</title>
<g id="a_Node000016"><a xlink:href="namespacesteppable_1_1prettyPrint_1_1printers.html#a4b6e725f816e08dd8584a88ef0d9d93e" target="_top" xlink:title="Pretty print a base expression, (aka, subscript).">
<polygon fill="white" stroke="#666666" points="476.62,-189.5 354.12,-189.5 354.12,-156 476.62,-156 476.62,-189.5"/>
<text xml:space="preserve" text-anchor="start" x="362.12" y="-176" font-family="Helvetica,sans-Serif" font-size="10.00">steppable::prettyPrint</text>
<text xml:space="preserve" text-anchor="middle" x="415.38" y="-163.25" font-family="Helvetica,sans-Serif" font-size="10.00">::printers::ppSubscript</text>
</a>
</g>
</g>
<!-- Node12&#45;&gt;Node16 -->
<g id="edge23_Node000012_Node000016" class="edge">
<title>Node12&#45;&gt;Node16</title>
<g id="a_edge23_Node000012_Node000016"><a xlink:title=" ">
<path fill="none" stroke="#63b8ff" d="M516.26,-141.29C501.32,-146 485.58,-150.96 471.13,-155.51"/>
<polygon fill="#63b8ff" stroke="#63b8ff" points="517.04,-144.72 525.53,-138.38 514.94,-138.04 517.04,-144.72"/>
</a>
</g>
</g>
<!-- Node17 -->
<g id="Node000017" class="node">
<title>Node17</title>
<g id="a_Node000017"><a xlink:href="namespacesteppable_1_1prettyPrint_1_1printers.html#ac4cde7a14deed0ac454613b723f690bd" target="_top" xlink:title="Pretty print a power expression, (aka, superscript).">
<polygon fill="white" stroke="#666666" points="481.5,-137.5 349.25,-137.5 349.25,-104 481.5,-104 481.5,-137.5"/>
<text xml:space="preserve" text-anchor="start" x="357.25" y="-124" font-family="Helvetica,sans-Serif" font-size="10.00">steppable::prettyPrint</text>
<text xml:space="preserve" text-anchor="middle" x="415.38" y="-111.25" font-family="Helvetica,sans-Serif" font-size="10.00">::printers::ppSuperscript</text>
</a>
</g>
</g>
<!-- Node12&#45;&gt;Node17 -->
<g id="edge24_Node000012_Node000017" class="edge">
<title>Node12&#45;&gt;Node17</title>
<g id="a_edge24_Node000012_Node000017"><a xlink:title=" ">
<path fill="none" stroke="#63b8ff" d="M510.14,-120.75C500.79,-120.75 491.24,-120.75 481.99,-120.75"/>
<polygon fill="#63b8ff" stroke="#63b8ff" points="509.91,-124.25 519.91,-120.75 509.91,-117.25 509.91,-124.25"/>
</a>
</g>
</g>
<!-- Node14 -->
<g id="Node000014" class="node">
<title>Node14</title>
<g id="a_Node000014"><a xlink:href="classsteppable_1_1Fraction.html#a939fea669a7f630672f7215e77f335b6" target="_top" xlink:title="Returns the fraction as a string. The string is formatted as &quot;top/bottom&quot;, and it will automatically ...">
<polygon fill="white" stroke="#666666" points="285.5,-85.5 176.5,-85.5 176.5,-52 285.5,-52 285.5,-85.5"/>
<text xml:space="preserve" text-anchor="start" x="184.5" y="-72" font-family="Helvetica,sans-Serif" font-size="10.00">steppable::Fraction</text>
<text xml:space="preserve" text-anchor="middle" x="231" y="-59.25" font-family="Helvetica,sans-Serif" font-size="10.00">::present</text>
</a>
</g>
</g>
<!-- Node13&#45;&gt;Node14 -->
<g id="edge21_Node000013_Node000014" class="edge">
<title>Node13&#45;&gt;Node14</title>
<g id="a_edge21_Node000013_Node000014"><a xlink:title=" ">
<path fill="none" stroke="#63b8ff" d="M342.81,-68.75C323.8,-68.75 303.59,-68.75 285.71,-68.75"/>
<polygon fill="#63b8ff" stroke="#63b8ff" points="342.64,-72.25 352.64,-68.75 342.64,-65.25 342.64,-72.25"/>
</a>
</g>
</g>
</g>
</svg>

<g id="navigator" transform="translate(0 0)" fill="#404254">
  <rect fill="#f2f5e9" fill-opacity="0.5" stroke="#606060" stroke-width=".5" x="0" y="0" width="60" height="60"/>
  <use id="zoomplus" xlink:href="#zoomPlus" x="17" y="9" onmousedown="handleZoom(evt,'in')"/>
  <use id="zoomminus" xlink:href="#zoomMin" x="42" y="9" onmousedown="handleZoom(evt,'out')"/>
  <use id="reset" xlink:href="#resetDef" x="30" y="36" onmousedown="handleReset()"/>
   <use id="arrowup" xlink:href="#arrowUp" x="0" y="0" onmousedown="handlePan(0,-1)"/>
  <use id="arrowright" xlink:href="#arrowRight" x="0" y="0" onmousedown="handlePan(1,0)"/>
  <use id="arrowdown" xlink:href="#arrowDown" x="0" y="0" onmousedown="handlePan(0,1)"/>
  <use id="arrowleft" xlink:href="#arrowLeft" x="0" y="0" onmousedown="handlePan(-1,0)"/>
</g>
<svg viewBox="0 0 15 15" width="100%" height="30px" preserveAspectRatio="xMaxYMin meet">
 <g id="arrow_out" transform="scale(0.3 0.3)">
  <a xlink:href="namespacesteppable_1_1____internals_1_1stringUtils_a168a60d3cf0edf7440fe4a41dbaa80ee_icgraph_org.svg" target="_base">
   <rect id="button" ry="5" rx="5" y="6" x="6" height="38" width="38"
        fill="#f2f5e9" fill-opacity="0.5" stroke="#606060" stroke-width="1.0"/>
   <path id="arrow"
     d="M 11.500037,31.436501 C 11.940474,20.09759 22.043105,11.32322 32.158766,21.979434 L 37.068811,17.246167 C 37.068811,17.246167 37.088388,32 37.088388,32 L 22.160133,31.978069 C 22.160133,31.978069 26.997745,27.140456 26.997745,27.140456 C 18.528582,18.264221 13.291696,25.230495 11.500037,31.436501 z"
     style="fill:#404040;"/>
  </a>
 </g>
</svg>

<style type='text/css'>
<![CDATA[
[data-mouse-over-selected='false'] { opacity: 0.7; }
[data-mouse-over-selected='true']  { opacity: 1.0; }
]]>
</style>
<script type="application/ecmascript"><![CDATA[
document.addEventListener('DOMContentLoaded', (event) => {
  highlightEdges();
  highlightAdjacentNodes();
});
]]></script>
</svg>
