<?xml version="1.0" encoding="UTF-8" standalone="no"?>
<!DOCTYPE svg PUBLIC "-//W3C//DTD SVG 1.1//EN"
 "http://www.w3.org/Graphics/SVG/1.1/DTD/svg11.dtd">
<!-- Generated by graphviz version 12.0.0 (20240704.0754)
 -->
<!-- Title: ImGui::FindSettingsHandler Pages: 1 -->
<!--zoomable 141 -->

<svg id="main" version="1.1" xmlns="http://www.w3.org/2000/svg" xmlns:xlink="http://www.w3.org/1999/xlink" xml:space="preserve" onload="init(evt)">

<style type="text/css"><![CDATA[
.node, .edge {opacity: 0.7;}
.node.selected, .edge.selected {opacity: 1;}
.edge:hover path { stroke: red; }
.edge:hover polygon { stroke: red; fill: red; }
]]></style>

<defs>
  <circle id="rim" cx="0" cy="0" r="7"/>
  <circle id="rim2" cx="0" cy="0" r="3.5"/>
  <g id="zoomPlus">
    <use xlink:href="#rim" fill="#404040"><set attributeName="fill" to="#808080" begin="zoomplus.mouseover" end="zoomplus.mouseout"/></use>
    <path d="M-4,0h8M0,-4v8" fill="none" stroke="white" stroke-width="1.5" pointer-events="none"/>
  </g>
  <g id="zoomMin">
    <use xlink:href="#rim" fill="#404040"><set attributeName="fill" to="#808080" begin="zoomminus.mouseover" end="zoomminus.mouseout"/></use>
    <path d="M-4,0h8" fill="none" stroke="white" stroke-width="1.5" pointer-events="none"/>
  </g>
  <g id="arrowUp" transform="translate(30 24)">
    <use xlink:href="#rim"/>
    <path pointer-events="none" fill="none" stroke="white" stroke-width="1.5" d="M0,-3.0v7 M-2.5,-0.5L0,-3.0L2.5,-0.5"/>
  </g>
  <g id="arrowRight" transform="rotate(90) translate(36 -43)">
    <use xlink:href="#rim"/>
    <path pointer-events="none" fill="none" stroke="white" stroke-width="1.5" d="M0,-3.0v7 M-2.5,-0.5L0,-3.0L2.5,-0.5"/>
  </g>
  <g id="arrowDown" transform="rotate(180) translate(-30 -48)">
    <use xlink:href="#rim"/>
    <path pointer-events="none" fill="none" stroke="white" stroke-width="1.5" d="M0,-3.0v7 M-2.5,-0.5L0,-3.0L2.5,-0.5"/>
  </g>
  <g id="arrowLeft" transform="rotate(270) translate(-36 17)">
    <use xlink:href="#rim"/>
    <path pointer-events="none" fill="none" stroke="white" stroke-width="1.5" d="M0,-3.0v7 M-2.5,-0.5L0,-3.0L2.5,-0.5"/>
  </g>
  <g id="resetDef">
    <use xlink:href="#rim2" fill="#404040"><set attributeName="fill" to="#808080" begin="reset.mouseover" end="reset.mouseout"/></use>
  </g>
</defs>
<script type="application/ecmascript">
var viewWidth = 894;
var viewHeight = 141;
var sectionId = 'dynsection-489';
</script>
<script type="application/ecmascript" xlink:href="svg.min.js"/>
<svg id="graph" class="graph">
<g id="viewport">
<title>ImGui::FindSettingsHandler</title>
<!-- Node1 -->
<g id="Node000001" class="node">
<title>Node1</title>
<g id="a_Node000001"><a xlink:title=" ">
<polygon fill="#999999" stroke="#666666" points="886.25,-65.75 736.75,-65.75 736.75,-45 886.25,-45 886.25,-65.75"/>
<text text-anchor="middle" x="811.5" y="-52.25" font-family="Helvetica,sans-Serif" font-size="10.00">ImGui::FindSettingsHandler</text>
</a>
</g>
</g>
<!-- Node2 -->
<g id="Node000002" class="node">
<title>Node2</title>
<g id="a_Node000002"><a xlink:href="namespaceImGui.html#ade13c9d3114fb2fae235a29a6388495d" target="_top" xlink:title=" ">
<polygon fill="white" stroke="#666666" points="689.88,-110.75 541.88,-110.75 541.88,-90 689.88,-90 689.88,-110.75"/>
<text text-anchor="middle" x="615.88" y="-97.25" font-family="Helvetica,sans-Serif" font-size="10.00">ImGui::AddSettingsHandler</text>
</a>
</g>
</g>
<!-- Node1&#45;&gt;Node2 -->
<g id="edge1_Node000001_Node000002" class="edge">
<title>Node1&#45;&gt;Node2</title>
<g id="a_edge1_Node000001_Node000002"><a xlink:title=" ">
<path fill="none" stroke="#63b8ff" d="M754.16,-68.83C737.02,-72.9 718.12,-77.35 700.75,-81.38 689.26,-84.04 676.87,-86.87 665.24,-89.5"/>
<polygon fill="#63b8ff" stroke="#63b8ff" points="754.74,-72.29 763.66,-66.58 753.13,-65.48 754.74,-72.29"/>
</a>
</g>
</g>
<!-- Node6 -->
<g id="Node000006" class="node">
<title>Node6</title>
<g id="a_Node000006"><a xlink:href="namespaceImGui.html#a8e37b6a0b2feb6cd6ac61a4259392861" target="_top" xlink:title=" ">
<polygon fill="white" stroke="#666666" points="691.38,-72.12 540.38,-72.12 540.38,-38.62 691.38,-38.62 691.38,-72.12"/>
<text text-anchor="start" x="548.38" y="-58.62" font-family="Helvetica,sans-Serif" font-size="10.00">ImGui::LoadIniSettingsFrom</text>
<text text-anchor="middle" x="615.88" y="-45.88" font-family="Helvetica,sans-Serif" font-size="10.00">Memory</text>
</a>
</g>
</g>
<!-- Node1&#45;&gt;Node6 -->
<g id="edge6_Node000001_Node000006" class="edge">
<title>Node1&#45;&gt;Node6</title>
<g id="a_edge6_Node000001_Node000006"><a xlink:title=" ">
<path fill="none" stroke="#63b8ff" d="M725.04,-55.38C713.97,-55.38 702.7,-55.38 691.83,-55.38"/>
<polygon fill="#63b8ff" stroke="#63b8ff" points="724.96,-58.88 734.96,-55.38 724.96,-51.88 724.96,-58.88"/>
</a>
</g>
</g>
<!-- Node10 -->
<g id="Node000010" class="node">
<title>Node10</title>
<g id="a_Node000010"><a xlink:href="namespaceImGui.html#a0f06e3a54023d9cbb778f4c7f559da3a" target="_top" xlink:title=" ">
<polygon fill="white" stroke="#666666" points="700.75,-20.75 531,-20.75 531,0 700.75,0 700.75,-20.75"/>
<text text-anchor="middle" x="615.88" y="-7.25" font-family="Helvetica,sans-Serif" font-size="10.00">ImGui::RemoveSettingsHandler</text>
</a>
</g>
</g>
<!-- Node1&#45;&gt;Node10 -->
<g id="edge10_Node000001_Node000010" class="edge">
<title>Node1&#45;&gt;Node10</title>
<g id="a_edge10_Node000001_Node000010"><a xlink:title=" ">
<path fill="none" stroke="#63b8ff" d="M754.16,-41.92C737.02,-37.85 718.12,-33.4 700.75,-29.38 689.26,-26.71 676.87,-23.88 665.24,-21.25"/>
<polygon fill="#63b8ff" stroke="#63b8ff" points="753.13,-45.27 763.66,-44.17 754.74,-38.46 753.13,-45.27"/>
</a>
</g>
</g>
<!-- Node3 -->
<g id="Node000003" class="node">
<title>Node3</title>
<g id="a_Node000003"><a xlink:href="namespaceImGui.html#a1a611da38fae18a3d1dafcb3228259da" target="_top" xlink:title=" ">
<polygon fill="white" stroke="#666666" points="267.5,-132.75 174.25,-132.75 174.25,-112 267.5,-112 267.5,-132.75"/>
<text text-anchor="middle" x="220.88" y="-119.25" font-family="Helvetica,sans-Serif" font-size="10.00">ImGui::Initialize</text>
</a>
</g>
</g>
<!-- Node2&#45;&gt;Node3 -->
<g id="edge2_Node000002_Node000003" class="edge">
<title>Node2&#45;&gt;Node3</title>
<g id="a_edge2_Node000002_Node000003"><a xlink:title=" ">
<path fill="none" stroke="#63b8ff" d="M564.23,-113.87C543.01,-118.87 517.97,-123.91 495,-126.38 417.67,-134.67 397.76,-127.96 320,-126.38 302.95,-126.03 284.25,-125.34 267.79,-124.63"/>
<polygon fill="#63b8ff" stroke="#63b8ff" points="564.9,-117.31 573.79,-111.55 563.25,-110.51 564.9,-117.31"/>
</a>
</g>
</g>
<!-- Node5 -->
<g id="Node000005" class="node">
<title>Node5</title>
<g id="a_Node000005"><a xlink:href="namespaceImGui.html#a49786e01457877baef3eb8c01eca38d1" target="_top" xlink:title=" ">
<polygon fill="white" stroke="#666666" points="495,-117.12 320,-117.12 320,-83.62 495,-83.62 495,-117.12"/>
<text text-anchor="start" x="328" y="-103.62" font-family="Helvetica,sans-Serif" font-size="10.00">ImGui::TableSettingsAddSettings</text>
<text text-anchor="middle" x="407.5" y="-90.88" font-family="Helvetica,sans-Serif" font-size="10.00">Handler</text>
</a>
</g>
</g>
<!-- Node2&#45;&gt;Node5 -->
<g id="edge4_Node000002_Node000005" class="edge">
<title>Node2&#45;&gt;Node5</title>
<g id="a_edge4_Node000002_Node000005"><a xlink:title=" ">
<path fill="none" stroke="#63b8ff" d="M530.18,-100.38C518.69,-100.38 506.89,-100.38 495.37,-100.38"/>
<polygon fill="#63b8ff" stroke="#63b8ff" points="530.02,-103.88 540.02,-100.38 530.02,-96.88 530.02,-103.88"/>
</a>
</g>
</g>
<!-- Node4 -->
<g id="Node000004" class="node">
<title>Node4</title>
<g id="a_Node000004"><a xlink:href="namespaceImGui.html#a4ff6c9ad05a0eba37ce1b5ff1607810a" target="_top" xlink:title=" ">
<polygon fill="white" stroke="#666666" points="121.75,-132.75 0,-132.75 0,-112 121.75,-112 121.75,-132.75"/>
<text text-anchor="middle" x="60.88" y="-119.25" font-family="Helvetica,sans-Serif" font-size="10.00">ImGui::CreateContext</text>
</a>
</g>
</g>
<!-- Node3&#45;&gt;Node4 -->
<g id="edge3_Node000003_Node000004" class="edge">
<title>Node3&#45;&gt;Node4</title>
<g id="a_edge3_Node000003_Node000004"><a xlink:title=" ">
<path fill="none" stroke="#63b8ff" d="M162.49,-122.38C149.38,-122.38 135.41,-122.38 122.18,-122.38"/>
<polygon fill="#63b8ff" stroke="#63b8ff" points="162.24,-125.88 172.24,-122.38 162.24,-118.88 162.24,-125.88"/>
</a>
</g>
</g>
<!-- Node5&#45;&gt;Node3 -->
<g id="edge5_Node000005_Node000003" class="edge">
<title>Node5&#45;&gt;Node3</title>
<g id="a_edge5_Node000005_Node000003"><a xlink:title=" ">
<path fill="none" stroke="#63b8ff" d="M308.22,-112.09C294.05,-113.77 280.08,-115.44 267.63,-116.92"/>
<polygon fill="#63b8ff" stroke="#63b8ff" points="308.58,-115.57 318.09,-110.91 307.75,-108.62 308.58,-115.57"/>
</a>
</g>
</g>
<!-- Node7 -->
<g id="Node000007" class="node">
<title>Node7</title>
<g id="a_Node000007"><a xlink:href="namespaceImGui.html#a4bf22fb84ba768fc18383af50e8c217f" target="_top" xlink:title=" ">
<polygon fill="white" stroke="#666666" points="493.88,-65.75 321.12,-65.75 321.12,-45 493.88,-45 493.88,-65.75"/>
<text text-anchor="middle" x="407.5" y="-52.25" font-family="Helvetica,sans-Serif" font-size="10.00">ImGui::LoadIniSettingsFromDisk</text>
</a>
</g>
</g>
<!-- Node6&#45;&gt;Node7 -->
<g id="edge7_Node000006_Node000007" class="edge">
<title>Node6&#45;&gt;Node7</title>
<g id="a_edge7_Node000006_Node000007"><a xlink:title=" ">
<path fill="none" stroke="#63b8ff" d="M528.78,-55.38C517.36,-55.38 505.66,-55.38 494.25,-55.38"/>
<polygon fill="#63b8ff" stroke="#63b8ff" points="528.56,-58.88 538.56,-55.38 528.56,-51.88 528.56,-58.88"/>
</a>
</g>
</g>
<!-- Node8 -->
<g id="Node000008" class="node">
<title>Node8</title>
<g id="a_Node000008"><a xlink:href="namespaceImGui.html#a8bdb90b84ec6e306d312fc8bfb7caf64" target="_top" xlink:title=" ">
<polygon fill="white" stroke="#666666" points="284,-65.75 157.75,-65.75 157.75,-45 284,-45 284,-65.75"/>
<text text-anchor="middle" x="220.88" y="-52.25" font-family="Helvetica,sans-Serif" font-size="10.00">ImGui::UpdateSettings</text>
</a>
</g>
</g>
<!-- Node7&#45;&gt;Node8 -->
<g id="edge8_Node000007_Node000008" class="edge">
<title>Node7&#45;&gt;Node8</title>
<g id="a_edge8_Node000007_Node000008"><a xlink:title=" ">
<path fill="none" stroke="#63b8ff" d="M309.18,-55.38C300.75,-55.38 292.39,-55.38 284.36,-55.38"/>
<polygon fill="#63b8ff" stroke="#63b8ff" points="309.16,-58.88 319.16,-55.38 309.16,-51.88 309.16,-58.88"/>
</a>
</g>
</g>
<!-- Node9 -->
<g id="Node000009" class="node">
<title>Node9</title>
<g id="a_Node000009"><a xlink:href="namespaceImGui.html#ab3f1fc018f903b7ad79fd10663375774" target="_top" xlink:title=" ">
<polygon fill="white" stroke="#666666" points="112.75,-65.75 9,-65.75 9,-45 112.75,-45 112.75,-65.75"/>
<text text-anchor="middle" x="60.88" y="-52.25" font-family="Helvetica,sans-Serif" font-size="10.00">ImGui::NewFrame</text>
</a>
</g>
</g>
<!-- Node8&#45;&gt;Node9 -->
<g id="edge9_Node000008_Node000009" class="edge">
<title>Node8&#45;&gt;Node9</title>
<g id="a_edge9_Node000008_Node000009"><a xlink:title=" ">
<path fill="none" stroke="#63b8ff" d="M145.97,-55.38C134.88,-55.38 123.67,-55.38 113.19,-55.38"/>
<polygon fill="#63b8ff" stroke="#63b8ff" points="145.92,-58.88 155.92,-55.38 145.92,-51.88 145.92,-58.88"/>
</a>
</g>
</g>
</g>
</svg>

<g id="navigator" transform="translate(0 0)" fill="#404254">
  <rect fill="#f2f5e9" fill-opacity="0.5" stroke="#606060" stroke-width=".5" x="0" y="0" width="60" height="60"/>
  <use id="zoomplus" xlink:href="#zoomPlus" x="17" y="9" onmousedown="handleZoom(evt,'in')"/>
  <use id="zoomminus" xlink:href="#zoomMin" x="42" y="9" onmousedown="handleZoom(evt,'out')"/>
  <use id="reset" xlink:href="#resetDef" x="30" y="36" onmousedown="handleReset()"/>
   <use id="arrowup" xlink:href="#arrowUp" x="0" y="0" onmousedown="handlePan(0,-1)"/>
  <use id="arrowright" xlink:href="#arrowRight" x="0" y="0" onmousedown="handlePan(1,0)"/>
  <use id="arrowdown" xlink:href="#arrowDown" x="0" y="0" onmousedown="handlePan(0,1)"/>
  <use id="arrowleft" xlink:href="#arrowLeft" x="0" y="0" onmousedown="handlePan(-1,0)"/>
</g>
<svg viewBox="0 0 15 15" width="100%" height="30px" preserveAspectRatio="xMaxYMin meet">
 <g id="arrow_out" transform="scale(0.3 0.3)">
  <a xlink:href="namespaceImGui_ad9e15440c52f63aa96ef3b3938d566f8_icgraph_org.svg" target="_base">
   <rect id="button" ry="5" rx="5" y="6" x="6" height="38" width="38"
        fill="#f2f5e9" fill-opacity="0.5" stroke="#606060" stroke-width="1.0"/>
   <path id="arrow"
     d="M 11.500037,31.436501 C 11.940474,20.09759 22.043105,11.32322 32.158766,21.979434 L 37.068811,17.246167 C 37.068811,17.246167 37.088388,32 37.088388,32 L 22.160133,31.978069 C 22.160133,31.978069 26.997745,27.140456 26.997745,27.140456 C 18.528582,18.264221 13.291696,25.230495 11.500037,31.436501 z"
     style="fill:#404040;"/>
  </a>
 </g>
</svg>

<style type='text/css'>
<![CDATA[
[data-mouse-over-selected='false'] { opacity: 0.7; }
[data-mouse-over-selected='true']  { opacity: 1.0; }
]]>
</style>
<script type="application/ecmascript"><![CDATA[
document.addEventListener('DOMContentLoaded', (event) => {
  highlightEdges();
  highlightAdjacentNodes();
});
]]></script>
</svg>
