<?xml version="1.0" encoding="UTF-8" standalone="no"?>
<!DOCTYPE svg PUBLIC "-//W3C//DTD SVG 1.1//EN"
 "http://www.w3.org/Graphics/SVG/1.1/DTD/svg11.dtd">
<!-- Generated by graphviz version 12.2.1 (20241206.2353)
 -->
<!-- Title: ImGui::DockNodeRemoveWindow Pages: 1 -->
<svg width="1656pt" height="658pt"
 viewBox="0.00 0.00 1655.50 658.18" xmlns="http://www.w3.org/2000/svg" xmlns:xlink="http://www.w3.org/1999/xlink">
<g id="graph0" class="graph" transform="scale(1 1) rotate(0) translate(4 654.18)">
<title>ImGui::DockNodeRemoveWindow</title>
<!-- Node1 -->
<g id="Node000001" class="node">
<title>Node1</title>
<g id="a_Node000001"><a xlink:title=" ">
<polygon fill="#999999" stroke="#666666" points="181,-194.18 0,-194.18 0,-173.43 181,-173.43 181,-194.18"/>
<text text-anchor="middle" x="90.5" y="-180.68" font-family="Helvetica,sans-Serif" font-size="10.00">ImGui::DockNodeRemoveWindow</text>
</a>
</g>
</g>
<!-- Node2 -->
<g id="Node000002" class="node">
<title>Node2</title>
<g id="a_Node000002"><a xlink:href="namespaceImGui.html#a69ff368895db4bdc84de9ff21b52fddc" target="_top" xlink:title=" ">
<polygon fill="white" stroke="#666666" points="397.25,-388.18 217,-388.18 217,-367.43 397.25,-367.43 397.25,-388.18"/>
<text text-anchor="middle" x="307.12" y="-374.68" font-family="Helvetica,sans-Serif" font-size="10.00">ImGui::DockContextRemoveNode</text>
</a>
</g>
</g>
<!-- Node1&#45;&gt;Node2 -->
<g id="edge1_Node000001_Node000002" class="edge">
<title>Node1&#45;&gt;Node2</title>
<g id="a_edge1_Node000001_Node000002"><a xlink:title=" ">
<path fill="none" stroke="#63b8ff" d="M98.57,-194.63C116.06,-220.75 163.81,-288.25 217,-330.81 232.84,-343.48 252.61,-354.31 269.5,-362.37"/>
<polygon fill="#63b8ff" stroke="#63b8ff" points="267.67,-365.38 278.22,-366.39 270.6,-359.02 267.67,-365.38"/>
</a>
</g>
</g>
<!-- Node15 -->
<g id="Node000015" class="node">
<title>Node15</title>
<g id="a_Node000015"><a xlink:href="namespaceImGui.html#a42a888a71f6295199994f5c3aa65f9d6" target="_top" xlink:title=" ">
<polygon fill="white" stroke="#666666" points="1263.75,-98.18 1073,-98.18 1073,-77.43 1263.75,-77.43 1263.75,-98.18"/>
<text text-anchor="middle" x="1168.38" y="-84.68" font-family="Helvetica,sans-Serif" font-size="10.00">ImGui::DockNodeUpdateVisibleFlag</text>
</a>
</g>
</g>
<!-- Node1&#45;&gt;Node15 -->
<g id="edge39_Node000001_Node000015" class="edge">
<title>Node1&#45;&gt;Node15</title>
<g id="a_edge39_Node000001_Node000015"><a xlink:title=" ">
<path fill="none" stroke="#63b8ff" d="M99.11,-173.13C116.69,-149.45 162.81,-92.8 217,-69.81 342.82,-16.42 387.2,-49.81 523.88,-49.81 523.88,-49.81 523.88,-49.81 740.25,-49.81 858.34,-49.81 994.08,-64.4 1080.26,-75.5"/>
<polygon fill="#63b8ff" stroke="#63b8ff" points="1079.69,-78.95 1090.06,-76.77 1080.59,-72.01 1079.69,-78.95"/>
</a>
</g>
</g>
<!-- Node16 -->
<g id="Node000016" class="node">
<title>Node16</title>
<g id="a_Node000016"><a xlink:href="structImGuiDockNode.html#a65a6bb0809083aef0edbf937c90b83f6" target="_top" xlink:title=" ">
<polygon fill="white" stroke="#666666" points="1470.25,-147.18 1299.75,-147.18 1299.75,-126.43 1470.25,-126.43 1470.25,-147.18"/>
<text text-anchor="middle" x="1385" y="-133.68" font-family="Helvetica,sans-Serif" font-size="10.00">ImGuiDockNode::IsCentralNode</text>
</a>
</g>
</g>
<!-- Node1&#45;&gt;Node16 -->
<g id="edge44_Node000001_Node000016" class="edge">
<title>Node1&#45;&gt;Node16</title>
<g id="a_edge44_Node000001_Node000016"><a xlink:title=" ">
<path fill="none" stroke="#63b8ff" d="M181.3,-177.56C268.71,-172.02 405.35,-164.81 523.88,-164.81 523.88,-164.81 523.88,-164.81 950.5,-164.81 1066.82,-164.81 1200.34,-154.64 1288.11,-146.56"/>
<polygon fill="#63b8ff" stroke="#63b8ff" points="1288.24,-150.07 1297.87,-145.65 1287.59,-143.1 1288.24,-150.07"/>
</a>
</g>
</g>
<!-- Node17 -->
<g id="Node000017" class="node">
<title>Node17</title>
<g id="a_Node000017"><a xlink:href="structImGuiDockNode.html#a2f06798d0770e6894d27ec776b5d7538" target="_top" xlink:title=" ">
<polygon fill="white" stroke="#666666" points="1466.88,-79.18 1303.12,-79.18 1303.12,-58.43 1466.88,-58.43 1466.88,-79.18"/>
<text text-anchor="middle" x="1385" y="-65.68" font-family="Helvetica,sans-Serif" font-size="10.00">ImGuiDockNode::IsDockSpace</text>
</a>
</g>
</g>
<!-- Node1&#45;&gt;Node17 -->
<g id="edge45_Node000001_Node000017" class="edge">
<title>Node1&#45;&gt;Node17</title>
<g id="a_edge45_Node000001_Node000017"><a xlink:title=" ">
<path fill="none" stroke="#63b8ff" d="M96.71,-173.11C111.18,-144.73 154.91,-67.56 217,-35.81 338.8,26.49 387.07,-11.81 523.88,-11.81 523.88,-11.81 523.88,-11.81 950.5,-11.81 1084.4,-11.81 1239.59,-38.87 1323.16,-55.7"/>
<polygon fill="#63b8ff" stroke="#63b8ff" points="1322.24,-59.08 1332.73,-57.65 1323.63,-52.22 1322.24,-59.08"/>
</a>
</g>
</g>
<!-- Node24 -->
<g id="Node000024" class="node">
<title>Node24</title>
<g id="a_Node000024"><a xlink:href="namespaceImGui.html#a85d7262320ed7ce8e40863b99f8db4a3" target="_top" xlink:title=" ">
<polygon fill="white" stroke="#666666" points="1246.5,-264.56 1090.25,-264.56 1090.25,-231.06 1246.5,-231.06 1246.5,-264.56"/>
<text text-anchor="start" x="1098.25" y="-251.06" font-family="Helvetica,sans-Serif" font-size="10.00">ImGui::UpdateWindowParent</text>
<text text-anchor="middle" x="1168.38" y="-238.31" font-family="Helvetica,sans-Serif" font-size="10.00">AndRootLinks</text>
</a>
</g>
</g>
<!-- Node1&#45;&gt;Node24 -->
<g id="edge49_Node000001_Node000024" class="edge">
<title>Node1&#45;&gt;Node24</title>
<g id="a_edge49_Node000001_Node000024"><a xlink:title=" ">
<path fill="none" stroke="#63b8ff" d="M120.44,-194.67C145.58,-203.6 183.17,-215.72 217,-221.81 351.49,-245.99 387.22,-240.81 523.88,-240.81 523.88,-240.81 523.88,-240.81 740.25,-240.81 857.18,-240.81 992.1,-243.46 1078.49,-245.5"/>
<polygon fill="#63b8ff" stroke="#63b8ff" points="1078.24,-249 1088.32,-245.74 1078.4,-242 1078.24,-249"/>
</a>
</g>
</g>
<!-- Node25 -->
<g id="Node000025" class="node">
<title>Node25</title>
<g id="a_Node000025"><a xlink:href="namespaceImGui.html#ad0e39bff5ef1bbdd6ba22c133f211da7" target="_top" xlink:title=" ">
<polygon fill="white" stroke="#666666" points="1037,-346.18 862,-346.18 862,-325.43 1037,-325.43 1037,-346.18"/>
<text text-anchor="middle" x="949.5" y="-332.68" font-family="Helvetica,sans-Serif" font-size="10.00">ImGui::DockNodeRemoveTabBar</text>
</a>
</g>
</g>
<!-- Node1&#45;&gt;Node25 -->
<g id="edge38_Node000001_Node000025" class="edge">
<title>Node1&#45;&gt;Node25</title>
<g id="a_edge38_Node000001_Node000025"><a xlink:title=" ">
<path fill="none" stroke="#63b8ff" d="M100.94,-194.48C120.28,-215.53 166.85,-262.05 217,-281.81 329.62,-326.18 678.36,-334.43 850.43,-335.73"/>
<polygon fill="#63b8ff" stroke="#63b8ff" points="850.22,-339.23 860.25,-335.8 850.27,-332.23 850.22,-339.23"/>
</a>
</g>
</g>
<!-- Node33 -->
<g id="Node000033" class="node">
<title>Node33</title>
<g id="a_Node000033"><a xlink:href="structImVector.html#a2f88ac70791f2da6d4168d7b29f38f1e" target="_top" xlink:title=" ">
<polygon fill="white" stroke="#666666" points="571.12,-137.18 478.62,-137.18 478.62,-116.43 571.12,-116.43 571.12,-137.18"/>
<text text-anchor="middle" x="524.88" y="-123.68" font-family="Helvetica,sans-Serif" font-size="10.00">ImVector::erase</text>
</a>
</g>
</g>
<!-- Node1&#45;&gt;Node33 -->
<g id="edge40_Node000001_Node000033" class="edge">
<title>Node1&#45;&gt;Node33</title>
<g id="a_edge40_Node000001_Node000033"><a xlink:title=" ">
<path fill="none" stroke="#63b8ff" d="M126.03,-172.94C151.04,-165.51 185.79,-156.09 217,-150.81 303.38,-136.19 404.97,-130.45 466.87,-128.22"/>
<polygon fill="#63b8ff" stroke="#63b8ff" points="466.94,-131.72 476.81,-127.88 466.7,-124.72 466.94,-131.72"/>
</a>
</g>
</g>
<!-- Node34 -->
<g id="Node000034" class="node">
<title>Node34</title>
<g id="a_Node000034"><a xlink:href="structImVector.html#a4e9214ecaa413240f76223500dbed912" target="_top" xlink:title=" ">
<polygon fill="white" stroke="#666666" points="365,-99.18 249.25,-99.18 249.25,-78.43 365,-78.43 365,-99.18"/>
<text text-anchor="middle" x="307.12" y="-85.68" font-family="Helvetica,sans-Serif" font-size="10.00">ImVector::find_erase</text>
</a>
</g>
</g>
<!-- Node1&#45;&gt;Node34 -->
<g id="edge41_Node000001_Node000034" class="edge">
<title>Node1&#45;&gt;Node34</title>
<g id="a_edge41_Node000001_Node000034"><a xlink:title=" ">
<path fill="none" stroke="#63b8ff" d="M107.48,-173.01C130.7,-157.74 175.54,-129.8 217,-112.81 226.26,-109.01 236.32,-105.64 246.22,-102.71"/>
<polygon fill="#63b8ff" stroke="#63b8ff" points="247.15,-106.08 255.83,-100 245.25,-99.34 247.15,-106.08"/>
</a>
</g>
</g>
<!-- Node36 -->
<g id="Node000036" class="node">
<title>Node36</title>
<g id="a_Node000036"><a xlink:href="namespaceImGui.html#a3340d8c07dca35527b618288f091a0f7" target="_top" xlink:title=" ">
<polygon fill="white" stroke="#666666" points="377.75,-213.18 236.5,-213.18 236.5,-192.43 377.75,-192.43 377.75,-213.18"/>
<text text-anchor="middle" x="307.12" y="-199.68" font-family="Helvetica,sans-Serif" font-size="10.00">ImGui::TabBarRemoveTab</text>
</a>
</g>
</g>
<!-- Node1&#45;&gt;Node36 -->
<g id="edge46_Node000001_Node000036" class="edge">
<title>Node1&#45;&gt;Node36</title>
<g id="a_edge46_Node000001_Node000036"><a xlink:title=" ">
<path fill="none" stroke="#63b8ff" d="M181.28,-191.75C195.78,-193.04 210.72,-194.36 225,-195.63"/>
<polygon fill="#63b8ff" stroke="#63b8ff" points="224.52,-199.1 234.79,-196.49 225.13,-192.12 224.52,-199.1"/>
</a>
</g>
</g>
<!-- Node3 -->
<g id="Node000003" class="node">
<title>Node3</title>
<g id="a_Node000003"><a xlink:href="namespaceImGui.html#a52be73f2abd2d0320469ba138f7c6d59" target="_top" xlink:title=" ">
<polygon fill="white" stroke="#666666" points="616.5,-569.18 433.25,-569.18 433.25,-548.43 616.5,-548.43 616.5,-569.18"/>
<text text-anchor="middle" x="524.88" y="-555.68" font-family="Helvetica,sans-Serif" font-size="10.00">ImGui::DockContextFindNodeByID</text>
</a>
</g>
</g>
<!-- Node2&#45;&gt;Node3 -->
<g id="edge2_Node000002_Node000003" class="edge">
<title>Node2&#45;&gt;Node3</title>
<g id="a_edge2_Node000002_Node000003"><a xlink:title=" ">
<path fill="none" stroke="#63b8ff" d="M320.98,-388.59C356.8,-418.64 458.07,-503.6 502.51,-540.89"/>
<polygon fill="#63b8ff" stroke="#63b8ff" points="500.02,-543.36 509.93,-547.11 504.52,-538 500.02,-543.36"/>
</a>
</g>
</g>
<!-- Node5 -->
<g id="Node000005" class="node">
<title>Node5</title>
<g id="a_Node000005"><a xlink:href="namespaceImGui.html#a973b84ddd0e62151719cb562847b1291" target="_top" xlink:title=" ">
<polygon fill="white" stroke="#666666" points="601.12,-449.18 448.62,-449.18 448.62,-428.43 601.12,-428.43 601.12,-449.18"/>
<text text-anchor="middle" x="524.88" y="-435.68" font-family="Helvetica,sans-Serif" font-size="10.00">ImGui::DockNodeTreeMerge</text>
</a>
</g>
</g>
<!-- Node2&#45;&gt;Node5 -->
<g id="edge4_Node000002_Node000005" class="edge">
<title>Node2&#45;&gt;Node5</title>
<g id="a_edge4_Node000002_Node000005"><a xlink:title=" ">
<path fill="none" stroke="#63b8ff" d="M346.2,-388.57C381.95,-398.68 435.62,-413.86 474.62,-424.88"/>
<polygon fill="#63b8ff" stroke="#63b8ff" points="473.42,-428.18 484,-427.53 475.33,-421.44 473.42,-428.18"/>
</a>
</g>
</g>
<!-- Node31 -->
<g id="Node000031" class="node">
<title>Node31</title>
<g id="a_Node000031"><a xlink:href="structImGuiStorage.html#a55f840086b3ec9cf63c67f02d159204a" target="_top" xlink:title=" ">
<polygon fill="white" stroke="#666666" points="808.75,-365.18 669.75,-365.18 669.75,-344.43 808.75,-344.43 808.75,-365.18"/>
<text text-anchor="middle" x="739.25" y="-351.68" font-family="Helvetica,sans-Serif" font-size="10.00">ImGuiStorage::SetVoidPtr</text>
</a>
</g>
</g>
<!-- Node2&#45;&gt;Node31 -->
<g id="edge37_Node000002_Node000031" class="edge">
<title>Node2&#45;&gt;Node31</title>
<g id="a_edge37_Node000002_Node000031"><a xlink:title=" ">
<path fill="none" stroke="#63b8ff" d="M397.51,-373.03C474.42,-368.91 584.36,-363.04 658.37,-359.08"/>
<polygon fill="#63b8ff" stroke="#63b8ff" points="658.17,-362.59 667.96,-358.57 657.79,-355.6 658.17,-362.59"/>
</a>
</g>
</g>
<!-- Node4 -->
<g id="Node000004" class="node">
<title>Node4</title>
<g id="a_Node000004"><a xlink:href="structImGuiStorage.html#aaf87a98ede89da09113b0189f6d878ca" target="_top" xlink:title=" ">
<polygon fill="white" stroke="#666666" points="809.5,-650.18 669,-650.18 669,-629.43 809.5,-629.43 809.5,-650.18"/>
<text text-anchor="middle" x="739.25" y="-636.68" font-family="Helvetica,sans-Serif" font-size="10.00">ImGuiStorage::GetVoidPtr</text>
</a>
</g>
</g>
<!-- Node3&#45;&gt;Node4 -->
<g id="edge3_Node000003_Node000004" class="edge">
<title>Node3&#45;&gt;Node4</title>
<g id="a_edge3_Node000003_Node000004"><a xlink:title=" ">
<path fill="none" stroke="#63b8ff" d="M544.15,-569.48C568.25,-583.15 612.3,-606.74 652.5,-620.81 657.94,-622.71 663.64,-624.47 669.4,-626.08"/>
<polygon fill="#63b8ff" stroke="#63b8ff" points="668.5,-629.46 679.06,-628.61 670.28,-622.69 668.5,-629.46"/>
</a>
</g>
</g>
<!-- Node6 -->
<g id="Node000006" class="node">
<title>Node6</title>
<g id="a_Node000006"><a xlink:href="namespaceImGui.html#af879255fe0be69945ceff4b832026a71" target="_top" xlink:title=" ">
<polygon fill="white" stroke="#666666" points="822.62,-455.56 655.88,-455.56 655.88,-422.06 822.62,-422.06 822.62,-455.56"/>
<text text-anchor="start" x="663.88" y="-442.06" font-family="Helvetica,sans-Serif" font-size="10.00">ImGui::DockNodeApplyPosSize</text>
<text text-anchor="middle" x="739.25" y="-429.31" font-family="Helvetica,sans-Serif" font-size="10.00">ToWindows</text>
</a>
</g>
</g>
<!-- Node5&#45;&gt;Node6 -->
<g id="edge5_Node000005_Node000006" class="edge">
<title>Node5&#45;&gt;Node6</title>
<g id="a_edge5_Node000005_Node000006"><a xlink:title=" ">
<path fill="none" stroke="#63b8ff" d="M601.35,-438.81C615.18,-438.81 629.77,-438.81 644.06,-438.81"/>
<polygon fill="#63b8ff" stroke="#63b8ff" points="643.93,-442.31 653.93,-438.81 643.93,-435.31 643.93,-442.31"/>
</a>
</g>
</g>
<!-- Node10 -->
<g id="Node000010" class="node">
<title>Node10</title>
<g id="a_Node000010"><a xlink:href="namespaceImGui.html#a7b90f51f0d3548a567fdc90a69035e0d" target="_top" xlink:title=" ">
<polygon fill="white" stroke="#666666" points="815.88,-507.56 662.62,-507.56 662.62,-474.06 815.88,-474.06 815.88,-507.56"/>
<text text-anchor="start" x="670.62" y="-494.06" font-family="Helvetica,sans-Serif" font-size="10.00">ImGui::DockNodeMoveChild</text>
<text text-anchor="middle" x="739.25" y="-481.31" font-family="Helvetica,sans-Serif" font-size="10.00">Nodes</text>
</a>
</g>
</g>
<!-- Node5&#45;&gt;Node10 -->
<g id="edge11_Node000005_Node000010" class="edge">
<title>Node5&#45;&gt;Node10</title>
<g id="a_edge11_Node000005_Node000010"><a xlink:title=" ">
<path fill="none" stroke="#63b8ff" d="M570.14,-449.64C595.25,-455.79 627.47,-463.68 656.98,-470.91"/>
<polygon fill="#63b8ff" stroke="#63b8ff" points="656.11,-474.3 666.66,-473.28 657.78,-467.5 656.11,-474.3"/>
</a>
</g>
</g>
<!-- Node11 -->
<g id="Node000011" class="node">
<title>Node11</title>
<g id="a_Node000011"><a xlink:href="namespaceImGui.html#a8f314ce935f9160d4bdde3ba8fe8d24f" target="_top" xlink:title=" ">
<polygon fill="white" stroke="#666666" points="825.62,-404.18 652.88,-404.18 652.88,-383.43 825.62,-383.43 825.62,-404.18"/>
<text text-anchor="middle" x="739.25" y="-390.68" font-family="Helvetica,sans-Serif" font-size="10.00">ImGui::DockNodeMoveWindows</text>
</a>
</g>
</g>
<!-- Node5&#45;&gt;Node11 -->
<g id="edge12_Node000005_Node000011" class="edge">
<title>Node5&#45;&gt;Node11</title>
<g id="a_edge12_Node000005_Node000011"><a xlink:title=" ">
<path fill="none" stroke="#63b8ff" d="M577.01,-427.97C606.88,-421.64 644.77,-413.61 676.32,-406.93"/>
<polygon fill="#63b8ff" stroke="#63b8ff" points="676.65,-410.44 685.71,-404.94 675.2,-403.59 676.65,-410.44"/>
</a>
</g>
</g>
<!-- Node26 -->
<g id="Node000026" class="node">
<title>Node26</title>
<g id="a_Node000026"><a xlink:href="namespaceImGui.html#a62a4dbebb5015352589459596f16b26c" target="_top" xlink:title=" ">
<polygon fill="white" stroke="#666666" points="817.38,-559.56 661.12,-559.56 661.12,-526.06 817.38,-526.06 817.38,-559.56"/>
<text text-anchor="start" x="669.12" y="-546.06" font-family="Helvetica,sans-Serif" font-size="10.00">ImGui::DockSettingsRename</text>
<text text-anchor="middle" x="739.25" y="-533.31" font-family="Helvetica,sans-Serif" font-size="10.00">NodeReferences</text>
</a>
</g>
</g>
<!-- Node5&#45;&gt;Node26 -->
<g id="edge29_Node000005_Node000026" class="edge">
<title>Node5&#45;&gt;Node26</title>
<g id="a_edge29_Node000005_Node000026"><a xlink:title=" ">
<path fill="none" stroke="#63b8ff" d="M540.38,-449.48C563.23,-465.88 609.42,-497.4 652.5,-516.81 656.27,-518.5 660.18,-520.13 664.16,-521.68"/>
<polygon fill="#63b8ff" stroke="#63b8ff" points="662.8,-524.91 673.39,-525.08 665.22,-518.34 662.8,-524.91"/>
</a>
</g>
</g>
<!-- Node5&#45;&gt;Node31 -->
<g id="edge35_Node000005_Node000031" class="edge">
<title>Node5&#45;&gt;Node31</title>
<g id="a_edge35_Node000005_Node000031"><a xlink:title=" ">
<path fill="none" stroke="#63b8ff" d="M543.72,-428.06C567.69,-414.03 611.99,-389.53 652.5,-374.81 658.91,-372.48 665.69,-370.35 672.52,-368.43"/>
<polygon fill="#63b8ff" stroke="#63b8ff" points="673.02,-371.92 681.78,-365.97 671.22,-365.16 673.02,-371.92"/>
</a>
</g>
</g>
<!-- Node32 -->
<g id="Node000032" class="node">
<title>Node32</title>
<g id="a_Node000032"><a xlink:href="structImGuiDockNode.html#a87a708d19b6f2e22c15d6d378c8b71e2" target="_top" xlink:title=" ">
<polygon fill="white" stroke="#666666" points="826,-611.56 652.5,-611.56 652.5,-578.06 826,-578.06 826,-611.56"/>
<text text-anchor="start" x="660.5" y="-598.06" font-family="Helvetica,sans-Serif" font-size="10.00">ImGuiDockNode::UpdateMerged</text>
<text text-anchor="middle" x="739.25" y="-585.31" font-family="Helvetica,sans-Serif" font-size="10.00">Flags</text>
</a>
</g>
</g>
<!-- Node5&#45;&gt;Node32 -->
<g id="edge36_Node000005_Node000032" class="edge">
<title>Node5&#45;&gt;Node32</title>
<g id="a_edge36_Node000005_Node000032"><a xlink:title=" ">
<path fill="none" stroke="#63b8ff" d="M534.95,-449.41C559.04,-477.32 624.64,-551.86 652.5,-568.81 654.8,-570.21 657.18,-571.53 659.62,-572.79"/>
<polygon fill="#63b8ff" stroke="#63b8ff" points="658.01,-575.91 668.55,-576.97 660.97,-569.56 658.01,-575.91"/>
</a>
</g>
</g>
<!-- Node7 -->
<g id="Node000007" class="node">
<title>Node7</title>
<g id="a_Node000007"><a xlink:href="namespaceImGui.html#aaa81e004de4c0a5cedb836e92e8aa0e5" target="_top" xlink:title=" ">
<polygon fill="white" stroke="#666666" points="1011.12,-487.18 887.88,-487.18 887.88,-466.43 1011.12,-466.43 1011.12,-487.18"/>
<text text-anchor="middle" x="949.5" y="-473.68" font-family="Helvetica,sans-Serif" font-size="10.00">ImGui::SetWindowPos</text>
</a>
</g>
</g>
<!-- Node6&#45;&gt;Node7 -->
<g id="edge6_Node000006_Node000007" class="edge">
<title>Node6&#45;&gt;Node7</title>
<g id="a_edge6_Node000006_Node000007"><a xlink:title=" ">
<path fill="none" stroke="#63b8ff" d="M822.86,-453.88C841.11,-457.21 860.28,-460.71 878,-463.94"/>
<polygon fill="#63b8ff" stroke="#63b8ff" points="877.16,-467.35 887.63,-465.7 878.42,-460.46 877.16,-467.35"/>
</a>
</g>
</g>
<!-- Node9 -->
<g id="Node000009" class="node">
<title>Node9</title>
<g id="a_Node000009"><a xlink:href="namespaceImGui.html#a657c6cc2246485332f608a5204447ea1" target="_top" xlink:title=" ">
<polygon fill="white" stroke="#666666" points="1012.62,-430.18 886.38,-430.18 886.38,-409.43 1012.62,-409.43 1012.62,-430.18"/>
<text text-anchor="middle" x="949.5" y="-416.68" font-family="Helvetica,sans-Serif" font-size="10.00">ImGui::SetWindowSize</text>
</a>
</g>
</g>
<!-- Node6&#45;&gt;Node9 -->
<g id="edge9_Node000006_Node000009" class="edge">
<title>Node6&#45;&gt;Node9</title>
<g id="a_edge9_Node000006_Node000009"><a xlink:title=" ">
<path fill="none" stroke="#63b8ff" d="M822.86,-431.27C839.92,-429.71 857.8,-428.08 874.54,-426.56"/>
<polygon fill="#63b8ff" stroke="#63b8ff" points="874.77,-430.05 884.41,-425.65 874.14,-423.08 874.77,-430.05"/>
</a>
</g>
</g>
<!-- Node7&#45;&gt;Node7 -->
<g id="edge8_Node000007_Node000007" class="edge">
<title>Node7&#45;&gt;Node7</title>
<g id="a_edge8_Node000007_Node000007"><a xlink:title=" ">
<path fill="none" stroke="#63b8ff" d="M915.62,-487.58C902.07,-496.24 913.36,-505.18 949.5,-505.18 969.83,-505.18 982.29,-502.35 986.9,-498.34"/>
<polygon fill="#63b8ff" stroke="#63b8ff" points="990.29,-497.43 983.85,-489.02 983.63,-499.61 990.29,-497.43"/>
</a>
</g>
</g>
<!-- Node8 -->
<g id="Node000008" class="node">
<title>Node8</title>
<g id="a_Node000008"><a xlink:href="namespaceImGui.html#a055af7d6b7b4ae977a9c3c25a98e0d2f" target="_top" xlink:title=" ">
<polygon fill="white" stroke="#666666" points="1252.5,-481.18 1084.25,-481.18 1084.25,-460.43 1252.5,-460.43 1252.5,-481.18"/>
<text text-anchor="middle" x="1168.38" y="-467.68" font-family="Helvetica,sans-Serif" font-size="10.00">ImGui::GetCurrentWindowRead</text>
</a>
</g>
</g>
<!-- Node7&#45;&gt;Node8 -->
<g id="edge7_Node000007_Node000008" class="edge">
<title>Node7&#45;&gt;Node8</title>
<g id="a_edge7_Node000007_Node000008"><a xlink:title=" ">
<path fill="none" stroke="#63b8ff" d="M1011.49,-475.12C1030.41,-474.6 1051.73,-474.01 1072.4,-473.43"/>
<polygon fill="#63b8ff" stroke="#63b8ff" points="1072.37,-476.94 1082.27,-473.16 1072.18,-469.94 1072.37,-476.94"/>
</a>
</g>
</g>
<!-- Node9&#45;&gt;Node9 -->
<g id="edge10_Node000009_Node000009" class="edge">
<title>Node9&#45;&gt;Node9</title>
<g id="a_edge10_Node000009_Node000009"><a xlink:title=" ">
<path fill="none" stroke="#63b8ff" d="M915.62,-430.58C902.07,-439.24 913.36,-448.18 949.5,-448.18 969.83,-448.18 982.29,-445.35 986.9,-441.34"/>
<polygon fill="#63b8ff" stroke="#63b8ff" points="990.29,-440.43 983.85,-432.02 983.63,-442.61 990.29,-440.43"/>
</a>
</g>
</g>
<!-- Node12 -->
<g id="Node000012" class="node">
<title>Node12</title>
<g id="a_Node000012"><a xlink:href="structImVector.html#ae2d401b4ec5f1113cdb8edb5a61a38f7" target="_top" xlink:title=" ">
<polygon fill="white" stroke="#666666" points="994.25,-391.18 904.75,-391.18 904.75,-370.43 994.25,-370.43 994.25,-391.18"/>
<text text-anchor="middle" x="949.5" y="-377.68" font-family="Helvetica,sans-Serif" font-size="10.00">ImVector::clear</text>
</a>
</g>
</g>
<!-- Node11&#45;&gt;Node12 -->
<g id="edge13_Node000011_Node000012" class="edge">
<title>Node11&#45;&gt;Node12</title>
<g id="a_edge13_Node000011_Node000012"><a xlink:title=" ">
<path fill="none" stroke="#63b8ff" d="M825.85,-388.46C848.56,-387.05 872.48,-385.55 893.11,-384.26"/>
<polygon fill="#63b8ff" stroke="#63b8ff" points="893.24,-387.76 903.01,-383.65 892.81,-380.78 893.24,-387.76"/>
</a>
</g>
</g>
<!-- Node13 -->
<g id="Node000013" class="node">
<title>Node13</title>
<g id="a_Node000013"><a xlink:href="namespaceImGui.html#a9ddcb5d005e4d92cbce85de08deae665" target="_top" xlink:title=" ">
<polygon fill="white" stroke="#666666" points="1029.12,-305.18 869.88,-305.18 869.88,-284.43 1029.12,-284.43 1029.12,-305.18"/>
<text text-anchor="middle" x="949.5" y="-291.68" font-family="Helvetica,sans-Serif" font-size="10.00">ImGui::DockNodeAddWindow</text>
</a>
</g>
</g>
<!-- Node11&#45;&gt;Node13 -->
<g id="edge14_Node000011_Node000013" class="edge">
<title>Node11&#45;&gt;Node13</title>
<g id="a_edge14_Node000011_Node000013"><a xlink:title=" ">
<path fill="none" stroke="#63b8ff" d="M808.87,-383.05C814.95,-380.57 820.77,-377.53 826,-373.81 850.42,-356.44 837.76,-334.42 862,-316.81 865.4,-314.34 869.04,-312.15 872.85,-310.2"/>
<polygon fill="#63b8ff" stroke="#63b8ff" points="874.12,-313.46 881.85,-306.21 871.29,-307.07 874.12,-313.46"/>
</a>
</g>
</g>
<!-- Node11&#45;&gt;Node25 -->
<g id="edge28_Node000011_Node000025" class="edge">
<title>Node11&#45;&gt;Node25</title>
<g id="a_edge28_Node000011_Node000025"><a xlink:title=" ">
<path fill="none" stroke="#63b8ff" d="M790.33,-382.95C802.08,-380.17 814.53,-377.05 826,-373.81 842.23,-369.22 845.92,-366.9 862,-361.81 874.6,-357.81 888.29,-353.63 900.97,-349.82"/>
<polygon fill="#63b8ff" stroke="#63b8ff" points="901.78,-353.23 910.36,-347.01 899.77,-346.52 901.78,-353.23"/>
</a>
</g>
</g>
<!-- Node13&#45;&gt;Node1 -->
<g id="edge16_Node000013_Node000001" class="edge">
<title>Node13&#45;&gt;Node1</title>
<g id="a_edge16_Node000013_Node000001"><a xlink:title=" ">
<path fill="none" stroke="#63b8ff" d="M869.63,-295.02C706.53,-294.73 337.39,-290.04 217,-254.81 178.15,-243.44 138.3,-218.1 114.22,-200.98"/>
<polygon fill="#63b8ff" stroke="#63b8ff" points="116.58,-198.36 106.43,-195.32 112.46,-204.03 116.58,-198.36"/>
</a>
</g>
</g>
<!-- Node14 -->
<g id="Node000014" class="node">
<title>Node14</title>
<g id="a_Node000014"><a xlink:href="namespaceImGui.html#ac621689d25d2aeeb45ee8a007080498d" target="_top" xlink:title=" ">
<polygon fill="white" stroke="#666666" points="1245,-303.18 1091.75,-303.18 1091.75,-282.43 1245,-282.43 1245,-303.18"/>
<text text-anchor="middle" x="1168.38" y="-289.68" font-family="Helvetica,sans-Serif" font-size="10.00">ImGui::DockNodeAddTabBar</text>
</a>
</g>
</g>
<!-- Node13&#45;&gt;Node14 -->
<g id="edge15_Node000013_Node000014" class="edge">
<title>Node13&#45;&gt;Node14</title>
<g id="a_edge15_Node000013_Node000014"><a xlink:title=" ">
<path fill="none" stroke="#63b8ff" d="M1029.41,-294.08C1045.84,-293.93 1063.26,-293.77 1079.98,-293.61"/>
<polygon fill="#63b8ff" stroke="#63b8ff" points="1079.94,-297.11 1089.91,-293.52 1079.87,-290.11 1079.94,-297.11"/>
</a>
</g>
</g>
<!-- Node13&#45;&gt;Node15 -->
<g id="edge17_Node000013_Node000015" class="edge">
<title>Node13&#45;&gt;Node15</title>
<g id="a_edge17_Node000013_Node000015"><a xlink:title=" ">
<path fill="none" stroke="#63b8ff" d="M961.85,-283.97C996.92,-250.5 1103.76,-148.53 1147.94,-106.36"/>
<polygon fill="#63b8ff" stroke="#63b8ff" points="1150.22,-109.02 1155.04,-99.58 1145.39,-103.96 1150.22,-109.02"/>
</a>
</g>
</g>
<!-- Node18 -->
<g id="Node000018" class="node">
<title>Node18</title>
<g id="a_Node000018"><a xlink:href="structImGuiDockNode.html#a65218fbb8d4629246096dd8fe5d1f219" target="_top" xlink:title=" ">
<polygon fill="white" stroke="#666666" points="1255.88,-418.18 1080.88,-418.18 1080.88,-397.43 1255.88,-397.43 1255.88,-418.18"/>
<text text-anchor="middle" x="1168.38" y="-404.68" font-family="Helvetica,sans-Serif" font-size="10.00">ImGuiDockNode::IsFloatingNode</text>
</a>
</g>
</g>
<!-- Node13&#45;&gt;Node18 -->
<g id="edge20_Node000013_Node000018" class="edge">
<title>Node13&#45;&gt;Node18</title>
<g id="a_edge20_Node000013_Node000018"><a xlink:title=" ">
<path fill="none" stroke="#63b8ff" d="M1016.97,-305.53C1024.16,-308.44 1031.02,-312.13 1037,-316.81 1063.63,-337.62 1046.37,-362.99 1073,-383.81 1077.27,-387.14 1081.95,-390.02 1086.87,-392.5"/>
<polygon fill="#63b8ff" stroke="#63b8ff" points="1085.31,-395.64 1095.88,-396.45 1088.12,-389.23 1085.31,-395.64"/>
</a>
</g>
</g>
<!-- Node19 -->
<g id="Node000019" class="node">
<title>Node19</title>
<g id="a_Node000019"><a xlink:href="structImVector.html#aab5df48e0711a48bd12f3206e08c4108" target="_top" xlink:title=" ">
<polygon fill="white" stroke="#666666" points="1443.62,-361.18 1326.38,-361.18 1326.38,-340.43 1443.62,-340.43 1443.62,-361.18"/>
<text text-anchor="middle" x="1385" y="-347.68" font-family="Helvetica,sans-Serif" font-size="10.00">ImVector::push_back</text>
</a>
</g>
</g>
<!-- Node13&#45;&gt;Node19 -->
<g id="edge21_Node000013_Node000019" class="edge">
<title>Node13&#45;&gt;Node19</title>
<g id="a_edge21_Node000013_Node000019"><a xlink:title=" ">
<path fill="none" stroke="#63b8ff" d="M1009.73,-305.58C1019.17,-308.5 1028.58,-312.18 1037,-316.81 1056.28,-327.41 1052.55,-342.68 1073,-350.81 1155,-383.41 1259.06,-374.38 1323.59,-363.59"/>
<polygon fill="#63b8ff" stroke="#63b8ff" points="1324.03,-367.07 1333.28,-361.9 1322.83,-360.17 1324.03,-367.07"/>
</a>
</g>
</g>
<!-- Node22 -->
<g id="Node000022" class="node">
<title>Node22</title>
<g id="a_Node000022"><a xlink:href="namespaceImGui.html#ad351241dc857097a48c74669249b3c04" target="_top" xlink:title=" ">
<polygon fill="white" stroke="#666666" points="1228.12,-342.18 1108.62,-342.18 1108.62,-321.43 1228.12,-321.43 1228.12,-342.18"/>
<text text-anchor="middle" x="1168.38" y="-328.68" font-family="Helvetica,sans-Serif" font-size="10.00">ImGui::TabBarAddTab</text>
</a>
</g>
</g>
<!-- Node13&#45;&gt;Node22 -->
<g id="edge24_Node000013_Node000022" class="edge">
<title>Node13&#45;&gt;Node22</title>
<g id="a_edge24_Node000013_Node000022"><a xlink:title=" ">
<path fill="none" stroke="#63b8ff" d="M1014.1,-305.66C1040.13,-310.1 1070.34,-315.25 1097.03,-319.81"/>
<polygon fill="#63b8ff" stroke="#63b8ff" points="1096.29,-323.23 1106.74,-321.46 1097.47,-316.33 1096.29,-323.23"/>
</a>
</g>
</g>
<!-- Node13&#45;&gt;Node24 -->
<g id="edge27_Node000013_Node000024" class="edge">
<title>Node13&#45;&gt;Node24</title>
<g id="a_edge27_Node000013_Node000024"><a xlink:title=" ">
<path fill="none" stroke="#63b8ff" d="M1000.53,-283.97C1023.84,-278.91 1052.28,-272.75 1079.03,-266.95"/>
<polygon fill="#63b8ff" stroke="#63b8ff" points="1079.46,-270.44 1088.49,-264.9 1077.98,-263.6 1079.46,-270.44"/>
</a>
</g>
</g>
<!-- Node15&#45;&gt;Node16 -->
<g id="edge18_Node000015_Node000016" class="edge">
<title>Node15&#45;&gt;Node16</title>
<g id="a_edge18_Node000015_Node000016"><a xlink:title=" ">
<path fill="none" stroke="#63b8ff" d="M1217.01,-98.68C1248.96,-105.98 1291.27,-115.64 1325.3,-123.41"/>
<polygon fill="#63b8ff" stroke="#63b8ff" points="1324.5,-126.81 1335.03,-125.63 1326.06,-119.99 1324.5,-126.81"/>
</a>
</g>
</g>
<!-- Node15&#45;&gt;Node17 -->
<g id="edge19_Node000015_Node000017" class="edge">
<title>Node15&#45;&gt;Node17</title>
<g id="a_edge19_Node000015_Node000017"><a xlink:title=" ">
<path fill="none" stroke="#63b8ff" d="M1264.14,-79.42C1273.22,-78.61 1282.42,-77.8 1291.48,-77"/>
<polygon fill="#63b8ff" stroke="#63b8ff" points="1291.69,-80.49 1301.35,-76.12 1291.08,-73.52 1291.69,-80.49"/>
</a>
</g>
</g>
<!-- Node20 -->
<g id="Node000020" class="node">
<title>Node20</title>
<g id="a_Node000020"><a xlink:href="structImVector.html#a3a097635d464b1b70dc7d59996a88b28" target="_top" xlink:title=" ">
<polygon fill="white" stroke="#666666" points="1647.5,-380.18 1506.25,-380.18 1506.25,-359.43 1647.5,-359.43 1647.5,-380.18"/>
<text text-anchor="middle" x="1576.88" y="-366.68" font-family="Helvetica,sans-Serif" font-size="10.00">ImVector::_grow_capacity</text>
</a>
</g>
</g>
<!-- Node19&#45;&gt;Node20 -->
<g id="edge22_Node000019_Node000020" class="edge">
<title>Node19&#45;&gt;Node20</title>
<g id="a_edge22_Node000019_Node000020"><a xlink:title=" ">
<path fill="none" stroke="#63b8ff" d="M1444,-356.61C1460.01,-358.21 1477.69,-359.98 1494.76,-361.69"/>
<polygon fill="#63b8ff" stroke="#63b8ff" points="1494.05,-365.14 1504.35,-362.65 1494.75,-358.17 1494.05,-365.14"/>
</a>
</g>
</g>
<!-- Node21 -->
<g id="Node000021" class="node">
<title>Node21</title>
<g id="a_Node000021"><a xlink:href="structImVector.html#a0f14f5736c3372157856eebb67123b75" target="_top" xlink:title=" ">
<polygon fill="white" stroke="#666666" points="1628,-341.18 1525.75,-341.18 1525.75,-320.43 1628,-320.43 1628,-341.18"/>
<text text-anchor="middle" x="1576.88" y="-327.68" font-family="Helvetica,sans-Serif" font-size="10.00">ImVector::reserve</text>
</a>
</g>
</g>
<!-- Node19&#45;&gt;Node21 -->
<g id="edge23_Node000019_Node000021" class="edge">
<title>Node19&#45;&gt;Node21</title>
<g id="a_edge23_Node000019_Node000021"><a xlink:title=" ">
<path fill="none" stroke="#63b8ff" d="M1444,-344.7C1466.21,-342.36 1491.6,-339.68 1514.14,-337.31"/>
<polygon fill="#63b8ff" stroke="#63b8ff" points="1514.21,-340.82 1523.79,-336.29 1513.48,-333.86 1514.21,-340.82"/>
</a>
</g>
</g>
<!-- Node22&#45;&gt;Node19 -->
<g id="edge25_Node000022_Node000019" class="edge">
<title>Node22&#45;&gt;Node19</title>
<g id="a_edge25_Node000022_Node000019"><a xlink:title=" ">
<path fill="none" stroke="#63b8ff" d="M1228.59,-337.05C1255.31,-339.41 1287.04,-342.22 1314.85,-344.69"/>
<polygon fill="#63b8ff" stroke="#63b8ff" points="1314.31,-348.15 1324.58,-345.55 1314.93,-341.18 1314.31,-348.15"/>
</a>
</g>
</g>
<!-- Node23 -->
<g id="Node000023" class="node">
<title>Node23</title>
<g id="a_Node000023"><a xlink:href="namespaceImGui.html#a892525a74a6206eabbeb851071b3119a" target="_top" xlink:title=" ">
<polygon fill="white" stroke="#666666" points="1457.12,-278.18 1312.88,-278.18 1312.88,-257.43 1457.12,-257.43 1457.12,-278.18"/>
<text text-anchor="middle" x="1385" y="-264.68" font-family="Helvetica,sans-Serif" font-size="10.00">ImGui::TabBarFindTabByID</text>
</a>
</g>
</g>
<!-- Node22&#45;&gt;Node23 -->
<g id="edge26_Node000022_Node000023" class="edge">
<title>Node22&#45;&gt;Node23</title>
<g id="a_edge26_Node000022_Node000023"><a xlink:title=" ">
<path fill="none" stroke="#63b8ff" d="M1227.09,-320.93C1239.28,-318.26 1252,-315.18 1263.75,-311.81 1292.34,-303.59 1323.89,-291.94 1347.5,-282.7"/>
<polygon fill="#63b8ff" stroke="#63b8ff" points="1348.67,-286 1356.67,-279.06 1346.09,-279.49 1348.67,-286"/>
</a>
</g>
</g>
<!-- Node27 -->
<g id="Node000027" class="node">
<title>Node27</title>
<g id="a_Node000027"><a xlink:href="structImChunkStream.html#a10a9b29c856b3f84ce8811ebfaf2cfe8" target="_top" xlink:title=" ">
<polygon fill="white" stroke="#666666" points="1232.25,-598.18 1104.5,-598.18 1104.5,-577.43 1232.25,-577.43 1232.25,-598.18"/>
<text text-anchor="middle" x="1168.38" y="-584.68" font-family="Helvetica,sans-Serif" font-size="10.00">ImChunkStream::begin</text>
</a>
</g>
</g>
<!-- Node26&#45;&gt;Node27 -->
<g id="edge30_Node000026_Node000027" class="edge">
<title>Node26&#45;&gt;Node27</title>
<g id="a_edge30_Node000026_Node000027"><a xlink:title=" ">
<path fill="none" stroke="#63b8ff" d="M812.37,-560.05C828.61,-563.42 845.83,-566.59 862,-568.81 940.4,-579.56 1030.97,-584.23 1092.99,-586.26"/>
<polygon fill="#63b8ff" stroke="#63b8ff" points="1092.62,-589.75 1102.72,-586.56 1092.83,-582.75 1092.62,-589.75"/>
</a>
</g>
</g>
<!-- Node28 -->
<g id="Node000028" class="node">
<title>Node28</title>
<g id="a_Node000028"><a xlink:href="structImChunkStream.html#a3a99f21ce1867d694104d740ac7ab133" target="_top" xlink:title=" ">
<polygon fill="white" stroke="#666666" points="1010.75,-559.56 888.25,-559.56 888.25,-526.06 1010.75,-526.06 1010.75,-559.56"/>
<text text-anchor="start" x="896.25" y="-546.06" font-family="Helvetica,sans-Serif" font-size="10.00">ImChunkStream::next</text>
<text text-anchor="middle" x="949.5" y="-533.31" font-family="Helvetica,sans-Serif" font-size="10.00">_chunk</text>
</a>
</g>
</g>
<!-- Node26&#45;&gt;Node28 -->
<g id="edge31_Node000026_Node000028" class="edge">
<title>Node26&#45;&gt;Node28</title>
<g id="a_edge31_Node000026_Node000028"><a xlink:title=" ">
<path fill="none" stroke="#63b8ff" d="M817.79,-542.81C837.04,-542.81 857.58,-542.81 876.54,-542.81"/>
<polygon fill="#63b8ff" stroke="#63b8ff" points="876.3,-546.31 886.3,-542.81 876.3,-539.31 876.3,-546.31"/>
</a>
</g>
</g>
<!-- Node28&#45;&gt;Node27 -->
<g id="edge32_Node000028_Node000027" class="edge">
<title>Node28&#45;&gt;Node27</title>
<g id="a_edge32_Node000028_Node000027"><a xlink:title=" ">
<path fill="none" stroke="#63b8ff" d="M1011.2,-555.4C1040.2,-561.42 1074.89,-568.62 1104.21,-574.7"/>
<polygon fill="#63b8ff" stroke="#63b8ff" points="1103.17,-578.06 1113.67,-576.66 1104.59,-571.21 1103.17,-578.06"/>
</a>
</g>
</g>
<!-- Node29 -->
<g id="Node000029" class="node">
<title>Node29</title>
<g id="a_Node000029"><a xlink:href="structImChunkStream.html#a1a83609aaee47cf8b59a8ae09a04a06b" target="_top" xlink:title=" ">
<polygon fill="white" stroke="#666666" points="1245.75,-520.18 1091,-520.18 1091,-499.43 1245.75,-499.43 1245.75,-520.18"/>
<text text-anchor="middle" x="1168.38" y="-506.68" font-family="Helvetica,sans-Serif" font-size="10.00">ImChunkStream::chunk_size</text>
</a>
</g>
</g>
<!-- Node28&#45;&gt;Node29 -->
<g id="edge33_Node000028_Node000029" class="edge">
<title>Node28&#45;&gt;Node29</title>
<g id="a_edge33_Node000028_Node000029"><a xlink:title=" ">
<path fill="none" stroke="#63b8ff" d="M1011.2,-533.57C1034.02,-530.1 1060.36,-526.09 1084.84,-522.37"/>
<polygon fill="#63b8ff" stroke="#63b8ff" points="1085.08,-525.87 1094.44,-520.91 1084.02,-518.95 1085.08,-525.87"/>
</a>
</g>
</g>
<!-- Node30 -->
<g id="Node000030" class="node">
<title>Node30</title>
<g id="a_Node000030"><a xlink:href="structImChunkStream.html#a5c7faa90ac7fa02140a3298dbfdd5cad" target="_top" xlink:title=" ">
<polygon fill="white" stroke="#666666" points="1227.75,-559.18 1109,-559.18 1109,-538.43 1227.75,-538.43 1227.75,-559.18"/>
<text text-anchor="middle" x="1168.38" y="-545.68" font-family="Helvetica,sans-Serif" font-size="10.00">ImChunkStream::end</text>
</a>
</g>
</g>
<!-- Node28&#45;&gt;Node30 -->
<g id="edge34_Node000028_Node000030" class="edge">
<title>Node28&#45;&gt;Node30</title>
<g id="a_edge34_Node000028_Node000030"><a xlink:title=" ">
<path fill="none" stroke="#63b8ff" d="M1011.2,-544.49C1037.96,-545.23 1069.57,-546.1 1097.33,-546.87"/>
<polygon fill="#63b8ff" stroke="#63b8ff" points="1096.95,-550.36 1107.05,-547.14 1097.15,-543.36 1096.95,-550.36"/>
</a>
</g>
</g>
<!-- Node34&#45;&gt;Node33 -->
<g id="edge42_Node000034_Node000033" class="edge">
<title>Node34&#45;&gt;Node33</title>
<g id="a_edge42_Node000034_Node000033"><a xlink:title=" ">
<path fill="none" stroke="#63b8ff" d="M365.38,-98.89C396.84,-104.43 435.74,-111.28 467.12,-116.81"/>
<polygon fill="#63b8ff" stroke="#63b8ff" points="466.37,-120.23 476.83,-118.52 467.59,-113.34 466.37,-120.23"/>
</a>
</g>
</g>
<!-- Node35 -->
<g id="Node000035" class="node">
<title>Node35</title>
<g id="a_Node000035"><a xlink:href="structImVector.html#a406417c3efef769d4bee47df2188831a" target="_top" xlink:title=" ">
<polygon fill="white" stroke="#666666" points="566.62,-98.18 483.12,-98.18 483.12,-77.43 566.62,-77.43 566.62,-98.18"/>
<text text-anchor="middle" x="524.88" y="-84.68" font-family="Helvetica,sans-Serif" font-size="10.00">ImVector::find</text>
</a>
</g>
</g>
<!-- Node34&#45;&gt;Node35 -->
<g id="edge43_Node000034_Node000035" class="edge">
<title>Node34&#45;&gt;Node35</title>
<g id="a_edge43_Node000034_Node000035"><a xlink:title=" ">
<path fill="none" stroke="#63b8ff" d="M365.38,-88.54C398.29,-88.39 439.33,-88.2 471.4,-88.05"/>
<polygon fill="#63b8ff" stroke="#63b8ff" points="471.28,-91.55 481.26,-88 471.25,-84.55 471.28,-91.55"/>
</a>
</g>
</g>
<!-- Node36&#45;&gt;Node23 -->
<g id="edge48_Node000036_Node000023" class="edge">
<title>Node36&#45;&gt;Node23</title>
<g id="a_edge48_Node000036_Node000023"><a xlink:title=" ">
<path fill="none" stroke="#63b8ff" d="M378.16,-202.81C463.28,-202.81 611.3,-202.81 738.25,-202.81 738.25,-202.81 738.25,-202.81 950.5,-202.81 1089.98,-202.81 1127.42,-192.33 1263.75,-221.81 1294.63,-228.49 1328.07,-241.81 1351.83,-252.41"/>
<polygon fill="#63b8ff" stroke="#63b8ff" points="1350.09,-255.47 1360.64,-256.43 1352.99,-249.1 1350.09,-255.47"/>
</a>
</g>
</g>
<!-- Node36&#45;&gt;Node33 -->
<g id="edge47_Node000036_Node000033" class="edge">
<title>Node36&#45;&gt;Node33</title>
<g id="a_edge47_Node000036_Node000033"><a xlink:title=" ">
<path fill="none" stroke="#63b8ff" d="M338.58,-192.08C376.22,-178.82 440.44,-156.2 482.51,-141.38"/>
<polygon fill="#63b8ff" stroke="#63b8ff" points="483.53,-144.73 491.8,-138.11 481.2,-138.13 483.53,-144.73"/>
</a>
</g>
</g>
</g>
</svg>
