<?xml version="1.0" encoding="UTF-8" standalone="no"?>
<!DOCTYPE svg PUBLIC "-//W3C//DTD SVG 1.1//EN"
 "http://www.w3.org/Graphics/SVG/1.1/DTD/svg11.dtd">
<!-- Generated by graphviz version 12.2.1 (20241206.2353)
 -->
<!-- Title: ImGui::DockContextBuildAddWindowsToNodes Pages: 1 -->
<!--zoomable 830 -->

<svg id="main" version="1.1" xmlns="http://www.w3.org/2000/svg" xmlns:xlink="http://www.w3.org/1999/xlink" xml:space="preserve" onload="init(evt)">

<style type="text/css"><![CDATA[
.node, .edge {opacity: 0.7;}
.node.selected, .edge.selected {opacity: 1;}
.edge:hover path { stroke: red; }
.edge:hover polygon { stroke: red; fill: red; }
]]></style>

<defs>
  <circle id="rim" cx="0" cy="0" r="7"/>
  <circle id="rim2" cx="0" cy="0" r="3.5"/>
  <g id="zoomPlus">
    <use xlink:href="#rim" fill="#404040"><set attributeName="fill" to="#808080" begin="zoomplus.mouseover" end="zoomplus.mouseout"/></use>
    <path d="M-4,0h8M0,-4v8" fill="none" stroke="white" stroke-width="1.5" pointer-events="none"/>
  </g>
  <g id="zoomMin">
    <use xlink:href="#rim" fill="#404040"><set attributeName="fill" to="#808080" begin="zoomminus.mouseover" end="zoomminus.mouseout"/></use>
    <path d="M-4,0h8" fill="none" stroke="white" stroke-width="1.5" pointer-events="none"/>
  </g>
  <g id="arrowUp" transform="translate(30 24)">
    <use xlink:href="#rim"/>
    <path pointer-events="none" fill="none" stroke="white" stroke-width="1.5" d="M0,-3.0v7 M-2.5,-0.5L0,-3.0L2.5,-0.5"/>
  </g>
  <g id="arrowRight" transform="rotate(90) translate(36 -43)">
    <use xlink:href="#rim"/>
    <path pointer-events="none" fill="none" stroke="white" stroke-width="1.5" d="M0,-3.0v7 M-2.5,-0.5L0,-3.0L2.5,-0.5"/>
  </g>
  <g id="arrowDown" transform="rotate(180) translate(-30 -48)">
    <use xlink:href="#rim"/>
    <path pointer-events="none" fill="none" stroke="white" stroke-width="1.5" d="M0,-3.0v7 M-2.5,-0.5L0,-3.0L2.5,-0.5"/>
  </g>
  <g id="arrowLeft" transform="rotate(270) translate(-36 17)">
    <use xlink:href="#rim"/>
    <path pointer-events="none" fill="none" stroke="white" stroke-width="1.5" d="M0,-3.0v7 M-2.5,-0.5L0,-3.0L2.5,-0.5"/>
  </g>
  <g id="resetDef">
    <use xlink:href="#rim2" fill="#404040"><set attributeName="fill" to="#808080" begin="reset.mouseover" end="reset.mouseout"/></use>
  </g>
</defs>
<script type="application/ecmascript">
var viewWidth = 1656;
var viewHeight = 830;
var sectionId = 'dynsection-280';
</script>
<script type="application/ecmascript" xlink:href="svg.min.js"/>
<svg id="graph" class="graph">
<g id="viewport">
<title>ImGui::DockContextBuildAddWindowsToNodes</title>
<!-- Node1 -->
<g id="Node000001" class="node">
<title>Node1</title>
<g id="a_Node000001"><a xlink:title=" ">
<polygon fill="#999999" stroke="#666666" points="157.75,-273.32 0,-273.32 0,-239.82 157.75,-239.82 157.75,-273.32"/>
<text text-anchor="start" x="8" y="-259.82" font-family="Helvetica,sans-Serif" font-size="10.00">ImGui::DockContextBuildAdd</text>
<text text-anchor="middle" x="78.88" y="-247.07" font-family="Helvetica,sans-Serif" font-size="10.00">WindowsToNodes</text>
</a>
</g>
</g>
<!-- Node2 -->
<g id="Node000002" class="node">
<title>Node2</title>
<g id="a_Node000002"><a xlink:href="namespaceImGui.html#a52be73f2abd2d0320469ba138f7c6d59" target="_top" xlink:title=" ">
<polygon fill="white" stroke="#666666" points="1023.5,-641.95 840.25,-641.95 840.25,-621.2 1023.5,-621.2 1023.5,-641.95"/>
<text text-anchor="middle" x="931.88" y="-628.45" font-family="Helvetica,sans-Serif" font-size="10.00">ImGui::DockContextFindNodeByID</text>
</a>
</g>
</g>
<!-- Node1&#45;&gt;Node2 -->
<g id="edge1_Node000001_Node000002" class="edge">
<title>Node1&#45;&gt;Node2</title>
<g id="a_edge1_Node000001_Node000002"><a xlink:title=" ">
<path fill="none" stroke="#63b8ff" d="M101.2,-273.62C170.41,-328.01 396.83,-498.45 613.5,-578.57 682.82,-604.21 765.26,-617.5 828.74,-624.36"/>
<polygon fill="#63b8ff" stroke="#63b8ff" points="828.15,-627.82 838.46,-625.37 828.88,-620.86 828.15,-627.82"/>
</a>
</g>
</g>
<!-- Node4 -->
<g id="Node000004" class="node">
<title>Node4</title>
<g id="a_Node000004"><a xlink:href="namespaceImGui.html#a9ddcb5d005e4d92cbce85de08deae665" target="_top" xlink:title=" ">
<polygon fill="white" stroke="#666666" points="356.75,-266.95 197.5,-266.95 197.5,-246.2 356.75,-246.2 356.75,-266.95"/>
<text text-anchor="middle" x="277.12" y="-253.45" font-family="Helvetica,sans-Serif" font-size="10.00">ImGui::DockNodeAddWindow</text>
</a>
</g>
</g>
<!-- Node1&#45;&gt;Node4 -->
<g id="edge3_Node000001_Node000004" class="edge">
<title>Node1&#45;&gt;Node4</title>
<g id="a_edge3_Node000001_Node000004"><a xlink:title=" ">
<path fill="none" stroke="#63b8ff" d="M158,-256.57C167.2,-256.57 176.64,-256.57 185.98,-256.57"/>
<polygon fill="#63b8ff" stroke="#63b8ff" points="185.79,-260.07 195.79,-256.57 185.79,-253.07 185.79,-260.07"/>
</a>
</g>
</g>
<!-- Node38 -->
<g id="Node000038" class="node">
<title>Node38</title>
<g id="a_Node000038"><a xlink:href="namespaceImGui.html#ab52284ace3da5320ccc6e29ea8781aaa" target="_top" xlink:title=" ">
<polygon fill="white" stroke="#666666" points="360.5,-227.95 193.75,-227.95 193.75,-207.2 360.5,-207.2 360.5,-227.95"/>
<text text-anchor="middle" x="277.12" y="-214.45" font-family="Helvetica,sans-Serif" font-size="10.00">ImGui::DockNodeGetRootNode</text>
</a>
</g>
</g>
<!-- Node1&#45;&gt;Node38 -->
<g id="edge52_Node000001_Node000038" class="edge">
<title>Node1&#45;&gt;Node38</title>
<g id="a_edge52_Node000001_Node000038"><a xlink:title=" ">
<path fill="none" stroke="#63b8ff" d="M158,-241.05C175.45,-237.58 193.78,-233.94 210.66,-230.58"/>
<polygon fill="#63b8ff" stroke="#63b8ff" points="210.9,-234.1 220.03,-228.72 209.54,-227.24 210.9,-234.1"/>
</a>
</g>
</g>
<!-- Node3 -->
<g id="Node000003" class="node">
<title>Node3</title>
<g id="a_Node000003"><a xlink:href="structImGuiStorage.html#aaf87a98ede89da09113b0189f6d878ca" target="_top" xlink:title=" ">
<polygon fill="white" stroke="#666666" points="1216.5,-804.95 1076,-804.95 1076,-784.2 1216.5,-784.2 1216.5,-804.95"/>
<text text-anchor="middle" x="1146.25" y="-791.45" font-family="Helvetica,sans-Serif" font-size="10.00">ImGuiStorage::GetVoidPtr</text>
</a>
</g>
</g>
<!-- Node2&#45;&gt;Node3 -->
<g id="edge2_Node000002_Node000003" class="edge">
<title>Node2&#45;&gt;Node3</title>
<g id="a_edge2_Node000002_Node000003"><a xlink:title=" ">
<path fill="none" stroke="#63b8ff" d="M938.95,-642.31C954.89,-669.4 1000.75,-740.85 1059.5,-775.57 1061.83,-776.95 1064.24,-778.22 1066.72,-779.41"/>
<polygon fill="#63b8ff" stroke="#63b8ff" points="1065.25,-782.58 1075.83,-783.19 1067.94,-776.12 1065.25,-782.58"/>
</a>
</g>
</g>
<!-- Node5 -->
<g id="Node000005" class="node">
<title>Node5</title>
<g id="a_Node000005"><a xlink:href="namespaceImGui.html#ac621689d25d2aeeb45ee8a007080498d" target="_top" xlink:title=" ">
<polygon fill="white" stroke="#666666" points="563.62,-406.95 410.38,-406.95 410.38,-386.2 563.62,-386.2 563.62,-406.95"/>
<text text-anchor="middle" x="487" y="-393.45" font-family="Helvetica,sans-Serif" font-size="10.00">ImGui::DockNodeAddTabBar</text>
</a>
</g>
</g>
<!-- Node4&#45;&gt;Node5 -->
<g id="edge4_Node000004_Node000005" class="edge">
<title>Node4&#45;&gt;Node5</title>
<g id="a_edge4_Node000004_Node000005"><a xlink:title=" ">
<path fill="none" stroke="#63b8ff" d="M285.98,-267.39C303.27,-290.38 347.02,-344.33 396.5,-372.57 403.07,-376.32 410.25,-379.51 417.59,-382.2"/>
<polygon fill="#63b8ff" stroke="#63b8ff" points="416.38,-385.49 426.97,-385.33 418.59,-378.85 416.38,-385.49"/>
</a>
</g>
</g>
<!-- Node6 -->
<g id="Node000006" class="node">
<title>Node6</title>
<g id="a_Node000006"><a xlink:href="namespaceImGui.html#a7707fcf2071bef8bb8681ed58b87c56e" target="_top" xlink:title=" ">
<polygon fill="white" stroke="#666666" points="577.5,-330.95 396.5,-330.95 396.5,-310.2 577.5,-310.2 577.5,-330.95"/>
<text text-anchor="middle" x="487" y="-317.45" font-family="Helvetica,sans-Serif" font-size="10.00">ImGui::DockNodeRemoveWindow</text>
</a>
</g>
</g>
<!-- Node4&#45;&gt;Node6 -->
<g id="edge5_Node000004_Node000006" class="edge">
<title>Node4&#45;&gt;Node6</title>
<g id="a_edge5_Node000004_Node000006"><a xlink:title=" ">
<path fill="none" stroke="#63b8ff" d="M313.39,-267.43C348.28,-278.17 401.88,-294.67 440.08,-306.43"/>
<polygon fill="#63b8ff" stroke="#63b8ff" points="438.88,-309.73 449.46,-309.32 440.94,-303.04 438.88,-309.73"/>
</a>
</g>
</g>
<!-- Node24 -->
<g id="Node000024" class="node">
<title>Node24</title>
<g id="a_Node000024"><a xlink:href="namespaceImGui.html#a42a888a71f6295199994f5c3aa65f9d6" target="_top" xlink:title=" ">
<polygon fill="white" stroke="#666666" points="804.25,-444.95 613.5,-444.95 613.5,-424.2 804.25,-424.2 804.25,-444.95"/>
<text text-anchor="middle" x="708.88" y="-431.45" font-family="Helvetica,sans-Serif" font-size="10.00">ImGui::DockNodeUpdateVisibleFlag</text>
</a>
</g>
</g>
<!-- Node4&#45;&gt;Node24 -->
<g id="edge43_Node000004_Node000024" class="edge">
<title>Node4&#45;&gt;Node24</title>
<g id="a_edge43_Node000004_Node000024"><a xlink:title=" ">
<path fill="none" stroke="#63b8ff" d="M289.9,-267.34C310.12,-285.22 353.44,-320.9 396.5,-339.57 471.91,-372.28 499.21,-352.53 577.5,-377.57 596.31,-383.59 642.5,-404.33 674.52,-419.06"/>
<polygon fill="#63b8ff" stroke="#63b8ff" points="672.85,-422.14 683.4,-423.15 675.78,-415.79 672.85,-422.14"/>
</a>
</g>
</g>
<!-- Node32 -->
<g id="Node000032" class="node">
<title>Node32</title>
<g id="a_Node000032"><a xlink:href="namespaceImGui.html#a85d7262320ed7ce8e40863b99f8db4a3" target="_top" xlink:title=" ">
<polygon fill="white" stroke="#666666" points="787,-215.32 630.75,-215.32 630.75,-181.82 787,-181.82 787,-215.32"/>
<text text-anchor="start" x="638.75" y="-201.82" font-family="Helvetica,sans-Serif" font-size="10.00">ImGui::UpdateWindowParent</text>
<text text-anchor="middle" x="708.88" y="-189.07" font-family="Helvetica,sans-Serif" font-size="10.00">AndRootLinks</text>
</a>
</g>
</g>
<!-- Node4&#45;&gt;Node32 -->
<g id="edge51_Node000004_Node000032" class="edge">
<title>Node4&#45;&gt;Node32</title>
<g id="a_edge51_Node000004_Node000032"><a xlink:title=" ">
<path fill="none" stroke="#63b8ff" d="M357.1,-257.62C417.94,-256.97 503.82,-252.89 577.5,-237.57 594.16,-234.11 597.29,-229.72 613.5,-224.57 619.52,-222.66 625.78,-220.75 632.08,-218.9"/>
<polygon fill="#63b8ff" stroke="#63b8ff" points="632.61,-222.39 641.24,-216.24 630.66,-215.66 632.61,-222.39"/>
</a>
</g>
</g>
<!-- Node33 -->
<g id="Node000033" class="node">
<title>Node33</title>
<g id="a_Node000033"><a xlink:href="structImGuiDockNode.html#a65218fbb8d4629246096dd8fe5d1f219" target="_top" xlink:title=" ">
<polygon fill="white" stroke="#666666" points="574.5,-228.95 399.5,-228.95 399.5,-208.2 574.5,-208.2 574.5,-228.95"/>
<text text-anchor="middle" x="487" y="-215.45" font-family="Helvetica,sans-Serif" font-size="10.00">ImGuiDockNode::IsFloatingNode</text>
</a>
</g>
</g>
<!-- Node4&#45;&gt;Node33 -->
<g id="edge44_Node000004_Node000033" class="edge">
<title>Node4&#45;&gt;Node33</title>
<g id="a_edge44_Node000004_Node000033"><a xlink:title=" ">
<path fill="none" stroke="#63b8ff" d="M337.42,-245.73C361.77,-241.28 390.17,-236.09 415.57,-231.45"/>
<polygon fill="#63b8ff" stroke="#63b8ff" points="415.93,-234.94 425.14,-229.7 414.68,-228.05 415.93,-234.94"/>
</a>
</g>
</g>
<!-- Node34 -->
<g id="Node000034" class="node">
<title>Node34</title>
<g id="a_Node000034"><a xlink:href="structImVector.html#aab5df48e0711a48bd12f3206e08c4108" target="_top" xlink:title=" ">
<polygon fill="white" stroke="#666666" points="767.5,-125.95 650.25,-125.95 650.25,-105.2 767.5,-105.2 767.5,-125.95"/>
<text text-anchor="middle" x="708.88" y="-112.45" font-family="Helvetica,sans-Serif" font-size="10.00">ImVector::push_back</text>
</a>
</g>
</g>
<!-- Node4&#45;&gt;Node34 -->
<g id="edge45_Node000004_Node000034" class="edge">
<title>Node4&#45;&gt;Node34</title>
<g id="a_edge45_Node000004_Node000034"><a xlink:title=" ">
<path fill="none" stroke="#63b8ff" d="M346.97,-245.72C351.87,-243.24 356.46,-240.22 360.5,-236.57 396.17,-204.34 358.12,-163.52 396.5,-134.57 471.2,-78.23 586.88,-89.28 654.21,-102.42"/>
<polygon fill="#63b8ff" stroke="#63b8ff" points="653.41,-105.83 663.91,-104.41 654.82,-98.97 653.41,-105.83"/>
</a>
</g>
</g>
<!-- Node37 -->
<g id="Node000037" class="node">
<title>Node37</title>
<g id="a_Node000037"><a xlink:href="namespaceImGui.html#ad351241dc857097a48c74669249b3c04" target="_top" xlink:title=" ">
<polygon fill="white" stroke="#666666" points="546.75,-163.95 427.25,-163.95 427.25,-143.2 546.75,-143.2 546.75,-163.95"/>
<text text-anchor="middle" x="487" y="-150.45" font-family="Helvetica,sans-Serif" font-size="10.00">ImGui::TabBarAddTab</text>
</a>
</g>
</g>
<!-- Node4&#45;&gt;Node37 -->
<g id="edge48_Node000004_Node000037" class="edge">
<title>Node4&#45;&gt;Node37</title>
<g id="a_edge48_Node000004_Node000037"><a xlink:title=" ">
<path fill="none" stroke="#63b8ff" d="M339.45,-245.79C346.79,-243.32 353.98,-240.29 360.5,-236.57 380.43,-225.2 378.05,-213.22 396.5,-199.57 412.78,-187.53 432.67,-176.96 449.57,-169"/>
<polygon fill="#63b8ff" stroke="#63b8ff" points="450.62,-172.36 458.26,-165.02 447.71,-166 450.62,-172.36"/>
</a>
</g>
</g>
<!-- Node7 -->
<g id="Node000007" class="node">
<title>Node7</title>
<g id="a_Node000007"><a xlink:href="namespaceImGui.html#a69ff368895db4bdc84de9ff21b52fddc" target="_top" xlink:title=" ">
<polygon fill="white" stroke="#666666" points="799,-569.95 618.75,-569.95 618.75,-549.2 799,-549.2 799,-569.95"/>
<text text-anchor="middle" x="708.88" y="-556.45" font-family="Helvetica,sans-Serif" font-size="10.00">ImGui::DockContextRemoveNode</text>
</a>
</g>
</g>
<!-- Node6&#45;&gt;Node7 -->
<g id="edge6_Node000006_Node000007" class="edge">
<title>Node6&#45;&gt;Node7</title>
<g id="a_edge6_Node000006_Node000007"><a xlink:title=" ">
<path fill="none" stroke="#63b8ff" d="M514.22,-331.34C534.19,-340.79 560.98,-356.35 577.5,-377.57 608.83,-417.83 584.04,-444.92 613.5,-486.57 630.36,-510.41 657.26,-530.12 678.04,-543.03"/>
<polygon fill="#63b8ff" stroke="#63b8ff" points="676,-545.89 686.37,-548.03 679.6,-539.89 676,-545.89"/>
</a>
</g>
</g>
<!-- Node16 -->
<g id="Node000016" class="node">
<title>Node16</title>
<g id="a_Node000016"><a xlink:href="namespaceImGui.html#ad0e39bff5ef1bbdd6ba22c133f211da7" target="_top" xlink:title=" ">
<polygon fill="white" stroke="#666666" points="1444,-655.95 1269,-655.95 1269,-635.2 1444,-635.2 1444,-655.95"/>
<text text-anchor="middle" x="1356.5" y="-642.45" font-family="Helvetica,sans-Serif" font-size="10.00">ImGui::DockNodeRemoveTabBar</text>
</a>
</g>
</g>
<!-- Node6&#45;&gt;Node16 -->
<g id="edge29_Node000006_Node000016" class="edge">
<title>Node6&#45;&gt;Node16</title>
<g id="a_edge29_Node000006_Node000016"><a xlink:title=" ">
<path fill="none" stroke="#63b8ff" d="M512.32,-331.34C532,-341.06 559.34,-356.99 577.5,-377.57 602.23,-405.6 582.54,-432.63 613.5,-453.57 841.97,-608.15 1011.47,-327.2 1233,-491.57 1269.93,-518.97 1240.38,-552.58 1269,-588.57 1282.85,-605.99 1303.51,-619.88 1321.17,-629.59"/>
<polygon fill="#63b8ff" stroke="#63b8ff" points="1319.33,-632.58 1329.81,-634.12 1322.58,-626.38 1319.33,-632.58"/>
</a>
</g>
</g>
<!-- Node6&#45;&gt;Node24 -->
<g id="edge30_Node000006_Node000024" class="edge">
<title>Node6&#45;&gt;Node24</title>
<g id="a_edge30_Node000006_Node000024"><a xlink:title=" ">
<path fill="none" stroke="#63b8ff" d="M553.56,-331.43C562.16,-334.72 570.42,-339 577.5,-344.57 603.76,-365.24 587.11,-390.08 613.5,-410.57 617.78,-413.9 622.47,-416.76 627.4,-419.24"/>
<polygon fill="#63b8ff" stroke="#63b8ff" points="625.84,-422.38 636.41,-423.18 628.65,-415.96 625.84,-422.38"/>
</a>
</g>
</g>
<!-- Node25 -->
<g id="Node000025" class="node">
<title>Node25</title>
<g id="a_Node000025"><a xlink:href="structImGuiDockNode.html#a65a6bb0809083aef0edbf937c90b83f6" target="_top" xlink:title=" ">
<polygon fill="white" stroke="#666666" points="1017.12,-426.95 846.62,-426.95 846.62,-406.2 1017.12,-406.2 1017.12,-426.95"/>
<text text-anchor="middle" x="931.88" y="-413.45" font-family="Helvetica,sans-Serif" font-size="10.00">ImGuiDockNode::IsCentralNode</text>
</a>
</g>
</g>
<!-- Node6&#45;&gt;Node25 -->
<g id="edge37_Node000006_Node000025" class="edge">
<title>Node6&#45;&gt;Node25</title>
<g id="a_edge37_Node000006_Node000025"><a xlink:title=" ">
<path fill="none" stroke="#63b8ff" d="M531.46,-331.44C546.16,-335.32 562.61,-339.9 577.5,-344.57 593.73,-349.67 597.08,-353.11 613.5,-357.57 689.52,-378.22 777.74,-393.98 841.85,-403.99"/>
<polygon fill="#63b8ff" stroke="#63b8ff" points="841.21,-407.44 851.63,-405.51 842.28,-400.52 841.21,-407.44"/>
</a>
</g>
</g>
<!-- Node26 -->
<g id="Node000026" class="node">
<title>Node26</title>
<g id="a_Node000026"><a xlink:href="structImGuiDockNode.html#a2f06798d0770e6894d27ec776b5d7538" target="_top" xlink:title=" ">
<polygon fill="white" stroke="#666666" points="1013.75,-377.95 850,-377.95 850,-357.2 1013.75,-357.2 1013.75,-377.95"/>
<text text-anchor="middle" x="931.88" y="-364.45" font-family="Helvetica,sans-Serif" font-size="10.00">ImGuiDockNode::IsDockSpace</text>
</a>
</g>
</g>
<!-- Node6&#45;&gt;Node26 -->
<g id="edge38_Node000006_Node000026" class="edge">
<title>Node6&#45;&gt;Node26</title>
<g id="a_edge38_Node000006_Node000026"><a xlink:title=" ">
<path fill="none" stroke="#63b8ff" d="M577.89,-330.11C653.8,-338.17 762.06,-349.66 838.63,-357.78"/>
<polygon fill="#63b8ff" stroke="#63b8ff" points="837.87,-361.22 848.18,-358.8 838.61,-354.26 837.87,-361.22"/>
</a>
</g>
</g>
<!-- Node27 -->
<g id="Node000027" class="node">
<title>Node27</title>
<g id="a_Node000027"><a xlink:href="structImVector.html#a2f88ac70791f2da6d4168d7b29f38f1e" target="_top" xlink:title=" ">
<polygon fill="white" stroke="#666666" points="978.12,-311.95 885.62,-311.95 885.62,-291.2 978.12,-291.2 978.12,-311.95"/>
<text text-anchor="middle" x="931.88" y="-298.45" font-family="Helvetica,sans-Serif" font-size="10.00">ImVector::erase</text>
</a>
</g>
</g>
<!-- Node6&#45;&gt;Node27 -->
<g id="edge33_Node000006_Node000027" class="edge">
<title>Node6&#45;&gt;Node27</title>
<g id="a_edge33_Node000006_Node000027"><a xlink:title=" ">
<path fill="none" stroke="#63b8ff" d="M577.89,-316.72C666.51,-312.91 799.22,-307.22 874.12,-304.01"/>
<polygon fill="#63b8ff" stroke="#63b8ff" points="873.84,-307.52 883.68,-303.6 873.54,-300.53 873.84,-307.52"/>
</a>
</g>
</g>
<!-- Node28 -->
<g id="Node000028" class="node">
<title>Node28</title>
<g id="a_Node000028"><a xlink:href="structImVector.html#a4e9214ecaa413240f76223500dbed912" target="_top" xlink:title=" ">
<polygon fill="white" stroke="#666666" points="766.75,-292.95 651,-292.95 651,-272.2 766.75,-272.2 766.75,-292.95"/>
<text text-anchor="middle" x="708.88" y="-279.45" font-family="Helvetica,sans-Serif" font-size="10.00">ImVector::find_erase</text>
</a>
</g>
</g>
<!-- Node6&#45;&gt;Node28 -->
<g id="edge34_Node000006_Node000028" class="edge">
<title>Node6&#45;&gt;Node28</title>
<g id="a_edge34_Node000006_Node000028"><a xlink:title=" ">
<path fill="none" stroke="#63b8ff" d="M550.71,-309.73C578.5,-304.93 611.26,-299.27 639.66,-294.36"/>
<polygon fill="#63b8ff" stroke="#63b8ff" points="639.97,-297.86 649.23,-292.71 638.78,-290.96 639.97,-297.86"/>
</a>
</g>
</g>
<!-- Node30 -->
<g id="Node000030" class="node">
<title>Node30</title>
<g id="a_Node000030"><a xlink:href="namespaceImGui.html#a3340d8c07dca35527b618288f091a0f7" target="_top" xlink:title=" ">
<polygon fill="white" stroke="#666666" points="779.5,-253.95 638.25,-253.95 638.25,-233.2 779.5,-233.2 779.5,-253.95"/>
<text text-anchor="middle" x="708.88" y="-240.45" font-family="Helvetica,sans-Serif" font-size="10.00">ImGui::TabBarRemoveTab</text>
</a>
</g>
</g>
<!-- Node6&#45;&gt;Node30 -->
<g id="edge39_Node000006_Node000030" class="edge">
<title>Node6&#45;&gt;Node30</title>
<g id="a_edge39_Node000006_Node000030"><a xlink:title=" ">
<path fill="none" stroke="#63b8ff" d="M507.89,-309.9C532.19,-297.24 574.85,-276.28 613.5,-263.57 620.8,-261.17 628.51,-258.99 636.26,-257.03"/>
<polygon fill="#63b8ff" stroke="#63b8ff" points="636.82,-260.49 645.72,-254.75 635.18,-253.69 636.82,-260.49"/>
</a>
</g>
</g>
<!-- Node6&#45;&gt;Node32 -->
<g id="edge42_Node000006_Node000032" class="edge">
<title>Node6&#45;&gt;Node32</title>
<g id="a_edge42_Node000006_Node000032"><a xlink:title=" ">
<path fill="none" stroke="#63b8ff" d="M513.22,-309.81C532.15,-300.98 558.03,-287.24 577.5,-270.57 597.22,-253.69 591.9,-238.97 613.5,-224.57 615.63,-223.16 617.83,-221.82 620.09,-220.55"/>
<polygon fill="#63b8ff" stroke="#63b8ff" points="621.59,-223.71 628.98,-216.12 618.47,-217.45 621.59,-223.71"/>
</a>
</g>
</g>
<!-- Node7&#45;&gt;Node2 -->
<g id="edge7_Node000007_Node000002" class="edge">
<title>Node7&#45;&gt;Node2</title>
<g id="a_edge7_Node000007_Node000002"><a xlink:title=" ">
<path fill="none" stroke="#63b8ff" d="M768.11,-570.38C780.39,-573.75 793.01,-578.07 804.25,-583.57 822.46,-592.48 821.9,-602.95 840.25,-611.57 844.8,-613.71 849.59,-615.63 854.49,-617.34"/>
<polygon fill="#63b8ff" stroke="#63b8ff" points="853.32,-620.64 863.91,-620.32 855.43,-613.96 853.32,-620.64"/>
</a>
</g>
</g>
<!-- Node8 -->
<g id="Node000008" class="node">
<title>Node8</title>
<g id="a_Node000008"><a xlink:href="namespaceImGui.html#a973b84ddd0e62151719cb562847b1291" target="_top" xlink:title=" ">
<polygon fill="white" stroke="#666666" points="1008.12,-602.95 855.62,-602.95 855.62,-582.2 1008.12,-582.2 1008.12,-602.95"/>
<text text-anchor="middle" x="931.88" y="-589.45" font-family="Helvetica,sans-Serif" font-size="10.00">ImGui::DockNodeTreeMerge</text>
</a>
</g>
</g>
<!-- Node7&#45;&gt;Node8 -->
<g id="edge8_Node000007_Node000008" class="edge">
<title>Node7&#45;&gt;Node8</title>
<g id="a_edge8_Node000007_Node000008"><a xlink:title=" ">
<path fill="none" stroke="#63b8ff" d="M782.54,-570.42C803.13,-573.5 825.7,-576.87 846.89,-580.03"/>
<polygon fill="#63b8ff" stroke="#63b8ff" points="846.26,-583.48 856.66,-581.49 847.29,-576.55 846.26,-583.48"/>
</a>
</g>
</g>
<!-- Node22 -->
<g id="Node000022" class="node">
<title>Node22</title>
<g id="a_Node000022"><a xlink:href="structImGuiStorage.html#a55f840086b3ec9cf63c67f02d159204a" target="_top" xlink:title=" ">
<polygon fill="white" stroke="#666666" points="1215.75,-520.95 1076.75,-520.95 1076.75,-500.2 1215.75,-500.2 1215.75,-520.95"/>
<text text-anchor="middle" x="1146.25" y="-507.45" font-family="Helvetica,sans-Serif" font-size="10.00">ImGuiStorage::SetVoidPtr</text>
</a>
</g>
</g>
<!-- Node7&#45;&gt;Node22 -->
<g id="edge28_Node000007_Node000022" class="edge">
<title>Node7&#45;&gt;Node22</title>
<g id="a_edge28_Node000007_Node000022"><a xlink:title=" ">
<path fill="none" stroke="#63b8ff" d="M799.29,-549.51C877.41,-540.72 989.77,-528.07 1065.03,-519.6"/>
<polygon fill="#63b8ff" stroke="#63b8ff" points="1065.27,-523.1 1074.81,-518.5 1064.48,-516.14 1065.27,-523.1"/>
</a>
</g>
</g>
<!-- Node9 -->
<g id="Node000009" class="node">
<title>Node9</title>
<g id="a_Node000009"><a xlink:href="namespaceImGui.html#af879255fe0be69945ceff4b832026a71" target="_top" xlink:title=" ">
<polygon fill="white" stroke="#666666" points="1229.62,-766.32 1062.88,-766.32 1062.88,-732.82 1229.62,-732.82 1229.62,-766.32"/>
<text text-anchor="start" x="1070.88" y="-752.82" font-family="Helvetica,sans-Serif" font-size="10.00">ImGui::DockNodeApplyPosSize</text>
<text text-anchor="middle" x="1146.25" y="-740.07" font-family="Helvetica,sans-Serif" font-size="10.00">ToWindows</text>
</a>
</g>
</g>
<!-- Node8&#45;&gt;Node9 -->
<g id="edge9_Node000008_Node000009" class="edge">
<title>Node8&#45;&gt;Node9</title>
<g id="a_edge9_Node000008_Node000009"><a xlink:title=" ">
<path fill="none" stroke="#63b8ff" d="M1008.24,-602.43C1013.78,-605.12 1018.97,-608.46 1023.5,-612.57 1061.9,-647.44 1022.48,-687.25 1059.5,-723.57 1060.25,-724.31 1061.03,-725.03 1061.82,-725.73"/>
<polygon fill="#63b8ff" stroke="#63b8ff" points="1059.6,-728.44 1069.73,-731.55 1063.75,-722.8 1059.6,-728.44"/>
</a>
</g>
</g>
<!-- Node13 -->
<g id="Node000013" class="node">
<title>Node13</title>
<g id="a_Node000013"><a xlink:href="namespaceImGui.html#a7b90f51f0d3548a567fdc90a69035e0d" target="_top" xlink:title=" ">
<polygon fill="white" stroke="#666666" points="1222.88,-714.32 1069.62,-714.32 1069.62,-680.82 1222.88,-680.82 1222.88,-714.32"/>
<text text-anchor="start" x="1077.62" y="-700.82" font-family="Helvetica,sans-Serif" font-size="10.00">ImGui::DockNodeMoveChild</text>
<text text-anchor="middle" x="1146.25" y="-688.07" font-family="Helvetica,sans-Serif" font-size="10.00">Nodes</text>
</a>
</g>
</g>
<!-- Node8&#45;&gt;Node13 -->
<g id="edge15_Node000008_Node000013" class="edge">
<title>Node8&#45;&gt;Node13</title>
<g id="a_edge15_Node000008_Node000013"><a xlink:title=" ">
<path fill="none" stroke="#63b8ff" d="M1006.35,-603.26C1012.44,-605.76 1018.25,-608.83 1023.5,-612.57 1048.5,-630.42 1035.21,-652.77 1059.5,-671.57 1060.85,-672.61 1062.23,-673.61 1063.66,-674.57"/>
<polygon fill="#63b8ff" stroke="#63b8ff" points="1061.8,-677.54 1072.19,-679.58 1065.34,-671.5 1061.8,-677.54"/>
</a>
</g>
</g>
<!-- Node14 -->
<g id="Node000014" class="node">
<title>Node14</title>
<g id="a_Node000014"><a xlink:href="namespaceImGui.html#a8f314ce935f9160d4bdde3ba8fe8d24f" target="_top" xlink:title=" ">
<polygon fill="white" stroke="#666666" points="1232.62,-662.95 1059.88,-662.95 1059.88,-642.2 1232.62,-642.2 1232.62,-662.95"/>
<text text-anchor="middle" x="1146.25" y="-649.45" font-family="Helvetica,sans-Serif" font-size="10.00">ImGui::DockNodeMoveWindows</text>
</a>
</g>
</g>
<!-- Node8&#45;&gt;Node14 -->
<g id="edge16_Node000008_Node000014" class="edge">
<title>Node8&#45;&gt;Node14</title>
<g id="a_edge16_Node000008_Node000014"><a xlink:title=" ">
<path fill="none" stroke="#63b8ff" d="M994.1,-603.36C1004.08,-605.89 1014.2,-608.94 1023.5,-612.57 1040.75,-619.32 1042.25,-626.82 1059.5,-633.57 1064.18,-635.4 1069.07,-637.08 1074.05,-638.61"/>
<polygon fill="#63b8ff" stroke="#63b8ff" points="1073,-641.95 1083.58,-641.31 1074.91,-635.21 1073,-641.95"/>
</a>
</g>
</g>
<!-- Node17 -->
<g id="Node000017" class="node">
<title>Node17</title>
<g id="a_Node000017"><a xlink:href="namespaceImGui.html#a62a4dbebb5015352589459596f16b26c" target="_top" xlink:title=" ">
<polygon fill="white" stroke="#666666" points="1224.38,-624.32 1068.12,-624.32 1068.12,-590.82 1224.38,-590.82 1224.38,-624.32"/>
<text text-anchor="start" x="1076.12" y="-610.82" font-family="Helvetica,sans-Serif" font-size="10.00">ImGui::DockSettingsRename</text>
<text text-anchor="middle" x="1146.25" y="-598.07" font-family="Helvetica,sans-Serif" font-size="10.00">NodeReferences</text>
</a>
</g>
</g>
<!-- Node8&#45;&gt;Node17 -->
<g id="edge20_Node000008_Node000017" class="edge">
<title>Node8&#45;&gt;Node17</title>
<g id="a_edge20_Node000008_Node000017"><a xlink:title=" ">
<path fill="none" stroke="#63b8ff" d="M1008.35,-597.9C1024.04,-599.01 1040.71,-600.19 1056.82,-601.33"/>
<polygon fill="#63b8ff" stroke="#63b8ff" points="1056.14,-604.79 1066.36,-602 1056.63,-597.8 1056.14,-604.79"/>
</a>
</g>
</g>
<!-- Node8&#45;&gt;Node22 -->
<g id="edge26_Node000008_Node000022" class="edge">
<title>Node8&#45;&gt;Node22</title>
<g id="a_edge26_Node000008_Node000022"><a xlink:title=" ">
<path fill="none" stroke="#63b8ff" d="M951.13,-581.71C975.2,-567.8 1019.22,-543.81 1059.5,-529.57 1064.93,-527.65 1070.63,-525.88 1076.39,-524.27"/>
<polygon fill="#63b8ff" stroke="#63b8ff" points="1077.27,-527.66 1086.04,-521.72 1075.48,-520.89 1077.27,-527.66"/>
</a>
</g>
</g>
<!-- Node23 -->
<g id="Node000023" class="node">
<title>Node23</title>
<g id="a_Node000023"><a xlink:href="structImGuiDockNode.html#a87a708d19b6f2e22c15d6d378c8b71e2" target="_top" xlink:title=" ">
<polygon fill="white" stroke="#666666" points="1233,-572.32 1059.5,-572.32 1059.5,-538.82 1233,-538.82 1233,-572.32"/>
<text text-anchor="start" x="1067.5" y="-558.82" font-family="Helvetica,sans-Serif" font-size="10.00">ImGuiDockNode::UpdateMerged</text>
<text text-anchor="middle" x="1146.25" y="-546.07" font-family="Helvetica,sans-Serif" font-size="10.00">Flags</text>
</a>
</g>
</g>
<!-- Node8&#45;&gt;Node23 -->
<g id="edge27_Node000008_Node000023" class="edge">
<title>Node8&#45;&gt;Node23</title>
<g id="a_edge27_Node000008_Node000023"><a xlink:title=" ">
<path fill="none" stroke="#63b8ff" d="M995.16,-581.72C1011.78,-578.83 1030.15,-575.63 1048.16,-572.49"/>
<polygon fill="#63b8ff" stroke="#63b8ff" points="1048.57,-575.97 1057.82,-570.8 1047.37,-569.07 1048.57,-575.97"/>
</a>
</g>
</g>
<!-- Node10 -->
<g id="Node000010" class="node">
<title>Node10</title>
<g id="a_Node000010"><a xlink:href="namespaceImGui.html#aaa81e004de4c0a5cedb836e92e8aa0e5" target="_top" xlink:title=" ">
<polygon fill="white" stroke="#666666" points="1418.12,-803.95 1294.88,-803.95 1294.88,-783.2 1418.12,-783.2 1418.12,-803.95"/>
<text text-anchor="middle" x="1356.5" y="-790.45" font-family="Helvetica,sans-Serif" font-size="10.00">ImGui::SetWindowPos</text>
</a>
</g>
</g>
<!-- Node9&#45;&gt;Node10 -->
<g id="edge10_Node000009_Node000010" class="edge">
<title>Node9&#45;&gt;Node10</title>
<g id="a_edge10_Node000009_Node000010"><a xlink:title=" ">
<path fill="none" stroke="#63b8ff" d="M1228.66,-766.77C1250.02,-771.29 1272.73,-776.08 1292.94,-780.35"/>
<polygon fill="#63b8ff" stroke="#63b8ff" points="1292.21,-783.78 1302.72,-782.42 1293.66,-776.93 1292.21,-783.78"/>
</a>
</g>
</g>
<!-- Node12 -->
<g id="Node000012" class="node">
<title>Node12</title>
<g id="a_Node000012"><a xlink:href="namespaceImGui.html#a657c6cc2246485332f608a5204447ea1" target="_top" xlink:title=" ">
<polygon fill="white" stroke="#666666" points="1419.62,-746.95 1293.38,-746.95 1293.38,-726.2 1419.62,-726.2 1419.62,-746.95"/>
<text text-anchor="middle" x="1356.5" y="-733.45" font-family="Helvetica,sans-Serif" font-size="10.00">ImGui::SetWindowSize</text>
</a>
</g>
</g>
<!-- Node9&#45;&gt;Node12 -->
<g id="edge13_Node000009_Node000012" class="edge">
<title>Node9&#45;&gt;Node12</title>
<g id="a_edge13_Node000009_Node000012"><a xlink:title=" ">
<path fill="none" stroke="#63b8ff" d="M1229.86,-744.42C1246.92,-743.35 1264.8,-742.23 1281.54,-741.19"/>
<polygon fill="#63b8ff" stroke="#63b8ff" points="1281.65,-744.69 1291.41,-740.57 1281.21,-737.7 1281.65,-744.69"/>
</a>
</g>
</g>
<!-- Node10&#45;&gt;Node10 -->
<g id="edge12_Node000010_Node000010" class="edge">
<title>Node10&#45;&gt;Node10</title>
<g id="a_edge12_Node000010_Node000010"><a xlink:title=" ">
<path fill="none" stroke="#63b8ff" d="M1323.04,-804.34C1309.66,-813.01 1320.81,-821.95 1356.5,-821.95 1376.02,-821.95 1388.19,-819.27 1393.03,-815.43"/>
<polygon fill="#63b8ff" stroke="#63b8ff" points="1396.41,-814.5 1390.36,-805.8 1389.66,-816.37 1396.41,-814.5"/>
</a>
</g>
</g>
<!-- Node11 -->
<g id="Node000011" class="node">
<title>Node11</title>
<g id="a_Node000011"><a xlink:href="namespaceImGui.html#a055af7d6b7b4ae977a9c3c25a98e0d2f" target="_top" xlink:title=" ">
<polygon fill="white" stroke="#666666" points="1648.25,-803.95 1480,-803.95 1480,-783.2 1648.25,-783.2 1648.25,-803.95"/>
<text text-anchor="middle" x="1564.12" y="-790.45" font-family="Helvetica,sans-Serif" font-size="10.00">ImGui::GetCurrentWindowRead</text>
</a>
</g>
</g>
<!-- Node10&#45;&gt;Node11 -->
<g id="edge11_Node000010_Node000011" class="edge">
<title>Node10&#45;&gt;Node11</title>
<g id="a_edge11_Node000010_Node000011"><a xlink:title=" ">
<path fill="none" stroke="#63b8ff" d="M1418.36,-793.57C1434.1,-793.57 1451.42,-793.57 1468.44,-793.57"/>
<polygon fill="#63b8ff" stroke="#63b8ff" points="1468.05,-797.07 1478.05,-793.57 1468.05,-790.07 1468.05,-797.07"/>
</a>
</g>
</g>
<!-- Node12&#45;&gt;Node12 -->
<g id="edge14_Node000012_Node000012" class="edge">
<title>Node12&#45;&gt;Node12</title>
<g id="a_edge14_Node000012_Node000012"><a xlink:title=" ">
<path fill="none" stroke="#63b8ff" d="M1323.04,-747.34C1309.66,-756.01 1320.81,-764.95 1356.5,-764.95 1376.02,-764.95 1388.19,-762.27 1393.03,-758.43"/>
<polygon fill="#63b8ff" stroke="#63b8ff" points="1396.41,-757.5 1390.36,-748.8 1389.66,-759.37 1396.41,-757.5"/>
</a>
</g>
</g>
<!-- Node14&#45;&gt;Node4 -->
<g id="edge18_Node000014_Node000004" class="edge">
<title>Node14&#45;&gt;Node4</title>
<g id="a_edge18_Node000014_Node000004"><a xlink:title=" ">
<path fill="none" stroke="#63b8ff" d="M1068.97,-641.91C1065.48,-639.57 1062.28,-636.81 1059.5,-633.57 981.55,-542.86 1110.39,-178.75 1023.5,-96.57 843.16,73.99 488.93,-19.29 396.5,-91.57 344.2,-132.48 407.57,-189.74 360.5,-236.57 359.47,-237.59 358.4,-238.57 357.3,-239.49"/>
<polygon fill="#63b8ff" stroke="#63b8ff" points="355.69,-236.35 349.39,-244.86 359.63,-242.14 355.69,-236.35"/>
</a>
</g>
</g>
<!-- Node15 -->
<g id="Node000015" class="node">
<title>Node15</title>
<g id="a_Node000015"><a xlink:href="structImVector.html#ae2d401b4ec5f1113cdb8edb5a61a38f7" target="_top" xlink:title=" ">
<polygon fill="white" stroke="#666666" points="1401.25,-694.95 1311.75,-694.95 1311.75,-674.2 1401.25,-674.2 1401.25,-694.95"/>
<text text-anchor="middle" x="1356.5" y="-681.45" font-family="Helvetica,sans-Serif" font-size="10.00">ImVector::clear</text>
</a>
</g>
</g>
<!-- Node14&#45;&gt;Node15 -->
<g id="edge17_Node000014_Node000015" class="edge">
<title>Node14&#45;&gt;Node15</title>
<g id="a_edge17_Node000014_Node000015"><a xlink:title=" ">
<path fill="none" stroke="#63b8ff" d="M1217.75,-663.41C1244.67,-667.54 1274.93,-672.19 1300.23,-676.08"/>
<polygon fill="#63b8ff" stroke="#63b8ff" points="1299.56,-679.52 1309.97,-677.58 1300.62,-672.6 1299.56,-679.52"/>
</a>
</g>
</g>
<!-- Node14&#45;&gt;Node16 -->
<g id="edge19_Node000014_Node000016" class="edge">
<title>Node14&#45;&gt;Node16</title>
<g id="a_edge19_Node000014_Node000016"><a xlink:title=" ">
<path fill="none" stroke="#63b8ff" d="M1232.85,-649.69C1240.86,-649.43 1249.02,-649.15 1257.13,-648.88"/>
<polygon fill="#63b8ff" stroke="#63b8ff" points="1257.15,-652.38 1267.03,-648.55 1256.92,-645.38 1257.15,-652.38"/>
</a>
</g>
</g>
<!-- Node18 -->
<g id="Node000018" class="node">
<title>Node18</title>
<g id="a_Node000018"><a xlink:href="structImChunkStream.html#a10a9b29c856b3f84ce8811ebfaf2cfe8" target="_top" xlink:title=" ">
<polygon fill="white" stroke="#666666" points="1628,-616.95 1500.25,-616.95 1500.25,-596.2 1628,-596.2 1628,-616.95"/>
<text text-anchor="middle" x="1564.12" y="-603.45" font-family="Helvetica,sans-Serif" font-size="10.00">ImChunkStream::begin</text>
</a>
</g>
</g>
<!-- Node17&#45;&gt;Node18 -->
<g id="edge21_Node000017_Node000018" class="edge">
<title>Node17&#45;&gt;Node18</title>
<g id="a_edge21_Node000017_Node000018"><a xlink:title=" ">
<path fill="none" stroke="#63b8ff" d="M1224.5,-607.39C1300.02,-607.21 1414.21,-606.93 1488.74,-606.75"/>
<polygon fill="#63b8ff" stroke="#63b8ff" points="1488.38,-610.25 1498.37,-606.73 1488.37,-603.25 1488.38,-610.25"/>
</a>
</g>
</g>
<!-- Node19 -->
<g id="Node000019" class="node">
<title>Node19</title>
<g id="a_Node000019"><a xlink:href="structImChunkStream.html#a3a99f21ce1867d694104d740ac7ab133" target="_top" xlink:title=" ">
<polygon fill="white" stroke="#666666" points="1417.75,-579.32 1295.25,-579.32 1295.25,-545.82 1417.75,-545.82 1417.75,-579.32"/>
<text text-anchor="start" x="1303.25" y="-565.82" font-family="Helvetica,sans-Serif" font-size="10.00">ImChunkStream::next</text>
<text text-anchor="middle" x="1356.5" y="-553.07" font-family="Helvetica,sans-Serif" font-size="10.00">_chunk</text>
</a>
</g>
</g>
<!-- Node17&#45;&gt;Node19 -->
<g id="edge22_Node000017_Node000019" class="edge">
<title>Node17&#45;&gt;Node19</title>
<g id="a_edge22_Node000017_Node000019"><a xlink:title=" ">
<path fill="none" stroke="#63b8ff" d="M1224.79,-590.82C1244.13,-586.64 1264.77,-582.18 1283.81,-578.06"/>
<polygon fill="#63b8ff" stroke="#63b8ff" points="1284.3,-581.54 1293.33,-576.01 1282.82,-574.7 1284.3,-581.54"/>
</a>
</g>
</g>
<!-- Node19&#45;&gt;Node18 -->
<g id="edge23_Node000019_Node000018" class="edge">
<title>Node19&#45;&gt;Node18</title>
<g id="a_edge23_Node000019_Node000018"><a xlink:title=" ">
<path fill="none" stroke="#63b8ff" d="M1418.08,-575.54C1444.31,-581.15 1474.97,-587.71 1501.33,-593.35"/>
<polygon fill="#63b8ff" stroke="#63b8ff" points="1500.35,-596.72 1510.86,-595.39 1501.81,-589.87 1500.35,-596.72"/>
</a>
</g>
</g>
<!-- Node20 -->
<g id="Node000020" class="node">
<title>Node20</title>
<g id="a_Node000020"><a xlink:href="structImChunkStream.html#a1a83609aaee47cf8b59a8ae09a04a06b" target="_top" xlink:title=" ">
<polygon fill="white" stroke="#666666" points="1641.5,-574.95 1486.75,-574.95 1486.75,-554.2 1641.5,-554.2 1641.5,-574.95"/>
<text text-anchor="middle" x="1564.12" y="-561.45" font-family="Helvetica,sans-Serif" font-size="10.00">ImChunkStream::chunk_size</text>
</a>
</g>
</g>
<!-- Node19&#45;&gt;Node20 -->
<g id="edge24_Node000019_Node000020" class="edge">
<title>Node19&#45;&gt;Node20</title>
<g id="a_edge24_Node000019_Node000020"><a xlink:title=" ">
<path fill="none" stroke="#63b8ff" d="M1418.08,-563.16C1436.01,-563.34 1456,-563.53 1475.28,-563.72"/>
<polygon fill="#63b8ff" stroke="#63b8ff" points="1474.98,-567.22 1485.02,-563.81 1475.05,-560.22 1474.98,-567.22"/>
</a>
</g>
</g>
<!-- Node21 -->
<g id="Node000021" class="node">
<title>Node21</title>
<g id="a_Node000021"><a xlink:href="structImChunkStream.html#a5c7faa90ac7fa02140a3298dbfdd5cad" target="_top" xlink:title=" ">
<polygon fill="white" stroke="#666666" points="1623.5,-535.95 1504.75,-535.95 1504.75,-515.2 1623.5,-515.2 1623.5,-535.95"/>
<text text-anchor="middle" x="1564.12" y="-522.45" font-family="Helvetica,sans-Serif" font-size="10.00">ImChunkStream::end</text>
</a>
</g>
</g>
<!-- Node19&#45;&gt;Node21 -->
<g id="edge25_Node000019_Node000021" class="edge">
<title>Node19&#45;&gt;Node21</title>
<g id="a_edge25_Node000019_Node000021"><a xlink:title=" ">
<path fill="none" stroke="#63b8ff" d="M1418.08,-551.67C1441.71,-547.42 1468.94,-542.52 1493.38,-538.12"/>
<polygon fill="#63b8ff" stroke="#63b8ff" points="1493.68,-541.62 1502.9,-536.41 1492.44,-534.74 1493.68,-541.62"/>
</a>
</g>
</g>
<!-- Node24&#45;&gt;Node25 -->
<g id="edge31_Node000024_Node000025" class="edge">
<title>Node24&#45;&gt;Node25</title>
<g id="a_edge31_Node000024_Node000025"><a xlink:title=" ">
<path fill="none" stroke="#63b8ff" d="M804.56,-426.86C814.6,-426.04 824.83,-425.21 834.89,-424.39"/>
<polygon fill="#63b8ff" stroke="#63b8ff" points="834.96,-427.9 844.65,-423.6 834.4,-420.92 834.96,-427.9"/>
</a>
</g>
</g>
<!-- Node24&#45;&gt;Node26 -->
<g id="edge32_Node000024_Node000026" class="edge">
<title>Node24&#45;&gt;Node26</title>
<g id="a_edge32_Node000024_Node000026"><a xlink:title=" ">
<path fill="none" stroke="#63b8ff" d="M745.38,-423.81C783.05,-412.39 842.72,-394.3 884.18,-381.73"/>
<polygon fill="#63b8ff" stroke="#63b8ff" points="885.09,-385.11 893.64,-378.86 883.06,-378.41 885.09,-385.11"/>
</a>
</g>
</g>
<!-- Node28&#45;&gt;Node27 -->
<g id="edge35_Node000028_Node000027" class="edge">
<title>Node28&#45;&gt;Node27</title>
<g id="a_edge35_Node000028_Node000027"><a xlink:title=" ">
<path fill="none" stroke="#63b8ff" d="M767.08,-287.49C800.02,-290.32 841.29,-293.87 874.15,-296.7"/>
<polygon fill="#63b8ff" stroke="#63b8ff" points="873.63,-300.16 883.89,-297.53 874.23,-293.19 873.63,-300.16"/>
</a>
</g>
</g>
<!-- Node29 -->
<g id="Node000029" class="node">
<title>Node29</title>
<g id="a_Node000029"><a xlink:href="structImVector.html#a406417c3efef769d4bee47df2188831a" target="_top" xlink:title=" ">
<polygon fill="white" stroke="#666666" points="973.62,-272.95 890.12,-272.95 890.12,-252.2 973.62,-252.2 973.62,-272.95"/>
<text text-anchor="middle" x="931.88" y="-259.45" font-family="Helvetica,sans-Serif" font-size="10.00">ImVector::find</text>
</a>
</g>
</g>
<!-- Node28&#45;&gt;Node29 -->
<g id="edge36_Node000028_Node000029" class="edge">
<title>Node28&#45;&gt;Node29</title>
<g id="a_edge36_Node000028_Node000029"><a xlink:title=" ">
<path fill="none" stroke="#63b8ff" d="M767.08,-277.4C801.51,-274.28 845.03,-270.34 878.55,-267.31"/>
<polygon fill="#63b8ff" stroke="#63b8ff" points="878.81,-270.8 888.45,-266.41 878.18,-263.83 878.81,-270.8"/>
</a>
</g>
</g>
<!-- Node30&#45;&gt;Node27 -->
<g id="edge40_Node000030_Node000027" class="edge">
<title>Node30&#45;&gt;Node27</title>
<g id="a_edge40_Node000030_Node000027"><a xlink:title=" ">
<path fill="none" stroke="#63b8ff" d="M772.18,-254.42C783,-256.97 794.05,-260.01 804.25,-263.57 821.14,-269.47 823.39,-275.6 840.25,-281.57 851.18,-285.45 863.13,-288.72 874.67,-291.43"/>
<polygon fill="#63b8ff" stroke="#63b8ff" points="873.55,-294.77 884.07,-293.53 875.07,-287.93 873.55,-294.77"/>
</a>
</g>
</g>
<!-- Node31 -->
<g id="Node000031" class="node">
<title>Node31</title>
<g id="a_Node000031"><a xlink:href="namespaceImGui.html#a892525a74a6206eabbeb851071b3119a" target="_top" xlink:title=" ">
<polygon fill="white" stroke="#666666" points="1004,-228.95 859.75,-228.95 859.75,-208.2 1004,-208.2 1004,-228.95"/>
<text text-anchor="middle" x="931.88" y="-215.45" font-family="Helvetica,sans-Serif" font-size="10.00">ImGui::TabBarFindTabByID</text>
</a>
</g>
</g>
<!-- Node30&#45;&gt;Node31 -->
<g id="edge41_Node000030_Node000031" class="edge">
<title>Node30&#45;&gt;Node31</title>
<g id="a_edge41_Node000030_Node000031"><a xlink:title=" ">
<path fill="none" stroke="#63b8ff" d="M779.8,-235.66C801.55,-233.2 825.72,-230.47 848.25,-227.92"/>
<polygon fill="#63b8ff" stroke="#63b8ff" points="848.46,-231.42 858,-226.82 847.67,-224.46 848.46,-231.42"/>
</a>
</g>
</g>
<!-- Node35 -->
<g id="Node000035" class="node">
<title>Node35</title>
<g id="a_Node000035"><a xlink:href="structImVector.html#a3a097635d464b1b70dc7d59996a88b28" target="_top" xlink:title=" ">
<polygon fill="white" stroke="#666666" points="1002.5,-164.95 861.25,-164.95 861.25,-144.2 1002.5,-144.2 1002.5,-164.95"/>
<text text-anchor="middle" x="931.88" y="-151.45" font-family="Helvetica,sans-Serif" font-size="10.00">ImVector::_grow_capacity</text>
</a>
</g>
</g>
<!-- Node34&#45;&gt;Node35 -->
<g id="edge46_Node000034_Node000035" class="edge">
<title>Node34&#45;&gt;Node35</title>
<g id="a_edge46_Node000034_Node000035"><a xlink:title=" ">
<path fill="none" stroke="#63b8ff" d="M767.94,-125.82C795.61,-130.7 828.99,-136.59 858.31,-141.77"/>
<polygon fill="#63b8ff" stroke="#63b8ff" points="857.39,-145.16 867.84,-143.45 858.6,-138.26 857.39,-145.16"/>
</a>
</g>
</g>
<!-- Node36 -->
<g id="Node000036" class="node">
<title>Node36</title>
<g id="a_Node000036"><a xlink:href="structImVector.html#a0f14f5736c3372157856eebb67123b75" target="_top" xlink:title=" ">
<polygon fill="white" stroke="#666666" points="983,-125.95 880.75,-125.95 880.75,-105.2 983,-105.2 983,-125.95"/>
<text text-anchor="middle" x="931.88" y="-112.45" font-family="Helvetica,sans-Serif" font-size="10.00">ImVector::reserve</text>
</a>
</g>
</g>
<!-- Node34&#45;&gt;Node36 -->
<g id="edge47_Node000034_Node000036" class="edge">
<title>Node34&#45;&gt;Node36</title>
<g id="a_edge47_Node000034_Node000036"><a xlink:title=" ">
<path fill="none" stroke="#63b8ff" d="M767.94,-115.57C799.03,-115.57 837.34,-115.57 869,-115.57"/>
<polygon fill="#63b8ff" stroke="#63b8ff" points="868.82,-119.07 878.82,-115.57 868.82,-112.07 868.82,-119.07"/>
</a>
</g>
</g>
<!-- Node37&#45;&gt;Node31 -->
<g id="edge50_Node000037_Node000031" class="edge">
<title>Node37&#45;&gt;Node31</title>
<g id="a_edge50_Node000037_Node000031"><a xlink:title=" ">
<path fill="none" stroke="#63b8ff" d="M547.24,-152.08C611.29,-151.63 716.05,-154.31 804.25,-172.57 836.77,-179.31 872.17,-192.72 897.25,-203.34"/>
<polygon fill="#63b8ff" stroke="#63b8ff" points="895.71,-206.48 906.27,-207.23 898.48,-200.05 895.71,-206.48"/>
</a>
</g>
</g>
<!-- Node37&#45;&gt;Node34 -->
<g id="edge49_Node000037_Node000034" class="edge">
<title>Node37&#45;&gt;Node34</title>
<g id="a_edge49_Node000037_Node000034"><a xlink:title=" ">
<path fill="none" stroke="#63b8ff" d="M547.21,-143.34C575.52,-138.45 609.58,-132.56 639.04,-127.47"/>
<polygon fill="#63b8ff" stroke="#63b8ff" points="639.33,-130.97 648.59,-125.82 638.14,-124.07 639.33,-130.97"/>
</a>
</g>
</g>
</g>
</svg>

<g id="navigator" transform="translate(0 0)" fill="#404254">
  <rect fill="#f2f5e9" fill-opacity="0.5" stroke="#606060" stroke-width=".5" x="0" y="0" width="60" height="60"/>
  <use id="zoomplus" xlink:href="#zoomPlus" x="17" y="9" onmousedown="handleZoom(evt,'in')"/>
  <use id="zoomminus" xlink:href="#zoomMin" x="42" y="9" onmousedown="handleZoom(evt,'out')"/>
  <use id="reset" xlink:href="#resetDef" x="30" y="36" onmousedown="handleReset()"/>
   <use id="arrowup" xlink:href="#arrowUp" x="0" y="0" onmousedown="handlePan(0,-1)"/>
  <use id="arrowright" xlink:href="#arrowRight" x="0" y="0" onmousedown="handlePan(1,0)"/>
  <use id="arrowdown" xlink:href="#arrowDown" x="0" y="0" onmousedown="handlePan(0,1)"/>
  <use id="arrowleft" xlink:href="#arrowLeft" x="0" y="0" onmousedown="handlePan(-1,0)"/>
</g>
<svg viewBox="0 0 15 15" width="100%" height="30px" preserveAspectRatio="xMaxYMin meet">
 <g id="arrow_out" transform="scale(0.3 0.3)">
  <a xlink:href="namespaceImGui_a6402f947598015002ce2f82890484513_cgraph_org.svg" target="_base">
   <rect id="button" ry="5" rx="5" y="6" x="6" height="38" width="38"
        fill="#f2f5e9" fill-opacity="0.5" stroke="#606060" stroke-width="1.0"/>
   <path id="arrow"
     d="M 11.500037,31.436501 C 11.940474,20.09759 22.043105,11.32322 32.158766,21.979434 L 37.068811,17.246167 C 37.068811,17.246167 37.088388,32 37.088388,32 L 22.160133,31.978069 C 22.160133,31.978069 26.997745,27.140456 26.997745,27.140456 C 18.528582,18.264221 13.291696,25.230495 11.500037,31.436501 z"
     style="fill:#404040;"/>
  </a>
 </g>
</svg>

<style type='text/css'>
<![CDATA[
[data-mouse-over-selected='false'] { opacity: 0.7; }
[data-mouse-over-selected='true']  { opacity: 1.0; }
]]>
</style>
<script type="application/ecmascript"><![CDATA[
document.addEventListener('DOMContentLoaded', (event) => {
  highlightEdges();
  highlightAdjacentNodes();
});
]]></script>
</svg>
