<?xml version="1.0" encoding="UTF-8" standalone="no"?>
<!DOCTYPE svg PUBLIC "-//W3C//DTD SVG 1.1//EN"
 "http://www.w3.org/Graphics/SVG/1.1/DTD/svg11.dtd">
<!-- Generated by graphviz version 12.2.1 (20241206.2353)
 -->
<!-- Title: ImGui::OpenPopup Pages: 1 -->
<svg width="1847pt" height="640pt"
 viewBox="0.00 0.00 1846.50 639.79" xmlns="http://www.w3.org/2000/svg" xmlns:xlink="http://www.w3.org/1999/xlink">
<g id="graph0" class="graph" transform="scale(1 1) rotate(0) translate(4 635.79)">
<title>ImGui::OpenPopup</title>
<!-- Node1 -->
<g id="Node000001" class="node">
<title>Node1</title>
<g id="a_Node000001"><a xlink:title=" ">
<polygon fill="#999999" stroke="#666666" points="106.75,-338.38 0,-338.38 0,-317.62 106.75,-317.62 106.75,-338.38"/>
<text text-anchor="middle" x="53.38" y="-324.88" font-family="Helvetica,sans-Serif" font-size="10.00">ImGui::OpenPopup</text>
</a>
</g>
</g>
<!-- Node2 -->
<g id="Node000002" class="node">
<title>Node2</title>
<g id="a_Node000002"><a xlink:href="structImGuiWindow.html#a66400a63bc0b54d7d29e08d1b1b1a42b" target="_top" xlink:title=" ">
<polygon fill="white" stroke="#666666" points="641.88,-466.38 524.62,-466.38 524.62,-445.62 641.88,-445.62 641.88,-466.38"/>
<text text-anchor="middle" x="583.25" y="-452.88" font-family="Helvetica,sans-Serif" font-size="10.00">ImGuiWindow::GetID</text>
</a>
</g>
</g>
<!-- Node1&#45;&gt;Node2 -->
<g id="edge1_Node000001_Node000002" class="edge">
<title>Node1&#45;&gt;Node2</title>
<g id="a_edge1_Node000001_Node000002"><a xlink:title=" ">
<path fill="none" stroke="#63b8ff" d="M79.78,-338.83C123.47,-357.05 216.02,-393.78 297.5,-414 370.02,-431.99 454.97,-443.3 513.09,-449.59"/>
<polygon fill="#63b8ff" stroke="#63b8ff" points="512.53,-453.05 522.84,-450.62 513.27,-446.09 512.53,-453.05"/>
</a>
</g>
</g>
<!-- Node7 -->
<g id="Node000007" class="node">
<title>Node7</title>
<g id="a_Node000007"><a xlink:href="namespaceImGui.html#ac1570338b44e1f1311055db7ae41c47b" target="_top" xlink:title=" ">
<polygon fill="white" stroke="#666666" points="261.5,-271.38 142.75,-271.38 142.75,-250.62 261.5,-250.62 261.5,-271.38"/>
<text text-anchor="middle" x="202.12" y="-257.88" font-family="Helvetica,sans-Serif" font-size="10.00">ImGui::OpenPopupEx</text>
</a>
</g>
</g>
<!-- Node1&#45;&gt;Node7 -->
<g id="edge6_Node000001_Node000007" class="edge">
<title>Node1&#45;&gt;Node7</title>
<g id="a_edge6_Node000001_Node000007"><a xlink:title=" ">
<path fill="none" stroke="#63b8ff" d="M77.95,-317.24C102.13,-306.2 139.96,-288.93 167.32,-276.43"/>
<polygon fill="#63b8ff" stroke="#63b8ff" points="168.59,-279.7 176.23,-272.37 165.68,-273.34 168.59,-279.7"/>
</a>
</g>
</g>
<!-- Node3 -->
<g id="Node000003" class="node">
<title>Node3</title>
<g id="a_Node000003"><a xlink:href="namespaceImGui.html#a5487269f4cb9fb809fd3e797411ed2d7" target="_top" xlink:title=" ">
<polygon fill="white" stroke="#666666" points="849.12,-523.38 713.12,-523.38 713.12,-502.62 849.12,-502.62 849.12,-523.38"/>
<text text-anchor="middle" x="781.12" y="-509.88" font-family="Helvetica,sans-Serif" font-size="10.00">ImGui::DebugHookIdInfo</text>
</a>
</g>
</g>
<!-- Node2&#45;&gt;Node3 -->
<g id="edge2_Node000002_Node000003" class="edge">
<title>Node2&#45;&gt;Node3</title>
<g id="a_edge2_Node000002_Node000003"><a xlink:title=" ">
<path fill="none" stroke="#63b8ff" d="M621.55,-466.86C653,-476.01 698.21,-489.16 732.31,-499.09"/>
<polygon fill="#63b8ff" stroke="#63b8ff" points="730.93,-502.33 741.51,-501.76 732.88,-495.61 730.93,-502.33"/>
</a>
</g>
</g>
<!-- Node4 -->
<g id="Node000004" class="node">
<title>Node4</title>
<g id="a_Node000004"><a xlink:href="structImVector.html#ac371dd62e56ae486b1a5038cf07eee56" target="_top" xlink:title=" ">
<polygon fill="white" stroke="#666666" points="1650,-86.38 1555.25,-86.38 1555.25,-65.62 1650,-65.62 1650,-86.38"/>
<text text-anchor="middle" x="1602.62" y="-72.88" font-family="Helvetica,sans-Serif" font-size="10.00">ImVector::resize</text>
</a>
</g>
</g>
<!-- Node3&#45;&gt;Node4 -->
<g id="edge3_Node000003_Node000004" class="edge">
<title>Node3&#45;&gt;Node4</title>
<g id="a_edge3_Node000003_Node000004"><a xlink:title=" ">
<path fill="none" stroke="#63b8ff" d="M805.08,-523.87C903.22,-568.59 1292.32,-727.68 1508,-548 1578.51,-489.25 1596.96,-183.65 1600.77,-98.21"/>
<polygon fill="#63b8ff" stroke="#63b8ff" points="1604.26,-98.51 1601.18,-88.37 1597.26,-98.21 1604.26,-98.51"/>
</a>
</g>
</g>
<!-- Node5 -->
<g id="Node000005" class="node">
<title>Node5</title>
<g id="a_Node000005"><a xlink:href="structImVector.html#a3a097635d464b1b70dc7d59996a88b28" target="_top" xlink:title=" ">
<polygon fill="white" stroke="#666666" points="1838.5,-47.38 1697.25,-47.38 1697.25,-26.62 1838.5,-26.62 1838.5,-47.38"/>
<text text-anchor="middle" x="1767.88" y="-33.88" font-family="Helvetica,sans-Serif" font-size="10.00">ImVector::_grow_capacity</text>
</a>
</g>
</g>
<!-- Node4&#45;&gt;Node5 -->
<g id="edge4_Node000004_Node000005" class="edge">
<title>Node4&#45;&gt;Node5</title>
<g id="a_edge4_Node000004_Node000005"><a xlink:title=" ">
<path fill="none" stroke="#63b8ff" d="M1649.1,-65.14C1668.04,-60.61 1690.23,-55.31 1710.21,-50.54"/>
<polygon fill="#63b8ff" stroke="#63b8ff" points="1710.98,-53.95 1719.89,-48.22 1709.35,-47.14 1710.98,-53.95"/>
</a>
</g>
</g>
<!-- Node6 -->
<g id="Node000006" class="node">
<title>Node6</title>
<g id="a_Node000006"><a xlink:href="structImVector.html#a0f14f5736c3372157856eebb67123b75" target="_top" xlink:title=" ">
<polygon fill="white" stroke="#666666" points="1819,-86.38 1716.75,-86.38 1716.75,-65.62 1819,-65.62 1819,-86.38"/>
<text text-anchor="middle" x="1767.88" y="-72.88" font-family="Helvetica,sans-Serif" font-size="10.00">ImVector::reserve</text>
</a>
</g>
</g>
<!-- Node4&#45;&gt;Node6 -->
<g id="edge5_Node000004_Node000006" class="edge">
<title>Node4&#45;&gt;Node6</title>
<g id="a_edge5_Node000004_Node000006"><a xlink:title=" ">
<path fill="none" stroke="#63b8ff" d="M1650.41,-76C1667.41,-76 1686.9,-76 1705.01,-76"/>
<polygon fill="#63b8ff" stroke="#63b8ff" points="1704.86,-79.5 1714.86,-76 1704.86,-72.5 1704.86,-79.5"/>
</a>
</g>
</g>
<!-- Node8 -->
<g id="Node000008" class="node">
<title>Node8</title>
<g id="a_Node000008"><a xlink:href="structImVector.html#a2d80e87e81b1b01143c8d8be93e6fde1" target="_top" xlink:title=" ">
<polygon fill="white" stroke="#666666" points="1248.62,-188.38 1159.88,-188.38 1159.88,-167.62 1248.62,-167.62 1248.62,-188.38"/>
<text text-anchor="middle" x="1204.25" y="-174.88" font-family="Helvetica,sans-Serif" font-size="10.00">ImVector::back</text>
</a>
</g>
</g>
<!-- Node7&#45;&gt;Node8 -->
<g id="edge7_Node000007_Node000008" class="edge">
<title>Node7&#45;&gt;Node8</title>
<g id="a_edge7_Node000007_Node000008"><a xlink:title=" ">
<path fill="none" stroke="#63b8ff" d="M209.7,-250.39C223.32,-229.37 256.74,-182.48 297.5,-159 409.9,-94.25 452.54,-95 582.25,-95 582.25,-95 582.25,-95 782.12,-95 912.79,-95 949.38,-79.83 1075.5,-114 1113.17,-124.2 1152.79,-146.04 1177.73,-161.35"/>
<polygon fill="#63b8ff" stroke="#63b8ff" points="1175.55,-164.11 1185.88,-166.46 1179.27,-158.18 1175.55,-164.11"/>
</a>
</g>
</g>
<!-- Node9 -->
<g id="Node000009" class="node">
<title>Node9</title>
<g id="a_Node000009"><a xlink:href="namespaceImGui.html#a0be705dc533a62387dc39ec5c276d2a0" target="_top" xlink:title=" ">
<polygon fill="white" stroke="#666666" points="455.25,-188.38 310.25,-188.38 310.25,-167.62 455.25,-167.62 455.25,-188.38"/>
<text text-anchor="middle" x="382.75" y="-174.88" font-family="Helvetica,sans-Serif" font-size="10.00">ImGui::ClosePopupToLevel</text>
</a>
</g>
</g>
<!-- Node7&#45;&gt;Node9 -->
<g id="edge8_Node000007_Node000009" class="edge">
<title>Node7&#45;&gt;Node9</title>
<g id="a_edge8_Node000007_Node000009"><a xlink:title=" ">
<path fill="none" stroke="#63b8ff" d="M226.48,-250.15C257.5,-235.73 312.52,-210.17 348.04,-193.66"/>
<polygon fill="#63b8ff" stroke="#63b8ff" points="349.43,-196.88 357.02,-189.49 346.48,-190.53 349.43,-196.88"/>
</a>
</g>
</g>
<!-- Node29 -->
<g id="Node000029" class="node">
<title>Node29</title>
<g id="a_Node000029"><a xlink:href="structImVector.html#aab5df48e0711a48bd12f3206e08c4108" target="_top" xlink:title=" ">
<polygon fill="white" stroke="#666666" points="1661.25,-47.38 1544,-47.38 1544,-26.62 1661.25,-26.62 1661.25,-47.38"/>
<text text-anchor="middle" x="1602.62" y="-33.88" font-family="Helvetica,sans-Serif" font-size="10.00">ImVector::push_back</text>
</a>
</g>
</g>
<!-- Node7&#45;&gt;Node29 -->
<g id="edge51_Node000007_Node000029" class="edge">
<title>Node7&#45;&gt;Node29</title>
<g id="a_edge51_Node000007_Node000029"><a xlink:title=" ">
<path fill="none" stroke="#63b8ff" d="M206.19,-250.23C215.12,-220.73 243.97,-137.97 297.5,-94 400.49,-9.41 448.98,0 582.25,0 582.25,0 582.25,0 1205.25,0 1340.07,0 1374.25,-2.02 1508,-19 1518.6,-20.35 1529.81,-22.16 1540.65,-24.12"/>
<polygon fill="#63b8ff" stroke="#63b8ff" points="1539.81,-27.52 1550.28,-25.92 1541.09,-20.64 1539.81,-27.52"/>
</a>
</g>
</g>
<!-- Node32 -->
<g id="Node000032" class="node">
<title>Node32</title>
<g id="a_Node000032"><a xlink:href="namespaceImGui.html#a22d482190e8f549d5904aded1c6f7778" target="_top" xlink:title=" ">
<polygon fill="white" stroke="#666666" points="649.75,-271.38 516.75,-271.38 516.75,-250.62 649.75,-250.62 649.75,-271.38"/>
<text text-anchor="middle" x="583.25" y="-257.88" font-family="Helvetica,sans-Serif" font-size="10.00">ImGui::IsMousePosValid</text>
</a>
</g>
</g>
<!-- Node7&#45;&gt;Node32 -->
<g id="edge41_Node000007_Node000032" class="edge">
<title>Node7&#45;&gt;Node32</title>
<g id="a_edge41_Node000007_Node000032"><a xlink:title=" ">
<path fill="none" stroke="#63b8ff" d="M261.95,-261C327.29,-261 433.06,-261 505.03,-261"/>
<polygon fill="#63b8ff" stroke="#63b8ff" points="504.76,-264.5 514.76,-261 504.76,-257.5 504.76,-264.5"/>
</a>
</g>
</g>
<!-- Node33 -->
<g id="Node000033" class="node">
<title>Node33</title>
<g id="a_Node000033"><a xlink:href="namespaceImGui.html#a0e351145d0936e79948094166757712e" target="_top" xlink:title=" ">
<polygon fill="white" stroke="#666666" points="440.25,-387.38 325.25,-387.38 325.25,-366.62 440.25,-366.62 440.25,-387.38"/>
<text text-anchor="middle" x="382.75" y="-373.88" font-family="Helvetica,sans-Serif" font-size="10.00">ImGui::IsPopupOpen</text>
</a>
</g>
</g>
<!-- Node7&#45;&gt;Node33 -->
<g id="edge42_Node000007_Node000033" class="edge">
<title>Node7&#45;&gt;Node33</title>
<g id="a_edge42_Node000007_Node000033"><a xlink:title=" ">
<path fill="none" stroke="#63b8ff" d="M217.93,-271.87C236.31,-285.24 268.77,-308.47 297.5,-327 315.73,-338.76 336.7,-351.21 353.16,-360.75"/>
<polygon fill="#63b8ff" stroke="#63b8ff" points="351.04,-363.56 361.45,-365.52 354.53,-357.5 351.04,-363.56"/>
</a>
</g>
</g>
<!-- Node34 -->
<g id="Node000034" class="node">
<title>Node34</title>
<g id="a_Node000034"><a xlink:href="namespaceImGui.html#a3fedd0a136d52d72d2fd1e3139b4272c" target="_top" xlink:title=" ">
<polygon fill="white" stroke="#666666" points="468,-318.38 297.5,-318.38 297.5,-297.62 468,-297.62 468,-318.38"/>
<text text-anchor="middle" x="382.75" y="-304.88" font-family="Helvetica,sans-Serif" font-size="10.00">ImGui::NavCalcPreferredRefPos</text>
</a>
</g>
</g>
<!-- Node7&#45;&gt;Node34 -->
<g id="edge45_Node000007_Node000034" class="edge">
<title>Node7&#45;&gt;Node34</title>
<g id="a_edge45_Node000007_Node000034"><a xlink:title=" ">
<path fill="none" stroke="#63b8ff" d="M244.11,-271.78C269.54,-278.48 302.47,-287.14 329.74,-294.31"/>
<polygon fill="#63b8ff" stroke="#63b8ff" points="328.63,-297.64 339.19,-296.8 330.41,-290.87 328.63,-297.64"/>
</a>
</g>
</g>
<!-- Node9&#45;&gt;Node4 -->
<g id="edge40_Node000009_Node000004" class="edge">
<title>Node9&#45;&gt;Node4</title>
<g id="a_edge40_Node000009_Node000004"><a xlink:title=" ">
<path fill="none" stroke="#63b8ff" d="M408.1,-167.16C432.03,-156.98 469.83,-142.12 504,-134 892,-41.82 1377.99,-61.49 1543.42,-71.82"/>
<polygon fill="#63b8ff" stroke="#63b8ff" points="1543.06,-75.31 1553.26,-72.45 1543.5,-68.32 1543.06,-75.31"/>
</a>
</g>
</g>
<!-- Node10 -->
<g id="Node000010" class="node">
<title>Node10</title>
<g id="a_Node000010"><a xlink:href="namespaceImGui.html#aa97e87e96c05eb3e91aa96fa68b13a2a" target="_top" xlink:title=" ">
<polygon fill="white" stroke="#666666" points="662.5,-194.75 504,-194.75 504,-161.25 662.5,-161.25 662.5,-194.75"/>
<text text-anchor="start" x="512" y="-181.25" font-family="Helvetica,sans-Serif" font-size="10.00">ImGui::FocusTopMostWindow</text>
<text text-anchor="middle" x="583.25" y="-168.5" font-family="Helvetica,sans-Serif" font-size="10.00">UnderOne</text>
</a>
</g>
</g>
<!-- Node9&#45;&gt;Node10 -->
<g id="edge9_Node000009_Node000010" class="edge">
<title>Node9&#45;&gt;Node10</title>
<g id="a_edge9_Node000009_Node000010"><a xlink:title=" ">
<path fill="none" stroke="#63b8ff" d="M455.69,-178C467.59,-178 480.05,-178 492.31,-178"/>
<polygon fill="#63b8ff" stroke="#63b8ff" points="491.99,-181.5 501.99,-178 491.99,-174.5 491.99,-181.5"/>
</a>
</g>
</g>
<!-- Node12 -->
<g id="Node000012" class="node">
<title>Node12</title>
<g id="a_Node000012"><a xlink:href="namespaceImGui.html#a27aa6f2f3aa11778c6d023b1b223f262" target="_top" xlink:title=" ">
<polygon fill="white" stroke="#666666" points="840.12,-304.38 722.12,-304.38 722.12,-283.62 840.12,-283.62 840.12,-304.38"/>
<text text-anchor="middle" x="781.12" y="-290.88" font-family="Helvetica,sans-Serif" font-size="10.00">ImGui::FocusWindow</text>
</a>
</g>
</g>
<!-- Node9&#45;&gt;Node12 -->
<g id="edge39_Node000009_Node000012" class="edge">
<title>Node9&#45;&gt;Node12</title>
<g id="a_edge39_Node000009_Node000012"><a xlink:title=" ">
<path fill="none" stroke="#63b8ff" d="M433.26,-188.83C507.4,-205.13 640.91,-234.82 662.5,-242 692.5,-251.97 725.29,-266.82 748.61,-278.1"/>
<polygon fill="#63b8ff" stroke="#63b8ff" points="747.05,-281.23 757.57,-282.49 750.13,-274.95 747.05,-281.23"/>
</a>
</g>
</g>
<!-- Node11 -->
<g id="Node000011" class="node">
<title>Node11</title>
<g id="a_Node000011"><a xlink:href="namespaceImGui.html#a861004d5a1476e954abd68d6f9deaa06" target="_top" xlink:title=" ">
<polygon fill="white" stroke="#666666" points="863.75,-188.38 698.5,-188.38 698.5,-167.62 863.75,-167.62 863.75,-188.38"/>
<text text-anchor="middle" x="781.12" y="-174.88" font-family="Helvetica,sans-Serif" font-size="10.00">ImGui::FindWindowFocusIndex</text>
</a>
</g>
</g>
<!-- Node10&#45;&gt;Node11 -->
<g id="edge10_Node000010_Node000011" class="edge">
<title>Node10&#45;&gt;Node11</title>
<g id="a_edge10_Node000010_Node000011"><a xlink:title=" ">
<path fill="none" stroke="#63b8ff" d="M662.79,-178C670.68,-178 678.74,-178 686.76,-178"/>
<polygon fill="#63b8ff" stroke="#63b8ff" points="686.53,-181.5 696.53,-178 686.53,-174.5 686.53,-181.5"/>
</a>
</g>
</g>
<!-- Node10&#45;&gt;Node12 -->
<g id="edge11_Node000010_Node000012" class="edge">
<title>Node10&#45;&gt;Node12</title>
<g id="a_edge11_Node000010_Node000012"><a xlink:title=" ">
<path fill="none" stroke="#63b8ff" d="M633.11,-195.18C643.05,-199.28 653.27,-203.94 662.5,-209 698.26,-228.61 735.83,-257.4 758.62,-275.93"/>
<polygon fill="#63b8ff" stroke="#63b8ff" points="756.32,-278.57 766.26,-282.22 760.77,-273.16 756.32,-278.57"/>
</a>
</g>
</g>
<!-- Node13 -->
<g id="Node000013" class="node">
<title>Node13</title>
<g id="a_Node000013"><a xlink:href="namespaceImGui.html#a8cae2f7a08f820a8d5349d1964603b20" target="_top" xlink:title=" ">
<polygon fill="white" stroke="#666666" points="1069.12,-503.75 906.12,-503.75 906.12,-470.25 1069.12,-470.25 1069.12,-503.75"/>
<text text-anchor="start" x="914.12" y="-490.25" font-family="Helvetica,sans-Serif" font-size="10.00">ImGui::BringWindowToDisplay</text>
<text text-anchor="middle" x="987.62" y="-477.5" font-family="Helvetica,sans-Serif" font-size="10.00">Behind</text>
</a>
</g>
</g>
<!-- Node12&#45;&gt;Node13 -->
<g id="edge12_Node000012_Node000013" class="edge">
<title>Node12&#45;&gt;Node13</title>
<g id="a_edge12_Node000012_Node000013"><a xlink:title=" ">
<path fill="none" stroke="#63b8ff" d="M786.67,-304.87C799.65,-334.59 839.89,-417.9 899.75,-461 901.52,-462.28 903.36,-463.49 905.25,-464.65"/>
<polygon fill="#63b8ff" stroke="#63b8ff" points="903.26,-467.55 913.72,-469.22 906.58,-461.39 903.26,-467.55"/>
</a>
</g>
</g>
<!-- Node17 -->
<g id="Node000017" class="node">
<title>Node17</title>
<g id="a_Node000017"><a xlink:href="namespaceImGui.html#a1f7b95f36d03751c928af7b1b745e959" target="_top" xlink:title=" ">
<polygon fill="white" stroke="#666666" points="1069.12,-246.75 906.12,-246.75 906.12,-213.25 1069.12,-213.25 1069.12,-246.75"/>
<text text-anchor="start" x="914.12" y="-233.25" font-family="Helvetica,sans-Serif" font-size="10.00">ImGui::BringWindowToDisplay</text>
<text text-anchor="middle" x="987.62" y="-220.5" font-family="Helvetica,sans-Serif" font-size="10.00">Front</text>
</a>
</g>
</g>
<!-- Node12&#45;&gt;Node17 -->
<g id="edge16_Node000012_Node000017" class="edge">
<title>Node12&#45;&gt;Node17</title>
<g id="a_edge16_Node000012_Node000017"><a xlink:title=" ">
<path fill="none" stroke="#63b8ff" d="M815.02,-283.16C838.57,-275.45 871.06,-264.93 899.75,-256 905.58,-254.19 911.63,-252.33 917.7,-250.48"/>
<polygon fill="#63b8ff" stroke="#63b8ff" points="918.62,-253.86 927.18,-247.61 916.59,-247.16 918.62,-253.86"/>
</a>
</g>
</g>
<!-- Node18 -->
<g id="Node000018" class="node">
<title>Node18</title>
<g id="a_Node000018"><a xlink:href="namespaceImGui.html#affe95a2dc969f0d15fbd4b588c94ac1a" target="_top" xlink:title=" ">
<polygon fill="white" stroke="#666666" points="1064.62,-194.75 910.62,-194.75 910.62,-161.25 1064.62,-161.25 1064.62,-194.75"/>
<text text-anchor="start" x="918.62" y="-181.25" font-family="Helvetica,sans-Serif" font-size="10.00">ImGui::BringWindowToFocus</text>
<text text-anchor="middle" x="987.62" y="-168.5" font-family="Helvetica,sans-Serif" font-size="10.00">Front</text>
</a>
</g>
</g>
<!-- Node12&#45;&gt;Node18 -->
<g id="edge18_Node000012_Node000018" class="edge">
<title>Node12&#45;&gt;Node18</title>
<g id="a_edge18_Node000012_Node000018"><a xlink:title=" ">
<path fill="none" stroke="#63b8ff" d="M793.18,-283.27C812.98,-264.62 856.47,-226.09 899.75,-204 902.98,-202.35 906.32,-200.79 909.74,-199.32"/>
<polygon fill="#63b8ff" stroke="#63b8ff" points="910.79,-202.67 918.77,-195.7 908.19,-196.17 910.79,-202.67"/>
</a>
</g>
</g>
<!-- Node19 -->
<g id="Node000019" class="node">
<title>Node19</title>
<g id="a_Node000019"><a xlink:href="namespaceImGui.html#a17ff60ad1e2669130ac38a04d16eb354" target="_top" xlink:title=" ">
<polygon fill="white" stroke="#666666" points="1046.62,-542.38 928.62,-542.38 928.62,-521.62 1046.62,-521.62 1046.62,-542.38"/>
<text text-anchor="middle" x="987.62" y="-528.88" font-family="Helvetica,sans-Serif" font-size="10.00">ImGui::ClearActiveID</text>
</a>
</g>
</g>
<!-- Node12&#45;&gt;Node19 -->
<g id="edge20_Node000012_Node000019" class="edge">
<title>Node12&#45;&gt;Node19</title>
<g id="a_edge20_Node000012_Node000019"><a xlink:title=" ">
<path fill="none" stroke="#63b8ff" d="M784.51,-304.75C793.06,-340.62 825.69,-457.1 899.75,-513 905.25,-517.15 911.47,-520.43 918,-523.02"/>
<polygon fill="#63b8ff" stroke="#63b8ff" points="916.41,-526.18 927.01,-526.06 918.65,-519.55 916.41,-526.18"/>
</a>
</g>
</g>
<!-- Node22 -->
<g id="Node000022" class="node">
<title>Node22</title>
<g id="a_Node000022"><a xlink:href="namespaceImGui.html#a0076b153c697cb85e263fcbd59340bce" target="_top" xlink:title=" ">
<polygon fill="white" stroke="#666666" points="1075.5,-143.38 899.75,-143.38 899.75,-122.62 1075.5,-122.62 1075.5,-143.38"/>
<text text-anchor="middle" x="987.62" y="-129.88" font-family="Helvetica,sans-Serif" font-size="10.00">ImGui::ClosePopupsOverWindow</text>
</a>
</g>
</g>
<!-- Node12&#45;&gt;Node22 -->
<g id="edge24_Node000012_Node000022" class="edge">
<title>Node12&#45;&gt;Node22</title>
<g id="a_edge24_Node000012_Node000022"><a xlink:title=" ">
<path fill="none" stroke="#63b8ff" d="M791.27,-283.31C806.46,-265.51 837.78,-228.65 863.75,-197 880,-177.2 877.99,-165.51 899.75,-152 901.88,-150.68 904.09,-149.44 906.36,-148.3"/>
<polygon fill="#63b8ff" stroke="#63b8ff" points="907.51,-151.62 915.27,-144.4 904.7,-145.2 907.51,-151.62"/>
</a>
</g>
</g>
<!-- Node24 -->
<g id="Node000024" class="node">
<title>Node24</title>
<g id="a_Node000024"><a xlink:href="namespaceImGui.html#a196705a4195b41a57470ef6553cb440c" target="_top" xlink:title=" ">
<polygon fill="white" stroke="#666666" points="1059.38,-285.38 915.88,-285.38 915.88,-264.62 1059.38,-264.62 1059.38,-285.38"/>
<text text-anchor="middle" x="987.62" y="-271.88" font-family="Helvetica,sans-Serif" font-size="10.00">ImGui::FindBlockingModal</text>
</a>
</g>
</g>
<!-- Node12&#45;&gt;Node24 -->
<g id="edge27_Node000012_Node000024" class="edge">
<title>Node12&#45;&gt;Node24</title>
<g id="a_edge27_Node000012_Node000024"><a xlink:title=" ">
<path fill="none" stroke="#63b8ff" d="M840.45,-288.58C860.27,-286.74 882.8,-284.65 904.13,-282.66"/>
<polygon fill="#63b8ff" stroke="#63b8ff" points="904.36,-286.16 913.99,-281.75 903.71,-279.19 904.36,-286.16"/>
</a>
</g>
</g>
<!-- Node25 -->
<g id="Node000025" class="node">
<title>Node25</title>
<g id="a_Node000025"><a xlink:href="namespaceImGui.html#a6b905269b079f5e07755db52cc6e52df" target="_top" xlink:title=" ">
<polygon fill="white" stroke="#666666" points="1072.12,-400.38 903.12,-400.38 903.12,-379.62 1072.12,-379.62 1072.12,-400.38"/>
<text text-anchor="middle" x="987.62" y="-386.88" font-family="Helvetica,sans-Serif" font-size="10.00">ImGui::GetTopMostPopupModal</text>
</a>
</g>
</g>
<!-- Node12&#45;&gt;Node25 -->
<g id="edge29_Node000012_Node000025" class="edge">
<title>Node12&#45;&gt;Node25</title>
<g id="a_edge29_Node000012_Node000025"><a xlink:title=" ">
<path fill="none" stroke="#63b8ff" d="M795.37,-304.79C816.27,-321.28 858.77,-352.68 899.75,-370 904.96,-372.2 910.46,-374.19 916.05,-375.96"/>
<polygon fill="#63b8ff" stroke="#63b8ff" points="914.84,-379.26 925.42,-378.71 916.81,-372.54 914.84,-379.26"/>
</a>
</g>
</g>
<!-- Node26 -->
<g id="Node000026" class="node">
<title>Node26</title>
<g id="a_Node000026"><a xlink:href="namespaceImGui.html#ae9ed208c0b64e4919e5de1cb83b2db2a" target="_top" xlink:title=" ">
<polygon fill="white" stroke="#666666" points="1064.25,-451.75 911,-451.75 911,-418.25 1064.25,-418.25 1064.25,-451.75"/>
<text text-anchor="start" x="919" y="-438.25" font-family="Helvetica,sans-Serif" font-size="10.00">ImGui::NavRestoreLastChild</text>
<text text-anchor="middle" x="987.62" y="-425.5" font-family="Helvetica,sans-Serif" font-size="10.00">NavWindow</text>
</a>
</g>
</g>
<!-- Node12&#45;&gt;Node26 -->
<g id="edge30_Node000012_Node000026" class="edge">
<title>Node12&#45;&gt;Node26</title>
<g id="a_edge30_Node000012_Node000026"><a xlink:title=" ">
<path fill="none" stroke="#63b8ff" d="M790,-304.61C807.31,-327.2 851.03,-380.29 899.75,-409 902.24,-410.47 904.82,-411.86 907.47,-413.18"/>
<polygon fill="#63b8ff" stroke="#63b8ff" points="906.01,-416.36 916.56,-417.28 908.89,-409.98 906.01,-416.36"/>
</a>
</g>
</g>
<!-- Node28 -->
<g id="Node000028" class="node">
<title>Node28</title>
<g id="a_Node000028"><a xlink:href="namespaceImGui.html#ada2736a9b034b93ba877f46577bc5e8b" target="_top" xlink:title=" ">
<polygon fill="white" stroke="#666666" points="1492.25,-48.38 1348.75,-48.38 1348.75,-27.62 1492.25,-27.62 1492.25,-48.38"/>
<text text-anchor="middle" x="1420.5" y="-34.88" font-family="Helvetica,sans-Serif" font-size="10.00">ImGui::SetNavFocusScope</text>
</a>
</g>
</g>
<!-- Node12&#45;&gt;Node28 -->
<g id="edge32_Node000012_Node000028" class="edge">
<title>Node12&#45;&gt;Node28</title>
<g id="a_edge32_Node000012_Node000028"><a xlink:title=" ">
<path fill="none" stroke="#63b8ff" d="M840.38,-298.92C959.11,-307.79 1224.05,-321.24 1297,-272 1372.71,-220.9 1404.77,-107.64 1415.27,-59.9"/>
<polygon fill="#63b8ff" stroke="#63b8ff" points="1418.66,-60.75 1417.27,-50.24 1411.81,-59.32 1418.66,-60.75"/>
</a>
</g>
</g>
<!-- Node30 -->
<g id="Node000030" class="node">
<title>Node30</title>
<g id="a_Node000030"><a xlink:href="namespaceImGui.html#aa422c756f467e650d67b4fb1b74ff5a1" target="_top" xlink:title=" ">
<polygon fill="white" stroke="#666666" points="1050.38,-361.38 924.88,-361.38 924.88,-340.62 1050.38,-340.62 1050.38,-361.38"/>
<text text-anchor="middle" x="987.62" y="-347.88" font-family="Helvetica,sans-Serif" font-size="10.00">ImGui::SetNavWindow</text>
</a>
</g>
</g>
<!-- Node12&#45;&gt;Node30 -->
<g id="edge37_Node000012_Node000030" class="edge">
<title>Node12&#45;&gt;Node30</title>
<g id="a_edge37_Node000012_Node000030"><a xlink:title=" ">
<path fill="none" stroke="#63b8ff" d="M820.52,-304.81C843.5,-311.28 873.29,-319.63 899.75,-327 911.64,-330.31 924.44,-333.86 936.48,-337.18"/>
<polygon fill="#63b8ff" stroke="#63b8ff" points="935.23,-340.47 945.8,-339.76 937.09,-333.72 935.23,-340.47"/>
</a>
</g>
</g>
<!-- Node14 -->
<g id="Node000014" class="node">
<title>Node14</title>
<g id="a_Node000014"><a xlink:href="namespaceImGui.html#acc8dfbe9f52370fe2b95f6c948ba113e" target="_top" xlink:title=" ">
<polygon fill="white" stroke="#666666" points="1277.88,-503.75 1130.62,-503.75 1130.62,-470.25 1277.88,-470.25 1277.88,-503.75"/>
<text text-anchor="start" x="1138.62" y="-490.25" font-family="Helvetica,sans-Serif" font-size="10.00">ImGui::FindWindowDisplay</text>
<text text-anchor="middle" x="1204.25" y="-477.5" font-family="Helvetica,sans-Serif" font-size="10.00">Index</text>
</a>
</g>
</g>
<!-- Node13&#45;&gt;Node14 -->
<g id="edge13_Node000013_Node000014" class="edge">
<title>Node13&#45;&gt;Node14</title>
<g id="a_edge13_Node000013_Node000014"><a xlink:title=" ">
<path fill="none" stroke="#63b8ff" d="M1069.46,-487C1085.68,-487 1102.76,-487 1119.09,-487"/>
<polygon fill="#63b8ff" stroke="#63b8ff" points="1118.74,-490.5 1128.74,-487 1118.74,-483.5 1118.74,-490.5"/>
</a>
</g>
</g>
<!-- Node15 -->
<g id="Node000015" class="node">
<title>Node15</title>
<g id="a_Node000015"><a xlink:href="structImVector.html#a406417c3efef769d4bee47df2188831a" target="_top" xlink:title=" ">
<polygon fill="white" stroke="#666666" points="1462.25,-459.38 1378.75,-459.38 1378.75,-438.62 1462.25,-438.62 1462.25,-459.38"/>
<text text-anchor="middle" x="1420.5" y="-445.88" font-family="Helvetica,sans-Serif" font-size="10.00">ImVector::find</text>
</a>
</g>
</g>
<!-- Node14&#45;&gt;Node15 -->
<g id="edge14_Node000014_Node000015" class="edge">
<title>Node14&#45;&gt;Node15</title>
<g id="a_edge14_Node000014_Node000015"><a xlink:title=" ">
<path fill="none" stroke="#63b8ff" d="M1278.08,-474.08C1307.38,-468.89 1340.5,-463.01 1367.32,-458.25"/>
<polygon fill="#63b8ff" stroke="#63b8ff" points="1367.68,-461.75 1376.91,-456.55 1366.45,-454.85 1367.68,-461.75"/>
</a>
</g>
</g>
<!-- Node16 -->
<g id="Node000016" class="node">
<title>Node16</title>
<g id="a_Node000016"><a xlink:href="structImVector.html#a3fd48379f807eeb01fb9da39afa30dc7" target="_top" xlink:title=" ">
<polygon fill="white" stroke="#666666" points="1490.38,-498.38 1350.62,-498.38 1350.62,-477.62 1490.38,-477.62 1490.38,-498.38"/>
<text text-anchor="middle" x="1420.5" y="-484.88" font-family="Helvetica,sans-Serif" font-size="10.00">ImVector::index_from_ptr</text>
</a>
</g>
</g>
<!-- Node14&#45;&gt;Node16 -->
<g id="edge15_Node000014_Node000016" class="edge">
<title>Node14&#45;&gt;Node16</title>
<g id="a_edge15_Node000014_Node000016"><a xlink:title=" ">
<path fill="none" stroke="#63b8ff" d="M1278.08,-487.34C1297.75,-487.43 1319.13,-487.53 1339.18,-487.63"/>
<polygon fill="#63b8ff" stroke="#63b8ff" points="1338.95,-491.12 1348.97,-487.67 1338.99,-484.12 1338.95,-491.12"/>
</a>
</g>
</g>
<!-- Node17&#45;&gt;Node8 -->
<g id="edge17_Node000017_Node000008" class="edge">
<title>Node17&#45;&gt;Node8</title>
<g id="a_edge17_Node000017_Node000008"><a xlink:title=" ">
<path fill="none" stroke="#63b8ff" d="M1059.79,-212.76C1088.62,-205.77 1121.39,-197.83 1148.32,-191.31"/>
<polygon fill="#63b8ff" stroke="#63b8ff" points="1149.12,-194.72 1158.01,-188.96 1147.47,-187.91 1149.12,-194.72"/>
</a>
</g>
</g>
<!-- Node18&#45;&gt;Node8 -->
<g id="edge19_Node000018_Node000008" class="edge">
<title>Node18&#45;&gt;Node8</title>
<g id="a_edge19_Node000018_Node000008"><a xlink:title=" ">
<path fill="none" stroke="#63b8ff" d="M1064.9,-178C1092.38,-178 1122.83,-178 1148.15,-178"/>
<polygon fill="#63b8ff" stroke="#63b8ff" points="1147.88,-181.5 1157.88,-178 1147.88,-174.5 1147.88,-181.5"/>
</a>
</g>
</g>
<!-- Node20 -->
<g id="Node000020" class="node">
<title>Node20</title>
<g id="a_Node000020"><a xlink:href="namespaceImGui.html#a27b8ace13a8c421ee8405f0cbebe4ead" target="_top" xlink:title=" ">
<polygon fill="white" stroke="#666666" points="1258.38,-542.38 1150.12,-542.38 1150.12,-521.62 1258.38,-521.62 1258.38,-542.38"/>
<text text-anchor="middle" x="1204.25" y="-528.88" font-family="Helvetica,sans-Serif" font-size="10.00">ImGui::SetActiveID</text>
</a>
</g>
</g>
<!-- Node19&#45;&gt;Node20 -->
<g id="edge21_Node000019_Node000020" class="edge">
<title>Node19&#45;&gt;Node20</title>
<g id="a_edge21_Node000019_Node000020"><a xlink:title=" ">
<path fill="none" stroke="#63b8ff" d="M1046.99,-532C1075.26,-532 1109.3,-532 1138.39,-532"/>
<polygon fill="#63b8ff" stroke="#63b8ff" points="1138.17,-535.5 1148.17,-532 1138.17,-528.5 1138.17,-535.5"/>
</a>
</g>
</g>
<!-- Node21 -->
<g id="Node000021" class="node">
<title>Node21</title>
<g id="a_Node000021"><a xlink:href="namespaceImGui.html#aad9419cf6e296c668807e3af4bfd62bb" target="_top" xlink:title=" ">
<polygon fill="white" stroke="#666666" points="1508,-539.38 1333,-539.38 1333,-518.62 1508,-518.62 1508,-539.38"/>
<text text-anchor="middle" x="1420.5" y="-525.88" font-family="Helvetica,sans-Serif" font-size="10.00">ImGui::InputTextDeactivateHook</text>
</a>
</g>
</g>
<!-- Node20&#45;&gt;Node21 -->
<g id="edge22_Node000020_Node000021" class="edge">
<title>Node20&#45;&gt;Node21</title>
<g id="a_edge22_Node000020_Node000021"><a xlink:title=" ">
<path fill="none" stroke="#63b8ff" d="M1258.76,-531.25C1277.67,-530.99 1299.59,-530.68 1321.04,-530.38"/>
<polygon fill="#63b8ff" stroke="#63b8ff" points="1321.07,-533.88 1331.02,-530.24 1320.97,-526.88 1321.07,-533.88"/>
</a>
</g>
</g>
<!-- Node21&#45;&gt;Node4 -->
<g id="edge23_Node000021_Node000004" class="edge">
<title>Node21&#45;&gt;Node4</title>
<g id="a_edge23_Node000021_Node000004"><a xlink:title=" ">
<path fill="none" stroke="#63b8ff" d="M1492.72,-518.18C1498.37,-515.24 1503.59,-511.57 1508,-507 1565.93,-447 1593.06,-177.01 1599.87,-97.87"/>
<polygon fill="#63b8ff" stroke="#63b8ff" points="1603.31,-98.63 1600.66,-88.38 1596.34,-98.05 1603.31,-98.63"/>
</a>
</g>
</g>
<!-- Node22&#45;&gt;Node9 -->
<g id="edge25_Node000022_Node000009" class="edge">
<title>Node22&#45;&gt;Node9</title>
<g id="a_edge25_Node000022_Node000009"><a xlink:title=" ">
<path fill="none" stroke="#63b8ff" d="M899.5,-131.9C802.56,-131.72 641.47,-134.57 504,-152 481.55,-154.85 457.08,-159.79 436.11,-164.61"/>
<polygon fill="#63b8ff" stroke="#63b8ff" points="435.59,-161.14 426.65,-166.84 437.19,-167.95 435.59,-161.14"/>
</a>
</g>
</g>
<!-- Node23 -->
<g id="Node000023" class="node">
<title>Node23</title>
<g id="a_Node000023"><a xlink:href="namespaceImGui.html#a48de6990762aa67d7da5c3264b92d44f" target="_top" xlink:title=" ">
<polygon fill="white" stroke="#666666" points="1283.12,-262.75 1125.38,-262.75 1125.38,-229.25 1283.12,-229.25 1283.12,-262.75"/>
<text text-anchor="start" x="1133.38" y="-249.25" font-family="Helvetica,sans-Serif" font-size="10.00">ImGui::IsWindowWithinBegin</text>
<text text-anchor="middle" x="1204.25" y="-236.5" font-family="Helvetica,sans-Serif" font-size="10.00">StackOf</text>
</a>
</g>
</g>
<!-- Node22&#45;&gt;Node23 -->
<g id="edge26_Node000022_Node000023" class="edge">
<title>Node22&#45;&gt;Node23</title>
<g id="a_edge26_Node000022_Node000023"><a xlink:title=" ">
<path fill="none" stroke="#63b8ff" d="M1058.59,-143.8C1064.53,-146.04 1070.25,-148.74 1075.5,-152 1097.26,-165.51 1091.8,-180.63 1111.5,-197 1123.79,-207.22 1138.56,-216.22 1152.61,-223.64"/>
<polygon fill="#63b8ff" stroke="#63b8ff" points="1150.82,-226.66 1161.32,-228.07 1153.99,-220.42 1150.82,-226.66"/>
</a>
</g>
</g>
<!-- Node24&#45;&gt;Node23 -->
<g id="edge28_Node000024_Node000023" class="edge">
<title>Node24&#45;&gt;Node23</title>
<g id="a_edge28_Node000024_Node000023"><a xlink:title=" ">
<path fill="none" stroke="#63b8ff" d="M1059.79,-265.38C1076.99,-263.06 1095.59,-260.55 1113.52,-258.12"/>
<polygon fill="#63b8ff" stroke="#63b8ff" points="1113.94,-261.6 1123.38,-256.79 1113,-254.66 1113.94,-261.6"/>
</a>
</g>
</g>
<!-- Node27 -->
<g id="Node000027" class="node">
<title>Node27</title>
<g id="a_Node000027"><a xlink:href="namespaceImGui.html#a5e1bfc506e7bd0f71ec85d8c69672d3d" target="_top" xlink:title=" ">
<polygon fill="white" stroke="#666666" points="1289.88,-451.75 1118.62,-451.75 1118.62,-418.25 1289.88,-418.25 1289.88,-451.75"/>
<text text-anchor="start" x="1126.62" y="-438.25" font-family="Helvetica,sans-Serif" font-size="10.00">ImGui::TabBarFindMostRecently</text>
<text text-anchor="middle" x="1204.25" y="-425.5" font-family="Helvetica,sans-Serif" font-size="10.00">SelectedTabForActiveWindow</text>
</a>
</g>
</g>
<!-- Node26&#45;&gt;Node27 -->
<g id="edge31_Node000026_Node000027" class="edge">
<title>Node26&#45;&gt;Node27</title>
<g id="a_edge31_Node000026_Node000027"><a xlink:title=" ">
<path fill="none" stroke="#63b8ff" d="M1064.6,-435C1078.3,-435 1092.75,-435 1106.94,-435"/>
<polygon fill="#63b8ff" stroke="#63b8ff" points="1106.73,-438.5 1116.73,-435 1106.73,-431.5 1106.73,-438.5"/>
</a>
</g>
</g>
<!-- Node28&#45;&gt;Node4 -->
<g id="edge36_Node000028_Node000004" class="edge">
<title>Node28&#45;&gt;Node4</title>
<g id="a_edge36_Node000028_Node000004"><a xlink:title=" ">
<path fill="none" stroke="#63b8ff" d="M1472.63,-48.79C1494.89,-53.48 1521.08,-59.01 1544.02,-63.85"/>
<polygon fill="#63b8ff" stroke="#63b8ff" points="1543,-67.21 1553.5,-65.85 1544.44,-60.36 1543,-67.21"/>
</a>
</g>
</g>
<!-- Node28&#45;&gt;Node29 -->
<g id="edge33_Node000028_Node000029" class="edge">
<title>Node28&#45;&gt;Node29</title>
<g id="a_edge33_Node000028_Node000029"><a xlink:title=" ">
<path fill="none" stroke="#63b8ff" d="M1492.69,-37.6C1505.77,-37.53 1519.41,-37.46 1532.43,-37.38"/>
<polygon fill="#63b8ff" stroke="#63b8ff" points="1532.19,-40.89 1542.17,-37.33 1532.15,-33.89 1532.19,-40.89"/>
</a>
</g>
</g>
<!-- Node29&#45;&gt;Node5 -->
<g id="edge34_Node000029_Node000005" class="edge">
<title>Node29&#45;&gt;Node5</title>
<g id="a_edge34_Node000029_Node000005"><a xlink:title=" ">
<path fill="none" stroke="#63b8ff" d="M1661.64,-37C1669.43,-37 1677.53,-37 1685.62,-37"/>
<polygon fill="#63b8ff" stroke="#63b8ff" points="1685.52,-40.5 1695.52,-37 1685.52,-33.5 1685.52,-40.5"/>
</a>
</g>
</g>
<!-- Node29&#45;&gt;Node6 -->
<g id="edge35_Node000029_Node000006" class="edge">
<title>Node29&#45;&gt;Node6</title>
<g id="a_edge35_Node000029_Node000006"><a xlink:title=" ">
<path fill="none" stroke="#63b8ff" d="M1649.1,-47.86C1668.04,-52.39 1690.23,-57.69 1710.21,-62.46"/>
<polygon fill="#63b8ff" stroke="#63b8ff" points="1709.35,-65.86 1719.89,-64.78 1710.98,-59.05 1709.35,-65.86"/>
</a>
</g>
</g>
<!-- Node31 -->
<g id="Node000031" class="node">
<title>Node31</title>
<g id="a_Node000031"><a xlink:href="namespaceImGui.html#a2cd868535661cdb5671214662f3c9388" target="_top" xlink:title=" ">
<polygon fill="white" stroke="#666666" points="1297,-361.38 1111.5,-361.38 1111.5,-340.62 1297,-340.62 1297,-361.38"/>
<text text-anchor="middle" x="1204.25" y="-347.88" font-family="Helvetica,sans-Serif" font-size="10.00">ImGui::NavUpdateAnyRequestFlag</text>
</a>
</g>
</g>
<!-- Node30&#45;&gt;Node31 -->
<g id="edge38_Node000030_Node000031" class="edge">
<title>Node30&#45;&gt;Node31</title>
<g id="a_edge38_Node000030_Node000031"><a xlink:title=" ">
<path fill="none" stroke="#63b8ff" d="M1050.7,-351C1066.24,-351 1083.33,-351 1100.27,-351"/>
<polygon fill="#63b8ff" stroke="#63b8ff" points="1099.85,-354.5 1109.85,-351 1099.85,-347.5 1099.85,-354.5"/>
</a>
</g>
</g>
<!-- Node33&#45;&gt;Node2 -->
<g id="edge43_Node000033_Node000002" class="edge">
<title>Node33&#45;&gt;Node2</title>
<g id="a_edge43_Node000033_Node000002"><a xlink:title=" ">
<path fill="none" stroke="#63b8ff" d="M402.79,-387.87C426.05,-400.8 466.91,-422.33 504,-436 509.98,-438.21 516.31,-440.26 522.67,-442.14"/>
<polygon fill="#63b8ff" stroke="#63b8ff" points="521.32,-445.4 531.9,-444.75 523.22,-438.66 521.32,-445.4"/>
</a>
</g>
</g>
<!-- Node33&#45;&gt;Node33 -->
<g id="edge44_Node000033_Node000033" class="edge">
<title>Node33&#45;&gt;Node33</title>
<g id="a_edge44_Node000033_Node000033"><a xlink:title=" ">
<path fill="none" stroke="#63b8ff" d="M353.65,-387.77C342,-396.43 351.71,-405.38 382.75,-405.38 399.73,-405.38 410.32,-402.7 414.53,-398.86"/>
<polygon fill="#63b8ff" stroke="#63b8ff" points="417.96,-398.14 412.21,-389.24 411.16,-399.79 417.96,-398.14"/>
</a>
</g>
</g>
<!-- Node34&#45;&gt;Node32 -->
<g id="edge48_Node000034_Node000032" class="edge">
<title>Node34&#45;&gt;Node32</title>
<g id="a_edge48_Node000034_Node000032"><a xlink:title=" ">
<path fill="none" stroke="#63b8ff" d="M429.29,-297.22C457.94,-290.43 495.12,-281.63 525.66,-274.4"/>
<polygon fill="#63b8ff" stroke="#63b8ff" points="526.18,-277.87 535.11,-272.16 524.57,-271.06 526.18,-277.87"/>
</a>
</g>
</g>
<!-- Node35 -->
<g id="Node000035" class="node">
<title>Node35</title>
<g id="a_Node000035"><a xlink:href="structImRect.html#a748d8ae9cb26508951ec6e2f2df0625b" target="_top" xlink:title=" ">
<polygon fill="white" stroke="#666666" points="636.25,-349.38 530.25,-349.38 530.25,-328.62 636.25,-328.62 636.25,-349.38"/>
<text text-anchor="middle" x="583.25" y="-335.88" font-family="Helvetica,sans-Serif" font-size="10.00">ImRect::GetHeight</text>
</a>
</g>
</g>
<!-- Node34&#45;&gt;Node35 -->
<g id="edge46_Node000034_Node000035" class="edge">
<title>Node34&#45;&gt;Node35</title>
<g id="a_edge46_Node000034_Node000035"><a xlink:title=" ">
<path fill="none" stroke="#63b8ff" d="M453.18,-318.84C474.4,-322.16 497.63,-325.78 518.46,-329.04"/>
<polygon fill="#63b8ff" stroke="#63b8ff" points="517.84,-332.48 528.26,-330.57 518.92,-325.57 517.84,-332.48"/>
</a>
</g>
</g>
<!-- Node36 -->
<g id="Node000036" class="node">
<title>Node36</title>
<g id="a_Node000036"><a xlink:href="structImRect.html#afa75cb8491f20901c96166d17dcddac4" target="_top" xlink:title=" ">
<polygon fill="white" stroke="#666666" points="634.38,-310.38 532.12,-310.38 532.12,-289.62 634.38,-289.62 634.38,-310.38"/>
<text text-anchor="middle" x="583.25" y="-296.88" font-family="Helvetica,sans-Serif" font-size="10.00">ImRect::GetWidth</text>
</a>
</g>
</g>
<!-- Node34&#45;&gt;Node36 -->
<g id="edge47_Node000034_Node000036" class="edge">
<title>Node34&#45;&gt;Node36</title>
<g id="a_edge47_Node000034_Node000036"><a xlink:title=" ">
<path fill="none" stroke="#63b8ff" d="M468.22,-304.6C485.8,-303.89 504,-303.15 520.57,-302.49"/>
<polygon fill="#63b8ff" stroke="#63b8ff" points="520.39,-306 530.24,-302.1 520.11,-299 520.39,-306"/>
</a>
</g>
</g>
<!-- Node37 -->
<g id="Node000037" class="node">
<title>Node37</title>
<g id="a_Node000037"><a xlink:href="structImRect.html#a7f799afba3d1c61212448709d9e1a79b" target="_top" xlink:title=" ">
<polygon fill="white" stroke="#666666" points="633.62,-427.38 532.88,-427.38 532.88,-406.62 633.62,-406.62 633.62,-427.38"/>
<text text-anchor="middle" x="583.25" y="-413.88" font-family="Helvetica,sans-Serif" font-size="10.00">ImRect::Translate</text>
</a>
</g>
</g>
<!-- Node34&#45;&gt;Node37 -->
<g id="edge49_Node000034_Node000037" class="edge">
<title>Node34&#45;&gt;Node37</title>
<g id="a_edge49_Node000034_Node000037"><a xlink:title=" ">
<path fill="none" stroke="#63b8ff" d="M405.64,-318.73C423.33,-327.93 448.43,-342.16 468,-358 486.33,-372.84 483.74,-384.92 504,-397 509.55,-400.31 515.65,-403.08 521.91,-405.39"/>
<polygon fill="#63b8ff" stroke="#63b8ff" points="520.49,-408.61 531.09,-408.4 522.67,-401.96 520.49,-408.61"/>
</a>
</g>
</g>
<!-- Node38 -->
<g id="Node000038" class="node">
<title>Node38</title>
<g id="a_Node000038"><a xlink:href="namespaceImGui.html#a10d8f47027c5bea2da6d5792ada70a7f" target="_top" xlink:title=" ">
<polygon fill="white" stroke="#666666" points="661.38,-388.38 505.12,-388.38 505.12,-367.62 661.38,-367.62 661.38,-388.38"/>
<text text-anchor="middle" x="583.25" y="-374.88" font-family="Helvetica,sans-Serif" font-size="10.00">ImGui::WindowRectRelToAbs</text>
</a>
</g>
</g>
<!-- Node34&#45;&gt;Node38 -->
<g id="edge50_Node000034_Node000038" class="edge">
<title>Node34&#45;&gt;Node38</title>
<g id="a_edge50_Node000034_Node000038"><a xlink:title=" ">
<path fill="none" stroke="#63b8ff" d="M406.87,-318.79C430.81,-329.67 469.47,-346.48 504,-358 510.55,-360.18 517.47,-362.27 524.38,-364.21"/>
<polygon fill="#63b8ff" stroke="#63b8ff" points="523.15,-367.5 533.71,-366.74 524.98,-360.75 523.15,-367.5"/>
</a>
</g>
</g>
</g>
</svg>
