<?xml version="1.0" encoding="UTF-8" standalone="no"?>
<!DOCTYPE svg PUBLIC "-//W3C//DTD SVG 1.1//EN"
 "http://www.w3.org/Graphics/SVG/1.1/DTD/svg11.dtd">
<!-- Generated by graphviz version 2.43.0 (0)
 -->
<!-- Title: formats::bold Pages: 1 -->
<svg width="971pt" height="520pt"
 viewBox="0.00 0.00 971.00 519.70" xmlns="http://www.w3.org/2000/svg" xmlns:xlink="http://www.w3.org/1999/xlink">
<g id="graph0" class="graph" transform="scale(1 1) rotate(0) translate(4 515.7)">
<title>formats::bold</title>
<!-- Node1 -->
<g id="node1" class="node">
<title>Node1</title>
<g id="a_node1"><a xlink:title="Set the text format to bold.">
<polygon fill="#bfbfbf" stroke="black" points="881,-58.2 881,-77.2 963,-77.2 963,-58.2 881,-58.2"/>
<text text-anchor="middle" x="922" y="-65.2" font-family="Helvetica,sans-Serif" font-size="10.00">formats::bold</text>
</a>
</g>
</g>
<!-- Node2 -->
<g id="node2" class="node">
<title>Node2</title>
<g id="a_node2"><a xlink:href="output_8hpp.html#a1f009ce0a12690c37c88f2adfe9d2e1e" target="_top" xlink:title="Prints an error message.">
<polygon fill="none" stroke="black" points="755.5,-115.2 755.5,-134.2 795.5,-134.2 795.5,-115.2 755.5,-115.2"/>
<text text-anchor="middle" x="775.5" y="-122.2" font-family="Helvetica,sans-Serif" font-size="10.00">error</text>
</a>
</g>
</g>
<!-- Node1&#45;&gt;Node2 -->
<g id="edge1" class="edge">
<title>Node1&#45;&gt;Node2</title>
<path fill="none" stroke="midnightblue" d="M895.36,-82.07C880.88,-89.79 862.28,-99.05 845,-105.7 828.76,-111.94 809.63,-117.07 795.72,-120.42"/>
<polygon fill="midnightblue" stroke="midnightblue" points="897.1,-85.11 904.22,-77.27 893.76,-78.96 897.1,-85.11"/>
</g>
<!-- Node25 -->
<g id="node25" class="node">
<title>Node25</title>
<g id="a_node25"><a xlink:href="output_8hpp.html#afa50372fb14acf84c371c61d2cc6585a" target="_top" xlink:title="Prints an info message.">
<polygon fill="none" stroke="black" points="758,-77.2 758,-96.2 793,-96.2 793,-77.2 758,-77.2"/>
<text text-anchor="middle" x="775.5" y="-84.2" font-family="Helvetica,sans-Serif" font-size="10.00">info</text>
</a>
</g>
</g>
<!-- Node1&#45;&gt;Node25 -->
<g id="edge28" class="edge">
<title>Node1&#45;&gt;Node25</title>
<path fill="none" stroke="midnightblue" d="M870.64,-74.32C843.58,-77.88 812,-82.03 793.16,-84.51"/>
<polygon fill="midnightblue" stroke="midnightblue" points="871.29,-77.76 880.75,-72.99 870.38,-70.82 871.29,-77.76"/>
</g>
<!-- Node27 -->
<g id="node27" class="node">
<title>Node27</title>
<g id="a_node27"><a xlink:href="classProgramArgs.html#a37d6e46cb7b30f1a93a8455b7ce192f0" target="_top" xlink:title="This function is used to print the possible command&#45;line arguments. Usually called when the user spec...">
<polygon fill="none" stroke="black" points="706,-39.2 706,-58.2 845,-58.2 845,-39.2 706,-39.2"/>
<text text-anchor="middle" x="775.5" y="-46.2" font-family="Helvetica,sans-Serif" font-size="10.00">ProgramArgs::printUsage</text>
</a>
</g>
</g>
<!-- Node1&#45;&gt;Node27 -->
<g id="edge31" class="edge">
<title>Node1&#45;&gt;Node27</title>
<path fill="none" stroke="midnightblue" d="M870.56,-61.06C862.31,-59.98 853.64,-58.84 845.04,-57.71"/>
<polygon fill="midnightblue" stroke="midnightblue" points="870.38,-64.57 880.75,-62.4 871.29,-57.63 870.38,-64.57"/>
</g>
<!-- Node28 -->
<g id="node28" class="node">
<title>Node28</title>
<g id="a_node28"><a xlink:href="output_8hpp.html#a4a49ff5b1e760d5e8b77261236222156" target="_top" xlink:title="Prints a warning message.">
<polygon fill="none" stroke="black" points="747.5,-1.2 747.5,-20.2 803.5,-20.2 803.5,-1.2 747.5,-1.2"/>
<text text-anchor="middle" x="775.5" y="-8.2" font-family="Helvetica,sans-Serif" font-size="10.00">warning</text>
</a>
</g>
</g>
<!-- Node1&#45;&gt;Node28 -->
<g id="edge32" class="edge">
<title>Node1&#45;&gt;Node28</title>
<path fill="none" stroke="midnightblue" d="M895.36,-53.32C880.88,-45.6 862.28,-36.34 845,-29.7 831.64,-24.56 816.32,-20.17 803.56,-16.92"/>
<polygon fill="midnightblue" stroke="midnightblue" points="893.76,-56.44 904.22,-58.13 897.1,-50.28 893.76,-56.44"/>
</g>
<!-- Node3 -->
<g id="node3" class="node">
<title>Node3</title>
<g id="a_node3"><a xlink:href="classTestCase.html#a0d11e5a480783f9a30c443c28a6a7cae" target="_top" xlink:title="Asserts a given condition and logs the condition name if it fails.">
<polygon fill="none" stroke="black" points="556.5,-77.2 556.5,-96.2 652.5,-96.2 652.5,-77.2 556.5,-77.2"/>
<text text-anchor="middle" x="604.5" y="-84.2" font-family="Helvetica,sans-Serif" font-size="10.00">TestCase::assert</text>
</a>
</g>
</g>
<!-- Node2&#45;&gt;Node3 -->
<g id="edge2" class="edge">
<title>Node2&#45;&gt;Node3</title>
<path fill="none" stroke="midnightblue" d="M745.52,-118.18C718.69,-112.15 678.47,-103.1 648.01,-96.25"/>
<polygon fill="midnightblue" stroke="midnightblue" points="744.92,-121.63 755.44,-120.41 746.45,-114.8 744.92,-121.63"/>
</g>
<!-- Node4 -->
<g id="node4" class="node">
<title>Node4</title>
<g id="a_node4"><a xlink:href="baseConvert_8cpp.html#a6443634f54179f61c6e58098cbb32210" target="_top" xlink:title=" ">
<polygon fill="none" stroke="black" points="408.5,-188.2 408.5,-207.2 486.5,-207.2 486.5,-188.2 408.5,-188.2"/>
<text text-anchor="middle" x="447.5" y="-195.2" font-family="Helvetica,sans-Serif" font-size="10.00">baseConvert</text>
</a>
</g>
</g>
<!-- Node2&#45;&gt;Node4 -->
<g id="edge3" class="edge">
<title>Node2&#45;&gt;Node4</title>
<path fill="none" stroke="midnightblue" d="M745.27,-131.24C686.14,-144.48 552.36,-174.44 486.53,-189.18"/>
<polygon fill="midnightblue" stroke="midnightblue" points="746.09,-134.64 755.08,-129.04 744.56,-127.81 746.09,-134.64"/>
</g>
<!-- Node6 -->
<g id="node6" class="node">
<title>Node6</title>
<g id="a_node6"><a xlink:href="basicArithm_8hpp.html#aedf78136562346db852758c848f8e83d" target="_top" xlink:title="Converts a string representation of a number from one base to another.">
<polygon fill="none" stroke="black" points="92,-131.2 92,-150.2 186,-150.2 186,-131.2 92,-131.2"/>
<text text-anchor="middle" x="139" y="-138.2" font-family="Helvetica,sans-Serif" font-size="10.00">decimalConvert</text>
</a>
</g>
</g>
<!-- Node2&#45;&gt;Node6 -->
<g id="edge5" class="edge">
<title>Node2&#45;&gt;Node6</title>
<path fill="none" stroke="midnightblue" d="M745.05,-125.44C643.82,-127.99 309.62,-136.42 186.27,-139.53"/>
<polygon fill="midnightblue" stroke="midnightblue" points="745.26,-128.93 755.16,-125.18 745.08,-121.94 745.26,-128.93"/>
</g>
<!-- Node8 -->
<g id="node8" class="node">
<title>Node8</title>
<g id="a_node8"><a xlink:href="basicArithm_8hpp.html#acb4215189a8d1cfd37f4f6fe13890a8f" target="_top" xlink:title="Divides a string representation of a number by another string representation of a number.">
<polygon fill="none" stroke="black" points="581,-245.2 581,-264.2 628,-264.2 628,-245.2 581,-245.2"/>
<text text-anchor="middle" x="604.5" y="-252.2" font-family="Helvetica,sans-Serif" font-size="10.00">divide</text>
</a>
</g>
</g>
<!-- Node2&#45;&gt;Node8 -->
<g id="edge7" class="edge">
<title>Node2&#45;&gt;Node8</title>
<path fill="none" stroke="midnightblue" d="M760.16,-142.19C741.35,-164.24 706.42,-202.24 670,-226.7 657.03,-235.41 640.9,-242.41 628.02,-247.23"/>
<polygon fill="midnightblue" stroke="midnightblue" points="763.02,-144.22 766.77,-134.31 757.66,-139.72 763.02,-144.22"/>
</g>
<!-- Node24 -->
<g id="node24" class="node">
<title>Node24</title>
<g id="a_node24"><a xlink:href="basicArithm_8hpp.html#a4e1bb2f02ee5d9df627a57d0899ac07b" target="_top" xlink:title="Executes a given predicate function a specified number of times.">
<polygon fill="none" stroke="black" points="585.5,-198.2 585.5,-217.2 623.5,-217.2 623.5,-198.2 585.5,-198.2"/>
<text text-anchor="middle" x="604.5" y="-205.2" font-family="Helvetica,sans-Serif" font-size="10.00">loop</text>
</a>
</g>
</g>
<!-- Node2&#45;&gt;Node24 -->
<g id="edge26" class="edge">
<title>Node2&#45;&gt;Node24</title>
<path fill="none" stroke="midnightblue" d="M747.56,-139.13C726.58,-150.25 696.63,-165.84 670,-178.7 654.52,-186.17 636.68,-194.14 623.69,-199.83"/>
<polygon fill="midnightblue" stroke="midnightblue" points="749.34,-142.15 756.53,-134.36 746.05,-135.97 749.34,-142.15"/>
</g>
<!-- Node5 -->
<g id="node5" class="node">
<title>Node5</title>
<g id="a_node5"><a xlink:href="baseConvert_8cpp.html#ae66f6b31b5ad750f1fe042a706a4e3d4" target="_top" xlink:title=" ">
<polygon fill="none" stroke="black" points="276,-188.2 276,-207.2 317,-207.2 317,-188.2 276,-188.2"/>
<text text-anchor="middle" x="296.5" y="-195.2" font-family="Helvetica,sans-Serif" font-size="10.00">main</text>
</a>
</g>
</g>
<!-- Node4&#45;&gt;Node5 -->
<g id="edge4" class="edge">
<title>Node4&#45;&gt;Node5</title>
<path fill="none" stroke="midnightblue" d="M397.89,-197.7C370.38,-197.7 337.49,-197.7 317.05,-197.7"/>
<polygon fill="midnightblue" stroke="midnightblue" points="398.13,-201.2 408.13,-197.7 398.13,-194.2 398.13,-201.2"/>
</g>
<!-- Node7 -->
<g id="node7" class="node">
<title>Node7</title>
<g id="a_node7"><a xlink:href="decimalConvert_8cpp.html#ac2c7bcd6d73ca32ee42312d0fa0b1aa9" target="_top" xlink:title=" ">
<polygon fill="none" stroke="black" points="0,-131.2 0,-150.2 41,-150.2 41,-131.2 0,-131.2"/>
<text text-anchor="middle" x="20.5" y="-138.2" font-family="Helvetica,sans-Serif" font-size="10.00">main</text>
</a>
</g>
</g>
<!-- Node6&#45;&gt;Node7 -->
<g id="edge6" class="edge">
<title>Node6&#45;&gt;Node7</title>
<path fill="none" stroke="midnightblue" d="M81.89,-140.7C67.24,-140.7 52.42,-140.7 41.12,-140.7"/>
<polygon fill="midnightblue" stroke="midnightblue" points="81.96,-144.2 91.96,-140.7 81.96,-137.2 81.96,-144.2"/>
</g>
<!-- Node8&#45;&gt;Node4 -->
<g id="edge8" class="edge">
<title>Node8&#45;&gt;Node4</title>
<path fill="none" stroke="midnightblue" d="M571.39,-242.31C551.7,-234.78 525.95,-225.03 503,-216.7 494.34,-213.55 484.86,-210.21 476.28,-207.22"/>
<polygon fill="midnightblue" stroke="midnightblue" points="570.22,-245.61 580.81,-245.92 572.73,-239.08 570.22,-245.61"/>
</g>
<!-- Node9 -->
<g id="node9" class="node">
<title>Node9</title>
<g id="a_node9"><a xlink:href="basicArithm_8hpp.html#a3b20eba6c9046b375489c668443c165d" target="_top" xlink:title=" ">
<polygon fill="none" stroke="black" points="392,-454.2 392,-473.2 503,-473.2 503,-454.2 392,-454.2"/>
<text text-anchor="middle" x="447.5" y="-461.2" font-family="Helvetica,sans-Serif" font-size="10.00">divideWithQuotient</text>
</a>
</g>
</g>
<!-- Node8&#45;&gt;Node9 -->
<g id="edge9" class="edge">
<title>Node8&#45;&gt;Node9</title>
<path fill="none" stroke="midnightblue" d="M592.79,-273.12C575.41,-302.47 539.35,-361.16 503,-406.7 488.82,-424.46 470.12,-443.15 458.71,-454.1"/>
<polygon fill="midnightblue" stroke="midnightblue" points="595.89,-274.75 597.94,-264.35 589.86,-271.2 595.89,-274.75"/>
</g>
<!-- Node11 -->
<g id="node11" class="node">
<title>Node11</title>
<g id="a_node11"><a xlink:href="division_8cpp.html#a065a3ee9a7ec43a06ab2fddbc3019a17" target="_top" xlink:title=" ">
<polygon fill="none" stroke="black" points="427,-378.2 427,-397.2 468,-397.2 468,-378.2 427,-378.2"/>
<text text-anchor="middle" x="447.5" y="-385.2" font-family="Helvetica,sans-Serif" font-size="10.00">main</text>
</a>
</g>
</g>
<!-- Node8&#45;&gt;Node11 -->
<g id="edge11" class="edge">
<title>Node8&#45;&gt;Node11</title>
<path fill="none" stroke="midnightblue" d="M591.87,-272.98C575.09,-297.95 541.83,-342.59 503,-368.7 492.44,-375.8 478.94,-380.53 468.02,-383.49"/>
<polygon fill="midnightblue" stroke="midnightblue" points="594.9,-274.73 597.46,-264.45 589.05,-270.89 594.9,-274.73"/>
</g>
<!-- Node12 -->
<g id="node12" class="node">
<title>Node12</title>
<g id="a_node12"><a xlink:href="classNumber.html#a149a0b50f21e5e73af612d3d7b8fecb7" target="_top" xlink:title="Divides two numbers.">
<polygon fill="none" stroke="black" points="394.5,-150.2 394.5,-169.2 500.5,-169.2 500.5,-150.2 394.5,-150.2"/>
<text text-anchor="middle" x="447.5" y="-157.2" font-family="Helvetica,sans-Serif" font-size="10.00">Number::operator/</text>
</a>
</g>
</g>
<!-- Node8&#45;&gt;Node12 -->
<g id="edge12" class="edge">
<title>Node8&#45;&gt;Node12</title>
<path fill="none" stroke="midnightblue" d="M571.1,-244.44C560.22,-240.04 548.46,-234.17 539,-226.7 518.07,-210.17 524.53,-194.44 503,-178.7 497.74,-174.85 491.64,-171.73 485.46,-169.22"/>
<polygon fill="midnightblue" stroke="midnightblue" points="570.16,-247.82 580.75,-248.07 572.62,-241.27 570.16,-247.82"/>
</g>
<!-- Node13 -->
<g id="node13" class="node">
<title>Node13</title>
<g id="a_node13"><a xlink:href="powerReport_8cpp.html#afff5f8aa771cf432836ef03f6f442dae" target="_top" xlink:title="Reports a power operation.">
<polygon fill="none" stroke="black" points="409.5,-226.2 409.5,-245.2 485.5,-245.2 485.5,-226.2 409.5,-226.2"/>
<text text-anchor="middle" x="447.5" y="-233.2" font-family="Helvetica,sans-Serif" font-size="10.00">reportPower</text>
</a>
</g>
</g>
<!-- Node8&#45;&gt;Node13 -->
<g id="edge13" class="edge">
<title>Node8&#45;&gt;Node13</title>
<path fill="none" stroke="midnightblue" d="M570.93,-250.7C546.05,-247.65 511.74,-243.45 485.76,-240.26"/>
<polygon fill="midnightblue" stroke="midnightblue" points="570.61,-254.19 580.96,-251.93 571.46,-247.24 570.61,-254.19"/>
</g>
<!-- Node18 -->
<g id="node18" class="node">
<title>Node18</title>
<g id="a_node18"><a xlink:href="classFraction.html#a6a5092eb855dac602718b19eb7fe0d6d" target="_top" xlink:title="Simplifies a fraction. This function simplifies the fraction by dividing the top and bottom component...">
<polygon fill="none" stroke="black" points="397,-340.2 397,-359.2 498,-359.2 498,-340.2 397,-340.2"/>
<text text-anchor="middle" x="447.5" y="-347.2" font-family="Helvetica,sans-Serif" font-size="10.00">Fraction::simplify</text>
</a>
</g>
</g>
<!-- Node8&#45;&gt;Node18 -->
<g id="edge20" class="edge">
<title>Node8&#45;&gt;Node18</title>
<path fill="none" stroke="midnightblue" d="M579,-269.71C546.84,-289.42 491.32,-323.45 464.26,-340.04"/>
<polygon fill="midnightblue" stroke="midnightblue" points="581.09,-272.54 587.78,-264.33 577.43,-266.57 581.09,-272.54"/>
</g>
<!-- Node10 -->
<g id="node10" class="node">
<title>Node10</title>
<g id="a_node10"><a xlink:href="classNumber.html#ad8409f892bbe8cb1be5b4385914b40b2" target="_top" xlink:title="Calculates the remainder of two numbers. (Modulus)">
<polygon fill="none" stroke="black" points="240,-492.2 240,-511.2 353,-511.2 353,-492.2 240,-492.2"/>
<text text-anchor="middle" x="296.5" y="-499.2" font-family="Helvetica,sans-Serif" font-size="10.00">Number::operator%</text>
</a>
</g>
</g>
<!-- Node9&#45;&gt;Node10 -->
<g id="edge10" class="edge">
<title>Node9&#45;&gt;Node10</title>
<path fill="none" stroke="midnightblue" d="M399.01,-475.81C378.26,-481.1 354.27,-487.22 334.83,-492.18"/>
<polygon fill="midnightblue" stroke="midnightblue" points="400.08,-479.15 408.9,-473.28 398.35,-472.36 400.08,-479.15"/>
</g>
<!-- Node14 -->
<g id="node14" class="node">
<title>Node14</title>
<g id="a_node14"><a xlink:href="basicArithm_8hpp.html#a5967cef8aeb4f6ea90014159becd286d" target="_top" xlink:title="Raises a string representation of a number to a power.">
<polygon fill="none" stroke="black" points="273,-226.2 273,-245.2 320,-245.2 320,-226.2 273,-226.2"/>
<text text-anchor="middle" x="296.5" y="-233.2" font-family="Helvetica,sans-Serif" font-size="10.00">power</text>
</a>
</g>
</g>
<!-- Node13&#45;&gt;Node14 -->
<g id="edge14" class="edge">
<title>Node13&#45;&gt;Node14</title>
<path fill="none" stroke="midnightblue" d="M399.12,-235.7C372.79,-235.7 341.24,-235.7 320.35,-235.7"/>
<polygon fill="midnightblue" stroke="midnightblue" points="399.29,-239.2 409.29,-235.7 399.29,-232.2 399.29,-239.2"/>
</g>
<!-- Node14&#45;&gt;Node6 -->
<g id="edge15" class="edge">
<title>Node14&#45;&gt;Node6</title>
<path fill="none" stroke="midnightblue" d="M263.22,-228.36C254.32,-225.52 244.94,-221.71 237,-216.7 217.33,-204.27 219.02,-193.41 201,-178.7 187.47,-167.65 170.5,-157.32 157.89,-150.23"/>
<polygon fill="midnightblue" stroke="midnightblue" points="262.39,-231.76 272.97,-231.17 264.33,-225.04 262.39,-231.76"/>
</g>
<!-- Node15 -->
<g id="node15" class="node">
<title>Node15</title>
<g id="a_node15"><a xlink:href="division_8cpp.html#a222752517a35fde0e4de4bb32cbaa9be" target="_top" xlink:title="Determines the scale of the quotient of division.">
<polygon fill="none" stroke="black" points="77,-264.2 77,-283.2 201,-283.2 201,-264.2 77,-264.2"/>
<text text-anchor="middle" x="139" y="-271.2" font-family="Helvetica,sans-Serif" font-size="10.00">determineResultScale</text>
</a>
</g>
</g>
<!-- Node14&#45;&gt;Node15 -->
<g id="edge16" class="edge">
<title>Node14&#45;&gt;Node15</title>
<path fill="none" stroke="midnightblue" d="M263,-243.64C238.51,-249.62 204.82,-257.85 178.9,-264.19"/>
<polygon fill="midnightblue" stroke="midnightblue" points="264.01,-247 272.89,-241.22 262.34,-240.2 264.01,-247"/>
</g>
<!-- Node16 -->
<g id="node16" class="node">
<title>Node16</title>
<g id="a_node16"><a xlink:href="power_8cpp.html#a065a3ee9a7ec43a06ab2fddbc3019a17" target="_top" xlink:title=" ">
<polygon fill="none" stroke="black" points="118.5,-188.2 118.5,-207.2 159.5,-207.2 159.5,-188.2 118.5,-188.2"/>
<text text-anchor="middle" x="139" y="-195.2" font-family="Helvetica,sans-Serif" font-size="10.00">main</text>
</a>
</g>
</g>
<!-- Node14&#45;&gt;Node16 -->
<g id="edge18" class="edge">
<title>Node14&#45;&gt;Node16</title>
<path fill="none" stroke="midnightblue" d="M262.93,-227.74C231.72,-220.11 185.66,-208.85 159.68,-202.51"/>
<polygon fill="midnightblue" stroke="midnightblue" points="262.34,-231.2 272.89,-230.17 264.01,-224.4 262.34,-231.2"/>
</g>
<!-- Node17 -->
<g id="node17" class="node">
<title>Node17</title>
<g id="a_node17"><a xlink:href="classNumber.html#a98a2fe6b66184133f1261d2825875cd9" target="_top" xlink:title="Raises the number to a power.">
<polygon fill="none" stroke="black" points="83.5,-226.2 83.5,-245.2 194.5,-245.2 194.5,-226.2 83.5,-226.2"/>
<text text-anchor="middle" x="139" y="-233.2" font-family="Helvetica,sans-Serif" font-size="10.00">Number::operator^</text>
</a>
</g>
</g>
<!-- Node14&#45;&gt;Node17 -->
<g id="edge19" class="edge">
<title>Node14&#45;&gt;Node17</title>
<path fill="none" stroke="midnightblue" d="M262.85,-235.7C243.08,-235.7 217.35,-235.7 194.55,-235.7"/>
<polygon fill="midnightblue" stroke="midnightblue" points="262.89,-239.2 272.89,-235.7 262.89,-232.2 262.89,-239.2"/>
</g>
<!-- Node15&#45;&gt;Node8 -->
<g id="edge17" class="edge">
<title>Node15&#45;&gt;Node8</title>
<path fill="none" stroke="midnightblue" d="M211.13,-270.78C317.95,-266.4 514.36,-258.35 580.83,-255.63"/>
<polygon fill="midnightblue" stroke="midnightblue" points="210.92,-267.29 201.08,-271.19 211.21,-274.28 210.92,-267.29"/>
</g>
<!-- Node19 -->
<g id="node19" class="node">
<title>Node19</title>
<g id="a_node19"><a xlink:href="classFraction.html#a260e2faf8062c854a286b79591f87b65" target="_top" xlink:title="Multiplies two fractions together and stores the result in the current one. This function does it by ...">
<polygon fill="none" stroke="black" points="238.5,-454.2 238.5,-473.2 354.5,-473.2 354.5,-454.2 238.5,-454.2"/>
<text text-anchor="middle" x="296.5" y="-461.2" font-family="Helvetica,sans-Serif" font-size="10.00">Fraction::operator*=</text>
</a>
</g>
</g>
<!-- Node18&#45;&gt;Node19 -->
<g id="edge21" class="edge">
<title>Node18&#45;&gt;Node19</title>
<path fill="none" stroke="midnightblue" d="M398.11,-364.04C395.94,-365.45 393.89,-367 392,-368.7 364.2,-393.67 384.07,-420.02 356,-444.7 351.59,-448.57 346.37,-451.66 340.9,-454.12"/>
<polygon fill="midnightblue" stroke="midnightblue" points="399.78,-367.11 406.88,-359.24 396.43,-360.96 399.78,-367.11"/>
</g>
<!-- Node20 -->
<g id="node20" class="node">
<title>Node20</title>
<g id="a_node20"><a xlink:href="classFraction.html#a2c891f9bf7f6dbed8e5a8b4386ce3688" target="_top" xlink:title="Adds two fractions together and stores the result in the current one. This function does it by doing ...">
<polygon fill="none" stroke="black" points="237,-416.2 237,-435.2 356,-435.2 356,-416.2 237,-416.2"/>
<text text-anchor="middle" x="296.5" y="-423.2" font-family="Helvetica,sans-Serif" font-size="10.00">Fraction::operator+=</text>
</a>
</g>
</g>
<!-- Node18&#45;&gt;Node20 -->
<g id="edge22" class="edge">
<title>Node18&#45;&gt;Node20</title>
<path fill="none" stroke="midnightblue" d="M401.83,-363.25C398.4,-364.89 395.08,-366.7 392,-368.7 372.46,-381.33 375.67,-394.27 356,-406.7 349.95,-410.52 343.06,-413.64 336.18,-416.17"/>
<polygon fill="midnightblue" stroke="midnightblue" points="403.23,-366.45 411.04,-359.29 400.47,-360.02 403.23,-366.45"/>
</g>
<!-- Node21 -->
<g id="node21" class="node">
<title>Node21</title>
<g id="a_node21"><a xlink:href="classFraction.html#a2e3544fa85d66736287a981fe24bed1b" target="_top" xlink:title="Subtracts a fraction from another fraction and stores the result in the current one....">
<polygon fill="none" stroke="black" points="239,-378.2 239,-397.2 354,-397.2 354,-378.2 239,-378.2"/>
<text text-anchor="middle" x="296.5" y="-385.2" font-family="Helvetica,sans-Serif" font-size="10.00">Fraction::operator&#45;=</text>
</a>
</g>
</g>
<!-- Node18&#45;&gt;Node21 -->
<g id="edge23" class="edge">
<title>Node18&#45;&gt;Node21</title>
<path fill="none" stroke="midnightblue" d="M399.01,-361.81C378.26,-367.1 354.27,-373.22 334.83,-378.18"/>
<polygon fill="midnightblue" stroke="midnightblue" points="400.08,-365.15 408.9,-359.28 398.35,-358.36 400.08,-365.15"/>
</g>
<!-- Node22 -->
<g id="node22" class="node">
<title>Node22</title>
<g id="a_node22"><a xlink:href="classFraction.html#a2f92ff208c733cbd53e268c710f885d9" target="_top" xlink:title="Divides a fraction by abother fraction and stores the result in the current one. This function does i...">
<polygon fill="none" stroke="black" points="239.5,-340.2 239.5,-359.2 353.5,-359.2 353.5,-340.2 239.5,-340.2"/>
<text text-anchor="middle" x="296.5" y="-347.2" font-family="Helvetica,sans-Serif" font-size="10.00">Fraction::operator/=</text>
</a>
</g>
</g>
<!-- Node18&#45;&gt;Node22 -->
<g id="edge24" class="edge">
<title>Node18&#45;&gt;Node22</title>
<path fill="none" stroke="midnightblue" d="M386.6,-349.7C375.7,-349.7 364.37,-349.7 353.59,-349.7"/>
<polygon fill="midnightblue" stroke="midnightblue" points="386.89,-353.2 396.89,-349.7 386.89,-346.2 386.89,-353.2"/>
</g>
<!-- Node23 -->
<g id="node23" class="node">
<title>Node23</title>
<g id="a_node23"><a xlink:href="classFraction.html#a166ddec943ec4f6ded679ab8d29ebe68" target="_top" xlink:title=" ">
<polygon fill="none" stroke="black" points="247.5,-302.2 247.5,-321.2 345.5,-321.2 345.5,-302.2 247.5,-302.2"/>
<text text-anchor="middle" x="296.5" y="-309.2" font-family="Helvetica,sans-Serif" font-size="10.00">Fraction::present</text>
</a>
</g>
</g>
<!-- Node18&#45;&gt;Node23 -->
<g id="edge25" class="edge">
<title>Node18&#45;&gt;Node23</title>
<path fill="none" stroke="midnightblue" d="M399.01,-337.58C378.26,-332.29 354.27,-326.17 334.83,-321.22"/>
<polygon fill="midnightblue" stroke="midnightblue" points="398.35,-341.03 408.9,-340.11 400.08,-334.24 398.35,-341.03"/>
</g>
<!-- Node24&#45;&gt;Node13 -->
<g id="edge27" class="edge">
<title>Node24&#45;&gt;Node13</title>
<path fill="none" stroke="midnightblue" d="M575.43,-212.77C550.27,-217.31 513.19,-224.01 485.6,-228.99"/>
<polygon fill="midnightblue" stroke="midnightblue" points="576.2,-216.18 585.42,-210.96 574.95,-209.3 576.2,-216.18"/>
</g>
<!-- Node25&#45;&gt;Node3 -->
<g id="edge29" class="edge">
<title>Node25&#45;&gt;Node3</title>
<path fill="none" stroke="midnightblue" d="M747.97,-86.7C722.5,-86.7 683.47,-86.7 652.7,-86.7"/>
<polygon fill="midnightblue" stroke="midnightblue" points="747.99,-90.2 757.99,-86.7 747.99,-83.2 747.99,-90.2"/>
</g>
<!-- Node26 -->
<g id="node26" class="node">
<title>Node26</title>
<g id="a_node26"><a xlink:href="classlogging_1_1Logger.html#a5eb000375caf0992557c973f7dfaff9a" target="_top" xlink:title="Constructs a Logger object.">
<polygon fill="none" stroke="black" points="539,-39.2 539,-58.2 670,-58.2 670,-39.2 539,-39.2"/>
<text text-anchor="middle" x="604.5" y="-46.2" font-family="Helvetica,sans-Serif" font-size="10.00">logging::Logger::Logger</text>
</a>
</g>
</g>
<!-- Node25&#45;&gt;Node26 -->
<g id="edge30" class="edge">
<title>Node25&#45;&gt;Node26</title>
<path fill="none" stroke="midnightblue" d="M748.19,-80.78C721.43,-74.76 679.54,-65.34 648.05,-58.26"/>
<polygon fill="midnightblue" stroke="midnightblue" points="747.46,-84.2 757.99,-82.98 749,-77.37 747.46,-84.2"/>
</g>
<!-- Node28&#45;&gt;Node12 -->
<g id="edge33" class="edge">
<title>Node28&#45;&gt;Node12</title>
<path fill="none" stroke="midnightblue" d="M737.12,-4.42C688.12,1.83 601.12,6 539,-29.7 489.88,-57.92 461.21,-124.9 451.89,-149.99"/>
<polygon fill="midnightblue" stroke="midnightblue" points="736.88,-7.92 747.26,-5.82 737.83,-0.99 736.88,-7.92"/>
</g>
</g>
</svg>
