<?xml version="1.0" encoding="UTF-8" standalone="no"?>
<!DOCTYPE svg PUBLIC "-//W3C//DTD SVG 1.1//EN"
 "http://www.w3.org/Graphics/SVG/1.1/DTD/svg11.dtd">
<!-- Generated by graphviz version 12.0.0 (20240704.0754)
 -->
<!-- Title: ImGui::StartMouseMovingWindow Pages: 1 -->
<svg width="1396pt" height="569pt"
 viewBox="0.00 0.00 1395.75 568.60" xmlns="http://www.w3.org/2000/svg" xmlns:xlink="http://www.w3.org/1999/xlink">
<g id="graph0" class="graph" transform="scale(1 1) rotate(0) translate(4 564.6)">
<title>ImGui::StartMouseMovingWindow</title>
<!-- Node1 -->
<g id="Node000001" class="node">
<title>Node1</title>
<g id="a_Node000001"><a xlink:title=" ">
<polygon fill="#999999" stroke="#666666" points="181.75,-269.6 0,-269.6 0,-248.85 181.75,-248.85 181.75,-269.6"/>
<text text-anchor="middle" x="90.88" y="-256.1" font-family="Helvetica,sans-Serif" font-size="10.00">ImGui::StartMouseMovingWindow</text>
</a>
</g>
</g>
<!-- Node2 -->
<g id="Node000002" class="node">
<title>Node2</title>
<g id="a_Node000002"><a xlink:href="namespaceImGui.html#a27aa6f2f3aa11778c6d023b1b223f262" target="_top" xlink:title=" ">
<polygon fill="white" stroke="#666666" points="350.38,-269.6 232.38,-269.6 232.38,-248.85 350.38,-248.85 350.38,-269.6"/>
<text text-anchor="middle" x="291.38" y="-256.1" font-family="Helvetica,sans-Serif" font-size="10.00">ImGui::FocusWindow</text>
</a>
</g>
</g>
<!-- Node1&#45;&gt;Node2 -->
<g id="edge1_Node000001_Node000002" class="edge">
<title>Node1&#45;&gt;Node2</title>
<g id="a_edge1_Node000001_Node000002"><a xlink:title=" ">
<path fill="none" stroke="#63b8ff" d="M182.12,-259.22C195.06,-259.22 208.2,-259.22 220.66,-259.22"/>
<polygon fill="#63b8ff" stroke="#63b8ff" points="220.38,-262.72 230.38,-259.22 220.38,-255.72 220.38,-262.72"/>
</a>
</g>
</g>
<!-- Node11 -->
<g id="Node000011" class="node">
<title>Node11</title>
<g id="a_Node000011"><a xlink:href="namespaceImGui.html#a27b8ace13a8c421ee8405f0cbebe4ead" target="_top" xlink:title=" ">
<polygon fill="white" stroke="#666666" points="759.62,-45.6 651.38,-45.6 651.38,-24.85 759.62,-24.85 759.62,-45.6"/>
<text text-anchor="middle" x="705.5" y="-32.1" font-family="Helvetica,sans-Serif" font-size="10.00">ImGui::SetActiveID</text>
</a>
</g>
</g>
<!-- Node1&#45;&gt;Node11 -->
<g id="edge36_Node000001_Node000011" class="edge">
<title>Node1&#45;&gt;Node11</title>
<g id="a_edge36_Node000001_Node000011"><a xlink:title=" ">
<path fill="none" stroke="#63b8ff" d="M100.53,-248.52C133.94,-208.19 259.72,-65.1 401,-16.22 488.13,13.92 597.61,-5.9 658.41,-21.55"/>
<polygon fill="#63b8ff" stroke="#63b8ff" points="657.16,-24.83 667.72,-24.02 658.95,-18.07 657.16,-24.83"/>
</a>
</g>
</g>
<!-- Node29 -->
<g id="Node000029" class="node">
<title>Node29</title>
<g id="a_Node000029"><a xlink:href="namespaceImGui.html#a5e5b2b1969b119d6932116f28fbd4d53" target="_top" xlink:title=" ">
<polygon fill="white" stroke="#666666" points="365,-452.97 217.75,-452.97 217.75,-419.47 365,-419.47 365,-452.97"/>
<text text-anchor="start" x="225.75" y="-439.47" font-family="Helvetica,sans-Serif" font-size="10.00">ImGui::SetActiveIdUsingAll</text>
<text text-anchor="middle" x="291.38" y="-426.72" font-family="Helvetica,sans-Serif" font-size="10.00">KeyboardKeys</text>
</a>
</g>
</g>
<!-- Node1&#45;&gt;Node29 -->
<g id="edge37_Node000001_Node000029" class="edge">
<title>Node1&#45;&gt;Node29</title>
<g id="a_edge37_Node000001_Node000029"><a xlink:title=" ">
<path fill="none" stroke="#63b8ff" d="M103.99,-270.03C135.18,-297.83 218.82,-372.42 262.67,-411.52"/>
<polygon fill="#63b8ff" stroke="#63b8ff" points="260.22,-414.02 270.01,-418.06 264.88,-408.8 260.22,-414.02"/>
</a>
</g>
</g>
<!-- Node3 -->
<g id="Node000003" class="node">
<title>Node3</title>
<g id="a_Node000003"><a xlink:href="namespaceImGui.html#a8cae2f7a08f820a8d5349d1964603b20" target="_top" xlink:title=" ">
<polygon fill="white" stroke="#666666" points="570.38,-482.97 407.38,-482.97 407.38,-449.47 570.38,-449.47 570.38,-482.97"/>
<text text-anchor="start" x="415.38" y="-469.47" font-family="Helvetica,sans-Serif" font-size="10.00">ImGui::BringWindowToDisplay</text>
<text text-anchor="middle" x="488.88" y="-456.72" font-family="Helvetica,sans-Serif" font-size="10.00">Behind</text>
</a>
</g>
</g>
<!-- Node2&#45;&gt;Node3 -->
<g id="edge2_Node000002_Node000003" class="edge">
<title>Node2&#45;&gt;Node3</title>
<g id="a_edge2_Node000002_Node000003"><a xlink:title=" ">
<path fill="none" stroke="#63b8ff" d="M296.12,-270.07C307.18,-300.58 342.66,-388.02 401,-435.22 404.96,-438.43 409.27,-441.31 413.8,-443.91"/>
<polygon fill="#63b8ff" stroke="#63b8ff" points="412.13,-446.99 422.62,-448.45 415.34,-440.76 412.13,-446.99"/>
</a>
</g>
</g>
<!-- Node7 -->
<g id="Node000007" class="node">
<title>Node7</title>
<g id="a_Node000007"><a xlink:href="namespaceImGui.html#a1f7b95f36d03751c928af7b1b745e959" target="_top" xlink:title=" ">
<polygon fill="white" stroke="#666666" points="570.38,-392.97 407.38,-392.97 407.38,-359.47 570.38,-359.47 570.38,-392.97"/>
<text text-anchor="start" x="415.38" y="-379.47" font-family="Helvetica,sans-Serif" font-size="10.00">ImGui::BringWindowToDisplay</text>
<text text-anchor="middle" x="488.88" y="-366.72" font-family="Helvetica,sans-Serif" font-size="10.00">Front</text>
</a>
</g>
</g>
<!-- Node2&#45;&gt;Node7 -->
<g id="edge6_Node000002_Node000007" class="edge">
<title>Node2&#45;&gt;Node7</title>
<g id="a_edge6_Node000002_Node000007"><a xlink:title=" ">
<path fill="none" stroke="#63b8ff" d="M302.11,-269.83C319.95,-288.67 359.85,-328.06 401,-350.22 403.86,-351.76 406.82,-353.22 409.85,-354.61"/>
<polygon fill="#63b8ff" stroke="#63b8ff" points="408.39,-357.79 418.97,-358.43 411.1,-351.34 408.39,-357.79"/>
</a>
</g>
</g>
<!-- Node9 -->
<g id="Node000009" class="node">
<title>Node9</title>
<g id="a_Node000009"><a xlink:href="namespaceImGui.html#affe95a2dc969f0d15fbd4b588c94ac1a" target="_top" xlink:title=" ">
<polygon fill="white" stroke="#666666" points="565.88,-340.97 411.88,-340.97 411.88,-307.47 565.88,-307.47 565.88,-340.97"/>
<text text-anchor="start" x="419.88" y="-327.47" font-family="Helvetica,sans-Serif" font-size="10.00">ImGui::BringWindowToFocus</text>
<text text-anchor="middle" x="488.88" y="-314.72" font-family="Helvetica,sans-Serif" font-size="10.00">Front</text>
</a>
</g>
</g>
<!-- Node2&#45;&gt;Node9 -->
<g id="edge8_Node000002_Node000009" class="edge">
<title>Node2&#45;&gt;Node9</title>
<g id="a_edge8_Node000002_Node000009"><a xlink:title=" ">
<path fill="none" stroke="#63b8ff" d="M321.27,-270.08C343.08,-278.15 373.78,-289.27 401,-298.22 406.47,-300.02 412.15,-301.84 417.86,-303.63"/>
<polygon fill="#63b8ff" stroke="#63b8ff" points="416.83,-306.97 427.41,-306.58 418.89,-300.28 416.83,-306.97"/>
</a>
</g>
</g>
<!-- Node10 -->
<g id="Node000010" class="node">
<title>Node10</title>
<g id="a_Node000010"><a xlink:href="namespaceImGui.html#a17ff60ad1e2669130ac38a04d16eb354" target="_top" xlink:title=" ">
<polygon fill="white" stroke="#666666" points="547.88,-45.6 429.88,-45.6 429.88,-24.85 547.88,-24.85 547.88,-45.6"/>
<text text-anchor="middle" x="488.88" y="-32.1" font-family="Helvetica,sans-Serif" font-size="10.00">ImGui::ClearActiveID</text>
</a>
</g>
</g>
<!-- Node2&#45;&gt;Node10 -->
<g id="edge10_Node000002_Node000010" class="edge">
<title>Node2&#45;&gt;Node10</title>
<g id="a_edge10_Node000002_Node000010"><a xlink:title=" ">
<path fill="none" stroke="#63b8ff" d="M294.64,-248.69C302.57,-214.58 332.35,-106.35 401,-54.22 406.49,-50.06 412.7,-46.76 419.22,-44.17"/>
<polygon fill="#63b8ff" stroke="#63b8ff" points="419.87,-47.64 428.23,-41.13 417.63,-41.01 419.87,-47.64"/>
</a>
</g>
</g>
<!-- Node16 -->
<g id="Node000016" class="node">
<title>Node16</title>
<g id="a_Node000016"><a xlink:href="namespaceImGui.html#a0076b153c697cb85e263fcbd59340bce" target="_top" xlink:title=" ">
<polygon fill="white" stroke="#666666" points="576.75,-250.6 401,-250.6 401,-229.85 576.75,-229.85 576.75,-250.6"/>
<text text-anchor="middle" x="488.88" y="-237.1" font-family="Helvetica,sans-Serif" font-size="10.00">ImGui::ClosePopupsOverWindow</text>
</a>
</g>
</g>
<!-- Node2&#45;&gt;Node16 -->
<g id="edge16_Node000002_Node000016" class="edge">
<title>Node2&#45;&gt;Node16</title>
<g id="a_edge16_Node000002_Node000016"><a xlink:title=" ">
<path fill="none" stroke="#63b8ff" d="M350.77,-253.55C363.07,-252.35 376.38,-251.06 389.69,-249.76"/>
<polygon fill="#63b8ff" stroke="#63b8ff" points="389.74,-253.28 399.35,-248.83 389.06,-246.31 389.74,-253.28"/>
</a>
</g>
</g>
<!-- Node21 -->
<g id="Node000021" class="node">
<title>Node21</title>
<g id="a_Node000021"><a xlink:href="namespaceImGui.html#a196705a4195b41a57470ef6553cb440c" target="_top" xlink:title=" ">
<polygon fill="white" stroke="#666666" points="560.62,-289.6 417.12,-289.6 417.12,-268.85 560.62,-268.85 560.62,-289.6"/>
<text text-anchor="middle" x="488.88" y="-276.1" font-family="Helvetica,sans-Serif" font-size="10.00">ImGui::FindBlockingModal</text>
</a>
</g>
</g>
<!-- Node2&#45;&gt;Node21 -->
<g id="edge24_Node000002_Node000021" class="edge">
<title>Node2&#45;&gt;Node21</title>
<g id="a_edge24_Node000002_Node000021"><a xlink:title=" ">
<path fill="none" stroke="#63b8ff" d="M350.77,-265.2C367.91,-266.95 386.99,-268.9 405.34,-270.78"/>
<polygon fill="#63b8ff" stroke="#63b8ff" points="404.84,-274.25 415.15,-271.78 405.55,-267.28 404.84,-274.25"/>
</a>
</g>
</g>
<!-- Node22 -->
<g id="Node000022" class="node">
<title>Node22</title>
<g id="a_Node000022"><a xlink:href="namespaceImGui.html#a6b905269b079f5e07755db52cc6e52df" target="_top" xlink:title=" ">
<polygon fill="white" stroke="#666666" points="573.38,-211.6 404.38,-211.6 404.38,-190.85 573.38,-190.85 573.38,-211.6"/>
<text text-anchor="middle" x="488.88" y="-198.1" font-family="Helvetica,sans-Serif" font-size="10.00">ImGui::GetTopMostPopupModal</text>
</a>
</g>
</g>
<!-- Node2&#45;&gt;Node22 -->
<g id="edge26_Node000002_Node000022" class="edge">
<title>Node2&#45;&gt;Node22</title>
<g id="a_edge26_Node000002_Node000022"><a xlink:title=" ">
<path fill="none" stroke="#63b8ff" d="M320.69,-248.35C342.45,-240.24 373.36,-229.21 401,-221.22 408.87,-218.95 417.2,-216.76 425.46,-214.72"/>
<polygon fill="#63b8ff" stroke="#63b8ff" points="426.27,-218.12 435.17,-212.38 424.63,-211.32 426.27,-218.12"/>
</a>
</g>
</g>
<!-- Node23 -->
<g id="Node000023" class="node">
<title>Node23</title>
<g id="a_Node000023"><a xlink:href="namespaceImGui.html#ae9ed208c0b64e4919e5de1cb83b2db2a" target="_top" xlink:title=" ">
<polygon fill="white" stroke="#666666" points="565.5,-96.97 412.25,-96.97 412.25,-63.47 565.5,-63.47 565.5,-96.97"/>
<text text-anchor="start" x="420.25" y="-83.47" font-family="Helvetica,sans-Serif" font-size="10.00">ImGui::NavRestoreLastChild</text>
<text text-anchor="middle" x="488.88" y="-70.72" font-family="Helvetica,sans-Serif" font-size="10.00">NavWindow</text>
</a>
</g>
</g>
<!-- Node2&#45;&gt;Node23 -->
<g id="edge27_Node000002_Node000023" class="edge">
<title>Node2&#45;&gt;Node23</title>
<g id="a_edge27_Node000002_Node000023"><a xlink:title=" ">
<path fill="none" stroke="#63b8ff" d="M297.35,-248.59C310.47,-221.68 348.6,-150.25 401,-111.22 405.35,-107.98 410.06,-105.06 414.97,-102.43"/>
<polygon fill="#63b8ff" stroke="#63b8ff" points="416.45,-105.6 423.91,-98.07 413.39,-99.3 416.45,-105.6"/>
</a>
</g>
</g>
<!-- Node25 -->
<g id="Node000025" class="node">
<title>Node25</title>
<g id="a_Node000025"><a xlink:href="namespaceImGui.html#ada2736a9b034b93ba877f46577bc5e8b" target="_top" xlink:title=" ">
<polygon fill="white" stroke="#666666" points="993.5,-135.6 850,-135.6 850,-114.85 993.5,-114.85 993.5,-135.6"/>
<text text-anchor="middle" x="921.75" y="-122.1" font-family="Helvetica,sans-Serif" font-size="10.00">ImGui::SetNavFocusScope</text>
</a>
</g>
</g>
<!-- Node2&#45;&gt;Node25 -->
<g id="edge29_Node000002_Node000025" class="edge">
<title>Node2&#45;&gt;Node25</title>
<g id="a_edge29_Node000002_Node000025"><a xlink:title=" ">
<path fill="none" stroke="#63b8ff" d="M300.55,-248.63C316.99,-228.22 356.34,-183.84 401,-165.22 545.87,-104.81 732.99,-107.9 838.63,-116.17"/>
<polygon fill="#63b8ff" stroke="#63b8ff" points="838.09,-119.64 848.34,-116.97 838.66,-112.66 838.09,-119.64"/>
</a>
</g>
</g>
<!-- Node27 -->
<g id="Node000027" class="node">
<title>Node27</title>
<g id="a_Node000027"><a xlink:href="namespaceImGui.html#aa422c756f467e650d67b4fb1b74ff5a1" target="_top" xlink:title=" ">
<polygon fill="white" stroke="#666666" points="551.62,-521.6 426.12,-521.6 426.12,-500.85 551.62,-500.85 551.62,-521.6"/>
<text text-anchor="middle" x="488.88" y="-508.1" font-family="Helvetica,sans-Serif" font-size="10.00">ImGui::SetNavWindow</text>
</a>
</g>
</g>
<!-- Node2&#45;&gt;Node27 -->
<g id="edge34_Node000002_Node000027" class="edge">
<title>Node2&#45;&gt;Node27</title>
<g id="a_edge34_Node000002_Node000027"><a xlink:title=" ">
<path fill="none" stroke="#63b8ff" d="M297.61,-269.78C309.73,-294.31 340.57,-357.1 365,-410.22 381.63,-446.38 370.21,-467 401,-492.22 405.26,-495.71 410.01,-498.59 415.04,-500.97"/>
<polygon fill="#63b8ff" stroke="#63b8ff" points="413.69,-504.2 424.28,-504.63 416.27,-497.69 413.69,-504.2"/>
</a>
</g>
</g>
<!-- Node4 -->
<g id="Node000004" class="node">
<title>Node4</title>
<g id="a_Node000004"><a xlink:href="namespaceImGui.html#acc8dfbe9f52370fe2b95f6c948ba113e" target="_top" xlink:title=" ">
<polygon fill="white" stroke="#666666" points="779.12,-482.97 631.88,-482.97 631.88,-449.47 779.12,-449.47 779.12,-482.97"/>
<text text-anchor="start" x="639.88" y="-469.47" font-family="Helvetica,sans-Serif" font-size="10.00">ImGui::FindWindowDisplay</text>
<text text-anchor="middle" x="705.5" y="-456.72" font-family="Helvetica,sans-Serif" font-size="10.00">Index</text>
</a>
</g>
</g>
<!-- Node3&#45;&gt;Node4 -->
<g id="edge3_Node000003_Node000004" class="edge">
<title>Node3&#45;&gt;Node4</title>
<g id="a_edge3_Node000003_Node000004"><a xlink:title=" ">
<path fill="none" stroke="#63b8ff" d="M570.71,-466.22C586.93,-466.22 604.01,-466.22 620.34,-466.22"/>
<polygon fill="#63b8ff" stroke="#63b8ff" points="619.99,-469.72 629.99,-466.22 619.99,-462.72 619.99,-469.72"/>
</a>
</g>
</g>
<!-- Node5 -->
<g id="Node000005" class="node">
<title>Node5</title>
<g id="a_Node000005"><a xlink:href="structImVector.html#a406417c3efef769d4bee47df2188831a" target="_top" xlink:title=" ">
<polygon fill="white" stroke="#666666" points="963.5,-495.6 880,-495.6 880,-474.85 963.5,-474.85 963.5,-495.6"/>
<text text-anchor="middle" x="921.75" y="-482.1" font-family="Helvetica,sans-Serif" font-size="10.00">ImVector::find</text>
</a>
</g>
</g>
<!-- Node4&#45;&gt;Node5 -->
<g id="edge4_Node000004_Node000005" class="edge">
<title>Node4&#45;&gt;Node5</title>
<g id="a_edge4_Node000004_Node000005"><a xlink:title=" ">
<path fill="none" stroke="#63b8ff" d="M779.33,-472.68C808.5,-475.27 841.46,-478.19 868.21,-480.56"/>
<polygon fill="#63b8ff" stroke="#63b8ff" points="867.87,-484.05 878.14,-481.44 868.49,-477.07 867.87,-484.05"/>
</a>
</g>
</g>
<!-- Node6 -->
<g id="Node000006" class="node">
<title>Node6</title>
<g id="a_Node000006"><a xlink:href="structImVector.html#a3fd48379f807eeb01fb9da39afa30dc7" target="_top" xlink:title=" ">
<polygon fill="white" stroke="#666666" points="991.62,-456.6 851.88,-456.6 851.88,-435.85 991.62,-435.85 991.62,-456.6"/>
<text text-anchor="middle" x="921.75" y="-443.1" font-family="Helvetica,sans-Serif" font-size="10.00">ImVector::index_from_ptr</text>
</a>
</g>
</g>
<!-- Node4&#45;&gt;Node6 -->
<g id="edge5_Node000004_Node000006" class="edge">
<title>Node4&#45;&gt;Node6</title>
<g id="a_edge5_Node000004_Node000006"><a xlink:title=" ">
<path fill="none" stroke="#63b8ff" d="M779.33,-459.42C799,-457.59 820.38,-455.59 840.43,-453.72"/>
<polygon fill="#63b8ff" stroke="#63b8ff" points="840.6,-457.22 850.23,-452.81 839.94,-450.25 840.6,-457.22"/>
</a>
</g>
</g>
<!-- Node8 -->
<g id="Node000008" class="node">
<title>Node8</title>
<g id="a_Node000008"><a xlink:href="structImVector.html#a2d80e87e81b1b01143c8d8be93e6fde1" target="_top" xlink:title=" ">
<polygon fill="white" stroke="#666666" points="749.88,-360.6 661.12,-360.6 661.12,-339.85 749.88,-339.85 749.88,-360.6"/>
<text text-anchor="middle" x="705.5" y="-347.1" font-family="Helvetica,sans-Serif" font-size="10.00">ImVector::back</text>
</a>
</g>
</g>
<!-- Node7&#45;&gt;Node8 -->
<g id="edge7_Node000007_Node000008" class="edge">
<title>Node7&#45;&gt;Node8</title>
<g id="a_edge7_Node000007_Node000008"><a xlink:title=" ">
<path fill="none" stroke="#63b8ff" d="M570.71,-366.43C596.95,-363.25 625.45,-359.8 649.38,-356.9"/>
<polygon fill="#63b8ff" stroke="#63b8ff" points="649.71,-360.38 659.22,-355.71 648.87,-353.44 649.71,-360.38"/>
</a>
</g>
</g>
<!-- Node9&#45;&gt;Node8 -->
<g id="edge9_Node000009_Node000008" class="edge">
<title>Node9&#45;&gt;Node8</title>
<g id="a_edge9_Node000009_Node000008"><a xlink:title=" ">
<path fill="none" stroke="#63b8ff" d="M566.15,-333.46C593.63,-336.79 624.08,-340.48 649.4,-343.55"/>
<polygon fill="#63b8ff" stroke="#63b8ff" points="648.79,-347 659.14,-344.73 649.64,-340.05 648.79,-347"/>
</a>
</g>
</g>
<!-- Node10&#45;&gt;Node11 -->
<g id="edge11_Node000010_Node000011" class="edge">
<title>Node10&#45;&gt;Node11</title>
<g id="a_edge11_Node000010_Node000011"><a xlink:title=" ">
<path fill="none" stroke="#63b8ff" d="M548.24,-35.22C576.51,-35.22 610.55,-35.22 639.64,-35.22"/>
<polygon fill="#63b8ff" stroke="#63b8ff" points="639.42,-38.72 649.42,-35.22 639.42,-31.72 639.42,-38.72"/>
</a>
</g>
</g>
<!-- Node12 -->
<g id="Node000012" class="node">
<title>Node12</title>
<g id="a_Node000012"><a xlink:href="namespaceImGui.html#aad9419cf6e296c668807e3af4bfd62bb" target="_top" xlink:title=" ">
<polygon fill="white" stroke="#666666" points="1009.25,-71.6 834.25,-71.6 834.25,-50.85 1009.25,-50.85 1009.25,-71.6"/>
<text text-anchor="middle" x="921.75" y="-58.1" font-family="Helvetica,sans-Serif" font-size="10.00">ImGui::InputTextDeactivateHook</text>
</a>
</g>
</g>
<!-- Node11&#45;&gt;Node12 -->
<g id="edge12_Node000011_Node000012" class="edge">
<title>Node11&#45;&gt;Node12</title>
<g id="a_edge12_Node000011_Node000012"><a xlink:title=" ">
<path fill="none" stroke="#63b8ff" d="M760.01,-41.72C779.01,-44.02 801.04,-46.69 822.58,-49.31"/>
<polygon fill="#63b8ff" stroke="#63b8ff" points="821.93,-52.76 832.28,-50.49 822.78,-45.81 821.93,-52.76"/>
</a>
</g>
</g>
<!-- Node13 -->
<g id="Node000013" class="node">
<title>Node13</title>
<g id="a_Node000013"><a xlink:href="structImVector.html#ac371dd62e56ae486b1a5038cf07eee56" target="_top" xlink:title=" ">
<polygon fill="white" stroke="#666666" points="1175.25,-154.6 1080.5,-154.6 1080.5,-133.85 1175.25,-133.85 1175.25,-154.6"/>
<text text-anchor="middle" x="1127.88" y="-141.1" font-family="Helvetica,sans-Serif" font-size="10.00">ImVector::resize</text>
</a>
</g>
</g>
<!-- Node12&#45;&gt;Node13 -->
<g id="edge13_Node000012_Node000013" class="edge">
<title>Node12&#45;&gt;Node13</title>
<g id="a_edge13_Node000012_Node000013"><a xlink:title=" ">
<path fill="none" stroke="#63b8ff" d="M943.51,-72.06C977.06,-89.55 1040.01,-122.27 1045.25,-124.22 1052.86,-127.07 1061.02,-129.62 1069.14,-131.87"/>
<polygon fill="#63b8ff" stroke="#63b8ff" points="1068.09,-135.22 1078.65,-134.38 1069.87,-128.45 1068.09,-135.22"/>
</a>
</g>
</g>
<!-- Node14 -->
<g id="Node000014" class="node">
<title>Node14</title>
<g id="a_Node000014"><a xlink:href="structImVector.html#a3a097635d464b1b70dc7d59996a88b28" target="_top" xlink:title=" ">
<polygon fill="white" stroke="#666666" points="1387.75,-115.6 1246.5,-115.6 1246.5,-94.85 1387.75,-94.85 1387.75,-115.6"/>
<text text-anchor="middle" x="1317.12" y="-102.1" font-family="Helvetica,sans-Serif" font-size="10.00">ImVector::_grow_capacity</text>
</a>
</g>
</g>
<!-- Node13&#45;&gt;Node14 -->
<g id="edge14_Node000013_Node000014" class="edge">
<title>Node13&#45;&gt;Node14</title>
<g id="a_edge14_Node000013_Node000014"><a xlink:title=" ">
<path fill="none" stroke="#63b8ff" d="M1175.64,-134.48C1199.04,-129.61 1227.71,-123.64 1253.03,-118.36"/>
<polygon fill="#63b8ff" stroke="#63b8ff" points="1253.46,-121.85 1262.54,-116.38 1252.03,-115 1253.46,-121.85"/>
</a>
</g>
</g>
<!-- Node15 -->
<g id="Node000015" class="node">
<title>Node15</title>
<g id="a_Node000015"><a xlink:href="structImVector.html#a0f14f5736c3372157856eebb67123b75" target="_top" xlink:title=" ">
<polygon fill="white" stroke="#666666" points="1368.25,-154.6 1266,-154.6 1266,-133.85 1368.25,-133.85 1368.25,-154.6"/>
<text text-anchor="middle" x="1317.12" y="-141.1" font-family="Helvetica,sans-Serif" font-size="10.00">ImVector::reserve</text>
</a>
</g>
</g>
<!-- Node13&#45;&gt;Node15 -->
<g id="edge15_Node000013_Node000015" class="edge">
<title>Node13&#45;&gt;Node15</title>
<g id="a_edge15_Node000013_Node000015"><a xlink:title=" ">
<path fill="none" stroke="#63b8ff" d="M1175.64,-144.22C1199.41,-144.22 1228.6,-144.22 1254.21,-144.22"/>
<polygon fill="#63b8ff" stroke="#63b8ff" points="1254.18,-147.72 1264.17,-144.22 1254.17,-140.72 1254.18,-147.72"/>
</a>
</g>
</g>
<!-- Node17 -->
<g id="Node000017" class="node">
<title>Node17</title>
<g id="a_Node000017"><a xlink:href="namespaceImGui.html#a0be705dc533a62387dc39ec5c276d2a0" target="_top" xlink:title=" ">
<polygon fill="white" stroke="#666666" points="778,-220.6 633,-220.6 633,-199.85 778,-199.85 778,-220.6"/>
<text text-anchor="middle" x="705.5" y="-207.1" font-family="Helvetica,sans-Serif" font-size="10.00">ImGui::ClosePopupToLevel</text>
</a>
</g>
</g>
<!-- Node16&#45;&gt;Node17 -->
<g id="edge17_Node000016_Node000017" class="edge">
<title>Node16&#45;&gt;Node17</title>
<g id="a_edge17_Node000016_Node000017"><a xlink:title=" ">
<path fill="none" stroke="#63b8ff" d="M567.66,-229.35C585.16,-226.9 603.8,-224.3 621.51,-221.82"/>
<polygon fill="#63b8ff" stroke="#63b8ff" points="621.77,-225.32 631.19,-220.47 620.8,-218.39 621.77,-225.32"/>
</a>
</g>
</g>
<!-- Node20 -->
<g id="Node000020" class="node">
<title>Node20</title>
<g id="a_Node000020"><a xlink:href="namespaceImGui.html#a48de6990762aa67d7da5c3264b92d44f" target="_top" xlink:title=" ">
<polygon fill="white" stroke="#666666" points="784.38,-274.97 626.62,-274.97 626.62,-241.47 784.38,-241.47 784.38,-274.97"/>
<text text-anchor="start" x="634.62" y="-261.47" font-family="Helvetica,sans-Serif" font-size="10.00">ImGui::IsWindowWithinBegin</text>
<text text-anchor="middle" x="705.5" y="-248.72" font-family="Helvetica,sans-Serif" font-size="10.00">StackOf</text>
</a>
</g>
</g>
<!-- Node16&#45;&gt;Node20 -->
<g id="edge23_Node000016_Node000020" class="edge">
<title>Node16&#45;&gt;Node20</title>
<g id="a_edge23_Node000016_Node000020"><a xlink:title=" ">
<path fill="none" stroke="#63b8ff" d="M577.17,-247.54C589.61,-248.59 602.42,-249.66 614.91,-250.71"/>
<polygon fill="#63b8ff" stroke="#63b8ff" points="614.49,-254.19 624.75,-251.53 615.08,-247.21 614.49,-254.19"/>
</a>
</g>
</g>
<!-- Node17&#45;&gt;Node2 -->
<g id="edge21_Node000017_Node000002" class="edge">
<title>Node17&#45;&gt;Node2</title>
<g id="a_edge21_Node000017_Node000002"><a xlink:title=" ">
<path fill="none" stroke="#63b8ff" d="M673.04,-199.38C616.94,-181.76 496.54,-151.79 401,-182.22 365.09,-193.66 330.86,-221.76 310.74,-240.66"/>
<polygon fill="#63b8ff" stroke="#63b8ff" points="308.37,-238.08 303.62,-247.55 313.24,-243.11 308.37,-238.08"/>
</a>
</g>
</g>
<!-- Node17&#45;&gt;Node13 -->
<g id="edge22_Node000017_Node000013" class="edge">
<title>Node17&#45;&gt;Node13</title>
<g id="a_edge22_Node000017_Node000013"><a xlink:title=" ">
<path fill="none" stroke="#63b8ff" d="M775.45,-199.4C857.2,-186.56 992.01,-165.4 1068.72,-153.35"/>
<polygon fill="#63b8ff" stroke="#63b8ff" points="1069.23,-156.82 1078.57,-151.81 1068.14,-149.9 1069.23,-156.82"/>
</a>
</g>
</g>
<!-- Node18 -->
<g id="Node000018" class="node">
<title>Node18</title>
<g id="a_Node000018"><a xlink:href="namespaceImGui.html#aa97e87e96c05eb3e91aa96fa68b13a2a" target="_top" xlink:title=" ">
<polygon fill="white" stroke="#666666" points="1001,-243.97 842.5,-243.97 842.5,-210.47 1001,-210.47 1001,-243.97"/>
<text text-anchor="start" x="850.5" y="-230.47" font-family="Helvetica,sans-Serif" font-size="10.00">ImGui::FocusTopMostWindow</text>
<text text-anchor="middle" x="921.75" y="-217.72" font-family="Helvetica,sans-Serif" font-size="10.00">UnderOne</text>
</a>
</g>
</g>
<!-- Node17&#45;&gt;Node18 -->
<g id="edge18_Node000017_Node000018" class="edge">
<title>Node17&#45;&gt;Node18</title>
<g id="a_edge18_Node000017_Node000018"><a xlink:title=" ">
<path fill="none" stroke="#63b8ff" d="M778.44,-215.93C795.19,-217.26 813.24,-218.69 830.66,-220.07"/>
<polygon fill="#63b8ff" stroke="#63b8ff" points="830.25,-223.55 840.5,-220.85 830.81,-216.57 830.25,-223.55"/>
</a>
</g>
</g>
<!-- Node18&#45;&gt;Node2 -->
<g id="edge20_Node000018_Node000002" class="edge">
<title>Node18&#45;&gt;Node2</title>
<g id="a_edge20_Node000018_Node000002"><a xlink:title=" ">
<path fill="none" stroke="#63b8ff" d="M911.6,-244.23C894.1,-274.94 852.72,-339.22 798.25,-369.22 711.07,-417.24 676.01,-394.87 576.75,-402.22 498.85,-407.99 470.97,-436.94 401,-402.22 349.29,-376.56 315.55,-313.21 300.84,-280.11"/>
<polygon fill="#63b8ff" stroke="#63b8ff" points="304.17,-279 297.03,-271.17 297.73,-281.74 304.17,-279"/>
</a>
</g>
</g>
<!-- Node19 -->
<g id="Node000019" class="node">
<title>Node19</title>
<g id="a_Node000019"><a xlink:href="namespaceImGui.html#a861004d5a1476e954abd68d6f9deaa06" target="_top" xlink:title=" ">
<polygon fill="white" stroke="#666666" points="1210.5,-237.6 1045.25,-237.6 1045.25,-216.85 1210.5,-216.85 1210.5,-237.6"/>
<text text-anchor="middle" x="1127.88" y="-224.1" font-family="Helvetica,sans-Serif" font-size="10.00">ImGui::FindWindowFocusIndex</text>
</a>
</g>
</g>
<!-- Node18&#45;&gt;Node19 -->
<g id="edge19_Node000018_Node000019" class="edge">
<title>Node18&#45;&gt;Node19</title>
<g id="a_edge19_Node000018_Node000019"><a xlink:title=" ">
<path fill="none" stroke="#63b8ff" d="M1001.38,-227.22C1011.96,-227.22 1022.91,-227.22 1033.71,-227.22"/>
<polygon fill="#63b8ff" stroke="#63b8ff" points="1033.39,-230.72 1043.39,-227.22 1033.39,-223.72 1033.39,-230.72"/>
</a>
</g>
</g>
<!-- Node21&#45;&gt;Node20 -->
<g id="edge25_Node000021_Node000020" class="edge">
<title>Node21&#45;&gt;Node20</title>
<g id="a_edge25_Node000021_Node000020"><a xlink:title=" ">
<path fill="none" stroke="#63b8ff" d="M561.04,-272.26C578.24,-270.58 596.84,-268.76 614.77,-267"/>
<polygon fill="#63b8ff" stroke="#63b8ff" points="615.01,-270.5 624.62,-266.04 614.33,-263.53 615.01,-270.5"/>
</a>
</g>
</g>
<!-- Node24 -->
<g id="Node000024" class="node">
<title>Node24</title>
<g id="a_Node000024"><a xlink:href="namespaceImGui.html#a5e1bfc506e7bd0f71ec85d8c69672d3d" target="_top" xlink:title=" ">
<polygon fill="white" stroke="#666666" points="791.12,-96.97 619.88,-96.97 619.88,-63.47 791.12,-63.47 791.12,-96.97"/>
<text text-anchor="start" x="627.88" y="-83.47" font-family="Helvetica,sans-Serif" font-size="10.00">ImGui::TabBarFindMostRecently</text>
<text text-anchor="middle" x="705.5" y="-70.72" font-family="Helvetica,sans-Serif" font-size="10.00">SelectedTabForActiveWindow</text>
</a>
</g>
</g>
<!-- Node23&#45;&gt;Node24 -->
<g id="edge28_Node000023_Node000024" class="edge">
<title>Node23&#45;&gt;Node24</title>
<g id="a_edge28_Node000023_Node000024"><a xlink:title=" ">
<path fill="none" stroke="#63b8ff" d="M565.85,-80.22C579.55,-80.22 594,-80.22 608.19,-80.22"/>
<polygon fill="#63b8ff" stroke="#63b8ff" points="607.98,-83.72 617.98,-80.22 607.98,-76.72 607.98,-83.72"/>
</a>
</g>
</g>
<!-- Node25&#45;&gt;Node13 -->
<g id="edge33_Node000025_Node000013" class="edge">
<title>Node25&#45;&gt;Node13</title>
<g id="a_edge33_Node000025_Node000013"><a xlink:title=" ">
<path fill="none" stroke="#63b8ff" d="M993.86,-131.84C1018.27,-134.11 1045.29,-136.63 1068.56,-138.79"/>
<polygon fill="#63b8ff" stroke="#63b8ff" points="1068.22,-142.28 1078.5,-139.72 1068.87,-135.31 1068.22,-142.28"/>
</a>
</g>
</g>
<!-- Node26 -->
<g id="Node000026" class="node">
<title>Node26</title>
<g id="a_Node000026"><a xlink:href="structImVector.html#aab5df48e0711a48bd12f3206e08c4108" target="_top" xlink:title=" ">
<polygon fill="white" stroke="#666666" points="1186.5,-115.6 1069.25,-115.6 1069.25,-94.85 1186.5,-94.85 1186.5,-115.6"/>
<text text-anchor="middle" x="1127.88" y="-102.1" font-family="Helvetica,sans-Serif" font-size="10.00">ImVector::push_back</text>
</a>
</g>
</g>
<!-- Node25&#45;&gt;Node26 -->
<g id="edge30_Node000025_Node000026" class="edge">
<title>Node25&#45;&gt;Node26</title>
<g id="a_edge30_Node000025_Node000026"><a xlink:title=" ">
<path fill="none" stroke="#63b8ff" d="M993.86,-118.26C1014.53,-116.23 1037.09,-114.02 1057.65,-112.01"/>
<polygon fill="#63b8ff" stroke="#63b8ff" points="1057.72,-115.51 1067.33,-111.06 1057.04,-108.55 1057.72,-115.51"/>
</a>
</g>
</g>
<!-- Node26&#45;&gt;Node14 -->
<g id="edge31_Node000026_Node000014" class="edge">
<title>Node26&#45;&gt;Node14</title>
<g id="a_edge31_Node000026_Node000014"><a xlink:title=" ">
<path fill="none" stroke="#63b8ff" d="M1186.84,-105.22C1202.11,-105.22 1218.87,-105.22 1235.12,-105.22"/>
<polygon fill="#63b8ff" stroke="#63b8ff" points="1234.74,-108.72 1244.74,-105.22 1234.74,-101.72 1234.74,-108.72"/>
</a>
</g>
</g>
<!-- Node26&#45;&gt;Node15 -->
<g id="edge32_Node000026_Node000015" class="edge">
<title>Node26&#45;&gt;Node15</title>
<g id="a_edge32_Node000026_Node000015"><a xlink:title=" ">
<path fill="none" stroke="#63b8ff" d="M1181.03,-116.09C1203.83,-120.83 1230.73,-126.44 1254.51,-131.39"/>
<polygon fill="#63b8ff" stroke="#63b8ff" points="1253.55,-134.76 1264.06,-133.38 1254.98,-127.91 1253.55,-134.76"/>
</a>
</g>
</g>
<!-- Node28 -->
<g id="Node000028" class="node">
<title>Node28</title>
<g id="a_Node000028"><a xlink:href="namespaceImGui.html#a2cd868535661cdb5671214662f3c9388" target="_top" xlink:title=" ">
<polygon fill="white" stroke="#666666" points="798.25,-540.6 612.75,-540.6 612.75,-519.85 798.25,-519.85 798.25,-540.6"/>
<text text-anchor="middle" x="705.5" y="-527.1" font-family="Helvetica,sans-Serif" font-size="10.00">ImGui::NavUpdateAnyRequestFlag</text>
</a>
</g>
</g>
<!-- Node27&#45;&gt;Node28 -->
<g id="edge35_Node000027_Node000028" class="edge">
<title>Node27&#45;&gt;Node28</title>
<g id="a_edge35_Node000027_Node000028"><a xlink:title=" ">
<path fill="none" stroke="#63b8ff" d="M551.95,-516.72C567.49,-518.09 584.58,-519.61 601.52,-521.11"/>
<polygon fill="#63b8ff" stroke="#63b8ff" points="600.84,-524.56 611.11,-521.95 601.46,-517.59 600.84,-524.56"/>
</a>
</g>
</g>
<!-- Node30 -->
<g id="Node000030" class="node">
<title>Node30</title>
<g id="a_Node000030"><a xlink:href="namespaceImGui.html#a43326bb080d9fa80327ed81d864d8b8d" target="_top" xlink:title=" ">
<polygon fill="white" stroke="#666666" points="574.12,-560.6 403.62,-560.6 403.62,-539.85 574.12,-539.85 574.12,-560.6"/>
<text text-anchor="middle" x="488.88" y="-547.1" font-family="Helvetica,sans-Serif" font-size="10.00">ImGui::NavMoveRequestCancel</text>
</a>
</g>
</g>
<!-- Node29&#45;&gt;Node30 -->
<g id="edge38_Node000029_Node000030" class="edge">
<title>Node29&#45;&gt;Node30</title>
<g id="a_edge38_Node000029_Node000030"><a xlink:title=" ">
<path fill="none" stroke="#63b8ff" d="M307.09,-453.3C326.45,-474.63 362.53,-510.69 401,-530.22 405.11,-532.31 409.45,-534.18 413.9,-535.86"/>
<polygon fill="#63b8ff" stroke="#63b8ff" points="412.4,-539.05 422.99,-538.96 414.65,-532.43 412.4,-539.05"/>
</a>
</g>
</g>
<!-- Node30&#45;&gt;Node28 -->
<g id="edge39_Node000030_Node000028" class="edge">
<title>Node30&#45;&gt;Node28</title>
<g id="a_edge39_Node000030_Node000028"><a xlink:title=" ">
<path fill="none" stroke="#63b8ff" d="M574.39,-542.35C583.14,-541.53 592.09,-540.7 601.01,-539.87"/>
<polygon fill="#63b8ff" stroke="#63b8ff" points="601.13,-543.37 610.76,-538.96 600.48,-536.4 601.13,-543.37"/>
</a>
</g>
</g>
</g>
</svg>
