<?xml version="1.0" encoding="UTF-8" standalone="no"?>
<!DOCTYPE svg PUBLIC "-//W3C//DTD SVG 1.1//EN"
 "http://www.w3.org/Graphics/SVG/1.1/DTD/svg11.dtd">
<!-- Generated by graphviz version 2.43.0 (0)
 -->
<!-- Title: steppable::__internals::arithmetic::add Pages: 1 -->
<!--zoomable 655 -->
<svg id="main" version="1.1" xmlns="http://www.w3.org/2000/svg" xmlns:xlink="http://www.w3.org/1999/xlink" xml:space="preserve" onload="init(evt)">
<style type="text/css"><![CDATA[
.edge:hover path { stroke: red; }
.edge:hover polygon { stroke: red; fill: red; }
]]></style>
<script type="text/javascript"><![CDATA[
var edges = document.getElementsByTagName('g');
if (edges && edges.length) {
  for (var i=0;i<edges.length;i++) {
    if (edges[i].id.substr(0,4)=='edge') {
      edges[i].setAttribute('class','edge');
    }
  }
}
]]></script>
        <defs>
                <circle id="rim" cx="0" cy="0" r="7"/>
                <circle id="rim2" cx="0" cy="0" r="3.5"/>
                <g id="zoomPlus">
                        <use xlink:href="#rim" fill="#404040">
                                <set attributeName="fill" to="#808080" begin="zoomplus.mouseover" end="zoomplus.mouseout"/>
                        </use>
                        <path d="M-4,0h8M0,-4v8" fill="none" stroke="white" stroke-width="1.5" pointer-events="none"/>
                </g>
                <g id="zoomMin">
                        <use xlink:href="#rim" fill="#404040">
                                <set attributeName="fill" to="#808080" begin="zoomminus.mouseover" end="zoomminus.mouseout"/>
                        </use>
                        <path d="M-4,0h8" fill="none" stroke="white" stroke-width="1.5" pointer-events="none"/>
                </g>
                <g id="dirArrow">
                        <path fill="none" stroke="white" stroke-width="1.5" d="M0,-3.0v7 M-2.5,-0.5L0,-3.0L2.5,-0.5"/>
                </g>
               <g id="resetDef">
                       <use xlink:href="#rim2" fill="#404040">
                               <set attributeName="fill" to="#808080" begin="reset.mouseover" end="reset.mouseout"/>
                       </use>
               </g>
        </defs>

<script type="text/javascript">
var viewWidth = 1071;
var viewHeight = 655;
var sectionId = 'dynsection-3';
</script>
<script xlink:href="svgpan.js"/>
<svg id="graph" class="graph">
<g id="viewport">
<title>steppable::__internals::arithmetic::add</title>
<!-- Node1 -->
<g id="node1" class="node">
<title>Node1</title>
<g id="a_node1"><a xlink:title="Adds two string representations of numbers, and performs with the column method.">
<polygon fill="#bfbfbf" stroke="black" points="939,-245.5 939,-275.5 1063,-275.5 1063,-245.5 939,-245.5"/>
<text text-anchor="start" x="947" y="-263.5" font-family="Helvetica,sans-Serif" font-size="10.00">steppable::__internals</text>
<text text-anchor="middle" x="1001" y="-252.5" font-family="Helvetica,sans-Serif" font-size="10.00">::arithmetic::add</text>
</a>
</g>
</g>
<!-- Node1&#45;&gt;Node1 -->
<g id="edge1" class="edge">
<title>Node1&#45;&gt;Node1</title>
<path fill="none" stroke="midnightblue" d="M1032.27,-285.96C1028.39,-290.68 1017.97,-294 1001,-294 973.16,-294 962.93,-285.06 970.33,-275.66"/>
<polygon fill="midnightblue" stroke="midnightblue" points="1035.75,-285.44 1031.67,-275.66 1028.76,-285.85 1035.75,-285.44"/>
</g>
<!-- Node2 -->
<g id="node2" class="node">
<title>Node2</title>
<g id="a_node2"><a xlink:href="namespacesteppable_1_1____internals_1_1arithmetic.html#a5b80b731e3e2c0d16dcbe5d52b08ffd5" target="_top" xlink:title="Converts a string representation of a number from decimal to another one.">
<polygon fill="none" stroke="black" points="168.5,-594.5 168.5,-624.5 308.5,-624.5 308.5,-594.5 168.5,-594.5"/>
<text text-anchor="start" x="176.5" y="-612.5" font-family="Helvetica,sans-Serif" font-size="10.00">steppable::__internals</text>
<text text-anchor="middle" x="238.5" y="-601.5" font-family="Helvetica,sans-Serif" font-size="10.00">::arithmetic::baseConvert</text>
</a>
</g>
</g>
<!-- Node1&#45;&gt;Node2 -->
<g id="edge2" class="edge">
<title>Node1&#45;&gt;Node2</title>
<path fill="none" stroke="midnightblue" d="M994.26,-285.55C983.05,-330.17 954.66,-424.64 903,-487.5 837.41,-567.31 808.65,-584.78 711,-618.5 572.67,-666.27 397.64,-642.94 304.6,-624.51"/>
<polygon fill="midnightblue" stroke="midnightblue" points="997.73,-286.12 996.69,-275.57 990.93,-284.46 997.73,-286.12"/>
</g>
<!-- Node3 -->
<g id="node3" class="node">
<title>Node3</title>
<g id="a_node3"><a xlink:href="namespacesteppable_1_1____internals_1_1arithmetic.html#afc4c4f319dadbb5b1ff481132f008374" target="_top" xlink:title="Converts a string representation of a number from any base to decimal.">
<polygon fill="none" stroke="black" points="747,-214.5 747,-244.5 903,-244.5 903,-214.5 747,-214.5"/>
<text text-anchor="start" x="755" y="-232.5" font-family="Helvetica,sans-Serif" font-size="10.00">steppable::__internals</text>
<text text-anchor="middle" x="825" y="-221.5" font-family="Helvetica,sans-Serif" font-size="10.00">::arithmetic::decimalConvert</text>
</a>
</g>
</g>
<!-- Node1&#45;&gt;Node3 -->
<g id="edge4" class="edge">
<title>Node1&#45;&gt;Node3</title>
<path fill="none" stroke="midnightblue" d="M928.59,-247.78C920.23,-246.29 911.68,-244.77 903.25,-243.26"/>
<polygon fill="midnightblue" stroke="midnightblue" points="928.2,-251.26 938.65,-249.57 929.42,-244.37 928.2,-251.26"/>
</g>
<!-- Node4 -->
<g id="node4" class="node">
<title>Node4</title>
<g id="a_node4"><a xlink:href="namespacesteppable_1_1____internals_1_1arithmetic.html#a26194ae8ddb44afb942fbf8335ae1730" target="_top" xlink:title="Divides a string representation of a number by another string representation of a number.">
<polygon fill="none" stroke="black" points="361,-396.5 361,-426.5 485,-426.5 485,-396.5 361,-396.5"/>
<text text-anchor="start" x="369" y="-414.5" font-family="Helvetica,sans-Serif" font-size="10.00">steppable::__internals</text>
<text text-anchor="middle" x="423" y="-403.5" font-family="Helvetica,sans-Serif" font-size="10.00">::arithmetic::divide</text>
</a>
</g>
</g>
<!-- Node1&#45;&gt;Node4 -->
<g id="edge6" class="edge">
<title>Node1&#45;&gt;Node4</title>
<path fill="none" stroke="midnightblue" d="M962.45,-280.31C944.78,-289 923.2,-298.74 903,-305.5 738.33,-360.6 690.19,-348.42 521,-387.5 508.83,-390.31 495.83,-393.44 483.44,-396.48"/>
<polygon fill="midnightblue" stroke="midnightblue" points="964.45,-283.22 971.82,-275.61 961.31,-276.96 964.45,-283.22"/>
</g>
<!-- Node8 -->
<g id="node8" class="node">
<title>Node8</title>
<g id="a_node8"><a xlink:href="namespacesteppable_1_1____internals_1_1arithmetic.html#a8c20a75a55d968bd679a1a550a46a497" target="_top" xlink:title="Takes the n&#45;th root of a numer.">
<polygon fill="none" stroke="black" points="176.5,-349.5 176.5,-379.5 300.5,-379.5 300.5,-349.5 176.5,-349.5"/>
<text text-anchor="start" x="184.5" y="-367.5" font-family="Helvetica,sans-Serif" font-size="10.00">steppable::__internals</text>
<text text-anchor="middle" x="238.5" y="-356.5" font-family="Helvetica,sans-Serif" font-size="10.00">::arithmetic::root</text>
</a>
</g>
</g>
<!-- Node1&#45;&gt;Node8 -->
<g id="edge19" class="edge">
<title>Node1&#45;&gt;Node8</title>
<path fill="none" stroke="midnightblue" d="M928.81,-270.24C780.36,-290.54 440,-337.08 300.67,-356.13"/>
<polygon fill="midnightblue" stroke="midnightblue" points="929.3,-273.7 938.73,-268.88 928.35,-266.77 929.3,-273.7"/>
</g>
<!-- Node10 -->
<g id="node10" class="node">
<title>Node10</title>
<g id="a_node10"><a xlink:href="namespacesteppable_1_1____internals_1_1arithmetic.html#a210c635ae60eaa54f65bc82a0f3c953a" target="_top" xlink:title="Executes a given predicate function a specified number of times.">
<polygon fill="none" stroke="black" points="763,-147.5 763,-177.5 887,-177.5 887,-147.5 763,-147.5"/>
<text text-anchor="start" x="771" y="-165.5" font-family="Helvetica,sans-Serif" font-size="10.00">steppable::__internals</text>
<text text-anchor="middle" x="825" y="-154.5" font-family="Helvetica,sans-Serif" font-size="10.00">::arithmetic::loop</text>
</a>
</g>
</g>
<!-- Node1&#45;&gt;Node10 -->
<g id="edge15" class="edge">
<title>Node1&#45;&gt;Node10</title>
<path fill="none" stroke="midnightblue" d="M965.5,-240.31C947.02,-229.57 923.84,-216.2 903,-204.5 886.8,-195.41 868.55,-185.44 853.89,-177.5"/>
<polygon fill="midnightblue" stroke="midnightblue" points="963.76,-243.35 974.16,-245.35 967.28,-237.3 963.76,-243.35"/>
</g>
<!-- Node11 -->
<g id="node11" class="node">
<title>Node11</title>
<g id="a_node11"><a xlink:href="classsteppable_1_1Fraction.html#a177374401a6d78045720bdf97db60055" target="_top" xlink:title="Adds two fractions together. This function does it by doing a simple fraction addition and returns th...">
<polygon fill="none" stroke="black" points="770,-98.5 770,-128.5 880,-128.5 880,-98.5 770,-98.5"/>
<text text-anchor="start" x="778" y="-116.5" font-family="Helvetica,sans-Serif" font-size="10.00">steppable::Fraction</text>
<text text-anchor="middle" x="825" y="-105.5" font-family="Helvetica,sans-Serif" font-size="10.00">::operator+</text>
</a>
</g>
</g>
<!-- Node1&#45;&gt;Node11 -->
<g id="edge17" class="edge">
<title>Node1&#45;&gt;Node11</title>
<path fill="none" stroke="midnightblue" d="M986.89,-236.15C970.71,-208.37 940.68,-163.42 903,-137.5 896.08,-132.74 888.17,-128.89 880.12,-125.79"/>
<polygon fill="midnightblue" stroke="midnightblue" points="984.04,-238.24 992.02,-245.21 990.13,-234.78 984.04,-238.24"/>
</g>
<!-- Node12 -->
<g id="node12" class="node">
<title>Node12</title>
<g id="a_node12"><a xlink:href="classsteppable_1_1Number.html#ab92bf92daec1e2db8c9b4ccd985159b3" target="_top" xlink:title="Adds two numbers together.">
<polygon fill="none" stroke="black" points="767,-49.5 767,-79.5 883,-79.5 883,-49.5 767,-49.5"/>
<text text-anchor="start" x="775" y="-67.5" font-family="Helvetica,sans-Serif" font-size="10.00">steppable::Number::</text>
<text text-anchor="middle" x="825" y="-56.5" font-family="Helvetica,sans-Serif" font-size="10.00">operator+</text>
</a>
</g>
</g>
<!-- Node1&#45;&gt;Node12 -->
<g id="edge18" class="edge">
<title>Node1&#45;&gt;Node12</title>
<path fill="none" stroke="midnightblue" d="M992.61,-235.74C980.19,-198.38 951.62,-127.8 903,-88.5 897.12,-83.75 890.29,-79.93 883.18,-76.87"/>
<polygon fill="midnightblue" stroke="midnightblue" points="989.3,-236.89 995.68,-245.35 995.97,-234.75 989.3,-236.89"/>
</g>
<!-- Node13 -->
<g id="node13" class="node">
<title>Node13</title>
<g id="a_node13"><a xlink:href="namespacesteppable_1_1____internals_1_1numUtils.html#ac634c8aea297b7e8f5cc251041089c5b" target="_top" xlink:title="Round off a number to the nearest integer.">
<polygon fill="none" stroke="black" points="763,-0.5 763,-30.5 887,-30.5 887,-0.5 763,-0.5"/>
<text text-anchor="start" x="771" y="-18.5" font-family="Helvetica,sans-Serif" font-size="10.00">steppable::__internals</text>
<text text-anchor="middle" x="825" y="-7.5" font-family="Helvetica,sans-Serif" font-size="10.00">::numUtils::roundOff</text>
</a>
</g>
</g>
<!-- Node1&#45;&gt;Node13 -->
<g id="edge20" class="edge">
<title>Node1&#45;&gt;Node13</title>
<path fill="none" stroke="midnightblue" d="M995.98,-235.44C987.33,-189.79 962.71,-92.9 903,-39.5 898.3,-35.3 892.88,-31.83 887.13,-28.98"/>
<polygon fill="midnightblue" stroke="midnightblue" points="992.55,-236.15 997.76,-245.38 999.44,-234.92 992.55,-236.15"/>
</g>
<!-- Node14 -->
<g id="node14" class="node">
<title>Node14</title>
<g id="a_node14"><a xlink:href="namespacesteppable_1_1____internals_1_1arithmetic.html#ae61ae2915786a49aebb7025105cf058e" target="_top" xlink:title="Subtracts one string representation of a number from another string representation of a number.">
<polygon fill="none" stroke="black" points="763,-429.5 763,-459.5 887,-459.5 887,-429.5 763,-429.5"/>
<text text-anchor="start" x="771" y="-447.5" font-family="Helvetica,sans-Serif" font-size="10.00">steppable::__internals</text>
<text text-anchor="middle" x="825" y="-436.5" font-family="Helvetica,sans-Serif" font-size="10.00">::arithmetic::subtract</text>
</a>
</g>
</g>
<!-- Node1&#45;&gt;Node14 -->
<g id="edge21" class="edge">
<title>Node1&#45;&gt;Node14</title>
<path fill="none" stroke="midnightblue" d="M974.45,-282.57C935.84,-320.58 864.25,-396.77 836.96,-429.41"/>
<polygon fill="midnightblue" stroke="midnightblue" points="976.99,-284.99 981.71,-275.5 972.1,-279.97 976.99,-284.99"/>
</g>
<!-- Node2&#45;&gt;Node2 -->
<g id="edge3" class="edge">
<title>Node2&#45;&gt;Node2</title>
<path fill="none" stroke="midnightblue" d="M270.48,-634.96C266.51,-639.68 255.85,-643 238.5,-643 210.02,-643 199.57,-634.06 207.13,-624.66"/>
<polygon fill="midnightblue" stroke="midnightblue" points="273.96,-634.43 269.87,-624.66 266.97,-634.85 273.96,-634.43"/>
</g>
<!-- Node3&#45;&gt;Node3 -->
<g id="edge5" class="edge">
<title>Node3&#45;&gt;Node3</title>
<path fill="none" stroke="midnightblue" d="M856.27,-254.96C852.39,-259.68 841.97,-263 825,-263 797.16,-263 786.93,-254.06 794.33,-244.66"/>
<polygon fill="midnightblue" stroke="midnightblue" points="859.75,-254.44 855.67,-244.66 852.76,-254.85 859.75,-254.44"/>
</g>
<!-- Node4&#45;&gt;Node2 -->
<g id="edge7" class="edge">
<title>Node4&#45;&gt;Node2</title>
<path fill="none" stroke="midnightblue" d="M384.07,-432.38C375.51,-438.56 367.14,-445.99 361,-454.5 328.66,-499.3 361.97,-532.44 325,-573.5 316.92,-582.48 306.23,-589.28 295.16,-594.42"/>
<polygon fill="midnightblue" stroke="midnightblue" points="386.28,-435.11 392.62,-426.62 382.37,-429.3 386.28,-435.11"/>
</g>
<!-- Node4&#45;&gt;Node4 -->
<g id="edge8" class="edge">
<title>Node4&#45;&gt;Node4</title>
<path fill="none" stroke="midnightblue" d="M455.69,-436.96C451.64,-441.68 440.74,-445 423,-445 393.89,-445 383.2,-436.06 390.93,-426.66"/>
<polygon fill="midnightblue" stroke="midnightblue" points="459.17,-436.43 455.07,-426.66 452.18,-436.85 459.17,-436.43"/>
</g>
<!-- Node5 -->
<g id="node5" class="node">
<title>Node5</title>
<g id="a_node5"><a xlink:href="namespacesteppable_1_1____internals_1_1arithmetic.html#ac9102075acd398b3bdf388f6cc2ef978" target="_top" xlink:title=" ">
<polygon fill="none" stroke="black" points="152,-515.5 152,-545.5 325,-545.5 325,-515.5 152,-515.5"/>
<text text-anchor="start" x="160" y="-533.5" font-family="Helvetica,sans-Serif" font-size="10.00">steppable::__internals</text>
<text text-anchor="middle" x="238.5" y="-522.5" font-family="Helvetica,sans-Serif" font-size="10.00">::arithmetic::divideWithQuotient</text>
</a>
</g>
</g>
<!-- Node4&#45;&gt;Node5 -->
<g id="edge9" class="edge">
<title>Node4&#45;&gt;Node5</title>
<path fill="none" stroke="midnightblue" d="M389.43,-432.45C379.93,-439.09 369.75,-446.73 361,-454.5 343.11,-470.38 344.49,-480.64 325,-494.5 313.06,-502.99 298.8,-510 285.39,-515.5"/>
<polygon fill="midnightblue" stroke="midnightblue" points="391.62,-435.19 397.9,-426.67 387.67,-429.41 391.62,-435.19"/>
</g>
<!-- Node7 -->
<g id="node7" class="node">
<title>Node7</title>
<g id="a_node7"><a xlink:href="classsteppable_1_1Number.html#aebdaf5d342a2a897793556bd390bc184" target="_top" xlink:title="Divides two numbers.">
<polygon fill="none" stroke="black" points="180.5,-398.5 180.5,-428.5 296.5,-428.5 296.5,-398.5 180.5,-398.5"/>
<text text-anchor="start" x="188.5" y="-416.5" font-family="Helvetica,sans-Serif" font-size="10.00">steppable::Number::</text>
<text text-anchor="middle" x="238.5" y="-405.5" font-family="Helvetica,sans-Serif" font-size="10.00">operator/</text>
</a>
</g>
</g>
<!-- Node4&#45;&gt;Node7 -->
<g id="edge12" class="edge">
<title>Node4&#45;&gt;Node7</title>
<path fill="none" stroke="midnightblue" d="M350.86,-412.28C332.93,-412.48 313.91,-412.68 296.76,-412.87"/>
<polygon fill="midnightblue" stroke="midnightblue" points="351.02,-415.78 360.98,-412.17 350.94,-408.78 351.02,-415.78"/>
</g>
<!-- Node4&#45;&gt;Node8 -->
<g id="edge13" class="edge">
<title>Node4&#45;&gt;Node8</title>
<path fill="none" stroke="midnightblue" d="M353.95,-393.98C335.5,-389.22 315.69,-384.12 297.82,-379.52"/>
<polygon fill="midnightblue" stroke="midnightblue" points="353.2,-397.4 363.75,-396.5 354.94,-390.62 353.2,-397.4"/>
</g>
<!-- Node9 -->
<g id="node9" class="node">
<title>Node9</title>
<g id="a_node9"><a xlink:href="classsteppable_1_1Fraction.html#a9cf64d847c268d9334775c572ef75dfa" target="_top" xlink:title="Simplifies a fraction. This function simplifies the fraction by dividing the top and bottom component...">
<polygon fill="none" stroke="black" points="183.5,-454.5 183.5,-484.5 293.5,-484.5 293.5,-454.5 183.5,-454.5"/>
<text text-anchor="start" x="191.5" y="-472.5" font-family="Helvetica,sans-Serif" font-size="10.00">steppable::Fraction</text>
<text text-anchor="middle" x="238.5" y="-461.5" font-family="Helvetica,sans-Serif" font-size="10.00">::simplify</text>
</a>
</g>
</g>
<!-- Node4&#45;&gt;Node9 -->
<g id="edge14" class="edge">
<title>Node4&#45;&gt;Node9</title>
<path fill="none" stroke="midnightblue" d="M364.77,-429.69C339.67,-437.66 310.57,-446.91 286.74,-454.49"/>
<polygon fill="midnightblue" stroke="midnightblue" points="366.06,-432.95 374.53,-426.59 363.94,-426.28 366.06,-432.95"/>
</g>
<!-- Node5&#45;&gt;Node5 -->
<g id="edge10" class="edge">
<title>Node5&#45;&gt;Node5</title>
<path fill="none" stroke="midnightblue" d="M270.48,-555.96C266.51,-560.68 255.85,-564 238.5,-564 210.02,-564 199.57,-555.06 207.13,-545.66"/>
<polygon fill="midnightblue" stroke="midnightblue" points="273.96,-555.43 269.87,-545.66 266.97,-555.85 273.96,-555.43"/>
</g>
<!-- Node6 -->
<g id="node6" class="node">
<title>Node6</title>
<g id="a_node6"><a xlink:href="classsteppable_1_1Number.html#a719a8a93fcfe91b30c38ba0830d6de50" target="_top" xlink:title="Calculates the remainder of two numbers. (Modulus)">
<polygon fill="none" stroke="black" points="0,-515.5 0,-545.5 116,-545.5 116,-515.5 0,-515.5"/>
<text text-anchor="start" x="8" y="-533.5" font-family="Helvetica,sans-Serif" font-size="10.00">steppable::Number::</text>
<text text-anchor="middle" x="58" y="-522.5" font-family="Helvetica,sans-Serif" font-size="10.00">operator%</text>
</a>
</g>
</g>
<!-- Node5&#45;&gt;Node6 -->
<g id="edge11" class="edge">
<title>Node5&#45;&gt;Node6</title>
<path fill="none" stroke="midnightblue" d="M141.64,-530.5C132.91,-530.5 124.26,-530.5 116.04,-530.5"/>
<polygon fill="midnightblue" stroke="midnightblue" points="141.91,-534 151.91,-530.5 141.91,-527 141.91,-534"/>
</g>
<!-- Node10&#45;&gt;Node10 -->
<g id="edge16" class="edge">
<title>Node10&#45;&gt;Node10</title>
<path fill="none" stroke="midnightblue" d="M856.27,-187.96C852.39,-192.68 841.97,-196 825,-196 797.16,-196 786.93,-187.06 794.33,-177.66"/>
<polygon fill="midnightblue" stroke="midnightblue" points="859.75,-187.44 855.67,-177.66 852.76,-187.85 859.75,-187.44"/>
</g>
<!-- Node14&#45;&gt;Node1 -->
<g id="edge22" class="edge">
<title>Node14&#45;&gt;Node1</title>
<path fill="none" stroke="midnightblue" d="M851.6,-422.38C890.12,-384.45 961.43,-308.57 988.85,-275.81"/>
<polygon fill="midnightblue" stroke="midnightblue" points="849.07,-419.96 844.35,-429.44 853.96,-424.97 849.07,-419.96"/>
</g>
<!-- Node14&#45;&gt;Node2 -->
<g id="edge23" class="edge">
<title>Node14&#45;&gt;Node2</title>
<path fill="none" stroke="midnightblue" d="M811.85,-468.98C794.45,-501.06 759.13,-556.08 711,-580.5 581.18,-646.36 404.71,-634.83 308.69,-621.57"/>
<polygon fill="midnightblue" stroke="midnightblue" points="815.11,-470.31 816.67,-459.83 808.92,-467.05 815.11,-470.31"/>
</g>
<!-- Node14&#45;&gt;Node5 -->
<g id="edge24" class="edge">
<title>Node14&#45;&gt;Node5</title>
<path fill="none" stroke="midnightblue" d="M808.13,-467.99C788.76,-494.32 753.32,-535.53 711,-552.5 566.3,-610.53 376.26,-570.16 288.2,-545.59"/>
<polygon fill="midnightblue" stroke="midnightblue" points="811.09,-469.86 814.06,-459.69 805.4,-465.79 811.09,-469.86"/>
</g>
<!-- Node14&#45;&gt;Node8 -->
<g id="edge33" class="edge">
<title>Node14&#45;&gt;Node8</title>
<path fill="none" stroke="midnightblue" d="M792.79,-424.26C770.86,-411.19 740.32,-395.23 711,-387.5 567.77,-349.71 391.75,-353.82 300.64,-359.5"/>
<polygon fill="midnightblue" stroke="midnightblue" points="790.98,-427.25 801.34,-429.47 794.62,-421.28 790.98,-427.25"/>
</g>
<!-- Node14&#45;&gt;Node14 -->
<g id="edge34" class="edge">
<title>Node14&#45;&gt;Node14</title>
<path fill="none" stroke="midnightblue" d="M856.27,-469.96C852.39,-474.68 841.97,-478 825,-478 797.16,-478 786.93,-469.06 794.33,-459.66"/>
<polygon fill="midnightblue" stroke="midnightblue" points="859.75,-469.44 855.67,-459.66 852.76,-469.85 859.75,-469.44"/>
</g>
<!-- Node15 -->
<g id="node15" class="node">
<title>Node15</title>
<g id="a_node15"><a xlink:href="namespacesteppable_1_1____internals_1_1arithmetic.html#a677f253d71524a9d500e980dc159c79c" target="_top" xlink:title=" ">
<polygon fill="none" stroke="black" points="521,-396.5 521,-426.5 711,-426.5 711,-396.5 521,-396.5"/>
<text text-anchor="start" x="529" y="-414.5" font-family="Helvetica,sans-Serif" font-size="10.00">steppable::__internals</text>
<text text-anchor="middle" x="616" y="-403.5" font-family="Helvetica,sans-Serif" font-size="10.00">::arithmetic::getQuotientRemainder</text>
</a>
</g>
</g>
<!-- Node14&#45;&gt;Node15 -->
<g id="edge25" class="edge">
<title>Node14&#45;&gt;Node15</title>
<path fill="none" stroke="midnightblue" d="M752.66,-433.13C739.27,-430.99 725.08,-428.73 711.12,-426.5"/>
<polygon fill="midnightblue" stroke="midnightblue" points="752.31,-436.61 762.73,-434.73 753.41,-429.7 752.31,-436.61"/>
</g>
<!-- Node17 -->
<g id="node17" class="node">
<title>Node17</title>
<g id="a_node17"><a xlink:href="classsteppable_1_1Fraction.html#a0220c31296f34e81e58d3b57c1aefe62" target="_top" xlink:title="Subtracts a fraction from another fraction. This function does it by doing a simple fraction subtract...">
<polygon fill="none" stroke="black" points="561,-512.5 561,-542.5 671,-542.5 671,-512.5 561,-512.5"/>
<text text-anchor="start" x="569" y="-530.5" font-family="Helvetica,sans-Serif" font-size="10.00">steppable::Fraction</text>
<text text-anchor="middle" x="616" y="-519.5" font-family="Helvetica,sans-Serif" font-size="10.00">::operator&#45;</text>
</a>
</g>
</g>
<!-- Node14&#45;&gt;Node17 -->
<g id="edge31" class="edge">
<title>Node14&#45;&gt;Node17</title>
<path fill="none" stroke="midnightblue" d="M790.28,-464.74C768.3,-477.26 738.67,-492.91 711,-503.5 698.42,-508.32 684.52,-512.47 671.35,-515.9"/>
<polygon fill="midnightblue" stroke="midnightblue" points="792.29,-467.62 799.2,-459.59 788.79,-461.56 792.29,-467.62"/>
</g>
<!-- Node18 -->
<g id="node18" class="node">
<title>Node18</title>
<g id="a_node18"><a xlink:href="classsteppable_1_1Number.html#ae839c653cf0ceaca2c76f44374a44fe3" target="_top" xlink:title="Subtracts two numbers.">
<polygon fill="none" stroke="black" points="558,-463.5 558,-493.5 674,-493.5 674,-463.5 558,-463.5"/>
<text text-anchor="start" x="566" y="-481.5" font-family="Helvetica,sans-Serif" font-size="10.00">steppable::Number::</text>
<text text-anchor="middle" x="616" y="-470.5" font-family="Helvetica,sans-Serif" font-size="10.00">operator&#45;</text>
</a>
</g>
</g>
<!-- Node14&#45;&gt;Node18 -->
<g id="edge32" class="edge">
<title>Node14&#45;&gt;Node18</title>
<path fill="none" stroke="midnightblue" d="M752.7,-456.21C727.06,-460.42 698.49,-465.11 674.21,-469.1"/>
<polygon fill="midnightblue" stroke="midnightblue" points="753.43,-459.64 762.73,-454.56 752.3,-452.73 753.43,-459.64"/>
</g>
<!-- Node15&#45;&gt;Node4 -->
<g id="edge26" class="edge">
<title>Node15&#45;&gt;Node4</title>
<path fill="none" stroke="midnightblue" d="M510.66,-411.5C501.96,-411.5 493.36,-411.5 485.15,-411.5"/>
<polygon fill="midnightblue" stroke="midnightblue" points="510.9,-415 520.9,-411.5 510.9,-408 510.9,-415"/>
</g>
<!-- Node15&#45;&gt;Node15 -->
<g id="edge30" class="edge">
<title>Node15&#45;&gt;Node15</title>
<path fill="none" stroke="midnightblue" d="M650.12,-436.96C645.88,-441.68 634.51,-445 616,-445 585.62,-445 574.47,-436.06 582.54,-426.66"/>
<polygon fill="midnightblue" stroke="midnightblue" points="653.59,-436.42 649.46,-426.66 646.6,-436.86 653.59,-436.42"/>
</g>
<!-- Node16 -->
<g id="node16" class="node">
<title>Node16</title>
<g id="a_node16"><a xlink:href="namespacesteppable_1_1____internals_1_1arithmetic.html#a7ff9976bf48df9c832d7489e88004813" target="_top" xlink:title="Gets the greatest common divisor of two string representations of numbers.">
<polygon fill="none" stroke="black" points="361,-463.5 361,-493.5 485,-493.5 485,-463.5 361,-463.5"/>
<text text-anchor="start" x="369" y="-481.5" font-family="Helvetica,sans-Serif" font-size="10.00">steppable::__internals</text>
<text text-anchor="middle" x="423" y="-470.5" font-family="Helvetica,sans-Serif" font-size="10.00">::arithmetic::getGCD</text>
</a>
</g>
</g>
<!-- Node15&#45;&gt;Node16 -->
<g id="edge27" class="edge">
<title>Node15&#45;&gt;Node16</title>
<path fill="none" stroke="midnightblue" d="M562.66,-429.86C532.62,-440.4 495.38,-453.46 467.05,-463.4"/>
<polygon fill="midnightblue" stroke="midnightblue" points="563.86,-433.15 572.14,-426.54 561.54,-426.54 563.86,-433.15"/>
</g>
<!-- Node16&#45;&gt;Node9 -->
<g id="edge29" class="edge">
<title>Node16&#45;&gt;Node9</title>
<path fill="none" stroke="midnightblue" d="M350.87,-474.99C331.87,-474.06 311.65,-473.06 293.72,-472.17"/>
<polygon fill="midnightblue" stroke="midnightblue" points="350.82,-478.49 360.98,-475.49 351.16,-471.5 350.82,-478.49"/>
</g>
<!-- Node16&#45;&gt;Node16 -->
<g id="edge28" class="edge">
<title>Node16&#45;&gt;Node16</title>
<path fill="none" stroke="midnightblue" d="M455.69,-503.96C451.64,-508.68 440.74,-512 423,-512 393.89,-512 383.2,-503.06 390.93,-493.66"/>
<polygon fill="midnightblue" stroke="midnightblue" points="459.17,-503.43 455.07,-493.66 452.18,-503.85 459.17,-503.43"/>
</g>
</g>
</svg>
        <g id="navigator" transform="translate(0 0)" fill="#404254">
                <rect fill="#f2f5e9" fill-opacity="0.5" stroke="#606060" stroke-width=".5" x="0" y="0" width="60" height="60"/>
                <use id="zoomplus" xlink:href="#zoomPlus" x="17" y="9" onmousedown="handleZoom(evt,'in')"/>
                <use id="zoomminus" xlink:href="#zoomMin" x="42" y="9" onmousedown="handleZoom(evt,'out')"/>
                <use id="reset" xlink:href="#resetDef" x="30" y="36" onmousedown="handleReset()"/>
                <g id="arrowUp" xlink:href="#dirArrow" transform="translate(30 24)" onmousedown="handlePan(0,-1)">
                  <use xlink:href="#rim" fill="#404040">
                        <set attributeName="fill" to="#808080" begin="arrowUp.mouseover" end="arrowUp.mouseout"/>
                  </use>
                  <path fill="none" stroke="white" stroke-width="1.5" d="M0,-3.0v7 M-2.5,-0.5L0,-3.0L2.5,-0.5"/>
                </g>
                <g id="arrowRight" xlink:href="#dirArrow" transform="rotate(90) translate(36 -43)" onmousedown="handlePan(1,0)">
                  <use xlink:href="#rim" fill="#404040">
                        <set attributeName="fill" to="#808080" begin="arrowRight.mouseover" end="arrowRight.mouseout"/>
                  </use>
                  <path fill="none" stroke="white" stroke-width="1.5" d="M0,-3.0v7 M-2.5,-0.5L0,-3.0L2.5,-0.5"/>
                </g>
                <g id="arrowDown" xlink:href="#dirArrow" transform="rotate(180) translate(-30 -48)" onmousedown="handlePan(0,1)">
                  <use xlink:href="#rim" fill="#404040">
                        <set attributeName="fill" to="#808080" begin="arrowDown.mouseover" end="arrowDown.mouseout"/>
                  </use>
                  <path fill="none" stroke="white" stroke-width="1.5" d="M0,-3.0v7 M-2.5,-0.5L0,-3.0L2.5,-0.5"/>
                </g>
                <g id="arrowLeft" xlink:href="#dirArrow" transform="rotate(270) translate(-36 17)" onmousedown="handlePan(-1,0)">
                  <use xlink:href="#rim" fill="#404040">
                        <set attributeName="fill" to="#808080" begin="arrowLeft.mouseover" end="arrowLeft.mouseout"/>
                  </use>
                  <path fill="none" stroke="white" stroke-width="1.5" d="M0,-3.0v7 M-2.5,-0.5L0,-3.0L2.5,-0.5"/>
                </g>
        </g>
        <svg viewBox="0 0 15 15" width="100%" height="30px" preserveAspectRatio="xMaxYMin meet">
         <g id="arrow_out" transform="scale(0.3 0.3)">
          <a xlink:href="namespacesteppable_1_1____internals_1_1arithmetic_a1deb38d5027df01a66b6c3efd57aedca_icgraph_org.svg" target="_base">
           <rect id="button" ry="5" rx="5" y="6" x="6" height="38" width="38"
                fill="#f2f5e9" fill-opacity="0.5" stroke="#606060" stroke-width="1.0"/>
           <path id="arrow"
             d="M 11.500037,31.436501 C 11.940474,20.09759 22.043105,11.32322 32.158766,21.979434 L 37.068811,17.246167 C 37.068811,17.246167 37.088388,32 37.088388,32 L 22.160133,31.978069 C 22.160133,31.978069 26.997745,27.140456 26.997745,27.140456 C 18.528582,18.264221 13.291696,25.230495 11.500037,31.436501 z"
             style="fill:#404040;"/>
          </a>
         </g>
        </svg>
</svg>
