<?xml version="1.0" encoding="UTF-8" standalone="no"?>
<!DOCTYPE svg PUBLIC "-//W3C//DTD SVG 1.1//EN"
 "http://www.w3.org/Graphics/SVG/1.1/DTD/svg11.dtd">
<!-- Generated by graphviz version 12.2.0 (20241103.1931)
 -->
<!-- Title: ImGui::DockContextClearNodes Pages: 1 -->
<svg width="869pt" height="154pt"
 viewBox="0.00 0.00 868.75 154.12" xmlns="http://www.w3.org/2000/svg" xmlns:xlink="http://www.w3.org/1999/xlink">
<g id="graph0" class="graph" transform="scale(1 1) rotate(0) translate(4 150.12)">
<title>ImGui::DockContextClearNodes</title>
<!-- Node1 -->
<g id="Node000001" class="node">
<title>Node1</title>
<g id="a_Node000001"><a xlink:title=" ">
<polygon fill="#999999" stroke="#666666" points="860.75,-91.75 690.25,-91.75 690.25,-71 860.75,-71 860.75,-91.75"/>
<text text-anchor="middle" x="775.5" y="-78.25" font-family="Helvetica,sans-Serif" font-size="10.00">ImGui::DockContextClearNodes</text>
</a>
</g>
</g>
<!-- Node2 -->
<g id="Node000002" class="node">
<title>Node2</title>
<g id="a_Node000002"><a xlink:href="namespaceImGui.html#a7f7a9ea28b0557a655c27375eb941a56" target="_top" xlink:title=" ">
<polygon fill="white" stroke="#666666" points="464.25,-146.12 297.5,-146.12 297.5,-112.62 464.25,-112.62 464.25,-146.12"/>
<text text-anchor="start" x="305.5" y="-132.62" font-family="Helvetica,sans-Serif" font-size="10.00">ImGui::DockContextNewFrame</text>
<text text-anchor="middle" x="380.88" y="-119.88" font-family="Helvetica,sans-Serif" font-size="10.00">UpdateUndocking</text>
</a>
</g>
</g>
<!-- Node1&#45;&gt;Node2 -->
<g id="edge1_Node000001_Node000002" class="edge">
<title>Node1&#45;&gt;Node2</title>
<g id="a_edge1_Node000001_Node000002"><a xlink:title=" ">
<path fill="none" stroke="#63b8ff" d="M746.09,-97.61C722.39,-110.18 687.28,-126.54 654.25,-133.38 591.61,-146.34 519.14,-144.49 464.7,-139.86"/>
<polygon fill="#63b8ff" stroke="#63b8ff" points="747.68,-100.73 754.8,-92.88 744.34,-94.58 747.68,-100.73"/>
</a>
</g>
</g>
<!-- Node4 -->
<g id="Node000004" class="node">
<title>Node4</title>
<g id="a_Node000004"><a xlink:href="namespaceImGui.html#a6789c5ed2a793129d51cb29ff9865c86" target="_top" xlink:title=" ">
<polygon fill="white" stroke="#666666" points="652.75,-124.12 501.75,-124.12 501.75,-90.62 652.75,-90.62 652.75,-124.12"/>
<text text-anchor="start" x="509.75" y="-110.62" font-family="Helvetica,sans-Serif" font-size="10.00">ImGui::DockContextRebuild</text>
<text text-anchor="middle" x="577.25" y="-97.88" font-family="Helvetica,sans-Serif" font-size="10.00">Nodes</text>
</a>
</g>
</g>
<!-- Node1&#45;&gt;Node4 -->
<g id="edge3_Node000001_Node000004" class="edge">
<title>Node1&#45;&gt;Node4</title>
<g id="a_edge3_Node000001_Node000004"><a xlink:title=" ">
<path fill="none" stroke="#63b8ff" d="M681.53,-93.69C671.97,-94.96 662.35,-96.23 653.03,-97.47"/>
<polygon fill="#63b8ff" stroke="#63b8ff" points="681.74,-97.19 691.19,-92.41 680.82,-90.26 681.74,-97.19"/>
</a>
</g>
</g>
<!-- Node5 -->
<g id="Node000005" class="node">
<title>Node5</title>
<g id="a_Node000005"><a xlink:href="namespaceImGui.html#a715a6e2d43d08b58727623d0a61aa92e" target="_top" xlink:title=" ">
<polygon fill="white" stroke="#666666" points="654.25,-72.12 500.25,-72.12 500.25,-38.62 654.25,-38.62 654.25,-72.12"/>
<text text-anchor="start" x="508.25" y="-58.62" font-family="Helvetica,sans-Serif" font-size="10.00">ImGui::DockSettingsHandler</text>
<text text-anchor="middle" x="577.25" y="-45.88" font-family="Helvetica,sans-Serif" font-size="10.00">_ClearAll</text>
</a>
</g>
</g>
<!-- Node1&#45;&gt;Node5 -->
<g id="edge5_Node000001_Node000005" class="edge">
<title>Node1&#45;&gt;Node5</title>
<g id="a_edge5_Node000001_Node000005"><a xlink:title=" ">
<path fill="none" stroke="#63b8ff" d="M681.38,-69.04C672.4,-67.85 663.37,-66.65 654.59,-65.49"/>
<polygon fill="#63b8ff" stroke="#63b8ff" points="680.82,-72.49 691.19,-70.34 681.74,-65.56 680.82,-72.49"/>
</a>
</g>
</g>
<!-- Node9 -->
<g id="Node000009" class="node">
<title>Node9</title>
<g id="a_Node000009"><a xlink:href="namespaceImGui.html#afe7a28c6eb52fff3cc27d5a698fea4ff" target="_top" xlink:title=" ">
<polygon fill="white" stroke="#666666" points="653.5,-20.75 501,-20.75 501,0 653.5,0 653.5,-20.75"/>
<text text-anchor="middle" x="577.25" y="-7.25" font-family="Helvetica,sans-Serif" font-size="10.00">ImGui::ShowMetricsWindow</text>
</a>
</g>
</g>
<!-- Node1&#45;&gt;Node9 -->
<g id="edge9_Node000001_Node000009" class="edge">
<title>Node1&#45;&gt;Node9</title>
<g id="a_edge9_Node000001_Node000009"><a xlink:title=" ">
<path fill="none" stroke="#63b8ff" d="M742.51,-65.84C718.6,-54.65 684.89,-39.75 654.25,-29.38 645.36,-26.36 635.74,-23.6 626.43,-21.16"/>
<polygon fill="#63b8ff" stroke="#63b8ff" points="740.86,-68.93 751.39,-70.04 743.85,-62.6 740.86,-68.93"/>
</a>
</g>
</g>
<!-- Node3 -->
<g id="Node000003" class="node">
<title>Node3</title>
<g id="a_Node000003"><a xlink:href="namespaceImGui.html#ab3f1fc018f903b7ad79fd10663375774" target="_top" xlink:title=" ">
<polygon fill="white" stroke="#666666" points="261.5,-139.75 157.75,-139.75 157.75,-119 261.5,-119 261.5,-139.75"/>
<text text-anchor="middle" x="209.62" y="-126.25" font-family="Helvetica,sans-Serif" font-size="10.00">ImGui::NewFrame</text>
</a>
</g>
</g>
<!-- Node2&#45;&gt;Node3 -->
<g id="edge2_Node000002_Node000003" class="edge">
<title>Node2&#45;&gt;Node3</title>
<g id="a_edge2_Node000002_Node000003"><a xlink:title=" ">
<path fill="none" stroke="#63b8ff" d="M285.92,-129.38C277.66,-129.38 269.51,-129.38 261.81,-129.38"/>
<polygon fill="#63b8ff" stroke="#63b8ff" points="285.72,-132.88 295.72,-129.38 285.72,-125.88 285.72,-132.88"/>
</a>
</g>
</g>
<!-- Node4&#45;&gt;Node2 -->
<g id="edge4_Node000004_Node000002" class="edge">
<title>Node4&#45;&gt;Node2</title>
<g id="a_edge4_Node000004_Node000002"><a xlink:title=" ">
<path fill="none" stroke="#63b8ff" d="M490.22,-117.11C481.66,-118.08 472.99,-119.06 464.47,-120.03"/>
<polygon fill="#63b8ff" stroke="#63b8ff" points="490.33,-120.62 499.87,-116.02 489.54,-113.67 490.33,-120.62"/>
</a>
</g>
</g>
<!-- Node6 -->
<g id="Node000006" class="node">
<title>Node6</title>
<g id="a_Node000006"><a xlink:href="namespaceImGui.html#a3b7bcf876b64c28c4eb3868f79728499" target="_top" xlink:title=" ">
<polygon fill="white" stroke="#666666" points="459,-65.75 302.75,-65.75 302.75,-45 459,-45 459,-65.75"/>
<text text-anchor="middle" x="380.88" y="-52.25" font-family="Helvetica,sans-Serif" font-size="10.00">ImGui::DockContextInitialize</text>
</a>
</g>
</g>
<!-- Node5&#45;&gt;Node6 -->
<g id="edge6_Node000005_Node000006" class="edge">
<title>Node5&#45;&gt;Node6</title>
<g id="a_edge6_Node000005_Node000006"><a xlink:title=" ">
<path fill="none" stroke="#63b8ff" d="M488.57,-55.38C478.77,-55.38 468.85,-55.38 459.2,-55.38"/>
<polygon fill="#63b8ff" stroke="#63b8ff" points="488.47,-58.88 498.47,-55.38 488.47,-51.88 488.47,-58.88"/>
</a>
</g>
</g>
<!-- Node7 -->
<g id="Node000007" class="node">
<title>Node7</title>
<g id="a_Node000007"><a xlink:href="namespaceImGui.html#a1a611da38fae18a3d1dafcb3228259da" target="_top" xlink:title=" ">
<polygon fill="white" stroke="#666666" points="256.25,-65.75 163,-65.75 163,-45 256.25,-45 256.25,-65.75"/>
<text text-anchor="middle" x="209.62" y="-52.25" font-family="Helvetica,sans-Serif" font-size="10.00">ImGui::Initialize</text>
</a>
</g>
</g>
<!-- Node6&#45;&gt;Node7 -->
<g id="edge7_Node000006_Node000007" class="edge">
<title>Node6&#45;&gt;Node7</title>
<g id="a_edge7_Node000006_Node000007"><a xlink:title=" ">
<path fill="none" stroke="#63b8ff" d="M291.49,-55.38C279.31,-55.38 267.24,-55.38 256.28,-55.38"/>
<polygon fill="#63b8ff" stroke="#63b8ff" points="291.17,-58.88 301.17,-55.38 291.17,-51.88 291.17,-58.88"/>
</a>
</g>
</g>
<!-- Node8 -->
<g id="Node000008" class="node">
<title>Node8</title>
<g id="a_Node000008"><a xlink:href="namespaceImGui.html#a4ff6c9ad05a0eba37ce1b5ff1607810a" target="_top" xlink:title=" ">
<polygon fill="white" stroke="#666666" points="121.75,-65.75 0,-65.75 0,-45 121.75,-45 121.75,-65.75"/>
<text text-anchor="middle" x="60.88" y="-52.25" font-family="Helvetica,sans-Serif" font-size="10.00">ImGui::CreateContext</text>
</a>
</g>
</g>
<!-- Node7&#45;&gt;Node8 -->
<g id="edge8_Node000007_Node000008" class="edge">
<title>Node7&#45;&gt;Node8</title>
<g id="a_edge8_Node000007_Node000008"><a xlink:title=" ">
<path fill="none" stroke="#63b8ff" d="M151.16,-55.38C141.6,-55.38 131.65,-55.38 122.02,-55.38"/>
<polygon fill="#63b8ff" stroke="#63b8ff" points="151.08,-58.88 161.08,-55.38 151.08,-51.88 151.08,-58.88"/>
</a>
</g>
</g>
<!-- Node10 -->
<g id="Node000010" class="node">
<title>Node10</title>
<g id="a_Node000010"><a xlink:href="namespaceImGui.html#af95643a0ce4893b9e57c12991922fb18" target="_top" xlink:title=" ">
<polygon fill="white" stroke="#666666" points="453.75,-20.75 308,-20.75 308,0 453.75,0 453.75,-20.75"/>
<text text-anchor="middle" x="380.88" y="-7.25" font-family="Helvetica,sans-Serif" font-size="10.00">ImGui::ShowDemoWindow</text>
</a>
</g>
</g>
<!-- Node9&#45;&gt;Node10 -->
<g id="edge10_Node000009_Node000010" class="edge">
<title>Node9&#45;&gt;Node10</title>
<g id="a_edge10_Node000009_Node000010"><a xlink:title=" ">
<path fill="none" stroke="#63b8ff" d="M489.36,-10.38C477.61,-10.38 465.65,-10.38 454.19,-10.38"/>
<polygon fill="#63b8ff" stroke="#63b8ff" points="489.03,-13.88 499.03,-10.38 489.03,-6.88 489.03,-13.88"/>
</a>
</g>
</g>
</g>
</svg>
