<?xml version="1.0" encoding="UTF-8" standalone="no"?>
<!DOCTYPE svg PUBLIC "-//W3C//DTD SVG 1.1//EN"
 "http://www.w3.org/Graphics/SVG/1.1/DTD/svg11.dtd">
<!-- Generated by graphviz version 12.2.1 (20241206.2353)
 -->
<!-- Title: steppable::__internals::numUtils::determineScale Pages: 1 -->
<svg width="912pt" height="291pt"
 viewBox="0.00 0.00 911.50 291.17" xmlns="http://www.w3.org/2000/svg" xmlns:xlink="http://www.w3.org/1999/xlink">
<g id="graph0" class="graph" transform="scale(1 1) rotate(0) translate(4 287.17)">
<title>steppable::__internals::numUtils::determineScale</title>
<!-- Node1 -->
<g id="Node000001" class="node">
<title>Node1</title>
<g id="a_Node000001"><a xlink:title="Determines the scale of a number, i.e., the power of 10 when it is expressed in scientific notation.">
<polygon fill="#999999" stroke="#666666" points="148.75,-265.5 0,-265.5 0,-232 148.75,-232 148.75,-265.5"/>
<text text-anchor="start" x="8" y="-252" font-family="Helvetica,sans-Serif" font-size="10.00">steppable::__internals</text>
<text text-anchor="middle" x="74.38" y="-239.25" font-family="Helvetica,sans-Serif" font-size="10.00">::numUtils::determineScale</text>
</a>
</g>
</g>
<!-- Node2 -->
<g id="Node000002" class="node">
<title>Node2</title>
<g id="a_Node000002"><a xlink:href="namespacesteppable_1_1____internals_1_1numUtils.html#a6cc23d8eda7defd591a87a8b1d8b869d" target="_top" xlink:title="Checks if a given string is a zero string.">
<polygon fill="white" stroke="#666666" points="903.5,-220.5 772,-220.5 772,-187 903.5,-187 903.5,-220.5"/>
<text text-anchor="start" x="780" y="-207" font-family="Helvetica,sans-Serif" font-size="10.00">steppable::__internals</text>
<text text-anchor="middle" x="837.75" y="-194.25" font-family="Helvetica,sans-Serif" font-size="10.00">::numUtils::isZeroString</text>
</a>
</g>
</g>
<!-- Node1&#45;&gt;Node2 -->
<g id="edge1_Node000001_Node000002" class="edge">
<title>Node1&#45;&gt;Node2</title>
<g id="a_edge1_Node000001_Node000002"><a xlink:title=" ">
<path fill="none" stroke="#63b8ff" d="M149.15,-258.77C161.04,-260.22 173.23,-261.6 184.75,-262.75 336.98,-277.91 376.75,-292.04 528.75,-274.75 612.72,-265.2 707.12,-241.44 769.02,-224.03"/>
<polygon fill="#63b8ff" stroke="#63b8ff" points="769.69,-227.48 778.35,-221.38 767.78,-220.75 769.69,-227.48"/>
</a>
</g>
</g>
<!-- Node3 -->
<g id="Node000003" class="node">
<title>Node3</title>
<g id="a_Node000003"><a xlink:href="namespacesteppable_1_1____internals_1_1numUtils.html#a3d4e1e21ccf1afecd766d3152df87212" target="_top" xlink:title=" ">
<polygon fill="white" stroke="#666666" points="528.75,-265.5 353,-265.5 353,-232 528.75,-232 528.75,-265.5"/>
<text text-anchor="start" x="361" y="-252" font-family="Helvetica,sans-Serif" font-size="10.00">steppable::__internals</text>
<text text-anchor="middle" x="440.88" y="-239.25" font-family="Helvetica,sans-Serif" font-size="10.00">::numUtils::removeLeadingZeros</text>
</a>
</g>
</g>
<!-- Node1&#45;&gt;Node3 -->
<g id="edge2_Node000001_Node000003" class="edge">
<title>Node1&#45;&gt;Node3</title>
<g id="a_edge2_Node000001_Node000003"><a xlink:title=" ">
<path fill="none" stroke="#63b8ff" d="M149.14,-248.75C204.44,-248.75 280.71,-248.75 341.25,-248.75"/>
<polygon fill="#63b8ff" stroke="#63b8ff" points="341.24,-252.25 351.24,-248.75 341.24,-245.25 341.24,-252.25"/>
</a>
</g>
</g>
<!-- Node4 -->
<g id="Node000004" class="node">
<title>Node4</title>
<g id="a_Node000004"><a xlink:href="namespacesteppable_1_1____internals_1_1numUtils.html#af904a63deb5a7cc413325eb08b2118f3" target="_top" xlink:title=" ">
<polygon fill="white" stroke="#666666" points="317,-175.5 184.75,-175.5 184.75,-142 317,-142 317,-175.5"/>
<text text-anchor="start" x="192.75" y="-162" font-family="Helvetica,sans-Serif" font-size="10.00">steppable::__internals</text>
<text text-anchor="middle" x="250.88" y="-149.25" font-family="Helvetica,sans-Serif" font-size="10.00">::numUtils::splitNumber</text>
</a>
</g>
</g>
<!-- Node1&#45;&gt;Node4 -->
<g id="edge3_Node000001_Node000004" class="edge">
<title>Node1&#45;&gt;Node4</title>
<g id="a_edge3_Node000001_Node000004"><a xlink:title=" ">
<path fill="none" stroke="#63b8ff" d="M108.61,-231.61C136.42,-217.27 176.29,-196.7 206.59,-181.07"/>
<polygon fill="#63b8ff" stroke="#63b8ff" points="207.84,-184.37 215.12,-176.67 204.63,-178.15 207.84,-184.37"/>
</a>
</g>
</g>
<!-- Node4&#45;&gt;Node2 -->
<g id="edge4_Node000004_Node000002" class="edge">
<title>Node4&#45;&gt;Node2</title>
<g id="a_edge4_Node000004_Node000002"><a xlink:title=" ">
<path fill="none" stroke="#63b8ff" d="M310,-175.94C323.97,-179.45 338.92,-182.69 353,-184.75 495.84,-205.68 664.78,-207.07 760.49,-205.73"/>
<polygon fill="#63b8ff" stroke="#63b8ff" points="760.34,-209.23 770.28,-205.58 760.23,-202.23 760.34,-209.23"/>
</a>
</g>
</g>
<!-- Node4&#45;&gt;Node3 -->
<g id="edge5_Node000004_Node000003" class="edge">
<title>Node4&#45;&gt;Node3</title>
<g id="a_edge5_Node000004_Node000003"><a xlink:title=" ">
<path fill="none" stroke="#63b8ff" d="M278.19,-175.92C298.18,-188.52 326.65,-205.49 353,-217.75 360.39,-221.19 368.27,-224.48 376.16,-227.56"/>
<polygon fill="#63b8ff" stroke="#63b8ff" points="374.86,-230.81 385.46,-231.07 377.34,-224.26 374.86,-230.81"/>
</a>
</g>
</g>
<!-- Node5 -->
<g id="Node000005" class="node">
<title>Node5</title>
<g id="a_Node000005"><a xlink:href="namespacesteppable_1_1____internals_1_1numUtils.html#a5d7e8d74d304a1ac7fc2ad4dbf5b40ae" target="_top" xlink:title=" ">
<polygon fill="white" stroke="#666666" points="527.25,-175.5 354.5,-175.5 354.5,-142 527.25,-142 527.25,-175.5"/>
<text text-anchor="start" x="362.5" y="-162" font-family="Helvetica,sans-Serif" font-size="10.00">steppable::__internals</text>
<text text-anchor="middle" x="440.88" y="-149.25" font-family="Helvetica,sans-Serif" font-size="10.00">::numUtils::removeTrailingZeros</text>
</a>
</g>
</g>
<!-- Node4&#45;&gt;Node5 -->
<g id="edge6_Node000004_Node000005" class="edge">
<title>Node4&#45;&gt;Node5</title>
<g id="a_edge6_Node000004_Node000005"><a xlink:title=" ">
<path fill="none" stroke="#63b8ff" d="M317.36,-158.75C325.62,-158.75 334.19,-158.75 342.8,-158.75"/>
<polygon fill="#63b8ff" stroke="#63b8ff" points="342.61,-162.25 352.61,-158.75 342.61,-155.25 342.61,-162.25"/>
</a>
</g>
</g>
<!-- Node6 -->
<g id="Node000006" class="node">
<title>Node6</title>
<g id="a_Node000006"><a xlink:href="namespacesteppable_1_1____internals_1_1numUtils.html#a4d4ffec10442fd8ab9b778e4ff5168dc" target="_top" xlink:title="Simplifies a string with non&#45;standard polarity (e.g., –1, —1, etc.).">
<polygon fill="white" stroke="#666666" points="515.25,-123.5 366.5,-123.5 366.5,-90 515.25,-90 515.25,-123.5"/>
<text text-anchor="start" x="374.5" y="-110" font-family="Helvetica,sans-Serif" font-size="10.00">steppable::__internals</text>
<text text-anchor="middle" x="440.88" y="-97.25" font-family="Helvetica,sans-Serif" font-size="10.00">::numUtils::simplifyPolarity</text>
</a>
</g>
</g>
<!-- Node4&#45;&gt;Node6 -->
<g id="edge7_Node000004_Node000006" class="edge">
<title>Node4&#45;&gt;Node6</title>
<g id="a_edge7_Node000004_Node000006"><a xlink:title=" ">
<path fill="none" stroke="#63b8ff" d="M314.22,-141.51C331.12,-136.83 349.57,-131.73 367.01,-126.91"/>
<polygon fill="#63b8ff" stroke="#63b8ff" points="367.54,-130.39 376.24,-124.35 365.67,-123.64 367.54,-130.39"/>
</a>
</g>
</g>
<!-- Node7 -->
<g id="Node000007" class="node">
<title>Node7</title>
<g id="a_Node000007"><a xlink:href="namespacesteppable_1_1____internals_1_1numUtils.html#a503084b920a7cfd569d321e04dcb4ae5" target="_top" xlink:title="Simplifies a string that represents a number with non&#45;standard polarity.">
<polygon fill="white" stroke="#666666" points="736,-123.5 564.75,-123.5 564.75,-90 736,-90 736,-123.5"/>
<text text-anchor="start" x="572.75" y="-110" font-family="Helvetica,sans-Serif" font-size="10.00">steppable::__internals</text>
<text text-anchor="middle" x="650.38" y="-97.25" font-family="Helvetica,sans-Serif" font-size="10.00">::numUtils::simplifyZeroPolarity</text>
</a>
</g>
</g>
<!-- Node4&#45;&gt;Node7 -->
<g id="edge10_Node000004_Node000007" class="edge">
<title>Node4&#45;&gt;Node7</title>
<g id="a_edge10_Node000004_Node000007"><a xlink:title=" ">
<path fill="none" stroke="#63b8ff" d="M267.01,-141.7C285.21,-122.6 317.74,-92.77 353,-80.75 430.09,-54.47 524.66,-70.43 585.92,-86.56"/>
<polygon fill="#63b8ff" stroke="#63b8ff" points="584.94,-89.92 595.5,-89.17 586.77,-83.17 584.94,-89.92"/>
</a>
</g>
</g>
<!-- Node8 -->
<g id="Node000008" class="node">
<title>Node8</title>
<g id="a_Node000008"><a xlink:href="namespacesteppable_1_1____internals_1_1stringUtils.html#a2600efb348f0dd19cc0068946d06b1b7" target="_top" xlink:title="Splits a string into substrings based on a separator.">
<polygon fill="white" stroke="#666666" points="502.5,-33.5 379.25,-33.5 379.25,0 502.5,0 502.5,-33.5"/>
<text text-anchor="start" x="387.25" y="-20" font-family="Helvetica,sans-Serif" font-size="10.00">steppable::__internals</text>
<text text-anchor="middle" x="440.88" y="-7.25" font-family="Helvetica,sans-Serif" font-size="10.00">::stringUtils::split</text>
</a>
</g>
</g>
<!-- Node4&#45;&gt;Node8 -->
<g id="edge11_Node000004_Node000008" class="edge">
<title>Node4&#45;&gt;Node8</title>
<g id="a_edge11_Node000004_Node000008"><a xlink:title=" ">
<path fill="none" stroke="#63b8ff" d="M263.28,-141.68C280.19,-117.57 314.16,-73.61 353,-47.75 358.08,-44.37 363.58,-41.3 369.25,-38.54"/>
<polygon fill="#63b8ff" stroke="#63b8ff" points="370.54,-41.8 378.22,-34.51 367.66,-35.42 370.54,-41.8"/>
</a>
</g>
</g>
<!-- Node6&#45;&gt;Node7 -->
<g id="edge8_Node000006_Node000007" class="edge">
<title>Node6&#45;&gt;Node7</title>
<g id="a_edge8_Node000006_Node000007"><a xlink:title=" ">
<path fill="none" stroke="#63b8ff" d="M515.62,-106.75C527.75,-106.75 540.47,-106.75 553.05,-106.75"/>
<polygon fill="#63b8ff" stroke="#63b8ff" points="553.03,-110.25 563.03,-106.75 553.03,-103.25 553.03,-110.25"/>
</a>
</g>
</g>
<!-- Node7&#45;&gt;Node2 -->
<g id="edge9_Node000007_Node000002" class="edge">
<title>Node7&#45;&gt;Node2</title>
<g id="a_edge9_Node000007_Node000002"><a xlink:title=" ">
<path fill="none" stroke="#63b8ff" d="M684.09,-123.87C714.7,-139.89 760.61,-163.91 794.09,-181.43"/>
<polygon fill="#63b8ff" stroke="#63b8ff" points="792.23,-184.4 802.71,-185.94 795.47,-178.2 792.23,-184.4"/>
</a>
</g>
</g>
</g>
</svg>
