<?xml version="1.0" encoding="UTF-8" standalone="no"?>
<!DOCTYPE svg PUBLIC "-//W3C//DTD SVG 1.1//EN"
 "http://www.w3.org/Graphics/SVG/1.1/DTD/svg11.dtd">
<!-- Generated by graphviz version 12.0.0 (20240704.0754)
 -->
<!-- Title: ImGui::Shutdown Pages: 1 -->
<!--zoomable 673 -->

<svg id="main" version="1.1" xmlns="http://www.w3.org/2000/svg" xmlns:xlink="http://www.w3.org/1999/xlink" xml:space="preserve" onload="init(evt)">
<style type="text/css"><![CDATA[
.node, .edge {opacity: 0.7;}
.node.selected, .edge.selected {opacity: 1;}
.edge:hover path { stroke: red; }
.edge:hover polygon { stroke: red; fill: red; }
]]></style>

<defs>
  <circle id="rim" cx="0" cy="0" r="7"/>
  <circle id="rim2" cx="0" cy="0" r="3.5"/>
  <g id="zoomPlus">
    <use xlink:href="#rim" fill="#404040"><set attributeName="fill" to="#808080" begin="zoomplus.mouseover" end="zoomplus.mouseout"/></use>
    <path d="M-4,0h8M0,-4v8" fill="none" stroke="white" stroke-width="1.5" pointer-events="none"/>
  </g>
  <g id="zoomMin">
    <use xlink:href="#rim" fill="#404040"><set attributeName="fill" to="#808080" begin="zoomminus.mouseover" end="zoomminus.mouseout"/></use>
    <path d="M-4,0h8" fill="none" stroke="white" stroke-width="1.5" pointer-events="none"/>
  </g>
  <g id="arrowUp" transform="translate(30 24)">
    <use xlink:href="#rim"/>
    <path pointer-events="none" fill="none" stroke="white" stroke-width="1.5" d="M0,-3.0v7 M-2.5,-0.5L0,-3.0L2.5,-0.5"/>
  </g>
  <g id="arrowRight" transform="rotate(90) translate(36 -43)">
    <use xlink:href="#rim"/>
    <path pointer-events="none" fill="none" stroke="white" stroke-width="1.5" d="M0,-3.0v7 M-2.5,-0.5L0,-3.0L2.5,-0.5"/>
  </g>
  <g id="arrowDown" transform="rotate(180) translate(-30 -48)">
    <use xlink:href="#rim"/>
    <path pointer-events="none" fill="none" stroke="white" stroke-width="1.5" d="M0,-3.0v7 M-2.5,-0.5L0,-3.0L2.5,-0.5"/>
  </g>
  <g id="arrowLeft" transform="rotate(270) translate(-36 17)">
    <use xlink:href="#rim"/>
    <path pointer-events="none" fill="none" stroke="white" stroke-width="1.5" d="M0,-3.0v7 M-2.5,-0.5L0,-3.0L2.5,-0.5"/>
  </g>
  <g id="resetDef">
    <use xlink:href="#rim2" fill="#404040"><set attributeName="fill" to="#808080" begin="reset.mouseover" end="reset.mouseout"/></use>
  </g>
</defs>
<script type="application/ecmascript">
var viewWidth = 905;
var viewHeight = 673;
var sectionId = 'dynsection-1097';
</script>
<script type="application/ecmascript" xlink:href="svg.min.js"/>
<svg id="graph" class="graph">
<g id="viewport">
<title>ImGui::Shutdown</title>
<!-- Node1 -->
<g id="Node000001" class="node">
<title>Node1</title>
<g id="a_Node000001"><a xlink:title=" ">
<polygon fill="#999999" stroke="#666666" points="99.25,-370.75 0,-370.75 0,-350 99.25,-350 99.25,-370.75"/>
<text text-anchor="middle" x="49.62" y="-357.25" font-family="Helvetica,sans-Serif" font-size="10.00">ImGui::Shutdown</text>
</a>
</g>
</g>
<!-- Node2 -->
<g id="Node000002" class="node">
<title>Node2</title>
<g id="a_Node000002"><a xlink:href="namespaceImGui.html#a61ced7f0dd38c604e895400a2e5eeeb2" target="_top" xlink:title=" ">
<polygon fill="white" stroke="#666666" points="292.62,-664.75 153.62,-664.75 153.62,-644 292.62,-644 292.62,-664.75"/>
<text text-anchor="middle" x="223.12" y="-651.25" font-family="Helvetica,sans-Serif" font-size="10.00">ImGui::CallContextHooks</text>
</a>
</g>
</g>
<!-- Node1&#45;&gt;Node2 -->
<g id="edge1_Node000001_Node000002" class="edge">
<title>Node1&#45;&gt;Node2</title>
<g id="a_edge1_Node000001_Node000002"><a xlink:title=" ">
<path fill="none" stroke="#63b8ff" d="M50.57,-370.98C50.96,-411.17 57.89,-555.62 135.25,-630.38 138.3,-633.32 141.67,-635.91 145.28,-638.19"/>
<polygon fill="#63b8ff" stroke="#63b8ff" points="143.45,-641.19 153.92,-642.81 146.75,-635.01 143.45,-641.19"/>
</a>
</g>
</g>
<!-- Node3 -->
<g id="Node000003" class="node">
<title>Node3</title>
<g id="a_Node000003"><a xlink:href="structImGuiKeyRoutingTable.html#ae8180926fc30691edcc29d0a74d13d24" target="_top" xlink:title=" ">
<polygon fill="white" stroke="#666666" points="495.38,-335.12 369.12,-335.12 369.12,-301.62 495.38,-301.62 495.38,-335.12"/>
<text text-anchor="start" x="377.12" y="-321.62" font-family="Helvetica,sans-Serif" font-size="10.00">ImGuiKeyRoutingTable</text>
<text text-anchor="middle" x="432.25" y="-308.88" font-family="Helvetica,sans-Serif" font-size="10.00">::Clear</text>
</a>
</g>
</g>
<!-- Node1&#45;&gt;Node3 -->
<g id="edge2_Node000001_Node000003" class="edge">
<title>Node1&#45;&gt;Node3</title>
<g id="a_edge2_Node000001_Node000003"><a xlink:title=" ">
<path fill="none" stroke="#63b8ff" d="M99.32,-351.72C111.06,-349.8 123.58,-347.89 135.25,-346.38 210.75,-336.57 297.51,-328.77 357.49,-323.92"/>
<polygon fill="#63b8ff" stroke="#63b8ff" points="357.55,-327.42 367.23,-323.14 356.99,-320.45 357.55,-327.42"/>
</a>
</g>
</g>
<!-- Node4 -->
<g id="Node000004" class="node">
<title>Node4</title>
<g id="a_Node000004"><a xlink:href="structImVector.html#ae2d401b4ec5f1113cdb8edb5a61a38f7" target="_top" xlink:title=" ">
<polygon fill="white" stroke="#666666" points="681.25,-437.75 591.75,-437.75 591.75,-417 681.25,-417 681.25,-437.75"/>
<text text-anchor="middle" x="636.5" y="-424.25" font-family="Helvetica,sans-Serif" font-size="10.00">ImVector::clear</text>
</a>
</g>
</g>
<!-- Node1&#45;&gt;Node4 -->
<g id="edge14_Node000001_Node000004" class="edge">
<title>Node1&#45;&gt;Node4</title>
<g id="a_edge14_Node000001_Node000004"><a xlink:title=" ">
<path fill="none" stroke="#63b8ff" d="M99.66,-362.98C152.07,-365.98 237.54,-371.55 311,-379.38 403.16,-389.2 425.86,-394.56 517.5,-408.38 537.91,-411.45 560.28,-415.01 580,-418.2"/>
<polygon fill="#63b8ff" stroke="#63b8ff" points="579.34,-421.64 589.77,-419.79 580.46,-414.73 579.34,-421.64"/>
</a>
</g>
</g>
<!-- Node5 -->
<g id="Node000005" class="node">
<title>Node5</title>
<g id="a_Node000005"><a xlink:href="structImGuiStorage.html#a72ceecfbca3d08df8c2a232b77890c20" target="_top" xlink:title=" ">
<polygon fill="white" stroke="#666666" points="489.38,-283.75 375.12,-283.75 375.12,-263 489.38,-263 489.38,-283.75"/>
<text text-anchor="middle" x="432.25" y="-270.25" font-family="Helvetica,sans-Serif" font-size="10.00">ImGuiStorage::Clear</text>
</a>
</g>
</g>
<!-- Node1&#45;&gt;Node5 -->
<g id="edge4_Node000001_Node000005" class="edge">
<title>Node1&#45;&gt;Node5</title>
<g id="a_edge4_Node000001_Node000005"><a xlink:title=" ">
<path fill="none" stroke="#63b8ff" d="M56.06,-349.77C67.42,-328.89 95.95,-283 135.25,-265.38 216.11,-229.11 322.3,-245.32 383.03,-259.77"/>
<polygon fill="#63b8ff" stroke="#63b8ff" points="382.17,-263.16 392.72,-262.16 383.85,-256.37 382.17,-263.16"/>
</a>
</g>
</g>
<!-- Node6 -->
<g id="Node000006" class="node">
<title>Node6</title>
<g id="a_Node000006"><a xlink:href="structImPool.html#a613b0fa43ad7457ebde2988d4ea5f0be" target="_top" xlink:title=" ">
<polygon fill="white" stroke="#666666" points="263.75,-294.75 182.5,-294.75 182.5,-274 263.75,-274 263.75,-294.75"/>
<text text-anchor="middle" x="223.12" y="-281.25" font-family="Helvetica,sans-Serif" font-size="10.00">ImPool::Clear</text>
</a>
</g>
</g>
<!-- Node1&#45;&gt;Node6 -->
<g id="edge6_Node000001_Node000006" class="edge">
<title>Node1&#45;&gt;Node6</title>
<g id="a_edge6_Node000001_Node000006"><a xlink:title=" ">
<path fill="none" stroke="#63b8ff" d="M65.21,-349.64C81.55,-338.04 109.16,-319.72 135.25,-308.38 146.68,-303.41 159.4,-299.21 171.51,-295.78"/>
<polygon fill="#63b8ff" stroke="#63b8ff" points="172.19,-299.22 180.94,-293.24 170.37,-292.46 172.19,-299.22"/>
</a>
</g>
</g>
<!-- Node7 -->
<g id="Node000007" class="node">
<title>Node7</title>
<g id="a_Node000007"><a xlink:href="structImChunkStream.html#a3bf3babbba7a8edafce99be0589379a3" target="_top" xlink:title=" ">
<polygon fill="white" stroke="#666666" points="494.62,-234.75 369.88,-234.75 369.88,-214 494.62,-214 494.62,-234.75"/>
<text text-anchor="middle" x="432.25" y="-221.25" font-family="Helvetica,sans-Serif" font-size="10.00">ImChunkStream::clear</text>
</a>
</g>
</g>
<!-- Node1&#45;&gt;Node7 -->
<g id="edge8_Node000001_Node000007" class="edge">
<title>Node1&#45;&gt;Node7</title>
<g id="a_edge8_Node000001_Node000007"><a xlink:title=" ">
<path fill="none" stroke="#63b8ff" d="M54.25,-349.75C63.34,-324.98 89.7,-263.6 135.25,-238.38 206.85,-198.72 303.78,-202.95 366.9,-211.83"/>
<polygon fill="#63b8ff" stroke="#63b8ff" points="366.38,-215.29 376.78,-213.31 367.41,-208.37 366.38,-215.29"/>
</a>
</g>
</g>
<!-- Node8 -->
<g id="Node000008" class="node">
<title>Node8</title>
<g id="a_Node000008"><a xlink:href="structImGuiTextBuffer.html#a9e4edc9f950bc9e35d5c3b3071dbc0df" target="_top" xlink:title=" ">
<polygon fill="white" stroke="#666666" points="494.62,-625.75 369.88,-625.75 369.88,-605 494.62,-605 494.62,-625.75"/>
<text text-anchor="middle" x="432.25" y="-612.25" font-family="Helvetica,sans-Serif" font-size="10.00">ImGuiTextBuffer::clear</text>
</a>
</g>
</g>
<!-- Node1&#45;&gt;Node8 -->
<g id="edge10_Node000001_Node000008" class="edge">
<title>Node1&#45;&gt;Node8</title>
<g id="a_edge10_Node000001_Node000008"><a xlink:title=" ">
<path fill="none" stroke="#63b8ff" d="M50.92,-371.17C52.58,-408.25 63.49,-531.24 135.25,-586.38 200.05,-636.16 297.84,-635.47 363.08,-627.69"/>
<polygon fill="#63b8ff" stroke="#63b8ff" points="363.49,-631.17 372.96,-626.42 362.6,-624.23 363.49,-631.17"/>
</a>
</g>
</g>
<!-- Node9 -->
<g id="Node000009" class="node">
<title>Node9</title>
<g id="a_Node000009"><a xlink:href="structImGuiTextIndex.html#a4c4f61227f86144ae9c054cc865eecb3" target="_top" xlink:title=" ">
<polygon fill="white" stroke="#666666" points="493.5,-585.75 371,-585.75 371,-565 493.5,-565 493.5,-585.75"/>
<text text-anchor="middle" x="432.25" y="-572.25" font-family="Helvetica,sans-Serif" font-size="10.00">ImGuiTextIndex::clear</text>
</a>
</g>
</g>
<!-- Node1&#45;&gt;Node9 -->
<g id="edge12_Node000001_Node000009" class="edge">
<title>Node1&#45;&gt;Node9</title>
<g id="a_edge12_Node000001_Node000009"><a xlink:title=" ">
<path fill="none" stroke="#63b8ff" d="M51.63,-371.01C55.4,-404.39 71.95,-507.51 135.25,-552.38 203.28,-600.6 303.55,-597.05 368.13,-587.92"/>
<polygon fill="#63b8ff" stroke="#63b8ff" points="368.5,-591.4 377.87,-586.45 367.46,-584.48 368.5,-591.4"/>
</a>
</g>
</g>
<!-- Node10 -->
<g id="Node000010" class="node">
<title>Node10</title>
<g id="a_Node000010"><a xlink:href="structImVector.html#aed9c986ef3cd59fabbd89355d0023122" target="_top" xlink:title=" ">
<polygon fill="white" stroke="#666666" points="495,-545.75 369.5,-545.75 369.5,-525 495,-525 495,-545.75"/>
<text text-anchor="middle" x="432.25" y="-532.25" font-family="Helvetica,sans-Serif" font-size="10.00">ImVector::clear_delete</text>
</a>
</g>
</g>
<!-- Node1&#45;&gt;Node10 -->
<g id="edge15_Node000001_Node000010" class="edge">
<title>Node1&#45;&gt;Node10</title>
<g id="a_edge15_Node000001_Node000010"><a xlink:title=" ">
<path fill="none" stroke="#63b8ff" d="M52.51,-371.08C58.41,-401.05 79.58,-485.92 135.25,-521.38 207.6,-567.45 311.28,-559.45 374.78,-548.26"/>
<polygon fill="#63b8ff" stroke="#63b8ff" points="375.08,-551.76 384.28,-546.5 373.8,-544.88 375.08,-551.76"/>
</a>
</g>
</g>
<!-- Node11 -->
<g id="Node000011" class="node">
<title>Node11</title>
<g id="a_Node000011"><a xlink:href="structImVector.html#ac1ed34eac753156e87e8a92f78dbbe3f" target="_top" xlink:title=" ">
<polygon fill="white" stroke="#666666" points="290.38,-512.75 155.88,-512.75 155.88,-492 290.38,-492 290.38,-512.75"/>
<text text-anchor="middle" x="223.12" y="-499.25" font-family="Helvetica,sans-Serif" font-size="10.00">ImVector::clear_destruct</text>
</a>
</g>
</g>
<!-- Node1&#45;&gt;Node11 -->
<g id="edge17_Node000001_Node000011" class="edge">
<title>Node1&#45;&gt;Node11</title>
<g id="a_edge17_Node000001_Node000011"><a xlink:title=" ">
<path fill="none" stroke="#63b8ff" d="M54.68,-370.94C64.5,-395.06 92.01,-454.31 135.25,-483.38 138.33,-485.44 141.59,-487.29 144.97,-488.94"/>
<polygon fill="#63b8ff" stroke="#63b8ff" points="143.48,-492.1 154.05,-492.73 146.18,-485.65 143.48,-492.1"/>
</a>
</g>
</g>
<!-- Node12 -->
<g id="Node000012" class="node">
<title>Node12</title>
<g id="a_Node000012"><a xlink:href="structImGuiInputTextDeactivatedState.html#ab25f0ed83856bf370fa78e9a6aaaa895" target="_top" xlink:title=" ">
<polygon fill="white" stroke="#666666" points="297.88,-474.12 148.38,-474.12 148.38,-440.62 297.88,-440.62 297.88,-474.12"/>
<text text-anchor="start" x="156.38" y="-460.62" font-family="Helvetica,sans-Serif" font-size="10.00">ImGuiInputTextDeactivated</text>
<text text-anchor="middle" x="223.12" y="-447.88" font-family="Helvetica,sans-Serif" font-size="10.00">State::ClearFreeMemory</text>
</a>
</g>
</g>
<!-- Node1&#45;&gt;Node12 -->
<g id="edge19_Node000001_Node000012" class="edge">
<title>Node1&#45;&gt;Node12</title>
<g id="a_edge19_Node000001_Node000012"><a xlink:title=" ">
<path fill="none" stroke="#63b8ff" d="M60.54,-371.1C75.37,-386.55 104.86,-414.99 135.25,-431.38 138.11,-432.92 141.07,-434.38 144.1,-435.76"/>
<polygon fill="#63b8ff" stroke="#63b8ff" points="142.64,-438.95 153.22,-439.59 145.35,-432.49 142.64,-438.95"/>
</a>
</g>
</g>
<!-- Node13 -->
<g id="Node000013" class="node">
<title>Node13</title>
<g id="a_Node000013"><a xlink:href="structImGuiInputTextState.html#a8be5f345ea5de89842d5a6716cb19b27" target="_top" xlink:title=" ">
<polygon fill="white" stroke="#666666" points="281,-422.12 165.25,-422.12 165.25,-388.62 281,-388.62 281,-422.12"/>
<text text-anchor="start" x="173.25" y="-408.62" font-family="Helvetica,sans-Serif" font-size="10.00">ImGuiInputTextState</text>
<text text-anchor="middle" x="223.12" y="-395.88" font-family="Helvetica,sans-Serif" font-size="10.00">::ClearFreeMemory</text>
</a>
</g>
</g>
<!-- Node1&#45;&gt;Node13 -->
<g id="edge21_Node000001_Node000013" class="edge">
<title>Node1&#45;&gt;Node13</title>
<g id="a_edge21_Node000001_Node000013"><a xlink:title=" ">
<path fill="none" stroke="#63b8ff" d="M91.7,-371.15C110.35,-376.05 132.91,-381.97 153.99,-387.5"/>
<polygon fill="#63b8ff" stroke="#63b8ff" points="152.82,-390.81 163.38,-389.96 154.6,-384.04 152.82,-390.81"/>
</a>
</g>
</g>
<!-- Node14 -->
<g id="Node000014" class="node">
<title>Node14</title>
<g id="a_Node000014"><a xlink:href="namespaceImGui.html#aec24353cab7c663fbb44f1e6d8b50ead" target="_top" xlink:title=" ">
<polygon fill="white" stroke="#666666" points="311,-180.75 135.25,-180.75 135.25,-160 311,-160 311,-180.75"/>
<text text-anchor="middle" x="223.12" y="-167.25" font-family="Helvetica,sans-Serif" font-size="10.00">ImGui::DestroyPlatformWindows</text>
</a>
</g>
</g>
<!-- Node1&#45;&gt;Node14 -->
<g id="edge23_Node000001_Node000014" class="edge">
<title>Node1&#45;&gt;Node14</title>
<g id="a_edge23_Node000001_Node000014"><a xlink:title=" ">
<path fill="none" stroke="#63b8ff" d="M52.94,-349.54C59.84,-319.91 83.12,-236.91 135.25,-194.38 139.24,-191.11 143.65,-188.3 148.3,-185.86"/>
<polygon fill="#63b8ff" stroke="#63b8ff" points="149.73,-189.05 157.4,-181.74 146.85,-182.67 149.73,-189.05"/>
</a>
</g>
</g>
<!-- Node17 -->
<g id="Node000017" class="node">
<title>Node17</title>
<g id="a_Node000017"><a xlink:href="namespaceImGui.html#a64b653e9346bef8bb6639da54fa71dab" target="_top" xlink:title=" ">
<polygon fill="white" stroke="#666666" points="304.25,-141.75 142,-141.75 142,-121 304.25,-121 304.25,-141.75"/>
<text text-anchor="middle" x="223.12" y="-128.25" font-family="Helvetica,sans-Serif" font-size="10.00">ImGui::DockContextShutdown</text>
</a>
</g>
</g>
<!-- Node1&#45;&gt;Node17 -->
<g id="edge26_Node000001_Node000017" class="edge">
<title>Node1&#45;&gt;Node17</title>
<g id="a_edge26_Node000001_Node000017"><a xlink:title=" ">
<path fill="none" stroke="#63b8ff" d="M51.56,-349.73C55.2,-315.26 71.51,-205.74 135.25,-151.38 136.75,-150.1 138.31,-148.9 139.93,-147.77"/>
<polygon fill="#63b8ff" stroke="#63b8ff" points="141.53,-150.89 148.43,-142.84 138.02,-144.83 141.53,-150.89"/>
</a>
</g>
</g>
<!-- Node18 -->
<g id="Node000018" class="node">
<title>Node18</title>
<g id="a_Node000018"><a xlink:href="namespaceImGui.html#afa4985e7810be4e687bc4ff28cec8a4d" target="_top" xlink:title=" ">
<polygon fill="white" stroke="#666666" points="302.75,-101.75 143.5,-101.75 143.5,-81 302.75,-81 302.75,-101.75"/>
<text text-anchor="middle" x="223.12" y="-88.25" font-family="Helvetica,sans-Serif" font-size="10.00">ImGui::SaveIniSettingsToDisk</text>
</a>
</g>
</g>
<!-- Node1&#45;&gt;Node18 -->
<g id="edge27_Node000001_Node000018" class="edge">
<title>Node1&#45;&gt;Node18</title>
<g id="a_edge27_Node000001_Node000018"><a xlink:title=" ">
<path fill="none" stroke="#63b8ff" d="M50.83,-349.76C52.18,-311.45 62.15,-179.06 135.25,-112.38 137.11,-110.68 139.09,-109.11 141.16,-107.66"/>
<polygon fill="#63b8ff" stroke="#63b8ff" points="142.57,-110.89 149.44,-102.83 139.04,-104.85 142.57,-110.89"/>
</a>
</g>
</g>
<!-- Node3&#45;&gt;Node4 -->
<g id="edge3_Node000003_Node000004" class="edge">
<title>Node3&#45;&gt;Node4</title>
<g id="a_edge3_Node000003_Node000004"><a xlink:title=" ">
<path fill="none" stroke="#63b8ff" d="M485.74,-335.55C496.44,-339.64 507.49,-344.31 517.5,-349.38 552.4,-367.03 589.54,-392.9 612.63,-409.94"/>
<polygon fill="#63b8ff" stroke="#63b8ff" points="610.3,-412.56 620.41,-415.74 614.49,-406.96 610.3,-412.56"/>
</a>
</g>
</g>
<!-- Node5&#45;&gt;Node4 -->
<g id="edge5_Node000005_Node000004" class="edge">
<title>Node5&#45;&gt;Node4</title>
<g id="a_edge5_Node000005_Node000004"><a xlink:title=" ">
<path fill="none" stroke="#63b8ff" d="M489.54,-280.87C499.28,-283.6 509,-287.31 517.5,-292.38 565.85,-321.17 604.76,-376.63 623.45,-406.73"/>
<polygon fill="#63b8ff" stroke="#63b8ff" points="620.45,-408.53 628.62,-415.27 626.44,-404.91 620.45,-408.53"/>
</a>
</g>
</g>
<!-- Node6&#45;&gt;Node5 -->
<g id="edge7_Node000006_Node000005" class="edge">
<title>Node6&#45;&gt;Node5</title>
<g id="a_edge7_Node000006_Node000005"><a xlink:title=" ">
<path fill="none" stroke="#63b8ff" d="M264.06,-282.25C292.24,-280.76 330.69,-278.72 363.61,-276.97"/>
<polygon fill="#63b8ff" stroke="#63b8ff" points="363.68,-280.47 373.48,-276.44 363.31,-273.48 363.68,-280.47"/>
</a>
</g>
</g>
<!-- Node7&#45;&gt;Node4 -->
<g id="edge9_Node000007_Node000004" class="edge">
<title>Node7&#45;&gt;Node4</title>
<g id="a_edge9_Node000007_Node000004"><a xlink:title=" ">
<path fill="none" stroke="#63b8ff" d="M480.06,-235.24C493.04,-239.74 506.56,-245.93 517.5,-254.38 571.78,-296.26 610.13,-370.32 626.56,-406.42"/>
<polygon fill="#63b8ff" stroke="#63b8ff" points="623.25,-407.6 630.5,-415.33 629.65,-404.77 623.25,-407.6"/>
</a>
</g>
</g>
<!-- Node8&#45;&gt;Node4 -->
<g id="edge11_Node000008_Node000004" class="edge">
<title>Node8&#45;&gt;Node4</title>
<g id="a_edge11_Node000008_Node000004"><a xlink:title=" ">
<path fill="none" stroke="#63b8ff" d="M494.85,-605.52C502.87,-602.7 510.66,-599.06 517.5,-594.38 572.76,-556.57 610.64,-483.84 626.76,-448.15"/>
<polygon fill="#63b8ff" stroke="#63b8ff" points="629.81,-449.91 630.61,-439.35 623.4,-447.1 629.81,-449.91"/>
</a>
</g>
</g>
<!-- Node9&#45;&gt;Node4 -->
<g id="edge13_Node000009_Node000004" class="edge">
<title>Node9&#45;&gt;Node4</title>
<g id="a_edge13_Node000009_Node000004"><a xlink:title=" ">
<path fill="none" stroke="#63b8ff" d="M493.86,-564.81C502.11,-562.08 510.23,-558.67 517.5,-554.38 563.9,-526.99 603.11,-475.8 622.49,-447.49"/>
<polygon fill="#63b8ff" stroke="#63b8ff" points="625.23,-449.7 627.87,-439.44 619.41,-445.81 625.23,-449.7"/>
</a>
</g>
</g>
<!-- Node10&#45;&gt;Node4 -->
<g id="edge16_Node000010_Node000004" class="edge">
<title>Node10&#45;&gt;Node4</title>
<g id="a_edge16_Node000010_Node000004"><a xlink:title=" ">
<path fill="none" stroke="#63b8ff" d="M475.33,-524.52C489.1,-520.29 504.26,-514.87 517.5,-508.38 553.42,-490.76 590.83,-463.27 613.65,-445.28"/>
<polygon fill="#63b8ff" stroke="#63b8ff" points="615.68,-448.14 621.31,-439.16 611.31,-442.67 615.68,-448.14"/>
</a>
</g>
</g>
<!-- Node11&#45;&gt;Node4 -->
<g id="edge18_Node000011_Node000004" class="edge">
<title>Node11&#45;&gt;Node4</title>
<g id="a_edge18_Node000011_Node000004"><a xlink:title=" ">
<path fill="none" stroke="#63b8ff" d="M290.79,-493.13C350.42,-484.53 440.09,-470.74 517.5,-455.38 538.66,-451.18 561.78,-445.85 581.91,-440.98"/>
<polygon fill="#63b8ff" stroke="#63b8ff" points="582.71,-444.38 591.59,-438.61 581.05,-437.59 582.71,-444.38"/>
</a>
</g>
</g>
<!-- Node12&#45;&gt;Node4 -->
<g id="edge20_Node000012_Node000004" class="edge">
<title>Node12&#45;&gt;Node4</title>
<g id="a_edge20_Node000012_Node000004"><a xlink:title=" ">
<path fill="none" stroke="#63b8ff" d="M298.15,-451.98C379.28,-446.06 507.56,-436.7 580.33,-431.4"/>
<polygon fill="#63b8ff" stroke="#63b8ff" points="580.28,-434.91 590,-430.69 579.77,-427.93 580.28,-434.91"/>
</a>
</g>
</g>
<!-- Node13&#45;&gt;Node4 -->
<g id="edge22_Node000013_Node000004" class="edge">
<title>Node13&#45;&gt;Node4</title>
<g id="a_edge22_Node000013_Node000004"><a xlink:title=" ">
<path fill="none" stroke="#63b8ff" d="M281.32,-408.43C360.44,-412.67 502.33,-420.25 580.35,-424.43"/>
<polygon fill="#63b8ff" stroke="#63b8ff" points="579.69,-427.9 589.87,-424.93 580.07,-420.91 579.69,-427.9"/>
</a>
</g>
</g>
<!-- Node15 -->
<g id="Node000015" class="node">
<title>Node15</title>
<g id="a_Node000015"><a xlink:href="namespaceImGui.html#acea326a9a642943f5f8f2f74fd8fb0e0" target="_top" xlink:title=" ">
<polygon fill="white" stroke="#666666" points="517.5,-181.75 347,-181.75 347,-161 517.5,-161 517.5,-181.75"/>
<text text-anchor="middle" x="432.25" y="-168.25" font-family="Helvetica,sans-Serif" font-size="10.00">ImGui::DestroyPlatformWindow</text>
</a>
</g>
</g>
<!-- Node14&#45;&gt;Node15 -->
<g id="edge24_Node000014_Node000015" class="edge">
<title>Node14&#45;&gt;Node15</title>
<g id="a_edge24_Node000014_Node000015"><a xlink:title=" ">
<path fill="none" stroke="#63b8ff" d="M311.36,-170.8C319.33,-170.83 327.43,-170.87 335.46,-170.91"/>
<polygon fill="#63b8ff" stroke="#63b8ff" points="335.23,-174.41 345.25,-170.96 335.26,-167.41 335.23,-174.41"/>
</a>
</g>
</g>
<!-- Node16 -->
<g id="Node000016" class="node">
<title>Node16</title>
<g id="a_Node000016"><a xlink:href="structImGuiViewportP.html#a5fcb255c47a5cf94639ed9abcc2e16c2" target="_top" xlink:title=" ">
<polygon fill="white" stroke="#666666" points="719.5,-189.12 553.5,-189.12 553.5,-155.62 719.5,-155.62 719.5,-189.12"/>
<text text-anchor="start" x="561.5" y="-175.62" font-family="Helvetica,sans-Serif" font-size="10.00">ImGuiViewportP::ClearRequest</text>
<text text-anchor="middle" x="636.5" y="-162.88" font-family="Helvetica,sans-Serif" font-size="10.00">Flags</text>
</a>
</g>
</g>
<!-- Node15&#45;&gt;Node16 -->
<g id="edge25_Node000015_Node000016" class="edge">
<title>Node15&#45;&gt;Node16</title>
<g id="a_edge25_Node000015_Node000016"><a xlink:title=" ">
<path fill="none" stroke="#63b8ff" d="M517.85,-171.79C525.8,-171.83 533.88,-171.87 541.9,-171.91"/>
<polygon fill="#63b8ff" stroke="#63b8ff" points="541.65,-175.41 551.67,-171.96 541.69,-168.41 541.65,-175.41"/>
</a>
</g>
</g>
<!-- Node19 -->
<g id="Node000019" class="node">
<title>Node19</title>
<g id="a_Node000019"><a xlink:href="namespaceImGui.html#a27043a530e0e842e01c279dd4207f9eb" target="_top" xlink:title=" ">
<polygon fill="white" stroke="#666666" points="501,-105.12 363.5,-105.12 363.5,-71.62 501,-71.62 501,-105.12"/>
<text text-anchor="start" x="371.5" y="-91.62" font-family="Helvetica,sans-Serif" font-size="10.00">ImGui::SaveIniSettingsTo</text>
<text text-anchor="middle" x="432.25" y="-78.88" font-family="Helvetica,sans-Serif" font-size="10.00">Memory</text>
</a>
</g>
</g>
<!-- Node18&#45;&gt;Node19 -->
<g id="edge28_Node000018_Node000019" class="edge">
<title>Node18&#45;&gt;Node19</title>
<g id="a_edge28_Node000018_Node000019"><a xlink:title=" ">
<path fill="none" stroke="#63b8ff" d="M303.02,-90.23C318.94,-90 335.68,-89.76 351.62,-89.53"/>
<polygon fill="#63b8ff" stroke="#63b8ff" points="351.6,-93.03 361.55,-89.38 351.5,-86.03 351.6,-93.03"/>
</a>
</g>
</g>
<!-- Node20 -->
<g id="Node000020" class="node">
<title>Node20</title>
<g id="a_Node000020"><a xlink:href="structImGuiTextBuffer.html#ac78a076eb21b9c4ec532eb5109c84a64" target="_top" xlink:title=" ">
<polygon fill="white" stroke="#666666" points="698.5,-59.75 574.5,-59.75 574.5,-39 698.5,-39 698.5,-59.75"/>
<text text-anchor="middle" x="636.5" y="-46.25" font-family="Helvetica,sans-Serif" font-size="10.00">ImGuiTextBuffer::c_str</text>
</a>
</g>
</g>
<!-- Node19&#45;&gt;Node20 -->
<g id="edge29_Node000019_Node000020" class="edge">
<title>Node19&#45;&gt;Node20</title>
<g id="a_edge29_Node000019_Node000020"><a xlink:title=" ">
<path fill="none" stroke="#63b8ff" d="M501.44,-75.23C523.02,-71.06 546.85,-66.47 568.36,-62.32"/>
<polygon fill="#63b8ff" stroke="#63b8ff" points="568.73,-65.82 577.88,-60.49 567.4,-58.94 568.73,-65.82"/>
</a>
</g>
</g>
<!-- Node21 -->
<g id="Node000021" class="node">
<title>Node21</title>
<g id="a_Node000021"><a xlink:href="structImVector.html#aab5df48e0711a48bd12f3206e08c4108" target="_top" xlink:title=" ">
<polygon fill="white" stroke="#666666" points="695.12,-20.75 577.88,-20.75 577.88,0 695.12,0 695.12,-20.75"/>
<text text-anchor="middle" x="636.5" y="-7.25" font-family="Helvetica,sans-Serif" font-size="10.00">ImVector::push_back</text>
</a>
</g>
</g>
<!-- Node19&#45;&gt;Node21 -->
<g id="edge30_Node000019_Node000021" class="edge">
<title>Node19&#45;&gt;Node21</title>
<g id="a_edge30_Node000019_Node000021"><a xlink:title=" ">
<path fill="none" stroke="#63b8ff" d="M464.12,-71.25C487.96,-58.58 522.08,-41.64 553.5,-30.38 559.69,-28.16 566.22,-26.1 572.79,-24.22"/>
<polygon fill="#63b8ff" stroke="#63b8ff" points="573.64,-27.62 582.37,-21.62 571.8,-20.86 573.64,-27.62"/>
</a>
</g>
</g>
<!-- Node24 -->
<g id="Node000024" class="node">
<title>Node24</title>
<g id="a_Node000024"><a xlink:href="structImVector.html#ac371dd62e56ae486b1a5038cf07eee56" target="_top" xlink:title=" ">
<polygon fill="white" stroke="#666666" points="683.88,-137.75 589.12,-137.75 589.12,-117 683.88,-117 683.88,-137.75"/>
<text text-anchor="middle" x="636.5" y="-124.25" font-family="Helvetica,sans-Serif" font-size="10.00">ImVector::resize</text>
</a>
</g>
</g>
<!-- Node19&#45;&gt;Node24 -->
<g id="edge33_Node000019_Node000024" class="edge">
<title>Node19&#45;&gt;Node24</title>
<g id="a_edge33_Node000019_Node000024"><a xlink:title=" ">
<path fill="none" stroke="#63b8ff" d="M501.44,-101.52C526.08,-106.28 553.64,-111.59 577.34,-116.16"/>
<polygon fill="#63b8ff" stroke="#63b8ff" points="576.67,-119.59 587.15,-118.05 577.99,-112.72 576.67,-119.59"/>
</a>
</g>
</g>
<!-- Node25 -->
<g id="Node000025" class="node">
<title>Node25</title>
<g id="a_Node000025"><a xlink:href="structImGuiTextBuffer.html#a2811fcd43e0224eb3bd0f3464b634289" target="_top" xlink:title=" ">
<polygon fill="white" stroke="#666666" points="696.62,-98.75 576.38,-98.75 576.38,-78 696.62,-78 696.62,-98.75"/>
<text text-anchor="middle" x="636.5" y="-85.25" font-family="Helvetica,sans-Serif" font-size="10.00">ImGuiTextBuffer::size</text>
</a>
</g>
</g>
<!-- Node19&#45;&gt;Node25 -->
<g id="edge36_Node000019_Node000025" class="edge">
<title>Node19&#45;&gt;Node25</title>
<g id="a_edge36_Node000019_Node000025"><a xlink:title=" ">
<path fill="none" stroke="#63b8ff" d="M501.44,-88.38C521.76,-88.38 544.08,-88.38 564.57,-88.38"/>
<polygon fill="#63b8ff" stroke="#63b8ff" points="564.55,-91.88 574.55,-88.38 564.55,-84.88 564.55,-91.88"/>
</a>
</g>
</g>
<!-- Node22 -->
<g id="Node000022" class="node">
<title>Node22</title>
<g id="a_Node000022"><a xlink:href="structImVector.html#a3a097635d464b1b70dc7d59996a88b28" target="_top" xlink:title=" ">
<polygon fill="white" stroke="#666666" points="896.75,-117.75 755.5,-117.75 755.5,-97 896.75,-97 896.75,-117.75"/>
<text text-anchor="middle" x="826.12" y="-104.25" font-family="Helvetica,sans-Serif" font-size="10.00">ImVector::_grow_capacity</text>
</a>
</g>
</g>
<!-- Node21&#45;&gt;Node22 -->
<g id="edge31_Node000021_Node000022" class="edge">
<title>Node21&#45;&gt;Node22</title>
<g id="a_edge31_Node000021_Node000022"><a xlink:title=" ">
<path fill="none" stroke="#63b8ff" d="M695.59,-20.1C703.92,-22.75 712.15,-26.11 719.5,-30.38 739.62,-42.05 737.14,-54.08 755.5,-68.38 766.58,-77 779.79,-84.91 791.72,-91.31"/>
<polygon fill="#63b8ff" stroke="#63b8ff" points="789.95,-94.34 800.44,-95.84 793.17,-88.12 789.95,-94.34"/>
</a>
</g>
</g>
<!-- Node23 -->
<g id="Node000023" class="node">
<title>Node23</title>
<g id="a_Node000023"><a xlink:href="structImVector.html#a0f14f5736c3372157856eebb67123b75" target="_top" xlink:title=" ">
<polygon fill="white" stroke="#666666" points="877.25,-59.75 775,-59.75 775,-39 877.25,-39 877.25,-59.75"/>
<text text-anchor="middle" x="826.12" y="-46.25" font-family="Helvetica,sans-Serif" font-size="10.00">ImVector::reserve</text>
</a>
</g>
</g>
<!-- Node21&#45;&gt;Node23 -->
<g id="edge32_Node000021_Node000023" class="edge">
<title>Node21&#45;&gt;Node23</title>
<g id="a_edge32_Node000021_Node000023"><a xlink:title=" ">
<path fill="none" stroke="#63b8ff" d="M689.76,-21.24C712.7,-26.01 739.78,-31.64 763.68,-36.6"/>
<polygon fill="#63b8ff" stroke="#63b8ff" points="762.77,-39.99 773.28,-38.6 764.2,-33.14 762.77,-39.99"/>
</a>
</g>
</g>
<!-- Node24&#45;&gt;Node22 -->
<g id="edge34_Node000024_Node000022" class="edge">
<title>Node24&#45;&gt;Node22</title>
<g id="a_edge34_Node000024_Node000022"><a xlink:title=" ">
<path fill="none" stroke="#63b8ff" d="M684.36,-122.38C702.4,-120.46 723.57,-118.2 743.92,-116.03"/>
<polygon fill="#63b8ff" stroke="#63b8ff" points="744.05,-119.54 753.62,-115 743.3,-112.58 744.05,-119.54"/>
</a>
</g>
</g>
<!-- Node24&#45;&gt;Node23 -->
<g id="edge35_Node000024_Node000023" class="edge">
<title>Node24&#45;&gt;Node23</title>
<g id="a_edge35_Node000024_Node000023"><a xlink:title=" ">
<path fill="none" stroke="#63b8ff" d="M684.13,-118.25C695.86,-115.34 708.3,-111.73 719.5,-107.38 723.51,-105.82 766.03,-82.29 795.88,-65.68"/>
<polygon fill="#63b8ff" stroke="#63b8ff" points="797.47,-68.8 804.5,-60.88 794.06,-62.69 797.47,-68.8"/>
</a>
</g>
</g>
</g>
</svg>

<g id="navigator" transform="translate(0 0)" fill="#404254">
  <rect fill="#f2f5e9" fill-opacity="0.5" stroke="#606060" stroke-width=".5" x="0" y="0" width="60" height="60"/>
  <use id="zoomplus" xlink:href="#zoomPlus" x="17" y="9" onmousedown="handleZoom(evt,'in')"/>
  <use id="zoomminus" xlink:href="#zoomMin" x="42" y="9" onmousedown="handleZoom(evt,'out')"/>
  <use id="reset" xlink:href="#resetDef" x="30" y="36" onmousedown="handleReset()"/>
   <use id="arrowup" xlink:href="#arrowUp" x="0" y="0" onmousedown="handlePan(0,-1)"/>
  <use id="arrowright" xlink:href="#arrowRight" x="0" y="0" onmousedown="handlePan(1,0)"/>
  <use id="arrowdown" xlink:href="#arrowDown" x="0" y="0" onmousedown="handlePan(0,1)"/>
  <use id="arrowleft" xlink:href="#arrowLeft" x="0" y="0" onmousedown="handlePan(-1,0)"/>
</g>
<svg viewBox="0 0 15 15" width="100%" height="30px" preserveAspectRatio="xMaxYMin meet">
 <g id="arrow_out" transform="scale(0.3 0.3)">
  <a xlink:href="namespaceImGui_aeba34069558d4fbcf734a9c92ce3b773_cgraph_org.svg" target="_base">
   <rect id="button" ry="5" rx="5" y="6" x="6" height="38" width="38"
        fill="#f2f5e9" fill-opacity="0.5" stroke="#606060" stroke-width="1.0"/>
   <path id="arrow"
     d="M 11.500037,31.436501 C 11.940474,20.09759 22.043105,11.32322 32.158766,21.979434 L 37.068811,17.246167 C 37.068811,17.246167 37.088388,32 37.088388,32 L 22.160133,31.978069 C 22.160133,31.978069 26.997745,27.140456 26.997745,27.140456 C 18.528582,18.264221 13.291696,25.230495 11.500037,31.436501 z"
     style="fill:#404040;"/>
  </a>
 </g>
</svg>

<style type='text/css'>
<![CDATA[
[data-mouse-over-selected='false'] { opacity: 0.7; }
[data-mouse-over-selected='true']  { opacity: 1.0; }
]]>
</style>
<script type="application/ecmascript"><![CDATA[
document.addEventListener('DOMContentLoaded', (event) => {
  highlightEdges();
  highlightAdjacentNodes();
});
]]></script>
</svg>
