<?xml version="1.0" encoding="UTF-8" standalone="no"?>
<!DOCTYPE svg PUBLIC "-//W3C//DTD SVG 1.1//EN"
 "http://www.w3.org/Graphics/SVG/1.1/DTD/svg11.dtd">
<!-- Generated by graphviz version 12.2.1 (20241206.2353)
 -->
<!-- Title: ImGui::GetWindowScrollbarID Pages: 1 -->
<svg width="802pt" height="68pt"
 viewBox="0.00 0.00 802.00 67.75" xmlns="http://www.w3.org/2000/svg" xmlns:xlink="http://www.w3.org/1999/xlink">
<g id="graph0" class="graph" transform="scale(1 1) rotate(0) translate(4 63.75)">
<title>ImGui::GetWindowScrollbarID</title>
<!-- Node1 -->
<g id="Node000001" class="node">
<title>Node1</title>
<g id="a_Node000001"><a xlink:title=" ">
<polygon fill="#999999" stroke="#666666" points="160.75,-39.75 0,-39.75 0,-19 160.75,-19 160.75,-39.75"/>
<text text-anchor="middle" x="80.38" y="-26.25" font-family="Helvetica,sans-Serif" font-size="10.00">ImGui::GetWindowScrollbarID</text>
</a>
</g>
</g>
<!-- Node2 -->
<g id="Node000002" class="node">
<title>Node2</title>
<g id="a_Node000002"><a xlink:href="structImGuiWindow.html#a66400a63bc0b54d7d29e08d1b1b1a42b" target="_top" xlink:title=" ">
<polygon fill="white" stroke="#666666" points="314,-39.75 196.75,-39.75 196.75,-19 314,-19 314,-39.75"/>
<text text-anchor="middle" x="255.38" y="-26.25" font-family="Helvetica,sans-Serif" font-size="10.00">ImGuiWindow::GetID</text>
</a>
</g>
</g>
<!-- Node1&#45;&gt;Node2 -->
<g id="edge1_Node000001_Node000002" class="edge">
<title>Node1&#45;&gt;Node2</title>
<g id="a_edge1_Node000001_Node000002"><a xlink:title=" ">
<path fill="none" stroke="#63b8ff" d="M161.04,-29.38C169.02,-29.38 177.09,-29.38 184.95,-29.38"/>
<polygon fill="#63b8ff" stroke="#63b8ff" points="184.79,-32.88 194.79,-29.38 184.79,-25.88 184.79,-32.88"/>
</a>
</g>
</g>
<!-- Node3 -->
<g id="Node000003" class="node">
<title>Node3</title>
<g id="a_Node000003"><a xlink:href="namespaceImGui.html#a5487269f4cb9fb809fd3e797411ed2d7" target="_top" xlink:title=" ">
<polygon fill="white" stroke="#666666" points="486,-39.75 350,-39.75 350,-19 486,-19 486,-39.75"/>
<text text-anchor="middle" x="418" y="-26.25" font-family="Helvetica,sans-Serif" font-size="10.00">ImGui::DebugHookIdInfo</text>
</a>
</g>
</g>
<!-- Node2&#45;&gt;Node3 -->
<g id="edge2_Node000002_Node000003" class="edge">
<title>Node2&#45;&gt;Node3</title>
<g id="a_edge2_Node000002_Node000003"><a xlink:title=" ">
<path fill="none" stroke="#63b8ff" d="M314.36,-29.38C322.12,-29.38 330.18,-29.38 338.22,-29.38"/>
<polygon fill="#63b8ff" stroke="#63b8ff" points="338.02,-32.88 348.02,-29.38 338.02,-25.88 338.02,-32.88"/>
</a>
</g>
</g>
<!-- Node4 -->
<g id="Node000004" class="node">
<title>Node4</title>
<g id="a_Node000004"><a xlink:href="structImVector.html#ac371dd62e56ae486b1a5038cf07eee56" target="_top" xlink:title=" ">
<polygon fill="white" stroke="#666666" points="616.75,-39.75 522,-39.75 522,-19 616.75,-19 616.75,-39.75"/>
<text text-anchor="middle" x="569.38" y="-26.25" font-family="Helvetica,sans-Serif" font-size="10.00">ImVector::resize</text>
</a>
</g>
</g>
<!-- Node3&#45;&gt;Node4 -->
<g id="edge3_Node000003_Node000004" class="edge">
<title>Node3&#45;&gt;Node4</title>
<g id="a_edge3_Node000003_Node000004"><a xlink:title=" ">
<path fill="none" stroke="#63b8ff" d="M486.26,-29.38C494.27,-29.38 502.4,-29.38 510.27,-29.38"/>
<polygon fill="#63b8ff" stroke="#63b8ff" points="510.05,-32.88 520.05,-29.38 510.05,-25.88 510.05,-32.88"/>
</a>
</g>
</g>
<!-- Node5 -->
<g id="Node000005" class="node">
<title>Node5</title>
<g id="a_Node000005"><a xlink:href="structImVector.html#a3a097635d464b1b70dc7d59996a88b28" target="_top" xlink:title=" ">
<polygon fill="white" stroke="#666666" points="794,-59.75 652.75,-59.75 652.75,-39 794,-39 794,-59.75"/>
<text text-anchor="middle" x="723.38" y="-46.25" font-family="Helvetica,sans-Serif" font-size="10.00">ImVector::_grow_capacity</text>
</a>
</g>
</g>
<!-- Node4&#45;&gt;Node5 -->
<g id="edge4_Node000004_Node000005" class="edge">
<title>Node4&#45;&gt;Node5</title>
<g id="a_edge4_Node000004_Node000005"><a xlink:title=" ">
<path fill="none" stroke="#63b8ff" d="M617.22,-35.54C624.9,-36.55 633.04,-37.62 641.26,-38.7"/>
<polygon fill="#63b8ff" stroke="#63b8ff" points="640.62,-42.15 650.99,-39.98 641.53,-35.21 640.62,-42.15"/>
</a>
</g>
</g>
<!-- Node6 -->
<g id="Node000006" class="node">
<title>Node6</title>
<g id="a_Node000006"><a xlink:href="structImVector.html#a0f14f5736c3372157856eebb67123b75" target="_top" xlink:title=" ">
<polygon fill="white" stroke="#666666" points="774.5,-20.75 672.25,-20.75 672.25,0 774.5,0 774.5,-20.75"/>
<text text-anchor="middle" x="723.38" y="-7.25" font-family="Helvetica,sans-Serif" font-size="10.00">ImVector::reserve</text>
</a>
</g>
</g>
<!-- Node4&#45;&gt;Node6 -->
<g id="edge5_Node000004_Node000006" class="edge">
<title>Node4&#45;&gt;Node6</title>
<g id="a_edge5_Node000004_Node000006"><a xlink:title=" ">
<path fill="none" stroke="#63b8ff" d="M617.22,-23.52C630.92,-21.81 646.1,-19.91 660.58,-18.1"/>
<polygon fill="#63b8ff" stroke="#63b8ff" points="661,-21.57 670.49,-16.86 660.13,-14.63 661,-21.57"/>
</a>
</g>
</g>
</g>
</svg>
