<?xml version="1.0" encoding="UTF-8" standalone="no"?>
<!DOCTYPE svg PUBLIC "-//W3C//DTD SVG 1.1//EN"
 "http://www.w3.org/Graphics/SVG/1.1/DTD/svg11.dtd">
<!-- Generated by graphviz version 11.0.0 (20240428.1522)
 -->
<!-- Title: steppable::output::warning Pages: 1 -->
<svg width="635pt" height="354pt"
 viewBox="0.00 0.00 634.50 353.50" xmlns="http://www.w3.org/2000/svg" xmlns:xlink="http://www.w3.org/1999/xlink">
<g id="graph0" class="graph" transform="scale(1 1) rotate(0) translate(4 349.5)">
<title>steppable::output::warning</title>
<!-- Node1 -->
<g id="Node000001" class="node">
<title>Node1</title>
<g id="a_Node000001"><a xlink:title="Prints a warning message.">
<polygon fill="#999999" stroke="#666666" points="626.5,-189.5 519,-189.5 519,-156 626.5,-156 626.5,-189.5"/>
<text text-anchor="start" x="527" y="-176" font-family="Helvetica,sans-Serif" font-size="10.00">steppable::output::</text>
<text text-anchor="middle" x="572.75" y="-163.25" font-family="Helvetica,sans-Serif" font-size="10.00">warning</text>
</a>
</g>
</g>
<!-- Node2 -->
<g id="Node000002" class="node">
<title>Node2</title>
<g id="a_Node000002"><a xlink:href="namespacesteppable_1_1____internals_1_1arithmetic.html#a26194ae8ddb44afb942fbf8335ae1730" target="_top" xlink:title="Divides a string representation of a number by another string representation of a number.">
<polygon fill="white" stroke="#666666" points="483,-215.5 359.75,-215.5 359.75,-182 483,-182 483,-215.5"/>
<text text-anchor="start" x="367.75" y="-202" font-family="Helvetica,sans-Serif" font-size="10.00">steppable::__internals</text>
<text text-anchor="middle" x="421.38" y="-189.25" font-family="Helvetica,sans-Serif" font-size="10.00">::arithmetic::divide</text>
</a>
</g>
</g>
<!-- Node1&#45;&gt;Node2 -->
<g id="edge1_Node000001_Node000002" class="edge">
<title>Node1&#45;&gt;Node2</title>
<g id="a_edge1_Node000001_Node000002"><a xlink:title=" ">
<path fill="none" stroke="#63b8ff" d="M507.52,-183.93C499.53,-185.32 491.38,-186.74 483.44,-188.12"/>
<polygon fill="#63b8ff" stroke="#63b8ff" points="507.92,-187.41 517.17,-182.25 506.72,-180.52 507.92,-187.41"/>
</a>
</g>
</g>
<!-- Node6 -->
<g id="Node000006" class="node">
<title>Node6</title>
<g id="a_Node000006"><a xlink:href="classsteppable_1_1Number.html#aebdaf5d342a2a897793556bd390bc184" target="_top" xlink:title="Divides two numbers.">
<polygon fill="white" stroke="#666666" points="294.88,-137.5 179.88,-137.5 179.88,-104 294.88,-104 294.88,-137.5"/>
<text text-anchor="start" x="187.88" y="-124" font-family="Helvetica,sans-Serif" font-size="10.00">steppable::Number::</text>
<text text-anchor="middle" x="237.38" y="-111.25" font-family="Helvetica,sans-Serif" font-size="10.00">operator/</text>
</a>
</g>
</g>
<!-- Node1&#45;&gt;Node6 -->
<g id="edge14_Node000001_Node000006" class="edge">
<title>Node1&#45;&gt;Node6</title>
<g id="a_edge14_Node000001_Node000006"><a xlink:title=" ">
<path fill="none" stroke="#63b8ff" d="M507.45,-162.72C445.97,-153.13 354.17,-138.81 295.28,-129.63"/>
<polygon fill="#63b8ff" stroke="#63b8ff" points="506.64,-166.14 517.06,-164.22 507.72,-159.22 506.64,-166.14"/>
</a>
</g>
</g>
<!-- Node3 -->
<g id="Node000003" class="node">
<title>Node3</title>
<g id="a_Node000003"><a xlink:href="namespacesteppable_1_1____internals_1_1arithmetic.html#a5b80b731e3e2c0d16dcbe5d52b08ffd5" target="_top" xlink:title="Converts a string representation of a number from decimal to another one.">
<polygon fill="white" stroke="#666666" points="307.25,-345.5 167.5,-345.5 167.5,-312 307.25,-312 307.25,-345.5"/>
<text text-anchor="start" x="175.5" y="-332" font-family="Helvetica,sans-Serif" font-size="10.00">steppable::__internals</text>
<text text-anchor="middle" x="237.38" y="-319.25" font-family="Helvetica,sans-Serif" font-size="10.00">::arithmetic::baseConvert</text>
</a>
</g>
</g>
<!-- Node2&#45;&gt;Node3 -->
<g id="edge2_Node000002_Node000003" class="edge">
<title>Node2&#45;&gt;Node3</title>
<g id="a_edge2_Node000002_Node000003"><a xlink:title=" ">
<path fill="none" stroke="#63b8ff" d="M402.44,-224.82C384.94,-248.39 356.26,-282.42 323.75,-302.75 318.36,-306.12 312.51,-309.07 306.48,-311.66"/>
<polygon fill="#63b8ff" stroke="#63b8ff" points="405.1,-227.12 408.13,-216.97 399.43,-223.01 405.1,-227.12"/>
</a>
</g>
</g>
<!-- Node4 -->
<g id="Node000004" class="node">
<title>Node4</title>
<g id="a_Node000004"><a xlink:href="namespacesteppable_1_1____internals_1_1arithmetic.html#ac9102075acd398b3bdf388f6cc2ef978" target="_top" xlink:title=" ">
<polygon fill="white" stroke="#666666" points="323.75,-293.5 151,-293.5 151,-260 323.75,-260 323.75,-293.5"/>
<text text-anchor="start" x="159" y="-280" font-family="Helvetica,sans-Serif" font-size="10.00">steppable::__internals</text>
<text text-anchor="middle" x="237.38" y="-267.25" font-family="Helvetica,sans-Serif" font-size="10.00">::arithmetic::divideWithQuotient</text>
</a>
</g>
</g>
<!-- Node2&#45;&gt;Node4 -->
<g id="edge3_Node000002_Node000004" class="edge">
<title>Node2&#45;&gt;Node4</title>
<g id="a_edge3_Node000002_Node000004"><a xlink:title=" ">
<path fill="none" stroke="#63b8ff" d="M382.14,-221.59C364.72,-231.4 343.6,-242.48 323.75,-250.75 316.17,-253.91 308.07,-256.87 299.99,-259.59"/>
<polygon fill="#63b8ff" stroke="#63b8ff" points="383.68,-224.75 390.62,-216.74 380.2,-218.67 383.68,-224.75"/>
</a>
</g>
</g>
<!-- Node2&#45;&gt;Node6 -->
<g id="edge5_Node000002_Node000006" class="edge">
<title>Node2&#45;&gt;Node6</title>
<g id="a_edge5_Node000002_Node000006"><a xlink:title=" ">
<path fill="none" stroke="#63b8ff" d="M380.39,-176.2C359.07,-164.39 334.98,-151.43 323.75,-146.75 314.6,-142.94 304.68,-139.41 294.96,-136.25"/>
<polygon fill="#63b8ff" stroke="#63b8ff" points="378.48,-179.15 388.92,-180.95 381.89,-173.03 378.48,-179.15"/>
</a>
</g>
</g>
<!-- Node7 -->
<g id="Node000007" class="node">
<title>Node7</title>
<g id="a_Node000007"><a xlink:href="namespacesteppable_1_1____internals_1_1arithmetic.html#a8c20a75a55d968bd679a1a550a46a497" target="_top" xlink:title="Takes the n&#45;th root of a numer.">
<polygon fill="white" stroke="#666666" points="299,-241.5 175.75,-241.5 175.75,-208 299,-208 299,-241.5"/>
<text text-anchor="start" x="183.75" y="-228" font-family="Helvetica,sans-Serif" font-size="10.00">steppable::__internals</text>
<text text-anchor="middle" x="237.38" y="-215.25" font-family="Helvetica,sans-Serif" font-size="10.00">::arithmetic::root</text>
</a>
</g>
</g>
<!-- Node2&#45;&gt;Node7 -->
<g id="edge6_Node000002_Node000007" class="edge">
<title>Node2&#45;&gt;Node7</title>
<g id="a_edge6_Node000002_Node000007"><a xlink:title=" ">
<path fill="none" stroke="#63b8ff" d="M348.22,-209.06C332.03,-211.37 315,-213.8 299.32,-216.04"/>
<polygon fill="#63b8ff" stroke="#63b8ff" points="348.36,-212.57 357.77,-207.69 347.37,-205.64 348.36,-212.57"/>
</a>
</g>
</g>
<!-- Node8 -->
<g id="Node000008" class="node">
<title>Node8</title>
<g id="a_Node000008"><a xlink:href="classsteppable_1_1Fraction.html#a9cf64d847c268d9334775c572ef75dfa" target="_top" xlink:title="Simplifies a fraction. This function simplifies the fraction by dividing the top and bottom component...">
<polygon fill="white" stroke="#666666" points="291.88,-189.5 182.88,-189.5 182.88,-156 291.88,-156 291.88,-189.5"/>
<text text-anchor="start" x="190.88" y="-176" font-family="Helvetica,sans-Serif" font-size="10.00">steppable::Fraction</text>
<text text-anchor="middle" x="237.38" y="-163.25" font-family="Helvetica,sans-Serif" font-size="10.00">::simplify</text>
</a>
</g>
</g>
<!-- Node2&#45;&gt;Node8 -->
<g id="edge7_Node000002_Node000008" class="edge">
<title>Node2&#45;&gt;Node8</title>
<g id="a_edge7_Node000002_Node000008"><a xlink:title=" ">
<path fill="none" stroke="#63b8ff" d="M347.89,-188.39C329.34,-185.75 309.73,-182.94 292.3,-180.45"/>
<polygon fill="#63b8ff" stroke="#63b8ff" points="347.37,-191.86 357.77,-189.81 348.36,-184.93 347.37,-191.86"/>
</a>
</g>
</g>
<!-- Node5 -->
<g id="Node000005" class="node">
<title>Node5</title>
<g id="a_Node000005"><a xlink:href="classsteppable_1_1Number.html#a719a8a93fcfe91b30c38ba0830d6de50" target="_top" xlink:title="Calculates the remainder of two numbers. (Modulus)">
<polygon fill="white" stroke="#666666" points="115,-345.5 0,-345.5 0,-312 115,-312 115,-345.5"/>
<text text-anchor="start" x="8" y="-332" font-family="Helvetica,sans-Serif" font-size="10.00">steppable::Number::</text>
<text text-anchor="middle" x="57.5" y="-319.25" font-family="Helvetica,sans-Serif" font-size="10.00">operator%</text>
</a>
</g>
</g>
<!-- Node4&#45;&gt;Node5 -->
<g id="edge4_Node000004_Node000005" class="edge">
<title>Node4&#45;&gt;Node5</title>
<g id="a_edge4_Node000004_Node000005"><a xlink:title=" ">
<path fill="none" stroke="#63b8ff" d="M166.64,-297.14C149.65,-302.1 131.67,-307.36 115.36,-312.13"/>
<polygon fill="#63b8ff" stroke="#63b8ff" points="167.57,-300.51 176.19,-294.35 165.61,-293.79 167.57,-300.51"/>
</a>
</g>
</g>
<!-- Node9 -->
<g id="Node000009" class="node">
<title>Node9</title>
<g id="a_Node000009"><a xlink:href="classsteppable_1_1Fraction.html#a21eef8107e9cd1e590f7595c4ecbe147" target="_top" xlink:title="Multiplies two fractions together and stores the result in the current one. This function does it by ...">
<polygon fill="white" stroke="#666666" points="112,-293.5 3,-293.5 3,-260 112,-260 112,-293.5"/>
<text text-anchor="start" x="11" y="-280" font-family="Helvetica,sans-Serif" font-size="10.00">steppable::Fraction</text>
<text text-anchor="middle" x="57.5" y="-267.25" font-family="Helvetica,sans-Serif" font-size="10.00">::operator*=</text>
</a>
</g>
</g>
<!-- Node8&#45;&gt;Node9 -->
<g id="edge8_Node000008_Node000009" class="edge">
<title>Node8&#45;&gt;Node9</title>
<g id="a_edge8_Node000008_Node000009"><a xlink:title=" ">
<path fill="none" stroke="#63b8ff" d="M172.08,-187.11C164.6,-190.26 157.38,-194.09 151,-198.75 128.29,-215.32 136.53,-232.68 115,-250.75 111.11,-254.01 106.75,-256.95 102.21,-259.58"/>
<polygon fill="#63b8ff" stroke="#63b8ff" points="173.22,-190.42 181.35,-183.62 170.76,-183.87 173.22,-190.42"/>
</a>
</g>
</g>
<!-- Node10 -->
<g id="Node000010" class="node">
<title>Node10</title>
<g id="a_Node000010"><a xlink:href="classsteppable_1_1Fraction.html#ab10a5f43f6e60253ab6f4a097c73cf6e" target="_top" xlink:title="Adds two fractions together and stores the result in the current one. This function does it by doing ...">
<polygon fill="white" stroke="#666666" points="112,-241.5 3,-241.5 3,-208 112,-208 112,-241.5"/>
<text text-anchor="start" x="11" y="-228" font-family="Helvetica,sans-Serif" font-size="10.00">steppable::Fraction</text>
<text text-anchor="middle" x="57.5" y="-215.25" font-family="Helvetica,sans-Serif" font-size="10.00">::operator+=</text>
</a>
</g>
</g>
<!-- Node8&#45;&gt;Node10 -->
<g id="edge9_Node000008_Node000010" class="edge">
<title>Node8&#45;&gt;Node10</title>
<g id="a_edge9_Node000008_Node000010"><a xlink:title=" ">
<path fill="none" stroke="#63b8ff" d="M171.62,-191.68C152.21,-197.36 131.12,-203.52 112.47,-208.97"/>
<polygon fill="#63b8ff" stroke="#63b8ff" points="172.46,-195.08 181.07,-188.92 170.49,-188.36 172.46,-195.08"/>
</a>
</g>
</g>
<!-- Node11 -->
<g id="Node000011" class="node">
<title>Node11</title>
<g id="a_Node000011"><a xlink:href="classsteppable_1_1Fraction.html#aad3d96fbba7e7a0fa36c3f69f0463b8b" target="_top" xlink:title="Subtracts a fraction from another fraction and stores the result in the current one....">
<polygon fill="white" stroke="#666666" points="112,-189.5 3,-189.5 3,-156 112,-156 112,-189.5"/>
<text text-anchor="start" x="11" y="-176" font-family="Helvetica,sans-Serif" font-size="10.00">steppable::Fraction</text>
<text text-anchor="middle" x="57.5" y="-163.25" font-family="Helvetica,sans-Serif" font-size="10.00">::operator&#45;=</text>
</a>
</g>
</g>
<!-- Node8&#45;&gt;Node11 -->
<g id="edge10_Node000008_Node000011" class="edge">
<title>Node8&#45;&gt;Node11</title>
<g id="a_edge10_Node000008_Node000011"><a xlink:title=" ">
<path fill="none" stroke="#63b8ff" d="M171.08,-172.75C151.81,-172.75 130.95,-172.75 112.47,-172.75"/>
<polygon fill="#63b8ff" stroke="#63b8ff" points="171.01,-176.25 181.01,-172.75 171.01,-169.25 171.01,-176.25"/>
</a>
</g>
</g>
<!-- Node12 -->
<g id="Node000012" class="node">
<title>Node12</title>
<g id="a_Node000012"><a xlink:href="classsteppable_1_1Fraction.html#a86913160c5f596b74be3007bd16bda6b" target="_top" xlink:title="Divides a fraction by abother fraction and stores the result in the current one. This function does i...">
<polygon fill="white" stroke="#666666" points="112,-137.5 3,-137.5 3,-104 112,-104 112,-137.5"/>
<text text-anchor="start" x="11" y="-124" font-family="Helvetica,sans-Serif" font-size="10.00">steppable::Fraction</text>
<text text-anchor="middle" x="57.5" y="-111.25" font-family="Helvetica,sans-Serif" font-size="10.00">::operator/=</text>
</a>
</g>
</g>
<!-- Node8&#45;&gt;Node12 -->
<g id="edge11_Node000008_Node000012" class="edge">
<title>Node8&#45;&gt;Node12</title>
<g id="a_edge11_Node000008_Node000012"><a xlink:title=" ">
<path fill="none" stroke="#63b8ff" d="M171.62,-153.82C152.21,-148.14 131.12,-141.98 112.47,-136.53"/>
<polygon fill="#63b8ff" stroke="#63b8ff" points="170.49,-157.14 181.07,-156.58 172.46,-150.42 170.49,-157.14"/>
</a>
</g>
</g>
<!-- Node13 -->
<g id="Node000013" class="node">
<title>Node13</title>
<g id="a_Node000013"><a xlink:href="classsteppable_1_1Fraction.html#ac0a3d392ac70f42f74392fe08c1ab8be" target="_top" xlink:title="Raises the fraction to a power and stores the result in the current one.">
<polygon fill="white" stroke="#666666" points="112,-85.5 3,-85.5 3,-52 112,-52 112,-85.5"/>
<text text-anchor="start" x="11" y="-72" font-family="Helvetica,sans-Serif" font-size="10.00">steppable::Fraction</text>
<text text-anchor="middle" x="57.5" y="-59.25" font-family="Helvetica,sans-Serif" font-size="10.00">::operator^=</text>
</a>
</g>
</g>
<!-- Node8&#45;&gt;Node13 -->
<g id="edge12_Node000008_Node000013" class="edge">
<title>Node8&#45;&gt;Node13</title>
<g id="a_edge12_Node000008_Node000013"><a xlink:title=" ">
<path fill="none" stroke="#63b8ff" d="M172.08,-158.39C164.6,-155.24 157.38,-151.41 151,-146.75 128.29,-130.18 136.53,-112.82 115,-94.75 111.11,-91.49 106.75,-88.55 102.21,-85.92"/>
<polygon fill="#63b8ff" stroke="#63b8ff" points="170.76,-161.63 181.35,-161.88 173.22,-155.08 170.76,-161.63"/>
</a>
</g>
</g>
<!-- Node14 -->
<g id="Node000014" class="node">
<title>Node14</title>
<g id="a_Node000014"><a xlink:href="classsteppable_1_1Fraction.html#a9a892820854af33b0eabc6b6ec43b389" target="_top" xlink:title="Returns the fraction as a string. The string is formatted as &quot;top/bottom&quot;, and it will automatically ...">
<polygon fill="white" stroke="#666666" points="112,-33.5 3,-33.5 3,0 112,0 112,-33.5"/>
<text text-anchor="start" x="11" y="-20" font-family="Helvetica,sans-Serif" font-size="10.00">steppable::Fraction</text>
<text text-anchor="middle" x="57.5" y="-7.25" font-family="Helvetica,sans-Serif" font-size="10.00">::present</text>
</a>
</g>
</g>
<!-- Node8&#45;&gt;Node14 -->
<g id="edge13_Node000008_Node000014" class="edge">
<title>Node8&#45;&gt;Node14</title>
<g id="a_edge13_Node000008_Node000014"><a xlink:title=" ">
<path fill="none" stroke="#63b8ff" d="M171.89,-160.5C164.21,-157 156.98,-152.51 151,-146.75 115.77,-112.82 147.85,-78.99 115,-42.75 111.95,-39.39 108.39,-36.43 104.55,-33.84"/>
<polygon fill="#63b8ff" stroke="#63b8ff" points="170.58,-163.74 181.16,-164.13 173.13,-157.23 170.58,-163.74"/>
</a>
</g>
</g>
</g>
</svg>
