<?xml version="1.0" encoding="UTF-8" standalone="no"?>
<!DOCTYPE svg PUBLIC "-//W3C//DTD SVG 1.1//EN"
 "http://www.w3.org/Graphics/SVG/1.1/DTD/svg11.dtd">
<!-- Generated by graphviz version 13.1.0 (20250701.0955)
 -->
<!-- Title: steppable::prettyPrint::printers::ppSuperscript Pages: 1 -->
<svg width="754pt" height="147pt"
 viewBox="0.00 0.00 754.00 147.00" xmlns="http://www.w3.org/2000/svg" xmlns:xlink="http://www.w3.org/1999/xlink">
<g id="graph0" class="graph" transform="scale(1 1) rotate(0) translate(4 142.5)">
<title>steppable::prettyPrint::printers::ppSuperscript</title>
<!-- Node1 -->
<g id="Node000001" class="node">
<title>Node1</title>
<g id="a_Node000001"><a xlink:title="Pretty print a power expression, (aka, superscript).">
<polygon fill="#999999" stroke="#666666" points="132.25,-112.5 0,-112.5 0,-79 132.25,-79 132.25,-112.5"/>
<text xml:space="preserve" text-anchor="start" x="8" y="-99" font-family="Helvetica,sans-Serif" font-size="10.00">steppable::prettyPrint</text>
<text xml:space="preserve" text-anchor="middle" x="66.12" y="-86.25" font-family="Helvetica,sans-Serif" font-size="10.00">::printers::ppSuperscript</text>
</a>
</g>
</g>
<!-- Node2 -->
<g id="Node000002" class="node">
<title>Node2</title>
<g id="a_Node000002"><a xlink:href="namespacesteppable_1_1prettyPrint.html#a6c89a78ae09a4f71eb5b95a4549d40d1" target="_top" xlink:title="Gets the minimal height needed to print a string.">
<polygon fill="white" stroke="#666666" points="290,-138.5 168.25,-138.5 168.25,-105 290,-105 290,-138.5"/>
<text xml:space="preserve" text-anchor="start" x="176.25" y="-125" font-family="Helvetica,sans-Serif" font-size="10.00">steppable::prettyPrint</text>
<text xml:space="preserve" text-anchor="middle" x="229.12" y="-112.25" font-family="Helvetica,sans-Serif" font-size="10.00">::getStringHeight</text>
</a>
</g>
</g>
<!-- Node1&#45;&gt;Node2 -->
<g id="edge1_Node000001_Node000002" class="edge">
<title>Node1&#45;&gt;Node2</title>
<g id="a_edge1_Node000001_Node000002"><a xlink:title=" ">
<path fill="none" stroke="#63b8ff" d="M132.61,-106.33C140.54,-107.61 148.67,-108.92 156.68,-110.21"/>
<polygon fill="#63b8ff" stroke="#63b8ff" points="155.96,-113.64 166.39,-111.78 157.08,-106.73 155.96,-113.64"/>
</a>
</g>
</g>
<!-- Node4 -->
<g id="Node000004" class="node">
<title>Node4</title>
<g id="a_Node000004"><a xlink:href="namespacesteppable_1_1prettyPrint.html#a1a21e6713926f95247a2db8963a0ae2d" target="_top" xlink:title="Gets the minimal width needed to print a string.">
<polygon fill="white" stroke="#666666" points="290,-86.5 168.25,-86.5 168.25,-53 290,-53 290,-86.5"/>
<text xml:space="preserve" text-anchor="start" x="176.25" y="-73" font-family="Helvetica,sans-Serif" font-size="10.00">steppable::prettyPrint</text>
<text xml:space="preserve" text-anchor="middle" x="229.12" y="-60.25" font-family="Helvetica,sans-Serif" font-size="10.00">::getStringWidth</text>
</a>
</g>
</g>
<!-- Node1&#45;&gt;Node4 -->
<g id="edge3_Node000001_Node000004" class="edge">
<title>Node1&#45;&gt;Node4</title>
<g id="a_edge3_Node000001_Node000004"><a xlink:title=" ">
<path fill="none" stroke="#63b8ff" d="M132.61,-85.17C140.54,-83.89 148.67,-82.58 156.68,-81.29"/>
<polygon fill="#63b8ff" stroke="#63b8ff" points="157.08,-84.77 166.39,-79.72 155.96,-77.86 157.08,-84.77"/>
</a>
</g>
</g>
<!-- Node3 -->
<g id="Node000003" class="node">
<title>Node3</title>
<g id="a_Node000003"><a xlink:href="namespacesteppable_1_1____internals_1_1stringUtils.html#a2600efb348f0dd19cc0068946d06b1b7" target="_top" xlink:title="Splits a string into substrings based on a separator.">
<polygon fill="white" stroke="#666666" points="487.12,-138.5 363.88,-138.5 363.88,-105 487.12,-105 487.12,-138.5"/>
<text xml:space="preserve" text-anchor="start" x="371.88" y="-125" font-family="Helvetica,sans-Serif" font-size="10.00">steppable::__internals</text>
<text xml:space="preserve" text-anchor="middle" x="425.5" y="-112.25" font-family="Helvetica,sans-Serif" font-size="10.00">::stringUtils::split</text>
</a>
</g>
</g>
<!-- Node2&#45;&gt;Node3 -->
<g id="edge2_Node000002_Node000003" class="edge">
<title>Node2&#45;&gt;Node3</title>
<g id="a_edge2_Node000002_Node000003"><a xlink:title=" ">
<path fill="none" stroke="#63b8ff" d="M290.3,-121.75C309.87,-121.75 331.79,-121.75 352.16,-121.75"/>
<polygon fill="#63b8ff" stroke="#63b8ff" points="352.1,-125.25 362.1,-121.75 352.1,-118.25 352.1,-125.25"/>
</a>
</g>
</g>
<!-- Node4&#45;&gt;Node3 -->
<g id="edge10_Node000004_Node000003" class="edge">
<title>Node4&#45;&gt;Node3</title>
<g id="a_edge10_Node000004_Node000003"><a xlink:title=" ">
<path fill="none" stroke="#63b8ff" d="M290.46,-86.18C302.24,-89.37 314.5,-92.67 326,-95.75 334.62,-98.06 343.68,-100.47 352.65,-102.85"/>
<polygon fill="#63b8ff" stroke="#63b8ff" points="351.51,-106.16 362.07,-105.34 353.3,-99.4 351.51,-106.16"/>
</a>
</g>
</g>
<!-- Node5 -->
<g id="Node000005" class="node">
<title>Node5</title>
<g id="a_Node000005"><a xlink:href="namespacesteppable_1_1____internals_1_1stringUtils.html#a168a60d3cf0edf7440fe4a41dbaa80ee" target="_top" xlink:title="Calculates the display width of a UTF&#45;8 encoded string.">
<polygon fill="white" stroke="#666666" points="525,-68.5 326,-68.5 326,-35 525,-35 525,-68.5"/>
<text xml:space="preserve" text-anchor="start" x="334" y="-55" font-family="Helvetica,sans-Serif" font-size="10.00">steppable::__internals</text>
<text xml:space="preserve" text-anchor="middle" x="425.5" y="-42.25" font-family="Helvetica,sans-Serif" font-size="10.00">::stringUtils::getUnicodeDisplayWidth</text>
</a>
</g>
</g>
<!-- Node4&#45;&gt;Node5 -->
<g id="edge4_Node000004_Node000005" class="edge">
<title>Node4&#45;&gt;Node5</title>
<g id="a_edge4_Node000004_Node000005"><a xlink:title=" ">
<path fill="none" stroke="#63b8ff" d="M290.3,-64.18C298.04,-63.46 306.15,-62.71 314.38,-61.95"/>
<polygon fill="#63b8ff" stroke="#63b8ff" points="314.53,-65.45 324.16,-61.04 313.88,-58.48 314.53,-65.45"/>
</a>
</g>
</g>
<!-- Node5&#45;&gt;Node5 -->
<g id="edge7_Node000005_Node000005" class="edge">
<title>Node5&#45;&gt;Node5</title>
<g id="a_edge7_Node000005_Node000005"><a xlink:title=" ">
<path fill="none" stroke="#63b8ff" d="M390.2,-68.91C384.2,-78.12 395.97,-86.5 425.5,-86.5 442.11,-86.5 453.1,-83.85 458.47,-79.89"/>
<polygon fill="#63b8ff" stroke="#63b8ff" points="461.84,-80.9 460.49,-70.39 454.99,-79.45 461.84,-80.9"/>
</a>
</g>
</g>
<!-- Node6 -->
<g id="Node000006" class="node">
<title>Node6</title>
<g id="a_Node000006"><a xlink:href="namespacesteppable_1_1____internals_1_1stringUtils.html#ae19bbfb6c1f7d3724b6db65c9efc3315" target="_top" xlink:title="Decodes a UTF&#45;8 encoded string into a Unicode code point.">
<polygon fill="white" stroke="#666666" points="725.12,-103.5 581.62,-103.5 581.62,-70 725.12,-70 725.12,-103.5"/>
<text xml:space="preserve" text-anchor="start" x="589.62" y="-90" font-family="Helvetica,sans-Serif" font-size="10.00">steppable::__internals</text>
<text xml:space="preserve" text-anchor="middle" x="653.38" y="-77.25" font-family="Helvetica,sans-Serif" font-size="10.00">::stringUtils::getCodepoint</text>
</a>
</g>
</g>
<!-- Node5&#45;&gt;Node6 -->
<g id="edge5_Node000005_Node000006" class="edge">
<title>Node5&#45;&gt;Node6</title>
<g id="a_edge5_Node000005_Node000006"><a xlink:title=" ">
<path fill="none" stroke="#63b8ff" d="M525.24,-67.05C540.28,-69.38 555.67,-71.76 570.3,-74.03"/>
<polygon fill="#63b8ff" stroke="#63b8ff" points="569.41,-77.44 579.83,-75.51 570.48,-70.52 569.41,-77.44"/>
</a>
</g>
</g>
<!-- Node7 -->
<g id="Node000007" class="node">
<title>Node7</title>
<g id="a_Node000007"><a xlink:href="namespacesteppable_1_1____internals_1_1stringUtils.html#a0bc9c3e3de39edf347d4391c4a7eec46" target="_top" xlink:title="Checks if a Unicode code point represents a zero&#45;width character.">
<polygon fill="white" stroke="#666666" points="745.75,-33.5 561,-33.5 561,0 745.75,0 745.75,-33.5"/>
<text xml:space="preserve" text-anchor="start" x="569" y="-20" font-family="Helvetica,sans-Serif" font-size="10.00">steppable::__internals</text>
<text xml:space="preserve" text-anchor="middle" x="653.38" y="-7.25" font-family="Helvetica,sans-Serif" font-size="10.00">::stringUtils::isZeroWidthCharacter</text>
</a>
</g>
</g>
<!-- Node5&#45;&gt;Node7 -->
<g id="edge8_Node000005_Node000007" class="edge">
<title>Node5&#45;&gt;Node7</title>
<g id="a_edge8_Node000005_Node000007"><a xlink:title=" ">
<path fill="none" stroke="#63b8ff" d="M525.24,-36.45C533.23,-35.21 541.32,-33.96 549.33,-32.72"/>
<polygon fill="#63b8ff" stroke="#63b8ff" points="549.76,-36.19 559.11,-31.2 548.69,-29.27 549.76,-36.19"/>
</a>
</g>
</g>
<!-- Node6&#45;&gt;Node6 -->
<g id="edge6_Node000006_Node000006" class="edge">
<title>Node6&#45;&gt;Node6</title>
<g id="a_edge6_Node000006_Node000006"><a xlink:title=" ">
<path fill="none" stroke="#63b8ff" d="M612.41,-103.91C605.45,-113.12 619.1,-121.5 653.38,-121.5 672.65,-121.5 685.41,-118.85 691.64,-114.89"/>
<polygon fill="#63b8ff" stroke="#63b8ff" points="694.99,-115.93 693.98,-105.38 688.19,-114.26 694.99,-115.93"/>
</a>
</g>
</g>
<!-- Node7&#45;&gt;Node7 -->
<g id="edge9_Node000007_Node000007" class="edge">
<title>Node7&#45;&gt;Node7</title>
<g id="a_edge9_Node000007_Node000007"><a xlink:title=" ">
<path fill="none" stroke="#63b8ff" d="M612.41,-33.91C605.45,-43.12 619.1,-51.5 653.38,-51.5 672.65,-51.5 685.41,-48.85 691.64,-44.89"/>
<polygon fill="#63b8ff" stroke="#63b8ff" points="694.99,-45.93 693.98,-35.38 688.19,-44.26 694.99,-45.93"/>
</a>
</g>
</g>
</g>
</svg>
