<?xml version="1.0" encoding="UTF-8" standalone="no"?>
<!DOCTYPE svg PUBLIC "-//W3C//DTD SVG 1.1//EN"
 "http://www.w3.org/Graphics/SVG/1.1/DTD/svg11.dtd">
<!-- Generated by graphviz version 12.0.0 (20240704.0754)
 -->
<!-- Title: ImGui::Indent Pages: 1 -->
<!--zoomable 973 -->

<svg id="main" version="1.1" xmlns="http://www.w3.org/2000/svg" xmlns:xlink="http://www.w3.org/1999/xlink" xml:space="preserve" onload="init(evt)">
<style type="text/css"><![CDATA[
.node, .edge {opacity: 0.7;}
.node.selected, .edge.selected {opacity: 1;}
.edge:hover path { stroke: red; }
.edge:hover polygon { stroke: red; fill: red; }
]]></style>

<defs>
  <circle id="rim" cx="0" cy="0" r="7"/>
  <circle id="rim2" cx="0" cy="0" r="3.5"/>
  <g id="zoomPlus">
    <use xlink:href="#rim" fill="#404040"><set attributeName="fill" to="#808080" begin="zoomplus.mouseover" end="zoomplus.mouseout"/></use>
    <path d="M-4,0h8M0,-4v8" fill="none" stroke="white" stroke-width="1.5" pointer-events="none"/>
  </g>
  <g id="zoomMin">
    <use xlink:href="#rim" fill="#404040"><set attributeName="fill" to="#808080" begin="zoomminus.mouseover" end="zoomminus.mouseout"/></use>
    <path d="M-4,0h8" fill="none" stroke="white" stroke-width="1.5" pointer-events="none"/>
  </g>
  <g id="arrowUp" transform="translate(30 24)">
    <use xlink:href="#rim"/>
    <path pointer-events="none" fill="none" stroke="white" stroke-width="1.5" d="M0,-3.0v7 M-2.5,-0.5L0,-3.0L2.5,-0.5"/>
  </g>
  <g id="arrowRight" transform="rotate(90) translate(36 -43)">
    <use xlink:href="#rim"/>
    <path pointer-events="none" fill="none" stroke="white" stroke-width="1.5" d="M0,-3.0v7 M-2.5,-0.5L0,-3.0L2.5,-0.5"/>
  </g>
  <g id="arrowDown" transform="rotate(180) translate(-30 -48)">
    <use xlink:href="#rim"/>
    <path pointer-events="none" fill="none" stroke="white" stroke-width="1.5" d="M0,-3.0v7 M-2.5,-0.5L0,-3.0L2.5,-0.5"/>
  </g>
  <g id="arrowLeft" transform="rotate(270) translate(-36 17)">
    <use xlink:href="#rim"/>
    <path pointer-events="none" fill="none" stroke="white" stroke-width="1.5" d="M0,-3.0v7 M-2.5,-0.5L0,-3.0L2.5,-0.5"/>
  </g>
  <g id="resetDef">
    <use xlink:href="#rim2" fill="#404040"><set attributeName="fill" to="#808080" begin="reset.mouseover" end="reset.mouseout"/></use>
  </g>
</defs>
<script type="application/ecmascript">
var viewWidth = 1791;
var viewHeight = 973;
var sectionId = 'dynsection-611';
</script>
<script type="application/ecmascript" xlink:href="svg.min.js"/>
<svg id="graph" class="graph">
<g id="viewport">
<title>ImGui::Indent</title>
<!-- Node1 -->
<g id="Node000001" class="node">
<title>Node1</title>
<g id="a_Node000001"><a xlink:title=" ">
<polygon fill="#999999" stroke="#666666" points="1783,-776.38 1701,-776.38 1701,-755.62 1783,-755.62 1783,-776.38"/>
<text text-anchor="middle" x="1742" y="-762.88" font-family="Helvetica,sans-Serif" font-size="10.00">ImGui::Indent</text>
</a>
</g>
</g>
<!-- Node2 -->
<g id="Node000002" class="node">
<title>Node2</title>
<g id="a_Node000002"><a xlink:href="namespaceImGui.html#a0fc8019faf3a1aec25b554384ad9e506" target="_top" xlink:title=" ">
<polygon fill="white" stroke="#666666" points="734.5,-757.75 564.75,-757.75 564.75,-724.25 734.5,-724.25 734.5,-757.75"/>
<text text-anchor="start" x="572.75" y="-744.25" font-family="Helvetica,sans-Serif" font-size="10.00">ImGui::DebugNodeWindowsList</text>
<text text-anchor="middle" x="649.62" y="-731.5" font-family="Helvetica,sans-Serif" font-size="10.00">ByBeginStackParent</text>
</a>
</g>
</g>
<!-- Node1&#45;&gt;Node2 -->
<g id="edge1_Node000001_Node000002" class="edge">
<title>Node1&#45;&gt;Node2</title>
<g id="a_edge1_Node000001_Node000002"><a xlink:title=" ">
<path fill="none" stroke="#63b8ff" d="M1689.04,-766C1624.28,-766 1510.22,-766 1412.5,-766 1412.5,-766 1412.5,-766 1044,-766 937.25,-766 814.52,-756.72 734.94,-749.46"/>
<polygon fill="#63b8ff" stroke="#63b8ff" points="1689.03,-769.5 1699.03,-766 1689.03,-762.5 1689.03,-769.5"/>
</a>
</g>
</g>
<!-- Node3 -->
<g id="Node000003" class="node">
<title>Node3</title>
<g id="a_Node000003"><a xlink:href="namespaceImGui.html#afe7a28c6eb52fff3cc27d5a698fea4ff" target="_top" xlink:title=" ">
<polygon fill="white" stroke="#666666" points="334.25,-649.38 181.75,-649.38 181.75,-628.62 334.25,-628.62 334.25,-649.38"/>
<text text-anchor="middle" x="258" y="-635.88" font-family="Helvetica,sans-Serif" font-size="10.00">ImGui::ShowMetricsWindow</text>
</a>
</g>
</g>
<!-- Node1&#45;&gt;Node3 -->
<g id="edge6_Node000001_Node000003" class="edge">
<title>Node1&#45;&gt;Node3</title>
<g id="a_edge6_Node000001_Node000003"><a xlink:title=" ">
<path fill="none" stroke="#63b8ff" d="M1713.93,-782.36C1659.12,-813.9 1530.18,-880 1412.5,-880 1412.5,-880 1412.5,-880 648.62,-880 523.98,-880 466.54,-925.15 370.25,-846 330.51,-813.33 358.37,-781.44 334.25,-736 315.96,-701.55 285.37,-666.79 269.41,-649.76"/>
<polygon fill="#63b8ff" stroke="#63b8ff" points="1715.41,-785.56 1722.28,-777.49 1711.88,-779.51 1715.41,-785.56"/>
</a>
</g>
</g>
<!-- Node4 -->
<g id="Node000004" class="node">
<title>Node4</title>
<g id="a_Node000004"><a xlink:href="namespaceImGui.html#af95643a0ce4893b9e57c12991922fb18" target="_top" xlink:title=" ">
<polygon fill="white" stroke="#666666" points="145.75,-493.38 0,-493.38 0,-472.62 145.75,-472.62 145.75,-493.38"/>
<text text-anchor="middle" x="72.88" y="-479.88" font-family="Helvetica,sans-Serif" font-size="10.00">ImGui::ShowDemoWindow</text>
</a>
</g>
</g>
<!-- Node1&#45;&gt;Node4 -->
<g id="edge5_Node000001_Node000004" class="edge">
<title>Node1&#45;&gt;Node4</title>
<g id="a_edge5_Node000001_Node000004"><a xlink:title=" ">
<path fill="none" stroke="#63b8ff" d="M1737.43,-787.67C1730.4,-822.85 1711.21,-891.76 1665,-925 1573.21,-991.02 1525.56,-956 1412.5,-956 1412.5,-956 1412.5,-956 448.5,-956 316.22,-956 264.77,-926.98 181.75,-824 95.24,-716.68 77.65,-539.06 74.5,-493.77"/>
<polygon fill="#63b8ff" stroke="#63b8ff" points="1740.8,-788.71 1739.16,-778.24 1733.91,-787.45 1740.8,-788.71"/>
</a>
</g>
</g>
<!-- Node5 -->
<g id="Node000005" class="node">
<title>Node5</title>
<g id="a_Node000005"><a xlink:href="namespaceImGui.html#ad6f4919bc9aa806ca8d2c1d6e2bfb051" target="_top" xlink:title=" ">
<polygon fill="white" stroke="#666666" points="1475.75,-928.38 1347.25,-928.38 1347.25,-907.62 1475.75,-907.62 1475.75,-928.38"/>
<text text-anchor="middle" x="1411.5" y="-914.88" font-family="Helvetica,sans-Serif" font-size="10.00">ImGui::ShowUserGuide</text>
</a>
</g>
</g>
<!-- Node1&#45;&gt;Node5 -->
<g id="edge7_Node000001_Node000005" class="edge">
<title>Node1&#45;&gt;Node5</title>
<g id="a_edge7_Node000001_Node000005"><a xlink:title=" ">
<path fill="none" stroke="#63b8ff" d="M1735.02,-787.34C1725.52,-816.87 1703.95,-869.32 1665,-894 1608.65,-929.71 1530.57,-931.56 1476.2,-927.12"/>
<polygon fill="#63b8ff" stroke="#63b8ff" points="1738.29,-788.61 1737.84,-778.02 1731.59,-786.59 1738.29,-788.61"/>
</a>
</g>
</g>
<!-- Node6 -->
<g id="Node000006" class="node">
<title>Node6</title>
<g id="a_Node000006"><a xlink:href="namespaceImGui.html#a30b5df3be04a6e712985612bbdea6656" target="_top" xlink:title=" ">
<polygon fill="white" stroke="#666666" points="1638.75,-738.38 1544,-738.38 1544,-717.62 1638.75,-717.62 1638.75,-738.38"/>
<text text-anchor="middle" x="1591.38" y="-724.88" font-family="Helvetica,sans-Serif" font-size="10.00">ImGui::TreePush</text>
</a>
</g>
</g>
<!-- Node1&#45;&gt;Node6 -->
<g id="edge9_Node000001_Node000006" class="edge">
<title>Node1&#45;&gt;Node6</title>
<g id="a_edge9_Node000001_Node000006"><a xlink:title=" ">
<path fill="none" stroke="#63b8ff" d="M1689.63,-752.87C1671.71,-748.28 1651.81,-743.2 1634.71,-738.82"/>
<polygon fill="#63b8ff" stroke="#63b8ff" points="1688.76,-756.26 1699.31,-755.34 1690.49,-749.47 1688.76,-756.26"/>
</a>
</g>
</g>
<!-- Node7 -->
<g id="Node000007" class="node">
<title>Node7</title>
<g id="a_Node000007"><a xlink:href="namespaceImGui.html#aaaedbc7778152061af89f542f3e3402e" target="_top" xlink:title=" ">
<polygon fill="white" stroke="#666666" points="1638.75,-699.38 1544,-699.38 1544,-678.62 1638.75,-678.62 1638.75,-699.38"/>
<text text-anchor="middle" x="1591.38" y="-685.88" font-family="Helvetica,sans-Serif" font-size="10.00">ImGui::TreePush</text>
</a>
</g>
</g>
<!-- Node1&#45;&gt;Node7 -->
<g id="edge10_Node000001_Node000007" class="edge">
<title>Node1&#45;&gt;Node7</title>
<g id="a_edge10_Node000001_Node000007"><a xlink:title=" ">
<path fill="none" stroke="#63b8ff" d="M1720.93,-747.61C1706.35,-735.14 1685.65,-719.13 1665,-709 1656.9,-705.03 1647.89,-701.74 1639.05,-699.06"/>
<polygon fill="#63b8ff" stroke="#63b8ff" points="1718.6,-750.23 1728.42,-754.21 1723.22,-744.97 1718.6,-750.23"/>
</a>
</g>
</g>
<!-- Node8 -->
<g id="Node000008" class="node">
<title>Node8</title>
<g id="a_Node000008"><a xlink:href="namespaceImGui.html#ad3c4846b9f47fc66556333fe52406ffb" target="_top" xlink:title=" ">
<polygon fill="white" stroke="#666666" points="1665,-413.38 1517.75,-413.38 1517.75,-392.62 1665,-392.62 1665,-413.38"/>
<text text-anchor="middle" x="1591.38" y="-399.88" font-family="Helvetica,sans-Serif" font-size="10.00">ImGui::TreePushOverrideID</text>
</a>
</g>
</g>
<!-- Node1&#45;&gt;Node8 -->
<g id="edge11_Node000001_Node000008" class="edge">
<title>Node1&#45;&gt;Node8</title>
<g id="a_edge11_Node000001_Node000008"><a xlink:title=" ">
<path fill="none" stroke="#63b8ff" d="M1732.32,-744.8C1704.39,-676.59 1617.45,-464.25 1596.81,-413.82"/>
<polygon fill="#63b8ff" stroke="#63b8ff" points="1728.95,-745.81 1735.98,-753.74 1735.43,-743.15 1728.95,-745.81"/>
</a>
</g>
</g>
<!-- Node2&#45;&gt;Node2 -->
<g id="edge2_Node000002_Node000002" class="edge">
<title>Node2&#45;&gt;Node2</title>
<g id="a_edge2_Node000002_Node000002"><a xlink:title=" ">
<path fill="none" stroke="#63b8ff" d="M682.66,-769.14C677.28,-773.1 666.27,-775.75 649.62,-775.75 620.04,-775.75 608.25,-767.37 614.26,-758.16"/>
<polygon fill="#63b8ff" stroke="#63b8ff" points="686.02,-770.15 684.68,-759.64 679.18,-768.7 686.02,-770.15"/>
</a>
</g>
</g>
<!-- Node2&#45;&gt;Node3 -->
<g id="edge3_Node000002_Node000003" class="edge">
<title>Node2&#45;&gt;Node3</title>
<g id="a_edge3_Node000002_Node000003"><a xlink:title=" ">
<path fill="none" stroke="#63b8ff" d="M553.03,-741.02C498.18,-738.44 428.79,-730.67 370.25,-710 330.71,-696.04 290.85,-665.76 271.33,-649.62"/>
<polygon fill="#63b8ff" stroke="#63b8ff" points="552.86,-744.52 562.99,-741.44 553.15,-737.53 552.86,-744.52"/>
</a>
</g>
</g>
<!-- Node3&#45;&gt;Node4 -->
<g id="edge4_Node000003_Node000004" class="edge">
<title>Node3&#45;&gt;Node4</title>
<g id="a_edge4_Node000003_Node000004"><a xlink:title=" ">
<path fill="none" stroke="#63b8ff" d="M236.06,-621.16C197.79,-588.56 117.61,-520.26 86.55,-493.8"/>
<polygon fill="#63b8ff" stroke="#63b8ff" points="233.38,-623.48 243.26,-627.3 237.92,-618.15 233.38,-623.48"/>
</a>
</g>
</g>
<!-- Node5&#45;&gt;Node4 -->
<g id="edge8_Node000005_Node000004" class="edge">
<title>Node5&#45;&gt;Node4</title>
<g id="a_edge8_Node000005_Node000004"><a xlink:title=" ">
<path fill="none" stroke="#63b8ff" d="M1335.5,-918C1261.81,-918 1146.16,-918 1046,-918 1046,-918 1046,-918 448.5,-918 217.27,-918 97.47,-560.74 77.04,-493.75"/>
<polygon fill="#63b8ff" stroke="#63b8ff" points="1335.45,-921.5 1345.44,-918 1335.44,-914.5 1335.45,-921.5"/>
</a>
</g>
</g>
<!-- Node9 -->
<g id="Node000009" class="node">
<title>Node9</title>
<g id="a_Node000009"><a xlink:href="namespaceImGui.html#a918eabf70d288e93b2519ee1eac2c0b4" target="_top" xlink:title=" ">
<polygon fill="white" stroke="#666666" points="1481.75,-184.38 1341.25,-184.38 1341.25,-163.62 1481.75,-163.62 1481.75,-184.38"/>
<text text-anchor="middle" x="1411.5" y="-170.88" font-family="Helvetica,sans-Serif" font-size="10.00">ImGui::TreeNodeBehavior</text>
</a>
</g>
</g>
<!-- Node8&#45;&gt;Node9 -->
<g id="edge12_Node000008_Node000009" class="edge">
<title>Node8&#45;&gt;Node9</title>
<g id="a_edge12_Node000008_Node000009"><a xlink:title=" ">
<path fill="none" stroke="#63b8ff" d="M1575.18,-383.43C1538.99,-336.85 1448.69,-220.59 1420.82,-184.71"/>
<polygon fill="#63b8ff" stroke="#63b8ff" points="1572.21,-385.32 1581.11,-391.07 1577.74,-381.02 1572.21,-385.32"/>
</a>
</g>
</g>
<!-- Node10 -->
<g id="Node000010" class="node">
<title>Node10</title>
<g id="a_Node000010"><a xlink:href="namespaceImGui.html#a4d6e6e7a5ace0e5dbee3ea1926ddf049" target="_top" xlink:title=" ">
<polygon fill="white" stroke="#666666" points="1305.25,-106.38 1167.75,-106.38 1167.75,-85.62 1305.25,-85.62 1305.25,-106.38"/>
<text text-anchor="middle" x="1236.5" y="-92.88" font-family="Helvetica,sans-Serif" font-size="10.00">ImGui::CollapsingHeader</text>
</a>
</g>
</g>
<!-- Node9&#45;&gt;Node10 -->
<g id="edge13_Node000009_Node000010" class="edge">
<title>Node9&#45;&gt;Node10</title>
<g id="a_edge13_Node000009_Node000010"><a xlink:title=" ">
<path fill="none" stroke="#63b8ff" d="M1383.86,-157.2C1363.05,-144.61 1333.09,-127.62 1305.25,-116 1297.1,-112.6 1288.18,-109.53 1279.56,-106.87"/>
<polygon fill="#63b8ff" stroke="#63b8ff" points="1381.93,-160.12 1392.28,-162.37 1385.59,-154.16 1381.93,-160.12"/>
</a>
</g>
</g>
<!-- Node11 -->
<g id="Node000011" class="node">
<title>Node11</title>
<g id="a_Node000011"><a xlink:href="namespaceImGui.html#ab52f9e08698c9d64abb05b98f5355146" target="_top" xlink:title=" ">
<polygon fill="white" stroke="#666666" points="518.25,-69.38 380.75,-69.38 380.75,-48.62 518.25,-48.62 518.25,-69.38"/>
<text text-anchor="middle" x="449.5" y="-55.88" font-family="Helvetica,sans-Serif" font-size="10.00">ImGui::CollapsingHeader</text>
</a>
</g>
</g>
<!-- Node9&#45;&gt;Node11 -->
<g id="edge14_Node000009_Node000011" class="edge">
<title>Node9&#45;&gt;Node11</title>
<g id="a_edge14_Node000009_Node000011"><a xlink:title=" ">
<path fill="none" stroke="#63b8ff" d="M1394.22,-154.73C1374.98,-133.06 1341.03,-98.14 1305.25,-77 1201.76,-15.86 1166.2,0 1046,0 1046,0 1046,0 845.38,0 716.45,0 566.42,-31.15 494.01,-48.18"/>
<polygon fill="#63b8ff" stroke="#63b8ff" points="1391.56,-157 1400.76,-162.25 1396.84,-152.41 1391.56,-157"/>
</a>
</g>
</g>
<!-- Node12 -->
<g id="Node000012" class="node">
<title>Node12</title>
<g id="a_Node000012"><a xlink:href="namespaceImGui.html#a4dff507ce8bbe0da9556bb50b1e60d7f" target="_top" xlink:title=" ">
<polygon fill="white" stroke="#666666" points="1285,-547.38 1188,-547.38 1188,-526.62 1285,-526.62 1285,-547.38"/>
<text text-anchor="middle" x="1236.5" y="-533.88" font-family="Helvetica,sans-Serif" font-size="10.00">ImGui::TreeNode</text>
</a>
</g>
</g>
<!-- Node9&#45;&gt;Node12 -->
<g id="edge16_Node000009_Node000012" class="edge">
<title>Node9&#45;&gt;Node12</title>
<g id="a_edge16_Node000009_Node000012"><a xlink:title=" ">
<path fill="none" stroke="#63b8ff" d="M1400.4,-195.2C1367.89,-263.41 1266.69,-475.75 1242.66,-526.18"/>
<polygon fill="#63b8ff" stroke="#63b8ff" points="1403.53,-196.76 1404.67,-186.23 1397.21,-193.75 1403.53,-196.76"/>
</a>
</g>
</g>
<!-- Node26 -->
<g id="Node000026" class="node">
<title>Node26</title>
<g id="a_Node000026"><a xlink:href="namespaceImGui.html#a21f62e092dac9556a15a8edee2f70522" target="_top" xlink:title=" ">
<polygon fill="white" stroke="#666666" points="1099.5,-319.38 990.5,-319.38 990.5,-298.62 1099.5,-298.62 1099.5,-319.38"/>
<text text-anchor="middle" x="1045" y="-305.88" font-family="Helvetica,sans-Serif" font-size="10.00">ImGui::TreeNodeEx</text>
</a>
</g>
</g>
<!-- Node9&#45;&gt;Node26 -->
<g id="edge56_Node000009_Node000026" class="edge">
<title>Node9&#45;&gt;Node26</title>
<g id="a_edge56_Node000009_Node000026"><a xlink:title=" ">
<path fill="none" stroke="#63b8ff" d="M1370.59,-188.78C1296.75,-216.13 1140.4,-274.04 1075.35,-298.13"/>
<polygon fill="#63b8ff" stroke="#63b8ff" points="1371.71,-192.1 1379.87,-185.35 1369.28,-185.54 1371.71,-192.1"/>
</a>
</g>
</g>
<!-- Node27 -->
<g id="Node000027" class="node">
<title>Node27</title>
<g id="a_Node000027"><a xlink:href="namespaceImGui.html#a251cd4acbdad4cef2246d9b573a83ce0" target="_top" xlink:title=" ">
<polygon fill="white" stroke="#666666" points="1294.38,-184.38 1178.62,-184.38 1178.62,-163.62 1294.38,-163.62 1294.38,-184.38"/>
<text text-anchor="middle" x="1236.5" y="-170.88" font-family="Helvetica,sans-Serif" font-size="10.00">ImGui::TreeNodeExV</text>
</a>
</g>
</g>
<!-- Node9&#45;&gt;Node27 -->
<g id="edge60_Node000009_Node000027" class="edge">
<title>Node9&#45;&gt;Node27</title>
<g id="a_edge60_Node000009_Node000027"><a xlink:title=" ">
<path fill="none" stroke="#63b8ff" d="M1329.83,-174C1317.96,-174 1305.94,-174 1294.68,-174"/>
<polygon fill="#63b8ff" stroke="#63b8ff" points="1329.62,-177.5 1339.62,-174 1329.62,-170.5 1329.62,-177.5"/>
</a>
</g>
</g>
<!-- Node34 -->
<g id="Node000034" class="node">
<title>Node34</title>
<g id="a_Node000034"><a xlink:href="namespaceImGui.html#aaae827898572d17e064a88a1afc8e6b0" target="_top" xlink:title=" ">
<polygon fill="white" stroke="#666666" points="1294.38,-145.38 1178.62,-145.38 1178.62,-124.62 1294.38,-124.62 1294.38,-145.38"/>
<text text-anchor="middle" x="1236.5" y="-131.88" font-family="Helvetica,sans-Serif" font-size="10.00">ImGui::TreeNodeExV</text>
</a>
</g>
</g>
<!-- Node9&#45;&gt;Node34 -->
<g id="edge67_Node000009_Node000034" class="edge">
<title>Node9&#45;&gt;Node34</title>
<g id="a_edge67_Node000009_Node000034"><a xlink:title=" ">
<path fill="none" stroke="#63b8ff" d="M1351.08,-160.61C1329.76,-155.8 1305.99,-150.44 1285.73,-145.87"/>
<polygon fill="#63b8ff" stroke="#63b8ff" points="1350.31,-164.02 1360.83,-162.8 1351.85,-157.19 1350.31,-164.02"/>
</a>
</g>
</g>
<!-- Node11&#45;&gt;Node4 -->
<g id="edge15_Node000011_Node000004" class="edge">
<title>Node11&#45;&gt;Node4</title>
<g id="a_edge15_Node000011_Node000004"><a xlink:title=" ">
<path fill="none" stroke="#63b8ff" d="M417.81,-75.12C363.86,-104.76 251.17,-172.68 181.75,-257 122.61,-328.83 86.96,-438.5 76.86,-472.55"/>
<polygon fill="#63b8ff" stroke="#63b8ff" points="419.33,-78.27 426.45,-70.43 416,-72.12 419.33,-78.27"/>
</a>
</g>
</g>
<!-- Node12&#45;&gt;Node3 -->
<g id="edge55_Node000012_Node000003" class="edge">
<title>Node12&#45;&gt;Node3</title>
<g id="a_edge55_Node000012_Node000003"><a xlink:title=" ">
<path fill="none" stroke="#63b8ff" d="M1228.7,-558.2C1216.04,-593.79 1185.16,-664.73 1131.75,-696 1051.22,-743.15 1015.52,-706.89 922.25,-710 676.17,-718.21 613.14,-703.37 370.25,-663 348.52,-659.39 324.61,-654.37 304.55,-649.86"/>
<polygon fill="#63b8ff" stroke="#63b8ff" points="1231.92,-559.62 1231.82,-549.02 1225.29,-557.37 1231.92,-559.62"/>
</a>
</g>
</g>
<!-- Node12&#45;&gt;Node4 -->
<g id="edge53_Node000012_Node000004" class="edge">
<title>Node12&#45;&gt;Node4</title>
<g id="a_edge53_Node000012_Node000004"><a xlink:title=" ">
<path fill="none" stroke="#63b8ff" d="M1233.69,-514.88C1228.31,-465.05 1207.67,-344.19 1131.75,-290 1080.2,-253.2 910.71,-271 847.38,-271 847.38,-271 847.38,-271 448.5,-271 325.93,-271 283.67,-272.92 181.75,-341 129.23,-376.08 91.91,-445.42 78.92,-472.15"/>
<polygon fill="#63b8ff" stroke="#63b8ff" points="1230.19,-515.06 1234.63,-524.68 1237.16,-514.39 1230.19,-515.06"/>
</a>
</g>
</g>
<!-- Node13 -->
<g id="Node000013" class="node">
<title>Node13</title>
<g id="a_Node000013"><a xlink:href="namespaceImGui.html#a68c10eb20be9c419d00f2b5a9dfa6a38" target="_top" xlink:title=" ">
<polygon fill="white" stroke="#666666" points="1120.5,-585.38 969.5,-585.38 969.5,-564.62 1120.5,-564.62 1120.5,-585.38"/>
<text text-anchor="middle" x="1045" y="-571.88" font-family="Helvetica,sans-Serif" font-size="10.00">ImGui::DebugNodeColumns</text>
</a>
</g>
</g>
<!-- Node12&#45;&gt;Node13 -->
<g id="edge17_Node000012_Node000013" class="edge">
<title>Node12&#45;&gt;Node13</title>
<g id="a_edge17_Node000012_Node000013"><a xlink:title=" ">
<path fill="none" stroke="#63b8ff" d="M1176.41,-548.85C1152.05,-553.73 1124,-559.36 1100.17,-564.14"/>
<polygon fill="#63b8ff" stroke="#63b8ff" points="1177.08,-552.28 1186.2,-546.89 1175.7,-545.42 1177.08,-552.28"/>
</a>
</g>
</g>
<!-- Node14 -->
<g id="Node000014" class="node">
<title>Node14</title>
<g id="a_Node000014"><a xlink:href="namespaceImGui.html#afcb602554925c5409977f0fb39f77e5d" target="_top" xlink:title=" ">
<polygon fill="white" stroke="#666666" points="920,-579.38 772.75,-579.38 772.75,-558.62 920,-558.62 920,-579.38"/>
<text text-anchor="middle" x="846.38" y="-565.88" font-family="Helvetica,sans-Serif" font-size="10.00">ImGui::DebugNodeWindow</text>
</a>
</g>
</g>
<!-- Node12&#45;&gt;Node14 -->
<g id="edge51_Node000012_Node000014" class="edge">
<title>Node12&#45;&gt;Node14</title>
<g id="a_edge51_Node000012_Node000014"><a xlink:title=" ">
<path fill="none" stroke="#63b8ff" d="M1176.7,-540.2C1120.53,-543.46 1033.53,-549.01 958.25,-556 946,-557.14 933,-558.51 920.38,-559.93"/>
<polygon fill="#63b8ff" stroke="#63b8ff" points="1176.56,-543.72 1186.35,-539.65 1176.16,-536.73 1176.56,-543.72"/>
</a>
</g>
</g>
<!-- Node15 -->
<g id="Node000015" class="node">
<title>Node15</title>
<g id="a_Node000015"><a xlink:href="namespaceImGui.html#a8600f7b1f9b18926fb00837e56d2b3cd" target="_top" xlink:title=" ">
<polygon fill="white" stroke="#666666" points="528.75,-574.38 370.25,-574.38 370.25,-553.62 528.75,-553.62 528.75,-574.38"/>
<text text-anchor="middle" x="449.5" y="-560.88" font-family="Helvetica,sans-Serif" font-size="10.00">ImGui::DebugNodeDockNode</text>
</a>
</g>
</g>
<!-- Node12&#45;&gt;Node15 -->
<g id="edge29_Node000012_Node000015" class="edge">
<title>Node12&#45;&gt;Node15</title>
<g id="a_edge29_Node000012_Node000015"><a xlink:title=" ">
<path fill="none" stroke="#63b8ff" d="M1176.4,-537.02C1120.26,-537.18 1033.49,-537.82 958.25,-540 806.3,-544.41 628.96,-553.75 529.18,-559.39"/>
<polygon fill="#63b8ff" stroke="#63b8ff" points="1176.4,-540.52 1186.39,-536.99 1176.38,-533.52 1176.4,-540.52"/>
</a>
</g>
</g>
<!-- Node16 -->
<g id="Node000016" class="node">
<title>Node16</title>
<g id="a_Node000016"><a xlink:href="namespaceImGui.html#a8c2ed9f140c90d8eaca1e2cfd8f46142" target="_top" xlink:title=" ">
<polygon fill="white" stroke="#666666" points="734.5,-621.38 564.75,-621.38 564.75,-600.62 734.5,-600.62 734.5,-621.38"/>
<text text-anchor="middle" x="649.62" y="-607.88" font-family="Helvetica,sans-Serif" font-size="10.00">ImGui::DebugNodeWindowsList</text>
</a>
</g>
</g>
<!-- Node12&#45;&gt;Node16 -->
<g id="edge52_Node000012_Node000016" class="edge">
<title>Node12&#45;&gt;Node16</title>
<g id="a_edge52_Node000012_Node000016"><a xlink:title=" ">
<path fill="none" stroke="#63b8ff" d="M1221.59,-556.81C1203.84,-580.17 1170.74,-617.73 1131.75,-633 974.67,-694.52 766.36,-645.41 685.12,-621.83"/>
<polygon fill="#63b8ff" stroke="#63b8ff" points="1224.23,-559.13 1227.33,-549 1218.59,-554.99 1224.23,-559.13"/>
</a>
</g>
</g>
<!-- Node17 -->
<g id="Node000017" class="node">
<title>Node17</title>
<g id="a_Node000017"><a xlink:href="namespaceImGui.html#af7b5e35566da44ac1ea8a7e1b9d9d574" target="_top" xlink:title=" ">
<polygon fill="white" stroke="#666666" points="1120.5,-395.38 969.5,-395.38 969.5,-374.62 1120.5,-374.62 1120.5,-395.38"/>
<text text-anchor="middle" x="1045" y="-381.88" font-family="Helvetica,sans-Serif" font-size="10.00">ImGui::DebugNodeDrawList</text>
</a>
</g>
</g>
<!-- Node12&#45;&gt;Node17 -->
<g id="edge30_Node000012_Node000017" class="edge">
<title>Node12&#45;&gt;Node17</title>
<g id="a_edge30_Node000012_Node000017"><a xlink:title=" ">
<path fill="none" stroke="#63b8ff" d="M1224.39,-516.49C1207.93,-488.05 1174.36,-436.99 1131.75,-409 1123.22,-403.4 1113.39,-399.09 1103.5,-395.78"/>
<polygon fill="#63b8ff" stroke="#63b8ff" points="1221.15,-517.87 1229.1,-524.87 1227.25,-514.44 1221.15,-517.87"/>
</a>
</g>
</g>
<!-- Node18 -->
<g id="Node000018" class="node">
<title>Node18</title>
<g id="a_Node000018"><a xlink:href="namespaceImGui.html#aa5e5f50f28c04a26264c0943c7281171" target="_top" xlink:title=" ">
<polygon fill="white" stroke="#666666" points="922.25,-395.38 770.5,-395.38 770.5,-374.62 922.25,-374.62 922.25,-395.38"/>
<text text-anchor="middle" x="846.38" y="-381.88" font-family="Helvetica,sans-Serif" font-size="10.00">ImGui::DebugNodeViewport</text>
</a>
</g>
</g>
<!-- Node12&#45;&gt;Node18 -->
<g id="edge50_Node000012_Node000018" class="edge">
<title>Node12&#45;&gt;Node18</title>
<g id="a_edge50_Node000012_Node000018"><a xlink:title=" ">
<path fill="none" stroke="#63b8ff" d="M1229.9,-515.45C1218.67,-477.21 1189.36,-398.43 1131.75,-366 1093.97,-344.73 974.65,-361.49 903.13,-374.17"/>
<polygon fill="#63b8ff" stroke="#63b8ff" points="1226.47,-516.18 1232.52,-524.88 1233.22,-514.31 1226.47,-516.18"/>
</a>
</g>
</g>
<!-- Node19 -->
<g id="Node000019" class="node">
<title>Node19</title>
<g id="a_Node000019"><a xlink:href="namespaceImGui.html#ae0207d60728f7e6a47dbcd1d7d84e3cb" target="_top" xlink:title=" ">
<polygon fill="white" stroke="#666666" points="1109.62,-471.38 980.38,-471.38 980.38,-450.62 1109.62,-450.62 1109.62,-471.38"/>
<text text-anchor="middle" x="1045" y="-457.88" font-family="Helvetica,sans-Serif" font-size="10.00">ImGui::DebugNodeFont</text>
</a>
</g>
</g>
<!-- Node12&#45;&gt;Node19 -->
<g id="edge35_Node000012_Node000019" class="edge">
<title>Node12&#45;&gt;Node19</title>
<g id="a_edge35_Node000012_Node000019"><a xlink:title=" ">
<path fill="none" stroke="#63b8ff" d="M1206.95,-520.83C1186.48,-509.69 1158,-495.14 1131.75,-485 1118.77,-479.98 1104.32,-475.53 1091.04,-471.86"/>
<polygon fill="#63b8ff" stroke="#63b8ff" points="1205.1,-523.8 1215.55,-525.56 1208.48,-517.67 1205.1,-523.8"/>
</a>
</g>
</g>
<!-- Node20 -->
<g id="Node000020" class="node">
<title>Node20</title>
<g id="a_Node000020"><a xlink:href="namespaceImGui.html#acab51ec2b39577845309f24535381038" target="_top" xlink:title=" ">
<polygon fill="white" stroke="#666666" points="908,-471.38 784.75,-471.38 784.75,-450.62 908,-450.62 908,-471.38"/>
<text text-anchor="middle" x="846.38" y="-457.88" font-family="Helvetica,sans-Serif" font-size="10.00">ImGui::ShowFontAtlas</text>
</a>
</g>
</g>
<!-- Node12&#45;&gt;Node20 -->
<g id="edge54_Node000012_Node000020" class="edge">
<title>Node12&#45;&gt;Node20</title>
<g id="a_edge54_Node000012_Node000020"><a xlink:title=" ">
<path fill="none" stroke="#63b8ff" d="M1221.54,-517.39C1203.74,-494.27 1170.59,-457.1 1131.75,-442 1045.74,-408.57 934.12,-433.93 879.85,-450.17"/>
<polygon fill="#63b8ff" stroke="#63b8ff" points="1218.51,-519.18 1227.29,-525.11 1224.13,-515 1218.51,-519.18"/>
</a>
</g>
</g>
<!-- Node22 -->
<g id="Node000022" class="node">
<title>Node22</title>
<g id="a_Node000022"><a xlink:href="namespaceImGui.html#a8e1aae1a79042976013f36d7f2e7ee70" target="_top" xlink:title=" ">
<polygon fill="white" stroke="#666666" points="1117.88,-624.38 972.12,-624.38 972.12,-603.62 1117.88,-603.62 1117.88,-624.38"/>
<text text-anchor="middle" x="1045" y="-610.88" font-family="Helvetica,sans-Serif" font-size="10.00">ImGui::DebugNodeStorage</text>
</a>
</g>
</g>
<!-- Node12&#45;&gt;Node22 -->
<g id="edge40_Node000012_Node000022" class="edge">
<title>Node12&#45;&gt;Node22</title>
<g id="a_edge40_Node000012_Node000022"><a xlink:title=" ">
<path fill="none" stroke="#63b8ff" d="M1209.78,-553.73C1189.34,-566.37 1159.66,-583.31 1131.75,-594 1122.47,-597.55 1112.38,-600.59 1102.48,-603.15"/>
<polygon fill="#63b8ff" stroke="#63b8ff" points="1211.41,-556.84 1218.01,-548.55 1207.68,-550.92 1211.41,-556.84"/>
</a>
</g>
</g>
<!-- Node23 -->
<g id="Node000023" class="node">
<title>Node23</title>
<g id="a_Node000023"><a xlink:href="namespaceImGui.html#ac5f1a2b50c26c83d3df78d94e95f0bd0" target="_top" xlink:title=" ">
<polygon fill="white" stroke="#666666" points="720.25,-668.38 579,-668.38 579,-647.62 720.25,-647.62 720.25,-668.38"/>
<text text-anchor="middle" x="649.62" y="-654.88" font-family="Helvetica,sans-Serif" font-size="10.00">ImGui::DebugNodeTabBar</text>
</a>
</g>
</g>
<!-- Node12&#45;&gt;Node23 -->
<g id="edge42_Node000012_Node000023" class="edge">
<title>Node12&#45;&gt;Node23</title>
<g id="a_edge42_Node000012_Node000023"><a xlink:title=" ">
<path fill="none" stroke="#63b8ff" d="M1225.56,-557.63C1210.14,-587 1177.39,-639.77 1131.75,-662 981.19,-735.35 771.34,-691.35 687.43,-668.83"/>
<polygon fill="#63b8ff" stroke="#63b8ff" points="1228.55,-559.49 1229.94,-548.98 1222.3,-556.33 1228.55,-559.49"/>
</a>
</g>
</g>
<!-- Node24 -->
<g id="Node000024" class="node">
<title>Node24</title>
<g id="a_Node000024"><a xlink:href="namespaceImGui.html#ae944ffc599add73d6f3220165475ffd8" target="_top" xlink:title=" ">
<polygon fill="white" stroke="#666666" points="913.25,-852.38 779.5,-852.38 779.5,-831.62 913.25,-831.62 913.25,-852.38"/>
<text text-anchor="middle" x="846.38" y="-838.88" font-family="Helvetica,sans-Serif" font-size="10.00">ImGui::DebugNodeTable</text>
</a>
</g>
</g>
<!-- Node12&#45;&gt;Node24 -->
<g id="edge45_Node000012_Node000024" class="edge">
<title>Node12&#45;&gt;Node24</title>
<g id="a_edge45_Node000012_Node000024"><a xlink:title=" ">
<path fill="none" stroke="#63b8ff" d="M1235.08,-559.11C1232.7,-614.24 1218.12,-758.05 1131.75,-823 1061.95,-875.49 953.22,-864.63 892.42,-852.83"/>
<polygon fill="#63b8ff" stroke="#63b8ff" points="1238.57,-559.26 1235.4,-549.15 1231.58,-559.04 1238.57,-559.26"/>
</a>
</g>
</g>
<!-- Node25 -->
<g id="Node000025" class="node">
<title>Node25</title>
<g id="a_Node000025"><a xlink:href="namespaceImGui.html#a476f5fea6e50fae946a366567da7f89f" target="_top" xlink:title=" ">
<polygon fill="white" stroke="#666666" points="1131.75,-814.38 958.25,-814.38 958.25,-793.62 1131.75,-793.62 1131.75,-814.38"/>
<text text-anchor="middle" x="1045" y="-800.88" font-family="Helvetica,sans-Serif" font-size="10.00">ImGui::DebugNodeTableSettings</text>
</a>
</g>
</g>
<!-- Node12&#45;&gt;Node25 -->
<g id="edge47_Node000012_Node000025" class="edge">
<title>Node12&#45;&gt;Node25</title>
<g id="a_edge47_Node000012_Node000025"><a xlink:title=" ">
<path fill="none" stroke="#63b8ff" d="M1228.45,-558.59C1214.7,-598.26 1181.27,-683.99 1131.75,-742 1113.02,-763.94 1085.01,-782.29 1066.15,-793.2"/>
<polygon fill="#63b8ff" stroke="#63b8ff" points="1231.71,-559.87 1231.59,-549.28 1225.08,-557.63 1231.71,-559.87"/>
</a>
</g>
</g>
<!-- Node13&#45;&gt;Node14 -->
<g id="edge18_Node000013_Node000014" class="edge">
<title>Node13&#45;&gt;Node14</title>
<g id="a_edge18_Node000013_Node000014"><a xlink:title=" ">
<path fill="none" stroke="#63b8ff" d="M957.77,-572.37C945.31,-571.99 932.6,-571.6 920.44,-571.23"/>
<polygon fill="#63b8ff" stroke="#63b8ff" points="957.49,-575.86 967.59,-572.67 957.7,-568.86 957.49,-575.86"/>
</a>
</g>
</g>
<!-- Node14&#45;&gt;Node2 -->
<g id="edge28_Node000014_Node000002" class="edge">
<title>Node14&#45;&gt;Node2</title>
<g id="a_edge28_Node000014_Node000002"><a xlink:title=" ">
<path fill="none" stroke="#63b8ff" d="M827.14,-588.11C805.69,-610.27 768.65,-647.53 734.5,-677 715.09,-693.75 691.82,-711.32 674.72,-723.81"/>
<polygon fill="#63b8ff" stroke="#63b8ff" points="829.61,-590.59 834.03,-580.96 824.57,-585.73 829.61,-590.59"/>
</a>
</g>
</g>
<!-- Node14&#45;&gt;Node14 -->
<g id="edge23_Node000014_Node000014" class="edge">
<title>Node14&#45;&gt;Node14</title>
<g id="a_edge23_Node000014_Node000014"><a xlink:title=" ">
<path fill="none" stroke="#63b8ff" d="M881,-590.86C876.41,-594.7 864.87,-597.38 846.38,-597.38 812.56,-597.38 801.99,-588.43 814.67,-579.77"/>
<polygon fill="#63b8ff" stroke="#63b8ff" points="884.39,-590.02 878.46,-581.24 877.62,-591.8 884.39,-590.02"/>
</a>
</g>
</g>
<!-- Node14&#45;&gt;Node15 -->
<g id="edge19_Node000014_Node000015" class="edge">
<title>Node14&#45;&gt;Node15</title>
<g id="a_edge19_Node000014_Node000015"><a xlink:title=" ">
<path fill="none" stroke="#63b8ff" d="M761.28,-562.29C692.58,-559.91 596.2,-558.73 529.05,-559.48"/>
<polygon fill="#63b8ff" stroke="#63b8ff" points="760.85,-565.78 770.98,-562.65 761.11,-558.78 760.85,-565.78"/>
</a>
</g>
</g>
<!-- Node14&#45;&gt;Node16 -->
<g id="edge24_Node000014_Node000016" class="edge">
<title>Node14&#45;&gt;Node16</title>
<g id="a_edge24_Node000014_Node000016"><a xlink:title=" ">
<path fill="none" stroke="#63b8ff" d="M761.02,-580.5C731.32,-586.65 699.98,-594.02 678.31,-600.14"/>
<polygon fill="#63b8ff" stroke="#63b8ff" points="761.72,-583.93 770.82,-578.5 760.32,-577.07 761.72,-583.93"/>
</a>
</g>
</g>
<!-- Node15&#45;&gt;Node3 -->
<g id="edge22_Node000015_Node000003" class="edge">
<title>Node15&#45;&gt;Node3</title>
<g id="a_edge22_Node000015_Node000003"><a xlink:title=" ">
<path fill="none" stroke="#63b8ff" d="M411.05,-578.82C374.33,-593.35 319.22,-615.17 286.41,-628.15"/>
<polygon fill="#63b8ff" stroke="#63b8ff" points="411.93,-582.24 419.94,-575.3 409.36,-575.73 411.93,-582.24"/>
</a>
</g>
</g>
<!-- Node15&#45;&gt;Node14 -->
<g id="edge21_Node000015_Node000014" class="edge">
<title>Node15&#45;&gt;Node14</title>
<g id="a_edge21_Node000015_Node000014"><a xlink:title=" ">
<path fill="none" stroke="#63b8ff" d="M540.53,-570.91C610.76,-573.23 707.05,-574.31 772.49,-573.45"/>
<polygon fill="#63b8ff" stroke="#63b8ff" points="540.68,-567.41 530.56,-570.56 540.44,-574.41 540.68,-567.41"/>
</a>
</g>
</g>
<!-- Node15&#45;&gt;Node15 -->
<g id="edge20_Node000015_Node000015" class="edge">
<title>Node15&#45;&gt;Node15</title>
<g id="a_edge20_Node000015_Node000015"><a xlink:title=" ">
<path fill="none" stroke="#63b8ff" d="M483.2,-585.86C478.73,-589.7 467.5,-592.38 449.5,-592.38 416.59,-592.38 406.3,-583.43 418.64,-574.77"/>
<polygon fill="#63b8ff" stroke="#63b8ff" points="486.6,-585.06 480.73,-576.24 479.82,-586.79 486.6,-585.06"/>
</a>
</g>
</g>
<!-- Node16&#45;&gt;Node3 -->
<g id="edge27_Node000016_Node000003" class="edge">
<title>Node16&#45;&gt;Node3</title>
<g id="a_edge27_Node000016_Node000003"><a xlink:title=" ">
<path fill="none" stroke="#63b8ff" d="M553.11,-617.86C485.85,-622.7 397.04,-629.08 334.67,-633.56"/>
<polygon fill="#63b8ff" stroke="#63b8ff" points="553.33,-621.36 563.05,-617.15 552.83,-614.38 553.33,-621.36"/>
</a>
</g>
</g>
<!-- Node16&#45;&gt;Node14 -->
<g id="edge26_Node000016_Node000014" class="edge">
<title>Node16&#45;&gt;Node14</title>
<g id="a_edge26_Node000016_Node000014"><a xlink:title=" ">
<path fill="none" stroke="#63b8ff" d="M743.07,-597.8C770.36,-592.01 798.16,-585.39 817.89,-579.8"/>
<polygon fill="#63b8ff" stroke="#63b8ff" points="742.4,-594.37 733.33,-599.84 743.83,-601.22 742.4,-594.37"/>
</a>
</g>
</g>
<!-- Node16&#45;&gt;Node15 -->
<g id="edge25_Node000016_Node000015" class="edge">
<title>Node16&#45;&gt;Node15</title>
<g id="a_edge25_Node000016_Node000015"><a xlink:title=" ">
<path fill="none" stroke="#63b8ff" d="M592.28,-597.63C561.82,-590.41 524.7,-581.6 496.09,-574.81"/>
<polygon fill="#63b8ff" stroke="#63b8ff" points="591.16,-600.97 601.7,-599.87 592.78,-594.15 591.16,-600.97"/>
</a>
</g>
</g>
<!-- Node17&#45;&gt;Node3 -->
<g id="edge34_Node000017_Node000003" class="edge">
<title>Node17&#45;&gt;Node3</title>
<g id="a_edge34_Node000017_Node000003"><a xlink:title=" ">
<path fill="none" stroke="#63b8ff" d="M964.32,-397.56C950.31,-399.74 935.85,-401.95 922.25,-404 677.11,-440.89 582.09,-355.25 370.25,-484 311.37,-519.78 274.73,-599.74 263.06,-628.47"/>
<polygon fill="#63b8ff" stroke="#63b8ff" points="964.61,-401.06 973.95,-396.06 963.53,-394.14 964.61,-401.06"/>
</a>
</g>
</g>
<!-- Node17&#45;&gt;Node14 -->
<g id="edge33_Node000017_Node000014" class="edge">
<title>Node17&#45;&gt;Node14</title>
<g id="a_edge33_Node000017_Node000014"><a xlink:title=" ">
<path fill="none" stroke="#63b8ff" d="M1015.32,-401.4C997.98,-411.94 975.89,-426.53 958.25,-442 946.81,-452.03 880.76,-529.6 856.4,-558.34"/>
<polygon fill="#63b8ff" stroke="#63b8ff" points="1016.82,-404.58 1023.61,-396.45 1013.23,-398.57 1016.82,-404.58"/>
</a>
</g>
</g>
<!-- Node17&#45;&gt;Node18 -->
<g id="edge31_Node000017_Node000018" class="edge">
<title>Node17&#45;&gt;Node18</title>
<g id="a_edge31_Node000017_Node000018"><a xlink:title=" ">
<path fill="none" stroke="#63b8ff" d="M957.95,-385C946.21,-385 934.24,-385 922.71,-385"/>
<polygon fill="#63b8ff" stroke="#63b8ff" points="957.59,-388.5 967.59,-385 957.59,-381.5 957.59,-388.5"/>
</a>
</g>
</g>
<!-- Node18&#45;&gt;Node3 -->
<g id="edge32_Node000018_Node000003" class="edge">
<title>Node18&#45;&gt;Node3</title>
<g id="a_edge32_Node000018_Node000003"><a xlink:title=" ">
<path fill="none" stroke="#63b8ff" d="M792.75,-371.62C699.06,-351.02 500.93,-322.37 370.25,-409 290.02,-462.18 265.87,-590.46 260.37,-628.32"/>
<polygon fill="#63b8ff" stroke="#63b8ff" points="791.91,-375.02 802.44,-373.81 793.46,-368.19 791.91,-375.02"/>
</a>
</g>
</g>
<!-- Node19&#45;&gt;Node20 -->
<g id="edge36_Node000019_Node000020" class="edge">
<title>Node19&#45;&gt;Node20</title>
<g id="a_edge36_Node000019_Node000020"><a xlink:title=" ">
<path fill="none" stroke="#63b8ff" d="M968.38,-461C948.53,-461 927.37,-461 908.39,-461"/>
<polygon fill="#63b8ff" stroke="#63b8ff" points="968.38,-464.5 978.38,-461 968.38,-457.5 968.38,-464.5"/>
</a>
</g>
</g>
<!-- Node20&#45;&gt;Node3 -->
<g id="edge37_Node000020_Node000003" class="edge">
<title>Node20&#45;&gt;Node3</title>
<g id="a_edge37_Node000020_Node000003"><a xlink:title=" ">
<path fill="none" stroke="#63b8ff" d="M772.83,-459.76C675.37,-461.11 499.49,-474.33 370.25,-545 327.88,-568.17 286.8,-609.09 268.68,-628.38"/>
<polygon fill="#63b8ff" stroke="#63b8ff" points="772.84,-463.26 782.8,-459.67 772.77,-456.26 772.84,-463.26"/>
</a>
</g>
</g>
<!-- Node21 -->
<g id="Node000021" class="node">
<title>Node21</title>
<g id="a_Node000021"><a xlink:href="namespaceImGui.html#ab2eb3dec78d054fe3feab1c091ec5de5" target="_top" xlink:title=" ">
<polygon fill="white" stroke="#666666" points="715,-319.38 584.25,-319.38 584.25,-298.62 715,-298.62 715,-319.38"/>
<text text-anchor="middle" x="649.62" y="-305.88" font-family="Helvetica,sans-Serif" font-size="10.00">ImGui::ShowStyleEditor</text>
</a>
</g>
</g>
<!-- Node20&#45;&gt;Node21 -->
<g id="edge38_Node000020_Node000021" class="edge">
<title>Node20&#45;&gt;Node21</title>
<g id="a_edge38_Node000020_Node000021"><a xlink:title=" ">
<path fill="none" stroke="#63b8ff" d="M821.98,-443.37C807.17,-432.17 787.65,-417.32 770.5,-404 731.49,-373.7 685.89,-337.28 663.86,-319.63"/>
<polygon fill="#63b8ff" stroke="#63b8ff" points="819.66,-446.01 829.75,-449.24 823.88,-440.42 819.66,-446.01"/>
</a>
</g>
</g>
<!-- Node21&#45;&gt;Node4 -->
<g id="edge39_Node000021_Node000004" class="edge">
<title>Node21&#45;&gt;Node4</title>
<g id="a_edge39_Node000021_Node000004"><a xlink:title=" ">
<path fill="none" stroke="#63b8ff" d="M572.4,-307.81C515.65,-308.77 436.81,-314.06 370.25,-333 255.43,-365.68 132.52,-443.58 89.67,-472.21"/>
<polygon fill="#63b8ff" stroke="#63b8ff" points="572.33,-311.31 582.29,-307.69 572.25,-304.31 572.33,-311.31"/>
</a>
</g>
</g>
<!-- Node22&#45;&gt;Node14 -->
<g id="edge41_Node000022_Node000014" class="edge">
<title>Node22&#45;&gt;Node14</title>
<g id="a_edge41_Node000022_Node000014"><a xlink:title=" ">
<path fill="none" stroke="#63b8ff" d="M985.68,-600.65C956.69,-594.02 922.1,-586.1 894.77,-579.85"/>
<polygon fill="#63b8ff" stroke="#63b8ff" points="984.9,-604.06 995.43,-602.88 986.46,-597.24 984.9,-604.06"/>
</a>
</g>
</g>
<!-- Node23&#45;&gt;Node3 -->
<g id="edge44_Node000023_Node000003" class="edge">
<title>Node23&#45;&gt;Node3</title>
<g id="a_edge44_Node000023_Node000003"><a xlink:title=" ">
<path fill="none" stroke="#63b8ff" d="M567.35,-654.04C498.79,-650.69 401.41,-645.94 334.53,-642.68"/>
<polygon fill="#63b8ff" stroke="#63b8ff" points="566.85,-657.52 577.01,-654.51 567.19,-650.52 566.85,-657.52"/>
</a>
</g>
</g>
<!-- Node23&#45;&gt;Node15 -->
<g id="edge43_Node000023_Node000015" class="edge">
<title>Node23&#45;&gt;Node15</title>
<g id="a_edge43_Node000023_Node000015"><a xlink:title=" ">
<path fill="none" stroke="#63b8ff" d="M600.25,-643.7C588.46,-639.71 576,-635.07 564.75,-630 528.2,-613.54 488.23,-588.74 466.6,-574.7"/>
<polygon fill="#63b8ff" stroke="#63b8ff" points="598.82,-646.91 609.41,-646.7 601,-640.26 598.82,-646.91"/>
</a>
</g>
</g>
<!-- Node24&#45;&gt;Node3 -->
<g id="edge46_Node000024_Node000003" class="edge">
<title>Node24&#45;&gt;Node3</title>
<g id="a_edge46_Node000024_Node000003"><a xlink:title=" ">
<path fill="none" stroke="#63b8ff" d="M767.68,-846.61C650.52,-852.14 435.41,-856.4 370.25,-818 303.42,-778.61 270.98,-681.7 261.81,-649.56"/>
<polygon fill="#63b8ff" stroke="#63b8ff" points="767.72,-850.11 777.53,-846.12 767.38,-843.12 767.72,-850.11"/>
</a>
</g>
</g>
<!-- Node25&#45;&gt;Node3 -->
<g id="edge49_Node000025_Node000003" class="edge">
<title>Node25&#45;&gt;Node3</title>
<g id="a_edge49_Node000025_Node000003"><a xlink:title=" ">
<path fill="none" stroke="#63b8ff" d="M946.58,-805.61C849.41,-805.93 696.09,-802.96 564.75,-785 476.74,-772.96 448.95,-780.19 370.25,-739 325.61,-715.64 284.74,-670.25 267.56,-649.64"/>
<polygon fill="#63b8ff" stroke="#63b8ff" points="946.36,-809.11 956.34,-805.56 946.33,-802.11 946.36,-809.11"/>
</a>
</g>
</g>
<!-- Node25&#45;&gt;Node24 -->
<g id="edge48_Node000025_Node000024" class="edge">
<title>Node25&#45;&gt;Node24</title>
<g id="a_edge48_Node000025_Node000024"><a xlink:title=" ">
<path fill="none" stroke="#63b8ff" d="M976.81,-816.98C952.96,-821.6 926.37,-826.73 903.53,-831.15"/>
<polygon fill="#63b8ff" stroke="#63b8ff" points="977.28,-820.46 986.43,-815.13 975.95,-813.59 977.28,-820.46"/>
</a>
</g>
</g>
<!-- Node26&#45;&gt;Node14 -->
<g id="edge58_Node000026_Node000014" class="edge">
<title>Node26&#45;&gt;Node14</title>
<g id="a_edge58_Node000026_Node000014"><a xlink:title=" ">
<path fill="none" stroke="#63b8ff" d="M1009.27,-324.97C991.74,-334.61 971.46,-348.45 958.25,-366 926.31,-408.46 947.85,-433.44 922.25,-480 904.84,-511.67 875.17,-542.57 858.9,-558.28"/>
<polygon fill="#63b8ff" stroke="#63b8ff" points="1010.61,-328.22 1017.85,-320.48 1007.37,-322.01 1010.61,-328.22"/>
</a>
</g>
</g>
<!-- Node26&#45;&gt;Node15 -->
<g id="edge57_Node000026_Node000015" class="edge">
<title>Node26&#45;&gt;Node15</title>
<g id="a_edge57_Node000026_Node000015"><a xlink:title=" ">
<path fill="none" stroke="#63b8ff" d="M978.87,-316.62C922.39,-324.62 839.17,-339.77 770.5,-366 671.82,-403.7 653.99,-428.47 564.75,-485 528.28,-508.1 486.96,-537.52 465.39,-553.13"/>
<polygon fill="#63b8ff" stroke="#63b8ff" points="979.22,-320.11 988.64,-315.28 978.26,-313.17 979.22,-320.11"/>
</a>
</g>
</g>
<!-- Node26&#45;&gt;Node21 -->
<g id="edge59_Node000026_Node000021" class="edge">
<title>Node26&#45;&gt;Node21</title>
<g id="a_edge59_Node000026_Node000021"><a xlink:title=" ">
<path fill="none" stroke="#63b8ff" d="M978.8,-309C905.76,-309 788.08,-309 715.27,-309"/>
<polygon fill="#63b8ff" stroke="#63b8ff" points="978.61,-312.5 988.61,-309 978.61,-305.5 978.61,-312.5"/>
</a>
</g>
</g>
<!-- Node28 -->
<g id="Node000028" class="node">
<title>Node28</title>
<g id="a_Node000028"><a xlink:href="namespaceImGui.html#a6e6e4de20291002430854cbd8cd58843" target="_top" xlink:title=" ">
<polygon fill="white" stroke="#666666" points="1093.5,-165.38 996.5,-165.38 996.5,-144.62 1093.5,-144.62 1093.5,-165.38"/>
<text text-anchor="middle" x="1045" y="-151.88" font-family="Helvetica,sans-Serif" font-size="10.00">ImGui::TreeNode</text>
</a>
</g>
</g>
<!-- Node27&#45;&gt;Node28 -->
<g id="edge61_Node000027_Node000028" class="edge">
<title>Node27&#45;&gt;Node28</title>
<g id="a_edge61_Node000027_Node000028"><a xlink:title=" ">
<path fill="none" stroke="#63b8ff" d="M1166.85,-167.12C1142.67,-164.69 1116.03,-162.02 1093.92,-159.8"/>
<polygon fill="#63b8ff" stroke="#63b8ff" points="1166.32,-170.58 1176.62,-168.1 1167.02,-163.62 1166.32,-170.58"/>
</a>
</g>
</g>
<!-- Node29 -->
<g id="Node000029" class="node">
<title>Node29</title>
<g id="a_Node000029"><a xlink:href="namespaceImGui.html#a47f1421323f90fdd0a9cbfea2338b10f" target="_top" xlink:title=" ">
<polygon fill="white" stroke="#666666" points="1093.5,-126.38 996.5,-126.38 996.5,-105.62 1093.5,-105.62 1093.5,-126.38"/>
<text text-anchor="middle" x="1045" y="-112.88" font-family="Helvetica,sans-Serif" font-size="10.00">ImGui::TreeNode</text>
</a>
</g>
</g>
<!-- Node27&#45;&gt;Node29 -->
<g id="edge62_Node000027_Node000029" class="edge">
<title>Node27&#45;&gt;Node29</title>
<g id="a_edge62_Node000027_Node000029"><a xlink:title=" ">
<path fill="none" stroke="#63b8ff" d="M1184.01,-159.84C1178.48,-158.01 1172.96,-156.05 1167.75,-154 1151.11,-147.44 1148.58,-142.07 1131.75,-136 1119.67,-131.64 1106.29,-127.99 1093.75,-125.05"/>
<polygon fill="#63b8ff" stroke="#63b8ff" points="1182.59,-163.06 1193.18,-162.74 1184.7,-156.39 1182.59,-163.06"/>
</a>
</g>
</g>
<!-- Node30 -->
<g id="Node000030" class="node">
<title>Node30</title>
<g id="a_Node000030"><a xlink:href="namespaceImGui.html#a9ca2fae922b38cfddc3259f874c18a5d" target="_top" xlink:title=" ">
<polygon fill="white" stroke="#666666" points="1099.5,-87.38 990.5,-87.38 990.5,-66.62 1099.5,-66.62 1099.5,-87.38"/>
<text text-anchor="middle" x="1045" y="-73.88" font-family="Helvetica,sans-Serif" font-size="10.00">ImGui::TreeNodeEx</text>
</a>
</g>
</g>
<!-- Node27&#45;&gt;Node30 -->
<g id="edge63_Node000027_Node000030" class="edge">
<title>Node27&#45;&gt;Node30</title>
<g id="a_edge63_Node000027_Node000030"><a xlink:title=" ">
<path fill="none" stroke="#63b8ff" d="M1173.76,-158.03C1171.67,-156.78 1169.66,-155.44 1167.75,-154 1143.85,-135.93 1156.17,-114.37 1131.75,-97 1122.41,-90.35 1111.18,-85.89 1099.97,-82.89"/>
<polygon fill="#63b8ff" stroke="#63b8ff" points="1172.14,-161.13 1182.64,-162.49 1175.28,-154.87 1172.14,-161.13"/>
</a>
</g>
</g>
<!-- Node31 -->
<g id="Node000031" class="node">
<title>Node31</title>
<g id="a_Node000031"><a xlink:href="namespaceImGui.html#adce362ad94baa9b00f5914cbcab00452" target="_top" xlink:title=" ">
<polygon fill="white" stroke="#666666" points="1099.5,-48.38 990.5,-48.38 990.5,-27.62 1099.5,-27.62 1099.5,-48.38"/>
<text text-anchor="middle" x="1045" y="-34.88" font-family="Helvetica,sans-Serif" font-size="10.00">ImGui::TreeNodeEx</text>
</a>
</g>
</g>
<!-- Node27&#45;&gt;Node31 -->
<g id="edge64_Node000027_Node000031" class="edge">
<title>Node27&#45;&gt;Node31</title>
<g id="a_edge64_Node000027_Node000031"><a xlink:title=" ">
<path fill="none" stroke="#63b8ff" d="M1171.63,-157.25C1170.28,-156.23 1168.98,-155.15 1167.75,-154 1134.39,-122.95 1165.99,-88.07 1131.75,-58 1122.79,-50.13 1111.33,-45.2 1099.72,-42.15"/>
<polygon fill="#63b8ff" stroke="#63b8ff" points="1169.55,-160.08 1179.9,-162.34 1173.22,-154.12 1169.55,-160.08"/>
</a>
</g>
</g>
<!-- Node32 -->
<g id="Node000032" class="node">
<title>Node32</title>
<g id="a_Node000032"><a xlink:href="namespaceImGui.html#a9bc1075c583973d76d8d65ea89787453" target="_top" xlink:title=" ">
<polygon fill="white" stroke="#666666" points="1096.88,-243.38 993.12,-243.38 993.12,-222.62 1096.88,-222.62 1096.88,-243.38"/>
<text text-anchor="middle" x="1045" y="-229.88" font-family="Helvetica,sans-Serif" font-size="10.00">ImGui::TreeNodeV</text>
</a>
</g>
</g>
<!-- Node27&#45;&gt;Node32 -->
<g id="edge65_Node000027_Node000032" class="edge">
<title>Node27&#45;&gt;Node32</title>
<g id="a_edge65_Node000027_Node000032"><a xlink:title=" ">
<path fill="none" stroke="#63b8ff" d="M1199.15,-189C1179.42,-196.79 1154.48,-206.11 1131.75,-213 1120.63,-216.37 1108.56,-219.5 1097.07,-222.24"/>
<polygon fill="#63b8ff" stroke="#63b8ff" points="1200.42,-192.25 1208.41,-185.29 1197.82,-185.76 1200.42,-192.25"/>
</a>
</g>
</g>
<!-- Node33 -->
<g id="Node000033" class="node">
<title>Node33</title>
<g id="a_Node000033"><a xlink:href="namespaceImGui.html#a15320f61ba6b4916af3323bf7844602e" target="_top" xlink:title=" ">
<polygon fill="white" stroke="#666666" points="1096.88,-204.38 993.12,-204.38 993.12,-183.62 1096.88,-183.62 1096.88,-204.38"/>
<text text-anchor="middle" x="1045" y="-190.88" font-family="Helvetica,sans-Serif" font-size="10.00">ImGui::TreeNodeV</text>
</a>
</g>
</g>
<!-- Node27&#45;&gt;Node33 -->
<g id="edge66_Node000027_Node000033" class="edge">
<title>Node27&#45;&gt;Node33</title>
<g id="a_edge66_Node000027_Node000033"><a xlink:title=" ">
<path fill="none" stroke="#63b8ff" d="M1166.69,-181.26C1143.68,-183.69 1118.47,-186.35 1097.06,-188.61"/>
<polygon fill="#63b8ff" stroke="#63b8ff" points="1167.05,-184.74 1176.62,-180.21 1166.31,-177.78 1167.05,-184.74"/>
</a>
</g>
</g>
</g>
</svg>

<g id="navigator" transform="translate(0 0)" fill="#404254">
  <rect fill="#f2f5e9" fill-opacity="0.5" stroke="#606060" stroke-width=".5" x="0" y="0" width="60" height="60"/>
  <use id="zoomplus" xlink:href="#zoomPlus" x="17" y="9" onmousedown="handleZoom(evt,'in')"/>
  <use id="zoomminus" xlink:href="#zoomMin" x="42" y="9" onmousedown="handleZoom(evt,'out')"/>
  <use id="reset" xlink:href="#resetDef" x="30" y="36" onmousedown="handleReset()"/>
   <use id="arrowup" xlink:href="#arrowUp" x="0" y="0" onmousedown="handlePan(0,-1)"/>
  <use id="arrowright" xlink:href="#arrowRight" x="0" y="0" onmousedown="handlePan(1,0)"/>
  <use id="arrowdown" xlink:href="#arrowDown" x="0" y="0" onmousedown="handlePan(0,1)"/>
  <use id="arrowleft" xlink:href="#arrowLeft" x="0" y="0" onmousedown="handlePan(-1,0)"/>
</g>
<svg viewBox="0 0 15 15" width="100%" height="30px" preserveAspectRatio="xMaxYMin meet">
 <g id="arrow_out" transform="scale(0.3 0.3)">
  <a xlink:href="namespaceImGui_a6c7b9f2d60951462eeebad80154a8926_icgraph_org.svg" target="_base">
   <rect id="button" ry="5" rx="5" y="6" x="6" height="38" width="38"
        fill="#f2f5e9" fill-opacity="0.5" stroke="#606060" stroke-width="1.0"/>
   <path id="arrow"
     d="M 11.500037,31.436501 C 11.940474,20.09759 22.043105,11.32322 32.158766,21.979434 L 37.068811,17.246167 C 37.068811,17.246167 37.088388,32 37.088388,32 L 22.160133,31.978069 C 22.160133,31.978069 26.997745,27.140456 26.997745,27.140456 C 18.528582,18.264221 13.291696,25.230495 11.500037,31.436501 z"
     style="fill:#404040;"/>
  </a>
 </g>
</svg>

<style type='text/css'>
<![CDATA[
[data-mouse-over-selected='false'] { opacity: 0.7; }
[data-mouse-over-selected='true']  { opacity: 1.0; }
]]>
</style>
<script type="application/ecmascript"><![CDATA[
document.addEventListener('DOMContentLoaded', (event) => {
  highlightEdges();
  highlightAdjacentNodes();
});
]]></script>
</svg>
