<?xml version="1.0" encoding="UTF-8" standalone="no"?>
<!DOCTYPE svg PUBLIC "-//W3C//DTD SVG 1.1//EN"
 "http://www.w3.org/Graphics/SVG/1.1/DTD/svg11.dtd">
<!-- Generated by graphviz version 11.0.0 (20240428.1522)
 -->
<!-- Title: steppable::__internals::numUtils::isInteger Pages: 1 -->
<svg width="1239pt" height="957pt"
 viewBox="0.00 0.00 1239.00 956.50" xmlns="http://www.w3.org/2000/svg" xmlns:xlink="http://www.w3.org/1999/xlink">
<g id="graph0" class="graph" transform="scale(1 1) rotate(0) translate(4 952.5)">
<title>steppable::__internals::numUtils::isInteger</title>
<!-- Node1 -->
<g id="Node000001" class="node">
<title>Node1</title>
<g id="a_Node000001"><a xlink:title="Determines whether the number is an integer or not.">
<polygon fill="#999999" stroke="#666666" points="1231,-475.5 1107.75,-475.5 1107.75,-442 1231,-442 1231,-475.5"/>
<text text-anchor="start" x="1115.75" y="-462" font-family="Helvetica,sans-Serif" font-size="10.00">steppable::__internals</text>
<text text-anchor="middle" x="1169.38" y="-449.25" font-family="Helvetica,sans-Serif" font-size="10.00">::numUtils::isInteger</text>
</a>
</g>
</g>
<!-- Node2 -->
<g id="Node000002" class="node">
<title>Node2</title>
<g id="a_Node000002"><a xlink:href="namespacesteppable_1_1____internals_1_1numUtils.html#afa516a42a17fc99b2f9c04171ed1b4fe" target="_top" xlink:title="Determines whether the number is a decimal or not.">
<polygon fill="white" stroke="#666666" points="1047.38,-501.5 924.12,-501.5 924.12,-468 1047.38,-468 1047.38,-501.5"/>
<text text-anchor="start" x="932.12" y="-488" font-family="Helvetica,sans-Serif" font-size="10.00">steppable::__internals</text>
<text text-anchor="middle" x="985.75" y="-475.25" font-family="Helvetica,sans-Serif" font-size="10.00">::numUtils::isDecimal</text>
</a>
</g>
</g>
<!-- Node1&#45;&gt;Node2 -->
<g id="edge1_Node000001_Node000002" class="edge">
<title>Node1&#45;&gt;Node2</title>
<g id="a_edge1_Node000001_Node000002"><a xlink:title=" ">
<path fill="none" stroke="#63b8ff" d="M1096.37,-469.06C1080.21,-471.37 1063.22,-473.8 1047.57,-476.04"/>
<polygon fill="#63b8ff" stroke="#63b8ff" points="1096.49,-472.58 1105.89,-467.69 1095.5,-465.65 1096.49,-472.58"/>
</a>
</g>
</g>
<!-- Node3 -->
<g id="Node000003" class="node">
<title>Node3</title>
<g id="a_Node000003"><a xlink:href="namespacesteppable_1_1____internals_1_1numUtils.html#a2564d0f1e7f1bd71ad9c497cf72fc118" target="_top" xlink:title="Move the decimal places of a number.">
<polygon fill="white" stroke="#666666" points="1071.75,-449.5 899.75,-449.5 899.75,-416 1071.75,-416 1071.75,-449.5"/>
<text text-anchor="start" x="907.75" y="-436" font-family="Helvetica,sans-Serif" font-size="10.00">steppable::__internals</text>
<text text-anchor="middle" x="985.75" y="-423.25" font-family="Helvetica,sans-Serif" font-size="10.00">::numUtils::moveDecimalPlaces</text>
</a>
</g>
</g>
<!-- Node1&#45;&gt;Node3 -->
<g id="edge2_Node000001_Node000003" class="edge">
<title>Node1&#45;&gt;Node3</title>
<g id="a_edge2_Node000001_Node000003"><a xlink:title=" ">
<path fill="none" stroke="#63b8ff" d="M1096.04,-448.39C1088.17,-447.27 1080.11,-446.12 1072.11,-444.97"/>
<polygon fill="#63b8ff" stroke="#63b8ff" points="1095.5,-451.85 1105.89,-449.81 1096.49,-444.92 1095.5,-451.85"/>
</a>
</g>
</g>
<!-- Node4 -->
<g id="Node000004" class="node">
<title>Node4</title>
<g id="a_Node000004"><a xlink:href="namespacesteppable_1_1____internals_1_1arithmetic.html#a59c559ff2ec84dc1964531893a457c66" target="_top" xlink:title="Multiplies two string representations of numbers.">
<polygon fill="white" stroke="#666666" points="863.75,-449.5 740.5,-449.5 740.5,-416 863.75,-416 863.75,-449.5"/>
<text text-anchor="start" x="748.5" y="-436" font-family="Helvetica,sans-Serif" font-size="10.00">steppable::__internals</text>
<text text-anchor="middle" x="802.12" y="-423.25" font-family="Helvetica,sans-Serif" font-size="10.00">::arithmetic::multiply</text>
</a>
</g>
</g>
<!-- Node3&#45;&gt;Node4 -->
<g id="edge3_Node000003_Node000004" class="edge">
<title>Node3&#45;&gt;Node4</title>
<g id="a_edge3_Node000003_Node000004"><a xlink:title=" ">
<path fill="none" stroke="#63b8ff" d="M887.84,-432.75C879.78,-432.75 871.78,-432.75 864.1,-432.75"/>
<polygon fill="#63b8ff" stroke="#63b8ff" points="887.74,-436.25 897.74,-432.75 887.74,-429.25 887.74,-436.25"/>
</a>
</g>
</g>
<!-- Node5 -->
<g id="Node000005" class="node">
<title>Node5</title>
<g id="a_Node000005"><a xlink:href="namespacesteppable_1_1____internals_1_1arithmetic.html#a5b80b731e3e2c0d16dcbe5d52b08ffd5" target="_top" xlink:title="Converts a string representation of a number from decimal to another one.">
<polygon fill="white" stroke="#666666" points="307.25,-844.5 167.5,-844.5 167.5,-811 307.25,-811 307.25,-844.5"/>
<text text-anchor="start" x="175.5" y="-831" font-family="Helvetica,sans-Serif" font-size="10.00">steppable::__internals</text>
<text text-anchor="middle" x="237.38" y="-818.25" font-family="Helvetica,sans-Serif" font-size="10.00">::arithmetic::baseConvert</text>
</a>
</g>
</g>
<!-- Node4&#45;&gt;Node5 -->
<g id="edge4_Node000004_Node000005" class="edge">
<title>Node4&#45;&gt;Node5</title>
<g id="a_edge4_Node000004_Node000005"><a xlink:title=" ">
<path fill="none" stroke="#63b8ff" d="M797.38,-461.03C786.82,-536.33 754.23,-738.84 704.5,-780.75 592.55,-875.09 407.58,-860 307.63,-842.73"/>
<polygon fill="#63b8ff" stroke="#63b8ff" points="800.84,-461.57 798.74,-451.18 793.91,-460.61 800.84,-461.57"/>
</a>
</g>
</g>
<!-- Node6 -->
<g id="Node000006" class="node">
<title>Node6</title>
<g id="a_Node000006"><a xlink:href="namespacesteppable_1_1____internals_1_1arithmetic.html#afc4c4f319dadbb5b1ff481132f008374" target="_top" xlink:title="Converts a string representation of a number from any base to decimal.">
<polygon fill="white" stroke="#666666" points="689.5,-605.5 534,-605.5 534,-572 689.5,-572 689.5,-605.5"/>
<text text-anchor="start" x="542" y="-592" font-family="Helvetica,sans-Serif" font-size="10.00">steppable::__internals</text>
<text text-anchor="middle" x="611.75" y="-579.25" font-family="Helvetica,sans-Serif" font-size="10.00">::arithmetic::decimalConvert</text>
</a>
</g>
</g>
<!-- Node4&#45;&gt;Node6 -->
<g id="edge5_Node000004_Node000006" class="edge">
<title>Node4&#45;&gt;Node6</title>
<g id="a_edge5_Node000004_Node000006"><a xlink:title=" ">
<path fill="none" stroke="#63b8ff" d="M787.84,-460.01C772.02,-489.64 742.85,-536.3 704.5,-562.75 699.59,-566.13 694.25,-569.08 688.7,-571.65"/>
<polygon fill="#63b8ff" stroke="#63b8ff" points="790.88,-461.77 792.36,-451.28 784.66,-458.55 790.88,-461.77"/>
</a>
</g>
</g>
<!-- Node7 -->
<g id="Node000007" class="node">
<title>Node7</title>
<g id="a_Node000007"><a xlink:href="namespacesteppable_1_1____internals_1_1arithmetic.html#aa150ef39a272f7228ae239679247fab3" target="_top" xlink:title="Determines the scale of the quotient of division.">
<polygon fill="white" stroke="#666666" points="704.5,-771.5 519,-771.5 519,-738 704.5,-738 704.5,-771.5"/>
<text text-anchor="start" x="527" y="-758" font-family="Helvetica,sans-Serif" font-size="10.00">steppable::__internals</text>
<text text-anchor="middle" x="611.75" y="-745.25" font-family="Helvetica,sans-Serif" font-size="10.00">::arithmetic::determineResultScale</text>
</a>
</g>
</g>
<!-- Node4&#45;&gt;Node7 -->
<g id="edge6_Node000004_Node000007" class="edge">
<title>Node4&#45;&gt;Node7</title>
<g id="a_edge6_Node000004_Node000007"><a xlink:title=" ">
<path fill="none" stroke="#63b8ff" d="M799.79,-461.34C795.57,-518.97 777.95,-649.91 704.5,-723.75 698.93,-729.35 692.31,-733.94 685.21,-737.7"/>
<polygon fill="#63b8ff" stroke="#63b8ff" points="803.28,-461.6 800.43,-451.39 796.3,-461.15 803.28,-461.6"/>
</a>
</g>
</g>
<!-- Node8 -->
<g id="Node000008" class="node">
<title>Node8</title>
<g id="a_Node000008"><a xlink:href="namespacesteppable_1_1____internals_1_1arithmetic.html#a26194ae8ddb44afb942fbf8335ae1730" target="_top" xlink:title="Divides a string representation of a number by another string representation of a number.">
<polygon fill="white" stroke="#666666" points="483,-740.5 359.75,-740.5 359.75,-707 483,-707 483,-740.5"/>
<text text-anchor="start" x="367.75" y="-727" font-family="Helvetica,sans-Serif" font-size="10.00">steppable::__internals</text>
<text text-anchor="middle" x="421.38" y="-714.25" font-family="Helvetica,sans-Serif" font-size="10.00">::arithmetic::divide</text>
</a>
</g>
</g>
<!-- Node4&#45;&gt;Node8 -->
<g id="edge20_Node000004_Node000008" class="edge">
<title>Node4&#45;&gt;Node8</title>
<g id="a_edge20_Node000004_Node000008"><a xlink:title=" ">
<path fill="none" stroke="#63b8ff" d="M799.37,-460.96C794.42,-514.26 775.62,-629.41 704.5,-685.75 671.28,-712.06 555.95,-720.18 483.44,-722.66"/>
<polygon fill="#63b8ff" stroke="#63b8ff" points="802.84,-461.45 800.17,-451.2 795.87,-460.88 802.84,-461.45"/>
</a>
</g>
</g>
<!-- Node9 -->
<g id="Node000009" class="node">
<title>Node9</title>
<g id="a_Node000009"><a xlink:href="namespacesteppable_1_1____internals_1_1arithmetic.html#ac9102075acd398b3bdf388f6cc2ef978" target="_top" xlink:title=" ">
<polygon fill="white" stroke="#666666" points="323.75,-688.5 151,-688.5 151,-655 323.75,-655 323.75,-688.5"/>
<text text-anchor="start" x="159" y="-675" font-family="Helvetica,sans-Serif" font-size="10.00">steppable::__internals</text>
<text text-anchor="middle" x="237.38" y="-662.25" font-family="Helvetica,sans-Serif" font-size="10.00">::arithmetic::divideWithQuotient</text>
</a>
</g>
</g>
<!-- Node4&#45;&gt;Node9 -->
<g id="edge21_Node000004_Node000009" class="edge">
<title>Node4&#45;&gt;Node9</title>
<g id="a_edge21_Node000004_Node000009"><a xlink:title=" ">
<path fill="none" stroke="#63b8ff" d="M797.15,-461.24C789,-507.7 765.69,-598.78 704.5,-640.75 644.72,-681.75 441.17,-680.61 323.76,-676.18"/>
<polygon fill="#63b8ff" stroke="#63b8ff" points="800.59,-461.85 798.74,-451.42 793.69,-460.73 800.59,-461.85"/>
</a>
</g>
</g>
<!-- Node12 -->
<g id="Node000012" class="node">
<title>Node12</title>
<g id="a_Node000012"><a xlink:href="namespacesteppable_1_1____internals_1_1arithmetic.html#a8c20a75a55d968bd679a1a550a46a497" target="_top" xlink:title="Takes the n&#45;th root of a numer.">
<polygon fill="white" stroke="#666666" points="299,-636.5 175.75,-636.5 175.75,-603 299,-603 299,-636.5"/>
<text text-anchor="start" x="183.75" y="-623" font-family="Helvetica,sans-Serif" font-size="10.00">steppable::__internals</text>
<text text-anchor="middle" x="237.38" y="-610.25" font-family="Helvetica,sans-Serif" font-size="10.00">::arithmetic::root</text>
</a>
</g>
</g>
<!-- Node4&#45;&gt;Node12 -->
<g id="edge33_Node000004_Node000012" class="edge">
<title>Node4&#45;&gt;Node12</title>
<g id="a_edge33_Node000004_Node000012"><a xlink:title=" ">
<path fill="none" stroke="#63b8ff" d="M795.58,-460.8C785.61,-502.83 760.25,-580.82 704.5,-614.75 638.22,-655.09 409.72,-637.8 299.19,-626.59"/>
<polygon fill="#63b8ff" stroke="#63b8ff" points="798.96,-461.73 797.72,-451.2 792.13,-460.2 798.96,-461.73"/>
</a>
</g>
</g>
<!-- Node20 -->
<g id="Node000020" class="node">
<title>Node20</title>
<g id="a_Node000020"><a xlink:href="classsteppable_1_1Fraction.html#abb223edd73fc68820e151fac052d2fef" target="_top" xlink:title=" ">
<polygon fill="white" stroke="#666666" points="666.25,-553.5 557.25,-553.5 557.25,-520 666.25,-520 666.25,-553.5"/>
<text text-anchor="start" x="565.25" y="-540" font-family="Helvetica,sans-Serif" font-size="10.00">steppable::Fraction</text>
<text text-anchor="middle" x="611.75" y="-527.25" font-family="Helvetica,sans-Serif" font-size="10.00">::operator!=</text>
</a>
</g>
</g>
<!-- Node4&#45;&gt;Node20 -->
<g id="edge22_Node000004_Node000020" class="edge">
<title>Node4&#45;&gt;Node20</title>
<g id="a_edge22_Node000004_Node000020"><a xlink:title=" ">
<path fill="none" stroke="#63b8ff" d="M776.38,-457.47C757.96,-474.62 731.44,-496.8 704.5,-510.75 692.74,-516.84 679.37,-521.66 666.54,-525.41"/>
<polygon fill="#63b8ff" stroke="#63b8ff" points="778.56,-460.23 783.39,-450.8 773.74,-455.16 778.56,-460.23"/>
</a>
</g>
</g>
<!-- Node21 -->
<g id="Node000021" class="node">
<title>Node21</title>
<g id="a_Node000021"><a xlink:href="classsteppable_1_1Fraction.html#ab6f8e1e49b31aa3ddcc096eb1876dce3" target="_top" xlink:title="Multiplies two fractions together. This function does it by doing a simple fraction multiplication an...">
<polygon fill="white" stroke="#666666" points="666.25,-501.5 557.25,-501.5 557.25,-468 666.25,-468 666.25,-501.5"/>
<text text-anchor="start" x="565.25" y="-488" font-family="Helvetica,sans-Serif" font-size="10.00">steppable::Fraction</text>
<text text-anchor="middle" x="611.75" y="-475.25" font-family="Helvetica,sans-Serif" font-size="10.00">::operator*</text>
</a>
</g>
</g>
<!-- Node4&#45;&gt;Node21 -->
<g id="edge23_Node000004_Node000021" class="edge">
<title>Node4&#45;&gt;Node21</title>
<g id="a_edge23_Node000004_Node000021"><a xlink:title=" ">
<path fill="none" stroke="#63b8ff" d="M729.17,-452.61C708.34,-458.36 685.96,-464.54 666.46,-469.92"/>
<polygon fill="#63b8ff" stroke="#63b8ff" points="730.06,-456 738.77,-449.96 728.2,-449.25 730.06,-456"/>
</a>
</g>
</g>
<!-- Node22 -->
<g id="Node000022" class="node">
<title>Node22</title>
<g id="a_Node000022"><a xlink:href="classsteppable_1_1Number.html#a0430996b9851a38aadb19206718d7d91" target="_top" xlink:title="Multiplies two numbers.">
<polygon fill="white" stroke="#666666" points="669.25,-449.5 554.25,-449.5 554.25,-416 669.25,-416 669.25,-449.5"/>
<text text-anchor="start" x="562.25" y="-436" font-family="Helvetica,sans-Serif" font-size="10.00">steppable::Number::</text>
<text text-anchor="middle" x="611.75" y="-423.25" font-family="Helvetica,sans-Serif" font-size="10.00">operator*</text>
</a>
</g>
</g>
<!-- Node4&#45;&gt;Node22 -->
<g id="edge24_Node000004_Node000022" class="edge">
<title>Node4&#45;&gt;Node22</title>
<g id="a_edge24_Node000004_Node000022"><a xlink:title=" ">
<path fill="none" stroke="#63b8ff" d="M728.85,-432.75C709.22,-432.75 688.25,-432.75 669.6,-432.75"/>
<polygon fill="#63b8ff" stroke="#63b8ff" points="728.71,-436.25 738.71,-432.75 728.71,-429.25 728.71,-436.25"/>
</a>
</g>
</g>
<!-- Node23 -->
<g id="Node000023" class="node">
<title>Node23</title>
<g id="a_Node000023"><a xlink:href="classsteppable_1_1Fraction.html#a177374401a6d78045720bdf97db60055" target="_top" xlink:title="Adds two fractions together. This function does it by doing a simple fraction addition and returns th...">
<polygon fill="white" stroke="#666666" points="666.25,-397.5 557.25,-397.5 557.25,-364 666.25,-364 666.25,-397.5"/>
<text text-anchor="start" x="565.25" y="-384" font-family="Helvetica,sans-Serif" font-size="10.00">steppable::Fraction</text>
<text text-anchor="middle" x="611.75" y="-371.25" font-family="Helvetica,sans-Serif" font-size="10.00">::operator+</text>
</a>
</g>
</g>
<!-- Node4&#45;&gt;Node23 -->
<g id="edge25_Node000004_Node000023" class="edge">
<title>Node4&#45;&gt;Node23</title>
<g id="a_edge25_Node000004_Node000023"><a xlink:title=" ">
<path fill="none" stroke="#63b8ff" d="M729.17,-412.89C708.34,-407.14 685.96,-400.96 666.46,-395.58"/>
<polygon fill="#63b8ff" stroke="#63b8ff" points="728.2,-416.25 738.77,-415.54 730.06,-409.5 728.2,-416.25"/>
</a>
</g>
</g>
<!-- Node24 -->
<g id="Node000024" class="node">
<title>Node24</title>
<g id="a_Node000024"><a xlink:href="classsteppable_1_1Fraction.html#a0220c31296f34e81e58d3b57c1aefe62" target="_top" xlink:title="Subtracts a fraction from another fraction. This function does it by doing a simple fraction subtract...">
<polygon fill="white" stroke="#666666" points="666.25,-345.5 557.25,-345.5 557.25,-312 666.25,-312 666.25,-345.5"/>
<text text-anchor="start" x="565.25" y="-332" font-family="Helvetica,sans-Serif" font-size="10.00">steppable::Fraction</text>
<text text-anchor="middle" x="611.75" y="-319.25" font-family="Helvetica,sans-Serif" font-size="10.00">::operator&#45;</text>
</a>
</g>
</g>
<!-- Node4&#45;&gt;Node24 -->
<g id="edge26_Node000004_Node000024" class="edge">
<title>Node4&#45;&gt;Node24</title>
<g id="a_edge26_Node000004_Node000024"><a xlink:title=" ">
<path fill="none" stroke="#63b8ff" d="M776.38,-408.03C757.96,-390.88 731.44,-368.7 704.5,-354.75 692.74,-348.66 679.37,-343.84 666.54,-340.09"/>
<polygon fill="#63b8ff" stroke="#63b8ff" points="773.74,-410.34 783.39,-414.7 778.56,-405.27 773.74,-410.34"/>
</a>
</g>
</g>
<!-- Node25 -->
<g id="Node000025" class="node">
<title>Node25</title>
<g id="a_Node000025"><a xlink:href="classsteppable_1_1Fraction.html#aab6ff2672317acf3302bfb988cfb3c26" target="_top" xlink:title="Divides a fraction by abother fraction. This function does it by doing a simple fraction division (mu...">
<polygon fill="white" stroke="#666666" points="666.25,-293.5 557.25,-293.5 557.25,-260 666.25,-260 666.25,-293.5"/>
<text text-anchor="start" x="565.25" y="-280" font-family="Helvetica,sans-Serif" font-size="10.00">steppable::Fraction</text>
<text text-anchor="middle" x="611.75" y="-267.25" font-family="Helvetica,sans-Serif" font-size="10.00">::operator/</text>
</a>
</g>
</g>
<!-- Node4&#45;&gt;Node25 -->
<g id="edge27_Node000004_Node000025" class="edge">
<title>Node4&#45;&gt;Node25</title>
<g id="a_edge27_Node000004_Node000025"><a xlink:title=" ">
<path fill="none" stroke="#63b8ff" d="M787.84,-405.49C772.02,-375.86 742.85,-329.2 704.5,-302.75 693.19,-294.95 679.57,-289.47 666.32,-285.63"/>
<polygon fill="#63b8ff" stroke="#63b8ff" points="784.66,-406.95 792.36,-414.22 790.88,-403.73 784.66,-406.95"/>
</a>
</g>
</g>
<!-- Node26 -->
<g id="Node000026" class="node">
<title>Node26</title>
<g id="a_Node000026"><a xlink:href="classsteppable_1_1Fraction.html#a5f88141a1ecd042a1934ebbb6f2af612" target="_top" xlink:title="Compares two numbers for greater than.">
<polygon fill="white" stroke="#666666" points="666.25,-241.5 557.25,-241.5 557.25,-208 666.25,-208 666.25,-241.5"/>
<text text-anchor="start" x="565.25" y="-228" font-family="Helvetica,sans-Serif" font-size="10.00">steppable::Fraction</text>
<text text-anchor="middle" x="611.75" y="-215.25" font-family="Helvetica,sans-Serif" font-size="10.00">::operator&lt;</text>
</a>
</g>
</g>
<!-- Node4&#45;&gt;Node26 -->
<g id="edge28_Node000004_Node000026" class="edge">
<title>Node4&#45;&gt;Node26</title>
<g id="a_edge28_Node000004_Node000026"><a xlink:title=" ">
<path fill="none" stroke="#63b8ff" d="M793.83,-404.69C781.94,-364.55 754.53,-291.16 704.5,-250.75 693.68,-242.01 680.08,-236.21 666.7,-232.35"/>
<polygon fill="#63b8ff" stroke="#63b8ff" points="790.4,-405.41 796.49,-414.08 797.13,-403.51 790.4,-405.41"/>
</a>
</g>
</g>
<!-- Node27 -->
<g id="Node000027" class="node">
<title>Node27</title>
<g id="a_Node000027"><a xlink:href="classsteppable_1_1Fraction.html#a1eb79b99d24d94067e2adf2e65c9df9d" target="_top" xlink:title="Compare two fractions for less or equal than.">
<polygon fill="white" stroke="#666666" points="666.25,-189.5 557.25,-189.5 557.25,-156 666.25,-156 666.25,-189.5"/>
<text text-anchor="start" x="565.25" y="-176" font-family="Helvetica,sans-Serif" font-size="10.00">steppable::Fraction</text>
<text text-anchor="middle" x="611.75" y="-163.25" font-family="Helvetica,sans-Serif" font-size="10.00">::operator&lt;=</text>
</a>
</g>
</g>
<!-- Node4&#45;&gt;Node27 -->
<g id="edge29_Node000004_Node000027" class="edge">
<title>Node4&#45;&gt;Node27</title>
<g id="a_edge29_Node000004_Node000027"><a xlink:title=" ">
<path fill="none" stroke="#63b8ff" d="M797.48,-404.4C789.63,-355.2 766.53,-254 704.5,-198.75 693.87,-189.28 680.02,-183.24 666.33,-179.39"/>
<polygon fill="#63b8ff" stroke="#63b8ff" points="794.01,-404.85 798.94,-414.23 800.93,-403.82 794.01,-404.85"/>
</a>
</g>
</g>
<!-- Node28 -->
<g id="Node000028" class="node">
<title>Node28</title>
<g id="a_Node000028"><a xlink:href="classsteppable_1_1Fraction.html#ad943d28a7e9c4860a1f4abc25a68b83b" target="_top" xlink:title="Compares two numbers for equality.">
<polygon fill="white" stroke="#666666" points="666.25,-137.5 557.25,-137.5 557.25,-104 666.25,-104 666.25,-137.5"/>
<text text-anchor="start" x="565.25" y="-124" font-family="Helvetica,sans-Serif" font-size="10.00">steppable::Fraction</text>
<text text-anchor="middle" x="611.75" y="-111.25" font-family="Helvetica,sans-Serif" font-size="10.00">::operator==</text>
</a>
</g>
</g>
<!-- Node4&#45;&gt;Node28 -->
<g id="edge30_Node000004_Node000028" class="edge">
<title>Node4&#45;&gt;Node28</title>
<g id="a_edge30_Node000004_Node000028"><a xlink:title=" ">
<path fill="none" stroke="#63b8ff" d="M799.93,-404.34C795.96,-347.12 778.78,-217.43 704.5,-146.75 694.19,-136.94 680.45,-130.78 666.75,-126.93"/>
<polygon fill="#63b8ff" stroke="#63b8ff" points="796.43,-404.43 800.52,-414.2 803.42,-404.01 796.43,-404.43"/>
</a>
</g>
</g>
<!-- Node29 -->
<g id="Node000029" class="node">
<title>Node29</title>
<g id="a_Node000029"><a xlink:href="classsteppable_1_1Fraction.html#ac93887d285e9ffcb813a47600a2e7b0c" target="_top" xlink:title="Compare two fractions for less than.">
<polygon fill="white" stroke="#666666" points="666.25,-85.5 557.25,-85.5 557.25,-52 666.25,-52 666.25,-85.5"/>
<text text-anchor="start" x="565.25" y="-72" font-family="Helvetica,sans-Serif" font-size="10.00">steppable::Fraction</text>
<text text-anchor="middle" x="611.75" y="-59.25" font-family="Helvetica,sans-Serif" font-size="10.00">::operator&gt;</text>
</a>
</g>
</g>
<!-- Node4&#45;&gt;Node29 -->
<g id="edge31_Node000004_Node000029" class="edge">
<title>Node4&#45;&gt;Node29</title>
<g id="a_edge31_Node000004_Node000029"><a xlink:title=" ">
<path fill="none" stroke="#63b8ff" d="M801.68,-404.24C801.34,-339.67 791.16,-181.21 704.5,-94.75 694.3,-84.58 680.44,-78.32 666.58,-74.48"/>
<polygon fill="#63b8ff" stroke="#63b8ff" points="798.19,-403.98 801.65,-413.99 805.19,-404 798.19,-403.98"/>
</a>
</g>
</g>
<!-- Node30 -->
<g id="Node000030" class="node">
<title>Node30</title>
<g id="a_Node000030"><a xlink:href="classsteppable_1_1Fraction.html#a3d70552b75ec8c4bca5101e885e69eab" target="_top" xlink:title="Compare two fractions for greater or equal than.">
<polygon fill="white" stroke="#666666" points="666.25,-33.5 557.25,-33.5 557.25,0 666.25,0 666.25,-33.5"/>
<text text-anchor="start" x="565.25" y="-20" font-family="Helvetica,sans-Serif" font-size="10.00">steppable::Fraction</text>
<text text-anchor="middle" x="611.75" y="-7.25" font-family="Helvetica,sans-Serif" font-size="10.00">::operator&gt;=</text>
</a>
</g>
</g>
<!-- Node4&#45;&gt;Node30 -->
<g id="edge32_Node000004_Node000030" class="edge">
<title>Node4&#45;&gt;Node30</title>
<g id="a_edge32_Node000004_Node000030"><a xlink:title=" ">
<path fill="none" stroke="#63b8ff" d="M797.78,-404.29C787.74,-323.52 755.36,-95.33 704.5,-42.75 694.37,-32.28 680.36,-25.93 666.34,-22.12"/>
<polygon fill="#63b8ff" stroke="#63b8ff" points="794.28,-404.51 798.97,-414.02 801.23,-403.67 794.28,-404.51"/>
</a>
</g>
</g>
<!-- Node7&#45;&gt;Node8 -->
<g id="edge7_Node000007_Node000008" class="edge">
<title>Node7&#45;&gt;Node8</title>
<g id="a_edge7_Node000007_Node000008"><a xlink:title=" ">
<path fill="none" stroke="#63b8ff" d="M507.48,-737.76C499.23,-736.4 491.08,-735.06 483.27,-733.77"/>
<polygon fill="#63b8ff" stroke="#63b8ff" points="506.84,-741.2 517.28,-739.37 507.98,-734.29 506.84,-741.2"/>
</a>
</g>
</g>
<!-- Node8&#45;&gt;Node5 -->
<g id="edge8_Node000008_Node000005" class="edge">
<title>Node8&#45;&gt;Node5</title>
<g id="a_edge8_Node000008_Node000005"><a xlink:title=" ">
<path fill="none" stroke="#63b8ff" d="M395.2,-748.63C376.76,-765.66 350.39,-787.63 323.75,-801.75 317.59,-805.02 310.96,-807.94 304.21,-810.53"/>
<polygon fill="#63b8ff" stroke="#63b8ff" points="397.36,-751.4 402.24,-742 392.56,-746.31 397.36,-751.4"/>
</a>
</g>
</g>
<!-- Node8&#45;&gt;Node9 -->
<g id="edge9_Node000008_Node000009" class="edge">
<title>Node8&#45;&gt;Node9</title>
<g id="a_edge9_Node000008_Node000009"><a xlink:title=" ">
<path fill="none" stroke="#63b8ff" d="M349.18,-703.41C332.44,-698.63 314.76,-693.58 298.56,-688.95"/>
<polygon fill="#63b8ff" stroke="#63b8ff" points="347.99,-706.71 358.57,-706.09 349.92,-699.98 347.99,-706.71"/>
</a>
</g>
</g>
<!-- Node11 -->
<g id="Node000011" class="node">
<title>Node11</title>
<g id="a_Node000011"><a xlink:href="classsteppable_1_1Number.html#aebdaf5d342a2a897793556bd390bc184" target="_top" xlink:title="Divides two numbers.">
<polygon fill="white" stroke="#666666" points="294.88,-740.5 179.88,-740.5 179.88,-707 294.88,-707 294.88,-740.5"/>
<text text-anchor="start" x="187.88" y="-727" font-family="Helvetica,sans-Serif" font-size="10.00">steppable::Number::</text>
<text text-anchor="middle" x="237.38" y="-714.25" font-family="Helvetica,sans-Serif" font-size="10.00">operator/</text>
</a>
</g>
</g>
<!-- Node8&#45;&gt;Node11 -->
<g id="edge11_Node000008_Node000011" class="edge">
<title>Node8&#45;&gt;Node11</title>
<g id="a_edge11_Node000008_Node000011"><a xlink:title=" ">
<path fill="none" stroke="#63b8ff" d="M347.94,-723.75C330.44,-723.75 312,-723.75 295.33,-723.75"/>
<polygon fill="#63b8ff" stroke="#63b8ff" points="347.75,-727.25 357.75,-723.75 347.75,-720.25 347.75,-727.25"/>
</a>
</g>
</g>
<!-- Node8&#45;&gt;Node12 -->
<g id="edge12_Node000008_Node000012" class="edge">
<title>Node8&#45;&gt;Node12</title>
<g id="a_edge12_Node000008_Node000012"><a xlink:title=" ">
<path fill="none" stroke="#63b8ff" d="M395.2,-698.87C376.76,-681.84 350.39,-659.87 323.75,-645.75 316.08,-641.69 307.69,-638.16 299.24,-635.12"/>
<polygon fill="#63b8ff" stroke="#63b8ff" points="392.56,-701.19 402.24,-705.5 397.36,-696.1 392.56,-701.19"/>
</a>
</g>
</g>
<!-- Node13 -->
<g id="Node000013" class="node">
<title>Node13</title>
<g id="a_Node000013"><a xlink:href="classsteppable_1_1Fraction.html#a9cf64d847c268d9334775c572ef75dfa" target="_top" xlink:title="Simplifies a fraction. This function simplifies the fraction by dividing the top and bottom component...">
<polygon fill="white" stroke="#666666" points="291.88,-792.5 182.88,-792.5 182.88,-759 291.88,-759 291.88,-792.5"/>
<text text-anchor="start" x="190.88" y="-779" font-family="Helvetica,sans-Serif" font-size="10.00">steppable::Fraction</text>
<text text-anchor="middle" x="237.38" y="-766.25" font-family="Helvetica,sans-Serif" font-size="10.00">::simplify</text>
</a>
</g>
</g>
<!-- Node8&#45;&gt;Node13 -->
<g id="edge13_Node000008_Node000013" class="edge">
<title>Node8&#45;&gt;Node13</title>
<g id="a_edge13_Node000008_Node000013"><a xlink:title=" ">
<path fill="none" stroke="#63b8ff" d="M349.04,-744.13C330.1,-749.54 309.96,-755.3 292.13,-760.39"/>
<polygon fill="#63b8ff" stroke="#63b8ff" points="349.92,-747.52 358.57,-741.41 347.99,-740.79 349.92,-747.52"/>
</a>
</g>
</g>
<!-- Node10 -->
<g id="Node000010" class="node">
<title>Node10</title>
<g id="a_Node000010"><a xlink:href="classsteppable_1_1Number.html#a719a8a93fcfe91b30c38ba0830d6de50" target="_top" xlink:title="Calculates the remainder of two numbers. (Modulus)">
<polygon fill="white" stroke="#666666" points="115,-636.5 0,-636.5 0,-603 115,-603 115,-636.5"/>
<text text-anchor="start" x="8" y="-623" font-family="Helvetica,sans-Serif" font-size="10.00">steppable::Number::</text>
<text text-anchor="middle" x="57.5" y="-610.25" font-family="Helvetica,sans-Serif" font-size="10.00">operator%</text>
</a>
</g>
</g>
<!-- Node9&#45;&gt;Node10 -->
<g id="edge10_Node000009_Node000010" class="edge">
<title>Node9&#45;&gt;Node10</title>
<g id="a_edge10_Node000009_Node000010"><a xlink:title=" ">
<path fill="none" stroke="#63b8ff" d="M166.64,-651.36C149.65,-646.4 131.67,-641.14 115.36,-636.37"/>
<polygon fill="#63b8ff" stroke="#63b8ff" points="165.61,-654.71 176.19,-654.15 167.57,-647.99 165.61,-654.71"/>
</a>
</g>
</g>
<!-- Node14 -->
<g id="Node000014" class="node">
<title>Node14</title>
<g id="a_Node000014"><a xlink:href="classsteppable_1_1Fraction.html#a21eef8107e9cd1e590f7595c4ecbe147" target="_top" xlink:title="Multiplies two fractions together and stores the result in the current one. This function does it by ...">
<polygon fill="white" stroke="#666666" points="112,-792.5 3,-792.5 3,-759 112,-759 112,-792.5"/>
<text text-anchor="start" x="11" y="-779" font-family="Helvetica,sans-Serif" font-size="10.00">steppable::Fraction</text>
<text text-anchor="middle" x="57.5" y="-766.25" font-family="Helvetica,sans-Serif" font-size="10.00">::operator*=</text>
</a>
</g>
</g>
<!-- Node13&#45;&gt;Node14 -->
<g id="edge14_Node000013_Node000014" class="edge">
<title>Node13&#45;&gt;Node14</title>
<g id="a_edge14_Node000013_Node000014"><a xlink:title=" ">
<path fill="none" stroke="#63b8ff" d="M171.08,-775.75C151.81,-775.75 130.95,-775.75 112.47,-775.75"/>
<polygon fill="#63b8ff" stroke="#63b8ff" points="171.01,-779.25 181.01,-775.75 171.01,-772.25 171.01,-779.25"/>
</a>
</g>
</g>
<!-- Node15 -->
<g id="Node000015" class="node">
<title>Node15</title>
<g id="a_Node000015"><a xlink:href="classsteppable_1_1Fraction.html#ab10a5f43f6e60253ab6f4a097c73cf6e" target="_top" xlink:title="Adds two fractions together and stores the result in the current one. This function does it by doing ...">
<polygon fill="white" stroke="#666666" points="112,-740.5 3,-740.5 3,-707 112,-707 112,-740.5"/>
<text text-anchor="start" x="11" y="-727" font-family="Helvetica,sans-Serif" font-size="10.00">steppable::Fraction</text>
<text text-anchor="middle" x="57.5" y="-714.25" font-family="Helvetica,sans-Serif" font-size="10.00">::operator+=</text>
</a>
</g>
</g>
<!-- Node13&#45;&gt;Node15 -->
<g id="edge15_Node000013_Node000015" class="edge">
<title>Node13&#45;&gt;Node15</title>
<g id="a_edge15_Node000013_Node000015"><a xlink:title=" ">
<path fill="none" stroke="#63b8ff" d="M171.62,-756.82C152.21,-751.14 131.12,-744.98 112.47,-739.53"/>
<polygon fill="#63b8ff" stroke="#63b8ff" points="170.49,-760.14 181.07,-759.58 172.46,-753.42 170.49,-760.14"/>
</a>
</g>
</g>
<!-- Node16 -->
<g id="Node000016" class="node">
<title>Node16</title>
<g id="a_Node000016"><a xlink:href="classsteppable_1_1Fraction.html#aad3d96fbba7e7a0fa36c3f69f0463b8b" target="_top" xlink:title="Subtracts a fraction from another fraction and stores the result in the current one....">
<polygon fill="white" stroke="#666666" points="112,-688.5 3,-688.5 3,-655 112,-655 112,-688.5"/>
<text text-anchor="start" x="11" y="-675" font-family="Helvetica,sans-Serif" font-size="10.00">steppable::Fraction</text>
<text text-anchor="middle" x="57.5" y="-662.25" font-family="Helvetica,sans-Serif" font-size="10.00">::operator&#45;=</text>
</a>
</g>
</g>
<!-- Node13&#45;&gt;Node16 -->
<g id="edge16_Node000013_Node000016" class="edge">
<title>Node13&#45;&gt;Node16</title>
<g id="a_edge16_Node000013_Node000016"><a xlink:title=" ">
<path fill="none" stroke="#63b8ff" d="M172.08,-761.39C164.6,-758.24 157.38,-754.41 151,-749.75 128.29,-733.18 136.53,-715.82 115,-697.75 111.11,-694.49 106.75,-691.55 102.21,-688.92"/>
<polygon fill="#63b8ff" stroke="#63b8ff" points="170.76,-764.63 181.35,-764.88 173.22,-758.08 170.76,-764.63"/>
</a>
</g>
</g>
<!-- Node17 -->
<g id="Node000017" class="node">
<title>Node17</title>
<g id="a_Node000017"><a xlink:href="classsteppable_1_1Fraction.html#a86913160c5f596b74be3007bd16bda6b" target="_top" xlink:title="Divides a fraction by abother fraction and stores the result in the current one. This function does i...">
<polygon fill="white" stroke="#666666" points="112,-948.5 3,-948.5 3,-915 112,-915 112,-948.5"/>
<text text-anchor="start" x="11" y="-935" font-family="Helvetica,sans-Serif" font-size="10.00">steppable::Fraction</text>
<text text-anchor="middle" x="57.5" y="-922.25" font-family="Helvetica,sans-Serif" font-size="10.00">::operator/=</text>
</a>
</g>
</g>
<!-- Node13&#45;&gt;Node17 -->
<g id="edge17_Node000013_Node000017" class="edge">
<title>Node13&#45;&gt;Node17</title>
<g id="a_edge17_Node000013_Node000017"><a xlink:title=" ">
<path fill="none" stroke="#63b8ff" d="M171.89,-788C164.21,-791.5 156.98,-795.99 151,-801.75 115.77,-835.68 147.85,-869.51 115,-905.75 111.95,-909.11 108.39,-912.07 104.55,-914.66"/>
<polygon fill="#63b8ff" stroke="#63b8ff" points="173.13,-791.27 181.16,-784.37 170.58,-784.76 173.13,-791.27"/>
</a>
</g>
</g>
<!-- Node18 -->
<g id="Node000018" class="node">
<title>Node18</title>
<g id="a_Node000018"><a xlink:href="classsteppable_1_1Fraction.html#ac0a3d392ac70f42f74392fe08c1ab8be" target="_top" xlink:title="Raises the fraction to a power and stores the result in the current one.">
<polygon fill="white" stroke="#666666" points="112,-896.5 3,-896.5 3,-863 112,-863 112,-896.5"/>
<text text-anchor="start" x="11" y="-883" font-family="Helvetica,sans-Serif" font-size="10.00">steppable::Fraction</text>
<text text-anchor="middle" x="57.5" y="-870.25" font-family="Helvetica,sans-Serif" font-size="10.00">::operator^=</text>
</a>
</g>
</g>
<!-- Node13&#45;&gt;Node18 -->
<g id="edge18_Node000013_Node000018" class="edge">
<title>Node13&#45;&gt;Node18</title>
<g id="a_edge18_Node000013_Node000018"><a xlink:title=" ">
<path fill="none" stroke="#63b8ff" d="M172.08,-790.11C164.6,-793.26 157.38,-797.09 151,-801.75 128.29,-818.32 136.53,-835.68 115,-853.75 111.11,-857.01 106.75,-859.95 102.21,-862.58"/>
<polygon fill="#63b8ff" stroke="#63b8ff" points="173.22,-793.42 181.35,-786.62 170.76,-786.87 173.22,-793.42"/>
</a>
</g>
</g>
<!-- Node19 -->
<g id="Node000019" class="node">
<title>Node19</title>
<g id="a_Node000019"><a xlink:href="classsteppable_1_1Fraction.html#a9a892820854af33b0eabc6b6ec43b389" target="_top" xlink:title="Returns the fraction as a string. The string is formatted as &quot;top/bottom&quot;, and it will automatically ...">
<polygon fill="white" stroke="#666666" points="112,-844.5 3,-844.5 3,-811 112,-811 112,-844.5"/>
<text text-anchor="start" x="11" y="-831" font-family="Helvetica,sans-Serif" font-size="10.00">steppable::Fraction</text>
<text text-anchor="middle" x="57.5" y="-818.25" font-family="Helvetica,sans-Serif" font-size="10.00">::present</text>
</a>
</g>
</g>
<!-- Node13&#45;&gt;Node19 -->
<g id="edge19_Node000013_Node000019" class="edge">
<title>Node13&#45;&gt;Node19</title>
<g id="a_edge19_Node000013_Node000019"><a xlink:title=" ">
<path fill="none" stroke="#63b8ff" d="M171.62,-794.68C152.21,-800.36 131.12,-806.52 112.47,-811.97"/>
<polygon fill="#63b8ff" stroke="#63b8ff" points="172.46,-798.08 181.07,-791.92 170.49,-791.36 172.46,-798.08"/>
</a>
</g>
</g>
</g>
</svg>
