<?xml version="1.0" encoding="UTF-8" standalone="no"?>
<!DOCTYPE svg PUBLIC "-//W3C//DTD SVG 1.1//EN"
 "http://www.w3.org/Graphics/SVG/1.1/DTD/svg11.dtd">
<!-- Generated by graphviz version 2.43.0 (0)
 -->
<!-- Title: steppable::__internals::arithmetic::subtract Pages: 1 -->
<!--zoomable 855 -->
<svg id="main" version="1.1" xmlns="http://www.w3.org/2000/svg" xmlns:xlink="http://www.w3.org/1999/xlink" xml:space="preserve" onload="init(evt)">
<style type="text/css"><![CDATA[
.edge:hover path { stroke: red; }
.edge:hover polygon { stroke: red; fill: red; }
]]></style>
<script type="text/javascript"><![CDATA[
var edges = document.getElementsByTagName('g');
if (edges && edges.length) {
  for (var i=0;i<edges.length;i++) {
    if (edges[i].id.substr(0,4)=='edge') {
      edges[i].setAttribute('class','edge');
    }
  }
}
]]></script>
        <defs>
                <circle id="rim" cx="0" cy="0" r="7"/>
                <circle id="rim2" cx="0" cy="0" r="3.5"/>
                <g id="zoomPlus">
                        <use xlink:href="#rim" fill="#404040">
                                <set attributeName="fill" to="#808080" begin="zoomplus.mouseover" end="zoomplus.mouseout"/>
                        </use>
                        <path d="M-4,0h8M0,-4v8" fill="none" stroke="white" stroke-width="1.5" pointer-events="none"/>
                </g>
                <g id="zoomMin">
                        <use xlink:href="#rim" fill="#404040">
                                <set attributeName="fill" to="#808080" begin="zoomminus.mouseover" end="zoomminus.mouseout"/>
                        </use>
                        <path d="M-4,0h8" fill="none" stroke="white" stroke-width="1.5" pointer-events="none"/>
                </g>
                <g id="dirArrow">
                        <path fill="none" stroke="white" stroke-width="1.5" d="M0,-3.0v7 M-2.5,-0.5L0,-3.0L2.5,-0.5"/>
                </g>
               <g id="resetDef">
                       <use xlink:href="#rim2" fill="#404040">
                               <set attributeName="fill" to="#808080" begin="reset.mouseover" end="reset.mouseout"/>
                       </use>
               </g>
        </defs>

<script type="text/javascript">
var viewWidth = 1894;
var viewHeight = 855;
var sectionId = 'dynsection-31';
</script>
<script xlink:href="svgpan.js"/>
<svg id="graph" class="graph">
<g id="viewport">
<title>steppable::__internals::arithmetic::subtract</title>
<!-- Node1 -->
<g id="node1" class="node">
<title>Node1</title>
<g id="a_node1"><a xlink:title="Subtracts one string representation of a number from another string representation of a number.">
<polygon fill="#bfbfbf" stroke="black" points="1762,-291 1762,-321 1886,-321 1886,-291 1762,-291"/>
<text text-anchor="start" x="1770" y="-309" font-family="Helvetica,sans-Serif" font-size="10.00">steppable::__internals</text>
<text text-anchor="middle" x="1824" y="-298" font-family="Helvetica,sans-Serif" font-size="10.00">::arithmetic::subtract</text>
</a>
</g>
</g>
<!-- Node2 -->
<g id="node2" class="node">
<title>Node2</title>
<g id="a_node2"><a xlink:href="namespacesteppable_1_1____internals_1_1arithmetic.html#a1deb38d5027df01a66b6c3efd57aedca" target="_top" xlink:title="Adds two string representations of numbers, and performs with the column method.">
<polygon fill="none" stroke="black" points="1602,-291 1602,-321 1726,-321 1726,-291 1602,-291"/>
<text text-anchor="start" x="1610" y="-309" font-family="Helvetica,sans-Serif" font-size="10.00">steppable::__internals</text>
<text text-anchor="middle" x="1664" y="-298" font-family="Helvetica,sans-Serif" font-size="10.00">::arithmetic::add</text>
</a>
</g>
</g>
<!-- Node1&#45;&gt;Node2 -->
<g id="edge1" class="edge">
<title>Node1&#45;&gt;Node2</title>
<path fill="none" stroke="midnightblue" d="M1751.63,-299.28C1743.14,-299.22 1734.52,-299.26 1726.18,-299.4"/>
<polygon fill="midnightblue" stroke="midnightblue" points="1751.87,-302.78 1761.91,-299.41 1751.96,-295.78 1751.87,-302.78"/>
</g>
<!-- Node3 -->
<g id="node3" class="node">
<title>Node3</title>
<g id="a_node3"><a xlink:href="namespacesteppable_1_1____internals_1_1arithmetic.html#a7e727b70fed2eba6324a6e41d1a1fe03" target="_top" xlink:title=" ">
<polygon fill="none" stroke="black" points="475.5,-591 475.5,-621 615.5,-621 615.5,-591 475.5,-591"/>
<text text-anchor="start" x="483.5" y="-609" font-family="Helvetica,sans-Serif" font-size="10.00">steppable::__internals</text>
<text text-anchor="middle" x="545.5" y="-598" font-family="Helvetica,sans-Serif" font-size="10.00">::arithmetic::baseConvert</text>
</a>
</g>
</g>
<!-- Node1&#45;&gt;Node3 -->
<g id="edge46" class="edge">
<title>Node1&#45;&gt;Node3</title>
<path fill="none" stroke="midnightblue" d="M1820.64,-331.17C1814.41,-384.78 1793.06,-511.7 1726,-590 1654.24,-673.79 1615.32,-703 1505,-703 1505,-703 1505,-703 1115,-703 987.17,-703 954.03,-705.4 828,-684 742.25,-669.44 645.06,-639.38 590.24,-621.13"/>
<polygon fill="midnightblue" stroke="midnightblue" points="1824.13,-331.49 1821.72,-321.17 1817.17,-330.74 1824.13,-331.49"/>
</g>
<!-- Node8 -->
<g id="node8" class="node">
<title>Node8</title>
<g id="a_node8"><a xlink:href="namespacesteppable_1_1____internals_1_1arithmetic.html#ac9102075acd398b3bdf388f6cc2ef978" target="_top" xlink:title=" ">
<polygon fill="none" stroke="black" points="459,-728 459,-758 632,-758 632,-728 459,-728"/>
<text text-anchor="start" x="467" y="-746" font-family="Helvetica,sans-Serif" font-size="10.00">steppable::__internals</text>
<text text-anchor="middle" x="545.5" y="-735" font-family="Helvetica,sans-Serif" font-size="10.00">::arithmetic::divideWithQuotient</text>
</a>
</g>
</g>
<!-- Node1&#45;&gt;Node8 -->
<g id="edge47" class="edge">
<title>Node1&#45;&gt;Node8</title>
<path fill="none" stroke="midnightblue" d="M1822.35,-331.36C1819.53,-393.12 1804.59,-553.56 1726,-654 1656.46,-742.87 1617.85,-779 1505,-779 1505,-779 1505,-779 922,-779 822.13,-779 707.99,-766.22 632.03,-755.9"/>
<polygon fill="midnightblue" stroke="midnightblue" points="1825.86,-331.15 1822.75,-321.02 1818.87,-330.88 1825.86,-331.15"/>
</g>
<!-- Node27 -->
<g id="node27" class="node">
<title>Node27</title>
<g id="a_node27"><a xlink:href="classsteppable_1_1Fraction.html#a1b01ec2d3eceef4e566970b464cda13f" target="_top" xlink:title="Subtracts a fraction from another fraction. This function does it by doing a simple fraction subtract...">
<polygon fill="none" stroke="black" points="868,-105 868,-135 978,-135 978,-105 868,-105"/>
<text text-anchor="start" x="876" y="-123" font-family="Helvetica,sans-Serif" font-size="10.00">steppable::Fraction</text>
<text text-anchor="middle" x="923" y="-112" font-family="Helvetica,sans-Serif" font-size="10.00">::operator&#45;</text>
</a>
</g>
</g>
<!-- Node1&#45;&gt;Node27 -->
<g id="edge54" class="edge">
<title>Node1&#45;&gt;Node27</title>
<path fill="none" stroke="midnightblue" d="M1804.28,-282.97C1758.95,-230 1637.24,-104 1505,-104 1505,-104 1505,-104 1309,-104 1190.93,-104 1052.66,-111.61 978.17,-116.33"/>
<polygon fill="midnightblue" stroke="midnightblue" points="1801.77,-285.42 1810.89,-290.82 1807.12,-280.91 1801.77,-285.42"/>
</g>
<!-- Node29 -->
<g id="node29" class="node">
<title>Node29</title>
<g id="a_node29"><a xlink:href="divisionReport_8cpp.html#aaebd1f284f6703b7629aa18d21f7ccf2" target="_top" xlink:title="Reports a division step.">
<polygon fill="none" stroke="black" points="869.5,-655.5 869.5,-674.5 976.5,-674.5 976.5,-655.5 869.5,-655.5"/>
<text text-anchor="middle" x="923" y="-662.5" font-family="Helvetica,sans-Serif" font-size="10.00">reportDivisionStep</text>
</a>
</g>
</g>
<!-- Node1&#45;&gt;Node29 -->
<g id="edge56" class="edge">
<title>Node1&#45;&gt;Node29</title>
<path fill="none" stroke="midnightblue" d="M1814.84,-330.89C1786.46,-412.23 1683.86,-665 1505,-665 1505,-665 1505,-665 1309,-665 1190.19,-665 1050.76,-665 976.62,-665"/>
<polygon fill="midnightblue" stroke="midnightblue" points="1818.16,-332.02 1818.08,-321.43 1811.53,-329.76 1818.16,-332.02"/>
</g>
<!-- Node32 -->
<g id="node32" class="node">
<title>Node32</title>
<g id="a_node32"><a xlink:href="namespacesteppable_1_1____internals_1_1arithmetic.html#a677f253d71524a9d500e980dc159c79c" target="_top" xlink:title=" ">
<polygon fill="none" stroke="black" points="828,-808 828,-838 1018,-838 1018,-808 828,-808"/>
<text text-anchor="start" x="836" y="-826" font-family="Helvetica,sans-Serif" font-size="10.00">steppable::__internals</text>
<text text-anchor="middle" x="923" y="-815" font-family="Helvetica,sans-Serif" font-size="10.00">::arithmetic::getQuotientRemainder</text>
</a>
</g>
</g>
<!-- Node1&#45;&gt;Node32 -->
<g id="edge48" class="edge">
<title>Node1&#45;&gt;Node32</title>
<path fill="none" stroke="midnightblue" d="M1821.74,-331.49C1816.68,-422.48 1794.71,-729.26 1726,-793 1653.45,-860.3 1603.95,-820 1505,-820 1505,-820 1505,-820 1309,-820 1209.74,-820 1096.09,-821.01 1018.14,-821.86"/>
<polygon fill="midnightblue" stroke="midnightblue" points="1825.24,-331.44 1822.28,-321.27 1818.25,-331.06 1825.24,-331.44"/>
</g>
<!-- Node34 -->
<g id="node34" class="node">
<title>Node34</title>
<g id="a_node34"><a xlink:href="subtract_8cpp.html#ac2c7bcd6d73ca32ee42312d0fa0b1aa9" target="_top" xlink:title=" ">
<polygon fill="none" stroke="black" points="1643.5,-56.5 1643.5,-75.5 1684.5,-75.5 1684.5,-56.5 1643.5,-56.5"/>
<text text-anchor="middle" x="1664" y="-63.5" font-family="Helvetica,sans-Serif" font-size="10.00">main</text>
</a>
</g>
</g>
<!-- Node1&#45;&gt;Node34 -->
<g id="edge53" class="edge">
<title>Node1&#45;&gt;Node34</title>
<path fill="none" stroke="midnightblue" d="M1818.23,-280.97C1808.53,-236.63 1782.47,-143.86 1726,-90 1714.64,-79.16 1697.8,-73.03 1684.69,-69.69"/>
<polygon fill="midnightblue" stroke="midnightblue" points="1814.83,-281.83 1820.3,-290.91 1821.68,-280.4 1814.83,-281.83"/>
</g>
<!-- Node35 -->
<g id="node35" class="node">
<title>Node35</title>
<g id="a_node35"><a xlink:href="classsteppable_1_1Number.html#ab110d50402005abc3675dc3ba170ee53" target="_top" xlink:title="Subtracts two numbers.">
<polygon fill="none" stroke="black" points="1606,-7 1606,-37 1722,-37 1722,-7 1606,-7"/>
<text text-anchor="start" x="1614" y="-25" font-family="Helvetica,sans-Serif" font-size="10.00">steppable::Number::</text>
<text text-anchor="middle" x="1664" y="-14" font-family="Helvetica,sans-Serif" font-size="10.00">operator&#45;</text>
</a>
</g>
</g>
<!-- Node1&#45;&gt;Node35 -->
<g id="edge55" class="edge">
<title>Node1&#45;&gt;Node35</title>
<path fill="none" stroke="midnightblue" d="M1820.27,-280.84C1813.49,-230.07 1791.4,-114.43 1726,-47 1722.25,-43.14 1717.83,-39.85 1713.1,-37.06"/>
<polygon fill="midnightblue" stroke="midnightblue" points="1816.82,-281.44 1821.53,-290.93 1823.77,-280.57 1816.82,-281.44"/>
</g>
<!-- Node2&#45;&gt;Node1 -->
<g id="edge45" class="edge">
<title>Node2&#45;&gt;Node1</title>
<path fill="none" stroke="midnightblue" d="M1736.19,-312.72C1744.77,-312.79 1753.49,-312.74 1761.91,-312.59"/>
<polygon fill="midnightblue" stroke="midnightblue" points="1736.23,-309.22 1726.18,-312.6 1736.14,-316.22 1736.23,-309.22"/>
</g>
<!-- Node2&#45;&gt;Node3 -->
<g id="edge2" class="edge">
<title>Node2&#45;&gt;Node3</title>
<path fill="none" stroke="midnightblue" d="M1651.42,-330.19C1613.79,-404.91 1487.11,-627 1311,-627 1311,-627 1311,-627 1115,-627 934.75,-627 722.58,-616.33 615.6,-610.2"/>
<polygon fill="midnightblue" stroke="midnightblue" points="1654.65,-331.57 1655.95,-321.05 1648.37,-328.46 1654.65,-331.57"/>
</g>
<!-- Node5 -->
<g id="node5" class="node">
<title>Node5</title>
<g id="a_node5"><a xlink:href="namespacesteppable_1_1____internals_1_1arithmetic.html#afc4c4f319dadbb5b1ff481132f008374" target="_top" xlink:title="Converts a string representation of a number from one base to another.">
<polygon fill="none" stroke="black" points="92,-271 92,-301 248,-301 248,-271 92,-271"/>
<text text-anchor="start" x="100" y="-289" font-family="Helvetica,sans-Serif" font-size="10.00">steppable::__internals</text>
<text text-anchor="middle" x="170" y="-278" font-family="Helvetica,sans-Serif" font-size="10.00">::arithmetic::decimalConvert</text>
</a>
</g>
</g>
<!-- Node2&#45;&gt;Node5 -->
<g id="edge4" class="edge">
<title>Node2&#45;&gt;Node5</title>
<path fill="none" stroke="midnightblue" d="M1654.74,-281.09C1641.18,-243.23 1611.12,-170.58 1566,-123 1479.42,-31.7 1436.83,0 1311,0 1311,0 1311,0 544.5,0 364.82,0 218.13,-211.22 180.42,-270.62"/>
<polygon fill="midnightblue" stroke="midnightblue" points="1651.53,-282.51 1658.12,-290.8 1658.14,-280.2 1651.53,-282.51"/>
</g>
<!-- Node7 -->
<g id="node7" class="node">
<title>Node7</title>
<g id="a_node7"><a xlink:href="namespacesteppable_1_1____internals_1_1arithmetic.html#a26194ae8ddb44afb942fbf8335ae1730" target="_top" xlink:title="Divides a string representation of a number by another string representation of a number.">
<polygon fill="none" stroke="black" points="668,-720 668,-750 792,-750 792,-720 668,-720"/>
<text text-anchor="start" x="676" y="-738" font-family="Helvetica,sans-Serif" font-size="10.00">steppable::__internals</text>
<text text-anchor="middle" x="730" y="-727" font-family="Helvetica,sans-Serif" font-size="10.00">::arithmetic::divide</text>
</a>
</g>
</g>
<!-- Node2&#45;&gt;Node7 -->
<g id="edge6" class="edge">
<title>Node2&#45;&gt;Node7</title>
<path fill="none" stroke="midnightblue" d="M1662.9,-331.57C1661.27,-392.95 1648.78,-550.24 1566,-641 1483.96,-730.94 1432.74,-741 1311,-741 1311,-741 1311,-741 1115,-741 1000.99,-741 867.95,-738.32 792.18,-736.55"/>
<polygon fill="midnightblue" stroke="midnightblue" points="1666.4,-331.33 1663.09,-321.26 1659.4,-331.2 1666.4,-331.33"/>
</g>
<!-- Node12 -->
<g id="node12" class="node">
<title>Node12</title>
<g id="a_node12"><a xlink:href="powerReport_8cpp.html#afff5f8aa771cf432836ef03f6f442dae" target="_top" xlink:title="Reports a power operation.">
<polygon fill="none" stroke="black" points="507.5,-241.5 507.5,-260.5 583.5,-260.5 583.5,-241.5 507.5,-241.5"/>
<text text-anchor="middle" x="545.5" y="-248.5" font-family="Helvetica,sans-Serif" font-size="10.00">reportPower</text>
</a>
</g>
</g>
<!-- Node2&#45;&gt;Node12 -->
<g id="edge41" class="edge">
<title>Node2&#45;&gt;Node12</title>
<path fill="none" stroke="midnightblue" d="M1591.71,-288.58C1548.2,-277.54 1491.59,-262.48 1442,-247 1173.64,-163.24 1100.18,-24.63 828,-95 713.32,-124.65 595.53,-212.18 558.43,-241.39"/>
<polygon fill="midnightblue" stroke="midnightblue" points="1591.08,-292.03 1601.63,-291.08 1592.79,-285.24 1591.08,-292.03"/>
</g>
<!-- Node18 -->
<g id="node18" class="node">
<title>Node18</title>
<g id="a_node18"><a xlink:href="namespacesteppable_1_1____internals_1_1arithmetic.html#a210c635ae60eaa54f65bc82a0f3c953a" target="_top" xlink:title="Executes a given predicate function a specified number of times.">
<polygon fill="none" stroke="black" points="1248,-37 1248,-67 1372,-67 1372,-37 1248,-37"/>
<text text-anchor="start" x="1256" y="-55" font-family="Helvetica,sans-Serif" font-size="10.00">steppable::__internals</text>
<text text-anchor="middle" x="1310" y="-44" font-family="Helvetica,sans-Serif" font-size="10.00">::arithmetic::loop</text>
</a>
</g>
</g>
<!-- Node2&#45;&gt;Node18 -->
<g id="edge20" class="edge">
<title>Node2&#45;&gt;Node18</title>
<path fill="none" stroke="midnightblue" d="M1628.79,-285.95C1610.51,-275.67 1587.41,-263.38 1566,-254 1512.57,-230.59 1489.89,-244.31 1442,-211 1384.16,-170.77 1337.76,-98.3 1319.45,-67.03"/>
<polygon fill="midnightblue" stroke="midnightblue" points="1627.19,-289.06 1637.62,-290.96 1630.65,-282.98 1627.19,-289.06"/>
</g>
<!-- Node19 -->
<g id="node19" class="node">
<title>Node19</title>
<g id="a_node19"><a xlink:href="add_8cpp.html#a065a3ee9a7ec43a06ab2fddbc3019a17" target="_top" xlink:title=" ">
<polygon fill="none" stroke="black" points="1483.5,-182.5 1483.5,-201.5 1524.5,-201.5 1524.5,-182.5 1483.5,-182.5"/>
<text text-anchor="middle" x="1504" y="-189.5" font-family="Helvetica,sans-Serif" font-size="10.00">main</text>
</a>
</g>
</g>
<!-- Node2&#45;&gt;Node19 -->
<g id="edge22" class="edge">
<title>Node2&#45;&gt;Node19</title>
<path fill="none" stroke="midnightblue" d="M1643.2,-283.34C1624.82,-263.43 1595.87,-234.79 1566,-216 1553.09,-207.88 1536.98,-201.69 1524.56,-197.63"/>
<polygon fill="midnightblue" stroke="midnightblue" points="1640.62,-285.71 1649.93,-290.76 1645.8,-281.01 1640.62,-285.71"/>
</g>
<!-- Node20 -->
<g id="node20" class="node">
<title>Node20</title>
<g id="a_node20"><a xlink:href="classsteppable_1_1Fraction.html#a1262c8eeceb0325f49d5e9305ef166c6" target="_top" xlink:title="Adds two fractions together. This function does it by doing a simple fraction addition and returns th...">
<polygon fill="none" stroke="black" points="868,-154 868,-184 978,-184 978,-154 868,-154"/>
<text text-anchor="start" x="876" y="-172" font-family="Helvetica,sans-Serif" font-size="10.00">steppable::Fraction</text>
<text text-anchor="middle" x="923" y="-161" font-family="Helvetica,sans-Serif" font-size="10.00">::operator+</text>
</a>
</g>
</g>
<!-- Node2&#45;&gt;Node20 -->
<g id="edge23" class="edge">
<title>Node2&#45;&gt;Node20</title>
<path fill="none" stroke="midnightblue" d="M1591.82,-298.76C1548.48,-294.23 1492.01,-288.11 1442,-282 1340.49,-269.59 1314.04,-272.23 1214,-251 1125.26,-232.17 1105.4,-218.33 1018,-194 1005.15,-190.42 991.28,-186.67 978.24,-183.2"/>
<polygon fill="midnightblue" stroke="midnightblue" points="1591.67,-302.27 1601.98,-299.82 1592.39,-295.3 1591.67,-302.27"/>
</g>
<!-- Node21 -->
<g id="node21" class="node">
<title>Node21</title>
<g id="a_node21"><a xlink:href="classsteppable_1_1Number.html#a6e565a933a6295abd720d6ab8f9c6eb7" target="_top" xlink:title="Adds two numbers together.">
<polygon fill="none" stroke="black" points="1446,-133 1446,-163 1562,-163 1562,-133 1446,-133"/>
<text text-anchor="start" x="1454" y="-151" font-family="Helvetica,sans-Serif" font-size="10.00">steppable::Number::</text>
<text text-anchor="middle" x="1504" y="-140" font-family="Helvetica,sans-Serif" font-size="10.00">operator+</text>
</a>
</g>
</g>
<!-- Node2&#45;&gt;Node21 -->
<g id="edge24" class="edge">
<title>Node2&#45;&gt;Node21</title>
<path fill="none" stroke="midnightblue" d="M1650.66,-281.57C1634.72,-252.19 1604.4,-203.1 1566,-173 1561.14,-169.19 1555.61,-165.87 1549.92,-163.01"/>
<polygon fill="midnightblue" stroke="midnightblue" points="1647.73,-283.52 1655.5,-290.72 1653.92,-280.24 1647.73,-283.52"/>
</g>
<!-- Node22 -->
<g id="node22" class="node">
<title>Node22</title>
<g id="a_node22"><a xlink:href="multiplyReport_8cpp.html#a551f62010399287bf016fd805c5d4cd3" target="_top" xlink:title="Reports a multiplication operation to the user.">
<polygon fill="none" stroke="black" points="1267,-334.5 1267,-353.5 1353,-353.5 1353,-334.5 1267,-334.5"/>
<text text-anchor="middle" x="1310" y="-341.5" font-family="Helvetica,sans-Serif" font-size="10.00">reportMultiply</text>
</a>
</g>
</g>
<!-- Node2&#45;&gt;Node22 -->
<g id="edge25" class="edge">
<title>Node2&#45;&gt;Node22</title>
<path fill="none" stroke="midnightblue" d="M1591.66,-316.71C1583.02,-317.88 1574.32,-319.01 1566,-320 1491.16,-328.92 1403.63,-336.55 1353.03,-340.69"/>
<polygon fill="midnightblue" stroke="midnightblue" points="1592.32,-320.15 1601.74,-315.31 1591.36,-313.21 1592.32,-320.15"/>
</g>
<!-- Node30 -->
<g id="node30" class="node">
<title>Node30</title>
<g id="a_node30"><a xlink:href="namespacesteppable_1_1____internals_1_1numUtils.html#ac634c8aea297b7e8f5cc251041089c5b" target="_top" xlink:title="Round off a number to the nearest integer.">
<polygon fill="none" stroke="black" points="1442,-373 1442,-403 1566,-403 1566,-373 1442,-373"/>
<text text-anchor="start" x="1450" y="-391" font-family="Helvetica,sans-Serif" font-size="10.00">steppable::__internals</text>
<text text-anchor="middle" x="1504" y="-380" font-family="Helvetica,sans-Serif" font-size="10.00">::numUtils::roundOff</text>
</a>
</g>
</g>
<!-- Node2&#45;&gt;Node30 -->
<g id="edge42" class="edge">
<title>Node2&#45;&gt;Node30</title>
<path fill="none" stroke="midnightblue" d="M1626.48,-325.97C1608.37,-335.77 1586.12,-347.66 1566,-358 1556.34,-362.96 1545.75,-368.23 1536.14,-372.95"/>
<polygon fill="midnightblue" stroke="midnightblue" points="1628.42,-328.9 1635.54,-321.05 1625.08,-322.74 1628.42,-328.9"/>
</g>
<!-- Node4 -->
<g id="node4" class="node">
<title>Node4</title>
<g id="a_node4"><a xlink:href="baseConvert_8cpp.html#ae66f6b31b5ad750f1fe042a706a4e3d4" target="_top" xlink:title=" ">
<polygon fill="none" stroke="black" points="340.5,-596.5 340.5,-615.5 381.5,-615.5 381.5,-596.5 340.5,-596.5"/>
<text text-anchor="middle" x="361" y="-603.5" font-family="Helvetica,sans-Serif" font-size="10.00">main</text>
</a>
</g>
</g>
<!-- Node3&#45;&gt;Node4 -->
<g id="edge3" class="edge">
<title>Node3&#45;&gt;Node4</title>
<path fill="none" stroke="midnightblue" d="M464.93,-606C434.27,-606 401.82,-606 381.74,-606"/>
<polygon fill="midnightblue" stroke="midnightblue" points="465.24,-609.5 475.24,-606 465.24,-602.5 465.24,-609.5"/>
</g>
<!-- Node6 -->
<g id="node6" class="node">
<title>Node6</title>
<g id="a_node6"><a xlink:href="decimalConvert_8cpp.html#ac2c7bcd6d73ca32ee42312d0fa0b1aa9" target="_top" xlink:title=" ">
<polygon fill="none" stroke="black" points="0,-276.5 0,-295.5 41,-295.5 41,-276.5 0,-276.5"/>
<text text-anchor="middle" x="20.5" y="-283.5" font-family="Helvetica,sans-Serif" font-size="10.00">main</text>
</a>
</g>
</g>
<!-- Node5&#45;&gt;Node6 -->
<g id="edge5" class="edge">
<title>Node5&#45;&gt;Node6</title>
<path fill="none" stroke="midnightblue" d="M81.71,-286C66.49,-286 52.07,-286 41.15,-286"/>
<polygon fill="midnightblue" stroke="midnightblue" points="81.79,-289.5 91.79,-286 81.79,-282.5 81.79,-289.5"/>
</g>
<!-- Node7&#45;&gt;Node3 -->
<g id="edge7" class="edge">
<title>Node7&#45;&gt;Node3</title>
<path fill="none" stroke="midnightblue" d="M709.14,-712.46C686.14,-686.78 649.2,-646.94 632,-636 622.71,-630.09 612.11,-625.17 601.6,-621.14"/>
<polygon fill="midnightblue" stroke="midnightblue" points="706.53,-714.79 715.8,-719.93 711.76,-710.14 706.53,-714.79"/>
</g>
<!-- Node7&#45;&gt;Node8 -->
<g id="edge8" class="edge">
<title>Node7&#45;&gt;Node8</title>
<path fill="none" stroke="midnightblue" d="M657.84,-738.12C649.42,-738.49 640.75,-738.87 632.16,-739.25"/>
<polygon fill="midnightblue" stroke="midnightblue" points="658.14,-741.61 667.98,-737.68 657.83,-734.62 658.14,-741.61"/>
</g>
<!-- Node10 -->
<g id="node10" class="node">
<title>Node10</title>
<g id="a_node10"><a xlink:href="division_8cpp.html#a065a3ee9a7ec43a06ab2fddbc3019a17" target="_top" xlink:title=" ">
<polygon fill="none" stroke="black" points="525,-777.5 525,-796.5 566,-796.5 566,-777.5 525,-777.5"/>
<text text-anchor="middle" x="545.5" y="-784.5" font-family="Helvetica,sans-Serif" font-size="10.00">main</text>
</a>
</g>
</g>
<!-- Node7&#45;&gt;Node10 -->
<g id="edge10" class="edge">
<title>Node7&#45;&gt;Node10</title>
<path fill="none" stroke="midnightblue" d="M678.28,-753.42C663.46,-758.48 647.17,-763.75 632,-768 609.6,-774.28 583.43,-779.84 566.01,-783.3"/>
<polygon fill="midnightblue" stroke="midnightblue" points="679.47,-756.71 687.77,-750.14 677.18,-750.1 679.47,-756.71"/>
</g>
<!-- Node11 -->
<g id="node11" class="node">
<title>Node11</title>
<g id="a_node11"><a xlink:href="classsteppable_1_1Number.html#aa66cc95056779a87d04caaf621b662bb" target="_top" xlink:title="Divides two numbers.">
<polygon fill="none" stroke="black" points="487.5,-679 487.5,-709 603.5,-709 603.5,-679 487.5,-679"/>
<text text-anchor="start" x="495.5" y="-697" font-family="Helvetica,sans-Serif" font-size="10.00">steppable::Number::</text>
<text text-anchor="middle" x="545.5" y="-686" font-family="Helvetica,sans-Serif" font-size="10.00">operator/</text>
</a>
</g>
</g>
<!-- Node7&#45;&gt;Node11 -->
<g id="edge11" class="edge">
<title>Node7&#45;&gt;Node11</title>
<path fill="none" stroke="midnightblue" d="M658.11,-719.07C640.11,-715.03 620.99,-710.74 603.76,-706.86"/>
<polygon fill="midnightblue" stroke="midnightblue" points="657.45,-722.51 667.98,-721.29 658.99,-715.68 657.45,-722.51"/>
</g>
<!-- Node7&#45;&gt;Node12 -->
<g id="edge12" class="edge">
<title>Node7&#45;&gt;Node12</title>
<path fill="none" stroke="midnightblue" d="M719.75,-710.46C686.23,-621.58 572,-318.63 550.14,-260.64"/>
<polygon fill="midnightblue" stroke="midnightblue" points="716.53,-711.86 723.34,-719.98 723.08,-709.39 716.53,-711.86"/>
</g>
<!-- Node17 -->
<g id="node17" class="node">
<title>Node17</title>
<g id="a_node17"><a xlink:href="classsteppable_1_1Fraction.html#a9cf64d847c268d9334775c572ef75dfa" target="_top" xlink:title="Simplifies a fraction. This function simplifies the fraction by dividing the top and bottom component...">
<polygon fill="none" stroke="black" points="490.5,-816 490.5,-846 600.5,-846 600.5,-816 490.5,-816"/>
<text text-anchor="start" x="498.5" y="-834" font-family="Helvetica,sans-Serif" font-size="10.00">steppable::Fraction</text>
<text text-anchor="middle" x="545.5" y="-823" font-family="Helvetica,sans-Serif" font-size="10.00">::simplify</text>
</a>
</g>
</g>
<!-- Node7&#45;&gt;Node17 -->
<g id="edge19" class="edge">
<title>Node7&#45;&gt;Node17</title>
<path fill="none" stroke="midnightblue" d="M704.58,-756.62C685.84,-772.23 658.74,-792.81 632,-806 622.29,-810.79 611.5,-814.83 600.94,-818.17"/>
<polygon fill="midnightblue" stroke="midnightblue" points="706.95,-759.19 712.31,-750.05 702.43,-753.85 706.95,-759.19"/>
</g>
<!-- Node9 -->
<g id="node9" class="node">
<title>Node9</title>
<g id="a_node9"><a xlink:href="classsteppable_1_1Number.html#a6e98fb3dedfd70f3956e9d299733a58d" target="_top" xlink:title="Calculates the remainder of two numbers. (Modulus)">
<polygon fill="none" stroke="black" points="303,-728 303,-758 419,-758 419,-728 303,-728"/>
<text text-anchor="start" x="311" y="-746" font-family="Helvetica,sans-Serif" font-size="10.00">steppable::Number::</text>
<text text-anchor="middle" x="361" y="-735" font-family="Helvetica,sans-Serif" font-size="10.00">operator%</text>
</a>
</g>
</g>
<!-- Node8&#45;&gt;Node9 -->
<g id="edge9" class="edge">
<title>Node8&#45;&gt;Node9</title>
<path fill="none" stroke="midnightblue" d="M448.78,-743C438.7,-743 428.7,-743 419.26,-743"/>
<polygon fill="midnightblue" stroke="midnightblue" points="448.86,-746.5 458.86,-743 448.86,-739.5 448.86,-746.5"/>
</g>
<!-- Node13 -->
<g id="node13" class="node">
<title>Node13</title>
<g id="a_node13"><a xlink:href="namespacesteppable_1_1____internals_1_1arithmetic.html#a50acfa1ad06ce385943ddd207146c9e0" target="_top" xlink:title="Raises a string representation of a number to a power.">
<polygon fill="none" stroke="black" points="299,-320 299,-350 423,-350 423,-320 299,-320"/>
<text text-anchor="start" x="307" y="-338" font-family="Helvetica,sans-Serif" font-size="10.00">steppable::__internals</text>
<text text-anchor="middle" x="361" y="-327" font-family="Helvetica,sans-Serif" font-size="10.00">::arithmetic::power</text>
</a>
</g>
</g>
<!-- Node12&#45;&gt;Node13 -->
<g id="edge13" class="edge">
<title>Node12&#45;&gt;Node13</title>
<path fill="none" stroke="midnightblue" d="M514.41,-264.85C481.41,-280.04 428.65,-304.32 394.66,-319.97"/>
<polygon fill="midnightblue" stroke="midnightblue" points="515.94,-268 523.56,-260.64 513.02,-261.64 515.94,-268"/>
</g>
<!-- Node13&#45;&gt;Node5 -->
<g id="edge14" class="edge">
<title>Node13&#45;&gt;Node5</title>
<path fill="none" stroke="midnightblue" d="M292.31,-317.45C271.55,-312.07 248.92,-306.2 228.88,-301.01"/>
<polygon fill="midnightblue" stroke="midnightblue" points="291.45,-320.84 302.01,-319.97 293.21,-314.07 291.45,-320.84"/>
</g>
<!-- Node14 -->
<g id="node14" class="node">
<title>Node14</title>
<g id="a_node14"><a xlink:href="namespacesteppable_1_1____internals_1_1arithmetic.html#aa150ef39a272f7228ae239679247fab3" target="_top" xlink:title="Determines the scale of the quotient of division.">
<polygon fill="none" stroke="black" points="77,-498 77,-528 263,-528 263,-498 77,-498"/>
<text text-anchor="start" x="85" y="-516" font-family="Helvetica,sans-Serif" font-size="10.00">steppable::__internals</text>
<text text-anchor="middle" x="170" y="-505" font-family="Helvetica,sans-Serif" font-size="10.00">::arithmetic::determineResultScale</text>
</a>
</g>
</g>
<!-- Node13&#45;&gt;Node14 -->
<g id="edge15" class="edge">
<title>Node13&#45;&gt;Node14</title>
<path fill="none" stroke="midnightblue" d="M336.14,-357.47C297.05,-394.29 220.37,-466.5 187.07,-497.86"/>
<polygon fill="midnightblue" stroke="midnightblue" points="339.01,-359.58 343.89,-350.18 334.21,-354.48 339.01,-359.58"/>
</g>
<!-- Node15 -->
<g id="node15" class="node">
<title>Node15</title>
<g id="a_node15"><a xlink:href="power_8cpp.html#a065a3ee9a7ec43a06ab2fddbc3019a17" target="_top" xlink:title=" ">
<polygon fill="none" stroke="black" points="149.5,-369.5 149.5,-388.5 190.5,-388.5 190.5,-369.5 149.5,-369.5"/>
<text text-anchor="middle" x="170" y="-376.5" font-family="Helvetica,sans-Serif" font-size="10.00">main</text>
</a>
</g>
</g>
<!-- Node13&#45;&gt;Node15 -->
<g id="edge17" class="edge">
<title>Node13&#45;&gt;Node15</title>
<path fill="none" stroke="midnightblue" d="M290.39,-352.48C281.19,-354.71 271.87,-356.94 263,-359 238.16,-364.77 209.43,-370.94 190.78,-374.87"/>
<polygon fill="midnightblue" stroke="midnightblue" points="291.42,-355.83 300.3,-350.05 289.75,-349.03 291.42,-355.83"/>
</g>
<!-- Node16 -->
<g id="node16" class="node">
<title>Node16</title>
<g id="a_node16"><a xlink:href="classsteppable_1_1Number.html#aed9d4c238a2876ca951187b6f6173fd9" target="_top" xlink:title="Raises the number to a power.">
<polygon fill="none" stroke="black" points="112,-320 112,-350 228,-350 228,-320 112,-320"/>
<text text-anchor="start" x="120" y="-338" font-family="Helvetica,sans-Serif" font-size="10.00">steppable::Number::</text>
<text text-anchor="middle" x="170" y="-327" font-family="Helvetica,sans-Serif" font-size="10.00">operator^</text>
</a>
</g>
</g>
<!-- Node13&#45;&gt;Node16 -->
<g id="edge18" class="edge">
<title>Node13&#45;&gt;Node16</title>
<path fill="none" stroke="midnightblue" d="M288.86,-335C268.78,-335 247.19,-335 228.04,-335"/>
<polygon fill="midnightblue" stroke="midnightblue" points="288.9,-338.5 298.9,-335 288.9,-331.5 288.9,-338.5"/>
</g>
<!-- Node14&#45;&gt;Node7 -->
<g id="edge16" class="edge">
<title>Node14&#45;&gt;Node7</title>
<path fill="none" stroke="midnightblue" d="M189.66,-536.01C212.45,-562.33 253.61,-604.45 299,-625 435,-686.57 492.52,-615.79 632,-669 663.02,-680.83 693.86,-704.35 712.18,-719.88"/>
<polygon fill="midnightblue" stroke="midnightblue" points="192.06,-533.43 182.92,-528.06 186.72,-537.95 192.06,-533.43"/>
</g>
<!-- Node18&#45;&gt;Node12 -->
<g id="edge21" class="edge">
<title>Node18&#45;&gt;Node12</title>
<path fill="none" stroke="midnightblue" d="M1237.6,-44.84C1091.41,-31.5 763.76,-8.75 668,-62 594.7,-102.76 558.82,-208.36 549.21,-241.15"/>
<polygon fill="midnightblue" stroke="midnightblue" points="1237.52,-48.35 1247.8,-45.78 1238.17,-41.38 1237.52,-48.35"/>
</g>
<!-- Node23 -->
<g id="node23" class="node">
<title>Node23</title>
<g id="a_node23"><a xlink:href="namespacesteppable_1_1____internals_1_1arithmetic.html#a59c559ff2ec84dc1964531893a457c66" target="_top" xlink:title="Multiplies two string representations of numbers.">
<polygon fill="none" stroke="black" points="1054,-356 1054,-386 1178,-386 1178,-356 1054,-356"/>
<text text-anchor="start" x="1062" y="-374" font-family="Helvetica,sans-Serif" font-size="10.00">steppable::__internals</text>
<text text-anchor="middle" x="1116" y="-363" font-family="Helvetica,sans-Serif" font-size="10.00">::arithmetic::multiply</text>
</a>
</g>
</g>
<!-- Node22&#45;&gt;Node23 -->
<g id="edge26" class="edge">
<title>Node22&#45;&gt;Node23</title>
<path fill="none" stroke="midnightblue" d="M1256.8,-351.34C1232.57,-354.75 1203.62,-358.82 1178.35,-362.37"/>
<polygon fill="midnightblue" stroke="midnightblue" points="1257.45,-354.78 1266.86,-349.93 1256.47,-347.85 1257.45,-354.78"/>
</g>
<!-- Node23&#45;&gt;Node3 -->
<g id="edge27" class="edge">
<title>Node23&#45;&gt;Node3</title>
<path fill="none" stroke="midnightblue" d="M1063.1,-352.96C1004.04,-335.45 905.72,-315.6 828,-346 696.03,-397.62 588.79,-543.33 556.49,-590.83"/>
<polygon fill="midnightblue" stroke="midnightblue" points="1062.36,-356.39 1072.94,-355.96 1064.4,-349.69 1062.36,-356.39"/>
</g>
<!-- Node23&#45;&gt;Node5 -->
<g id="edge28" class="edge">
<title>Node23&#45;&gt;Node5</title>
<path fill="none" stroke="midnightblue" d="M1078.02,-351.12C1060.32,-342.42 1038.55,-332.88 1018,-327 894.3,-291.6 859.67,-289 731,-289 731,-289 731,-289 544.5,-289 442.04,-289 323.78,-287.86 248.25,-286.98"/>
<polygon fill="midnightblue" stroke="midnightblue" points="1076.89,-354.47 1087.4,-355.84 1080.03,-348.22 1076.89,-354.47"/>
</g>
<!-- Node23&#45;&gt;Node7 -->
<g id="edge30" class="edge">
<title>Node23&#45;&gt;Node7</title>
<path fill="none" stroke="midnightblue" d="M1108.63,-395.89C1097.07,-436.43 1068.97,-517.03 1018,-565 951.15,-627.91 897.44,-585.96 828,-646 804.76,-666.09 814.68,-684.29 792,-705 785.64,-710.81 777.94,-715.74 770.2,-719.83"/>
<polygon fill="midnightblue" stroke="midnightblue" points="1112.06,-396.6 1111.34,-386.03 1105.31,-394.75 1112.06,-396.6"/>
</g>
<!-- Node23&#45;&gt;Node8 -->
<g id="edge31" class="edge">
<title>Node23&#45;&gt;Node8</title>
<path fill="none" stroke="midnightblue" d="M1106.75,-395.85C1093.75,-430.96 1065,-494.43 1018,-527 947.22,-576.05 906.22,-528.97 828,-565 727.38,-611.35 730.78,-668.85 632,-719 625.4,-722.35 618.27,-725.29 611.04,-727.85"/>
<polygon fill="midnightblue" stroke="midnightblue" points="1110.08,-396.93 1110.15,-386.34 1103.49,-394.58 1110.08,-396.93"/>
</g>
<!-- Node23&#45;&gt;Node12 -->
<g id="edge40" class="edge">
<title>Node23&#45;&gt;Node12</title>
<path fill="none" stroke="midnightblue" d="M1087.01,-349.56C1076.26,-340.84 1064.16,-330.38 1054,-320 1036.09,-301.69 1040.8,-286.68 1018,-275 942.59,-236.37 681.45,-244.48 583.76,-249.03"/>
<polygon fill="midnightblue" stroke="midnightblue" points="1084.9,-352.36 1094.9,-355.86 1089.27,-346.89 1084.9,-352.36"/>
</g>
<!-- Node23&#45;&gt;Node14 -->
<g id="edge29" class="edge">
<title>Node23&#45;&gt;Node14</title>
<path fill="none" stroke="midnightblue" d="M1103.48,-395.44C1088.37,-424.42 1058.88,-471.49 1018,-493 904.84,-552.53 858.86,-513 731,-513 731,-513 731,-513 544.5,-513 448.53,-513 338.69,-513 263.1,-513"/>
<polygon fill="midnightblue" stroke="midnightblue" points="1106.68,-396.88 1108.06,-386.37 1100.43,-393.73 1106.68,-396.88"/>
</g>
<!-- Node23&#45;&gt;Node20 -->
<g id="edge35" class="edge">
<title>Node23&#45;&gt;Node20</title>
<path fill="none" stroke="midnightblue" d="M1082.6,-349.82C1072.18,-341.61 1061.42,-331.42 1054,-320 1022.26,-271.17 1059.56,-234.8 1018,-194 1007.28,-183.47 992.65,-177.24 978.12,-173.59"/>
<polygon fill="midnightblue" stroke="midnightblue" points="1080.71,-352.78 1090.82,-355.97 1084.91,-347.17 1080.71,-352.78"/>
</g>
<!-- Node24 -->
<g id="node24" class="node">
<title>Node24</title>
<g id="a_node24"><a xlink:href="multiply_8cpp.html#a065a3ee9a7ec43a06ab2fddbc3019a17" target="_top" xlink:title=" ">
<polygon fill="none" stroke="black" points="902.5,-203.5 902.5,-222.5 943.5,-222.5 943.5,-203.5 902.5,-203.5"/>
<text text-anchor="middle" x="923" y="-210.5" font-family="Helvetica,sans-Serif" font-size="10.00">main</text>
</a>
</g>
</g>
<!-- Node23&#45;&gt;Node24 -->
<g id="edge32" class="edge">
<title>Node23&#45;&gt;Node24</title>
<path fill="none" stroke="midnightblue" d="M1083.92,-349.64C1073.43,-341.3 1062.28,-331.08 1054,-320 1029.93,-287.79 1048.6,-263.08 1018,-237 996.98,-219.08 964.31,-214.27 943.55,-213.13"/>
<polygon fill="midnightblue" stroke="midnightblue" points="1082.06,-352.62 1092.14,-355.9 1086.31,-347.05 1082.06,-352.62"/>
</g>
<!-- Node25 -->
<g id="node25" class="node">
<title>Node25</title>
<g id="a_node25"><a xlink:href="classsteppable_1_1Fraction.html#a284bd42053126042231a5841f9198a98" target="_top" xlink:title="Multiplies two fractions together. This function does it by doing a simple fraction multiplication an...">
<polygon fill="none" stroke="black" points="868,-454 868,-484 978,-484 978,-454 868,-454"/>
<text text-anchor="start" x="876" y="-472" font-family="Helvetica,sans-Serif" font-size="10.00">steppable::Fraction</text>
<text text-anchor="middle" x="923" y="-461" font-family="Helvetica,sans-Serif" font-size="10.00">::operator*</text>
</a>
</g>
</g>
<!-- Node23&#45;&gt;Node25 -->
<g id="edge33" class="edge">
<title>Node23&#45;&gt;Node25</title>
<path fill="none" stroke="midnightblue" d="M1091.45,-392.87C1072.8,-409.11 1045.41,-430.67 1018,-444 1005.7,-449.98 991.77,-454.68 978.48,-458.31"/>
<polygon fill="midnightblue" stroke="midnightblue" points="1093.98,-395.31 1099.13,-386.05 1089.33,-390.07 1093.98,-395.31"/>
</g>
<!-- Node26 -->
<g id="node26" class="node">
<title>Node26</title>
<g id="a_node26"><a xlink:href="classsteppable_1_1Number.html#a3b71d87a5d1f7858ec8f80a4df84cc09" target="_top" xlink:title="Multiplies two numbers.">
<polygon fill="none" stroke="black" points="865,-405 865,-435 981,-435 981,-405 865,-405"/>
<text text-anchor="start" x="873" y="-423" font-family="Helvetica,sans-Serif" font-size="10.00">steppable::Number::</text>
<text text-anchor="middle" x="923" y="-412" font-family="Helvetica,sans-Serif" font-size="10.00">operator*</text>
</a>
</g>
</g>
<!-- Node23&#45;&gt;Node26 -->
<g id="edge34" class="edge">
<title>Node23&#45;&gt;Node26</title>
<path fill="none" stroke="midnightblue" d="M1046.7,-388.52C1025.24,-394.03 1001.78,-400.04 981.18,-405.33"/>
<polygon fill="midnightblue" stroke="midnightblue" points="1047.58,-391.91 1056.4,-386.03 1045.84,-385.13 1047.58,-391.91"/>
</g>
<!-- Node23&#45;&gt;Node27 -->
<g id="edge36" class="edge">
<title>Node23&#45;&gt;Node27</title>
<path fill="none" stroke="midnightblue" d="M1107.47,-346.18C1090.93,-293.22 1050.34,-171.71 1018,-144 1006.87,-134.47 992.45,-128.64 978.26,-125.1"/>
<polygon fill="midnightblue" stroke="midnightblue" points="1104.15,-347.29 1110.45,-355.81 1110.84,-345.22 1104.15,-347.29"/>
</g>
<!-- Node28 -->
<g id="node28" class="node">
<title>Node28</title>
<g id="a_node28"><a xlink:href="classsteppable_1_1Fraction.html#a6323244f0b10242c2044f3f920f4be0b" target="_top" xlink:title="Divides a fraction by abother fraction. This function does it by doing a simple fraction division (mu...">
<polygon fill="none" stroke="black" points="868,-356 868,-386 978,-386 978,-356 868,-356"/>
<text text-anchor="start" x="876" y="-374" font-family="Helvetica,sans-Serif" font-size="10.00">steppable::Fraction</text>
<text text-anchor="middle" x="923" y="-363" font-family="Helvetica,sans-Serif" font-size="10.00">::operator/</text>
</a>
</g>
</g>
<!-- Node23&#45;&gt;Node28 -->
<g id="edge37" class="edge">
<title>Node23&#45;&gt;Node28</title>
<path fill="none" stroke="midnightblue" d="M1043.63,-371C1021.93,-371 998.47,-371 978.11,-371"/>
<polygon fill="midnightblue" stroke="midnightblue" points="1043.78,-374.5 1053.78,-371 1043.78,-367.5 1043.78,-374.5"/>
</g>
<!-- Node23&#45;&gt;Node29 -->
<g id="edge38" class="edge">
<title>Node23&#45;&gt;Node29</title>
<path fill="none" stroke="midnightblue" d="M1109.66,-396.06C1098.93,-441.54 1071.12,-538.89 1018,-603 998.17,-626.94 966.71,-645.06 945.72,-655.35"/>
<polygon fill="midnightblue" stroke="midnightblue" points="1113.1,-396.7 1111.91,-386.17 1106.28,-395.14 1113.1,-396.7"/>
</g>
<!-- Node29&#45;&gt;Node7 -->
<g id="edge39" class="edge">
<title>Node29&#45;&gt;Node7</title>
<path fill="none" stroke="midnightblue" d="M886.32,-678.08C853.94,-689.94 806.21,-707.44 772.22,-719.89"/>
<polygon fill="midnightblue" stroke="midnightblue" points="887.66,-681.31 895.84,-674.59 885.25,-674.74 887.66,-681.31"/>
</g>
<!-- Node31 -->
<g id="node31" class="node">
<title>Node31</title>
<g id="a_node31"><a xlink:href="namespacesteppable_1_1____internals_1_1arithmetic.html#af7183da49ccdfb5a58325e6017ebd7c6" target="_top" xlink:title="Determines the scale for a product of two numbers.">
<polygon fill="none" stroke="black" points="1214,-373 1214,-403 1406,-403 1406,-373 1214,-373"/>
<text text-anchor="start" x="1222" y="-391" font-family="Helvetica,sans-Serif" font-size="10.00">steppable::__internals</text>
<text text-anchor="middle" x="1310" y="-380" font-family="Helvetica,sans-Serif" font-size="10.00">::arithmetic::determineProductScale</text>
</a>
</g>
</g>
<!-- Node30&#45;&gt;Node31 -->
<g id="edge43" class="edge">
<title>Node30&#45;&gt;Node31</title>
<path fill="none" stroke="midnightblue" d="M1431.91,-388C1423.52,-388 1414.86,-388 1406.21,-388"/>
<polygon fill="midnightblue" stroke="midnightblue" points="1431.99,-391.5 1441.99,-388 1431.99,-384.5 1431.99,-391.5"/>
</g>
<!-- Node31&#45;&gt;Node23 -->
<g id="edge44" class="edge">
<title>Node31&#45;&gt;Node23</title>
<path fill="none" stroke="midnightblue" d="M1203.88,-378.69C1195.07,-377.91 1186.37,-377.14 1178.08,-376.41"/>
<polygon fill="midnightblue" stroke="midnightblue" points="1203.57,-382.18 1213.84,-379.57 1204.19,-375.21 1203.57,-382.18"/>
</g>
<!-- Node32&#45;&gt;Node7 -->
<g id="edge49" class="edge">
<title>Node32&#45;&gt;Node7</title>
<path fill="none" stroke="midnightblue" d="M879.7,-803.51C844.72,-787.39 795.76,-764.84 763.72,-750.08"/>
<polygon fill="midnightblue" stroke="midnightblue" points="878.62,-806.87 889.17,-807.87 881.55,-800.51 878.62,-806.87"/>
</g>
<!-- Node33 -->
<g id="node33" class="node">
<title>Node33</title>
<g id="a_node33"><a xlink:href="namespacesteppable_1_1____internals_1_1arithmetic.html#a7ff9976bf48df9c832d7489e88004813" target="_top" xlink:title="Gets the greatest common divisor of two string representations of numbers.">
<polygon fill="none" stroke="black" points="668,-808 668,-838 792,-838 792,-808 668,-808"/>
<text text-anchor="start" x="676" y="-826" font-family="Helvetica,sans-Serif" font-size="10.00">steppable::__internals</text>
<text text-anchor="middle" x="730" y="-815" font-family="Helvetica,sans-Serif" font-size="10.00">::arithmetic::getGCD</text>
</a>
</g>
</g>
<!-- Node32&#45;&gt;Node33 -->
<g id="edge50" class="edge">
<title>Node32&#45;&gt;Node33</title>
<path fill="none" stroke="midnightblue" d="M817.66,-823C808.96,-823 800.36,-823 792.15,-823"/>
<polygon fill="midnightblue" stroke="midnightblue" points="817.9,-826.5 827.9,-823 817.9,-819.5 817.9,-826.5"/>
</g>
<!-- Node33&#45;&gt;Node10 -->
<g id="edge51" class="edge">
<title>Node33&#45;&gt;Node10</title>
<path fill="none" stroke="midnightblue" d="M657.85,-808.96C624.77,-802.44 587.98,-795.18 566.06,-790.86"/>
<polygon fill="midnightblue" stroke="midnightblue" points="657.49,-812.46 667.98,-810.96 658.84,-805.59 657.49,-812.46"/>
</g>
<!-- Node33&#45;&gt;Node17 -->
<g id="edge52" class="edge">
<title>Node33&#45;&gt;Node17</title>
<path fill="none" stroke="midnightblue" d="M657.87,-826.12C638.87,-826.95 618.65,-827.84 600.72,-828.62"/>
<polygon fill="midnightblue" stroke="midnightblue" points="658.14,-829.61 667.98,-825.68 657.83,-822.62 658.14,-829.61"/>
</g>
</g>
</svg>
        <g id="navigator" transform="translate(0 0)" fill="#404254">
                <rect fill="#f2f5e9" fill-opacity="0.5" stroke="#606060" stroke-width=".5" x="0" y="0" width="60" height="60"/>
                <use id="zoomplus" xlink:href="#zoomPlus" x="17" y="9" onmousedown="handleZoom(evt,'in')"/>
                <use id="zoomminus" xlink:href="#zoomMin" x="42" y="9" onmousedown="handleZoom(evt,'out')"/>
                <use id="reset" xlink:href="#resetDef" x="30" y="36" onmousedown="handleReset()"/>
                <g id="arrowUp" xlink:href="#dirArrow" transform="translate(30 24)" onmousedown="handlePan(0,-1)">
                  <use xlink:href="#rim" fill="#404040">
                        <set attributeName="fill" to="#808080" begin="arrowUp.mouseover" end="arrowUp.mouseout"/>
                  </use>
                  <path fill="none" stroke="white" stroke-width="1.5" d="M0,-3.0v7 M-2.5,-0.5L0,-3.0L2.5,-0.5"/>
                </g>
                <g id="arrowRight" xlink:href="#dirArrow" transform="rotate(90) translate(36 -43)" onmousedown="handlePan(1,0)">
                  <use xlink:href="#rim" fill="#404040">
                        <set attributeName="fill" to="#808080" begin="arrowRight.mouseover" end="arrowRight.mouseout"/>
                  </use>
                  <path fill="none" stroke="white" stroke-width="1.5" d="M0,-3.0v7 M-2.5,-0.5L0,-3.0L2.5,-0.5"/>
                </g>
                <g id="arrowDown" xlink:href="#dirArrow" transform="rotate(180) translate(-30 -48)" onmousedown="handlePan(0,1)">
                  <use xlink:href="#rim" fill="#404040">
                        <set attributeName="fill" to="#808080" begin="arrowDown.mouseover" end="arrowDown.mouseout"/>
                  </use>
                  <path fill="none" stroke="white" stroke-width="1.5" d="M0,-3.0v7 M-2.5,-0.5L0,-3.0L2.5,-0.5"/>
                </g>
                <g id="arrowLeft" xlink:href="#dirArrow" transform="rotate(270) translate(-36 17)" onmousedown="handlePan(-1,0)">
                  <use xlink:href="#rim" fill="#404040">
                        <set attributeName="fill" to="#808080" begin="arrowLeft.mouseover" end="arrowLeft.mouseout"/>
                  </use>
                  <path fill="none" stroke="white" stroke-width="1.5" d="M0,-3.0v7 M-2.5,-0.5L0,-3.0L2.5,-0.5"/>
                </g>
        </g>
        <svg viewBox="0 0 15 15" width="100%" height="30px" preserveAspectRatio="xMaxYMin meet">
         <g id="arrow_out" transform="scale(0.3 0.3)">
          <a xlink:href="namespacesteppable_1_1____internals_1_1arithmetic_ae61ae2915786a49aebb7025105cf058e_icgraph_org.svg" target="_base">
           <rect id="button" ry="5" rx="5" y="6" x="6" height="38" width="38"
                fill="#f2f5e9" fill-opacity="0.5" stroke="#606060" stroke-width="1.0"/>
           <path id="arrow"
             d="M 11.500037,31.436501 C 11.940474,20.09759 22.043105,11.32322 32.158766,21.979434 L 37.068811,17.246167 C 37.068811,17.246167 37.088388,32 37.088388,32 L 22.160133,31.978069 C 22.160133,31.978069 26.997745,27.140456 26.997745,27.140456 C 18.528582,18.264221 13.291696,25.230495 11.500037,31.436501 z"
             style="fill:#404040;"/>
          </a>
         </g>
        </svg>
</svg>
