<?xml version="1.0" encoding="UTF-8" standalone="no"?>
<!DOCTYPE svg PUBLIC "-//W3C//DTD SVG 1.1//EN"
 "http://www.w3.org/Graphics/SVG/1.1/DTD/svg11.dtd">
<!-- Generated by graphviz version 12.2.0 (20241103.1931)
 -->
<!-- Title: ImGui::LoadIniSettingsFromDisk Pages: 1 -->
<svg width="731pt" height="87pt"
 viewBox="0.00 0.00 730.50 86.75" xmlns="http://www.w3.org/2000/svg" xmlns:xlink="http://www.w3.org/1999/xlink">
<g id="graph0" class="graph" transform="scale(1 1) rotate(0) translate(4 82.75)">
<title>ImGui::LoadIniSettingsFromDisk</title>
<!-- Node1 -->
<g id="Node000001" class="node">
<title>Node1</title>
<g id="a_Node000001"><a xlink:title=" ">
<polygon fill="#999999" stroke="#666666" points="172.75,-58.75 0,-58.75 0,-38 172.75,-38 172.75,-58.75"/>
<text text-anchor="middle" x="86.38" y="-45.25" font-family="Helvetica,sans-Serif" font-size="10.00">ImGui::LoadIniSettingsFromDisk</text>
</a>
</g>
</g>
<!-- Node2 -->
<g id="Node000002" class="node">
<title>Node2</title>
<g id="a_Node000002"><a xlink:href="namespaceImGui.html#a8e37b6a0b2feb6cd6ac61a4259392861" target="_top" xlink:title=" ">
<polygon fill="white" stroke="#666666" points="359.75,-65.12 208.75,-65.12 208.75,-31.62 359.75,-31.62 359.75,-65.12"/>
<text text-anchor="start" x="216.75" y="-51.62" font-family="Helvetica,sans-Serif" font-size="10.00">ImGui::LoadIniSettingsFrom</text>
<text text-anchor="middle" x="284.25" y="-38.88" font-family="Helvetica,sans-Serif" font-size="10.00">Memory</text>
</a>
</g>
</g>
<!-- Node1&#45;&gt;Node2 -->
<g id="edge1_Node000001_Node000002" class="edge">
<title>Node1&#45;&gt;Node2</title>
<g id="a_edge1_Node000001_Node000002"><a xlink:title=" ">
<path fill="none" stroke="#63b8ff" d="M173,-48.38C181.05,-48.38 189.21,-48.38 197.26,-48.38"/>
<polygon fill="#63b8ff" stroke="#63b8ff" points="197.03,-51.88 207.03,-48.38 197.03,-44.88 197.03,-51.88"/>
</a>
</g>
</g>
<!-- Node3 -->
<g id="Node000003" class="node">
<title>Node3</title>
<g id="a_Node000003"><a xlink:href="namespaceImGui.html#ad9e15440c52f63aa96ef3b3938d566f8" target="_top" xlink:title=" ">
<polygon fill="white" stroke="#666666" points="545.25,-78.75 395.75,-78.75 395.75,-58 545.25,-58 545.25,-78.75"/>
<text text-anchor="middle" x="470.5" y="-65.25" font-family="Helvetica,sans-Serif" font-size="10.00">ImGui::FindSettingsHandler</text>
</a>
</g>
</g>
<!-- Node2&#45;&gt;Node3 -->
<g id="edge2_Node000002_Node000003" class="edge">
<title>Node2&#45;&gt;Node3</title>
<g id="a_edge2_Node000002_Node000003"><a xlink:title=" ">
<path fill="none" stroke="#63b8ff" d="M360.19,-56.51C368.11,-57.37 376.21,-58.25 384.24,-59.12"/>
<polygon fill="#63b8ff" stroke="#63b8ff" points="383.7,-62.58 394.02,-60.18 384.45,-55.62 383.7,-62.58"/>
</a>
</g>
</g>
<!-- Node4 -->
<g id="Node000004" class="node">
<title>Node4</title>
<g id="a_Node000004"><a xlink:href="structImVector.html#ac371dd62e56ae486b1a5038cf07eee56" target="_top" xlink:title=" ">
<polygon fill="white" stroke="#666666" points="517.88,-39.75 423.12,-39.75 423.12,-19 517.88,-19 517.88,-39.75"/>
<text text-anchor="middle" x="470.5" y="-26.25" font-family="Helvetica,sans-Serif" font-size="10.00">ImVector::resize</text>
</a>
</g>
</g>
<!-- Node2&#45;&gt;Node4 -->
<g id="edge3_Node000002_Node000004" class="edge">
<title>Node2&#45;&gt;Node4</title>
<g id="a_edge3_Node000002_Node000004"><a xlink:title=" ">
<path fill="none" stroke="#63b8ff" d="M360.19,-40.65C377.35,-38.88 395.34,-37.02 411.65,-35.34"/>
<polygon fill="#63b8ff" stroke="#63b8ff" points="411.55,-38.87 421.14,-34.36 410.84,-31.91 411.55,-38.87"/>
</a>
</g>
</g>
<!-- Node5 -->
<g id="Node000005" class="node">
<title>Node5</title>
<g id="a_Node000005"><a xlink:href="structImVector.html#a3a097635d464b1b70dc7d59996a88b28" target="_top" xlink:title=" ">
<polygon fill="white" stroke="#666666" points="722.5,-59.75 581.25,-59.75 581.25,-39 722.5,-39 722.5,-59.75"/>
<text text-anchor="middle" x="651.88" y="-46.25" font-family="Helvetica,sans-Serif" font-size="10.00">ImVector::_grow_capacity</text>
</a>
</g>
</g>
<!-- Node4&#45;&gt;Node5 -->
<g id="edge4_Node000004_Node000005" class="edge">
<title>Node4&#45;&gt;Node5</title>
<g id="a_edge4_Node000004_Node000005"><a xlink:title=" ">
<path fill="none" stroke="#63b8ff" d="M518.16,-34.58C533.83,-36.32 551.79,-38.33 569.34,-40.28"/>
<polygon fill="#63b8ff" stroke="#63b8ff" points="568.95,-43.76 579.27,-41.39 569.72,-36.8 568.95,-43.76"/>
</a>
</g>
</g>
<!-- Node6 -->
<g id="Node000006" class="node">
<title>Node6</title>
<g id="a_Node000006"><a xlink:href="structImVector.html#a0f14f5736c3372157856eebb67123b75" target="_top" xlink:title=" ">
<polygon fill="white" stroke="#666666" points="703,-20.75 600.75,-20.75 600.75,0 703,0 703,-20.75"/>
<text text-anchor="middle" x="651.88" y="-7.25" font-family="Helvetica,sans-Serif" font-size="10.00">ImVector::reserve</text>
</a>
</g>
</g>
<!-- Node4&#45;&gt;Node6 -->
<g id="edge5_Node000004_Node000006" class="edge">
<title>Node4&#45;&gt;Node6</title>
<g id="a_edge5_Node000004_Node000006"><a xlink:title=" ">
<path fill="none" stroke="#63b8ff" d="M518.16,-24.43C539.84,-22.14 565.91,-19.37 589.19,-16.91"/>
<polygon fill="#63b8ff" stroke="#63b8ff" points="589.28,-20.42 598.85,-15.89 588.54,-13.46 589.28,-20.42"/>
</a>
</g>
</g>
</g>
</svg>
