<?xml version="1.0" encoding="UTF-8" standalone="no"?>
<!DOCTYPE svg PUBLIC "-//W3C//DTD SVG 1.1//EN"
 "http://www.w3.org/Graphics/SVG/1.1/DTD/svg11.dtd">
<!-- Generated by graphviz version 2.43.0 (0)
 -->
<!-- Title: steppable::output::error Pages: 1 -->
<svg width="436pt" height="137pt"
 viewBox="0.00 0.00 436.00 137.00" xmlns="http://www.w3.org/2000/svg" xmlns:xlink="http://www.w3.org/1999/xlink">
<g id="graph0" class="graph" transform="scale(1 1) rotate(0) translate(4 133)">
<title>steppable::output::error</title>
<!-- Node1 -->
<g id="node1" class="node">
<title>Node1</title>
<g id="a_node1"><a xlink:title="Prints an error message.">
<polygon fill="#bfbfbf" stroke="black" points="0,-49.5 0,-79.5 108,-79.5 108,-49.5 0,-49.5"/>
<text text-anchor="start" x="8" y="-67.5" font-family="Helvetica,sans-Serif" font-size="10.00">steppable::output::</text>
<text text-anchor="middle" x="54" y="-56.5" font-family="Helvetica,sans-Serif" font-size="10.00">error</text>
</a>
</g>
</g>
<!-- Node2 -->
<g id="node2" class="node">
<title>Node2</title>
<g id="a_node2"><a xlink:href="namespacesteppable_1_1____internals_1_1utils_1_1formats.html#a020bdff691dad4ade1a65f76bef6bfd0" target="_top" xlink:title="Set the text format to bold.">
<polygon fill="none" stroke="black" points="144,-98.5 144,-128.5 268,-128.5 268,-98.5 144,-98.5"/>
<text text-anchor="start" x="152" y="-116.5" font-family="Helvetica,sans-Serif" font-size="10.00">steppable::__internals</text>
<text text-anchor="middle" x="206" y="-105.5" font-family="Helvetica,sans-Serif" font-size="10.00">::utils::formats::bold</text>
</a>
</g>
</g>
<!-- Node1&#45;&gt;Node2 -->
<g id="edge1" class="edge">
<title>Node1&#45;&gt;Node2</title>
<path fill="none" stroke="midnightblue" d="M101.23,-79.6C116.41,-84.56 133.45,-90.13 149.26,-95.29"/>
<polygon fill="midnightblue" stroke="midnightblue" points="148.33,-98.67 158.92,-98.45 150.5,-92.02 148.33,-98.67"/>
</g>
<!-- Node4 -->
<g id="node4" class="node">
<title>Node4</title>
<g id="a_node4"><a xlink:href="namespacesteppable_1_1____internals_1_1utils_1_1colors.html#a36cc73ec1844a03d7cba5b409109c999" target="_top" xlink:title="Set the text color to red.">
<polygon fill="none" stroke="black" points="144,-49.5 144,-79.5 268,-79.5 268,-49.5 144,-49.5"/>
<text text-anchor="start" x="152" y="-67.5" font-family="Helvetica,sans-Serif" font-size="10.00">steppable::__internals</text>
<text text-anchor="middle" x="206" y="-56.5" font-family="Helvetica,sans-Serif" font-size="10.00">::utils::colors::red</text>
</a>
</g>
</g>
<!-- Node1&#45;&gt;Node4 -->
<g id="edge3" class="edge">
<title>Node1&#45;&gt;Node4</title>
<path fill="none" stroke="midnightblue" d="M108.31,-64.5C116.6,-64.5 125.28,-64.5 133.89,-64.5"/>
<polygon fill="midnightblue" stroke="midnightblue" points="133.94,-68 143.94,-64.5 133.94,-61 133.94,-68"/>
</g>
<!-- Node5 -->
<g id="node5" class="node">
<title>Node5</title>
<g id="a_node5"><a xlink:href="namespacesteppable_1_1____internals_1_1utils.html#a1d55e037764ba41ec8682f00b30701ff" target="_top" xlink:title="Reset the text color and format to the default values.">
<polygon fill="none" stroke="black" points="144,-0.5 144,-30.5 268,-30.5 268,-0.5 144,-0.5"/>
<text text-anchor="start" x="152" y="-18.5" font-family="Helvetica,sans-Serif" font-size="10.00">steppable::__internals</text>
<text text-anchor="middle" x="206" y="-7.5" font-family="Helvetica,sans-Serif" font-size="10.00">::utils::reset</text>
</a>
</g>
</g>
<!-- Node1&#45;&gt;Node5 -->
<g id="edge5" class="edge">
<title>Node1&#45;&gt;Node5</title>
<path fill="none" stroke="midnightblue" d="M101.23,-49.4C116.41,-44.44 133.45,-38.87 149.26,-33.71"/>
<polygon fill="midnightblue" stroke="midnightblue" points="150.5,-36.98 158.92,-30.55 148.33,-30.33 150.5,-36.98"/>
</g>
<!-- Node3 -->
<g id="node3" class="node">
<title>Node3</title>
<g id="a_node3"><a xlink:href="namespacesteppable_1_1____internals_1_1utils.html#a65d6e9f0b589e6d5eab0da73a4ebb16c" target="_top" xlink:title="Check if the output stream is a terminal.">
<polygon fill="none" stroke="black" points="304,-49.5 304,-79.5 428,-79.5 428,-49.5 304,-49.5"/>
<text text-anchor="start" x="312" y="-67.5" font-family="Helvetica,sans-Serif" font-size="10.00">steppable::__internals</text>
<text text-anchor="middle" x="366" y="-56.5" font-family="Helvetica,sans-Serif" font-size="10.00">::utils::isTerminal</text>
</a>
</g>
</g>
<!-- Node2&#45;&gt;Node3 -->
<g id="edge2" class="edge">
<title>Node2&#45;&gt;Node3</title>
<path fill="none" stroke="midnightblue" d="M255.69,-98.4C271.84,-93.39 289.97,-87.77 306.76,-82.56"/>
<polygon fill="midnightblue" stroke="midnightblue" points="307.95,-85.86 316.47,-79.55 305.88,-79.17 307.95,-85.86"/>
</g>
<!-- Node4&#45;&gt;Node3 -->
<g id="edge4" class="edge">
<title>Node4&#45;&gt;Node3</title>
<path fill="none" stroke="midnightblue" d="M268.09,-64.5C276.51,-64.5 285.23,-64.5 293.81,-64.5"/>
<polygon fill="midnightblue" stroke="midnightblue" points="293.82,-68 303.82,-64.5 293.82,-61 293.82,-68"/>
</g>
<!-- Node5&#45;&gt;Node3 -->
<g id="edge6" class="edge">
<title>Node5&#45;&gt;Node3</title>
<path fill="none" stroke="midnightblue" d="M255.69,-30.6C271.84,-35.61 289.97,-41.23 306.76,-46.44"/>
<polygon fill="midnightblue" stroke="midnightblue" points="305.88,-49.83 316.47,-49.45 307.95,-43.14 305.88,-49.83"/>
</g>
</g>
</svg>
