<?xml version="1.0" encoding="UTF-8" standalone="no"?>
<!DOCTYPE svg PUBLIC "-//W3C//DTD SVG 1.1//EN"
 "http://www.w3.org/Graphics/SVG/1.1/DTD/svg11.dtd">
<!-- Generated by graphviz version 12.0.0 (20240704.0754)
 -->
<!-- Title: ImGui::ShowAboutWindow Pages: 1 -->
<svg width="874pt" height="1831pt"
 viewBox="0.00 0.00 874.00 1831.12" xmlns="http://www.w3.org/2000/svg" xmlns:xlink="http://www.w3.org/1999/xlink">
<g id="graph0" class="graph" transform="scale(1 1) rotate(0) translate(4 1827.12)">
<title>ImGui::ShowAboutWindow</title>
<!-- Node1 -->
<g id="Node000001" class="node">
<title>Node1</title>
<g id="a_Node000001"><a xlink:title=" ">
<polygon fill="#999999" stroke="#666666" points="145,-344.75 0,-344.75 0,-324 145,-324 145,-344.75"/>
<text text-anchor="middle" x="72.5" y="-331.25" font-family="Helvetica,sans-Serif" font-size="10.00">ImGui::ShowAboutWindow</text>
</a>
</g>
</g>
<!-- Node2 -->
<g id="Node000002" class="node">
<title>Node2</title>
<g id="a_Node000002"><a xlink:href="namespaceImGui.html#a581e58db0bc930bafa4a5d23093a2b99" target="_top" xlink:title=" ">
<polygon fill="#fff0f0" stroke="red" points="291.12,-1121.75 212.12,-1121.75 212.12,-1101 291.12,-1101 291.12,-1121.75"/>
<text text-anchor="middle" x="251.62" y="-1108.25" font-family="Helvetica,sans-Serif" font-size="10.00">ImGui::Begin</text>
</a>
</g>
</g>
<!-- Node1&#45;&gt;Node2 -->
<g id="edge1_Node000001_Node000002" class="edge">
<title>Node1&#45;&gt;Node2</title>
<g id="a_edge1_Node000001_Node000002"><a xlink:title=" ">
<path fill="none" stroke="#63b8ff" d="M75.94,-345.06C94.94,-428.42 219.37,-974.28 245.73,-1089.89"/>
<polygon fill="#63b8ff" stroke="#63b8ff" points="242.24,-1090.32 247.87,-1099.29 249.06,-1088.76 242.24,-1090.32"/>
</a>
</g>
</g>
<!-- Node339 -->
<g id="Node000339" class="node">
<title>Node339</title>
<g id="a_Node000339"><a xlink:href="namespaceImGui.html#aebac8b07ee9ea0e452c98813a3e907c3" target="_top" xlink:title=" ">
<polygon fill="#fff0f0" stroke="red" points="303.5,-613.75 199.75,-613.75 199.75,-593 303.5,-593 303.5,-613.75"/>
<text text-anchor="middle" x="251.62" y="-600.25" font-family="Helvetica,sans-Serif" font-size="10.00">ImGui::BeginChild</text>
</a>
</g>
</g>
<!-- Node1&#45;&gt;Node339 -->
<g id="edge37_Node000001_Node000339" class="edge">
<title>Node1&#45;&gt;Node339</title>
<g id="a_edge37_Node000001_Node000339"><a xlink:title=" ">
<path fill="none" stroke="#63b8ff" d="M74.85,-344.99C80.27,-383.29 104.11,-515.73 181,-583.38 183.61,-585.67 186.46,-587.7 189.48,-589.5"/>
<polygon fill="#63b8ff" stroke="#63b8ff" points="187.7,-592.52 198.22,-593.82 190.81,-586.25 187.7,-592.52"/>
</a>
</g>
</g>
<!-- Node348 -->
<g id="Node000348" class="node">
<title>Node348</title>
<g id="a_Node000348"><a xlink:href="namespaceImGui.html#a38094c568ce398db5a3abb9d3ac92030" target="_top" xlink:title=" ">
<polygon fill="#fff0f0" stroke="red" points="293.38,-574.75 209.88,-574.75 209.88,-554 293.38,-554 293.38,-574.75"/>
<text text-anchor="middle" x="251.62" y="-561.25" font-family="Helvetica,sans-Serif" font-size="10.00">ImGui::Button</text>
</a>
</g>
</g>
<!-- Node1&#45;&gt;Node348 -->
<g id="edge38_Node000001_Node000348" class="edge">
<title>Node1&#45;&gt;Node348</title>
<g id="a_edge38_Node000001_Node000348"><a xlink:title=" ">
<path fill="none" stroke="#63b8ff" d="M75.77,-344.98C83.68,-379.35 113.33,-488.67 181,-544.38 186.35,-548.78 192.63,-552.22 199.18,-554.9"/>
<polygon fill="#63b8ff" stroke="#63b8ff" points="197.59,-558.05 208.19,-558.02 199.88,-551.44 197.59,-558.05"/>
</a>
</g>
</g>
<!-- Node352 -->
<g id="Node000352" class="node">
<title>Node352</title>
<g id="a_Node000352"><a xlink:href="namespaceImGui.html#a57d73c1d0ef807fef734d91024092027" target="_top" xlink:title=" ">
<polygon fill="#fff0f0" stroke="red" points="301.25,-535.75 202,-535.75 202,-515 301.25,-515 301.25,-535.75"/>
<text text-anchor="middle" x="251.62" y="-522.25" font-family="Helvetica,sans-Serif" font-size="10.00">ImGui::Checkbox</text>
</a>
</g>
</g>
<!-- Node1&#45;&gt;Node352 -->
<g id="edge39_Node000001_Node000352" class="edge">
<title>Node1&#45;&gt;Node352</title>
<g id="a_edge39_Node000001_Node000352"><a xlink:title=" ">
<path fill="none" stroke="#63b8ff" d="M77.12,-345.1C87.84,-375.23 122.42,-461.33 181,-505.38 184.16,-507.75 187.6,-509.85 191.19,-511.69"/>
<polygon fill="#63b8ff" stroke="#63b8ff" points="189.7,-514.86 200.26,-515.66 192.5,-508.45 189.7,-514.86"/>
</a>
</g>
</g>
<!-- Node97 -->
<g id="Node000097" class="node">
<title>Node97</title>
<g id="a_Node000097"><a xlink:href="namespaceImGui.html#a5479d93794a004c67ceb6d13f37c8254" target="_top" xlink:title=" ">
<polygon fill="#fff0f0" stroke="red" points="482.62,-458.75 413.38,-458.75 413.38,-438 482.62,-438 482.62,-458.75"/>
<text text-anchor="middle" x="448" y="-445.25" font-family="Helvetica,sans-Serif" font-size="10.00">ImGui::End</text>
</a>
</g>
</g>
<!-- Node1&#45;&gt;Node97 -->
<g id="edge40_Node000001_Node000097" class="edge">
<title>Node1&#45;&gt;Node97</title>
<g id="a_edge40_Node000001_Node000097"><a xlink:title=" ">
<path fill="none" stroke="#63b8ff" d="M82.2,-345.08C98.95,-364.79 137.84,-406.46 181,-424.38 253.81,-454.6 347.24,-455.27 401.78,-452.3"/>
<polygon fill="#63b8ff" stroke="#63b8ff" points="401.86,-455.8 411.63,-451.69 401.43,-448.82 401.86,-455.8"/>
</a>
</g>
</g>
<!-- Node163 -->
<g id="Node000163" class="node">
<title>Node163</title>
<g id="a_Node000163"><a xlink:href="namespaceImGui.html#a2ebcd048d1ca025fb972e1c2e920e3f3" target="_top" xlink:title=" ">
<polygon fill="#fff0f0" stroke="red" points="706,-420.75 609,-420.75 609,-400 706,-400 706,-420.75"/>
<text text-anchor="middle" x="657.5" y="-407.25" font-family="Helvetica,sans-Serif" font-size="10.00">ImGui::LogFinish</text>
</a>
</g>
</g>
<!-- Node1&#45;&gt;Node163 -->
<g id="edge50_Node000001_Node000163" class="edge">
<title>Node1&#45;&gt;Node163</title>
<g id="a_edge50_Node000001_Node000163"><a xlink:title=" ">
<path fill="none" stroke="#63b8ff" d="M90.18,-345.08C110.65,-357.57 146.86,-377.64 181,-386.38 326.95,-423.72 506.1,-420.05 597.2,-414.84"/>
<polygon fill="#63b8ff" stroke="#63b8ff" points="597.38,-418.34 607.15,-414.24 596.96,-411.35 597.38,-418.34"/>
</a>
</g>
</g>
<!-- Node168 -->
<g id="Node000168" class="node">
<title>Node168</title>
<g id="a_Node000168"><a xlink:href="namespaceImGui.html#aa548475d8f771ab6524d73d900a41198" target="_top" xlink:title=" ">
<polygon fill="white" stroke="#666666" points="866,-401.75 777.25,-401.75 777.25,-381 866,-381 866,-401.75"/>
<text text-anchor="middle" x="821.62" y="-388.25" font-family="Helvetica,sans-Serif" font-size="10.00">ImGui::LogText</text>
</a>
</g>
</g>
<!-- Node1&#45;&gt;Node168 -->
<g id="edge51_Node000001_Node000168" class="edge">
<title>Node1&#45;&gt;Node168</title>
<g id="a_edge51_Node000001_Node000168"><a xlink:title=" ">
<path fill="none" stroke="#63b8ff" d="M127.73,-345.22C144.73,-348.28 163.59,-351.33 181,-353.38 396.54,-378.74 655.04,-387.51 765.84,-390.25"/>
<polygon fill="#63b8ff" stroke="#63b8ff" points="765.45,-393.74 775.53,-390.49 765.61,-386.75 765.45,-393.74"/>
</a>
</g>
</g>
<!-- Node355 -->
<g id="Node000355" class="node">
<title>Node355</title>
<g id="a_Node000355"><a xlink:href="namespaceImGui.html#af8de559a88c1442d6df8c1b04c86e997" target="_top" xlink:title=" ">
<polygon fill="#fff0f0" stroke="red" points="298.62,-496.75 204.62,-496.75 204.62,-476 298.62,-476 298.62,-496.75"/>
<text text-anchor="middle" x="251.62" y="-483.25" font-family="Helvetica,sans-Serif" font-size="10.00">ImGui::EndChild</text>
</a>
</g>
</g>
<!-- Node1&#45;&gt;Node355 -->
<g id="edge44_Node000001_Node000355" class="edge">
<title>Node1&#45;&gt;Node355</title>
<g id="a_edge44_Node000001_Node000355"><a xlink:title=" ">
<path fill="none" stroke="#63b8ff" d="M79.6,-344.99C94.07,-369.27 132.93,-429.34 181,-462.38 186.01,-465.81 191.55,-468.8 197.26,-471.39"/>
<polygon fill="#63b8ff" stroke="#63b8ff" points="195.66,-474.52 206.24,-475.06 198.3,-468.04 195.66,-474.52"/>
</a>
</g>
</g>
<!-- Node356 -->
<g id="Node000356" class="node">
<title>Node356</title>
<g id="a_Node000356"><a xlink:href="namespaceImGui.html#a3329b04bd4235e90ad9deb00ffb38ae4" target="_top" xlink:title=" ">
<polygon fill="#fff0f0" stroke="red" points="291.12,-344.75 212.12,-344.75 212.12,-324 291.12,-324 291.12,-344.75"/>
<text text-anchor="middle" x="251.62" y="-331.25" font-family="Helvetica,sans-Serif" font-size="10.00">ImGui::GetID</text>
</a>
</g>
</g>
<!-- Node1&#45;&gt;Node356 -->
<g id="edge46_Node000001_Node000356" class="edge">
<title>Node1&#45;&gt;Node356</title>
<g id="a_edge46_Node000001_Node000356"><a xlink:title=" ">
<path fill="none" stroke="#63b8ff" d="M145.29,-334.38C163.83,-334.38 183.39,-334.38 200.56,-334.38"/>
<polygon fill="#63b8ff" stroke="#63b8ff" points="200.51,-337.88 210.51,-334.38 200.51,-330.88 200.51,-337.88"/>
</a>
</g>
</g>
<!-- Node357 -->
<g id="Node000357" class="node">
<title>Node357</title>
<g id="a_Node000357"><a xlink:href="namespaceImGui.html#a3179e560812f878f3961ce803a5d9302" target="_top" xlink:title=" ">
<polygon fill="white" stroke="#666666" points="291.12,-305.75 212.12,-305.75 212.12,-285 291.12,-285 291.12,-305.75"/>
<text text-anchor="middle" x="251.62" y="-292.25" font-family="Helvetica,sans-Serif" font-size="10.00">ImGui::GetIO</text>
</a>
</g>
</g>
<!-- Node1&#45;&gt;Node357 -->
<g id="edge47_Node000001_Node000357" class="edge">
<title>Node1&#45;&gt;Node357</title>
<g id="a_edge47_Node000001_Node000357"><a xlink:title=" ">
<path fill="none" stroke="#63b8ff" d="M122.84,-323.51C147.05,-318.18 176.17,-311.77 200.49,-306.41"/>
<polygon fill="#63b8ff" stroke="#63b8ff" points="201.15,-309.85 210.16,-304.28 199.64,-303.02 201.15,-309.85"/>
</a>
</g>
</g>
<!-- Node358 -->
<g id="Node000358" class="node">
<title>Node358</title>
<g id="a_Node000358"><a xlink:href="namespaceImGui.html#abafef4bb3e3654efd96a47b2e22870a7" target="_top" xlink:title=" ">
<polygon fill="white" stroke="#666666" points="298.25,-266.75 205,-266.75 205,-246 298.25,-246 298.25,-266.75"/>
<text text-anchor="middle" x="251.62" y="-253.25" font-family="Helvetica,sans-Serif" font-size="10.00">ImGui::GetStyle</text>
</a>
</g>
</g>
<!-- Node1&#45;&gt;Node358 -->
<g id="edge48_Node000001_Node000358" class="edge">
<title>Node1&#45;&gt;Node358</title>
<g id="a_edge48_Node000001_Node000358"><a xlink:title=" ">
<path fill="none" stroke="#63b8ff" d="M90.81,-323.52C111.6,-310.85 147.82,-289.91 181,-276.38 185.98,-274.34 191.24,-272.43 196.54,-270.66"/>
<polygon fill="#63b8ff" stroke="#63b8ff" points="197.5,-274.03 205.98,-267.68 195.39,-267.36 197.5,-274.03"/>
</a>
</g>
</g>
<!-- Node359 -->
<g id="Node000359" class="node">
<title>Node359</title>
<g id="a_Node000359"><a xlink:href="namespaceImGui.html#aa1616f6082fd210fde8d98c511bf8f56" target="_top" xlink:title=" ">
<polygon fill="white" stroke="#666666" points="322.25,-228.12 181,-228.12 181,-194.62 322.25,-194.62 322.25,-228.12"/>
<text text-anchor="start" x="189" y="-214.62" font-family="Helvetica,sans-Serif" font-size="10.00">ImGui::GetTextLineHeight</text>
<text text-anchor="middle" x="251.62" y="-201.88" font-family="Helvetica,sans-Serif" font-size="10.00">WithSpacing</text>
</a>
</g>
</g>
<!-- Node1&#45;&gt;Node359 -->
<g id="edge49_Node000001_Node000359" class="edge">
<title>Node1&#45;&gt;Node359</title>
<g id="a_edge49_Node000001_Node000359"><a xlink:title=" ">
<path fill="none" stroke="#63b8ff" d="M82.83,-323.61C100.32,-304.03 139.96,-262.3 181,-237.38 183.15,-236.07 185.38,-234.81 187.66,-233.6"/>
<polygon fill="#63b8ff" stroke="#63b8ff" points="189.09,-236.8 196.55,-229.27 186.03,-230.5 189.09,-236.8"/>
</a>
</g>
</g>
<!-- Node360 -->
<g id="Node000360" class="node">
<title>Node360</title>
<g id="a_Node000360"><a xlink:href="namespaceImGui.html#a70e12f01ecb65747c9a70b73555b6ec1" target="_top" xlink:title=" ">
<polygon fill="#fff0f0" stroke="red" points="314.38,-176.75 188.88,-176.75 188.88,-156 314.38,-156 314.38,-176.75"/>
<text text-anchor="middle" x="251.62" y="-163.25" font-family="Helvetica,sans-Serif" font-size="10.00">ImGui::LogToClipboard</text>
</a>
</g>
</g>
<!-- Node1&#45;&gt;Node360 -->
<g id="edge52_Node000001_Node000360" class="edge">
<title>Node1&#45;&gt;Node360</title>
<g id="a_edge52_Node000001_Node000360"><a xlink:title=" ">
<path fill="none" stroke="#63b8ff" d="M78.02,-323.83C90.3,-296.48 127,-222.81 181,-185.38 182.78,-184.14 184.63,-182.99 186.54,-181.92"/>
<polygon fill="#63b8ff" stroke="#63b8ff" points="187.64,-185.27 195.13,-177.78 184.61,-178.96 187.64,-185.27"/>
</a>
</g>
</g>
<!-- Node178 -->
<g id="Node000178" class="node">
<title>Node178</title>
<g id="a_Node000178"><a xlink:href="namespaceImGui.html#addd433eb3aae59119e341e80db474f66" target="_top" xlink:title=" ">
<polygon fill="white" stroke="#666666" points="301.25,-137.75 202,-137.75 202,-117 301.25,-117 301.25,-137.75"/>
<text text-anchor="middle" x="251.62" y="-124.25" font-family="Helvetica,sans-Serif" font-size="10.00">ImGui::SameLine</text>
</a>
</g>
</g>
<!-- Node1&#45;&gt;Node178 -->
<g id="edge53_Node000001_Node000178" class="edge">
<title>Node1&#45;&gt;Node178</title>
<g id="a_edge53_Node000001_Node000178"><a xlink:title=" ">
<path fill="none" stroke="#63b8ff" d="M76.53,-323.59C86.1,-291.54 118.79,-196.09 181,-147.38 184.26,-144.82 187.84,-142.59 191.59,-140.65"/>
<polygon fill="#63b8ff" stroke="#63b8ff" points="192.72,-143.98 200.46,-136.75 189.9,-137.57 192.72,-143.98"/>
</a>
</g>
</g>
<!-- Node362 -->
<g id="Node000362" class="node">
<title>Node362</title>
<g id="a_Node000362"><a xlink:href="namespaceImGui.html#a191123597a5084d003c8beac7eeb029e" target="_top" xlink:title=" ">
<polygon fill="#fff0f0" stroke="red" points="300.88,-98.75 202.38,-98.75 202.38,-78 300.88,-78 300.88,-98.75"/>
<text text-anchor="middle" x="251.62" y="-85.25" font-family="Helvetica,sans-Serif" font-size="10.00">ImGui::Separator</text>
</a>
</g>
</g>
<!-- Node1&#45;&gt;Node362 -->
<g id="edge54_Node000001_Node000362" class="edge">
<title>Node1&#45;&gt;Node362</title>
<g id="a_edge54_Node000001_Node000362"><a xlink:title=" ">
<path fill="none" stroke="#63b8ff" d="M75.36,-323.74C82.23,-287.68 109.58,-168.93 181,-108.38 184.21,-105.65 187.77,-103.3 191.54,-101.27"/>
<polygon fill="#63b8ff" stroke="#63b8ff" points="192.82,-104.53 200.5,-97.22 189.95,-98.15 192.82,-104.53"/>
</a>
</g>
</g>
<!-- Node368 -->
<g id="Node000368" class="node">
<title>Node368</title>
<g id="a_Node000368"><a xlink:href="namespaceImGui.html#a9e7b83611fe441d54fad2effb4bf4965" target="_top" xlink:title=" ">
<polygon fill="#fff0f0" stroke="red" points="287.38,-59.75 215.88,-59.75 215.88,-39 287.38,-39 287.38,-59.75"/>
<text text-anchor="middle" x="251.62" y="-46.25" font-family="Helvetica,sans-Serif" font-size="10.00">ImGui::Text</text>
</a>
</g>
</g>
<!-- Node1&#45;&gt;Node368 -->
<g id="edge55_Node000001_Node000368" class="edge">
<title>Node1&#45;&gt;Node368</title>
<g id="a_edge55_Node000001_Node000368"><a xlink:title=" ">
<path fill="none" stroke="#63b8ff" d="M74.55,-323.65C79.06,-283.68 100.35,-141.93 181,-69.38 187.71,-63.34 196.12,-59.12 204.76,-56.17"/>
<polygon fill="#63b8ff" stroke="#63b8ff" points="205.58,-59.57 214.25,-53.48 203.67,-52.84 205.58,-59.57"/>
</a>
</g>
</g>
<!-- Node369 -->
<g id="Node000369" class="node">
<title>Node369</title>
<g id="a_Node000369"><a xlink:href="namespaceImGui.html#a6635413c896caed9487e51c772525ca4" target="_top" xlink:title=" ">
<polygon fill="#fff0f0" stroke="red" points="320,-20.75 183.25,-20.75 183.25,0 320,0 320,-20.75"/>
<text text-anchor="middle" x="251.62" y="-7.25" font-family="Helvetica,sans-Serif" font-size="10.00">ImGui::TextLinkOpenURL</text>
</a>
</g>
</g>
<!-- Node1&#45;&gt;Node369 -->
<g id="edge56_Node000001_Node000369" class="edge">
<title>Node1&#45;&gt;Node369</title>
<g id="a_edge56_Node000001_Node000369"><a xlink:title=" ">
<path fill="none" stroke="#63b8ff" d="M73.93,-323.64C76.26,-280.12 90.93,-115.18 181,-30.38 182.23,-29.22 183.52,-28.12 184.87,-27.1"/>
<polygon fill="#63b8ff" stroke="#63b8ff" points="186.47,-30.22 193.12,-21.97 182.78,-24.27 186.47,-30.22"/>
</a>
</g>
</g>
<!-- Node3 -->
<g id="Node000003" class="node">
<title>Node3</title>
<g id="a_Node000003"><a xlink:href="structImDrawList.html#a5f78fe195b2507e5926560f591141ff3" target="_top" xlink:title=" ">
<polygon fill="#fff0f0" stroke="red" points="521.62,-1694.12 374.38,-1694.12 374.38,-1660.62 521.62,-1660.62 521.62,-1694.12"/>
<text text-anchor="start" x="382.38" y="-1680.62" font-family="Helvetica,sans-Serif" font-size="10.00">ImDrawList::_ResetForNew</text>
<text text-anchor="middle" x="448" y="-1667.88" font-family="Helvetica,sans-Serif" font-size="10.00">Frame</text>
</a>
</g>
</g>
<!-- Node2&#45;&gt;Node3 -->
<g id="edge2_Node000002_Node000003" class="edge">
<title>Node2&#45;&gt;Node3</title>
<g id="a_edge2_Node000002_Node000003"><a xlink:title=" ">
<path fill="none" stroke="#63b8ff" d="M253.24,-1122.12C257.39,-1190.9 283.41,-1569.33 358.25,-1651.38 360.24,-1653.55 362.4,-1655.56 364.7,-1657.39"/>
<polygon fill="#63b8ff" stroke="#63b8ff" points="362.64,-1660.22 372.9,-1662.85 366.51,-1654.4 362.64,-1660.22"/>
</a>
</g>
</g>
<!-- Node16 -->
<g id="Node000016" class="node">
<title>Node16</title>
<g id="a_Node000016"><a xlink:href="namespaceImGui.html#ada58e5d3e2efc3cef60f213d771408d8" target="_top" xlink:title=" ">
<polygon fill="#fff0f0" stroke="red" points="522.38,-1642.75 373.62,-1642.75 373.62,-1622 522.38,-1622 522.38,-1642.75"/>
<text text-anchor="middle" x="448" y="-1629.25" font-family="Helvetica,sans-Serif" font-size="10.00">ImGui::AddUpdateViewport</text>
</a>
</g>
</g>
<!-- Node2&#45;&gt;Node16 -->
<g id="edge3_Node000002_Node000016" class="edge">
<title>Node2&#45;&gt;Node16</title>
<g id="a_edge3_Node000002_Node000016"><a xlink:title=" ">
<path fill="none" stroke="#63b8ff" d="M253.41,-1122.12C258.44,-1187.76 288.05,-1534.23 358.25,-1608.38 360.88,-1611.16 363.8,-1613.63 366.93,-1615.82"/>
<polygon fill="#63b8ff" stroke="#63b8ff" points="365.16,-1618.84 375.56,-1620.85 368.68,-1612.79 365.16,-1618.84"/>
</a>
</g>
</g>
<!-- Node12 -->
<g id="Node000012" class="node">
<title>Node12</title>
<g id="a_Node000012"><a xlink:href="structImVector.html#a2d80e87e81b1b01143c8d8be93e6fde1" target="_top" xlink:title=" ">
<polygon fill="white" stroke="#666666" points="701.88,-478.75 613.12,-478.75 613.12,-458 701.88,-458 701.88,-478.75"/>
<text text-anchor="middle" x="657.5" y="-465.25" font-family="Helvetica,sans-Serif" font-size="10.00">ImVector::back</text>
</a>
</g>
</g>
<!-- Node2&#45;&gt;Node12 -->
<g id="edge4_Node000002_Node000012" class="edge">
<title>Node2&#45;&gt;Node12</title>
<g id="a_edge4_Node000002_Node000012"><a xlink:title=" ">
<path fill="none" stroke="#63b8ff" d="M254.15,-1100.5C265.37,-1020.63 335.51,-527.03 358.25,-505.38 392.13,-473.12 524.85,-467.9 601.34,-467.66"/>
<polygon fill="#63b8ff" stroke="#63b8ff" points="601.14,-471.16 611.14,-467.66 601.14,-464.16 601.14,-471.16"/>
</a>
</g>
</g>
<!-- Node28 -->
<g id="Node000028" class="node">
<title>Node28</title>
<g id="a_Node000028"><a xlink:href="namespaceImGui.html#a26b36756e219b7129f894e1c2feb17a8" target="_top" xlink:title=" ">
<polygon fill="#fff0f0" stroke="red" points="529.88,-1566.12 366.12,-1566.12 366.12,-1532.62 529.88,-1532.62 529.88,-1566.12"/>
<text text-anchor="start" x="374.12" y="-1552.62" font-family="Helvetica,sans-Serif" font-size="10.00">ImGui::BeginDisabledOverride</text>
<text text-anchor="middle" x="448" y="-1539.88" font-family="Helvetica,sans-Serif" font-size="10.00">Reenable</text>
</a>
</g>
</g>
<!-- Node2&#45;&gt;Node28 -->
<g id="edge5_Node000002_Node000028" class="edge">
<title>Node2&#45;&gt;Node28</title>
<g id="a_edge5_Node000002_Node000028"><a xlink:title=" ">
<path fill="none" stroke="#63b8ff" d="M253.94,-1122.13C261.34,-1180.87 299.49,-1462.58 358.25,-1523.38 358.86,-1524 359.48,-1524.62 360.11,-1525.21"/>
<polygon fill="#63b8ff" stroke="#63b8ff" points="357.82,-1527.86 367.85,-1531.26 362.13,-1522.35 357.82,-1527.86"/>
</a>
</g>
</g>
<!-- Node29 -->
<g id="Node000029" class="node">
<title>Node29</title>
<g id="a_Node000029"><a xlink:href="namespaceImGui.html#a7a435b1565d4884e42a5ee5667f21a1f" target="_top" xlink:title=" ">
<polygon fill="#fff0f0" stroke="red" points="521.62,-1514.12 374.38,-1514.12 374.38,-1480.62 521.62,-1480.62 521.62,-1514.12"/>
<text text-anchor="start" x="382.38" y="-1500.62" font-family="Helvetica,sans-Serif" font-size="10.00">ImGui::BeginDockableDrag</text>
<text text-anchor="middle" x="448" y="-1487.88" font-family="Helvetica,sans-Serif" font-size="10.00">DropSource</text>
</a>
</g>
</g>
<!-- Node2&#45;&gt;Node29 -->
<g id="edge6_Node000002_Node000029" class="edge">
<title>Node2&#45;&gt;Node29</title>
<g id="a_edge6_Node000002_Node000029"><a xlink:title=" ">
<path fill="none" stroke="#63b8ff" d="M252.33,-1122.01C251.58,-1169.96 255.06,-1368.23 358.25,-1471.38 360.29,-1473.41 362.47,-1475.29 364.78,-1477.02"/>
<polygon fill="#63b8ff" stroke="#63b8ff" points="362.61,-1479.79 372.92,-1482.2 366.36,-1473.88 362.61,-1479.79"/>
</a>
</g>
</g>
<!-- Node188 -->
<g id="Node000188" class="node">
<title>Node188</title>
<g id="a_Node000188"><a xlink:href="namespaceImGui.html#a1725ff3becdb963b97c16d69d4c9f308" target="_top" xlink:title=" ">
<polygon fill="#fff0f0" stroke="red" points="521.62,-1462.12 374.38,-1462.12 374.38,-1428.62 521.62,-1428.62 521.62,-1462.12"/>
<text text-anchor="start" x="382.38" y="-1448.62" font-family="Helvetica,sans-Serif" font-size="10.00">ImGui::BeginDockableDrag</text>
<text text-anchor="middle" x="448" y="-1435.88" font-family="Helvetica,sans-Serif" font-size="10.00">DropTarget</text>
</a>
</g>
</g>
<!-- Node2&#45;&gt;Node188 -->
<g id="edge7_Node000002_Node000188" class="edge">
<title>Node2&#45;&gt;Node188</title>
<g id="a_edge7_Node000002_Node000188"><a xlink:title=" ">
<path fill="none" stroke="#63b8ff" d="M252.94,-1122.23C254.84,-1166.24 267.93,-1333.06 358.25,-1419.38 360.28,-1421.32 362.45,-1423.11 364.73,-1424.78"/>
<polygon fill="#63b8ff" stroke="#63b8ff" points="362.37,-1427.43 372.71,-1429.76 366.07,-1421.49 362.37,-1427.43"/>
</a>
</g>
</g>
<!-- Node237 -->
<g id="Node000237" class="node">
<title>Node237</title>
<g id="a_Node000237"><a xlink:href="namespaceImGui.html#a627bb85e7c0ab597360f63719bfb1e55" target="_top" xlink:title=" ">
<polygon fill="#fff0f0" stroke="red" points="505.5,-1410.75 390.5,-1410.75 390.5,-1390 505.5,-1390 505.5,-1410.75"/>
<text text-anchor="middle" x="448" y="-1397.25" font-family="Helvetica,sans-Serif" font-size="10.00">ImGui::BeginDocked</text>
</a>
</g>
</g>
<!-- Node2&#45;&gt;Node237 -->
<g id="edge8_Node000002_Node000237" class="edge">
<title>Node2&#45;&gt;Node237</title>
<g id="a_edge8_Node000002_Node000237"><a xlink:title=" ">
<path fill="none" stroke="#63b8ff" d="M253.56,-1122.13C257.63,-1162.23 277.45,-1304.39 358.25,-1376.38 364.39,-1381.85 371.66,-1386.09 379.36,-1389.38"/>
<polygon fill="#63b8ff" stroke="#63b8ff" points="378.03,-1392.62 388.62,-1392.77 380.43,-1386.05 378.03,-1392.62"/>
</a>
</g>
</g>
<!-- Node275 -->
<g id="Node000275" class="node">
<title>Node275</title>
<g id="a_Node000275"><a xlink:href="namespaceImGui.html#ae1208499040a30ab6dfd30ca0d14fbc2" target="_top" xlink:title=" ">
<polygon fill="white" stroke="#666666" points="741.25,-1514.12 573.75,-1514.12 573.75,-1480.62 741.25,-1480.62 741.25,-1514.12"/>
<text text-anchor="start" x="581.75" y="-1500.62" font-family="Helvetica,sans-Serif" font-size="10.00">ImGui::GetWindowAlwaysWant</text>
<text text-anchor="middle" x="657.5" y="-1487.88" font-family="Helvetica,sans-Serif" font-size="10.00">OwnTabBar</text>
</a>
</g>
</g>
<!-- Node2&#45;&gt;Node275 -->
<g id="edge35_Node000002_Node000275" class="edge">
<title>Node2&#45;&gt;Node275</title>
<g id="a_edge35_Node000002_Node000275"><a xlink:title=" ">
<path fill="none" stroke="#63b8ff" d="M253.32,-1122.08C257.68,-1185.95 283.66,-1515.86 358.25,-1575.38 420.61,-1625.13 461.32,-1598.23 537.75,-1575.38 572.64,-1564.94 606.79,-1540.59 629.44,-1521.85"/>
<polygon fill="#63b8ff" stroke="#63b8ff" points="631.62,-1524.6 636.97,-1515.46 627.08,-1519.27 631.62,-1524.6"/>
</a>
</g>
</g>
<!-- Node277 -->
<g id="Node000277" class="node">
<title>Node277</title>
<g id="a_Node000277"><a xlink:href="structImDrawList.html#aba9e93d0bf1c3884beb726e96360d2e2" target="_top" xlink:title=" ">
<polygon fill="#fff0f0" stroke="red" points="535.12,-1334.75 360.88,-1334.75 360.88,-1314 535.12,-1314 535.12,-1334.75"/>
<text text-anchor="middle" x="448" y="-1321.25" font-family="Helvetica,sans-Serif" font-size="10.00">ImDrawList::ChannelsSetCurrent</text>
</a>
</g>
</g>
<!-- Node2&#45;&gt;Node277 -->
<g id="edge10_Node000002_Node000277" class="edge">
<title>Node2&#45;&gt;Node277</title>
<g id="a_edge10_Node000002_Node000277"><a xlink:title=" ">
<path fill="none" stroke="#63b8ff" d="M255.18,-1122.2C263.58,-1155.26 293.58,-1255.64 358.25,-1304.38 360.17,-1305.82 362.18,-1307.17 364.25,-1308.42"/>
<polygon fill="#63b8ff" stroke="#63b8ff" points="362.56,-1311.49 373.06,-1312.93 365.75,-1305.26 362.56,-1311.49"/>
</a>
</g>
</g>
<!-- Node278 -->
<g id="Node000278" class="node">
<title>Node278</title>
<g id="a_Node000278"><a xlink:href="structImDrawList.html#acd7bcb6c4c5043876cfc169a98abc24a" target="_top" xlink:title=" ">
<polygon fill="#fff0f0" stroke="red" points="520.12,-1295.75 375.88,-1295.75 375.88,-1275 520.12,-1275 520.12,-1295.75"/>
<text text-anchor="middle" x="448" y="-1282.25" font-family="Helvetica,sans-Serif" font-size="10.00">ImDrawList::ChannelsSplit</text>
</a>
</g>
</g>
<!-- Node2&#45;&gt;Node278 -->
<g id="edge11_Node000002_Node000278" class="edge">
<title>Node2&#45;&gt;Node278</title>
<g id="a_edge11_Node000002_Node000278"><a xlink:title=" ">
<path fill="none" stroke="#63b8ff" d="M256.6,-1122.1C267.77,-1150.64 302.3,-1228.77 358.25,-1266.38 360.51,-1267.9 362.87,-1269.3 365.31,-1270.59"/>
<polygon fill="#63b8ff" stroke="#63b8ff" points="363.77,-1273.73 374.32,-1274.68 366.66,-1267.36 363.77,-1273.73"/>
</a>
</g>
</g>
<!-- Node279 -->
<g id="Node000279" class="node">
<title>Node279</title>
<g id="a_Node000279"><a xlink:href="structImGuiNextWindowData.html#a9543431fafe3d0627fdecc5fa839487c" target="_top" xlink:title=" ">
<polygon fill="white" stroke="#666666" points="513.38,-1257.12 382.62,-1257.12 382.62,-1223.62 513.38,-1223.62 513.38,-1257.12"/>
<text text-anchor="start" x="390.62" y="-1243.62" font-family="Helvetica,sans-Serif" font-size="10.00">ImGuiNextWindowData</text>
<text text-anchor="middle" x="448" y="-1230.88" font-family="Helvetica,sans-Serif" font-size="10.00">::ClearFlags</text>
</a>
</g>
</g>
<!-- Node2&#45;&gt;Node279 -->
<g id="edge12_Node000002_Node000279" class="edge">
<title>Node2&#45;&gt;Node279</title>
<g id="a_edge12_Node000002_Node000279"><a xlink:title=" ">
<path fill="none" stroke="#63b8ff" d="M260.66,-1122.16C276.81,-1143.08 315.35,-1189.3 358.25,-1214.38 362.58,-1216.9 367.17,-1219.2 371.9,-1221.29"/>
<polygon fill="#63b8ff" stroke="#63b8ff" points="370.43,-1224.47 381.01,-1224.96 373.04,-1217.98 370.43,-1224.47"/>
</a>
</g>
</g>
<!-- Node90 -->
<g id="Node000090" class="node">
<title>Node90</title>
<g id="a_Node000090"><a xlink:href="structImRect.html#ac02d5cf6ce0358aea9ed9df43d368f3f" target="_top" xlink:title=" ">
<polygon fill="white" stroke="#666666" points="496.88,-1205.75 399.12,-1205.75 399.12,-1185 496.88,-1185 496.88,-1205.75"/>
<text text-anchor="middle" x="448" y="-1192.25" font-family="Helvetica,sans-Serif" font-size="10.00">ImRect::ClipWith</text>
</a>
</g>
</g>
<!-- Node2&#45;&gt;Node90 -->
<g id="edge13_Node000002_Node000090" class="edge">
<title>Node2&#45;&gt;Node90</title>
<g id="a_edge13_Node000002_Node000090"><a xlink:title=" ">
<path fill="none" stroke="#63b8ff" d="M266.87,-1122.09C286.45,-1136.31 323.25,-1161.27 358.25,-1175.38 367.51,-1179.11 377.61,-1182.22 387.57,-1184.78"/>
<polygon fill="#63b8ff" stroke="#63b8ff" points="386.68,-1188.17 397.22,-1187.1 388.32,-1181.36 386.68,-1188.17"/>
</a>
</g>
</g>
<!-- Node20 -->
<g id="Node000020" class="node">
<title>Node20</title>
<g id="a_Node000020"><a xlink:href="structImRect.html#a32a5aaca4161b5ffa3f352d293a449ff" target="_top" xlink:title=" ">
<polygon fill="white" stroke="#666666" points="505.5,-1166.75 390.5,-1166.75 390.5,-1146 505.5,-1146 505.5,-1166.75"/>
<text text-anchor="middle" x="448" y="-1153.25" font-family="Helvetica,sans-Serif" font-size="10.00">ImRect::ClipWithFull</text>
</a>
</g>
</g>
<!-- Node2&#45;&gt;Node20 -->
<g id="edge14_Node000002_Node000020" class="edge">
<title>Node2&#45;&gt;Node20</title>
<g id="a_edge14_Node000002_Node000020"><a xlink:title=" ">
<path fill="none" stroke="#63b8ff" d="M291.19,-1121.17C311.17,-1126.16 335.98,-1132.25 358.25,-1137.38 366.67,-1139.31 375.56,-1141.29 384.32,-1143.21"/>
<polygon fill="#63b8ff" stroke="#63b8ff" points="383.33,-1146.57 393.84,-1145.27 384.81,-1139.73 383.33,-1146.57"/>
</a>
</g>
</g>
<!-- Node115 -->
<g id="Node000115" class="node">
<title>Node115</title>
<g id="a_Node000115"><a xlink:href="namespaceImGui.html#abe2691de0b1a71c774ab24cc91564a94" target="_top" xlink:title=" ">
<polygon fill="white" stroke="#666666" points="520.88,-1128.12 375.12,-1128.12 375.12,-1094.62 520.88,-1094.62 520.88,-1128.12"/>
<text text-anchor="start" x="383.12" y="-1114.62" font-family="Helvetica,sans-Serif" font-size="10.00">ImGui::ColorConvertFloat4</text>
<text text-anchor="middle" x="448" y="-1101.88" font-family="Helvetica,sans-Serif" font-size="10.00">ToU32</text>
</a>
</g>
</g>
<!-- Node2&#45;&gt;Node115 -->
<g id="edge15_Node000002_Node000115" class="edge">
<title>Node2&#45;&gt;Node115</title>
<g id="a_edge15_Node000002_Node000115"><a xlink:title=" ">
<path fill="none" stroke="#63b8ff" d="M291.49,-1111.38C312.15,-1111.38 338.38,-1111.38 363.39,-1111.38"/>
<polygon fill="#63b8ff" stroke="#63b8ff" points="363.26,-1114.88 373.26,-1111.38 363.26,-1107.88 363.26,-1114.88"/>
</a>
</g>
</g>
<!-- Node21 -->
<g id="Node000021" class="node">
<title>Node21</title>
<g id="a_Node000021"><a xlink:href="structImRect.html#ac583156fd0e9306181fff5d120b262ea" target="_top" xlink:title=" ">
<polygon fill="white" stroke="#666666" points="497.62,-1076.75 398.38,-1076.75 398.38,-1056 497.62,-1056 497.62,-1076.75"/>
<text text-anchor="middle" x="448" y="-1063.25" font-family="Helvetica,sans-Serif" font-size="10.00">ImRect::Contains</text>
</a>
</g>
</g>
<!-- Node2&#45;&gt;Node21 -->
<g id="edge16_Node000002_Node000021" class="edge">
<title>Node2&#45;&gt;Node21</title>
<g id="a_edge16_Node000002_Node000021"><a xlink:title=" ">
<path fill="none" stroke="#63b8ff" d="M291.19,-1101.58C311.17,-1096.59 335.98,-1090.5 358.25,-1085.38 367.52,-1083.24 377.36,-1081.06 386.97,-1078.97"/>
<polygon fill="#63b8ff" stroke="#63b8ff" points="387.6,-1082.41 396.63,-1076.88 386.12,-1075.57 387.6,-1082.41"/>
</a>
</g>
</g>
<!-- Node133 -->
<g id="Node000133" class="node">
<title>Node133</title>
<g id="a_Node000133"><a xlink:href="namespaceImGui.html#ae8ab0d7dfc90af8e82db3ed9e7829219" target="_top" xlink:title=" ">
<polygon fill="#fff0f0" stroke="red" points="536.25,-1038.12 359.75,-1038.12 359.75,-1004.62 536.25,-1004.62 536.25,-1038.12"/>
<text text-anchor="start" x="367.75" y="-1024.62" font-family="Helvetica,sans-Serif" font-size="10.00">ImGui::DebugLocateItemResolve</text>
<text text-anchor="middle" x="448" y="-1011.88" font-family="Helvetica,sans-Serif" font-size="10.00">WithLastItem</text>
</a>
</g>
</g>
<!-- Node2&#45;&gt;Node133 -->
<g id="edge17_Node000002_Node000133" class="edge">
<title>Node2&#45;&gt;Node133</title>
<g id="a_edge17_Node000002_Node000133"><a xlink:title=" ">
<path fill="none" stroke="#63b8ff" d="M267.68,-1100.51C287.58,-1086.57 324.11,-1062.41 358.25,-1047.38 362.27,-1045.61 366.44,-1043.92 370.69,-1042.31"/>
<polygon fill="#63b8ff" stroke="#63b8ff" points="371.69,-1045.67 379.93,-1039.01 369.34,-1039.08 371.69,-1045.67"/>
</a>
</g>
</g>
<!-- Node134 -->
<g id="Node000134" class="node">
<title>Node134</title>
<g id="a_Node000134"><a xlink:href="structImRect.html#af33a7424c3341d08acd69da30c27c753" target="_top" xlink:title=" ">
<polygon fill="white" stroke="#666666" points="703.75,-1198.75 611.25,-1198.75 611.25,-1178 703.75,-1178 703.75,-1198.75"/>
<text text-anchor="middle" x="657.5" y="-1185.25" font-family="Helvetica,sans-Serif" font-size="10.00">ImRect::Expand</text>
</a>
</g>
</g>
<!-- Node2&#45;&gt;Node134 -->
<g id="edge20_Node000002_Node000134" class="edge">
<title>Node2&#45;&gt;Node134</title>
<g id="a_edge20_Node000002_Node000134"><a xlink:title=" ">
<path fill="none" stroke="#63b8ff" d="M253.58,-1122C257.66,-1160.24 277.3,-1291.29 358.25,-1343.38 425.34,-1386.55 466.21,-1378.69 537.75,-1343.38 594.83,-1315.2 632.06,-1244.97 647.85,-1209.53"/>
<polygon fill="#63b8ff" stroke="#63b8ff" points="651.07,-1210.92 651.79,-1200.35 644.63,-1208.16 651.07,-1210.92"/>
</a>
</g>
</g>
<!-- Node280 -->
<g id="Node000280" class="node">
<title>Node280</title>
<g id="a_Node000280"><a xlink:href="structImVector.html#aa53e48a5272f4bad1099368769514ff1" target="_top" xlink:title=" ">
<polygon fill="white" stroke="#666666" points="496.5,-947.75 399.5,-947.75 399.5,-927 496.5,-927 496.5,-947.75"/>
<text text-anchor="middle" x="448" y="-934.25" font-family="Helvetica,sans-Serif" font-size="10.00">ImVector::empty</text>
</a>
</g>
</g>
<!-- Node2&#45;&gt;Node280 -->
<g id="edge19_Node000002_Node000280" class="edge">
<title>Node2&#45;&gt;Node280</title>
<g id="a_edge19_Node000002_Node000280"><a xlink:title=" ">
<path fill="none" stroke="#63b8ff" d="M256.65,-1100.75C267.92,-1072.48 302.7,-995.03 358.25,-957.38 367.18,-951.32 377.66,-947.08 388.22,-944.11"/>
<polygon fill="#63b8ff" stroke="#63b8ff" points="388.84,-947.56 397.74,-941.8 387.19,-940.75 388.84,-947.56"/>
</a>
</g>
</g>
<!-- Node281 -->
<g id="Node000281" class="node">
<title>Node281</title>
<g id="a_Node000281"><a xlink:href="namespaceImGui.html#a310ff87cbe678e2c632bf1f5577a7fbd" target="_top" xlink:title=" ">
<polygon fill="#fff0f0" stroke="red" points="522.75,-909.12 373.25,-909.12 373.25,-875.62 522.75,-875.62 522.75,-909.12"/>
<text text-anchor="start" x="381.25" y="-895.62" font-family="Helvetica,sans-Serif" font-size="10.00">ImGui::FindBestWindowPos</text>
<text text-anchor="middle" x="448" y="-882.88" font-family="Helvetica,sans-Serif" font-size="10.00">ForPopup</text>
</a>
</g>
</g>
<!-- Node2&#45;&gt;Node281 -->
<g id="edge21_Node000002_Node000281" class="edge">
<title>Node2&#45;&gt;Node281</title>
<g id="a_edge21_Node000002_Node000281"><a xlink:title=" ">
<path fill="none" stroke="#63b8ff" d="M255.32,-1100.73C264.13,-1068.18 295.16,-969.14 358.25,-918.38 359.94,-917.02 361.7,-915.73 363.51,-914.51"/>
<polygon fill="#63b8ff" stroke="#63b8ff" points="364.83,-917.79 371.69,-909.71 361.3,-911.75 364.83,-917.79"/>
</a>
</g>
</g>
<!-- Node34 -->
<g id="Node000034" class="node">
<title>Node34</title>
<g id="a_Node000034"><a xlink:href="namespaceImGui.html#a82204d8800dc3a072ddbcbd2aecc48ac" target="_top" xlink:title=" ">
<polygon fill="#fff0f0" stroke="red" points="724.38,-921.75 590.62,-921.75 590.62,-901 724.38,-901 724.38,-921.75"/>
<text text-anchor="middle" x="657.5" y="-908.25" font-family="Helvetica,sans-Serif" font-size="10.00">ImGui::FindWindowByID</text>
</a>
</g>
</g>
<!-- Node2&#45;&gt;Node34 -->
<g id="edge22_Node000002_Node000034" class="edge">
<title>Node2&#45;&gt;Node34</title>
<g id="a_edge22_Node000002_Node000034"><a xlink:title=" ">
<path fill="none" stroke="#63b8ff" d="M253.32,-1100.72C256.53,-1061.15 273.7,-922 358.25,-866.38 443.33,-810.41 571.25,-865.44 627.84,-895.12"/>
<polygon fill="#63b8ff" stroke="#63b8ff" points="626.06,-898.14 636.52,-899.8 629.37,-891.98 626.06,-898.14"/>
</a>
</g>
</g>
<!-- Node33 -->
<g id="Node000033" class="node">
<title>Node33</title>
<g id="a_Node000033"><a xlink:href="namespaceImGui.html#abca25f22c02e73d5eb2e9c72c4557813" target="_top" xlink:title=" ">
<polygon fill="white" stroke="#666666" points="524.25,-986.75 371.75,-986.75 371.75,-966 524.25,-966 524.25,-986.75"/>
<text text-anchor="middle" x="448" y="-973.25" font-family="Helvetica,sans-Serif" font-size="10.00">ImGui::FindWindowByName</text>
</a>
</g>
</g>
<!-- Node2&#45;&gt;Node33 -->
<g id="edge23_Node000002_Node000033" class="edge">
<title>Node2&#45;&gt;Node33</title>
<g id="a_edge23_Node000002_Node000033"><a xlink:title=" ">
<path fill="none" stroke="#63b8ff" d="M259.01,-1100.7C273.5,-1077.49 311.25,-1022.38 358.25,-995.38 360.76,-993.93 363.37,-992.6 366.05,-991.37"/>
<polygon fill="#63b8ff" stroke="#63b8ff" points="367.29,-994.64 375.26,-987.66 364.67,-988.15 367.29,-994.64"/>
</a>
</g>
</g>
<!-- Node44 -->
<g id="Node000044" class="node">
<title>Node44</title>
<g id="a_Node000044"><a xlink:href="namespaceImGui.html#a27aa6f2f3aa11778c6d023b1b223f262" target="_top" xlink:title=" ">
<polygon fill="#fff0f0" stroke="red" points="507,-819.75 389,-819.75 389,-799 507,-799 507,-819.75"/>
<text text-anchor="middle" x="448" y="-806.25" font-family="Helvetica,sans-Serif" font-size="10.00">ImGui::FocusWindow</text>
</a>
</g>
</g>
<!-- Node2&#45;&gt;Node44 -->
<g id="edge25_Node000002_Node000044" class="edge">
<title>Node2&#45;&gt;Node44</title>
<g id="a_edge25_Node000002_Node000044"><a xlink:title=" ">
<path fill="none" stroke="#63b8ff" d="M253.33,-1100.67C256.64,-1059.45 274.25,-909.45 358.25,-833.38 363.97,-828.19 370.7,-824.11 377.85,-820.9"/>
<polygon fill="#63b8ff" stroke="#63b8ff" points="379.07,-824.18 387.15,-817.33 376.56,-817.65 379.07,-824.18"/>
</a>
</g>
</g>
<!-- Node288 -->
<g id="Node000288" class="node">
<title>Node288</title>
<g id="a_Node000288"><a xlink:href="namespaceImGui.html#ad70feca33961fb47a8074074a8da2f80" target="_top" xlink:title=" ">
<polygon fill="#fff0f0" stroke="red" points="537.75,-781.12 358.25,-781.12 358.25,-747.62 537.75,-747.62 537.75,-781.12"/>
<text text-anchor="start" x="366.25" y="-767.62" font-family="Helvetica,sans-Serif" font-size="10.00">ImGui::GcAwakeTransientWindow</text>
<text text-anchor="middle" x="448" y="-754.88" font-family="Helvetica,sans-Serif" font-size="10.00">Buffers</text>
</a>
</g>
</g>
<!-- Node2&#45;&gt;Node288 -->
<g id="edge26_Node000002_Node000288" class="edge">
<title>Node2&#45;&gt;Node288</title>
<g id="a_edge26_Node000002_Node000288"><a xlink:title=" ">
<path fill="none" stroke="#63b8ff" d="M252.77,-1100.69C253.96,-1055.83 264.65,-880.94 358.25,-790.38 359.01,-789.64 359.78,-788.93 360.58,-788.24"/>
<polygon fill="#63b8ff" stroke="#63b8ff" points="362.49,-791.18 368.49,-782.45 358.35,-785.53 362.49,-791.18"/>
</a>
</g>
</g>
<!-- Node22 -->
<g id="Node000022" class="node">
<title>Node22</title>
<g id="a_Node000022"><a xlink:href="structImRect.html#a748d8ae9cb26508951ec6e2f2df0625b" target="_top" xlink:title=" ">
<polygon fill="white" stroke="#666666" points="501,-729.75 395,-729.75 395,-709 501,-709 501,-729.75"/>
<text text-anchor="middle" x="448" y="-716.25" font-family="Helvetica,sans-Serif" font-size="10.00">ImRect::GetHeight</text>
</a>
</g>
</g>
<!-- Node2&#45;&gt;Node22 -->
<g id="edge27_Node000002_Node000022" class="edge">
<title>Node2&#45;&gt;Node22</title>
<g id="a_edge27_Node000002_Node000022"><a xlink:title=" ">
<path fill="none" stroke="#63b8ff" d="M254.13,-1100.85C262.22,-1045.72 302.26,-790.84 358.25,-738.38 365.36,-731.72 374.21,-727.16 383.54,-724.09"/>
<polygon fill="#63b8ff" stroke="#63b8ff" points="384.43,-727.48 393.19,-721.52 382.62,-720.71 384.43,-727.48"/>
</a>
</g>
</g>
<!-- Node289 -->
<g id="Node000289" class="node">
<title>Node289</title>
<g id="a_Node000289"><a xlink:href="namespaceImGui.html#a3976abb319f95d75fe9f6866f9956701" target="_top" xlink:title=" ">
<polygon fill="#fff0f0" stroke="red" points="507,-690.75 389,-690.75 389,-670 507,-670 507,-690.75"/>
<text text-anchor="middle" x="448" y="-677.25" font-family="Helvetica,sans-Serif" font-size="10.00">ImGui::GetKeyOwner</text>
</a>
</g>
</g>
<!-- Node2&#45;&gt;Node289 -->
<g id="edge28_Node000002_Node000289" class="edge">
<title>Node2&#45;&gt;Node289</title>
<g id="a_edge28_Node000002_Node000289"><a xlink:title=" ">
<path fill="none" stroke="#63b8ff" d="M253.88,-1100.58C260.96,-1041.64 297.72,-759.12 358.25,-700.38 363.95,-694.84 370.84,-690.71 378.22,-687.65"/>
<polygon fill="#63b8ff" stroke="#63b8ff" points="379.17,-691.02 387.5,-684.47 376.9,-684.4 379.17,-691.02"/>
</a>
</g>
</g>
<!-- Node24 -->
<g id="Node000024" class="node">
<title>Node24</title>
<g id="a_Node000024"><a xlink:href="structImGuiViewportP.html#adb4c14f0b0a42bff9c1c0ab1971027f7" target="_top" xlink:title=" ">
<polygon fill="white" stroke="#666666" points="529.88,-651.75 366.12,-651.75 366.12,-631 529.88,-631 529.88,-651.75"/>
<text text-anchor="middle" x="448" y="-638.25" font-family="Helvetica,sans-Serif" font-size="10.00">ImGuiViewportP::GetMainRect</text>
</a>
</g>
</g>
<!-- Node2&#45;&gt;Node24 -->
<g id="edge29_Node000002_Node000024" class="edge">
<title>Node2&#45;&gt;Node24</title>
<g id="a_edge29_Node000002_Node000024"><a xlink:title=" ">
<path fill="none" stroke="#63b8ff" d="M253.6,-1100.81C259.53,-1039.16 292.56,-726.48 358.25,-661.38 359.29,-660.34 360.37,-659.36 361.49,-658.42"/>
<polygon fill="#63b8ff" stroke="#63b8ff" points="363.19,-661.5 369.47,-652.97 359.24,-655.72 363.19,-661.5"/>
</a>
</g>
</g>
<!-- Node290 -->
<g id="Node000290" class="node">
<title>Node290</title>
<g id="a_Node000290"><a xlink:href="namespaceImGui.html#a7bf620af1d66ee7d7b06701894d23e60" target="_top" xlink:title=" ">
<polygon fill="white" stroke="#666666" points="516,-612.75 380,-612.75 380,-592 516,-592 516,-612.75"/>
<text text-anchor="middle" x="448" y="-599.25" font-family="Helvetica,sans-Serif" font-size="10.00">ImGui::GetMainViewport</text>
</a>
</g>
</g>
<!-- Node2&#45;&gt;Node290 -->
<g id="edge30_Node000002_Node000290" class="edge">
<title>Node2&#45;&gt;Node290</title>
<g id="a_edge30_Node000002_Node000290"><a xlink:title=" ">
<path fill="none" stroke="#63b8ff" d="M253.4,-1100.76C258.33,-1035.92 287.48,-693.78 358.25,-622.38 361.63,-618.97 365.45,-616.09 369.57,-613.66"/>
<polygon fill="#63b8ff" stroke="#63b8ff" points="370.82,-616.94 378.28,-609.43 367.76,-610.65 370.82,-616.94"/>
</a>
</g>
</g>
<!-- Node217 -->
<g id="Node000217" class="node">
<title>Node217</title>
<g id="a_Node000217"><a xlink:href="structImRect.html#ae459d9c50003058cfb34519a571aaf33" target="_top" xlink:title=" ">
<polygon fill="white" stroke="#666666" points="495,-573.75 401,-573.75 401,-553 495,-553 495,-573.75"/>
<text text-anchor="middle" x="448" y="-560.25" font-family="Helvetica,sans-Serif" font-size="10.00">ImRect::GetSize</text>
</a>
</g>
</g>
<!-- Node2&#45;&gt;Node217 -->
<g id="edge31_Node000002_Node000217" class="edge">
<title>Node2&#45;&gt;Node217</title>
<g id="a_edge31_Node000002_Node000217"><a xlink:title=" ">
<path fill="none" stroke="#63b8ff" d="M253.21,-1100.81C257.19,-1033.16 282.34,-661.14 358.25,-583.38 366.61,-574.81 377.8,-569.56 389.41,-566.42"/>
<polygon fill="#63b8ff" stroke="#63b8ff" points="390.07,-569.86 399.11,-564.33 388.59,-563.02 390.07,-569.86"/>
</a>
</g>
</g>
<!-- Node291 -->
<g id="Node000291" class="node">
<title>Node291</title>
<g id="a_Node000291"><a xlink:href="namespaceImGui.html#ad838e580972e2c4b3da2b0f60754b662" target="_top" xlink:title=" ">
<polygon fill="white" stroke="#666666" points="519,-534.75 377,-534.75 377,-514 519,-514 519,-534.75"/>
<text text-anchor="middle" x="448" y="-521.25" font-family="Helvetica,sans-Serif" font-size="10.00">ImGui::GetStyleColorVec4</text>
</a>
</g>
</g>
<!-- Node2&#45;&gt;Node291 -->
<g id="edge32_Node000002_Node000291" class="edge">
<title>Node2&#45;&gt;Node291</title>
<g id="a_edge32_Node000002_Node000291"><a xlink:title=" ">
<path fill="none" stroke="#63b8ff" d="M253.87,-1100.94C262.78,-1027.24 317.53,-586.65 358.25,-544.38 360.88,-541.64 363.8,-539.25 366.92,-537.15"/>
<polygon fill="#63b8ff" stroke="#63b8ff" points="368.44,-540.31 375.53,-532.44 365.08,-534.17 368.44,-540.31"/>
</a>
</g>
</g>
<!-- Node292 -->
<g id="Node000292" class="node">
<title>Node292</title>
<g id="a_Node000292"><a xlink:href="namespaceImGui.html#a2f6bbca8b37a24999b5d04caa77ea6fd" target="_top" xlink:title=" ">
<polygon fill="white" stroke="#666666" points="525,-1823.12 371,-1823.12 371,-1789.62 525,-1789.62 525,-1823.12"/>
<text text-anchor="start" x="379" y="-1809.62" font-family="Helvetica,sans-Serif" font-size="10.00">ImGui::GetViewportPlatform</text>
<text text-anchor="middle" x="448" y="-1796.88" font-family="Helvetica,sans-Serif" font-size="10.00">Monitor</text>
</a>
</g>
</g>
<!-- Node2&#45;&gt;Node292 -->
<g id="edge33_Node000002_Node000292" class="edge">
<title>Node2&#45;&gt;Node292</title>
<g id="a_edge33_Node000002_Node000292"><a xlink:title=" ">
<path fill="none" stroke="#63b8ff" d="M252.8,-1122.05C254.28,-1199.61 267.02,-1676.61 358.25,-1780.38 359.38,-1781.66 360.56,-1782.88 361.8,-1784.04"/>
<polygon fill="#63b8ff" stroke="#63b8ff" points="359.41,-1786.61 369.46,-1789.95 363.69,-1781.07 359.41,-1786.61"/>
</a>
</g>
</g>
<!-- Node23 -->
<g id="Node000023" class="node">
<title>Node23</title>
<g id="a_Node000023"><a xlink:href="structImRect.html#afa75cb8491f20901c96166d17dcddac4" target="_top" xlink:title=" ">
<polygon fill="white" stroke="#666666" points="499.12,-1771.75 396.88,-1771.75 396.88,-1751 499.12,-1751 499.12,-1771.75"/>
<text text-anchor="middle" x="448" y="-1758.25" font-family="Helvetica,sans-Serif" font-size="10.00">ImRect::GetWidth</text>
</a>
</g>
</g>
<!-- Node2&#45;&gt;Node23 -->
<g id="edge34_Node000002_Node000023" class="edge">
<title>Node2&#45;&gt;Node23</title>
<g id="a_edge34_Node000002_Node000023"><a xlink:title=" ">
<path fill="none" stroke="#63b8ff" d="M252.84,-1121.96C254.61,-1196.88 268.89,-1646.91 358.25,-1741.38 365.66,-1749.21 375.43,-1754.29 385.78,-1757.52"/>
<polygon fill="#63b8ff" stroke="#63b8ff" points="384.67,-1760.85 395.22,-1759.9 386.38,-1754.06 384.67,-1760.85"/>
</a>
</g>
</g>
<!-- Node293 -->
<g id="Node000293" class="node">
<title>Node293</title>
<g id="a_Node000293"><a xlink:href="structImGuiViewportP.html#ae5c3184b73ea080f14e03ecb344b913e" target="_top" xlink:title=" ">
<polygon fill="white" stroke="#666666" points="530.25,-1732.75 365.75,-1732.75 365.75,-1712 530.25,-1712 530.25,-1732.75"/>
<text text-anchor="middle" x="448" y="-1719.25" font-family="Helvetica,sans-Serif" font-size="10.00">ImGuiViewportP::GetWorkRect</text>
</a>
</g>
</g>
<!-- Node2&#45;&gt;Node293 -->
<g id="edge36_Node000002_Node000293" class="edge">
<title>Node2&#45;&gt;Node293</title>
<g id="a_edge36_Node000002_Node000293"><a xlink:title=" ">
<path fill="none" stroke="#63b8ff" d="M252.95,-1121.79C255.41,-1193.65 273.37,-1615.53 358.25,-1703.38 358.63,-1703.77 359.02,-1704.16 359.42,-1704.54"/>
<polygon fill="#63b8ff" stroke="#63b8ff" points="357.25,-1707.29 367.3,-1710.63 361.53,-1701.75 357.25,-1707.29"/>
</a>
</g>
</g>
<!-- Node237&#45;&gt;Node275 -->
<g id="edge9_Node000237_Node000275" class="edge">
<title>Node237&#45;&gt;Node275</title>
<g id="a_edge9_Node000237_Node000275"><a xlink:title=" ">
<path fill="none" stroke="#63b8ff" d="M505.83,-1409.26C516.65,-1411.87 527.72,-1415.18 537.75,-1419.38 570.55,-1433.09 604.06,-1456.09 627.08,-1473.57"/>
<polygon fill="#63b8ff" stroke="#63b8ff" points="624.72,-1476.17 634.78,-1479.51 629.01,-1470.63 624.72,-1476.17"/>
</a>
</g>
</g>
<!-- Node133&#45;&gt;Node134 -->
<g id="edge18_Node000133_Node000134" class="edge">
<title>Node133&#45;&gt;Node134</title>
<g id="a_edge18_Node000133_Node000134"><a xlink:title=" ">
<path fill="none" stroke="#63b8ff" d="M521.35,-1038.58C527.09,-1041.13 532.64,-1044.04 537.75,-1047.38 586.67,-1079.28 626.19,-1137.34 644.85,-1168.06"/>
<polygon fill="#63b8ff" stroke="#63b8ff" points="641.68,-1169.58 649.79,-1176.4 647.7,-1166.01 641.68,-1169.58"/>
</a>
</g>
</g>
<!-- Node33&#45;&gt;Node34 -->
<g id="edge24_Node000033_Node000034" class="edge">
<title>Node33&#45;&gt;Node34</title>
<g id="a_edge24_Node000033_Node000034"><a xlink:title=" ">
<path fill="none" stroke="#63b8ff" d="M502.82,-965.52C514.42,-962.83 526.56,-959.74 537.75,-956.38 566.18,-947.83 597.57,-935.82 620.92,-926.36"/>
<polygon fill="#63b8ff" stroke="#63b8ff" points="622.05,-929.68 629.97,-922.65 619.39,-923.2 622.05,-929.68"/>
</a>
</g>
</g>
<!-- Node97&#45;&gt;Node12 -->
<g id="edge41_Node000097_Node000012" class="edge">
<title>Node97&#45;&gt;Node12</title>
<g id="a_edge41_Node000097_Node000012"><a xlink:title=" ">
<path fill="none" stroke="#63b8ff" d="M482.8,-451.63C514.96,-454.73 563.9,-459.45 601.65,-463.09"/>
<polygon fill="#63b8ff" stroke="#63b8ff" points="601.17,-466.56 611.46,-464.03 601.85,-459.59 601.17,-466.56"/>
</a>
</g>
</g>
<!-- Node97&#45;&gt;Node163 -->
<g id="edge42_Node000097_Node000163" class="edge">
<title>Node97&#45;&gt;Node163</title>
<g id="a_edge42_Node000097_Node000163"><a xlink:title=" ">
<path fill="none" stroke="#63b8ff" d="M482.8,-442.19C513.81,-436.51 560.44,-427.97 597.57,-421.17"/>
<polygon fill="#63b8ff" stroke="#63b8ff" points="598.07,-424.63 607.28,-419.39 596.81,-417.75 598.07,-424.63"/>
</a>
</g>
</g>
<!-- Node163&#45;&gt;Node168 -->
<g id="edge43_Node000163_Node000168" class="edge">
<title>Node163&#45;&gt;Node168</title>
<g id="a_edge43_Node000163_Node000168"><a xlink:title=" ">
<path fill="none" stroke="#63b8ff" d="M706.27,-404.78C724.84,-402.6 746.24,-400.09 765.46,-397.84"/>
<polygon fill="#63b8ff" stroke="#63b8ff" points="765.77,-401.33 775.3,-396.69 764.96,-394.38 765.77,-401.33"/>
</a>
</g>
</g>
<!-- Node355&#45;&gt;Node97 -->
<g id="edge45_Node000355_Node000097" class="edge">
<title>Node355&#45;&gt;Node97</title>
<g id="a_edge45_Node000355_Node000097"><a xlink:title=" ">
<path fill="none" stroke="#63b8ff" d="M298.69,-477.37C329.98,-471.25 371.17,-463.2 402.19,-457.13"/>
<polygon fill="#63b8ff" stroke="#63b8ff" points="402.5,-460.64 411.64,-455.29 401.16,-453.77 402.5,-460.64"/>
</a>
</g>
</g>
</g>
</svg>
