<?xml version="1.0" encoding="UTF-8" standalone="no"?>
<!DOCTYPE svg PUBLIC "-//W3C//DTD SVG 1.1//EN"
 "http://www.w3.org/Graphics/SVG/1.1/DTD/svg11.dtd">
<!-- Generated by graphviz version 12.2.0 (20241103.1931)
 -->
<!-- Title: ImGui::TestShortcutRouting Pages: 1 -->
<svg width="737pt" height="177pt"
 viewBox="0.00 0.00 737.25 176.75" xmlns="http://www.w3.org/2000/svg" xmlns:xlink="http://www.w3.org/1999/xlink">
<g id="graph0" class="graph" transform="scale(1 1) rotate(0) translate(4 172.75)">
<title>ImGui::TestShortcutRouting</title>
<!-- Node1 -->
<g id="Node000001" class="node">
<title>Node1</title>
<g id="a_Node000001"><a xlink:title=" ">
<polygon fill="#999999" stroke="#666666" points="148.75,-119.75 0,-119.75 0,-99 148.75,-99 148.75,-119.75"/>
<text text-anchor="middle" x="74.38" y="-106.25" font-family="Helvetica,sans-Serif" font-size="10.00">ImGui::TestShortcutRouting</text>
</a>
</g>
</g>
<!-- Node2 -->
<g id="Node000002" class="node">
<title>Node2</title>
<g id="a_Node000002"><a xlink:href="namespaceImGui.html#a4fcbe32801dbb31c46d9f205574912e0" target="_top" xlink:title=" ">
<polygon fill="white" stroke="#666666" points="331.62,-153.75 207.62,-153.75 207.62,-133 331.62,-133 331.62,-153.75"/>
<text text-anchor="middle" x="269.62" y="-140.25" font-family="Helvetica,sans-Serif" font-size="10.00">ImGui::FixupKeyChord</text>
</a>
</g>
</g>
<!-- Node1&#45;&gt;Node2 -->
<g id="edge1_Node000001_Node000002" class="edge">
<title>Node1&#45;&gt;Node2</title>
<g id="a_edge1_Node000001_Node000002"><a xlink:title=" ">
<path fill="none" stroke="#63b8ff" d="M137.05,-120.23C155.8,-123.52 176.57,-127.18 195.97,-130.59"/>
<polygon fill="#63b8ff" stroke="#63b8ff" points="195.26,-134.02 205.71,-132.31 196.47,-127.13 195.26,-134.02"/>
</a>
</g>
</g>
<!-- Node4 -->
<g id="Node000004" class="node">
<title>Node4</title>
<g id="a_Node000004"><a xlink:href="namespaceImGui.html#a44a24428cdecdfd7825d37e616e5af45" target="_top" xlink:title=" ">
<polygon fill="white" stroke="#666666" points="354.5,-100.75 184.75,-100.75 184.75,-80 354.5,-80 354.5,-100.75"/>
<text text-anchor="middle" x="269.62" y="-87.25" font-family="Helvetica,sans-Serif" font-size="10.00">ImGui::GetShortcutRoutingData</text>
</a>
</g>
</g>
<!-- Node1&#45;&gt;Node4 -->
<g id="edge3_Node000001_Node000004" class="edge">
<title>Node1&#45;&gt;Node4</title>
<g id="a_edge3_Node000001_Node000004"><a xlink:title=" ">
<path fill="none" stroke="#63b8ff" d="M148.99,-102.14C156.89,-101.36 165.01,-100.56 173.12,-99.77"/>
<polygon fill="#63b8ff" stroke="#63b8ff" points="173.44,-103.25 183.05,-98.79 172.75,-96.28 173.44,-103.25"/>
</a>
</g>
</g>
<!-- Node3 -->
<g id="Node000003" class="node">
<title>Node3</title>
<g id="a_Node000003"><a xlink:href="namespaceImGui.html#a2012dba37c81d25081e47b446fbcd485" target="_top" xlink:title=" ">
<polygon fill="white" stroke="#666666" points="520.5,-168.75 422,-168.75 422,-148 520.5,-148 520.5,-168.75"/>
<text text-anchor="middle" x="471.25" y="-155.25" font-family="Helvetica,sans-Serif" font-size="10.00">ImGui::IsModKey</text>
</a>
</g>
</g>
<!-- Node2&#45;&gt;Node3 -->
<g id="edge2_Node000002_Node000003" class="edge">
<title>Node2&#45;&gt;Node3</title>
<g id="a_edge2_Node000002_Node000003"><a xlink:title=" ">
<path fill="none" stroke="#63b8ff" d="M331.88,-147.98C356.81,-149.85 385.54,-152.01 410.33,-153.87"/>
<polygon fill="#63b8ff" stroke="#63b8ff" points="410.04,-157.36 420.28,-154.62 410.57,-150.38 410.04,-157.36"/>
</a>
</g>
</g>
<!-- Node5 -->
<g id="Node000005" class="node">
<title>Node5</title>
<g id="a_Node000005"><a xlink:href="namespaceImGui.html#ad540a8f07e5834f77f76a84626cdc70e" target="_top" xlink:title=" ">
<polygon fill="white" stroke="#666666" points="552,-130.12 390.5,-130.12 390.5,-96.62 552,-96.62 552,-130.12"/>
<text text-anchor="start" x="398.5" y="-116.62" font-family="Helvetica,sans-Serif" font-size="10.00">ImGui::ConvertSingleModFlag</text>
<text text-anchor="middle" x="471.25" y="-103.88" font-family="Helvetica,sans-Serif" font-size="10.00">ToKey</text>
</a>
</g>
</g>
<!-- Node4&#45;&gt;Node5 -->
<g id="edge4_Node000004_Node000005" class="edge">
<title>Node4&#45;&gt;Node5</title>
<g id="a_edge4_Node000004_Node000005"><a xlink:title=" ">
<path fill="none" stroke="#63b8ff" d="M354.99,-100.1C362.95,-101.01 371.04,-101.94 379.06,-102.87"/>
<polygon fill="#63b8ff" stroke="#63b8ff" points="378.48,-106.32 388.81,-103.99 379.28,-99.37 378.48,-106.32"/>
</a>
</g>
</g>
<!-- Node6 -->
<g id="Node000006" class="node">
<title>Node6</title>
<g id="a_Node000006"><a xlink:href="namespaceImGui.html#a1e6a2ce7696a25d0dd0cf318e3b48a33" target="_top" xlink:title=" ">
<polygon fill="white" stroke="#666666" points="527.62,-78.75 414.88,-78.75 414.88,-58 527.62,-58 527.62,-78.75"/>
<text text-anchor="middle" x="471.25" y="-65.25" font-family="Helvetica,sans-Serif" font-size="10.00">ImGui::IsNamedKey</text>
</a>
</g>
</g>
<!-- Node4&#45;&gt;Node6 -->
<g id="edge5_Node000004_Node000006" class="edge">
<title>Node4&#45;&gt;Node6</title>
<g id="a_edge5_Node000004_Node000006"><a xlink:title=" ">
<path fill="none" stroke="#63b8ff" d="M354.99,-81.08C371.18,-79.29 387.92,-77.45 403.45,-75.74"/>
<polygon fill="#63b8ff" stroke="#63b8ff" points="403.47,-79.26 413.02,-74.68 402.7,-72.3 403.47,-79.26"/>
</a>
</g>
</g>
<!-- Node7 -->
<g id="Node000007" class="node">
<title>Node7</title>
<g id="a_Node000007"><a xlink:href="structImVector.html#aab5df48e0711a48bd12f3206e08c4108" target="_top" xlink:title=" ">
<polygon fill="white" stroke="#666666" points="529.88,-39.75 412.62,-39.75 412.62,-19 529.88,-19 529.88,-39.75"/>
<text text-anchor="middle" x="471.25" y="-26.25" font-family="Helvetica,sans-Serif" font-size="10.00">ImVector::push_back</text>
</a>
</g>
</g>
<!-- Node4&#45;&gt;Node7 -->
<g id="edge6_Node000004_Node000007" class="edge">
<title>Node4&#45;&gt;Node7</title>
<g id="a_edge6_Node000004_Node000007"><a xlink:title=" ">
<path fill="none" stroke="#63b8ff" d="M299.96,-79.57C324.1,-70.87 359.28,-58.61 390.5,-49.38 397.77,-47.23 405.45,-45.11 413.06,-43.1"/>
<polygon fill="#63b8ff" stroke="#63b8ff" points="413.83,-46.52 422.64,-40.63 412.08,-39.74 413.83,-46.52"/>
</a>
</g>
</g>
<!-- Node8 -->
<g id="Node000008" class="node">
<title>Node8</title>
<g id="a_Node000008"><a xlink:href="structImVector.html#a3a097635d464b1b70dc7d59996a88b28" target="_top" xlink:title=" ">
<polygon fill="white" stroke="#666666" points="729.25,-59.75 588,-59.75 588,-39 729.25,-39 729.25,-59.75"/>
<text text-anchor="middle" x="658.62" y="-46.25" font-family="Helvetica,sans-Serif" font-size="10.00">ImVector::_grow_capacity</text>
</a>
</g>
</g>
<!-- Node7&#45;&gt;Node8 -->
<g id="edge7_Node000007_Node000008" class="edge">
<title>Node7&#45;&gt;Node8</title>
<g id="a_edge7_Node000007_Node000008"><a xlink:title=" ">
<path fill="none" stroke="#63b8ff" d="M530.14,-35.62C544.84,-37.21 560.91,-38.94 576.54,-40.63"/>
<polygon fill="#63b8ff" stroke="#63b8ff" points="575.99,-44.09 586.3,-41.68 576.74,-37.13 575.99,-44.09"/>
</a>
</g>
</g>
<!-- Node9 -->
<g id="Node000009" class="node">
<title>Node9</title>
<g id="a_Node000009"><a xlink:href="structImVector.html#a0f14f5736c3372157856eebb67123b75" target="_top" xlink:title=" ">
<polygon fill="white" stroke="#666666" points="709.75,-20.75 607.5,-20.75 607.5,0 709.75,0 709.75,-20.75"/>
<text text-anchor="middle" x="658.62" y="-7.25" font-family="Helvetica,sans-Serif" font-size="10.00">ImVector::reserve</text>
</a>
</g>
</g>
<!-- Node7&#45;&gt;Node9 -->
<g id="edge8_Node000007_Node000009" class="edge">
<title>Node7&#45;&gt;Node9</title>
<g id="a_edge8_Node000007_Node000009"><a xlink:title=" ">
<path fill="none" stroke="#63b8ff" d="M530.14,-23.44C551.03,-21.3 574.68,-18.88 595.89,-16.7"/>
<polygon fill="#63b8ff" stroke="#63b8ff" points="595.96,-20.21 605.55,-15.71 595.25,-13.25 595.96,-20.21"/>
</a>
</g>
</g>
</g>
</svg>
