<?xml version="1.0" encoding="UTF-8" standalone="no"?>
<!DOCTYPE svg PUBLIC "-//W3C//DTD SVG 1.1//EN"
 "http://www.w3.org/Graphics/SVG/1.1/DTD/svg11.dtd">
<!-- Generated by graphviz version 12.0.0 (20240704.0754)
 -->
<!-- Title: steppable::output::info Pages: 1 -->
<svg width="505pt" height="354pt"
 viewBox="0.00 0.00 504.50 353.50" xmlns="http://www.w3.org/2000/svg" xmlns:xlink="http://www.w3.org/1999/xlink">
<g id="graph0" class="graph" transform="scale(1 1) rotate(0) translate(4 349.5)">
<title>steppable::output::info</title>
<!-- Node1 -->
<g id="Node000001" class="node">
<title>Node1</title>
<g id="a_Node000001"><a xlink:title="Prints an info message.">
<polygon fill="#999999" stroke="#666666" points="496.5,-209.12 370.25,-209.12 370.25,-188.38 496.5,-188.38 496.5,-209.12"/>
<text text-anchor="middle" x="433.38" y="-195.62" font-family="Helvetica,sans-Serif" font-size="10.00">steppable::output::info</text>
</a>
</g>
</g>
<!-- Node2 -->
<g id="Node000002" class="node">
<title>Node2</title>
<g id="a_Node000002"><a xlink:href="namespacesteppable_1_1gui_1_1____internals.html#a49195c9945d9e713a9b65eddc990546b" target="_top" xlink:title=" ">
<polygon fill="white" stroke="#666666" points="334.25,-293.5 190,-293.5 190,-260 334.25,-260 334.25,-293.5"/>
<text text-anchor="start" x="198" y="-280" font-family="Helvetica,sans-Serif" font-size="10.00">steppable::gui::__internals</text>
<text text-anchor="middle" x="262.12" y="-267.25" font-family="Helvetica,sans-Serif" font-size="10.00">::addIfExistent</text>
</a>
</g>
</g>
<!-- Node1&#45;&gt;Node2 -->
<g id="edge1_Node000001_Node000002" class="edge">
<title>Node1&#45;&gt;Node2</title>
<g id="a_edge1_Node000001_Node000002"><a xlink:title=" ">
<path fill="none" stroke="#63b8ff" d="M398.61,-214.31C370.25,-227.38 329.77,-246.04 300.44,-259.55"/>
<polygon fill="#63b8ff" stroke="#63b8ff" points="399.85,-217.59 407.47,-210.23 396.92,-211.24 399.85,-217.59"/>
</a>
</g>
</g>
<!-- Node4 -->
<g id="Node000004" class="node">
<title>Node4</title>
<g id="a_Node000004"><a xlink:href="classsteppable_1_1testing_1_1TestCase.html#a72a291251c17f79279ad7235120b7e2c" target="_top" xlink:title="Asserts a given condition and logs the condition name if it fails.">
<polygon fill="white" stroke="#666666" points="314,-189.5 210.25,-189.5 210.25,-156 314,-156 314,-189.5"/>
<text text-anchor="start" x="218.25" y="-176" font-family="Helvetica,sans-Serif" font-size="10.00">steppable::testing</text>
<text text-anchor="middle" x="262.12" y="-163.25" font-family="Helvetica,sans-Serif" font-size="10.00">::TestCase::assert</text>
</a>
</g>
</g>
<!-- Node1&#45;&gt;Node4 -->
<g id="edge3_Node000001_Node000004" class="edge">
<title>Node1&#45;&gt;Node4</title>
<g id="a_edge3_Node000001_Node000004"><a xlink:title=" ">
<path fill="none" stroke="#63b8ff" d="M358.55,-187.41C343.64,-185.12 328.27,-182.76 314.34,-180.62"/>
<polygon fill="#63b8ff" stroke="#63b8ff" points="357.92,-190.85 368.34,-188.91 358.98,-183.93 357.92,-190.85"/>
</a>
</g>
</g>
<!-- Node3 -->
<g id="Node000003" class="node">
<title>Node3</title>
<g id="a_Node000003"><a xlink:href="namespacesteppable_1_1gui_1_1____internals.html#a5de202eff5596f5c108cd9659a4c756e" target="_top" xlink:title=" ">
<polygon fill="white" stroke="#666666" points="149.12,-345.5 4.88,-345.5 4.88,-312 149.12,-312 149.12,-345.5"/>
<text text-anchor="start" x="12.88" y="-332" font-family="Helvetica,sans-Serif" font-size="10.00">steppable::gui::__internals</text>
<text text-anchor="middle" x="77" y="-319.25" font-family="Helvetica,sans-Serif" font-size="10.00">::loadFonts</text>
</a>
</g>
</g>
<!-- Node2&#45;&gt;Node3 -->
<g id="edge2_Node000002_Node000003" class="edge">
<title>Node2&#45;&gt;Node3</title>
<g id="a_edge2_Node000002_Node000003"><a xlink:title=" ">
<path fill="none" stroke="#63b8ff" d="M189.49,-297.09C172.65,-301.87 154.86,-306.92 138.56,-311.55"/>
<polygon fill="#63b8ff" stroke="#63b8ff" points="190.28,-300.51 198.95,-294.41 188.37,-293.77 190.28,-300.51"/>
</a>
</g>
</g>
<!-- Node5 -->
<g id="Node000005" class="node">
<title>Node5</title>
<g id="a_Node000005"><a xlink:href="classsteppable_1_1testing_1_1TestCase.html#a2d411e579a2e94888801e5c86ce0a1c1" target="_top" xlink:title="Asserts that a boolean value is false.">
<polygon fill="white" stroke="#666666" points="140.12,-293.5 13.88,-293.5 13.88,-260 140.12,-260 140.12,-293.5"/>
<text text-anchor="start" x="21.88" y="-280" font-family="Helvetica,sans-Serif" font-size="10.00">steppable::testing</text>
<text text-anchor="middle" x="77" y="-267.25" font-family="Helvetica,sans-Serif" font-size="10.00">::TestCase::assertFalse</text>
</a>
</g>
</g>
<!-- Node4&#45;&gt;Node5 -->
<g id="edge4_Node000004_Node000005" class="edge">
<title>Node4&#45;&gt;Node5</title>
<g id="a_edge4_Node000004_Node000005"><a xlink:title=" ">
<path fill="none" stroke="#63b8ff" d="M232.78,-197.04C212.04,-213.88 182.63,-235.87 154,-250.75 147.81,-253.97 141.14,-256.92 134.42,-259.59"/>
<polygon fill="#63b8ff" stroke="#63b8ff" points="234.74,-199.97 240.23,-190.91 230.28,-194.57 234.74,-199.97"/>
</a>
</g>
</g>
<!-- Node6 -->
<g id="Node000006" class="node">
<title>Node6</title>
<g id="a_Node000006"><a xlink:href="classsteppable_1_1testing_1_1TestCase.html#a3156df668add7e3abe7c0b47fa1f9cfd" target="_top" xlink:title="Asserts that two strings are equal.">
<polygon fill="white" stroke="#666666" points="145.38,-241.5 8.62,-241.5 8.62,-208 145.38,-208 145.38,-241.5"/>
<text text-anchor="start" x="16.62" y="-228" font-family="Helvetica,sans-Serif" font-size="10.00">steppable::testing</text>
<text text-anchor="middle" x="77" y="-215.25" font-family="Helvetica,sans-Serif" font-size="10.00">::TestCase::assertIsEqual</text>
</a>
</g>
</g>
<!-- Node4&#45;&gt;Node6 -->
<g id="edge5_Node000004_Node000006" class="edge">
<title>Node4&#45;&gt;Node6</title>
<g id="a_edge5_Node000004_Node000006"><a xlink:title=" ">
<path fill="none" stroke="#63b8ff" d="M199.16,-190.35C179.57,-195.91 157.96,-202.05 138.47,-207.58"/>
<polygon fill="#63b8ff" stroke="#63b8ff" points="199.99,-193.75 208.66,-187.65 198.08,-187.01 199.99,-193.75"/>
</a>
</g>
</g>
<!-- Node7 -->
<g id="Node000007" class="node">
<title>Node7</title>
<g id="a_Node000007"><a xlink:href="classsteppable_1_1testing_1_1TestCase.html#a04f2b690d739f3d1c35a3ee7bc62df5f" target="_top" xlink:title="Asserts that two integers are equal.">
<polygon fill="white" stroke="#666666" points="145.38,-189.5 8.62,-189.5 8.62,-156 145.38,-156 145.38,-189.5"/>
<text text-anchor="start" x="16.62" y="-176" font-family="Helvetica,sans-Serif" font-size="10.00">steppable::testing</text>
<text text-anchor="middle" x="77" y="-163.25" font-family="Helvetica,sans-Serif" font-size="10.00">::TestCase::assertIsEqual</text>
</a>
</g>
</g>
<!-- Node4&#45;&gt;Node7 -->
<g id="edge6_Node000004_Node000007" class="edge">
<title>Node4&#45;&gt;Node7</title>
<g id="a_edge6_Node000004_Node000007"><a xlink:title=" ">
<path fill="none" stroke="#63b8ff" d="M198.62,-172.75C181.62,-172.75 163.13,-172.75 145.86,-172.75"/>
<polygon fill="#63b8ff" stroke="#63b8ff" points="198.6,-176.25 208.6,-172.75 198.6,-169.25 198.6,-176.25"/>
</a>
</g>
</g>
<!-- Node8 -->
<g id="Node000008" class="node">
<title>Node8</title>
<g id="a_Node000008"><a xlink:href="classsteppable_1_1testing_1_1TestCase.html#a61790bb36fd5283cec131d81df83aa0e" target="_top" xlink:title="Asserts that two strings are not equal.">
<polygon fill="white" stroke="#666666" points="154,-137.5 0,-137.5 0,-104 154,-104 154,-137.5"/>
<text text-anchor="start" x="8" y="-124" font-family="Helvetica,sans-Serif" font-size="10.00">steppable::testing</text>
<text text-anchor="middle" x="77" y="-111.25" font-family="Helvetica,sans-Serif" font-size="10.00">::TestCase::assertIsNotEqual</text>
</a>
</g>
</g>
<!-- Node4&#45;&gt;Node8 -->
<g id="edge7_Node000004_Node000008" class="edge">
<title>Node4&#45;&gt;Node8</title>
<g id="a_edge7_Node000004_Node000008"><a xlink:title=" ">
<path fill="none" stroke="#63b8ff" d="M199.16,-155.15C179.57,-149.59 157.96,-143.45 138.47,-137.92"/>
<polygon fill="#63b8ff" stroke="#63b8ff" points="198.08,-158.49 208.66,-157.85 199.99,-151.75 198.08,-158.49"/>
</a>
</g>
</g>
<!-- Node9 -->
<g id="Node000009" class="node">
<title>Node9</title>
<g id="a_Node000009"><a xlink:href="classsteppable_1_1testing_1_1TestCase.html#a5b2c520e1adfc9dcd388736b55f36aea" target="_top" xlink:title="Asserts that two integers are not equal.">
<polygon fill="white" stroke="#666666" points="154,-85.5 0,-85.5 0,-52 154,-52 154,-85.5"/>
<text text-anchor="start" x="8" y="-72" font-family="Helvetica,sans-Serif" font-size="10.00">steppable::testing</text>
<text text-anchor="middle" x="77" y="-59.25" font-family="Helvetica,sans-Serif" font-size="10.00">::TestCase::assertIsNotEqual</text>
</a>
</g>
</g>
<!-- Node4&#45;&gt;Node9 -->
<g id="edge8_Node000004_Node000009" class="edge">
<title>Node4&#45;&gt;Node9</title>
<g id="a_edge8_Node000004_Node000009"><a xlink:title=" ">
<path fill="none" stroke="#63b8ff" d="M232.78,-148.46C212.04,-131.62 182.63,-109.63 154,-94.75 147.81,-91.53 141.14,-88.58 134.42,-85.91"/>
<polygon fill="#63b8ff" stroke="#63b8ff" points="230.28,-150.93 240.23,-154.59 234.74,-145.53 230.28,-150.93"/>
</a>
</g>
</g>
<!-- Node10 -->
<g id="Node000010" class="node">
<title>Node10</title>
<g id="a_Node000010"><a xlink:href="classsteppable_1_1testing_1_1TestCase.html#a2eb654185b127e9c62f4fdda127beac1" target="_top" xlink:title="Asserts that a boolean value is true.">
<polygon fill="white" stroke="#666666" points="137.88,-33.5 16.12,-33.5 16.12,0 137.88,0 137.88,-33.5"/>
<text text-anchor="start" x="24.12" y="-20" font-family="Helvetica,sans-Serif" font-size="10.00">steppable::testing</text>
<text text-anchor="middle" x="77" y="-7.25" font-family="Helvetica,sans-Serif" font-size="10.00">::TestCase::assertTrue</text>
</a>
</g>
</g>
<!-- Node4&#45;&gt;Node10 -->
<g id="edge9_Node000004_Node000010" class="edge">
<title>Node4&#45;&gt;Node10</title>
<g id="a_edge9_Node000004_Node000010"><a xlink:title=" ">
<path fill="none" stroke="#63b8ff" d="M245.64,-146.29C227.26,-117.06 194.01,-70.45 154,-42.75 149.07,-39.34 143.65,-36.34 138.05,-33.71"/>
<polygon fill="#63b8ff" stroke="#63b8ff" points="242.5,-147.87 250.72,-154.56 248.47,-144.21 242.5,-147.87"/>
</a>
</g>
</g>
</g>
</svg>
