<?xml version="1.0" encoding="UTF-8" standalone="no"?>
<!DOCTYPE svg PUBLIC "-//W3C//DTD SVG 1.1//EN"
 "http://www.w3.org/Graphics/SVG/1.1/DTD/svg11.dtd">
<!-- Generated by graphviz version 11.0.0 (20240428.1522)
 -->
<!-- Title: steppable::__internals::numUtils::getFactors Pages: 1 -->
<svg width="1586pt" height="643pt"
 viewBox="0.00 0.00 1586.00 642.75" xmlns="http://www.w3.org/2000/svg" xmlns:xlink="http://www.w3.org/1999/xlink">
<g id="graph0" class="graph" transform="scale(1 1) rotate(0) translate(4 638.75)">
<title>steppable::__internals::numUtils::getFactors</title>
<!-- Node1 -->
<g id="Node000001" class="node">
<title>Node1</title>
<g id="a_Node000001"><a xlink:title="Get the factors of a number.">
<polygon fill="#999999" stroke="#666666" points="1578,-308.5 1454.75,-308.5 1454.75,-275 1578,-275 1578,-308.5"/>
<text text-anchor="start" x="1462.75" y="-295" font-family="Helvetica,sans-Serif" font-size="10.00">steppable::__internals</text>
<text text-anchor="middle" x="1516.38" y="-282.25" font-family="Helvetica,sans-Serif" font-size="10.00">::numUtils::getFactors</text>
</a>
</g>
</g>
<!-- Node2 -->
<g id="Node000002" class="node">
<title>Node2</title>
<g id="a_Node000002"><a xlink:href="namespacesteppable_1_1____internals_1_1numUtils.html#a379086734493f9c5d59b1bca39908074" target="_top" xlink:title="Get the largest factor of a number, that is a root number.">
<polygon fill="white" stroke="#666666" points="1418.75,-489.5 1279,-489.5 1279,-456 1418.75,-456 1418.75,-489.5"/>
<text text-anchor="start" x="1287" y="-476" font-family="Helvetica,sans-Serif" font-size="10.00">steppable::__internals</text>
<text text-anchor="middle" x="1348.88" y="-463.25" font-family="Helvetica,sans-Serif" font-size="10.00">::numUtils::getRootFactor</text>
</a>
</g>
</g>
<!-- Node1&#45;&gt;Node2 -->
<g id="edge1_Node000001_Node000002" class="edge">
<title>Node1&#45;&gt;Node2</title>
<g id="a_edge1_Node000001_Node000002"><a xlink:title=" ">
<path fill="none" stroke="#63b8ff" d="M1492.16,-317.14C1457.92,-354.58 1394.79,-423.63 1365.52,-455.64"/>
<polygon fill="#63b8ff" stroke="#63b8ff" points="1494.62,-319.64 1498.78,-309.9 1489.45,-314.91 1494.62,-319.64"/>
</a>
</g>
</g>
<!-- Node29 -->
<g id="Node000029" class="node">
<title>Node29</title>
<g id="a_Node000029"><a xlink:href="namespacesteppable_1_1____internals_1_1numUtils.html#a1a51aabb1fe846587df780d136efd45f" target="_top" xlink:title="Check if a number is prime.">
<polygon fill="white" stroke="#666666" points="1410.5,-308.5 1287.25,-308.5 1287.25,-275 1410.5,-275 1410.5,-308.5"/>
<text text-anchor="start" x="1295.25" y="-295" font-family="Helvetica,sans-Serif" font-size="10.00">steppable::__internals</text>
<text text-anchor="middle" x="1348.88" y="-282.25" font-family="Helvetica,sans-Serif" font-size="10.00">::numUtils::isPrime</text>
</a>
</g>
</g>
<!-- Node1&#45;&gt;Node29 -->
<g id="edge38_Node000001_Node000029" class="edge">
<title>Node1&#45;&gt;Node29</title>
<g id="a_edge38_Node000001_Node000029"><a xlink:title=" ">
<path fill="none" stroke="#63b8ff" d="M1443.47,-291.75C1432.59,-291.75 1421.45,-291.75 1410.83,-291.75"/>
<polygon fill="#63b8ff" stroke="#63b8ff" points="1443.18,-295.25 1453.18,-291.75 1443.18,-288.25 1443.18,-295.25"/>
</a>
</g>
</g>
<!-- Node3 -->
<g id="Node000003" class="node">
<title>Node3</title>
<g id="a_Node000003"><a xlink:href="namespacesteppable_1_1____internals_1_1arithmetic.html#a118bc6cb979317a7c762ee90fb44d0a4" target="_top" xlink:title="Converts a root operation into a surd.">
<polygon fill="white" stroke="#666666" points="1243,-489.5 1119.75,-489.5 1119.75,-456 1243,-456 1243,-489.5"/>
<text text-anchor="start" x="1127.75" y="-476" font-family="Helvetica,sans-Serif" font-size="10.00">steppable::__internals</text>
<text text-anchor="middle" x="1181.38" y="-463.25" font-family="Helvetica,sans-Serif" font-size="10.00">::arithmetic::rootSurd</text>
</a>
</g>
</g>
<!-- Node2&#45;&gt;Node3 -->
<g id="edge2_Node000002_Node000003" class="edge">
<title>Node2&#45;&gt;Node3</title>
<g id="a_edge2_Node000002_Node000003"><a xlink:title=" ">
<path fill="none" stroke="#63b8ff" d="M1267.33,-472.75C1259.29,-472.75 1251.22,-472.75 1243.43,-472.75"/>
<polygon fill="#63b8ff" stroke="#63b8ff" points="1267.13,-476.25 1277.13,-472.75 1267.13,-469.25 1267.13,-476.25"/>
</a>
</g>
</g>
<!-- Node4 -->
<g id="Node000004" class="node">
<title>Node4</title>
<g id="a_Node000004"><a xlink:href="namespacesteppable_1_1____internals_1_1arithmetic.html#a4aa89d1787b7578cd2ed73392bdcd7df" target="_top" xlink:title="Takes the n&#45;th root of a numer.">
<polygon fill="white" stroke="#666666" points="1083.75,-425.5 960.5,-425.5 960.5,-392 1083.75,-392 1083.75,-425.5"/>
<text text-anchor="start" x="968.5" y="-412" font-family="Helvetica,sans-Serif" font-size="10.00">steppable::__internals</text>
<text text-anchor="middle" x="1022.12" y="-399.25" font-family="Helvetica,sans-Serif" font-size="10.00">::arithmetic::root</text>
</a>
</g>
</g>
<!-- Node3&#45;&gt;Node4 -->
<g id="edge3_Node000003_Node000004" class="edge">
<title>Node3&#45;&gt;Node4</title>
<g id="a_edge3_Node000003_Node000004"><a xlink:title=" ">
<path fill="none" stroke="#63b8ff" d="M1127.6,-451.27C1107.35,-443.03 1084.52,-433.74 1065.38,-425.95"/>
<polygon fill="#63b8ff" stroke="#63b8ff" points="1126.25,-454.5 1136.83,-455.03 1128.89,-448.02 1126.25,-454.5"/>
</a>
</g>
</g>
<!-- Node5 -->
<g id="Node000005" class="node">
<title>Node5</title>
<g id="a_Node000005"><a xlink:href="namespacesteppable_1_1____internals_1_1arithmetic.html#a50acfa1ad06ce385943ddd207146c9e0" target="_top" xlink:title="Raises a string representation of a number to a power.">
<polygon fill="white" stroke="#666666" points="924.5,-425.5 801.25,-425.5 801.25,-392 924.5,-392 924.5,-425.5"/>
<text text-anchor="start" x="809.25" y="-412" font-family="Helvetica,sans-Serif" font-size="10.00">steppable::__internals</text>
<text text-anchor="middle" x="862.88" y="-399.25" font-family="Helvetica,sans-Serif" font-size="10.00">::arithmetic::power</text>
</a>
</g>
</g>
<!-- Node4&#45;&gt;Node5 -->
<g id="edge4_Node000004_Node000005" class="edge">
<title>Node4&#45;&gt;Node5</title>
<g id="a_edge4_Node000004_Node000005"><a xlink:title=" ">
<path fill="none" stroke="#63b8ff" d="M948.98,-408.75C940.89,-408.75 932.7,-408.75 924.77,-408.75"/>
<polygon fill="#63b8ff" stroke="#63b8ff" points="948.81,-412.25 958.81,-408.75 948.81,-405.25 948.81,-412.25"/>
</a>
</g>
</g>
<!-- Node5&#45;&gt;Node5 -->
<g id="edge36_Node000005_Node000005" class="edge">
<title>Node5&#45;&gt;Node5</title>
<g id="a_edge36_Node000005_Node000005"><a xlink:title=" ">
<path fill="none" stroke="#63b8ff" d="M889.61,-436.89C885.26,-440.85 876.35,-443.5 862.88,-443.5 838.93,-443.5 829.38,-435.12 834.25,-425.91"/>
<polygon fill="#63b8ff" stroke="#63b8ff" points="893,-437.85 891.25,-427.41 886.1,-436.67 893,-437.85"/>
</a>
</g>
</g>
<!-- Node6 -->
<g id="Node000006" class="node">
<title>Node6</title>
<g id="a_Node000006"><a xlink:href="namespacesteppable_1_1____internals_1_1arithmetic.html#a1eedcdd2349ec452f6319cd0ff443e0a" target="_top" xlink:title=" ">
<polygon fill="white" stroke="#666666" points="359.75,-228.5 236.5,-228.5 236.5,-195 359.75,-195 359.75,-228.5"/>
<text text-anchor="start" x="244.5" y="-215" font-family="Helvetica,sans-Serif" font-size="10.00">steppable::__internals</text>
<text text-anchor="middle" x="298.12" y="-202.25" font-family="Helvetica,sans-Serif" font-size="10.00">::arithmetic::_root</text>
</a>
</g>
</g>
<!-- Node5&#45;&gt;Node6 -->
<g id="edge5_Node000005_Node000006" class="edge">
<title>Node5&#45;&gt;Node6</title>
<g id="a_edge5_Node000005_Node000006"><a xlink:title=" ">
<path fill="none" stroke="#63b8ff" d="M852.96,-380.89C839.92,-345.18 811.99,-284.46 765.25,-255.75 731.48,-235.01 478.71,-220.34 360.16,-214.52"/>
<polygon fill="#63b8ff" stroke="#63b8ff" points="849.57,-381.82 856.17,-390.1 856.18,-379.51 849.57,-381.82"/>
</a>
</g>
</g>
<!-- Node7 -->
<g id="Node000007" class="node">
<title>Node7</title>
<g id="a_Node000007"><a xlink:href="namespacesteppable_1_1____internals_1_1arithmetic.html#afc4c4f319dadbb5b1ff481132f008374" target="_top" xlink:title="Converts a string representation of a number from any base to decimal.">
<polygon fill="white" stroke="#666666" points="750.25,-402.5 594.75,-402.5 594.75,-369 750.25,-369 750.25,-402.5"/>
<text text-anchor="start" x="602.75" y="-389" font-family="Helvetica,sans-Serif" font-size="10.00">steppable::__internals</text>
<text text-anchor="middle" x="672.5" y="-376.25" font-family="Helvetica,sans-Serif" font-size="10.00">::arithmetic::decimalConvert</text>
</a>
</g>
</g>
<!-- Node5&#45;&gt;Node7 -->
<g id="edge8_Node000005_Node000007" class="edge">
<title>Node5&#45;&gt;Node7</title>
<g id="a_edge8_Node000005_Node000007"><a xlink:title=" ">
<path fill="none" stroke="#63b8ff" d="M789.89,-399.96C777.07,-398.4 763.67,-396.76 750.72,-395.18"/>
<polygon fill="#63b8ff" stroke="#63b8ff" points="789.12,-403.39 799.47,-401.13 789.97,-396.44 789.12,-403.39"/>
</a>
</g>
</g>
<!-- Node8 -->
<g id="Node000008" class="node">
<title>Node8</title>
<g id="a_Node000008"><a xlink:href="namespacesteppable_1_1____internals_1_1arithmetic.html#aa150ef39a272f7228ae239679247fab3" target="_top" xlink:title="Determines the scale of the quotient of division.">
<polygon fill="white" stroke="#666666" points="765.25,-350.5 579.75,-350.5 579.75,-317 765.25,-317 765.25,-350.5"/>
<text text-anchor="start" x="587.75" y="-337" font-family="Helvetica,sans-Serif" font-size="10.00">steppable::__internals</text>
<text text-anchor="middle" x="672.5" y="-324.25" font-family="Helvetica,sans-Serif" font-size="10.00">::arithmetic::determineResultScale</text>
</a>
</g>
</g>
<!-- Node5&#45;&gt;Node8 -->
<g id="edge9_Node000005_Node000008" class="edge">
<title>Node5&#45;&gt;Node8</title>
<g id="a_edge9_Node000005_Node000008"><a xlink:title=" ">
<path fill="none" stroke="#63b8ff" d="M821.53,-386.09C804.5,-377.11 784.25,-367.18 765.25,-359.75 757.23,-356.61 748.69,-353.68 740.16,-351"/>
<polygon fill="#63b8ff" stroke="#63b8ff" points="819.87,-389.18 830.34,-390.81 823.18,-383.01 819.87,-389.18"/>
</a>
</g>
</g>
<!-- Node14 -->
<g id="Node000014" class="node">
<title>Node14</title>
<g id="a_Node000014"><a xlink:href="namespacesteppable_1_1____internals_1_1arithmetic.html#a6f1429e9d7719e6376dc68ae28d36dbe" target="_top" xlink:title="Gets the integer part of the root of a number.">
<polygon fill="white" stroke="#666666" points="362.75,-547.5 233.5,-547.5 233.5,-514 362.75,-514 362.75,-547.5"/>
<text text-anchor="start" x="241.5" y="-534" font-family="Helvetica,sans-Serif" font-size="10.00">steppable::__internals</text>
<text text-anchor="middle" x="298.12" y="-521.25" font-family="Helvetica,sans-Serif" font-size="10.00">::arithmetic::rootIntPart</text>
</a>
</g>
</g>
<!-- Node5&#45;&gt;Node14 -->
<g id="edge37_Node000005_Node000014" class="edge">
<title>Node5&#45;&gt;Node14</title>
<g id="a_edge37_Node000005_Node000014"><a xlink:title=" ">
<path fill="none" stroke="#63b8ff" d="M843.42,-434.78C826.05,-456.94 797.89,-487.4 765.25,-501.75 631.83,-560.41 455.97,-550.99 363.04,-540.18"/>
<polygon fill="#63b8ff" stroke="#63b8ff" points="846.01,-437.15 849.26,-427.07 840.43,-432.92 846.01,-437.15"/>
</a>
</g>
</g>
<!-- Node15 -->
<g id="Node000015" class="node">
<title>Node15</title>
<g id="a_Node000015"><a xlink:href="namespacesteppable_1_1____internals_1_1numUtils.html#a9af210044669c6dd27a2fca4723fe831" target="_top" xlink:title="Get the greatest root number less than or equal to the given number.">
<polygon fill="white" stroke="#666666" points="175.75,-553.5 0,-553.5 0,-520 175.75,-520 175.75,-553.5"/>
<text text-anchor="start" x="8" y="-540" font-family="Helvetica,sans-Serif" font-size="10.00">steppable::__internals</text>
<text text-anchor="middle" x="87.88" y="-527.25" font-family="Helvetica,sans-Serif" font-size="10.00">::numUtils::getGreatestRootNum</text>
</a>
</g>
</g>
<!-- Node5&#45;&gt;Node15 -->
<g id="edge32_Node000005_Node000015" class="edge">
<title>Node5&#45;&gt;Node15</title>
<g id="a_edge32_Node000005_Node000015"><a xlink:title=" ">
<path fill="none" stroke="#63b8ff" d="M789.74,-416.77C669.3,-430.76 419.94,-462.21 211.75,-504.75 191.45,-508.9 169.49,-514.31 149.83,-519.51"/>
<polygon fill="#63b8ff" stroke="#63b8ff" points="789.95,-420.27 799.48,-415.65 789.15,-413.32 789.95,-420.27"/>
</a>
</g>
</g>
<!-- Node16 -->
<g id="Node000016" class="node">
<title>Node16</title>
<g id="a_Node000016"><a xlink:href="namespacesteppable_1_1____internals_1_1numUtils.html#af5d859c9839f7f49bf06f891693d5dfc" target="_top" xlink:title="Check if a number is a root number.">
<polygon fill="white" stroke="#666666" points="149.5,-613.5 26.25,-613.5 26.25,-580 149.5,-580 149.5,-613.5"/>
<text text-anchor="start" x="34.25" y="-600" font-family="Helvetica,sans-Serif" font-size="10.00">steppable::__internals</text>
<text text-anchor="middle" x="87.88" y="-587.25" font-family="Helvetica,sans-Serif" font-size="10.00">::numUtils::isRoot</text>
</a>
</g>
</g>
<!-- Node5&#45;&gt;Node16 -->
<g id="edge33_Node000005_Node000016" class="edge">
<title>Node5&#45;&gt;Node16</title>
<g id="a_edge33_Node000005_Node000016"><a xlink:title=" ">
<path fill="none" stroke="#63b8ff" d="M849.74,-435.85C834.64,-466.08 805.8,-513.75 765.25,-536.75 661.05,-595.87 295.96,-598.93 149.92,-597.69"/>
<polygon fill="#63b8ff" stroke="#63b8ff" points="852.85,-437.47 854.03,-426.94 846.54,-434.44 852.85,-437.47"/>
</a>
</g>
</g>
<!-- Node27 -->
<g id="Node000027" class="node">
<title>Node27</title>
<g id="a_Node000027"><a xlink:href="classsteppable_1_1Fraction.html#abaf8678e0b61e3097789959b66e4c23c" target="_top" xlink:title="Raises the fraction to a power.">
<polygon fill="white" stroke="#666666" points="727,-298.5 618,-298.5 618,-265 727,-265 727,-298.5"/>
<text text-anchor="start" x="626" y="-285" font-family="Helvetica,sans-Serif" font-size="10.00">steppable::Fraction</text>
<text text-anchor="middle" x="672.5" y="-272.25" font-family="Helvetica,sans-Serif" font-size="10.00">::operator^</text>
</a>
</g>
</g>
<!-- Node5&#45;&gt;Node27 -->
<g id="edge34_Node000005_Node000027" class="edge">
<title>Node5&#45;&gt;Node27</title>
<g id="a_edge34_Node000005_Node000027"><a xlink:title=" ">
<path fill="none" stroke="#63b8ff" d="M843.33,-382.6C825.73,-359.66 797.27,-327.02 765.25,-307.75 753.76,-300.83 740.36,-295.69 727.4,-291.89"/>
<polygon fill="#63b8ff" stroke="#63b8ff" points="840.49,-384.65 849.28,-390.57 846.1,-380.46 840.49,-384.65"/>
</a>
</g>
</g>
<!-- Node28 -->
<g id="Node000028" class="node">
<title>Node28</title>
<g id="a_Node000028"><a xlink:href="classsteppable_1_1Number.html#ae3e13c5f73bc67cd464c84a8640e1387" target="_top" xlink:title="Raises the number to a power.">
<polygon fill="white" stroke="#666666" points="730,-492.5 615,-492.5 615,-459 730,-459 730,-492.5"/>
<text text-anchor="start" x="623" y="-479" font-family="Helvetica,sans-Serif" font-size="10.00">steppable::Number::</text>
<text text-anchor="middle" x="672.5" y="-466.25" font-family="Helvetica,sans-Serif" font-size="10.00">operator^</text>
</a>
</g>
</g>
<!-- Node5&#45;&gt;Node28 -->
<g id="edge35_Node000005_Node000028" class="edge">
<title>Node5&#45;&gt;Node28</title>
<g id="a_edge35_Node000005_Node000028"><a xlink:title=" ">
<path fill="none" stroke="#63b8ff" d="M806.24,-429.81C792.85,-434.79 778.56,-440.02 765.25,-444.75 752.26,-449.36 738.18,-454.2 725.03,-458.65"/>
<polygon fill="#63b8ff" stroke="#63b8ff" points="807.19,-433.19 815.34,-426.42 804.74,-426.63 807.19,-433.19"/>
</a>
</g>
</g>
<!-- Node6&#45;&gt;Node4 -->
<g id="edge7_Node000006_Node000004" class="edge">
<title>Node6&#45;&gt;Node4</title>
<g id="a_edge7_Node000006_Node000004"><a xlink:title=" ">
<path fill="none" stroke="#63b8ff" d="M371.4,-200.62C465.14,-189.11 632.37,-178.6 765.25,-224.75 868.88,-260.74 967.14,-353.22 1004.87,-391.63"/>
<polygon fill="#63b8ff" stroke="#63b8ff" points="371.04,-197.14 361.57,-201.87 371.93,-204.08 371.04,-197.14"/>
</a>
</g>
</g>
<!-- Node6&#45;&gt;Node6 -->
<g id="edge6_Node000006_Node000006" class="edge">
<title>Node6&#45;&gt;Node6</title>
<g id="a_edge6_Node000006_Node000006"><a xlink:title=" ">
<path fill="none" stroke="#63b8ff" d="M329.02,-239.89C323.99,-243.85 313.69,-246.5 298.12,-246.5 270.45,-246.5 259.43,-238.12 265.05,-228.91"/>
<polygon fill="#63b8ff" stroke="#63b8ff" points="332.39,-240.89 330.91,-230.4 325.52,-239.52 332.39,-240.89"/>
</a>
</g>
</g>
<!-- Node9 -->
<g id="Node000009" class="node">
<title>Node9</title>
<g id="a_Node000009"><a xlink:href="namespacesteppable_1_1____internals_1_1arithmetic.html#a26194ae8ddb44afb942fbf8335ae1730" target="_top" xlink:title="Divides a string representation of a number by another string representation of a number.">
<polygon fill="white" stroke="#666666" points="543.75,-350.5 420.5,-350.5 420.5,-317 543.75,-317 543.75,-350.5"/>
<text text-anchor="start" x="428.5" y="-337" font-family="Helvetica,sans-Serif" font-size="10.00">steppable::__internals</text>
<text text-anchor="middle" x="482.12" y="-324.25" font-family="Helvetica,sans-Serif" font-size="10.00">::arithmetic::divide</text>
</a>
</g>
</g>
<!-- Node8&#45;&gt;Node9 -->
<g id="edge10_Node000008_Node000009" class="edge">
<title>Node8&#45;&gt;Node9</title>
<g id="a_edge10_Node000008_Node000009"><a xlink:title=" ">
<path fill="none" stroke="#63b8ff" d="M568.23,-333.75C559.98,-333.75 551.83,-333.75 544.02,-333.75"/>
<polygon fill="#63b8ff" stroke="#63b8ff" points="568.01,-337.25 578.01,-333.75 568.01,-330.25 568.01,-337.25"/>
</a>
</g>
</g>
<!-- Node9&#45;&gt;Node3 -->
<g id="edge21_Node000009_Node000003" class="edge">
<title>Node9&#45;&gt;Node3</title>
<g id="a_edge21_Node000009_Node000003"><a xlink:title=" ">
<path fill="none" stroke="#63b8ff" d="M489.87,-361.77C501.04,-401.18 527.51,-471.53 579.75,-501.75 762.74,-607.6 1032.05,-527.85 1136.62,-489.89"/>
<polygon fill="#63b8ff" stroke="#63b8ff" points="493.31,-361.06 487.34,-352.31 486.54,-362.87 493.31,-361.06"/>
</a>
</g>
</g>
<!-- Node9&#45;&gt;Node6 -->
<g id="edge11_Node000009_Node000006" class="edge">
<title>Node9&#45;&gt;Node6</title>
<g id="a_edge11_Node000009_Node000006"><a xlink:title=" ">
<path fill="none" stroke="#63b8ff" d="M453.79,-309.18C435.04,-292.97 409.18,-271.83 384.5,-255.75 369.27,-245.83 351.53,-236.38 336.18,-228.8"/>
<polygon fill="#63b8ff" stroke="#63b8ff" points="451.42,-311.76 461.25,-315.7 456.03,-306.49 451.42,-311.76"/>
</a>
</g>
</g>
<!-- Node10 -->
<g id="Node000010" class="node">
<title>Node10</title>
<g id="a_Node000010"><a xlink:href="namespacesteppable_1_1____internals_1_1arithmetic.html#a814abbd0fc1772320626c4c0ca3f677a" target="_top" xlink:title="Converts a string representation of a number from decimal to another one.">
<polygon fill="white" stroke="#666666" points="368,-402.5 228.25,-402.5 228.25,-369 368,-369 368,-402.5"/>
<text text-anchor="start" x="236.25" y="-389" font-family="Helvetica,sans-Serif" font-size="10.00">steppable::__internals</text>
<text text-anchor="middle" x="298.12" y="-376.25" font-family="Helvetica,sans-Serif" font-size="10.00">::arithmetic::baseConvert</text>
</a>
</g>
</g>
<!-- Node9&#45;&gt;Node10 -->
<g id="edge12_Node000009_Node000010" class="edge">
<title>Node9&#45;&gt;Node10</title>
<g id="a_edge12_Node000009_Node000010"><a xlink:title=" ">
<path fill="none" stroke="#63b8ff" d="M409.93,-354.09C393.19,-358.87 375.51,-363.92 359.31,-368.55"/>
<polygon fill="#63b8ff" stroke="#63b8ff" points="410.67,-357.52 419.32,-351.41 408.74,-350.79 410.67,-357.52"/>
</a>
</g>
</g>
<!-- Node11 -->
<g id="Node000011" class="node">
<title>Node11</title>
<g id="a_Node000011"><a xlink:href="namespacesteppable_1_1____internals_1_1arithmetic.html#ac9102075acd398b3bdf388f6cc2ef978" target="_top" xlink:title=" ">
<polygon fill="white" stroke="#666666" points="384.5,-176.5 211.75,-176.5 211.75,-143 384.5,-143 384.5,-176.5"/>
<text text-anchor="start" x="219.75" y="-163" font-family="Helvetica,sans-Serif" font-size="10.00">steppable::__internals</text>
<text text-anchor="middle" x="298.12" y="-150.25" font-family="Helvetica,sans-Serif" font-size="10.00">::arithmetic::divideWithQuotient</text>
</a>
</g>
</g>
<!-- Node9&#45;&gt;Node11 -->
<g id="edge13_Node000009_Node000011" class="edge">
<title>Node9&#45;&gt;Node11</title>
<g id="a_edge13_Node000009_Node000011"><a xlink:title=" ">
<path fill="none" stroke="#63b8ff" d="M470.27,-306.41C455.68,-273.1 426.61,-217.37 384.5,-185.75 380.04,-182.4 375.15,-179.48 370.03,-176.93"/>
<polygon fill="#63b8ff" stroke="#63b8ff" points="466.95,-307.54 474.08,-315.38 473.4,-304.81 466.95,-307.54"/>
</a>
</g>
</g>
<!-- Node13 -->
<g id="Node000013" class="node">
<title>Node13</title>
<g id="a_Node000013"><a xlink:href="classsteppable_1_1Number.html#aebdaf5d342a2a897793556bd390bc184" target="_top" xlink:title="Divides two numbers.">
<polygon fill="white" stroke="#666666" points="355.62,-350.5 240.62,-350.5 240.62,-317 355.62,-317 355.62,-350.5"/>
<text text-anchor="start" x="248.62" y="-337" font-family="Helvetica,sans-Serif" font-size="10.00">steppable::Number::</text>
<text text-anchor="middle" x="298.12" y="-324.25" font-family="Helvetica,sans-Serif" font-size="10.00">operator/</text>
</a>
</g>
</g>
<!-- Node9&#45;&gt;Node13 -->
<g id="edge16_Node000009_Node000013" class="edge">
<title>Node9&#45;&gt;Node13</title>
<g id="a_edge16_Node000009_Node000013"><a xlink:title=" ">
<path fill="none" stroke="#63b8ff" d="M408.69,-333.75C391.19,-333.75 372.75,-333.75 356.08,-333.75"/>
<polygon fill="#63b8ff" stroke="#63b8ff" points="408.5,-337.25 418.5,-333.75 408.5,-330.25 408.5,-337.25"/>
</a>
</g>
</g>
<!-- Node9&#45;&gt;Node14 -->
<g id="edge17_Node000009_Node000014" class="edge">
<title>Node9&#45;&gt;Node14</title>
<g id="a_edge17_Node000009_Node000014"><a xlink:title=" ">
<path fill="none" stroke="#63b8ff" d="M457.61,-359.21C419.97,-399.94 347.2,-478.72 315.05,-513.51"/>
<polygon fill="#63b8ff" stroke="#63b8ff" points="460.05,-361.72 464.26,-352 454.91,-356.97 460.05,-361.72"/>
</a>
</g>
</g>
<!-- Node17 -->
<g id="Node000017" class="node">
<title>Node17</title>
<g id="a_Node000017"><a xlink:href="classsteppable_1_1Fraction.html#a9cf64d847c268d9334775c572ef75dfa" target="_top" xlink:title="Simplifies a fraction. This function simplifies the fraction by dividing the top and bottom component...">
<polygon fill="white" stroke="#666666" points="352.62,-298.5 243.62,-298.5 243.62,-265 352.62,-265 352.62,-298.5"/>
<text text-anchor="start" x="251.62" y="-285" font-family="Helvetica,sans-Serif" font-size="10.00">steppable::Fraction</text>
<text text-anchor="middle" x="298.12" y="-272.25" font-family="Helvetica,sans-Serif" font-size="10.00">::simplify</text>
</a>
</g>
</g>
<!-- Node9&#45;&gt;Node17 -->
<g id="edge22_Node000009_Node000017" class="edge">
<title>Node9&#45;&gt;Node17</title>
<g id="a_edge22_Node000009_Node000017"><a xlink:title=" ">
<path fill="none" stroke="#63b8ff" d="M409.79,-313.37C390.85,-307.96 370.71,-302.2 352.88,-297.11"/>
<polygon fill="#63b8ff" stroke="#63b8ff" points="408.74,-316.71 419.32,-316.09 410.67,-309.98 408.74,-316.71"/>
</a>
</g>
</g>
<!-- Node11&#45;&gt;Node1 -->
<g id="edge14_Node000011_Node000001" class="edge">
<title>Node11&#45;&gt;Node1</title>
<g id="a_edge14_Node000011_Node000001"><a xlink:title=" ">
<path fill="none" stroke="#63b8ff" d="M396.22,-160.15C471.37,-160.43 578.03,-160.75 671.5,-160.75 1182.38,-160.75 1182.38,-160.75 1182.38,-160.75 1305.38,-160.75 1437.32,-239.11 1490.78,-274.62"/>
<polygon fill="#63b8ff" stroke="#63b8ff" points="396.43,-156.65 386.42,-160.12 396.41,-163.65 396.43,-156.65"/>
</a>
</g>
</g>
<!-- Node12 -->
<g id="Node000012" class="node">
<title>Node12</title>
<g id="a_Node000012"><a xlink:href="classsteppable_1_1Number.html#a719a8a93fcfe91b30c38ba0830d6de50" target="_top" xlink:title="Calculates the remainder of two numbers. (Modulus)">
<polygon fill="white" stroke="#666666" points="145.38,-33.5 30.38,-33.5 30.38,0 145.38,0 145.38,-33.5"/>
<text text-anchor="start" x="38.38" y="-20" font-family="Helvetica,sans-Serif" font-size="10.00">steppable::Number::</text>
<text text-anchor="middle" x="87.88" y="-7.25" font-family="Helvetica,sans-Serif" font-size="10.00">operator%</text>
</a>
</g>
</g>
<!-- Node11&#45;&gt;Node12 -->
<g id="edge15_Node000011_Node000012" class="edge">
<title>Node11&#45;&gt;Node12</title>
<g id="a_edge15_Node000011_Node000012"><a xlink:title=" ">
<path fill="none" stroke="#63b8ff" d="M276.94,-134.08C254.79,-107.58 216.89,-66.79 175.75,-42.75 166.51,-37.35 156.05,-32.98 145.66,-29.48"/>
<polygon fill="#63b8ff" stroke="#63b8ff" points="274.09,-136.13 283.13,-141.64 279.5,-131.69 274.09,-136.13"/>
</a>
</g>
</g>
<!-- Node14&#45;&gt;Node15 -->
<g id="edge18_Node000014_Node000015" class="edge">
<title>Node14&#45;&gt;Node15</title>
<g id="a_edge18_Node000014_Node000015"><a xlink:title=" ">
<path fill="none" stroke="#63b8ff" d="M222.01,-532.91C207.1,-533.34 191.32,-533.8 176.04,-534.24"/>
<polygon fill="#63b8ff" stroke="#63b8ff" points="221.82,-536.42 231.71,-532.63 221.62,-529.42 221.82,-536.42"/>
</a>
</g>
</g>
<!-- Node14&#45;&gt;Node16 -->
<g id="edge19_Node000014_Node000016" class="edge">
<title>Node14&#45;&gt;Node16</title>
<g id="a_edge19_Node000014_Node000016"><a xlink:title=" ">
<path fill="none" stroke="#63b8ff" d="M232.24,-551.31C203.63,-560.38 170.4,-570.91 143.14,-579.55"/>
<polygon fill="#63b8ff" stroke="#63b8ff" points="233.04,-554.73 241.51,-548.38 230.92,-548.06 233.04,-554.73"/>
</a>
</g>
</g>
<!-- Node16&#45;&gt;Node2 -->
<g id="edge20_Node000016_Node000002" class="edge">
<title>Node16&#45;&gt;Node2</title>
<g id="a_edge20_Node000016_Node000002"><a xlink:title=" ">
<path fill="none" stroke="#63b8ff" d="M161.06,-607.96C239.6,-619.17 368.96,-634.75 481.12,-634.75 1023.12,-634.75 1023.12,-634.75 1023.12,-634.75 1151.97,-634.75 1282.2,-531.37 1329.38,-489.78"/>
<polygon fill="#63b8ff" stroke="#63b8ff" points="161.74,-604.52 151.34,-606.56 160.74,-611.45 161.74,-604.52"/>
</a>
</g>
</g>
<!-- Node18 -->
<g id="Node000018" class="node">
<title>Node18</title>
<g id="a_Node000018"><a xlink:href="classsteppable_1_1Fraction.html#a4647e3f3062426a91d1ef7cdbde23bb6" target="_top" xlink:title="Initialized a fraction from a number.">
<polygon fill="white" stroke="#666666" points="142.38,-85.5 33.38,-85.5 33.38,-52 142.38,-52 142.38,-85.5"/>
<text text-anchor="start" x="41.38" y="-72" font-family="Helvetica,sans-Serif" font-size="10.00">steppable::Fraction</text>
<text text-anchor="middle" x="87.88" y="-59.25" font-family="Helvetica,sans-Serif" font-size="10.00">::Fraction</text>
</a>
</g>
</g>
<!-- Node17&#45;&gt;Node18 -->
<g id="edge23_Node000017_Node000018" class="edge">
<title>Node17&#45;&gt;Node18</title>
<g id="a_edge23_Node000017_Node000018"><a xlink:title=" ">
<path fill="none" stroke="#63b8ff" d="M232.86,-270.52C224.95,-266.87 217.61,-262.07 211.75,-255.75 161.9,-201.98 225.73,-148.4 175.75,-94.75 166.95,-85.3 154.87,-79.24 142.52,-75.36"/>
<polygon fill="#63b8ff" stroke="#63b8ff" points="231.5,-273.74 242.09,-274.12 234.05,-267.22 231.5,-273.74"/>
</a>
</g>
</g>
<!-- Node19 -->
<g id="Node000019" class="node">
<title>Node19</title>
<g id="a_Node000019"><a xlink:href="classsteppable_1_1Fraction.html#a1fa38ab4cede78e19fa478242f6e5b46" target="_top" xlink:title="Initializes a fraction with a specified top component and bottom component.">
<polygon fill="white" stroke="#666666" points="142.38,-501.5 33.38,-501.5 33.38,-468 142.38,-468 142.38,-501.5"/>
<text text-anchor="start" x="41.38" y="-488" font-family="Helvetica,sans-Serif" font-size="10.00">steppable::Fraction</text>
<text text-anchor="middle" x="87.88" y="-475.25" font-family="Helvetica,sans-Serif" font-size="10.00">::Fraction</text>
</a>
</g>
</g>
<!-- Node17&#45;&gt;Node19 -->
<g id="edge24_Node000017_Node000019" class="edge">
<title>Node17&#45;&gt;Node19</title>
<g id="a_edge24_Node000017_Node000019"><a xlink:title=" ">
<path fill="none" stroke="#63b8ff" d="M232.64,-293.2C224.84,-296.81 217.58,-301.55 211.75,-307.75 164.49,-358.01 223.13,-408.6 175.75,-458.75 166.88,-468.13 154.78,-474.17 142.43,-478.05"/>
<polygon fill="#63b8ff" stroke="#63b8ff" points="233.72,-296.54 241.74,-289.62 231.15,-290.02 233.72,-296.54"/>
</a>
</g>
</g>
<!-- Node20 -->
<g id="Node000020" class="node">
<title>Node20</title>
<g id="a_Node000020"><a xlink:href="classsteppable_1_1Fraction.html#a21eef8107e9cd1e590f7595c4ecbe147" target="_top" xlink:title="Multiplies two fractions together and stores the result in the current one. This function does it by ...">
<polygon fill="white" stroke="#666666" points="142.38,-449.5 33.38,-449.5 33.38,-416 142.38,-416 142.38,-449.5"/>
<text text-anchor="start" x="41.38" y="-436" font-family="Helvetica,sans-Serif" font-size="10.00">steppable::Fraction</text>
<text text-anchor="middle" x="87.88" y="-423.25" font-family="Helvetica,sans-Serif" font-size="10.00">::operator*=</text>
</a>
</g>
</g>
<!-- Node17&#45;&gt;Node20 -->
<g id="edge25_Node000017_Node000020" class="edge">
<title>Node17&#45;&gt;Node20</title>
<g id="a_edge25_Node000017_Node000020"><a xlink:title=" ">
<path fill="none" stroke="#63b8ff" d="M232.72,-294.09C225.03,-297.57 217.78,-302.03 211.75,-307.75 177.78,-339.96 209.8,-374.62 175.75,-406.75 166.59,-415.39 154.67,-421.17 142.61,-425.04"/>
<polygon fill="#63b8ff" stroke="#63b8ff" points="233.96,-297.36 242.01,-290.47 231.42,-290.84 233.96,-297.36"/>
</a>
</g>
</g>
<!-- Node21 -->
<g id="Node000021" class="node">
<title>Node21</title>
<g id="a_Node000021"><a xlink:href="classsteppable_1_1Fraction.html#ab10a5f43f6e60253ab6f4a097c73cf6e" target="_top" xlink:title="Adds two fractions together and stores the result in the current one. This function does it by doing ...">
<polygon fill="white" stroke="#666666" points="142.38,-397.5 33.38,-397.5 33.38,-364 142.38,-364 142.38,-397.5"/>
<text text-anchor="start" x="41.38" y="-384" font-family="Helvetica,sans-Serif" font-size="10.00">steppable::Fraction</text>
<text text-anchor="middle" x="87.88" y="-371.25" font-family="Helvetica,sans-Serif" font-size="10.00">::operator+=</text>
</a>
</g>
</g>
<!-- Node17&#45;&gt;Node21 -->
<g id="edge26_Node000017_Node000021" class="edge">
<title>Node17&#45;&gt;Node21</title>
<g id="a_edge26_Node000017_Node000021"><a xlink:title=" ">
<path fill="none" stroke="#63b8ff" d="M232.75,-296.53C225.34,-299.61 218.15,-303.31 211.75,-307.75 190.13,-322.75 197.41,-339.81 175.75,-354.75 165.9,-361.55 154.24,-366.6 142.72,-370.34"/>
<polygon fill="#63b8ff" stroke="#63b8ff" points="233.75,-299.89 241.89,-293.11 231.3,-293.33 233.75,-299.89"/>
</a>
</g>
</g>
<!-- Node22 -->
<g id="Node000022" class="node">
<title>Node22</title>
<g id="a_Node000022"><a xlink:href="classsteppable_1_1Fraction.html#aad3d96fbba7e7a0fa36c3f69f0463b8b" target="_top" xlink:title="Subtracts a fraction from another fraction and stores the result in the current one....">
<polygon fill="white" stroke="#666666" points="142.38,-345.5 33.38,-345.5 33.38,-312 142.38,-312 142.38,-345.5"/>
<text text-anchor="start" x="41.38" y="-332" font-family="Helvetica,sans-Serif" font-size="10.00">steppable::Fraction</text>
<text text-anchor="middle" x="87.88" y="-319.25" font-family="Helvetica,sans-Serif" font-size="10.00">::operator&#45;=</text>
</a>
</g>
</g>
<!-- Node17&#45;&gt;Node22 -->
<g id="edge27_Node000017_Node000022" class="edge">
<title>Node17&#45;&gt;Node22</title>
<g id="a_edge27_Node000017_Node000022"><a xlink:title=" ">
<path fill="none" stroke="#63b8ff" d="M232.04,-296.44C203.27,-302.93 169.86,-310.47 142.55,-316.64"/>
<polygon fill="#63b8ff" stroke="#63b8ff" points="232.76,-299.86 241.75,-294.25 231.22,-293.04 232.76,-299.86"/>
</a>
</g>
</g>
<!-- Node23 -->
<g id="Node000023" class="node">
<title>Node23</title>
<g id="a_Node000023"><a xlink:href="classsteppable_1_1Fraction.html#a86913160c5f596b74be3007bd16bda6b" target="_top" xlink:title="Divides a fraction by abother fraction and stores the result in the current one. This function does i...">
<polygon fill="white" stroke="#666666" points="142.38,-293.5 33.38,-293.5 33.38,-260 142.38,-260 142.38,-293.5"/>
<text text-anchor="start" x="41.38" y="-280" font-family="Helvetica,sans-Serif" font-size="10.00">steppable::Fraction</text>
<text text-anchor="middle" x="87.88" y="-267.25" font-family="Helvetica,sans-Serif" font-size="10.00">::operator/=</text>
</a>
</g>
</g>
<!-- Node17&#45;&gt;Node23 -->
<g id="edge28_Node000017_Node000023" class="edge">
<title>Node17&#45;&gt;Node23</title>
<g id="a_edge28_Node000017_Node000023"><a xlink:title=" ">
<path fill="none" stroke="#63b8ff" d="M232.04,-280.19C203.27,-279.5 169.86,-278.69 142.55,-278.04"/>
<polygon fill="#63b8ff" stroke="#63b8ff" points="231.63,-283.68 241.71,-280.42 231.8,-276.68 231.63,-283.68"/>
</a>
</g>
</g>
<!-- Node24 -->
<g id="Node000024" class="node">
<title>Node24</title>
<g id="a_Node000024"><a xlink:href="classsteppable_1_1Fraction.html#ac0a3d392ac70f42f74392fe08c1ab8be" target="_top" xlink:title="Raises the fraction to a power and stores the result in the current one.">
<polygon fill="white" stroke="#666666" points="142.38,-241.5 33.38,-241.5 33.38,-208 142.38,-208 142.38,-241.5"/>
<text text-anchor="start" x="41.38" y="-228" font-family="Helvetica,sans-Serif" font-size="10.00">steppable::Fraction</text>
<text text-anchor="middle" x="87.88" y="-215.25" font-family="Helvetica,sans-Serif" font-size="10.00">::operator^=</text>
</a>
</g>
</g>
<!-- Node17&#45;&gt;Node24 -->
<g id="edge29_Node000017_Node000024" class="edge">
<title>Node17&#45;&gt;Node24</title>
<g id="a_edge29_Node000017_Node000024"><a xlink:title=" ">
<path fill="none" stroke="#63b8ff" d="M232.42,-264.04C203.57,-256.14 169.98,-246.95 142.55,-239.44"/>
<polygon fill="#63b8ff" stroke="#63b8ff" points="231.2,-267.33 241.76,-266.6 233.04,-260.58 231.2,-267.33"/>
</a>
</g>
</g>
<!-- Node25 -->
<g id="Node000025" class="node">
<title>Node25</title>
<g id="a_Node000025"><a xlink:href="classsteppable_1_1Fraction.html#a939fea669a7f630672f7215e77f335b6" target="_top" xlink:title="Returns the fraction as a string. The string is formatted as &quot;top/bottom&quot;, and it will automatically ...">
<polygon fill="white" stroke="#666666" points="142.38,-189.5 33.38,-189.5 33.38,-156 142.38,-156 142.38,-189.5"/>
<text text-anchor="start" x="41.38" y="-176" font-family="Helvetica,sans-Serif" font-size="10.00">steppable::Fraction</text>
<text text-anchor="middle" x="87.88" y="-163.25" font-family="Helvetica,sans-Serif" font-size="10.00">::present</text>
</a>
</g>
</g>
<!-- Node17&#45;&gt;Node25 -->
<g id="edge30_Node000017_Node000025" class="edge">
<title>Node17&#45;&gt;Node25</title>
<g id="a_edge30_Node000017_Node000025"><a xlink:title=" ">
<path fill="none" stroke="#63b8ff" d="M232.64,-267.65C225.19,-264.45 218.03,-260.54 211.75,-255.75 187.93,-237.58 199.62,-216.86 175.75,-198.75 166.09,-191.42 154.39,-186.15 142.74,-182.36"/>
<polygon fill="#63b8ff" stroke="#63b8ff" points="231.29,-270.88 241.88,-271.17 233.78,-264.34 231.29,-270.88"/>
</a>
</g>
</g>
<!-- Node26 -->
<g id="Node000026" class="node">
<title>Node26</title>
<g id="a_Node000026"><a xlink:href="classsteppable_1_1Fraction.html#a2d20a7ae3e6a1fd18b06c86db601e6e4" target="_top" xlink:title="Converts a fraction to its reciprocal. This function converts the fraction to its reciprocal.">
<polygon fill="white" stroke="#666666" points="142.38,-137.5 33.38,-137.5 33.38,-104 142.38,-104 142.38,-137.5"/>
<text text-anchor="start" x="41.38" y="-124" font-family="Helvetica,sans-Serif" font-size="10.00">steppable::Fraction</text>
<text text-anchor="middle" x="87.88" y="-111.25" font-family="Helvetica,sans-Serif" font-size="10.00">::reciprocal</text>
</a>
</g>
</g>
<!-- Node17&#45;&gt;Node26 -->
<g id="edge31_Node000017_Node000026" class="edge">
<title>Node17&#45;&gt;Node26</title>
<g id="a_edge31_Node000017_Node000026"><a xlink:title=" ">
<path fill="none" stroke="#63b8ff" d="M232.56,-269.58C224.89,-266.07 217.69,-261.56 211.75,-255.75 175.26,-220.1 212.33,-182.31 175.75,-146.75 166.72,-137.97 154.85,-132.14 142.8,-128.27"/>
<polygon fill="#63b8ff" stroke="#63b8ff" points="231.24,-272.82 241.83,-273.22 233.8,-266.3 231.24,-272.82"/>
</a>
</g>
</g>
</g>
</svg>
