<?xml version="1.0" encoding="UTF-8" standalone="no"?>
<!DOCTYPE svg PUBLIC "-//W3C//DTD SVG 1.1//EN"
 "http://www.w3.org/Graphics/SVG/1.1/DTD/svg11.dtd">
<!-- Generated by graphviz version 11.0.0 (20240428.1522)
 -->
<!-- Title: steppable::__internals::arithmetic::subtract Pages: 1 -->
<!--zoomable 699 -->

<svg id="main" version="1.1" xmlns="http://www.w3.org/2000/svg" xmlns:xlink="http://www.w3.org/1999/xlink" xml:space="preserve" onload="init(evt)">
<style type="text/css"><![CDATA[
.node, .edge {opacity: 0.7;}
.node.selected, .edge.selected {opacity: 1;}
.edge:hover path { stroke: red; }
.edge:hover polygon { stroke: red; fill: red; }
]]></style>

<defs>
  <circle id="rim" cx="0" cy="0" r="7"/>
  <circle id="rim2" cx="0" cy="0" r="3.5"/>
  <g id="zoomPlus">
    <use xlink:href="#rim" fill="#404040"><set attributeName="fill" to="#808080" begin="zoomplus.mouseover" end="zoomplus.mouseout"/></use>
    <path d="M-4,0h8M0,-4v8" fill="none" stroke="white" stroke-width="1.5" pointer-events="none"/>
  </g>
  <g id="zoomMin">
    <use xlink:href="#rim" fill="#404040"><set attributeName="fill" to="#808080" begin="zoomminus.mouseover" end="zoomminus.mouseout"/></use>
    <path d="M-4,0h8" fill="none" stroke="white" stroke-width="1.5" pointer-events="none"/>
  </g>
  <g id="arrowUp" transform="translate(30 24)">
    <use xlink:href="#rim"/>
    <path pointer-events="none" fill="none" stroke="white" stroke-width="1.5" d="M0,-3.0v7 M-2.5,-0.5L0,-3.0L2.5,-0.5"/>
  </g>
  <g id="arrowRight" transform="rotate(90) translate(36 -43)">
    <use xlink:href="#rim"/>
    <path pointer-events="none" fill="none" stroke="white" stroke-width="1.5" d="M0,-3.0v7 M-2.5,-0.5L0,-3.0L2.5,-0.5"/>
  </g>
  <g id="arrowDown" transform="rotate(180) translate(-30 -48)">
    <use xlink:href="#rim"/>
    <path pointer-events="none" fill="none" stroke="white" stroke-width="1.5" d="M0,-3.0v7 M-2.5,-0.5L0,-3.0L2.5,-0.5"/>
  </g>
  <g id="arrowLeft" transform="rotate(270) translate(-36 17)">
    <use xlink:href="#rim"/>
    <path pointer-events="none" fill="none" stroke="white" stroke-width="1.5" d="M0,-3.0v7 M-2.5,-0.5L0,-3.0L2.5,-0.5"/>
  </g>
  <g id="resetDef">
    <use xlink:href="#rim2" fill="#404040"><set attributeName="fill" to="#808080" begin="reset.mouseover" end="reset.mouseout"/></use>
  </g>
</defs>
<script type="application/ecmascript">
var viewWidth = 1265;
var viewHeight = 699;
var sectionId = 'dynsection-27';
</script>
<script type="application/ecmascript" xlink:href="svg.min.js"/>
<svg id="graph" class="graph">
<g id="viewport">
<title>steppable::__internals::arithmetic::subtract</title>
<!-- Node1 -->
<g id="Node000001" class="node">
<title>Node1</title>
<g id="a_Node000001"><a xlink:title="Subtracts one string representation of a number from another string representation of a number.">
<polygon fill="#999999" stroke="#666666" points="1256.5,-235.5 1133.25,-235.5 1133.25,-202 1256.5,-202 1256.5,-235.5"/>
<text text-anchor="start" x="1141.25" y="-222" font-family="Helvetica,sans-Serif" font-size="10.00">steppable::__internals</text>
<text text-anchor="middle" x="1194.88" y="-209.25" font-family="Helvetica,sans-Serif" font-size="10.00">::arithmetic::subtract</text>
</a>
</g>
</g>
<!-- Node1&#45;&gt;Node1 -->
<g id="edge44_Node000001_Node000001" class="edge">
<title>Node1&#45;&gt;Node1</title>
<g id="a_edge44_Node000001_Node000001"><a xlink:title=" ">
<path fill="none" stroke="#63b8ff" d="M1221.61,-246.89C1217.26,-250.85 1208.35,-253.5 1194.88,-253.5 1170.93,-253.5 1161.38,-245.12 1166.25,-235.91"/>
<polygon fill="#63b8ff" stroke="#63b8ff" points="1225,-247.85 1223.25,-237.41 1218.1,-246.67 1225,-247.85"/>
</a>
</g>
</g>
<!-- Node2 -->
<g id="Node000002" class="node">
<title>Node2</title>
<g id="a_Node000002"><a xlink:href="namespacesteppable_1_1____internals_1_1arithmetic.html#a1deb38d5027df01a66b6c3efd57aedca" target="_top" xlink:title="Adds two string representations of numbers, and performs with the column method.">
<polygon fill="white" stroke="#666666" points="1097.25,-303.5 974,-303.5 974,-270 1097.25,-270 1097.25,-303.5"/>
<text text-anchor="start" x="982" y="-290" font-family="Helvetica,sans-Serif" font-size="10.00">steppable::__internals</text>
<text text-anchor="middle" x="1035.62" y="-277.25" font-family="Helvetica,sans-Serif" font-size="10.00">::arithmetic::add</text>
</a>
</g>
</g>
<!-- Node1&#45;&gt;Node2 -->
<g id="edge1_Node000001_Node000002" class="edge">
<title>Node1&#45;&gt;Node2</title>
<g id="a_edge1_Node000001_Node000002"><a xlink:title=" ">
<path fill="none" stroke="#63b8ff" d="M1128.74,-240.26C1106.16,-249.72 1082.05,-260.61 1064.16,-269.57"/>
<polygon fill="#63b8ff" stroke="#63b8ff" points="1130.02,-243.52 1137.92,-236.46 1127.34,-237.05 1130.02,-243.52"/>
</a>
</g>
</g>
<!-- Node3 -->
<g id="Node000003" class="node">
<title>Node3</title>
<g id="a_Node000003"><a xlink:href="namespacesteppable_1_1____internals_1_1arithmetic.html#a5b80b731e3e2c0d16dcbe5d52b08ffd5" target="_top" xlink:title="Converts a string representation of a number from decimal to another one.">
<polygon fill="white" stroke="#666666" points="537,-506.5 397.25,-506.5 397.25,-473 537,-473 537,-506.5"/>
<text text-anchor="start" x="405.25" y="-493" font-family="Helvetica,sans-Serif" font-size="10.00">steppable::__internals</text>
<text text-anchor="middle" x="467.12" y="-480.25" font-family="Helvetica,sans-Serif" font-size="10.00">::arithmetic::baseConvert</text>
</a>
</g>
</g>
<!-- Node1&#45;&gt;Node3 -->
<g id="edge34_Node000001_Node000003" class="edge">
<title>Node1&#45;&gt;Node3</title>
<g id="a_edge34_Node000001_Node000003"><a xlink:title=" ">
<path fill="none" stroke="#63b8ff" d="M1180.63,-245.81C1148.89,-307.1 1061.78,-455.41 938,-509.75 795.84,-572.16 742.41,-560.61 589.5,-533.75 560.14,-528.59 528.53,-516.92 504.92,-506.89"/>
<polygon fill="#63b8ff" stroke="#63b8ff" points="1183.65,-247.6 1185.06,-237.1 1177.41,-244.42 1183.65,-247.6"/>
</a>
</g>
</g>
<!-- Node8 -->
<g id="Node000008" class="node">
<title>Node8</title>
<g id="a_Node000008"><a xlink:href="namespacesteppable_1_1____internals_1_1arithmetic.html#a1b2a13f3be54bd279552f57aba88907d" target="_top" xlink:title="Takes the n&#45;th root of a numer.">
<polygon fill="white" stroke="#666666" points="528.75,-179.5 405.5,-179.5 405.5,-146 528.75,-146 528.75,-179.5"/>
<text text-anchor="start" x="413.5" y="-166" font-family="Helvetica,sans-Serif" font-size="10.00">steppable::__internals</text>
<text text-anchor="middle" x="467.12" y="-153.25" font-family="Helvetica,sans-Serif" font-size="10.00">::arithmetic::root</text>
</a>
</g>
</g>
<!-- Node1&#45;&gt;Node8 -->
<g id="edge43_Node000001_Node000008" class="edge">
<title>Node1&#45;&gt;Node8</title>
<g id="a_edge43_Node000001_Node000008"><a xlink:title=" ">
<path fill="none" stroke="#63b8ff" d="M1121.54,-201.81C1070.56,-190.7 1000.5,-177.1 938,-170.75 791.89,-155.91 618.95,-157.98 529.14,-160.52"/>
<polygon fill="#63b8ff" stroke="#63b8ff" points="1120.78,-205.23 1131.29,-203.96 1122.28,-198.39 1120.78,-205.23"/>
</a>
</g>
</g>
<!-- Node12 -->
<g id="Node000012" class="node">
<title>Node12</title>
<g id="a_Node000012"><a xlink:href="namespacesteppable_1_1____internals_1_1arithmetic.html#ac9102075acd398b3bdf388f6cc2ef978" target="_top" xlink:title=" ">
<polygon fill="white" stroke="#666666" points="553.5,-127.5 380.75,-127.5 380.75,-94 553.5,-94 553.5,-127.5"/>
<text text-anchor="start" x="388.75" y="-114" font-family="Helvetica,sans-Serif" font-size="10.00">steppable::__internals</text>
<text text-anchor="middle" x="467.12" y="-101.25" font-family="Helvetica,sans-Serif" font-size="10.00">::arithmetic::divideWithQuotient</text>
</a>
</g>
</g>
<!-- Node1&#45;&gt;Node12 -->
<g id="edge35_Node000001_Node000012" class="edge">
<title>Node1&#45;&gt;Node12</title>
<g id="a_edge35_Node000001_Node000012"><a xlink:title=" ">
<path fill="none" stroke="#63b8ff" d="M1155.65,-196.25C1138.37,-187.12 1117.36,-177.42 1097.25,-171.75 908.45,-118.54 676.58,-109.9 553.84,-109.53"/>
<polygon fill="#63b8ff" stroke="#63b8ff" points="1153.56,-199.1 1164.02,-200.8 1156.9,-192.95 1153.56,-199.1"/>
</a>
</g>
</g>
<!-- Node27 -->
<g id="Node000027" class="node">
<title>Node27</title>
<g id="a_Node000027"><a xlink:href="namespacesteppable_1_1____internals_1_1arithmetic.html#a677f253d71524a9d500e980dc159c79c" target="_top" xlink:title=" ">
<polygon fill="white" stroke="#666666" points="938,-459.5 748.75,-459.5 748.75,-426 938,-426 938,-459.5"/>
<text text-anchor="start" x="756.75" y="-446" font-family="Helvetica,sans-Serif" font-size="10.00">steppable::__internals</text>
<text text-anchor="middle" x="843.38" y="-433.25" font-family="Helvetica,sans-Serif" font-size="10.00">::arithmetic::getQuotientRemainder</text>
</a>
</g>
</g>
<!-- Node1&#45;&gt;Node27 -->
<g id="edge36_Node000001_Node000027" class="edge">
<title>Node1&#45;&gt;Node27</title>
<g id="a_edge36_Node000001_Node000027"><a xlink:title=" ">
<path fill="none" stroke="#63b8ff" d="M1170.59,-243.93C1151.73,-263.69 1123.99,-291.35 1097.25,-312.75 1031.26,-365.58 1015.02,-381.92 938,-416.75 930.78,-420.02 923.05,-422.96 915.25,-425.59"/>
<polygon fill="#63b8ff" stroke="#63b8ff" points="1172.99,-246.5 1177.31,-236.83 1167.9,-241.69 1172.99,-246.5"/>
</a>
</g>
</g>
<!-- Node29 -->
<g id="Node000029" class="node">
<title>Node29</title>
<g id="a_Node000029"><a xlink:href="classsteppable_1_1Fraction.html#a0220c31296f34e81e58d3b57c1aefe62" target="_top" xlink:title="Subtracts a fraction from another fraction. This function does it by doing a simple fraction subtract...">
<polygon fill="white" stroke="#666666" points="1090.12,-85.5 981.12,-85.5 981.12,-52 1090.12,-52 1090.12,-85.5"/>
<text text-anchor="start" x="989.12" y="-72" font-family="Helvetica,sans-Serif" font-size="10.00">steppable::Fraction</text>
<text text-anchor="middle" x="1035.62" y="-59.25" font-family="Helvetica,sans-Serif" font-size="10.00">::operator&#45;</text>
</a>
</g>
</g>
<!-- Node1&#45;&gt;Node29 -->
<g id="edge41_Node000001_Node000029" class="edge">
<title>Node1&#45;&gt;Node29</title>
<g id="a_edge41_Node000001_Node000029"><a xlink:title=" ">
<path fill="none" stroke="#63b8ff" d="M1177.19,-192.3C1159.73,-166.23 1130.3,-126.51 1097.25,-99.75 1090.91,-94.62 1083.59,-90 1076.26,-85.99"/>
<polygon fill="#63b8ff" stroke="#63b8ff" points="1174.25,-194.19 1182.66,-200.63 1180.1,-190.35 1174.25,-194.19"/>
</a>
</g>
</g>
<!-- Node30 -->
<g id="Node000030" class="node">
<title>Node30</title>
<g id="a_Node000030"><a xlink:href="classsteppable_1_1Number.html#ae839c653cf0ceaca2c76f44374a44fe3" target="_top" xlink:title="Subtracts two numbers.">
<polygon fill="white" stroke="#666666" points="1093.12,-33.5 978.12,-33.5 978.12,0 1093.12,0 1093.12,-33.5"/>
<text text-anchor="start" x="986.12" y="-20" font-family="Helvetica,sans-Serif" font-size="10.00">steppable::Number::</text>
<text text-anchor="middle" x="1035.62" y="-7.25" font-family="Helvetica,sans-Serif" font-size="10.00">operator&#45;</text>
</a>
</g>
</g>
<!-- Node1&#45;&gt;Node30 -->
<g id="edge42_Node000001_Node000030" class="edge">
<title>Node1&#45;&gt;Node30</title>
<g id="a_edge42_Node000001_Node000030"><a xlink:title=" ">
<path fill="none" stroke="#63b8ff" d="M1185.04,-190.77C1171.7,-152.61 1142.98,-84.25 1097.25,-42.75 1093.6,-39.44 1089.47,-36.51 1085.12,-33.92"/>
<polygon fill="#63b8ff" stroke="#63b8ff" points="1181.69,-191.79 1188.21,-200.15 1188.32,-189.55 1181.69,-191.79"/>
</a>
</g>
</g>
<!-- Node2&#45;&gt;Node1 -->
<g id="edge33_Node000002_Node000001" class="edge">
<title>Node2&#45;&gt;Node1</title>
<g id="a_edge33_Node000002_Node000001"><a xlink:title=" ">
<path fill="none" stroke="#63b8ff" d="M1101.95,-265.16C1124.54,-255.69 1148.63,-244.81 1166.48,-235.86"/>
<polygon fill="#63b8ff" stroke="#63b8ff" points="1100.67,-261.91 1092.77,-268.96 1103.35,-268.38 1100.67,-261.91"/>
</a>
</g>
</g>
<!-- Node2&#45;&gt;Node3 -->
<g id="edge2_Node000002_Node000003" class="edge">
<title>Node2&#45;&gt;Node3</title>
<g id="a_edge2_Node000002_Node000003"><a xlink:title=" ">
<path fill="none" stroke="#63b8ff" d="M1028.86,-314.88C1018.65,-356.68 993.03,-433.97 938,-468.75 814.79,-546.63 634.96,-526.11 537.37,-506.55"/>
<polygon fill="#63b8ff" stroke="#63b8ff" points="1032.23,-315.87 1031.06,-305.33 1025.41,-314.3 1032.23,-315.87"/>
</a>
</g>
</g>
<!-- Node4 -->
<g id="Node000004" class="node">
<title>Node4</title>
<g id="a_Node000004"><a xlink:href="namespacesteppable_1_1____internals_1_1arithmetic.html#afc4c4f319dadbb5b1ff481132f008374" target="_top" xlink:title="Converts a string representation of a number from any base to decimal.">
<polygon fill="white" stroke="#666666" points="170.5,-495.5 15,-495.5 15,-462 170.5,-462 170.5,-495.5"/>
<text text-anchor="start" x="23" y="-482" font-family="Helvetica,sans-Serif" font-size="10.00">steppable::__internals</text>
<text text-anchor="middle" x="92.75" y="-469.25" font-family="Helvetica,sans-Serif" font-size="10.00">::arithmetic::decimalConvert</text>
</a>
</g>
</g>
<!-- Node2&#45;&gt;Node4 -->
<g id="edge3_Node000002_Node000004" class="edge">
<title>Node2&#45;&gt;Node4</title>
<g id="a_edge3_Node000002_Node000004"><a xlink:title=" ">
<path fill="none" stroke="#63b8ff" d="M1012.67,-312.63C999.79,-328.96 984.11,-351.01 974,-372.75 947.44,-429.83 975.88,-459.47 938,-509.75 849.05,-627.82 799.95,-679.75 652.12,-679.75 652.12,-679.75 652.12,-679.75 466.12,-679.75 357.08,-679.75 316.24,-714.76 221.5,-660.75 154.59,-622.61 114.38,-533.38 99.89,-495.86"/>
<polygon fill="#63b8ff" stroke="#63b8ff" points="1015.35,-314.88 1018.91,-304.9 1009.91,-310.48 1015.35,-314.88"/>
</a>
</g>
</g>
<!-- Node5 -->
<g id="Node000005" class="node">
<title>Node5</title>
<g id="a_Node000005"><a xlink:href="namespacesteppable_1_1____internals_1_1arithmetic.html#a210c635ae60eaa54f65bc82a0f3c953a" target="_top" xlink:title="Executes a given predicate function a specified number of times.">
<polygon fill="white" stroke="#666666" points="905,-407.5 781.75,-407.5 781.75,-374 905,-374 905,-407.5"/>
<text text-anchor="start" x="789.75" y="-394" font-family="Helvetica,sans-Serif" font-size="10.00">steppable::__internals</text>
<text text-anchor="middle" x="843.38" y="-381.25" font-family="Helvetica,sans-Serif" font-size="10.00">::arithmetic::loop</text>
</a>
</g>
</g>
<!-- Node2&#45;&gt;Node5 -->
<g id="edge4_Node000002_Node000005" class="edge">
<title>Node2&#45;&gt;Node5</title>
<g id="a_edge4_Node000002_Node000005"><a xlink:title=" ">
<path fill="none" stroke="#63b8ff" d="M1010.15,-311.28C991.73,-328.49 965.1,-350.81 938,-364.75 927.8,-370 916.41,-374.29 905.19,-377.77"/>
<polygon fill="#63b8ff" stroke="#63b8ff" points="1012.09,-314.27 1016.91,-304.83 1007.26,-309.2 1012.09,-314.27"/>
</a>
</g>
</g>
<!-- Node6 -->
<g id="Node000006" class="node">
<title>Node6</title>
<g id="a_Node000006"><a xlink:href="classsteppable_1_1Fraction.html#a177374401a6d78045720bdf97db60055" target="_top" xlink:title="Adds two fractions together. This function does it by doing a simple fraction addition and returns th...">
<polygon fill="white" stroke="#666666" points="897.88,-303.5 788.88,-303.5 788.88,-270 897.88,-270 897.88,-303.5"/>
<text text-anchor="start" x="796.88" y="-290" font-family="Helvetica,sans-Serif" font-size="10.00">steppable::Fraction</text>
<text text-anchor="middle" x="843.38" y="-277.25" font-family="Helvetica,sans-Serif" font-size="10.00">::operator+</text>
</a>
</g>
</g>
<!-- Node2&#45;&gt;Node6 -->
<g id="edge5_Node000002_Node000006" class="edge">
<title>Node2&#45;&gt;Node6</title>
<g id="a_edge5_Node000002_Node000006"><a xlink:title=" ">
<path fill="none" stroke="#63b8ff" d="M962.36,-286.75C941.08,-286.75 918.18,-286.75 898.27,-286.75"/>
<polygon fill="#63b8ff" stroke="#63b8ff" points="962.13,-290.25 972.13,-286.75 962.13,-283.25 962.13,-290.25"/>
</a>
</g>
</g>
<!-- Node7 -->
<g id="Node000007" class="node">
<title>Node7</title>
<g id="a_Node000007"><a xlink:href="classsteppable_1_1Number.html#ab92bf92daec1e2db8c9b4ccd985159b3" target="_top" xlink:title="Adds two numbers together.">
<polygon fill="white" stroke="#666666" points="900.88,-213.5 785.88,-213.5 785.88,-180 900.88,-180 900.88,-213.5"/>
<text text-anchor="start" x="793.88" y="-200" font-family="Helvetica,sans-Serif" font-size="10.00">steppable::Number::</text>
<text text-anchor="middle" x="843.38" y="-187.25" font-family="Helvetica,sans-Serif" font-size="10.00">operator+</text>
</a>
</g>
</g>
<!-- Node2&#45;&gt;Node7 -->
<g id="edge6_Node000002_Node000007" class="edge">
<title>Node2&#45;&gt;Node7</title>
<g id="a_edge6_Node000002_Node000007"><a xlink:title=" ">
<path fill="none" stroke="#63b8ff" d="M1000.58,-263.32C982.53,-251.59 959.67,-237.79 938,-227.75 926.35,-222.35 913.49,-217.45 901.13,-213.23"/>
<polygon fill="#63b8ff" stroke="#63b8ff" points="998.53,-266.16 1008.81,-268.75 1002.39,-260.32 998.53,-266.16"/>
</a>
</g>
</g>
<!-- Node2&#45;&gt;Node8 -->
<g id="edge7_Node000002_Node000008" class="edge">
<title>Node2&#45;&gt;Node8</title>
<g id="a_edge7_Node000002_Node000008"><a xlink:title=" ">
<path fill="none" stroke="#63b8ff" d="M962.8,-266.87C954.46,-264.73 946.06,-262.64 938,-260.75 854.48,-241.15 832.75,-240.16 748.75,-222.75 673.01,-207.05 585.93,-188.33 529.12,-176.02"/>
<polygon fill="#63b8ff" stroke="#63b8ff" points="961.67,-270.2 972.23,-269.33 963.44,-263.42 961.67,-270.2"/>
</a>
</g>
</g>
<!-- Node26 -->
<g id="Node000026" class="node">
<title>Node26</title>
<g id="a_Node000026"><a xlink:href="namespacesteppable_1_1____internals_1_1numUtils.html#a05db249045994ee795e6f1a24201f182" target="_top" xlink:title="Round off a number to the nearest integer.">
<polygon fill="white" stroke="#666666" points="905,-355.5 781.75,-355.5 781.75,-322 905,-322 905,-355.5"/>
<text text-anchor="start" x="789.75" y="-342" font-family="Helvetica,sans-Serif" font-size="10.00">steppable::__internals</text>
<text text-anchor="middle" x="843.38" y="-329.25" font-family="Helvetica,sans-Serif" font-size="10.00">::numUtils::roundOff</text>
</a>
</g>
</g>
<!-- Node2&#45;&gt;Node26 -->
<g id="edge31_Node000002_Node000026" class="edge">
<title>Node2&#45;&gt;Node26</title>
<g id="a_edge31_Node000002_Node000026"><a xlink:title=" ">
<path fill="none" stroke="#63b8ff" d="M962.69,-306.41C943.8,-311.58 923.6,-317.1 905.34,-322.09"/>
<polygon fill="#63b8ff" stroke="#63b8ff" points="963.46,-309.83 972.18,-303.82 961.61,-303.08 963.46,-309.83"/>
</a>
</g>
</g>
<!-- Node8&#45;&gt;Node8 -->
<g id="edge30_Node000008_Node000008" class="edge">
<title>Node8&#45;&gt;Node8</title>
<g id="a_edge30_Node000008_Node000008"><a xlink:title=" ">
<path fill="none" stroke="#63b8ff" d="M498.02,-190.89C492.99,-194.85 482.69,-197.5 467.12,-197.5 439.45,-197.5 428.43,-189.12 434.05,-179.91"/>
<polygon fill="#63b8ff" stroke="#63b8ff" points="501.39,-191.89 499.91,-181.4 494.52,-190.52 501.39,-191.89"/>
</a>
</g>
</g>
<!-- Node9 -->
<g id="Node000009" class="node">
<title>Node9</title>
<g id="a_Node000009"><a xlink:href="namespacesteppable_1_1____internals_1_1arithmetic.html#a50acfa1ad06ce385943ddd207146c9e0" target="_top" xlink:title="Raises a string representation of a number to a power.">
<polygon fill="white" stroke="#666666" points="344.75,-179.5 221.5,-179.5 221.5,-146 344.75,-146 344.75,-179.5"/>
<text text-anchor="start" x="229.5" y="-166" font-family="Helvetica,sans-Serif" font-size="10.00">steppable::__internals</text>
<text text-anchor="middle" x="283.12" y="-153.25" font-family="Helvetica,sans-Serif" font-size="10.00">::arithmetic::power</text>
</a>
</g>
</g>
<!-- Node8&#45;&gt;Node9 -->
<g id="edge8_Node000008_Node000009" class="edge">
<title>Node8&#45;&gt;Node9</title>
<g id="a_edge8_Node000008_Node000009"><a xlink:title=" ">
<path fill="none" stroke="#63b8ff" d="M393.97,-156.13C377.78,-155.9 360.75,-155.97 345.07,-156.34"/>
<polygon fill="#63b8ff" stroke="#63b8ff" points="393.44,-159.62 403.5,-156.31 393.57,-152.62 393.44,-159.62"/>
</a>
</g>
</g>
<!-- Node9&#45;&gt;Node4 -->
<g id="edge9_Node000009_Node000004" class="edge">
<title>Node9&#45;&gt;Node4</title>
<g id="a_edge9_Node000009_Node000004"><a xlink:title=" ">
<path fill="none" stroke="#63b8ff" d="M261.64,-188.54C249.42,-204.38 233.92,-225.29 221.5,-244.75 171.56,-322.97 121.49,-422.2 102.12,-461.55"/>
<polygon fill="#63b8ff" stroke="#63b8ff" points="264.09,-191.09 267.47,-181.05 258.57,-186.79 264.09,-191.09"/>
</a>
</g>
</g>
<!-- Node9&#45;&gt;Node8 -->
<g id="edge29_Node000009_Node000008" class="edge">
<title>Node9&#45;&gt;Node8</title>
<g id="a_edge29_Node000009_Node000008"><a xlink:title=" ">
<path fill="none" stroke="#63b8ff" d="M356.58,-169.37C372.63,-169.59 389.48,-169.53 405.02,-169.17"/>
<polygon fill="#63b8ff" stroke="#63b8ff" points="356.65,-165.87 346.59,-169.19 356.52,-172.87 356.65,-165.87"/>
</a>
</g>
</g>
<!-- Node9&#45;&gt;Node9 -->
<g id="edge28_Node000009_Node000009" class="edge">
<title>Node9&#45;&gt;Node9</title>
<g id="a_edge28_Node000009_Node000009"><a xlink:title=" ">
<path fill="none" stroke="#63b8ff" d="M314.02,-190.89C308.99,-194.85 298.69,-197.5 283.12,-197.5 255.45,-197.5 244.43,-189.12 250.05,-179.91"/>
<polygon fill="#63b8ff" stroke="#63b8ff" points="317.39,-191.89 315.91,-181.4 310.52,-190.52 317.39,-191.89"/>
</a>
</g>
</g>
<!-- Node10 -->
<g id="Node000010" class="node">
<title>Node10</title>
<g id="a_Node000010"><a xlink:href="namespacesteppable_1_1____internals_1_1arithmetic.html#aa150ef39a272f7228ae239679247fab3" target="_top" xlink:title="Determines the scale of the quotient of division.">
<polygon fill="white" stroke="#666666" points="185.5,-239.5 0,-239.5 0,-206 185.5,-206 185.5,-239.5"/>
<text text-anchor="start" x="8" y="-226" font-family="Helvetica,sans-Serif" font-size="10.00">steppable::__internals</text>
<text text-anchor="middle" x="92.75" y="-213.25" font-family="Helvetica,sans-Serif" font-size="10.00">::arithmetic::determineResultScale</text>
</a>
</g>
</g>
<!-- Node9&#45;&gt;Node10 -->
<g id="edge10_Node000009_Node000010" class="edge">
<title>Node9&#45;&gt;Node10</title>
<g id="a_edge10_Node000009_Node000010"><a xlink:title=" ">
<path fill="none" stroke="#63b8ff" d="M217.25,-183.41C194.59,-190.63 169.42,-198.65 147.74,-205.55"/>
<polygon fill="#63b8ff" stroke="#63b8ff" points="218.24,-186.77 226.7,-180.4 216.11,-180.1 218.24,-186.77"/>
</a>
</g>
</g>
<!-- Node24 -->
<g id="Node000024" class="node">
<title>Node24</title>
<g id="a_Node000024"><a xlink:href="classsteppable_1_1Fraction.html#abaf8678e0b61e3097789959b66e4c23c" target="_top" xlink:title="Raises the fraction to a power.">
<polygon fill="white" stroke="#666666" points="147.25,-130.5 38.25,-130.5 38.25,-97 147.25,-97 147.25,-130.5"/>
<text text-anchor="start" x="46.25" y="-117" font-family="Helvetica,sans-Serif" font-size="10.00">steppable::Fraction</text>
<text text-anchor="middle" x="92.75" y="-104.25" font-family="Helvetica,sans-Serif" font-size="10.00">::operator^</text>
</a>
</g>
</g>
<!-- Node9&#45;&gt;Node24 -->
<g id="edge26_Node000009_Node000024" class="edge">
<title>Node9&#45;&gt;Node24</title>
<g id="a_edge26_Node000009_Node000024"><a xlink:title=" ">
<path fill="none" stroke="#63b8ff" d="M210.17,-144.03C189.34,-138.61 166.96,-132.79 147.46,-127.72"/>
<polygon fill="#63b8ff" stroke="#63b8ff" points="209.2,-147.4 219.76,-146.53 210.96,-140.62 209.2,-147.4"/>
</a>
</g>
</g>
<!-- Node25 -->
<g id="Node000025" class="node">
<title>Node25</title>
<g id="a_Node000025"><a xlink:href="classsteppable_1_1Number.html#ae3e13c5f73bc67cd464c84a8640e1387" target="_top" xlink:title="Raises the number to a power.">
<polygon fill="white" stroke="#666666" points="150.25,-182.5 35.25,-182.5 35.25,-149 150.25,-149 150.25,-182.5"/>
<text text-anchor="start" x="43.25" y="-169" font-family="Helvetica,sans-Serif" font-size="10.00">steppable::Number::</text>
<text text-anchor="middle" x="92.75" y="-156.25" font-family="Helvetica,sans-Serif" font-size="10.00">operator^</text>
</a>
</g>
</g>
<!-- Node9&#45;&gt;Node25 -->
<g id="edge27_Node000009_Node000025" class="edge">
<title>Node9&#45;&gt;Node25</title>
<g id="a_edge27_Node000009_Node000025"><a xlink:title=" ">
<path fill="none" stroke="#63b8ff" d="M209.85,-163.9C190.22,-164.21 169.25,-164.55 150.6,-164.84"/>
<polygon fill="#63b8ff" stroke="#63b8ff" points="209.77,-167.4 219.71,-163.74 209.66,-160.4 209.77,-167.4"/>
</a>
</g>
</g>
<!-- Node11 -->
<g id="Node000011" class="node">
<title>Node11</title>
<g id="a_Node000011"><a xlink:href="namespacesteppable_1_1____internals_1_1arithmetic.html#a26194ae8ddb44afb942fbf8335ae1730" target="_top" xlink:title="Divides a string representation of a number by another string representation of a number.">
<polygon fill="white" stroke="#666666" points="712.75,-355.5 589.5,-355.5 589.5,-322 712.75,-322 712.75,-355.5"/>
<text text-anchor="start" x="597.5" y="-342" font-family="Helvetica,sans-Serif" font-size="10.00">steppable::__internals</text>
<text text-anchor="middle" x="651.12" y="-329.25" font-family="Helvetica,sans-Serif" font-size="10.00">::arithmetic::divide</text>
</a>
</g>
</g>
<!-- Node10&#45;&gt;Node11 -->
<g id="edge11_Node000010_Node000011" class="edge">
<title>Node10&#45;&gt;Node11</title>
<g id="a_edge11_Node000010_Node000011"><a xlink:title=" ">
<path fill="none" stroke="#63b8ff" d="M197.29,-226.9C242.83,-229.99 296.76,-235.37 344.75,-244.75 439.21,-263.21 545.9,-299.83 604.85,-321.51"/>
<polygon fill="#63b8ff" stroke="#63b8ff" points="197.62,-223.41 187.41,-226.26 197.16,-230.4 197.62,-223.41"/>
</a>
</g>
</g>
<!-- Node11&#45;&gt;Node3 -->
<g id="edge12_Node000011_Node000003" class="edge">
<title>Node11&#45;&gt;Node3</title>
<g id="a_edge12_Node000011_Node000003"><a xlink:title=" ">
<path fill="none" stroke="#63b8ff" d="M623.74,-363.79C612.71,-374.74 600.04,-387.98 589.5,-400.75 571.61,-422.43 575.23,-434.92 553.5,-452.75 543.76,-460.74 532.03,-467.3 520.42,-472.55"/>
<polygon fill="#63b8ff" stroke="#63b8ff" points="626.01,-366.47 630.7,-356.97 621.11,-361.46 626.01,-366.47"/>
</a>
</g>
</g>
<!-- Node11&#45;&gt;Node8 -->
<g id="edge16_Node000011_Node000008" class="edge">
<title>Node11&#45;&gt;Node8</title>
<g id="a_edge16_Node000011_Node000008"><a xlink:title=" ">
<path fill="none" stroke="#63b8ff" d="M630.97,-312.44C605.53,-277.67 562.73,-219.86 553.5,-211.75 539.12,-199.12 520.98,-188.16 505.12,-179.83"/>
<polygon fill="#63b8ff" stroke="#63b8ff" points="628.03,-314.34 636.75,-320.35 633.68,-310.21 628.03,-314.34"/>
</a>
</g>
</g>
<!-- Node11&#45;&gt;Node12 -->
<g id="edge13_Node000011_Node000012" class="edge">
<title>Node11&#45;&gt;Node12</title>
<g id="a_edge13_Node000011_Node000012"><a xlink:title=" ">
<path fill="none" stroke="#63b8ff" d="M644.24,-310.35C633.72,-266.67 607.52,-183.2 553.5,-136.75 549.62,-133.42 545.33,-130.51 540.78,-127.98"/>
<polygon fill="#63b8ff" stroke="#63b8ff" points="640.82,-311.11 646.47,-320.07 647.65,-309.54 640.82,-311.11"/>
</a>
</g>
</g>
<!-- Node14 -->
<g id="Node000014" class="node">
<title>Node14</title>
<g id="a_Node000014"><a xlink:href="classsteppable_1_1Number.html#aebdaf5d342a2a897793556bd390bc184" target="_top" xlink:title="Divides two numbers.">
<polygon fill="white" stroke="#666666" points="524.62,-355.5 409.62,-355.5 409.62,-322 524.62,-322 524.62,-355.5"/>
<text text-anchor="start" x="417.62" y="-342" font-family="Helvetica,sans-Serif" font-size="10.00">steppable::Number::</text>
<text text-anchor="middle" x="467.12" y="-329.25" font-family="Helvetica,sans-Serif" font-size="10.00">operator/</text>
</a>
</g>
</g>
<!-- Node11&#45;&gt;Node14 -->
<g id="edge15_Node000011_Node000014" class="edge">
<title>Node11&#45;&gt;Node14</title>
<g id="a_edge15_Node000011_Node000014"><a xlink:title=" ">
<path fill="none" stroke="#63b8ff" d="M577.69,-338.75C560.19,-338.75 541.75,-338.75 525.08,-338.75"/>
<polygon fill="#63b8ff" stroke="#63b8ff" points="577.5,-342.25 587.5,-338.75 577.5,-335.25 577.5,-342.25"/>
</a>
</g>
</g>
<!-- Node15 -->
<g id="Node000015" class="node">
<title>Node15</title>
<g id="a_Node000015"><a xlink:href="classsteppable_1_1Fraction.html#a9cf64d847c268d9334775c572ef75dfa" target="_top" xlink:title="Simplifies a fraction. This function simplifies the fraction by dividing the top and bottom component...">
<polygon fill="white" stroke="#666666" points="521.62,-443.5 412.62,-443.5 412.62,-410 521.62,-410 521.62,-443.5"/>
<text text-anchor="start" x="420.62" y="-430" font-family="Helvetica,sans-Serif" font-size="10.00">steppable::Fraction</text>
<text text-anchor="middle" x="467.12" y="-417.25" font-family="Helvetica,sans-Serif" font-size="10.00">::simplify</text>
</a>
</g>
</g>
<!-- Node11&#45;&gt;Node15 -->
<g id="edge17_Node000011_Node000015" class="edge">
<title>Node11&#45;&gt;Node15</title>
<g id="a_edge17_Node000011_Node000015"><a xlink:title=" ">
<path fill="none" stroke="#63b8ff" d="M604.4,-360.86C573.15,-375.97 532.35,-395.7 503.56,-409.62"/>
<polygon fill="#63b8ff" stroke="#63b8ff" points="605.76,-364.09 613.24,-356.59 602.71,-357.79 605.76,-364.09"/>
</a>
</g>
</g>
<!-- Node13 -->
<g id="Node000013" class="node">
<title>Node13</title>
<g id="a_Node000013"><a xlink:href="classsteppable_1_1Number.html#a719a8a93fcfe91b30c38ba0830d6de50" target="_top" xlink:title="Calculates the remainder of two numbers. (Modulus)">
<polygon fill="white" stroke="#666666" points="340.62,-127.5 225.62,-127.5 225.62,-94 340.62,-94 340.62,-127.5"/>
<text text-anchor="start" x="233.62" y="-114" font-family="Helvetica,sans-Serif" font-size="10.00">steppable::Number::</text>
<text text-anchor="middle" x="283.12" y="-101.25" font-family="Helvetica,sans-Serif" font-size="10.00">operator%</text>
</a>
</g>
</g>
<!-- Node12&#45;&gt;Node13 -->
<g id="edge14_Node000012_Node000013" class="edge">
<title>Node12&#45;&gt;Node13</title>
<g id="a_edge14_Node000012_Node000013"><a xlink:title=" ">
<path fill="none" stroke="#63b8ff" d="M369.16,-110.75C359.56,-110.75 350.04,-110.75 341.05,-110.75"/>
<polygon fill="#63b8ff" stroke="#63b8ff" points="368.94,-114.25 378.94,-110.75 368.94,-107.25 368.94,-114.25"/>
</a>
</g>
</g>
<!-- Node16 -->
<g id="Node000016" class="node">
<title>Node16</title>
<g id="a_Node000016"><a xlink:href="classsteppable_1_1Fraction.html#a4647e3f3062426a91d1ef7cdbde23bb6" target="_top" xlink:title="Initialized a fraction from a number.">
<polygon fill="white" stroke="#666666" points="337.62,-443.5 228.62,-443.5 228.62,-410 337.62,-410 337.62,-443.5"/>
<text text-anchor="start" x="236.62" y="-430" font-family="Helvetica,sans-Serif" font-size="10.00">steppable::Fraction</text>
<text text-anchor="middle" x="283.12" y="-417.25" font-family="Helvetica,sans-Serif" font-size="10.00">::Fraction</text>
</a>
</g>
</g>
<!-- Node15&#45;&gt;Node16 -->
<g id="edge18_Node000015_Node000016" class="edge">
<title>Node15&#45;&gt;Node16</title>
<g id="a_edge18_Node000015_Node000016"><a xlink:title=" ">
<path fill="none" stroke="#63b8ff" d="M401.23,-426.75C380.52,-426.75 357.83,-426.75 337.99,-426.75"/>
<polygon fill="#63b8ff" stroke="#63b8ff" points="400.99,-430.25 410.99,-426.75 400.99,-423.25 400.99,-430.25"/>
</a>
</g>
</g>
<!-- Node17 -->
<g id="Node000017" class="node">
<title>Node17</title>
<g id="a_Node000017"><a xlink:href="classsteppable_1_1Fraction.html#a1fa38ab4cede78e19fa478242f6e5b46" target="_top" xlink:title="Initializes a fraction with a specified top component and bottom component.">
<polygon fill="white" stroke="#666666" points="337.62,-391.5 228.62,-391.5 228.62,-358 337.62,-358 337.62,-391.5"/>
<text text-anchor="start" x="236.62" y="-378" font-family="Helvetica,sans-Serif" font-size="10.00">steppable::Fraction</text>
<text text-anchor="middle" x="283.12" y="-365.25" font-family="Helvetica,sans-Serif" font-size="10.00">::Fraction</text>
</a>
</g>
</g>
<!-- Node15&#45;&gt;Node17 -->
<g id="edge19_Node000015_Node000017" class="edge">
<title>Node15&#45;&gt;Node17</title>
<g id="a_edge19_Node000015_Node000017"><a xlink:title=" ">
<path fill="none" stroke="#63b8ff" d="M401.52,-408.29C380.73,-402.35 357.93,-395.84 337.99,-390.14"/>
<polygon fill="#63b8ff" stroke="#63b8ff" points="400.47,-411.63 411.05,-411.01 402.39,-404.9 400.47,-411.63"/>
</a>
</g>
</g>
<!-- Node18 -->
<g id="Node000018" class="node">
<title>Node18</title>
<g id="a_Node000018"><a xlink:href="classsteppable_1_1Fraction.html#a21eef8107e9cd1e590f7595c4ecbe147" target="_top" xlink:title="Multiplies two fractions together and stores the result in the current one. This function does it by ...">
<polygon fill="white" stroke="#666666" points="337.62,-339.5 228.62,-339.5 228.62,-306 337.62,-306 337.62,-339.5"/>
<text text-anchor="start" x="236.62" y="-326" font-family="Helvetica,sans-Serif" font-size="10.00">steppable::Fraction</text>
<text text-anchor="middle" x="283.12" y="-313.25" font-family="Helvetica,sans-Serif" font-size="10.00">::operator*=</text>
</a>
</g>
</g>
<!-- Node15&#45;&gt;Node18 -->
<g id="edge20_Node000015_Node000018" class="edge">
<title>Node15&#45;&gt;Node18</title>
<g id="a_edge20_Node000015_Node000018"><a xlink:title=" ">
<path fill="none" stroke="#63b8ff" d="M432.89,-403.26C409,-386.9 375.67,-365.17 344.75,-348.75 338.98,-345.69 332.78,-342.7 326.62,-339.91"/>
<polygon fill="#63b8ff" stroke="#63b8ff" points="430.74,-406.03 440.96,-408.83 434.72,-400.26 430.74,-406.03"/>
</a>
</g>
</g>
<!-- Node19 -->
<g id="Node000019" class="node">
<title>Node19</title>
<g id="a_Node000019"><a xlink:href="classsteppable_1_1Fraction.html#ab10a5f43f6e60253ab6f4a097c73cf6e" target="_top" xlink:title="Adds two fractions together and stores the result in the current one. This function does it by doing ...">
<polygon fill="white" stroke="#666666" points="337.62,-287.5 228.62,-287.5 228.62,-254 337.62,-254 337.62,-287.5"/>
<text text-anchor="start" x="236.62" y="-274" font-family="Helvetica,sans-Serif" font-size="10.00">steppable::Fraction</text>
<text text-anchor="middle" x="283.12" y="-261.25" font-family="Helvetica,sans-Serif" font-size="10.00">::operator+=</text>
</a>
</g>
</g>
<!-- Node15&#45;&gt;Node19 -->
<g id="edge21_Node000015_Node000019" class="edge">
<title>Node15&#45;&gt;Node19</title>
<g id="a_edge21_Node000015_Node000019"><a xlink:title=" ">
<path fill="none" stroke="#63b8ff" d="M426.37,-403.42C410.83,-392.98 393.68,-379.64 380.75,-364.75 358.34,-338.92 369.9,-319.92 344.75,-296.75 341.13,-293.41 337.01,-290.46 332.67,-287.87"/>
<polygon fill="#63b8ff" stroke="#63b8ff" points="424.22,-406.2 434.51,-408.72 428.04,-400.34 424.22,-406.2"/>
</a>
</g>
</g>
<!-- Node20 -->
<g id="Node000020" class="node">
<title>Node20</title>
<g id="a_Node000020"><a xlink:href="classsteppable_1_1Fraction.html#aad3d96fbba7e7a0fa36c3f69f0463b8b" target="_top" xlink:title="Subtracts a fraction from another fraction and stores the result in the current one....">
<polygon fill="white" stroke="#666666" points="337.62,-651.5 228.62,-651.5 228.62,-618 337.62,-618 337.62,-651.5"/>
<text text-anchor="start" x="236.62" y="-638" font-family="Helvetica,sans-Serif" font-size="10.00">steppable::Fraction</text>
<text text-anchor="middle" x="283.12" y="-625.25" font-family="Helvetica,sans-Serif" font-size="10.00">::operator&#45;=</text>
</a>
</g>
</g>
<!-- Node15&#45;&gt;Node20 -->
<g id="edge22_Node000015_Node000020" class="edge">
<title>Node15&#45;&gt;Node20</title>
<g id="a_edge22_Node000015_Node000020"><a xlink:title=" ">
<path fill="none" stroke="#63b8ff" d="M402.3,-446.36C394.2,-451.02 386.69,-456.74 380.75,-463.75 337.84,-514.42 387.76,-558.16 344.75,-608.75 341.93,-612.07 338.61,-614.97 335.01,-617.51"/>
<polygon fill="#63b8ff" stroke="#63b8ff" points="403.74,-449.55 411.05,-441.87 400.55,-443.32 403.74,-449.55"/>
</a>
</g>
</g>
<!-- Node21 -->
<g id="Node000021" class="node">
<title>Node21</title>
<g id="a_Node000021"><a xlink:href="classsteppable_1_1Fraction.html#a86913160c5f596b74be3007bd16bda6b" target="_top" xlink:title="Divides a fraction by abother fraction and stores the result in the current one. This function does i...">
<polygon fill="white" stroke="#666666" points="337.62,-599.5 228.62,-599.5 228.62,-566 337.62,-566 337.62,-599.5"/>
<text text-anchor="start" x="236.62" y="-586" font-family="Helvetica,sans-Serif" font-size="10.00">steppable::Fraction</text>
<text text-anchor="middle" x="283.12" y="-573.25" font-family="Helvetica,sans-Serif" font-size="10.00">::operator/=</text>
</a>
</g>
</g>
<!-- Node15&#45;&gt;Node21 -->
<g id="edge23_Node000015_Node000021" class="edge">
<title>Node15&#45;&gt;Node21</title>
<g id="a_edge23_Node000015_Node000021"><a xlink:title=" ">
<path fill="none" stroke="#63b8ff" d="M402.2,-447.55C394.32,-452.01 386.89,-457.36 380.75,-463.75 350.04,-495.71 375.52,-524.85 344.75,-556.75 341.49,-560.13 337.72,-563.09 333.68,-565.69"/>
<polygon fill="#63b8ff" stroke="#63b8ff" points="403.7,-450.72 411.01,-443.05 400.52,-444.48 403.7,-450.72"/>
</a>
</g>
</g>
<!-- Node22 -->
<g id="Node000022" class="node">
<title>Node22</title>
<g id="a_Node000022"><a xlink:href="classsteppable_1_1Fraction.html#ac0a3d392ac70f42f74392fe08c1ab8be" target="_top" xlink:title="Raises the fraction to a power and stores the result in the current one.">
<polygon fill="white" stroke="#666666" points="337.62,-547.5 228.62,-547.5 228.62,-514 337.62,-514 337.62,-547.5"/>
<text text-anchor="start" x="236.62" y="-534" font-family="Helvetica,sans-Serif" font-size="10.00">steppable::Fraction</text>
<text text-anchor="middle" x="283.12" y="-521.25" font-family="Helvetica,sans-Serif" font-size="10.00">::operator^=</text>
</a>
</g>
</g>
<!-- Node15&#45;&gt;Node22 -->
<g id="edge24_Node000015_Node000022" class="edge">
<title>Node15&#45;&gt;Node22</title>
<g id="a_edge24_Node000015_Node000022"><a xlink:title=" ">
<path fill="none" stroke="#63b8ff" d="M405.92,-448.8C397.12,-453.16 388.45,-458.14 380.75,-463.75 361.15,-478.03 364.38,-490.51 344.75,-504.75 340.3,-507.98 335.39,-510.91 330.34,-513.54"/>
<polygon fill="#63b8ff" stroke="#63b8ff" points="407.3,-452.02 414.88,-444.62 404.34,-445.68 407.3,-452.02"/>
</a>
</g>
</g>
<!-- Node23 -->
<g id="Node000023" class="node">
<title>Node23</title>
<g id="a_Node000023"><a xlink:href="classsteppable_1_1Fraction.html#a24daec3e07be2176c6efbcb569d8c921" target="_top" xlink:title="Returns the fraction as a string. The string is formatted as &quot;top/bottom&quot;, and it will automatically ...">
<polygon fill="white" stroke="#666666" points="337.62,-495.5 228.62,-495.5 228.62,-462 337.62,-462 337.62,-495.5"/>
<text text-anchor="start" x="236.62" y="-482" font-family="Helvetica,sans-Serif" font-size="10.00">steppable::Fraction</text>
<text text-anchor="middle" x="283.12" y="-469.25" font-family="Helvetica,sans-Serif" font-size="10.00">::present</text>
</a>
</g>
</g>
<!-- Node15&#45;&gt;Node23 -->
<g id="edge25_Node000015_Node000023" class="edge">
<title>Node15&#45;&gt;Node23</title>
<g id="a_edge25_Node000015_Node000023"><a xlink:title=" ">
<path fill="none" stroke="#63b8ff" d="M401.52,-445.21C380.73,-451.15 357.93,-457.66 337.99,-463.36"/>
<polygon fill="#63b8ff" stroke="#63b8ff" points="402.39,-448.6 411.05,-442.49 400.47,-441.87 402.39,-448.6"/>
</a>
</g>
</g>
<!-- Node26&#45;&gt;Node11 -->
<g id="edge32_Node000026_Node000011" class="edge">
<title>Node26&#45;&gt;Node11</title>
<g id="a_edge32_Node000026_Node000011"><a xlink:title=" ">
<path fill="none" stroke="#63b8ff" d="M769.91,-338.75C751.17,-338.75 731.18,-338.75 713.09,-338.75"/>
<polygon fill="#63b8ff" stroke="#63b8ff" points="769.88,-342.25 779.88,-338.75 769.88,-335.25 769.88,-342.25"/>
</a>
</g>
</g>
<!-- Node27&#45;&gt;Node11 -->
<g id="edge37_Node000027_Node000011" class="edge">
<title>Node27&#45;&gt;Node11</title>
<g id="a_edge37_Node000027_Node000011"><a xlink:title=" ">
<path fill="none" stroke="#63b8ff" d="M758.74,-421.44C755.32,-419.97 751.98,-418.41 748.75,-416.75 717.5,-400.68 686.87,-373.45 668.74,-355.79"/>
<polygon fill="#63b8ff" stroke="#63b8ff" points="757.19,-424.6 767.78,-425.04 759.78,-418.09 757.19,-424.6"/>
</a>
</g>
</g>
<!-- Node28 -->
<g id="Node000028" class="node">
<title>Node28</title>
<g id="a_Node000028"><a xlink:href="namespacesteppable_1_1____internals_1_1arithmetic.html#a7ff9976bf48df9c832d7489e88004813" target="_top" xlink:title="Gets the greatest common divisor of two string representations of numbers.">
<polygon fill="white" stroke="#666666" points="712.75,-443.5 589.5,-443.5 589.5,-410 712.75,-410 712.75,-443.5"/>
<text text-anchor="start" x="597.5" y="-430" font-family="Helvetica,sans-Serif" font-size="10.00">steppable::__internals</text>
<text text-anchor="middle" x="651.12" y="-417.25" font-family="Helvetica,sans-Serif" font-size="10.00">::arithmetic::getGCD</text>
</a>
</g>
</g>
<!-- Node27&#45;&gt;Node28 -->
<g id="edge38_Node000027_Node000028" class="edge">
<title>Node27&#45;&gt;Node28</title>
<g id="a_edge38_Node000027_Node000028"><a xlink:title=" ">
<path fill="none" stroke="#63b8ff" d="M737.15,-433.9C728.95,-433.21 720.85,-432.53 713.11,-431.88"/>
<polygon fill="#63b8ff" stroke="#63b8ff" points="736.6,-437.37 746.86,-434.72 737.19,-430.39 736.6,-437.37"/>
</a>
</g>
</g>
<!-- Node28&#45;&gt;Node15 -->
<g id="edge40_Node000028_Node000015" class="edge">
<title>Node28&#45;&gt;Node15</title>
<g id="a_edge40_Node000028_Node000015"><a xlink:title=" ">
<path fill="none" stroke="#63b8ff" d="M577.64,-426.75C559.09,-426.75 539.48,-426.75 522.05,-426.75"/>
<polygon fill="#63b8ff" stroke="#63b8ff" points="577.5,-430.25 587.5,-426.75 577.5,-423.25 577.5,-430.25"/>
</a>
</g>
</g>
<!-- Node28&#45;&gt;Node28 -->
<g id="edge39_Node000028_Node000028" class="edge">
<title>Node28&#45;&gt;Node28</title>
<g id="a_edge39_Node000028_Node000028"><a xlink:title=" ">
<path fill="none" stroke="#63b8ff" d="M682.02,-454.89C676.99,-458.85 666.69,-461.5 651.12,-461.5 623.45,-461.5 612.43,-453.12 618.05,-443.91"/>
<polygon fill="#63b8ff" stroke="#63b8ff" points="685.39,-455.89 683.91,-445.4 678.52,-454.52 685.39,-455.89"/>
</a>
</g>
</g>
</g>
</svg>

<g id="navigator" transform="translate(0 0)" fill="#404254">
  <rect fill="#f2f5e9" fill-opacity="0.5" stroke="#606060" stroke-width=".5" x="0" y="0" width="60" height="60"/>
  <use id="zoomplus" xlink:href="#zoomPlus" x="17" y="9" onmousedown="handleZoom(evt,'in')"/>
  <use id="zoomminus" xlink:href="#zoomMin" x="42" y="9" onmousedown="handleZoom(evt,'out')"/>
  <use id="reset" xlink:href="#resetDef" x="30" y="36" onmousedown="handleReset()"/>
   <use id="arrowup" xlink:href="#arrowUp" x="0" y="0" onmousedown="handlePan(0,-1)"/>
  <use id="arrowright" xlink:href="#arrowRight" x="0" y="0" onmousedown="handlePan(1,0)"/>
  <use id="arrowdown" xlink:href="#arrowDown" x="0" y="0" onmousedown="handlePan(0,1)"/>
  <use id="arrowleft" xlink:href="#arrowLeft" x="0" y="0" onmousedown="handlePan(-1,0)"/>
</g>
<svg viewBox="0 0 15 15" width="100%" height="30px" preserveAspectRatio="xMaxYMin meet">
 <g id="arrow_out" transform="scale(0.3 0.3)">
  <a xlink:href="namespacesteppable_1_1____internals_1_1arithmetic_ae61ae2915786a49aebb7025105cf058e_icgraph_org.svg" target="_base">
   <rect id="button" ry="5" rx="5" y="6" x="6" height="38" width="38"
        fill="#f2f5e9" fill-opacity="0.5" stroke="#606060" stroke-width="1.0"/>
   <path id="arrow"
     d="M 11.500037,31.436501 C 11.940474,20.09759 22.043105,11.32322 32.158766,21.979434 L 37.068811,17.246167 C 37.068811,17.246167 37.088388,32 37.088388,32 L 22.160133,31.978069 C 22.160133,31.978069 26.997745,27.140456 26.997745,27.140456 C 18.528582,18.264221 13.291696,25.230495 11.500037,31.436501 z"
     style="fill:#404040;"/>
  </a>
 </g>
</svg>

<style type='text/css'>
<![CDATA[
[data-mouse-over-selected='false'] { opacity: 0.7; }
[data-mouse-over-selected='true']  { opacity: 1.0; }
]]>
</style>
<script type="application/ecmascript"><![CDATA[
document.addEventListener('DOMContentLoaded', (event) => {
  highlightEdges();
  highlightAdjacentNodes();
});
]]></script>
</svg>
