<?xml version="1.0" encoding="UTF-8" standalone="no"?>
<!DOCTYPE svg PUBLIC "-//W3C//DTD SVG 1.1//EN"
 "http://www.w3.org/Graphics/SVG/1.1/DTD/svg11.dtd">
<!-- Generated by graphviz version 12.2.0 (20241103.1931)
 -->
<!-- Title: ImGui::TableSortSpecsBuild Pages: 1 -->
<!--zoomable 538 -->

<svg id="main" version="1.1" xmlns="http://www.w3.org/2000/svg" xmlns:xlink="http://www.w3.org/1999/xlink" xml:space="preserve" onload="init(evt)">

<style type="text/css"><![CDATA[
.node, .edge {opacity: 0.7;}
.node.selected, .edge.selected {opacity: 1;}
.edge:hover path { stroke: red; }
.edge:hover polygon { stroke: red; fill: red; }
]]></style>

<defs>
  <circle id="rim" cx="0" cy="0" r="7"/>
  <circle id="rim2" cx="0" cy="0" r="3.5"/>
  <g id="zoomPlus">
    <use xlink:href="#rim" fill="#404040"><set attributeName="fill" to="#808080" begin="zoomplus.mouseover" end="zoomplus.mouseout"/></use>
    <path d="M-4,0h8M0,-4v8" fill="none" stroke="white" stroke-width="1.5" pointer-events="none"/>
  </g>
  <g id="zoomMin">
    <use xlink:href="#rim" fill="#404040"><set attributeName="fill" to="#808080" begin="zoomminus.mouseover" end="zoomminus.mouseout"/></use>
    <path d="M-4,0h8" fill="none" stroke="white" stroke-width="1.5" pointer-events="none"/>
  </g>
  <g id="arrowUp" transform="translate(30 24)">
    <use xlink:href="#rim"/>
    <path pointer-events="none" fill="none" stroke="white" stroke-width="1.5" d="M0,-3.0v7 M-2.5,-0.5L0,-3.0L2.5,-0.5"/>
  </g>
  <g id="arrowRight" transform="rotate(90) translate(36 -43)">
    <use xlink:href="#rim"/>
    <path pointer-events="none" fill="none" stroke="white" stroke-width="1.5" d="M0,-3.0v7 M-2.5,-0.5L0,-3.0L2.5,-0.5"/>
  </g>
  <g id="arrowDown" transform="rotate(180) translate(-30 -48)">
    <use xlink:href="#rim"/>
    <path pointer-events="none" fill="none" stroke="white" stroke-width="1.5" d="M0,-3.0v7 M-2.5,-0.5L0,-3.0L2.5,-0.5"/>
  </g>
  <g id="arrowLeft" transform="rotate(270) translate(-36 17)">
    <use xlink:href="#rim"/>
    <path pointer-events="none" fill="none" stroke="white" stroke-width="1.5" d="M0,-3.0v7 M-2.5,-0.5L0,-3.0L2.5,-0.5"/>
  </g>
  <g id="resetDef">
    <use xlink:href="#rim2" fill="#404040"><set attributeName="fill" to="#808080" begin="reset.mouseover" end="reset.mouseout"/></use>
  </g>
</defs>
<script type="application/ecmascript">
var viewWidth = 1693;
var viewHeight = 538;
var sectionId = 'dynsection-1289';
</script>
<script type="application/ecmascript" xlink:href="svg.min.js"/>
<svg id="graph" class="graph">
<g id="viewport">
<title>ImGui::TableSortSpecsBuild</title>
<!-- Node1 -->
<g id="Node000001" class="node">
<title>Node1</title>
<g id="a_Node000001"><a xlink:title=" ">
<polygon fill="#999999" stroke="#666666" points="1685.25,-181.12 1535.75,-181.12 1535.75,-160.38 1685.25,-160.38 1685.25,-181.12"/>
<text text-anchor="middle" x="1610.5" y="-167.62" font-family="Helvetica,sans-Serif" font-size="10.00">ImGui::TableSortSpecsBuild</text>
</a>
</g>
</g>
<!-- Node2 -->
<g id="Node000002" class="node">
<title>Node2</title>
<g id="a_Node000002"><a xlink:href="namespaceImGui.html#acaeb2f2896b8332e108b6b1ce1c08fcc" target="_top" xlink:title=" ">
<polygon fill="white" stroke="#666666" points="1318.75,-162.12 1176.75,-162.12 1176.75,-141.38 1318.75,-141.38 1318.75,-162.12"/>
<text text-anchor="middle" x="1247.75" y="-148.62" font-family="Helvetica,sans-Serif" font-size="10.00">ImGui::TableGetSortSpecs</text>
</a>
</g>
</g>
<!-- Node1&#45;&gt;Node2 -->
<g id="edge1_Node000001_Node000002" class="edge">
<title>Node1&#45;&gt;Node2</title>
<g id="a_edge1_Node000001_Node000002"><a xlink:title=" ">
<path fill="none" stroke="#63b8ff" d="M1524.21,-166.26C1461.7,-162.97 1377.86,-158.55 1319.15,-155.46"/>
<polygon fill="#63b8ff" stroke="#63b8ff" points="1523.94,-169.75 1534.11,-166.78 1524.31,-162.76 1523.94,-169.75"/>
</a>
</g>
</g>
<!-- Node4 -->
<g id="Node000004" class="node">
<title>Node4</title>
<g id="a_Node000004"><a xlink:href="namespaceImGui.html#a890d76a0ec9efc98765c226884e3e32a" target="_top" xlink:title=" ">
<polygon fill="white" stroke="#666666" points="1499.75,-200.12 1354.75,-200.12 1354.75,-179.38 1499.75,-179.38 1499.75,-200.12"/>
<text text-anchor="middle" x="1427.25" y="-186.62" font-family="Helvetica,sans-Serif" font-size="10.00">ImGui::TableUpdateLayout</text>
</a>
</g>
</g>
<!-- Node1&#45;&gt;Node4 -->
<g id="edge3_Node000001_Node000004" class="edge">
<title>Node1&#45;&gt;Node4</title>
<g id="a_edge3_Node000001_Node000004"><a xlink:title=" ">
<path fill="none" stroke="#63b8ff" d="M1523.99,-179.71C1515.97,-180.55 1507.91,-181.4 1500.04,-182.22"/>
<polygon fill="#63b8ff" stroke="#63b8ff" points="1524.17,-183.21 1533.75,-178.69 1523.44,-176.25 1524.17,-183.21"/>
</a>
</g>
</g>
<!-- Node3 -->
<g id="Node000003" class="node">
<title>Node3</title>
<g id="a_Node000003"><a xlink:href="structExampleAssetsBrowser.html#a2b36e1f9b7d764e547611baa4c7fd8d1" target="_top" xlink:title=" ">
<polygon fill="white" stroke="#666666" points="936.12,-123.5 805.38,-123.5 805.38,-90 936.12,-90 936.12,-123.5"/>
<text text-anchor="start" x="813.38" y="-110" font-family="Helvetica,sans-Serif" font-size="10.00">ExampleAssetsBrowser</text>
<text text-anchor="middle" x="870.75" y="-97.25" font-family="Helvetica,sans-Serif" font-size="10.00">::Draw</text>
</a>
</g>
</g>
<!-- Node2&#45;&gt;Node3 -->
<g id="edge2_Node000002_Node000003" class="edge">
<title>Node2&#45;&gt;Node3</title>
<g id="a_edge2_Node000002_Node000003"><a xlink:title=" ">
<path fill="none" stroke="#63b8ff" d="M1220.71,-135.12C1199.97,-122.91 1169.71,-107.35 1140.75,-100.75 1072.32,-85.14 991.55,-89.92 936.5,-96.54"/>
<polygon fill="#63b8ff" stroke="#63b8ff" points="1218.7,-137.99 1229.06,-140.18 1222.32,-132.01 1218.7,-137.99"/>
</a>
</g>
</g>
<!-- Node4&#45;&gt;Node2 -->
<g id="edge32_Node000004_Node000002" class="edge">
<title>Node4&#45;&gt;Node2</title>
<g id="a_edge32_Node000004_Node000002"><a xlink:title=" ">
<path fill="none" stroke="#63b8ff" d="M1364.61,-176.55C1343.27,-171.98 1319.61,-166.92 1299.27,-162.56"/>
<polygon fill="#63b8ff" stroke="#63b8ff" points="1363.87,-179.97 1374.38,-178.65 1365.33,-173.13 1363.87,-179.97"/>
</a>
</g>
</g>
<!-- Node5 -->
<g id="Node000005" class="node">
<title>Node5</title>
<g id="a_Node000005"><a xlink:href="namespaceImGui.html#a9c70aaa6464c2e51e6f3342da133ada1" target="_top" xlink:title=" ">
<polygon fill="white" stroke="#666666" points="1114.5,-200.12 1019.75,-200.12 1019.75,-179.38 1114.5,-179.38 1114.5,-200.12"/>
<text text-anchor="middle" x="1067.12" y="-186.62" font-family="Helvetica,sans-Serif" font-size="10.00">ImGui::EndTable</text>
</a>
</g>
</g>
<!-- Node4&#45;&gt;Node5 -->
<g id="edge4_Node000004_Node000005" class="edge">
<title>Node4&#45;&gt;Node5</title>
<g id="a_edge4_Node000004_Node000005"><a xlink:title=" ">
<path fill="none" stroke="#63b8ff" d="M1343.5,-189.75C1272.51,-189.75 1172.75,-189.75 1114.83,-189.75"/>
<polygon fill="#63b8ff" stroke="#63b8ff" points="1343.13,-193.25 1353.13,-189.75 1343.13,-186.25 1343.13,-193.25"/>
</a>
</g>
</g>
<!-- Node19 -->
<g id="Node000019" class="node">
<title>Node19</title>
<g id="a_Node000019"><a xlink:href="namespaceImGui.html#a0c16791f4620e8db38511553d5d63335" target="_top" xlink:title=" ">
<polygon fill="white" stroke="#666666" points="1136.25,-276.12 998,-276.12 998,-255.38 1136.25,-255.38 1136.25,-276.12"/>
<text text-anchor="middle" x="1067.12" y="-262.62" font-family="Helvetica,sans-Serif" font-size="10.00">ImGui::TableHeadersRow</text>
</a>
</g>
</g>
<!-- Node4&#45;&gt;Node19 -->
<g id="edge33_Node000004_Node000019" class="edge">
<title>Node4&#45;&gt;Node19</title>
<g id="a_edge33_Node000004_Node000019"><a xlink:title=" ">
<path fill="none" stroke="#63b8ff" d="M1401.68,-206.57C1380.67,-220 1349.09,-237.97 1318.75,-246.75 1258.91,-264.06 1187.88,-267.97 1136.74,-268.05"/>
<polygon fill="#63b8ff" stroke="#63b8ff" points="1403.38,-209.64 1409.83,-201.23 1399.55,-203.79 1403.38,-209.64"/>
</a>
</g>
</g>
<!-- Node20 -->
<g id="Node000020" class="node">
<title>Node20</title>
<g id="a_Node000020"><a xlink:href="namespaceImGui.html#a33511cbfe04b545a1a51b514ab6c208c" target="_top" xlink:title=" ">
<polygon fill="white" stroke="#666666" points="1308.25,-238.12 1187.25,-238.12 1187.25,-217.38 1308.25,-217.38 1308.25,-238.12"/>
<text text-anchor="middle" x="1247.75" y="-224.62" font-family="Helvetica,sans-Serif" font-size="10.00">ImGui::TableNextRow</text>
</a>
</g>
</g>
<!-- Node4&#45;&gt;Node20 -->
<g id="edge37_Node000004_Node000020" class="edge">
<title>Node4&#45;&gt;Node20</title>
<g id="a_edge37_Node000004_Node000020"><a xlink:title=" ">
<path fill="none" stroke="#63b8ff" d="M1364.61,-202.95C1343.27,-207.52 1319.61,-212.58 1299.27,-216.94"/>
<polygon fill="#63b8ff" stroke="#63b8ff" points="1365.33,-206.37 1374.38,-200.85 1363.87,-199.53 1365.33,-206.37"/>
</a>
</g>
</g>
<!-- Node5&#45;&gt;Node3 -->
<g id="edge22_Node000005_Node000003" class="edge">
<title>Node5&#45;&gt;Node3</title>
<g id="a_edge22_Node000005_Node000003"><a xlink:title=" ">
<path fill="none" stroke="#63b8ff" d="M1008.44,-177.89C1003.22,-175.87 998.16,-173.51 993.5,-170.75 973.48,-158.91 977.29,-144.98 957.5,-132.75 951.02,-128.74 943.87,-125.32 936.56,-122.4"/>
<polygon fill="#63b8ff" stroke="#63b8ff" points="1007.23,-181.18 1017.82,-181.1 1009.49,-174.56 1007.23,-181.18"/>
</a>
</g>
</g>
<!-- Node6 -->
<g id="Node000006" class="node">
<title>Node6</title>
<g id="a_Node000006"><a xlink:href="namespaceImGui.html#a8600f7b1f9b18926fb00837e56d2b3cd" target="_top" xlink:title=" ">
<polygon fill="white" stroke="#666666" points="950,-357.12 791.5,-357.12 791.5,-336.38 950,-336.38 950,-357.12"/>
<text text-anchor="middle" x="870.75" y="-343.62" font-family="Helvetica,sans-Serif" font-size="10.00">ImGui::DebugNodeDockNode</text>
</a>
</g>
</g>
<!-- Node5&#45;&gt;Node6 -->
<g id="edge5_Node000005_Node000006" class="edge">
<title>Node5&#45;&gt;Node6</title>
<g id="a_edge5_Node000005_Node000006"><a xlink:title=" ">
<path fill="none" stroke="#63b8ff" d="M1039.42,-206.68C1024.62,-216.99 1006.62,-231.15 993.5,-246.75 971.74,-272.62 982.86,-291.4 957.5,-313.75 946.13,-323.77 931.39,-330.9 917.35,-335.9"/>
<polygon fill="#63b8ff" stroke="#63b8ff" points="1041.01,-209.83 1047.34,-201.33 1037.1,-204.03 1041.01,-209.83"/>
</a>
</g>
</g>
<!-- Node10 -->
<g id="Node000010" class="node">
<title>Node10</title>
<g id="a_Node000010"><a xlink:href="namespaceImGui.html#af95643a0ce4893b9e57c12991922fb18" target="_top" xlink:title=" ">
<polygon fill="white" stroke="#666666" points="145.75,-228.12 0,-228.12 0,-207.38 145.75,-207.38 145.75,-228.12"/>
<text text-anchor="middle" x="72.88" y="-214.62" font-family="Helvetica,sans-Serif" font-size="10.00">ImGui::ShowDemoWindow</text>
</a>
</g>
</g>
<!-- Node5&#45;&gt;Node10 -->
<g id="edge26_Node000005_Node000010" class="edge">
<title>Node5&#45;&gt;Node10</title>
<g id="a_edge26_Node000005_Node000010"><a xlink:title=" ">
<path fill="none" stroke="#63b8ff" d="M1009.08,-180.52C1003.42,-177.99 998.08,-174.79 993.5,-170.75 961.2,-142.24 992.38,-106.04 957.5,-80.75 904.41,-42.25 728.58,-61.75 663,-61.75 663,-61.75 663,-61.75 454.12,-61.75 300.71,-61.75 136.78,-171.78 88.21,-207.03"/>
<polygon fill="#63b8ff" stroke="#63b8ff" points="1007.53,-183.68 1018.12,-183.86 1009.95,-177.11 1007.53,-183.68"/>
</a>
</g>
</g>
<!-- Node12 -->
<g id="Node000012" class="node">
<title>Node12</title>
<g id="a_Node000012"><a xlink:href="namespaceImGui.html#a326f0badd138d1dea078a31b0e8dd685" target="_top" xlink:title=" ">
<polygon fill="white" stroke="#666666" points="944.38,-305.12 797.12,-305.12 797.12,-284.38 944.38,-284.38 944.38,-305.12"/>
<text text-anchor="middle" x="870.75" y="-291.62" font-family="Helvetica,sans-Serif" font-size="10.00">ImGui::DebugTextEncoding</text>
</a>
</g>
</g>
<!-- Node5&#45;&gt;Node12 -->
<g id="edge19_Node000005_Node000012" class="edge">
<title>Node5&#45;&gt;Node12</title>
<g id="a_edge19_Node000005_Node000012"><a xlink:title=" ">
<path fill="none" stroke="#63b8ff" d="M1043.43,-207.56C1011.77,-232.39 958.11,-274.46 957.5,-274.75 949.78,-278.45 941.33,-281.48 932.85,-283.97"/>
<polygon fill="#63b8ff" stroke="#63b8ff" points="1045.57,-210.33 1051.28,-201.4 1041.25,-204.82 1045.57,-210.33"/>
</a>
</g>
</g>
<!-- Node13 -->
<g id="Node000013" class="node">
<title>Node13</title>
<g id="a_Node000013"><a xlink:href="structExampleAppPropertyEditor.html#adfdfd135c8e210849d5ecbe4d4969813" target="_top" xlink:title=" ">
<polygon fill="white" stroke="#666666" points="944.38,-33.5 797.12,-33.5 797.12,0 944.38,0 944.38,-33.5"/>
<text text-anchor="start" x="805.12" y="-20" font-family="Helvetica,sans-Serif" font-size="10.00">ExampleAppPropertyEditor</text>
<text text-anchor="middle" x="870.75" y="-7.25" font-family="Helvetica,sans-Serif" font-size="10.00">::Draw</text>
</a>
</g>
</g>
<!-- Node5&#45;&gt;Node13 -->
<g id="edge21_Node000005_Node000013" class="edge">
<title>Node5&#45;&gt;Node13</title>
<g id="a_edge21_Node000005_Node000013"><a xlink:title=" ">
<path fill="none" stroke="#63b8ff" d="M1008.91,-181.05C1003.23,-178.43 997.94,-175.06 993.5,-170.75 952.65,-131.06 996.51,-89.26 957.5,-47.75 952.3,-42.21 946.03,-37.66 939.28,-33.92"/>
<polygon fill="#63b8ff" stroke="#63b8ff" points="1007.43,-184.24 1018.02,-184.48 1009.9,-177.69 1007.43,-184.24"/>
</a>
</g>
</g>
<!-- Node14 -->
<g id="Node000014" class="node">
<title>Node14</title>
<g id="a_Node000014"><a xlink:href="namespaceImGui.html#a945392cbf05b9434df8ec3630b10e01a" target="_top" xlink:title=" ">
<polygon fill="white" stroke="#666666" points="951.5,-175.5 790,-175.5 790,-142 951.5,-142 951.5,-175.5"/>
<text text-anchor="start" x="798" y="-162" font-family="Helvetica,sans-Serif" font-size="10.00">ImGui::ErrorCheckEndWindow</text>
<text text-anchor="middle" x="870.75" y="-149.25" font-family="Helvetica,sans-Serif" font-size="10.00">Recover</text>
</a>
</g>
</g>
<!-- Node5&#45;&gt;Node14 -->
<g id="edge23_Node000005_Node000014" class="edge">
<title>Node5&#45;&gt;Node14</title>
<g id="a_edge23_Node000005_Node000014"><a xlink:title=" ">
<path fill="none" stroke="#63b8ff" d="M1008.24,-180.52C990.5,-177.69 970.66,-174.52 951.72,-171.5"/>
<polygon fill="#63b8ff" stroke="#63b8ff" points="1007.65,-183.97 1018.07,-182.09 1008.75,-177.05 1007.65,-183.97"/>
</a>
</g>
</g>
<!-- Node16 -->
<g id="Node000016" class="node">
<title>Node16</title>
<g id="a_Node000016"><a xlink:href="structExampleDualListBox.html#a1413fd803c568a0d4b98a8f3c59af1be" target="_top" xlink:title=" ">
<polygon fill="white" stroke="#666666" points="929.38,-227.5 812.12,-227.5 812.12,-194 929.38,-194 929.38,-227.5"/>
<text text-anchor="start" x="820.12" y="-214" font-family="Helvetica,sans-Serif" font-size="10.00">ExampleDualListBox</text>
<text text-anchor="middle" x="870.75" y="-201.25" font-family="Helvetica,sans-Serif" font-size="10.00">::Show</text>
</a>
</g>
</g>
<!-- Node5&#45;&gt;Node16 -->
<g id="edge25_Node000005_Node000016" class="edge">
<title>Node5&#45;&gt;Node16</title>
<g id="a_edge25_Node000005_Node000016"><a xlink:title=" ">
<path fill="none" stroke="#63b8ff" d="M1008.14,-196.01C983.37,-198.69 954.53,-201.81 929.76,-204.48"/>
<polygon fill="#63b8ff" stroke="#63b8ff" points="1008.5,-199.5 1018.06,-194.94 1007.74,-192.54 1008.5,-199.5"/>
</a>
</g>
</g>
<!-- Node17 -->
<g id="Node000017" class="node">
<title>Node17</title>
<g id="a_Node000017"><a xlink:href="namespaceImGui.html#ab4a87bf4a874a8e5872b60b4a9b1d99e" target="_top" xlink:title=" ">
<polygon fill="white" stroke="#666666" points="957.5,-266.12 784,-266.12 784,-245.38 957.5,-245.38 957.5,-266.12"/>
<text text-anchor="middle" x="870.75" y="-252.62" font-family="Helvetica,sans-Serif" font-size="10.00">ImGui::ShowIDStackToolWindow</text>
</a>
</g>
</g>
<!-- Node5&#45;&gt;Node17 -->
<g id="edge27_Node000005_Node000017" class="edge">
<title>Node5&#45;&gt;Node17</title>
<g id="a_edge27_Node000005_Node000017"><a xlink:title=" ">
<path fill="none" stroke="#63b8ff" d="M1034.43,-205.37C1013.09,-215.41 984.09,-228.14 957.5,-236.75 948.07,-239.8 937.9,-242.53 927.98,-244.9"/>
<polygon fill="#63b8ff" stroke="#63b8ff" points="1035.66,-208.66 1043.18,-201.2 1032.65,-202.34 1035.66,-208.66"/>
</a>
</g>
</g>
<!-- Node6&#45;&gt;Node6 -->
<g id="edge6_Node000006_Node000006" class="edge">
<title>Node6&#45;&gt;Node6</title>
<g id="a_edge6_Node000006_Node000006"><a xlink:title=" ">
<path fill="none" stroke="#63b8ff" d="M905.3,-368.61C900.73,-372.45 889.21,-375.12 870.75,-375.12 837,-375.12 826.45,-366.18 839.11,-357.52"/>
<polygon fill="#63b8ff" stroke="#63b8ff" points="908.7,-367.77 902.78,-358.99 901.93,-369.55 908.7,-367.77"/>
</a>
</g>
</g>
<!-- Node7 -->
<g id="Node000007" class="node">
<title>Node7</title>
<g id="a_Node000007"><a xlink:href="namespaceImGui.html#afcb602554925c5409977f0fb39f77e5d" target="_top" xlink:title=" ">
<polygon fill="white" stroke="#666666" points="735.62,-370.12 588.38,-370.12 588.38,-349.38 735.62,-349.38 735.62,-370.12"/>
<text text-anchor="middle" x="662" y="-356.62" font-family="Helvetica,sans-Serif" font-size="10.00">ImGui::DebugNodeWindow</text>
</a>
</g>
</g>
<!-- Node6&#45;&gt;Node7 -->
<g id="edge7_Node000006_Node000007" class="edge">
<title>Node6&#45;&gt;Node7</title>
<g id="a_edge7_Node000006_Node000007"><a xlink:title=" ">
<path fill="none" stroke="#63b8ff" d="M780,-345.7C764.35,-346.56 748.29,-347.66 733.26,-348.9"/>
<polygon fill="#63b8ff" stroke="#63b8ff" points="779.97,-349.2 789.78,-345.19 779.61,-342.21 779.97,-349.2"/>
</a>
</g>
</g>
<!-- Node9 -->
<g id="Node000009" class="node">
<title>Node9</title>
<g id="a_Node000009"><a xlink:href="namespaceImGui.html#afe7a28c6eb52fff3cc27d5a698fea4ff" target="_top" xlink:title=" ">
<polygon fill="white" stroke="#666666" points="334.25,-313.12 181.75,-313.12 181.75,-292.38 334.25,-292.38 334.25,-313.12"/>
<text text-anchor="middle" x="258" y="-299.62" font-family="Helvetica,sans-Serif" font-size="10.00">ImGui::ShowMetricsWindow</text>
</a>
</g>
</g>
<!-- Node6&#45;&gt;Node9 -->
<g id="edge18_Node000006_Node000009" class="edge">
<title>Node6&#45;&gt;Node9</title>
<g id="a_edge18_Node000006_Node000009"><a xlink:title=" ">
<path fill="none" stroke="#63b8ff" d="M839.04,-362.61C814.96,-374.24 780.23,-389.26 748,-396.75 584.36,-434.8 525.94,-473.89 370.25,-410.75 320.61,-390.62 280.92,-336.52 265.71,-313.43"/>
<polygon fill="#63b8ff" stroke="#63b8ff" points="840.54,-365.78 847.96,-358.21 837.44,-359.5 840.54,-365.78"/>
</a>
</g>
</g>
<!-- Node7&#45;&gt;Node6 -->
<g id="edge8_Node000007_Node000006" class="edge">
<title>Node7&#45;&gt;Node6</title>
<g id="a_edge8_Node000007_Node000006"><a xlink:title=" ">
<path fill="none" stroke="#63b8ff" d="M747.19,-361.1C764.55,-360.2 782.66,-358.99 799.47,-357.6"/>
<polygon fill="#63b8ff" stroke="#63b8ff" points="747.24,-357.6 737.42,-361.57 747.58,-364.59 747.24,-357.6"/>
</a>
</g>
</g>
<!-- Node7&#45;&gt;Node7 -->
<g id="edge9_Node000007_Node000007" class="edge">
<title>Node7&#45;&gt;Node7</title>
<g id="a_edge9_Node000007_Node000007"><a xlink:title=" ">
<path fill="none" stroke="#63b8ff" d="M698.4,-381.61C693.58,-385.45 681.45,-388.12 662,-388.12 626.44,-388.12 615.33,-379.18 628.67,-370.52"/>
<polygon fill="#63b8ff" stroke="#63b8ff" points="701.78,-380.69 695.74,-371.98 695.03,-382.55 701.78,-380.69"/>
</a>
</g>
</g>
<!-- Node8 -->
<g id="Node000008" class="node">
<title>Node8</title>
<g id="a_Node000008"><a xlink:href="namespaceImGui.html#a8c2ed9f140c90d8eaca1e2cfd8f46142" target="_top" xlink:title=" ">
<polygon fill="white" stroke="#666666" points="540,-332.12 370.25,-332.12 370.25,-311.38 540,-311.38 540,-332.12"/>
<text text-anchor="middle" x="455.12" y="-318.62" font-family="Helvetica,sans-Serif" font-size="10.00">ImGui::DebugNodeWindowsList</text>
</a>
</g>
</g>
<!-- Node7&#45;&gt;Node8 -->
<g id="edge10_Node000007_Node000008" class="edge">
<title>Node7&#45;&gt;Node8</title>
<g id="a_edge10_Node000007_Node000008"><a xlink:title=" ">
<path fill="none" stroke="#63b8ff" d="M618.94,-346.37C596.24,-341.16 567.39,-335.44 540.29,-330.71"/>
<polygon fill="#63b8ff" stroke="#63b8ff" points="617.87,-349.72 628.41,-348.62 619.49,-342.91 617.87,-349.72"/>
</a>
</g>
</g>
<!-- Node11 -->
<g id="Node000011" class="node">
<title>Node11</title>
<g id="a_Node000011"><a xlink:href="namespaceImGui.html#a0fc8019faf3a1aec25b554384ad9e506" target="_top" xlink:title=" ">
<polygon fill="white" stroke="#666666" points="540,-383.5 370.25,-383.5 370.25,-350 540,-350 540,-383.5"/>
<text text-anchor="start" x="378.25" y="-370" font-family="Helvetica,sans-Serif" font-size="10.00">ImGui::DebugNodeWindowsList</text>
<text text-anchor="middle" x="455.12" y="-357.25" font-family="Helvetica,sans-Serif" font-size="10.00">ByBeginStackParent</text>
</a>
</g>
</g>
<!-- Node7&#45;&gt;Node11 -->
<g id="edge15_Node000007_Node000011" class="edge">
<title>Node7&#45;&gt;Node11</title>
<g id="a_edge15_Node000007_Node000011"><a xlink:title=" ">
<path fill="none" stroke="#63b8ff" d="M576.57,-362.63C564.61,-363.04 552.32,-363.46 540.37,-363.87"/>
<polygon fill="#63b8ff" stroke="#63b8ff" points="576.52,-366.14 586.39,-362.3 576.28,-359.14 576.52,-366.14"/>
</a>
</g>
</g>
<!-- Node8&#45;&gt;Node6 -->
<g id="edge11_Node000008_Node000006" class="edge">
<title>Node8&#45;&gt;Node6</title>
<g id="a_edge11_Node000008_Node000006"><a xlink:title=" ">
<path fill="none" stroke="#63b8ff" d="M551.93,-327.54C624.67,-331.94 723.44,-337.91 791.46,-342.02"/>
<polygon fill="#63b8ff" stroke="#63b8ff" points="552.2,-324.05 542,-326.94 551.77,-331.04 552.2,-324.05"/>
</a>
</g>
</g>
<!-- Node8&#45;&gt;Node7 -->
<g id="edge12_Node000008_Node000007" class="edge">
<title>Node8&#45;&gt;Node7</title>
<g id="a_edge12_Node000008_Node000007"><a xlink:title=" ">
<path fill="none" stroke="#63b8ff" d="M498.36,-335.17C524.17,-341.09 557.87,-347.65 587.9,-352.69"/>
<polygon fill="#63b8ff" stroke="#63b8ff" points="499.47,-331.83 488.94,-332.93 497.86,-338.65 499.47,-331.83"/>
</a>
</g>
</g>
<!-- Node8&#45;&gt;Node9 -->
<g id="edge13_Node000008_Node000009" class="edge">
<title>Node8&#45;&gt;Node9</title>
<g id="a_edge13_Node000008_Node000009"><a xlink:title=" ">
<path fill="none" stroke="#63b8ff" d="M358.6,-312.45C350.54,-311.66 342.47,-310.88 334.59,-310.11"/>
<polygon fill="#63b8ff" stroke="#63b8ff" points="358.16,-315.92 368.45,-313.41 358.84,-308.95 358.16,-315.92"/>
</a>
</g>
</g>
<!-- Node9&#45;&gt;Node10 -->
<g id="edge14_Node000009_Node000010" class="edge">
<title>Node9&#45;&gt;Node10</title>
<g id="a_edge14_Node000009_Node000010"><a xlink:title=" ">
<path fill="none" stroke="#63b8ff" d="M223.63,-287.26C187.01,-270.26 129.19,-243.43 97.17,-228.56"/>
<polygon fill="#63b8ff" stroke="#63b8ff" points="221.89,-290.31 232.43,-291.35 224.84,-283.96 221.89,-290.31"/>
</a>
</g>
</g>
<!-- Node11&#45;&gt;Node9 -->
<g id="edge17_Node000011_Node000009" class="edge">
<title>Node11&#45;&gt;Node9</title>
<g id="a_edge17_Node000011_Node000009"><a xlink:title=" ">
<path fill="none" stroke="#63b8ff" d="M387.13,-346.17C381.41,-344.36 375.73,-342.53 370.25,-340.75 342.89,-331.84 311.92,-321.22 289.61,-313.47"/>
<polygon fill="#63b8ff" stroke="#63b8ff" points="386.08,-349.51 396.67,-349.17 388.18,-342.83 386.08,-349.51"/>
</a>
</g>
</g>
<!-- Node11&#45;&gt;Node11 -->
<g id="edge16_Node000011_Node000011" class="edge">
<title>Node11&#45;&gt;Node11</title>
<g id="a_edge16_Node000011_Node000011"><a xlink:title=" ">
<path fill="none" stroke="#63b8ff" d="M488.22,-394.89C482.83,-398.85 471.8,-401.5 455.12,-401.5 425.48,-401.5 413.67,-393.12 419.69,-383.91"/>
<polygon fill="#63b8ff" stroke="#63b8ff" points="491.59,-395.9 490.25,-385.39 484.74,-394.45 491.59,-395.9"/>
</a>
</g>
</g>
<!-- Node12&#45;&gt;Node9 -->
<g id="edge20_Node000012_Node000009" class="edge">
<title>Node12&#45;&gt;Node9</title>
<g id="a_edge20_Node000012_Node000009"><a xlink:title=" ">
<path fill="none" stroke="#63b8ff" d="M785.43,-295.85C665.91,-297.42 449.06,-300.26 334.54,-301.76"/>
<polygon fill="#63b8ff" stroke="#63b8ff" points="785.22,-299.36 795.17,-295.73 785.13,-292.36 785.22,-299.36"/>
</a>
</g>
</g>
<!-- Node15 -->
<g id="Node000015" class="node">
<title>Node15</title>
<g id="a_Node000015"><a xlink:href="namespaceImGui.html#aaeda60ee2c0b5c2b3f397b237c9928f3" target="_top" xlink:title=" ">
<polygon fill="white" stroke="#666666" points="738.62,-123.5 585.38,-123.5 585.38,-90 738.62,-90 738.62,-123.5"/>
<text text-anchor="start" x="593.38" y="-110" font-family="Helvetica,sans-Serif" font-size="10.00">ImGui::ErrorCheckEndFrame</text>
<text text-anchor="middle" x="662" y="-97.25" font-family="Helvetica,sans-Serif" font-size="10.00">Recover</text>
</a>
</g>
</g>
<!-- Node14&#45;&gt;Node15 -->
<g id="edge24_Node000014_Node000015" class="edge">
<title>Node14&#45;&gt;Node15</title>
<g id="a_edge24_Node000014_Node000015"><a xlink:title=" ">
<path fill="none" stroke="#63b8ff" d="M790.23,-138.75C770.82,-133.87 750.22,-128.69 731.37,-123.95"/>
<polygon fill="#63b8ff" stroke="#63b8ff" points="789.17,-142.09 799.72,-141.14 790.88,-135.3 789.17,-142.09"/>
</a>
</g>
</g>
<!-- Node17&#45;&gt;Node9 -->
<g id="edge29_Node000017_Node000009" class="edge">
<title>Node17&#45;&gt;Node9</title>
<g id="a_edge29_Node000017_Node000009"><a xlink:title=" ">
<path fill="none" stroke="#63b8ff" d="M772.4,-263.24C650.76,-272.6 445.19,-288.42 334.68,-296.93"/>
<polygon fill="#63b8ff" stroke="#63b8ff" points="772.33,-266.76 782.03,-262.5 771.79,-259.78 772.33,-266.76"/>
</a>
</g>
</g>
<!-- Node17&#45;&gt;Node10 -->
<g id="edge28_Node000017_Node000010" class="edge">
<title>Node17&#45;&gt;Node10</title>
<g id="a_edge28_Node000017_Node000010"><a xlink:title=" ">
<path fill="none" stroke="#63b8ff" d="M788.12,-239.61C786.71,-238.7 785.33,-237.75 784,-236.75 757.29,-216.67 776.73,-187.81 748,-170.75 642.96,-108.39 262.72,-178.59 124.52,-206.95"/>
<polygon fill="#63b8ff" stroke="#63b8ff" points="786.11,-242.5 796.58,-244.17 789.44,-236.34 786.11,-242.5"/>
</a>
</g>
</g>
<!-- Node18 -->
<g id="Node000018" class="node">
<title>Node18</title>
<g id="a_Node000018"><a xlink:href="namespaceImGui.html#a1b6e100d30894c9379908efc540e5486" target="_top" xlink:title=" ">
<polygon fill="white" stroke="#666666" points="743.5,-200.12 580.5,-200.12 580.5,-179.38 743.5,-179.38 743.5,-200.12"/>
<text text-anchor="middle" x="662" y="-186.62" font-family="Helvetica,sans-Serif" font-size="10.00">ImGui::ShowStackToolWindow</text>
</a>
</g>
</g>
<!-- Node17&#45;&gt;Node18 -->
<g id="edge30_Node000017_Node000018" class="edge">
<title>Node17&#45;&gt;Node18</title>
<g id="a_edge30_Node000017_Node000018"><a xlink:title=" ">
<path fill="none" stroke="#63b8ff" d="M804.23,-242.32C797.36,-240.59 790.51,-238.72 784,-236.75 749.92,-226.42 711.82,-210.94 687.64,-200.6"/>
<polygon fill="#63b8ff" stroke="#63b8ff" points="802.98,-245.62 813.52,-244.57 804.63,-238.81 802.98,-245.62"/>
</a>
</g>
</g>
<!-- Node18&#45;&gt;Node18 -->
<g id="edge31_Node000018_Node000018" class="edge">
<title>Node18&#45;&gt;Node18</title>
<g id="a_edge31_Node000018_Node000018"><a xlink:title=" ">
<path fill="none" stroke="#63b8ff" d="M698.4,-211.61C693.58,-215.45 681.45,-218.12 662,-218.12 626.44,-218.12 615.33,-209.18 628.67,-200.52"/>
<polygon fill="#63b8ff" stroke="#63b8ff" points="701.78,-210.69 695.74,-201.98 695.03,-212.55 701.78,-210.69"/>
</a>
</g>
</g>
<!-- Node19&#45;&gt;Node3 -->
<g id="edge35_Node000019_Node000003" class="edge">
<title>Node19&#45;&gt;Node3</title>
<g id="a_edge35_Node000019_Node000003"><a xlink:title=" ">
<path fill="none" stroke="#63b8ff" d="M1038.83,-248.87C1023.99,-238.66 1006.14,-224.57 993.5,-208.75 970.18,-179.54 985.81,-157.15 957.5,-132.75 951.25,-127.37 943.92,-123.1 936.21,-119.71"/>
<polygon fill="#63b8ff" stroke="#63b8ff" points="1036.53,-251.55 1046.8,-254.16 1040.4,-245.72 1036.53,-251.55"/>
</a>
</g>
</g>
<!-- Node19&#45;&gt;Node12 -->
<g id="edge34_Node000019_Node000012" class="edge">
<title>Node19&#45;&gt;Node12</title>
<g id="a_edge34_Node000019_Node000012"><a xlink:title=" ">
<path fill="none" stroke="#63b8ff" d="M986.58,-277.62C972.69,-279.69 958.3,-281.84 944.6,-283.88"/>
<polygon fill="#63b8ff" stroke="#63b8ff" points="986.72,-281.14 996.1,-276.2 985.69,-274.21 986.72,-281.14"/>
</a>
</g>
</g>
<!-- Node19&#45;&gt;Node17 -->
<g id="edge36_Node000019_Node000017" class="edge">
<title>Node19&#45;&gt;Node17</title>
<g id="a_edge36_Node000019_Node000017"><a xlink:title=" ">
<path fill="none" stroke="#63b8ff" d="M986.25,-261.64C976.84,-261.16 967.2,-260.66 957.71,-260.17"/>
<polygon fill="#63b8ff" stroke="#63b8ff" points="985.92,-265.13 996.08,-262.15 986.28,-258.14 985.92,-265.13"/>
</a>
</g>
</g>
<!-- Node20&#45;&gt;Node16 -->
<g id="edge41_Node000020_Node000016" class="edge">
<title>Node20&#45;&gt;Node16</title>
<g id="a_edge41_Node000020_Node000016"><a xlink:title=" ">
<path fill="none" stroke="#63b8ff" d="M1175.81,-224.53C1104.58,-221.3 996.13,-216.39 929.83,-213.38"/>
<polygon fill="#63b8ff" stroke="#63b8ff" points="1175.26,-228.01 1185.4,-224.97 1175.57,-221.02 1175.26,-228.01"/>
</a>
</g>
</g>
<!-- Node20&#45;&gt;Node19 -->
<g id="edge44_Node000020_Node000019" class="edge">
<title>Node20&#45;&gt;Node19</title>
<g id="a_edge44_Node000020_Node000019"><a xlink:title=" ">
<path fill="none" stroke="#63b8ff" d="M1185.02,-240.88C1163.46,-245.47 1139.53,-250.56 1118.96,-254.94"/>
<polygon fill="#63b8ff" stroke="#63b8ff" points="1185.51,-244.36 1194.56,-238.85 1184.05,-237.51 1185.51,-244.36"/>
</a>
</g>
</g>
<!-- Node21 -->
<g id="Node000021" class="node">
<title>Node21</title>
<g id="a_Node000021"><a xlink:href="structExampleAppPropertyEditor.html#abae0f80dd670280a5a2548f97d69aaa1" target="_top" xlink:title=" ">
<polygon fill="white" stroke="#666666" points="1140.75,-143.5 993.5,-143.5 993.5,-110 1140.75,-110 1140.75,-143.5"/>
<text text-anchor="start" x="1001.5" y="-130" font-family="Helvetica,sans-Serif" font-size="10.00">ExampleAppPropertyEditor</text>
<text text-anchor="middle" x="1067.12" y="-117.25" font-family="Helvetica,sans-Serif" font-size="10.00">::DrawTreeNode</text>
</a>
</g>
</g>
<!-- Node20&#45;&gt;Node21 -->
<g id="edge38_Node000020_Node000021" class="edge">
<title>Node20&#45;&gt;Node21</title>
<g id="a_edge38_Node000020_Node000021"><a xlink:title=" ">
<path fill="none" stroke="#63b8ff" d="M1217.74,-211.35C1184.92,-192.79 1131.7,-162.7 1098.38,-143.85"/>
<polygon fill="#63b8ff" stroke="#63b8ff" points="1215.89,-214.32 1226.32,-216.2 1219.33,-208.23 1215.89,-214.32"/>
</a>
</g>
</g>
<!-- Node22 -->
<g id="Node000022" class="node">
<title>Node22</title>
<g id="a_Node000022"><a xlink:href="namespaceImGui.html#a768f1f8de0f5922c7005c952bb40cdc9" target="_top" xlink:title=" ">
<polygon fill="white" stroke="#666666" points="946.25,-529.5 795.25,-529.5 795.25,-496 946.25,-496 946.25,-529.5"/>
<text text-anchor="start" x="803.25" y="-516" font-family="Helvetica,sans-Serif" font-size="10.00">ImGui::TableAngledHeaders</text>
<text text-anchor="middle" x="870.75" y="-503.25" font-family="Helvetica,sans-Serif" font-size="10.00">RowEx</text>
</a>
</g>
</g>
<!-- Node20&#45;&gt;Node22 -->
<g id="edge42_Node000020_Node000022" class="edge">
<title>Node20&#45;&gt;Node22</title>
<g id="a_edge42_Node000020_Node000022"><a xlink:title=" ">
<path fill="none" stroke="#63b8ff" d="M1232.75,-247.94C1213.78,-274.48 1177.97,-321.72 1140.75,-355.75 1067.81,-422.45 1045.41,-436.58 957.5,-481.75 947.5,-486.89 936.46,-491.56 925.71,-495.63"/>
<polygon fill="#63b8ff" stroke="#63b8ff" points="1235.61,-249.97 1238.51,-239.78 1229.89,-245.94 1235.61,-249.97"/>
</a>
</g>
</g>
<!-- Node24 -->
<g id="Node000024" class="node">
<title>Node24</title>
<g id="a_Node000024"><a xlink:href="namespaceImGui.html#ac9925e8335f55449b1be988829e37ba5" target="_top" xlink:title=" ">
<polygon fill="white" stroke="#666666" points="1135.88,-347.12 998.38,-347.12 998.38,-326.38 1135.88,-326.38 1135.88,-347.12"/>
<text text-anchor="middle" x="1067.12" y="-333.62" font-family="Helvetica,sans-Serif" font-size="10.00">ImGui::TableNextColumn</text>
</a>
</g>
</g>
<!-- Node20&#45;&gt;Node24 -->
<g id="edge45_Node000020_Node000024" class="edge">
<title>Node20&#45;&gt;Node24</title>
<g id="a_edge45_Node000020_Node000024"><a xlink:title=" ">
<path fill="none" stroke="#63b8ff" d="M1219.3,-244.5C1182.19,-267.15 1117.08,-306.88 1085.83,-325.94"/>
<polygon fill="#63b8ff" stroke="#63b8ff" points="1220.96,-247.58 1227.68,-239.39 1217.32,-241.61 1220.96,-247.58"/>
</a>
</g>
</g>
<!-- Node21&#45;&gt;Node13 -->
<g id="edge39_Node000021_Node000013" class="edge">
<title>Node21&#45;&gt;Node13</title>
<g id="a_edge39_Node000021_Node000013"><a xlink:title=" ">
<path fill="none" stroke="#63b8ff" d="M1037.69,-102.62C1016.6,-85.6 986.57,-63.17 957.5,-47.75 947.71,-42.56 936.86,-37.88 926.27,-33.84"/>
<polygon fill="#63b8ff" stroke="#63b8ff" points="1035.31,-105.2 1045.27,-108.82 1039.75,-99.78 1035.31,-105.2"/>
</a>
</g>
</g>
<!-- Node21&#45;&gt;Node21 -->
<g id="edge40_Node000021_Node000021" class="edge">
<title>Node21&#45;&gt;Node21</title>
<g id="a_edge40_Node000021_Node000021"><a xlink:title=" ">
<path fill="none" stroke="#63b8ff" d="M1097.45,-154.89C1092.51,-158.85 1082.4,-161.5 1067.12,-161.5 1039.96,-161.5 1029.14,-153.12 1034.66,-143.91"/>
<polygon fill="#63b8ff" stroke="#63b8ff" points="1100.83,-155.89 1099.3,-145.4 1093.95,-154.54 1100.83,-155.89"/>
</a>
</g>
</g>
<!-- Node23 -->
<g id="Node000023" class="node">
<title>Node23</title>
<g id="a_Node000023"><a xlink:href="namespaceImGui.html#a17eb2b71b2aff472d9d56c838586b73b" target="_top" xlink:title=" ">
<polygon fill="white" stroke="#666666" points="748,-523.12 576,-523.12 576,-502.38 748,-502.38 748,-523.12"/>
<text text-anchor="middle" x="662" y="-509.62" font-family="Helvetica,sans-Serif" font-size="10.00">ImGui::TableAngledHeadersRow</text>
</a>
</g>
</g>
<!-- Node22&#45;&gt;Node23 -->
<g id="edge43_Node000022_Node000023" class="edge">
<title>Node22&#45;&gt;Node23</title>
<g id="a_edge43_Node000022_Node000023"><a xlink:title=" ">
<path fill="none" stroke="#63b8ff" d="M783.32,-512.75C771.7,-512.75 759.79,-512.75 748.2,-512.75"/>
<polygon fill="#63b8ff" stroke="#63b8ff" points="783.3,-516.25 793.3,-512.75 783.3,-509.25 783.3,-516.25"/>
</a>
</g>
</g>
<!-- Node24&#45;&gt;Node6 -->
<g id="edge46_Node000024_Node000006" class="edge">
<title>Node24&#45;&gt;Node6</title>
<g id="a_edge46_Node000024_Node000006"><a xlink:title=" ">
<path fill="none" stroke="#63b8ff" d="M986.76,-340.83C974.74,-341.45 962.35,-342.09 950.35,-342.71"/>
<polygon fill="#63b8ff" stroke="#63b8ff" points="986.82,-344.33 996.63,-340.33 986.46,-337.34 986.82,-344.33"/>
</a>
</g>
</g>
<!-- Node24&#45;&gt;Node10 -->
<g id="edge48_Node000024_Node000010" class="edge">
<title>Node24&#45;&gt;Node10</title>
<g id="a_edge48_Node000024_Node000010"><a xlink:title=" ">
<path fill="none" stroke="#63b8ff" d="M993.22,-352.95C974.51,-364.53 973.77,-374.81 957.5,-383.75 838.2,-449.27 799.11,-467.75 663,-467.75 663,-467.75 663,-467.75 454.12,-467.75 277.15,-467.75 118.75,-276.34 81.92,-228.49"/>
<polygon fill="#63b8ff" stroke="#63b8ff" points="994.76,-356.1 1001.88,-348.26 991.42,-349.95 994.76,-356.1"/>
</a>
</g>
</g>
<!-- Node24&#45;&gt;Node12 -->
<g id="edge47_Node000024_Node000012" class="edge">
<title>Node24&#45;&gt;Node12</title>
<g id="a_edge47_Node000024_Node000012"><a xlink:title=" ">
<path fill="none" stroke="#63b8ff" d="M1004.66,-323.47C977.97,-317.7 947.11,-311.03 921.85,-305.58"/>
<polygon fill="#63b8ff" stroke="#63b8ff" points="1003.82,-326.87 1014.34,-325.56 1005.3,-320.03 1003.82,-326.87"/>
</a>
</g>
</g>
<!-- Node24&#45;&gt;Node17 -->
<g id="edge49_Node000024_Node000017" class="edge">
<title>Node24&#45;&gt;Node17</title>
<g id="a_edge49_Node000024_Node000017"><a xlink:title=" ">
<path fill="none" stroke="#63b8ff" d="M1040.66,-319.71C1019.27,-306.08 987.47,-287.39 957.5,-275.75 948.24,-272.15 938.15,-269.09 928.25,-266.53"/>
<polygon fill="#63b8ff" stroke="#63b8ff" points="1038.71,-322.62 1049,-325.12 1042.52,-316.74 1038.71,-322.62"/>
</a>
</g>
</g>
<!-- Node24&#45;&gt;Node22 -->
<g id="edge50_Node000024_Node000022" class="edge">
<title>Node24&#45;&gt;Node22</title>
<g id="a_edge50_Node000024_Node000022"><a xlink:title=" ">
<path fill="none" stroke="#63b8ff" d="M1051.51,-356.57C1022.59,-395.73 960.6,-479.46 957.5,-481.75 950.12,-487.21 941.68,-491.79 933.05,-495.61"/>
<polygon fill="#63b8ff" stroke="#63b8ff" points="1054.22,-358.78 1057.35,-348.66 1048.59,-354.62 1054.22,-358.78"/>
</a>
</g>
</g>
</g>
</svg>

<g id="navigator" transform="translate(0 0)" fill="#404254">
  <rect fill="#f2f5e9" fill-opacity="0.5" stroke="#606060" stroke-width=".5" x="0" y="0" width="60" height="60"/>
  <use id="zoomplus" xlink:href="#zoomPlus" x="17" y="9" onmousedown="handleZoom(evt,'in')"/>
  <use id="zoomminus" xlink:href="#zoomMin" x="42" y="9" onmousedown="handleZoom(evt,'out')"/>
  <use id="reset" xlink:href="#resetDef" x="30" y="36" onmousedown="handleReset()"/>
   <use id="arrowup" xlink:href="#arrowUp" x="0" y="0" onmousedown="handlePan(0,-1)"/>
  <use id="arrowright" xlink:href="#arrowRight" x="0" y="0" onmousedown="handlePan(1,0)"/>
  <use id="arrowdown" xlink:href="#arrowDown" x="0" y="0" onmousedown="handlePan(0,1)"/>
  <use id="arrowleft" xlink:href="#arrowLeft" x="0" y="0" onmousedown="handlePan(-1,0)"/>
</g>
<svg viewBox="0 0 15 15" width="100%" height="30px" preserveAspectRatio="xMaxYMin meet">
 <g id="arrow_out" transform="scale(0.3 0.3)">
  <a xlink:href="namespaceImGui_a045bb5e3e5947c10260a4889b50e3e35_icgraph_org.svg" target="_base">
   <rect id="button" ry="5" rx="5" y="6" x="6" height="38" width="38"
        fill="#f2f5e9" fill-opacity="0.5" stroke="#606060" stroke-width="1.0"/>
   <path id="arrow"
     d="M 11.500037,31.436501 C 11.940474,20.09759 22.043105,11.32322 32.158766,21.979434 L 37.068811,17.246167 C 37.068811,17.246167 37.088388,32 37.088388,32 L 22.160133,31.978069 C 22.160133,31.978069 26.997745,27.140456 26.997745,27.140456 C 18.528582,18.264221 13.291696,25.230495 11.500037,31.436501 z"
     style="fill:#404040;"/>
  </a>
 </g>
</svg>

<style type='text/css'>
<![CDATA[
[data-mouse-over-selected='false'] { opacity: 0.7; }
[data-mouse-over-selected='true']  { opacity: 1.0; }
]]>
</style>
<script type="application/ecmascript"><![CDATA[
document.addEventListener('DOMContentLoaded', (event) => {
  highlightEdges();
  highlightAdjacentNodes();
});
]]></script>
</svg>
