<?xml version="1.0" encoding="UTF-8" standalone="no"?>
<!DOCTYPE svg PUBLIC "-//W3C//DTD SVG 1.1//EN"
 "http://www.w3.org/Graphics/SVG/1.1/DTD/svg11.dtd">
<!-- Generated by graphviz version 12.0.0 (20240704.0754)
 -->
<!-- Title: ImGui::TableLoadSettings Pages: 1 -->
<!--zoomable 192 -->

<svg id="main" version="1.1" xmlns="http://www.w3.org/2000/svg" xmlns:xlink="http://www.w3.org/1999/xlink" xml:space="preserve" onload="init(evt)">
<style type="text/css"><![CDATA[
.node, .edge {opacity: 0.7;}
.node.selected, .edge.selected {opacity: 1;}
.edge:hover path { stroke: red; }
.edge:hover polygon { stroke: red; fill: red; }
]]></style>

<defs>
  <circle id="rim" cx="0" cy="0" r="7"/>
  <circle id="rim2" cx="0" cy="0" r="3.5"/>
  <g id="zoomPlus">
    <use xlink:href="#rim" fill="#404040"><set attributeName="fill" to="#808080" begin="zoomplus.mouseover" end="zoomplus.mouseout"/></use>
    <path d="M-4,0h8M0,-4v8" fill="none" stroke="white" stroke-width="1.5" pointer-events="none"/>
  </g>
  <g id="zoomMin">
    <use xlink:href="#rim" fill="#404040"><set attributeName="fill" to="#808080" begin="zoomminus.mouseover" end="zoomminus.mouseout"/></use>
    <path d="M-4,0h8" fill="none" stroke="white" stroke-width="1.5" pointer-events="none"/>
  </g>
  <g id="arrowUp" transform="translate(30 24)">
    <use xlink:href="#rim"/>
    <path pointer-events="none" fill="none" stroke="white" stroke-width="1.5" d="M0,-3.0v7 M-2.5,-0.5L0,-3.0L2.5,-0.5"/>
  </g>
  <g id="arrowRight" transform="rotate(90) translate(36 -43)">
    <use xlink:href="#rim"/>
    <path pointer-events="none" fill="none" stroke="white" stroke-width="1.5" d="M0,-3.0v7 M-2.5,-0.5L0,-3.0L2.5,-0.5"/>
  </g>
  <g id="arrowDown" transform="rotate(180) translate(-30 -48)">
    <use xlink:href="#rim"/>
    <path pointer-events="none" fill="none" stroke="white" stroke-width="1.5" d="M0,-3.0v7 M-2.5,-0.5L0,-3.0L2.5,-0.5"/>
  </g>
  <g id="arrowLeft" transform="rotate(270) translate(-36 17)">
    <use xlink:href="#rim"/>
    <path pointer-events="none" fill="none" stroke="white" stroke-width="1.5" d="M0,-3.0v7 M-2.5,-0.5L0,-3.0L2.5,-0.5"/>
  </g>
  <g id="resetDef">
    <use xlink:href="#rim2" fill="#404040"><set attributeName="fill" to="#808080" begin="reset.mouseover" end="reset.mouseout"/></use>
  </g>
</defs>
<script type="application/ecmascript">
var viewWidth = 704;
var viewHeight = 192;
var sectionId = 'dynsection-1227';
</script>
<script type="application/ecmascript" xlink:href="svg.min.js"/>
<svg id="graph" class="graph">
<g id="viewport">
<title>ImGui::TableLoadSettings</title>
<!-- Node1 -->
<g id="Node000001" class="node">
<title>Node1</title>
<g id="a_Node000001"><a xlink:title=" ">
<polygon fill="#999999" stroke="#666666" points="139.75,-113.12 0,-113.12 0,-92.38 139.75,-92.38 139.75,-113.12"/>
<text text-anchor="middle" x="69.88" y="-99.62" font-family="Helvetica,sans-Serif" font-size="10.00">ImGui::TableLoadSettings</text>
</a>
</g>
</g>
<!-- Node2 -->
<g id="Node000002" class="node">
<title>Node2</title>
<g id="a_Node000002"><a xlink:href="structImGuiTableSettings.html#ae26859503d7552a9d4efe351d8f9f7a2" target="_top" xlink:title=" ">
<polygon fill="white" stroke="#666666" points="316.25,-183.5 199.75,-183.5 199.75,-150 316.25,-150 316.25,-183.5"/>
<text text-anchor="start" x="207.75" y="-170" font-family="Helvetica,sans-Serif" font-size="10.00">ImGuiTableSettings</text>
<text text-anchor="middle" x="258" y="-157.25" font-family="Helvetica,sans-Serif" font-size="10.00">::GetColumnSettings</text>
</a>
</g>
</g>
<!-- Node1&#45;&gt;Node2 -->
<g id="edge1_Node000001_Node000002" class="edge">
<title>Node1&#45;&gt;Node2</title>
<g id="a_edge1_Node000001_Node000002"><a xlink:title=" ">
<path fill="none" stroke="#63b8ff" d="M102.45,-113.61C128.05,-122.41 164.9,-135.08 196.2,-145.84"/>
<polygon fill="#63b8ff" stroke="#63b8ff" points="194.98,-149.13 205.58,-149.07 197.26,-142.51 194.98,-149.13"/>
</a>
</g>
</g>
<!-- Node3 -->
<g id="Node000003" class="node">
<title>Node3</title>
<g id="a_Node000003"><a xlink:href="structImChunkStream.html#ab3dccb857d0b35ae295d14ff7f9dd0ac" target="_top" xlink:title=" ">
<polygon fill="white" stroke="#666666" points="504.75,-175.5 376.25,-175.5 376.25,-142 504.75,-142 504.75,-175.5"/>
<text text-anchor="start" x="384.25" y="-162" font-family="Helvetica,sans-Serif" font-size="10.00">ImChunkStream::offset</text>
<text text-anchor="middle" x="440.5" y="-149.25" font-family="Helvetica,sans-Serif" font-size="10.00">_from_ptr</text>
</a>
</g>
</g>
<!-- Node1&#45;&gt;Node3 -->
<g id="edge2_Node000001_Node000003" class="edge">
<title>Node1&#45;&gt;Node3</title>
<g id="a_edge2_Node000001_Node000003"><a xlink:title=" ">
<path fill="none" stroke="#63b8ff" d="M140.19,-111.77C194.66,-119.04 272.41,-129.82 340.25,-140.75 348.15,-142.02 356.4,-143.42 364.62,-144.85"/>
<polygon fill="#63b8ff" stroke="#63b8ff" points="363.82,-148.26 374.27,-146.55 365.03,-141.36 363.82,-148.26"/>
</a>
</g>
</g>
<!-- Node6 -->
<g id="Node000006" class="node">
<title>Node6</title>
<g id="a_Node000006"><a xlink:href="namespaceImGui.html#a4824b64a0052e57fdb17c90331fb39cd" target="_top" xlink:title=" ">
<polygon fill="white" stroke="#666666" points="340.25,-52.12 175.75,-52.12 175.75,-31.38 340.25,-31.38 340.25,-52.12"/>
<text text-anchor="middle" x="258" y="-38.62" font-family="Helvetica,sans-Serif" font-size="10.00">ImGui::TableGetBoundSettings</text>
</a>
</g>
</g>
<!-- Node1&#45;&gt;Node6 -->
<g id="edge5_Node000001_Node000006" class="edge">
<title>Node1&#45;&gt;Node6</title>
<g id="a_edge5_Node000001_Node000006"><a xlink:title=" ">
<path fill="none" stroke="#63b8ff" d="M98.73,-92.04C119.76,-84.11 149.39,-73.24 175.75,-64.75 185.38,-61.65 195.73,-58.54 205.7,-55.67"/>
<polygon fill="#63b8ff" stroke="#63b8ff" points="206.62,-59.04 215.29,-52.94 204.71,-52.31 206.62,-59.04"/>
</a>
</g>
</g>
<!-- Node8 -->
<g id="Node000008" class="node">
<title>Node8</title>
<g id="a_Node000008"><a xlink:href="namespaceImGui.html#a8884e5118f923137c19aee0d84a438c9" target="_top" xlink:title=" ">
<polygon fill="white" stroke="#666666" points="338,-94.12 178,-94.12 178,-73.38 338,-73.38 338,-94.12"/>
<text text-anchor="middle" x="258" y="-80.62" font-family="Helvetica,sans-Serif" font-size="10.00">ImGui::TableSettingsFindByID</text>
</a>
</g>
</g>
<!-- Node1&#45;&gt;Node8 -->
<g id="edge7_Node000001_Node000008" class="edge">
<title>Node1&#45;&gt;Node8</title>
<g id="a_edge7_Node000001_Node000008"><a xlink:title=" ">
<path fill="none" stroke="#63b8ff" d="M140.18,-95.68C148.66,-94.81 157.42,-93.92 166.16,-93.02"/>
<polygon fill="#63b8ff" stroke="#63b8ff" points="166.5,-96.51 176.1,-92.01 165.79,-89.54 166.5,-96.51"/>
</a>
</g>
</g>
<!-- Node4 -->
<g id="Node000004" class="node">
<title>Node4</title>
<g id="a_Node000004"><a xlink:href="structImChunkStream.html#a10a9b29c856b3f84ce8811ebfaf2cfe8" target="_top" xlink:title=" ">
<polygon fill="white" stroke="#666666" points="682,-120.12 554.25,-120.12 554.25,-99.38 682,-99.38 682,-120.12"/>
<text text-anchor="middle" x="618.12" y="-106.62" font-family="Helvetica,sans-Serif" font-size="10.00">ImChunkStream::begin</text>
</a>
</g>
</g>
<!-- Node3&#45;&gt;Node4 -->
<g id="edge3_Node000003_Node000004" class="edge">
<title>Node3&#45;&gt;Node4</title>
<g id="a_edge3_Node000003_Node000004"><a xlink:title=" ">
<path fill="none" stroke="#63b8ff" d="M502.93,-141.61C523.94,-135.75 547.18,-129.26 567.18,-123.68"/>
<polygon fill="#63b8ff" stroke="#63b8ff" points="568.08,-127.07 576.78,-121.01 566.2,-120.32 568.08,-127.07"/>
</a>
</g>
</g>
<!-- Node5 -->
<g id="Node000005" class="node">
<title>Node5</title>
<g id="a_Node000005"><a xlink:href="structImChunkStream.html#a5c7faa90ac7fa02140a3298dbfdd5cad" target="_top" xlink:title=" ">
<polygon fill="white" stroke="#666666" points="677.5,-165.12 558.75,-165.12 558.75,-144.38 677.5,-144.38 677.5,-165.12"/>
<text text-anchor="middle" x="618.12" y="-151.62" font-family="Helvetica,sans-Serif" font-size="10.00">ImChunkStream::end</text>
</a>
</g>
</g>
<!-- Node3&#45;&gt;Node5 -->
<g id="edge4_Node000003_Node000005" class="edge">
<title>Node3&#45;&gt;Node5</title>
<g id="a_edge4_Node000003_Node000005"><a xlink:title=" ">
<path fill="none" stroke="#63b8ff" d="M504.9,-157.31C518.57,-156.99 533.09,-156.66 546.99,-156.35"/>
<polygon fill="#63b8ff" stroke="#63b8ff" points="547.06,-159.85 556.98,-156.12 546.9,-152.85 547.06,-159.85"/>
</a>
</g>
</g>
<!-- Node7 -->
<g id="Node000007" class="node">
<title>Node7</title>
<g id="a_Node000007"><a xlink:href="structImChunkStream.html#a385c84c0a5eca2d402f3550530af587e" target="_top" xlink:title=" ">
<polygon fill="white" stroke="#666666" points="497.62,-33.5 383.38,-33.5 383.38,0 497.62,0 497.62,-33.5"/>
<text text-anchor="start" x="391.38" y="-20" font-family="Helvetica,sans-Serif" font-size="10.00">ImChunkStream::ptr</text>
<text text-anchor="middle" x="440.5" y="-7.25" font-family="Helvetica,sans-Serif" font-size="10.00">_from_offset</text>
</a>
</g>
</g>
<!-- Node6&#45;&gt;Node7 -->
<g id="edge6_Node000006_Node000007" class="edge">
<title>Node6&#45;&gt;Node7</title>
<g id="a_edge6_Node000006_Node000007"><a xlink:title=" ">
<path fill="none" stroke="#63b8ff" d="M337.38,-30.89C348.75,-29.32 360.38,-27.71 371.52,-26.17"/>
<polygon fill="#63b8ff" stroke="#63b8ff" points="372,-29.63 381.42,-24.79 371.04,-22.7 372,-29.63"/>
</a>
</g>
</g>
<!-- Node8&#45;&gt;Node4 -->
<g id="edge8_Node000008_Node000004" class="edge">
<title>Node8&#45;&gt;Node4</title>
<g id="a_edge8_Node000008_Node000004"><a xlink:title=" ">
<path fill="none" stroke="#63b8ff" d="M338.45,-77.24C386.73,-74.65 449.51,-73.74 504.75,-80.75 506.4,-80.96 536.28,-88.68 564.81,-96.1"/>
<polygon fill="#63b8ff" stroke="#63b8ff" points="563.59,-99.4 574.15,-98.53 565.36,-92.62 563.59,-99.4"/>
</a>
</g>
</g>
<!-- Node9 -->
<g id="Node000009" class="node">
<title>Node9</title>
<g id="a_Node000009"><a xlink:href="structImChunkStream.html#a3a99f21ce1867d694104d740ac7ab133" target="_top" xlink:title=" ">
<polygon fill="white" stroke="#666666" points="501.75,-123.5 379.25,-123.5 379.25,-90 501.75,-90 501.75,-123.5"/>
<text text-anchor="start" x="387.25" y="-110" font-family="Helvetica,sans-Serif" font-size="10.00">ImChunkStream::next</text>
<text text-anchor="middle" x="440.5" y="-97.25" font-family="Helvetica,sans-Serif" font-size="10.00">_chunk</text>
</a>
</g>
</g>
<!-- Node8&#45;&gt;Node9 -->
<g id="edge9_Node000008_Node000009" class="edge">
<title>Node8&#45;&gt;Node9</title>
<g id="a_edge9_Node000008_Node000009"><a xlink:title=" ">
<path fill="none" stroke="#63b8ff" d="M338.43,-93.87C348.15,-95.11 358.04,-96.37 367.65,-97.59"/>
<polygon fill="#63b8ff" stroke="#63b8ff" points="366.89,-101.03 377.25,-98.82 367.78,-94.08 366.89,-101.03"/>
</a>
</g>
</g>
<!-- Node9&#45;&gt;Node4 -->
<g id="edge10_Node000009_Node000004" class="edge">
<title>Node9&#45;&gt;Node4</title>
<g id="a_edge10_Node000009_Node000004"><a xlink:title=" ">
<path fill="none" stroke="#63b8ff" d="M501.94,-107.78C515.04,-108.01 529.04,-108.25 542.61,-108.48"/>
<polygon fill="#63b8ff" stroke="#63b8ff" points="542.31,-111.97 552.37,-108.64 542.43,-104.97 542.31,-111.97"/>
</a>
</g>
</g>
<!-- Node9&#45;&gt;Node5 -->
<g id="edge12_Node000009_Node000005" class="edge">
<title>Node9&#45;&gt;Node5</title>
<g id="a_edge12_Node000009_Node000005"><a xlink:title=" ">
<path fill="none" stroke="#63b8ff" d="M501.94,-123.27C523.04,-129.03 546.48,-135.44 566.67,-140.96"/>
<polygon fill="#63b8ff" stroke="#63b8ff" points="565.5,-144.27 576.07,-143.53 567.34,-137.52 565.5,-144.27"/>
</a>
</g>
</g>
<!-- Node10 -->
<g id="Node000010" class="node">
<title>Node10</title>
<g id="a_Node000010"><a xlink:href="structImChunkStream.html#a1a83609aaee47cf8b59a8ae09a04a06b" target="_top" xlink:title=" ">
<polygon fill="white" stroke="#666666" points="695.5,-81.12 540.75,-81.12 540.75,-60.38 695.5,-60.38 695.5,-81.12"/>
<text text-anchor="middle" x="618.12" y="-67.62" font-family="Helvetica,sans-Serif" font-size="10.00">ImChunkStream::chunk_size</text>
</a>
</g>
</g>
<!-- Node9&#45;&gt;Node10 -->
<g id="edge11_Node000009_Node000010" class="edge">
<title>Node9&#45;&gt;Node10</title>
<g id="a_edge11_Node000009_Node000010"><a xlink:title=" ">
<path fill="none" stroke="#63b8ff" d="M501.94,-94.36C518.54,-90.96 536.6,-87.26 553.38,-83.82"/>
<polygon fill="#63b8ff" stroke="#63b8ff" points="553.62,-87.34 562.72,-81.9 552.22,-80.48 553.62,-87.34"/>
</a>
</g>
</g>
</g>
</svg>

<g id="navigator" transform="translate(0 0)" fill="#404254">
  <rect fill="#f2f5e9" fill-opacity="0.5" stroke="#606060" stroke-width=".5" x="0" y="0" width="60" height="60"/>
  <use id="zoomplus" xlink:href="#zoomPlus" x="17" y="9" onmousedown="handleZoom(evt,'in')"/>
  <use id="zoomminus" xlink:href="#zoomMin" x="42" y="9" onmousedown="handleZoom(evt,'out')"/>
  <use id="reset" xlink:href="#resetDef" x="30" y="36" onmousedown="handleReset()"/>
   <use id="arrowup" xlink:href="#arrowUp" x="0" y="0" onmousedown="handlePan(0,-1)"/>
  <use id="arrowright" xlink:href="#arrowRight" x="0" y="0" onmousedown="handlePan(1,0)"/>
  <use id="arrowdown" xlink:href="#arrowDown" x="0" y="0" onmousedown="handlePan(0,1)"/>
  <use id="arrowleft" xlink:href="#arrowLeft" x="0" y="0" onmousedown="handlePan(-1,0)"/>
</g>
<svg viewBox="0 0 15 15" width="100%" height="30px" preserveAspectRatio="xMaxYMin meet">
 <g id="arrow_out" transform="scale(0.3 0.3)">
  <a xlink:href="namespaceImGui_a9dbe18a196cc7e70f84cecfcb3b45c1b_cgraph_org.svg" target="_base">
   <rect id="button" ry="5" rx="5" y="6" x="6" height="38" width="38"
        fill="#f2f5e9" fill-opacity="0.5" stroke="#606060" stroke-width="1.0"/>
   <path id="arrow"
     d="M 11.500037,31.436501 C 11.940474,20.09759 22.043105,11.32322 32.158766,21.979434 L 37.068811,17.246167 C 37.068811,17.246167 37.088388,32 37.088388,32 L 22.160133,31.978069 C 22.160133,31.978069 26.997745,27.140456 26.997745,27.140456 C 18.528582,18.264221 13.291696,25.230495 11.500037,31.436501 z"
     style="fill:#404040;"/>
  </a>
 </g>
</svg>

<style type='text/css'>
<![CDATA[
[data-mouse-over-selected='false'] { opacity: 0.7; }
[data-mouse-over-selected='true']  { opacity: 1.0; }
]]>
</style>
<script type="application/ecmascript"><![CDATA[
document.addEventListener('DOMContentLoaded', (event) => {
  highlightEdges();
  highlightAdjacentNodes();
});
]]></script>
</svg>
