<?xml version="1.0" encoding="UTF-8" standalone="no"?>
<!DOCTYPE svg PUBLIC "-//W3C//DTD SVG 1.1//EN"
 "http://www.w3.org/Graphics/SVG/1.1/DTD/svg11.dtd">
<!-- Generated by graphviz version 12.2.0 (20241103.1931)
 -->
<!-- Title: ImGui::GetMultiSelectState Pages: 1 -->
<svg width="571pt" height="29pt"
 viewBox="0.00 0.00 570.75 28.75" xmlns="http://www.w3.org/2000/svg" xmlns:xlink="http://www.w3.org/1999/xlink">
<g id="graph0" class="graph" transform="scale(1 1) rotate(0) translate(4 24.75)">
<title>ImGui::GetMultiSelectState</title>
<!-- Node1 -->
<g id="Node000001" class="node">
<title>Node1</title>
<g id="a_Node000001"><a xlink:title=" ">
<polygon fill="#999999" stroke="#666666" points="148.75,-20.75 0,-20.75 0,0 148.75,0 148.75,-20.75"/>
<text text-anchor="middle" x="74.38" y="-7.25" font-family="Helvetica,sans-Serif" font-size="10.00">ImGui::GetMultiSelectState</text>
</a>
</g>
</g>
<!-- Node2 -->
<g id="Node000002" class="node">
<title>Node2</title>
<g id="a_Node000002"><a xlink:href="structImPool.html#ae53033af46a5df28084f1d946c9face3" target="_top" xlink:title=" ">
<polygon fill="white" stroke="#666666" points="288.5,-20.75 184.75,-20.75 184.75,0 288.5,0 288.5,-20.75"/>
<text text-anchor="middle" x="236.62" y="-7.25" font-family="Helvetica,sans-Serif" font-size="10.00">ImPool::GetByKey</text>
</a>
</g>
</g>
<!-- Node1&#45;&gt;Node2 -->
<g id="edge1_Node000001_Node000002" class="edge">
<title>Node1&#45;&gt;Node2</title>
<g id="a_edge1_Node000001_Node000002"><a xlink:title=" ">
<path fill="none" stroke="#63b8ff" d="M148.93,-10.38C157,-10.38 165.17,-10.38 173.08,-10.38"/>
<polygon fill="#63b8ff" stroke="#63b8ff" points="172.96,-13.88 182.96,-10.38 172.96,-6.88 172.96,-13.88"/>
</a>
</g>
</g>
<!-- Node3 -->
<g id="Node000003" class="node">
<title>Node3</title>
<g id="a_Node000003"><a xlink:href="structImGuiStorage.html#a9af0043a681938246b80ecd273ce990d" target="_top" xlink:title=" ">
<polygon fill="white" stroke="#666666" points="443.25,-20.75 324.5,-20.75 324.5,0 443.25,0 443.25,-20.75"/>
<text text-anchor="middle" x="383.88" y="-7.25" font-family="Helvetica,sans-Serif" font-size="10.00">ImGuiStorage::GetInt</text>
</a>
</g>
</g>
<!-- Node2&#45;&gt;Node3 -->
<g id="edge2_Node000002_Node000003" class="edge">
<title>Node2&#45;&gt;Node3</title>
<g id="a_edge2_Node000002_Node000003"><a xlink:title=" ">
<path fill="none" stroke="#63b8ff" d="M288.83,-10.38C296.61,-10.38 304.74,-10.38 312.83,-10.38"/>
<polygon fill="#63b8ff" stroke="#63b8ff" points="312.68,-13.88 322.68,-10.38 312.68,-6.88 312.68,-13.88"/>
</a>
</g>
</g>
<!-- Node4 -->
<g id="Node000004" class="node">
<title>Node4</title>
<g id="a_Node000004"><a xlink:href="structImVector.html#a278ca772697b2b2139d3b8add336a249" target="_top" xlink:title=" ">
<polygon fill="white" stroke="#666666" points="562.75,-20.75 479.25,-20.75 479.25,0 562.75,0 562.75,-20.75"/>
<text text-anchor="middle" x="521" y="-7.25" font-family="Helvetica,sans-Serif" font-size="10.00">ImVector::end</text>
</a>
</g>
</g>
<!-- Node3&#45;&gt;Node4 -->
<g id="edge3_Node000003_Node000004" class="edge">
<title>Node3&#45;&gt;Node4</title>
<g id="a_edge3_Node000003_Node000004"><a xlink:title=" ">
<path fill="none" stroke="#63b8ff" d="M443.75,-10.38C451.59,-10.38 459.59,-10.38 467.31,-10.38"/>
<polygon fill="#63b8ff" stroke="#63b8ff" points="467.26,-13.88 477.26,-10.38 467.26,-6.88 467.26,-13.88"/>
</a>
</g>
</g>
</g>
</svg>
