<?xml version="1.0" encoding="UTF-8" standalone="no"?>
<!DOCTYPE svg PUBLIC "-//W3C//DTD SVG 1.1//EN"
 "http://www.w3.org/Graphics/SVG/1.1/DTD/svg11.dtd">
<!-- Generated by graphviz version 12.2.0 (20241103.1931)
 -->
<!-- Title: ImGui::SetWindowFocus Pages: 1 -->
<svg width="1319pt" height="516pt"
 viewBox="0.00 0.00 1318.50 515.75" xmlns="http://www.w3.org/2000/svg" xmlns:xlink="http://www.w3.org/1999/xlink">
<g id="graph0" class="graph" transform="scale(1 1) rotate(0) translate(4 511.75)">
<title>ImGui::SetWindowFocus</title>
<!-- Node1 -->
<g id="Node000001" class="node">
<title>Node1</title>
<g id="a_Node000001"><a xlink:title=" ">
<polygon fill="#999999" stroke="#666666" points="133.75,-244.75 0,-244.75 0,-224 133.75,-224 133.75,-244.75"/>
<text text-anchor="middle" x="66.88" y="-231.25" font-family="Helvetica,sans-Serif" font-size="10.00">ImGui::SetWindowFocus</text>
</a>
</g>
</g>
<!-- Node2 -->
<g id="Node000002" class="node">
<title>Node2</title>
<g id="a_Node000002"><a xlink:href="namespaceImGui.html#a27aa6f2f3aa11778c6d023b1b223f262" target="_top" xlink:title=" ">
<polygon fill="white" stroke="#666666" points="287.75,-244.75 169.75,-244.75 169.75,-224 287.75,-224 287.75,-244.75"/>
<text text-anchor="middle" x="228.75" y="-231.25" font-family="Helvetica,sans-Serif" font-size="10.00">ImGui::FocusWindow</text>
</a>
</g>
</g>
<!-- Node1&#45;&gt;Node2 -->
<g id="edge1_Node000001_Node000002" class="edge">
<title>Node1&#45;&gt;Node2</title>
<g id="a_edge1_Node000001_Node000002"><a xlink:title=" ">
<path fill="none" stroke="#63b8ff" d="M133.83,-234.38C141.83,-234.38 150.04,-234.38 158.1,-234.38"/>
<polygon fill="#63b8ff" stroke="#63b8ff" points="157.85,-237.88 167.85,-234.38 157.85,-230.88 157.85,-237.88"/>
</a>
</g>
</g>
<!-- Node3 -->
<g id="Node000003" class="node">
<title>Node3</title>
<g id="a_Node000003"><a xlink:href="namespaceImGui.html#a8cae2f7a08f820a8d5349d1964603b20" target="_top" xlink:title=" ">
<polygon fill="white" stroke="#666666" points="493.12,-495.12 330.12,-495.12 330.12,-461.62 493.12,-461.62 493.12,-495.12"/>
<text text-anchor="start" x="338.12" y="-481.62" font-family="Helvetica,sans-Serif" font-size="10.00">ImGui::BringWindowToDisplay</text>
<text text-anchor="middle" x="411.62" y="-468.88" font-family="Helvetica,sans-Serif" font-size="10.00">Behind</text>
</a>
</g>
</g>
<!-- Node2&#45;&gt;Node3 -->
<g id="edge2_Node000002_Node000003" class="edge">
<title>Node2&#45;&gt;Node3</title>
<g id="a_edge2_Node000002_Node000003"><a xlink:title=" ">
<path fill="none" stroke="#63b8ff" d="M231.12,-244.83C236.25,-279.74 257.55,-393.46 323.75,-452.38 324.69,-453.21 325.66,-454.02 326.65,-454.81"/>
<polygon fill="#63b8ff" stroke="#63b8ff" points="324.62,-457.66 334.87,-460.34 328.53,-451.85 324.62,-457.66"/>
</a>
</g>
</g>
<!-- Node7 -->
<g id="Node000007" class="node">
<title>Node7</title>
<g id="a_Node000007"><a xlink:href="namespaceImGui.html#a1f7b95f36d03751c928af7b1b745e959" target="_top" xlink:title=" ">
<polygon fill="white" stroke="#666666" points="493.12,-443.12 330.12,-443.12 330.12,-409.62 493.12,-409.62 493.12,-443.12"/>
<text text-anchor="start" x="338.12" y="-429.62" font-family="Helvetica,sans-Serif" font-size="10.00">ImGui::BringWindowToDisplay</text>
<text text-anchor="middle" x="411.62" y="-416.88" font-family="Helvetica,sans-Serif" font-size="10.00">Front</text>
</a>
</g>
</g>
<!-- Node2&#45;&gt;Node7 -->
<g id="edge6_Node000002_Node000007" class="edge">
<title>Node2&#45;&gt;Node7</title>
<g id="a_edge6_Node000002_Node000007"><a xlink:title=" ">
<path fill="none" stroke="#63b8ff" d="M232.74,-245.16C241.5,-274.68 269.89,-357.43 323.75,-400.38 325.06,-401.42 326.41,-402.42 327.79,-403.38"/>
<polygon fill="#63b8ff" stroke="#63b8ff" points="325.71,-406.21 336.09,-408.38 329.33,-400.22 325.71,-406.21"/>
</a>
</g>
</g>
<!-- Node9 -->
<g id="Node000009" class="node">
<title>Node9</title>
<g id="a_Node000009"><a xlink:href="namespaceImGui.html#affe95a2dc969f0d15fbd4b588c94ac1a" target="_top" xlink:title=" ">
<polygon fill="white" stroke="#666666" points="488.62,-391.12 334.62,-391.12 334.62,-357.62 488.62,-357.62 488.62,-391.12"/>
<text text-anchor="start" x="342.62" y="-377.62" font-family="Helvetica,sans-Serif" font-size="10.00">ImGui::BringWindowToFocus</text>
<text text-anchor="middle" x="411.62" y="-364.88" font-family="Helvetica,sans-Serif" font-size="10.00">Front</text>
</a>
</g>
</g>
<!-- Node2&#45;&gt;Node9 -->
<g id="edge8_Node000002_Node000009" class="edge">
<title>Node2&#45;&gt;Node9</title>
<g id="a_edge8_Node000002_Node000009"><a xlink:title=" ">
<path fill="none" stroke="#63b8ff" d="M236.16,-244.97C249.71,-266.5 283.35,-315.68 323.75,-343.38 328.7,-346.77 334.07,-349.84 339.62,-352.6"/>
<polygon fill="#63b8ff" stroke="#63b8ff" points="337.84,-355.63 348.39,-356.61 340.75,-349.27 337.84,-355.63"/>
</a>
</g>
</g>
<!-- Node10 -->
<g id="Node000010" class="node">
<title>Node10</title>
<g id="a_Node000010"><a xlink:href="namespaceImGui.html#a17ff60ad1e2669130ac38a04d16eb354" target="_top" xlink:title=" ">
<polygon fill="white" stroke="#666666" points="470.62,-301.75 352.62,-301.75 352.62,-281 470.62,-281 470.62,-301.75"/>
<text text-anchor="middle" x="411.62" y="-288.25" font-family="Helvetica,sans-Serif" font-size="10.00">ImGui::ClearActiveID</text>
</a>
</g>
</g>
<!-- Node2&#45;&gt;Node10 -->
<g id="edge10_Node000002_Node000010" class="edge">
<title>Node2&#45;&gt;Node10</title>
<g id="a_edge10_Node000002_Node000010"><a xlink:title=" ">
<path fill="none" stroke="#63b8ff" d="M258.79,-245.15C277.28,-251.86 301.8,-260.5 323.75,-267.38 334.95,-270.88 347.05,-274.4 358.56,-277.61"/>
<polygon fill="#63b8ff" stroke="#63b8ff" points="357.33,-280.9 367.9,-280.19 359.19,-274.16 357.33,-280.9"/>
</a>
</g>
</g>
<!-- Node16 -->
<g id="Node000016" class="node">
<title>Node16</title>
<g id="a_Node000016"><a xlink:href="namespaceImGui.html#a0076b153c697cb85e263fcbd59340bce" target="_top" xlink:title=" ">
<polygon fill="white" stroke="#666666" points="499.5,-225.75 323.75,-225.75 323.75,-205 499.5,-205 499.5,-225.75"/>
<text text-anchor="middle" x="411.62" y="-212.25" font-family="Helvetica,sans-Serif" font-size="10.00">ImGui::ClosePopupsOverWindow</text>
</a>
</g>
</g>
<!-- Node2&#45;&gt;Node16 -->
<g id="edge16_Node000002_Node000016" class="edge">
<title>Node2&#45;&gt;Node16</title>
<g id="a_edge16_Node000002_Node000016"><a xlink:title=" ">
<path fill="none" stroke="#63b8ff" d="M287.98,-228.26C295.79,-227.44 303.96,-226.58 312.23,-225.71"/>
<polygon fill="#63b8ff" stroke="#63b8ff" points="312.45,-229.21 322.03,-224.68 311.72,-222.25 312.45,-229.21"/>
</a>
</g>
</g>
<!-- Node21 -->
<g id="Node000021" class="node">
<title>Node21</title>
<g id="a_Node000021"><a xlink:href="namespaceImGui.html#a196705a4195b41a57470ef6553cb440c" target="_top" xlink:title=" ">
<polygon fill="white" stroke="#666666" points="483.38,-186.75 339.88,-186.75 339.88,-166 483.38,-166 483.38,-186.75"/>
<text text-anchor="middle" x="411.62" y="-173.25" font-family="Helvetica,sans-Serif" font-size="10.00">ImGui::FindBlockingModal</text>
</a>
</g>
</g>
<!-- Node2&#45;&gt;Node21 -->
<g id="edge24_Node000002_Node000021" class="edge">
<title>Node2&#45;&gt;Node21</title>
<g id="a_edge24_Node000002_Node000021"><a xlink:title=" ">
<path fill="none" stroke="#63b8ff" d="M253.32,-223.63C272.11,-215.37 299.24,-204.1 323.75,-196.38 330.99,-194.09 338.64,-191.95 346.29,-189.98"/>
<polygon fill="#63b8ff" stroke="#63b8ff" points="347.1,-193.39 355.96,-187.58 345.42,-186.59 347.1,-193.39"/>
</a>
</g>
</g>
<!-- Node22 -->
<g id="Node000022" class="node">
<title>Node22</title>
<g id="a_Node000022"><a xlink:href="namespaceImGui.html#a6b905269b079f5e07755db52cc6e52df" target="_top" xlink:title=" ">
<polygon fill="white" stroke="#666666" points="496.12,-110.75 327.12,-110.75 327.12,-90 496.12,-90 496.12,-110.75"/>
<text text-anchor="middle" x="411.62" y="-97.25" font-family="Helvetica,sans-Serif" font-size="10.00">ImGui::GetTopMostPopupModal</text>
</a>
</g>
</g>
<!-- Node2&#45;&gt;Node22 -->
<g id="edge26_Node000002_Node000022" class="edge">
<title>Node2&#45;&gt;Node22</title>
<g id="a_edge26_Node000002_Node000022"><a xlink:title=" ">
<path fill="none" stroke="#63b8ff" d="M235.77,-223.77C248.84,-201.76 282,-150.94 323.75,-124.38 329.55,-120.68 335.93,-117.55 342.5,-114.89"/>
<polygon fill="#63b8ff" stroke="#63b8ff" points="343.32,-118.32 351.53,-111.62 340.93,-111.74 343.32,-118.32"/>
</a>
</g>
</g>
<!-- Node23 -->
<g id="Node000023" class="node">
<title>Node23</title>
<g id="a_Node000023"><a xlink:href="namespaceImGui.html#ae9ed208c0b64e4919e5de1cb83b2db2a" target="_top" xlink:title=" ">
<polygon fill="white" stroke="#666666" points="488.25,-72.12 335,-72.12 335,-38.62 488.25,-38.62 488.25,-72.12"/>
<text text-anchor="start" x="343" y="-58.62" font-family="Helvetica,sans-Serif" font-size="10.00">ImGui::NavRestoreLastChild</text>
<text text-anchor="middle" x="411.62" y="-45.88" font-family="Helvetica,sans-Serif" font-size="10.00">NavWindow</text>
</a>
</g>
</g>
<!-- Node2&#45;&gt;Node23 -->
<g id="edge27_Node000002_Node000023" class="edge">
<title>Node2&#45;&gt;Node23</title>
<g id="a_edge27_Node000002_Node000023"><a xlink:title=" ">
<path fill="none" stroke="#63b8ff" d="M233.28,-223.62C242.99,-195.73 272.83,-120.51 323.75,-81.38 325.25,-80.22 326.8,-79.12 328.4,-78.06"/>
<polygon fill="#63b8ff" stroke="#63b8ff" points="329.73,-81.34 336.63,-73.3 326.23,-75.28 329.73,-81.34"/>
</a>
</g>
</g>
<!-- Node25 -->
<g id="Node000025" class="node">
<title>Node25</title>
<g id="a_Node000025"><a xlink:href="namespaceImGui.html#ada2736a9b034b93ba877f46577bc5e8b" target="_top" xlink:title=" ">
<polygon fill="white" stroke="#666666" points="916.25,-339.75 772.75,-339.75 772.75,-319 916.25,-319 916.25,-339.75"/>
<text text-anchor="middle" x="844.5" y="-326.25" font-family="Helvetica,sans-Serif" font-size="10.00">ImGui::SetNavFocusScope</text>
</a>
</g>
</g>
<!-- Node2&#45;&gt;Node25 -->
<g id="edge29_Node000002_Node000025" class="edge">
<title>Node2&#45;&gt;Node25</title>
<g id="a_edge29_Node000002_Node000025"><a xlink:title=" ">
<path fill="none" stroke="#63b8ff" d="M238.79,-245.24C254.14,-262.77 287.19,-296.69 323.75,-310.38 471.22,-365.59 658.97,-354.39 763.69,-341.64"/>
<polygon fill="#63b8ff" stroke="#63b8ff" points="763.81,-345.16 773.29,-340.44 762.94,-338.21 763.81,-345.16"/>
</a>
</g>
</g>
<!-- Node27 -->
<g id="Node000027" class="node">
<title>Node27</title>
<g id="a_Node000027"><a xlink:href="namespaceImGui.html#aa422c756f467e650d67b4fb1b74ff5a1" target="_top" xlink:title=" ">
<polygon fill="white" stroke="#666666" points="474.38,-20.75 348.88,-20.75 348.88,0 474.38,0 474.38,-20.75"/>
<text text-anchor="middle" x="411.62" y="-7.25" font-family="Helvetica,sans-Serif" font-size="10.00">ImGui::SetNavWindow</text>
</a>
</g>
</g>
<!-- Node2&#45;&gt;Node27 -->
<g id="edge34_Node000002_Node000027" class="edge">
<title>Node2&#45;&gt;Node27</title>
<g id="a_edge34_Node000002_Node000027"><a xlink:title=" ">
<path fill="none" stroke="#63b8ff" d="M231.24,-223.88C236.65,-189.87 258.5,-81.94 323.75,-29.38 328.03,-25.92 332.81,-23.07 337.85,-20.7"/>
<polygon fill="#63b8ff" stroke="#63b8ff" points="339.08,-23.98 347.11,-17.07 336.52,-17.47 339.08,-23.98"/>
</a>
</g>
</g>
<!-- Node4 -->
<g id="Node000004" class="node">
<title>Node4</title>
<g id="a_Node000004"><a xlink:href="namespaceImGui.html#acc8dfbe9f52370fe2b95f6c948ba113e" target="_top" xlink:title=" ">
<polygon fill="white" stroke="#666666" points="701.88,-495.12 554.62,-495.12 554.62,-461.62 701.88,-461.62 701.88,-495.12"/>
<text text-anchor="start" x="562.62" y="-481.62" font-family="Helvetica,sans-Serif" font-size="10.00">ImGui::FindWindowDisplay</text>
<text text-anchor="middle" x="628.25" y="-468.88" font-family="Helvetica,sans-Serif" font-size="10.00">Index</text>
</a>
</g>
</g>
<!-- Node3&#45;&gt;Node4 -->
<g id="edge3_Node000003_Node000004" class="edge">
<title>Node3&#45;&gt;Node4</title>
<g id="a_edge3_Node000003_Node000004"><a xlink:title=" ">
<path fill="none" stroke="#63b8ff" d="M493.46,-478.38C509.68,-478.38 526.76,-478.38 543.09,-478.38"/>
<polygon fill="#63b8ff" stroke="#63b8ff" points="542.74,-481.88 552.74,-478.38 542.74,-474.88 542.74,-481.88"/>
</a>
</g>
</g>
<!-- Node5 -->
<g id="Node000005" class="node">
<title>Node5</title>
<g id="a_Node000005"><a xlink:href="structImVector.html#a406417c3efef769d4bee47df2188831a" target="_top" xlink:title=" ">
<polygon fill="white" stroke="#666666" points="886.25,-507.75 802.75,-507.75 802.75,-487 886.25,-487 886.25,-507.75"/>
<text text-anchor="middle" x="844.5" y="-494.25" font-family="Helvetica,sans-Serif" font-size="10.00">ImVector::find</text>
</a>
</g>
</g>
<!-- Node4&#45;&gt;Node5 -->
<g id="edge4_Node000004_Node000005" class="edge">
<title>Node4&#45;&gt;Node5</title>
<g id="a_edge4_Node000004_Node000005"><a xlink:title=" ">
<path fill="none" stroke="#63b8ff" d="M702.08,-484.83C731.25,-487.42 764.21,-490.34 790.96,-492.72"/>
<polygon fill="#63b8ff" stroke="#63b8ff" points="790.62,-496.2 800.89,-493.6 791.24,-489.23 790.62,-496.2"/>
</a>
</g>
</g>
<!-- Node6 -->
<g id="Node000006" class="node">
<title>Node6</title>
<g id="a_Node000006"><a xlink:href="structImVector.html#a3fd48379f807eeb01fb9da39afa30dc7" target="_top" xlink:title=" ">
<polygon fill="white" stroke="#666666" points="914.38,-468.75 774.62,-468.75 774.62,-448 914.38,-448 914.38,-468.75"/>
<text text-anchor="middle" x="844.5" y="-455.25" font-family="Helvetica,sans-Serif" font-size="10.00">ImVector::index_from_ptr</text>
</a>
</g>
</g>
<!-- Node4&#45;&gt;Node6 -->
<g id="edge5_Node000004_Node000006" class="edge">
<title>Node4&#45;&gt;Node6</title>
<g id="a_edge5_Node000004_Node000006"><a xlink:title=" ">
<path fill="none" stroke="#63b8ff" d="M702.08,-471.58C721.75,-469.74 743.13,-467.74 763.18,-465.87"/>
<polygon fill="#63b8ff" stroke="#63b8ff" points="763.35,-469.37 772.98,-464.96 762.69,-462.4 763.35,-469.37"/>
</a>
</g>
</g>
<!-- Node8 -->
<g id="Node000008" class="node">
<title>Node8</title>
<g id="a_Node000008"><a xlink:href="structImVector.html#a2d80e87e81b1b01143c8d8be93e6fde1" target="_top" xlink:title=" ">
<polygon fill="white" stroke="#666666" points="672.62,-410.75 583.88,-410.75 583.88,-390 672.62,-390 672.62,-410.75"/>
<text text-anchor="middle" x="628.25" y="-397.25" font-family="Helvetica,sans-Serif" font-size="10.00">ImVector::back</text>
</a>
</g>
</g>
<!-- Node7&#45;&gt;Node8 -->
<g id="edge7_Node000007_Node000008" class="edge">
<title>Node7&#45;&gt;Node8</title>
<g id="a_edge7_Node000007_Node000008"><a xlink:title=" ">
<path fill="none" stroke="#63b8ff" d="M493.46,-416.58C519.7,-413.4 548.2,-409.95 572.13,-407.05"/>
<polygon fill="#63b8ff" stroke="#63b8ff" points="572.46,-410.54 581.97,-405.86 571.62,-403.59 572.46,-410.54"/>
</a>
</g>
</g>
<!-- Node9&#45;&gt;Node8 -->
<g id="edge9_Node000009_Node000008" class="edge">
<title>Node9&#45;&gt;Node8</title>
<g id="a_edge9_Node000009_Node000008"><a xlink:title=" ">
<path fill="none" stroke="#63b8ff" d="M488.9,-383.61C516.38,-386.94 546.83,-390.63 572.15,-393.7"/>
<polygon fill="#63b8ff" stroke="#63b8ff" points="571.54,-397.15 581.89,-394.88 572.39,-390.2 571.54,-397.15"/>
</a>
</g>
</g>
<!-- Node11 -->
<g id="Node000011" class="node">
<title>Node11</title>
<g id="a_Node000011"><a xlink:href="namespaceImGui.html#a27b8ace13a8c421ee8405f0cbebe4ead" target="_top" xlink:title=" ">
<polygon fill="white" stroke="#666666" points="682.38,-301.75 574.12,-301.75 574.12,-281 682.38,-281 682.38,-301.75"/>
<text text-anchor="middle" x="628.25" y="-288.25" font-family="Helvetica,sans-Serif" font-size="10.00">ImGui::SetActiveID</text>
</a>
</g>
</g>
<!-- Node10&#45;&gt;Node11 -->
<g id="edge11_Node000010_Node000011" class="edge">
<title>Node10&#45;&gt;Node11</title>
<g id="a_edge11_Node000010_Node000011"><a xlink:title=" ">
<path fill="none" stroke="#63b8ff" d="M470.99,-291.38C499.26,-291.38 533.3,-291.38 562.39,-291.38"/>
<polygon fill="#63b8ff" stroke="#63b8ff" points="562.17,-294.88 572.17,-291.38 562.17,-287.88 562.17,-294.88"/>
</a>
</g>
</g>
<!-- Node12 -->
<g id="Node000012" class="node">
<title>Node12</title>
<g id="a_Node000012"><a xlink:href="namespaceImGui.html#aad9419cf6e296c668807e3af4bfd62bb" target="_top" xlink:title=" ">
<polygon fill="white" stroke="#666666" points="932,-300.75 757,-300.75 757,-280 932,-280 932,-300.75"/>
<text text-anchor="middle" x="844.5" y="-287.25" font-family="Helvetica,sans-Serif" font-size="10.00">ImGui::InputTextDeactivateHook</text>
</a>
</g>
</g>
<!-- Node11&#45;&gt;Node12 -->
<g id="edge12_Node000011_Node000012" class="edge">
<title>Node11&#45;&gt;Node12</title>
<g id="a_edge12_Node000011_Node000012"><a xlink:title=" ">
<path fill="none" stroke="#63b8ff" d="M682.76,-291.13C701.67,-291.04 723.59,-290.93 745.04,-290.83"/>
<polygon fill="#63b8ff" stroke="#63b8ff" points="745.04,-294.33 755.02,-290.79 745.01,-287.33 745.04,-294.33"/>
</a>
</g>
</g>
<!-- Node13 -->
<g id="Node000013" class="node">
<title>Node13</title>
<g id="a_Node000013"><a xlink:href="structImVector.html#ac371dd62e56ae486b1a5038cf07eee56" target="_top" xlink:title=" ">
<polygon fill="white" stroke="#666666" points="1098,-300.75 1003.25,-300.75 1003.25,-280 1098,-280 1098,-300.75"/>
<text text-anchor="middle" x="1050.62" y="-287.25" font-family="Helvetica,sans-Serif" font-size="10.00">ImVector::resize</text>
</a>
</g>
</g>
<!-- Node12&#45;&gt;Node13 -->
<g id="edge13_Node000012_Node000013" class="edge">
<title>Node12&#45;&gt;Node13</title>
<g id="a_edge13_Node000012_Node000013"><a xlink:title=" ">
<path fill="none" stroke="#63b8ff" d="M932.36,-290.38C952.31,-290.38 973.04,-290.38 991.43,-290.38"/>
<polygon fill="#63b8ff" stroke="#63b8ff" points="991.34,-293.88 1001.34,-290.38 991.34,-286.88 991.34,-293.88"/>
</a>
</g>
</g>
<!-- Node14 -->
<g id="Node000014" class="node">
<title>Node14</title>
<g id="a_Node000014"><a xlink:href="structImVector.html#a3a097635d464b1b70dc7d59996a88b28" target="_top" xlink:title=" ">
<polygon fill="white" stroke="#666666" points="1310.5,-339.75 1169.25,-339.75 1169.25,-319 1310.5,-319 1310.5,-339.75"/>
<text text-anchor="middle" x="1239.88" y="-326.25" font-family="Helvetica,sans-Serif" font-size="10.00">ImVector::_grow_capacity</text>
</a>
</g>
</g>
<!-- Node13&#45;&gt;Node14 -->
<g id="edge14_Node000013_Node000014" class="edge">
<title>Node13&#45;&gt;Node14</title>
<g id="a_edge14_Node000013_Node000014"><a xlink:title=" ">
<path fill="none" stroke="#63b8ff" d="M1098.39,-300.12C1121.79,-304.99 1150.46,-310.96 1175.78,-316.23"/>
<polygon fill="#63b8ff" stroke="#63b8ff" points="1174.78,-319.6 1185.29,-318.21 1176.21,-312.75 1174.78,-319.6"/>
</a>
</g>
</g>
<!-- Node15 -->
<g id="Node000015" class="node">
<title>Node15</title>
<g id="a_Node000015"><a xlink:href="structImVector.html#a0f14f5736c3372157856eebb67123b75" target="_top" xlink:title=" ">
<polygon fill="white" stroke="#666666" points="1291,-300.75 1188.75,-300.75 1188.75,-280 1291,-280 1291,-300.75"/>
<text text-anchor="middle" x="1239.88" y="-287.25" font-family="Helvetica,sans-Serif" font-size="10.00">ImVector::reserve</text>
</a>
</g>
</g>
<!-- Node13&#45;&gt;Node15 -->
<g id="edge15_Node000013_Node000015" class="edge">
<title>Node13&#45;&gt;Node15</title>
<g id="a_edge15_Node000013_Node000015"><a xlink:title=" ">
<path fill="none" stroke="#63b8ff" d="M1098.39,-290.38C1122.16,-290.38 1151.35,-290.38 1176.96,-290.38"/>
<polygon fill="#63b8ff" stroke="#63b8ff" points="1176.93,-293.88 1186.92,-290.38 1176.92,-286.88 1176.93,-293.88"/>
</a>
</g>
</g>
<!-- Node17 -->
<g id="Node000017" class="node">
<title>Node17</title>
<g id="a_Node000017"><a xlink:href="namespaceImGui.html#a0be705dc533a62387dc39ec5c276d2a0" target="_top" xlink:title=" ">
<polygon fill="white" stroke="#666666" points="700.75,-253.75 555.75,-253.75 555.75,-233 700.75,-233 700.75,-253.75"/>
<text text-anchor="middle" x="628.25" y="-240.25" font-family="Helvetica,sans-Serif" font-size="10.00">ImGui::ClosePopupToLevel</text>
</a>
</g>
</g>
<!-- Node16&#45;&gt;Node17 -->
<g id="edge17_Node000016_Node000017" class="edge">
<title>Node16&#45;&gt;Node17</title>
<g id="a_edge17_Node000016_Node000017"><a xlink:title=" ">
<path fill="none" stroke="#63b8ff" d="M495.91,-226.24C511.75,-228.31 528.32,-230.47 544.15,-232.53"/>
<polygon fill="#63b8ff" stroke="#63b8ff" points="543.65,-236 554.02,-233.82 544.55,-229.06 543.65,-236"/>
</a>
</g>
</g>
<!-- Node20 -->
<g id="Node000020" class="node">
<title>Node20</title>
<g id="a_Node000020"><a xlink:href="namespaceImGui.html#a48de6990762aa67d7da5c3264b92d44f" target="_top" xlink:title=" ">
<polygon fill="white" stroke="#666666" points="707.12,-203.12 549.38,-203.12 549.38,-169.62 707.12,-169.62 707.12,-203.12"/>
<text text-anchor="start" x="557.38" y="-189.62" font-family="Helvetica,sans-Serif" font-size="10.00">ImGui::IsWindowWithinBegin</text>
<text text-anchor="middle" x="628.25" y="-176.88" font-family="Helvetica,sans-Serif" font-size="10.00">StackOf</text>
</a>
</g>
</g>
<!-- Node16&#45;&gt;Node20 -->
<g id="edge23_Node000016_Node000020" class="edge">
<title>Node16&#45;&gt;Node20</title>
<g id="a_edge23_Node000016_Node000020"><a xlink:title=" ">
<path fill="none" stroke="#63b8ff" d="M492.85,-204.54C507.46,-202.56 522.79,-200.49 537.65,-198.48"/>
<polygon fill="#63b8ff" stroke="#63b8ff" points="537.96,-201.97 547.41,-197.16 537.03,-195.03 537.96,-201.97"/>
</a>
</g>
</g>
<!-- Node17&#45;&gt;Node2 -->
<g id="edge21_Node000017_Node000002" class="edge">
<title>Node17&#45;&gt;Node2</title>
<g id="a_edge21_Node000017_Node000002"><a xlink:title=" ">
<path fill="none" stroke="#63b8ff" d="M555.4,-241.75C482.67,-240.1 370.98,-237.57 299.15,-235.95"/>
<polygon fill="#63b8ff" stroke="#63b8ff" points="299.57,-232.45 289.49,-235.73 299.41,-239.45 299.57,-232.45"/>
</a>
</g>
</g>
<!-- Node17&#45;&gt;Node13 -->
<g id="edge22_Node000017_Node000013" class="edge">
<title>Node17&#45;&gt;Node13</title>
<g id="a_edge22_Node000017_Node000013"><a xlink:title=" ">
<path fill="none" stroke="#63b8ff" d="M700.97,-248.63C762.41,-253.46 853.19,-261.38 932,-271.38 951.46,-273.84 972.65,-277.09 991.62,-280.2"/>
<polygon fill="#63b8ff" stroke="#63b8ff" points="990.86,-283.63 1001.3,-281.81 992.01,-276.72 990.86,-283.63"/>
</a>
</g>
</g>
<!-- Node18 -->
<g id="Node000018" class="node">
<title>Node18</title>
<g id="a_Node000018"><a xlink:href="namespaceImGui.html#aa97e87e96c05eb3e91aa96fa68b13a2a" target="_top" xlink:title=" ">
<polygon fill="white" stroke="#666666" points="923.75,-184.12 765.25,-184.12 765.25,-150.62 923.75,-150.62 923.75,-184.12"/>
<text text-anchor="start" x="773.25" y="-170.62" font-family="Helvetica,sans-Serif" font-size="10.00">ImGui::FocusTopMostWindow</text>
<text text-anchor="middle" x="844.5" y="-157.88" font-family="Helvetica,sans-Serif" font-size="10.00">UnderOne</text>
</a>
</g>
</g>
<!-- Node17&#45;&gt;Node18 -->
<g id="edge18_Node000017_Node000018" class="edge">
<title>Node17&#45;&gt;Node18</title>
<g id="a_edge18_Node000017_Node000018"><a xlink:title=" ">
<path fill="none" stroke="#63b8ff" d="M662.02,-232.54C679.55,-226.68 701.5,-219.25 721,-212.38 742.65,-204.74 766.36,-196.1 787.1,-188.44"/>
<polygon fill="#63b8ff" stroke="#63b8ff" points="788.06,-191.82 796.23,-185.07 785.63,-185.25 788.06,-191.82"/>
</a>
</g>
</g>
<!-- Node18&#45;&gt;Node2 -->
<g id="edge20_Node000018_Node000002" class="edge">
<title>Node18&#45;&gt;Node2</title>
<g id="a_edge20_Node000018_Node000002"><a xlink:title=" ">
<path fill="none" stroke="#63b8ff" d="M770.72,-150.19C667.75,-129.35 475.24,-103.25 323.75,-157.38 291.83,-168.78 262.94,-196.21 245.86,-215.05"/>
<polygon fill="#63b8ff" stroke="#63b8ff" points="243.41,-212.53 239.46,-222.36 248.68,-217.14 243.41,-212.53"/>
</a>
</g>
</g>
<!-- Node19 -->
<g id="Node000019" class="node">
<title>Node19</title>
<g id="a_Node000019"><a xlink:href="namespaceImGui.html#a861004d5a1476e954abd68d6f9deaa06" target="_top" xlink:title=" ">
<polygon fill="white" stroke="#666666" points="1133.25,-177.75 968,-177.75 968,-157 1133.25,-157 1133.25,-177.75"/>
<text text-anchor="middle" x="1050.62" y="-164.25" font-family="Helvetica,sans-Serif" font-size="10.00">ImGui::FindWindowFocusIndex</text>
</a>
</g>
</g>
<!-- Node18&#45;&gt;Node19 -->
<g id="edge19_Node000018_Node000019" class="edge">
<title>Node18&#45;&gt;Node19</title>
<g id="a_edge19_Node000018_Node000019"><a xlink:title=" ">
<path fill="none" stroke="#63b8ff" d="M924.13,-167.38C934.71,-167.38 945.66,-167.38 956.46,-167.38"/>
<polygon fill="#63b8ff" stroke="#63b8ff" points="956.14,-170.88 966.14,-167.38 956.14,-163.88 956.14,-170.88"/>
</a>
</g>
</g>
<!-- Node21&#45;&gt;Node20 -->
<g id="edge25_Node000021_Node000020" class="edge">
<title>Node21&#45;&gt;Node20</title>
<g id="a_edge25_Node000021_Node000020"><a xlink:title=" ">
<path fill="none" stroke="#63b8ff" d="M483.79,-179.69C500.99,-180.49 519.59,-181.36 537.52,-182.19"/>
<polygon fill="#63b8ff" stroke="#63b8ff" points="537.21,-185.68 547.37,-182.65 537.54,-178.69 537.21,-185.68"/>
</a>
</g>
</g>
<!-- Node24 -->
<g id="Node000024" class="node">
<title>Node24</title>
<g id="a_Node000024"><a xlink:href="namespaceImGui.html#a5e1bfc506e7bd0f71ec85d8c69672d3d" target="_top" xlink:title=" ">
<polygon fill="white" stroke="#666666" points="713.88,-72.12 542.62,-72.12 542.62,-38.62 713.88,-38.62 713.88,-72.12"/>
<text text-anchor="start" x="550.62" y="-58.62" font-family="Helvetica,sans-Serif" font-size="10.00">ImGui::TabBarFindMostRecently</text>
<text text-anchor="middle" x="628.25" y="-45.88" font-family="Helvetica,sans-Serif" font-size="10.00">SelectedTabForActiveWindow</text>
</a>
</g>
</g>
<!-- Node23&#45;&gt;Node24 -->
<g id="edge28_Node000023_Node000024" class="edge">
<title>Node23&#45;&gt;Node24</title>
<g id="a_edge28_Node000023_Node000024"><a xlink:title=" ">
<path fill="none" stroke="#63b8ff" d="M488.6,-55.38C502.3,-55.38 516.75,-55.38 530.94,-55.38"/>
<polygon fill="#63b8ff" stroke="#63b8ff" points="530.73,-58.88 540.73,-55.38 530.73,-51.88 530.73,-58.88"/>
</a>
</g>
</g>
<!-- Node25&#45;&gt;Node13 -->
<g id="edge33_Node000025_Node000013" class="edge">
<title>Node25&#45;&gt;Node13</title>
<g id="a_edge33_Node000025_Node000013"><a xlink:title=" ">
<path fill="none" stroke="#63b8ff" d="M902.36,-318.51C930.25,-313.18 963.78,-306.78 991.8,-301.42"/>
<polygon fill="#63b8ff" stroke="#63b8ff" points="992.39,-304.87 1001.55,-299.56 991.07,-298 992.39,-304.87"/>
</a>
</g>
</g>
<!-- Node26 -->
<g id="Node000026" class="node">
<title>Node26</title>
<g id="a_Node000026"><a xlink:href="structImVector.html#aab5df48e0711a48bd12f3206e08c4108" target="_top" xlink:title=" ">
<polygon fill="white" stroke="#666666" points="1109.25,-339.75 992,-339.75 992,-319 1109.25,-319 1109.25,-339.75"/>
<text text-anchor="middle" x="1050.62" y="-326.25" font-family="Helvetica,sans-Serif" font-size="10.00">ImVector::push_back</text>
</a>
</g>
</g>
<!-- Node25&#45;&gt;Node26 -->
<g id="edge30_Node000025_Node000026" class="edge">
<title>Node25&#45;&gt;Node26</title>
<g id="a_edge30_Node000025_Node000026"><a xlink:title=" ">
<path fill="none" stroke="#63b8ff" d="M916.61,-329.38C937.19,-329.38 959.63,-329.38 980.11,-329.38"/>
<polygon fill="#63b8ff" stroke="#63b8ff" points="980.08,-332.88 990.08,-329.38 980.08,-325.88 980.08,-332.88"/>
</a>
</g>
</g>
<!-- Node26&#45;&gt;Node14 -->
<g id="edge31_Node000026_Node000014" class="edge">
<title>Node26&#45;&gt;Node14</title>
<g id="a_edge31_Node000026_Node000014"><a xlink:title=" ">
<path fill="none" stroke="#63b8ff" d="M1109.59,-329.38C1124.86,-329.38 1141.62,-329.38 1157.87,-329.38"/>
<polygon fill="#63b8ff" stroke="#63b8ff" points="1157.49,-332.88 1167.49,-329.38 1157.49,-325.88 1157.49,-332.88"/>
</a>
</g>
</g>
<!-- Node26&#45;&gt;Node15 -->
<g id="edge32_Node000026_Node000015" class="edge">
<title>Node26&#45;&gt;Node15</title>
<g id="a_edge32_Node000026_Node000015"><a xlink:title=" ">
<path fill="none" stroke="#63b8ff" d="M1103.78,-318.51C1126.58,-313.76 1153.48,-308.16 1177.26,-303.21"/>
<polygon fill="#63b8ff" stroke="#63b8ff" points="1177.73,-306.69 1186.81,-301.22 1176.3,-299.83 1177.73,-306.69"/>
</a>
</g>
</g>
<!-- Node28 -->
<g id="Node000028" class="node">
<title>Node28</title>
<g id="a_Node000028"><a xlink:href="namespaceImGui.html#a2cd868535661cdb5671214662f3c9388" target="_top" xlink:title=" ">
<polygon fill="white" stroke="#666666" points="721,-20.75 535.5,-20.75 535.5,0 721,0 721,-20.75"/>
<text text-anchor="middle" x="628.25" y="-7.25" font-family="Helvetica,sans-Serif" font-size="10.00">ImGui::NavUpdateAnyRequestFlag</text>
</a>
</g>
</g>
<!-- Node27&#45;&gt;Node28 -->
<g id="edge35_Node000027_Node000028" class="edge">
<title>Node27&#45;&gt;Node28</title>
<g id="a_edge35_Node000027_Node000028"><a xlink:title=" ">
<path fill="none" stroke="#63b8ff" d="M474.7,-10.38C490.24,-10.38 507.33,-10.38 524.27,-10.38"/>
<polygon fill="#63b8ff" stroke="#63b8ff" points="523.85,-13.88 533.85,-10.38 523.85,-6.88 523.85,-13.88"/>
</a>
</g>
</g>
</g>
</svg>
