<?xml version="1.0" encoding="UTF-8" standalone="no"?>
<!DOCTYPE svg PUBLIC "-//W3C//DTD SVG 1.1//EN"
 "http://www.w3.org/Graphics/SVG/1.1/DTD/svg11.dtd">
<!-- Generated by graphviz version 12.2.1 (20241206.2353)
 -->
<!-- Title: ImGui::PopClipRect Pages: 1 -->
<svg width="693pt" height="107pt"
 viewBox="0.00 0.00 693.00 106.75" xmlns="http://www.w3.org/2000/svg" xmlns:xlink="http://www.w3.org/1999/xlink">
<g id="graph0" class="graph" transform="scale(1 1) rotate(0) translate(4 102.75)">
<title>ImGui::PopClipRect</title>
<!-- Node1 -->
<g id="Node000001" class="node">
<title>Node1</title>
<g id="a_Node000001"><a xlink:title=" ">
<polygon fill="#999999" stroke="#666666" points="109.75,-59.75 0,-59.75 0,-39 109.75,-39 109.75,-59.75"/>
<text text-anchor="middle" x="54.88" y="-46.25" font-family="Helvetica,sans-Serif" font-size="10.00">ImGui::PopClipRect</text>
</a>
</g>
</g>
<!-- Node2 -->
<g id="Node000002" class="node">
<title>Node2</title>
<g id="a_Node000002"><a xlink:href="structImVector.html#a2d80e87e81b1b01143c8d8be93e6fde1" target="_top" xlink:title=" ">
<polygon fill="white" stroke="#666666" points="261.88,-98.75 173.12,-98.75 173.12,-78 261.88,-78 261.88,-98.75"/>
<text text-anchor="middle" x="217.5" y="-85.25" font-family="Helvetica,sans-Serif" font-size="10.00">ImVector::back</text>
</a>
</g>
</g>
<!-- Node1&#45;&gt;Node2 -->
<g id="edge1_Node000001_Node000002" class="edge">
<title>Node1&#45;&gt;Node2</title>
<g id="a_edge1_Node000001_Node000002"><a xlink:title=" ">
<path fill="none" stroke="#63b8ff" d="M100.62,-60.24C119.56,-64.84 141.82,-70.24 161.73,-75.08"/>
<polygon fill="#63b8ff" stroke="#63b8ff" points="160.81,-78.46 171.36,-77.41 162.47,-71.65 160.81,-78.46"/>
</a>
</g>
</g>
<!-- Node3 -->
<g id="Node000003" class="node">
<title>Node3</title>
<g id="a_Node000003"><a xlink:href="namespaceImGui.html#ac452417b5004ca16a814a72cff153526" target="_top" xlink:title=" ">
<polygon fill="white" stroke="#666666" points="289.25,-59.75 145.75,-59.75 145.75,-39 289.25,-39 289.25,-59.75"/>
<text text-anchor="middle" x="217.5" y="-46.25" font-family="Helvetica,sans-Serif" font-size="10.00">ImGui::GetCurrentWindow</text>
</a>
</g>
</g>
<!-- Node1&#45;&gt;Node3 -->
<g id="edge2_Node000001_Node000003" class="edge">
<title>Node1&#45;&gt;Node3</title>
<g id="a_edge2_Node000001_Node000003"><a xlink:title=" ">
<path fill="none" stroke="#63b8ff" d="M109.81,-49.38C117.55,-49.38 125.66,-49.38 133.81,-49.38"/>
<polygon fill="#63b8ff" stroke="#63b8ff" points="133.79,-52.88 143.79,-49.38 133.79,-45.88 133.79,-52.88"/>
</a>
</g>
</g>
<!-- Node4 -->
<g id="Node000004" class="node">
<title>Node4</title>
<g id="a_Node000004"><a xlink:href="structImDrawList.html#a44f40c59ca755f559020f5a7fa81103a" target="_top" xlink:title=" ">
<polygon fill="white" stroke="#666666" points="285.5,-20.75 149.5,-20.75 149.5,0 285.5,0 285.5,-20.75"/>
<text text-anchor="middle" x="217.5" y="-7.25" font-family="Helvetica,sans-Serif" font-size="10.00">ImDrawList::PopClipRect</text>
</a>
</g>
</g>
<!-- Node1&#45;&gt;Node4 -->
<g id="edge3_Node000001_Node000004" class="edge">
<title>Node1&#45;&gt;Node4</title>
<g id="a_edge3_Node000001_Node000004"><a xlink:title=" ">
<path fill="none" stroke="#63b8ff" d="M100.62,-38.51C119.25,-33.99 141.08,-28.69 160.75,-23.91"/>
<polygon fill="#63b8ff" stroke="#63b8ff" points="161.36,-27.37 170.25,-21.61 159.7,-20.56 161.36,-27.37"/>
</a>
</g>
</g>
<!-- Node5 -->
<g id="Node000005" class="node">
<title>Node5</title>
<g id="a_Node000005"><a xlink:href="structImDrawList.html#a8e51ddbe1f9732bc271ce807bec23f54" target="_top" xlink:title=" ">
<polygon fill="white" stroke="#666666" points="504.75,-20.75 325.25,-20.75 325.25,0 504.75,0 504.75,-20.75"/>
<text text-anchor="middle" x="415" y="-7.25" font-family="Helvetica,sans-Serif" font-size="10.00">ImDrawList::_OnChangedClipRect</text>
</a>
</g>
</g>
<!-- Node4&#45;&gt;Node5 -->
<g id="edge4_Node000004_Node000005" class="edge">
<title>Node4&#45;&gt;Node5</title>
<g id="a_edge4_Node000004_Node000005"><a xlink:title=" ">
<path fill="none" stroke="#63b8ff" d="M285.78,-10.38C294.73,-10.38 304.06,-10.38 313.43,-10.38"/>
<polygon fill="#63b8ff" stroke="#63b8ff" points="313.33,-13.88 323.33,-10.38 313.33,-6.88 313.33,-13.88"/>
</a>
</g>
</g>
<!-- Node6 -->
<g id="Node000006" class="node">
<title>Node6</title>
<g id="a_Node000006"><a xlink:href="structImDrawList.html#a846714bb0321c6f1f908767abc8559e6" target="_top" xlink:title=" ">
<polygon fill="white" stroke="#666666" points="685,-20.75 540.75,-20.75 540.75,0 685,0 685,-20.75"/>
<text text-anchor="middle" x="612.88" y="-7.25" font-family="Helvetica,sans-Serif" font-size="10.00">ImDrawList::AddDrawCmd</text>
</a>
</g>
</g>
<!-- Node5&#45;&gt;Node6 -->
<g id="edge5_Node000005_Node000006" class="edge">
<title>Node5&#45;&gt;Node6</title>
<g id="a_edge5_Node000005_Node000006"><a xlink:title=" ">
<path fill="none" stroke="#63b8ff" d="M505.05,-10.38C513,-10.38 521.02,-10.38 528.91,-10.38"/>
<polygon fill="#63b8ff" stroke="#63b8ff" points="528.84,-13.88 538.84,-10.38 528.84,-6.88 528.84,-13.88"/>
</a>
</g>
</g>
</g>
</svg>
