<?xml version="1.0" encoding="UTF-8" standalone="no"?>
<!DOCTYPE svg PUBLIC "-//W3C//DTD SVG 1.1//EN"
 "http://www.w3.org/Graphics/SVG/1.1/DTD/svg11.dtd">
<!-- Generated by graphviz version 11.0.0 (20240428.1522)
 -->
<!-- Title: steppable::__internals::numUtils::determineScale Pages: 1 -->
<svg width="897pt" height="406pt"
 viewBox="0.00 0.00 897.25 405.50" xmlns="http://www.w3.org/2000/svg" xmlns:xlink="http://www.w3.org/1999/xlink">
<g id="graph0" class="graph" transform="scale(1 1) rotate(0) translate(4 401.5)">
<title>steppable::__internals::numUtils::determineScale</title>
<!-- Node1 -->
<g id="Node000001" class="node">
<title>Node1</title>
<g id="a_Node000001"><a xlink:title="Determines the scale of a number, i.e., the power of 10 when it is expressed in scientific notation.">
<polygon fill="#999999" stroke="#666666" points="889.25,-293.5 740.5,-293.5 740.5,-260 889.25,-260 889.25,-293.5"/>
<text text-anchor="start" x="748.5" y="-280" font-family="Helvetica,sans-Serif" font-size="10.00">steppable::__internals</text>
<text text-anchor="middle" x="814.88" y="-267.25" font-family="Helvetica,sans-Serif" font-size="10.00">::numUtils::determineScale</text>
</a>
</g>
</g>
<!-- Node2 -->
<g id="Node000002" class="node">
<title>Node2</title>
<g id="a_Node000002"><a xlink:href="namespacesteppable_1_1____internals_1_1arithmetic.html#aa150ef39a272f7228ae239679247fab3" target="_top" xlink:title="Determines the scale of the quotient of division.">
<polygon fill="white" stroke="#666666" points="704.5,-293.5 519,-293.5 519,-260 704.5,-260 704.5,-293.5"/>
<text text-anchor="start" x="527" y="-280" font-family="Helvetica,sans-Serif" font-size="10.00">steppable::__internals</text>
<text text-anchor="middle" x="611.75" y="-267.25" font-family="Helvetica,sans-Serif" font-size="10.00">::arithmetic::determineResultScale</text>
</a>
</g>
</g>
<!-- Node1&#45;&gt;Node2 -->
<g id="edge1_Node000001_Node000002" class="edge">
<title>Node1&#45;&gt;Node2</title>
<g id="a_edge1_Node000001_Node000002"><a xlink:title=" ">
<path fill="none" stroke="#63b8ff" d="M728.73,-276.75C720.87,-276.75 712.89,-276.75 704.98,-276.75"/>
<polygon fill="#63b8ff" stroke="#63b8ff" points="728.61,-280.25 738.61,-276.75 728.61,-273.25 728.61,-280.25"/>
</a>
</g>
</g>
<!-- Node3 -->
<g id="Node000003" class="node">
<title>Node3</title>
<g id="a_Node000003"><a xlink:href="namespacesteppable_1_1____internals_1_1arithmetic.html#a26194ae8ddb44afb942fbf8335ae1730" target="_top" xlink:title="Divides a string representation of a number by another string representation of a number.">
<polygon fill="white" stroke="#666666" points="483,-293.5 359.75,-293.5 359.75,-260 483,-260 483,-293.5"/>
<text text-anchor="start" x="367.75" y="-280" font-family="Helvetica,sans-Serif" font-size="10.00">steppable::__internals</text>
<text text-anchor="middle" x="421.38" y="-267.25" font-family="Helvetica,sans-Serif" font-size="10.00">::arithmetic::divide</text>
</a>
</g>
</g>
<!-- Node2&#45;&gt;Node3 -->
<g id="edge2_Node000002_Node000003" class="edge">
<title>Node2&#45;&gt;Node3</title>
<g id="a_edge2_Node000002_Node000003"><a xlink:title=" ">
<path fill="none" stroke="#63b8ff" d="M507.48,-276.75C499.23,-276.75 491.08,-276.75 483.27,-276.75"/>
<polygon fill="#63b8ff" stroke="#63b8ff" points="507.26,-280.25 517.26,-276.75 507.26,-273.25 507.26,-280.25"/>
</a>
</g>
</g>
<!-- Node4 -->
<g id="Node000004" class="node">
<title>Node4</title>
<g id="a_Node000004"><a xlink:href="namespacesteppable_1_1____internals_1_1arithmetic.html#a5b80b731e3e2c0d16dcbe5d52b08ffd5" target="_top" xlink:title="Converts a string representation of a number from decimal to another one.">
<polygon fill="white" stroke="#666666" points="307.25,-397.5 167.5,-397.5 167.5,-364 307.25,-364 307.25,-397.5"/>
<text text-anchor="start" x="175.5" y="-384" font-family="Helvetica,sans-Serif" font-size="10.00">steppable::__internals</text>
<text text-anchor="middle" x="237.38" y="-371.25" font-family="Helvetica,sans-Serif" font-size="10.00">::arithmetic::baseConvert</text>
</a>
</g>
</g>
<!-- Node3&#45;&gt;Node4 -->
<g id="edge3_Node000003_Node000004" class="edge">
<title>Node3&#45;&gt;Node4</title>
<g id="a_edge3_Node000003_Node000004"><a xlink:title=" ">
<path fill="none" stroke="#63b8ff" d="M395.2,-301.63C376.76,-318.66 350.39,-340.63 323.75,-354.75 317.59,-358.02 310.96,-360.94 304.21,-363.53"/>
<polygon fill="#63b8ff" stroke="#63b8ff" points="397.36,-304.4 402.24,-295 392.56,-299.31 397.36,-304.4"/>
</a>
</g>
</g>
<!-- Node5 -->
<g id="Node000005" class="node">
<title>Node5</title>
<g id="a_Node000005"><a xlink:href="namespacesteppable_1_1____internals_1_1arithmetic.html#ac9102075acd398b3bdf388f6cc2ef978" target="_top" xlink:title=" ">
<polygon fill="white" stroke="#666666" points="323.75,-345.5 151,-345.5 151,-312 323.75,-312 323.75,-345.5"/>
<text text-anchor="start" x="159" y="-332" font-family="Helvetica,sans-Serif" font-size="10.00">steppable::__internals</text>
<text text-anchor="middle" x="237.38" y="-319.25" font-family="Helvetica,sans-Serif" font-size="10.00">::arithmetic::divideWithQuotient</text>
</a>
</g>
</g>
<!-- Node3&#45;&gt;Node5 -->
<g id="edge4_Node000003_Node000005" class="edge">
<title>Node3&#45;&gt;Node5</title>
<g id="a_edge4_Node000003_Node000005"><a xlink:title=" ">
<path fill="none" stroke="#63b8ff" d="M349.18,-297.09C332.44,-301.87 314.76,-306.92 298.56,-311.55"/>
<polygon fill="#63b8ff" stroke="#63b8ff" points="349.92,-300.52 358.57,-294.41 347.99,-293.79 349.92,-300.52"/>
</a>
</g>
</g>
<!-- Node7 -->
<g id="Node000007" class="node">
<title>Node7</title>
<g id="a_Node000007"><a xlink:href="classsteppable_1_1Number.html#aebdaf5d342a2a897793556bd390bc184" target="_top" xlink:title="Divides two numbers.">
<polygon fill="white" stroke="#666666" points="294.88,-293.5 179.88,-293.5 179.88,-260 294.88,-260 294.88,-293.5"/>
<text text-anchor="start" x="187.88" y="-280" font-family="Helvetica,sans-Serif" font-size="10.00">steppable::Number::</text>
<text text-anchor="middle" x="237.38" y="-267.25" font-family="Helvetica,sans-Serif" font-size="10.00">operator/</text>
</a>
</g>
</g>
<!-- Node3&#45;&gt;Node7 -->
<g id="edge6_Node000003_Node000007" class="edge">
<title>Node3&#45;&gt;Node7</title>
<g id="a_edge6_Node000003_Node000007"><a xlink:title=" ">
<path fill="none" stroke="#63b8ff" d="M347.94,-276.75C330.44,-276.75 312,-276.75 295.33,-276.75"/>
<polygon fill="#63b8ff" stroke="#63b8ff" points="347.75,-280.25 357.75,-276.75 347.75,-273.25 347.75,-280.25"/>
</a>
</g>
</g>
<!-- Node8 -->
<g id="Node000008" class="node">
<title>Node8</title>
<g id="a_Node000008"><a xlink:href="namespacesteppable_1_1____internals_1_1arithmetic.html#a8c20a75a55d968bd679a1a550a46a497" target="_top" xlink:title="Takes the n&#45;th root of a numer.">
<polygon fill="white" stroke="#666666" points="299,-241.5 175.75,-241.5 175.75,-208 299,-208 299,-241.5"/>
<text text-anchor="start" x="183.75" y="-228" font-family="Helvetica,sans-Serif" font-size="10.00">steppable::__internals</text>
<text text-anchor="middle" x="237.38" y="-215.25" font-family="Helvetica,sans-Serif" font-size="10.00">::arithmetic::root</text>
</a>
</g>
</g>
<!-- Node3&#45;&gt;Node8 -->
<g id="edge7_Node000003_Node000008" class="edge">
<title>Node3&#45;&gt;Node8</title>
<g id="a_edge7_Node000003_Node000008"><a xlink:title=" ">
<path fill="none" stroke="#63b8ff" d="M349.18,-256.41C332.44,-251.63 314.76,-246.58 298.56,-241.95"/>
<polygon fill="#63b8ff" stroke="#63b8ff" points="347.99,-259.71 358.57,-259.09 349.92,-252.98 347.99,-259.71"/>
</a>
</g>
</g>
<!-- Node9 -->
<g id="Node000009" class="node">
<title>Node9</title>
<g id="a_Node000009"><a xlink:href="classsteppable_1_1Fraction.html#a9cf64d847c268d9334775c572ef75dfa" target="_top" xlink:title="Simplifies a fraction. This function simplifies the fraction by dividing the top and bottom component...">
<polygon fill="white" stroke="#666666" points="291.88,-189.5 182.88,-189.5 182.88,-156 291.88,-156 291.88,-189.5"/>
<text text-anchor="start" x="190.88" y="-176" font-family="Helvetica,sans-Serif" font-size="10.00">steppable::Fraction</text>
<text text-anchor="middle" x="237.38" y="-163.25" font-family="Helvetica,sans-Serif" font-size="10.00">::simplify</text>
</a>
</g>
</g>
<!-- Node3&#45;&gt;Node9 -->
<g id="edge8_Node000003_Node000009" class="edge">
<title>Node3&#45;&gt;Node9</title>
<g id="a_edge8_Node000003_Node000009"><a xlink:title=" ">
<path fill="none" stroke="#63b8ff" d="M395.2,-251.87C376.76,-234.84 350.39,-212.87 323.75,-198.75 313.89,-193.53 302.83,-189.18 292.01,-185.64"/>
<polygon fill="#63b8ff" stroke="#63b8ff" points="392.56,-254.19 402.24,-258.5 397.36,-249.1 392.56,-254.19"/>
</a>
</g>
</g>
<!-- Node6 -->
<g id="Node000006" class="node">
<title>Node6</title>
<g id="a_Node000006"><a xlink:href="classsteppable_1_1Number.html#a719a8a93fcfe91b30c38ba0830d6de50" target="_top" xlink:title="Calculates the remainder of two numbers. (Modulus)">
<polygon fill="white" stroke="#666666" points="115,-345.5 0,-345.5 0,-312 115,-312 115,-345.5"/>
<text text-anchor="start" x="8" y="-332" font-family="Helvetica,sans-Serif" font-size="10.00">steppable::Number::</text>
<text text-anchor="middle" x="57.5" y="-319.25" font-family="Helvetica,sans-Serif" font-size="10.00">operator%</text>
</a>
</g>
</g>
<!-- Node5&#45;&gt;Node6 -->
<g id="edge5_Node000005_Node000006" class="edge">
<title>Node5&#45;&gt;Node6</title>
<g id="a_edge5_Node000005_Node000006"><a xlink:title=" ">
<path fill="none" stroke="#63b8ff" d="M139.13,-328.75C131.06,-328.75 123.09,-328.75 115.48,-328.75"/>
<polygon fill="#63b8ff" stroke="#63b8ff" points="139.05,-332.25 149.05,-328.75 139.05,-325.25 139.05,-332.25"/>
</a>
</g>
</g>
<!-- Node10 -->
<g id="Node000010" class="node">
<title>Node10</title>
<g id="a_Node000010"><a xlink:href="classsteppable_1_1Fraction.html#a21eef8107e9cd1e590f7595c4ecbe147" target="_top" xlink:title="Multiplies two fractions together and stores the result in the current one. This function does it by ...">
<polygon fill="white" stroke="#666666" points="112,-293.5 3,-293.5 3,-260 112,-260 112,-293.5"/>
<text text-anchor="start" x="11" y="-280" font-family="Helvetica,sans-Serif" font-size="10.00">steppable::Fraction</text>
<text text-anchor="middle" x="57.5" y="-267.25" font-family="Helvetica,sans-Serif" font-size="10.00">::operator*=</text>
</a>
</g>
</g>
<!-- Node9&#45;&gt;Node10 -->
<g id="edge9_Node000009_Node000010" class="edge">
<title>Node9&#45;&gt;Node10</title>
<g id="a_edge9_Node000009_Node000010"><a xlink:title=" ">
<path fill="none" stroke="#63b8ff" d="M172.08,-187.11C164.6,-190.26 157.38,-194.09 151,-198.75 128.29,-215.32 136.53,-232.68 115,-250.75 111.11,-254.01 106.75,-256.95 102.21,-259.58"/>
<polygon fill="#63b8ff" stroke="#63b8ff" points="173.22,-190.42 181.35,-183.62 170.76,-183.87 173.22,-190.42"/>
</a>
</g>
</g>
<!-- Node11 -->
<g id="Node000011" class="node">
<title>Node11</title>
<g id="a_Node000011"><a xlink:href="classsteppable_1_1Fraction.html#ab10a5f43f6e60253ab6f4a097c73cf6e" target="_top" xlink:title="Adds two fractions together and stores the result in the current one. This function does it by doing ...">
<polygon fill="white" stroke="#666666" points="112,-241.5 3,-241.5 3,-208 112,-208 112,-241.5"/>
<text text-anchor="start" x="11" y="-228" font-family="Helvetica,sans-Serif" font-size="10.00">steppable::Fraction</text>
<text text-anchor="middle" x="57.5" y="-215.25" font-family="Helvetica,sans-Serif" font-size="10.00">::operator+=</text>
</a>
</g>
</g>
<!-- Node9&#45;&gt;Node11 -->
<g id="edge10_Node000009_Node000011" class="edge">
<title>Node9&#45;&gt;Node11</title>
<g id="a_edge10_Node000009_Node000011"><a xlink:title=" ">
<path fill="none" stroke="#63b8ff" d="M171.62,-191.68C152.21,-197.36 131.12,-203.52 112.47,-208.97"/>
<polygon fill="#63b8ff" stroke="#63b8ff" points="172.46,-195.08 181.07,-188.92 170.49,-188.36 172.46,-195.08"/>
</a>
</g>
</g>
<!-- Node12 -->
<g id="Node000012" class="node">
<title>Node12</title>
<g id="a_Node000012"><a xlink:href="classsteppable_1_1Fraction.html#aad3d96fbba7e7a0fa36c3f69f0463b8b" target="_top" xlink:title="Subtracts a fraction from another fraction and stores the result in the current one....">
<polygon fill="white" stroke="#666666" points="112,-189.5 3,-189.5 3,-156 112,-156 112,-189.5"/>
<text text-anchor="start" x="11" y="-176" font-family="Helvetica,sans-Serif" font-size="10.00">steppable::Fraction</text>
<text text-anchor="middle" x="57.5" y="-163.25" font-family="Helvetica,sans-Serif" font-size="10.00">::operator&#45;=</text>
</a>
</g>
</g>
<!-- Node9&#45;&gt;Node12 -->
<g id="edge11_Node000009_Node000012" class="edge">
<title>Node9&#45;&gt;Node12</title>
<g id="a_edge11_Node000009_Node000012"><a xlink:title=" ">
<path fill="none" stroke="#63b8ff" d="M171.08,-172.75C151.81,-172.75 130.95,-172.75 112.47,-172.75"/>
<polygon fill="#63b8ff" stroke="#63b8ff" points="171.01,-176.25 181.01,-172.75 171.01,-169.25 171.01,-176.25"/>
</a>
</g>
</g>
<!-- Node13 -->
<g id="Node000013" class="node">
<title>Node13</title>
<g id="a_Node000013"><a xlink:href="classsteppable_1_1Fraction.html#a86913160c5f596b74be3007bd16bda6b" target="_top" xlink:title="Divides a fraction by abother fraction and stores the result in the current one. This function does i...">
<polygon fill="white" stroke="#666666" points="112,-137.5 3,-137.5 3,-104 112,-104 112,-137.5"/>
<text text-anchor="start" x="11" y="-124" font-family="Helvetica,sans-Serif" font-size="10.00">steppable::Fraction</text>
<text text-anchor="middle" x="57.5" y="-111.25" font-family="Helvetica,sans-Serif" font-size="10.00">::operator/=</text>
</a>
</g>
</g>
<!-- Node9&#45;&gt;Node13 -->
<g id="edge12_Node000009_Node000013" class="edge">
<title>Node9&#45;&gt;Node13</title>
<g id="a_edge12_Node000009_Node000013"><a xlink:title=" ">
<path fill="none" stroke="#63b8ff" d="M171.62,-153.82C152.21,-148.14 131.12,-141.98 112.47,-136.53"/>
<polygon fill="#63b8ff" stroke="#63b8ff" points="170.49,-157.14 181.07,-156.58 172.46,-150.42 170.49,-157.14"/>
</a>
</g>
</g>
<!-- Node14 -->
<g id="Node000014" class="node">
<title>Node14</title>
<g id="a_Node000014"><a xlink:href="classsteppable_1_1Fraction.html#ac0a3d392ac70f42f74392fe08c1ab8be" target="_top" xlink:title="Raises the fraction to a power and stores the result in the current one.">
<polygon fill="white" stroke="#666666" points="112,-85.5 3,-85.5 3,-52 112,-52 112,-85.5"/>
<text text-anchor="start" x="11" y="-72" font-family="Helvetica,sans-Serif" font-size="10.00">steppable::Fraction</text>
<text text-anchor="middle" x="57.5" y="-59.25" font-family="Helvetica,sans-Serif" font-size="10.00">::operator^=</text>
</a>
</g>
</g>
<!-- Node9&#45;&gt;Node14 -->
<g id="edge13_Node000009_Node000014" class="edge">
<title>Node9&#45;&gt;Node14</title>
<g id="a_edge13_Node000009_Node000014"><a xlink:title=" ">
<path fill="none" stroke="#63b8ff" d="M202.56,-149.2C178.63,-133 145.5,-111.46 115,-94.75 109.51,-91.74 103.6,-88.76 97.76,-85.95"/>
<polygon fill="#63b8ff" stroke="#63b8ff" points="200.41,-151.97 210.64,-154.72 204.35,-146.19 200.41,-151.97"/>
</a>
</g>
</g>
<!-- Node15 -->
<g id="Node000015" class="node">
<title>Node15</title>
<g id="a_Node000015"><a xlink:href="classsteppable_1_1Fraction.html#a9a892820854af33b0eabc6b6ec43b389" target="_top" xlink:title="Returns the fraction as a string. The string is formatted as &quot;top/bottom&quot;, and it will automatically ...">
<polygon fill="white" stroke="#666666" points="112,-33.5 3,-33.5 3,0 112,0 112,-33.5"/>
<text text-anchor="start" x="11" y="-20" font-family="Helvetica,sans-Serif" font-size="10.00">steppable::Fraction</text>
<text text-anchor="middle" x="57.5" y="-7.25" font-family="Helvetica,sans-Serif" font-size="10.00">::present</text>
</a>
</g>
</g>
<!-- Node9&#45;&gt;Node15 -->
<g id="edge14_Node000009_Node000015" class="edge">
<title>Node9&#45;&gt;Node15</title>
<g id="a_edge14_Node000009_Node000015"><a xlink:title=" ">
<path fill="none" stroke="#63b8ff" d="M217.05,-146.62C194.93,-118.13 156.38,-72.64 115,-42.75 110.54,-39.53 105.61,-36.55 100.58,-33.86"/>
<polygon fill="#63b8ff" stroke="#63b8ff" points="214.13,-148.56 222.98,-154.38 219.69,-144.31 214.13,-148.56"/>
</a>
</g>
</g>
</g>
</svg>
