<?xml version="1.0" encoding="UTF-8" standalone="no"?>
<!DOCTYPE svg PUBLIC "-//W3C//DTD SVG 1.1//EN"
 "http://www.w3.org/Graphics/SVG/1.1/DTD/svg11.dtd">
<!-- Generated by graphviz version 12.2.0 (20241103.1931)
 -->
<!-- Title: ImGui::IsMouseDown Pages: 1 -->
<svg width="686pt" height="96pt"
 viewBox="0.00 0.00 686.25 96.12" xmlns="http://www.w3.org/2000/svg" xmlns:xlink="http://www.w3.org/1999/xlink">
<g id="graph0" class="graph" transform="scale(1 1) rotate(0) translate(4 92.12)">
<title>ImGui::IsMouseDown</title>
<!-- Node1 -->
<g id="Node000001" class="node">
<title>Node1</title>
<g id="a_Node000001"><a xlink:title=" ">
<polygon fill="#999999" stroke="#666666" points="119.5,-58.75 0,-58.75 0,-38 119.5,-38 119.5,-58.75"/>
<text text-anchor="middle" x="59.75" y="-45.25" font-family="Helvetica,sans-Serif" font-size="10.00">ImGui::IsMouseDown</text>
</a>
</g>
</g>
<!-- Node2 -->
<g id="Node000002" class="node">
<title>Node2</title>
<g id="a_Node000002"><a xlink:href="namespaceImGui.html#a25689086f813c9714c4bbd4e3d5e669c" target="_top" xlink:title=" ">
<polygon fill="white" stroke="#666666" points="299.75,-78.75 155.5,-78.75 155.5,-58 299.75,-58 299.75,-78.75"/>
<text text-anchor="middle" x="227.62" y="-65.25" font-family="Helvetica,sans-Serif" font-size="10.00">ImGui::MouseButtonToKey</text>
</a>
</g>
</g>
<!-- Node1&#45;&gt;Node2 -->
<g id="edge1_Node000001_Node000002" class="edge">
<title>Node1&#45;&gt;Node2</title>
<g id="a_edge1_Node000001_Node000002"><a xlink:title=" ">
<path fill="none" stroke="#63b8ff" d="M119.7,-55.48C127.48,-56.42 135.58,-57.4 143.67,-58.37"/>
<polygon fill="#63b8ff" stroke="#63b8ff" points="143.23,-61.85 153.58,-59.57 144.07,-54.9 143.23,-61.85"/>
</a>
</g>
</g>
<!-- Node3 -->
<g id="Node000003" class="node">
<title>Node3</title>
<g id="a_Node000003"><a xlink:href="namespaceImGui.html#ad12c5be2f1c691e4e6656524248824fb" target="_top" xlink:title=" ">
<polygon fill="white" stroke="#666666" points="287.75,-39.75 167.5,-39.75 167.5,-19 287.75,-19 287.75,-39.75"/>
<text text-anchor="middle" x="227.62" y="-26.25" font-family="Helvetica,sans-Serif" font-size="10.00">ImGui::TestKeyOwner</text>
</a>
</g>
</g>
<!-- Node1&#45;&gt;Node3 -->
<g id="edge2_Node000001_Node000003" class="edge">
<title>Node1&#45;&gt;Node3</title>
<g id="a_edge2_Node000001_Node000003"><a xlink:title=" ">
<path fill="none" stroke="#63b8ff" d="M119.7,-41.62C131.34,-40.29 143.68,-38.88 155.67,-37.5"/>
<polygon fill="#63b8ff" stroke="#63b8ff" points="155.99,-40.99 165.52,-36.37 155.19,-34.03 155.99,-40.99"/>
</a>
</g>
</g>
<!-- Node4 -->
<g id="Node000004" class="node">
<title>Node4</title>
<g id="a_Node000004"><a xlink:href="namespaceImGui.html#a05ada04953ac91c563334fb0fe934e03" target="_top" xlink:title=" ">
<polygon fill="white" stroke="#666666" points="478.88,-59.75 337.62,-59.75 337.62,-39 478.88,-39 478.88,-59.75"/>
<text text-anchor="middle" x="408.25" y="-46.25" font-family="Helvetica,sans-Serif" font-size="10.00">ImGui::GetKeyOwnerData</text>
</a>
</g>
</g>
<!-- Node3&#45;&gt;Node4 -->
<g id="edge3_Node000003_Node000004" class="edge">
<title>Node3&#45;&gt;Node4</title>
<g id="a_edge3_Node000003_Node000004"><a xlink:title=" ">
<path fill="none" stroke="#63b8ff" d="M288.1,-36.03C300.27,-37.4 313.27,-38.85 326.05,-40.28"/>
<polygon fill="#63b8ff" stroke="#63b8ff" points="325.36,-43.73 335.69,-41.36 326.14,-36.77 325.36,-43.73"/>
</a>
</g>
</g>
<!-- Node7 -->
<g id="Node000007" class="node">
<title>Node7</title>
<g id="a_Node000007"><a xlink:href="namespaceImGui.html#ad97807fb804a4d11866e5bca7d08d59c" target="_top" xlink:title=" ">
<polygon fill="white" stroke="#666666" points="480.75,-20.75 335.75,-20.75 335.75,0 480.75,0 480.75,-20.75"/>
<text text-anchor="middle" x="408.25" y="-7.25" font-family="Helvetica,sans-Serif" font-size="10.00">ImGui::IsNamedKeyOrMod</text>
</a>
</g>
</g>
<!-- Node3&#45;&gt;Node7 -->
<g id="edge6_Node000003_Node000007" class="edge">
<title>Node3&#45;&gt;Node7</title>
<g id="a_edge6_Node000003_Node000007"><a xlink:title=" ">
<path fill="none" stroke="#63b8ff" d="M288.1,-23.05C299.68,-21.82 312.02,-20.5 324.19,-19.21"/>
<polygon fill="#63b8ff" stroke="#63b8ff" points="324.23,-22.73 333.8,-18.19 323.49,-15.77 324.23,-22.73"/>
</a>
</g>
</g>
<!-- Node5 -->
<g id="Node000005" class="node">
<title>Node5</title>
<g id="a_Node000005"><a xlink:href="namespaceImGui.html#ad540a8f07e5834f77f76a84626cdc70e" target="_top" xlink:title=" ">
<polygon fill="white" stroke="#666666" points="678.25,-88.12 516.75,-88.12 516.75,-54.62 678.25,-54.62 678.25,-88.12"/>
<text text-anchor="start" x="524.75" y="-74.62" font-family="Helvetica,sans-Serif" font-size="10.00">ImGui::ConvertSingleModFlag</text>
<text text-anchor="middle" x="597.5" y="-61.88" font-family="Helvetica,sans-Serif" font-size="10.00">ToKey</text>
</a>
</g>
</g>
<!-- Node4&#45;&gt;Node5 -->
<g id="edge4_Node000004_Node000005" class="edge">
<title>Node4&#45;&gt;Node5</title>
<g id="a_edge4_Node000004_Node000005"><a xlink:title=" ">
<path fill="none" stroke="#63b8ff" d="M479.24,-57.6C487.69,-58.59 496.42,-59.62 505.12,-60.64"/>
<polygon fill="#63b8ff" stroke="#63b8ff" points="504.67,-64.11 515.01,-61.8 505.49,-57.16 504.67,-64.11"/>
</a>
</g>
</g>
<!-- Node6 -->
<g id="Node000006" class="node">
<title>Node6</title>
<g id="a_Node000006"><a xlink:href="namespaceImGui.html#a1e6a2ce7696a25d0dd0cf318e3b48a33" target="_top" xlink:title=" ">
<polygon fill="white" stroke="#666666" points="653.88,-36.75 541.12,-36.75 541.12,-16 653.88,-16 653.88,-36.75"/>
<text text-anchor="middle" x="597.5" y="-23.25" font-family="Helvetica,sans-Serif" font-size="10.00">ImGui::IsNamedKey</text>
</a>
</g>
</g>
<!-- Node4&#45;&gt;Node6 -->
<g id="edge5_Node000004_Node000006" class="edge">
<title>Node4&#45;&gt;Node6</title>
<g id="a_edge5_Node000004_Node000006"><a xlink:title=" ">
<path fill="none" stroke="#63b8ff" d="M479.24,-40.78C495.78,-38.75 513.38,-36.58 529.77,-34.57"/>
<polygon fill="#63b8ff" stroke="#63b8ff" points="529.9,-38.08 539.4,-33.39 529.05,-31.13 529.9,-38.08"/>
</a>
</g>
</g>
</g>
</svg>
