<?xml version="1.0" encoding="UTF-8" standalone="no"?>
<!DOCTYPE svg PUBLIC "-//W3C//DTD SVG 1.1//EN"
 "http://www.w3.org/Graphics/SVG/1.1/DTD/svg11.dtd">
<!-- Generated by graphviz version 12.0.0 (20240704.0754)
 -->
<!-- Title: ImGui::IsWindowHovered Pages: 1 -->
<svg width="536pt" height="80pt"
 viewBox="0.00 0.00 536.00 80.12" xmlns="http://www.w3.org/2000/svg" xmlns:xlink="http://www.w3.org/1999/xlink">
<g id="graph0" class="graph" transform="scale(1 1) rotate(0) translate(4 76.12)">
<title>ImGui::IsWindowHovered</title>
<!-- Node1 -->
<g id="Node000001" class="node">
<title>Node1</title>
<g id="a_Node000001"><a xlink:title=" ">
<polygon fill="#999999" stroke="#666666" points="528,-49.12 388.25,-49.12 388.25,-28.38 528,-28.38 528,-49.12"/>
<text text-anchor="middle" x="458.12" y="-35.62" font-family="Helvetica,sans-Serif" font-size="10.00">ImGui::IsWindowHovered</text>
</a>
</g>
</g>
<!-- Node2 -->
<g id="Node000002" class="node">
<title>Node2</title>
<g id="a_Node000002"><a xlink:href="namespaceImGui.html#a6758a456204101a9c4a660da4cfba2c9" target="_top" xlink:title=" ">
<polygon fill="white" stroke="#666666" points="352.25,-72.12 184,-72.12 184,-51.38 352.25,-51.38 352.25,-72.12"/>
<text text-anchor="middle" x="268.12" y="-58.62" font-family="Helvetica,sans-Serif" font-size="10.00">ImGui::BeginPopupContextVoid</text>
</a>
</g>
</g>
<!-- Node1&#45;&gt;Node2 -->
<g id="edge1_Node000001_Node000002" class="edge">
<title>Node1&#45;&gt;Node2</title>
<g id="a_edge1_Node000001_Node000002"><a xlink:title=" ">
<path fill="none" stroke="#63b8ff" d="M376.72,-48.59C368.71,-49.57 360.57,-50.56 352.53,-51.55"/>
<polygon fill="#63b8ff" stroke="#63b8ff" points="376.92,-52.09 386.42,-47.4 376.07,-45.14 376.92,-52.09"/>
</a>
</g>
</g>
<!-- Node3 -->
<g id="Node000003" class="node">
<title>Node3</title>
<g id="a_Node000003"><a xlink:href="namespaceImGui.html#aef8b2c0baa27bd5c68f676aaf14ed946" target="_top" xlink:title=" ">
<polygon fill="white" stroke="#666666" points="341.75,-33.5 194.5,-33.5 194.5,0 341.75,0 341.75,-33.5"/>
<text text-anchor="start" x="202.5" y="-20" font-family="Helvetica,sans-Serif" font-size="10.00">ImGui::BeginPopupContext</text>
<text text-anchor="middle" x="268.12" y="-7.25" font-family="Helvetica,sans-Serif" font-size="10.00">Window</text>
</a>
</g>
</g>
<!-- Node1&#45;&gt;Node3 -->
<g id="edge2_Node000001_Node000003" class="edge">
<title>Node1&#45;&gt;Node3</title>
<g id="a_edge2_Node000001_Node000003"><a xlink:title=" ">
<path fill="none" stroke="#63b8ff" d="M376.55,-29.32C365.06,-27.98 353.3,-26.6 341.97,-25.27"/>
<polygon fill="#63b8ff" stroke="#63b8ff" points="376.08,-32.79 386.42,-30.48 376.89,-25.84 376.08,-32.79"/>
</a>
</g>
</g>
<!-- Node4 -->
<g id="Node000004" class="node">
<title>Node4</title>
<g id="a_Node000004"><a xlink:href="structExampleAppConsole.html#a0518a09c7e8648dd52c7c06df19ac17a" target="_top" xlink:title=" ">
<polygon fill="white" stroke="#666666" points="148,-27.12 0,-27.12 0,-6.38 148,-6.38 148,-27.12"/>
<text text-anchor="middle" x="74" y="-13.62" font-family="Helvetica,sans-Serif" font-size="10.00">ExampleAppConsole::Draw</text>
</a>
</g>
</g>
<!-- Node3&#45;&gt;Node4 -->
<g id="edge3_Node000003_Node000004" class="edge">
<title>Node3&#45;&gt;Node4</title>
<g id="a_edge3_Node000003_Node000004"><a xlink:title=" ">
<path fill="none" stroke="#63b8ff" d="M182.87,-16.75C171.42,-16.75 159.74,-16.75 148.5,-16.75"/>
<polygon fill="#63b8ff" stroke="#63b8ff" points="182.7,-20.25 192.7,-16.75 182.7,-13.25 182.7,-20.25"/>
</a>
</g>
</g>
</g>
</svg>
