<?xml version="1.0" encoding="UTF-8" standalone="no"?>
<!DOCTYPE svg PUBLIC "-//W3C//DTD SVG 1.1//EN"
 "http://www.w3.org/Graphics/SVG/1.1/DTD/svg11.dtd">
<!-- Generated by graphviz version 12.2.1 (20241206.2353)
 -->
<!-- Title: ImGui::SetItemDefaultFocus Pages: 1 -->
<svg width="575pt" height="269pt"
 viewBox="0.00 0.00 575.00 268.75" xmlns="http://www.w3.org/2000/svg" xmlns:xlink="http://www.w3.org/1999/xlink">
<g id="graph0" class="graph" transform="scale(1 1) rotate(0) translate(4 264.75)">
<title>ImGui::SetItemDefaultFocus</title>
<!-- Node1 -->
<g id="Node000001" class="node">
<title>Node1</title>
<g id="a_Node000001"><a xlink:title=" ">
<polygon fill="#999999" stroke="#666666" points="153.25,-201.75 0,-201.75 0,-181 153.25,-181 153.25,-201.75"/>
<text text-anchor="middle" x="76.62" y="-188.25" font-family="Helvetica,sans-Serif" font-size="10.00">ImGui::SetItemDefaultFocus</text>
</a>
</g>
</g>
<!-- Node2 -->
<g id="Node000002" class="node">
<title>Node2</title>
<g id="a_Node000002"><a xlink:href="structImRect.html#ac583156fd0e9306181fff5d120b262ea" target="_top" xlink:title=" ">
<polygon fill="white" stroke="#666666" points="331.62,-260.75 232.38,-260.75 232.38,-240 331.62,-240 331.62,-260.75"/>
<text text-anchor="middle" x="282" y="-247.25" font-family="Helvetica,sans-Serif" font-size="10.00">ImRect::Contains</text>
</a>
</g>
</g>
<!-- Node1&#45;&gt;Node2 -->
<g id="edge1_Node000001_Node000002" class="edge">
<title>Node1&#45;&gt;Node2</title>
<g id="a_edge1_Node000001_Node000002"><a xlink:title=" ">
<path fill="none" stroke="#63b8ff" d="M105.31,-202.1C127.72,-210.53 160.21,-222.17 189.25,-230.38 199.5,-233.27 210.49,-235.99 221.17,-238.44"/>
<polygon fill="#63b8ff" stroke="#63b8ff" points="220.16,-241.79 230.68,-240.55 221.68,-234.96 220.16,-241.79"/>
</a>
</g>
</g>
<!-- Node3 -->
<g id="Node000003" class="node">
<title>Node3</title>
<g id="a_Node000003"><a xlink:href="namespaceImGui.html#afc3f5b074b158526cfe8531de843aa5f" target="_top" xlink:title=" ">
<polygon fill="white" stroke="#666666" points="363.12,-221.75 200.88,-221.75 200.88,-201 363.12,-201 363.12,-221.75"/>
<text text-anchor="middle" x="282" y="-208.25" font-family="Helvetica,sans-Serif" font-size="10.00">ImGui::NavApplyItemToResult</text>
</a>
</g>
</g>
<!-- Node1&#45;&gt;Node3 -->
<g id="edge2_Node000001_Node000003" class="edge">
<title>Node1&#45;&gt;Node3</title>
<g id="a_edge2_Node000001_Node000003"><a xlink:title=" ">
<path fill="none" stroke="#63b8ff" d="M153.64,-198.85C165.27,-199.99 177.38,-201.18 189.3,-202.36"/>
<polygon fill="#63b8ff" stroke="#63b8ff" points="188.85,-205.83 199.15,-203.33 189.54,-198.86 188.85,-205.83"/>
</a>
</g>
</g>
<!-- Node5 -->
<g id="Node000005" class="node">
<title>Node5</title>
<g id="a_Node000005"><a xlink:href="namespaceImGui.html#a2cd868535661cdb5671214662f3c9388" target="_top" xlink:title=" ">
<polygon fill="white" stroke="#666666" points="374.75,-182.75 189.25,-182.75 189.25,-162 374.75,-162 374.75,-182.75"/>
<text text-anchor="middle" x="282" y="-169.25" font-family="Helvetica,sans-Serif" font-size="10.00">ImGui::NavUpdateAnyRequestFlag</text>
</a>
</g>
</g>
<!-- Node1&#45;&gt;Node5 -->
<g id="edge4_Node000001_Node000005" class="edge">
<title>Node1&#45;&gt;Node5</title>
<g id="a_edge4_Node000001_Node000005"><a xlink:title=" ">
<path fill="none" stroke="#63b8ff" d="M153.64,-184.27C161.47,-183.54 169.5,-182.79 177.56,-182.04"/>
<polygon fill="#63b8ff" stroke="#63b8ff" points="177.79,-185.53 187.42,-181.12 177.14,-178.56 177.79,-185.53"/>
</a>
</g>
</g>
<!-- Node6 -->
<g id="Node000006" class="node">
<title>Node6</title>
<g id="a_Node000006"><a xlink:href="namespaceImGui.html#a0c9e3a1d81ef0a0c530311beb1d88f7f" target="_top" xlink:title=" ">
<polygon fill="white" stroke="#666666" points="343.25,-125.75 220.75,-125.75 220.75,-105 343.25,-105 343.25,-125.75"/>
<text text-anchor="middle" x="282" y="-112.25" font-family="Helvetica,sans-Serif" font-size="10.00">ImGui::ScrollToRectEx</text>
</a>
</g>
</g>
<!-- Node1&#45;&gt;Node6 -->
<g id="edge5_Node000001_Node000006" class="edge">
<title>Node1&#45;&gt;Node6</title>
<g id="a_edge5_Node000001_Node000006"><a xlink:title=" ">
<path fill="none" stroke="#63b8ff" d="M106.33,-180.65C141.66,-167.44 201.83,-144.96 241.5,-130.14"/>
<polygon fill="#63b8ff" stroke="#63b8ff" points="242.55,-133.48 250.69,-126.7 240.1,-126.92 242.55,-133.48"/>
</a>
</g>
</g>
<!-- Node4 -->
<g id="Node000004" class="node">
<title>Node4</title>
<g id="a_Node000004"><a xlink:href="namespaceImGui.html#a06d8e9fae450c785dc8f61f6e03462a7" target="_top" xlink:title=" ">
<polygon fill="white" stroke="#666666" points="567,-221.75 410.75,-221.75 410.75,-201 567,-201 567,-221.75"/>
<text text-anchor="middle" x="488.88" y="-208.25" font-family="Helvetica,sans-Serif" font-size="10.00">ImGui::WindowRectAbsToRel</text>
</a>
</g>
</g>
<!-- Node3&#45;&gt;Node4 -->
<g id="edge3_Node000003_Node000004" class="edge">
<title>Node3&#45;&gt;Node4</title>
<g id="a_edge3_Node000003_Node000004"><a xlink:title=" ">
<path fill="none" stroke="#63b8ff" d="M363.38,-211.38C375.11,-211.38 387.24,-211.38 399.11,-211.38"/>
<polygon fill="#63b8ff" stroke="#63b8ff" points="398.89,-214.88 408.89,-211.38 398.89,-207.88 398.89,-214.88"/>
</a>
</g>
</g>
<!-- Node6&#45;&gt;Node6 -->
<g id="edge8_Node000006_Node000006" class="edge">
<title>Node6&#45;&gt;Node6</title>
<g id="a_edge8_Node000006_Node000006"><a xlink:title=" ">
<path fill="none" stroke="#63b8ff" d="M248.91,-126.15C235.67,-134.81 246.7,-143.75 282,-143.75 301.3,-143.75 313.35,-141.08 318.14,-137.24"/>
<polygon fill="#63b8ff" stroke="#63b8ff" points="321.52,-136.32 315.49,-127.61 314.77,-138.18 321.52,-136.32"/>
</a>
</g>
</g>
<!-- Node7 -->
<g id="Node000007" class="node">
<title>Node7</title>
<g id="a_Node000007"><a xlink:href="structImRect.html#a748d8ae9cb26508951ec6e2f2df0625b" target="_top" xlink:title=" ">
<polygon fill="white" stroke="#666666" points="541.88,-173.75 435.88,-173.75 435.88,-153 541.88,-153 541.88,-173.75"/>
<text text-anchor="middle" x="488.88" y="-160.25" font-family="Helvetica,sans-Serif" font-size="10.00">ImRect::GetHeight</text>
</a>
</g>
</g>
<!-- Node6&#45;&gt;Node7 -->
<g id="edge6_Node000006_Node000007" class="edge">
<title>Node6&#45;&gt;Node7</title>
<g id="a_edge6_Node000006_Node000007"><a xlink:title=" ">
<path fill="none" stroke="#63b8ff" d="M329.23,-126.21C359.32,-133.26 398.78,-142.5 430.82,-150.01"/>
<polygon fill="#63b8ff" stroke="#63b8ff" points="429.8,-153.36 440.34,-152.24 431.4,-146.55 429.8,-153.36"/>
</a>
</g>
</g>
<!-- Node8 -->
<g id="Node000008" class="node">
<title>Node8</title>
<g id="a_Node000008"><a xlink:href="structImRect.html#afa75cb8491f20901c96166d17dcddac4" target="_top" xlink:title=" ">
<polygon fill="white" stroke="#666666" points="540,-134.75 437.75,-134.75 437.75,-114 540,-114 540,-134.75"/>
<text text-anchor="middle" x="488.88" y="-121.25" font-family="Helvetica,sans-Serif" font-size="10.00">ImRect::GetWidth</text>
</a>
</g>
</g>
<!-- Node6&#45;&gt;Node8 -->
<g id="edge7_Node000006_Node000008" class="edge">
<title>Node6&#45;&gt;Node8</title>
<g id="a_edge7_Node000006_Node000008"><a xlink:title=" ">
<path fill="none" stroke="#63b8ff" d="M343.64,-118.04C369.64,-119.18 399.98,-120.51 426.11,-121.66"/>
<polygon fill="#63b8ff" stroke="#63b8ff" points="425.75,-125.15 435.89,-122.09 426.06,-118.16 425.75,-125.15"/>
</a>
</g>
</g>
<!-- Node9 -->
<g id="Node000009" class="node">
<title>Node9</title>
<g id="a_Node000009"><a xlink:href="namespaceImGui.html#ad244660a2f3f2999f645feb9fbdfe0ec" target="_top" xlink:title=" ">
<polygon fill="white" stroke="#666666" points="560.25,-77.75 417.5,-77.75 417.5,-57 560.25,-57 560.25,-77.75"/>
<text text-anchor="middle" x="488.88" y="-64.25" font-family="Helvetica,sans-Serif" font-size="10.00">ImGui::SetScrollFromPosX</text>
</a>
</g>
</g>
<!-- Node6&#45;&gt;Node9 -->
<g id="edge9_Node000006_Node000009" class="edge">
<title>Node6&#45;&gt;Node9</title>
<g id="a_edge9_Node000006_Node000009"><a xlink:title=" ">
<path fill="none" stroke="#63b8ff" d="M329.23,-104.54C359.32,-97.49 398.78,-88.25 430.82,-80.74"/>
<polygon fill="#63b8ff" stroke="#63b8ff" points="431.4,-84.2 440.34,-78.51 429.8,-77.39 431.4,-84.2"/>
</a>
</g>
</g>
<!-- Node10 -->
<g id="Node000010" class="node">
<title>Node10</title>
<g id="a_Node000010"><a xlink:href="namespaceImGui.html#a670d32573369e7ece9330d73f47e4d8b" target="_top" xlink:title=" ">
<polygon fill="white" stroke="#666666" points="559.88,-20.75 417.88,-20.75 417.88,0 559.88,0 559.88,-20.75"/>
<text text-anchor="middle" x="488.88" y="-7.25" font-family="Helvetica,sans-Serif" font-size="10.00">ImGui::SetScrollFromPosY</text>
</a>
</g>
</g>
<!-- Node6&#45;&gt;Node10 -->
<g id="edge11_Node000006_Node000010" class="edge">
<title>Node6&#45;&gt;Node10</title>
<g id="a_edge11_Node000006_Node000010"><a xlink:title=" ">
<path fill="none" stroke="#63b8ff" d="M303.27,-104.54C328.4,-91.16 372.58,-67.79 410.75,-48.38 425.38,-40.93 441.67,-32.87 455.5,-26.1"/>
<polygon fill="#63b8ff" stroke="#63b8ff" points="456.72,-29.4 464.17,-21.87 453.64,-23.11 456.72,-29.4"/>
</a>
</g>
</g>
<!-- Node9&#45;&gt;Node9 -->
<g id="edge10_Node000009_Node000009" class="edge">
<title>Node9&#45;&gt;Node9</title>
<g id="a_edge10_Node000009_Node000009"><a xlink:title=" ">
<path fill="none" stroke="#63b8ff" d="M455.54,-78.15C442.21,-86.81 453.32,-95.75 488.88,-95.75 508.32,-95.75 520.45,-93.08 525.28,-89.24"/>
<polygon fill="#63b8ff" stroke="#63b8ff" points="528.65,-88.31 522.61,-79.61 521.91,-90.18 528.65,-88.31"/>
</a>
</g>
</g>
<!-- Node10&#45;&gt;Node10 -->
<g id="edge12_Node000010_Node000010" class="edge">
<title>Node10&#45;&gt;Node10</title>
<g id="a_edge12_Node000010_Node000010"><a xlink:title=" ">
<path fill="none" stroke="#63b8ff" d="M455.54,-21.15C442.21,-29.81 453.32,-38.75 488.88,-38.75 508.32,-38.75 520.45,-36.08 525.28,-32.24"/>
<polygon fill="#63b8ff" stroke="#63b8ff" points="528.65,-31.31 522.61,-22.61 521.91,-33.18 528.65,-31.31"/>
</a>
</g>
</g>
</g>
</svg>
