<?xml version="1.0" encoding="UTF-8" standalone="no"?>
<!DOCTYPE svg PUBLIC "-//W3C//DTD SVG 1.1//EN"
 "http://www.w3.org/Graphics/SVG/1.1/DTD/svg11.dtd">
<!-- Generated by graphviz version 11.0.0 (20240428.1522)
 -->
<!-- Title: steppable::__internals::arithmetic::abs Pages: 1 -->
<svg width="1745pt" height="811pt"
 viewBox="0.00 0.00 1745.25 810.91" xmlns="http://www.w3.org/2000/svg" xmlns:xlink="http://www.w3.org/1999/xlink">
<g id="graph0" class="graph" transform="scale(1 1) rotate(0) translate(4 806.91)">
<title>steppable::__internals::arithmetic::abs</title>
<!-- Node1 -->
<g id="Node000001" class="node">
<title>Node1</title>
<g id="a_Node000001"><a xlink:title="Calculates the absolute value of a string representation of a number.">
<polygon fill="#999999" stroke="#666666" points="1737.25,-263.5 1614,-263.5 1614,-230 1737.25,-230 1737.25,-263.5"/>
<text text-anchor="start" x="1622" y="-250" font-family="Helvetica,sans-Serif" font-size="10.00">steppable::__internals</text>
<text text-anchor="middle" x="1675.62" y="-237.25" font-family="Helvetica,sans-Serif" font-size="10.00">::arithmetic::abs</text>
</a>
</g>
</g>
<!-- Node2 -->
<g id="Node000002" class="node">
<title>Node2</title>
<g id="a_Node000002"><a xlink:href="namespacesteppable_1_1____internals_1_1numUtils.html#a5eeb396144a9e1d3edd3339abb6f434f" target="_top" xlink:title="Get the factors of a number.">
<polygon fill="white" stroke="#666666" points="1578,-308.5 1454.75,-308.5 1454.75,-275 1578,-275 1578,-308.5"/>
<text text-anchor="start" x="1462.75" y="-295" font-family="Helvetica,sans-Serif" font-size="10.00">steppable::__internals</text>
<text text-anchor="middle" x="1516.38" y="-282.25" font-family="Helvetica,sans-Serif" font-size="10.00">::numUtils::getFactors</text>
</a>
</g>
</g>
<!-- Node1&#45;&gt;Node2 -->
<g id="edge1_Node000001_Node000002" class="edge">
<title>Node1&#45;&gt;Node2</title>
<g id="a_edge1_Node000001_Node000002"><a xlink:title=" ">
<path fill="none" stroke="#63b8ff" d="M1603.77,-267.03C1595.04,-269.52 1586.18,-272.06 1577.63,-274.51"/>
<polygon fill="#63b8ff" stroke="#63b8ff" points="1604.62,-270.42 1613.27,-264.31 1602.69,-263.69 1604.62,-270.42"/>
</a>
</g>
</g>
<!-- Node30 -->
<g id="Node000030" class="node">
<title>Node30</title>
<g id="a_Node000030"><a xlink:href="namespacesteppable_1_1____internals_1_1arithmetic.html#a7ff9976bf48df9c832d7489e88004813" target="_top" xlink:title="Gets the greatest common divisor of two string representations of numbers.">
<polygon fill="white" stroke="#666666" points="1243,-241.5 1119.75,-241.5 1119.75,-208 1243,-208 1243,-241.5"/>
<text text-anchor="start" x="1127.75" y="-228" font-family="Helvetica,sans-Serif" font-size="10.00">steppable::__internals</text>
<text text-anchor="middle" x="1181.38" y="-215.25" font-family="Helvetica,sans-Serif" font-size="10.00">::arithmetic::getGCD</text>
</a>
</g>
</g>
<!-- Node1&#45;&gt;Node30 -->
<g id="edge39_Node000001_Node000030" class="edge">
<title>Node1&#45;&gt;Node30</title>
<g id="a_edge39_Node000001_Node000030"><a xlink:title=" ">
<path fill="none" stroke="#63b8ff" d="M1602.31,-243.52C1505.22,-239.18 1334.46,-231.55 1243.48,-227.48"/>
<polygon fill="#63b8ff" stroke="#63b8ff" points="1602.11,-247.01 1612.26,-243.96 1602.43,-240.02 1602.11,-247.01"/>
</a>
</g>
</g>
<!-- Node3 -->
<g id="Node000003" class="node">
<title>Node3</title>
<g id="a_Node000003"><a xlink:href="namespacesteppable_1_1____internals_1_1numUtils.html#a379086734493f9c5d59b1bca39908074" target="_top" xlink:title="Get the largest factor of a number, that is a root number.">
<polygon fill="white" stroke="#666666" points="1418.75,-398.5 1279,-398.5 1279,-365 1418.75,-365 1418.75,-398.5"/>
<text text-anchor="start" x="1287" y="-385" font-family="Helvetica,sans-Serif" font-size="10.00">steppable::__internals</text>
<text text-anchor="middle" x="1348.88" y="-372.25" font-family="Helvetica,sans-Serif" font-size="10.00">::numUtils::getRootFactor</text>
</a>
</g>
</g>
<!-- Node2&#45;&gt;Node3 -->
<g id="edge2_Node000002_Node000003" class="edge">
<title>Node2&#45;&gt;Node3</title>
<g id="a_edge2_Node000002_Node000003"><a xlink:title=" ">
<path fill="none" stroke="#63b8ff" d="M1473.75,-314.38C1445.15,-329.94 1407.75,-350.28 1381.56,-364.52"/>
<polygon fill="#63b8ff" stroke="#63b8ff" points="1475.41,-317.47 1482.53,-309.61 1472.07,-311.32 1475.41,-317.47"/>
</a>
</g>
</g>
<!-- Node29 -->
<g id="Node000029" class="node">
<title>Node29</title>
<g id="a_Node000029"><a xlink:href="namespacesteppable_1_1____internals_1_1numUtils.html#a1a51aabb1fe846587df780d136efd45f" target="_top" xlink:title="Check if a number is prime.">
<polygon fill="white" stroke="#666666" points="1410.5,-286.5 1287.25,-286.5 1287.25,-253 1410.5,-253 1410.5,-286.5"/>
<text text-anchor="start" x="1295.25" y="-273" font-family="Helvetica,sans-Serif" font-size="10.00">steppable::__internals</text>
<text text-anchor="middle" x="1348.88" y="-260.25" font-family="Helvetica,sans-Serif" font-size="10.00">::numUtils::isPrime</text>
</a>
</g>
</g>
<!-- Node2&#45;&gt;Node29 -->
<g id="edge38_Node000002_Node000029" class="edge">
<title>Node2&#45;&gt;Node29</title>
<g id="a_edge38_Node000002_Node000029"><a xlink:title=" ">
<path fill="none" stroke="#63b8ff" d="M1443.47,-282.19C1432.59,-280.75 1421.45,-279.26 1410.83,-277.85"/>
<polygon fill="#63b8ff" stroke="#63b8ff" points="1442.81,-285.64 1453.19,-283.48 1443.74,-278.7 1442.81,-285.64"/>
</a>
</g>
</g>
<!-- Node4 -->
<g id="Node000004" class="node">
<title>Node4</title>
<g id="a_Node000004"><a xlink:href="namespacesteppable_1_1____internals_1_1arithmetic.html#a118bc6cb979317a7c762ee90fb44d0a4" target="_top" xlink:title="Converts a root operation into a surd.">
<polygon fill="white" stroke="#666666" points="1243,-398.5 1119.75,-398.5 1119.75,-365 1243,-365 1243,-398.5"/>
<text text-anchor="start" x="1127.75" y="-385" font-family="Helvetica,sans-Serif" font-size="10.00">steppable::__internals</text>
<text text-anchor="middle" x="1181.38" y="-372.25" font-family="Helvetica,sans-Serif" font-size="10.00">::arithmetic::rootSurd</text>
</a>
</g>
</g>
<!-- Node3&#45;&gt;Node4 -->
<g id="edge3_Node000003_Node000004" class="edge">
<title>Node3&#45;&gt;Node4</title>
<g id="a_edge3_Node000003_Node000004"><a xlink:title=" ">
<path fill="none" stroke="#63b8ff" d="M1267.33,-381.75C1259.29,-381.75 1251.22,-381.75 1243.43,-381.75"/>
<polygon fill="#63b8ff" stroke="#63b8ff" points="1267.13,-385.25 1277.13,-381.75 1267.13,-378.25 1267.13,-385.25"/>
</a>
</g>
</g>
<!-- Node5 -->
<g id="Node000005" class="node">
<title>Node5</title>
<g id="a_Node000005"><a xlink:href="namespacesteppable_1_1____internals_1_1arithmetic.html#a4aa89d1787b7578cd2ed73392bdcd7df" target="_top" xlink:title="Takes the n&#45;th root of a numer.">
<polygon fill="white" stroke="#666666" points="1083.75,-376.5 960.5,-376.5 960.5,-343 1083.75,-343 1083.75,-376.5"/>
<text text-anchor="start" x="968.5" y="-363" font-family="Helvetica,sans-Serif" font-size="10.00">steppable::__internals</text>
<text text-anchor="middle" x="1022.12" y="-350.25" font-family="Helvetica,sans-Serif" font-size="10.00">::arithmetic::root</text>
</a>
</g>
</g>
<!-- Node4&#45;&gt;Node5 -->
<g id="edge4_Node000004_Node000005" class="edge">
<title>Node4&#45;&gt;Node5</title>
<g id="a_edge4_Node000004_Node000005"><a xlink:title=" ">
<path fill="none" stroke="#63b8ff" d="M1108.23,-371.66C1100.14,-370.52 1091.95,-369.38 1084.02,-368.27"/>
<polygon fill="#63b8ff" stroke="#63b8ff" points="1107.69,-375.12 1118.08,-373.03 1108.66,-368.18 1107.69,-375.12"/>
</a>
</g>
</g>
<!-- Node6 -->
<g id="Node000006" class="node">
<title>Node6</title>
<g id="a_Node000006"><a xlink:href="namespacesteppable_1_1____internals_1_1arithmetic.html#a50acfa1ad06ce385943ddd207146c9e0" target="_top" xlink:title="Raises a string representation of a number to a power.">
<polygon fill="white" stroke="#666666" points="924.5,-587.5 801.25,-587.5 801.25,-554 924.5,-554 924.5,-587.5"/>
<text text-anchor="start" x="809.25" y="-574" font-family="Helvetica,sans-Serif" font-size="10.00">steppable::__internals</text>
<text text-anchor="middle" x="862.88" y="-561.25" font-family="Helvetica,sans-Serif" font-size="10.00">::arithmetic::power</text>
</a>
</g>
</g>
<!-- Node5&#45;&gt;Node6 -->
<g id="edge5_Node000005_Node000006" class="edge">
<title>Node5&#45;&gt;Node6</title>
<g id="a_edge5_Node000005_Node000006"><a xlink:title=" ">
<path fill="none" stroke="#63b8ff" d="M1001.7,-385.82C969.02,-429.66 903.97,-516.96 876.54,-553.76"/>
<polygon fill="#63b8ff" stroke="#63b8ff" points="1004.45,-387.98 1007.62,-377.87 998.84,-383.8 1004.45,-387.98"/>
</a>
</g>
</g>
<!-- Node6&#45;&gt;Node6 -->
<g id="edge36_Node000006_Node000006" class="edge">
<title>Node6&#45;&gt;Node6</title>
<g id="a_edge36_Node000006_Node000006"><a xlink:title=" ">
<path fill="none" stroke="#63b8ff" d="M889.61,-598.89C885.26,-602.85 876.35,-605.5 862.88,-605.5 838.93,-605.5 829.38,-597.12 834.25,-587.91"/>
<polygon fill="#63b8ff" stroke="#63b8ff" points="893,-599.85 891.25,-589.41 886.1,-598.67 893,-599.85"/>
</a>
</g>
</g>
<!-- Node7 -->
<g id="Node000007" class="node">
<title>Node7</title>
<g id="a_Node000007"><a xlink:href="namespacesteppable_1_1____internals_1_1arithmetic.html#a1eedcdd2349ec452f6319cd0ff443e0a" target="_top" xlink:title=" ">
<polygon fill="white" stroke="#666666" points="359.75,-382.5 236.5,-382.5 236.5,-349 359.75,-349 359.75,-382.5"/>
<text text-anchor="start" x="244.5" y="-369" font-family="Helvetica,sans-Serif" font-size="10.00">steppable::__internals</text>
<text text-anchor="middle" x="298.12" y="-356.25" font-family="Helvetica,sans-Serif" font-size="10.00">::arithmetic::_root</text>
</a>
</g>
</g>
<!-- Node6&#45;&gt;Node7 -->
<g id="edge6_Node000006_Node000007" class="edge">
<title>Node6&#45;&gt;Node7</title>
<g id="a_edge6_Node000006_Node000007"><a xlink:title=" ">
<path fill="none" stroke="#63b8ff" d="M845.73,-544.29C828.87,-519.01 800.04,-481.87 765.25,-461.75 696.77,-422.15 469.91,-388.07 359.94,-373.42"/>
<polygon fill="#63b8ff" stroke="#63b8ff" points="842.61,-545.9 850.98,-552.39 848.48,-542.09 842.61,-545.9"/>
</a>
</g>
</g>
<!-- Node8 -->
<g id="Node000008" class="node">
<title>Node8</title>
<g id="a_Node000008"><a xlink:href="namespacesteppable_1_1____internals_1_1arithmetic.html#afc4c4f319dadbb5b1ff481132f008374" target="_top" xlink:title="Converts a string representation of a number from any base to decimal.">
<polygon fill="white" stroke="#666666" points="750.25,-736.5 594.75,-736.5 594.75,-703 750.25,-703 750.25,-736.5"/>
<text text-anchor="start" x="602.75" y="-723" font-family="Helvetica,sans-Serif" font-size="10.00">steppable::__internals</text>
<text text-anchor="middle" x="672.5" y="-710.25" font-family="Helvetica,sans-Serif" font-size="10.00">::arithmetic::decimalConvert</text>
</a>
</g>
</g>
<!-- Node6&#45;&gt;Node8 -->
<g id="edge9_Node000006_Node000008" class="edge">
<title>Node6&#45;&gt;Node8</title>
<g id="a_edge9_Node000006_Node000008"><a xlink:title=" ">
<path fill="none" stroke="#63b8ff" d="M847.49,-597.82C831.19,-625.9 802.05,-669.08 765.25,-693.75 760.3,-697.07 754.93,-699.97 749.35,-702.5"/>
<polygon fill="#63b8ff" stroke="#63b8ff" points="850.49,-599.61 852.35,-589.18 844.39,-596.18 850.49,-599.61"/>
</a>
</g>
</g>
<!-- Node9 -->
<g id="Node000009" class="node">
<title>Node9</title>
<g id="a_Node000009"><a xlink:href="namespacesteppable_1_1____internals_1_1arithmetic.html#aa150ef39a272f7228ae239679247fab3" target="_top" xlink:title="Determines the scale of the quotient of division.">
<polygon fill="white" stroke="#666666" points="765.25,-504.5 579.75,-504.5 579.75,-471 765.25,-471 765.25,-504.5"/>
<text text-anchor="start" x="587.75" y="-491" font-family="Helvetica,sans-Serif" font-size="10.00">steppable::__internals</text>
<text text-anchor="middle" x="672.5" y="-478.25" font-family="Helvetica,sans-Serif" font-size="10.00">::arithmetic::determineResultScale</text>
</a>
</g>
</g>
<!-- Node6&#45;&gt;Node9 -->
<g id="edge10_Node000006_Node000009" class="edge">
<title>Node6&#45;&gt;Node9</title>
<g id="a_edge10_Node000006_Node000009"><a xlink:title=" ">
<path fill="none" stroke="#63b8ff" d="M823.13,-547.97C805.77,-538.27 784.82,-527.25 765.25,-518.75 753.84,-513.79 741.36,-509.11 729.38,-504.96"/>
<polygon fill="#63b8ff" stroke="#63b8ff" points="821.17,-550.88 831.59,-552.76 824.61,-544.79 821.17,-550.88"/>
</a>
</g>
</g>
<!-- Node15 -->
<g id="Node000015" class="node">
<title>Node15</title>
<g id="a_Node000015"><a xlink:href="namespacesteppable_1_1____internals_1_1arithmetic.html#a6f1429e9d7719e6376dc68ae28d36dbe" target="_top" xlink:title="Gets the integer part of the root of a number.">
<polygon fill="white" stroke="#666666" points="362.75,-594.5 233.5,-594.5 233.5,-561 362.75,-561 362.75,-594.5"/>
<text text-anchor="start" x="241.5" y="-581" font-family="Helvetica,sans-Serif" font-size="10.00">steppable::__internals</text>
<text text-anchor="middle" x="298.12" y="-568.25" font-family="Helvetica,sans-Serif" font-size="10.00">::arithmetic::rootIntPart</text>
</a>
</g>
</g>
<!-- Node6&#45;&gt;Node15 -->
<g id="edge37_Node000006_Node000015" class="edge">
<title>Node6&#45;&gt;Node15</title>
<g id="a_edge37_Node000006_Node000015"><a xlink:title=" ">
<path fill="none" stroke="#63b8ff" d="M789.46,-571.65C678.58,-573.03 468.52,-575.64 363,-576.96"/>
<polygon fill="#63b8ff" stroke="#63b8ff" points="789.38,-575.15 799.33,-571.53 789.29,-568.15 789.38,-575.15"/>
</a>
</g>
</g>
<!-- Node16 -->
<g id="Node000016" class="node">
<title>Node16</title>
<g id="a_Node000016"><a xlink:href="namespacesteppable_1_1____internals_1_1numUtils.html#a9af210044669c6dd27a2fca4723fe831" target="_top" xlink:title="Get the greatest root number less than or equal to the given number.">
<polygon fill="white" stroke="#666666" points="175.75,-572.5 0,-572.5 0,-539 175.75,-539 175.75,-572.5"/>
<text text-anchor="start" x="8" y="-559" font-family="Helvetica,sans-Serif" font-size="10.00">steppable::__internals</text>
<text text-anchor="middle" x="87.88" y="-546.25" font-family="Helvetica,sans-Serif" font-size="10.00">::numUtils::getGreatestRootNum</text>
</a>
</g>
</g>
<!-- Node6&#45;&gt;Node16 -->
<g id="edge32_Node000006_Node000016" class="edge">
<title>Node6&#45;&gt;Node16</title>
<g id="a_edge32_Node000006_Node000016"><a xlink:title=" ">
<path fill="none" stroke="#63b8ff" d="M789.56,-566.98C696.06,-562.3 528.19,-554.61 384.5,-551.75 307.74,-550.22 288.52,-550.5 211.75,-551.75 200.23,-551.94 188.1,-552.22 176.13,-552.56"/>
<polygon fill="#63b8ff" stroke="#63b8ff" points="789.18,-570.46 799.35,-567.47 789.54,-563.47 789.18,-570.46"/>
</a>
</g>
</g>
<!-- Node17 -->
<g id="Node000017" class="node">
<title>Node17</title>
<g id="a_Node000017"><a xlink:href="namespacesteppable_1_1____internals_1_1numUtils.html#af5d859c9839f7f49bf06f891693d5dfc" target="_top" xlink:title="Check if a number is a root number.">
<polygon fill="white" stroke="#666666" points="149.5,-781.5 26.25,-781.5 26.25,-748 149.5,-748 149.5,-781.5"/>
<text text-anchor="start" x="34.25" y="-768" font-family="Helvetica,sans-Serif" font-size="10.00">steppable::__internals</text>
<text text-anchor="middle" x="87.88" y="-755.25" font-family="Helvetica,sans-Serif" font-size="10.00">::numUtils::isRoot</text>
</a>
</g>
</g>
<!-- Node6&#45;&gt;Node17 -->
<g id="edge33_Node000006_Node000017" class="edge">
<title>Node6&#45;&gt;Node17</title>
<g id="a_edge33_Node000006_Node000017"><a xlink:title=" ">
<path fill="none" stroke="#63b8ff" d="M855.61,-598.82C844.89,-639.39 818.8,-713.13 765.25,-745.75 663.24,-807.9 296.43,-783.29 149.94,-770.55"/>
<polygon fill="#63b8ff" stroke="#63b8ff" points="858.95,-599.86 857.98,-589.31 852.16,-598.17 858.95,-599.86"/>
</a>
</g>
</g>
<!-- Node27 -->
<g id="Node000027" class="node">
<title>Node27</title>
<g id="a_Node000027"><a xlink:href="classsteppable_1_1Fraction.html#abaf8678e0b61e3097789959b66e4c23c" target="_top" xlink:title="Raises the fraction to a power.">
<polygon fill="white" stroke="#666666" points="727,-684.5 618,-684.5 618,-651 727,-651 727,-684.5"/>
<text text-anchor="start" x="626" y="-671" font-family="Helvetica,sans-Serif" font-size="10.00">steppable::Fraction</text>
<text text-anchor="middle" x="672.5" y="-658.25" font-family="Helvetica,sans-Serif" font-size="10.00">::operator^</text>
</a>
</g>
</g>
<!-- Node6&#45;&gt;Node27 -->
<g id="edge34_Node000006_Node000027" class="edge">
<title>Node6&#45;&gt;Node27</title>
<g id="a_edge34_Node000006_Node000027"><a xlink:title=" ">
<path fill="none" stroke="#63b8ff" d="M834.16,-595.3C815.72,-610.53 790.37,-629.47 765.25,-641.75 753.35,-647.57 739.93,-652.29 727.1,-656.03"/>
<polygon fill="#63b8ff" stroke="#63b8ff" points="836.33,-598.05 841.72,-588.92 831.81,-592.7 836.33,-598.05"/>
</a>
</g>
</g>
<!-- Node28 -->
<g id="Node000028" class="node">
<title>Node28</title>
<g id="a_Node000028"><a xlink:href="classsteppable_1_1Number.html#ae3e13c5f73bc67cd464c84a8640e1387" target="_top" xlink:title="Raises the number to a power.">
<polygon fill="white" stroke="#666666" points="730,-632.5 615,-632.5 615,-599 730,-599 730,-632.5"/>
<text text-anchor="start" x="623" y="-619" font-family="Helvetica,sans-Serif" font-size="10.00">steppable::Number::</text>
<text text-anchor="middle" x="672.5" y="-606.25" font-family="Helvetica,sans-Serif" font-size="10.00">operator^</text>
</a>
</g>
</g>
<!-- Node6&#45;&gt;Node28 -->
<g id="edge35_Node000006_Node000028" class="edge">
<title>Node6&#45;&gt;Node28</title>
<g id="a_edge35_Node000006_Node000028"><a xlink:title=" ">
<path fill="none" stroke="#63b8ff" d="M789.88,-587.95C770.17,-592.66 749.09,-597.69 730.35,-602.17"/>
<polygon fill="#63b8ff" stroke="#63b8ff" points="790.59,-591.38 799.5,-585.65 788.96,-584.57 790.59,-591.38"/>
</a>
</g>
</g>
<!-- Node7&#45;&gt;Node5 -->
<g id="edge8_Node000007_Node000005" class="edge">
<title>Node7&#45;&gt;Node5</title>
<g id="a_edge8_Node000007_Node000005"><a xlink:title=" ">
<path fill="none" stroke="#63b8ff" d="M371.32,-365.15C513.54,-363.97 827.62,-361.36 960.19,-360.26"/>
<polygon fill="#63b8ff" stroke="#63b8ff" points="371.64,-361.65 361.67,-365.23 371.69,-368.65 371.64,-361.65"/>
</a>
</g>
</g>
<!-- Node7&#45;&gt;Node7 -->
<g id="edge7_Node000007_Node000007" class="edge">
<title>Node7&#45;&gt;Node7</title>
<g id="a_edge7_Node000007_Node000007"><a xlink:title=" ">
<path fill="none" stroke="#63b8ff" d="M329.02,-393.89C323.99,-397.85 313.69,-400.5 298.12,-400.5 270.45,-400.5 259.43,-392.12 265.05,-382.91"/>
<polygon fill="#63b8ff" stroke="#63b8ff" points="332.39,-394.89 330.91,-384.4 325.52,-393.52 332.39,-394.89"/>
</a>
</g>
</g>
<!-- Node10 -->
<g id="Node000010" class="node">
<title>Node10</title>
<g id="a_Node000010"><a xlink:href="namespacesteppable_1_1____internals_1_1arithmetic.html#a26194ae8ddb44afb942fbf8335ae1730" target="_top" xlink:title="Divides a string representation of a number by another string representation of a number.">
<polygon fill="white" stroke="#666666" points="543.75,-504.5 420.5,-504.5 420.5,-471 543.75,-471 543.75,-504.5"/>
<text text-anchor="start" x="428.5" y="-491" font-family="Helvetica,sans-Serif" font-size="10.00">steppable::__internals</text>
<text text-anchor="middle" x="482.12" y="-478.25" font-family="Helvetica,sans-Serif" font-size="10.00">::arithmetic::divide</text>
</a>
</g>
</g>
<!-- Node9&#45;&gt;Node10 -->
<g id="edge11_Node000009_Node000010" class="edge">
<title>Node9&#45;&gt;Node10</title>
<g id="a_edge11_Node000009_Node000010"><a xlink:title=" ">
<path fill="none" stroke="#63b8ff" d="M568.23,-487.75C559.98,-487.75 551.83,-487.75 544.02,-487.75"/>
<polygon fill="#63b8ff" stroke="#63b8ff" points="568.01,-491.25 578.01,-487.75 568.01,-484.25 568.01,-491.25"/>
</a>
</g>
</g>
<!-- Node10&#45;&gt;Node4 -->
<g id="edge22_Node000010_Node000004" class="edge">
<title>Node10&#45;&gt;Node4</title>
<g id="a_edge22_Node000010_Node000004"><a xlink:title=" ">
<path fill="none" stroke="#63b8ff" d="M553.44,-467.69C562.26,-465.51 571.19,-463.46 579.75,-461.75 775.22,-422.61 1010.41,-397.58 1119.41,-387.22"/>
<polygon fill="#63b8ff" stroke="#63b8ff" points="552.67,-464.27 543.84,-470.13 554.39,-471.06 552.67,-464.27"/>
</a>
</g>
</g>
<!-- Node10&#45;&gt;Node7 -->
<g id="edge12_Node000010_Node000007" class="edge">
<title>Node10&#45;&gt;Node7</title>
<g id="a_edge12_Node000010_Node000007"><a xlink:title=" ">
<path fill="none" stroke="#63b8ff" d="M431.54,-464.8C427.66,-462.29 423.93,-459.61 420.5,-456.75 400.29,-439.9 404.68,-426.63 384.5,-409.75 371.71,-399.05 355.88,-390 341.35,-382.94"/>
<polygon fill="#63b8ff" stroke="#63b8ff" points="429.68,-467.77 440.07,-469.88 433.26,-461.76 429.68,-467.77"/>
</a>
</g>
</g>
<!-- Node11 -->
<g id="Node000011" class="node">
<title>Node11</title>
<g id="a_Node000011"><a xlink:href="namespacesteppable_1_1____internals_1_1arithmetic.html#a814abbd0fc1772320626c4c0ca3f677a" target="_top" xlink:title="Converts a string representation of a number from decimal to another one.">
<polygon fill="white" stroke="#666666" points="368,-504.5 228.25,-504.5 228.25,-471 368,-471 368,-504.5"/>
<text text-anchor="start" x="236.25" y="-491" font-family="Helvetica,sans-Serif" font-size="10.00">steppable::__internals</text>
<text text-anchor="middle" x="298.12" y="-478.25" font-family="Helvetica,sans-Serif" font-size="10.00">::arithmetic::baseConvert</text>
</a>
</g>
</g>
<!-- Node10&#45;&gt;Node11 -->
<g id="edge13_Node000010_Node000011" class="edge">
<title>Node10&#45;&gt;Node11</title>
<g id="a_edge13_Node000010_Node000011"><a xlink:title=" ">
<path fill="none" stroke="#63b8ff" d="M408.51,-487.75C395.23,-487.75 381.41,-487.75 368.23,-487.75"/>
<polygon fill="#63b8ff" stroke="#63b8ff" points="408.5,-491.25 418.5,-487.75 408.5,-484.25 408.5,-491.25"/>
</a>
</g>
</g>
<!-- Node12 -->
<g id="Node000012" class="node">
<title>Node12</title>
<g id="a_Node000012"><a xlink:href="namespacesteppable_1_1____internals_1_1arithmetic.html#ac9102075acd398b3bdf388f6cc2ef978" target="_top" xlink:title=" ">
<polygon fill="white" stroke="#666666" points="384.5,-330.5 211.75,-330.5 211.75,-297 384.5,-297 384.5,-330.5"/>
<text text-anchor="start" x="219.75" y="-317" font-family="Helvetica,sans-Serif" font-size="10.00">steppable::__internals</text>
<text text-anchor="middle" x="298.12" y="-304.25" font-family="Helvetica,sans-Serif" font-size="10.00">::arithmetic::divideWithQuotient</text>
</a>
</g>
</g>
<!-- Node10&#45;&gt;Node12 -->
<g id="edge14_Node000010_Node000012" class="edge">
<title>Node10&#45;&gt;Node12</title>
<g id="a_edge14_Node000010_Node000012"><a xlink:title=" ">
<path fill="none" stroke="#63b8ff" d="M470.27,-460.41C455.68,-427.1 426.61,-371.37 384.5,-339.75 380.04,-336.4 375.15,-333.48 370.03,-330.93"/>
<polygon fill="#63b8ff" stroke="#63b8ff" points="466.95,-461.54 474.08,-469.38 473.4,-458.81 466.95,-461.54"/>
</a>
</g>
</g>
<!-- Node14 -->
<g id="Node000014" class="node">
<title>Node14</title>
<g id="a_Node000014"><a xlink:href="classsteppable_1_1Number.html#aebdaf5d342a2a897793556bd390bc184" target="_top" xlink:title="Divides two numbers.">
<polygon fill="white" stroke="#666666" points="355.62,-452.5 240.62,-452.5 240.62,-419 355.62,-419 355.62,-452.5"/>
<text text-anchor="start" x="248.62" y="-439" font-family="Helvetica,sans-Serif" font-size="10.00">steppable::Number::</text>
<text text-anchor="middle" x="298.12" y="-426.25" font-family="Helvetica,sans-Serif" font-size="10.00">operator/</text>
</a>
</g>
</g>
<!-- Node10&#45;&gt;Node14 -->
<g id="edge17_Node000010_Node000014" class="edge">
<title>Node10&#45;&gt;Node14</title>
<g id="a_edge17_Node000010_Node000014"><a xlink:title=" ">
<path fill="none" stroke="#63b8ff" d="M409.81,-467.37C391.93,-462.27 372.99,-456.85 355.92,-451.98"/>
<polygon fill="#63b8ff" stroke="#63b8ff" points="408.74,-470.71 419.32,-470.09 410.67,-463.98 408.74,-470.71"/>
</a>
</g>
</g>
<!-- Node10&#45;&gt;Node15 -->
<g id="edge18_Node000010_Node000015" class="edge">
<title>Node10&#45;&gt;Node15</title>
<g id="a_edge18_Node000010_Node000015"><a xlink:title=" ">
<path fill="none" stroke="#63b8ff" d="M436.18,-509.98C404.62,-525.58 363.02,-546.15 333.97,-560.52"/>
<polygon fill="#63b8ff" stroke="#63b8ff" points="437.69,-513.13 445.11,-505.56 434.59,-506.86 437.69,-513.13"/>
</a>
</g>
</g>
<!-- Node18 -->
<g id="Node000018" class="node">
<title>Node18</title>
<g id="a_Node000018"><a xlink:href="classsteppable_1_1Fraction.html#a9cf64d847c268d9334775c572ef75dfa" target="_top" xlink:title="Simplifies a fraction. This function simplifies the fraction by dividing the top and bottom component...">
<polygon fill="white" stroke="#666666" points="352.62,-241.5 243.62,-241.5 243.62,-208 352.62,-208 352.62,-241.5"/>
<text text-anchor="start" x="251.62" y="-228" font-family="Helvetica,sans-Serif" font-size="10.00">steppable::Fraction</text>
<text text-anchor="middle" x="298.12" y="-215.25" font-family="Helvetica,sans-Serif" font-size="10.00">::simplify</text>
</a>
</g>
</g>
<!-- Node10&#45;&gt;Node18 -->
<g id="edge23_Node000010_Node000018" class="edge">
<title>Node10&#45;&gt;Node18</title>
<g id="a_edge23_Node000010_Node000018"><a xlink:title=" ">
<path fill="none" stroke="#63b8ff" d="M472.49,-459.87C458.78,-418.86 428.97,-341.35 384.5,-287.75 369.09,-269.18 347.1,-253.12 329.29,-241.86"/>
<polygon fill="#63b8ff" stroke="#63b8ff" points="469.11,-460.79 475.53,-469.21 475.76,-458.62 469.11,-460.79"/>
</a>
</g>
</g>
<!-- Node12&#45;&gt;Node2 -->
<g id="edge15_Node000012_Node000002" class="edge">
<title>Node12&#45;&gt;Node2</title>
<g id="a_edge15_Node000012_Node000002"><a xlink:title=" ">
<path fill="none" stroke="#63b8ff" d="M396.22,-314.15C471.37,-314.43 578.03,-314.75 671.5,-314.75 1182.38,-314.75 1182.38,-314.75 1182.38,-314.75 1277.56,-314.75 1387.68,-305.28 1454.39,-298.5"/>
<polygon fill="#63b8ff" stroke="#63b8ff" points="396.43,-310.65 386.42,-314.12 396.41,-317.65 396.43,-310.65"/>
</a>
</g>
</g>
<!-- Node13 -->
<g id="Node000013" class="node">
<title>Node13</title>
<g id="a_Node000013"><a xlink:href="classsteppable_1_1Number.html#a719a8a93fcfe91b30c38ba0830d6de50" target="_top" xlink:title="Calculates the remainder of two numbers. (Modulus)">
<polygon fill="white" stroke="#666666" points="145.38,-449.5 30.38,-449.5 30.38,-416 145.38,-416 145.38,-449.5"/>
<text text-anchor="start" x="38.38" y="-436" font-family="Helvetica,sans-Serif" font-size="10.00">steppable::Number::</text>
<text text-anchor="middle" x="87.88" y="-423.25" font-family="Helvetica,sans-Serif" font-size="10.00">operator%</text>
</a>
</g>
</g>
<!-- Node12&#45;&gt;Node13 -->
<g id="edge16_Node000012_Node000013" class="edge">
<title>Node12&#45;&gt;Node13</title>
<g id="a_edge16_Node000012_Node000013"><a xlink:title=" ">
<path fill="none" stroke="#63b8ff" d="M215.28,-337.03C214.08,-337.91 212.9,-338.81 211.75,-339.75 185.61,-361.18 201.94,-385.38 175.75,-406.75 167.09,-413.82 156.55,-418.96 145.84,-422.71"/>
<polygon fill="#63b8ff" stroke="#63b8ff" points="217.13,-340.01 223.77,-331.76 213.43,-334.06 217.13,-340.01"/>
</a>
</g>
</g>
<!-- Node15&#45;&gt;Node16 -->
<g id="edge19_Node000015_Node000016" class="edge">
<title>Node15&#45;&gt;Node16</title>
<g id="a_edge19_Node000015_Node000016"><a xlink:title=" ">
<path fill="none" stroke="#63b8ff" d="M222.01,-569.81C207.1,-568.24 191.32,-566.57 176.04,-564.96"/>
<polygon fill="#63b8ff" stroke="#63b8ff" points="221.41,-573.27 231.72,-570.84 222.15,-566.31 221.41,-573.27"/>
</a>
</g>
</g>
<!-- Node15&#45;&gt;Node17 -->
<g id="edge20_Node000015_Node000017" class="edge">
<title>Node15&#45;&gt;Node17</title>
<g id="a_edge20_Node000015_Node000017"><a xlink:title=" ">
<path fill="none" stroke="#63b8ff" d="M269.74,-602.34C226.84,-640.87 144.84,-714.5 107.83,-747.73"/>
<polygon fill="#63b8ff" stroke="#63b8ff" points="272.05,-604.97 277.15,-595.69 267.37,-599.76 272.05,-604.97"/>
</a>
</g>
</g>
<!-- Node17&#45;&gt;Node3 -->
<g id="edge21_Node000017_Node000003" class="edge">
<title>Node17&#45;&gt;Node3</title>
<g id="a_edge21_Node000017_Node000003"><a xlink:title=" ">
<path fill="none" stroke="#63b8ff" d="M161.13,-780.62C177.69,-783.77 195.27,-786.72 211.75,-788.75 330.74,-803.39 361.24,-802.75 481.12,-802.75 1023.12,-802.75 1023.12,-802.75 1023.12,-802.75 1230.82,-802.75 1324.29,-477.54 1343.88,-398.78"/>
<polygon fill="#63b8ff" stroke="#63b8ff" points="161.82,-777.19 151.34,-778.71 160.48,-784.06 161.82,-777.19"/>
</a>
</g>
</g>
<!-- Node19 -->
<g id="Node000019" class="node">
<title>Node19</title>
<g id="a_Node000019"><a xlink:href="classsteppable_1_1Fraction.html#a4647e3f3062426a91d1ef7cdbde23bb6" target="_top" xlink:title="Initialized a fraction from a number.">
<polygon fill="white" stroke="#666666" points="142.38,-345.5 33.38,-345.5 33.38,-312 142.38,-312 142.38,-345.5"/>
<text text-anchor="start" x="41.38" y="-332" font-family="Helvetica,sans-Serif" font-size="10.00">steppable::Fraction</text>
<text text-anchor="middle" x="87.88" y="-319.25" font-family="Helvetica,sans-Serif" font-size="10.00">::Fraction</text>
</a>
</g>
</g>
<!-- Node18&#45;&gt;Node19 -->
<g id="edge24_Node000018_Node000019" class="edge">
<title>Node18&#45;&gt;Node19</title>
<g id="a_edge24_Node000018_Node000019"><a xlink:title=" ">
<path fill="none" stroke="#63b8ff" d="M265.77,-248.4C242.06,-265.4 208.15,-287.85 175.75,-302.75 165.31,-307.55 153.76,-311.73 142.58,-315.25"/>
<polygon fill="#63b8ff" stroke="#63b8ff" points="267.71,-251.32 273.74,-242.61 263.59,-245.66 267.71,-251.32"/>
</a>
</g>
</g>
<!-- Node20 -->
<g id="Node000020" class="node">
<title>Node20</title>
<g id="a_Node000020"><a xlink:href="classsteppable_1_1Fraction.html#a1fa38ab4cede78e19fa478242f6e5b46" target="_top" xlink:title="Initializes a fraction with a specified top component and bottom component.">
<polygon fill="white" stroke="#666666" points="142.38,-293.5 33.38,-293.5 33.38,-260 142.38,-260 142.38,-293.5"/>
<text text-anchor="start" x="41.38" y="-280" font-family="Helvetica,sans-Serif" font-size="10.00">steppable::Fraction</text>
<text text-anchor="middle" x="87.88" y="-267.25" font-family="Helvetica,sans-Serif" font-size="10.00">::Fraction</text>
</a>
</g>
</g>
<!-- Node18&#45;&gt;Node20 -->
<g id="edge25_Node000018_Node000020" class="edge">
<title>Node18&#45;&gt;Node20</title>
<g id="a_edge25_Node000018_Node000020"><a xlink:title=" ">
<path fill="none" stroke="#63b8ff" d="M232.42,-240.91C203.57,-248.11 169.98,-256.5 142.55,-263.35"/>
<polygon fill="#63b8ff" stroke="#63b8ff" points="232.9,-244.39 241.76,-238.58 231.21,-237.6 232.9,-244.39"/>
</a>
</g>
</g>
<!-- Node21 -->
<g id="Node000021" class="node">
<title>Node21</title>
<g id="a_Node000021"><a xlink:href="classsteppable_1_1Fraction.html#a21eef8107e9cd1e590f7595c4ecbe147" target="_top" xlink:title="Multiplies two fractions together and stores the result in the current one. This function does it by ...">
<polygon fill="white" stroke="#666666" points="142.38,-241.5 33.38,-241.5 33.38,-208 142.38,-208 142.38,-241.5"/>
<text text-anchor="start" x="41.38" y="-228" font-family="Helvetica,sans-Serif" font-size="10.00">steppable::Fraction</text>
<text text-anchor="middle" x="87.88" y="-215.25" font-family="Helvetica,sans-Serif" font-size="10.00">::operator*=</text>
</a>
</g>
</g>
<!-- Node18&#45;&gt;Node21 -->
<g id="edge26_Node000018_Node000021" class="edge">
<title>Node18&#45;&gt;Node21</title>
<g id="a_edge26_Node000018_Node000021"><a xlink:title=" ">
<path fill="none" stroke="#63b8ff" d="M232.04,-224.75C203.27,-224.75 169.86,-224.75 142.55,-224.75"/>
<polygon fill="#63b8ff" stroke="#63b8ff" points="231.71,-228.25 241.71,-224.75 231.71,-221.25 231.71,-228.25"/>
</a>
</g>
</g>
<!-- Node22 -->
<g id="Node000022" class="node">
<title>Node22</title>
<g id="a_Node000022"><a xlink:href="classsteppable_1_1Fraction.html#ab10a5f43f6e60253ab6f4a097c73cf6e" target="_top" xlink:title="Adds two fractions together and stores the result in the current one. This function does it by doing ...">
<polygon fill="white" stroke="#666666" points="142.38,-189.5 33.38,-189.5 33.38,-156 142.38,-156 142.38,-189.5"/>
<text text-anchor="start" x="41.38" y="-176" font-family="Helvetica,sans-Serif" font-size="10.00">steppable::Fraction</text>
<text text-anchor="middle" x="87.88" y="-163.25" font-family="Helvetica,sans-Serif" font-size="10.00">::operator+=</text>
</a>
</g>
</g>
<!-- Node18&#45;&gt;Node22 -->
<g id="edge27_Node000018_Node000022" class="edge">
<title>Node18&#45;&gt;Node22</title>
<g id="a_edge27_Node000018_Node000022"><a xlink:title=" ">
<path fill="none" stroke="#63b8ff" d="M232.42,-208.59C203.57,-201.39 169.98,-193 142.55,-186.15"/>
<polygon fill="#63b8ff" stroke="#63b8ff" points="231.21,-211.9 241.76,-210.92 232.9,-205.11 231.21,-211.9"/>
</a>
</g>
</g>
<!-- Node23 -->
<g id="Node000023" class="node">
<title>Node23</title>
<g id="a_Node000023"><a xlink:href="classsteppable_1_1Fraction.html#aad3d96fbba7e7a0fa36c3f69f0463b8b" target="_top" xlink:title="Subtracts a fraction from another fraction and stores the result in the current one....">
<polygon fill="white" stroke="#666666" points="142.38,-137.5 33.38,-137.5 33.38,-104 142.38,-104 142.38,-137.5"/>
<text text-anchor="start" x="41.38" y="-124" font-family="Helvetica,sans-Serif" font-size="10.00">steppable::Fraction</text>
<text text-anchor="middle" x="87.88" y="-111.25" font-family="Helvetica,sans-Serif" font-size="10.00">::operator&#45;=</text>
</a>
</g>
</g>
<!-- Node18&#45;&gt;Node23 -->
<g id="edge28_Node000018_Node000023" class="edge">
<title>Node18&#45;&gt;Node23</title>
<g id="a_edge28_Node000018_Node000023"><a xlink:title=" ">
<path fill="none" stroke="#63b8ff" d="M265.77,-201.1C242.06,-184.1 208.15,-161.65 175.75,-146.75 165.31,-141.95 153.76,-137.77 142.58,-134.25"/>
<polygon fill="#63b8ff" stroke="#63b8ff" points="263.59,-203.84 273.74,-206.89 267.71,-198.18 263.59,-203.84"/>
</a>
</g>
</g>
<!-- Node24 -->
<g id="Node000024" class="node">
<title>Node24</title>
<g id="a_Node000024"><a xlink:href="classsteppable_1_1Fraction.html#a86913160c5f596b74be3007bd16bda6b" target="_top" xlink:title="Divides a fraction by abother fraction and stores the result in the current one. This function does i...">
<polygon fill="white" stroke="#666666" points="142.38,-85.5 33.38,-85.5 33.38,-52 142.38,-52 142.38,-85.5"/>
<text text-anchor="start" x="41.38" y="-72" font-family="Helvetica,sans-Serif" font-size="10.00">steppable::Fraction</text>
<text text-anchor="middle" x="87.88" y="-59.25" font-family="Helvetica,sans-Serif" font-size="10.00">::operator/=</text>
</a>
</g>
</g>
<!-- Node18&#45;&gt;Node24 -->
<g id="edge29_Node000018_Node000024" class="edge">
<title>Node18&#45;&gt;Node24</title>
<g id="a_edge29_Node000018_Node000024"><a xlink:title=" ">
<path fill="none" stroke="#63b8ff" d="M279.25,-198.45C257.92,-169.03 219.6,-121.95 175.75,-94.75 165.72,-88.53 154.11,-83.72 142.7,-80.03"/>
<polygon fill="#63b8ff" stroke="#63b8ff" points="276.29,-200.34 284.93,-206.46 282,-196.28 276.29,-200.34"/>
</a>
</g>
</g>
<!-- Node25 -->
<g id="Node000025" class="node">
<title>Node25</title>
<g id="a_Node000025"><a xlink:href="classsteppable_1_1Fraction.html#ac0a3d392ac70f42f74392fe08c1ab8be" target="_top" xlink:title="Raises the fraction to a power and stores the result in the current one.">
<polygon fill="white" stroke="#666666" points="142.38,-33.5 33.38,-33.5 33.38,0 142.38,0 142.38,-33.5"/>
<text text-anchor="start" x="41.38" y="-20" font-family="Helvetica,sans-Serif" font-size="10.00">steppable::Fraction</text>
<text text-anchor="middle" x="87.88" y="-7.25" font-family="Helvetica,sans-Serif" font-size="10.00">::operator^=</text>
</a>
</g>
</g>
<!-- Node18&#45;&gt;Node25 -->
<g id="edge30_Node000018_Node000025" class="edge">
<title>Node18&#45;&gt;Node25</title>
<g id="a_edge30_Node000018_Node000025"><a xlink:title=" ">
<path fill="none" stroke="#63b8ff" d="M285.96,-196.99C268.45,-156.98 230.76,-83.43 175.75,-42.75 166,-35.54 154.26,-30.32 142.6,-26.54"/>
<polygon fill="#63b8ff" stroke="#63b8ff" points="282.73,-198.34 289.86,-206.18 289.17,-195.6 282.73,-198.34"/>
</a>
</g>
</g>
<!-- Node26 -->
<g id="Node000026" class="node">
<title>Node26</title>
<g id="a_Node000026"><a xlink:href="classsteppable_1_1Fraction.html#a939fea669a7f630672f7215e77f335b6" target="_top" xlink:title="Returns the fraction as a string. The string is formatted as &quot;top/bottom&quot;, and it will automatically ...">
<polygon fill="white" stroke="#666666" points="142.38,-397.5 33.38,-397.5 33.38,-364 142.38,-364 142.38,-397.5"/>
<text text-anchor="start" x="41.38" y="-384" font-family="Helvetica,sans-Serif" font-size="10.00">steppable::Fraction</text>
<text text-anchor="middle" x="87.88" y="-371.25" font-family="Helvetica,sans-Serif" font-size="10.00">::present</text>
</a>
</g>
</g>
<!-- Node18&#45;&gt;Node26 -->
<g id="edge31_Node000018_Node000026" class="edge">
<title>Node18&#45;&gt;Node26</title>
<g id="a_edge31_Node000018_Node000026"><a xlink:title=" ">
<path fill="none" stroke="#63b8ff" d="M258.14,-248.11C242.43,-258.82 224.94,-272.53 211.75,-287.75 189.61,-313.3 201.94,-333.38 175.75,-354.75 166.23,-362.51 154.45,-367.96 142.67,-371.78"/>
<polygon fill="#63b8ff" stroke="#63b8ff" points="259.96,-251.1 266.38,-242.67 256.11,-245.26 259.96,-251.1"/>
</a>
</g>
</g>
<!-- Node30&#45;&gt;Node18 -->
<g id="edge41_Node000030_Node000018" class="edge">
<title>Node30&#45;&gt;Node18</title>
<g id="a_edge41_Node000030_Node000018"><a xlink:title=" ">
<path fill="none" stroke="#63b8ff" d="M1108.21,-224.75C1044.06,-224.75 947.72,-224.75 863.88,-224.75 863.88,-224.75 863.88,-224.75 671.5,-224.75 558.2,-224.75 425.52,-224.75 353.08,-224.75"/>
<polygon fill="#63b8ff" stroke="#63b8ff" points="1107.89,-228.25 1117.89,-224.75 1107.89,-221.25 1107.89,-228.25"/>
</a>
</g>
</g>
<!-- Node30&#45;&gt;Node30 -->
<g id="edge40_Node000030_Node000030" class="edge">
<title>Node30&#45;&gt;Node30</title>
<g id="a_edge40_Node000030_Node000030"><a xlink:title=" ">
<path fill="none" stroke="#63b8ff" d="M1208.11,-252.89C1203.76,-256.85 1194.85,-259.5 1181.38,-259.5 1157.43,-259.5 1147.88,-251.12 1152.75,-241.91"/>
<polygon fill="#63b8ff" stroke="#63b8ff" points="1211.5,-253.85 1209.75,-243.41 1204.6,-252.67 1211.5,-253.85"/>
</a>
</g>
</g>
</g>
</svg>
