<?xml version="1.0" encoding="UTF-8" standalone="no"?>
<!DOCTYPE svg PUBLIC "-//W3C//DTD SVG 1.1//EN"
 "http://www.w3.org/Graphics/SVG/1.1/DTD/svg11.dtd">
<!-- Generated by graphviz version 12.2.1 (20241206.2353)
 -->
<!-- Title: ImGui::DestroyPlatformWindow Pages: 1 -->
<svg width="747pt" height="111pt"
 viewBox="0.00 0.00 747.00 110.75" xmlns="http://www.w3.org/2000/svg" xmlns:xlink="http://www.w3.org/1999/xlink">
<g id="graph0" class="graph" transform="scale(1 1) rotate(0) translate(4 106.75)">
<title>ImGui::DestroyPlatformWindow</title>
<!-- Node1 -->
<g id="Node000001" class="node">
<title>Node1</title>
<g id="a_Node000001"><a xlink:title=" ">
<polygon fill="#999999" stroke="#666666" points="739,-59.75 568.5,-59.75 568.5,-39 739,-39 739,-59.75"/>
<text text-anchor="middle" x="653.75" y="-46.25" font-family="Helvetica,sans-Serif" font-size="10.00">ImGui::DestroyPlatformWindow</text>
</a>
</g>
</g>
<!-- Node2 -->
<g id="Node000002" class="node">
<title>Node2</title>
<g id="a_Node000002"><a xlink:href="namespaceImGui.html#aec24353cab7c663fbb44f1e6d8b50ead" target="_top" xlink:title=" ">
<polygon fill="white" stroke="#666666" points="532.5,-101.75 356.75,-101.75 356.75,-81 532.5,-81 532.5,-101.75"/>
<text text-anchor="middle" x="444.62" y="-88.25" font-family="Helvetica,sans-Serif" font-size="10.00">ImGui::DestroyPlatformWindows</text>
</a>
</g>
</g>
<!-- Node1&#45;&gt;Node2 -->
<g id="edge1_Node000001_Node000002" class="edge">
<title>Node1&#45;&gt;Node2</title>
<g id="a_edge1_Node000001_Node000002"><a xlink:title=" ">
<path fill="none" stroke="#63b8ff" d="M588.02,-62.5C559.41,-68.3 526.17,-75.04 499.01,-80.55"/>
<polygon fill="#63b8ff" stroke="#63b8ff" points="588.55,-65.96 597.66,-60.55 587.16,-59.1 588.55,-65.96"/>
</a>
</g>
</g>
<!-- Node5 -->
<g id="Node000005" class="node">
<title>Node5</title>
<g id="a_Node000005"><a xlink:href="namespaceImGui.html#aa6faf5098cc919749b1673a7a6d8db10" target="_top" xlink:title=" ">
<polygon fill="white" stroke="#666666" points="511.12,-59.75 378.12,-59.75 378.12,-39 511.12,-39 511.12,-59.75"/>
<text text-anchor="middle" x="444.62" y="-46.25" font-family="Helvetica,sans-Serif" font-size="10.00">ImGui::DestroyViewport</text>
</a>
</g>
</g>
<!-- Node1&#45;&gt;Node5 -->
<g id="edge4_Node000001_Node000005" class="edge">
<title>Node1&#45;&gt;Node5</title>
<g id="a_edge4_Node000001_Node000005"><a xlink:title=" ">
<path fill="none" stroke="#63b8ff" d="M557.05,-49.38C541.64,-49.38 526,-49.38 511.5,-49.38"/>
<polygon fill="#63b8ff" stroke="#63b8ff" points="556.69,-52.88 566.69,-49.38 556.69,-45.88 556.69,-52.88"/>
</a>
</g>
</g>
<!-- Node8 -->
<g id="Node000008" class="node">
<title>Node8</title>
<g id="a_Node000008"><a xlink:href="namespaceImGui.html#aec5bbce3200aa681dac6a1915ef07f60" target="_top" xlink:title=" ">
<polygon fill="white" stroke="#666666" points="531,-20.75 358.25,-20.75 358.25,0 531,0 531,-20.75"/>
<text text-anchor="middle" x="444.62" y="-7.25" font-family="Helvetica,sans-Serif" font-size="10.00">ImGui::UpdatePlatformWindows</text>
</a>
</g>
</g>
<!-- Node1&#45;&gt;Node8 -->
<g id="edge7_Node000001_Node000008" class="edge">
<title>Node1&#45;&gt;Node8</title>
<g id="a_edge7_Node000001_Node000008"><a xlink:title=" ">
<path fill="none" stroke="#63b8ff" d="M584.07,-36.44C557.92,-31.52 528.41,-25.96 503.37,-21.25"/>
<polygon fill="#63b8ff" stroke="#63b8ff" points="583.09,-39.82 593.57,-38.23 584.39,-32.94 583.09,-39.82"/>
</a>
</g>
</g>
<!-- Node3 -->
<g id="Node000003" class="node">
<title>Node3</title>
<g id="a_Node000003"><a xlink:href="namespaceImGui.html#aeba34069558d4fbcf734a9c92ce3b773" target="_top" xlink:title=" ">
<polygon fill="white" stroke="#666666" points="291.88,-102.75 192.62,-102.75 192.62,-82 291.88,-82 291.88,-102.75"/>
<text text-anchor="middle" x="242.25" y="-89.25" font-family="Helvetica,sans-Serif" font-size="10.00">ImGui::Shutdown</text>
</a>
</g>
</g>
<!-- Node2&#45;&gt;Node3 -->
<g id="edge2_Node000002_Node000003" class="edge">
<title>Node2&#45;&gt;Node3</title>
<g id="a_edge2_Node000002_Node000003"><a xlink:title=" ">
<path fill="none" stroke="#63b8ff" d="M344.96,-91.87C326.66,-91.96 308.29,-92.05 292.3,-92.13"/>
<polygon fill="#63b8ff" stroke="#63b8ff" points="344.82,-95.37 354.81,-91.82 344.79,-88.37 344.82,-95.37"/>
</a>
</g>
</g>
<!-- Node4 -->
<g id="Node000004" class="node">
<title>Node4</title>
<g id="a_Node000004"><a xlink:href="namespaceImGui.html#ab9132deece575023170cd8e681d0581d" target="_top" xlink:title=" ">
<polygon fill="white" stroke="#666666" points="127.75,-102.75 0,-102.75 0,-82 127.75,-82 127.75,-102.75"/>
<text text-anchor="middle" x="63.88" y="-89.25" font-family="Helvetica,sans-Serif" font-size="10.00">ImGui::DestroyContext</text>
</a>
</g>
</g>
<!-- Node3&#45;&gt;Node4 -->
<g id="edge3_Node000003_Node000004" class="edge">
<title>Node3&#45;&gt;Node4</title>
<g id="a_edge3_Node000003_Node000004"><a xlink:title=" ">
<path fill="none" stroke="#63b8ff" d="M181.52,-92.38C164.26,-92.38 145.38,-92.38 127.93,-92.38"/>
<polygon fill="#63b8ff" stroke="#63b8ff" points="181.07,-95.88 191.07,-92.38 181.07,-88.88 181.07,-95.88"/>
</a>
</g>
</g>
<!-- Node6 -->
<g id="Node000006" class="node">
<title>Node6</title>
<g id="a_Node000006"><a xlink:href="namespaceImGui.html#adb4972997c580544e6f850d3eadf16ab" target="_top" xlink:title=" ">
<polygon fill="white" stroke="#666666" points="320.75,-64.12 163.75,-64.12 163.75,-30.62 320.75,-30.62 320.75,-64.12"/>
<text text-anchor="start" x="171.75" y="-50.62" font-family="Helvetica,sans-Serif" font-size="10.00">ImGui::UpdateViewportsNew</text>
<text text-anchor="middle" x="242.25" y="-37.88" font-family="Helvetica,sans-Serif" font-size="10.00">Frame</text>
</a>
</g>
</g>
<!-- Node5&#45;&gt;Node6 -->
<g id="edge5_Node000005_Node000006" class="edge">
<title>Node5&#45;&gt;Node6</title>
<g id="a_edge5_Node000005_Node000006"><a xlink:title=" ">
<path fill="none" stroke="#63b8ff" d="M366.5,-48.61C351.59,-48.46 335.95,-48.3 321.02,-48.15"/>
<polygon fill="#63b8ff" stroke="#63b8ff" points="366.19,-52.1 376.22,-48.7 366.26,-45.1 366.19,-52.1"/>
</a>
</g>
</g>
<!-- Node7 -->
<g id="Node000007" class="node">
<title>Node7</title>
<g id="a_Node000007"><a xlink:href="namespaceImGui.html#ab3f1fc018f903b7ad79fd10663375774" target="_top" xlink:title=" ">
<polygon fill="white" stroke="#666666" points="115.75,-57.75 12,-57.75 12,-37 115.75,-37 115.75,-57.75"/>
<text text-anchor="middle" x="63.88" y="-44.25" font-family="Helvetica,sans-Serif" font-size="10.00">ImGui::NewFrame</text>
</a>
</g>
</g>
<!-- Node6&#45;&gt;Node7 -->
<g id="edge6_Node000006_Node000007" class="edge">
<title>Node6&#45;&gt;Node7</title>
<g id="a_edge6_Node000006_Node000007"><a xlink:title=" ">
<path fill="none" stroke="#63b8ff" d="M152.1,-47.38C139.81,-47.38 127.53,-47.38 116.24,-47.38"/>
<polygon fill="#63b8ff" stroke="#63b8ff" points="151.86,-50.88 161.86,-47.38 151.86,-43.88 151.86,-50.88"/>
</a>
</g>
</g>
</g>
</svg>
