<?xml version="1.0" encoding="UTF-8" standalone="no"?>
<!DOCTYPE svg PUBLIC "-//W3C//DTD SVG 1.1//EN"
 "http://www.w3.org/Graphics/SVG/1.1/DTD/svg11.dtd">
<!-- Generated by graphviz version 12.2.0 (20241103.1931)
 -->
<!-- Title: ImGui::DataTypeClamp Pages: 1 -->
<!--zoomable 917 -->

<svg id="main" version="1.1" xmlns="http://www.w3.org/2000/svg" xmlns:xlink="http://www.w3.org/1999/xlink" xml:space="preserve" onload="init(evt)">

<style type="text/css"><![CDATA[
.node, .edge {opacity: 0.7;}
.node.selected, .edge.selected {opacity: 1;}
.edge:hover path { stroke: red; }
.edge:hover polygon { stroke: red; fill: red; }
]]></style>

<defs>
  <circle id="rim" cx="0" cy="0" r="7"/>
  <circle id="rim2" cx="0" cy="0" r="3.5"/>
  <g id="zoomPlus">
    <use xlink:href="#rim" fill="#404040"><set attributeName="fill" to="#808080" begin="zoomplus.mouseover" end="zoomplus.mouseout"/></use>
    <path d="M-4,0h8M0,-4v8" fill="none" stroke="white" stroke-width="1.5" pointer-events="none"/>
  </g>
  <g id="zoomMin">
    <use xlink:href="#rim" fill="#404040"><set attributeName="fill" to="#808080" begin="zoomminus.mouseover" end="zoomminus.mouseout"/></use>
    <path d="M-4,0h8" fill="none" stroke="white" stroke-width="1.5" pointer-events="none"/>
  </g>
  <g id="arrowUp" transform="translate(30 24)">
    <use xlink:href="#rim"/>
    <path pointer-events="none" fill="none" stroke="white" stroke-width="1.5" d="M0,-3.0v7 M-2.5,-0.5L0,-3.0L2.5,-0.5"/>
  </g>
  <g id="arrowRight" transform="rotate(90) translate(36 -43)">
    <use xlink:href="#rim"/>
    <path pointer-events="none" fill="none" stroke="white" stroke-width="1.5" d="M0,-3.0v7 M-2.5,-0.5L0,-3.0L2.5,-0.5"/>
  </g>
  <g id="arrowDown" transform="rotate(180) translate(-30 -48)">
    <use xlink:href="#rim"/>
    <path pointer-events="none" fill="none" stroke="white" stroke-width="1.5" d="M0,-3.0v7 M-2.5,-0.5L0,-3.0L2.5,-0.5"/>
  </g>
  <g id="arrowLeft" transform="rotate(270) translate(-36 17)">
    <use xlink:href="#rim"/>
    <path pointer-events="none" fill="none" stroke="white" stroke-width="1.5" d="M0,-3.0v7 M-2.5,-0.5L0,-3.0L2.5,-0.5"/>
  </g>
  <g id="resetDef">
    <use xlink:href="#rim2" fill="#404040"><set attributeName="fill" to="#808080" begin="reset.mouseover" end="reset.mouseout"/></use>
  </g>
</defs>
<script type="application/ecmascript">
var viewWidth = 1336;
var viewHeight = 917;
var sectionId = 'dynsection-179';
</script>
<script type="application/ecmascript" xlink:href="svg.min.js"/>
<svg id="graph" class="graph">
<g id="viewport">
<title>ImGui::DataTypeClamp</title>
<!-- Node1 -->
<g id="Node000001" class="node">
<title>Node1</title>
<g id="a_Node000001"><a xlink:title=" ">
<polygon fill="#999999" stroke="#666666" points="1328,-639.75 1199.5,-639.75 1199.5,-619 1328,-619 1328,-639.75"/>
<text text-anchor="middle" x="1263.75" y="-626.25" font-family="Helvetica,sans-Serif" font-size="10.00">ImGui::DataTypeClamp</text>
</a>
</g>
</g>
<!-- Node2 -->
<g id="Node000002" class="node">
<title>Node2</title>
<g id="a_Node000002"><a xlink:href="namespaceImGui.html#a392fed3e7db2a75abf217bf84c6abce9" target="_top" xlink:title=" ">
<polygon fill="white" stroke="#666666" points="1163.5,-639.75 1031.25,-639.75 1031.25,-619 1163.5,-619 1163.5,-639.75"/>
<text text-anchor="middle" x="1097.38" y="-626.25" font-family="Helvetica,sans-Serif" font-size="10.00">ImGui::TempInputScalar</text>
</a>
</g>
</g>
<!-- Node1&#45;&gt;Node2 -->
<g id="edge1_Node000001_Node000002" class="edge">
<title>Node1&#45;&gt;Node2</title>
<g id="a_edge1_Node000001_Node000002"><a xlink:title=" ">
<path fill="none" stroke="#63b8ff" d="M1187.96,-629.38C1179.94,-629.38 1171.83,-629.38 1163.93,-629.38"/>
<polygon fill="#63b8ff" stroke="#63b8ff" points="1187.68,-632.88 1197.68,-629.38 1187.68,-625.88 1187.68,-632.88"/>
</a>
</g>
</g>
<!-- Node3 -->
<g id="Node000003" class="node">
<title>Node3</title>
<g id="a_Node000003"><a xlink:href="namespaceImGui.html#a17d8926e8f44a6d00575b12081c51fe0" target="_top" xlink:title=" ">
<polygon fill="white" stroke="#666666" points="995.25,-658.75 890.75,-658.75 890.75,-638 995.25,-638 995.25,-658.75"/>
<text text-anchor="middle" x="943" y="-645.25" font-family="Helvetica,sans-Serif" font-size="10.00">ImGui::DragScalar</text>
</a>
</g>
</g>
<!-- Node2&#45;&gt;Node3 -->
<g id="edge2_Node000002_Node000003" class="edge">
<title>Node2&#45;&gt;Node3</title>
<g id="a_edge2_Node000002_Node000003"><a xlink:title=" ">
<path fill="none" stroke="#63b8ff" d="M1019.48,-638.96C1011.41,-639.97 1003.34,-640.98 995.65,-641.93"/>
<polygon fill="#63b8ff" stroke="#63b8ff" points="1019.88,-642.44 1029.37,-637.73 1019.01,-635.49 1019.88,-642.44"/>
</a>
</g>
</g>
<!-- Node28 -->
<g id="Node000028" class="node">
<title>Node28</title>
<g id="a_Node000028"><a xlink:href="namespaceImGui.html#afdd7faa9a69f75b8d674cdc207441bea" target="_top" xlink:title=" ">
<polygon fill="white" stroke="#666666" points="841.25,-620.75 732.25,-620.75 732.25,-600 841.25,-600 841.25,-620.75"/>
<text text-anchor="middle" x="786.75" y="-607.25" font-family="Helvetica,sans-Serif" font-size="10.00">ImGui::SliderScalar</text>
</a>
</g>
</g>
<!-- Node2&#45;&gt;Node28 -->
<g id="edge34_Node000002_Node000028" class="edge">
<title>Node2&#45;&gt;Node28</title>
<g id="a_edge34_Node000002_Node000028"><a xlink:title=" ">
<path fill="none" stroke="#63b8ff" d="M1019.72,-624.66C964.22,-621.24 890.58,-616.71 841.3,-613.67"/>
<polygon fill="#63b8ff" stroke="#63b8ff" points="1019.22,-628.13 1029.41,-625.25 1019.65,-621.14 1019.22,-628.13"/>
</a>
</g>
</g>
<!-- Node4 -->
<g id="Node000004" class="node">
<title>Node4</title>
<g id="a_Node000004"><a xlink:href="namespaceImGui.html#aab1b20e7bf98aa7bbdb26f8cd3ad91e6" target="_top" xlink:title=" ">
<polygon fill="white" stroke="#666666" points="836.38,-740.75 737.12,-740.75 737.12,-720 836.38,-720 836.38,-740.75"/>
<text text-anchor="middle" x="786.75" y="-727.25" font-family="Helvetica,sans-Serif" font-size="10.00">ImGui::DragFloat</text>
</a>
</g>
</g>
<!-- Node3&#45;&gt;Node4 -->
<g id="edge3_Node000003_Node000004" class="edge">
<title>Node3&#45;&gt;Node4</title>
<g id="a_edge3_Node000003_Node000004"><a xlink:title=" ">
<path fill="none" stroke="#63b8ff" d="M911.7,-664.48C881,-680.8 834.37,-705.59 807.92,-719.65"/>
<polygon fill="#63b8ff" stroke="#63b8ff" points="913.31,-667.59 920.5,-659.81 910.03,-661.41 913.31,-667.59"/>
</a>
</g>
</g>
<!-- Node16 -->
<g id="Node000016" class="node">
<title>Node16</title>
<g id="a_Node000016"><a xlink:href="namespaceImGui.html#aa6bfd93ead5c47e84b66185da88b8e8c" target="_top" xlink:title=" ">
<polygon fill="white" stroke="#666666" points="854.75,-544.75 718.75,-544.75 718.75,-524 854.75,-524 854.75,-544.75"/>
<text text-anchor="middle" x="786.75" y="-531.25" font-family="Helvetica,sans-Serif" font-size="10.00">ImGui::DragFloatRange2</text>
</a>
</g>
</g>
<!-- Node3&#45;&gt;Node16 -->
<g id="edge20_Node000003_Node000016" class="edge">
<title>Node3&#45;&gt;Node16</title>
<g id="a_edge20_Node000003_Node000016"><a xlink:title=" ">
<path fill="none" stroke="#63b8ff" d="M927.46,-628.76C911.59,-608.6 884.46,-577.52 854.75,-558.38 846.44,-553.02 836.78,-548.67 827.43,-545.22"/>
<polygon fill="#63b8ff" stroke="#63b8ff" points="924.52,-630.68 933.38,-636.49 930.07,-626.42 924.52,-630.68"/>
</a>
</g>
</g>
<!-- Node17 -->
<g id="Node000017" class="node">
<title>Node17</title>
<g id="a_Node000017"><a xlink:href="namespaceImGui.html#a3714db739ae51fc75601d7fad234a58b" target="_top" xlink:title=" ">
<polygon fill="white" stroke="#666666" points="830.38,-681.75 743.12,-681.75 743.12,-661 830.38,-661 830.38,-681.75"/>
<text text-anchor="middle" x="786.75" y="-668.25" font-family="Helvetica,sans-Serif" font-size="10.00">ImGui::DragInt</text>
</a>
</g>
</g>
<!-- Node3&#45;&gt;Node17 -->
<g id="edge21_Node000003_Node000017" class="edge">
<title>Node3&#45;&gt;Node17</title>
<g id="a_edge21_Node000003_Node000017"><a xlink:title=" ">
<path fill="none" stroke="#63b8ff" d="M879.47,-657.7C863.08,-660.14 845.77,-662.72 830.66,-664.98"/>
<polygon fill="#63b8ff" stroke="#63b8ff" points="879.77,-661.19 889.14,-656.26 878.73,-654.27 879.77,-661.19"/>
</a>
</g>
</g>
<!-- Node19 -->
<g id="Node000019" class="node">
<title>Node19</title>
<g id="a_Node000019"><a xlink:href="namespaceImGui.html#a1265d2b30ced1fca909e26c8f718fcbd" target="_top" xlink:title=" ">
<polygon fill="white" stroke="#666666" points="674.12,-157.75 562.12,-157.75 562.12,-137 674.12,-137 674.12,-157.75"/>
<text text-anchor="middle" x="618.12" y="-144.25" font-family="Helvetica,sans-Serif" font-size="10.00">ImGui::DragScalarN</text>
</a>
</g>
</g>
<!-- Node3&#45;&gt;Node19 -->
<g id="edge24_Node000003_Node000019" class="edge">
<title>Node3&#45;&gt;Node19</title>
<g id="a_edge24_Node000003_Node000019"><a xlink:title=" ">
<path fill="none" stroke="#63b8ff" d="M919.46,-630.87C902.47,-618.38 878.17,-601.99 854.75,-591.38 797.59,-565.47 761.92,-598.93 718.75,-553.38 668.02,-499.84 700.06,-463.07 682.75,-391.38 660.87,-300.73 631.35,-192.01 622.06,-158.04"/>
<polygon fill="#63b8ff" stroke="#63b8ff" points="917.25,-633.59 927.35,-636.79 921.45,-627.99 917.25,-633.59"/>
</a>
</g>
</g>
<!-- Node5 -->
<g id="Node000005" class="node">
<title>Node5</title>
<g id="a_Node000005"><a xlink:href="namespaceImGui.html#ac3f45e2aa0b1d591cc8a2cdf8b566a45" target="_top" xlink:title=" ">
<polygon fill="white" stroke="#666666" points="668.88,-816.75 567.38,-816.75 567.38,-796 668.88,-796 668.88,-816.75"/>
<text text-anchor="middle" x="618.12" y="-803.25" font-family="Helvetica,sans-Serif" font-size="10.00">ImGui::ColorEdit4</text>
</a>
</g>
</g>
<!-- Node4&#45;&gt;Node5 -->
<g id="edge4_Node000004_Node000005" class="edge">
<title>Node4&#45;&gt;Node5</title>
<g id="a_edge4_Node000004_Node000005"><a xlink:title=" ">
<path fill="none" stroke="#63b8ff" d="M751.88,-745.82C719.43,-760.62 671.31,-782.57 642.79,-795.58"/>
<polygon fill="#63b8ff" stroke="#63b8ff" points="753.21,-749.07 760.85,-741.73 750.3,-742.7 753.21,-749.07"/>
</a>
</g>
</g>
<!-- Node11 -->
<g id="Node000011" class="node">
<title>Node11</title>
<g id="a_Node000011"><a xlink:href="namespaceImGui.html#ab2eb3dec78d054fe3feab1c091ec5de5" target="_top" xlink:title=" ">
<polygon fill="white" stroke="#666666" points="323.38,-682.75 192.62,-682.75 192.62,-662 323.38,-662 323.38,-682.75"/>
<text text-anchor="middle" x="258" y="-669.25" font-family="Helvetica,sans-Serif" font-size="10.00">ImGui::ShowStyleEditor</text>
</a>
</g>
</g>
<!-- Node4&#45;&gt;Node11 -->
<g id="edge19_Node000004_Node000011" class="edge">
<title>Node4&#45;&gt;Node11</title>
<g id="a_edge19_Node000004_Node000011"><a xlink:title=" ">
<path fill="none" stroke="#63b8ff" d="M730.85,-743.6C648.63,-760.55 490.34,-782.03 370.25,-730.38 348.88,-721.18 354.25,-704.26 334.25,-692.38 327.97,-688.65 321,-685.6 313.9,-683.12"/>
<polygon fill="#63b8ff" stroke="#63b8ff" points="731.4,-747.06 740.45,-741.56 729.95,-740.21 731.4,-747.06"/>
</a>
</g>
</g>
<!-- Node13 -->
<g id="Node000013" class="node">
<title>Node13</title>
<g id="a_Node000013"><a xlink:href="namespaceImGui.html#ae0207d60728f7e6a47dbcd1d7d84e3cb" target="_top" xlink:title=" ">
<polygon fill="white" stroke="#666666" points="682.75,-721.75 553.5,-721.75 553.5,-701 682.75,-701 682.75,-721.75"/>
<text text-anchor="middle" x="618.12" y="-708.25" font-family="Helvetica,sans-Serif" font-size="10.00">ImGui::DebugNodeFont</text>
</a>
</g>
</g>
<!-- Node4&#45;&gt;Node13 -->
<g id="edge14_Node000004_Node000013" class="edge">
<title>Node4&#45;&gt;Node13</title>
<g id="a_edge14_Node000004_Node000013"><a xlink:title=" ">
<path fill="none" stroke="#63b8ff" d="M725.35,-723.49C711.59,-721.92 696.92,-720.25 683.02,-718.66"/>
<polygon fill="#63b8ff" stroke="#63b8ff" points="724.82,-726.95 735.15,-724.61 725.62,-720 724.82,-726.95"/>
</a>
</g>
</g>
<!-- Node6 -->
<g id="Node000006" class="node">
<title>Node6</title>
<g id="a_Node000006"><a xlink:href="namespaceImGui.html#a5afe76ba1c91f07363e40396e7df656e" target="_top" xlink:title=" ">
<polygon fill="white" stroke="#666666" points="494.62,-899.75 393.12,-899.75 393.12,-879 494.62,-879 494.62,-899.75"/>
<text text-anchor="middle" x="443.88" y="-886.25" font-family="Helvetica,sans-Serif" font-size="10.00">ImGui::ColorEdit3</text>
</a>
</g>
</g>
<!-- Node5&#45;&gt;Node6 -->
<g id="edge5_Node000005_Node000006" class="edge">
<title>Node5&#45;&gt;Node6</title>
<g id="a_edge5_Node000005_Node000006"><a xlink:title=" ">
<path fill="none" stroke="#63b8ff" d="M584.63,-822.04C550.37,-838.54 497.32,-864.1 467.4,-878.52"/>
<polygon fill="#63b8ff" stroke="#63b8ff" points="585.75,-825.38 593.24,-817.88 582.71,-819.07 585.75,-825.38"/>
</a>
</g>
</g>
<!-- Node8 -->
<g id="Node000008" class="node">
<title>Node8</title>
<g id="a_Node000008"><a xlink:href="namespaceImGui.html#a3d5aae9e0a14aa051d5a799abbe97b32" target="_top" xlink:title=" ">
<polygon fill="white" stroke="#666666" points="499.88,-835.75 387.88,-835.75 387.88,-815 499.88,-815 499.88,-835.75"/>
<text text-anchor="middle" x="443.88" y="-822.25" font-family="Helvetica,sans-Serif" font-size="10.00">ImGui::ColorPicker4</text>
</a>
</g>
</g>
<!-- Node5&#45;&gt;Node8 -->
<g id="edge7_Node000005_Node000008" class="edge">
<title>Node5&#45;&gt;Node8</title>
<g id="a_edge7_Node000005_Node000008"><a xlink:title=" ">
<path fill="none" stroke="#63b8ff" d="M556,-806.63C533.89,-808.59 509.38,-811.47 489.02,-814.53"/>
<polygon fill="#63b8ff" stroke="#63b8ff" points="556.12,-810.13 565.79,-805.81 555.54,-803.15 556.12,-810.13"/>
</a>
</g>
</g>
<!-- Node5&#45;&gt;Node11 -->
<g id="edge12_Node000005_Node000011" class="edge">
<title>Node5&#45;&gt;Node11</title>
<g id="a_edge12_Node000005_Node000011"><a xlink:title=" ">
<path fill="none" stroke="#63b8ff" d="M555.55,-801.93C492.23,-796.28 398.94,-784.6 370.25,-763.38 341.81,-742.33 361.75,-714.64 334.25,-692.38 329.63,-688.63 324.37,-685.58 318.84,-683.1"/>
<polygon fill="#63b8ff" stroke="#63b8ff" points="555.23,-805.42 565.49,-802.79 555.83,-798.44 555.23,-805.42"/>
</a>
</g>
</g>
<!-- Node7 -->
<g id="Node000007" class="node">
<title>Node7</title>
<g id="a_Node000007"><a xlink:href="structExampleAppDocuments.html#a007a1a59693a3c7fc7d87815e022dbe4" target="_top" xlink:title=" ">
<polygon fill="white" stroke="#666666" points="324.5,-909.12 191.5,-909.12 191.5,-875.62 324.5,-875.62 324.5,-909.12"/>
<text text-anchor="start" x="199.5" y="-895.62" font-family="Helvetica,sans-Serif" font-size="10.00">ExampleAppDocuments</text>
<text text-anchor="middle" x="258" y="-882.88" font-family="Helvetica,sans-Serif" font-size="10.00">::DisplayDocContents</text>
</a>
</g>
</g>
<!-- Node6&#45;&gt;Node7 -->
<g id="edge6_Node000006_Node000007" class="edge">
<title>Node6&#45;&gt;Node7</title>
<g id="a_edge6_Node000006_Node000007"><a xlink:title=" ">
<path fill="none" stroke="#63b8ff" d="M381.28,-890.38C363.1,-890.68 343.14,-891 324.72,-891.3"/>
<polygon fill="#63b8ff" stroke="#63b8ff" points="381.18,-893.88 391.12,-890.22 381.06,-886.88 381.18,-893.88"/>
</a>
</g>
</g>
<!-- Node8&#45;&gt;Node5 -->
<g id="edge8_Node000008_Node000005" class="edge">
<title>Node8&#45;&gt;Node5</title>
<g id="a_edge8_Node000008_Node000005"><a xlink:title=" ">
<path fill="none" stroke="#63b8ff" d="M511.45,-824.62C532.16,-822.68 554.46,-820.01 573.21,-817.19"/>
<polygon fill="#63b8ff" stroke="#63b8ff" points="511.3,-821.12 501.65,-825.49 511.92,-828.1 511.3,-821.12"/>
</a>
</g>
</g>
<!-- Node9 -->
<g id="Node000009" class="node">
<title>Node9</title>
<g id="a_Node000009"><a xlink:href="namespaceImGui.html#a2a2a98cb9a17b18702be6b954670b388" target="_top" xlink:title=" ">
<polygon fill="white" stroke="#666666" points="314,-857.75 202,-857.75 202,-837 314,-837 314,-857.75"/>
<text text-anchor="middle" x="258" y="-844.25" font-family="Helvetica,sans-Serif" font-size="10.00">ImGui::ColorPicker3</text>
</a>
</g>
</g>
<!-- Node8&#45;&gt;Node9 -->
<g id="edge9_Node000008_Node000009" class="edge">
<title>Node8&#45;&gt;Node9</title>
<g id="a_edge9_Node000008_Node000009"><a xlink:title=" ">
<path fill="none" stroke="#63b8ff" d="M376.32,-833.34C356.02,-835.77 333.93,-838.41 314.45,-840.74"/>
<polygon fill="#63b8ff" stroke="#63b8ff" points="376.69,-836.82 386.2,-832.16 375.86,-829.87 376.69,-836.82"/>
</a>
</g>
</g>
<!-- Node10 -->
<g id="Node000010" class="node">
<title>Node10</title>
<g id="a_Node000010"><a xlink:href="namespaceImGui.html#a6d112eeb6d8ffdebbc9d9a8c66babbee" target="_top" xlink:title=" ">
<polygon fill="white" stroke="#666666" points="329.75,-819.12 186.25,-819.12 186.25,-785.62 329.75,-785.62 329.75,-819.12"/>
<text text-anchor="start" x="194.25" y="-805.62" font-family="Helvetica,sans-Serif" font-size="10.00">ImGui::ColorPickerOptions</text>
<text text-anchor="middle" x="258" y="-792.88" font-family="Helvetica,sans-Serif" font-size="10.00">Popup</text>
</a>
</g>
</g>
<!-- Node8&#45;&gt;Node10 -->
<g id="edge10_Node000008_Node000010" class="edge">
<title>Node8&#45;&gt;Node10</title>
<g id="a_edge10_Node000008_Node000010"><a xlink:title=" ">
<path fill="none" stroke="#63b8ff" d="M390.72,-812.7C371.87,-809.74 350.26,-806.89 330.06,-804.67"/>
<polygon fill="#63b8ff" stroke="#63b8ff" points="390.14,-816.15 400.57,-814.31 391.27,-809.24 390.14,-816.15"/>
</a>
</g>
</g>
<!-- Node10&#45;&gt;Node8 -->
<g id="edge11_Node000010_Node000008" class="edge">
<title>Node10&#45;&gt;Node8</title>
<g id="a_edge11_Node000010_Node000008"><a xlink:title=" ">
<path fill="none" stroke="#63b8ff" d="M341.46,-819.41C357.12,-821.47 373.15,-823.32 387.71,-824.72"/>
<polygon fill="#63b8ff" stroke="#63b8ff" points="342.03,-815.95 331.65,-818.07 341.09,-822.89 342.03,-815.95"/>
</a>
</g>
</g>
<!-- Node12 -->
<g id="Node000012" class="node">
<title>Node12</title>
<g id="a_Node000012"><a xlink:href="namespaceImGui.html#af95643a0ce4893b9e57c12991922fb18" target="_top" xlink:title=" ">
<polygon fill="white" stroke="#666666" points="145.75,-682.75 0,-682.75 0,-662 145.75,-662 145.75,-682.75"/>
<text text-anchor="middle" x="72.88" y="-669.25" font-family="Helvetica,sans-Serif" font-size="10.00">ImGui::ShowDemoWindow</text>
</a>
</g>
</g>
<!-- Node11&#45;&gt;Node12 -->
<g id="edge13_Node000011_Node000012" class="edge">
<title>Node11&#45;&gt;Node12</title>
<g id="a_edge13_Node000011_Node000012"><a xlink:title=" ">
<path fill="none" stroke="#63b8ff" d="M180.82,-672.38C169.33,-672.38 157.5,-672.38 146.09,-672.38"/>
<polygon fill="#63b8ff" stroke="#63b8ff" points="180.67,-675.88 190.67,-672.38 180.67,-668.88 180.67,-675.88"/>
</a>
</g>
</g>
<!-- Node14 -->
<g id="Node000014" class="node">
<title>Node14</title>
<g id="a_Node000014"><a xlink:href="namespaceImGui.html#acab51ec2b39577845309f24535381038" target="_top" xlink:title=" ">
<polygon fill="white" stroke="#666666" points="505.5,-721.75 382.25,-721.75 382.25,-701 505.5,-701 505.5,-721.75"/>
<text text-anchor="middle" x="443.88" y="-708.25" font-family="Helvetica,sans-Serif" font-size="10.00">ImGui::ShowFontAtlas</text>
</a>
</g>
</g>
<!-- Node13&#45;&gt;Node14 -->
<g id="edge15_Node000013_Node000014" class="edge">
<title>Node13&#45;&gt;Node14</title>
<g id="a_edge15_Node000013_Node000014"><a xlink:title=" ">
<path fill="none" stroke="#63b8ff" d="M542.04,-711.38C529.99,-711.38 517.65,-711.38 505.97,-711.38"/>
<polygon fill="#63b8ff" stroke="#63b8ff" points="541.96,-714.88 551.96,-711.38 541.96,-707.88 541.96,-714.88"/>
</a>
</g>
</g>
<!-- Node14&#45;&gt;Node11 -->
<g id="edge18_Node000014_Node000011" class="edge">
<title>Node14&#45;&gt;Node11</title>
<g id="a_edge18_Node000014_Node000011"><a xlink:title=" ">
<path fill="none" stroke="#63b8ff" d="M380.66,-698.18C357.76,-693.32 332.09,-687.88 310.26,-683.25"/>
<polygon fill="#63b8ff" stroke="#63b8ff" points="379.67,-701.55 390.17,-700.2 381.12,-694.7 379.67,-701.55"/>
</a>
</g>
</g>
<!-- Node15 -->
<g id="Node000015" class="node">
<title>Node15</title>
<g id="a_Node000015"><a xlink:href="namespaceImGui.html#afe7a28c6eb52fff3cc27d5a698fea4ff" target="_top" xlink:title=" ">
<polygon fill="white" stroke="#666666" points="334.25,-721.75 181.75,-721.75 181.75,-701 334.25,-701 334.25,-721.75"/>
<text text-anchor="middle" x="258" y="-708.25" font-family="Helvetica,sans-Serif" font-size="10.00">ImGui::ShowMetricsWindow</text>
</a>
</g>
</g>
<!-- Node14&#45;&gt;Node15 -->
<g id="edge16_Node000014_Node000015" class="edge">
<title>Node14&#45;&gt;Node15</title>
<g id="a_edge16_Node000014_Node000015"><a xlink:title=" ">
<path fill="none" stroke="#63b8ff" d="M370.69,-711.38C358.83,-711.38 346.5,-711.38 334.55,-711.38"/>
<polygon fill="#63b8ff" stroke="#63b8ff" points="370.39,-714.88 380.39,-711.38 370.39,-707.88 370.39,-714.88"/>
</a>
</g>
</g>
<!-- Node15&#45;&gt;Node12 -->
<g id="edge17_Node000015_Node000012" class="edge">
<title>Node15&#45;&gt;Node12</title>
<g id="a_edge17_Node000015_Node000012"><a xlink:title=" ">
<path fill="none" stroke="#63b8ff" d="M194.73,-698.11C172,-693.27 146.57,-687.86 124.93,-683.25"/>
<polygon fill="#63b8ff" stroke="#63b8ff" points="194,-701.54 204.51,-700.2 195.46,-694.69 194,-701.54"/>
</a>
</g>
</g>
<!-- Node17&#45;&gt;Node5 -->
<g id="edge22_Node000017_Node000005" class="edge">
<title>Node17&#45;&gt;Node5</title>
<g id="a_edge22_Node000017_Node000005"><a xlink:title=" ">
<path fill="none" stroke="#63b8ff" d="M755.2,-687.69C743.43,-694.46 730.09,-702.75 718.75,-711.38 682.98,-738.56 646.02,-777.05 628.91,-795.58"/>
<polygon fill="#63b8ff" stroke="#63b8ff" points="756.73,-690.84 763.74,-682.89 753.3,-684.74 756.73,-690.84"/>
</a>
</g>
</g>
<!-- Node18 -->
<g id="Node000018" class="node">
<title>Node18</title>
<g id="a_Node000018"><a xlink:href="namespaceImGui.html#a27a0380e0480671c7cd854dd7bfc6bd1" target="_top" xlink:title=" ">
<polygon fill="white" stroke="#666666" points="680.12,-681.75 556.12,-681.75 556.12,-661 680.12,-661 680.12,-681.75"/>
<text text-anchor="middle" x="618.12" y="-668.25" font-family="Helvetica,sans-Serif" font-size="10.00">ImGui::DragIntRange2</text>
</a>
</g>
</g>
<!-- Node17&#45;&gt;Node18 -->
<g id="edge23_Node000017_Node000018" class="edge">
<title>Node17&#45;&gt;Node18</title>
<g id="a_edge23_Node000017_Node000018"><a xlink:title=" ">
<path fill="none" stroke="#63b8ff" d="M731.33,-671.38C715.05,-671.38 697.1,-671.38 680.42,-671.38"/>
<polygon fill="#63b8ff" stroke="#63b8ff" points="731.33,-674.88 741.33,-671.38 731.33,-667.88 731.33,-674.88"/>
</a>
</g>
</g>
<!-- Node20 -->
<g id="Node000020" class="node">
<title>Node20</title>
<g id="a_Node000020"><a xlink:href="namespaceImGui.html#afc9ce10d78534a5c186cee0b337f7471" target="_top" xlink:title=" ">
<polygon fill="white" stroke="#666666" points="496.5,-215.75 391.25,-215.75 391.25,-195 496.5,-195 496.5,-215.75"/>
<text text-anchor="middle" x="443.88" y="-202.25" font-family="Helvetica,sans-Serif" font-size="10.00">ImGui::DragFloat2</text>
</a>
</g>
</g>
<!-- Node19&#45;&gt;Node20 -->
<g id="edge25_Node000019_Node000020" class="edge">
<title>Node19&#45;&gt;Node20</title>
<g id="a_edge25_Node000019_Node000020"><a xlink:title=" ">
<path fill="none" stroke="#63b8ff" d="M580.04,-162.49C561.43,-169.83 538.43,-178.52 517.5,-185.38 507.68,-188.59 497.01,-191.73 486.94,-194.53"/>
<polygon fill="#63b8ff" stroke="#63b8ff" points="581.33,-165.74 589.33,-158.79 578.74,-159.24 581.33,-165.74"/>
</a>
</g>
</g>
<!-- Node21 -->
<g id="Node000021" class="node">
<title>Node21</title>
<g id="a_Node000021"><a xlink:href="namespaceImGui.html#a5ffcbb0240077cf2f300960db3c0a3d7" target="_top" xlink:title=" ">
<polygon fill="white" stroke="#666666" points="496.5,-176.75 391.25,-176.75 391.25,-156 496.5,-156 496.5,-176.75"/>
<text text-anchor="middle" x="443.88" y="-163.25" font-family="Helvetica,sans-Serif" font-size="10.00">ImGui::DragFloat3</text>
</a>
</g>
</g>
<!-- Node19&#45;&gt;Node21 -->
<g id="edge26_Node000019_Node000021" class="edge">
<title>Node19&#45;&gt;Node21</title>
<g id="a_edge26_Node000019_Node000021"><a xlink:title=" ">
<path fill="none" stroke="#63b8ff" d="M550.26,-154.75C532.58,-156.7 513.77,-158.78 497,-160.63"/>
<polygon fill="#63b8ff" stroke="#63b8ff" points="550.62,-158.23 560.17,-153.66 549.85,-151.27 550.62,-158.23"/>
</a>
</g>
</g>
<!-- Node22 -->
<g id="Node000022" class="node">
<title>Node22</title>
<g id="a_Node000022"><a xlink:href="namespaceImGui.html#a43e4508fb0c6a82cf6d78a645965dd57" target="_top" xlink:title=" ">
<polygon fill="white" stroke="#666666" points="496.5,-137.75 391.25,-137.75 391.25,-117 496.5,-117 496.5,-137.75"/>
<text text-anchor="middle" x="443.88" y="-124.25" font-family="Helvetica,sans-Serif" font-size="10.00">ImGui::DragFloat4</text>
</a>
</g>
</g>
<!-- Node19&#45;&gt;Node22 -->
<g id="edge27_Node000019_Node000022" class="edge">
<title>Node19&#45;&gt;Node22</title>
<g id="a_edge27_Node000019_Node000022"><a xlink:title=" ">
<path fill="none" stroke="#63b8ff" d="M550.26,-139.61C532.58,-137.56 513.77,-135.37 497,-133.43"/>
<polygon fill="#63b8ff" stroke="#63b8ff" points="549.84,-143.09 560.17,-140.76 550.64,-136.13 549.84,-143.09"/>
</a>
</g>
</g>
<!-- Node23 -->
<g id="Node000023" class="node">
<title>Node23</title>
<g id="a_Node000023"><a xlink:href="namespaceImGui.html#a56e3ba8164b0b78b46f01a3a2f7fe00b" target="_top" xlink:title=" ">
<polygon fill="white" stroke="#666666" points="490.5,-98.75 397.25,-98.75 397.25,-78 490.5,-78 490.5,-98.75"/>
<text text-anchor="middle" x="443.88" y="-85.25" font-family="Helvetica,sans-Serif" font-size="10.00">ImGui::DragInt2</text>
</a>
</g>
</g>
<!-- Node19&#45;&gt;Node23 -->
<g id="edge28_Node000019_Node000023" class="edge">
<title>Node19&#45;&gt;Node23</title>
<g id="a_edge28_Node000019_Node000023"><a xlink:title=" ">
<path fill="none" stroke="#63b8ff" d="M581.12,-132.23C562.33,-124.6 538.86,-115.48 517.5,-108.38 507.7,-105.12 497.03,-101.96 486.96,-99.16"/>
<polygon fill="#63b8ff" stroke="#63b8ff" points="579.61,-135.4 590.19,-135.95 582.27,-128.92 579.61,-135.4"/>
</a>
</g>
</g>
<!-- Node24 -->
<g id="Node000024" class="node">
<title>Node24</title>
<g id="a_Node000024"><a xlink:href="namespaceImGui.html#af4be377242ba2480b28b116390af7261" target="_top" xlink:title=" ">
<polygon fill="white" stroke="#666666" points="490.5,-59.75 397.25,-59.75 397.25,-39 490.5,-39 490.5,-59.75"/>
<text text-anchor="middle" x="443.88" y="-46.25" font-family="Helvetica,sans-Serif" font-size="10.00">ImGui::DragInt3</text>
</a>
</g>
</g>
<!-- Node19&#45;&gt;Node24 -->
<g id="edge29_Node000019_Node000024" class="edge">
<title>Node19&#45;&gt;Node24</title>
<g id="a_edge29_Node000019_Node000024"><a xlink:title=" ">
<path fill="none" stroke="#63b8ff" d="M598.18,-128.74C579.23,-111.08 548.52,-85 517.5,-69.38 509.21,-65.2 499.93,-61.8 490.85,-59.07"/>
<polygon fill="#63b8ff" stroke="#63b8ff" points="595.73,-131.24 605.39,-135.61 600.56,-126.17 595.73,-131.24"/>
</a>
</g>
</g>
<!-- Node25 -->
<g id="Node000025" class="node">
<title>Node25</title>
<g id="a_Node000025"><a xlink:href="namespaceImGui.html#a5d75e4d3263272f22eb2001652397e55" target="_top" xlink:title=" ">
<polygon fill="white" stroke="#666666" points="490.5,-20.75 397.25,-20.75 397.25,0 490.5,0 490.5,-20.75"/>
<text text-anchor="middle" x="443.88" y="-7.25" font-family="Helvetica,sans-Serif" font-size="10.00">ImGui::DragInt4</text>
</a>
</g>
</g>
<!-- Node19&#45;&gt;Node25 -->
<g id="edge30_Node000019_Node000025" class="edge">
<title>Node19&#45;&gt;Node25</title>
<g id="a_edge30_Node000019_Node000025"><a xlink:title=" ">
<path fill="none" stroke="#63b8ff" d="M605.32,-127.14C588.94,-100.87 556.86,-55.44 517.5,-30.38 509.45,-25.25 500.08,-21.42 490.81,-18.56"/>
<polygon fill="#63b8ff" stroke="#63b8ff" points="602.21,-128.76 610.38,-135.5 608.2,-125.14 602.21,-128.76"/>
</a>
</g>
</g>
<!-- Node26 -->
<g id="Node000026" class="node">
<title>Node26</title>
<g id="a_Node000026"><a xlink:href="structExampleAppPropertyEditor.html#abae0f80dd670280a5a2548f97d69aaa1" target="_top" xlink:title=" ">
<polygon fill="white" stroke="#666666" points="517.5,-267.12 370.25,-267.12 370.25,-233.62 517.5,-233.62 517.5,-267.12"/>
<text text-anchor="start" x="378.25" y="-253.62" font-family="Helvetica,sans-Serif" font-size="10.00">ExampleAppPropertyEditor</text>
<text text-anchor="middle" x="443.88" y="-240.88" font-family="Helvetica,sans-Serif" font-size="10.00">::DrawTreeNode</text>
</a>
</g>
</g>
<!-- Node19&#45;&gt;Node26 -->
<g id="edge31_Node000019_Node000026" class="edge">
<title>Node19&#45;&gt;Node26</title>
<g id="a_edge31_Node000019_Node000026"><a xlink:title=" ">
<path fill="none" stroke="#63b8ff" d="M597.24,-165.81C578.02,-182.86 547.49,-207.96 517.5,-224.38 511.63,-227.59 505.28,-230.54 498.86,-233.21"/>
<polygon fill="#63b8ff" stroke="#63b8ff" points="599.51,-168.48 604.59,-159.18 594.82,-163.28 599.51,-168.48"/>
</a>
</g>
</g>
<!-- Node26&#45;&gt;Node26 -->
<g id="edge33_Node000026_Node000026" class="edge">
<title>Node26&#45;&gt;Node26</title>
<g id="a_edge33_Node000026_Node000026"><a xlink:title=" ">
<path fill="none" stroke="#63b8ff" d="M473.13,-278.51C468.37,-282.47 458.62,-285.12 443.88,-285.12 417.67,-285.12 407.23,-276.74 412.55,-267.54"/>
<polygon fill="#63b8ff" stroke="#63b8ff" points="476.51,-279.5 474.92,-269.03 469.63,-278.21 476.51,-279.5"/>
</a>
</g>
</g>
<!-- Node27 -->
<g id="Node000027" class="node">
<title>Node27</title>
<g id="a_Node000027"><a xlink:href="structExampleAppPropertyEditor.html#adfdfd135c8e210849d5ecbe4d4969813" target="_top" xlink:title=" ">
<polygon fill="white" stroke="#666666" points="331.62,-267.12 184.38,-267.12 184.38,-233.62 331.62,-233.62 331.62,-267.12"/>
<text text-anchor="start" x="192.38" y="-253.62" font-family="Helvetica,sans-Serif" font-size="10.00">ExampleAppPropertyEditor</text>
<text text-anchor="middle" x="258" y="-240.88" font-family="Helvetica,sans-Serif" font-size="10.00">::Draw</text>
</a>
</g>
</g>
<!-- Node26&#45;&gt;Node27 -->
<g id="edge32_Node000026_Node000027" class="edge">
<title>Node26&#45;&gt;Node27</title>
<g id="a_edge32_Node000026_Node000027"><a xlink:title=" ">
<path fill="none" stroke="#63b8ff" d="M358.67,-250.38C349.71,-250.38 340.66,-250.38 331.85,-250.38"/>
<polygon fill="#63b8ff" stroke="#63b8ff" points="358.43,-253.88 368.43,-250.38 358.43,-246.88 358.43,-253.88"/>
</a>
</g>
</g>
<!-- Node29 -->
<g id="Node000029" class="node">
<title>Node29</title>
<g id="a_Node000029"><a xlink:href="namespaceImGui.html#a864f761801792a0cc5ce3408f3392cfc" target="_top" xlink:title=" ">
<polygon fill="white" stroke="#666666" points="670,-640.75 566.25,-640.75 566.25,-620 670,-620 670,-640.75"/>
<text text-anchor="middle" x="618.12" y="-627.25" font-family="Helvetica,sans-Serif" font-size="10.00">ImGui::SliderFloat</text>
</a>
</g>
</g>
<!-- Node28&#45;&gt;Node29 -->
<g id="edge35_Node000028_Node000029" class="edge">
<title>Node28&#45;&gt;Node29</title>
<g id="a_edge35_Node000028_Node000029"><a xlink:title=" ">
<path fill="none" stroke="#63b8ff" d="M720.74,-618.18C704.04,-620.18 686.3,-622.31 670.39,-624.22"/>
<polygon fill="#63b8ff" stroke="#63b8ff" points="721.1,-621.66 730.61,-616.99 720.26,-614.71 721.1,-621.66"/>
</a>
</g>
</g>
<!-- Node32 -->
<g id="Node000032" class="node">
<title>Node32</title>
<g id="a_Node000032"><a xlink:href="namespaceImGui.html#a580128c9b35d1a9fc5b7a057f6f5464a" target="_top" xlink:title=" ">
<polygon fill="white" stroke="#666666" points="664,-600.75 572.25,-600.75 572.25,-580 664,-580 664,-600.75"/>
<text text-anchor="middle" x="618.12" y="-587.25" font-family="Helvetica,sans-Serif" font-size="10.00">ImGui::SliderInt</text>
</a>
</g>
</g>
<!-- Node28&#45;&gt;Node32 -->
<g id="edge40_Node000028_Node000032" class="edge">
<title>Node28&#45;&gt;Node32</title>
<g id="a_edge40_Node000028_Node000032"><a xlink:title=" ">
<path fill="none" stroke="#63b8ff" d="M720.85,-602.59C701.94,-600.32 681.69,-597.88 664.28,-595.8"/>
<polygon fill="#63b8ff" stroke="#63b8ff" points="720.26,-606.04 730.61,-603.76 721.1,-599.09 720.26,-606.04"/>
</a>
</g>
</g>
<!-- Node34 -->
<g id="Node000034" class="node">
<title>Node34</title>
<g id="a_Node000034"><a xlink:href="namespaceImGui.html#a64031a4ad000695c1e1d3f42792f4bb4" target="_top" xlink:title=" ">
<polygon fill="white" stroke="#666666" points="676.38,-420.75 559.88,-420.75 559.88,-400 676.38,-400 676.38,-420.75"/>
<text text-anchor="middle" x="618.12" y="-407.25" font-family="Helvetica,sans-Serif" font-size="10.00">ImGui::SliderScalarN</text>
</a>
</g>
</g>
<!-- Node28&#45;&gt;Node34 -->
<g id="edge44_Node000028_Node000034" class="edge">
<title>Node28&#45;&gt;Node34</title>
<g id="a_edge44_Node000028_Node000034"><a xlink:title=" ">
<path fill="none" stroke="#63b8ff" d="M731.38,-594.83C726.86,-592.4 722.57,-589.6 718.75,-586.38 662.62,-539.11 631.74,-451.71 622.29,-421.21"/>
<polygon fill="#63b8ff" stroke="#63b8ff" points="729.61,-597.87 740.15,-598.96 732.59,-591.53 729.61,-597.87"/>
</a>
</g>
</g>
<!-- Node29&#45;&gt;Node11 -->
<g id="edge37_Node000029_Node000011" class="edge">
<title>Node29&#45;&gt;Node11</title>
<g id="a_edge37_Node000029_Node000011"><a xlink:title=" ">
<path fill="none" stroke="#63b8ff" d="M567.92,-643.95C551.95,-647.89 534.07,-651.82 517.5,-654.38 452.03,-664.47 376.35,-668.91 323.87,-670.85"/>
<polygon fill="#63b8ff" stroke="#63b8ff" points="568.33,-647.46 577.16,-641.61 566.61,-640.67 568.33,-647.46"/>
</a>
</g>
</g>
<!-- Node30 -->
<g id="Node000030" class="node">
<title>Node30</title>
<g id="a_Node000030"><a xlink:href="structExampleAssetsBrowser.html#a2b36e1f9b7d764e547611baa4c7fd8d1" target="_top" xlink:title=" ">
<polygon fill="white" stroke="#666666" points="509.25,-607.12 378.5,-607.12 378.5,-573.62 509.25,-573.62 509.25,-607.12"/>
<text text-anchor="start" x="386.5" y="-593.62" font-family="Helvetica,sans-Serif" font-size="10.00">ExampleAssetsBrowser</text>
<text text-anchor="middle" x="443.88" y="-580.88" font-family="Helvetica,sans-Serif" font-size="10.00">::Draw</text>
</a>
</g>
</g>
<!-- Node29&#45;&gt;Node30 -->
<g id="edge36_Node000029_Node000030" class="edge">
<title>Node29&#45;&gt;Node30</title>
<g id="a_edge36_Node000029_Node000030"><a xlink:title=" ">
<path fill="none" stroke="#63b8ff" d="M559.67,-617.03C543.62,-613.31 526.07,-609.23 509.63,-605.41"/>
<polygon fill="#63b8ff" stroke="#63b8ff" points="558.5,-620.36 569.04,-619.21 560.09,-613.54 558.5,-620.36"/>
</a>
</g>
</g>
<!-- Node31 -->
<g id="Node000031" class="node">
<title>Node31</title>
<g id="a_Node000031"><a xlink:href="namespaceImGui.html#acd162f7732c5c7be7b8651d7e43bb979" target="_top" xlink:title=" ">
<polygon fill="white" stroke="#666666" points="497.25,-645.75 390.5,-645.75 390.5,-625 497.25,-625 497.25,-645.75"/>
<text text-anchor="middle" x="443.88" y="-632.25" font-family="Helvetica,sans-Serif" font-size="10.00">ImGui::SliderAngle</text>
</a>
</g>
</g>
<!-- Node29&#45;&gt;Node31 -->
<g id="edge38_Node000029_Node000031" class="edge">
<title>Node29&#45;&gt;Node31</title>
<g id="a_edge38_Node000029_Node000031"><a xlink:title=" ">
<path fill="none" stroke="#63b8ff" d="M554.54,-632.19C535.89,-632.73 515.64,-633.32 497.68,-633.84"/>
<polygon fill="#63b8ff" stroke="#63b8ff" points="554.5,-635.69 564.4,-631.91 554.3,-628.7 554.5,-635.69"/>
</a>
</g>
</g>
<!-- Node31&#45;&gt;Node11 -->
<g id="edge39_Node000031_Node000011" class="edge">
<title>Node31&#45;&gt;Node11</title>
<g id="a_edge39_Node000031_Node000011"><a xlink:title=" ">
<path fill="none" stroke="#63b8ff" d="M379.14,-648.2C357.57,-652.54 333.71,-657.34 312.98,-661.51"/>
<polygon fill="#63b8ff" stroke="#63b8ff" points="379.59,-651.68 388.7,-646.28 378.21,-644.82 379.59,-651.68"/>
</a>
</g>
</g>
<!-- Node32&#45;&gt;Node30 -->
<g id="edge41_Node000032_Node000030" class="edge">
<title>Node32&#45;&gt;Node30</title>
<g id="a_edge41_Node000032_Node000030"><a xlink:title=" ">
<path fill="none" stroke="#63b8ff" d="M560.36,-590.38C544.11,-590.38 526.27,-590.38 509.59,-590.38"/>
<polygon fill="#63b8ff" stroke="#63b8ff" points="560.35,-593.88 570.35,-590.38 560.35,-586.88 560.35,-593.88"/>
</a>
</g>
</g>
<!-- Node33 -->
<g id="Node000033" class="node">
<title>Node33</title>
<g id="a_Node000033"><a xlink:href="namespaceImGui.html#a7bd295da4be19bab98262c76fcaeb4fb" target="_top" xlink:title=" ">
<polygon fill="white" stroke="#666666" points="311,-580.75 205,-580.75 205,-560 311,-560 311,-580.75"/>
<text text-anchor="middle" x="258" y="-567.25" font-family="Helvetica,sans-Serif" font-size="10.00">ImGui::LogButtons</text>
</a>
</g>
</g>
<!-- Node32&#45;&gt;Node33 -->
<g id="edge42_Node000032_Node000033" class="edge">
<title>Node32&#45;&gt;Node33</title>
<g id="a_edge42_Node000032_Node000033"><a xlink:title=" ">
<path fill="none" stroke="#63b8ff" d="M596.74,-572.23C577.75,-556.64 547.87,-535.29 517.5,-526.38 454.7,-507.94 434.54,-514.12 370.25,-526.38 336.99,-532.71 300.99,-548.82 279.21,-559.68"/>
<polygon fill="#63b8ff" stroke="#63b8ff" points="594.34,-574.78 604.23,-578.58 598.86,-569.44 594.34,-574.78"/>
</a>
</g>
</g>
<!-- Node33&#45;&gt;Node12 -->
<g id="edge43_Node000033_Node000012" class="edge">
<title>Node33&#45;&gt;Node12</title>
<g id="a_edge43_Node000033_Node000012"><a xlink:title=" ">
<path fill="none" stroke="#63b8ff" d="M227.86,-586.6C190.1,-607.64 125.3,-643.73 93.14,-661.64"/>
<polygon fill="#63b8ff" stroke="#63b8ff" points="229.39,-589.76 236.43,-581.83 225.99,-583.64 229.39,-589.76"/>
</a>
</g>
</g>
<!-- Node34&#45;&gt;Node26 -->
<g id="edge45_Node000034_Node000026" class="edge">
<title>Node34&#45;&gt;Node26</title>
<g id="a_edge45_Node000034_Node000026"><a xlink:title=" ">
<path fill="none" stroke="#63b8ff" d="M603.32,-390.75C585.44,-366.24 552.39,-323.94 517.5,-294.38 505.58,-284.27 491.08,-274.99 478.18,-267.59"/>
<polygon fill="#63b8ff" stroke="#63b8ff" points="600.25,-392.48 608.93,-398.56 605.94,-388.4 600.25,-392.48"/>
</a>
</g>
</g>
<!-- Node35 -->
<g id="Node000035" class="node">
<title>Node35</title>
<g id="a_Node000035"><a xlink:href="namespaceImGui.html#a65ed4a55f13d467b06075c951b310c23" target="_top" xlink:title=" ">
<polygon fill="white" stroke="#666666" points="498.75,-555.75 389,-555.75 389,-535 498.75,-535 498.75,-555.75"/>
<text text-anchor="middle" x="443.88" y="-542.25" font-family="Helvetica,sans-Serif" font-size="10.00">ImGui::SliderFloat2</text>
</a>
</g>
</g>
<!-- Node34&#45;&gt;Node35 -->
<g id="edge46_Node000034_Node000035" class="edge">
<title>Node34&#45;&gt;Node35</title>
<g id="a_edge46_Node000034_Node000035"><a xlink:title=" ">
<path fill="none" stroke="#63b8ff" d="M594.47,-428.13C558.26,-456.51 488.41,-511.25 458.75,-534.5"/>
<polygon fill="#63b8ff" stroke="#63b8ff" points="596.42,-431.05 602.13,-422.13 592.1,-425.54 596.42,-431.05"/>
</a>
</g>
</g>
<!-- Node36 -->
<g id="Node000036" class="node">
<title>Node36</title>
<g id="a_Node000036"><a xlink:href="namespaceImGui.html#a9fb9ae936849ae17be13c9b6a0391585" target="_top" xlink:title=" ">
<polygon fill="white" stroke="#666666" points="498.75,-479.75 389,-479.75 389,-459 498.75,-459 498.75,-479.75"/>
<text text-anchor="middle" x="443.88" y="-466.25" font-family="Helvetica,sans-Serif" font-size="10.00">ImGui::SliderFloat3</text>
</a>
</g>
</g>
<!-- Node34&#45;&gt;Node36 -->
<g id="edge48_Node000034_Node000036" class="edge">
<title>Node34&#45;&gt;Node36</title>
<g id="a_edge48_Node000034_Node000036"><a xlink:title=" ">
<path fill="none" stroke="#63b8ff" d="M581.12,-425.52C562.33,-433.15 538.86,-442.27 517.5,-449.38 507.7,-452.63 497.03,-455.79 486.96,-458.59"/>
<polygon fill="#63b8ff" stroke="#63b8ff" points="582.27,-428.83 590.19,-421.8 579.61,-422.35 582.27,-428.83"/>
</a>
</g>
</g>
<!-- Node37 -->
<g id="Node000037" class="node">
<title>Node37</title>
<g id="a_Node000037"><a xlink:href="namespaceImGui.html#acee94c7b89963d8fec32de541cd7205f" target="_top" xlink:title=" ">
<polygon fill="white" stroke="#666666" points="498.75,-440.75 389,-440.75 389,-420 498.75,-420 498.75,-440.75"/>
<text text-anchor="middle" x="443.88" y="-427.25" font-family="Helvetica,sans-Serif" font-size="10.00">ImGui::SliderFloat4</text>
</a>
</g>
</g>
<!-- Node34&#45;&gt;Node37 -->
<g id="edge49_Node000034_Node000037" class="edge">
<title>Node34&#45;&gt;Node37</title>
<g id="a_edge49_Node000034_Node000037"><a xlink:title=" ">
<path fill="none" stroke="#63b8ff" d="M548.55,-418.34C532.1,-420.25 514.76,-422.26 499.07,-424.08"/>
<polygon fill="#63b8ff" stroke="#63b8ff" points="548.74,-421.84 558.26,-417.21 547.93,-414.89 548.74,-421.84"/>
</a>
</g>
</g>
<!-- Node38 -->
<g id="Node000038" class="node">
<title>Node38</title>
<g id="a_Node000038"><a xlink:href="namespaceImGui.html#a9913948869631d72e4fa5dd69235350e" target="_top" xlink:title=" ">
<polygon fill="white" stroke="#666666" points="492.75,-401.75 395,-401.75 395,-381 492.75,-381 492.75,-401.75"/>
<text text-anchor="middle" x="443.88" y="-388.25" font-family="Helvetica,sans-Serif" font-size="10.00">ImGui::SliderInt2</text>
</a>
</g>
</g>
<!-- Node34&#45;&gt;Node38 -->
<g id="edge50_Node000034_Node000038" class="edge">
<title>Node34&#45;&gt;Node38</title>
<g id="a_edge50_Node000034_Node000038"><a xlink:title=" ">
<path fill="none" stroke="#63b8ff" d="M548.41,-402.79C529.87,-400.75 510.22,-398.58 493.07,-396.69"/>
<polygon fill="#63b8ff" stroke="#63b8ff" points="547.94,-406.26 558.26,-403.88 548.71,-399.31 547.94,-406.26"/>
</a>
</g>
</g>
<!-- Node39 -->
<g id="Node000039" class="node">
<title>Node39</title>
<g id="a_Node000039"><a xlink:href="namespaceImGui.html#ab1e67cf69998479a59677e332dba745b" target="_top" xlink:title=" ">
<polygon fill="white" stroke="#666666" points="492.75,-362.75 395,-362.75 395,-342 492.75,-342 492.75,-362.75"/>
<text text-anchor="middle" x="443.88" y="-349.25" font-family="Helvetica,sans-Serif" font-size="10.00">ImGui::SliderInt3</text>
</a>
</g>
</g>
<!-- Node34&#45;&gt;Node39 -->
<g id="edge51_Node000034_Node000039" class="edge">
<title>Node34&#45;&gt;Node39</title>
<g id="a_edge51_Node000034_Node000039"><a xlink:title=" ">
<path fill="none" stroke="#63b8ff" d="M580.04,-395.26C561.43,-387.92 538.43,-379.23 517.5,-372.38 507.68,-369.16 497.01,-366.02 486.94,-363.22"/>
<polygon fill="#63b8ff" stroke="#63b8ff" points="578.74,-398.51 589.33,-398.96 581.33,-392.01 578.74,-398.51"/>
</a>
</g>
</g>
<!-- Node40 -->
<g id="Node000040" class="node">
<title>Node40</title>
<g id="a_Node000040"><a xlink:href="namespaceImGui.html#a9a0bb4c55424177ab7894e5a87bd91ea" target="_top" xlink:title=" ">
<polygon fill="white" stroke="#666666" points="492.75,-323.75 395,-323.75 395,-303 492.75,-303 492.75,-323.75"/>
<text text-anchor="middle" x="443.88" y="-310.25" font-family="Helvetica,sans-Serif" font-size="10.00">ImGui::SliderInt4</text>
</a>
</g>
</g>
<!-- Node34&#45;&gt;Node40 -->
<g id="edge52_Node000034_Node000040" class="edge">
<title>Node34&#45;&gt;Node40</title>
<g id="a_edge52_Node000034_Node000040"><a xlink:title=" ">
<path fill="none" stroke="#63b8ff" d="M597.82,-391.71C578.82,-374.29 548.25,-348.74 517.5,-333.38 509.9,-329.58 501.47,-326.42 493.13,-323.82"/>
<polygon fill="#63b8ff" stroke="#63b8ff" points="595.38,-394.21 605.07,-398.49 600.16,-389.1 595.38,-394.21"/>
</a>
</g>
</g>
<!-- Node35&#45;&gt;Node11 -->
<g id="edge47_Node000035_Node000011" class="edge">
<title>Node35&#45;&gt;Node11</title>
<g id="a_edge47_Node000035_Node000011"><a xlink:title=" ">
<path fill="none" stroke="#63b8ff" d="M378.43,-560.27C375.62,-561.53 372.87,-562.9 370.25,-564.38 324.29,-590.28 283.49,-639.83 266.89,-661.63"/>
<polygon fill="#63b8ff" stroke="#63b8ff" points="379.47,-563.62 387.48,-556.69 376.89,-557.11 379.47,-563.62"/>
</a>
</g>
</g>
</g>
</svg>

<g id="navigator" transform="translate(0 0)" fill="#404254">
  <rect fill="#f2f5e9" fill-opacity="0.5" stroke="#606060" stroke-width=".5" x="0" y="0" width="60" height="60"/>
  <use id="zoomplus" xlink:href="#zoomPlus" x="17" y="9" onmousedown="handleZoom(evt,'in')"/>
  <use id="zoomminus" xlink:href="#zoomMin" x="42" y="9" onmousedown="handleZoom(evt,'out')"/>
  <use id="reset" xlink:href="#resetDef" x="30" y="36" onmousedown="handleReset()"/>
   <use id="arrowup" xlink:href="#arrowUp" x="0" y="0" onmousedown="handlePan(0,-1)"/>
  <use id="arrowright" xlink:href="#arrowRight" x="0" y="0" onmousedown="handlePan(1,0)"/>
  <use id="arrowdown" xlink:href="#arrowDown" x="0" y="0" onmousedown="handlePan(0,1)"/>
  <use id="arrowleft" xlink:href="#arrowLeft" x="0" y="0" onmousedown="handlePan(-1,0)"/>
</g>
<svg viewBox="0 0 15 15" width="100%" height="30px" preserveAspectRatio="xMaxYMin meet">
 <g id="arrow_out" transform="scale(0.3 0.3)">
  <a xlink:href="namespaceImGui_adf9cbe8f8af33cba51b481e9b99cca1a_icgraph_org.svg" target="_base">
   <rect id="button" ry="5" rx="5" y="6" x="6" height="38" width="38"
        fill="#f2f5e9" fill-opacity="0.5" stroke="#606060" stroke-width="1.0"/>
   <path id="arrow"
     d="M 11.500037,31.436501 C 11.940474,20.09759 22.043105,11.32322 32.158766,21.979434 L 37.068811,17.246167 C 37.068811,17.246167 37.088388,32 37.088388,32 L 22.160133,31.978069 C 22.160133,31.978069 26.997745,27.140456 26.997745,27.140456 C 18.528582,18.264221 13.291696,25.230495 11.500037,31.436501 z"
     style="fill:#404040;"/>
  </a>
 </g>
</svg>

<style type='text/css'>
<![CDATA[
[data-mouse-over-selected='false'] { opacity: 0.7; }
[data-mouse-over-selected='true']  { opacity: 1.0; }
]]>
</style>
<script type="application/ecmascript"><![CDATA[
document.addEventListener('DOMContentLoaded', (event) => {
  highlightEdges();
  highlightAdjacentNodes();
});
]]></script>
</svg>
