<?xml version="1.0" encoding="UTF-8" standalone="no"?>
<!DOCTYPE svg PUBLIC "-//W3C//DTD SVG 1.1//EN"
 "http://www.w3.org/Graphics/SVG/1.1/DTD/svg11.dtd">
<!-- Generated by graphviz version 12.2.1 (20241206.2353)
 -->
<!-- Title: ImGui::ErrorCheckNewFrameSanityChecks Pages: 1 -->
<svg width="312pt" height="68pt"
 viewBox="0.00 0.00 312.25 67.75" xmlns="http://www.w3.org/2000/svg" xmlns:xlink="http://www.w3.org/1999/xlink">
<g id="graph0" class="graph" transform="scale(1 1) rotate(0) translate(4 63.75)">
<title>ImGui::ErrorCheckNewFrameSanityChecks</title>
<!-- Node1 -->
<g id="Node000001" class="node">
<title>Node1</title>
<g id="a_Node000001"><a xlink:title=" ">
<polygon fill="#999999" stroke="#666666" points="157,-46.12 0,-46.12 0,-12.62 157,-12.62 157,-46.12"/>
<text text-anchor="start" x="8" y="-32.62" font-family="Helvetica,sans-Serif" font-size="10.00">ImGui::ErrorCheckNewFrame</text>
<text text-anchor="middle" x="78.5" y="-19.88" font-family="Helvetica,sans-Serif" font-size="10.00">SanityChecks</text>
</a>
</g>
</g>
<!-- Node2 -->
<g id="Node000002" class="node">
<title>Node2</title>
<g id="a_Node000002"><a xlink:href="structImRect.html#ac583156fd0e9306181fff5d120b262ea" target="_top" xlink:title=" ">
<polygon fill="white" stroke="#666666" points="298.25,-59.75 199,-59.75 199,-39 298.25,-39 298.25,-59.75"/>
<text text-anchor="middle" x="248.62" y="-46.25" font-family="Helvetica,sans-Serif" font-size="10.00">ImRect::Contains</text>
</a>
</g>
</g>
<!-- Node1&#45;&gt;Node2 -->
<g id="edge1_Node000001_Node000002" class="edge">
<title>Node1&#45;&gt;Node2</title>
<g id="a_edge1_Node000001_Node000002"><a xlink:title=" ">
<path fill="none" stroke="#63b8ff" d="M157.16,-38.61C167.31,-39.82 177.57,-41.04 187.37,-42.21"/>
<polygon fill="#63b8ff" stroke="#63b8ff" points="186.77,-45.66 197.12,-43.37 187.6,-38.71 186.77,-45.66"/>
</a>
</g>
</g>
<!-- Node3 -->
<g id="Node000003" class="node">
<title>Node3</title>
<g id="a_Node000003"><a xlink:href="structImFontAtlas.html#a142ba1470099bbd4b67bdb47be92d475" target="_top" xlink:title=" ">
<polygon fill="white" stroke="#666666" points="304.25,-20.75 193,-20.75 193,0 304.25,0 304.25,-20.75"/>
<text text-anchor="middle" x="248.62" y="-7.25" font-family="Helvetica,sans-Serif" font-size="10.00">ImFontAtlas::IsBuilt</text>
</a>
</g>
</g>
<!-- Node1&#45;&gt;Node3 -->
<g id="edge2_Node000001_Node000003" class="edge">
<title>Node1&#45;&gt;Node3</title>
<g id="a_edge2_Node000001_Node000003"><a xlink:title=" ">
<path fill="none" stroke="#63b8ff" d="M157.16,-20.6C165.35,-19.67 173.62,-18.74 181.66,-17.83"/>
<polygon fill="#63b8ff" stroke="#63b8ff" points="181.79,-21.34 191.33,-16.74 181,-14.38 181.79,-21.34"/>
</a>
</g>
</g>
</g>
</svg>
