<?xml version="1.0" encoding="UTF-8" standalone="no"?>
<!DOCTYPE svg PUBLIC "-//W3C//DTD SVG 1.1//EN"
 "http://www.w3.org/Graphics/SVG/1.1/DTD/svg11.dtd">
<!-- Generated by graphviz version 12.0.0 (20240704.0754)
 -->
<!-- Title: ImGui::UpdateViewportPlatformMonitor Pages: 1 -->
<!--zoomable 146 -->

<svg id="main" version="1.1" xmlns="http://www.w3.org/2000/svg" xmlns:xlink="http://www.w3.org/1999/xlink" xml:space="preserve" onload="init(evt)">
<style type="text/css"><![CDATA[
.node, .edge {opacity: 0.7;}
.node.selected, .edge.selected {opacity: 1;}
.edge:hover path { stroke: red; }
.edge:hover polygon { stroke: red; fill: red; }
]]></style>

<defs>
  <circle id="rim" cx="0" cy="0" r="7"/>
  <circle id="rim2" cx="0" cy="0" r="3.5"/>
  <g id="zoomPlus">
    <use xlink:href="#rim" fill="#404040"><set attributeName="fill" to="#808080" begin="zoomplus.mouseover" end="zoomplus.mouseout"/></use>
    <path d="M-4,0h8M0,-4v8" fill="none" stroke="white" stroke-width="1.5" pointer-events="none"/>
  </g>
  <g id="zoomMin">
    <use xlink:href="#rim" fill="#404040"><set attributeName="fill" to="#808080" begin="zoomminus.mouseover" end="zoomminus.mouseout"/></use>
    <path d="M-4,0h8" fill="none" stroke="white" stroke-width="1.5" pointer-events="none"/>
  </g>
  <g id="arrowUp" transform="translate(30 24)">
    <use xlink:href="#rim"/>
    <path pointer-events="none" fill="none" stroke="white" stroke-width="1.5" d="M0,-3.0v7 M-2.5,-0.5L0,-3.0L2.5,-0.5"/>
  </g>
  <g id="arrowRight" transform="rotate(90) translate(36 -43)">
    <use xlink:href="#rim"/>
    <path pointer-events="none" fill="none" stroke="white" stroke-width="1.5" d="M0,-3.0v7 M-2.5,-0.5L0,-3.0L2.5,-0.5"/>
  </g>
  <g id="arrowDown" transform="rotate(180) translate(-30 -48)">
    <use xlink:href="#rim"/>
    <path pointer-events="none" fill="none" stroke="white" stroke-width="1.5" d="M0,-3.0v7 M-2.5,-0.5L0,-3.0L2.5,-0.5"/>
  </g>
  <g id="arrowLeft" transform="rotate(270) translate(-36 17)">
    <use xlink:href="#rim"/>
    <path pointer-events="none" fill="none" stroke="white" stroke-width="1.5" d="M0,-3.0v7 M-2.5,-0.5L0,-3.0L2.5,-0.5"/>
  </g>
  <g id="resetDef">
    <use xlink:href="#rim2" fill="#404040"><set attributeName="fill" to="#808080" begin="reset.mouseover" end="reset.mouseout"/></use>
  </g>
</defs>
<script type="application/ecmascript">
var viewWidth = 531;
var viewHeight = 146;
var sectionId = 'dynsection-1367';
</script>
<script type="application/ecmascript" xlink:href="svg.min.js"/>
<svg id="graph" class="graph">
<g id="viewport">
<title>ImGui::UpdateViewportPlatformMonitor</title>
<!-- Node1 -->
<g id="Node000001" class="node">
<title>Node1</title>
<g id="a_Node000001"><a xlink:title=" ">
<polygon fill="#999999" stroke="#666666" points="172,-62.12 0,-62.12 0,-28.62 172,-28.62 172,-62.12"/>
<text text-anchor="start" x="8" y="-48.62" font-family="Helvetica,sans-Serif" font-size="10.00">ImGui::UpdateViewportPlatform</text>
<text text-anchor="middle" x="86" y="-35.88" font-family="Helvetica,sans-Serif" font-size="10.00">Monitor</text>
</a>
</g>
</g>
<!-- Node2 -->
<g id="Node000002" class="node">
<title>Node2</title>
<g id="a_Node000002"><a xlink:href="namespaceImGui.html#a4f43285be90f89107d0512a82fdf1e32" target="_top" xlink:title=" ">
<polygon fill="white" stroke="#666666" points="365.38,-85.12 214.38,-85.12 214.38,-51.62 365.38,-51.62 365.38,-85.12"/>
<text text-anchor="start" x="222.38" y="-71.62" font-family="Helvetica,sans-Serif" font-size="10.00">ImGui::FindPlatformMonitor</text>
<text text-anchor="middle" x="289.88" y="-58.88" font-family="Helvetica,sans-Serif" font-size="10.00">ForRect</text>
</a>
</g>
</g>
<!-- Node1&#45;&gt;Node2 -->
<g id="edge1_Node000001_Node000002" class="edge">
<title>Node1&#45;&gt;Node2</title>
<g id="a_edge1_Node000001_Node000002"><a xlink:title=" ">
<path fill="none" stroke="#63b8ff" d="M172.32,-55.1C182.41,-56.24 192.71,-57.42 202.8,-58.57"/>
<polygon fill="#63b8ff" stroke="#63b8ff" points="202.26,-62.03 212.59,-59.68 203.05,-55.07 202.26,-62.03"/>
</a>
</g>
</g>
<!-- Node7 -->
<g id="Node000007" class="node">
<title>Node7</title>
<g id="a_Node000007"><a xlink:href="structImGuiViewportP.html#adb4c14f0b0a42bff9c1c0ab1971027f7" target="_top" xlink:title=" ">
<polygon fill="white" stroke="#666666" points="371.75,-33.75 208,-33.75 208,-13 371.75,-13 371.75,-33.75"/>
<text text-anchor="middle" x="289.88" y="-20.25" font-family="Helvetica,sans-Serif" font-size="10.00">ImGuiViewportP::GetMainRect</text>
</a>
</g>
</g>
<!-- Node1&#45;&gt;Node7 -->
<g id="edge6_Node000001_Node000007" class="edge">
<title>Node1&#45;&gt;Node7</title>
<g id="a_edge6_Node000001_Node000007"><a xlink:title=" ">
<path fill="none" stroke="#63b8ff" d="M172.32,-36.08C180.29,-35.21 188.4,-34.32 196.43,-33.45"/>
<polygon fill="#63b8ff" stroke="#63b8ff" points="196.65,-36.95 206.22,-32.38 195.89,-29.99 196.65,-36.95"/>
</a>
</g>
</g>
<!-- Node3 -->
<g id="Node000003" class="node">
<title>Node3</title>
<g id="a_Node000003"><a xlink:href="structImRect.html#a32a5aaca4161b5ffa3f352d293a449ff" target="_top" xlink:title=" ">
<polygon fill="white" stroke="#666666" points="522.75,-137.75 407.75,-137.75 407.75,-117 522.75,-117 522.75,-137.75"/>
<text text-anchor="middle" x="465.25" y="-124.25" font-family="Helvetica,sans-Serif" font-size="10.00">ImRect::ClipWithFull</text>
</a>
</g>
</g>
<!-- Node2&#45;&gt;Node3 -->
<g id="edge2_Node000002_Node000003" class="edge">
<title>Node2&#45;&gt;Node3</title>
<g id="a_edge2_Node000002_Node000003"><a xlink:title=" ">
<path fill="none" stroke="#63b8ff" d="M341.49,-85.6C366.97,-94.27 397.51,-104.66 421.76,-112.92"/>
<polygon fill="#63b8ff" stroke="#63b8ff" points="420.39,-116.15 430.98,-116.05 422.65,-109.52 420.39,-116.15"/>
</a>
</g>
</g>
<!-- Node4 -->
<g id="Node000004" class="node">
<title>Node4</title>
<g id="a_Node000004"><a xlink:href="structImRect.html#ac583156fd0e9306181fff5d120b262ea" target="_top" xlink:title=" ">
<polygon fill="white" stroke="#666666" points="514.88,-98.75 415.62,-98.75 415.62,-78 514.88,-78 514.88,-98.75"/>
<text text-anchor="middle" x="465.25" y="-85.25" font-family="Helvetica,sans-Serif" font-size="10.00">ImRect::Contains</text>
</a>
</g>
</g>
<!-- Node2&#45;&gt;Node4 -->
<g id="edge3_Node000002_Node000004" class="edge">
<title>Node2&#45;&gt;Node4</title>
<g id="a_edge3_Node000002_Node000004"><a xlink:title=" ">
<path fill="none" stroke="#63b8ff" d="M365.66,-77C378.5,-78.48 391.7,-80.01 404.09,-81.44"/>
<polygon fill="#63b8ff" stroke="#63b8ff" points="403.38,-84.88 413.71,-82.55 404.18,-77.92 403.38,-84.88"/>
</a>
</g>
</g>
<!-- Node5 -->
<g id="Node000005" class="node">
<title>Node5</title>
<g id="a_Node000005"><a xlink:href="structImRect.html#a748d8ae9cb26508951ec6e2f2df0625b" target="_top" xlink:title=" ">
<polygon fill="white" stroke="#666666" points="518.25,-59.75 412.25,-59.75 412.25,-39 518.25,-39 518.25,-59.75"/>
<text text-anchor="middle" x="465.25" y="-46.25" font-family="Helvetica,sans-Serif" font-size="10.00">ImRect::GetHeight</text>
</a>
</g>
</g>
<!-- Node2&#45;&gt;Node5 -->
<g id="edge4_Node000002_Node000005" class="edge">
<title>Node2&#45;&gt;Node5</title>
<g id="a_edge4_Node000002_Node000005"><a xlink:title=" ">
<path fill="none" stroke="#63b8ff" d="M365.66,-60.18C377.34,-58.9 389.32,-57.59 400.73,-56.34"/>
<polygon fill="#63b8ff" stroke="#63b8ff" points="400.84,-59.85 410.4,-55.28 400.08,-52.89 400.84,-59.85"/>
</a>
</g>
</g>
<!-- Node6 -->
<g id="Node000006" class="node">
<title>Node6</title>
<g id="a_Node000006"><a xlink:href="structImRect.html#afa75cb8491f20901c96166d17dcddac4" target="_top" xlink:title=" ">
<polygon fill="white" stroke="#666666" points="516.38,-20.75 414.12,-20.75 414.12,0 516.38,0 516.38,-20.75"/>
<text text-anchor="middle" x="465.25" y="-7.25" font-family="Helvetica,sans-Serif" font-size="10.00">ImRect::GetWidth</text>
</a>
</g>
</g>
<!-- Node2&#45;&gt;Node6 -->
<g id="edge5_Node000002_Node000006" class="edge">
<title>Node2&#45;&gt;Node6</title>
<g id="a_edge5_Node000002_Node000006"><a xlink:title=" ">
<path fill="none" stroke="#63b8ff" d="M344.87,-51.2C353.86,-48.29 363.08,-45.27 371.75,-42.38 388.51,-36.78 406.92,-30.45 422.87,-24.91"/>
<polygon fill="#63b8ff" stroke="#63b8ff" points="423.75,-28.31 432.05,-21.71 421.45,-21.7 423.75,-28.31"/>
</a>
</g>
</g>
</g>
</svg>

<g id="navigator" transform="translate(0 0)" fill="#404254">
  <rect fill="#f2f5e9" fill-opacity="0.5" stroke="#606060" stroke-width=".5" x="0" y="0" width="60" height="60"/>
  <use id="zoomplus" xlink:href="#zoomPlus" x="17" y="9" onmousedown="handleZoom(evt,'in')"/>
  <use id="zoomminus" xlink:href="#zoomMin" x="42" y="9" onmousedown="handleZoom(evt,'out')"/>
  <use id="reset" xlink:href="#resetDef" x="30" y="36" onmousedown="handleReset()"/>
   <use id="arrowup" xlink:href="#arrowUp" x="0" y="0" onmousedown="handlePan(0,-1)"/>
  <use id="arrowright" xlink:href="#arrowRight" x="0" y="0" onmousedown="handlePan(1,0)"/>
  <use id="arrowdown" xlink:href="#arrowDown" x="0" y="0" onmousedown="handlePan(0,1)"/>
  <use id="arrowleft" xlink:href="#arrowLeft" x="0" y="0" onmousedown="handlePan(-1,0)"/>
</g>
<svg viewBox="0 0 15 15" width="100%" height="30px" preserveAspectRatio="xMaxYMin meet">
 <g id="arrow_out" transform="scale(0.3 0.3)">
  <a xlink:href="namespaceImGui_a415893c62970b8fe79b50aeacbf19b17_cgraph_org.svg" target="_base">
   <rect id="button" ry="5" rx="5" y="6" x="6" height="38" width="38"
        fill="#f2f5e9" fill-opacity="0.5" stroke="#606060" stroke-width="1.0"/>
   <path id="arrow"
     d="M 11.500037,31.436501 C 11.940474,20.09759 22.043105,11.32322 32.158766,21.979434 L 37.068811,17.246167 C 37.068811,17.246167 37.088388,32 37.088388,32 L 22.160133,31.978069 C 22.160133,31.978069 26.997745,27.140456 26.997745,27.140456 C 18.528582,18.264221 13.291696,25.230495 11.500037,31.436501 z"
     style="fill:#404040;"/>
  </a>
 </g>
</svg>

<style type='text/css'>
<![CDATA[
[data-mouse-over-selected='false'] { opacity: 0.7; }
[data-mouse-over-selected='true']  { opacity: 1.0; }
]]>
</style>
<script type="application/ecmascript"><![CDATA[
document.addEventListener('DOMContentLoaded', (event) => {
  highlightEdges();
  highlightAdjacentNodes();
});
]]></script>
</svg>
