<?xml version="1.0" encoding="UTF-8" standalone="no"?>
<!DOCTYPE svg PUBLIC "-//W3C//DTD SVG 1.1//EN"
 "http://www.w3.org/Graphics/SVG/1.1/DTD/svg11.dtd">
<!-- Generated by graphviz version 12.2.1 (20241206.2353)
 -->
<!-- Title: ImGui::BeginDragDropTarget Pages: 1 -->
<svg width="583pt" height="68pt"
 viewBox="0.00 0.00 582.50 67.75" xmlns="http://www.w3.org/2000/svg" xmlns:xlink="http://www.w3.org/1999/xlink">
<g id="graph0" class="graph" transform="scale(1 1) rotate(0) translate(4 63.75)">
<title>ImGui::BeginDragDropTarget</title>
<!-- Node1 -->
<g id="Node000001" class="node">
<title>Node1</title>
<g id="a_Node000001"><a xlink:title=" ">
<polygon fill="#999999" stroke="#666666" points="155.5,-39.75 0,-39.75 0,-19 155.5,-19 155.5,-39.75"/>
<text text-anchor="middle" x="77.75" y="-26.25" font-family="Helvetica,sans-Serif" font-size="10.00">ImGui::BeginDragDropTarget</text>
</a>
</g>
</g>
<!-- Node2 -->
<g id="Node000002" class="node">
<title>Node2</title>
<g id="a_Node000002"><a xlink:href="structImGuiWindow.html#a44931b6e73248930490d2c89377a8233" target="_top" xlink:title=" ">
<polygon fill="white" stroke="#666666" points="382.25,-59.75 191.5,-59.75 191.5,-39 382.25,-39 382.25,-59.75"/>
<text text-anchor="middle" x="286.88" y="-46.25" font-family="Helvetica,sans-Serif" font-size="10.00">ImGuiWindow::GetIDFromRectangle</text>
</a>
</g>
</g>
<!-- Node1&#45;&gt;Node2 -->
<g id="edge1_Node000001_Node000002" class="edge">
<title>Node1&#45;&gt;Node2</title>
<g id="a_edge1_Node000001_Node000002"><a xlink:title=" ">
<path fill="none" stroke="#63b8ff" d="M155.88,-36.82C163.69,-37.58 171.73,-38.35 179.78,-39.13"/>
<polygon fill="#63b8ff" stroke="#63b8ff" points="179.36,-42.61 189.65,-40.08 180.03,-35.64 179.36,-42.61"/>
</a>
</g>
</g>
<!-- Node4 -->
<g id="Node000004" class="node">
<title>Node4</title>
<g id="a_Node000004"><a xlink:href="namespaceImGui.html#a85a245c78a9f7c351636bdad6e60c488" target="_top" xlink:title=" ">
<polygon fill="white" stroke="#666666" points="342.12,-20.75 231.62,-20.75 231.62,0 342.12,0 342.12,-20.75"/>
<text text-anchor="middle" x="286.88" y="-7.25" font-family="Helvetica,sans-Serif" font-size="10.00">ImGui::KeepAliveID</text>
</a>
</g>
</g>
<!-- Node1&#45;&gt;Node4 -->
<g id="edge3_Node000001_Node000004" class="edge">
<title>Node1&#45;&gt;Node4</title>
<g id="a_edge3_Node000001_Node000004"><a xlink:title=" ">
<path fill="none" stroke="#63b8ff" d="M155.88,-22.3C176.93,-20.37 199.55,-18.29 219.93,-16.42"/>
<polygon fill="#63b8ff" stroke="#63b8ff" points="220.17,-19.92 229.8,-15.52 219.53,-12.95 220.17,-19.92"/>
</a>
</g>
</g>
<!-- Node3 -->
<g id="Node000003" class="node">
<title>Node3</title>
<g id="a_Node000003"><a xlink:href="namespaceImGui.html#a06d8e9fae450c785dc8f61f6e03462a7" target="_top" xlink:title=" ">
<polygon fill="white" stroke="#666666" points="574.5,-59.75 418.25,-59.75 418.25,-39 574.5,-39 574.5,-59.75"/>
<text text-anchor="middle" x="496.38" y="-46.25" font-family="Helvetica,sans-Serif" font-size="10.00">ImGui::WindowRectAbsToRel</text>
</a>
</g>
</g>
<!-- Node2&#45;&gt;Node3 -->
<g id="edge2_Node000002_Node000003" class="edge">
<title>Node2&#45;&gt;Node3</title>
<g id="a_edge2_Node000002_Node000003"><a xlink:title=" ">
<path fill="none" stroke="#63b8ff" d="M382.52,-49.38C390.49,-49.38 398.53,-49.38 406.46,-49.38"/>
<polygon fill="#63b8ff" stroke="#63b8ff" points="406.45,-52.88 416.45,-49.38 406.45,-45.88 406.45,-52.88"/>
</a>
</g>
</g>
</g>
</svg>
