<?xml version="1.0" encoding="UTF-8" standalone="no"?>
<!DOCTYPE svg PUBLIC "-//W3C//DTD SVG 1.1//EN"
 "http://www.w3.org/Graphics/SVG/1.1/DTD/svg11.dtd">
<!-- Generated by graphviz version 12.2.1 (20241206.2353)
 -->
<!-- Title: ImGui::DebugDrawCursorPos Pages: 1 -->
<svg width="1202pt" height="74pt"
 viewBox="0.00 0.00 1201.50 74.12" xmlns="http://www.w3.org/2000/svg" xmlns:xlink="http://www.w3.org/1999/xlink">
<g id="graph0" class="graph" transform="scale(1 1) rotate(0) translate(4 70.12)">
<title>ImGui::DebugDrawCursorPos</title>
<!-- Node1 -->
<g id="Node000001" class="node">
<title>Node1</title>
<g id="a_Node000001"><a xlink:title=" ">
<polygon fill="#999999" stroke="#666666" points="157,-46.12 0,-46.12 0,-25.38 157,-25.38 157,-46.12"/>
<text text-anchor="middle" x="78.5" y="-32.62" font-family="Helvetica,sans-Serif" font-size="10.00">ImGui::DebugDrawCursorPos</text>
</a>
</g>
</g>
<!-- Node2 -->
<g id="Node000002" class="node">
<title>Node2</title>
<g id="a_Node000002"><a xlink:href="structImDrawList.html#aa21e5a1c6e00239581f97d344fc0db61" target="_top" xlink:title=" ">
<polygon fill="white" stroke="#666666" points="309.5,-46.12 193,-46.12 193,-25.38 309.5,-25.38 309.5,-46.12"/>
<text text-anchor="middle" x="251.25" y="-32.62" font-family="Helvetica,sans-Serif" font-size="10.00">ImDrawList::AddLine</text>
</a>
</g>
</g>
<!-- Node1&#45;&gt;Node2 -->
<g id="edge1_Node000001_Node000002" class="edge">
<title>Node1&#45;&gt;Node2</title>
<g id="a_edge1_Node000001_Node000002"><a xlink:title=" ">
<path fill="none" stroke="#63b8ff" d="M157.38,-35.75C165.36,-35.75 173.42,-35.75 181.3,-35.75"/>
<polygon fill="#63b8ff" stroke="#63b8ff" points="181.14,-39.25 191.14,-35.75 181.14,-32.25 181.14,-39.25"/>
</a>
</g>
</g>
<!-- Node3 -->
<g id="Node000003" class="node">
<title>Node3</title>
<g id="a_Node000003"><a xlink:href="structImDrawList.html#a828d944325ed58d8b57abd3647bffaaf" target="_top" xlink:title=" ">
<polygon fill="white" stroke="#666666" points="474.75,-66.12 345.5,-66.12 345.5,-45.38 474.75,-45.38 474.75,-66.12"/>
<text text-anchor="middle" x="410.12" y="-52.62" font-family="Helvetica,sans-Serif" font-size="10.00">ImDrawList::PathLineTo</text>
</a>
</g>
</g>
<!-- Node2&#45;&gt;Node3 -->
<g id="edge2_Node000002_Node000003" class="edge">
<title>Node2&#45;&gt;Node3</title>
<g id="a_edge2_Node000002_Node000003"><a xlink:title=" ">
<path fill="none" stroke="#63b8ff" d="M309.77,-43.08C317.62,-44.08 325.77,-45.12 333.87,-46.16"/>
<polygon fill="#63b8ff" stroke="#63b8ff" points="333.39,-49.62 343.75,-47.42 334.28,-42.68 333.39,-49.62"/>
</a>
</g>
</g>
<!-- Node4 -->
<g id="Node000004" class="node">
<title>Node4</title>
<g id="a_Node000004"><a xlink:href="structImDrawList.html#a60bf9040ef3d09b39c4ba8f5a2a68ae9" target="_top" xlink:title=" ">
<polygon fill="white" stroke="#666666" points="474.75,-27.12 345.5,-27.12 345.5,-6.38 474.75,-6.38 474.75,-27.12"/>
<text text-anchor="middle" x="410.12" y="-13.62" font-family="Helvetica,sans-Serif" font-size="10.00">ImDrawList::PathStroke</text>
</a>
</g>
</g>
<!-- Node2&#45;&gt;Node4 -->
<g id="edge3_Node000002_Node000004" class="edge">
<title>Node2&#45;&gt;Node4</title>
<g id="a_edge3_Node000002_Node000004"><a xlink:title=" ">
<path fill="none" stroke="#63b8ff" d="M309.77,-28.78C317.62,-27.83 325.77,-26.85 333.87,-25.86"/>
<polygon fill="#63b8ff" stroke="#63b8ff" points="334.25,-29.34 343.75,-24.67 333.4,-22.4 334.25,-29.34"/>
</a>
</g>
</g>
<!-- Node5 -->
<g id="Node000005" class="node">
<title>Node5</title>
<g id="a_Node000005"><a xlink:href="structImDrawList.html#abc568847b1113e624456436bfab1b307" target="_top" xlink:title=" ">
<polygon fill="white" stroke="#666666" points="646,-27.12 510.75,-27.12 510.75,-6.38 646,-6.38 646,-27.12"/>
<text text-anchor="middle" x="578.38" y="-13.62" font-family="Helvetica,sans-Serif" font-size="10.00">ImDrawList::AddPolyline</text>
</a>
</g>
</g>
<!-- Node4&#45;&gt;Node5 -->
<g id="edge4_Node000004_Node000005" class="edge">
<title>Node4&#45;&gt;Node5</title>
<g id="a_edge4_Node000004_Node000005"><a xlink:title=" ">
<path fill="none" stroke="#63b8ff" d="M474.93,-16.75C482.83,-16.75 490.98,-16.75 499.07,-16.75"/>
<polygon fill="#63b8ff" stroke="#63b8ff" points="498.92,-20.25 508.92,-16.75 498.92,-13.25 498.92,-20.25"/>
</a>
</g>
</g>
<!-- Node6 -->
<g id="Node000006" class="node">
<title>Node6</title>
<g id="a_Node000006"><a xlink:href="structImDrawList.html#a879aa38dbfb0344e3e023d65c002c7d7" target="_top" xlink:title=" ">
<polygon fill="white" stroke="#666666" points="821.75,-27.12 682,-27.12 682,-6.38 821.75,-6.38 821.75,-27.12"/>
<text text-anchor="middle" x="751.88" y="-13.62" font-family="Helvetica,sans-Serif" font-size="10.00">ImDrawList::PrimReserve</text>
</a>
</g>
</g>
<!-- Node5&#45;&gt;Node6 -->
<g id="edge5_Node000005_Node000006" class="edge">
<title>Node5&#45;&gt;Node6</title>
<g id="a_edge5_Node000005_Node000006"><a xlink:title=" ">
<path fill="none" stroke="#63b8ff" d="M646.17,-16.75C654.1,-16.75 662.25,-16.75 670.35,-16.75"/>
<polygon fill="#63b8ff" stroke="#63b8ff" points="670.2,-20.25 680.2,-16.75 670.2,-13.25 670.2,-20.25"/>
</a>
</g>
</g>
<!-- Node7 -->
<g id="Node000007" class="node">
<title>Node7</title>
<g id="a_Node000007"><a xlink:href="structImDrawList.html#a7f2e315f147acd8b555d86d1557659cc" target="_top" xlink:title=" ">
<polygon fill="white" stroke="#666666" points="1013.25,-33.5 857.75,-33.5 857.75,0 1013.25,0 1013.25,-33.5"/>
<text text-anchor="start" x="865.75" y="-20" font-family="Helvetica,sans-Serif" font-size="10.00">ImDrawList::_OnChangedVtx</text>
<text text-anchor="middle" x="935.5" y="-7.25" font-family="Helvetica,sans-Serif" font-size="10.00">Offset</text>
</a>
</g>
</g>
<!-- Node6&#45;&gt;Node7 -->
<g id="edge6_Node000006_Node000007" class="edge">
<title>Node6&#45;&gt;Node7</title>
<g id="a_edge6_Node000006_Node000007"><a xlink:title=" ">
<path fill="none" stroke="#63b8ff" d="M822.06,-16.75C829.89,-16.75 837.96,-16.75 846,-16.75"/>
<polygon fill="#63b8ff" stroke="#63b8ff" points="845.81,-20.25 855.81,-16.75 845.81,-13.25 845.81,-20.25"/>
</a>
</g>
</g>
<!-- Node8 -->
<g id="Node000008" class="node">
<title>Node8</title>
<g id="a_Node000008"><a xlink:href="structImDrawList.html#a846714bb0321c6f1f908767abc8559e6" target="_top" xlink:title=" ">
<polygon fill="white" stroke="#666666" points="1193.5,-27.12 1049.25,-27.12 1049.25,-6.38 1193.5,-6.38 1193.5,-27.12"/>
<text text-anchor="middle" x="1121.38" y="-13.62" font-family="Helvetica,sans-Serif" font-size="10.00">ImDrawList::AddDrawCmd</text>
</a>
</g>
</g>
<!-- Node7&#45;&gt;Node8 -->
<g id="edge7_Node000007_Node000008" class="edge">
<title>Node7&#45;&gt;Node8</title>
<g id="a_edge7_Node000007_Node000008"><a xlink:title=" ">
<path fill="none" stroke="#63b8ff" d="M1013.68,-16.75C1021.54,-16.75 1029.54,-16.75 1037.46,-16.75"/>
<polygon fill="#63b8ff" stroke="#63b8ff" points="1037.45,-20.25 1047.45,-16.75 1037.45,-13.25 1037.45,-20.25"/>
</a>
</g>
</g>
</g>
</svg>
