<?xml version="1.0" encoding="UTF-8" standalone="no"?>
<!DOCTYPE svg PUBLIC "-//W3C//DTD SVG 1.1//EN"
 "http://www.w3.org/Graphics/SVG/1.1/DTD/svg11.dtd">
<!-- Generated by graphviz version 12.0.0 (20240704.0754)
 -->
<!-- Title: ImGui::TableEndRow Pages: 1 -->
<!--zoomable 620 -->

<svg id="main" version="1.1" xmlns="http://www.w3.org/2000/svg" xmlns:xlink="http://www.w3.org/1999/xlink" xml:space="preserve" onload="init(evt)">
<style type="text/css"><![CDATA[
.node, .edge {opacity: 0.7;}
.node.selected, .edge.selected {opacity: 1;}
.edge:hover path { stroke: red; }
.edge:hover polygon { stroke: red; fill: red; }
]]></style>

<defs>
  <circle id="rim" cx="0" cy="0" r="7"/>
  <circle id="rim2" cx="0" cy="0" r="3.5"/>
  <g id="zoomPlus">
    <use xlink:href="#rim" fill="#404040"><set attributeName="fill" to="#808080" begin="zoomplus.mouseover" end="zoomplus.mouseout"/></use>
    <path d="M-4,0h8M0,-4v8" fill="none" stroke="white" stroke-width="1.5" pointer-events="none"/>
  </g>
  <g id="zoomMin">
    <use xlink:href="#rim" fill="#404040"><set attributeName="fill" to="#808080" begin="zoomminus.mouseover" end="zoomminus.mouseout"/></use>
    <path d="M-4,0h8" fill="none" stroke="white" stroke-width="1.5" pointer-events="none"/>
  </g>
  <g id="arrowUp" transform="translate(30 24)">
    <use xlink:href="#rim"/>
    <path pointer-events="none" fill="none" stroke="white" stroke-width="1.5" d="M0,-3.0v7 M-2.5,-0.5L0,-3.0L2.5,-0.5"/>
  </g>
  <g id="arrowRight" transform="rotate(90) translate(36 -43)">
    <use xlink:href="#rim"/>
    <path pointer-events="none" fill="none" stroke="white" stroke-width="1.5" d="M0,-3.0v7 M-2.5,-0.5L0,-3.0L2.5,-0.5"/>
  </g>
  <g id="arrowDown" transform="rotate(180) translate(-30 -48)">
    <use xlink:href="#rim"/>
    <path pointer-events="none" fill="none" stroke="white" stroke-width="1.5" d="M0,-3.0v7 M-2.5,-0.5L0,-3.0L2.5,-0.5"/>
  </g>
  <g id="arrowLeft" transform="rotate(270) translate(-36 17)">
    <use xlink:href="#rim"/>
    <path pointer-events="none" fill="none" stroke="white" stroke-width="1.5" d="M0,-3.0v7 M-2.5,-0.5L0,-3.0L2.5,-0.5"/>
  </g>
  <g id="resetDef">
    <use xlink:href="#rim2" fill="#404040"><set attributeName="fill" to="#808080" begin="reset.mouseover" end="reset.mouseout"/></use>
  </g>
</defs>
<script type="application/ecmascript">
var viewWidth = 1470;
var viewHeight = 620;
var sectionId = 'dynsection-1193';
</script>
<script type="application/ecmascript" xlink:href="svg.min.js"/>
<svg id="graph" class="graph">
<g id="viewport">
<title>ImGui::TableEndRow</title>
<!-- Node1 -->
<g id="Node000001" class="node">
<title>Node1</title>
<g id="a_Node000001"><a xlink:title=" ">
<polygon fill="#999999" stroke="#666666" points="1462.25,-219.05 1346.5,-219.05 1346.5,-198.3 1462.25,-198.3 1462.25,-219.05"/>
<text text-anchor="middle" x="1404.38" y="-205.55" font-family="Helvetica,sans-Serif" font-size="10.00">ImGui::TableEndRow</text>
</a>
</g>
</g>
<!-- Node2 -->
<g id="Node000002" class="node">
<title>Node2</title>
<g id="a_Node000002"><a xlink:href="structImGuiListClipper.html#a746fbd724a41dbe88fef4875a2b1e9c7" target="_top" xlink:title=" ">
<polygon fill="white" stroke="#666666" points="1310.5,-516.05 1179.75,-516.05 1179.75,-495.3 1310.5,-495.3 1310.5,-516.05"/>
<text text-anchor="middle" x="1245.12" y="-502.55" font-family="Helvetica,sans-Serif" font-size="10.00">ImGuiListClipper::Begin</text>
</a>
</g>
</g>
<!-- Node1&#45;&gt;Node2 -->
<g id="edge1_Node000001_Node000002" class="edge">
<title>Node1&#45;&gt;Node2</title>
<g id="a_edge1_Node000001_Node000002"><a xlink:title=" ">
<path fill="none" stroke="#63b8ff" d="M1392.58,-229.07C1361.9,-287.01 1274.92,-451.29 1251.82,-494.92"/>
<polygon fill="#63b8ff" stroke="#63b8ff" points="1395.48,-231.06 1397.07,-220.59 1389.3,-227.79 1395.48,-231.06"/>
</a>
</g>
</g>
<!-- Node15 -->
<g id="Node000015" class="node">
<title>Node15</title>
<g id="a_Node000015"><a xlink:href="namespaceImGui.html#a9c70aaa6464c2e51e6f3342da133ada1" target="_top" xlink:title=" ">
<polygon fill="white" stroke="#666666" points="731.5,-141.05 636.75,-141.05 636.75,-120.3 731.5,-120.3 731.5,-141.05"/>
<text text-anchor="middle" x="684.12" y="-127.55" font-family="Helvetica,sans-Serif" font-size="10.00">ImGui::EndTable</text>
</a>
</g>
</g>
<!-- Node1&#45;&gt;Node15 -->
<g id="edge26_Node000001_Node000015" class="edge">
<title>Node1&#45;&gt;Node15</title>
<g id="a_edge26_Node000001_Node000015"><a xlink:title=" ">
<path fill="none" stroke="#63b8ff" d="M1334.76,-201.23C1189.76,-185.48 855.41,-149.17 732,-135.77"/>
<polygon fill="#63b8ff" stroke="#63b8ff" points="1334.29,-204.7 1344.61,-202.3 1335.05,-197.74 1334.29,-204.7"/>
</a>
</g>
</g>
<!-- Node21 -->
<g id="Node000021" class="node">
<title>Node21</title>
<g id="a_Node000021"><a xlink:href="namespaceImGui.html#a33511cbfe04b545a1a51b514ab6c208c" target="_top" xlink:title=" ">
<polygon fill="white" stroke="#666666" points="941.38,-219.05 820.38,-219.05 820.38,-198.3 941.38,-198.3 941.38,-219.05"/>
<text text-anchor="middle" x="880.88" y="-205.55" font-family="Helvetica,sans-Serif" font-size="10.00">ImGui::TableNextRow</text>
</a>
</g>
</g>
<!-- Node1&#45;&gt;Node21 -->
<g id="edge38_Node000001_Node000021" class="edge">
<title>Node1&#45;&gt;Node21</title>
<g id="a_edge38_Node000001_Node000021"><a xlink:title=" ">
<path fill="none" stroke="#63b8ff" d="M1334.58,-208.68C1231.61,-208.68 1039.12,-208.68 941.67,-208.68"/>
<polygon fill="#63b8ff" stroke="#63b8ff" points="1334.56,-212.18 1344.56,-208.68 1334.56,-205.18 1334.56,-212.18"/>
</a>
</g>
</g>
<!-- Node3 -->
<g id="Node000003" class="node">
<title>Node3</title>
<g id="a_Node000003"><a xlink:href="namespaceImGui.html#ad530c65e7cdfaf03f4e9b2f4e3fed8fc" target="_top" xlink:title=" ">
<polygon fill="white" stroke="#666666" points="1111.12,-612.05 1025.38,-612.05 1025.38,-591.3 1111.12,-591.3 1111.12,-612.05"/>
<text text-anchor="middle" x="1068.25" y="-598.55" font-family="Helvetica,sans-Serif" font-size="10.00">ImGui::Combo</text>
</a>
</g>
</g>
<!-- Node2&#45;&gt;Node3 -->
<g id="edge2_Node000002_Node000003" class="edge">
<title>Node2&#45;&gt;Node3</title>
<g id="a_edge2_Node000002_Node000003"><a xlink:title=" ">
<path fill="none" stroke="#63b8ff" d="M1224.63,-524.13C1205.45,-541.34 1174.63,-566.57 1143.75,-581.68 1133.65,-586.62 1122.15,-590.48 1111.27,-593.42"/>
<polygon fill="#63b8ff" stroke="#63b8ff" points="1226.93,-526.76 1231.94,-517.43 1222.21,-521.6 1226.93,-526.76"/>
</a>
</g>
</g>
<!-- Node4 -->
<g id="Node000004" class="node">
<title>Node4</title>
<g id="a_Node000004"><a xlink:href="namespaceImGui.html#af7b5e35566da44ac1ea8a7e1b9d9d574" target="_top" xlink:title=" ">
<polygon fill="white" stroke="#666666" points="1143.75,-497.05 992.75,-497.05 992.75,-476.3 1143.75,-476.3 1143.75,-497.05"/>
<text text-anchor="middle" x="1068.25" y="-483.55" font-family="Helvetica,sans-Serif" font-size="10.00">ImGui::DebugNodeDrawList</text>
</a>
</g>
</g>
<!-- Node2&#45;&gt;Node4 -->
<g id="edge3_Node000002_Node000004" class="edge">
<title>Node2&#45;&gt;Node4</title>
<g id="a_edge3_Node000002_Node000004"><a xlink:title=" ">
<path fill="none" stroke="#63b8ff" d="M1168.33,-497.44C1160.34,-496.58 1152.22,-495.69 1144.24,-494.83"/>
<polygon fill="#63b8ff" stroke="#63b8ff" points="1167.68,-500.89 1178,-498.49 1168.44,-493.93 1167.68,-500.89"/>
</a>
</g>
</g>
<!-- Node12 -->
<g id="Node000012" class="node">
<title>Node12</title>
<g id="a_Node000012"><a xlink:href="structExampleAppLog.html#a5ad3a4bdb89171b84aeaff96948a1f77" target="_top" xlink:title=" ">
<polygon fill="white" stroke="#666666" points="1131.38,-573.05 1005.12,-573.05 1005.12,-552.3 1131.38,-552.3 1131.38,-573.05"/>
<text text-anchor="middle" x="1068.25" y="-559.55" font-family="Helvetica,sans-Serif" font-size="10.00">ExampleAppLog::Draw</text>
</a>
</g>
</g>
<!-- Node2&#45;&gt;Node12 -->
<g id="edge21_Node000002_Node000012" class="edge">
<title>Node2&#45;&gt;Node12</title>
<g id="a_edge21_Node000002_Node000012"><a xlink:title=" ">
<path fill="none" stroke="#63b8ff" d="M1200.74,-520.01C1183.07,-525.82 1162.44,-532.6 1143.75,-538.68 1130.44,-543.01 1115.78,-547.74 1103.01,-551.85"/>
<polygon fill="#63b8ff" stroke="#63b8ff" points="1201.75,-523.36 1210.16,-516.9 1199.56,-516.71 1201.75,-523.36"/>
</a>
</g>
</g>
<!-- Node13 -->
<g id="Node000013" class="node">
<title>Node13</title>
<g id="a_Node000013"><a xlink:href="namespaceImGui.html#a94c78076bd40ff548ecd124f95af8710" target="_top" xlink:title=" ">
<polygon fill="white" stroke="#666666" points="1111.88,-458.05 1024.62,-458.05 1024.62,-437.3 1111.88,-437.3 1111.88,-458.05"/>
<text text-anchor="middle" x="1068.25" y="-444.55" font-family="Helvetica,sans-Serif" font-size="10.00">ImGui::ListBox</text>
</a>
</g>
</g>
<!-- Node2&#45;&gt;Node13 -->
<g id="edge22_Node000002_Node000013" class="edge">
<title>Node2&#45;&gt;Node13</title>
<g id="a_edge22_Node000002_Node000013"><a xlink:title=" ">
<path fill="none" stroke="#63b8ff" d="M1207.43,-490.78C1188.56,-483.38 1165.1,-474.57 1143.75,-467.68 1133.55,-464.39 1122.46,-461.2 1112.01,-458.38"/>
<polygon fill="#63b8ff" stroke="#63b8ff" points="1205.97,-493.97 1216.55,-494.4 1208.55,-487.46 1205.97,-493.97"/>
</a>
</g>
</g>
<!-- Node14 -->
<g id="Node000014" class="node">
<title>Node14</title>
<g id="a_Node000014"><a xlink:href="namespaceImGui.html#af1b39e70cac2e1b9e62dd3c9d154cbd6" target="_top" xlink:title=" ">
<polygon fill="white" stroke="#666666" points="559.12,-535.05 393.88,-535.05 393.88,-514.3 559.12,-514.3 559.12,-535.05"/>
<text text-anchor="middle" x="476.5" y="-521.55" font-family="Helvetica,sans-Serif" font-size="10.00">ImGui::ShowDebugLogWindow</text>
</a>
</g>
</g>
<!-- Node2&#45;&gt;Node14 -->
<g id="edge23_Node000002_Node000014" class="edge">
<title>Node2&#45;&gt;Node14</title>
<g id="a_edge23_Node000002_Node000014"><a xlink:title=" ">
<path fill="none" stroke="#63b8ff" d="M1168.03,-507.56C1023.11,-511.16 708.69,-518.95 559.39,-522.65"/>
<polygon fill="#63b8ff" stroke="#63b8ff" points="1168,-511.07 1177.91,-507.32 1167.83,-504.07 1168,-511.07"/>
</a>
</g>
</g>
<!-- Node5 -->
<g id="Node000005" class="node">
<title>Node5</title>
<g id="a_Node000005"><a xlink:href="namespaceImGui.html#aa5e5f50f28c04a26264c0943c7281171" target="_top" xlink:title=" ">
<polygon fill="white" stroke="#666666" points="956.75,-459.05 805,-459.05 805,-438.3 956.75,-438.3 956.75,-459.05"/>
<text text-anchor="middle" x="880.88" y="-445.55" font-family="Helvetica,sans-Serif" font-size="10.00">ImGui::DebugNodeViewport</text>
</a>
</g>
</g>
<!-- Node4&#45;&gt;Node5 -->
<g id="edge4_Node000004_Node000005" class="edge">
<title>Node4&#45;&gt;Node5</title>
<g id="a_edge4_Node000004_Node000005"><a xlink:title=" ">
<path fill="none" stroke="#63b8ff" d="M1003.49,-473.61C981.04,-469.01 956.07,-463.89 934.63,-459.49"/>
<polygon fill="#63b8ff" stroke="#63b8ff" points="1002.64,-477.01 1013.14,-475.59 1004.05,-470.15 1002.64,-477.01"/>
</a>
</g>
</g>
<!-- Node6 -->
<g id="Node000006" class="node">
<title>Node6</title>
<g id="a_Node000006"><a xlink:href="namespaceImGui.html#afe7a28c6eb52fff3cc27d5a698fea4ff" target="_top" xlink:title=" ">
<polygon fill="white" stroke="#666666" points="344,-365.05 191.5,-365.05 191.5,-344.3 344,-344.3 344,-365.05"/>
<text text-anchor="middle" x="267.75" y="-351.55" font-family="Helvetica,sans-Serif" font-size="10.00">ImGui::ShowMetricsWindow</text>
</a>
</g>
</g>
<!-- Node4&#45;&gt;Node6 -->
<g id="edge20_Node000004_Node000006" class="edge">
<title>Node4&#45;&gt;Node6</title>
<g id="a_edge20_Node000004_Node000006"><a xlink:title=" ">
<path fill="none" stroke="#63b8ff" d="M981.19,-486.88C821.64,-485.82 487.32,-476.4 389.75,-417.68 366.9,-403.93 376.47,-383.64 353.75,-369.68 350.69,-367.8 347.45,-366.13 344.1,-364.67"/>
<polygon fill="#63b8ff" stroke="#63b8ff" points="980.83,-490.38 990.85,-486.94 980.87,-483.38 980.83,-490.38"/>
</a>
</g>
</g>
<!-- Node8 -->
<g id="Node000008" class="node">
<title>Node8</title>
<g id="a_Node000008"><a xlink:href="namespaceImGui.html#afcb602554925c5409977f0fb39f77e5d" target="_top" xlink:title=" ">
<polygon fill="white" stroke="#666666" points="954.5,-351.05 807.25,-351.05 807.25,-330.3 954.5,-330.3 954.5,-351.05"/>
<text text-anchor="middle" x="880.88" y="-337.55" font-family="Helvetica,sans-Serif" font-size="10.00">ImGui::DebugNodeWindow</text>
</a>
</g>
</g>
<!-- Node4&#45;&gt;Node8 -->
<g id="edge7_Node000004_Node000008" class="edge">
<title>Node4&#45;&gt;Node8</title>
<g id="a_edge7_Node000004_Node000008"><a xlink:title=" ">
<path fill="none" stroke="#63b8ff" d="M1001.46,-471.42C998.44,-469.98 995.52,-468.4 992.75,-466.68 979.88,-458.69 914.73,-380.5 890.75,-351.46"/>
<polygon fill="#63b8ff" stroke="#63b8ff" points="1000.02,-474.61 1010.6,-475.23 1002.72,-468.15 1000.02,-474.61"/>
</a>
</g>
</g>
<!-- Node5&#45;&gt;Node6 -->
<g id="edge5_Node000005_Node000006" class="edge">
<title>Node5&#45;&gt;Node6</title>
<g id="a_edge5_Node000005_Node000006"><a xlink:title=" ">
<path fill="none" stroke="#63b8ff" d="M793.29,-446.14C737.64,-443.69 663.92,-438.92 599.25,-429.68 504.88,-416.2 481,-411.26 389.75,-383.68 373.32,-378.71 370.28,-374.3 353.75,-369.68 348.41,-368.18 342.84,-366.81 337.21,-365.55"/>
<polygon fill="#63b8ff" stroke="#63b8ff" points="792.87,-449.62 803.01,-446.55 793.16,-442.63 792.87,-449.62"/>
</a>
</g>
</g>
<!-- Node7 -->
<g id="Node000007" class="node">
<title>Node7</title>
<g id="a_Node000007"><a xlink:href="namespaceImGui.html#af95643a0ce4893b9e57c12991922fb18" target="_top" xlink:title=" ">
<polygon fill="white" stroke="#666666" points="145.75,-223.05 0,-223.05 0,-202.3 145.75,-202.3 145.75,-223.05"/>
<text text-anchor="middle" x="72.88" y="-209.55" font-family="Helvetica,sans-Serif" font-size="10.00">ImGui::ShowDemoWindow</text>
</a>
</g>
</g>
<!-- Node6&#45;&gt;Node7 -->
<g id="edge6_Node000006_Node000007" class="edge">
<title>Node6&#45;&gt;Node7</title>
<g id="a_edge6_Node000006_Node000007"><a xlink:title=" ">
<path fill="none" stroke="#63b8ff" d="M243.15,-337.31C202.81,-307.61 121.72,-247.91 88.54,-223.48"/>
<polygon fill="#63b8ff" stroke="#63b8ff" points="240.91,-340 251.03,-343.11 245.06,-334.36 240.91,-340"/>
</a>
</g>
</g>
<!-- Node8&#45;&gt;Node8 -->
<g id="edge12_Node000008_Node000008" class="edge">
<title>Node8&#45;&gt;Node8</title>
<g id="a_edge12_Node000008_Node000008"><a xlink:title=" ">
<path fill="none" stroke="#63b8ff" d="M913.85,-362.54C909.48,-366.38 898.49,-369.05 880.88,-369.05 848.67,-369.05 838.61,-360.11 850.68,-351.45"/>
<polygon fill="#63b8ff" stroke="#63b8ff" points="917.26,-361.77 911.44,-352.92 910.47,-363.47 917.26,-361.77"/>
</a>
</g>
</g>
<!-- Node9 -->
<g id="Node000009" class="node">
<title>Node9</title>
<g id="a_Node000009"><a xlink:href="namespaceImGui.html#a8600f7b1f9b18926fb00837e56d2b3cd" target="_top" xlink:title=" ">
<polygon fill="white" stroke="#666666" points="555.75,-309.05 397.25,-309.05 397.25,-288.3 555.75,-288.3 555.75,-309.05"/>
<text text-anchor="middle" x="476.5" y="-295.55" font-family="Helvetica,sans-Serif" font-size="10.00">ImGui::DebugNodeDockNode</text>
</a>
</g>
</g>
<!-- Node8&#45;&gt;Node9 -->
<g id="edge8_Node000008_Node000009" class="edge">
<title>Node8&#45;&gt;Node9</title>
<g id="a_edge8_Node000008_Node000009"><a xlink:title=" ">
<path fill="none" stroke="#63b8ff" d="M848.05,-326.85C825.95,-321.29 795.78,-316.02 769,-312.68 697.09,-303.7 614.74,-297.58 555.95,-295.49"/>
<polygon fill="#63b8ff" stroke="#63b8ff" points="847.09,-330.21 857.65,-329.47 848.93,-323.46 847.09,-330.21"/>
</a>
</g>
</g>
<!-- Node10 -->
<g id="Node000010" class="node">
<title>Node10</title>
<g id="a_Node000010"><a xlink:href="namespaceImGui.html#a8c2ed9f140c90d8eaca1e2cfd8f46142" target="_top" xlink:title=" ">
<polygon fill="white" stroke="#666666" points="769,-351.05 599.25,-351.05 599.25,-330.3 769,-330.3 769,-351.05"/>
<text text-anchor="middle" x="684.12" y="-337.55" font-family="Helvetica,sans-Serif" font-size="10.00">ImGui::DebugNodeWindowsList</text>
</a>
</g>
</g>
<!-- Node8&#45;&gt;Node10 -->
<g id="edge13_Node000008_Node000010" class="edge">
<title>Node8&#45;&gt;Node10</title>
<g id="a_edge13_Node000008_Node000010"><a xlink:title=" ">
<path fill="none" stroke="#63b8ff" d="M795.53,-333.98C786.87,-333.91 778.07,-333.91 769.42,-333.98"/>
<polygon fill="#63b8ff" stroke="#63b8ff" points="795.25,-337.48 805.29,-334.1 795.33,-330.48 795.25,-337.48"/>
</a>
</g>
</g>
<!-- Node11 -->
<g id="Node000011" class="node">
<title>Node11</title>
<g id="a_Node000011"><a xlink:href="namespaceImGui.html#a0fc8019faf3a1aec25b554384ad9e506" target="_top" xlink:title=" ">
<polygon fill="white" stroke="#666666" points="769,-402.43 599.25,-402.43 599.25,-368.93 769,-368.93 769,-402.43"/>
<text text-anchor="start" x="607.25" y="-388.93" font-family="Helvetica,sans-Serif" font-size="10.00">ImGui::DebugNodeWindowsList</text>
<text text-anchor="middle" x="684.12" y="-376.18" font-family="Helvetica,sans-Serif" font-size="10.00">ByBeginStackParent</text>
</a>
</g>
</g>
<!-- Node8&#45;&gt;Node11 -->
<g id="edge17_Node000008_Node000011" class="edge">
<title>Node8&#45;&gt;Node11</title>
<g id="a_edge17_Node000008_Node000011"><a xlink:title=" ">
<path fill="none" stroke="#63b8ff" d="M822.01,-354.05C802.41,-358.58 780.23,-363.7 759.53,-368.49"/>
<polygon fill="#63b8ff" stroke="#63b8ff" points="822.8,-357.46 831.75,-351.8 821.22,-350.64 822.8,-357.46"/>
</a>
</g>
</g>
<!-- Node9&#45;&gt;Node6 -->
<g id="edge11_Node000009_Node000006" class="edge">
<title>Node9&#45;&gt;Node6</title>
<g id="a_edge11_Node000009_Node000006"><a xlink:title=" ">
<path fill="none" stroke="#63b8ff" d="M424.95,-312.37C389.22,-322.05 341.98,-334.84 308.84,-343.82"/>
<polygon fill="#63b8ff" stroke="#63b8ff" points="425.44,-315.86 434.18,-309.87 423.61,-309.11 425.44,-315.86"/>
</a>
</g>
</g>
<!-- Node9&#45;&gt;Node8 -->
<g id="edge10_Node000009_Node000008" class="edge">
<title>Node9&#45;&gt;Node8</title>
<g id="a_edge10_Node000009_Node000008"><a xlink:title=" ">
<path fill="none" stroke="#63b8ff" d="M558.3,-310.58C616.92,-315.75 698.04,-321.82 769,-330.68 781.31,-332.22 794.33,-334.16 806.96,-336.08"/>
<polygon fill="#63b8ff" stroke="#63b8ff" points="558.66,-307.09 548.39,-309.69 558.04,-314.07 558.66,-307.09"/>
</a>
</g>
</g>
<!-- Node9&#45;&gt;Node9 -->
<g id="edge9_Node000009_Node000009" class="edge">
<title>Node9&#45;&gt;Node9</title>
<g id="a_edge9_Node000009_Node000009"><a xlink:title=" ">
<path fill="none" stroke="#63b8ff" d="M513.03,-320.54C508.19,-324.38 496.02,-327.05 476.5,-327.05 440.81,-327.05 429.66,-318.11 443.04,-309.45"/>
<polygon fill="#63b8ff" stroke="#63b8ff" points="516.41,-319.61 510.36,-310.91 509.66,-321.48 516.41,-319.61"/>
</a>
</g>
</g>
<!-- Node10&#45;&gt;Node6 -->
<g id="edge16_Node000010_Node000006" class="edge">
<title>Node10&#45;&gt;Node6</title>
<g id="a_edge16_Node000010_Node000006"><a xlink:title=" ">
<path fill="none" stroke="#63b8ff" d="M587.6,-343.91C513.66,-346.4 412.64,-349.82 344.28,-352.13"/>
<polygon fill="#63b8ff" stroke="#63b8ff" points="587.38,-347.42 597.26,-343.58 587.15,-340.42 587.38,-347.42"/>
</a>
</g>
</g>
<!-- Node10&#45;&gt;Node8 -->
<g id="edge15_Node000010_Node000008" class="edge">
<title>Node10&#45;&gt;Node8</title>
<g id="a_edge15_Node000010_Node000008"><a xlink:title=" ">
<path fill="none" stroke="#63b8ff" d="M780.85,-347.43C789.58,-347.44 798.32,-347.37 806.8,-347.24"/>
<polygon fill="#63b8ff" stroke="#63b8ff" points="780.95,-343.93 770.93,-347.38 780.92,-350.93 780.95,-343.93"/>
</a>
</g>
</g>
<!-- Node10&#45;&gt;Node9 -->
<g id="edge14_Node000010_Node000009" class="edge">
<title>Node10&#45;&gt;Node9</title>
<g id="a_edge14_Node000010_Node000009"><a xlink:title=" ">
<path fill="none" stroke="#63b8ff" d="M618.86,-327.55C590.46,-321.75 557.46,-315.01 530.5,-309.5"/>
<polygon fill="#63b8ff" stroke="#63b8ff" points="617.92,-330.93 628.42,-329.51 619.32,-324.07 617.92,-330.93"/>
</a>
</g>
</g>
<!-- Node11&#45;&gt;Node6 -->
<g id="edge19_Node000011_Node000006" class="edge">
<title>Node11&#45;&gt;Node6</title>
<g id="a_edge19_Node000011_Node000006"><a xlink:title=" ">
<path fill="none" stroke="#63b8ff" d="M587.6,-378.53C513.66,-373 412.64,-365.44 344.28,-360.33"/>
<polygon fill="#63b8ff" stroke="#63b8ff" points="587.03,-382 597.26,-379.26 587.55,-375.02 587.03,-382"/>
</a>
</g>
</g>
<!-- Node11&#45;&gt;Node11 -->
<g id="edge18_Node000011_Node000011" class="edge">
<title>Node11&#45;&gt;Node11</title>
<g id="a_edge18_Node000011_Node000011"><a xlink:title=" ">
<path fill="none" stroke="#63b8ff" d="M717.16,-413.82C711.78,-417.78 700.77,-420.43 684.12,-420.43 654.54,-420.43 642.75,-412.05 648.76,-402.84"/>
<polygon fill="#63b8ff" stroke="#63b8ff" points="720.52,-414.83 719.18,-404.32 713.68,-413.38 720.52,-414.83"/>
</a>
</g>
</g>
<!-- Node14&#45;&gt;Node6 -->
<g id="edge25_Node000014_Node000006" class="edge">
<title>Node14&#45;&gt;Node6</title>
<g id="a_edge25_Node000014_Node000006"><a xlink:title=" ">
<path fill="none" stroke="#63b8ff" d="M404.78,-509.53C399.46,-507.02 394.37,-504.09 389.75,-500.68 365.95,-483.1 371.99,-467.98 353.75,-444.68 329.77,-414.05 297.21,-381.74 280.19,-365.44"/>
<polygon fill="#63b8ff" stroke="#63b8ff" points="403.26,-512.69 413.84,-513.29 405.94,-506.23 403.26,-512.69"/>
</a>
</g>
</g>
<!-- Node14&#45;&gt;Node7 -->
<g id="edge24_Node000014_Node000007" class="edge">
<title>Node14&#45;&gt;Node7</title>
<g id="a_edge24_Node000014_Node000007"><a xlink:title=" ">
<path fill="none" stroke="#63b8ff" d="M417.13,-510.68C407.82,-507.79 398.41,-504.45 389.75,-500.68 290.44,-457.45 259.94,-448.64 181.75,-373.68 131.72,-325.71 92.35,-250.69 78.89,-223.22"/>
<polygon fill="#63b8ff" stroke="#63b8ff" points="415.93,-513.98 426.51,-513.45 417.91,-507.26 415.93,-513.98"/>
</a>
</g>
</g>
<!-- Node15&#45;&gt;Node7 -->
<g id="edge32_Node000015_Node000007" class="edge">
<title>Node15&#45;&gt;Node7</title>
<g id="a_edge32_Node000015_Node000007"><a xlink:title=" ">
<path fill="none" stroke="#63b8ff" d="M662.67,-112.51C640.13,-93.76 601.92,-65.63 563.25,-53.68 401.24,-3.6 330.9,33.01 181.75,-47.68 118.54,-81.88 86.44,-171 76.95,-201.92"/>
<polygon fill="#63b8ff" stroke="#63b8ff" points="660.29,-115.08 670.17,-118.91 664.84,-109.75 660.29,-115.08"/>
</a>
</g>
</g>
<!-- Node15&#45;&gt;Node9 -->
<g id="edge27_Node000015_Node000009" class="edge">
<title>Node15&#45;&gt;Node9</title>
<g id="a_edge27_Node000015_Node000009"><a xlink:title=" ">
<path fill="none" stroke="#63b8ff" d="M625.54,-135.83C615.82,-138.96 606.54,-143.66 599.25,-150.68 556.37,-191.96 606.46,-238.74 563.25,-279.68 559.82,-282.93 555.96,-285.67 551.83,-287.98"/>
<polygon fill="#63b8ff" stroke="#63b8ff" points="626.36,-139.24 635.15,-133.32 624.59,-132.46 626.36,-139.24"/>
</a>
</g>
</g>
<!-- Node16 -->
<g id="Node000016" class="node">
<title>Node16</title>
<g id="a_Node000016"><a xlink:href="namespaceImGui.html#a326f0badd138d1dea078a31b0e8dd685" target="_top" xlink:title=" ">
<polygon fill="white" stroke="#666666" points="550.12,-181.05 402.88,-181.05 402.88,-160.3 550.12,-160.3 550.12,-181.05"/>
<text text-anchor="middle" x="476.5" y="-167.55" font-family="Helvetica,sans-Serif" font-size="10.00">ImGui::DebugTextEncoding</text>
</a>
</g>
</g>
<!-- Node15&#45;&gt;Node16 -->
<g id="edge28_Node000015_Node000016" class="edge">
<title>Node15&#45;&gt;Node16</title>
<g id="a_edge28_Node000015_Node000016"><a xlink:title=" ">
<path fill="none" stroke="#63b8ff" d="M625.31,-141.93C596.44,-147.54 561.67,-154.31 533.1,-159.86"/>
<polygon fill="#63b8ff" stroke="#63b8ff" points="625.83,-145.39 634.98,-140.04 624.5,-138.52 625.83,-145.39"/>
</a>
</g>
</g>
<!-- Node17 -->
<g id="Node000017" class="node">
<title>Node17</title>
<g id="a_Node000017"><a xlink:href="namespaceImGui.html#a945392cbf05b9434df8ec3630b10e01a" target="_top" xlink:title=" ">
<polygon fill="white" stroke="#666666" points="557.25,-96.43 395.75,-96.43 395.75,-62.93 557.25,-62.93 557.25,-96.43"/>
<text text-anchor="start" x="403.75" y="-82.93" font-family="Helvetica,sans-Serif" font-size="10.00">ImGui::ErrorCheckEndWindow</text>
<text text-anchor="middle" x="476.5" y="-70.18" font-family="Helvetica,sans-Serif" font-size="10.00">Recover</text>
</a>
</g>
</g>
<!-- Node15&#45;&gt;Node17 -->
<g id="edge30_Node000015_Node000017" class="edge">
<title>Node15&#45;&gt;Node17</title>
<g id="a_edge30_Node000015_Node000017"><a xlink:title=" ">
<path fill="none" stroke="#63b8ff" d="M628.4,-117.11C603.4,-110.91 573.5,-103.49 546.94,-96.9"/>
<polygon fill="#63b8ff" stroke="#63b8ff" points="627.5,-120.49 638.05,-119.5 629.18,-113.69 627.5,-120.49"/>
</a>
</g>
</g>
<!-- Node19 -->
<g id="Node000019" class="node">
<title>Node19</title>
<g id="a_Node000019"><a xlink:href="namespaceImGui.html#ab4a87bf4a874a8e5872b60b4a9b1d99e" target="_top" xlink:title=" ">
<polygon fill="white" stroke="#666666" points="563.25,-142.05 389.75,-142.05 389.75,-121.3 563.25,-121.3 563.25,-142.05"/>
<text text-anchor="middle" x="476.5" y="-128.55" font-family="Helvetica,sans-Serif" font-size="10.00">ImGui::ShowIDStackToolWindow</text>
</a>
</g>
</g>
<!-- Node15&#45;&gt;Node19 -->
<g id="edge33_Node000015_Node000019" class="edge">
<title>Node15&#45;&gt;Node19</title>
<g id="a_edge33_Node000015_Node000019"><a xlink:title=" ">
<path fill="none" stroke="#63b8ff" d="M624.96,-130.96C605.89,-131.05 584.29,-131.16 563.61,-131.26"/>
<polygon fill="#63b8ff" stroke="#63b8ff" points="624.97,-134.46 634.95,-130.91 624.94,-127.46 624.97,-134.46"/>
</a>
</g>
</g>
<!-- Node16&#45;&gt;Node6 -->
<g id="edge29_Node000016_Node000006" class="edge">
<title>Node16&#45;&gt;Node6</title>
<g id="a_edge29_Node000016_Node000006"><a xlink:title=" ">
<path fill="none" stroke="#63b8ff" d="M446.25,-187.01C428.87,-197.44 406.94,-211.94 389.75,-227.68 370.86,-244.97 371,-253.75 353.75,-272.68 329.17,-299.65 297.67,-328.76 280.77,-343.99"/>
<polygon fill="#63b8ff" stroke="#63b8ff" points="447.72,-190.2 454.58,-182.12 444.18,-184.16 447.72,-190.2"/>
</a>
</g>
</g>
<!-- Node18 -->
<g id="Node000018" class="node">
<title>Node18</title>
<g id="a_Node000018"><a xlink:href="namespaceImGui.html#aaeda60ee2c0b5c2b3f397b237c9928f3" target="_top" xlink:title=" ">
<polygon fill="white" stroke="#666666" points="344.38,-90.43 191.12,-90.43 191.12,-56.93 344.38,-56.93 344.38,-90.43"/>
<text text-anchor="start" x="199.12" y="-76.93" font-family="Helvetica,sans-Serif" font-size="10.00">ImGui::ErrorCheckEndFrame</text>
<text text-anchor="middle" x="267.75" y="-64.18" font-family="Helvetica,sans-Serif" font-size="10.00">Recover</text>
</a>
</g>
</g>
<!-- Node17&#45;&gt;Node18 -->
<g id="edge31_Node000017_Node000018" class="edge">
<title>Node17&#45;&gt;Node18</title>
<g id="a_edge31_Node000017_Node000018"><a xlink:title=" ">
<path fill="none" stroke="#63b8ff" d="M383.9,-77.02C370.86,-76.64 357.57,-76.26 344.87,-75.89"/>
<polygon fill="#63b8ff" stroke="#63b8ff" points="383.66,-80.51 393.76,-77.31 383.86,-73.52 383.66,-80.51"/>
</a>
</g>
</g>
<!-- Node19&#45;&gt;Node6 -->
<g id="edge35_Node000019_Node000006" class="edge">
<title>Node19&#45;&gt;Node6</title>
<g id="a_edge35_Node000019_Node000006"><a xlink:title=" ">
<path fill="none" stroke="#63b8ff" d="M393.55,-148.42C392.24,-149.45 390.97,-150.53 389.75,-151.68 348.9,-190.14 382.9,-224.74 353.75,-272.68 335.32,-302.99 302.98,-329.78 283.95,-343.97"/>
<polygon fill="#63b8ff" stroke="#63b8ff" points="395.04,-151.63 401.56,-143.28 391.25,-145.74 395.04,-151.63"/>
</a>
</g>
</g>
<!-- Node19&#45;&gt;Node7 -->
<g id="edge34_Node000019_Node000007" class="edge">
<title>Node19&#45;&gt;Node7</title>
<g id="a_edge34_Node000019_Node000007"><a xlink:title=" ">
<path fill="none" stroke="#63b8ff" d="M381.82,-119.99C322.96,-115.93 246.24,-116.74 181.75,-137.68 141.4,-150.78 102.74,-184.44 84.61,-201.86"/>
<polygon fill="#63b8ff" stroke="#63b8ff" points="381.23,-123.45 391.46,-120.71 381.76,-116.47 381.23,-123.45"/>
</a>
</g>
</g>
<!-- Node20 -->
<g id="Node000020" class="node">
<title>Node20</title>
<g id="a_Node000020"><a xlink:href="namespaceImGui.html#a1b6e100d30894c9379908efc540e5486" target="_top" xlink:title=" ">
<polygon fill="white" stroke="#666666" points="349.25,-167.05 186.25,-167.05 186.25,-146.3 349.25,-146.3 349.25,-167.05"/>
<text text-anchor="middle" x="267.75" y="-153.55" font-family="Helvetica,sans-Serif" font-size="10.00">ImGui::ShowStackToolWindow</text>
</a>
</g>
</g>
<!-- Node19&#45;&gt;Node20 -->
<g id="edge36_Node000019_Node000020" class="edge">
<title>Node19&#45;&gt;Node20</title>
<g id="a_edge36_Node000019_Node000020"><a xlink:title=" ">
<path fill="none" stroke="#63b8ff" d="M378.12,-143.45C368.54,-144.61 358.89,-145.78 349.5,-146.91"/>
<polygon fill="#63b8ff" stroke="#63b8ff" points="378.31,-146.96 387.81,-142.28 377.47,-140.01 378.31,-146.96"/>
</a>
</g>
</g>
<!-- Node20&#45;&gt;Node20 -->
<g id="edge37_Node000020_Node000020" class="edge">
<title>Node20&#45;&gt;Node20</title>
<g id="a_edge37_Node000020_Node000020"><a xlink:title=" ">
<path fill="none" stroke="#63b8ff" d="M302.04,-178.54C297.5,-182.38 286.07,-185.05 267.75,-185.05 234.26,-185.05 223.79,-176.11 236.35,-167.45"/>
<polygon fill="#63b8ff" stroke="#63b8ff" points="305.44,-177.71 299.53,-168.92 298.67,-179.48 305.44,-177.71"/>
</a>
</g>
</g>
<!-- Node22 -->
<g id="Node000022" class="node">
<title>Node22</title>
<g id="a_Node000022"><a xlink:href="namespaceImGui.html#a768f1f8de0f5922c7005c952bb40cdc9" target="_top" xlink:title=" ">
<polygon fill="white" stroke="#666666" points="552,-270.43 401,-270.43 401,-236.93 552,-236.93 552,-270.43"/>
<text text-anchor="start" x="409" y="-256.93" font-family="Helvetica,sans-Serif" font-size="10.00">ImGui::TableAngledHeaders</text>
<text text-anchor="middle" x="476.5" y="-244.18" font-family="Helvetica,sans-Serif" font-size="10.00">RowEx</text>
</a>
</g>
</g>
<!-- Node21&#45;&gt;Node22 -->
<g id="edge39_Node000021_Node000022" class="edge">
<title>Node21&#45;&gt;Node22</title>
<g id="a_edge39_Node000021_Node000022"><a xlink:title=" ">
<path fill="none" stroke="#63b8ff" d="M810.94,-221.38C797.08,-223.68 782.6,-225.91 769,-227.68 695.57,-237.23 611.26,-244.33 552.27,-248.68"/>
<polygon fill="#63b8ff" stroke="#63b8ff" points="811.12,-224.9 820.4,-219.78 809.95,-218 811.12,-224.9"/>
</a>
</g>
</g>
<!-- Node24 -->
<g id="Node000024" class="node">
<title>Node24</title>
<g id="a_Node000024"><a xlink:href="namespaceImGui.html#a0c16791f4620e8db38511553d5d63335" target="_top" xlink:title=" ">
<polygon fill="white" stroke="#666666" points="753.25,-180.05 615,-180.05 615,-159.3 753.25,-159.3 753.25,-180.05"/>
<text text-anchor="middle" x="684.12" y="-166.55" font-family="Helvetica,sans-Serif" font-size="10.00">ImGui::TableHeadersRow</text>
</a>
</g>
</g>
<!-- Node21&#45;&gt;Node24 -->
<g id="edge41_Node000021_Node000024" class="edge">
<title>Node21&#45;&gt;Node24</title>
<g id="a_edge41_Node000021_Node000024"><a xlink:title=" ">
<path fill="none" stroke="#63b8ff" d="M814.64,-195.62C790.22,-190.72 762.75,-185.22 739.42,-180.55"/>
<polygon fill="#63b8ff" stroke="#63b8ff" points="813.65,-198.99 824.14,-197.52 815.02,-192.12 813.65,-198.99"/>
</a>
</g>
</g>
<!-- Node25 -->
<g id="Node000025" class="node">
<title>Node25</title>
<g id="a_Node000025"><a xlink:href="namespaceImGui.html#ac9925e8335f55449b1be988829e37ba5" target="_top" xlink:title=" ">
<polygon fill="white" stroke="#666666" points="752.88,-219.05 615.38,-219.05 615.38,-198.3 752.88,-198.3 752.88,-219.05"/>
<text text-anchor="middle" x="684.12" y="-205.55" font-family="Helvetica,sans-Serif" font-size="10.00">ImGui::TableNextColumn</text>
</a>
</g>
</g>
<!-- Node21&#45;&gt;Node25 -->
<g id="edge44_Node000021_Node000025" class="edge">
<title>Node21&#45;&gt;Node25</title>
<g id="a_edge44_Node000021_Node000025"><a xlink:title=" ">
<path fill="none" stroke="#63b8ff" d="M808.74,-208.68C790.64,-208.68 771.23,-208.68 753.28,-208.68"/>
<polygon fill="#63b8ff" stroke="#63b8ff" points="808.61,-212.18 818.61,-208.68 808.61,-205.18 808.61,-212.18"/>
</a>
</g>
</g>
<!-- Node23 -->
<g id="Node000023" class="node">
<title>Node23</title>
<g id="a_Node000023"><a xlink:href="namespaceImGui.html#a17eb2b71b2aff472d9d56c838586b73b" target="_top" xlink:title=" ">
<polygon fill="white" stroke="#666666" points="353.75,-264.05 181.75,-264.05 181.75,-243.3 353.75,-243.3 353.75,-264.05"/>
<text text-anchor="middle" x="267.75" y="-250.55" font-family="Helvetica,sans-Serif" font-size="10.00">ImGui::TableAngledHeadersRow</text>
</a>
</g>
</g>
<!-- Node22&#45;&gt;Node23 -->
<g id="edge40_Node000022_Node000023" class="edge">
<title>Node22&#45;&gt;Node23</title>
<g id="a_edge40_Node000022_Node000023"><a xlink:title=" ">
<path fill="none" stroke="#63b8ff" d="M389.07,-253.68C377.45,-253.68 365.54,-253.68 353.95,-253.68"/>
<polygon fill="#63b8ff" stroke="#63b8ff" points="389.05,-257.18 399.05,-253.68 389.05,-250.18 389.05,-257.18"/>
</a>
</g>
</g>
<!-- Node24&#45;&gt;Node16 -->
<g id="edge42_Node000024_Node000016" class="edge">
<title>Node24&#45;&gt;Node16</title>
<g id="a_edge42_Node000024_Node000016"><a xlink:title=" ">
<path fill="none" stroke="#63b8ff" d="M603.39,-170.07C586.02,-170.15 567.71,-170.24 550.61,-170.32"/>
<polygon fill="#63b8ff" stroke="#63b8ff" points="603.16,-173.57 613.14,-170.02 603.12,-166.57 603.16,-173.57"/>
</a>
</g>
</g>
<!-- Node24&#45;&gt;Node19 -->
<g id="edge43_Node000024_Node000019" class="edge">
<title>Node24&#45;&gt;Node19</title>
<g id="a_edge43_Node000024_Node000019"><a xlink:title=" ">
<path fill="none" stroke="#63b8ff" d="M613.2,-156.76C588.17,-152.13 560.22,-146.97 536.23,-142.53"/>
<polygon fill="#63b8ff" stroke="#63b8ff" points="612.52,-160.19 622.99,-158.57 613.79,-153.31 612.52,-160.19"/>
</a>
</g>
</g>
<!-- Node25&#45;&gt;Node7 -->
<g id="edge47_Node000025_Node000007" class="edge">
<title>Node25&#45;&gt;Node7</title>
<g id="a_edge47_Node000025_Node000007"><a xlink:title=" ">
<path fill="none" stroke="#63b8ff" d="M603.8,-209.2C484.48,-209.98 260.59,-211.45 145.78,-212.21"/>
<polygon fill="#63b8ff" stroke="#63b8ff" points="603.52,-212.7 613.5,-209.14 603.47,-205.7 603.52,-212.7"/>
</a>
</g>
</g>
<!-- Node25&#45;&gt;Node9 -->
<g id="edge45_Node000025_Node000009" class="edge">
<title>Node25&#45;&gt;Node9</title>
<g id="a_edge45_Node000025_Node000009"><a xlink:title=" ">
<path fill="none" stroke="#63b8ff" d="M659.28,-225.9C635.89,-242.03 598.68,-265.68 563.25,-279.68 555.17,-282.87 546.43,-285.59 537.74,-287.88"/>
<polygon fill="#63b8ff" stroke="#63b8ff" points="660.99,-228.98 667.17,-220.37 656.97,-223.25 660.99,-228.98"/>
</a>
</g>
</g>
<!-- Node25&#45;&gt;Node16 -->
<g id="edge46_Node000025_Node000016" class="edge">
<title>Node25&#45;&gt;Node16</title>
<g id="a_edge46_Node000025_Node000016"><a xlink:title=" ">
<path fill="none" stroke="#63b8ff" d="M613.2,-195.76C588.17,-191.13 560.22,-185.97 536.23,-181.53"/>
<polygon fill="#63b8ff" stroke="#63b8ff" points="612.52,-199.19 622.99,-197.57 613.79,-192.31 612.52,-199.19"/>
</a>
</g>
</g>
<!-- Node25&#45;&gt;Node19 -->
<g id="edge48_Node000025_Node000019" class="edge">
<title>Node25&#45;&gt;Node19</title>
<g id="a_edge48_Node000025_Node000019"><a xlink:title=" ">
<path fill="none" stroke="#63b8ff" d="M609.77,-193.87C606.14,-192.31 602.61,-190.58 599.25,-188.68 579.3,-177.35 583.23,-162.96 563.25,-151.68 556.73,-148 549.56,-144.99 542.23,-142.54"/>
<polygon fill="#63b8ff" stroke="#63b8ff" points="608.24,-197.03 618.83,-197.31 610.72,-190.49 608.24,-197.03"/>
</a>
</g>
</g>
<!-- Node25&#45;&gt;Node22 -->
<g id="edge49_Node000025_Node000022" class="edge">
<title>Node25&#45;&gt;Node22</title>
<g id="a_edge49_Node000025_Node000022"><a xlink:title=" ">
<path fill="none" stroke="#63b8ff" d="M622.43,-221.96C600.44,-226.77 575.35,-232.26 552.3,-237.31"/>
<polygon fill="#63b8ff" stroke="#63b8ff" points="623.11,-225.4 632.13,-219.84 621.62,-218.56 623.11,-225.4"/>
</a>
</g>
</g>
</g>
</svg>

<g id="navigator" transform="translate(0 0)" fill="#404254">
  <rect fill="#f2f5e9" fill-opacity="0.5" stroke="#606060" stroke-width=".5" x="0" y="0" width="60" height="60"/>
  <use id="zoomplus" xlink:href="#zoomPlus" x="17" y="9" onmousedown="handleZoom(evt,'in')"/>
  <use id="zoomminus" xlink:href="#zoomMin" x="42" y="9" onmousedown="handleZoom(evt,'out')"/>
  <use id="reset" xlink:href="#resetDef" x="30" y="36" onmousedown="handleReset()"/>
   <use id="arrowup" xlink:href="#arrowUp" x="0" y="0" onmousedown="handlePan(0,-1)"/>
  <use id="arrowright" xlink:href="#arrowRight" x="0" y="0" onmousedown="handlePan(1,0)"/>
  <use id="arrowdown" xlink:href="#arrowDown" x="0" y="0" onmousedown="handlePan(0,1)"/>
  <use id="arrowleft" xlink:href="#arrowLeft" x="0" y="0" onmousedown="handlePan(-1,0)"/>
</g>
<svg viewBox="0 0 15 15" width="100%" height="30px" preserveAspectRatio="xMaxYMin meet">
 <g id="arrow_out" transform="scale(0.3 0.3)">
  <a xlink:href="namespaceImGui_a6bc4ce6f7ff9f8268473f5e538a1181f_icgraph_org.svg" target="_base">
   <rect id="button" ry="5" rx="5" y="6" x="6" height="38" width="38"
        fill="#f2f5e9" fill-opacity="0.5" stroke="#606060" stroke-width="1.0"/>
   <path id="arrow"
     d="M 11.500037,31.436501 C 11.940474,20.09759 22.043105,11.32322 32.158766,21.979434 L 37.068811,17.246167 C 37.068811,17.246167 37.088388,32 37.088388,32 L 22.160133,31.978069 C 22.160133,31.978069 26.997745,27.140456 26.997745,27.140456 C 18.528582,18.264221 13.291696,25.230495 11.500037,31.436501 z"
     style="fill:#404040;"/>
  </a>
 </g>
</svg>

<style type='text/css'>
<![CDATA[
[data-mouse-over-selected='false'] { opacity: 0.7; }
[data-mouse-over-selected='true']  { opacity: 1.0; }
]]>
</style>
<script type="application/ecmascript"><![CDATA[
document.addEventListener('DOMContentLoaded', (event) => {
  highlightEdges();
  highlightAdjacentNodes();
});
]]></script>
</svg>
