<?xml version="1.0" encoding="UTF-8" standalone="no"?>
<!DOCTYPE svg PUBLIC "-//W3C//DTD SVG 1.1//EN"
 "http://www.w3.org/Graphics/SVG/1.1/DTD/svg11.dtd">
<!-- Generated by graphviz version 13.1.0 (20250701.0955)
 -->
<!-- Title: steppable::__internals::calc::getQuotientRemainder Pages: 1 -->
<!--zoomable 354 -->

<svg id="main" version="1.1" xmlns="http://www.w3.org/2000/svg" xmlns:xlink="http://www.w3.org/1999/xlink" xml:space="preserve" onload="init(evt)">

<style type="text/css"><![CDATA[
.node, .edge {opacity: 0.7;}
.node.selected, .edge.selected {opacity: 1;}
.edge:hover path { stroke: red; }
.edge:hover polygon { stroke: red; fill: red; }
]]></style>

<defs>
  <circle id="rim" cx="0" cy="0" r="7"/>
  <circle id="rim2" cx="0" cy="0" r="3.5"/>
  <g id="zoomPlus">
    <use xlink:href="#rim" fill="#404040"><set attributeName="fill" to="#808080" begin="zoomplus.mouseover" end="zoomplus.mouseout"/></use>
    <path d="M-4,0h8M0,-4v8" fill="none" stroke="white" stroke-width="1.5" pointer-events="none"/>
  </g>
  <g id="zoomMin">
    <use xlink:href="#rim" fill="#404040"><set attributeName="fill" to="#808080" begin="zoomminus.mouseover" end="zoomminus.mouseout"/></use>
    <path d="M-4,0h8" fill="none" stroke="white" stroke-width="1.5" pointer-events="none"/>
  </g>
  <g id="arrowUp" transform="translate(30 24)">
    <use xlink:href="#rim"/>
    <path pointer-events="none" fill="none" stroke="white" stroke-width="1.5" d="M0,-3.0v7 M-2.5,-0.5L0,-3.0L2.5,-0.5"/>
  </g>
  <g id="arrowRight" transform="rotate(90) translate(36 -43)">
    <use xlink:href="#rim"/>
    <path pointer-events="none" fill="none" stroke="white" stroke-width="1.5" d="M0,-3.0v7 M-2.5,-0.5L0,-3.0L2.5,-0.5"/>
  </g>
  <g id="arrowDown" transform="rotate(180) translate(-30 -48)">
    <use xlink:href="#rim"/>
    <path pointer-events="none" fill="none" stroke="white" stroke-width="1.5" d="M0,-3.0v7 M-2.5,-0.5L0,-3.0L2.5,-0.5"/>
  </g>
  <g id="arrowLeft" transform="rotate(270) translate(-36 17)">
    <use xlink:href="#rim"/>
    <path pointer-events="none" fill="none" stroke="white" stroke-width="1.5" d="M0,-3.0v7 M-2.5,-0.5L0,-3.0L2.5,-0.5"/>
  </g>
  <g id="resetDef">
    <use xlink:href="#rim2" fill="#404040"><set attributeName="fill" to="#808080" begin="reset.mouseover" end="reset.mouseout"/></use>
  </g>
</defs>
<script type="application/ecmascript">
var viewWidth = 1980;
var viewHeight = 354;
var sectionId = 'dynsection-56';
</script>
<script type="application/ecmascript" xlink:href="svg.min.js"/>
<svg id="graph" class="graph">
<g id="viewport">
<title>steppable::__internals::calc::getQuotientRemainder</title>
<!-- Node1 -->
<g id="Node000001" class="node">
<title>Node1</title>
<g id="a_Node000001"><a xlink:title=" ">
<polygon fill="#999999" stroke="#666666" points="158.5,-286.75 0,-286.75 0,-253.25 158.5,-253.25 158.5,-286.75"/>
<text xml:space="preserve" text-anchor="start" x="8" y="-273.25" font-family="Helvetica,sans-Serif" font-size="10.00">steppable::__internals</text>
<text xml:space="preserve" text-anchor="middle" x="79.25" y="-260.5" font-family="Helvetica,sans-Serif" font-size="10.00">::calc::getQuotientRemainder</text>
</a>
</g>
</g>
<!-- Node2 -->
<g id="Node000002" class="node">
<title>Node2</title>
<g id="a_Node000002"><a xlink:href="namespacesteppable_1_1____internals_1_1calc.html#a42acdef9fc1e043591a9f42918ba7984" target="_top" xlink:title="Compares two string representations of numbers.">
<polygon fill="white" stroke="#666666" points="344,-286.75 220.75,-286.75 220.75,-253.25 344,-253.25 344,-286.75"/>
<text xml:space="preserve" text-anchor="start" x="228.75" y="-273.25" font-family="Helvetica,sans-Serif" font-size="10.00">steppable::__internals</text>
<text xml:space="preserve" text-anchor="middle" x="282.38" y="-260.5" font-family="Helvetica,sans-Serif" font-size="10.00">::calc::compare</text>
</a>
</g>
</g>
<!-- Node1&#45;&gt;Node2 -->
<g id="edge1_Node000001_Node000002" class="edge">
<title>Node1&#45;&gt;Node2</title>
<g id="a_edge1_Node000001_Node000002"><a xlink:title=" ">
<path fill="none" stroke="#63b8ff" d="M158.87,-270C175.52,-270 193.02,-270 209.41,-270"/>
<polygon fill="#63b8ff" stroke="#63b8ff" points="209.04,-273.5 219.04,-270 209.04,-266.5 209.04,-273.5"/>
</a>
</g>
</g>
<!-- Node10 -->
<g id="Node000010" class="node">
<title>Node10</title>
<g id="a_Node000010"><a xlink:href="namespacesteppable_1_1____internals_1_1calc.html#a2173185243502a4e962d22b97becdbbb" target="_top" xlink:title="Subtracts one string representation of a number from another string representation of a number.">
<polygon fill="white" stroke="#666666" points="1206.25,-248.75 1083,-248.75 1083,-215.25 1206.25,-215.25 1206.25,-248.75"/>
<text xml:space="preserve" text-anchor="start" x="1091" y="-235.25" font-family="Helvetica,sans-Serif" font-size="10.00">steppable::__internals</text>
<text xml:space="preserve" text-anchor="middle" x="1144.62" y="-222.5" font-family="Helvetica,sans-Serif" font-size="10.00">::calc::subtract</text>
</a>
</g>
</g>
<!-- Node1&#45;&gt;Node10 -->
<g id="edge34_Node000001_Node000010" class="edge">
<title>Node1&#45;&gt;Node10</title>
<g id="a_edge34_Node000001_Node000010"><a xlink:title=" ">
<path fill="none" stroke="#63b8ff" d="M134.45,-287.25C209.84,-309.67 351.03,-346 474.38,-346 474.38,-346 474.38,-346 819.25,-346 928.21,-346 1046.71,-288.04 1105.74,-254.77"/>
<polygon fill="#63b8ff" stroke="#63b8ff" points="1107.46,-257.82 1114.4,-249.82 1103.98,-251.75 1107.46,-257.82"/>
</a>
</g>
</g>
<!-- Node20 -->
<g id="Node000020" class="node">
<title>Node20</title>
<g id="a_Node000020"><a xlink:href="namespacesteppable_1_1____internals_1_1numUtils.html#a3d4e1e21ccf1afecd766d3152df87212" target="_top" xlink:title=" ">
<polygon fill="white" stroke="#666666" points="370.25,-234.75 194.5,-234.75 194.5,-201.25 370.25,-201.25 370.25,-234.75"/>
<text xml:space="preserve" text-anchor="start" x="202.5" y="-221.25" font-family="Helvetica,sans-Serif" font-size="10.00">steppable::__internals</text>
<text xml:space="preserve" text-anchor="middle" x="282.38" y="-208.5" font-family="Helvetica,sans-Serif" font-size="10.00">::numUtils::removeLeadingZeros</text>
</a>
</g>
</g>
<!-- Node1&#45;&gt;Node20 -->
<g id="edge33_Node000001_Node000020" class="edge">
<title>Node1&#45;&gt;Node20</title>
<g id="a_edge33_Node000001_Node000020"><a xlink:title=" ">
<path fill="none" stroke="#63b8ff" d="M146.94,-252.76C165.2,-248.04 185.14,-242.88 203.95,-238.02"/>
<polygon fill="#63b8ff" stroke="#63b8ff" points="204.59,-241.47 213.4,-235.58 202.84,-234.69 204.59,-241.47"/>
</a>
</g>
</g>
<!-- Node3 -->
<g id="Node000003" class="node">
<title>Node3</title>
<g id="a_Node000003"><a xlink:href="namespacesteppable_1_1localization.html#ae3e0bed8db649955a0360fa32175a0bc" target="_top" xlink:title="Gets a string from origin, and by the key.">
<polygon fill="white" stroke="#666666" points="544.5,-175.38 406.25,-175.38 406.25,-154.62 544.5,-154.62 544.5,-175.38"/>
<text xml:space="preserve" text-anchor="middle" x="475.38" y="-161.88" font-family="Helvetica,sans-Serif" font-size="10.00">steppable::localization::$</text>
</a>
</g>
</g>
<!-- Node2&#45;&gt;Node3 -->
<g id="edge2_Node000002_Node000003" class="edge">
<title>Node2&#45;&gt;Node3</title>
<g id="a_edge2_Node000002_Node000003"><a xlink:title=" ">
<path fill="none" stroke="#63b8ff" d="M344.28,-254.82C353.2,-251.73 362.11,-248.13 370.25,-244 402.39,-227.68 434.73,-201.2 454.65,-183.45"/>
<polygon fill="#63b8ff" stroke="#63b8ff" points="456.96,-186.08 462.01,-176.76 452.26,-180.89 456.96,-186.08"/>
</a>
</g>
</g>
<!-- Node13 -->
<g id="Node000013" class="node">
<title>Node13</title>
<g id="a_Node000013"><a xlink:href="namespacesteppable_1_1____internals_1_1numUtils.html#af904a63deb5a7cc413325eb08b2118f3" target="_top" xlink:title=" ">
<polygon fill="white" stroke="#666666" points="1587,-147.75 1454.75,-147.75 1454.75,-114.25 1587,-114.25 1587,-147.75"/>
<text xml:space="preserve" text-anchor="start" x="1462.75" y="-134.25" font-family="Helvetica,sans-Serif" font-size="10.00">steppable::__internals</text>
<text xml:space="preserve" text-anchor="middle" x="1520.88" y="-121.5" font-family="Helvetica,sans-Serif" font-size="10.00">::numUtils::splitNumber</text>
</a>
</g>
</g>
<!-- Node2&#45;&gt;Node13 -->
<g id="edge31_Node000002_Node000013" class="edge">
<title>Node2&#45;&gt;Node13</title>
<g id="a_edge31_Node000002_Node000013"><a xlink:title=" ">
<path fill="none" stroke="#63b8ff" d="M344.29,-259.71C353.81,-255.98 362.91,-250.9 370.25,-244 404.05,-212.21 376.8,-181.86 406.25,-146 485.34,-49.7 521.01,0 645.62,0 645.62,0 645.62,0 1145.62,0 1275.01,0 1416.13,-70.61 1482.02,-108.15"/>
<polygon fill="#63b8ff" stroke="#63b8ff" points="1480.22,-111.15 1490.63,-113.12 1483.72,-105.09 1480.22,-111.15"/>
</a>
</g>
</g>
<!-- Node17 -->
<g id="Node000017" class="node">
<title>Node17</title>
<g id="a_Node000017"><a xlink:href="namespacesteppable_1_1____internals_1_1numUtils.html#ae9066a66afcc38203d68643378d1fde8" target="_top" xlink:title="Standardizes a number string.">
<polygon fill="white" stroke="#666666" points="1410.5,-325.75 1242.25,-325.75 1242.25,-292.25 1410.5,-292.25 1410.5,-325.75"/>
<text xml:space="preserve" text-anchor="start" x="1250.25" y="-312.25" font-family="Helvetica,sans-Serif" font-size="10.00">steppable::__internals</text>
<text xml:space="preserve" text-anchor="middle" x="1326.38" y="-299.5" font-family="Helvetica,sans-Serif" font-size="10.00">::numUtils::standardizeNumber</text>
</a>
</g>
</g>
<!-- Node2&#45;&gt;Node17 -->
<g id="edge32_Node000002_Node000017" class="edge">
<title>Node2&#45;&gt;Node17</title>
<g id="a_edge32_Node000002_Node000017"><a xlink:title=" ">
<path fill="none" stroke="#63b8ff" d="M344.38,-280.33C416.21,-291.59 539.23,-308 645.62,-308 645.62,-308 645.62,-308 986.38,-308 1068.89,-308 1162.69,-308.3 1230.68,-308.57"/>
<polygon fill="#63b8ff" stroke="#63b8ff" points="1230.26,-312.07 1240.27,-308.61 1230.29,-305.07 1230.26,-312.07"/>
</a>
</g>
</g>
<!-- Node4 -->
<g id="Node000004" class="node">
<title>Node4</title>
<g id="a_Node000004"><a xlink:href="namespacesteppable_1_1output.html#aaeed30985adb9664fb71758754dad2fa" target="_top" xlink:title="Prints an error message.">
<polygon fill="white" stroke="#666666" points="1039.12,-203.75 931.62,-203.75 931.62,-170.25 1039.12,-170.25 1039.12,-203.75"/>
<text xml:space="preserve" text-anchor="start" x="939.62" y="-190.25" font-family="Helvetica,sans-Serif" font-size="10.00">steppable::output::</text>
<text xml:space="preserve" text-anchor="middle" x="985.38" y="-177.5" font-family="Helvetica,sans-Serif" font-size="10.00">error</text>
</a>
</g>
</g>
<!-- Node3&#45;&gt;Node4 -->
<g id="edge3_Node000003_Node000004" class="edge">
<title>Node3&#45;&gt;Node4</title>
<g id="a_edge3_Node000003_Node000004"><a xlink:title=" ">
<path fill="none" stroke="#63b8ff" d="M544.89,-167.97C643.39,-172.23 823.73,-180.04 919.92,-184.21"/>
<polygon fill="#63b8ff" stroke="#63b8ff" points="919.57,-187.7 929.71,-184.63 919.87,-180.7 919.57,-187.7"/>
</a>
</g>
</g>
<!-- Node5 -->
<g id="Node000005" class="node">
<title>Node5</title>
<g id="a_Node000005"><a xlink:href="namespacesteppable_1_1____internals_1_1utils.html#a9f8874d38acee1827b2ad2aef3dc8386" target="_top" xlink:title=" ">
<polygon fill="white" stroke="#666666" points="712.75,-158.75 580.5,-158.75 580.5,-125.25 712.75,-125.25 712.75,-158.75"/>
<text xml:space="preserve" text-anchor="start" x="588.5" y="-145.25" font-family="Helvetica,sans-Serif" font-size="10.00">steppable::__internals</text>
<text xml:space="preserve" text-anchor="middle" x="646.62" y="-132.5" font-family="Helvetica,sans-Serif" font-size="10.00">::utils::getConfDirectory</text>
</a>
</g>
</g>
<!-- Node3&#45;&gt;Node5 -->
<g id="edge4_Node000003_Node000005" class="edge">
<title>Node3&#45;&gt;Node5</title>
<g id="a_edge4_Node000003_Node000005"><a xlink:title=" ">
<path fill="none" stroke="#63b8ff" d="M544.73,-155.71C552.65,-154.64 560.76,-153.53 568.79,-152.44"/>
<polygon fill="#63b8ff" stroke="#63b8ff" points="569.1,-155.93 578.54,-151.12 568.16,-149 569.1,-155.93"/>
</a>
</g>
</g>
<!-- Node19 -->
<g id="Node000019" class="node">
<title>Node19</title>
<g id="a_Node000019"><a xlink:href="namespacesteppable_1_1localization.html#abb3cdf12222c59b01352ee909d1d5e97" target="_top" xlink:title=" ">
<polygon fill="white" stroke="#666666" points="881.38,-61.75 755.12,-61.75 755.12,-28.25 881.38,-28.25 881.38,-61.75"/>
<text xml:space="preserve" text-anchor="start" x="763.12" y="-48.25" font-family="Helvetica,sans-Serif" font-size="10.00">steppable::localization</text>
<text xml:space="preserve" text-anchor="middle" x="818.25" y="-35.5" font-family="Helvetica,sans-Serif" font-size="10.00">::getLanguage</text>
</a>
</g>
</g>
<!-- Node3&#45;&gt;Node19 -->
<g id="edge29_Node000003_Node000019" class="edge">
<title>Node3&#45;&gt;Node19</title>
<g id="a_edge29_Node000003_Node000019"><a xlink:title=" ">
<path fill="none" stroke="#63b8ff" d="M485.08,-154.27C501.47,-134.92 539,-94.47 580.5,-76 631.86,-53.14 695.26,-45.8 743.51,-43.95"/>
<polygon fill="#63b8ff" stroke="#63b8ff" points="743.41,-47.46 753.3,-43.66 743.2,-40.46 743.41,-47.46"/>
</a>
</g>
</g>
<!-- Node6 -->
<g id="Node000006" class="node">
<title>Node6</title>
<g id="a_Node000006"><a xlink:href="namespacesteppable_1_1____internals_1_1utils.html#af55d306f308c40f7cf64ad6cdb0235f7" target="_top" xlink:title=" ">
<polygon fill="white" stroke="#666666" points="887.75,-158.75 748.75,-158.75 748.75,-125.25 887.75,-125.25 887.75,-158.75"/>
<text xml:space="preserve" text-anchor="start" x="756.75" y="-145.25" font-family="Helvetica,sans-Serif" font-size="10.00">steppable::__internals</text>
<text xml:space="preserve" text-anchor="middle" x="818.25" y="-132.5" font-family="Helvetica,sans-Serif" font-size="10.00">::utils::getHomeDirectory</text>
</a>
</g>
</g>
<!-- Node5&#45;&gt;Node6 -->
<g id="edge5_Node000005_Node000006" class="edge">
<title>Node5&#45;&gt;Node6</title>
<g id="a_edge5_Node000005_Node000006"><a xlink:title=" ">
<path fill="none" stroke="#63b8ff" d="M713.21,-142C721.06,-142 729.15,-142 737.19,-142"/>
<polygon fill="#63b8ff" stroke="#63b8ff" points="736.96,-145.5 746.96,-142 736.96,-138.5 736.96,-145.5"/>
</a>
</g>
</g>
<!-- Node6&#45;&gt;Node4 -->
<g id="edge28_Node000006_Node000004" class="edge">
<title>Node6&#45;&gt;Node4</title>
<g id="a_edge28_Node000006_Node000004"><a xlink:title=" ">
<path fill="none" stroke="#63b8ff" d="M882.15,-159.14C894.7,-162.56 907.89,-166.16 920.47,-169.58"/>
<polygon fill="#63b8ff" stroke="#63b8ff" points="919.31,-172.9 929.87,-172.15 921.15,-166.14 919.31,-172.9"/>
</a>
</g>
</g>
<!-- Node7 -->
<g id="Node000007" class="node">
<title>Node7</title>
<g id="a_Node000007"><a xlink:href="namespacesteppable_1_1____internals_1_1calc.html#a4733396b66cc027f38d17f6aac309590" target="_top" xlink:title="Calculate the error between values a and b.">
<polygon fill="white" stroke="#666666" points="1047,-151.75 923.75,-151.75 923.75,-118.25 1047,-118.25 1047,-151.75"/>
<text xml:space="preserve" text-anchor="start" x="931.75" y="-138.25" font-family="Helvetica,sans-Serif" font-size="10.00">steppable::__internals</text>
<text xml:space="preserve" text-anchor="middle" x="985.38" y="-125.5" font-family="Helvetica,sans-Serif" font-size="10.00">::calc::error</text>
</a>
</g>
</g>
<!-- Node6&#45;&gt;Node7 -->
<g id="edge6_Node000006_Node000007" class="edge">
<title>Node6&#45;&gt;Node7</title>
<g id="a_edge6_Node000006_Node000007"><a xlink:title=" ">
<path fill="none" stroke="#63b8ff" d="M887.84,-139.09C895.85,-138.75 904.04,-138.41 912.1,-138.06"/>
<polygon fill="#63b8ff" stroke="#63b8ff" points="912.02,-141.57 921.86,-137.65 911.72,-134.58 912.02,-141.57"/>
</a>
</g>
</g>
<!-- Node8 -->
<g id="Node000008" class="node">
<title>Node8</title>
<g id="a_Node000008"><a xlink:href="namespacesteppable_1_1____internals_1_1calc.html#ad4d7034aa4fea1469c85db9ddbb006c2" target="_top" xlink:title="Calculates the absolute value of a string representation of a number.">
<polygon fill="white" stroke="#666666" points="1206.25,-151.75 1083,-151.75 1083,-118.25 1206.25,-118.25 1206.25,-151.75"/>
<text xml:space="preserve" text-anchor="start" x="1091" y="-138.25" font-family="Helvetica,sans-Serif" font-size="10.00">steppable::__internals</text>
<text xml:space="preserve" text-anchor="middle" x="1144.62" y="-125.5" font-family="Helvetica,sans-Serif" font-size="10.00">::calc::abs</text>
</a>
</g>
</g>
<!-- Node7&#45;&gt;Node8 -->
<g id="edge7_Node000007_Node000008" class="edge">
<title>Node7&#45;&gt;Node8</title>
<g id="a_edge7_Node000007_Node000008"><a xlink:title=" ">
<path fill="none" stroke="#63b8ff" d="M1047.17,-135C1055.1,-135 1063.29,-135 1071.38,-135"/>
<polygon fill="#63b8ff" stroke="#63b8ff" points="1071.22,-138.5 1081.22,-135 1071.22,-131.5 1071.22,-138.5"/>
</a>
</g>
</g>
<!-- Node7&#45;&gt;Node10 -->
<g id="edge9_Node000007_Node000010" class="edge">
<title>Node7&#45;&gt;Node10</title>
<g id="a_edge9_Node000007_Node000010"><a xlink:title=" ">
<path fill="none" stroke="#63b8ff" d="M1029.69,-152.13C1035.62,-154.89 1041.53,-157.87 1047,-161 1070.96,-174.7 1096.02,-193.26 1114.62,-207.96"/>
<polygon fill="#63b8ff" stroke="#63b8ff" points="1112.28,-210.57 1122.27,-214.1 1116.66,-205.11 1112.28,-210.57"/>
</a>
</g>
</g>
<!-- Node9 -->
<g id="Node000009" class="node">
<title>Node9</title>
<g id="a_Node000009"><a xlink:href="namespacesteppable_1_1____internals_1_1calc.html#af34324955c6772c7a3cacd9fe4c9a915" target="_top" xlink:title=" ">
<polygon fill="white" stroke="#666666" points="1388,-141.75 1264.75,-141.75 1264.75,-108.25 1388,-108.25 1388,-141.75"/>
<text xml:space="preserve" text-anchor="start" x="1272.75" y="-128.25" font-family="Helvetica,sans-Serif" font-size="10.00">steppable::__internals</text>
<text xml:space="preserve" text-anchor="middle" x="1326.38" y="-115.5" font-family="Helvetica,sans-Serif" font-size="10.00">::calc::_abs</text>
</a>
</g>
</g>
<!-- Node8&#45;&gt;Node9 -->
<g id="edge8_Node000008_Node000009" class="edge">
<title>Node8&#45;&gt;Node9</title>
<g id="a_edge8_Node000008_Node000009"><a xlink:title=" ">
<path fill="none" stroke="#63b8ff" d="M1206.73,-131.6C1221.72,-130.77 1237.9,-129.87 1253.35,-129.01"/>
<polygon fill="#63b8ff" stroke="#63b8ff" points="1253.14,-132.52 1262.93,-128.47 1252.75,-125.54 1253.14,-132.52"/>
</a>
</g>
</g>
<!-- Node10&#45;&gt;Node2 -->
<g id="edge21_Node000010_Node000002" class="edge">
<title>Node10&#45;&gt;Node2</title>
<g id="a_edge21_Node000010_Node000002"><a xlink:title=" ">
<path fill="none" stroke="#63b8ff" d="M1082.59,-243.45C1017.58,-254.64 911.53,-270 819.25,-270 645.62,-270 645.62,-270 645.62,-270 545.04,-270 428.73,-270 355.62,-270"/>
<polygon fill="#63b8ff" stroke="#63b8ff" points="355.78,-266.5 345.78,-270 355.78,-273.5 355.78,-266.5"/>
</a>
</g>
</g>
<!-- Node10&#45;&gt;Node3 -->
<g id="edge10_Node000010_Node000003" class="edge">
<title>Node10&#45;&gt;Node3</title>
<g id="a_edge10_Node000010_Node000003"><a xlink:title=" ">
<path fill="none" stroke="#63b8ff" d="M1082.53,-229.36C978.88,-224.37 762.13,-211.64 580.5,-186 565.73,-183.91 549.9,-181.05 535.15,-178.11"/>
<polygon fill="#63b8ff" stroke="#63b8ff" points="536.1,-174.73 525.61,-176.16 534.7,-181.59 536.1,-174.73"/>
</a>
</g>
</g>
<!-- Node10&#45;&gt;Node10 -->
<g id="edge27_Node000010_Node000010" class="edge">
<title>Node10&#45;&gt;Node10</title>
<g id="a_edge27_Node000010_Node000010"><a xlink:title=" ">
<path fill="none" stroke="#63b8ff" d="M1116,-249.16C1111.13,-258.37 1120.68,-266.75 1144.62,-266.75 1158.1,-266.75 1167.01,-264.1 1171.36,-260.14"/>
<polygon fill="#63b8ff" stroke="#63b8ff" points="1174.75,-261.1 1173,-250.66 1167.85,-259.92 1174.75,-261.1"/>
</a>
</g>
</g>
<!-- Node11 -->
<g id="Node000011" class="node">
<title>Node11</title>
<g id="a_Node000011"><a xlink:href="namespacesteppable_1_1____internals_1_1calc.html#a8ee74a3b901b7b3f12f0391a0d2be7b8" target="_top" xlink:title="Adds two string representations of numbers, and performs with the column method.">
<polygon fill="white" stroke="#666666" points="1388,-193.75 1264.75,-193.75 1264.75,-160.25 1388,-160.25 1388,-193.75"/>
<text xml:space="preserve" text-anchor="start" x="1272.75" y="-180.25" font-family="Helvetica,sans-Serif" font-size="10.00">steppable::__internals</text>
<text xml:space="preserve" text-anchor="middle" x="1326.38" y="-167.5" font-family="Helvetica,sans-Serif" font-size="10.00">::calc::add</text>
</a>
</g>
</g>
<!-- Node10&#45;&gt;Node11 -->
<g id="edge11_Node000010_Node000011" class="edge">
<title>Node10&#45;&gt;Node11</title>
<g id="a_edge11_Node000010_Node000011"><a xlink:title=" ">
<path fill="none" stroke="#63b8ff" d="M1183.31,-214.86C1203.66,-207.62 1229.48,-199.38 1253.51,-192.36"/>
<polygon fill="#63b8ff" stroke="#63b8ff" points="1254.3,-195.78 1262.94,-189.65 1252.37,-189.05 1254.3,-195.78"/>
</a>
</g>
</g>
<!-- Node12 -->
<g id="Node000012" class="node">
<title>Node12</title>
<g id="a_Node000012"><a xlink:href="namespacesteppable_1_1____internals_1_1numUtils.html#a6cc23d8eda7defd591a87a8b1d8b869d" target="_top" xlink:title="Checks if a given string is a zero string.">
<polygon fill="white" stroke="#666666" points="1971.5,-214.75 1840,-214.75 1840,-181.25 1971.5,-181.25 1971.5,-214.75"/>
<text xml:space="preserve" text-anchor="start" x="1848" y="-201.25" font-family="Helvetica,sans-Serif" font-size="10.00">steppable::__internals</text>
<text xml:space="preserve" text-anchor="middle" x="1905.75" y="-188.5" font-family="Helvetica,sans-Serif" font-size="10.00">::numUtils::isZeroString</text>
</a>
</g>
</g>
<!-- Node10&#45;&gt;Node12 -->
<g id="edge22_Node000010_Node000012" class="edge">
<title>Node10&#45;&gt;Node12</title>
<g id="a_edge22_Node000010_Node000012"><a xlink:title=" ">
<path fill="none" stroke="#63b8ff" d="M1206.55,-243.27C1323.96,-262.85 1588.97,-296.52 1804,-247 1826.55,-241.81 1849.9,-230.86 1868.44,-220.63"/>
<polygon fill="#63b8ff" stroke="#63b8ff" points="1869.94,-223.8 1876.89,-215.8 1866.47,-217.72 1869.94,-223.8"/>
</a>
</g>
</g>
<!-- Node10&#45;&gt;Node13 -->
<g id="edge23_Node000010_Node000013" class="edge">
<title>Node10&#45;&gt;Node13</title>
<g id="a_edge23_Node000010_Node000013"><a xlink:title=" ">
<path fill="none" stroke="#63b8ff" d="M1206.61,-233.35C1261.5,-232.71 1343.58,-227.1 1410.5,-203 1440.55,-192.18 1470.56,-171.55 1491.52,-155.14"/>
<polygon fill="#63b8ff" stroke="#63b8ff" points="1493.69,-157.88 1499.3,-148.89 1489.31,-152.42 1493.69,-157.88"/>
</a>
</g>
</g>
<!-- Node10&#45;&gt;Node17 -->
<g id="edge24_Node000010_Node000017" class="edge">
<title>Node10&#45;&gt;Node17</title>
<g id="a_edge24_Node000010_Node000017"><a xlink:title=" ">
<path fill="none" stroke="#63b8ff" d="M1179.73,-249.13C1198.08,-258.12 1221.21,-269.09 1242.25,-278 1250.04,-281.3 1258.31,-284.61 1266.51,-287.78"/>
<polygon fill="#63b8ff" stroke="#63b8ff" points="1265.18,-291.01 1275.77,-291.3 1267.67,-284.47 1265.18,-291.01"/>
</a>
</g>
</g>
<!-- Node11&#45;&gt;Node3 -->
<g id="edge12_Node000011_Node000003" class="edge">
<title>Node11&#45;&gt;Node3</title>
<g id="a_edge12_Node000011_Node000003"><a xlink:title=" ">
<path fill="none" stroke="#63b8ff" d="M1264.52,-162.37C1256.71,-159.25 1249.07,-155.49 1242.25,-151 1221.72,-137.47 1228.12,-120.23 1206.25,-109 1118.99,-64.21 1084.46,-90 986.38,-90 817.25,-90 817.25,-90 817.25,-90 711.4,-90 682.39,-87.29 580.5,-116 553.48,-123.61 524.75,-137.63 504.33,-148.73"/>
<polygon fill="#63b8ff" stroke="#63b8ff" points="502.83,-145.56 495.79,-153.48 506.23,-151.68 502.83,-145.56"/>
</a>
</g>
</g>
<!-- Node11&#45;&gt;Node10 -->
<g id="edge20_Node000011_Node000010" class="edge">
<title>Node11&#45;&gt;Node10</title>
<g id="a_edge20_Node000011_Node000010"><a xlink:title=" ">
<path fill="none" stroke="#63b8ff" d="M1287.48,-194.22C1267.18,-201.43 1241.49,-209.62 1217.57,-216.61"/>
<polygon fill="#63b8ff" stroke="#63b8ff" points="1216.83,-213.19 1208.19,-219.32 1218.76,-219.91 1216.83,-213.19"/>
</a>
</g>
</g>
<!-- Node11&#45;&gt;Node12 -->
<g id="edge13_Node000011_Node000012" class="edge">
<title>Node11&#45;&gt;Node12</title>
<g id="a_edge13_Node000011_Node000012"><a xlink:title=" ">
<path fill="none" stroke="#63b8ff" d="M1388.35,-179.22C1494.39,-183.07 1712.52,-191.01 1828.43,-195.22"/>
<polygon fill="#63b8ff" stroke="#63b8ff" points="1828.03,-198.71 1838.15,-195.58 1828.29,-191.72 1828.03,-198.71"/>
</a>
</g>
</g>
<!-- Node11&#45;&gt;Node13 -->
<g id="edge14_Node000011_Node000013" class="edge">
<title>Node11&#45;&gt;Node13</title>
<g id="a_edge14_Node000011_Node000013"><a xlink:title=" ">
<path fill="none" stroke="#63b8ff" d="M1388.28,-162.45C1405.79,-158.26 1425.1,-153.65 1443.42,-149.27"/>
<polygon fill="#63b8ff" stroke="#63b8ff" points="1443.98,-152.73 1452.9,-147.01 1442.36,-145.93 1443.98,-152.73"/>
</a>
</g>
</g>
<!-- Node13&#45;&gt;Node12 -->
<g id="edge15_Node000013_Node000012" class="edge">
<title>Node13&#45;&gt;Node12</title>
<g id="a_edge15_Node000013_Node000012"><a xlink:title=" ">
<path fill="none" stroke="#63b8ff" d="M1569.89,-113.78C1627.56,-95.94 1726.24,-74.6 1804,-105 1838.14,-118.35 1867.67,-149.29 1885.77,-171.83"/>
<polygon fill="#63b8ff" stroke="#63b8ff" points="1882.99,-173.95 1891.89,-179.7 1888.52,-169.66 1882.99,-173.95"/>
</a>
</g>
</g>
<!-- Node14 -->
<g id="Node000014" class="node">
<title>Node14</title>
<g id="a_Node000014"><a xlink:href="namespacesteppable_1_1____internals_1_1numUtils.html#a5d7e8d74d304a1ac7fc2ad4dbf5b40ae" target="_top" xlink:title=" ">
<polygon fill="white" stroke="#666666" points="1804,-147.75 1631.25,-147.75 1631.25,-114.25 1804,-114.25 1804,-147.75"/>
<text xml:space="preserve" text-anchor="start" x="1639.25" y="-134.25" font-family="Helvetica,sans-Serif" font-size="10.00">steppable::__internals</text>
<text xml:space="preserve" text-anchor="middle" x="1717.62" y="-121.5" font-family="Helvetica,sans-Serif" font-size="10.00">::numUtils::removeTrailingZeros</text>
</a>
</g>
</g>
<!-- Node13&#45;&gt;Node14 -->
<g id="edge16_Node000013_Node000014" class="edge">
<title>Node13&#45;&gt;Node14</title>
<g id="a_edge16_Node000013_Node000014"><a xlink:title=" ">
<path fill="none" stroke="#63b8ff" d="M1587.27,-131C1597.68,-131 1608.65,-131 1619.61,-131"/>
<polygon fill="#63b8ff" stroke="#63b8ff" points="1619.49,-134.5 1629.49,-131 1619.49,-127.5 1619.49,-134.5"/>
</a>
</g>
</g>
<!-- Node15 -->
<g id="Node000015" class="node">
<title>Node15</title>
<g id="a_Node000015"><a xlink:href="namespacesteppable_1_1____internals_1_1numUtils.html#a503084b920a7cfd569d321e04dcb4ae5" target="_top" xlink:title="Simplifies a string that represents a number with non&#45;standard polarity.">
<polygon fill="white" stroke="#666666" points="1803.25,-237.75 1632,-237.75 1632,-204.25 1803.25,-204.25 1803.25,-237.75"/>
<text xml:space="preserve" text-anchor="start" x="1640" y="-224.25" font-family="Helvetica,sans-Serif" font-size="10.00">steppable::__internals</text>
<text xml:space="preserve" text-anchor="middle" x="1717.62" y="-211.5" font-family="Helvetica,sans-Serif" font-size="10.00">::numUtils::simplifyZeroPolarity</text>
</a>
</g>
</g>
<!-- Node13&#45;&gt;Node15 -->
<g id="edge17_Node000013_Node000015" class="edge">
<title>Node13&#45;&gt;Node15</title>
<g id="a_edge17_Node000013_Node000015"><a xlink:title=" ">
<path fill="none" stroke="#63b8ff" d="M1558.96,-148.14C1590.27,-162.61 1635.28,-183.41 1669.2,-199.08"/>
<polygon fill="#63b8ff" stroke="#63b8ff" points="1667.42,-202.12 1677.97,-203.14 1670.36,-195.76 1667.42,-202.12"/>
</a>
</g>
</g>
<!-- Node16 -->
<g id="Node000016" class="node">
<title>Node16</title>
<g id="a_Node000016"><a xlink:href="namespacesteppable_1_1____internals_1_1stringUtils.html#a2600efb348f0dd19cc0068946d06b1b7" target="_top" xlink:title="Splits a string into substrings based on a separator.">
<polygon fill="white" stroke="#666666" points="1779.25,-57.75 1656,-57.75 1656,-24.25 1779.25,-24.25 1779.25,-57.75"/>
<text xml:space="preserve" text-anchor="start" x="1664" y="-44.25" font-family="Helvetica,sans-Serif" font-size="10.00">steppable::__internals</text>
<text xml:space="preserve" text-anchor="middle" x="1717.62" y="-31.5" font-family="Helvetica,sans-Serif" font-size="10.00">::stringUtils::split</text>
</a>
</g>
</g>
<!-- Node13&#45;&gt;Node16 -->
<g id="edge19_Node000013_Node000016" class="edge">
<title>Node13&#45;&gt;Node16</title>
<g id="a_edge19_Node000013_Node000016"><a xlink:title=" ">
<path fill="none" stroke="#63b8ff" d="M1551,-113.78C1572.7,-101.32 1603.29,-84.53 1631.25,-72 1638.85,-68.59 1646.96,-65.27 1655.03,-62.14"/>
<polygon fill="#63b8ff" stroke="#63b8ff" points="1656.04,-65.5 1664.16,-58.69 1653.57,-58.95 1656.04,-65.5"/>
</a>
</g>
</g>
<!-- Node15&#45;&gt;Node12 -->
<g id="edge18_Node000015_Node000012" class="edge">
<title>Node15&#45;&gt;Node12</title>
<g id="a_edge18_Node000015_Node000012"><a xlink:title=" ">
<path fill="none" stroke="#63b8ff" d="M1803.52,-210.51C1811.79,-209.49 1820.16,-208.45 1828.34,-207.44"/>
<polygon fill="#63b8ff" stroke="#63b8ff" points="1828.77,-210.92 1838.27,-206.22 1827.91,-203.97 1828.77,-210.92"/>
</a>
</g>
</g>
<!-- Node18 -->
<g id="Node000018" class="node">
<title>Node18</title>
<g id="a_Node000018"><a xlink:href="namespacesteppable_1_1____internals_1_1numUtils.html#a4d4ffec10442fd8ab9b778e4ff5168dc" target="_top" xlink:title="Simplifies a string with non&#45;standard polarity (e.g., –1, —1, etc.).">
<polygon fill="white" stroke="#666666" points="1595.25,-325.75 1446.5,-325.75 1446.5,-292.25 1595.25,-292.25 1595.25,-325.75"/>
<text xml:space="preserve" text-anchor="start" x="1454.5" y="-312.25" font-family="Helvetica,sans-Serif" font-size="10.00">steppable::__internals</text>
<text xml:space="preserve" text-anchor="middle" x="1520.88" y="-299.5" font-family="Helvetica,sans-Serif" font-size="10.00">::numUtils::simplifyPolarity</text>
</a>
</g>
</g>
<!-- Node17&#45;&gt;Node18 -->
<g id="edge25_Node000017_Node000018" class="edge">
<title>Node17&#45;&gt;Node18</title>
<g id="a_edge25_Node000017_Node000018"><a xlink:title=" ">
<path fill="none" stroke="#63b8ff" d="M1410.97,-309C1418.81,-309 1426.76,-309 1434.62,-309"/>
<polygon fill="#63b8ff" stroke="#63b8ff" points="1434.52,-312.5 1444.52,-309 1434.52,-305.5 1434.52,-312.5"/>
</a>
</g>
</g>
<!-- Node18&#45;&gt;Node15 -->
<g id="edge26_Node000018_Node000015" class="edge">
<title>Node18&#45;&gt;Node15</title>
<g id="a_edge26_Node000018_Node000015"><a xlink:title=" ">
<path fill="none" stroke="#63b8ff" d="M1559.89,-291.82C1590.85,-277.83 1634.77,-257.99 1668.24,-242.86"/>
<polygon fill="#63b8ff" stroke="#63b8ff" points="1669.66,-246.06 1677.33,-238.76 1666.78,-239.68 1669.66,-246.06"/>
</a>
</g>
</g>
<!-- Node19&#45;&gt;Node16 -->
<g id="edge30_Node000019_Node000016" class="edge">
<title>Node19&#45;&gt;Node16</title>
<g id="a_edge30_Node000019_Node000016"><a xlink:title=" ">
<path fill="none" stroke="#63b8ff" d="M881.74,-44.08C947.05,-43.2 1052.53,-42 1143.62,-42 1143.62,-42 1143.62,-42 1327.38,-42 1438,-42 1566.31,-41.59 1644.45,-41.3"/>
<polygon fill="#63b8ff" stroke="#63b8ff" points="1644.11,-44.8 1654.1,-41.26 1644.08,-37.8 1644.11,-44.8"/>
</a>
</g>
</g>
</g>
</svg>

<g id="navigator" transform="translate(0 0)" fill="#404254">
  <rect fill="#f2f5e9" fill-opacity="0.5" stroke="#606060" stroke-width=".5" x="0" y="0" width="60" height="60"/>
  <use id="zoomplus" xlink:href="#zoomPlus" x="17" y="9" onmousedown="handleZoom(evt,'in')"/>
  <use id="zoomminus" xlink:href="#zoomMin" x="42" y="9" onmousedown="handleZoom(evt,'out')"/>
  <use id="reset" xlink:href="#resetDef" x="30" y="36" onmousedown="handleReset()"/>
   <use id="arrowup" xlink:href="#arrowUp" x="0" y="0" onmousedown="handlePan(0,-1)"/>
  <use id="arrowright" xlink:href="#arrowRight" x="0" y="0" onmousedown="handlePan(1,0)"/>
  <use id="arrowdown" xlink:href="#arrowDown" x="0" y="0" onmousedown="handlePan(0,1)"/>
  <use id="arrowleft" xlink:href="#arrowLeft" x="0" y="0" onmousedown="handlePan(-1,0)"/>
</g>
<svg viewBox="0 0 15 15" width="100%" height="30px" preserveAspectRatio="xMaxYMin meet">
 <g id="arrow_out" transform="scale(0.3 0.3)">
  <a xlink:href="namespacesteppable_1_1____internals_1_1calc_ad8b168032e06d1d0fb6f8c157eace02c_cgraph_org.svg" target="_base">
   <rect id="button" ry="5" rx="5" y="6" x="6" height="38" width="38"
        fill="#f2f5e9" fill-opacity="0.5" stroke="#606060" stroke-width="1.0"/>
   <path id="arrow"
     d="M 11.500037,31.436501 C 11.940474,20.09759 22.043105,11.32322 32.158766,21.979434 L 37.068811,17.246167 C 37.068811,17.246167 37.088388,32 37.088388,32 L 22.160133,31.978069 C 22.160133,31.978069 26.997745,27.140456 26.997745,27.140456 C 18.528582,18.264221 13.291696,25.230495 11.500037,31.436501 z"
     style="fill:#404040;"/>
  </a>
 </g>
</svg>

<style type='text/css'>
<![CDATA[
[data-mouse-over-selected='false'] { opacity: 0.7; }
[data-mouse-over-selected='true']  { opacity: 1.0; }
]]>
</style>
<script type="application/ecmascript"><![CDATA[
document.addEventListener('DOMContentLoaded', (event) => {
  highlightEdges();
  highlightAdjacentNodes();
});
]]></script>
</svg>
