<?xml version="1.0" encoding="UTF-8" standalone="no"?>
<!DOCTYPE svg PUBLIC "-//W3C//DTD SVG 1.1//EN"
 "http://www.w3.org/Graphics/SVG/1.1/DTD/svg11.dtd">
<!-- Generated by graphviz version 12.2.1 (20241206.2353)
 -->
<!-- Title: ImGui::TableSetColumnIndex Pages: 1 -->
<!--zoomable 225 -->

<svg id="main" version="1.1" xmlns="http://www.w3.org/2000/svg" xmlns:xlink="http://www.w3.org/1999/xlink" xml:space="preserve" onload="init(evt)">

<style type="text/css"><![CDATA[
.node, .edge {opacity: 0.7;}
.node.selected, .edge.selected {opacity: 1;}
.edge:hover path { stroke: red; }
.edge:hover polygon { stroke: red; fill: red; }
]]></style>

<defs>
  <circle id="rim" cx="0" cy="0" r="7"/>
  <circle id="rim2" cx="0" cy="0" r="3.5"/>
  <g id="zoomPlus">
    <use xlink:href="#rim" fill="#404040"><set attributeName="fill" to="#808080" begin="zoomplus.mouseover" end="zoomplus.mouseout"/></use>
    <path d="M-4,0h8M0,-4v8" fill="none" stroke="white" stroke-width="1.5" pointer-events="none"/>
  </g>
  <g id="zoomMin">
    <use xlink:href="#rim" fill="#404040"><set attributeName="fill" to="#808080" begin="zoomminus.mouseover" end="zoomminus.mouseout"/></use>
    <path d="M-4,0h8" fill="none" stroke="white" stroke-width="1.5" pointer-events="none"/>
  </g>
  <g id="arrowUp" transform="translate(30 24)">
    <use xlink:href="#rim"/>
    <path pointer-events="none" fill="none" stroke="white" stroke-width="1.5" d="M0,-3.0v7 M-2.5,-0.5L0,-3.0L2.5,-0.5"/>
  </g>
  <g id="arrowRight" transform="rotate(90) translate(36 -43)">
    <use xlink:href="#rim"/>
    <path pointer-events="none" fill="none" stroke="white" stroke-width="1.5" d="M0,-3.0v7 M-2.5,-0.5L0,-3.0L2.5,-0.5"/>
  </g>
  <g id="arrowDown" transform="rotate(180) translate(-30 -48)">
    <use xlink:href="#rim"/>
    <path pointer-events="none" fill="none" stroke="white" stroke-width="1.5" d="M0,-3.0v7 M-2.5,-0.5L0,-3.0L2.5,-0.5"/>
  </g>
  <g id="arrowLeft" transform="rotate(270) translate(-36 17)">
    <use xlink:href="#rim"/>
    <path pointer-events="none" fill="none" stroke="white" stroke-width="1.5" d="M0,-3.0v7 M-2.5,-0.5L0,-3.0L2.5,-0.5"/>
  </g>
  <g id="resetDef">
    <use xlink:href="#rim2" fill="#404040"><set attributeName="fill" to="#808080" begin="reset.mouseover" end="reset.mouseout"/></use>
  </g>
</defs>
<script type="application/ecmascript">
var viewWidth = 939;
var viewHeight = 225;
var sectionId = 'dynsection-1277';
</script>
<script type="application/ecmascript" xlink:href="svg.min.js"/>
<svg id="graph" class="graph">
<g id="viewport">
<title>ImGui::TableSetColumnIndex</title>
<!-- Node1 -->
<g id="Node000001" class="node">
<title>Node1</title>
<g id="a_Node000001"><a xlink:title=" ">
<polygon fill="#999999" stroke="#666666" points="930.5,-140.75 773.5,-140.75 773.5,-120 930.5,-120 930.5,-140.75"/>
<text text-anchor="middle" x="852" y="-127.25" font-family="Helvetica,sans-Serif" font-size="10.00">ImGui::TableSetColumnIndex</text>
</a>
</g>
</g>
<!-- Node2 -->
<g id="Node000002" class="node">
<title>Node2</title>
<g id="a_Node000002"><a xlink:href="structExampleAppPropertyEditor.html#abae0f80dd670280a5a2548f97d69aaa1" target="_top" xlink:title=" ">
<polygon fill="white" stroke="#666666" points="737.5,-199.12 590.25,-199.12 590.25,-165.62 737.5,-165.62 737.5,-199.12"/>
<text text-anchor="start" x="598.25" y="-185.62" font-family="Helvetica,sans-Serif" font-size="10.00">ExampleAppPropertyEditor</text>
<text text-anchor="middle" x="663.88" y="-172.88" font-family="Helvetica,sans-Serif" font-size="10.00">::DrawTreeNode</text>
</a>
</g>
</g>
<!-- Node1&#45;&gt;Node2 -->
<g id="edge1_Node000001_Node000002" class="edge">
<title>Node1&#45;&gt;Node2</title>
<g id="a_edge1_Node000001_Node000002"><a xlink:title=" ">
<path fill="none" stroke="#63b8ff" d="M801.53,-144.2C778.49,-150.63 750.85,-158.36 726.47,-165.17"/>
<polygon fill="#63b8ff" stroke="#63b8ff" points="802.29,-147.62 810.98,-141.56 800.4,-140.88 802.29,-147.62"/>
</a>
</g>
</g>
<!-- Node4 -->
<g id="Node000004" class="node">
<title>Node4</title>
<g id="a_Node000004"><a xlink:href="structExampleDualListBox.html#a1413fd803c568a0d4b98a8f3c59af1be" target="_top" xlink:title=" ">
<polygon fill="white" stroke="#666666" points="722.5,-147.12 605.25,-147.12 605.25,-113.62 722.5,-113.62 722.5,-147.12"/>
<text text-anchor="start" x="613.25" y="-133.62" font-family="Helvetica,sans-Serif" font-size="10.00">ExampleDualListBox</text>
<text text-anchor="middle" x="663.88" y="-120.88" font-family="Helvetica,sans-Serif" font-size="10.00">::Show</text>
</a>
</g>
</g>
<!-- Node1&#45;&gt;Node4 -->
<g id="edge4_Node000001_Node000004" class="edge">
<title>Node1&#45;&gt;Node4</title>
<g id="a_edge4_Node000001_Node000004"><a xlink:title=" ">
<path fill="none" stroke="#63b8ff" d="M762.02,-130.38C748.72,-130.38 735.31,-130.38 722.88,-130.38"/>
<polygon fill="#63b8ff" stroke="#63b8ff" points="761.63,-133.88 771.63,-130.38 761.63,-126.88 761.63,-133.88"/>
</a>
</g>
</g>
<!-- Node5 -->
<g id="Node000005" class="node">
<title>Node5</title>
<g id="a_Node000005"><a xlink:href="namespaceImGui.html#a0c16791f4620e8db38511553d5d63335" target="_top" xlink:title=" ">
<polygon fill="white" stroke="#666666" points="733,-95.75 594.75,-95.75 594.75,-75 733,-75 733,-95.75"/>
<text text-anchor="middle" x="663.88" y="-82.25" font-family="Helvetica,sans-Serif" font-size="10.00">ImGui::TableHeadersRow</text>
</a>
</g>
</g>
<!-- Node1&#45;&gt;Node5 -->
<g id="edge5_Node000001_Node000005" class="edge">
<title>Node1&#45;&gt;Node5</title>
<g id="a_edge5_Node000001_Node000005"><a xlink:title=" ">
<path fill="none" stroke="#63b8ff" d="M795.43,-116.94C768.06,-110.32 735.5,-102.45 709.74,-96.22"/>
<polygon fill="#63b8ff" stroke="#63b8ff" points="794.4,-120.29 804.95,-119.24 796.05,-113.49 794.4,-120.29"/>
</a>
</g>
</g>
<!-- Node2&#45;&gt;Node2 -->
<g id="edge3_Node000002_Node000002" class="edge">
<title>Node2&#45;&gt;Node2</title>
<g id="a_edge3_Node000002_Node000002"><a xlink:title=" ">
<path fill="none" stroke="#63b8ff" d="M695.46,-210.51C690.32,-214.47 679.79,-217.12 663.88,-217.12 635.58,-217.12 624.31,-208.74 630.06,-199.54"/>
<polygon fill="#63b8ff" stroke="#63b8ff" points="698.83,-211.52 697.39,-201.02 691.97,-210.13 698.83,-211.52"/>
</a>
</g>
</g>
<!-- Node3 -->
<g id="Node000003" class="node">
<title>Node3</title>
<g id="a_Node000003"><a xlink:href="structExampleAppPropertyEditor.html#adfdfd135c8e210849d5ecbe4d4969813" target="_top" xlink:title=" ">
<polygon fill="white" stroke="#666666" points="541.12,-199.12 393.88,-199.12 393.88,-165.62 541.12,-165.62 541.12,-199.12"/>
<text text-anchor="start" x="401.88" y="-185.62" font-family="Helvetica,sans-Serif" font-size="10.00">ExampleAppPropertyEditor</text>
<text text-anchor="middle" x="467.5" y="-172.88" font-family="Helvetica,sans-Serif" font-size="10.00">::Draw</text>
</a>
</g>
</g>
<!-- Node2&#45;&gt;Node3 -->
<g id="edge2_Node000002_Node000003" class="edge">
<title>Node2&#45;&gt;Node3</title>
<g id="a_edge2_Node000002_Node000003"><a xlink:title=" ">
<path fill="none" stroke="#63b8ff" d="M578.68,-182.38C566.31,-182.38 553.64,-182.38 541.52,-182.38"/>
<polygon fill="#63b8ff" stroke="#63b8ff" points="578.43,-185.88 588.43,-182.38 578.43,-178.88 578.43,-185.88"/>
</a>
</g>
</g>
<!-- Node6 -->
<g id="Node000006" class="node">
<title>Node6</title>
<g id="a_Node000006"><a xlink:href="namespaceImGui.html#a326f0badd138d1dea078a31b0e8dd685" target="_top" xlink:title=" ">
<polygon fill="white" stroke="#666666" points="541.12,-140.75 393.88,-140.75 393.88,-120 541.12,-120 541.12,-140.75"/>
<text text-anchor="middle" x="467.5" y="-127.25" font-family="Helvetica,sans-Serif" font-size="10.00">ImGui::DebugTextEncoding</text>
</a>
</g>
</g>
<!-- Node5&#45;&gt;Node6 -->
<g id="edge6_Node000005_Node000006" class="edge">
<title>Node5&#45;&gt;Node6</title>
<g id="a_edge6_Node000005_Node000006"><a xlink:title=" ">
<path fill="none" stroke="#63b8ff" d="M607.36,-98.85C590.33,-102.94 571.53,-107.39 554.25,-111.38 542.51,-114.08 529.85,-116.93 517.96,-119.57"/>
<polygon fill="#63b8ff" stroke="#63b8ff" points="607.88,-102.33 616.79,-96.59 606.24,-95.52 607.88,-102.33"/>
</a>
</g>
</g>
<!-- Node9 -->
<g id="Node000009" class="node">
<title>Node9</title>
<g id="a_Node000009"><a xlink:href="structExampleAssetsBrowser.html#a2b36e1f9b7d764e547611baa4c7fd8d1" target="_top" xlink:title=" ">
<polygon fill="white" stroke="#666666" points="532.88,-102.12 402.12,-102.12 402.12,-68.62 532.88,-68.62 532.88,-102.12"/>
<text text-anchor="start" x="410.12" y="-88.62" font-family="Helvetica,sans-Serif" font-size="10.00">ExampleAssetsBrowser</text>
<text text-anchor="middle" x="467.5" y="-75.88" font-family="Helvetica,sans-Serif" font-size="10.00">::Draw</text>
</a>
</g>
</g>
<!-- Node5&#45;&gt;Node9 -->
<g id="edge9_Node000005_Node000009" class="edge">
<title>Node5&#45;&gt;Node9</title>
<g id="a_edge9_Node000005_Node000009"><a xlink:title=" ">
<path fill="none" stroke="#63b8ff" d="M583,-85.38C566.4,-85.38 549.12,-85.38 533.15,-85.38"/>
<polygon fill="#63b8ff" stroke="#63b8ff" points="582.83,-88.88 592.83,-85.38 582.83,-81.88 582.83,-88.88"/>
</a>
</g>
</g>
<!-- Node10 -->
<g id="Node000010" class="node">
<title>Node10</title>
<g id="a_Node000010"><a xlink:href="namespaceImGui.html#ab4a87bf4a874a8e5872b60b4a9b1d99e" target="_top" xlink:title=" ">
<polygon fill="white" stroke="#666666" points="554.25,-50.75 380.75,-50.75 380.75,-30 554.25,-30 554.25,-50.75"/>
<text text-anchor="middle" x="467.5" y="-37.25" font-family="Helvetica,sans-Serif" font-size="10.00">ImGui::ShowIDStackToolWindow</text>
</a>
</g>
</g>
<!-- Node5&#45;&gt;Node10 -->
<g id="edge10_Node000005_Node000010" class="edge">
<title>Node5&#45;&gt;Node10</title>
<g id="a_edge10_Node000005_Node000010"><a xlink:title=" ">
<path fill="none" stroke="#63b8ff" d="M607.36,-71.9C590.33,-67.81 571.53,-63.36 554.25,-59.38 542.51,-56.67 529.85,-53.82 517.96,-51.18"/>
<polygon fill="#63b8ff" stroke="#63b8ff" points="606.24,-75.23 616.79,-74.16 607.88,-68.42 606.24,-75.23"/>
</a>
</g>
</g>
<!-- Node7 -->
<g id="Node000007" class="node">
<title>Node7</title>
<g id="a_Node000007"><a xlink:href="namespaceImGui.html#afe7a28c6eb52fff3cc27d5a698fea4ff" target="_top" xlink:title=" ">
<polygon fill="white" stroke="#666666" points="339.5,-114.75 187,-114.75 187,-94 339.5,-94 339.5,-114.75"/>
<text text-anchor="middle" x="263.25" y="-101.25" font-family="Helvetica,sans-Serif" font-size="10.00">ImGui::ShowMetricsWindow</text>
</a>
</g>
</g>
<!-- Node6&#45;&gt;Node7 -->
<g id="edge7_Node000006_Node000007" class="edge">
<title>Node6&#45;&gt;Node7</title>
<g id="a_edge7_Node000006_Node000007"><a xlink:title=" ">
<path fill="none" stroke="#63b8ff" d="M382.32,-119.55C368.25,-117.74 353.72,-115.88 339.88,-114.1"/>
<polygon fill="#63b8ff" stroke="#63b8ff" points="381.62,-122.99 391.98,-120.8 382.51,-116.05 381.62,-122.99"/>
</a>
</g>
</g>
<!-- Node8 -->
<g id="Node000008" class="node">
<title>Node8</title>
<g id="a_Node000008"><a xlink:href="namespaceImGui.html#af95643a0ce4893b9e57c12991922fb18" target="_top" xlink:title=" ">
<polygon fill="white" stroke="#666666" points="145.75,-95.75 0,-95.75 0,-75 145.75,-75 145.75,-95.75"/>
<text text-anchor="middle" x="72.88" y="-82.25" font-family="Helvetica,sans-Serif" font-size="10.00">ImGui::ShowDemoWindow</text>
</a>
</g>
</g>
<!-- Node7&#45;&gt;Node8 -->
<g id="edge8_Node000007_Node000008" class="edge">
<title>Node7&#45;&gt;Node8</title>
<g id="a_edge8_Node000007_Node000008"><a xlink:title=" ">
<path fill="none" stroke="#63b8ff" d="M175.3,-95.61C165.52,-94.62 155.63,-93.62 146.06,-92.66"/>
<polygon fill="#63b8ff" stroke="#63b8ff" points="174.91,-99.08 185.21,-96.6 175.61,-92.12 174.91,-99.08"/>
</a>
</g>
</g>
<!-- Node10&#45;&gt;Node7 -->
<g id="edge12_Node000010_Node000007" class="edge">
<title>Node10&#45;&gt;Node7</title>
<g id="a_edge12_Node000010_Node000007"><a xlink:title=" ">
<path fill="none" stroke="#63b8ff" d="M395.3,-54.34C390.32,-55.87 385.43,-57.54 380.75,-59.38 363.5,-66.13 361.75,-73.01 344.75,-80.38 332.97,-85.48 319.78,-89.91 307.54,-93.53"/>
<polygon fill="#63b8ff" stroke="#63b8ff" points="396.16,-57.74 404.83,-51.64 394.25,-51 396.16,-57.74"/>
</a>
</g>
</g>
<!-- Node10&#45;&gt;Node8 -->
<g id="edge11_Node000010_Node000008" class="edge">
<title>Node10&#45;&gt;Node8</title>
<g id="a_edge11_Node000010_Node000008"><a xlink:title=" ">
<path fill="none" stroke="#63b8ff" d="M369.01,-51.55C299.89,-59.47 208.66,-69.93 146.03,-77.11"/>
<polygon fill="#63b8ff" stroke="#63b8ff" points="369.3,-55.04 378.83,-50.42 368.5,-48.08 369.3,-55.04"/>
</a>
</g>
</g>
<!-- Node11 -->
<g id="Node000011" class="node">
<title>Node11</title>
<g id="a_Node000011"><a xlink:href="namespaceImGui.html#a1b6e100d30894c9379908efc540e5486" target="_top" xlink:title=" ">
<polygon fill="white" stroke="#666666" points="344.75,-20.75 181.75,-20.75 181.75,0 344.75,0 344.75,-20.75"/>
<text text-anchor="middle" x="263.25" y="-7.25" font-family="Helvetica,sans-Serif" font-size="10.00">ImGui::ShowStackToolWindow</text>
</a>
</g>
</g>
<!-- Node10&#45;&gt;Node11 -->
<g id="edge13_Node000010_Node000011" class="edge">
<title>Node10&#45;&gt;Node11</title>
<g id="a_edge13_Node000010_Node000011"><a xlink:title=" ">
<path fill="none" stroke="#63b8ff" d="M381.97,-27.84C367.13,-25.63 351.8,-23.36 337.3,-21.21"/>
<polygon fill="#63b8ff" stroke="#63b8ff" points="381.29,-31.27 391.7,-29.28 382.32,-24.35 381.29,-31.27"/>
</a>
</g>
</g>
<!-- Node11&#45;&gt;Node11 -->
<g id="edge14_Node000011_Node000011" class="edge">
<title>Node11&#45;&gt;Node11</title>
<g id="a_edge14_Node000011_Node000011"><a xlink:title=" ">
<path fill="none" stroke="#63b8ff" d="M296.75,-32.24C292.31,-36.08 281.14,-38.75 263.25,-38.75 230.53,-38.75 220.3,-29.81 232.57,-21.15"/>
<polygon fill="#63b8ff" stroke="#63b8ff" points="300.16,-31.44 294.3,-22.61 293.37,-33.17 300.16,-31.44"/>
</a>
</g>
</g>
</g>
</svg>

<g id="navigator" transform="translate(0 0)" fill="#404254">
  <rect fill="#f2f5e9" fill-opacity="0.5" stroke="#606060" stroke-width=".5" x="0" y="0" width="60" height="60"/>
  <use id="zoomplus" xlink:href="#zoomPlus" x="17" y="9" onmousedown="handleZoom(evt,'in')"/>
  <use id="zoomminus" xlink:href="#zoomMin" x="42" y="9" onmousedown="handleZoom(evt,'out')"/>
  <use id="reset" xlink:href="#resetDef" x="30" y="36" onmousedown="handleReset()"/>
   <use id="arrowup" xlink:href="#arrowUp" x="0" y="0" onmousedown="handlePan(0,-1)"/>
  <use id="arrowright" xlink:href="#arrowRight" x="0" y="0" onmousedown="handlePan(1,0)"/>
  <use id="arrowdown" xlink:href="#arrowDown" x="0" y="0" onmousedown="handlePan(0,1)"/>
  <use id="arrowleft" xlink:href="#arrowLeft" x="0" y="0" onmousedown="handlePan(-1,0)"/>
</g>
<svg viewBox="0 0 15 15" width="100%" height="30px" preserveAspectRatio="xMaxYMin meet">
 <g id="arrow_out" transform="scale(0.3 0.3)">
  <a xlink:href="namespaceImGui_adfbeb33991944035737d413379ae8b1c_icgraph_org.svg" target="_base">
   <rect id="button" ry="5" rx="5" y="6" x="6" height="38" width="38"
        fill="#f2f5e9" fill-opacity="0.5" stroke="#606060" stroke-width="1.0"/>
   <path id="arrow"
     d="M 11.500037,31.436501 C 11.940474,20.09759 22.043105,11.32322 32.158766,21.979434 L 37.068811,17.246167 C 37.068811,17.246167 37.088388,32 37.088388,32 L 22.160133,31.978069 C 22.160133,31.978069 26.997745,27.140456 26.997745,27.140456 C 18.528582,18.264221 13.291696,25.230495 11.500037,31.436501 z"
     style="fill:#404040;"/>
  </a>
 </g>
</svg>

<style type='text/css'>
<![CDATA[
[data-mouse-over-selected='false'] { opacity: 0.7; }
[data-mouse-over-selected='true']  { opacity: 1.0; }
]]>
</style>
<script type="application/ecmascript"><![CDATA[
document.addEventListener('DOMContentLoaded', (event) => {
  highlightEdges();
  highlightAdjacentNodes();
});
]]></script>
</svg>
