<?xml version="1.0" encoding="UTF-8" standalone="no"?>
<!DOCTYPE svg PUBLIC "-//W3C//DTD SVG 1.1//EN"
 "http://www.w3.org/Graphics/SVG/1.1/DTD/svg11.dtd">
<!-- Generated by graphviz version 11.0.0 (20240428.1522)
 -->
<!-- Title: steppable::output::warning Pages: 1 -->
<!--zoomable 758 -->

<svg id="main" version="1.1" xmlns="http://www.w3.org/2000/svg" xmlns:xlink="http://www.w3.org/1999/xlink" xml:space="preserve" onload="init(evt)">
<style type="text/css"><![CDATA[
.node, .edge {opacity: 0.7;}
.node.selected, .edge.selected {opacity: 1;}
.edge:hover path { stroke: red; }
.edge:hover polygon { stroke: red; fill: red; }
]]></style>

<defs>
  <circle id="rim" cx="0" cy="0" r="7"/>
  <circle id="rim2" cx="0" cy="0" r="3.5"/>
  <g id="zoomPlus">
    <use xlink:href="#rim" fill="#404040"><set attributeName="fill" to="#808080" begin="zoomplus.mouseover" end="zoomplus.mouseout"/></use>
    <path d="M-4,0h8M0,-4v8" fill="none" stroke="white" stroke-width="1.5" pointer-events="none"/>
  </g>
  <g id="zoomMin">
    <use xlink:href="#rim" fill="#404040"><set attributeName="fill" to="#808080" begin="zoomminus.mouseover" end="zoomminus.mouseout"/></use>
    <path d="M-4,0h8" fill="none" stroke="white" stroke-width="1.5" pointer-events="none"/>
  </g>
  <g id="arrowUp" transform="translate(30 24)">
    <use xlink:href="#rim"/>
    <path pointer-events="none" fill="none" stroke="white" stroke-width="1.5" d="M0,-3.0v7 M-2.5,-0.5L0,-3.0L2.5,-0.5"/>
  </g>
  <g id="arrowRight" transform="rotate(90) translate(36 -43)">
    <use xlink:href="#rim"/>
    <path pointer-events="none" fill="none" stroke="white" stroke-width="1.5" d="M0,-3.0v7 M-2.5,-0.5L0,-3.0L2.5,-0.5"/>
  </g>
  <g id="arrowDown" transform="rotate(180) translate(-30 -48)">
    <use xlink:href="#rim"/>
    <path pointer-events="none" fill="none" stroke="white" stroke-width="1.5" d="M0,-3.0v7 M-2.5,-0.5L0,-3.0L2.5,-0.5"/>
  </g>
  <g id="arrowLeft" transform="rotate(270) translate(-36 17)">
    <use xlink:href="#rim"/>
    <path pointer-events="none" fill="none" stroke="white" stroke-width="1.5" d="M0,-3.0v7 M-2.5,-0.5L0,-3.0L2.5,-0.5"/>
  </g>
  <g id="resetDef">
    <use xlink:href="#rim2" fill="#404040"><set attributeName="fill" to="#808080" begin="reset.mouseover" end="reset.mouseout"/></use>
  </g>
</defs>
<script type="application/ecmascript">
var viewWidth = 1570;
var viewHeight = 758;
var sectionId = 'dynsection-6';
</script>
<script type="application/ecmascript" xlink:href="svg.min.js"/>
<svg id="graph" class="graph">
<g id="viewport">
<title>steppable::output::warning</title>
<!-- Node1 -->
<g id="Node000001" class="node">
<title>Node1</title>
<g id="a_Node000001"><a xlink:title="Prints a warning message.">
<polygon fill="#999999" stroke="#666666" points="1562.25,-119.5 1454.75,-119.5 1454.75,-86 1562.25,-86 1562.25,-119.5"/>
<text text-anchor="start" x="1462.75" y="-106" font-family="Helvetica,sans-Serif" font-size="10.00">steppable::output::</text>
<text text-anchor="middle" x="1508.5" y="-93.25" font-family="Helvetica,sans-Serif" font-size="10.00">warning</text>
</a>
</g>
</g>
<!-- Node2 -->
<g id="Node000002" class="node">
<title>Node2</title>
<g id="a_Node000002"><a xlink:href="namespacesteppable_1_1____internals_1_1arithmetic.html#a26194ae8ddb44afb942fbf8335ae1730" target="_top" xlink:title="Divides a string representation of a number by another string representation of a number.">
<polygon fill="white" stroke="#666666" points="1418.75,-206.5 1295.5,-206.5 1295.5,-173 1418.75,-173 1418.75,-206.5"/>
<text text-anchor="start" x="1303.5" y="-193" font-family="Helvetica,sans-Serif" font-size="10.00">steppable::__internals</text>
<text text-anchor="middle" x="1357.12" y="-180.25" font-family="Helvetica,sans-Serif" font-size="10.00">::arithmetic::divide</text>
</a>
</g>
</g>
<!-- Node1&#45;&gt;Node2 -->
<g id="edge1_Node000001_Node000002" class="edge">
<title>Node1&#45;&gt;Node2</title>
<g id="a_edge1_Node000001_Node000002"><a xlink:title=" ">
<path fill="none" stroke="#63b8ff" d="M1468.33,-125.56C1443.04,-140.29 1410.68,-159.14 1387.58,-172.6"/>
<polygon fill="#63b8ff" stroke="#63b8ff" points="1469.8,-128.76 1476.68,-120.7 1466.28,-122.71 1469.8,-128.76"/>
</a>
</g>
</g>
<!-- Node20 -->
<g id="Node000020" class="node">
<title>Node20</title>
<g id="a_Node000020"><a xlink:href="classsteppable_1_1Number.html#aebdaf5d342a2a897793556bd390bc184" target="_top" xlink:title="Divides two numbers.">
<polygon fill="white" stroke="#666666" points="1230.62,-33.5 1115.62,-33.5 1115.62,0 1230.62,0 1230.62,-33.5"/>
<text text-anchor="start" x="1123.62" y="-20" font-family="Helvetica,sans-Serif" font-size="10.00">steppable::Number::</text>
<text text-anchor="middle" x="1173.12" y="-7.25" font-family="Helvetica,sans-Serif" font-size="10.00">operator/</text>
</a>
</g>
</g>
<!-- Node1&#45;&gt;Node20 -->
<g id="edge39_Node000001_Node000020" class="edge">
<title>Node1&#45;&gt;Node20</title>
<g id="a_edge39_Node000001_Node000020"><a xlink:title=" ">
<path fill="none" stroke="#63b8ff" d="M1443.2,-86.16C1381.72,-70.3 1289.92,-46.62 1231.03,-31.43"/>
<polygon fill="#63b8ff" stroke="#63b8ff" points="1442.28,-89.54 1452.84,-88.65 1444.03,-82.76 1442.28,-89.54"/>
</a>
</g>
</g>
<!-- Node3 -->
<g id="Node000003" class="node">
<title>Node3</title>
<g id="a_Node000003"><a xlink:href="namespacesteppable_1_1____internals_1_1arithmetic.html#a1eedcdd2349ec452f6319cd0ff443e0a" target="_top" xlink:title=" ">
<polygon fill="white" stroke="#666666" points="1234.75,-143.5 1111.5,-143.5 1111.5,-110 1234.75,-110 1234.75,-143.5"/>
<text text-anchor="start" x="1119.5" y="-130" font-family="Helvetica,sans-Serif" font-size="10.00">steppable::__internals</text>
<text text-anchor="middle" x="1173.12" y="-117.25" font-family="Helvetica,sans-Serif" font-size="10.00">::arithmetic::_root</text>
</a>
</g>
</g>
<!-- Node2&#45;&gt;Node3 -->
<g id="edge2_Node000002_Node000003" class="edge">
<title>Node2&#45;&gt;Node3</title>
<g id="a_edge2_Node000002_Node000003"><a xlink:title=" ">
<path fill="none" stroke="#63b8ff" d="M1295.58,-168.79C1272.27,-160.72 1245.96,-151.62 1223.8,-143.94"/>
<polygon fill="#63b8ff" stroke="#63b8ff" points="1294.37,-172.08 1304.96,-172.04 1296.66,-165.46 1294.37,-172.08"/>
</a>
</g>
</g>
<!-- Node11 -->
<g id="Node000011" class="node">
<title>Node11</title>
<g id="a_Node000011"><a xlink:href="namespacesteppable_1_1____internals_1_1arithmetic.html#a118bc6cb979317a7c762ee90fb44d0a4" target="_top" xlink:title="Converts a root operation into a surd.">
<polygon fill="white" stroke="#666666" points="123.25,-463.5 0,-463.5 0,-430 123.25,-430 123.25,-463.5"/>
<text text-anchor="start" x="8" y="-450" font-family="Helvetica,sans-Serif" font-size="10.00">steppable::__internals</text>
<text text-anchor="middle" x="61.62" y="-437.25" font-family="Helvetica,sans-Serif" font-size="10.00">::arithmetic::rootSurd</text>
</a>
</g>
</g>
<!-- Node2&#45;&gt;Node11 -->
<g id="edge29_Node000002_Node000011" class="edge">
<title>Node2&#45;&gt;Node11</title>
<g id="a_edge29_Node000002_Node000011"><a xlink:title=" ">
<path fill="none" stroke="#63b8ff" d="M1354.35,-218.22C1347.95,-312.03 1322.92,-609.28 1259.5,-676.75 1174.7,-766.96 1113.94,-747.75 990.12,-747.75 990.12,-747.75 990.12,-747.75 421.88,-747.75 243.68,-747.75 107.46,-527.47 71.8,-463.8"/>
<polygon fill="#63b8ff" stroke="#63b8ff" points="1357.84,-218.57 1355.01,-208.36 1350.85,-218.11 1357.84,-218.57"/>
</a>
</g>
</g>
<!-- Node14 -->
<g id="Node000014" class="node">
<title>Node14</title>
<g id="a_Node000014"><a xlink:href="namespacesteppable_1_1____internals_1_1arithmetic.html#a6f1429e9d7719e6376dc68ae28d36dbe" target="_top" xlink:title="Gets the integer part of the root of a number.">
<polygon fill="white" stroke="#666666" points="704.12,-397.5 574.88,-397.5 574.88,-364 704.12,-364 704.12,-397.5"/>
<text text-anchor="start" x="582.88" y="-384" font-family="Helvetica,sans-Serif" font-size="10.00">steppable::__internals</text>
<text text-anchor="middle" x="639.5" y="-371.25" font-family="Helvetica,sans-Serif" font-size="10.00">::arithmetic::rootIntPart</text>
</a>
</g>
</g>
<!-- Node2&#45;&gt;Node14 -->
<g id="edge28_Node000002_Node000014" class="edge">
<title>Node2&#45;&gt;Node14</title>
<g id="a_edge28_Node000002_Node000014"><a xlink:title=" ">
<path fill="none" stroke="#63b8ff" d="M1283.68,-180.3C1196.41,-171.74 1046.66,-166.17 927.5,-208.75 825.46,-245.21 829.39,-306.73 732.25,-354.75 723.49,-359.08 713.9,-362.79 704.32,-365.95"/>
<polygon fill="#63b8ff" stroke="#63b8ff" points="1283.24,-183.77 1293.55,-181.31 1283.96,-176.81 1283.24,-183.77"/>
</a>
</g>
</g>
<!-- Node15 -->
<g id="Node000015" class="node">
<title>Node15</title>
<g id="a_Node000015"><a xlink:href="namespacesteppable_1_1____internals_1_1arithmetic.html#a814abbd0fc1772320626c4c0ca3f677a" target="_top" xlink:title="Converts a string representation of a number from decimal to another one.">
<polygon fill="white" stroke="#666666" points="1243,-433.5 1103.25,-433.5 1103.25,-400 1243,-400 1243,-433.5"/>
<text text-anchor="start" x="1111.25" y="-420" font-family="Helvetica,sans-Serif" font-size="10.00">steppable::__internals</text>
<text text-anchor="middle" x="1173.12" y="-407.25" font-family="Helvetica,sans-Serif" font-size="10.00">::arithmetic::baseConvert</text>
</a>
</g>
</g>
<!-- Node2&#45;&gt;Node15 -->
<g id="edge21_Node000002_Node000015" class="edge">
<title>Node2&#45;&gt;Node15</title>
<g id="a_edge21_Node000002_Node000015"><a xlink:title=" ">
<path fill="none" stroke="#63b8ff" d="M1350.2,-218.01C1339.62,-261.48 1313.35,-344.54 1259.5,-390.75 1254.68,-394.89 1249.21,-398.37 1243.43,-401.29"/>
<polygon fill="#63b8ff" stroke="#63b8ff" points="1353.59,-218.87 1352.44,-208.34 1346.77,-217.3 1353.59,-218.87"/>
</a>
</g>
</g>
<!-- Node16 -->
<g id="Node000016" class="node">
<title>Node16</title>
<g id="a_Node000016"><a xlink:href="namespacesteppable_1_1____internals_1_1arithmetic.html#ac9102075acd398b3bdf388f6cc2ef978" target="_top" xlink:title=" ">
<polygon fill="white" stroke="#666666" points="1259.5,-667.5 1086.75,-667.5 1086.75,-634 1259.5,-634 1259.5,-667.5"/>
<text text-anchor="start" x="1094.75" y="-654" font-family="Helvetica,sans-Serif" font-size="10.00">steppable::__internals</text>
<text text-anchor="middle" x="1173.12" y="-641.25" font-family="Helvetica,sans-Serif" font-size="10.00">::arithmetic::divideWithQuotient</text>
</a>
</g>
</g>
<!-- Node2&#45;&gt;Node16 -->
<g id="edge22_Node000002_Node000016" class="edge">
<title>Node2&#45;&gt;Node16</title>
<g id="a_edge22_Node000002_Node000016"><a xlink:title=" ">
<path fill="none" stroke="#63b8ff" d="M1345.69,-217.75C1328.21,-264.5 1291.74,-361.35 1259.5,-442.75 1231.32,-513.88 1196.25,-598.02 1181.35,-633.55"/>
<polygon fill="#63b8ff" stroke="#63b8ff" points="1348.96,-219 1349.18,-208.4 1342.4,-216.55 1348.96,-219"/>
</a>
</g>
</g>
<!-- Node2&#45;&gt;Node20 -->
<g id="edge27_Node000002_Node000020" class="edge">
<title>Node2&#45;&gt;Node20</title>
<g id="a_edge27_Node000002_Node000020"><a xlink:title=" ">
<path fill="none" stroke="#63b8ff" d="M1339.16,-162.95C1314.41,-124.15 1270.2,-56.07 1259.5,-47.75 1251.03,-41.17 1241.04,-35.9 1230.93,-31.7"/>
<polygon fill="#63b8ff" stroke="#63b8ff" points="1336.15,-164.75 1344.48,-171.3 1342.06,-160.99 1336.15,-164.75"/>
</a>
</g>
</g>
<!-- Node21 -->
<g id="Node000021" class="node">
<title>Node21</title>
<g id="a_Node000021"><a xlink:href="classsteppable_1_1Fraction.html#a9cf64d847c268d9334775c572ef75dfa" target="_top" xlink:title="Simplifies a fraction. This function simplifies the fraction by dividing the top and bottom component...">
<polygon fill="white" stroke="#666666" points="1227.62,-381.5 1118.62,-381.5 1118.62,-348 1227.62,-348 1227.62,-381.5"/>
<text text-anchor="start" x="1126.62" y="-368" font-family="Helvetica,sans-Serif" font-size="10.00">steppable::Fraction</text>
<text text-anchor="middle" x="1173.12" y="-355.25" font-family="Helvetica,sans-Serif" font-size="10.00">::simplify</text>
</a>
</g>
</g>
<!-- Node2&#45;&gt;Node21 -->
<g id="edge30_Node000002_Node000021" class="edge">
<title>Node2&#45;&gt;Node21</title>
<g id="a_edge30_Node000002_Node000021"><a xlink:title=" ">
<path fill="none" stroke="#63b8ff" d="M1330.41,-214.48C1292.97,-250.48 1224.38,-316.43 1191.98,-347.58"/>
<polygon fill="#63b8ff" stroke="#63b8ff" points="1332.47,-217.35 1337.25,-207.9 1327.62,-212.31 1332.47,-217.35"/>
</a>
</g>
</g>
<!-- Node3&#45;&gt;Node3 -->
<g id="edge3_Node000003_Node000003" class="edge">
<title>Node3&#45;&gt;Node3</title>
<g id="a_edge3_Node000003_Node000003"><a xlink:title=" ">
<path fill="none" stroke="#63b8ff" d="M1204.02,-154.89C1198.99,-158.85 1188.69,-161.5 1173.12,-161.5 1145.45,-161.5 1134.43,-153.12 1140.05,-143.91"/>
<polygon fill="#63b8ff" stroke="#63b8ff" points="1207.39,-155.89 1205.91,-145.4 1200.52,-154.52 1207.39,-155.89"/>
</a>
</g>
</g>
<!-- Node4 -->
<g id="Node000004" class="node">
<title>Node4</title>
<g id="a_Node000004"><a xlink:href="namespacesteppable_1_1____internals_1_1arithmetic.html#a4aa89d1787b7578cd2ed73392bdcd7df" target="_top" xlink:title="Takes the n&#45;th root of a numer.">
<polygon fill="white" stroke="#666666" points="1050.75,-123.5 927.5,-123.5 927.5,-90 1050.75,-90 1050.75,-123.5"/>
<text text-anchor="start" x="935.5" y="-110" font-family="Helvetica,sans-Serif" font-size="10.00">steppable::__internals</text>
<text text-anchor="middle" x="989.12" y="-97.25" font-family="Helvetica,sans-Serif" font-size="10.00">::arithmetic::root</text>
</a>
</g>
</g>
<!-- Node3&#45;&gt;Node4 -->
<g id="edge4_Node000003_Node000004" class="edge">
<title>Node3&#45;&gt;Node4</title>
<g id="a_edge4_Node000003_Node000004"><a xlink:title=" ">
<path fill="none" stroke="#63b8ff" d="M1099.97,-118.82C1083.78,-117.04 1066.75,-115.17 1051.07,-113.45"/>
<polygon fill="#63b8ff" stroke="#63b8ff" points="1099.19,-122.26 1109.51,-119.87 1099.95,-115.3 1099.19,-122.26"/>
</a>
</g>
</g>
<!-- Node5 -->
<g id="Node000005" class="node">
<title>Node5</title>
<g id="a_Node000005"><a xlink:href="namespacesteppable_1_1____internals_1_1arithmetic.html#a50acfa1ad06ce385943ddd207146c9e0" target="_top" xlink:title="Raises a string representation of a number to a power.">
<polygon fill="white" stroke="#666666" points="891.5,-167.5 768.25,-167.5 768.25,-134 891.5,-134 891.5,-167.5"/>
<text text-anchor="start" x="776.25" y="-154" font-family="Helvetica,sans-Serif" font-size="10.00">steppable::__internals</text>
<text text-anchor="middle" x="829.88" y="-141.25" font-family="Helvetica,sans-Serif" font-size="10.00">::arithmetic::power</text>
</a>
</g>
</g>
<!-- Node4&#45;&gt;Node5 -->
<g id="edge5_Node000004_Node000005" class="edge">
<title>Node4&#45;&gt;Node5</title>
<g id="a_edge5_Node000004_Node000005"><a xlink:title=" ">
<path fill="none" stroke="#63b8ff" d="M916.26,-126.86C908.08,-129.15 899.79,-131.47 891.77,-133.71"/>
<polygon fill="#63b8ff" stroke="#63b8ff" points="917.18,-130.23 925.87,-124.17 915.3,-123.49 917.18,-130.23"/>
</a>
</g>
</g>
<!-- Node5&#45;&gt;Node3 -->
<g id="edge6_Node000005_Node000003" class="edge">
<title>Node5&#45;&gt;Node3</title>
<g id="a_edge6_Node000005_Node000003"><a xlink:title=" ">
<path fill="none" stroke="#63b8ff" d="M903.15,-145.67C964.93,-141.32 1052.82,-135.14 1111.12,-131.04"/>
<polygon fill="#63b8ff" stroke="#63b8ff" points="903.17,-142.16 893.44,-146.35 903.66,-149.14 903.17,-142.16"/>
</a>
</g>
</g>
<!-- Node5&#45;&gt;Node5 -->
<g id="edge17_Node000005_Node000005" class="edge">
<title>Node5&#45;&gt;Node5</title>
<g id="a_edge17_Node000005_Node000005"><a xlink:title=" ">
<path fill="none" stroke="#63b8ff" d="M856.61,-178.89C852.26,-182.85 843.35,-185.5 829.88,-185.5 805.93,-185.5 796.38,-177.12 801.25,-167.91"/>
<polygon fill="#63b8ff" stroke="#63b8ff" points="860,-179.85 858.25,-169.41 853.1,-178.67 860,-179.85"/>
</a>
</g>
</g>
<!-- Node6 -->
<g id="Node000006" class="node">
<title>Node6</title>
<g id="a_Node000006"><a xlink:href="namespacesteppable_1_1____internals_1_1arithmetic.html#afc4c4f319dadbb5b1ff481132f008374" target="_top" xlink:title="Converts a string representation of a number from any base to decimal.">
<polygon fill="white" stroke="#666666" points="717.25,-241.5 561.75,-241.5 561.75,-208 717.25,-208 717.25,-241.5"/>
<text text-anchor="start" x="569.75" y="-228" font-family="Helvetica,sans-Serif" font-size="10.00">steppable::__internals</text>
<text text-anchor="middle" x="639.5" y="-215.25" font-family="Helvetica,sans-Serif" font-size="10.00">::arithmetic::decimalConvert</text>
</a>
</g>
</g>
<!-- Node5&#45;&gt;Node6 -->
<g id="edge7_Node000005_Node000006" class="edge">
<title>Node5&#45;&gt;Node6</title>
<g id="a_edge7_Node000005_Node000006"><a xlink:title=" ">
<path fill="none" stroke="#63b8ff" d="M782.45,-172.46C766.66,-179.56 748.81,-187.29 732.25,-193.75 720.03,-198.52 706.74,-203.26 694.17,-207.55"/>
<polygon fill="#63b8ff" stroke="#63b8ff" points="783.47,-175.84 791.13,-168.52 780.58,-169.46 783.47,-175.84"/>
</a>
</g>
</g>
<!-- Node7 -->
<g id="Node000007" class="node">
<title>Node7</title>
<g id="a_Node000007"><a xlink:href="namespacesteppable_1_1____internals_1_1arithmetic.html#aa150ef39a272f7228ae239679247fab3" target="_top" xlink:title="Determines the scale of the quotient of division.">
<polygon fill="white" stroke="#666666" points="732.25,-75.5 546.75,-75.5 546.75,-42 732.25,-42 732.25,-75.5"/>
<text text-anchor="start" x="554.75" y="-62" font-family="Helvetica,sans-Serif" font-size="10.00">steppable::__internals</text>
<text text-anchor="middle" x="639.5" y="-49.25" font-family="Helvetica,sans-Serif" font-size="10.00">::arithmetic::determineResultScale</text>
</a>
</g>
</g>
<!-- Node5&#45;&gt;Node7 -->
<g id="edge8_Node000005_Node000007" class="edge">
<title>Node5&#45;&gt;Node7</title>
<g id="a_edge8_Node000005_Node000007"><a xlink:title=" ">
<path fill="none" stroke="#63b8ff" d="M783.55,-128.61C750.4,-112.43 706.1,-90.79 675.62,-75.9"/>
<polygon fill="#63b8ff" stroke="#63b8ff" points="782,-131.75 792.52,-133 785.07,-125.46 782,-131.75"/>
</a>
</g>
</g>
<!-- Node8 -->
<g id="Node000008" class="node">
<title>Node8</title>
<g id="a_Node000008"><a xlink:href="namespacesteppable_1_1____internals_1_1numUtils.html#a9af210044669c6dd27a2fca4723fe831" target="_top" xlink:title="Get the greatest root number less than or equal to the given number.">
<polygon fill="white" stroke="#666666" points="510.75,-255.5 335,-255.5 335,-222 510.75,-222 510.75,-255.5"/>
<text text-anchor="start" x="343" y="-242" font-family="Helvetica,sans-Serif" font-size="10.00">steppable::__internals</text>
<text text-anchor="middle" x="422.88" y="-229.25" font-family="Helvetica,sans-Serif" font-size="10.00">::numUtils::getGreatestRootNum</text>
</a>
</g>
</g>
<!-- Node5&#45;&gt;Node8 -->
<g id="edge10_Node000005_Node000008" class="edge">
<title>Node5&#45;&gt;Node8</title>
<g id="a_edge10_Node000005_Node000008"><a xlink:title=" ">
<path fill="none" stroke="#63b8ff" d="M756.74,-145.21C698.74,-142.97 615.83,-144.79 546.75,-165.75 507.81,-177.57 468.33,-204.2 444.99,-221.82"/>
<polygon fill="#63b8ff" stroke="#63b8ff" points="756.34,-148.7 766.48,-145.65 756.65,-141.71 756.34,-148.7"/>
</a>
</g>
</g>
<!-- Node9 -->
<g id="Node000009" class="node">
<title>Node9</title>
<g id="a_Node000009"><a xlink:href="namespacesteppable_1_1____internals_1_1numUtils.html#af5d859c9839f7f49bf06f891693d5dfc" target="_top" xlink:title="Check if a number is a root number.">
<polygon fill="white" stroke="#666666" points="484.5,-397.5 361.25,-397.5 361.25,-364 484.5,-364 484.5,-397.5"/>
<text text-anchor="start" x="369.25" y="-384" font-family="Helvetica,sans-Serif" font-size="10.00">steppable::__internals</text>
<text text-anchor="middle" x="422.88" y="-371.25" font-family="Helvetica,sans-Serif" font-size="10.00">::numUtils::isRoot</text>
</a>
</g>
</g>
<!-- Node5&#45;&gt;Node9 -->
<g id="edge11_Node000005_Node000009" class="edge">
<title>Node5&#45;&gt;Node9</title>
<g id="a_edge11_Node000005_Node000009"><a xlink:title=" ">
<path fill="none" stroke="#63b8ff" d="M756.56,-162.27C674.4,-175.46 551.05,-195.68 546.75,-198.75 519.56,-218.16 528.81,-236.64 510.75,-264.75 487.22,-301.37 455.82,-341.47 437.93,-363.62"/>
<polygon fill="#63b8ff" stroke="#63b8ff" points="757.05,-165.73 766.36,-160.69 755.94,-158.82 757.05,-165.73"/>
</a>
</g>
</g>
<!-- Node12 -->
<g id="Node000012" class="node">
<title>Node12</title>
<g id="a_Node000012"><a xlink:href="classsteppable_1_1Fraction.html#abaf8678e0b61e3097789959b66e4c23c" target="_top" xlink:title="Raises the fraction to a power.">
<polygon fill="white" stroke="#666666" points="694,-345.5 585,-345.5 585,-312 694,-312 694,-345.5"/>
<text text-anchor="start" x="593" y="-332" font-family="Helvetica,sans-Serif" font-size="10.00">steppable::Fraction</text>
<text text-anchor="middle" x="639.5" y="-319.25" font-family="Helvetica,sans-Serif" font-size="10.00">::operator^</text>
</a>
</g>
</g>
<!-- Node5&#45;&gt;Node12 -->
<g id="edge15_Node000005_Node000012" class="edge">
<title>Node5&#45;&gt;Node12</title>
<g id="a_edge15_Node000005_Node000012"><a xlink:title=" ">
<path fill="none" stroke="#63b8ff" d="M792.37,-174.83C783.55,-182.01 774.79,-190.47 768.25,-199.75 740.33,-239.4 767.55,-269.51 732.25,-302.75 721.88,-312.51 708.13,-318.65 694.43,-322.49"/>
<polygon fill="#63b8ff" stroke="#63b8ff" points="794.49,-177.62 800.3,-168.75 790.23,-172.06 794.49,-177.62"/>
</a>
</g>
</g>
<!-- Node13 -->
<g id="Node000013" class="node">
<title>Node13</title>
<g id="a_Node000013"><a xlink:href="classsteppable_1_1Number.html#ae3e13c5f73bc67cd464c84a8640e1387" target="_top" xlink:title="Raises the number to a power.">
<polygon fill="white" stroke="#666666" points="697,-293.5 582,-293.5 582,-260 697,-260 697,-293.5"/>
<text text-anchor="start" x="590" y="-280" font-family="Helvetica,sans-Serif" font-size="10.00">steppable::Number::</text>
<text text-anchor="middle" x="639.5" y="-267.25" font-family="Helvetica,sans-Serif" font-size="10.00">operator^</text>
</a>
</g>
</g>
<!-- Node5&#45;&gt;Node13 -->
<g id="edge16_Node000005_Node000013" class="edge">
<title>Node5&#45;&gt;Node13</title>
<g id="a_edge16_Node000005_Node000013"><a xlink:title=" ">
<path fill="none" stroke="#63b8ff" d="M795.49,-175.01C786.21,-182.46 776.44,-191.01 768.25,-199.75 749.28,-220 754.89,-234.72 732.25,-250.75 721.85,-258.12 709.4,-263.4 697.08,-267.2"/>
<polygon fill="#63b8ff" stroke="#63b8ff" points="797.61,-177.8 803.34,-168.89 793.3,-172.28 797.61,-177.8"/>
</a>
</g>
</g>
<!-- Node5&#45;&gt;Node14 -->
<g id="edge18_Node000005_Node000014" class="edge">
<title>Node5&#45;&gt;Node14</title>
<g id="a_edge18_Node000005_Node000014"><a xlink:title=" ">
<path fill="none" stroke="#63b8ff" d="M791.21,-174.76C782.56,-181.86 774.17,-190.3 768.25,-199.75 730.71,-259.68 781.05,-303.56 732.25,-354.75 724.6,-362.78 714.66,-368.39 704.17,-372.29"/>
<polygon fill="#63b8ff" stroke="#63b8ff" points="793.22,-177.63 799.03,-168.77 788.96,-172.07 793.22,-177.63"/>
</a>
</g>
</g>
<!-- Node7&#45;&gt;Node2 -->
<g id="edge9_Node000007_Node000002" class="edge">
<title>Node7&#45;&gt;Node2</title>
<g id="a_edge9_Node000007_Node000002"><a xlink:title=" ">
<path fill="none" stroke="#63b8ff" d="M743.82,-44.78C871.09,-32.16 1091.11,-25.57 1259.5,-100.75 1295.53,-116.84 1326.99,-151.83 1343.6,-172.82"/>
<polygon fill="#63b8ff" stroke="#63b8ff" points="743.65,-41.28 734.06,-45.78 744.36,-48.24 743.65,-41.28"/>
</a>
</g>
</g>
<!-- Node10 -->
<g id="Node000010" class="node">
<title>Node10</title>
<g id="a_Node000010"><a xlink:href="namespacesteppable_1_1____internals_1_1numUtils.html#a379086734493f9c5d59b1bca39908074" target="_top" xlink:title="Get the largest factor of a number, that is a root number.">
<polygon fill="white" stroke="#666666" points="299,-463.5 159.25,-463.5 159.25,-430 299,-430 299,-463.5"/>
<text text-anchor="start" x="167.25" y="-450" font-family="Helvetica,sans-Serif" font-size="10.00">steppable::__internals</text>
<text text-anchor="middle" x="229.12" y="-437.25" font-family="Helvetica,sans-Serif" font-size="10.00">::numUtils::getRootFactor</text>
</a>
</g>
</g>
<!-- Node9&#45;&gt;Node10 -->
<g id="edge12_Node000009_Node000010" class="edge">
<title>Node9&#45;&gt;Node10</title>
<g id="a_edge12_Node000009_Node000010"><a xlink:title=" ">
<path fill="none" stroke="#63b8ff" d="M361.43,-401.55C335.25,-410.57 304.97,-420.99 280.09,-429.55"/>
<polygon fill="#63b8ff" stroke="#63b8ff" points="362.25,-404.98 370.56,-398.41 359.97,-398.36 362.25,-404.98"/>
</a>
</g>
</g>
<!-- Node10&#45;&gt;Node11 -->
<g id="edge13_Node000010_Node000011" class="edge">
<title>Node10&#45;&gt;Node11</title>
<g id="a_edge13_Node000010_Node000011"><a xlink:title=" ">
<path fill="none" stroke="#63b8ff" d="M147.58,-446.75C139.54,-446.75 131.47,-446.75 123.68,-446.75"/>
<polygon fill="#63b8ff" stroke="#63b8ff" points="147.38,-450.25 157.38,-446.75 147.38,-443.25 147.38,-450.25"/>
</a>
</g>
</g>
<!-- Node11&#45;&gt;Node4 -->
<g id="edge14_Node000011_Node000004" class="edge">
<title>Node11&#45;&gt;Node4</title>
<g id="a_edge14_Node000011_Node000004"><a xlink:title=" ">
<path fill="none" stroke="#63b8ff" d="M74.86,-419.32C113.2,-337.98 239.45,-103.75 421.88,-103.75 640.5,-103.75 640.5,-103.75 640.5,-103.75 740.99,-103.75 857.81,-105.02 927.21,-105.91"/>
<polygon fill="#63b8ff" stroke="#63b8ff" points="71.69,-417.82 70.67,-428.37 78.05,-420.76 71.69,-417.82"/>
</a>
</g>
</g>
<!-- Node14&#45;&gt;Node8 -->
<g id="edge19_Node000014_Node000008" class="edge">
<title>Node14&#45;&gt;Node8</title>
<g id="a_edge19_Node000014_Node000008"><a xlink:title=" ">
<path fill="none" stroke="#63b8ff" d="M564.32,-363.14C558.22,-360.68 552.28,-357.89 546.75,-354.75 500.32,-328.39 457.8,-280.88 437.1,-255.62"/>
<polygon fill="#63b8ff" stroke="#63b8ff" points="562.69,-366.27 573.28,-366.46 565.12,-359.7 562.69,-366.27"/>
</a>
</g>
</g>
<!-- Node14&#45;&gt;Node9 -->
<g id="edge20_Node000014_Node000009" class="edge">
<title>Node14&#45;&gt;Node9</title>
<g id="a_edge20_Node000014_Node000009"><a xlink:title=" ">
<path fill="none" stroke="#63b8ff" d="M563.19,-380.75C537.5,-380.75 509.11,-380.75 484.71,-380.75"/>
<polygon fill="#63b8ff" stroke="#63b8ff" points="562.88,-384.25 572.88,-380.75 562.88,-377.25 562.88,-384.25"/>
</a>
</g>
</g>
<!-- Node17 -->
<g id="Node000017" class="node">
<title>Node17</title>
<g id="a_Node000017"><a xlink:href="namespacesteppable_1_1____internals_1_1numUtils.html#a5eeb396144a9e1d3edd3339abb6f434f" target="_top" xlink:title="Get the factors of a number.">
<polygon fill="white" stroke="#666666" points="1050.75,-667.5 927.5,-667.5 927.5,-634 1050.75,-634 1050.75,-667.5"/>
<text text-anchor="start" x="935.5" y="-654" font-family="Helvetica,sans-Serif" font-size="10.00">steppable::__internals</text>
<text text-anchor="middle" x="989.12" y="-641.25" font-family="Helvetica,sans-Serif" font-size="10.00">::numUtils::getFactors</text>
</a>
</g>
</g>
<!-- Node16&#45;&gt;Node17 -->
<g id="edge23_Node000016_Node000017" class="edge">
<title>Node16&#45;&gt;Node17</title>
<g id="a_edge23_Node000016_Node000017"><a xlink:title=" ">
<path fill="none" stroke="#63b8ff" d="M1075.01,-650.75C1066.93,-650.75 1058.92,-650.75 1051.22,-650.75"/>
<polygon fill="#63b8ff" stroke="#63b8ff" points="1074.94,-654.25 1084.94,-650.75 1074.94,-647.25 1074.94,-654.25"/>
</a>
</g>
</g>
<!-- Node19 -->
<g id="Node000019" class="node">
<title>Node19</title>
<g id="a_Node000019"><a xlink:href="classsteppable_1_1Number.html#a719a8a93fcfe91b30c38ba0830d6de50" target="_top" xlink:title="Calculates the remainder of two numbers. (Modulus)">
<polygon fill="white" stroke="#666666" points="1046.62,-719.5 931.62,-719.5 931.62,-686 1046.62,-686 1046.62,-719.5"/>
<text text-anchor="start" x="939.62" y="-706" font-family="Helvetica,sans-Serif" font-size="10.00">steppable::Number::</text>
<text text-anchor="middle" x="989.12" y="-693.25" font-family="Helvetica,sans-Serif" font-size="10.00">operator%</text>
</a>
</g>
</g>
<!-- Node16&#45;&gt;Node19 -->
<g id="edge26_Node000016_Node000019" class="edge">
<title>Node16&#45;&gt;Node19</title>
<g id="a_edge26_Node000016_Node000019"><a xlink:title=" ">
<path fill="none" stroke="#63b8ff" d="M1100.81,-671.13C1082.93,-676.23 1063.99,-681.65 1046.92,-686.52"/>
<polygon fill="#63b8ff" stroke="#63b8ff" points="1101.67,-674.52 1110.32,-668.41 1099.74,-667.79 1101.67,-674.52"/>
</a>
</g>
</g>
<!-- Node17&#45;&gt;Node10 -->
<g id="edge24_Node000017_Node000010" class="edge">
<title>Node17&#45;&gt;Node10</title>
<g id="a_edge24_Node000017_Node000010"><a xlink:title=" ">
<path fill="none" stroke="#63b8ff" d="M916.35,-631.43C769,-591.78 434.43,-501.73 294.03,-463.95"/>
<polygon fill="#63b8ff" stroke="#63b8ff" points="915.03,-634.7 925.6,-633.92 916.85,-627.94 915.03,-634.7"/>
</a>
</g>
</g>
<!-- Node18 -->
<g id="Node000018" class="node">
<title>Node18</title>
<g id="a_Node000018"><a xlink:href="namespacesteppable_1_1____internals_1_1numUtils.html#a1a51aabb1fe846587df780d136efd45f" target="_top" xlink:title="Check if a number is prime.">
<polygon fill="white" stroke="#666666" points="891.5,-667.5 768.25,-667.5 768.25,-634 891.5,-634 891.5,-667.5"/>
<text text-anchor="start" x="776.25" y="-654" font-family="Helvetica,sans-Serif" font-size="10.00">steppable::__internals</text>
<text text-anchor="middle" x="829.88" y="-641.25" font-family="Helvetica,sans-Serif" font-size="10.00">::numUtils::isPrime</text>
</a>
</g>
</g>
<!-- Node17&#45;&gt;Node18 -->
<g id="edge25_Node000017_Node000018" class="edge">
<title>Node17&#45;&gt;Node18</title>
<g id="a_edge25_Node000017_Node000018"><a xlink:title=" ">
<path fill="none" stroke="#63b8ff" d="M915.98,-650.75C907.89,-650.75 899.7,-650.75 891.77,-650.75"/>
<polygon fill="#63b8ff" stroke="#63b8ff" points="915.81,-654.25 925.81,-650.75 915.81,-647.25 915.81,-654.25"/>
</a>
</g>
</g>
<!-- Node22 -->
<g id="Node000022" class="node">
<title>Node22</title>
<g id="a_Node000022"><a xlink:href="classsteppable_1_1Fraction.html#a4647e3f3062426a91d1ef7cdbde23bb6" target="_top" xlink:title="Initialized a fraction from a number.">
<polygon fill="white" stroke="#666666" points="1043.62,-563.5 934.62,-563.5 934.62,-530 1043.62,-530 1043.62,-563.5"/>
<text text-anchor="start" x="942.62" y="-550" font-family="Helvetica,sans-Serif" font-size="10.00">steppable::Fraction</text>
<text text-anchor="middle" x="989.12" y="-537.25" font-family="Helvetica,sans-Serif" font-size="10.00">::Fraction</text>
</a>
</g>
</g>
<!-- Node21&#45;&gt;Node22 -->
<g id="edge31_Node000021_Node000022" class="edge">
<title>Node21&#45;&gt;Node22</title>
<g id="a_edge31_Node000021_Node000022"><a xlink:title=" ">
<path fill="none" stroke="#63b8ff" d="M1107.85,-376.39C1100.01,-379.98 1092.69,-384.66 1086.75,-390.75 1044.9,-433.68 1090.19,-475.59 1050.75,-520.75 1047.81,-524.11 1044.36,-527.06 1040.62,-529.63"/>
<polygon fill="#63b8ff" stroke="#63b8ff" points="1108.93,-379.73 1116.97,-372.83 1106.38,-373.21 1108.93,-379.73"/>
</a>
</g>
</g>
<!-- Node23 -->
<g id="Node000023" class="node">
<title>Node23</title>
<g id="a_Node000023"><a xlink:href="classsteppable_1_1Fraction.html#a1fa38ab4cede78e19fa478242f6e5b46" target="_top" xlink:title="Initializes a fraction with a specified top component and bottom component.">
<polygon fill="white" stroke="#666666" points="1043.62,-511.5 934.62,-511.5 934.62,-478 1043.62,-478 1043.62,-511.5"/>
<text text-anchor="start" x="942.62" y="-498" font-family="Helvetica,sans-Serif" font-size="10.00">steppable::Fraction</text>
<text text-anchor="middle" x="989.12" y="-485.25" font-family="Helvetica,sans-Serif" font-size="10.00">::Fraction</text>
</a>
</g>
</g>
<!-- Node21&#45;&gt;Node23 -->
<g id="edge32_Node000021_Node000023" class="edge">
<title>Node21&#45;&gt;Node23</title>
<g id="a_edge32_Node000021_Node000023"><a xlink:title=" ">
<path fill="none" stroke="#63b8ff" d="M1107.86,-377.7C1100.21,-381.09 1092.93,-385.36 1086.75,-390.75 1057.97,-415.84 1078.11,-442.12 1050.75,-468.75 1047.3,-472.1 1043.35,-475.06 1039.16,-477.65"/>
<polygon fill="#63b8ff" stroke="#63b8ff" points="1108.98,-381.02 1117.05,-374.15 1106.46,-374.49 1108.98,-381.02"/>
</a>
</g>
</g>
<!-- Node24 -->
<g id="Node000024" class="node">
<title>Node24</title>
<g id="a_Node000024"><a xlink:href="classsteppable_1_1Fraction.html#a21eef8107e9cd1e590f7595c4ecbe147" target="_top" xlink:title="Multiplies two fractions together and stores the result in the current one. This function does it by ...">
<polygon fill="white" stroke="#666666" points="1043.62,-459.5 934.62,-459.5 934.62,-426 1043.62,-426 1043.62,-459.5"/>
<text text-anchor="start" x="942.62" y="-446" font-family="Helvetica,sans-Serif" font-size="10.00">steppable::Fraction</text>
<text text-anchor="middle" x="989.12" y="-433.25" font-family="Helvetica,sans-Serif" font-size="10.00">::operator*=</text>
</a>
</g>
</g>
<!-- Node21&#45;&gt;Node24 -->
<g id="edge33_Node000021_Node000024" class="edge">
<title>Node21&#45;&gt;Node24</title>
<g id="a_edge33_Node000021_Node000024"><a xlink:title=" ">
<path fill="none" stroke="#63b8ff" d="M1107.44,-381.95C1100.32,-384.57 1093.29,-387.5 1086.75,-390.75 1069.07,-399.52 1067.92,-407.02 1050.75,-416.75 1045.27,-419.85 1039.35,-422.82 1033.42,-425.58"/>
<polygon fill="#63b8ff" stroke="#63b8ff" points="1108.52,-385.28 1116.82,-378.7 1106.22,-378.66 1108.52,-385.28"/>
</a>
</g>
</g>
<!-- Node25 -->
<g id="Node000025" class="node">
<title>Node25</title>
<g id="a_Node000025"><a xlink:href="classsteppable_1_1Fraction.html#ab10a5f43f6e60253ab6f4a097c73cf6e" target="_top" xlink:title="Adds two fractions together and stores the result in the current one. This function does it by doing ...">
<polygon fill="white" stroke="#666666" points="1043.62,-407.5 934.62,-407.5 934.62,-374 1043.62,-374 1043.62,-407.5"/>
<text text-anchor="start" x="942.62" y="-394" font-family="Helvetica,sans-Serif" font-size="10.00">steppable::Fraction</text>
<text text-anchor="middle" x="989.12" y="-381.25" font-family="Helvetica,sans-Serif" font-size="10.00">::operator+=</text>
</a>
</g>
</g>
<!-- Node21&#45;&gt;Node25 -->
<g id="edge34_Node000021_Node000025" class="edge">
<title>Node21&#45;&gt;Node25</title>
<g id="a_edge34_Node000021_Node000025"><a xlink:title=" ">
<path fill="none" stroke="#63b8ff" d="M1107.23,-374.02C1086.52,-376.98 1063.83,-380.22 1043.99,-383.05"/>
<polygon fill="#63b8ff" stroke="#63b8ff" points="1107.6,-377.5 1117.01,-372.62 1106.61,-370.57 1107.6,-377.5"/>
</a>
</g>
</g>
<!-- Node26 -->
<g id="Node000026" class="node">
<title>Node26</title>
<g id="a_Node000026"><a xlink:href="classsteppable_1_1Fraction.html#aad3d96fbba7e7a0fa36c3f69f0463b8b" target="_top" xlink:title="Subtracts a fraction from another fraction and stores the result in the current one....">
<polygon fill="white" stroke="#666666" points="1043.62,-355.5 934.62,-355.5 934.62,-322 1043.62,-322 1043.62,-355.5"/>
<text text-anchor="start" x="942.62" y="-342" font-family="Helvetica,sans-Serif" font-size="10.00">steppable::Fraction</text>
<text text-anchor="middle" x="989.12" y="-329.25" font-family="Helvetica,sans-Serif" font-size="10.00">::operator&#45;=</text>
</a>
</g>
</g>
<!-- Node21&#45;&gt;Node26 -->
<g id="edge35_Node000021_Node000026" class="edge">
<title>Node21&#45;&gt;Node26</title>
<g id="a_edge35_Node000021_Node000026"><a xlink:title=" ">
<path fill="none" stroke="#63b8ff" d="M1107.23,-355.48C1086.52,-352.52 1063.83,-349.28 1043.99,-346.45"/>
<polygon fill="#63b8ff" stroke="#63b8ff" points="1106.61,-358.93 1117.01,-356.88 1107.6,-352 1106.61,-358.93"/>
</a>
</g>
</g>
<!-- Node27 -->
<g id="Node000027" class="node">
<title>Node27</title>
<g id="a_Node000027"><a xlink:href="classsteppable_1_1Fraction.html#a86913160c5f596b74be3007bd16bda6b" target="_top" xlink:title="Divides a fraction by abother fraction and stores the result in the current one. This function does i...">
<polygon fill="white" stroke="#666666" points="1043.62,-303.5 934.62,-303.5 934.62,-270 1043.62,-270 1043.62,-303.5"/>
<text text-anchor="start" x="942.62" y="-290" font-family="Helvetica,sans-Serif" font-size="10.00">steppable::Fraction</text>
<text text-anchor="middle" x="989.12" y="-277.25" font-family="Helvetica,sans-Serif" font-size="10.00">::operator/=</text>
</a>
</g>
</g>
<!-- Node21&#45;&gt;Node27 -->
<g id="edge36_Node000021_Node000027" class="edge">
<title>Node21&#45;&gt;Node27</title>
<g id="a_edge36_Node000021_Node000027"><a xlink:title=" ">
<path fill="none" stroke="#63b8ff" d="M1121.89,-343.22C1093.03,-330.85 1057.27,-315.53 1030.29,-303.96"/>
<polygon fill="#63b8ff" stroke="#63b8ff" points="1120.22,-346.31 1130.79,-347.04 1122.98,-339.88 1120.22,-346.31"/>
</a>
</g>
</g>
<!-- Node28 -->
<g id="Node000028" class="node">
<title>Node28</title>
<g id="a_Node000028"><a xlink:href="classsteppable_1_1Fraction.html#ac0a3d392ac70f42f74392fe08c1ab8be" target="_top" xlink:title="Raises the fraction to a power and stores the result in the current one.">
<polygon fill="white" stroke="#666666" points="1043.62,-251.5 934.62,-251.5 934.62,-218 1043.62,-218 1043.62,-251.5"/>
<text text-anchor="start" x="942.62" y="-238" font-family="Helvetica,sans-Serif" font-size="10.00">steppable::Fraction</text>
<text text-anchor="middle" x="989.12" y="-225.25" font-family="Helvetica,sans-Serif" font-size="10.00">::operator^=</text>
</a>
</g>
</g>
<!-- Node21&#45;&gt;Node28 -->
<g id="edge37_Node000021_Node000028" class="edge">
<title>Node21&#45;&gt;Node28</title>
<g id="a_edge37_Node000021_Node000028"><a xlink:title=" ">
<path fill="none" stroke="#63b8ff" d="M1147.79,-339.95C1124.47,-317.18 1087.47,-283.61 1050.75,-260.75 1045.69,-257.6 1040.19,-254.66 1034.63,-251.97"/>
<polygon fill="#63b8ff" stroke="#63b8ff" points="1145.09,-342.21 1154.67,-346.75 1150.02,-337.23 1145.09,-342.21"/>
</a>
</g>
</g>
<!-- Node29 -->
<g id="Node000029" class="node">
<title>Node29</title>
<g id="a_Node000029"><a xlink:href="classsteppable_1_1Fraction.html#a939fea669a7f630672f7215e77f335b6" target="_top" xlink:title="Returns the fraction as a string. The string is formatted as &quot;top/bottom&quot;, and it will automatically ...">
<polygon fill="white" stroke="#666666" points="1043.62,-615.5 934.62,-615.5 934.62,-582 1043.62,-582 1043.62,-615.5"/>
<text text-anchor="start" x="942.62" y="-602" font-family="Helvetica,sans-Serif" font-size="10.00">steppable::Fraction</text>
<text text-anchor="middle" x="989.12" y="-589.25" font-family="Helvetica,sans-Serif" font-size="10.00">::present</text>
</a>
</g>
</g>
<!-- Node21&#45;&gt;Node29 -->
<g id="edge38_Node000021_Node000029" class="edge">
<title>Node21&#45;&gt;Node29</title>
<g id="a_edge38_Node000021_Node000029"><a xlink:title=" ">
<path fill="none" stroke="#63b8ff" d="M1107.72,-375.85C1099.83,-379.52 1092.53,-384.36 1086.75,-390.75 1031.44,-451.91 1102.63,-508.66 1050.75,-572.75 1048.01,-576.13 1044.75,-579.08 1041.18,-581.66"/>
<polygon fill="#63b8ff" stroke="#63b8ff" points="1108.9,-379.15 1116.93,-372.24 1106.34,-372.63 1108.9,-379.15"/>
</a>
</g>
</g>
</g>
</svg>

<g id="navigator" transform="translate(0 0)" fill="#404254">
  <rect fill="#f2f5e9" fill-opacity="0.5" stroke="#606060" stroke-width=".5" x="0" y="0" width="60" height="60"/>
  <use id="zoomplus" xlink:href="#zoomPlus" x="17" y="9" onmousedown="handleZoom(evt,'in')"/>
  <use id="zoomminus" xlink:href="#zoomMin" x="42" y="9" onmousedown="handleZoom(evt,'out')"/>
  <use id="reset" xlink:href="#resetDef" x="30" y="36" onmousedown="handleReset()"/>
   <use id="arrowup" xlink:href="#arrowUp" x="0" y="0" onmousedown="handlePan(0,-1)"/>
  <use id="arrowright" xlink:href="#arrowRight" x="0" y="0" onmousedown="handlePan(1,0)"/>
  <use id="arrowdown" xlink:href="#arrowDown" x="0" y="0" onmousedown="handlePan(0,1)"/>
  <use id="arrowleft" xlink:href="#arrowLeft" x="0" y="0" onmousedown="handlePan(-1,0)"/>
</g>
<svg viewBox="0 0 15 15" width="100%" height="30px" preserveAspectRatio="xMaxYMin meet">
 <g id="arrow_out" transform="scale(0.3 0.3)">
  <a xlink:href="namespacesteppable_1_1output_ae1531fd77559dfbcce19e00042392da0_icgraph_org.svg" target="_base">
   <rect id="button" ry="5" rx="5" y="6" x="6" height="38" width="38"
        fill="#f2f5e9" fill-opacity="0.5" stroke="#606060" stroke-width="1.0"/>
   <path id="arrow"
     d="M 11.500037,31.436501 C 11.940474,20.09759 22.043105,11.32322 32.158766,21.979434 L 37.068811,17.246167 C 37.068811,17.246167 37.088388,32 37.088388,32 L 22.160133,31.978069 C 22.160133,31.978069 26.997745,27.140456 26.997745,27.140456 C 18.528582,18.264221 13.291696,25.230495 11.500037,31.436501 z"
     style="fill:#404040;"/>
  </a>
 </g>
</svg>

<style type='text/css'>
<![CDATA[
[data-mouse-over-selected='false'] { opacity: 0.7; }
[data-mouse-over-selected='true']  { opacity: 1.0; }
]]>
</style>
<script type="application/ecmascript"><![CDATA[
document.addEventListener('DOMContentLoaded', (event) => {
  highlightEdges();
  highlightAdjacentNodes();
});
]]></script>
</svg>
