<?xml version="1.0" encoding="UTF-8" standalone="no"?>
<!DOCTYPE svg PUBLIC "-//W3C//DTD SVG 1.1//EN"
 "http://www.w3.org/Graphics/SVG/1.1/DTD/svg11.dtd">
<!-- Generated by graphviz version 12.2.1 (20241206.2353)
 -->
<!-- Title: ImGui::DockContextPruneUnusedSettingsNodes Pages: 1 -->
<svg width="746pt" height="267pt"
 viewBox="0.00 0.00 745.50 266.63" xmlns="http://www.w3.org/2000/svg" xmlns:xlink="http://www.w3.org/1999/xlink">
<g id="graph0" class="graph" transform="scale(1 1) rotate(0) translate(4 262.63)">
<title>ImGui::DockContextPruneUnusedSettingsNodes</title>
<!-- Node1 -->
<g id="Node000001" class="node">
<title>Node1</title>
<g id="a_Node000001"><a xlink:title=" ">
<polygon fill="#999999" stroke="#666666" points="178.75,-143.12 0,-143.12 0,-109.62 178.75,-109.62 178.75,-143.12"/>
<text text-anchor="start" x="8" y="-129.62" font-family="Helvetica,sans-Serif" font-size="10.00">ImGui::DockContextPruneUnused</text>
<text text-anchor="middle" x="89.38" y="-116.88" font-family="Helvetica,sans-Serif" font-size="10.00">SettingsNodes</text>
</a>
</g>
</g>
<!-- Node2 -->
<g id="Node000002" class="node">
<title>Node2</title>
<g id="a_Node000002"><a xlink:href="structImChunkStream.html#a10a9b29c856b3f84ce8811ebfaf2cfe8" target="_top" xlink:title=" ">
<polygon fill="white" stroke="#666666" points="724,-203.75 596.25,-203.75 596.25,-183 724,-183 724,-203.75"/>
<text text-anchor="middle" x="660.12" y="-190.25" font-family="Helvetica,sans-Serif" font-size="10.00">ImChunkStream::begin</text>
</a>
</g>
</g>
<!-- Node1&#45;&gt;Node2 -->
<g id="edge1_Node000001_Node000002" class="edge">
<title>Node1&#45;&gt;Node2</title>
<g id="a_edge1_Node000001_Node000002"><a xlink:title=" ">
<path fill="none" stroke="#63b8ff" d="M102.95,-143.4C123.15,-169.13 165.57,-216.88 214.75,-235.38 357.1,-288.93 542.38,-235.68 621.09,-207.91"/>
<polygon fill="#63b8ff" stroke="#63b8ff" points="621.82,-211.37 630.05,-204.69 619.45,-204.78 621.82,-211.37"/>
</a>
</g>
</g>
<!-- Node3 -->
<g id="Node000003" class="node">
<title>Node3</title>
<g id="a_Node000003"><a xlink:href="namespaceImGui.html#a7644c22d2e315b2b1753fc79a8c187ab" target="_top" xlink:title=" ">
<polygon fill="white" stroke="#666666" points="379.62,-226.12 223.38,-226.12 223.38,-192.62 379.62,-192.62 379.62,-226.12"/>
<text text-anchor="start" x="231.38" y="-212.62" font-family="Helvetica,sans-Serif" font-size="10.00">ImGui::DockSettingsRemove</text>
<text text-anchor="middle" x="301.5" y="-199.88" font-family="Helvetica,sans-Serif" font-size="10.00">NodeReferences</text>
</a>
</g>
</g>
<!-- Node1&#45;&gt;Node3 -->
<g id="edge2_Node000001_Node000003" class="edge">
<title>Node1&#45;&gt;Node3</title>
<g id="a_edge2_Node000001_Node000003"><a xlink:title=" ">
<path fill="none" stroke="#63b8ff" d="M124.69,-143.62C149.37,-155.65 183.65,-171.6 214.75,-183.38 219.46,-185.16 224.35,-186.91 229.3,-188.6"/>
<polygon fill="#63b8ff" stroke="#63b8ff" points="228.15,-191.91 238.75,-191.74 230.36,-185.26 228.15,-191.91"/>
</a>
</g>
</g>
<!-- Node4 -->
<g id="Node000004" class="node">
<title>Node4</title>
<g id="a_Node000004"><a xlink:href="structImChunkStream.html#a3a99f21ce1867d694104d740ac7ab133" target="_top" xlink:title=" ">
<polygon fill="white" stroke="#666666" points="546.75,-146.12 424.25,-146.12 424.25,-112.62 546.75,-112.62 546.75,-146.12"/>
<text text-anchor="start" x="432.25" y="-132.62" font-family="Helvetica,sans-Serif" font-size="10.00">ImChunkStream::next</text>
<text text-anchor="middle" x="485.5" y="-119.88" font-family="Helvetica,sans-Serif" font-size="10.00">_chunk</text>
</a>
</g>
</g>
<!-- Node1&#45;&gt;Node4 -->
<g id="edge14_Node000001_Node000004" class="edge">
<title>Node1&#45;&gt;Node4</title>
<g id="a_edge14_Node000001_Node000004"><a xlink:title=" ">
<path fill="none" stroke="#63b8ff" d="M178.82,-127.05C249.26,-127.58 346.63,-128.33 412.39,-128.83"/>
<polygon fill="#63b8ff" stroke="#63b8ff" points="412.34,-132.33 422.37,-128.9 412.39,-125.33 412.34,-132.33"/>
</a>
</g>
</g>
<!-- Node7 -->
<g id="Node000007" class="node">
<title>Node7</title>
<g id="a_Node000007"><a xlink:href="namespaceImGui.html#a186a7c51e5dc70e54843c9e9415707e2" target="_top" xlink:title=" ">
<polygon fill="white" stroke="#666666" points="388.25,-174.75 214.75,-174.75 214.75,-154 388.25,-154 388.25,-174.75"/>
<text text-anchor="middle" x="301.5" y="-161.25" font-family="Helvetica,sans-Serif" font-size="10.00">ImGui::FindWindowSettingsByID</text>
</a>
</g>
</g>
<!-- Node1&#45;&gt;Node7 -->
<g id="edge8_Node000001_Node000007" class="edge">
<title>Node1&#45;&gt;Node7</title>
<g id="a_edge8_Node000001_Node000007"><a xlink:title=" ">
<path fill="none" stroke="#63b8ff" d="M179.18,-142.44C196.02,-145.48 213.43,-148.63 229.62,-151.56"/>
<polygon fill="#63b8ff" stroke="#63b8ff" points="228.66,-154.94 239.12,-153.27 229.9,-148.05 228.66,-154.94"/>
</a>
</g>
</g>
<!-- Node8 -->
<g id="Node000008" class="node">
<title>Node8</title>
<g id="a_Node000008"><a xlink:href="structImPool.html#ae53033af46a5df28084f1d946c9face3" target="_top" xlink:title=" ">
<polygon fill="white" stroke="#666666" points="353.38,-98.75 249.62,-98.75 249.62,-78 353.38,-78 353.38,-98.75"/>
<text text-anchor="middle" x="301.5" y="-85.25" font-family="Helvetica,sans-Serif" font-size="10.00">ImPool::GetByKey</text>
</a>
</g>
</g>
<!-- Node1&#45;&gt;Node8 -->
<g id="edge11_Node000001_Node000008" class="edge">
<title>Node1&#45;&gt;Node8</title>
<g id="a_edge11_Node000001_Node000008"><a xlink:title=" ">
<path fill="none" stroke="#63b8ff" d="M179.18,-110.31C199.03,-106.72 219.68,-102.99 238.18,-99.64"/>
<polygon fill="#63b8ff" stroke="#63b8ff" points="238.7,-103.11 247.92,-97.88 237.45,-96.22 238.7,-103.11"/>
</a>
</g>
</g>
<!-- Node9 -->
<g id="Node000009" class="node">
<title>Node9</title>
<g id="a_Node000009"><a xlink:href="structImPool.html#a47973a2eac8e4c06ef369ac02d23f4e5" target="_top" xlink:title=" ">
<polygon fill="white" stroke="#666666" points="368.38,-59.75 234.62,-59.75 234.62,-39 368.38,-39 368.38,-59.75"/>
<text text-anchor="middle" x="301.5" y="-46.25" font-family="Helvetica,sans-Serif" font-size="10.00">ImPool::GetOrAddByKey</text>
</a>
</g>
</g>
<!-- Node1&#45;&gt;Node9 -->
<g id="edge12_Node000001_Node000009" class="edge">
<title>Node1&#45;&gt;Node9</title>
<g id="a_edge12_Node000001_Node000009"><a xlink:title=" ">
<path fill="none" stroke="#63b8ff" d="M123.15,-109.15C147.81,-96.75 182.72,-80.32 214.75,-69.38 221.39,-67.1 228.42,-65 235.46,-63.09"/>
<polygon fill="#63b8ff" stroke="#63b8ff" points="236.24,-66.5 245.05,-60.6 234.49,-59.72 236.24,-66.5"/>
</a>
</g>
</g>
<!-- Node11 -->
<g id="Node000011" class="node">
<title>Node11</title>
<g id="a_Node000011"><a xlink:href="structImPool.html#a62a34bcb3efcaaa3f4402c0c3cc1d600" target="_top" xlink:title=" ">
<polygon fill="white" stroke="#666666" points="349.25,-20.75 253.75,-20.75 253.75,0 349.25,0 349.25,-20.75"/>
<text text-anchor="middle" x="301.5" y="-7.25" font-family="Helvetica,sans-Serif" font-size="10.00">ImPool::Reserve</text>
</a>
</g>
</g>
<!-- Node1&#45;&gt;Node11 -->
<g id="edge15_Node000001_Node000011" class="edge">
<title>Node1&#45;&gt;Node11</title>
<g id="a_edge15_Node000001_Node000011"><a xlink:title=" ">
<path fill="none" stroke="#63b8ff" d="M107.29,-109.4C129.82,-87.76 171.87,-50.73 214.75,-30.38 223.39,-26.28 232.92,-22.99 242.4,-20.35"/>
<polygon fill="#63b8ff" stroke="#63b8ff" points="243.13,-23.78 251.97,-17.93 241.42,-16.99 243.13,-23.78"/>
</a>
</g>
</g>
<!-- Node3&#45;&gt;Node2 -->
<g id="edge3_Node000003_Node000002" class="edge">
<title>Node3&#45;&gt;Node2</title>
<g id="a_edge3_Node000003_Node000002"><a xlink:title=" ">
<path fill="none" stroke="#63b8ff" d="M379.88,-205.9C440.6,-203.18 524.6,-199.41 584.58,-196.72"/>
<polygon fill="#63b8ff" stroke="#63b8ff" points="584.52,-200.23 594.35,-196.28 584.2,-193.23 584.52,-200.23"/>
</a>
</g>
</g>
<!-- Node3&#45;&gt;Node4 -->
<g id="edge4_Node000003_Node000004" class="edge">
<title>Node3&#45;&gt;Node4</title>
<g id="a_edge4_Node000003_Node000004"><a xlink:title=" ">
<path fill="none" stroke="#63b8ff" d="M364.9,-192.2C372.85,-189.5 380.81,-186.55 388.25,-183.38 408.58,-174.71 430.14,-162.89 447.68,-152.52"/>
<polygon fill="#63b8ff" stroke="#63b8ff" points="449.44,-155.54 456.21,-147.39 445.84,-149.54 449.44,-155.54"/>
</a>
</g>
</g>
<!-- Node4&#45;&gt;Node2 -->
<g id="edge5_Node000004_Node000002" class="edge">
<title>Node4&#45;&gt;Node2</title>
<g id="a_edge5_Node000004_Node000002"><a xlink:title=" ">
<path fill="none" stroke="#63b8ff" d="M532.76,-146.53C559.76,-156.54 593.49,-169.04 619.3,-178.61"/>
<polygon fill="#63b8ff" stroke="#63b8ff" points="617.82,-181.8 628.42,-181.99 620.26,-175.23 617.82,-181.8"/>
</a>
</g>
</g>
<!-- Node5 -->
<g id="Node000005" class="node">
<title>Node5</title>
<g id="a_Node000005"><a xlink:href="structImChunkStream.html#a1a83609aaee47cf8b59a8ae09a04a06b" target="_top" xlink:title=" ">
<polygon fill="white" stroke="#666666" points="737.5,-112.75 582.75,-112.75 582.75,-92 737.5,-92 737.5,-112.75"/>
<text text-anchor="middle" x="660.12" y="-99.25" font-family="Helvetica,sans-Serif" font-size="10.00">ImChunkStream::chunk_size</text>
</a>
</g>
</g>
<!-- Node4&#45;&gt;Node5 -->
<g id="edge6_Node000004_Node000005" class="edge">
<title>Node4&#45;&gt;Node5</title>
<g id="a_edge6_Node000004_Node000005"><a xlink:title=" ">
<path fill="none" stroke="#63b8ff" d="M546.88,-119.93C557.12,-118.33 567.91,-116.64 578.57,-114.97"/>
<polygon fill="#63b8ff" stroke="#63b8ff" points="578.78,-118.48 588.12,-113.48 577.7,-111.57 578.78,-118.48"/>
</a>
</g>
</g>
<!-- Node6 -->
<g id="Node000006" class="node">
<title>Node6</title>
<g id="a_Node000006"><a xlink:href="structImChunkStream.html#a5c7faa90ac7fa02140a3298dbfdd5cad" target="_top" xlink:title=" ">
<polygon fill="white" stroke="#666666" points="719.5,-151.75 600.75,-151.75 600.75,-131 719.5,-131 719.5,-151.75"/>
<text text-anchor="middle" x="660.12" y="-138.25" font-family="Helvetica,sans-Serif" font-size="10.00">ImChunkStream::end</text>
</a>
</g>
</g>
<!-- Node4&#45;&gt;Node6 -->
<g id="edge7_Node000004_Node000006" class="edge">
<title>Node4&#45;&gt;Node6</title>
<g id="a_edge7_Node000004_Node000006"><a xlink:title=" ">
<path fill="none" stroke="#63b8ff" d="M546.88,-133.57C560.61,-134.53 575.31,-135.55 589.39,-136.53"/>
<polygon fill="#63b8ff" stroke="#63b8ff" points="588.8,-139.99 599.02,-137.2 589.28,-133.01 588.8,-139.99"/>
</a>
</g>
</g>
<!-- Node7&#45;&gt;Node2 -->
<g id="edge9_Node000007_Node000002" class="edge">
<title>Node7&#45;&gt;Node2</title>
<g id="a_edge9_Node000007_Node000002"><a xlink:title=" ">
<path fill="none" stroke="#63b8ff" d="M388.37,-171.36C448.27,-176.23 527.41,-182.66 584.64,-187.32"/>
<polygon fill="#63b8ff" stroke="#63b8ff" points="584.02,-190.78 594.27,-188.1 584.59,-183.8 584.02,-190.78"/>
</a>
</g>
</g>
<!-- Node7&#45;&gt;Node4 -->
<g id="edge10_Node000007_Node000004" class="edge">
<title>Node7&#45;&gt;Node4</title>
<g id="a_edge10_Node000007_Node000004"><a xlink:title=" ">
<path fill="none" stroke="#63b8ff" d="M358.59,-153.59C375.72,-150.29 394.79,-146.63 412.8,-143.16"/>
<polygon fill="#63b8ff" stroke="#63b8ff" points="413.21,-146.65 422.36,-141.32 411.88,-139.78 413.21,-146.65"/>
</a>
</g>
</g>
<!-- Node10 -->
<g id="Node000010" class="node">
<title>Node10</title>
<g id="a_Node000010"><a xlink:href="structImPool.html#a39f9b742304d164c4298031537c1b09c" target="_top" xlink:title=" ">
<polygon fill="white" stroke="#666666" points="522.75,-59.75 448.25,-59.75 448.25,-39 522.75,-39 522.75,-59.75"/>
<text text-anchor="middle" x="485.5" y="-46.25" font-family="Helvetica,sans-Serif" font-size="10.00">ImPool::Add</text>
</a>
</g>
</g>
<!-- Node9&#45;&gt;Node10 -->
<g id="edge13_Node000009_Node000010" class="edge">
<title>Node9&#45;&gt;Node10</title>
<g id="a_edge13_Node000009_Node000010"><a xlink:title=" ">
<path fill="none" stroke="#63b8ff" d="M368.72,-49.38C391.17,-49.38 415.8,-49.38 436.55,-49.38"/>
<polygon fill="#63b8ff" stroke="#63b8ff" points="436.44,-52.88 446.44,-49.38 436.44,-45.88 436.44,-52.88"/>
</a>
</g>
</g>
</g>
</svg>
