<?xml version="1.0" encoding="UTF-8" standalone="no"?>
<!DOCTYPE svg PUBLIC "-//W3C//DTD SVG 1.1//EN"
 "http://www.w3.org/Graphics/SVG/1.1/DTD/svg11.dtd">
<!-- Generated by graphviz version 12.2.0 (20241103.1931)
 -->
<!-- Title: ImGui::EndTabBar Pages: 1 -->
<svg width="933pt" height="158pt"
 viewBox="0.00 0.00 933.25 157.75" xmlns="http://www.w3.org/2000/svg" xmlns:xlink="http://www.w3.org/1999/xlink">
<g id="graph0" class="graph" transform="scale(1 1) rotate(0) translate(4 153.75)">
<title>ImGui::EndTabBar</title>
<!-- Node1 -->
<g id="Node000001" class="node">
<title>Node1</title>
<g id="a_Node000001"><a xlink:title=" ">
<polygon fill="#999999" stroke="#666666" points="925.25,-87.75 823,-87.75 823,-67 925.25,-67 925.25,-87.75"/>
<text text-anchor="middle" x="874.12" y="-74.25" font-family="Helvetica,sans-Serif" font-size="10.00">ImGui::EndTabBar</text>
</a>
</g>
</g>
<!-- Node2 -->
<g id="Node000002" class="node">
<title>Node2</title>
<g id="a_Node000002"><a xlink:href="namespaceImGui.html#a966210ccd2b1d239003f3b5cda67362b" target="_top" xlink:title=" ">
<polygon fill="white" stroke="#666666" points="787,-149.75 600,-149.75 600,-129 787,-129 787,-149.75"/>
<text text-anchor="middle" x="693.5" y="-136.25" font-family="Helvetica,sans-Serif" font-size="10.00">ImGui::DockNodeEndAmendTabBar</text>
</a>
</g>
</g>
<!-- Node1&#45;&gt;Node2 -->
<g id="edge1_Node000001_Node000002" class="edge">
<title>Node1&#45;&gt;Node2</title>
<g id="a_edge1_Node000001_Node000002"><a xlink:title=" ">
<path fill="none" stroke="#63b8ff" d="M844.5,-93.49C828.09,-102.18 806.86,-112.5 787,-119.38 776.75,-122.92 765.64,-125.97 754.79,-128.54"/>
<polygon fill="#63b8ff" stroke="#63b8ff" points="846.07,-96.63 853.2,-88.79 842.74,-90.47 846.07,-96.63"/>
</a>
</g>
</g>
<!-- Node3 -->
<g id="Node000003" class="node">
<title>Node3</title>
<g id="a_Node000003"><a xlink:href="namespaceImGui.html#a4b4e1fb0487e571a4a04fb5b2274189e" target="_top" xlink:title=" ">
<polygon fill="white" stroke="#666666" points="778.38,-110.75 608.62,-110.75 608.62,-90 778.38,-90 778.38,-110.75"/>
<text text-anchor="middle" x="693.5" y="-97.25" font-family="Helvetica,sans-Serif" font-size="10.00">ImGui::DockNodeUpdateTabBar</text>
</a>
</g>
</g>
<!-- Node1&#45;&gt;Node3 -->
<g id="edge2_Node000001_Node000003" class="edge">
<title>Node1&#45;&gt;Node3</title>
<g id="a_edge2_Node000001_Node000003"><a xlink:title=" ">
<path fill="none" stroke="#63b8ff" d="M811.66,-85.29C801.08,-86.65 789.91,-88.09 778.84,-89.51"/>
<polygon fill="#63b8ff" stroke="#63b8ff" points="811.92,-88.78 821.39,-84.04 811.03,-81.84 811.92,-88.78"/>
</a>
</g>
</g>
<!-- Node10 -->
<g id="Node000010" class="node">
<title>Node10</title>
<g id="a_Node000010"><a xlink:href="namespaceImGui.html#a945392cbf05b9434df8ec3630b10e01a" target="_top" xlink:title=" ">
<polygon fill="white" stroke="#666666" points="774.25,-72.12 612.75,-72.12 612.75,-38.62 774.25,-38.62 774.25,-72.12"/>
<text text-anchor="start" x="620.75" y="-58.62" font-family="Helvetica,sans-Serif" font-size="10.00">ImGui::ErrorCheckEndWindow</text>
<text text-anchor="middle" x="693.5" y="-45.88" font-family="Helvetica,sans-Serif" font-size="10.00">Recover</text>
</a>
</g>
</g>
<!-- Node1&#45;&gt;Node10 -->
<g id="edge10_Node000001_Node000010" class="edge">
<title>Node1&#45;&gt;Node10</title>
<g id="a_edge10_Node000001_Node000010"><a xlink:title=" ">
<path fill="none" stroke="#63b8ff" d="M811.65,-69.8C799.66,-68.33 786.92,-66.76 774.43,-65.22"/>
<polygon fill="#63b8ff" stroke="#63b8ff" points="811.04,-73.25 821.39,-71 811.89,-66.31 811.04,-73.25"/>
</a>
</g>
</g>
<!-- Node12 -->
<g id="Node000012" class="node">
<title>Node12</title>
<g id="a_Node000012"><a xlink:href="namespaceImGui.html#ab2eb3dec78d054fe3feab1c091ec5de5" target="_top" xlink:title=" ">
<polygon fill="white" stroke="#666666" points="758.88,-20.75 628.12,-20.75 628.12,0 758.88,0 758.88,-20.75"/>
<text text-anchor="middle" x="693.5" y="-7.25" font-family="Helvetica,sans-Serif" font-size="10.00">ImGui::ShowStyleEditor</text>
</a>
</g>
</g>
<!-- Node1&#45;&gt;Node12 -->
<g id="edge12_Node000001_Node000012" class="edge">
<title>Node1&#45;&gt;Node12</title>
<g id="a_edge12_Node000001_Node000012"><a xlink:title=" ">
<path fill="none" stroke="#63b8ff" d="M847.8,-60.54C831.15,-50.17 808.53,-37.37 787,-29.38 778.09,-26.07 768.46,-23.28 758.91,-20.95"/>
<polygon fill="#63b8ff" stroke="#63b8ff" points="845.74,-63.38 856.06,-65.8 849.51,-57.48 845.74,-63.38"/>
</a>
</g>
</g>
<!-- Node4 -->
<g id="Node000004" class="node">
<title>Node4</title>
<g id="a_Node000004"><a xlink:href="namespaceImGui.html#a526230d8de99b07ff2b2992c192ce212" target="_top" xlink:title=" ">
<polygon fill="white" stroke="#666666" points="555.75,-110.75 419,-110.75 419,-90 555.75,-90 555.75,-110.75"/>
<text text-anchor="middle" x="487.38" y="-97.25" font-family="Helvetica,sans-Serif" font-size="10.00">ImGui::DockNodeUpdate</text>
</a>
</g>
</g>
<!-- Node3&#45;&gt;Node4 -->
<g id="edge3_Node000003_Node000004" class="edge">
<title>Node3&#45;&gt;Node4</title>
<g id="a_edge3_Node000003_Node000004"><a xlink:title=" ">
<path fill="none" stroke="#63b8ff" d="M596.83,-100.38C583.11,-100.38 569.23,-100.38 556.2,-100.38"/>
<polygon fill="#63b8ff" stroke="#63b8ff" points="596.78,-103.88 606.78,-100.38 596.78,-96.88 596.78,-103.88"/>
</a>
</g>
</g>
<!-- Node4&#45;&gt;Node4 -->
<g id="edge6_Node000004_Node000004" class="edge">
<title>Node4&#45;&gt;Node4</title>
<g id="a_edge6_Node000004_Node000004"><a xlink:title=" ">
<path fill="none" stroke="#63b8ff" d="M521.86,-122.24C517.29,-126.08 505.8,-128.75 487.38,-128.75 453.69,-128.75 443.16,-119.81 455.79,-111.15"/>
<polygon fill="#63b8ff" stroke="#63b8ff" points="525.26,-121.4 519.34,-112.61 518.49,-123.17 525.26,-121.4"/>
</a>
</g>
</g>
<!-- Node5 -->
<g id="Node000005" class="node">
<title>Node5</title>
<g id="a_Node000005"><a xlink:href="namespaceImGui.html#a3fd836d2bd3163537d1c36607e93ed6d" target="_top" xlink:title=" ">
<polygon fill="white" stroke="#666666" points="374.75,-139.12 208,-139.12 208,-105.62 374.75,-105.62 374.75,-139.12"/>
<text text-anchor="start" x="216" y="-125.62" font-family="Helvetica,sans-Serif" font-size="10.00">ImGui::DockContextNewFrame</text>
<text text-anchor="middle" x="291.38" y="-112.88" font-family="Helvetica,sans-Serif" font-size="10.00">UpdateDocking</text>
</a>
</g>
</g>
<!-- Node4&#45;&gt;Node5 -->
<g id="edge4_Node000004_Node000005" class="edge">
<title>Node4&#45;&gt;Node5</title>
<g id="a_edge4_Node000004_Node000005"><a xlink:title=" ">
<path fill="none" stroke="#63b8ff" d="M407.21,-109.35C396.66,-110.55 385.82,-111.78 375.21,-112.98"/>
<polygon fill="#63b8ff" stroke="#63b8ff" points="407.48,-112.84 417.02,-108.24 406.69,-105.89 407.48,-112.84"/>
</a>
</g>
</g>
<!-- Node7 -->
<g id="Node000007" class="node">
<title>Node7</title>
<g id="a_Node000007"><a xlink:href="namespaceImGui.html#a3d9d26cbb99a95938979a3ca3e211f92" target="_top" xlink:title=" ">
<polygon fill="white" stroke="#666666" points="344,-87.75 238.75,-87.75 238.75,-67 344,-67 344,-87.75"/>
<text text-anchor="middle" x="291.38" y="-74.25" font-family="Helvetica,sans-Serif" font-size="10.00">ImGui::DockSpace</text>
</a>
</g>
</g>
<!-- Node4&#45;&gt;Node7 -->
<g id="edge7_Node000004_Node000007" class="edge">
<title>Node4&#45;&gt;Node7</title>
<g id="a_edge7_Node000004_Node000007"><a xlink:title=" ">
<path fill="none" stroke="#63b8ff" d="M407.22,-90.99C386.01,-88.48 363.61,-85.82 344.29,-83.53"/>
<polygon fill="#63b8ff" stroke="#63b8ff" points="406.68,-94.45 417.02,-92.15 407.5,-87.5 406.68,-94.45"/>
</a>
</g>
</g>
<!-- Node6 -->
<g id="Node000006" class="node">
<title>Node6</title>
<g id="a_Node000006"><a xlink:href="namespaceImGui.html#ab3f1fc018f903b7ad79fd10663375774" target="_top" xlink:title=" ">
<polygon fill="white" stroke="#666666" points="137.88,-132.75 34.12,-132.75 34.12,-112 137.88,-112 137.88,-132.75"/>
<text text-anchor="middle" x="86" y="-119.25" font-family="Helvetica,sans-Serif" font-size="10.00">ImGui::NewFrame</text>
</a>
</g>
</g>
<!-- Node5&#45;&gt;Node6 -->
<g id="edge5_Node000005_Node000006" class="edge">
<title>Node5&#45;&gt;Node6</title>
<g id="a_edge5_Node000005_Node000006"><a xlink:title=" ">
<path fill="none" stroke="#63b8ff" d="M196.26,-122.38C176.23,-122.38 155.81,-122.38 138.12,-122.38"/>
<polygon fill="#63b8ff" stroke="#63b8ff" points="196.14,-125.88 206.14,-122.38 196.14,-118.88 196.14,-125.88"/>
</a>
</g>
</g>
<!-- Node8 -->
<g id="Node000008" class="node">
<title>Node8</title>
<g id="a_Node000008"><a xlink:href="namespaceImGui.html#a941b7d9d1f491f778796221031b5e439" target="_top" xlink:title=" ">
<polygon fill="white" stroke="#666666" points="163.38,-90.75 8.62,-90.75 8.62,-70 163.38,-70 163.38,-90.75"/>
<text text-anchor="middle" x="86" y="-77.25" font-family="Helvetica,sans-Serif" font-size="10.00">ImGui::DockBuilderAddNode</text>
</a>
</g>
</g>
<!-- Node7&#45;&gt;Node8 -->
<g id="edge8_Node000007_Node000008" class="edge">
<title>Node7&#45;&gt;Node8</title>
<g id="a_edge8_Node000007_Node000008"><a xlink:title=" ">
<path fill="none" stroke="#63b8ff" d="M226.76,-78.31C206.72,-78.61 184.38,-78.94 163.54,-79.25"/>
<polygon fill="#63b8ff" stroke="#63b8ff" points="226.8,-81.81 236.75,-78.17 226.7,-74.81 226.8,-81.81"/>
</a>
</g>
</g>
<!-- Node9 -->
<g id="Node000009" class="node">
<title>Node9</title>
<g id="a_Node000009"><a xlink:href="namespaceImGui.html#a29b58b0887b599185dfe677eb3ef6cdc" target="_top" xlink:title=" ">
<polygon fill="white" stroke="#666666" points="172,-51.75 0,-51.75 0,-31 172,-31 172,-51.75"/>
<text text-anchor="middle" x="86" y="-38.25" font-family="Helvetica,sans-Serif" font-size="10.00">ImGui::DockSpaceOverViewport</text>
</a>
</g>
</g>
<!-- Node7&#45;&gt;Node9 -->
<g id="edge9_Node000007_Node000009" class="edge">
<title>Node7&#45;&gt;Node9</title>
<g id="a_edge9_Node000007_Node000009"><a xlink:title=" ">
<path fill="none" stroke="#63b8ff" d="M227.03,-66.16C201.96,-61.72 173.24,-56.64 148.37,-52.24"/>
<polygon fill="#63b8ff" stroke="#63b8ff" points="226.32,-69.59 236.77,-67.89 227.54,-62.7 226.32,-69.59"/>
</a>
</g>
</g>
<!-- Node11 -->
<g id="Node000011" class="node">
<title>Node11</title>
<g id="a_Node000011"><a xlink:href="namespaceImGui.html#aaeda60ee2c0b5c2b3f397b237c9928f3" target="_top" xlink:title=" ">
<polygon fill="white" stroke="#666666" points="564,-72.12 410.75,-72.12 410.75,-38.62 564,-38.62 564,-72.12"/>
<text text-anchor="start" x="418.75" y="-58.62" font-family="Helvetica,sans-Serif" font-size="10.00">ImGui::ErrorCheckEndFrame</text>
<text text-anchor="middle" x="487.38" y="-45.88" font-family="Helvetica,sans-Serif" font-size="10.00">Recover</text>
</a>
</g>
</g>
<!-- Node10&#45;&gt;Node11 -->
<g id="edge11_Node000010_Node000011" class="edge">
<title>Node10&#45;&gt;Node11</title>
<g id="a_edge11_Node000010_Node000011"><a xlink:title=" ">
<path fill="none" stroke="#63b8ff" d="M601.16,-55.38C588.82,-55.38 576.26,-55.38 564.23,-55.38"/>
<polygon fill="#63b8ff" stroke="#63b8ff" points="600.9,-58.88 610.9,-55.38 600.9,-51.88 600.9,-58.88"/>
</a>
</g>
</g>
<!-- Node13 -->
<g id="Node000013" class="node">
<title>Node13</title>
<g id="a_Node000013"><a xlink:href="namespaceImGui.html#af95643a0ce4893b9e57c12991922fb18" target="_top" xlink:title=" ">
<polygon fill="white" stroke="#666666" points="560.25,-20.75 414.5,-20.75 414.5,0 560.25,0 560.25,-20.75"/>
<text text-anchor="middle" x="487.38" y="-7.25" font-family="Helvetica,sans-Serif" font-size="10.00">ImGui::ShowDemoWindow</text>
</a>
</g>
</g>
<!-- Node12&#45;&gt;Node13 -->
<g id="edge13_Node000012_Node000013" class="edge">
<title>Node12&#45;&gt;Node13</title>
<g id="a_edge13_Node000012_Node000013"><a xlink:title=" ">
<path fill="none" stroke="#63b8ff" d="M616.16,-10.38C597.94,-10.38 578.54,-10.38 560.52,-10.38"/>
<polygon fill="#63b8ff" stroke="#63b8ff" points="616.12,-13.88 626.12,-10.38 616.12,-6.88 616.12,-13.88"/>
</a>
</g>
</g>
</g>
</svg>
