<?xml version="1.0" encoding="UTF-8" standalone="no"?>
<!DOCTYPE svg PUBLIC "-//W3C//DTD SVG 1.1//EN"
 "http://www.w3.org/Graphics/SVG/1.1/DTD/svg11.dtd">
<!-- Generated by graphviz version 13.1.0 (20250701.0955)
 -->
<!-- Title: steppable::__internals::numUtils::roundDown Pages: 1 -->
<!--zoomable 166 -->

<svg id="main" version="1.1" xmlns="http://www.w3.org/2000/svg" xmlns:xlink="http://www.w3.org/1999/xlink" xml:space="preserve" onload="init(evt)">

<style type="text/css"><![CDATA[
.node, .edge {opacity: 0.7;}
.node.selected, .edge.selected {opacity: 1;}
.edge:hover path { stroke: red; }
.edge:hover polygon { stroke: red; fill: red; }
]]></style>

<defs>
  <circle id="rim" cx="0" cy="0" r="7"/>
  <circle id="rim2" cx="0" cy="0" r="3.5"/>
  <g id="zoomPlus">
    <use xlink:href="#rim" fill="#404040"><set attributeName="fill" to="#808080" begin="zoomplus.mouseover" end="zoomplus.mouseout"/></use>
    <path d="M-4,0h8M0,-4v8" fill="none" stroke="white" stroke-width="1.5" pointer-events="none"/>
  </g>
  <g id="zoomMin">
    <use xlink:href="#rim" fill="#404040"><set attributeName="fill" to="#808080" begin="zoomminus.mouseover" end="zoomminus.mouseout"/></use>
    <path d="M-4,0h8" fill="none" stroke="white" stroke-width="1.5" pointer-events="none"/>
  </g>
  <g id="arrowUp" transform="translate(30 24)">
    <use xlink:href="#rim"/>
    <path pointer-events="none" fill="none" stroke="white" stroke-width="1.5" d="M0,-3.0v7 M-2.5,-0.5L0,-3.0L2.5,-0.5"/>
  </g>
  <g id="arrowRight" transform="rotate(90) translate(36 -43)">
    <use xlink:href="#rim"/>
    <path pointer-events="none" fill="none" stroke="white" stroke-width="1.5" d="M0,-3.0v7 M-2.5,-0.5L0,-3.0L2.5,-0.5"/>
  </g>
  <g id="arrowDown" transform="rotate(180) translate(-30 -48)">
    <use xlink:href="#rim"/>
    <path pointer-events="none" fill="none" stroke="white" stroke-width="1.5" d="M0,-3.0v7 M-2.5,-0.5L0,-3.0L2.5,-0.5"/>
  </g>
  <g id="arrowLeft" transform="rotate(270) translate(-36 17)">
    <use xlink:href="#rim"/>
    <path pointer-events="none" fill="none" stroke="white" stroke-width="1.5" d="M0,-3.0v7 M-2.5,-0.5L0,-3.0L2.5,-0.5"/>
  </g>
  <g id="resetDef">
    <use xlink:href="#rim2" fill="#404040"><set attributeName="fill" to="#808080" begin="reset.mouseover" end="reset.mouseout"/></use>
  </g>
</defs>
<script type="application/ecmascript">
var viewWidth = 680;
var viewHeight = 166;
var sectionId = 'dynsection-25';
</script>
<script type="application/ecmascript" xlink:href="svg.min.js"/>
<svg id="graph" class="graph">
<g id="viewport">
<title>steppable::__internals::numUtils::roundDown</title>
<!-- Node1 -->
<g id="Node000001" class="node">
<title>Node1</title>
<g id="a_Node000001"><a xlink:title="Round down a number to the nearest integer.">
<polygon fill="#999999" stroke="#666666" points="127.75,-111.5 0,-111.5 0,-78 127.75,-78 127.75,-111.5"/>
<text xml:space="preserve" text-anchor="start" x="8" y="-98" font-family="Helvetica,sans-Serif" font-size="10.00">steppable::__internals</text>
<text xml:space="preserve" text-anchor="middle" x="63.88" y="-85.25" font-family="Helvetica,sans-Serif" font-size="10.00">::numUtils::roundDown</text>
</a>
</g>
</g>
<!-- Node2 -->
<g id="Node000002" class="node">
<title>Node2</title>
<g id="a_Node000002"><a xlink:href="namespacesteppable_1_1____internals_1_1numUtils.html#af904a63deb5a7cc413325eb08b2118f3" target="_top" xlink:title=" ">
<polygon fill="white" stroke="#666666" points="296,-111.5 163.75,-111.5 163.75,-78 296,-78 296,-111.5"/>
<text xml:space="preserve" text-anchor="start" x="171.75" y="-98" font-family="Helvetica,sans-Serif" font-size="10.00">steppable::__internals</text>
<text xml:space="preserve" text-anchor="middle" x="229.88" y="-85.25" font-family="Helvetica,sans-Serif" font-size="10.00">::numUtils::splitNumber</text>
</a>
</g>
</g>
<!-- Node1&#45;&gt;Node2 -->
<g id="edge1_Node000001_Node000002" class="edge">
<title>Node1&#45;&gt;Node2</title>
<g id="a_edge1_Node000001_Node000002"><a xlink:title=" ">
<path fill="none" stroke="#63b8ff" d="M127.81,-94.75C135.73,-94.75 143.9,-94.75 152.01,-94.75"/>
<polygon fill="#63b8ff" stroke="#63b8ff" points="151.87,-98.25 161.87,-94.75 151.87,-91.25 151.87,-98.25"/>
</a>
</g>
</g>
<!-- Node3 -->
<g id="Node000003" class="node">
<title>Node3</title>
<g id="a_Node000003"><a xlink:href="namespacesteppable_1_1____internals_1_1numUtils.html#a6cc23d8eda7defd591a87a8b1d8b869d" target="_top" xlink:title="Checks if a given string is a zero string.">
<polygon fill="white" stroke="#666666" points="672.25,-133.5 540.75,-133.5 540.75,-100 672.25,-100 672.25,-133.5"/>
<text xml:space="preserve" text-anchor="start" x="548.75" y="-120" font-family="Helvetica,sans-Serif" font-size="10.00">steppable::__internals</text>
<text xml:space="preserve" text-anchor="middle" x="606.5" y="-107.25" font-family="Helvetica,sans-Serif" font-size="10.00">::numUtils::isZeroString</text>
</a>
</g>
</g>
<!-- Node2&#45;&gt;Node3 -->
<g id="edge2_Node000002_Node000003" class="edge">
<title>Node2&#45;&gt;Node3</title>
<g id="a_edge2_Node000002_Node000003"><a xlink:title=" ">
<path fill="none" stroke="#63b8ff" d="M255.73,-111.8C275.43,-124.23 304.18,-140.02 332,-146.75 406.62,-164.81 428.77,-157.82 504.75,-146.75 518.72,-144.71 533.44,-141.17 547.18,-137.22"/>
<polygon fill="#63b8ff" stroke="#63b8ff" points="547.94,-140.64 556.51,-134.42 545.93,-133.94 547.94,-140.64"/>
</a>
</g>
</g>
<!-- Node4 -->
<g id="Node000004" class="node">
<title>Node4</title>
<g id="a_Node000004"><a xlink:href="namespacesteppable_1_1____internals_1_1numUtils.html#a5d7e8d74d304a1ac7fc2ad4dbf5b40ae" target="_top" xlink:title=" ">
<polygon fill="white" stroke="#666666" points="504.75,-137.5 332,-137.5 332,-104 504.75,-104 504.75,-137.5"/>
<text xml:space="preserve" text-anchor="start" x="340" y="-124" font-family="Helvetica,sans-Serif" font-size="10.00">steppable::__internals</text>
<text xml:space="preserve" text-anchor="middle" x="418.38" y="-111.25" font-family="Helvetica,sans-Serif" font-size="10.00">::numUtils::removeTrailingZeros</text>
</a>
</g>
</g>
<!-- Node2&#45;&gt;Node4 -->
<g id="edge3_Node000002_Node000004" class="edge">
<title>Node2&#45;&gt;Node4</title>
<g id="a_edge3_Node000002_Node000004"><a xlink:title=" ">
<path fill="none" stroke="#63b8ff" d="M296.37,-103.88C304.23,-104.98 312.39,-106.11 320.58,-107.26"/>
<polygon fill="#63b8ff" stroke="#63b8ff" points="319.86,-110.69 330.25,-108.6 320.83,-103.76 319.86,-110.69"/>
</a>
</g>
</g>
<!-- Node5 -->
<g id="Node000005" class="node">
<title>Node5</title>
<g id="a_Node000005"><a xlink:href="namespacesteppable_1_1____internals_1_1numUtils.html#a503084b920a7cfd569d321e04dcb4ae5" target="_top" xlink:title="Simplifies a string that represents a number with non&#45;standard polarity.">
<polygon fill="white" stroke="#666666" points="504,-85.5 332.75,-85.5 332.75,-52 504,-52 504,-85.5"/>
<text xml:space="preserve" text-anchor="start" x="340.75" y="-72" font-family="Helvetica,sans-Serif" font-size="10.00">steppable::__internals</text>
<text xml:space="preserve" text-anchor="middle" x="418.38" y="-59.25" font-family="Helvetica,sans-Serif" font-size="10.00">::numUtils::simplifyZeroPolarity</text>
</a>
</g>
</g>
<!-- Node2&#45;&gt;Node5 -->
<g id="edge4_Node000002_Node000005" class="edge">
<title>Node2&#45;&gt;Node5</title>
<g id="a_edge4_Node000002_Node000005"><a xlink:title=" ">
<path fill="none" stroke="#63b8ff" d="M296.37,-85.62C304.38,-84.5 312.69,-83.34 321.03,-82.18"/>
<polygon fill="#63b8ff" stroke="#63b8ff" points="321.48,-85.65 330.9,-80.81 320.51,-78.72 321.48,-85.65"/>
</a>
</g>
</g>
<!-- Node6 -->
<g id="Node000006" class="node">
<title>Node6</title>
<g id="a_Node000006"><a xlink:href="namespacesteppable_1_1____internals_1_1stringUtils.html#a2600efb348f0dd19cc0068946d06b1b7" target="_top" xlink:title="Splits a string into substrings based on a separator.">
<polygon fill="white" stroke="#666666" points="480,-33.5 356.75,-33.5 356.75,0 480,0 480,-33.5"/>
<text xml:space="preserve" text-anchor="start" x="364.75" y="-20" font-family="Helvetica,sans-Serif" font-size="10.00">steppable::__internals</text>
<text xml:space="preserve" text-anchor="middle" x="418.38" y="-7.25" font-family="Helvetica,sans-Serif" font-size="10.00">::stringUtils::split</text>
</a>
</g>
</g>
<!-- Node2&#45;&gt;Node6 -->
<g id="edge6_Node000002_Node000006" class="edge">
<title>Node2&#45;&gt;Node6</title>
<g id="a_edge6_Node000002_Node000006"><a xlink:title=" ">
<path fill="none" stroke="#63b8ff" d="M260.74,-77.59C280.53,-66.68 307.3,-52.77 332,-42.75 336.36,-40.98 340.89,-39.27 345.48,-37.62"/>
<polygon fill="#63b8ff" stroke="#63b8ff" points="346.53,-40.96 354.85,-34.39 344.25,-34.34 346.53,-40.96"/>
</a>
</g>
</g>
<!-- Node5&#45;&gt;Node3 -->
<g id="edge5_Node000005_Node000003" class="edge">
<title>Node5&#45;&gt;Node3</title>
<g id="a_edge5_Node000005_Node000003"><a xlink:title=" ">
<path fill="none" stroke="#63b8ff" d="M486.04,-85.94C500.18,-89.59 515.19,-93.46 529.63,-97.18"/>
<polygon fill="#63b8ff" stroke="#63b8ff" points="528.52,-100.51 539.08,-99.62 530.27,-93.73 528.52,-100.51"/>
</a>
</g>
</g>
</g>
</svg>

<g id="navigator" transform="translate(0 0)" fill="#404254">
  <rect fill="#f2f5e9" fill-opacity="0.5" stroke="#606060" stroke-width=".5" x="0" y="0" width="60" height="60"/>
  <use id="zoomplus" xlink:href="#zoomPlus" x="17" y="9" onmousedown="handleZoom(evt,'in')"/>
  <use id="zoomminus" xlink:href="#zoomMin" x="42" y="9" onmousedown="handleZoom(evt,'out')"/>
  <use id="reset" xlink:href="#resetDef" x="30" y="36" onmousedown="handleReset()"/>
   <use id="arrowup" xlink:href="#arrowUp" x="0" y="0" onmousedown="handlePan(0,-1)"/>
  <use id="arrowright" xlink:href="#arrowRight" x="0" y="0" onmousedown="handlePan(1,0)"/>
  <use id="arrowdown" xlink:href="#arrowDown" x="0" y="0" onmousedown="handlePan(0,1)"/>
  <use id="arrowleft" xlink:href="#arrowLeft" x="0" y="0" onmousedown="handlePan(-1,0)"/>
</g>
<svg viewBox="0 0 15 15" width="100%" height="30px" preserveAspectRatio="xMaxYMin meet">
 <g id="arrow_out" transform="scale(0.3 0.3)">
  <a xlink:href="namespacesteppable_1_1____internals_1_1numUtils_a61df4994403fa57d99f1687e62afe468_cgraph_org.svg" target="_base">
   <rect id="button" ry="5" rx="5" y="6" x="6" height="38" width="38"
        fill="#f2f5e9" fill-opacity="0.5" stroke="#606060" stroke-width="1.0"/>
   <path id="arrow"
     d="M 11.500037,31.436501 C 11.940474,20.09759 22.043105,11.32322 32.158766,21.979434 L 37.068811,17.246167 C 37.068811,17.246167 37.088388,32 37.088388,32 L 22.160133,31.978069 C 22.160133,31.978069 26.997745,27.140456 26.997745,27.140456 C 18.528582,18.264221 13.291696,25.230495 11.500037,31.436501 z"
     style="fill:#404040;"/>
  </a>
 </g>
</svg>

<style type='text/css'>
<![CDATA[
[data-mouse-over-selected='false'] { opacity: 0.7; }
[data-mouse-over-selected='true']  { opacity: 1.0; }
]]>
</style>
<script type="application/ecmascript"><![CDATA[
document.addEventListener('DOMContentLoaded', (event) => {
  highlightEdges();
  highlightAdjacentNodes();
});
]]></script>
</svg>
