<?xml version="1.0" encoding="UTF-8" standalone="no"?>
<!DOCTYPE svg PUBLIC "-//W3C//DTD SVG 1.1//EN"
 "http://www.w3.org/Graphics/SVG/1.1/DTD/svg11.dtd">
<!-- Generated by graphviz version 12.2.0 (20241103.1931)
 -->
<!-- Title: ImGui::ShrinkWidths Pages: 1 -->
<!--zoomable 235 -->

<svg id="main" version="1.1" xmlns="http://www.w3.org/2000/svg" xmlns:xlink="http://www.w3.org/1999/xlink" xml:space="preserve" onload="init(evt)">

<style type="text/css"><![CDATA[
.node, .edge {opacity: 0.7;}
.node.selected, .edge.selected {opacity: 1;}
.edge:hover path { stroke: red; }
.edge:hover polygon { stroke: red; fill: red; }
]]></style>

<defs>
  <circle id="rim" cx="0" cy="0" r="7"/>
  <circle id="rim2" cx="0" cy="0" r="3.5"/>
  <g id="zoomPlus">
    <use xlink:href="#rim" fill="#404040"><set attributeName="fill" to="#808080" begin="zoomplus.mouseover" end="zoomplus.mouseout"/></use>
    <path d="M-4,0h8M0,-4v8" fill="none" stroke="white" stroke-width="1.5" pointer-events="none"/>
  </g>
  <g id="zoomMin">
    <use xlink:href="#rim" fill="#404040"><set attributeName="fill" to="#808080" begin="zoomminus.mouseover" end="zoomminus.mouseout"/></use>
    <path d="M-4,0h8" fill="none" stroke="white" stroke-width="1.5" pointer-events="none"/>
  </g>
  <g id="arrowUp" transform="translate(30 24)">
    <use xlink:href="#rim"/>
    <path pointer-events="none" fill="none" stroke="white" stroke-width="1.5" d="M0,-3.0v7 M-2.5,-0.5L0,-3.0L2.5,-0.5"/>
  </g>
  <g id="arrowRight" transform="rotate(90) translate(36 -43)">
    <use xlink:href="#rim"/>
    <path pointer-events="none" fill="none" stroke="white" stroke-width="1.5" d="M0,-3.0v7 M-2.5,-0.5L0,-3.0L2.5,-0.5"/>
  </g>
  <g id="arrowDown" transform="rotate(180) translate(-30 -48)">
    <use xlink:href="#rim"/>
    <path pointer-events="none" fill="none" stroke="white" stroke-width="1.5" d="M0,-3.0v7 M-2.5,-0.5L0,-3.0L2.5,-0.5"/>
  </g>
  <g id="arrowLeft" transform="rotate(270) translate(-36 17)">
    <use xlink:href="#rim"/>
    <path pointer-events="none" fill="none" stroke="white" stroke-width="1.5" d="M0,-3.0v7 M-2.5,-0.5L0,-3.0L2.5,-0.5"/>
  </g>
  <g id="resetDef">
    <use xlink:href="#rim2" fill="#404040"><set attributeName="fill" to="#808080" begin="reset.mouseover" end="reset.mouseout"/></use>
  </g>
</defs>
<script type="application/ecmascript">
var viewWidth = 1238;
var viewHeight = 235;
var sectionId = 'dynsection-1119';
</script>
<script type="application/ecmascript" xlink:href="svg.min.js"/>
<svg id="graph" class="graph">
<g id="viewport">
<title>ImGui::ShrinkWidths</title>
<!-- Node1 -->
<g id="Node000001" class="node">
<title>Node1</title>
<g id="a_Node000001"><a xlink:title=" ">
<polygon fill="#999999" stroke="#666666" points="1230.25,-97.75 1114.5,-97.75 1114.5,-77 1230.25,-77 1230.25,-97.75"/>
<text text-anchor="middle" x="1172.38" y="-84.25" font-family="Helvetica,sans-Serif" font-size="10.00">ImGui::ShrinkWidths</text>
</a>
</g>
</g>
<!-- Node2 -->
<g id="Node000002" class="node">
<title>Node2</title>
<g id="a_Node000002"><a xlink:href="namespaceImGui.html#a1526bb8d42b3fa38e1c702500d1ff601" target="_top" xlink:title=" ">
<polygon fill="white" stroke="#666666" points="1078.5,-97.75 961.25,-97.75 961.25,-77 1078.5,-77 1078.5,-97.75"/>
<text text-anchor="middle" x="1019.88" y="-84.25" font-family="Helvetica,sans-Serif" font-size="10.00">ImGui::TabBarLayout</text>
</a>
</g>
</g>
<!-- Node1&#45;&gt;Node2 -->
<g id="edge1_Node000001_Node000002" class="edge">
<title>Node1&#45;&gt;Node2</title>
<g id="a_edge1_Node000001_Node000002"><a xlink:title=" ">
<path fill="none" stroke="#63b8ff" d="M1102.73,-87.38C1094.64,-87.38 1086.45,-87.38 1078.54,-87.38"/>
<polygon fill="#63b8ff" stroke="#63b8ff" points="1102.53,-90.88 1112.53,-87.38 1102.53,-83.88 1102.53,-90.88"/>
</a>
</g>
</g>
<!-- Node3 -->
<g id="Node000003" class="node">
<title>Node3</title>
<g id="a_Node000003"><a xlink:href="namespaceImGui.html#a864b8ece257d4e30569f0349752ad928" target="_top" xlink:title=" ">
<polygon fill="white" stroke="#666666" points="925.25,-136.75 823,-136.75 823,-116 925.25,-116 925.25,-136.75"/>
<text text-anchor="middle" x="874.12" y="-123.25" font-family="Helvetica,sans-Serif" font-size="10.00">ImGui::EndTabBar</text>
</a>
</g>
</g>
<!-- Node2&#45;&gt;Node3 -->
<g id="edge2_Node000002_Node000003" class="edge">
<title>Node2&#45;&gt;Node3</title>
<g id="a_edge2_Node000002_Node000003"><a xlink:title=" ">
<path fill="none" stroke="#63b8ff" d="M967.78,-101.24C950.51,-105.92 931.49,-111.08 915.2,-115.5"/>
<polygon fill="#63b8ff" stroke="#63b8ff" points="968.64,-104.63 977.37,-98.63 966.8,-97.88 968.64,-104.63"/>
</a>
</g>
</g>
<!-- Node16 -->
<g id="Node000016" class="node">
<title>Node16</title>
<g id="a_Node000016"><a xlink:href="namespaceImGui.html#a4e0986fc689e7855cd9a9099dc87dac5" target="_top" xlink:title=" ">
<polygon fill="white" stroke="#666666" points="925.25,-78.75 823,-78.75 823,-58 925.25,-58 925.25,-78.75"/>
<text text-anchor="middle" x="874.12" y="-65.25" font-family="Helvetica,sans-Serif" font-size="10.00">ImGui::TabItemEx</text>
</a>
</g>
</g>
<!-- Node2&#45;&gt;Node16 -->
<g id="edge16_Node000002_Node000016" class="edge">
<title>Node2&#45;&gt;Node16</title>
<g id="a_edge16_Node000002_Node000016"><a xlink:title=" ">
<path fill="none" stroke="#63b8ff" d="M949.48,-78.2C941.4,-77.14 933.29,-76.06 925.54,-75.04"/>
<polygon fill="#63b8ff" stroke="#63b8ff" points="948.95,-81.66 959.32,-79.5 949.87,-74.72 948.95,-81.66"/>
</a>
</g>
</g>
<!-- Node4 -->
<g id="Node000004" class="node">
<title>Node4</title>
<g id="a_Node000004"><a xlink:href="namespaceImGui.html#a966210ccd2b1d239003f3b5cda67362b" target="_top" xlink:title=" ">
<polygon fill="white" stroke="#666666" points="787,-226.75 600,-226.75 600,-206 787,-206 787,-226.75"/>
<text text-anchor="middle" x="693.5" y="-213.25" font-family="Helvetica,sans-Serif" font-size="10.00">ImGui::DockNodeEndAmendTabBar</text>
</a>
</g>
</g>
<!-- Node3&#45;&gt;Node4 -->
<g id="edge3_Node000003_Node000004" class="edge">
<title>Node3&#45;&gt;Node4</title>
<g id="a_edge3_Node000003_Node000004"><a xlink:title=" ">
<path fill="none" stroke="#63b8ff" d="M855.87,-145.03C839.67,-161.38 813.95,-184.49 787,-197.38 780.2,-200.63 772.85,-203.33 765.38,-205.56"/>
<polygon fill="#63b8ff" stroke="#63b8ff" points="857.96,-147.91 862.38,-138.28 852.92,-143.05 857.96,-147.91"/>
</a>
</g>
</g>
<!-- Node5 -->
<g id="Node000005" class="node">
<title>Node5</title>
<g id="a_Node000005"><a xlink:href="namespaceImGui.html#a4b4e1fb0487e571a4a04fb5b2274189e" target="_top" xlink:title=" ">
<polygon fill="white" stroke="#666666" points="778.38,-98.75 608.62,-98.75 608.62,-78 778.38,-78 778.38,-98.75"/>
<text text-anchor="middle" x="693.5" y="-85.25" font-family="Helvetica,sans-Serif" font-size="10.00">ImGui::DockNodeUpdateTabBar</text>
</a>
</g>
</g>
<!-- Node3&#45;&gt;Node5 -->
<g id="edge4_Node000003_Node000005" class="edge">
<title>Node3&#45;&gt;Node5</title>
<g id="a_edge4_Node000003_Node000005"><a xlink:title=" ">
<path fill="none" stroke="#63b8ff" d="M811.86,-113.34C790.27,-108.75 766.25,-103.64 745.6,-99.24"/>
<polygon fill="#63b8ff" stroke="#63b8ff" points="810.9,-116.72 821.41,-115.37 812.36,-109.87 810.9,-116.72"/>
</a>
</g>
</g>
<!-- Node12 -->
<g id="Node000012" class="node">
<title>Node12</title>
<g id="a_Node000012"><a xlink:href="namespaceImGui.html#a945392cbf05b9434df8ec3630b10e01a" target="_top" xlink:title=" ">
<polygon fill="white" stroke="#666666" points="774.25,-188.12 612.75,-188.12 612.75,-154.62 774.25,-154.62 774.25,-188.12"/>
<text text-anchor="start" x="620.75" y="-174.62" font-family="Helvetica,sans-Serif" font-size="10.00">ImGui::ErrorCheckEndWindow</text>
<text text-anchor="middle" x="693.5" y="-161.88" font-family="Helvetica,sans-Serif" font-size="10.00">Recover</text>
</a>
</g>
</g>
<!-- Node3&#45;&gt;Node12 -->
<g id="edge12_Node000003_Node000012" class="edge">
<title>Node3&#45;&gt;Node12</title>
<g id="a_edge12_Node000003_Node000012"><a xlink:title=" ">
<path fill="none" stroke="#63b8ff" d="M819.3,-139.94C801.5,-144.42 781.47,-149.47 762.74,-154.18"/>
<polygon fill="#63b8ff" stroke="#63b8ff" points="820.03,-143.36 828.87,-137.52 818.32,-136.57 820.03,-143.36"/>
</a>
</g>
</g>
<!-- Node14 -->
<g id="Node000014" class="node">
<title>Node14</title>
<g id="a_Node000014"><a xlink:href="namespaceImGui.html#ab2eb3dec78d054fe3feab1c091ec5de5" target="_top" xlink:title=" ">
<polygon fill="white" stroke="#666666" points="552.75,-59.75 422,-59.75 422,-39 552.75,-39 552.75,-59.75"/>
<text text-anchor="middle" x="487.38" y="-46.25" font-family="Helvetica,sans-Serif" font-size="10.00">ImGui::ShowStyleEditor</text>
</a>
</g>
</g>
<!-- Node3&#45;&gt;Node14 -->
<g id="edge14_Node000003_Node000014" class="edge">
<title>Node3&#45;&gt;Node14</title>
<g id="a_edge14_Node000003_Node000014"><a xlink:title=" ">
<path fill="none" stroke="#63b8ff" d="M811.1,-134.45C753.55,-139.15 666.96,-138.97 600,-107.38 578.96,-97.45 584.01,-81.25 564,-69.38 557.81,-65.7 550.94,-62.69 543.94,-60.23"/>
<polygon fill="#63b8ff" stroke="#63b8ff" points="811.41,-137.94 821.05,-133.55 810.78,-130.96 811.41,-137.94"/>
</a>
</g>
</g>
<!-- Node6 -->
<g id="Node000006" class="node">
<title>Node6</title>
<g id="a_Node000006"><a xlink:href="namespaceImGui.html#a526230d8de99b07ff2b2992c192ce212" target="_top" xlink:title=" ">
<polygon fill="white" stroke="#666666" points="555.75,-98.75 419,-98.75 419,-78 555.75,-78 555.75,-98.75"/>
<text text-anchor="middle" x="487.38" y="-85.25" font-family="Helvetica,sans-Serif" font-size="10.00">ImGui::DockNodeUpdate</text>
</a>
</g>
</g>
<!-- Node5&#45;&gt;Node6 -->
<g id="edge5_Node000005_Node000006" class="edge">
<title>Node5&#45;&gt;Node6</title>
<g id="a_edge5_Node000005_Node000006"><a xlink:title=" ">
<path fill="none" stroke="#63b8ff" d="M596.83,-88.38C583.11,-88.38 569.23,-88.38 556.2,-88.38"/>
<polygon fill="#63b8ff" stroke="#63b8ff" points="596.78,-91.88 606.78,-88.38 596.78,-84.88 596.78,-91.88"/>
</a>
</g>
</g>
<!-- Node6&#45;&gt;Node6 -->
<g id="edge8_Node000006_Node000006" class="edge">
<title>Node6&#45;&gt;Node6</title>
<g id="a_edge8_Node000006_Node000006"><a xlink:title=" ">
<path fill="none" stroke="#63b8ff" d="M521.86,-110.24C517.29,-114.08 505.8,-116.75 487.38,-116.75 453.69,-116.75 443.16,-107.81 455.79,-99.15"/>
<polygon fill="#63b8ff" stroke="#63b8ff" points="525.26,-109.4 519.34,-100.61 518.49,-111.17 525.26,-109.4"/>
</a>
</g>
</g>
<!-- Node7 -->
<g id="Node000007" class="node">
<title>Node7</title>
<g id="a_Node000007"><a xlink:href="namespaceImGui.html#a3fd836d2bd3163537d1c36607e93ed6d" target="_top" xlink:title=" ">
<polygon fill="white" stroke="#666666" points="374.75,-150.12 208,-150.12 208,-116.62 374.75,-116.62 374.75,-150.12"/>
<text text-anchor="start" x="216" y="-136.62" font-family="Helvetica,sans-Serif" font-size="10.00">ImGui::DockContextNewFrame</text>
<text text-anchor="middle" x="291.38" y="-123.88" font-family="Helvetica,sans-Serif" font-size="10.00">UpdateDocking</text>
</a>
</g>
</g>
<!-- Node6&#45;&gt;Node7 -->
<g id="edge6_Node000006_Node000007" class="edge">
<title>Node6&#45;&gt;Node7</title>
<g id="a_edge6_Node000006_Node000007"><a xlink:title=" ">
<path fill="none" stroke="#63b8ff" d="M428.74,-101.74C409.21,-106.27 387.12,-111.4 366.49,-116.18"/>
<polygon fill="#63b8ff" stroke="#63b8ff" points="429.48,-105.16 438.43,-99.5 427.9,-98.35 429.48,-105.16"/>
</a>
</g>
</g>
<!-- Node9 -->
<g id="Node000009" class="node">
<title>Node9</title>
<g id="a_Node000009"><a xlink:href="namespaceImGui.html#a3d9d26cbb99a95938979a3ca3e211f92" target="_top" xlink:title=" ">
<polygon fill="white" stroke="#666666" points="344,-98.75 238.75,-98.75 238.75,-78 344,-78 344,-98.75"/>
<text text-anchor="middle" x="291.38" y="-85.25" font-family="Helvetica,sans-Serif" font-size="10.00">ImGui::DockSpace</text>
</a>
</g>
</g>
<!-- Node6&#45;&gt;Node9 -->
<g id="edge9_Node000006_Node000009" class="edge">
<title>Node6&#45;&gt;Node9</title>
<g id="a_edge9_Node000006_Node000009"><a xlink:title=" ">
<path fill="none" stroke="#63b8ff" d="M407.22,-88.38C386.01,-88.38 363.61,-88.38 344.29,-88.38"/>
<polygon fill="#63b8ff" stroke="#63b8ff" points="407.01,-91.88 417.01,-88.38 407.01,-84.88 407.01,-91.88"/>
</a>
</g>
</g>
<!-- Node8 -->
<g id="Node000008" class="node">
<title>Node8</title>
<g id="a_Node000008"><a xlink:href="namespaceImGui.html#ab3f1fc018f903b7ad79fd10663375774" target="_top" xlink:title=" ">
<polygon fill="white" stroke="#666666" points="137.88,-143.75 34.12,-143.75 34.12,-123 137.88,-123 137.88,-143.75"/>
<text text-anchor="middle" x="86" y="-130.25" font-family="Helvetica,sans-Serif" font-size="10.00">ImGui::NewFrame</text>
</a>
</g>
</g>
<!-- Node7&#45;&gt;Node8 -->
<g id="edge7_Node000007_Node000008" class="edge">
<title>Node7&#45;&gt;Node8</title>
<g id="a_edge7_Node000007_Node000008"><a xlink:title=" ">
<path fill="none" stroke="#63b8ff" d="M196.26,-133.38C176.23,-133.38 155.81,-133.38 138.12,-133.38"/>
<polygon fill="#63b8ff" stroke="#63b8ff" points="196.14,-136.88 206.14,-133.38 196.14,-129.88 196.14,-136.88"/>
</a>
</g>
</g>
<!-- Node10 -->
<g id="Node000010" class="node">
<title>Node10</title>
<g id="a_Node000010"><a xlink:href="namespaceImGui.html#a941b7d9d1f491f778796221031b5e439" target="_top" xlink:title=" ">
<polygon fill="white" stroke="#666666" points="163.38,-101.75 8.62,-101.75 8.62,-81 163.38,-81 163.38,-101.75"/>
<text text-anchor="middle" x="86" y="-88.25" font-family="Helvetica,sans-Serif" font-size="10.00">ImGui::DockBuilderAddNode</text>
</a>
</g>
</g>
<!-- Node9&#45;&gt;Node10 -->
<g id="edge10_Node000009_Node000010" class="edge">
<title>Node9&#45;&gt;Node10</title>
<g id="a_edge10_Node000009_Node000010"><a xlink:title=" ">
<path fill="none" stroke="#63b8ff" d="M226.76,-89.31C206.72,-89.61 184.38,-89.94 163.54,-90.25"/>
<polygon fill="#63b8ff" stroke="#63b8ff" points="226.8,-92.81 236.75,-89.17 226.7,-85.81 226.8,-92.81"/>
</a>
</g>
</g>
<!-- Node11 -->
<g id="Node000011" class="node">
<title>Node11</title>
<g id="a_Node000011"><a xlink:href="namespaceImGui.html#a29b58b0887b599185dfe677eb3ef6cdc" target="_top" xlink:title=" ">
<polygon fill="white" stroke="#666666" points="172,-62.75 0,-62.75 0,-42 172,-42 172,-62.75"/>
<text text-anchor="middle" x="86" y="-49.25" font-family="Helvetica,sans-Serif" font-size="10.00">ImGui::DockSpaceOverViewport</text>
</a>
</g>
</g>
<!-- Node9&#45;&gt;Node11 -->
<g id="edge11_Node000009_Node000011" class="edge">
<title>Node9&#45;&gt;Node11</title>
<g id="a_edge11_Node000009_Node000011"><a xlink:title=" ">
<path fill="none" stroke="#63b8ff" d="M227.03,-77.16C201.96,-72.72 173.24,-67.64 148.37,-63.24"/>
<polygon fill="#63b8ff" stroke="#63b8ff" points="226.32,-80.59 236.77,-78.89 227.54,-73.7 226.32,-80.59"/>
</a>
</g>
</g>
<!-- Node13 -->
<g id="Node000013" class="node">
<title>Node13</title>
<g id="a_Node000013"><a xlink:href="namespaceImGui.html#aaeda60ee2c0b5c2b3f397b237c9928f3" target="_top" xlink:title=" ">
<polygon fill="white" stroke="#666666" points="564,-188.12 410.75,-188.12 410.75,-154.62 564,-154.62 564,-188.12"/>
<text text-anchor="start" x="418.75" y="-174.62" font-family="Helvetica,sans-Serif" font-size="10.00">ImGui::ErrorCheckEndFrame</text>
<text text-anchor="middle" x="487.38" y="-161.88" font-family="Helvetica,sans-Serif" font-size="10.00">Recover</text>
</a>
</g>
</g>
<!-- Node12&#45;&gt;Node13 -->
<g id="edge13_Node000012_Node000013" class="edge">
<title>Node12&#45;&gt;Node13</title>
<g id="a_edge13_Node000012_Node000013"><a xlink:title=" ">
<path fill="none" stroke="#63b8ff" d="M601.16,-171.38C588.82,-171.38 576.26,-171.38 564.23,-171.38"/>
<polygon fill="#63b8ff" stroke="#63b8ff" points="600.9,-174.88 610.9,-171.38 600.9,-167.88 600.9,-174.88"/>
</a>
</g>
</g>
<!-- Node15 -->
<g id="Node000015" class="node">
<title>Node15</title>
<g id="a_Node000015"><a xlink:href="namespaceImGui.html#af95643a0ce4893b9e57c12991922fb18" target="_top" xlink:title=" ">
<polygon fill="white" stroke="#666666" points="364.25,-59.75 218.5,-59.75 218.5,-39 364.25,-39 364.25,-59.75"/>
<text text-anchor="middle" x="291.38" y="-46.25" font-family="Helvetica,sans-Serif" font-size="10.00">ImGui::ShowDemoWindow</text>
</a>
</g>
</g>
<!-- Node14&#45;&gt;Node15 -->
<g id="edge15_Node000014_Node000015" class="edge">
<title>Node14&#45;&gt;Node15</title>
<g id="a_edge15_Node000014_Node000015"><a xlink:title=" ">
<path fill="none" stroke="#63b8ff" d="M410.18,-49.38C395.15,-49.38 379.42,-49.38 364.53,-49.38"/>
<polygon fill="#63b8ff" stroke="#63b8ff" points="409.99,-52.88 419.99,-49.38 409.99,-45.88 409.99,-52.88"/>
</a>
</g>
</g>
<!-- Node16&#45;&gt;Node5 -->
<g id="edge19_Node000016_Node000005" class="edge">
<title>Node16&#45;&gt;Node5</title>
<g id="a_edge19_Node000016_Node000005"><a xlink:title=" ">
<path fill="none" stroke="#63b8ff" d="M811.66,-75.26C801.08,-76.44 789.91,-77.69 778.84,-78.93"/>
<polygon fill="#63b8ff" stroke="#63b8ff" points="811.84,-78.76 821.39,-74.17 811.06,-71.8 811.84,-78.76"/>
</a>
</g>
</g>
<!-- Node17 -->
<g id="Node000017" class="node">
<title>Node17</title>
<g id="a_Node000017"><a xlink:href="namespaceImGui.html#a4cee1ccc9018a298cfff90a704bde8ca" target="_top" xlink:title=" ">
<polygon fill="white" stroke="#666666" points="752.5,-59.75 634.5,-59.75 634.5,-39 752.5,-39 752.5,-59.75"/>
<text text-anchor="middle" x="693.5" y="-46.25" font-family="Helvetica,sans-Serif" font-size="10.00">ImGui::BeginTabItem</text>
</a>
</g>
</g>
<!-- Node16&#45;&gt;Node17 -->
<g id="edge17_Node000016_Node000017" class="edge">
<title>Node16&#45;&gt;Node17</title>
<g id="a_edge17_Node000016_Node000017"><a xlink:title=" ">
<path fill="none" stroke="#63b8ff" d="M811.63,-61.83C792.59,-59.81 771.69,-57.59 752.87,-55.58"/>
<polygon fill="#63b8ff" stroke="#63b8ff" points="811.07,-65.29 821.39,-62.87 811.81,-58.33 811.07,-65.29"/>
</a>
</g>
</g>
<!-- Node18 -->
<g id="Node000018" class="node">
<title>Node18</title>
<g id="a_Node000018"><a xlink:href="namespaceImGui.html#a1dbc539ac5b49e9445c4573607e6d60d" target="_top" xlink:title=" ">
<polygon fill="white" stroke="#666666" points="754.75,-20.75 632.25,-20.75 632.25,0 754.75,0 754.75,-20.75"/>
<text text-anchor="middle" x="693.5" y="-7.25" font-family="Helvetica,sans-Serif" font-size="10.00">ImGui::TabItemButton</text>
</a>
</g>
</g>
<!-- Node16&#45;&gt;Node18 -->
<g id="edge20_Node000016_Node000018" class="edge">
<title>Node16&#45;&gt;Node18</title>
<g id="a_edge20_Node000016_Node000018"><a xlink:title=" ">
<path fill="none" stroke="#63b8ff" d="M842.06,-52.84C825.94,-45.25 805.74,-36.47 787,-30.38 776.22,-26.87 764.53,-23.8 753.2,-21.19"/>
<polygon fill="#63b8ff" stroke="#63b8ff" points="840.11,-55.79 850.64,-56.96 843.14,-49.48 840.11,-55.79"/>
</a>
</g>
</g>
<!-- Node17&#45;&gt;Node14 -->
<g id="edge18_Node000017_Node000014" class="edge">
<title>Node17&#45;&gt;Node14</title>
<g id="a_edge18_Node000017_Node000014"><a xlink:title=" ">
<path fill="none" stroke="#63b8ff" d="M622.77,-49.38C600.16,-49.38 575.19,-49.38 552.96,-49.38"/>
<polygon fill="#63b8ff" stroke="#63b8ff" points="622.49,-52.88 632.49,-49.38 622.49,-45.88 622.49,-52.88"/>
</a>
</g>
</g>
</g>
</svg>

<g id="navigator" transform="translate(0 0)" fill="#404254">
  <rect fill="#f2f5e9" fill-opacity="0.5" stroke="#606060" stroke-width=".5" x="0" y="0" width="60" height="60"/>
  <use id="zoomplus" xlink:href="#zoomPlus" x="17" y="9" onmousedown="handleZoom(evt,'in')"/>
  <use id="zoomminus" xlink:href="#zoomMin" x="42" y="9" onmousedown="handleZoom(evt,'out')"/>
  <use id="reset" xlink:href="#resetDef" x="30" y="36" onmousedown="handleReset()"/>
   <use id="arrowup" xlink:href="#arrowUp" x="0" y="0" onmousedown="handlePan(0,-1)"/>
  <use id="arrowright" xlink:href="#arrowRight" x="0" y="0" onmousedown="handlePan(1,0)"/>
  <use id="arrowdown" xlink:href="#arrowDown" x="0" y="0" onmousedown="handlePan(0,1)"/>
  <use id="arrowleft" xlink:href="#arrowLeft" x="0" y="0" onmousedown="handlePan(-1,0)"/>
</g>
<svg viewBox="0 0 15 15" width="100%" height="30px" preserveAspectRatio="xMaxYMin meet">
 <g id="arrow_out" transform="scale(0.3 0.3)">
  <a xlink:href="namespaceImGui_acb224619be75abaf226282bbdf40f92f_icgraph_org.svg" target="_base">
   <rect id="button" ry="5" rx="5" y="6" x="6" height="38" width="38"
        fill="#f2f5e9" fill-opacity="0.5" stroke="#606060" stroke-width="1.0"/>
   <path id="arrow"
     d="M 11.500037,31.436501 C 11.940474,20.09759 22.043105,11.32322 32.158766,21.979434 L 37.068811,17.246167 C 37.068811,17.246167 37.088388,32 37.088388,32 L 22.160133,31.978069 C 22.160133,31.978069 26.997745,27.140456 26.997745,27.140456 C 18.528582,18.264221 13.291696,25.230495 11.500037,31.436501 z"
     style="fill:#404040;"/>
  </a>
 </g>
</svg>

<style type='text/css'>
<![CDATA[
[data-mouse-over-selected='false'] { opacity: 0.7; }
[data-mouse-over-selected='true']  { opacity: 1.0; }
]]>
</style>
<script type="application/ecmascript"><![CDATA[
document.addEventListener('DOMContentLoaded', (event) => {
  highlightEdges();
  highlightAdjacentNodes();
});
]]></script>
</svg>
