<?xml version="1.0" encoding="UTF-8" standalone="no"?>
<!DOCTYPE svg PUBLIC "-//W3C//DTD SVG 1.1//EN"
 "http://www.w3.org/Graphics/SVG/1.1/DTD/svg11.dtd">
<!-- Generated by graphviz version 11.0.0 (20240428.1522)
 -->
<!-- Title: steppable::__internals::numUtils::roundOff Pages: 1 -->
<!--zoomable 888 -->

<svg id="main" version="1.1" xmlns="http://www.w3.org/2000/svg" xmlns:xlink="http://www.w3.org/1999/xlink" xml:space="preserve" onload="init(evt)">
<style type="text/css"><![CDATA[
.node, .edge {opacity: 0.7;}
.node.selected, .edge.selected {opacity: 1;}
.edge:hover path { stroke: red; }
.edge:hover polygon { stroke: red; fill: red; }
]]></style>

<defs>
  <circle id="rim" cx="0" cy="0" r="7"/>
  <circle id="rim2" cx="0" cy="0" r="3.5"/>
  <g id="zoomPlus">
    <use xlink:href="#rim" fill="#404040"><set attributeName="fill" to="#808080" begin="zoomplus.mouseover" end="zoomplus.mouseout"/></use>
    <path d="M-4,0h8M0,-4v8" fill="none" stroke="white" stroke-width="1.5" pointer-events="none"/>
  </g>
  <g id="zoomMin">
    <use xlink:href="#rim" fill="#404040"><set attributeName="fill" to="#808080" begin="zoomminus.mouseover" end="zoomminus.mouseout"/></use>
    <path d="M-4,0h8" fill="none" stroke="white" stroke-width="1.5" pointer-events="none"/>
  </g>
  <g id="arrowUp" transform="translate(30 24)">
    <use xlink:href="#rim"/>
    <path pointer-events="none" fill="none" stroke="white" stroke-width="1.5" d="M0,-3.0v7 M-2.5,-0.5L0,-3.0L2.5,-0.5"/>
  </g>
  <g id="arrowRight" transform="rotate(90) translate(36 -43)">
    <use xlink:href="#rim"/>
    <path pointer-events="none" fill="none" stroke="white" stroke-width="1.5" d="M0,-3.0v7 M-2.5,-0.5L0,-3.0L2.5,-0.5"/>
  </g>
  <g id="arrowDown" transform="rotate(180) translate(-30 -48)">
    <use xlink:href="#rim"/>
    <path pointer-events="none" fill="none" stroke="white" stroke-width="1.5" d="M0,-3.0v7 M-2.5,-0.5L0,-3.0L2.5,-0.5"/>
  </g>
  <g id="arrowLeft" transform="rotate(270) translate(-36 17)">
    <use xlink:href="#rim"/>
    <path pointer-events="none" fill="none" stroke="white" stroke-width="1.5" d="M0,-3.0v7 M-2.5,-0.5L0,-3.0L2.5,-0.5"/>
  </g>
  <g id="resetDef">
    <use xlink:href="#rim2" fill="#404040"><set attributeName="fill" to="#808080" begin="reset.mouseover" end="reset.mouseout"/></use>
  </g>
</defs>
<script type="application/ecmascript">
var viewWidth = 1586;
var viewHeight = 888;
var sectionId = 'dynsection-25';
</script>
<script type="application/ecmascript" xlink:href="svg.min.js"/>
<svg id="graph" class="graph">
<g id="viewport">
<title>steppable::__internals::numUtils::roundOff</title>
<!-- Node1 -->
<g id="Node000001" class="node">
<title>Node1</title>
<g id="a_Node000001"><a xlink:title="Round off a number to the nearest integer.">
<polygon fill="#999999" stroke="#666666" points="1578,-679.5 1454.75,-679.5 1454.75,-646 1578,-646 1578,-679.5"/>
<text text-anchor="start" x="1462.75" y="-666" font-family="Helvetica,sans-Serif" font-size="10.00">steppable::__internals</text>
<text text-anchor="middle" x="1516.38" y="-653.25" font-family="Helvetica,sans-Serif" font-size="10.00">::numUtils::roundOff</text>
</a>
</g>
</g>
<!-- Node2 -->
<g id="Node000002" class="node">
<title>Node2</title>
<g id="a_Node000002"><a xlink:href="namespacesteppable_1_1____internals_1_1arithmetic.html#a26194ae8ddb44afb942fbf8335ae1730" target="_top" xlink:title="Divides a string representation of a number by another string representation of a number.">
<polygon fill="white" stroke="#666666" points="1418.75,-473.5 1295.5,-473.5 1295.5,-440 1418.75,-440 1418.75,-473.5"/>
<text text-anchor="start" x="1303.5" y="-460" font-family="Helvetica,sans-Serif" font-size="10.00">steppable::__internals</text>
<text text-anchor="middle" x="1357.12" y="-447.25" font-family="Helvetica,sans-Serif" font-size="10.00">::arithmetic::divide</text>
</a>
</g>
</g>
<!-- Node1&#45;&gt;Node2 -->
<g id="edge1_Node000001_Node000002" class="edge">
<title>Node1&#45;&gt;Node2</title>
<g id="a_edge1_Node000001_Node000002"><a xlink:title=" ">
<path fill="none" stroke="#63b8ff" d="M1495.38,-636.56C1462.66,-593.69 1398.57,-509.73 1371.11,-473.77"/>
<polygon fill="#63b8ff" stroke="#63b8ff" points="1492.47,-638.51 1501.32,-644.34 1498.03,-634.27 1492.47,-638.51"/>
</a>
</g>
</g>
<!-- Node14 -->
<g id="Node000014" class="node">
<title>Node14</title>
<g id="a_Node000014"><a xlink:href="namespacesteppable_1_1____internals_1_1arithmetic.html#a6f1429e9d7719e6376dc68ae28d36dbe" target="_top" xlink:title="Gets the integer part of the root of a number.">
<polygon fill="white" stroke="#666666" points="704.12,-819.5 574.88,-819.5 574.88,-786 704.12,-786 704.12,-819.5"/>
<text text-anchor="start" x="582.88" y="-806" font-family="Helvetica,sans-Serif" font-size="10.00">steppable::__internals</text>
<text text-anchor="middle" x="639.5" y="-793.25" font-family="Helvetica,sans-Serif" font-size="10.00">::arithmetic::rootIntPart</text>
</a>
</g>
</g>
<!-- Node1&#45;&gt;Node14 -->
<g id="edge40_Node000001_Node000014" class="edge">
<title>Node1&#45;&gt;Node14</title>
<g id="a_edge40_Node000001_Node000014"><a xlink:title=" ">
<path fill="none" stroke="#63b8ff" d="M1494.6,-688.29C1445.44,-745.66 1315.41,-879.75 1174.12,-879.75 1174.12,-879.75 1174.12,-879.75 988.12,-879.75 878.25,-879.75 753.36,-842.63 687.28,-819.93"/>
<polygon fill="#63b8ff" stroke="#63b8ff" points="1497.04,-690.83 1500.81,-680.93 1491.69,-686.32 1497.04,-690.83"/>
</a>
</g>
</g>
<!-- Node3 -->
<g id="Node000003" class="node">
<title>Node3</title>
<g id="a_Node000003"><a xlink:href="namespacesteppable_1_1____internals_1_1arithmetic.html#a1eedcdd2349ec452f6319cd0ff443e0a" target="_top" xlink:title=" ">
<polygon fill="white" stroke="#666666" points="1234.75,-733.5 1111.5,-733.5 1111.5,-700 1234.75,-700 1234.75,-733.5"/>
<text text-anchor="start" x="1119.5" y="-720" font-family="Helvetica,sans-Serif" font-size="10.00">steppable::__internals</text>
<text text-anchor="middle" x="1173.12" y="-707.25" font-family="Helvetica,sans-Serif" font-size="10.00">::arithmetic::_root</text>
</a>
</g>
</g>
<!-- Node2&#45;&gt;Node3 -->
<g id="edge2_Node000002_Node000003" class="edge">
<title>Node2&#45;&gt;Node3</title>
<g id="a_edge2_Node000002_Node000003"><a xlink:title=" ">
<path fill="none" stroke="#63b8ff" d="M1337.8,-482.93C1300.62,-536.04 1217.2,-655.21 1186.11,-699.63"/>
<polygon fill="#63b8ff" stroke="#63b8ff" points="1340.45,-485.25 1343.32,-475.05 1334.71,-481.23 1340.45,-485.25"/>
</a>
</g>
</g>
<!-- Node11 -->
<g id="Node000011" class="node">
<title>Node11</title>
<g id="a_Node000011"><a xlink:href="namespacesteppable_1_1____internals_1_1arithmetic.html#a118bc6cb979317a7c762ee90fb44d0a4" target="_top" xlink:title="Converts a root operation into a surd.">
<polygon fill="white" stroke="#666666" points="123.25,-467.5 0,-467.5 0,-434 123.25,-434 123.25,-467.5"/>
<text text-anchor="start" x="8" y="-454" font-family="Helvetica,sans-Serif" font-size="10.00">steppable::__internals</text>
<text text-anchor="middle" x="61.62" y="-441.25" font-family="Helvetica,sans-Serif" font-size="10.00">::arithmetic::rootSurd</text>
</a>
</g>
</g>
<!-- Node2&#45;&gt;Node11 -->
<g id="edge29_Node000002_Node000011" class="edge">
<title>Node2&#45;&gt;Node11</title>
<g id="a_edge29_Node000002_Node000011"><a xlink:title=" ">
<path fill="none" stroke="#63b8ff" d="M1356.38,-428.45C1355.34,-365.76 1343.7,-214.29 1259.5,-132.75 1170.56,-46.62 1113.94,-61.75 990.12,-61.75 990.12,-61.75 990.12,-61.75 421.88,-61.75 216.41,-61.75 95.88,-358.25 68.59,-433.53"/>
<polygon fill="#63b8ff" stroke="#63b8ff" points="1352.88,-428.27 1356.45,-438.25 1359.88,-428.22 1352.88,-428.27"/>
</a>
</g>
</g>
<!-- Node2&#45;&gt;Node14 -->
<g id="edge28_Node000002_Node000014" class="edge">
<title>Node2&#45;&gt;Node14</title>
<g id="a_edge28_Node000002_Node000014"><a xlink:title=" ">
<path fill="none" stroke="#63b8ff" d="M1356.78,-485.32C1356.47,-547.04 1346.11,-692.78 1259.5,-760.75 1174.82,-827.21 845.03,-815.49 704.5,-807.16"/>
<polygon fill="#63b8ff" stroke="#63b8ff" points="1360.28,-485.3 1356.73,-475.32 1353.28,-485.34 1360.28,-485.3"/>
</a>
</g>
</g>
<!-- Node15 -->
<g id="Node000015" class="node">
<title>Node15</title>
<g id="a_Node000015"><a xlink:href="namespacesteppable_1_1____internals_1_1arithmetic.html#a814abbd0fc1772320626c4c0ca3f677a" target="_top" xlink:title="Converts a string representation of a number from decimal to another one.">
<polygon fill="white" stroke="#666666" points="1243,-33.5 1103.25,-33.5 1103.25,0 1243,0 1243,-33.5"/>
<text text-anchor="start" x="1111.25" y="-20" font-family="Helvetica,sans-Serif" font-size="10.00">steppable::__internals</text>
<text text-anchor="middle" x="1173.12" y="-7.25" font-family="Helvetica,sans-Serif" font-size="10.00">::arithmetic::baseConvert</text>
</a>
</g>
</g>
<!-- Node2&#45;&gt;Node15 -->
<g id="edge21_Node000002_Node000015" class="edge">
<title>Node2&#45;&gt;Node15</title>
<g id="a_edge21_Node000002_Node000015"><a xlink:title=" ">
<path fill="none" stroke="#63b8ff" d="M1352.95,-428.49C1343.1,-345.59 1310.65,-105.22 1259.5,-47.75 1254.57,-42.21 1248.58,-37.67 1242.07,-33.93"/>
<polygon fill="#63b8ff" stroke="#63b8ff" points="1349.45,-428.73 1354.09,-438.25 1356.4,-427.92 1349.45,-428.73"/>
</a>
</g>
</g>
<!-- Node16 -->
<g id="Node000016" class="node">
<title>Node16</title>
<g id="a_Node000016"><a xlink:href="namespacesteppable_1_1____internals_1_1arithmetic.html#ac9102075acd398b3bdf388f6cc2ef978" target="_top" xlink:title=" ">
<polygon fill="white" stroke="#666666" points="1259.5,-175.5 1086.75,-175.5 1086.75,-142 1259.5,-142 1259.5,-175.5"/>
<text text-anchor="start" x="1094.75" y="-162" font-family="Helvetica,sans-Serif" font-size="10.00">steppable::__internals</text>
<text text-anchor="middle" x="1173.12" y="-149.25" font-family="Helvetica,sans-Serif" font-size="10.00">::arithmetic::divideWithQuotient</text>
</a>
</g>
</g>
<!-- Node2&#45;&gt;Node16 -->
<g id="edge22_Node000002_Node000016" class="edge">
<title>Node2&#45;&gt;Node16</title>
<g id="a_edge22_Node000002_Node000016"><a xlink:title=" ">
<path fill="none" stroke="#63b8ff" d="M1353.66,-428.4C1347.51,-374.6 1326.73,-257.05 1259.5,-189.75 1253.93,-184.17 1247.28,-179.59 1240.18,-175.83"/>
<polygon fill="#63b8ff" stroke="#63b8ff" points="1350.17,-428.67 1354.69,-438.26 1357.13,-427.95 1350.17,-428.67"/>
</a>
</g>
</g>
<!-- Node20 -->
<g id="Node000020" class="node">
<title>Node20</title>
<g id="a_Node000020"><a xlink:href="classsteppable_1_1Number.html#aebdaf5d342a2a897793556bd390bc184" target="_top" xlink:title="Divides two numbers.">
<polygon fill="white" stroke="#666666" points="1230.62,-851.5 1115.62,-851.5 1115.62,-818 1230.62,-818 1230.62,-851.5"/>
<text text-anchor="start" x="1123.62" y="-838" font-family="Helvetica,sans-Serif" font-size="10.00">steppable::Number::</text>
<text text-anchor="middle" x="1173.12" y="-825.25" font-family="Helvetica,sans-Serif" font-size="10.00">operator/</text>
</a>
</g>
</g>
<!-- Node2&#45;&gt;Node20 -->
<g id="edge27_Node000002_Node000020" class="edge">
<title>Node2&#45;&gt;Node20</title>
<g id="a_edge27_Node000002_Node000020"><a xlink:title=" ">
<path fill="none" stroke="#63b8ff" d="M1356.49,-485.11C1355.77,-550.14 1344.92,-711.51 1259.5,-803.75 1251.79,-812.08 1241.66,-818.18 1231.08,-822.64"/>
<polygon fill="#63b8ff" stroke="#63b8ff" points="1359.99,-485.3 1356.51,-475.29 1352.99,-485.28 1359.99,-485.3"/>
</a>
</g>
</g>
<!-- Node21 -->
<g id="Node000021" class="node">
<title>Node21</title>
<g id="a_Node000021"><a xlink:href="classsteppable_1_1Fraction.html#a9cf64d847c268d9334775c572ef75dfa" target="_top" xlink:title="Simplifies a fraction. This function simplifies the fraction by dividing the top and bottom component...">
<polygon fill="white" stroke="#666666" points="1227.62,-473.5 1118.62,-473.5 1118.62,-440 1227.62,-440 1227.62,-473.5"/>
<text text-anchor="start" x="1126.62" y="-460" font-family="Helvetica,sans-Serif" font-size="10.00">steppable::Fraction</text>
<text text-anchor="middle" x="1173.12" y="-447.25" font-family="Helvetica,sans-Serif" font-size="10.00">::simplify</text>
</a>
</g>
</g>
<!-- Node2&#45;&gt;Node21 -->
<g id="edge30_Node000002_Node000021" class="edge">
<title>Node2&#45;&gt;Node21</title>
<g id="a_edge30_Node000002_Node000021"><a xlink:title=" ">
<path fill="none" stroke="#63b8ff" d="M1283.64,-456.75C1265.09,-456.75 1245.48,-456.75 1228.05,-456.75"/>
<polygon fill="#63b8ff" stroke="#63b8ff" points="1283.5,-460.25 1293.5,-456.75 1283.5,-453.25 1283.5,-460.25"/>
</a>
</g>
</g>
<!-- Node3&#45;&gt;Node3 -->
<g id="edge3_Node000003_Node000003" class="edge">
<title>Node3&#45;&gt;Node3</title>
<g id="a_edge3_Node000003_Node000003"><a xlink:title=" ">
<path fill="none" stroke="#63b8ff" d="M1204.02,-744.89C1198.99,-748.85 1188.69,-751.5 1173.12,-751.5 1145.45,-751.5 1134.43,-743.12 1140.05,-733.91"/>
<polygon fill="#63b8ff" stroke="#63b8ff" points="1207.39,-745.89 1205.91,-735.4 1200.52,-744.52 1207.39,-745.89"/>
</a>
</g>
</g>
<!-- Node4 -->
<g id="Node000004" class="node">
<title>Node4</title>
<g id="a_Node000004"><a xlink:href="namespacesteppable_1_1____internals_1_1arithmetic.html#a4aa89d1787b7578cd2ed73392bdcd7df" target="_top" xlink:title="Takes the n&#45;th root of a numer.">
<polygon fill="white" stroke="#666666" points="1050.75,-733.5 927.5,-733.5 927.5,-700 1050.75,-700 1050.75,-733.5"/>
<text text-anchor="start" x="935.5" y="-720" font-family="Helvetica,sans-Serif" font-size="10.00">steppable::__internals</text>
<text text-anchor="middle" x="989.12" y="-707.25" font-family="Helvetica,sans-Serif" font-size="10.00">::arithmetic::root</text>
</a>
</g>
</g>
<!-- Node3&#45;&gt;Node4 -->
<g id="edge4_Node000003_Node000004" class="edge">
<title>Node3&#45;&gt;Node4</title>
<g id="a_edge4_Node000003_Node000004"><a xlink:title=" ">
<path fill="none" stroke="#63b8ff" d="M1099.97,-716.75C1083.78,-716.75 1066.75,-716.75 1051.07,-716.75"/>
<polygon fill="#63b8ff" stroke="#63b8ff" points="1099.5,-720.25 1109.5,-716.75 1099.5,-713.25 1099.5,-720.25"/>
</a>
</g>
</g>
<!-- Node5 -->
<g id="Node000005" class="node">
<title>Node5</title>
<g id="a_Node000005"><a xlink:href="namespacesteppable_1_1____internals_1_1arithmetic.html#a50acfa1ad06ce385943ddd207146c9e0" target="_top" xlink:title="Raises a string representation of a number to a power.">
<polygon fill="white" stroke="#666666" points="891.5,-729.5 768.25,-729.5 768.25,-696 891.5,-696 891.5,-729.5"/>
<text text-anchor="start" x="776.25" y="-716" font-family="Helvetica,sans-Serif" font-size="10.00">steppable::__internals</text>
<text text-anchor="middle" x="829.88" y="-703.25" font-family="Helvetica,sans-Serif" font-size="10.00">::arithmetic::power</text>
</a>
</g>
</g>
<!-- Node4&#45;&gt;Node5 -->
<g id="edge5_Node000004_Node000005" class="edge">
<title>Node4&#45;&gt;Node5</title>
<g id="a_edge5_Node000004_Node000005"><a xlink:title=" ">
<path fill="none" stroke="#63b8ff" d="M915.98,-714.91C907.89,-714.71 899.7,-714.5 891.77,-714.3"/>
<polygon fill="#63b8ff" stroke="#63b8ff" points="915.73,-718.41 925.81,-715.16 915.91,-711.41 915.73,-718.41"/>
</a>
</g>
</g>
<!-- Node5&#45;&gt;Node3 -->
<g id="edge6_Node000005_Node000003" class="edge">
<title>Node5&#45;&gt;Node3</title>
<g id="a_edge6_Node000005_Node000003"><a xlink:title=" ">
<path fill="none" stroke="#63b8ff" d="M887.14,-733.33C900.22,-737.24 914.2,-740.73 927.5,-742.75 981.66,-750.96 996.28,-748.52 1050.75,-742.75 1070.57,-740.65 1091.92,-736.67 1111.1,-732.45"/>
<polygon fill="#63b8ff" stroke="#63b8ff" points="888.45,-730.07 877.86,-730.43 886.36,-736.75 888.45,-730.07"/>
</a>
</g>
</g>
<!-- Node5&#45;&gt;Node5 -->
<g id="edge17_Node000005_Node000005" class="edge">
<title>Node5&#45;&gt;Node5</title>
<g id="a_edge17_Node000005_Node000005"><a xlink:title=" ">
<path fill="none" stroke="#63b8ff" d="M856.61,-740.89C852.26,-744.85 843.35,-747.5 829.88,-747.5 805.93,-747.5 796.38,-739.12 801.25,-729.91"/>
<polygon fill="#63b8ff" stroke="#63b8ff" points="860,-741.85 858.25,-731.41 853.1,-740.67 860,-741.85"/>
</a>
</g>
</g>
<!-- Node6 -->
<g id="Node000006" class="node">
<title>Node6</title>
<g id="a_Node000006"><a xlink:href="namespacesteppable_1_1____internals_1_1arithmetic.html#afc4c4f319dadbb5b1ff481132f008374" target="_top" xlink:title="Converts a string representation of a number from any base to decimal.">
<polygon fill="white" stroke="#666666" points="717.25,-625.5 561.75,-625.5 561.75,-592 717.25,-592 717.25,-625.5"/>
<text text-anchor="start" x="569.75" y="-612" font-family="Helvetica,sans-Serif" font-size="10.00">steppable::__internals</text>
<text text-anchor="middle" x="639.5" y="-599.25" font-family="Helvetica,sans-Serif" font-size="10.00">::arithmetic::decimalConvert</text>
</a>
</g>
</g>
<!-- Node5&#45;&gt;Node6 -->
<g id="edge7_Node000005_Node000006" class="edge">
<title>Node5&#45;&gt;Node6</title>
<g id="a_edge7_Node000005_Node000006"><a xlink:title=" ">
<path fill="none" stroke="#63b8ff" d="M804.13,-688.03C785.71,-670.88 759.19,-648.7 732.25,-634.75 725.93,-631.48 719.14,-628.57 712.22,-626"/>
<polygon fill="#63b8ff" stroke="#63b8ff" points="801.49,-690.34 811.14,-694.7 806.31,-685.27 801.49,-690.34"/>
</a>
</g>
</g>
<!-- Node7 -->
<g id="Node000007" class="node">
<title>Node7</title>
<g id="a_Node000007"><a xlink:href="namespacesteppable_1_1____internals_1_1arithmetic.html#aa150ef39a272f7228ae239679247fab3" target="_top" xlink:title="Determines the scale of the quotient of division.">
<polygon fill="white" stroke="#666666" points="732.25,-287.5 546.75,-287.5 546.75,-254 732.25,-254 732.25,-287.5"/>
<text text-anchor="start" x="554.75" y="-274" font-family="Helvetica,sans-Serif" font-size="10.00">steppable::__internals</text>
<text text-anchor="middle" x="639.5" y="-261.25" font-family="Helvetica,sans-Serif" font-size="10.00">::arithmetic::determineResultScale</text>
</a>
</g>
</g>
<!-- Node5&#45;&gt;Node7 -->
<g id="edge8_Node000005_Node000007" class="edge">
<title>Node5&#45;&gt;Node7</title>
<g id="a_edge8_Node000005_Node000007"><a xlink:title=" ">
<path fill="none" stroke="#63b8ff" d="M817.19,-685.32C781.82,-602.34 676.63,-355.52 647.85,-287.99"/>
<polygon fill="#63b8ff" stroke="#63b8ff" points="813.87,-686.47 821.01,-694.3 820.31,-683.73 813.87,-686.47"/>
</a>
</g>
</g>
<!-- Node8 -->
<g id="Node000008" class="node">
<title>Node8</title>
<g id="a_Node000008"><a xlink:href="namespacesteppable_1_1____internals_1_1numUtils.html#a9af210044669c6dd27a2fca4723fe831" target="_top" xlink:title="Get the greatest root number less than or equal to the given number.">
<polygon fill="white" stroke="#666666" points="510.75,-796.5 335,-796.5 335,-763 510.75,-763 510.75,-796.5"/>
<text text-anchor="start" x="343" y="-783" font-family="Helvetica,sans-Serif" font-size="10.00">steppable::__internals</text>
<text text-anchor="middle" x="422.88" y="-770.25" font-family="Helvetica,sans-Serif" font-size="10.00">::numUtils::getGreatestRootNum</text>
</a>
</g>
</g>
<!-- Node5&#45;&gt;Node8 -->
<g id="edge10_Node000005_Node000008" class="edge">
<title>Node5&#45;&gt;Node8</title>
<g id="a_edge10_Node000005_Node000008"><a xlink:title=" ">
<path fill="none" stroke="#63b8ff" d="M758.74,-732.77C749.87,-734.96 740.87,-737.02 732.25,-738.75 658.24,-753.56 573.14,-764.42 511.11,-771.23"/>
<polygon fill="#63b8ff" stroke="#63b8ff" points="759.59,-736.16 768.42,-730.31 757.87,-729.38 759.59,-736.16"/>
</a>
</g>
</g>
<!-- Node9 -->
<g id="Node000009" class="node">
<title>Node9</title>
<g id="a_Node000009"><a xlink:href="namespacesteppable_1_1____internals_1_1numUtils.html#af5d859c9839f7f49bf06f891693d5dfc" target="_top" xlink:title="Check if a number is a root number.">
<polygon fill="white" stroke="#666666" points="484.5,-580.5 361.25,-580.5 361.25,-547 484.5,-547 484.5,-580.5"/>
<text text-anchor="start" x="369.25" y="-567" font-family="Helvetica,sans-Serif" font-size="10.00">steppable::__internals</text>
<text text-anchor="middle" x="422.88" y="-554.25" font-family="Helvetica,sans-Serif" font-size="10.00">::numUtils::isRoot</text>
</a>
</g>
</g>
<!-- Node5&#45;&gt;Node9 -->
<g id="edge11_Node000005_Node000009" class="edge">
<title>Node5&#45;&gt;Node9</title>
<g id="a_edge11_Node000005_Node000009"><a xlink:title=" ">
<path fill="none" stroke="#63b8ff" d="M817.48,-685.79C802.78,-654.83 774.05,-605.4 732.25,-582.75 654.91,-540.84 550.1,-544.83 484.76,-553.11"/>
<polygon fill="#63b8ff" stroke="#63b8ff" points="814.12,-686.88 821.46,-694.52 820.49,-683.97 814.12,-686.88"/>
</a>
</g>
</g>
<!-- Node12 -->
<g id="Node000012" class="node">
<title>Node12</title>
<g id="a_Node000012"><a xlink:href="classsteppable_1_1Fraction.html#abaf8678e0b61e3097789959b66e4c23c" target="_top" xlink:title="Raises the fraction to a power.">
<polygon fill="white" stroke="#666666" points="694,-729.5 585,-729.5 585,-696 694,-696 694,-729.5"/>
<text text-anchor="start" x="593" y="-716" font-family="Helvetica,sans-Serif" font-size="10.00">steppable::Fraction</text>
<text text-anchor="middle" x="639.5" y="-703.25" font-family="Helvetica,sans-Serif" font-size="10.00">::operator^</text>
</a>
</g>
</g>
<!-- Node5&#45;&gt;Node12 -->
<g id="edge15_Node000005_Node000012" class="edge">
<title>Node5&#45;&gt;Node12</title>
<g id="a_edge15_Node000005_Node000012"><a xlink:title=" ">
<path fill="none" stroke="#63b8ff" d="M756.63,-712.75C735.88,-712.75 713.62,-712.75 694.21,-712.75"/>
<polygon fill="#63b8ff" stroke="#63b8ff" points="756.46,-716.25 766.46,-712.75 756.46,-709.25 756.46,-716.25"/>
</a>
</g>
</g>
<!-- Node13 -->
<g id="Node000013" class="node">
<title>Node13</title>
<g id="a_Node000013"><a xlink:href="classsteppable_1_1Number.html#ae3e13c5f73bc67cd464c84a8640e1387" target="_top" xlink:title="Raises the number to a power.">
<polygon fill="white" stroke="#666666" points="697,-677.5 582,-677.5 582,-644 697,-644 697,-677.5"/>
<text text-anchor="start" x="590" y="-664" font-family="Helvetica,sans-Serif" font-size="10.00">steppable::Number::</text>
<text text-anchor="middle" x="639.5" y="-651.25" font-family="Helvetica,sans-Serif" font-size="10.00">operator^</text>
</a>
</g>
</g>
<!-- Node5&#45;&gt;Node13 -->
<g id="edge16_Node000005_Node000013" class="edge">
<title>Node5&#45;&gt;Node13</title>
<g id="a_edge16_Node000005_Node000013"><a xlink:title=" ">
<path fill="none" stroke="#63b8ff" d="M757.15,-692.95C737.36,-687.49 716.17,-681.64 697.35,-676.44"/>
<polygon fill="#63b8ff" stroke="#63b8ff" points="755.95,-696.25 766.52,-695.54 757.81,-689.5 755.95,-696.25"/>
</a>
</g>
</g>
<!-- Node5&#45;&gt;Node14 -->
<g id="edge18_Node000005_Node000014" class="edge">
<title>Node5&#45;&gt;Node14</title>
<g id="a_edge18_Node000005_Node000014"><a xlink:title=" ">
<path fill="none" stroke="#63b8ff" d="M794.8,-736.13C776.75,-747.84 753.89,-761.64 732.25,-771.75 721.28,-776.87 709.23,-781.57 697.56,-785.67"/>
<polygon fill="#63b8ff" stroke="#63b8ff" points="796.61,-739.13 803.04,-730.7 792.76,-733.28 796.61,-739.13"/>
</a>
</g>
</g>
<!-- Node7&#45;&gt;Node2 -->
<g id="edge9_Node000007_Node000002" class="edge">
<title>Node7&#45;&gt;Node2</title>
<g id="a_edge9_Node000007_Node000002"><a xlink:title=" ">
<path fill="none" stroke="#63b8ff" d="M694.82,-249.74C774.89,-221.99 928.32,-181.24 1050.75,-222.75 1182,-267.26 1301.11,-393.35 1341.53,-439.53"/>
<polygon fill="#63b8ff" stroke="#63b8ff" points="693.71,-246.42 685.45,-253.05 696.04,-253.02 693.71,-246.42"/>
</a>
</g>
</g>
<!-- Node10 -->
<g id="Node000010" class="node">
<title>Node10</title>
<g id="a_Node000010"><a xlink:href="namespacesteppable_1_1____internals_1_1numUtils.html#a379086734493f9c5d59b1bca39908074" target="_top" xlink:title="Get the largest factor of a number, that is a root number.">
<polygon fill="white" stroke="#666666" points="299,-512.5 159.25,-512.5 159.25,-479 299,-479 299,-512.5"/>
<text text-anchor="start" x="167.25" y="-499" font-family="Helvetica,sans-Serif" font-size="10.00">steppable::__internals</text>
<text text-anchor="middle" x="229.12" y="-486.25" font-family="Helvetica,sans-Serif" font-size="10.00">::numUtils::getRootFactor</text>
</a>
</g>
</g>
<!-- Node9&#45;&gt;Node10 -->
<g id="edge12_Node000009_Node000010" class="edge">
<title>Node9&#45;&gt;Node10</title>
<g id="a_edge12_Node000009_Node000010"><a xlink:title=" ">
<path fill="none" stroke="#63b8ff" d="M362.97,-542.86C335.89,-533.26 304.16,-522 278.5,-512.9"/>
<polygon fill="#63b8ff" stroke="#63b8ff" points="361.47,-546.04 372.06,-546.08 363.81,-539.44 361.47,-546.04"/>
</a>
</g>
</g>
<!-- Node10&#45;&gt;Node11 -->
<g id="edge13_Node000010_Node000011" class="edge">
<title>Node10&#45;&gt;Node11</title>
<g id="a_edge13_Node000010_Node000011"><a xlink:title=" ">
<path fill="none" stroke="#63b8ff" d="M154.11,-475.62C143.9,-472.85 133.51,-470.02 123.58,-467.32"/>
<polygon fill="#63b8ff" stroke="#63b8ff" points="153.06,-478.97 163.62,-478.21 154.89,-472.21 153.06,-478.97"/>
</a>
</g>
</g>
<!-- Node11&#45;&gt;Node4 -->
<g id="edge14_Node000011_Node000004" class="edge">
<title>Node11&#45;&gt;Node4</title>
<g id="a_edge14_Node000011_Node000004"><a xlink:title=" ">
<path fill="none" stroke="#63b8ff" d="M134.92,-450.75C207.47,-450.75 322.41,-450.75 421.88,-450.75 640.5,-450.75 640.5,-450.75 640.5,-450.75 806.78,-450.75 785.81,-603.73 927.5,-690.75 932.67,-693.93 938.3,-696.9 943.98,-699.62"/>
<polygon fill="#63b8ff" stroke="#63b8ff" points="135.16,-447.25 125.16,-450.75 135.16,-454.25 135.16,-447.25"/>
</a>
</g>
</g>
<!-- Node14&#45;&gt;Node8 -->
<g id="edge19_Node000014_Node000008" class="edge">
<title>Node14&#45;&gt;Node8</title>
<g id="a_edge19_Node000014_Node000008"><a xlink:title=" ">
<path fill="none" stroke="#63b8ff" d="M562.98,-794.66C546.2,-792.86 528.27,-790.94 511.07,-789.09"/>
<polygon fill="#63b8ff" stroke="#63b8ff" points="562.58,-798.13 572.89,-795.72 563.32,-791.17 562.58,-798.13"/>
</a>
</g>
</g>
<!-- Node14&#45;&gt;Node9 -->
<g id="edge20_Node000014_Node000009" class="edge">
<title>Node14&#45;&gt;Node9</title>
<g id="a_edge20_Node000014_Node000009"><a xlink:title=" ">
<path fill="none" stroke="#63b8ff" d="M598.7,-779.36C581.65,-768.28 562.16,-754.11 546.75,-738.75 495.88,-688.03 451.71,-614 433.17,-580.88"/>
<polygon fill="#63b8ff" stroke="#63b8ff" points="596.81,-782.31 607.13,-784.71 600.56,-776.4 596.81,-782.31"/>
</a>
</g>
</g>
<!-- Node17 -->
<g id="Node000017" class="node">
<title>Node17</title>
<g id="a_Node000017"><a xlink:href="namespacesteppable_1_1____internals_1_1numUtils.html#a5eeb396144a9e1d3edd3339abb6f434f" target="_top" xlink:title="Get the factors of a number.">
<polygon fill="white" stroke="#666666" points="1050.75,-123.5 927.5,-123.5 927.5,-90 1050.75,-90 1050.75,-123.5"/>
<text text-anchor="start" x="935.5" y="-110" font-family="Helvetica,sans-Serif" font-size="10.00">steppable::__internals</text>
<text text-anchor="middle" x="989.12" y="-97.25" font-family="Helvetica,sans-Serif" font-size="10.00">::numUtils::getFactors</text>
</a>
</g>
</g>
<!-- Node16&#45;&gt;Node17 -->
<g id="edge23_Node000016_Node000017" class="edge">
<title>Node16&#45;&gt;Node17</title>
<g id="a_edge23_Node000016_Node000017"><a xlink:title=" ">
<path fill="none" stroke="#63b8ff" d="M1100.93,-138.41C1084.19,-133.63 1066.51,-128.58 1050.31,-123.95"/>
<polygon fill="#63b8ff" stroke="#63b8ff" points="1099.74,-141.71 1110.32,-141.09 1101.67,-134.98 1099.74,-141.71"/>
</a>
</g>
</g>
<!-- Node19 -->
<g id="Node000019" class="node">
<title>Node19</title>
<g id="a_Node000019"><a xlink:href="classsteppable_1_1Number.html#a719a8a93fcfe91b30c38ba0830d6de50" target="_top" xlink:title="Calculates the remainder of two numbers. (Modulus)">
<polygon fill="white" stroke="#666666" points="1046.62,-175.5 931.62,-175.5 931.62,-142 1046.62,-142 1046.62,-175.5"/>
<text text-anchor="start" x="939.62" y="-162" font-family="Helvetica,sans-Serif" font-size="10.00">steppable::Number::</text>
<text text-anchor="middle" x="989.12" y="-149.25" font-family="Helvetica,sans-Serif" font-size="10.00">operator%</text>
</a>
</g>
</g>
<!-- Node16&#45;&gt;Node19 -->
<g id="edge26_Node000016_Node000019" class="edge">
<title>Node16&#45;&gt;Node19</title>
<g id="a_edge26_Node000016_Node000019"><a xlink:title=" ">
<path fill="none" stroke="#63b8ff" d="M1075.16,-158.75C1065.56,-158.75 1056.04,-158.75 1047.05,-158.75"/>
<polygon fill="#63b8ff" stroke="#63b8ff" points="1074.94,-162.25 1084.94,-158.75 1074.94,-155.25 1074.94,-162.25"/>
</a>
</g>
</g>
<!-- Node17&#45;&gt;Node10 -->
<g id="edge24_Node000017_Node000010" class="edge">
<title>Node17&#45;&gt;Node10</title>
<g id="a_edge24_Node000017_Node000010"><a xlink:title=" ">
<path fill="none" stroke="#63b8ff" d="M918.19,-127.09C802.36,-160.99 580.09,-227.11 546.75,-244.75 418.71,-312.49 291.22,-434.27 246.7,-478.82"/>
<polygon fill="#63b8ff" stroke="#63b8ff" points="918.99,-130.5 927.6,-124.33 917.02,-123.78 918.99,-130.5"/>
</a>
</g>
</g>
<!-- Node18 -->
<g id="Node000018" class="node">
<title>Node18</title>
<g id="a_Node000018"><a xlink:href="namespacesteppable_1_1____internals_1_1numUtils.html#a1a51aabb1fe846587df780d136efd45f" target="_top" xlink:title="Check if a number is prime.">
<polygon fill="white" stroke="#666666" points="891.5,-123.5 768.25,-123.5 768.25,-90 891.5,-90 891.5,-123.5"/>
<text text-anchor="start" x="776.25" y="-110" font-family="Helvetica,sans-Serif" font-size="10.00">steppable::__internals</text>
<text text-anchor="middle" x="829.88" y="-97.25" font-family="Helvetica,sans-Serif" font-size="10.00">::numUtils::isPrime</text>
</a>
</g>
</g>
<!-- Node17&#45;&gt;Node18 -->
<g id="edge25_Node000017_Node000018" class="edge">
<title>Node17&#45;&gt;Node18</title>
<g id="a_edge25_Node000017_Node000018"><a xlink:title=" ">
<path fill="none" stroke="#63b8ff" d="M915.98,-106.75C907.89,-106.75 899.7,-106.75 891.77,-106.75"/>
<polygon fill="#63b8ff" stroke="#63b8ff" points="915.81,-110.25 925.81,-106.75 915.81,-103.25 915.81,-110.25"/>
</a>
</g>
</g>
<!-- Node22 -->
<g id="Node000022" class="node">
<title>Node22</title>
<g id="a_Node000022"><a xlink:href="classsteppable_1_1Fraction.html#a4647e3f3062426a91d1ef7cdbde23bb6" target="_top" xlink:title="Initialized a fraction from a number.">
<polygon fill="white" stroke="#666666" points="1043.62,-317.5 934.62,-317.5 934.62,-284 1043.62,-284 1043.62,-317.5"/>
<text text-anchor="start" x="942.62" y="-304" font-family="Helvetica,sans-Serif" font-size="10.00">steppable::Fraction</text>
<text text-anchor="middle" x="989.12" y="-291.25" font-family="Helvetica,sans-Serif" font-size="10.00">::Fraction</text>
</a>
</g>
</g>
<!-- Node21&#45;&gt;Node22 -->
<g id="edge31_Node000021_Node000022" class="edge">
<title>Node21&#45;&gt;Node22</title>
<g id="a_edge31_Node000021_Node000022"><a xlink:title=" ">
<path fill="none" stroke="#63b8ff" d="M1153.3,-430.88C1131.37,-402.25 1092.74,-356.25 1050.75,-326.75 1046.16,-323.52 1041.1,-320.58 1035.93,-317.93"/>
<polygon fill="#63b8ff" stroke="#63b8ff" points="1150.36,-432.79 1159.17,-438.67 1155.95,-428.57 1150.36,-432.79"/>
</a>
</g>
</g>
<!-- Node23 -->
<g id="Node000023" class="node">
<title>Node23</title>
<g id="a_Node000023"><a xlink:href="classsteppable_1_1Fraction.html#a1fa38ab4cede78e19fa478242f6e5b46" target="_top" xlink:title="Initializes a fraction with a specified top component and bottom component.">
<polygon fill="white" stroke="#666666" points="1043.62,-265.5 934.62,-265.5 934.62,-232 1043.62,-232 1043.62,-265.5"/>
<text text-anchor="start" x="942.62" y="-252" font-family="Helvetica,sans-Serif" font-size="10.00">steppable::Fraction</text>
<text text-anchor="middle" x="989.12" y="-239.25" font-family="Helvetica,sans-Serif" font-size="10.00">::Fraction</text>
</a>
</g>
</g>
<!-- Node21&#45;&gt;Node23 -->
<g id="edge32_Node000021_Node000023" class="edge">
<title>Node21&#45;&gt;Node23</title>
<g id="a_edge32_Node000021_Node000023"><a xlink:title=" ">
<path fill="none" stroke="#63b8ff" d="M1160.04,-429.21C1141.63,-390.07 1103.08,-318.28 1050.75,-274.75 1046.79,-271.45 1042.35,-268.51 1037.71,-265.91"/>
<polygon fill="#63b8ff" stroke="#63b8ff" points="1156.81,-430.56 1164.17,-438.18 1163.17,-427.64 1156.81,-430.56"/>
</a>
</g>
</g>
<!-- Node24 -->
<g id="Node000024" class="node">
<title>Node24</title>
<g id="a_Node000024"><a xlink:href="classsteppable_1_1Fraction.html#a21eef8107e9cd1e590f7595c4ecbe147" target="_top" xlink:title="Multiplies two fractions together and stores the result in the current one. This function does it by ...">
<polygon fill="white" stroke="#666666" points="1043.62,-681.5 934.62,-681.5 934.62,-648 1043.62,-648 1043.62,-681.5"/>
<text text-anchor="start" x="942.62" y="-668" font-family="Helvetica,sans-Serif" font-size="10.00">steppable::Fraction</text>
<text text-anchor="middle" x="989.12" y="-655.25" font-family="Helvetica,sans-Serif" font-size="10.00">::operator*=</text>
</a>
</g>
</g>
<!-- Node21&#45;&gt;Node24 -->
<g id="edge33_Node000021_Node000024" class="edge">
<title>Node21&#45;&gt;Node24</title>
<g id="a_edge33_Node000021_Node000024"><a xlink:title=" ">
<path fill="none" stroke="#63b8ff" d="M1160.04,-484.29C1141.63,-523.43 1103.08,-595.22 1050.75,-638.75 1046.79,-642.05 1042.35,-644.99 1037.71,-647.59"/>
<polygon fill="#63b8ff" stroke="#63b8ff" points="1163.17,-485.86 1164.17,-475.32 1156.81,-482.94 1163.17,-485.86"/>
</a>
</g>
</g>
<!-- Node25 -->
<g id="Node000025" class="node">
<title>Node25</title>
<g id="a_Node000025"><a xlink:href="classsteppable_1_1Fraction.html#ab10a5f43f6e60253ab6f4a097c73cf6e" target="_top" xlink:title="Adds two fractions together and stores the result in the current one. This function does it by doing ...">
<polygon fill="white" stroke="#666666" points="1043.62,-629.5 934.62,-629.5 934.62,-596 1043.62,-596 1043.62,-629.5"/>
<text text-anchor="start" x="942.62" y="-616" font-family="Helvetica,sans-Serif" font-size="10.00">steppable::Fraction</text>
<text text-anchor="middle" x="989.12" y="-603.25" font-family="Helvetica,sans-Serif" font-size="10.00">::operator+=</text>
</a>
</g>
</g>
<!-- Node21&#45;&gt;Node25 -->
<g id="edge34_Node000021_Node000025" class="edge">
<title>Node21&#45;&gt;Node25</title>
<g id="a_edge34_Node000021_Node000025"><a xlink:title=" ">
<path fill="none" stroke="#63b8ff" d="M1153.3,-482.62C1131.37,-511.25 1092.74,-557.25 1050.75,-586.75 1046.16,-589.98 1041.1,-592.92 1035.93,-595.57"/>
<polygon fill="#63b8ff" stroke="#63b8ff" points="1155.95,-484.93 1159.17,-474.83 1150.36,-480.71 1155.95,-484.93"/>
</a>
</g>
</g>
<!-- Node26 -->
<g id="Node000026" class="node">
<title>Node26</title>
<g id="a_Node000026"><a xlink:href="classsteppable_1_1Fraction.html#aad3d96fbba7e7a0fa36c3f69f0463b8b" target="_top" xlink:title="Subtracts a fraction from another fraction and stores the result in the current one....">
<polygon fill="white" stroke="#666666" points="1043.62,-577.5 934.62,-577.5 934.62,-544 1043.62,-544 1043.62,-577.5"/>
<text text-anchor="start" x="942.62" y="-564" font-family="Helvetica,sans-Serif" font-size="10.00">steppable::Fraction</text>
<text text-anchor="middle" x="989.12" y="-551.25" font-family="Helvetica,sans-Serif" font-size="10.00">::operator&#45;=</text>
</a>
</g>
</g>
<!-- Node21&#45;&gt;Node26 -->
<g id="edge35_Node000021_Node000026" class="edge">
<title>Node21&#45;&gt;Node26</title>
<g id="a_edge35_Node000021_Node000026"><a xlink:title=" ">
<path fill="none" stroke="#63b8ff" d="M1138.89,-480.24C1115,-496.6 1081.67,-518.33 1050.75,-534.75 1044.98,-537.81 1038.78,-540.8 1032.62,-543.59"/>
<polygon fill="#63b8ff" stroke="#63b8ff" points="1140.72,-483.24 1146.96,-474.67 1136.74,-477.47 1140.72,-483.24"/>
</a>
</g>
</g>
<!-- Node27 -->
<g id="Node000027" class="node">
<title>Node27</title>
<g id="a_Node000027"><a xlink:href="classsteppable_1_1Fraction.html#a86913160c5f596b74be3007bd16bda6b" target="_top" xlink:title="Divides a fraction by abother fraction and stores the result in the current one. This function does i...">
<polygon fill="white" stroke="#666666" points="1043.62,-525.5 934.62,-525.5 934.62,-492 1043.62,-492 1043.62,-525.5"/>
<text text-anchor="start" x="942.62" y="-512" font-family="Helvetica,sans-Serif" font-size="10.00">steppable::Fraction</text>
<text text-anchor="middle" x="989.12" y="-499.25" font-family="Helvetica,sans-Serif" font-size="10.00">::operator/=</text>
</a>
</g>
</g>
<!-- Node21&#45;&gt;Node27 -->
<g id="edge36_Node000021_Node000027" class="edge">
<title>Node21&#45;&gt;Node27</title>
<g id="a_edge36_Node000021_Node000027"><a xlink:title=" ">
<path fill="none" stroke="#63b8ff" d="M1107.52,-475.21C1086.73,-481.15 1063.93,-487.66 1043.99,-493.36"/>
<polygon fill="#63b8ff" stroke="#63b8ff" points="1108.39,-478.6 1117.05,-472.49 1106.47,-471.87 1108.39,-478.6"/>
</a>
</g>
</g>
<!-- Node28 -->
<g id="Node000028" class="node">
<title>Node28</title>
<g id="a_Node000028"><a xlink:href="classsteppable_1_1Fraction.html#ac0a3d392ac70f42f74392fe08c1ab8be" target="_top" xlink:title="Raises the fraction to a power and stores the result in the current one.">
<polygon fill="white" stroke="#666666" points="1043.62,-473.5 934.62,-473.5 934.62,-440 1043.62,-440 1043.62,-473.5"/>
<text text-anchor="start" x="942.62" y="-460" font-family="Helvetica,sans-Serif" font-size="10.00">steppable::Fraction</text>
<text text-anchor="middle" x="989.12" y="-447.25" font-family="Helvetica,sans-Serif" font-size="10.00">::operator^=</text>
</a>
</g>
</g>
<!-- Node21&#45;&gt;Node28 -->
<g id="edge37_Node000021_Node000028" class="edge">
<title>Node21&#45;&gt;Node28</title>
<g id="a_edge37_Node000021_Node000028"><a xlink:title=" ">
<path fill="none" stroke="#63b8ff" d="M1107.23,-456.75C1086.52,-456.75 1063.83,-456.75 1043.99,-456.75"/>
<polygon fill="#63b8ff" stroke="#63b8ff" points="1106.99,-460.25 1116.99,-456.75 1106.99,-453.25 1106.99,-460.25"/>
</a>
</g>
</g>
<!-- Node29 -->
<g id="Node000029" class="node">
<title>Node29</title>
<g id="a_Node000029"><a xlink:href="classsteppable_1_1Fraction.html#a939fea669a7f630672f7215e77f335b6" target="_top" xlink:title="Returns the fraction as a string. The string is formatted as &quot;top/bottom&quot;, and it will automatically ...">
<polygon fill="white" stroke="#666666" points="1043.62,-421.5 934.62,-421.5 934.62,-388 1043.62,-388 1043.62,-421.5"/>
<text text-anchor="start" x="942.62" y="-408" font-family="Helvetica,sans-Serif" font-size="10.00">steppable::Fraction</text>
<text text-anchor="middle" x="989.12" y="-395.25" font-family="Helvetica,sans-Serif" font-size="10.00">::present</text>
</a>
</g>
</g>
<!-- Node21&#45;&gt;Node29 -->
<g id="edge38_Node000021_Node000029" class="edge">
<title>Node21&#45;&gt;Node29</title>
<g id="a_edge38_Node000021_Node000029"><a xlink:title=" ">
<path fill="none" stroke="#63b8ff" d="M1107.52,-438.29C1086.73,-432.35 1063.93,-425.84 1043.99,-420.14"/>
<polygon fill="#63b8ff" stroke="#63b8ff" points="1106.47,-441.63 1117.05,-441.01 1108.39,-434.9 1106.47,-441.63"/>
</a>
</g>
</g>
<!-- Node30 -->
<g id="Node000030" class="node">
<title>Node30</title>
<g id="a_Node000030"><a xlink:href="classsteppable_1_1Fraction.html#a2d20a7ae3e6a1fd18b06c86db601e6e4" target="_top" xlink:title="Converts a fraction to its reciprocal. This function converts the fraction to its reciprocal.">
<polygon fill="white" stroke="#666666" points="1043.62,-369.5 934.62,-369.5 934.62,-336 1043.62,-336 1043.62,-369.5"/>
<text text-anchor="start" x="942.62" y="-356" font-family="Helvetica,sans-Serif" font-size="10.00">steppable::Fraction</text>
<text text-anchor="middle" x="989.12" y="-343.25" font-family="Helvetica,sans-Serif" font-size="10.00">::reciprocal</text>
</a>
</g>
</g>
<!-- Node21&#45;&gt;Node30 -->
<g id="edge39_Node000021_Node000030" class="edge">
<title>Node21&#45;&gt;Node30</title>
<g id="a_edge39_Node000021_Node000030"><a xlink:title=" ">
<path fill="none" stroke="#63b8ff" d="M1138.89,-433.26C1115,-416.9 1081.67,-395.17 1050.75,-378.75 1044.98,-375.69 1038.78,-372.7 1032.62,-369.91"/>
<polygon fill="#63b8ff" stroke="#63b8ff" points="1136.74,-436.03 1146.96,-438.83 1140.72,-430.26 1136.74,-436.03"/>
</a>
</g>
</g>
</g>
</svg>

<g id="navigator" transform="translate(0 0)" fill="#404254">
  <rect fill="#f2f5e9" fill-opacity="0.5" stroke="#606060" stroke-width=".5" x="0" y="0" width="60" height="60"/>
  <use id="zoomplus" xlink:href="#zoomPlus" x="17" y="9" onmousedown="handleZoom(evt,'in')"/>
  <use id="zoomminus" xlink:href="#zoomMin" x="42" y="9" onmousedown="handleZoom(evt,'out')"/>
  <use id="reset" xlink:href="#resetDef" x="30" y="36" onmousedown="handleReset()"/>
   <use id="arrowup" xlink:href="#arrowUp" x="0" y="0" onmousedown="handlePan(0,-1)"/>
  <use id="arrowright" xlink:href="#arrowRight" x="0" y="0" onmousedown="handlePan(1,0)"/>
  <use id="arrowdown" xlink:href="#arrowDown" x="0" y="0" onmousedown="handlePan(0,1)"/>
  <use id="arrowleft" xlink:href="#arrowLeft" x="0" y="0" onmousedown="handlePan(-1,0)"/>
</g>
<svg viewBox="0 0 15 15" width="100%" height="30px" preserveAspectRatio="xMaxYMin meet">
 <g id="arrow_out" transform="scale(0.3 0.3)">
  <a xlink:href="namespacesteppable_1_1____internals_1_1numUtils_a7b6a9b3fac3ca1e80621ce62274a3cc5_icgraph_org.svg" target="_base">
   <rect id="button" ry="5" rx="5" y="6" x="6" height="38" width="38"
        fill="#f2f5e9" fill-opacity="0.5" stroke="#606060" stroke-width="1.0"/>
   <path id="arrow"
     d="M 11.500037,31.436501 C 11.940474,20.09759 22.043105,11.32322 32.158766,21.979434 L 37.068811,17.246167 C 37.068811,17.246167 37.088388,32 37.088388,32 L 22.160133,31.978069 C 22.160133,31.978069 26.997745,27.140456 26.997745,27.140456 C 18.528582,18.264221 13.291696,25.230495 11.500037,31.436501 z"
     style="fill:#404040;"/>
  </a>
 </g>
</svg>

<style type='text/css'>
<![CDATA[
[data-mouse-over-selected='false'] { opacity: 0.7; }
[data-mouse-over-selected='true']  { opacity: 1.0; }
]]>
</style>
<script type="application/ecmascript"><![CDATA[
document.addEventListener('DOMContentLoaded', (event) => {
  highlightEdges();
  highlightAdjacentNodes();
});
]]></script>
</svg>
