<?xml version="1.0" encoding="UTF-8" standalone="no"?>
<!DOCTYPE svg PUBLIC "-//W3C//DTD SVG 1.1//EN"
 "http://www.w3.org/Graphics/SVG/1.1/DTD/svg11.dtd">
<!-- Generated by graphviz version 12.2.0 (20241103.1931)
 -->
<!-- Title: ImGui::DragBehavior Pages: 1 -->
<svg width="943pt" height="68pt"
 viewBox="0.00 0.00 943.25 67.75" xmlns="http://www.w3.org/2000/svg" xmlns:xlink="http://www.w3.org/1999/xlink">
<g id="graph0" class="graph" transform="scale(1 1) rotate(0) translate(4 63.75)">
<title>ImGui::DragBehavior</title>
<!-- Node1 -->
<g id="Node000001" class="node">
<title>Node1</title>
<g id="a_Node000001"><a xlink:title=" ">
<polygon fill="#999999" stroke="#666666" points="118,-39.75 0,-39.75 0,-19 118,-19 118,-39.75"/>
<text text-anchor="middle" x="59" y="-26.25" font-family="Helvetica,sans-Serif" font-size="10.00">ImGui::DragBehavior</text>
</a>
</g>
</g>
<!-- Node2 -->
<g id="Node000002" class="node">
<title>Node2</title>
<g id="a_Node000002"><a xlink:href="namespaceImGui.html#a17ff60ad1e2669130ac38a04d16eb354" target="_top" xlink:title=" ">
<polygon fill="white" stroke="#666666" points="272,-39.75 154,-39.75 154,-19 272,-19 272,-39.75"/>
<text text-anchor="middle" x="213" y="-26.25" font-family="Helvetica,sans-Serif" font-size="10.00">ImGui::ClearActiveID</text>
</a>
</g>
</g>
<!-- Node1&#45;&gt;Node2 -->
<g id="edge1_Node000001_Node000002" class="edge">
<title>Node1&#45;&gt;Node2</title>
<g id="a_edge1_Node000001_Node000002"><a xlink:title=" ">
<path fill="none" stroke="#63b8ff" d="M118.33,-29.38C126.19,-29.38 134.3,-29.38 142.33,-29.38"/>
<polygon fill="#63b8ff" stroke="#63b8ff" points="142.06,-32.88 152.06,-29.38 142.06,-25.88 142.06,-32.88"/>
</a>
</g>
</g>
<!-- Node3 -->
<g id="Node000003" class="node">
<title>Node3</title>
<g id="a_Node000003"><a xlink:href="namespaceImGui.html#a27b8ace13a8c421ee8405f0cbebe4ead" target="_top" xlink:title=" ">
<polygon fill="white" stroke="#666666" points="416.25,-39.75 308,-39.75 308,-19 416.25,-19 416.25,-39.75"/>
<text text-anchor="middle" x="362.12" y="-26.25" font-family="Helvetica,sans-Serif" font-size="10.00">ImGui::SetActiveID</text>
</a>
</g>
</g>
<!-- Node2&#45;&gt;Node3 -->
<g id="edge2_Node000002_Node000003" class="edge">
<title>Node2&#45;&gt;Node3</title>
<g id="a_edge2_Node000002_Node000003"><a xlink:title=" ">
<path fill="none" stroke="#63b8ff" d="M272.15,-29.38C280.12,-29.38 288.34,-29.38 296.42,-29.38"/>
<polygon fill="#63b8ff" stroke="#63b8ff" points="296.19,-32.88 306.19,-29.38 296.19,-25.88 296.19,-32.88"/>
</a>
</g>
</g>
<!-- Node4 -->
<g id="Node000004" class="node">
<title>Node4</title>
<g id="a_Node000004"><a xlink:href="namespaceImGui.html#aad9419cf6e296c668807e3af4bfd62bb" target="_top" xlink:title=" ">
<polygon fill="white" stroke="#666666" points="627.25,-39.75 452.25,-39.75 452.25,-19 627.25,-19 627.25,-39.75"/>
<text text-anchor="middle" x="539.75" y="-26.25" font-family="Helvetica,sans-Serif" font-size="10.00">ImGui::InputTextDeactivateHook</text>
</a>
</g>
</g>
<!-- Node3&#45;&gt;Node4 -->
<g id="edge3_Node000003_Node000004" class="edge">
<title>Node3&#45;&gt;Node4</title>
<g id="a_edge3_Node000003_Node000004"><a xlink:title=" ">
<path fill="none" stroke="#63b8ff" d="M416.29,-29.38C424.07,-29.38 432.27,-29.38 440.6,-29.38"/>
<polygon fill="#63b8ff" stroke="#63b8ff" points="440.5,-32.88 450.5,-29.38 440.5,-25.88 440.5,-32.88"/>
</a>
</g>
</g>
<!-- Node5 -->
<g id="Node000005" class="node">
<title>Node5</title>
<g id="a_Node000005"><a xlink:href="structImVector.html#ac371dd62e56ae486b1a5038cf07eee56" target="_top" xlink:title=" ">
<polygon fill="white" stroke="#666666" points="758,-39.75 663.25,-39.75 663.25,-19 758,-19 758,-39.75"/>
<text text-anchor="middle" x="710.62" y="-26.25" font-family="Helvetica,sans-Serif" font-size="10.00">ImVector::resize</text>
</a>
</g>
</g>
<!-- Node4&#45;&gt;Node5 -->
<g id="edge4_Node000004_Node000005" class="edge">
<title>Node4&#45;&gt;Node5</title>
<g id="a_edge4_Node000004_Node000005"><a xlink:title=" ">
<path fill="none" stroke="#63b8ff" d="M627.66,-29.38C635.71,-29.38 643.73,-29.38 651.43,-29.38"/>
<polygon fill="#63b8ff" stroke="#63b8ff" points="651.31,-32.88 661.31,-29.38 651.31,-25.88 651.31,-32.88"/>
</a>
</g>
</g>
<!-- Node6 -->
<g id="Node000006" class="node">
<title>Node6</title>
<g id="a_Node000006"><a xlink:href="structImVector.html#a3a097635d464b1b70dc7d59996a88b28" target="_top" xlink:title=" ">
<polygon fill="white" stroke="#666666" points="935.25,-59.75 794,-59.75 794,-39 935.25,-39 935.25,-59.75"/>
<text text-anchor="middle" x="864.62" y="-46.25" font-family="Helvetica,sans-Serif" font-size="10.00">ImVector::_grow_capacity</text>
</a>
</g>
</g>
<!-- Node5&#45;&gt;Node6 -->
<g id="edge5_Node000005_Node000006" class="edge">
<title>Node5&#45;&gt;Node6</title>
<g id="a_edge5_Node000005_Node000006"><a xlink:title=" ">
<path fill="none" stroke="#63b8ff" d="M758.47,-35.54C766.15,-36.55 774.29,-37.62 782.51,-38.7"/>
<polygon fill="#63b8ff" stroke="#63b8ff" points="781.87,-42.15 792.24,-39.98 782.78,-35.21 781.87,-42.15"/>
</a>
</g>
</g>
<!-- Node7 -->
<g id="Node000007" class="node">
<title>Node7</title>
<g id="a_Node000007"><a xlink:href="structImVector.html#a0f14f5736c3372157856eebb67123b75" target="_top" xlink:title=" ">
<polygon fill="white" stroke="#666666" points="915.75,-20.75 813.5,-20.75 813.5,0 915.75,0 915.75,-20.75"/>
<text text-anchor="middle" x="864.62" y="-7.25" font-family="Helvetica,sans-Serif" font-size="10.00">ImVector::reserve</text>
</a>
</g>
</g>
<!-- Node5&#45;&gt;Node7 -->
<g id="edge6_Node000005_Node000007" class="edge">
<title>Node5&#45;&gt;Node7</title>
<g id="a_edge6_Node000005_Node000007"><a xlink:title=" ">
<path fill="none" stroke="#63b8ff" d="M758.47,-23.52C772.17,-21.81 787.35,-19.91 801.83,-18.1"/>
<polygon fill="#63b8ff" stroke="#63b8ff" points="802.25,-21.57 811.74,-16.86 801.38,-14.63 802.25,-21.57"/>
</a>
</g>
</g>
</g>
</svg>
