<?xml version="1.0" encoding="UTF-8" standalone="no"?>
<!DOCTYPE svg PUBLIC "-//W3C//DTD SVG 1.1//EN"
 "http://www.w3.org/Graphics/SVG/1.1/DTD/svg11.dtd">
<!-- Generated by graphviz version 12.0.0 (20240704.0754)
 -->
<!-- Title: ImGui::DataTypeApplyFromText Pages: 1 -->
<svg width="1362pt" height="717pt"
 viewBox="0.00 0.00 1362.25 717.02" xmlns="http://www.w3.org/2000/svg" xmlns:xlink="http://www.w3.org/1999/xlink">
<g id="graph0" class="graph" transform="scale(1 1) rotate(0) translate(4 713.02)">
<title>ImGui::DataTypeApplyFromText</title>
<!-- Node1 -->
<g id="Node000001" class="node">
<title>Node1</title>
<g id="a_Node000001"><a xlink:title=" ">
<polygon fill="#999999" stroke="#666666" points="1354.25,-494.02 1184.5,-494.02 1184.5,-473.27 1354.25,-473.27 1354.25,-494.02"/>
<text text-anchor="middle" x="1269.38" y="-480.52" font-family="Helvetica,sans-Serif" font-size="10.00">ImGui::DataTypeApplyFromText</text>
</a>
</g>
</g>
<!-- Node2 -->
<g id="Node000002" class="node">
<title>Node2</title>
<g id="a_Node000002"><a xlink:href="namespaceImGui.html#afdb54540b7480872fbb746f64344b374" target="_top" xlink:title=" ">
<polygon fill="white" stroke="#666666" points="1135.38,-553.02 1029.38,-553.02 1029.38,-532.27 1135.38,-532.27 1135.38,-553.02"/>
<text text-anchor="middle" x="1082.38" y="-539.52" font-family="Helvetica,sans-Serif" font-size="10.00">ImGui::InputScalar</text>
</a>
</g>
</g>
<!-- Node1&#45;&gt;Node2 -->
<g id="edge1_Node000001_Node000002" class="edge">
<title>Node1&#45;&gt;Node2</title>
<g id="a_edge1_Node000001_Node000002"><a xlink:title=" ">
<path fill="none" stroke="#63b8ff" d="M1223.81,-497.86C1191.1,-508.29 1147.33,-522.25 1117.4,-531.79"/>
<polygon fill="#63b8ff" stroke="#63b8ff" points="1224.54,-501.3 1233,-494.93 1222.41,-494.63 1224.54,-501.3"/>
</a>
</g>
</g>
<!-- Node13 -->
<g id="Node000013" class="node">
<title>Node13</title>
<g id="a_Node000013"><a xlink:href="namespaceImGui.html#a392fed3e7db2a75abf217bf84c6abce9" target="_top" xlink:title=" ">
<polygon fill="white" stroke="#666666" points="1148.5,-416.02 1016.25,-416.02 1016.25,-395.27 1148.5,-395.27 1148.5,-416.02"/>
<text text-anchor="middle" x="1082.38" y="-402.52" font-family="Helvetica,sans-Serif" font-size="10.00">ImGui::TempInputScalar</text>
</a>
</g>
</g>
<!-- Node1&#45;&gt;Node13 -->
<g id="edge12_Node000001_Node000013" class="edge">
<title>Node1&#45;&gt;Node13</title>
<g id="a_edge12_Node000001_Node000013"><a xlink:title=" ">
<path fill="none" stroke="#63b8ff" d="M1232.49,-468.51C1196.18,-453.2 1140.94,-429.92 1108.88,-416.4"/>
<polygon fill="#63b8ff" stroke="#63b8ff" points="1230.68,-471.55 1241.26,-472.21 1233.4,-465.1 1230.68,-471.55"/>
</a>
</g>
</g>
<!-- Node3 -->
<g id="Node000003" class="node">
<title>Node3</title>
<g id="a_Node000003"><a xlink:href="namespaceImGui.html#ad941c3cfa561ca35b674fd5802bcf870" target="_top" xlink:title=" ">
<polygon fill="white" stroke="#666666" points="978.75,-553.02 868.25,-553.02 868.25,-532.27 978.75,-532.27 978.75,-553.02"/>
<text text-anchor="middle" x="923.5" y="-539.52" font-family="Helvetica,sans-Serif" font-size="10.00">ImGui::InputDouble</text>
</a>
</g>
</g>
<!-- Node2&#45;&gt;Node3 -->
<g id="edge2_Node000002_Node000003" class="edge">
<title>Node2&#45;&gt;Node3</title>
<g id="a_edge2_Node000002_Node000003"><a xlink:title=" ">
<path fill="none" stroke="#63b8ff" d="M1017.63,-542.64C1004.88,-542.64 991.6,-542.64 979.2,-542.64"/>
<polygon fill="#63b8ff" stroke="#63b8ff" points="1017.62,-546.14 1027.62,-542.64 1017.62,-539.14 1017.62,-546.14"/>
</a>
</g>
</g>
<!-- Node4 -->
<g id="Node000004" class="node">
<title>Node4</title>
<g id="a_Node000004"><a xlink:href="namespaceImGui.html#a36b86c9d7226f18c316400c83a904454" target="_top" xlink:title=" ">
<polygon fill="white" stroke="#666666" points="973.88,-514.02 873.12,-514.02 873.12,-493.27 973.88,-493.27 973.88,-514.02"/>
<text text-anchor="middle" x="923.5" y="-500.52" font-family="Helvetica,sans-Serif" font-size="10.00">ImGui::InputFloat</text>
</a>
</g>
</g>
<!-- Node2&#45;&gt;Node4 -->
<g id="edge3_Node000002_Node000004" class="edge">
<title>Node2&#45;&gt;Node4</title>
<g id="a_edge3_Node000002_Node000004"><a xlink:title=" ">
<path fill="none" stroke="#63b8ff" d="M1026.69,-529.05C1007.56,-524.29 986.35,-519.02 968.24,-514.52"/>
<polygon fill="#63b8ff" stroke="#63b8ff" points="1025.66,-532.4 1036.21,-531.41 1027.35,-525.61 1025.66,-532.4"/>
</a>
</g>
</g>
<!-- Node5 -->
<g id="Node000005" class="node">
<title>Node5</title>
<g id="a_Node000005"><a xlink:href="namespaceImGui.html#a36fc45a3c41a63ea9a983cc851752505" target="_top" xlink:title=" ">
<polygon fill="white" stroke="#666666" points="967.88,-631.02 879.12,-631.02 879.12,-610.27 967.88,-610.27 967.88,-631.02"/>
<text text-anchor="middle" x="923.5" y="-617.52" font-family="Helvetica,sans-Serif" font-size="10.00">ImGui::InputInt</text>
</a>
</g>
</g>
<!-- Node2&#45;&gt;Node5 -->
<g id="edge4_Node000002_Node000005" class="edge">
<title>Node2&#45;&gt;Node5</title>
<g id="a_edge4_Node000002_Node000005"><a xlink:title=" ">
<path fill="none" stroke="#63b8ff" d="M1055.04,-559.46C1035.03,-571.82 1006.54,-588.51 980.25,-600.64 973.06,-603.96 965.15,-607.1 957.61,-609.85"/>
<polygon fill="#63b8ff" stroke="#63b8ff" points="1056.77,-562.51 1063.4,-554.24 1053.07,-556.57 1056.77,-562.51"/>
</a>
</g>
</g>
<!-- Node6 -->
<g id="Node000006" class="node">
<title>Node6</title>
<g id="a_Node000006"><a xlink:href="namespaceImGui.html#afb17f0092027c09183df498834abace9" target="_top" xlink:title=" ">
<polygon fill="white" stroke="#666666" points="980.25,-592.02 866.75,-592.02 866.75,-571.27 980.25,-571.27 980.25,-592.02"/>
<text text-anchor="middle" x="923.5" y="-578.52" font-family="Helvetica,sans-Serif" font-size="10.00">ImGui::InputScalarN</text>
</a>
</g>
</g>
<!-- Node2&#45;&gt;Node6 -->
<g id="edge5_Node000002_Node000006" class="edge">
<title>Node2&#45;&gt;Node6</title>
<g id="a_edge5_Node000002_Node000006"><a xlink:title=" ">
<path fill="none" stroke="#63b8ff" d="M1026.69,-556.24C1007.56,-560.99 986.35,-566.27 968.24,-570.77"/>
<polygon fill="#63b8ff" stroke="#63b8ff" points="1027.35,-559.68 1036.21,-553.87 1025.66,-552.89 1027.35,-559.68"/>
</a>
</g>
</g>
<!-- Node7 -->
<g id="Node000007" class="node">
<title>Node7</title>
<g id="a_Node000007"><a xlink:href="namespaceImGui.html#a854ba6decd4ae7e4b0980a9c71bfa47d" target="_top" xlink:title=" ">
<polygon fill="white" stroke="#666666" points="816.12,-592.02 709.38,-592.02 709.38,-571.27 816.12,-571.27 816.12,-592.02"/>
<text text-anchor="middle" x="762.75" y="-578.52" font-family="Helvetica,sans-Serif" font-size="10.00">ImGui::InputFloat2</text>
</a>
</g>
</g>
<!-- Node6&#45;&gt;Node7 -->
<g id="edge6_Node000006_Node000007" class="edge">
<title>Node6&#45;&gt;Node7</title>
<g id="a_edge6_Node000006_Node000007"><a xlink:title=" ">
<path fill="none" stroke="#63b8ff" d="M855.3,-581.64C842.36,-581.64 828.97,-581.64 816.55,-581.64"/>
<polygon fill="#63b8ff" stroke="#63b8ff" points="855.02,-585.14 865.02,-581.64 855.02,-578.14 855.02,-585.14"/>
</a>
</g>
</g>
<!-- Node8 -->
<g id="Node000008" class="node">
<title>Node8</title>
<g id="a_Node000008"><a xlink:href="namespaceImGui.html#a970a00fd1a4226c697ea5fb807fb62d8" target="_top" xlink:title=" ">
<polygon fill="white" stroke="#666666" points="816.12,-553.02 709.38,-553.02 709.38,-532.27 816.12,-532.27 816.12,-553.02"/>
<text text-anchor="middle" x="762.75" y="-539.52" font-family="Helvetica,sans-Serif" font-size="10.00">ImGui::InputFloat3</text>
</a>
</g>
</g>
<!-- Node6&#45;&gt;Node8 -->
<g id="edge7_Node000006_Node000008" class="edge">
<title>Node6&#45;&gt;Node8</title>
<g id="a_edge7_Node000006_Node000008"><a xlink:title=" ">
<path fill="none" stroke="#63b8ff" d="M867.16,-568.05C847.81,-563.29 826.34,-558.02 808.01,-553.52"/>
<polygon fill="#63b8ff" stroke="#63b8ff" points="866.26,-571.43 876.81,-570.42 867.93,-564.63 866.26,-571.43"/>
</a>
</g>
</g>
<!-- Node9 -->
<g id="Node000009" class="node">
<title>Node9</title>
<g id="a_Node000009"><a xlink:href="namespaceImGui.html#a69675d2e9780a0e5a7a372f936b64d49" target="_top" xlink:title=" ">
<polygon fill="white" stroke="#666666" points="816.12,-514.02 709.38,-514.02 709.38,-493.27 816.12,-493.27 816.12,-514.02"/>
<text text-anchor="middle" x="762.75" y="-500.52" font-family="Helvetica,sans-Serif" font-size="10.00">ImGui::InputFloat4</text>
</a>
</g>
</g>
<!-- Node6&#45;&gt;Node9 -->
<g id="edge8_Node000006_Node000009" class="edge">
<title>Node6&#45;&gt;Node9</title>
<g id="a_edge8_Node000006_Node000009"><a xlink:title=" ">
<path fill="none" stroke="#63b8ff" d="M874.34,-566.06C871.71,-564.69 869.16,-563.22 866.75,-561.64 847.27,-548.92 850.57,-535.83 830.75,-523.64 824.75,-519.96 818.03,-516.91 811.23,-514.41"/>
<polygon fill="#63b8ff" stroke="#63b8ff" points="872.84,-569.21 883.38,-570.21 875.76,-562.85 872.84,-569.21"/>
</a>
</g>
</g>
<!-- Node10 -->
<g id="Node000010" class="node">
<title>Node10</title>
<g id="a_Node000010"><a xlink:href="namespaceImGui.html#a83dfd2daacefb741e67d8d69821e1590" target="_top" xlink:title=" ">
<polygon fill="white" stroke="#666666" points="810.12,-709.02 715.38,-709.02 715.38,-688.27 810.12,-688.27 810.12,-709.02"/>
<text text-anchor="middle" x="762.75" y="-695.52" font-family="Helvetica,sans-Serif" font-size="10.00">ImGui::InputInt2</text>
</a>
</g>
</g>
<!-- Node6&#45;&gt;Node10 -->
<g id="edge9_Node000006_Node000010" class="edge">
<title>Node6&#45;&gt;Node10</title>
<g id="a_edge9_Node000006_Node000010"><a xlink:title=" ">
<path fill="none" stroke="#63b8ff" d="M870.72,-598.39C869.34,-599.41 868.01,-600.5 866.75,-601.64 838.83,-627.09 859.36,-653.97 830.75,-678.64 824.87,-683.72 817.74,-687.51 810.35,-690.33"/>
<polygon fill="#63b8ff" stroke="#63b8ff" points="872.46,-601.43 879.23,-593.28 868.86,-595.43 872.46,-601.43"/>
</a>
</g>
</g>
<!-- Node11 -->
<g id="Node000011" class="node">
<title>Node11</title>
<g id="a_Node000011"><a xlink:href="namespaceImGui.html#ab8e7466e5bdda70fefa551eb662dc3f5" target="_top" xlink:title=" ">
<polygon fill="white" stroke="#666666" points="810.12,-670.02 715.38,-670.02 715.38,-649.27 810.12,-649.27 810.12,-670.02"/>
<text text-anchor="middle" x="762.75" y="-656.52" font-family="Helvetica,sans-Serif" font-size="10.00">ImGui::InputInt3</text>
</a>
</g>
</g>
<!-- Node6&#45;&gt;Node11 -->
<g id="edge10_Node000006_Node000011" class="edge">
<title>Node6&#45;&gt;Node11</title>
<g id="a_edge10_Node000006_Node000011"><a xlink:title=" ">
<path fill="none" stroke="#63b8ff" d="M874.34,-597.23C871.71,-598.6 869.16,-600.07 866.75,-601.64 847.27,-614.36 850.57,-627.46 830.75,-639.64 824.55,-643.46 817.57,-646.58 810.52,-649.13"/>
<polygon fill="#63b8ff" stroke="#63b8ff" points="875.76,-600.43 883.38,-593.08 872.84,-594.07 875.76,-600.43"/>
</a>
</g>
</g>
<!-- Node12 -->
<g id="Node000012" class="node">
<title>Node12</title>
<g id="a_Node000012"><a xlink:href="namespaceImGui.html#a3a57668b83f7a99d295f94baa71add0a" target="_top" xlink:title=" ">
<polygon fill="white" stroke="#666666" points="810.12,-631.02 715.38,-631.02 715.38,-610.27 810.12,-610.27 810.12,-631.02"/>
<text text-anchor="middle" x="762.75" y="-617.52" font-family="Helvetica,sans-Serif" font-size="10.00">ImGui::InputInt4</text>
</a>
</g>
</g>
<!-- Node6&#45;&gt;Node12 -->
<g id="edge11_Node000006_Node000012" class="edge">
<title>Node6&#45;&gt;Node12</title>
<g id="a_edge11_Node000006_Node000012"><a xlink:title=" ">
<path fill="none" stroke="#63b8ff" d="M867.16,-595.24C847.81,-599.99 826.34,-605.27 808.01,-609.77"/>
<polygon fill="#63b8ff" stroke="#63b8ff" points="867.93,-598.65 876.81,-592.87 866.26,-591.86 867.93,-598.65"/>
</a>
</g>
</g>
<!-- Node14 -->
<g id="Node000014" class="node">
<title>Node14</title>
<g id="a_Node000014"><a xlink:href="namespaceImGui.html#a17d8926e8f44a6d00575b12081c51fe0" target="_top" xlink:title=" ">
<polygon fill="white" stroke="#666666" points="975.75,-416.02 871.25,-416.02 871.25,-395.27 975.75,-395.27 975.75,-416.02"/>
<text text-anchor="middle" x="923.5" y="-402.52" font-family="Helvetica,sans-Serif" font-size="10.00">ImGui::DragScalar</text>
</a>
</g>
</g>
<!-- Node13&#45;&gt;Node14 -->
<g id="edge13_Node000013_Node000014" class="edge">
<title>Node13&#45;&gt;Node14</title>
<g id="a_edge13_Node000013_Node000014"><a xlink:title=" ">
<path fill="none" stroke="#63b8ff" d="M1004.48,-405.64C994.83,-405.64 985.15,-405.64 976.02,-405.64"/>
<polygon fill="#63b8ff" stroke="#63b8ff" points="1004.24,-409.14 1014.24,-405.64 1004.24,-402.14 1004.24,-409.14"/>
</a>
</g>
</g>
<!-- Node37 -->
<g id="Node000037" class="node">
<title>Node37</title>
<g id="a_Node000037"><a xlink:href="namespaceImGui.html#afdd7faa9a69f75b8d674cdc207441bea" target="_top" xlink:title=" ">
<polygon fill="white" stroke="#666666" points="817.25,-107.02 708.25,-107.02 708.25,-86.27 817.25,-86.27 817.25,-107.02"/>
<text text-anchor="middle" x="762.75" y="-93.52" font-family="Helvetica,sans-Serif" font-size="10.00">ImGui::SliderScalar</text>
</a>
</g>
</g>
<!-- Node13&#45;&gt;Node37 -->
<g id="edge42_Node000013_Node000037" class="edge">
<title>Node13&#45;&gt;Node37</title>
<g id="a_edge42_Node000013_Node000037"><a xlink:title=" ">
<path fill="none" stroke="#63b8ff" d="M1062.25,-387.04C1002.58,-328.99 821.03,-152.37 774.64,-107.24"/>
<polygon fill="#63b8ff" stroke="#63b8ff" points="1059.75,-389.49 1069.36,-393.95 1064.63,-384.47 1059.75,-389.49"/>
</a>
</g>
</g>
<!-- Node15 -->
<g id="Node000015" class="node">
<title>Node15</title>
<g id="a_Node000015"><a xlink:href="namespaceImGui.html#aab1b20e7bf98aa7bbdb26f8cd3ad91e6" target="_top" xlink:title=" ">
<polygon fill="white" stroke="#666666" points="812.38,-436.02 713.12,-436.02 713.12,-415.27 812.38,-415.27 812.38,-436.02"/>
<text text-anchor="middle" x="762.75" y="-422.52" font-family="Helvetica,sans-Serif" font-size="10.00">ImGui::DragFloat</text>
</a>
</g>
</g>
<!-- Node14&#45;&gt;Node15 -->
<g id="edge14_Node000014_Node000015" class="edge">
<title>Node14&#45;&gt;Node15</title>
<g id="a_edge14_Node000014_Node000015"><a xlink:title=" ">
<path fill="none" stroke="#63b8ff" d="M859.8,-413.54C844.2,-415.51 827.71,-417.59 812.87,-419.46"/>
<polygon fill="#63b8ff" stroke="#63b8ff" points="859.97,-417.05 869.46,-412.33 859.1,-410.1 859.97,-417.05"/>
</a>
</g>
</g>
<!-- Node27 -->
<g id="Node000027" class="node">
<title>Node27</title>
<g id="a_Node000027"><a xlink:href="namespaceImGui.html#aa6bfd93ead5c47e84b66185da88b8e8c" target="_top" xlink:title=" ">
<polygon fill="white" stroke="#666666" points="830.75,-397.02 694.75,-397.02 694.75,-376.27 830.75,-376.27 830.75,-397.02"/>
<text text-anchor="middle" x="762.75" y="-383.52" font-family="Helvetica,sans-Serif" font-size="10.00">ImGui::DragFloatRange2</text>
</a>
</g>
</g>
<!-- Node14&#45;&gt;Node27 -->
<g id="edge31_Node000014_Node000027" class="edge">
<title>Node14&#45;&gt;Node27</title>
<g id="a_edge31_Node000014_Node000027"><a xlink:title=" ">
<path fill="none" stroke="#63b8ff" d="M859.73,-398.13C850.37,-397.01 840.68,-395.85 831.22,-394.72"/>
<polygon fill="#63b8ff" stroke="#63b8ff" points="859.11,-401.58 869.46,-399.3 859.94,-394.63 859.11,-401.58"/>
</a>
</g>
</g>
<!-- Node28 -->
<g id="Node000028" class="node">
<title>Node28</title>
<g id="a_Node000028"><a xlink:href="namespaceImGui.html#a3714db739ae51fc75601d7fad234a58b" target="_top" xlink:title=" ">
<polygon fill="white" stroke="#666666" points="806.38,-475.02 719.12,-475.02 719.12,-454.27 806.38,-454.27 806.38,-475.02"/>
<text text-anchor="middle" x="762.75" y="-461.52" font-family="Helvetica,sans-Serif" font-size="10.00">ImGui::DragInt</text>
</a>
</g>
</g>
<!-- Node14&#45;&gt;Node28 -->
<g id="edge32_Node000014_Node000028" class="edge">
<title>Node14&#45;&gt;Node28</title>
<g id="a_edge32_Node000014_Node000028"><a xlink:title=" ">
<path fill="none" stroke="#63b8ff" d="M888.91,-420.99C871.7,-428.58 850.3,-437.6 830.75,-444.64 821.73,-447.9 811.89,-451.05 802.61,-453.85"/>
<polygon fill="#63b8ff" stroke="#63b8ff" points="889.93,-424.36 897.64,-417.1 887.09,-417.97 889.93,-424.36"/>
</a>
</g>
</g>
<!-- Node30 -->
<g id="Node000030" class="node">
<title>Node30</title>
<g id="a_Node000030"><a xlink:href="namespaceImGui.html#a1265d2b30ced1fca909e26c8f718fcbd" target="_top" xlink:title=" ">
<polygon fill="white" stroke="#666666" points="818.75,-282.02 706.75,-282.02 706.75,-261.27 818.75,-261.27 818.75,-282.02"/>
<text text-anchor="middle" x="762.75" y="-268.52" font-family="Helvetica,sans-Serif" font-size="10.00">ImGui::DragScalarN</text>
</a>
</g>
</g>
<!-- Node14&#45;&gt;Node30 -->
<g id="edge35_Node000014_Node000030" class="edge">
<title>Node14&#45;&gt;Node30</title>
<g id="a_edge35_Node000014_Node000030"><a xlink:title=" ">
<path fill="none" stroke="#63b8ff" d="M901.19,-387.66C867.7,-359.39 803.76,-305.41 776.53,-282.43"/>
<polygon fill="#63b8ff" stroke="#63b8ff" points="898.72,-390.15 908.62,-393.93 903.24,-384.8 898.72,-390.15"/>
</a>
</g>
</g>
<!-- Node16 -->
<g id="Node000016" class="node">
<title>Node16</title>
<g id="a_Node000016"><a xlink:href="namespaceImGui.html#ac3f45e2aa0b1d591cc8a2cdf8b566a45" target="_top" xlink:title=" ">
<polygon fill="white" stroke="#666666" points="644.88,-475.02 543.38,-475.02 543.38,-454.27 644.88,-454.27 644.88,-475.02"/>
<text text-anchor="middle" x="594.12" y="-461.52" font-family="Helvetica,sans-Serif" font-size="10.00">ImGui::ColorEdit4</text>
</a>
</g>
</g>
<!-- Node15&#45;&gt;Node16 -->
<g id="edge15_Node000015_Node000016" class="edge">
<title>Node15&#45;&gt;Node16</title>
<g id="a_edge15_Node000015_Node000016"><a xlink:title=" ">
<path fill="none" stroke="#63b8ff" d="M704.24,-439.1C683.77,-443.9 661,-449.22 641.58,-453.77"/>
<polygon fill="#63b8ff" stroke="#63b8ff" points="704.92,-442.54 713.86,-436.85 703.33,-435.72 704.92,-442.54"/>
</a>
</g>
</g>
<!-- Node22 -->
<g id="Node000022" class="node">
<title>Node22</title>
<g id="a_Node000022"><a xlink:href="namespaceImGui.html#ab2eb3dec78d054fe3feab1c091ec5de5" target="_top" xlink:title=" ">
<polygon fill="white" stroke="#666666" points="323.38,-334.02 192.62,-334.02 192.62,-313.27 323.38,-313.27 323.38,-334.02"/>
<text text-anchor="middle" x="258" y="-320.52" font-family="Helvetica,sans-Serif" font-size="10.00">ImGui::ShowStyleEditor</text>
</a>
</g>
</g>
<!-- Node15&#45;&gt;Node22 -->
<g id="edge30_Node000015_Node000022" class="edge">
<title>Node15&#45;&gt;Node22</title>
<g id="a_edge30_Node000015_Node000022"><a xlink:title=" ">
<path fill="none" stroke="#63b8ff" d="M701.68,-412.89C647.34,-401.4 565.11,-384.14 493.5,-369.64 432.71,-357.34 362.95,-343.72 315.42,-334.51"/>
<polygon fill="#63b8ff" stroke="#63b8ff" points="700.85,-416.29 711.36,-414.93 702.3,-409.44 700.85,-416.29"/>
</a>
</g>
</g>
<!-- Node24 -->
<g id="Node000024" class="node">
<title>Node24</title>
<g id="a_Node000024"><a xlink:href="namespaceImGui.html#ae0207d60728f7e6a47dbcd1d7d84e3cb" target="_top" xlink:title=" ">
<polygon fill="white" stroke="#666666" points="658.75,-436.02 529.5,-436.02 529.5,-415.27 658.75,-415.27 658.75,-436.02"/>
<text text-anchor="middle" x="594.12" y="-422.52" font-family="Helvetica,sans-Serif" font-size="10.00">ImGui::DebugNodeFont</text>
</a>
</g>
</g>
<!-- Node15&#45;&gt;Node24 -->
<g id="edge25_Node000015_Node000024" class="edge">
<title>Node15&#45;&gt;Node24</title>
<g id="a_edge25_Node000015_Node000024"><a xlink:title=" ">
<path fill="none" stroke="#63b8ff" d="M701.35,-425.64C687.59,-425.64 672.92,-425.64 659.02,-425.64"/>
<polygon fill="#63b8ff" stroke="#63b8ff" points="701.14,-429.14 711.14,-425.64 701.14,-422.14 701.14,-429.14"/>
</a>
</g>
</g>
<!-- Node17 -->
<g id="Node000017" class="node">
<title>Node17</title>
<g id="a_Node000017"><a xlink:href="namespaceImGui.html#a5afe76ba1c91f07363e40396e7df656e" target="_top" xlink:title=" ">
<polygon fill="white" stroke="#666666" points="482.62,-475.02 381.12,-475.02 381.12,-454.27 482.62,-454.27 482.62,-475.02"/>
<text text-anchor="middle" x="431.88" y="-461.52" font-family="Helvetica,sans-Serif" font-size="10.00">ImGui::ColorEdit3</text>
</a>
</g>
</g>
<!-- Node16&#45;&gt;Node17 -->
<g id="edge16_Node000016_Node000017" class="edge">
<title>Node16&#45;&gt;Node17</title>
<g id="a_edge16_Node000016_Node000017"><a xlink:title=" ">
<path fill="none" stroke="#63b8ff" d="M532.25,-464.64C515.97,-464.64 498.57,-464.64 482.95,-464.64"/>
<polygon fill="#63b8ff" stroke="#63b8ff" points="531.79,-468.14 541.79,-464.64 531.79,-461.14 531.79,-468.14"/>
</a>
</g>
</g>
<!-- Node19 -->
<g id="Node000019" class="node">
<title>Node19</title>
<g id="a_Node000019"><a xlink:href="namespaceImGui.html#a3d5aae9e0a14aa051d5a799abbe97b32" target="_top" xlink:title=" ">
<polygon fill="white" stroke="#666666" points="487.88,-514.02 375.88,-514.02 375.88,-493.27 487.88,-493.27 487.88,-514.02"/>
<text text-anchor="middle" x="431.88" y="-500.52" font-family="Helvetica,sans-Serif" font-size="10.00">ImGui::ColorPicker4</text>
</a>
</g>
</g>
<!-- Node16&#45;&gt;Node19 -->
<g id="edge18_Node000016_Node000019" class="edge">
<title>Node16&#45;&gt;Node19</title>
<g id="a_edge18_Node000016_Node000019"><a xlink:title=" ">
<path fill="none" stroke="#63b8ff" d="M532.23,-472.89C505.89,-478.81 476.61,-486.47 456.7,-492.88"/>
<polygon fill="#63b8ff" stroke="#63b8ff" points="532.8,-476.35 541.82,-470.79 531.3,-469.51 532.8,-476.35"/>
</a>
</g>
</g>
<!-- Node16&#45;&gt;Node22 -->
<g id="edge23_Node000016_Node000022" class="edge">
<title>Node16&#45;&gt;Node22</title>
<g id="a_edge23_Node000016_Node000022"><a xlink:title=" ">
<path fill="none" stroke="#63b8ff" d="M531.92,-451.31C470.67,-437.59 383.64,-416.96 370.25,-407.64 347.18,-391.59 356.04,-373.4 334.25,-355.64 322.91,-346.41 308.52,-339.42 295.36,-334.37"/>
<polygon fill="#63b8ff" stroke="#63b8ff" points="531.04,-454.69 541.56,-453.45 532.56,-447.86 531.04,-454.69"/>
</a>
</g>
</g>
<!-- Node18 -->
<g id="Node000018" class="node">
<title>Node18</title>
<g id="a_Node000018"><a xlink:href="structExampleAppDocuments.html#a007a1a59693a3c7fc7d87815e022dbe4" target="_top" xlink:title=" ">
<polygon fill="white" stroke="#666666" points="324.5,-444.39 191.5,-444.39 191.5,-410.89 324.5,-410.89 324.5,-444.39"/>
<text text-anchor="start" x="199.5" y="-430.89" font-family="Helvetica,sans-Serif" font-size="10.00">ExampleAppDocuments</text>
<text text-anchor="middle" x="258" y="-418.14" font-family="Helvetica,sans-Serif" font-size="10.00">::DisplayDocContents</text>
</a>
</g>
</g>
<!-- Node17&#45;&gt;Node18 -->
<g id="edge17_Node000017_Node000018" class="edge">
<title>Node17&#45;&gt;Node18</title>
<g id="a_edge17_Node000017_Node000018"><a xlink:title=" ">
<path fill="none" stroke="#63b8ff" d="M369.81,-451.5C355.26,-448.37 339.67,-445.01 324.91,-441.83"/>
<polygon fill="#63b8ff" stroke="#63b8ff" points="368.71,-454.84 379.22,-453.52 370.18,-448 368.71,-454.84"/>
</a>
</g>
</g>
<!-- Node19&#45;&gt;Node16 -->
<g id="edge19_Node000019_Node000016" class="edge">
<title>Node19&#45;&gt;Node16</title>
<g id="a_edge19_Node000019_Node000016"><a xlink:title=" ">
<path fill="none" stroke="#63b8ff" d="M499.47,-494.1C524.18,-488.4 550.66,-481.4 569.13,-475.47"/>
<polygon fill="#63b8ff" stroke="#63b8ff" points="498.75,-490.68 489.76,-496.28 500.28,-497.51 498.75,-490.68"/>
</a>
</g>
</g>
<!-- Node20 -->
<g id="Node000020" class="node">
<title>Node20</title>
<g id="a_Node000020"><a xlink:href="namespaceImGui.html#a2a2a98cb9a17b18702be6b954670b388" target="_top" xlink:title=" ">
<polygon fill="white" stroke="#666666" points="314,-483.02 202,-483.02 202,-462.27 314,-462.27 314,-483.02"/>
<text text-anchor="middle" x="258" y="-469.52" font-family="Helvetica,sans-Serif" font-size="10.00">ImGui::ColorPicker3</text>
</a>
</g>
</g>
<!-- Node19&#45;&gt;Node20 -->
<g id="edge20_Node000019_Node000020" class="edge">
<title>Node19&#45;&gt;Node20</title>
<g id="a_edge20_Node000019_Node000020"><a xlink:title=" ">
<path fill="none" stroke="#63b8ff" d="M364.28,-491.63C347.73,-488.65 330.16,-485.48 314.22,-482.6"/>
<polygon fill="#63b8ff" stroke="#63b8ff" points="363.59,-495.07 374.06,-493.4 364.84,-488.18 363.59,-495.07"/>
</a>
</g>
</g>
<!-- Node21 -->
<g id="Node000021" class="node">
<title>Node21</title>
<g id="a_Node000021"><a xlink:href="namespaceImGui.html#a6d112eeb6d8ffdebbc9d9a8c66babbee" target="_top" xlink:title=" ">
<polygon fill="white" stroke="#666666" points="329.75,-534.39 186.25,-534.39 186.25,-500.89 329.75,-500.89 329.75,-534.39"/>
<text text-anchor="start" x="194.25" y="-520.89" font-family="Helvetica,sans-Serif" font-size="10.00">ImGui::ColorPickerOptions</text>
<text text-anchor="middle" x="258" y="-508.14" font-family="Helvetica,sans-Serif" font-size="10.00">Popup</text>
</a>
</g>
</g>
<!-- Node19&#45;&gt;Node21 -->
<g id="edge21_Node000019_Node000021" class="edge">
<title>Node19&#45;&gt;Node21</title>
<g id="a_edge21_Node000019_Node000021"><a xlink:title=" ">
<path fill="none" stroke="#63b8ff" d="M364.16,-502.48C353.04,-503.21 341.47,-504.13 330.25,-505.18"/>
<polygon fill="#63b8ff" stroke="#63b8ff" points="364.26,-505.98 374.04,-501.89 363.84,-498.99 364.26,-505.98"/>
</a>
</g>
</g>
<!-- Node21&#45;&gt;Node19 -->
<g id="edge22_Node000021_Node000019" class="edge">
<title>Node21&#45;&gt;Node19</title>
<g id="a_edge22_Node000021_Node000019"><a xlink:title=" ">
<path fill="none" stroke="#63b8ff" d="M341.68,-517.66C353.16,-516.75 364.73,-515.68 375.55,-514.5"/>
<polygon fill="#63b8ff" stroke="#63b8ff" points="341.47,-514.16 331.76,-518.39 341.99,-521.14 341.47,-514.16"/>
</a>
</g>
</g>
<!-- Node23 -->
<g id="Node000023" class="node">
<title>Node23</title>
<g id="a_Node000023"><a xlink:href="namespaceImGui.html#af95643a0ce4893b9e57c12991922fb18" target="_top" xlink:title=" ">
<polygon fill="white" stroke="#666666" points="145.75,-334.02 0,-334.02 0,-313.27 145.75,-313.27 145.75,-334.02"/>
<text text-anchor="middle" x="72.88" y="-320.52" font-family="Helvetica,sans-Serif" font-size="10.00">ImGui::ShowDemoWindow</text>
</a>
</g>
</g>
<!-- Node22&#45;&gt;Node23 -->
<g id="edge24_Node000022_Node000023" class="edge">
<title>Node22&#45;&gt;Node23</title>
<g id="a_edge24_Node000022_Node000023"><a xlink:title=" ">
<path fill="none" stroke="#63b8ff" d="M180.82,-323.64C169.33,-323.64 157.5,-323.64 146.09,-323.64"/>
<polygon fill="#63b8ff" stroke="#63b8ff" points="180.67,-327.14 190.67,-323.64 180.67,-320.14 180.67,-327.14"/>
</a>
</g>
</g>
<!-- Node25 -->
<g id="Node000025" class="node">
<title>Node25</title>
<g id="a_Node000025"><a xlink:href="namespaceImGui.html#acab51ec2b39577845309f24535381038" target="_top" xlink:title=" ">
<polygon fill="white" stroke="#666666" points="493.5,-399.02 370.25,-399.02 370.25,-378.27 493.5,-378.27 493.5,-399.02"/>
<text text-anchor="middle" x="431.88" y="-385.52" font-family="Helvetica,sans-Serif" font-size="10.00">ImGui::ShowFontAtlas</text>
</a>
</g>
</g>
<!-- Node24&#45;&gt;Node25 -->
<g id="edge26_Node000024_Node000025" class="edge">
<title>Node24&#45;&gt;Node25</title>
<g id="a_edge26_Node000024_Node000025"><a xlink:title=" ">
<path fill="none" stroke="#63b8ff" d="M535.24,-412.28C517,-408.07 497.09,-403.47 479.71,-399.46"/>
<polygon fill="#63b8ff" stroke="#63b8ff" points="534.34,-415.66 544.87,-414.5 535.91,-408.84 534.34,-415.66"/>
</a>
</g>
</g>
<!-- Node25&#45;&gt;Node22 -->
<g id="edge29_Node000025_Node000022" class="edge">
<title>Node25&#45;&gt;Node22</title>
<g id="a_edge29_Node000025_Node000022"><a xlink:title=" ">
<path fill="none" stroke="#63b8ff" d="M391.85,-373.88C360.17,-361.9 316.23,-345.29 287.71,-334.5"/>
<polygon fill="#63b8ff" stroke="#63b8ff" points="390.49,-377.11 401.08,-377.38 392.96,-370.56 390.49,-377.11"/>
</a>
</g>
</g>
<!-- Node26 -->
<g id="Node000026" class="node">
<title>Node26</title>
<g id="a_Node000026"><a xlink:href="namespaceImGui.html#afe7a28c6eb52fff3cc27d5a698fea4ff" target="_top" xlink:title=" ">
<polygon fill="white" stroke="#666666" points="334.25,-385.02 181.75,-385.02 181.75,-364.27 334.25,-364.27 334.25,-385.02"/>
<text text-anchor="middle" x="258" y="-371.52" font-family="Helvetica,sans-Serif" font-size="10.00">ImGui::ShowMetricsWindow</text>
</a>
</g>
</g>
<!-- Node25&#45;&gt;Node26 -->
<g id="edge27_Node000025_Node000026" class="edge">
<title>Node25&#45;&gt;Node26</title>
<g id="a_edge27_Node000025_Node000026"><a xlink:title=" ">
<path fill="none" stroke="#63b8ff" d="M358.41,-382.74C350.55,-382.1 342.53,-381.45 334.63,-380.8"/>
<polygon fill="#63b8ff" stroke="#63b8ff" points="358.03,-386.22 368.29,-383.55 358.6,-379.25 358.03,-386.22"/>
</a>
</g>
</g>
<!-- Node26&#45;&gt;Node23 -->
<g id="edge28_Node000026_Node000023" class="edge">
<title>Node26&#45;&gt;Node23</title>
<g id="a_edge28_Node000026_Node000023"><a xlink:title=" ">
<path fill="none" stroke="#63b8ff" d="M207.17,-360.76C177.42,-352.48 140.2,-342.11 112.66,-334.44"/>
<polygon fill="#63b8ff" stroke="#63b8ff" points="206.13,-364.11 216.71,-363.42 208.01,-357.37 206.13,-364.11"/>
</a>
</g>
</g>
<!-- Node28&#45;&gt;Node16 -->
<g id="edge33_Node000028_Node000016" class="edge">
<title>Node28&#45;&gt;Node16</title>
<g id="a_edge33_Node000028_Node000016"><a xlink:title=" ">
<path fill="none" stroke="#63b8ff" d="M707.41,-464.64C687.42,-464.64 664.89,-464.64 645.28,-464.64"/>
<polygon fill="#63b8ff" stroke="#63b8ff" points="707.33,-468.14 717.33,-464.64 707.33,-461.14 707.33,-468.14"/>
</a>
</g>
</g>
<!-- Node29 -->
<g id="Node000029" class="node">
<title>Node29</title>
<g id="a_Node000029"><a xlink:href="namespaceImGui.html#a27a0380e0480671c7cd854dd7bfc6bd1" target="_top" xlink:title=" ">
<polygon fill="white" stroke="#666666" points="656.12,-514.02 532.12,-514.02 532.12,-493.27 656.12,-493.27 656.12,-514.02"/>
<text text-anchor="middle" x="594.12" y="-500.52" font-family="Helvetica,sans-Serif" font-size="10.00">ImGui::DragIntRange2</text>
</a>
</g>
</g>
<!-- Node28&#45;&gt;Node29 -->
<g id="edge34_Node000028_Node000029" class="edge">
<title>Node28&#45;&gt;Node29</title>
<g id="a_edge34_Node000028_Node000029"><a xlink:title=" ">
<path fill="none" stroke="#63b8ff" d="M707.64,-477.31C686.26,-482.31 661.94,-488 641.4,-492.81"/>
<polygon fill="#63b8ff" stroke="#63b8ff" points="708.43,-480.72 717.37,-475.03 706.83,-473.9 708.43,-480.72"/>
</a>
</g>
</g>
<!-- Node31 -->
<g id="Node000031" class="node">
<title>Node31</title>
<g id="a_Node000031"><a xlink:href="namespaceImGui.html#afc9ce10d78534a5c186cee0b337f7471" target="_top" xlink:title=" ">
<polygon fill="white" stroke="#666666" points="646.75,-204.02 541.5,-204.02 541.5,-183.27 646.75,-183.27 646.75,-204.02"/>
<text text-anchor="middle" x="594.12" y="-190.52" font-family="Helvetica,sans-Serif" font-size="10.00">ImGui::DragFloat2</text>
</a>
</g>
</g>
<!-- Node30&#45;&gt;Node31 -->
<g id="edge36_Node000030_Node000031" class="edge">
<title>Node30&#45;&gt;Node31</title>
<g id="a_edge36_Node000030_Node000031"><a xlink:title=" ">
<path fill="none" stroke="#63b8ff" d="M735.67,-254.95C715.3,-242.41 685.98,-225.44 658.75,-213.64 650.89,-210.24 642.25,-207.13 633.95,-204.43"/>
<polygon fill="#63b8ff" stroke="#63b8ff" points="733.55,-257.75 743.89,-260.08 737.26,-251.81 733.55,-257.75"/>
</a>
</g>
</g>
<!-- Node32 -->
<g id="Node000032" class="node">
<title>Node32</title>
<g id="a_Node000032"><a xlink:href="namespaceImGui.html#a5ffcbb0240077cf2f300960db3c0a3d7" target="_top" xlink:title=" ">
<polygon fill="white" stroke="#666666" points="646.75,-165.02 541.5,-165.02 541.5,-144.27 646.75,-144.27 646.75,-165.02"/>
<text text-anchor="middle" x="594.12" y="-151.52" font-family="Helvetica,sans-Serif" font-size="10.00">ImGui::DragFloat3</text>
</a>
</g>
</g>
<!-- Node30&#45;&gt;Node32 -->
<g id="edge37_Node000030_Node000032" class="edge">
<title>Node30&#45;&gt;Node32</title>
<g id="a_edge37_Node000030_Node000032"><a xlink:title=" ">
<path fill="none" stroke="#63b8ff" d="M745.98,-252.24C727.29,-230.45 694.2,-195.41 658.75,-174.64 652.56,-171.01 645.63,-167.97 638.69,-165.44"/>
<polygon fill="#63b8ff" stroke="#63b8ff" points="743.21,-254.38 752.31,-259.8 748.57,-249.89 743.21,-254.38"/>
</a>
</g>
</g>
<!-- Node33 -->
<g id="Node000033" class="node">
<title>Node33</title>
<g id="a_Node000033"><a xlink:href="namespaceImGui.html#a43e4508fb0c6a82cf6d78a645965dd57" target="_top" xlink:title=" ">
<polygon fill="white" stroke="#666666" points="646.75,-360.02 541.5,-360.02 541.5,-339.27 646.75,-339.27 646.75,-360.02"/>
<text text-anchor="middle" x="594.12" y="-346.52" font-family="Helvetica,sans-Serif" font-size="10.00">ImGui::DragFloat4</text>
</a>
</g>
</g>
<!-- Node30&#45;&gt;Node33 -->
<g id="edge38_Node000030_Node000033" class="edge">
<title>Node30&#45;&gt;Node33</title>
<g id="a_edge38_Node000030_Node000033"><a xlink:title=" ">
<path fill="none" stroke="#63b8ff" d="M735.67,-288.34C715.3,-300.88 685.98,-317.85 658.75,-329.64 650.89,-333.05 642.25,-336.16 633.95,-338.85"/>
<polygon fill="#63b8ff" stroke="#63b8ff" points="737.26,-291.48 743.89,-283.21 733.55,-285.54 737.26,-291.48"/>
</a>
</g>
</g>
<!-- Node34 -->
<g id="Node000034" class="node">
<title>Node34</title>
<g id="a_Node000034"><a xlink:href="namespaceImGui.html#a56e3ba8164b0b78b46f01a3a2f7fe00b" target="_top" xlink:title=" ">
<polygon fill="white" stroke="#666666" points="640.75,-321.02 547.5,-321.02 547.5,-300.27 640.75,-300.27 640.75,-321.02"/>
<text text-anchor="middle" x="594.12" y="-307.52" font-family="Helvetica,sans-Serif" font-size="10.00">ImGui::DragInt2</text>
</a>
</g>
</g>
<!-- Node30&#45;&gt;Node34 -->
<g id="edge39_Node000030_Node000034" class="edge">
<title>Node30&#45;&gt;Node34</title>
<g id="a_edge39_Node000030_Node000034"><a xlink:title=" ">
<path fill="none" stroke="#63b8ff" d="M704.14,-285.13C683.5,-289.96 660.52,-295.34 641,-299.91"/>
<polygon fill="#63b8ff" stroke="#63b8ff" points="704.92,-288.54 713.86,-282.85 703.33,-281.72 704.92,-288.54"/>
</a>
</g>
</g>
<!-- Node35 -->
<g id="Node000035" class="node">
<title>Node35</title>
<g id="a_Node000035"><a xlink:href="namespaceImGui.html#af4be377242ba2480b28b116390af7261" target="_top" xlink:title=" ">
<polygon fill="white" stroke="#666666" points="640.75,-282.02 547.5,-282.02 547.5,-261.27 640.75,-261.27 640.75,-282.02"/>
<text text-anchor="middle" x="594.12" y="-268.52" font-family="Helvetica,sans-Serif" font-size="10.00">ImGui::DragInt3</text>
</a>
</g>
</g>
<!-- Node30&#45;&gt;Node35 -->
<g id="edge40_Node000030_Node000035" class="edge">
<title>Node30&#45;&gt;Node35</title>
<g id="a_edge40_Node000030_Node000035"><a xlink:title=" ">
<path fill="none" stroke="#63b8ff" d="M694.92,-271.64C676.9,-271.64 657.81,-271.64 641.2,-271.64"/>
<polygon fill="#63b8ff" stroke="#63b8ff" points="694.75,-275.14 704.75,-271.64 694.75,-268.14 694.75,-275.14"/>
</a>
</g>
</g>
<!-- Node36 -->
<g id="Node000036" class="node">
<title>Node36</title>
<g id="a_Node000036"><a xlink:href="namespaceImGui.html#a5d75e4d3263272f22eb2001652397e55" target="_top" xlink:title=" ">
<polygon fill="white" stroke="#666666" points="640.75,-243.02 547.5,-243.02 547.5,-222.27 640.75,-222.27 640.75,-243.02"/>
<text text-anchor="middle" x="594.12" y="-229.52" font-family="Helvetica,sans-Serif" font-size="10.00">ImGui::DragInt4</text>
</a>
</g>
</g>
<!-- Node30&#45;&gt;Node36 -->
<g id="edge41_Node000030_Node000036" class="edge">
<title>Node30&#45;&gt;Node36</title>
<g id="a_edge41_Node000030_Node000036"><a xlink:title=" ">
<path fill="none" stroke="#63b8ff" d="M704.14,-258.16C683.5,-253.33 660.52,-247.95 641,-243.38"/>
<polygon fill="#63b8ff" stroke="#63b8ff" points="703.33,-261.56 713.86,-260.44 704.92,-254.75 703.33,-261.56"/>
</a>
</g>
</g>
<!-- Node38 -->
<g id="Node000038" class="node">
<title>Node38</title>
<g id="a_Node000038"><a xlink:href="namespaceImGui.html#a864f761801792a0cc5ce3408f3392cfc" target="_top" xlink:title=" ">
<polygon fill="white" stroke="#666666" points="646,-126.02 542.25,-126.02 542.25,-105.27 646,-105.27 646,-126.02"/>
<text text-anchor="middle" x="594.12" y="-112.52" font-family="Helvetica,sans-Serif" font-size="10.00">ImGui::SliderFloat</text>
</a>
</g>
</g>
<!-- Node37&#45;&gt;Node38 -->
<g id="edge43_Node000037_Node000038" class="edge">
<title>Node37&#45;&gt;Node38</title>
<g id="a_edge43_Node000037_Node000038"><a xlink:title=" ">
<path fill="none" stroke="#63b8ff" d="M696.74,-104.06C680.04,-105.96 662.3,-107.98 646.39,-109.8"/>
<polygon fill="#63b8ff" stroke="#63b8ff" points="697.07,-107.54 706.61,-102.93 696.28,-100.59 697.07,-107.54"/>
</a>
</g>
</g>
<!-- Node40 -->
<g id="Node000040" class="node">
<title>Node40</title>
<g id="a_Node000040"><a xlink:href="namespaceImGui.html#a580128c9b35d1a9fc5b7a057f6f5464a" target="_top" xlink:title=" ">
<polygon fill="white" stroke="#666666" points="640,-29.02 548.25,-29.02 548.25,-8.27 640,-8.27 640,-29.02"/>
<text text-anchor="middle" x="594.12" y="-15.52" font-family="Helvetica,sans-Serif" font-size="10.00">ImGui::SliderInt</text>
</a>
</g>
</g>
<!-- Node37&#45;&gt;Node40 -->
<g id="edge47_Node000037_Node000040" class="edge">
<title>Node37&#45;&gt;Node40</title>
<g id="a_edge47_Node000037_Node000040"><a xlink:title=" ">
<path fill="none" stroke="#63b8ff" d="M728.16,-80.92C695.45,-65.61 646.6,-42.74 618.1,-29.4"/>
<polygon fill="#63b8ff" stroke="#63b8ff" points="726.67,-84.09 737.21,-85.16 729.64,-77.75 726.67,-84.09"/>
</a>
</g>
</g>
<!-- Node42 -->
<g id="Node000042" class="node">
<title>Node42</title>
<g id="a_Node000042"><a xlink:href="namespaceImGui.html#a64031a4ad000695c1e1d3f42792f4bb4" target="_top" xlink:title=" ">
<polygon fill="white" stroke="#666666" points="652.38,-87.02 535.88,-87.02 535.88,-66.27 652.38,-66.27 652.38,-87.02"/>
<text text-anchor="middle" x="594.12" y="-73.52" font-family="Helvetica,sans-Serif" font-size="10.00">ImGui::SliderScalarN</text>
</a>
</g>
</g>
<!-- Node37&#45;&gt;Node42 -->
<g id="edge50_Node000037_Node000042" class="edge">
<title>Node37&#45;&gt;Node42</title>
<g id="a_edge50_Node000037_Node000042"><a xlink:title=" ">
<path fill="none" stroke="#63b8ff" d="M697.11,-88.88C682.47,-87.13 667.02,-85.27 652.69,-83.55"/>
<polygon fill="#63b8ff" stroke="#63b8ff" points="696.26,-92.31 706.61,-90.03 697.1,-85.36 696.26,-92.31"/>
</a>
</g>
</g>
<!-- Node38&#45;&gt;Node22 -->
<g id="edge44_Node000038_Node000022" class="edge">
<title>Node38&#45;&gt;Node22</title>
<g id="a_edge44_Node000038_Node000022"><a xlink:title=" ">
<path fill="none" stroke="#63b8ff" d="M532.75,-132.68C531.62,-133.62 530.53,-134.6 529.5,-135.64 491.15,-174.23 532.06,-214.26 493.5,-252.64 486.42,-259.7 363.27,-294.68 298.35,-312.77"/>
<polygon fill="#63b8ff" stroke="#63b8ff" points="534.5,-135.73 540.93,-127.31 530.65,-129.88 534.5,-135.73"/>
</a>
</g>
</g>
<!-- Node39 -->
<g id="Node000039" class="node">
<title>Node39</title>
<g id="a_Node000039"><a xlink:href="namespaceImGui.html#acd162f7732c5c7be7b8651d7e43bb979" target="_top" xlink:title=" ">
<polygon fill="white" stroke="#666666" points="485.25,-323.02 378.5,-323.02 378.5,-302.27 485.25,-302.27 485.25,-323.02"/>
<text text-anchor="middle" x="431.88" y="-309.52" font-family="Helvetica,sans-Serif" font-size="10.00">ImGui::SliderAngle</text>
</a>
</g>
</g>
<!-- Node38&#45;&gt;Node39 -->
<g id="edge45_Node000038_Node000039" class="edge">
<title>Node38&#45;&gt;Node39</title>
<g id="a_edge45_Node000038_Node000039"><a xlink:title=" ">
<path fill="none" stroke="#63b8ff" d="M532.66,-132.59C531.55,-133.56 530.5,-134.57 529.5,-135.64 482.21,-186.47 538.55,-234.82 493.5,-287.64 488.33,-293.71 481.45,-298.32 474.19,-301.83"/>
<polygon fill="#63b8ff" stroke="#63b8ff" points="534.42,-135.63 540.69,-127.09 530.46,-129.85 534.42,-135.63"/>
</a>
</g>
</g>
<!-- Node39&#45;&gt;Node22 -->
<g id="edge46_Node000039_Node000022" class="edge">
<title>Node39&#45;&gt;Node22</title>
<g id="a_edge46_Node000039_Node000022"><a xlink:title=" ">
<path fill="none" stroke="#63b8ff" d="M367.19,-316.72C352.97,-317.63 337.87,-318.6 323.62,-319.51"/>
<polygon fill="#63b8ff" stroke="#63b8ff" points="367.11,-320.23 376.86,-316.1 366.66,-313.25 367.11,-320.23"/>
</a>
</g>
</g>
<!-- Node41 -->
<g id="Node000041" class="node">
<title>Node41</title>
<g id="a_Node000041"><a xlink:href="namespaceImGui.html#a7bd295da4be19bab98262c76fcaeb4fb" target="_top" xlink:title=" ">
<polygon fill="white" stroke="#666666" points="311,-158.02 205,-158.02 205,-137.27 311,-137.27 311,-158.02"/>
<text text-anchor="middle" x="258" y="-144.52" font-family="Helvetica,sans-Serif" font-size="10.00">ImGui::LogButtons</text>
</a>
</g>
</g>
<!-- Node40&#45;&gt;Node41 -->
<g id="edge48_Node000040_Node000041" class="edge">
<title>Node40&#45;&gt;Node41</title>
<g id="a_edge48_Node000040_Node000041"><a xlink:title=" ">
<path fill="none" stroke="#63b8ff" d="M536.96,-6.16C490.16,1.39 422.9,5.47 370.25,-18.64 315.4,-43.77 277.32,-110.77 264.12,-136.95"/>
<polygon fill="#63b8ff" stroke="#63b8ff" points="536.15,-9.57 546.6,-7.83 537.35,-2.67 536.15,-9.57"/>
</a>
</g>
</g>
<!-- Node41&#45;&gt;Node23 -->
<g id="edge49_Node000041_Node000023" class="edge">
<title>Node41&#45;&gt;Node23</title>
<g id="a_edge49_Node000041_Node000023"><a xlink:title=" ">
<path fill="none" stroke="#63b8ff" d="M237.54,-166.35C199.21,-203.18 115.07,-284.05 84.91,-313.04"/>
<polygon fill="#63b8ff" stroke="#63b8ff" points="239.94,-168.89 244.73,-159.44 235.09,-163.84 239.94,-168.89"/>
</a>
</g>
</g>
<!-- Node43 -->
<g id="Node000043" class="node">
<title>Node43</title>
<g id="a_Node000043"><a xlink:href="namespaceImGui.html#a65ed4a55f13d467b06075c951b310c23" target="_top" xlink:title=" ">
<polygon fill="white" stroke="#666666" points="486.75,-244.02 377,-244.02 377,-223.27 486.75,-223.27 486.75,-244.02"/>
<text text-anchor="middle" x="431.88" y="-230.52" font-family="Helvetica,sans-Serif" font-size="10.00">ImGui::SliderFloat2</text>
</a>
</g>
</g>
<!-- Node42&#45;&gt;Node43 -->
<g id="edge51_Node000042_Node000043" class="edge">
<title>Node42&#45;&gt;Node43</title>
<g id="a_edge51_Node000042_Node000043"><a xlink:title=" ">
<path fill="none" stroke="#63b8ff" d="M532.75,-93.69C531.62,-94.62 530.53,-95.61 529.5,-96.64 491.4,-134.88 531.04,-173.86 493.5,-212.64 489.47,-216.81 484.58,-220.14 479.34,-222.82"/>
<polygon fill="#63b8ff" stroke="#63b8ff" points="534.5,-96.73 540.94,-88.32 530.66,-90.88 534.5,-96.73"/>
</a>
</g>
</g>
<!-- Node44 -->
<g id="Node000044" class="node">
<title>Node44</title>
<g id="a_Node000044"><a xlink:href="namespaceImGui.html#a9fb9ae936849ae17be13c9b6a0391585" target="_top" xlink:title=" ">
<polygon fill="white" stroke="#666666" points="486.75,-204.02 377,-204.02 377,-183.27 486.75,-183.27 486.75,-204.02"/>
<text text-anchor="middle" x="431.88" y="-190.52" font-family="Helvetica,sans-Serif" font-size="10.00">ImGui::SliderFloat3</text>
</a>
</g>
</g>
<!-- Node42&#45;&gt;Node44 -->
<g id="edge53_Node000042_Node000044" class="edge">
<title>Node42&#45;&gt;Node44</title>
<g id="a_edge53_Node000042_Node000044"><a xlink:title=" ">
<path fill="none" stroke="#63b8ff" d="M534.13,-93.03C532.52,-94.16 530.97,-95.36 529.5,-96.64 501.07,-121.53 521.75,-148.56 493.5,-173.64 489.36,-177.32 484.52,-180.33 479.42,-182.78"/>
<polygon fill="#63b8ff" stroke="#63b8ff" points="535.72,-96.16 542.66,-88.15 532.24,-90.08 535.72,-96.16"/>
</a>
</g>
</g>
<!-- Node45 -->
<g id="Node000045" class="node">
<title>Node45</title>
<g id="a_Node000045"><a xlink:href="namespaceImGui.html#acee94c7b89963d8fec32de541cd7205f" target="_top" xlink:title=" ">
<polygon fill="white" stroke="#666666" points="486.75,-165.02 377,-165.02 377,-144.27 486.75,-144.27 486.75,-165.02"/>
<text text-anchor="middle" x="431.88" y="-151.52" font-family="Helvetica,sans-Serif" font-size="10.00">ImGui::SliderFloat4</text>
</a>
</g>
</g>
<!-- Node42&#45;&gt;Node45 -->
<g id="edge54_Node000042_Node000045" class="edge">
<title>Node42&#45;&gt;Node45</title>
<g id="a_edge54_Node000042_Node000045"><a xlink:title=" ">
<path fill="none" stroke="#63b8ff" d="M538.05,-91.94C535.09,-93.38 532.22,-94.95 529.5,-96.64 509.77,-108.97 513.14,-122.18 493.5,-134.64 487.79,-138.27 481.36,-141.3 474.88,-143.82"/>
<polygon fill="#63b8ff" stroke="#63b8ff" points="539.17,-95.27 546.98,-88.11 536.41,-88.84 539.17,-95.27"/>
</a>
</g>
</g>
<!-- Node46 -->
<g id="Node000046" class="node">
<title>Node46</title>
<g id="a_Node000046"><a xlink:href="namespaceImGui.html#a9913948869631d72e4fa5dd69235350e" target="_top" xlink:title=" ">
<polygon fill="white" stroke="#666666" points="480.75,-126.02 383,-126.02 383,-105.27 480.75,-105.27 480.75,-126.02"/>
<text text-anchor="middle" x="431.88" y="-112.52" font-family="Helvetica,sans-Serif" font-size="10.00">ImGui::SliderInt2</text>
</a>
</g>
</g>
<!-- Node42&#45;&gt;Node46 -->
<g id="edge55_Node000042_Node000046" class="edge">
<title>Node42&#45;&gt;Node46</title>
<g id="a_edge55_Node000042_Node000046"><a xlink:title=" ">
<path fill="none" stroke="#63b8ff" d="M537.54,-90.17C517.93,-94.94 496.15,-100.25 477.55,-104.77"/>
<polygon fill="#63b8ff" stroke="#63b8ff" points="538.13,-93.63 547.02,-87.87 536.47,-86.83 538.13,-93.63"/>
</a>
</g>
</g>
<!-- Node47 -->
<g id="Node000047" class="node">
<title>Node47</title>
<g id="a_Node000047"><a xlink:href="namespaceImGui.html#ab1e67cf69998479a59677e332dba745b" target="_top" xlink:title=" ">
<polygon fill="white" stroke="#666666" points="480.75,-87.02 383,-87.02 383,-66.27 480.75,-66.27 480.75,-87.02"/>
<text text-anchor="middle" x="431.88" y="-73.52" font-family="Helvetica,sans-Serif" font-size="10.00">ImGui::SliderInt3</text>
</a>
</g>
</g>
<!-- Node42&#45;&gt;Node47 -->
<g id="edge56_Node000042_Node000047" class="edge">
<title>Node42&#45;&gt;Node47</title>
<g id="a_edge56_Node000042_Node000047"><a xlink:title=" ">
<path fill="none" stroke="#63b8ff" d="M524.23,-76.64C509.72,-76.64 494.71,-76.64 481.15,-76.64"/>
<polygon fill="#63b8ff" stroke="#63b8ff" points="524.21,-80.14 534.21,-76.64 524.21,-73.14 524.21,-80.14"/>
</a>
</g>
</g>
<!-- Node48 -->
<g id="Node000048" class="node">
<title>Node48</title>
<g id="a_Node000048"><a xlink:href="namespaceImGui.html#a9a0bb4c55424177ab7894e5a87bd91ea" target="_top" xlink:title=" ">
<polygon fill="white" stroke="#666666" points="480.75,-48.02 383,-48.02 383,-27.27 480.75,-27.27 480.75,-48.02"/>
<text text-anchor="middle" x="431.88" y="-34.52" font-family="Helvetica,sans-Serif" font-size="10.00">ImGui::SliderInt4</text>
</a>
</g>
</g>
<!-- Node42&#45;&gt;Node48 -->
<g id="edge57_Node000042_Node000048" class="edge">
<title>Node42&#45;&gt;Node48</title>
<g id="a_edge57_Node000042_Node000048"><a xlink:title=" ">
<path fill="none" stroke="#63b8ff" d="M537.54,-63.12C517.93,-58.34 496.15,-53.04 477.55,-48.52"/>
<polygon fill="#63b8ff" stroke="#63b8ff" points="536.47,-66.46 547.02,-65.42 538.13,-59.66 536.47,-66.46"/>
</a>
</g>
</g>
<!-- Node43&#45;&gt;Node22 -->
<g id="edge52_Node000043_Node000022" class="edge">
<title>Node43&#45;&gt;Node22</title>
<g id="a_edge52_Node000043_Node000022"><a xlink:title=" ">
<path fill="none" stroke="#63b8ff" d="M393.17,-249.01C385.51,-252.35 377.56,-255.99 370.25,-259.64 336.17,-276.68 297.98,-299.51 276.38,-312.8"/>
<polygon fill="#63b8ff" stroke="#63b8ff" points="394.5,-252.24 402.31,-245.09 391.74,-245.81 394.5,-252.24"/>
</a>
</g>
</g>
</g>
</svg>
