<?xml version="1.0" encoding="UTF-8" standalone="no"?>
<!DOCTYPE svg PUBLIC "-//W3C//DTD SVG 1.1//EN"
 "http://www.w3.org/Graphics/SVG/1.1/DTD/svg11.dtd">
<!-- Generated by graphviz version 13.1.0 (20250701.0955)
 -->
<!-- Title: steppable::output::info Pages: 1 -->
<!--zoomable 366 -->

<svg id="main" version="1.1" xmlns="http://www.w3.org/2000/svg" xmlns:xlink="http://www.w3.org/1999/xlink" xml:space="preserve" onload="init(evt)">

<style type="text/css"><![CDATA[
.node, .edge {opacity: 0.7;}
.node.selected, .edge.selected {opacity: 1;}
.edge:hover path { stroke: red; }
.edge:hover polygon { stroke: red; fill: red; }
]]></style>

<defs>
  <circle id="rim" cx="0" cy="0" r="7"/>
  <circle id="rim2" cx="0" cy="0" r="3.5"/>
  <g id="zoomPlus">
    <use xlink:href="#rim" fill="#404040"><set attributeName="fill" to="#808080" begin="zoomplus.mouseover" end="zoomplus.mouseout"/></use>
    <path d="M-4,0h8M0,-4v8" fill="none" stroke="white" stroke-width="1.5" pointer-events="none"/>
  </g>
  <g id="zoomMin">
    <use xlink:href="#rim" fill="#404040"><set attributeName="fill" to="#808080" begin="zoomminus.mouseover" end="zoomminus.mouseout"/></use>
    <path d="M-4,0h8" fill="none" stroke="white" stroke-width="1.5" pointer-events="none"/>
  </g>
  <g id="arrowUp" transform="translate(30 24)">
    <use xlink:href="#rim"/>
    <path pointer-events="none" fill="none" stroke="white" stroke-width="1.5" d="M0,-3.0v7 M-2.5,-0.5L0,-3.0L2.5,-0.5"/>
  </g>
  <g id="arrowRight" transform="rotate(90) translate(36 -43)">
    <use xlink:href="#rim"/>
    <path pointer-events="none" fill="none" stroke="white" stroke-width="1.5" d="M0,-3.0v7 M-2.5,-0.5L0,-3.0L2.5,-0.5"/>
  </g>
  <g id="arrowDown" transform="rotate(180) translate(-30 -48)">
    <use xlink:href="#rim"/>
    <path pointer-events="none" fill="none" stroke="white" stroke-width="1.5" d="M0,-3.0v7 M-2.5,-0.5L0,-3.0L2.5,-0.5"/>
  </g>
  <g id="arrowLeft" transform="rotate(270) translate(-36 17)">
    <use xlink:href="#rim"/>
    <path pointer-events="none" fill="none" stroke="white" stroke-width="1.5" d="M0,-3.0v7 M-2.5,-0.5L0,-3.0L2.5,-0.5"/>
  </g>
  <g id="resetDef">
    <use xlink:href="#rim2" fill="#404040"><set attributeName="fill" to="#808080" begin="reset.mouseover" end="reset.mouseout"/></use>
  </g>
</defs>
<script type="application/ecmascript">
var viewWidth = 514;
var viewHeight = 366;
var sectionId = 'dynsection-1';
</script>
<script type="application/ecmascript" xlink:href="svg.min.js"/>
<svg id="graph" class="graph">
<g id="viewport">
<title>steppable::output::info</title>
<!-- Node1 -->
<g id="Node000001" class="node">
<title>Node1</title>
<g id="a_Node000001"><a xlink:title="Prints an info message.">
<polygon fill="#999999" stroke="#666666" points="505.5,-137.12 379.25,-137.12 379.25,-116.38 505.5,-116.38 505.5,-137.12"/>
<text xml:space="preserve" text-anchor="middle" x="442.38" y="-123.62" font-family="Helvetica,sans-Serif" font-size="10.00">steppable::output::info</text>
</a>
</g>
</g>
<!-- Node2 -->
<g id="Node000002" class="node">
<title>Node2</title>
<g id="a_Node000002"><a xlink:href="classsteppable_1_1testing_1_1TestCase.html#a16e0ce99e2be1174aa9a714315fec39f" target="_top" xlink:title="Asserts a given condition and logs the condition name if it fails.">
<polygon fill="white" stroke="#666666" points="343.25,-195.5 190,-195.5 190,-162 343.25,-162 343.25,-195.5"/>
<text xml:space="preserve" text-anchor="start" x="198" y="-182" font-family="Helvetica,sans-Serif" font-size="10.00">steppable::testing</text>
<text xml:space="preserve" text-anchor="middle" x="266.62" y="-169.25" font-family="Helvetica,sans-Serif" font-size="10.00">::TestCase::_assertCondition</text>
</a>
</g>
</g>
<!-- Node1&#45;&gt;Node2 -->
<g id="edge1_Node000001_Node000002" class="edge">
<title>Node1&#45;&gt;Node2</title>
<g id="a_edge1_Node000001_Node000002"><a xlink:title=" ">
<path fill="none" stroke="#63b8ff" d="M394.61,-140.75C373.22,-147.15 347.68,-154.79 325.12,-161.54"/>
<polygon fill="#63b8ff" stroke="#63b8ff" points="395.35,-144.18 403.92,-137.96 393.34,-137.47 395.35,-144.18"/>
</a>
</g>
</g>
<!-- Node10 -->
<g id="Node000010" class="node">
<title>Node10</title>
<g id="a_Node000010"><a xlink:href="classsteppable_1_1Matrix.html#a2ba88a7f183393d87835889a8c49d76e" target="_top" xlink:title="Matrix multiplication.">
<polygon fill="white" stroke="#666666" points="320.38,-143.5 212.88,-143.5 212.88,-110 320.38,-110 320.38,-143.5"/>
<text xml:space="preserve" text-anchor="start" x="220.88" y="-130" font-family="Helvetica,sans-Serif" font-size="10.00">steppable::Matrix::</text>
<text xml:space="preserve" text-anchor="middle" x="266.62" y="-117.25" font-family="Helvetica,sans-Serif" font-size="10.00">operator*</text>
</a>
</g>
</g>
<!-- Node1&#45;&gt;Node10 -->
<g id="edge9_Node000001_Node000010" class="edge">
<title>Node1&#45;&gt;Node10</title>
<g id="a_edge9_Node000001_Node000010"><a xlink:title=" ">
<path fill="none" stroke="#63b8ff" d="M367.79,-126.75C352.01,-126.75 335.64,-126.75 320.81,-126.75"/>
<polygon fill="#63b8ff" stroke="#63b8ff" points="367.62,-130.25 377.62,-126.75 367.62,-123.25 367.62,-130.25"/>
</a>
</g>
</g>
<!-- Node11 -->
<g id="Node000011" class="node">
<title>Node11</title>
<g id="a_Node000011"><a xlink:href="classsteppable_1_1Matrix.html#a138d4246237d27a368e2080e8c7ce482" target="_top" xlink:title="Converts the matrix to its reduced row echelon form.">
<polygon fill="white" stroke="#666666" points="329,-92.12 204.25,-92.12 204.25,-71.38 329,-71.38 329,-92.12"/>
<text xml:space="preserve" text-anchor="middle" x="266.62" y="-78.62" font-family="Helvetica,sans-Serif" font-size="10.00">steppable::Matrix::rref</text>
</a>
</g>
</g>
<!-- Node1&#45;&gt;Node11 -->
<g id="edge10_Node000001_Node000011" class="edge">
<title>Node1&#45;&gt;Node11</title>
<g id="a_edge10_Node000001_Node000011"><a xlink:title=" ">
<path fill="none" stroke="#63b8ff" d="M390.13,-113.04C375.04,-109.04 358.49,-104.68 343.25,-100.75 332.89,-98.08 321.73,-95.24 311.24,-92.61"/>
<polygon fill="#63b8ff" stroke="#63b8ff" points="388.8,-116.31 399.36,-115.49 390.6,-109.54 388.8,-116.31"/>
</a>
</g>
</g>
<!-- Node3 -->
<g id="Node000003" class="node">
<title>Node3</title>
<g id="a_Node000003"><a xlink:href="classsteppable_1_1testing_1_1TestCase.html#a2d411e579a2e94888801e5c86ce0a1c1" target="_top" xlink:title="Asserts that a boolean value is false.">
<polygon fill="white" stroke="#666666" points="140.12,-357.5 13.88,-357.5 13.88,-324 140.12,-324 140.12,-357.5"/>
<text xml:space="preserve" text-anchor="start" x="21.88" y="-344" font-family="Helvetica,sans-Serif" font-size="10.00">steppable::testing</text>
<text xml:space="preserve" text-anchor="middle" x="77" y="-331.25" font-family="Helvetica,sans-Serif" font-size="10.00">::TestCase::assertFalse</text>
</a>
</g>
</g>
<!-- Node2&#45;&gt;Node3 -->
<g id="edge2_Node000002_Node000003" class="edge">
<title>Node2&#45;&gt;Node3</title>
<g id="a_edge2_Node000002_Node000003"><a xlink:title=" ">
<path fill="none" stroke="#63b8ff" d="M250.07,-205.54C231.06,-236.06 196.16,-285.5 154,-314.75 149.19,-318.09 143.91,-321.03 138.45,-323.62"/>
<polygon fill="#63b8ff" stroke="#63b8ff" points="252.9,-207.62 255.11,-197.26 246.92,-203.98 252.9,-207.62"/>
</a>
</g>
</g>
<!-- Node4 -->
<g id="Node000004" class="node">
<title>Node4</title>
<g id="a_Node000004"><a xlink:href="classsteppable_1_1testing_1_1TestCase.html#a3156df668add7e3abe7c0b47fa1f9cfd" target="_top" xlink:title="Asserts that two strings are equal.">
<polygon fill="white" stroke="#666666" points="145.38,-305.5 8.62,-305.5 8.62,-272 145.38,-272 145.38,-305.5"/>
<text xml:space="preserve" text-anchor="start" x="16.62" y="-292" font-family="Helvetica,sans-Serif" font-size="10.00">steppable::testing</text>
<text xml:space="preserve" text-anchor="middle" x="77" y="-279.25" font-family="Helvetica,sans-Serif" font-size="10.00">::TestCase::assertIsEqual</text>
</a>
</g>
</g>
<!-- Node2&#45;&gt;Node4 -->
<g id="edge3_Node000002_Node000004" class="edge">
<title>Node2&#45;&gt;Node4</title>
<g id="a_edge3_Node000002_Node000004"><a xlink:title=" ">
<path fill="none" stroke="#63b8ff" d="M238.11,-203.38C216.48,-221.73 184.94,-246.35 154,-262.75 147.96,-265.95 141.45,-268.88 134.87,-271.52"/>
<polygon fill="#63b8ff" stroke="#63b8ff" points="240.31,-206.11 245.6,-196.93 235.74,-200.81 240.31,-206.11"/>
</a>
</g>
</g>
<!-- Node5 -->
<g id="Node000005" class="node">
<title>Node5</title>
<g id="a_Node000005"><a xlink:href="classsteppable_1_1testing_1_1TestCase.html#a39cd58e31701c3d818e5b4f2dea1d24a" target="_top" xlink:title="Asserts that two numeric values are equal.">
<polygon fill="white" stroke="#666666" points="145.38,-253.5 8.62,-253.5 8.62,-220 145.38,-220 145.38,-253.5"/>
<text xml:space="preserve" text-anchor="start" x="16.62" y="-240" font-family="Helvetica,sans-Serif" font-size="10.00">steppable::testing</text>
<text xml:space="preserve" text-anchor="middle" x="77" y="-227.25" font-family="Helvetica,sans-Serif" font-size="10.00">::TestCase::assertIsEqual</text>
</a>
</g>
</g>
<!-- Node2&#45;&gt;Node5 -->
<g id="edge4_Node000002_Node000005" class="edge">
<title>Node2&#45;&gt;Node5</title>
<g id="a_edge4_Node000002_Node000005"><a xlink:title=" ">
<path fill="none" stroke="#63b8ff" d="M198.87,-199.38C177.49,-205.99 154.06,-213.24 133.57,-219.57"/>
<polygon fill="#63b8ff" stroke="#63b8ff" points="199.87,-202.74 208.39,-196.44 197.81,-196.05 199.87,-202.74"/>
</a>
</g>
</g>
<!-- Node6 -->
<g id="Node000006" class="node">
<title>Node6</title>
<g id="a_Node000006"><a xlink:href="classsteppable_1_1testing_1_1TestCase.html#a5a36f1c3f2a3ad74594efda06ab011d9" target="_top" xlink:title="Asserts that two numeric values are nearly equal.">
<polygon fill="white" stroke="#666666" points="148,-201.88 6,-201.88 6,-155.62 148,-155.62 148,-201.88"/>
<text xml:space="preserve" text-anchor="start" x="14" y="-188.38" font-family="Helvetica,sans-Serif" font-size="10.00">steppable::testing</text>
<text xml:space="preserve" text-anchor="start" x="14" y="-175.62" font-family="Helvetica,sans-Serif" font-size="10.00">::TestCase::assertIsNearly</text>
<text xml:space="preserve" text-anchor="middle" x="77" y="-162.88" font-family="Helvetica,sans-Serif" font-size="10.00">Equal</text>
</a>
</g>
</g>
<!-- Node2&#45;&gt;Node6 -->
<g id="edge5_Node000002_Node000006" class="edge">
<title>Node2&#45;&gt;Node6</title>
<g id="a_edge5_Node000002_Node000006"><a xlink:title=" ">
<path fill="none" stroke="#63b8ff" d="M178.32,-178.75C168.29,-178.75 158.16,-178.75 148.4,-178.75"/>
<polygon fill="#63b8ff" stroke="#63b8ff" points="178.07,-182.25 188.07,-178.75 178.07,-175.25 178.07,-182.25"/>
</a>
</g>
</g>
<!-- Node7 -->
<g id="Node000007" class="node">
<title>Node7</title>
<g id="a_Node000007"><a xlink:href="classsteppable_1_1testing_1_1TestCase.html#a61790bb36fd5283cec131d81df83aa0e" target="_top" xlink:title="Asserts that two strings are not equal.">
<polygon fill="white" stroke="#666666" points="154,-137.5 0,-137.5 0,-104 154,-104 154,-137.5"/>
<text xml:space="preserve" text-anchor="start" x="8" y="-124" font-family="Helvetica,sans-Serif" font-size="10.00">steppable::testing</text>
<text xml:space="preserve" text-anchor="middle" x="77" y="-111.25" font-family="Helvetica,sans-Serif" font-size="10.00">::TestCase::assertIsNotEqual</text>
</a>
</g>
</g>
<!-- Node2&#45;&gt;Node7 -->
<g id="edge6_Node000002_Node000007" class="edge">
<title>Node2&#45;&gt;Node7</title>
<g id="a_edge6_Node000002_Node000007"><a xlink:title=" ">
<path fill="none" stroke="#63b8ff" d="M198.87,-158.12C177.49,-151.51 154.06,-144.26 133.57,-137.93"/>
<polygon fill="#63b8ff" stroke="#63b8ff" points="197.81,-161.45 208.39,-161.06 199.87,-154.76 197.81,-161.45"/>
</a>
</g>
</g>
<!-- Node8 -->
<g id="Node000008" class="node">
<title>Node8</title>
<g id="a_Node000008"><a xlink:href="classsteppable_1_1testing_1_1TestCase.html#a72ee1e9f72300818515d4331f0211246" target="_top" xlink:title="Asserts that two numeric values are not equal.">
<polygon fill="white" stroke="#666666" points="154,-85.5 0,-85.5 0,-52 154,-52 154,-85.5"/>
<text xml:space="preserve" text-anchor="start" x="8" y="-72" font-family="Helvetica,sans-Serif" font-size="10.00">steppable::testing</text>
<text xml:space="preserve" text-anchor="middle" x="77" y="-59.25" font-family="Helvetica,sans-Serif" font-size="10.00">::TestCase::assertIsNotEqual</text>
</a>
</g>
</g>
<!-- Node2&#45;&gt;Node8 -->
<g id="edge7_Node000002_Node000008" class="edge">
<title>Node2&#45;&gt;Node8</title>
<g id="a_edge7_Node000002_Node000008"><a xlink:title=" ">
<path fill="none" stroke="#63b8ff" d="M194.1,-155.79C192.69,-154.82 191.32,-153.81 190,-152.75 166.28,-133.83 177.73,-113.65 154,-94.75 149.75,-91.36 145.02,-88.4 140.07,-85.82"/>
<polygon fill="#63b8ff" stroke="#63b8ff" points="192.18,-158.73 202.56,-160.87 195.79,-152.72 192.18,-158.73"/>
</a>
</g>
</g>
<!-- Node9 -->
<g id="Node000009" class="node">
<title>Node9</title>
<g id="a_Node000009"><a xlink:href="classsteppable_1_1testing_1_1TestCase.html#a2eb654185b127e9c62f4fdda127beac1" target="_top" xlink:title="Asserts that a boolean value is true.">
<polygon fill="white" stroke="#666666" points="137.88,-33.5 16.12,-33.5 16.12,0 137.88,0 137.88,-33.5"/>
<text xml:space="preserve" text-anchor="start" x="24.12" y="-20" font-family="Helvetica,sans-Serif" font-size="10.00">steppable::testing</text>
<text xml:space="preserve" text-anchor="middle" x="77" y="-7.25" font-family="Helvetica,sans-Serif" font-size="10.00">::TestCase::assertTrue</text>
</a>
</g>
</g>
<!-- Node2&#45;&gt;Node9 -->
<g id="edge8_Node000002_Node000009" class="edge">
<title>Node2&#45;&gt;Node9</title>
<g id="a_edge8_Node000002_Node000009"><a xlink:title=" ">
<path fill="none" stroke="#63b8ff" d="M192.24,-154.89C191.47,-154.2 190.72,-153.49 190,-152.75 153.9,-116.11 190.13,-79.37 154,-42.75 149.4,-38.08 143.92,-34.26 138.05,-31.11"/>
<polygon fill="#63b8ff" stroke="#63b8ff" points="189.82,-157.46 199.91,-160.68 194.03,-151.87 189.82,-157.46"/>
</a>
</g>
</g>
</g>
</svg>

<g id="navigator" transform="translate(0 0)" fill="#404254">
  <rect fill="#f2f5e9" fill-opacity="0.5" stroke="#606060" stroke-width=".5" x="0" y="0" width="60" height="60"/>
  <use id="zoomplus" xlink:href="#zoomPlus" x="17" y="9" onmousedown="handleZoom(evt,'in')"/>
  <use id="zoomminus" xlink:href="#zoomMin" x="42" y="9" onmousedown="handleZoom(evt,'out')"/>
  <use id="reset" xlink:href="#resetDef" x="30" y="36" onmousedown="handleReset()"/>
   <use id="arrowup" xlink:href="#arrowUp" x="0" y="0" onmousedown="handlePan(0,-1)"/>
  <use id="arrowright" xlink:href="#arrowRight" x="0" y="0" onmousedown="handlePan(1,0)"/>
  <use id="arrowdown" xlink:href="#arrowDown" x="0" y="0" onmousedown="handlePan(0,1)"/>
  <use id="arrowleft" xlink:href="#arrowLeft" x="0" y="0" onmousedown="handlePan(-1,0)"/>
</g>
<svg viewBox="0 0 15 15" width="100%" height="30px" preserveAspectRatio="xMaxYMin meet">
 <g id="arrow_out" transform="scale(0.3 0.3)">
  <a xlink:href="namespacesteppable_1_1output_abf5e49d885e17b4267904b4f9bfdea76_icgraph_org.svg" target="_base">
   <rect id="button" ry="5" rx="5" y="6" x="6" height="38" width="38"
        fill="#f2f5e9" fill-opacity="0.5" stroke="#606060" stroke-width="1.0"/>
   <path id="arrow"
     d="M 11.500037,31.436501 C 11.940474,20.09759 22.043105,11.32322 32.158766,21.979434 L 37.068811,17.246167 C 37.068811,17.246167 37.088388,32 37.088388,32 L 22.160133,31.978069 C 22.160133,31.978069 26.997745,27.140456 26.997745,27.140456 C 18.528582,18.264221 13.291696,25.230495 11.500037,31.436501 z"
     style="fill:#404040;"/>
  </a>
 </g>
</svg>

<style type='text/css'>
<![CDATA[
[data-mouse-over-selected='false'] { opacity: 0.7; }
[data-mouse-over-selected='true']  { opacity: 1.0; }
]]>
</style>
<script type="application/ecmascript"><![CDATA[
document.addEventListener('DOMContentLoaded', (event) => {
  highlightEdges();
  highlightAdjacentNodes();
});
]]></script>
</svg>
