<?xml version="1.0" encoding="UTF-8" standalone="no"?>
<!DOCTYPE svg PUBLIC "-//W3C//DTD SVG 1.1//EN"
 "http://www.w3.org/Graphics/SVG/1.1/DTD/svg11.dtd">
<!-- Generated by graphviz version 12.2.0 (20241103.1931)
 -->
<!-- Title: ImGui::LogBegin Pages: 1 -->
<svg width="632pt" height="215pt"
 viewBox="0.00 0.00 631.50 214.72" xmlns="http://www.w3.org/2000/svg" xmlns:xlink="http://www.w3.org/1999/xlink">
<g id="graph0" class="graph" transform="scale(1 1) rotate(0) translate(4 210.72)">
<title>ImGui::LogBegin</title>
<!-- Node1 -->
<g id="Node000001" class="node">
<title>Node1</title>
<g id="a_Node000001"><a xlink:title=" ">
<polygon fill="#999999" stroke="#666666" points="623.5,-78.75 527.25,-78.75 527.25,-58 623.5,-58 623.5,-78.75"/>
<text text-anchor="middle" x="575.38" y="-65.25" font-family="Helvetica,sans-Serif" font-size="10.00">ImGui::LogBegin</text>
</a>
</g>
</g>
<!-- Node2 -->
<g id="Node000002" class="node">
<title>Node2</title>
<g id="a_Node000002"><a xlink:href="namespaceImGui.html#a4dccd4d729cef38c0c542d433dc09480" target="_top" xlink:title=" ">
<polygon fill="white" stroke="#666666" points="482.62,-137.75 374.38,-137.75 374.38,-117 482.62,-117 482.62,-137.75"/>
<text text-anchor="middle" x="428.5" y="-124.25" font-family="Helvetica,sans-Serif" font-size="10.00">ImGui::LogToBuffer</text>
</a>
</g>
</g>
<!-- Node1&#45;&gt;Node2 -->
<g id="edge1_Node000001_Node000002" class="edge">
<title>Node1&#45;&gt;Node2</title>
<g id="a_edge1_Node000001_Node000002"><a xlink:title=" ">
<path fill="none" stroke="#63b8ff" d="M543.13,-84.17C527.71,-91.67 508.72,-100.48 491.25,-107.38 482.97,-110.64 473.92,-113.8 465.36,-116.6"/>
<polygon fill="#63b8ff" stroke="#63b8ff" points="544.39,-87.45 551.81,-79.9 541.29,-81.17 544.39,-87.45"/>
</a>
</g>
</g>
<!-- Node3 -->
<g id="Node000003" class="node">
<title>Node3</title>
<g id="a_Node000003"><a xlink:href="namespaceImGui.html#a70e12f01ecb65747c9a70b73555b6ec1" target="_top" xlink:title=" ">
<polygon fill="white" stroke="#666666" points="491.25,-98.75 365.75,-98.75 365.75,-78 491.25,-78 491.25,-98.75"/>
<text text-anchor="middle" x="428.5" y="-85.25" font-family="Helvetica,sans-Serif" font-size="10.00">ImGui::LogToClipboard</text>
</a>
</g>
</g>
<!-- Node1&#45;&gt;Node3 -->
<g id="edge2_Node000001_Node000003" class="edge">
<title>Node1&#45;&gt;Node3</title>
<g id="a_edge2_Node000001_Node000003"><a xlink:title=" ">
<path fill="none" stroke="#63b8ff" d="M515.56,-76.5C507.65,-77.59 499.51,-78.71 491.55,-79.81"/>
<polygon fill="#63b8ff" stroke="#63b8ff" points="516.01,-79.97 525.44,-75.13 515.05,-73.03 516.01,-79.97"/>
</a>
</g>
</g>
<!-- Node10 -->
<g id="Node000010" class="node">
<title>Node10</title>
<g id="a_Node000010"><a xlink:href="namespaceImGui.html#a8feab4b22519bc5eae9754b0ad545d81" target="_top" xlink:title=" ">
<polygon fill="white" stroke="#666666" points="476.62,-20.75 380.38,-20.75 380.38,0 476.62,0 476.62,-20.75"/>
<text text-anchor="middle" x="428.5" y="-7.25" font-family="Helvetica,sans-Serif" font-size="10.00">ImGui::LogToFile</text>
</a>
</g>
</g>
<!-- Node1&#45;&gt;Node10 -->
<g id="edge12_Node000001_Node000010" class="edge">
<title>Node1&#45;&gt;Node10</title>
<g id="a_edge12_Node000001_Node000010"><a xlink:title=" ">
<path fill="none" stroke="#63b8ff" d="M542.45,-52.73C527.14,-45.5 508.43,-37.06 491.25,-30.38 482.95,-27.15 473.9,-24.01 465.34,-21.21"/>
<polygon fill="#63b8ff" stroke="#63b8ff" points="540.55,-55.7 551.08,-56.86 543.57,-49.39 540.55,-55.7"/>
</a>
</g>
</g>
<!-- Node11 -->
<g id="Node000011" class="node">
<title>Node11</title>
<g id="a_Node000011"><a xlink:href="namespaceImGui.html#ad206c49bc6306a56d915251fa5d9e388" target="_top" xlink:title=" ">
<polygon fill="white" stroke="#666666" points="477,-59.75 380,-59.75 380,-39 477,-39 477,-59.75"/>
<text text-anchor="middle" x="428.5" y="-46.25" font-family="Helvetica,sans-Serif" font-size="10.00">ImGui::LogToTTY</text>
</a>
</g>
</g>
<!-- Node1&#45;&gt;Node11 -->
<g id="edge14_Node000001_Node000011" class="edge">
<title>Node1&#45;&gt;Node11</title>
<g id="a_edge14_Node000001_Node000011"><a xlink:title=" ">
<path fill="none" stroke="#63b8ff" d="M515.81,-60.69C502.93,-59 489.43,-57.24 477.04,-55.61"/>
<polygon fill="#63b8ff" stroke="#63b8ff" points="515.07,-64.13 525.44,-61.96 515.98,-57.19 515.07,-64.13"/>
</a>
</g>
</g>
<!-- Node4 -->
<g id="Node000004" class="node">
<title>Node4</title>
<g id="a_Node000004"><a xlink:href="structExampleAppConsole.html#a0518a09c7e8648dd52c7c06df19ac17a" target="_top" xlink:title=" ">
<polygon fill="white" stroke="#666666" points="329.75,-137.75 181.75,-137.75 181.75,-117 329.75,-117 329.75,-137.75"/>
<text text-anchor="middle" x="255.75" y="-124.25" font-family="Helvetica,sans-Serif" font-size="10.00">ExampleAppConsole::Draw</text>
</a>
</g>
</g>
<!-- Node3&#45;&gt;Node4 -->
<g id="edge3_Node000003_Node000004" class="edge">
<title>Node3&#45;&gt;Node4</title>
<g id="a_edge3_Node000003_Node000004"><a xlink:title=" ">
<path fill="none" stroke="#63b8ff" d="M368.86,-101.77C347.81,-106.58 324.35,-111.93 304.35,-116.5"/>
<polygon fill="#63b8ff" stroke="#63b8ff" points="369.49,-105.21 378.46,-99.58 367.93,-98.39 369.49,-105.21"/>
</a>
</g>
</g>
<!-- Node5 -->
<g id="Node000005" class="node">
<title>Node5</title>
<g id="a_Node000005"><a xlink:href="structExampleAppLog.html#a5ad3a4bdb89171b84aeaff96948a1f77" target="_top" xlink:title=" ">
<polygon fill="white" stroke="#666666" points="318.88,-98.75 192.62,-98.75 192.62,-78 318.88,-78 318.88,-98.75"/>
<text text-anchor="middle" x="255.75" y="-85.25" font-family="Helvetica,sans-Serif" font-size="10.00">ExampleAppLog::Draw</text>
</a>
</g>
</g>
<!-- Node3&#45;&gt;Node5 -->
<g id="edge4_Node000003_Node000005" class="edge">
<title>Node3&#45;&gt;Node5</title>
<g id="a_edge4_Node000003_Node000005"><a xlink:title=" ">
<path fill="none" stroke="#63b8ff" d="M353.91,-88.38C342.32,-88.38 330.43,-88.38 319.12,-88.38"/>
<polygon fill="#63b8ff" stroke="#63b8ff" points="353.86,-91.88 363.86,-88.38 353.86,-84.88 353.86,-91.88"/>
</a>
</g>
</g>
<!-- Node6 -->
<g id="Node000006" class="node">
<title>Node6</title>
<g id="a_Node000006"><a xlink:href="namespaceImGui.html#a7bd295da4be19bab98262c76fcaeb4fb" target="_top" xlink:title=" ">
<polygon fill="white" stroke="#666666" points="308.75,-20.75 202.75,-20.75 202.75,0 308.75,0 308.75,-20.75"/>
<text text-anchor="middle" x="255.75" y="-7.25" font-family="Helvetica,sans-Serif" font-size="10.00">ImGui::LogButtons</text>
</a>
</g>
</g>
<!-- Node3&#45;&gt;Node6 -->
<g id="edge5_Node000003_Node000006" class="edge">
<title>Node3&#45;&gt;Node6</title>
<g id="a_edge5_Node000003_Node000006"><a xlink:title=" ">
<path fill="none" stroke="#63b8ff" d="M373.9,-72.92C371.08,-71.52 368.34,-70.01 365.75,-68.38 346.07,-55.96 349.71,-42.33 329.75,-30.38 323.44,-26.59 316.39,-23.51 309.24,-21"/>
<polygon fill="#63b8ff" stroke="#63b8ff" points="372.44,-76.1 383,-76.89 375.24,-69.69 372.44,-76.1"/>
</a>
</g>
</g>
<!-- Node7 -->
<g id="Node000007" class="node">
<title>Node7</title>
<g id="a_Node000007"><a xlink:href="namespaceImGui.html#af95643a0ce4893b9e57c12991922fb18" target="_top" xlink:title=" ">
<polygon fill="white" stroke="#666666" points="145.75,-117.75 0,-117.75 0,-97 145.75,-97 145.75,-117.75"/>
<text text-anchor="middle" x="72.88" y="-104.25" font-family="Helvetica,sans-Serif" font-size="10.00">ImGui::ShowDemoWindow</text>
</a>
</g>
</g>
<!-- Node3&#45;&gt;Node7 -->
<g id="edge9_Node000003_Node000007" class="edge">
<title>Node3&#45;&gt;Node7</title>
<g id="a_edge9_Node000003_Node000007"><a xlink:title=" ">
<path fill="none" stroke="#63b8ff" d="M370.34,-104.77C368.74,-105.89 367.2,-107.09 365.75,-108.38 337.43,-133.38 361.62,-165.09 329.75,-185.38 274.26,-220.69 244.33,-205.63 181.75,-185.38 140.41,-172 101.61,-136.2 83.92,-118.13"/>
<polygon fill="#63b8ff" stroke="#63b8ff" points="371.88,-107.92 378.79,-99.9 368.38,-101.86 371.88,-107.92"/>
</a>
</g>
</g>
<!-- Node8 -->
<g id="Node000008" class="node">
<title>Node8</title>
<g id="a_Node000008"><a xlink:href="namespaceImGui.html#ac297462e33309d0540fa459bccdc9304" target="_top" xlink:title=" ">
<polygon fill="white" stroke="#666666" points="328.25,-176.75 183.25,-176.75 183.25,-156 328.25,-156 328.25,-176.75"/>
<text text-anchor="middle" x="255.75" y="-163.25" font-family="Helvetica,sans-Serif" font-size="10.00">ImGui::ShowAboutWindow</text>
</a>
</g>
</g>
<!-- Node3&#45;&gt;Node8 -->
<g id="edge7_Node000003_Node000008" class="edge">
<title>Node3&#45;&gt;Node8</title>
<g id="a_edge7_Node000003_Node000008"><a xlink:title=" ">
<path fill="none" stroke="#63b8ff" d="M373.9,-103.83C371.08,-105.23 368.34,-106.74 365.75,-108.38 346.07,-120.79 349.71,-134.42 329.75,-146.38 323.55,-150.09 316.65,-153.13 309.62,-155.62"/>
<polygon fill="#63b8ff" stroke="#63b8ff" points="375.24,-107.06 383,-99.86 372.44,-100.65 375.24,-107.06"/>
</a>
</g>
</g>
<!-- Node9 -->
<g id="Node000009" class="node">
<title>Node9</title>
<g id="a_Node000009"><a xlink:href="namespaceImGui.html#ab2eb3dec78d054fe3feab1c091ec5de5" target="_top" xlink:title=" ">
<polygon fill="white" stroke="#666666" points="321.12,-59.75 190.38,-59.75 190.38,-39 321.12,-39 321.12,-59.75"/>
<text text-anchor="middle" x="255.75" y="-46.25" font-family="Helvetica,sans-Serif" font-size="10.00">ImGui::ShowStyleEditor</text>
</a>
</g>
</g>
<!-- Node3&#45;&gt;Node9 -->
<g id="edge10_Node000003_Node000009" class="edge">
<title>Node3&#45;&gt;Node9</title>
<g id="a_edge10_Node000003_Node000009"><a xlink:title=" ">
<path fill="none" stroke="#63b8ff" d="M368.86,-74.98C347.81,-70.17 324.35,-64.82 304.35,-60.25"/>
<polygon fill="#63b8ff" stroke="#63b8ff" points="367.93,-78.36 378.46,-77.17 369.49,-71.54 367.93,-78.36"/>
</a>
</g>
</g>
<!-- Node6&#45;&gt;Node7 -->
<g id="edge6_Node000006_Node000007" class="edge">
<title>Node6&#45;&gt;Node7</title>
<g id="a_edge6_Node000006_Node000007"><a xlink:title=" ">
<path fill="none" stroke="#63b8ff" d="M195.14,-24.8C190.54,-26.49 186.02,-28.34 181.75,-30.38 143.72,-48.45 104.94,-80.03 85.91,-96.57"/>
<polygon fill="#63b8ff" stroke="#63b8ff" points="196.18,-28.15 204.54,-21.64 193.95,-21.51 196.18,-28.15"/>
</a>
</g>
</g>
<!-- Node8&#45;&gt;Node7 -->
<g id="edge8_Node000008_Node000007" class="edge">
<title>Node8&#45;&gt;Node7</title>
<g id="a_edge8_Node000008_Node000007"><a xlink:title=" ">
<path fill="none" stroke="#63b8ff" d="M202.17,-152.51C195.27,-150.53 188.33,-148.46 181.75,-146.38 154.23,-137.64 123.27,-126.29 101.61,-118.09"/>
<polygon fill="#63b8ff" stroke="#63b8ff" points="200.86,-155.78 211.43,-155.11 202.75,-149.04 200.86,-155.78"/>
</a>
</g>
</g>
<!-- Node9&#45;&gt;Node7 -->
<g id="edge11_Node000009_Node000007" class="edge">
<title>Node9&#45;&gt;Node7</title>
<g id="a_edge11_Node000009_Node000007"><a xlink:title=" ">
<path fill="none" stroke="#63b8ff" d="M202.44,-63.22C195.46,-65.21 188.42,-67.29 181.75,-69.38 154.65,-77.85 124.17,-88.71 102.53,-96.65"/>
<polygon fill="#63b8ff" stroke="#63b8ff" points="203.15,-66.66 211.83,-60.59 201.26,-59.92 203.15,-66.66"/>
</a>
</g>
</g>
<!-- Node10&#45;&gt;Node6 -->
<g id="edge13_Node000010_Node000006" class="edge">
<title>Node10&#45;&gt;Node6</title>
<g id="a_edge13_Node000010_Node000006"><a xlink:title=" ">
<path fill="none" stroke="#63b8ff" d="M368.53,-10.38C349.23,-10.38 327.93,-10.38 309.15,-10.38"/>
<polygon fill="#63b8ff" stroke="#63b8ff" points="368.42,-13.88 378.42,-10.38 368.42,-6.88 368.42,-13.88"/>
</a>
</g>
</g>
<!-- Node11&#45;&gt;Node6 -->
<g id="edge15_Node000011_Node000006" class="edge">
<title>Node11&#45;&gt;Node6</title>
<g id="a_edge15_Node000011_Node000006"><a xlink:title=" ">
<path fill="none" stroke="#63b8ff" d="M368.86,-35.98C347.81,-31.17 324.35,-25.82 304.35,-21.25"/>
<polygon fill="#63b8ff" stroke="#63b8ff" points="367.93,-39.36 378.46,-38.17 369.49,-32.54 367.93,-39.36"/>
</a>
</g>
</g>
<!-- Node11&#45;&gt;Node9 -->
<g id="edge16_Node000011_Node000009" class="edge">
<title>Node11&#45;&gt;Node9</title>
<g id="a_edge16_Node000011_Node000009"><a xlink:title=" ">
<path fill="none" stroke="#63b8ff" d="M368.62,-49.38C353.46,-49.38 337.05,-49.38 321.61,-49.38"/>
<polygon fill="#63b8ff" stroke="#63b8ff" points="368.42,-52.88 378.42,-49.38 368.42,-45.88 368.42,-52.88"/>
</a>
</g>
</g>
</g>
</svg>
