<?xml version="1.0" encoding="UTF-8" standalone="no"?>
<!DOCTYPE svg PUBLIC "-//W3C//DTD SVG 1.1//EN"
 "http://www.w3.org/Graphics/SVG/1.1/DTD/svg11.dtd">
<!-- Generated by graphviz version 11.0.0 (20240428.1522)
 -->
<!-- Title: steppable::__internals::utils::colors::red Pages: 1 -->
<!--zoomable 1108 -->

<svg id="main" version="1.1" xmlns="http://www.w3.org/2000/svg" xmlns:xlink="http://www.w3.org/1999/xlink" xml:space="preserve" onload="init(evt)">
<style type="text/css"><![CDATA[
.node, .edge {opacity: 0.7;}
.node.selected, .edge.selected {opacity: 1;}
.edge:hover path { stroke: red; }
.edge:hover polygon { stroke: red; fill: red; }
]]></style>

<defs>
  <circle id="rim" cx="0" cy="0" r="7"/>
  <circle id="rim2" cx="0" cy="0" r="3.5"/>
  <g id="zoomPlus">
    <use xlink:href="#rim" fill="#404040"><set attributeName="fill" to="#808080" begin="zoomplus.mouseover" end="zoomplus.mouseout"/></use>
    <path d="M-4,0h8M0,-4v8" fill="none" stroke="white" stroke-width="1.5" pointer-events="none"/>
  </g>
  <g id="zoomMin">
    <use xlink:href="#rim" fill="#404040"><set attributeName="fill" to="#808080" begin="zoomminus.mouseover" end="zoomminus.mouseout"/></use>
    <path d="M-4,0h8" fill="none" stroke="white" stroke-width="1.5" pointer-events="none"/>
  </g>
  <g id="arrowUp" transform="translate(30 24)">
    <use xlink:href="#rim"/>
    <path pointer-events="none" fill="none" stroke="white" stroke-width="1.5" d="M0,-3.0v7 M-2.5,-0.5L0,-3.0L2.5,-0.5"/>
  </g>
  <g id="arrowRight" transform="rotate(90) translate(36 -43)">
    <use xlink:href="#rim"/>
    <path pointer-events="none" fill="none" stroke="white" stroke-width="1.5" d="M0,-3.0v7 M-2.5,-0.5L0,-3.0L2.5,-0.5"/>
  </g>
  <g id="arrowDown" transform="rotate(180) translate(-30 -48)">
    <use xlink:href="#rim"/>
    <path pointer-events="none" fill="none" stroke="white" stroke-width="1.5" d="M0,-3.0v7 M-2.5,-0.5L0,-3.0L2.5,-0.5"/>
  </g>
  <g id="arrowLeft" transform="rotate(270) translate(-36 17)">
    <use xlink:href="#rim"/>
    <path pointer-events="none" fill="none" stroke="white" stroke-width="1.5" d="M0,-3.0v7 M-2.5,-0.5L0,-3.0L2.5,-0.5"/>
  </g>
  <g id="resetDef">
    <use xlink:href="#rim2" fill="#404040"><set attributeName="fill" to="#808080" begin="reset.mouseover" end="reset.mouseout"/></use>
  </g>
</defs>
<script type="application/ecmascript">
var viewWidth = 1042;
var viewHeight = 1108;
var sectionId = 'dynsection-15';
</script>
<script type="application/ecmascript" xlink:href="svg.min.js"/>
<svg id="graph" class="graph">
<g id="viewport">
<title>steppable::__internals::utils::colors::red</title>
<!-- Node1 -->
<g id="Node000001" class="node">
<title>Node1</title>
<g id="a_Node000001"><a xlink:title="Set the text color to red.">
<polygon fill="#999999" stroke="#666666" points="1034.25,-270.88 911,-270.88 911,-237.38 1034.25,-237.38 1034.25,-270.88"/>
<text text-anchor="start" x="919" y="-257.38" font-family="Helvetica,sans-Serif" font-size="10.00">steppable::__internals</text>
<text text-anchor="middle" x="972.62" y="-244.62" font-family="Helvetica,sans-Serif" font-size="10.00">::utils::colors::red</text>
</a>
</g>
</g>
<!-- Node2 -->
<g id="Node000002" class="node">
<title>Node2</title>
<g id="a_Node000002"><a xlink:href="namespacesteppable_1_1output.html#a4dbb7442362aa32fbb09dcdd755b07d2" target="_top" xlink:title="Prints an error message.">
<polygon fill="white" stroke="#666666" points="865.62,-322.88 758.12,-322.88 758.12,-289.38 865.62,-289.38 865.62,-322.88"/>
<text text-anchor="start" x="766.12" y="-309.38" font-family="Helvetica,sans-Serif" font-size="10.00">steppable::output::</text>
<text text-anchor="middle" x="811.88" y="-296.62" font-family="Helvetica,sans-Serif" font-size="10.00">error</text>
</a>
</g>
</g>
<!-- Node1&#45;&gt;Node2 -->
<g id="edge1_Node000001_Node000002" class="edge">
<title>Node1&#45;&gt;Node2</title>
<g id="a_edge1_Node000001_Node000002"><a xlink:title=" ">
<path fill="none" stroke="#63b8ff" d="M908.49,-274.81C894.24,-279.47 879.27,-284.38 865.51,-288.88"/>
<polygon fill="#63b8ff" stroke="#63b8ff" points="909.35,-278.21 917.77,-271.77 907.17,-271.55 909.35,-278.21"/>
</a>
</g>
</g>
<!-- Node3 -->
<g id="Node000003" class="node">
<title>Node3</title>
<g id="a_Node000003"><a xlink:href="namespacesteppable_1_1output.html#a076ed2ffbc6d17c02f91f3b9cb4026b7" target="_top" xlink:title="Prints an error message.">
<polygon fill="white" stroke="#666666" points="865.62,-270.88 758.12,-270.88 758.12,-237.38 865.62,-237.38 865.62,-270.88"/>
<text text-anchor="start" x="766.12" y="-257.38" font-family="Helvetica,sans-Serif" font-size="10.00">steppable::output::</text>
<text text-anchor="middle" x="811.88" y="-244.62" font-family="Helvetica,sans-Serif" font-size="10.00">error</text>
</a>
</g>
</g>
<!-- Node1&#45;&gt;Node3 -->
<g id="edge2_Node000001_Node000003" class="edge">
<title>Node1&#45;&gt;Node3</title>
<g id="a_edge2_Node000001_Node000003"><a xlink:title=" ">
<path fill="none" stroke="#63b8ff" d="M899.2,-254.12C888.06,-254.12 876.74,-254.12 866.12,-254.12"/>
<polygon fill="#63b8ff" stroke="#63b8ff" points="899.19,-257.63 909.19,-254.13 899.19,-250.63 899.19,-257.63"/>
</a>
</g>
</g>
<!-- Node37 -->
<g id="Node000037" class="node">
<title>Node37</title>
<g id="a_Node000037"><a xlink:href="classsteppable_1_1testing_1_1TestCase.html#a2cb156d120e70f37ceb5421fbf04f8f7" target="_top" xlink:title="Prints a summary of the test case, including the number of errors encountered.">
<polygon fill="white" stroke="#666666" points="875,-218.88 748.75,-218.88 748.75,-185.38 875,-185.38 875,-218.88"/>
<text text-anchor="start" x="756.75" y="-205.38" font-family="Helvetica,sans-Serif" font-size="10.00">steppable::testing</text>
<text text-anchor="middle" x="811.88" y="-192.62" font-family="Helvetica,sans-Serif" font-size="10.00">::TestCase::summarize</text>
</a>
</g>
</g>
<!-- Node1&#45;&gt;Node37 -->
<g id="edge42_Node000001_Node000037" class="edge">
<title>Node1&#45;&gt;Node37</title>
<g id="a_edge42_Node000001_Node000037"><a xlink:title=" ">
<path fill="none" stroke="#63b8ff" d="M908.49,-233.44C894.24,-228.78 879.27,-223.87 865.51,-219.37"/>
<polygon fill="#63b8ff" stroke="#63b8ff" points="907.17,-236.7 917.77,-236.48 909.35,-230.04 907.17,-236.7"/>
</a>
</g>
</g>
<!-- Node4 -->
<g id="Node000004" class="node">
<title>Node4</title>
<g id="a_Node000004"><a xlink:href="classsteppable_1_1testing_1_1TestCase.html#a72a291251c17f79279ad7235120b7e2c" target="_top" xlink:title="Asserts a given condition and logs the condition name if it fails.">
<polygon fill="white" stroke="#666666" points="703,-943.88 599.25,-943.88 599.25,-910.38 703,-910.38 703,-943.88"/>
<text text-anchor="start" x="607.25" y="-930.38" font-family="Helvetica,sans-Serif" font-size="10.00">steppable::testing</text>
<text text-anchor="middle" x="651.12" y="-917.62" font-family="Helvetica,sans-Serif" font-size="10.00">::TestCase::assert</text>
</a>
</g>
</g>
<!-- Node3&#45;&gt;Node4 -->
<g id="edge3_Node000003_Node000004" class="edge">
<title>Node3&#45;&gt;Node4</title>
<g id="a_edge3_Node000003_Node000004"><a xlink:title=" ">
<path fill="none" stroke="#63b8ff" d="M749.74,-278.84C749.4,-279.26 749.07,-279.69 748.75,-280.12 698.6,-348.26 726.11,-575.59 712.75,-659.12 697.42,-754.98 668.15,-867.79 656.79,-910.03"/>
<polygon fill="#63b8ff" stroke="#63b8ff" points="752.02,-281.5 756.81,-272.05 747.17,-276.45 752.02,-281.5"/>
</a>
</g>
</g>
<!-- Node11 -->
<g id="Node000011" class="node">
<title>Node11</title>
<g id="a_Node000011"><a xlink:href="namespacesteppable_1_1____internals_1_1arithmetic.html#a5b80b731e3e2c0d16dcbe5d52b08ffd5" target="_top" xlink:title="Converts a string representation of a number from decimal to another one.">
<polygon fill="white" stroke="#666666" points="537,-787.88 397.25,-787.88 397.25,-754.38 537,-754.38 537,-787.88"/>
<text text-anchor="start" x="405.25" y="-774.38" font-family="Helvetica,sans-Serif" font-size="10.00">steppable::__internals</text>
<text text-anchor="middle" x="467.12" y="-761.62" font-family="Helvetica,sans-Serif" font-size="10.00">::arithmetic::baseConvert</text>
</a>
</g>
</g>
<!-- Node3&#45;&gt;Node11 -->
<g id="edge10_Node000003_Node000011" class="edge">
<title>Node3&#45;&gt;Node11</title>
<g id="a_edge10_Node000003_Node000011"><a xlink:title=" ">
<path fill="none" stroke="#63b8ff" d="M749.78,-278.87C749.43,-279.28 749.09,-279.7 748.75,-280.12 687.6,-357.52 748.73,-407.28 712.75,-499.12 665.92,-618.66 654.32,-660.64 553.5,-740.12 546.57,-745.59 538.58,-750.15 530.33,-753.94"/>
<polygon fill="#63b8ff" stroke="#63b8ff" points="752.03,-281.56 757.04,-272.22 747.3,-276.4 752.03,-281.56"/>
</a>
</g>
</g>
<!-- Node12 -->
<g id="Node000012" class="node">
<title>Node12</title>
<g id="a_Node000012"><a xlink:href="namespacesteppable_1_1____internals_1_1arithmetic.html#afc4c4f319dadbb5b1ff481132f008374" target="_top" xlink:title="Converts a string representation of a number from any base to decimal.">
<polygon fill="white" stroke="#666666" points="170.5,-267.88 15,-267.88 15,-234.38 170.5,-234.38 170.5,-267.88"/>
<text text-anchor="start" x="23" y="-254.38" font-family="Helvetica,sans-Serif" font-size="10.00">steppable::__internals</text>
<text text-anchor="middle" x="92.75" y="-241.62" font-family="Helvetica,sans-Serif" font-size="10.00">::arithmetic::decimalConvert</text>
</a>
</g>
</g>
<!-- Node3&#45;&gt;Node12 -->
<g id="edge11_Node000003_Node000012" class="edge">
<title>Node3&#45;&gt;Node12</title>
<g id="a_edge11_Node000003_Node000012"><a xlink:title=" ">
<path fill="none" stroke="#63b8ff" d="M746.35,-253.86C614.13,-253.3 312.91,-252.04 170.75,-251.45"/>
<polygon fill="#63b8ff" stroke="#63b8ff" points="746.32,-257.35 756.34,-253.9 746.35,-250.35 746.32,-257.35"/>
</a>
</g>
</g>
<!-- Node13 -->
<g id="Node000013" class="node">
<title>Node13</title>
<g id="a_Node000013"><a xlink:href="namespacesteppable_1_1____internals_1_1arithmetic.html#a26194ae8ddb44afb942fbf8335ae1730" target="_top" xlink:title="Divides a string representation of a number by another string representation of a number.">
<polygon fill="white" stroke="#666666" points="712.75,-489.88 589.5,-489.88 589.5,-456.38 712.75,-456.38 712.75,-489.88"/>
<text text-anchor="start" x="597.5" y="-476.38" font-family="Helvetica,sans-Serif" font-size="10.00">steppable::__internals</text>
<text text-anchor="middle" x="651.12" y="-463.62" font-family="Helvetica,sans-Serif" font-size="10.00">::arithmetic::divide</text>
</a>
</g>
</g>
<!-- Node3&#45;&gt;Node13 -->
<g id="edge12_Node000003_Node000013" class="edge">
<title>Node3&#45;&gt;Node13</title>
<g id="a_edge12_Node000003_Node000013"><a xlink:title=" ">
<path fill="none" stroke="#63b8ff" d="M751.53,-277.68C750.57,-278.47 749.65,-279.29 748.75,-280.12 694.4,-330.91 666.24,-418.97 656.33,-455.97"/>
<polygon fill="#63b8ff" stroke="#63b8ff" points="753.32,-280.7 759.5,-272.1 749.3,-274.97 753.32,-280.7"/>
</a>
</g>
</g>
<!-- Node31 -->
<g id="Node000031" class="node">
<title>Node31</title>
<g id="a_Node000031"><a xlink:href="namespacesteppable_1_1____internals_1_1arithmetic.html#a210c635ae60eaa54f65bc82a0f3c953a" target="_top" xlink:title="Executes a given predicate function a specified number of times.">
<polygon fill="white" stroke="#666666" points="712.75,-225.88 589.5,-225.88 589.5,-192.38 712.75,-192.38 712.75,-225.88"/>
<text text-anchor="start" x="597.5" y="-212.38" font-family="Helvetica,sans-Serif" font-size="10.00">steppable::__internals</text>
<text text-anchor="middle" x="651.12" y="-199.62" font-family="Helvetica,sans-Serif" font-size="10.00">::arithmetic::loop</text>
</a>
</g>
</g>
<!-- Node3&#45;&gt;Node31 -->
<g id="edge36_Node000003_Node000031" class="edge">
<title>Node3&#45;&gt;Node31</title>
<g id="a_edge36_Node000003_Node000031"><a xlink:title=" ">
<path fill="none" stroke="#63b8ff" d="M747.26,-236.09C735.87,-232.86 724.02,-229.5 712.71,-226.3"/>
<polygon fill="#63b8ff" stroke="#63b8ff" points="745.98,-239.37 756.56,-238.73 747.89,-232.63 745.98,-239.37"/>
</a>
</g>
</g>
<!-- Node32 -->
<g id="Node000032" class="node">
<title>Node32</title>
<g id="a_Node000032"><a xlink:href="classsteppable_1_1____internals_1_1utils_1_1ProgramArgs.html#a1e29a694f062b4975a737c2519a98d89" target="_top" xlink:title="This function is used to parse the command&#45;line arguments and store them in the appropriate class mem...">
<polygon fill="white" stroke="#666666" points="712.75,-174.25 589.5,-174.25 589.5,-128 712.75,-128 712.75,-174.25"/>
<text text-anchor="start" x="597.5" y="-160.75" font-family="Helvetica,sans-Serif" font-size="10.00">steppable::__internals</text>
<text text-anchor="start" x="597.5" y="-148" font-family="Helvetica,sans-Serif" font-size="10.00">::utils::ProgramArgs::</text>
<text text-anchor="middle" x="651.12" y="-135.25" font-family="Helvetica,sans-Serif" font-size="10.00">parseArgs</text>
</a>
</g>
</g>
<!-- Node3&#45;&gt;Node32 -->
<g id="edge37_Node000003_Node000032" class="edge">
<title>Node3&#45;&gt;Node32</title>
<g id="a_edge37_Node000003_Node000032"><a xlink:title=" ">
<path fill="none" stroke="#63b8ff" d="M752.9,-231.07C751.48,-230.12 750.09,-229.14 748.75,-228.12 728.3,-212.7 732.49,-199.45 712.75,-183.12 709.17,-180.17 705.28,-177.37 701.25,-174.75"/>
<polygon fill="#63b8ff" stroke="#63b8ff" points="751.03,-234.02 761.41,-236.11 754.59,-228 751.03,-234.02"/>
</a>
</g>
</g>
<!-- Node33 -->
<g id="Node000033" class="node">
<title>Node33</title>
<g id="a_Node000033"><a xlink:href="classsteppable_1_1____internals_1_1utils_1_1ProgramArgs.html#af3703e67d1a580ec98788508de89af45" target="_top" xlink:title="This function is used to print the possible command&#45;line arguments. Usually called when the user spec...">
<polygon fill="white" stroke="#666666" points="712.75,-110.25 589.5,-110.25 589.5,-64 712.75,-64 712.75,-110.25"/>
<text text-anchor="start" x="597.5" y="-96.75" font-family="Helvetica,sans-Serif" font-size="10.00">steppable::__internals</text>
<text text-anchor="start" x="597.5" y="-84" font-family="Helvetica,sans-Serif" font-size="10.00">::utils::ProgramArgs::</text>
<text text-anchor="middle" x="651.12" y="-71.25" font-family="Helvetica,sans-Serif" font-size="10.00">printUsage</text>
</a>
</g>
</g>
<!-- Node3&#45;&gt;Node33 -->
<g id="edge38_Node000003_Node000033" class="edge">
<title>Node3&#45;&gt;Node33</title>
<g id="a_edge38_Node000003_Node000033"><a xlink:title=" ">
<path fill="none" stroke="#63b8ff" d="M750.54,-229.96C749.93,-229.37 749.33,-228.75 748.75,-228.12 714.1,-190.68 745.7,-158.08 712.75,-119.12 710.14,-116.04 707.15,-113.2 703.93,-110.61"/>
<polygon fill="#63b8ff" stroke="#63b8ff" points="748.13,-232.52 758.13,-236.02 752.5,-227.05 748.13,-232.52"/>
</a>
</g>
</g>
<!-- Node5 -->
<g id="Node000005" class="node">
<title>Node5</title>
<g id="a_Node000005"><a xlink:href="classsteppable_1_1testing_1_1TestCase.html#a2d411e579a2e94888801e5c86ce0a1c1" target="_top" xlink:title="Asserts that a boolean value is false.">
<polygon fill="white" stroke="#666666" points="530.25,-995.88 404,-995.88 404,-962.38 530.25,-962.38 530.25,-995.88"/>
<text text-anchor="start" x="412" y="-982.38" font-family="Helvetica,sans-Serif" font-size="10.00">steppable::testing</text>
<text text-anchor="middle" x="467.12" y="-969.62" font-family="Helvetica,sans-Serif" font-size="10.00">::TestCase::assertFalse</text>
</a>
</g>
</g>
<!-- Node4&#45;&gt;Node5 -->
<g id="edge4_Node000004_Node000005" class="edge">
<title>Node4&#45;&gt;Node5</title>
<g id="a_edge4_Node000004_Node000005"><a xlink:title=" ">
<path fill="none" stroke="#63b8ff" d="M588.12,-944.84C568.77,-950.37 547.47,-956.45 528.26,-961.94"/>
<polygon fill="#63b8ff" stroke="#63b8ff" points="588.83,-948.28 597.49,-942.16 586.91,-941.55 588.83,-948.28"/>
</a>
</g>
</g>
<!-- Node6 -->
<g id="Node000006" class="node">
<title>Node6</title>
<g id="a_Node000006"><a xlink:href="classsteppable_1_1testing_1_1TestCase.html#a3156df668add7e3abe7c0b47fa1f9cfd" target="_top" xlink:title="Asserts that two strings are equal.">
<polygon fill="white" stroke="#666666" points="535.5,-943.88 398.75,-943.88 398.75,-910.38 535.5,-910.38 535.5,-943.88"/>
<text text-anchor="start" x="406.75" y="-930.38" font-family="Helvetica,sans-Serif" font-size="10.00">steppable::testing</text>
<text text-anchor="middle" x="467.12" y="-917.62" font-family="Helvetica,sans-Serif" font-size="10.00">::TestCase::assertIsEqual</text>
</a>
</g>
</g>
<!-- Node4&#45;&gt;Node6 -->
<g id="edge5_Node000004_Node000006" class="edge">
<title>Node4&#45;&gt;Node6</title>
<g id="a_edge5_Node000004_Node000006"><a xlink:title=" ">
<path fill="none" stroke="#63b8ff" d="M587.65,-927.12C570.97,-927.12 552.86,-927.12 535.91,-927.12"/>
<polygon fill="#63b8ff" stroke="#63b8ff" points="587.43,-930.63 597.43,-927.13 587.43,-923.63 587.43,-930.63"/>
</a>
</g>
</g>
<!-- Node7 -->
<g id="Node000007" class="node">
<title>Node7</title>
<g id="a_Node000007"><a xlink:href="classsteppable_1_1testing_1_1TestCase.html#a04f2b690d739f3d1c35a3ee7bc62df5f" target="_top" xlink:title="Asserts that two integers are equal.">
<polygon fill="white" stroke="#666666" points="535.5,-891.88 398.75,-891.88 398.75,-858.38 535.5,-858.38 535.5,-891.88"/>
<text text-anchor="start" x="406.75" y="-878.38" font-family="Helvetica,sans-Serif" font-size="10.00">steppable::testing</text>
<text text-anchor="middle" x="467.12" y="-865.62" font-family="Helvetica,sans-Serif" font-size="10.00">::TestCase::assertIsEqual</text>
</a>
</g>
</g>
<!-- Node4&#45;&gt;Node7 -->
<g id="edge6_Node000004_Node000007" class="edge">
<title>Node4&#45;&gt;Node7</title>
<g id="a_edge6_Node000004_Node000007"><a xlink:title=" ">
<path fill="none" stroke="#63b8ff" d="M588.12,-909.41C568.77,-903.88 547.47,-897.8 528.26,-892.31"/>
<polygon fill="#63b8ff" stroke="#63b8ff" points="586.91,-912.7 597.49,-912.09 588.83,-905.97 586.91,-912.7"/>
</a>
</g>
</g>
<!-- Node8 -->
<g id="Node000008" class="node">
<title>Node8</title>
<g id="a_Node000008"><a xlink:href="classsteppable_1_1testing_1_1TestCase.html#a61790bb36fd5283cec131d81df83aa0e" target="_top" xlink:title="Asserts that two strings are not equal.">
<polygon fill="white" stroke="#666666" points="544.12,-839.88 390.12,-839.88 390.12,-806.38 544.12,-806.38 544.12,-839.88"/>
<text text-anchor="start" x="398.12" y="-826.38" font-family="Helvetica,sans-Serif" font-size="10.00">steppable::testing</text>
<text text-anchor="middle" x="467.12" y="-813.62" font-family="Helvetica,sans-Serif" font-size="10.00">::TestCase::assertIsNotEqual</text>
</a>
</g>
</g>
<!-- Node4&#45;&gt;Node8 -->
<g id="edge7_Node000004_Node000008" class="edge">
<title>Node4&#45;&gt;Node8</title>
<g id="a_edge7_Node000004_Node000008"><a xlink:title=" ">
<path fill="none" stroke="#63b8ff" d="M624.95,-902.25C606.51,-885.22 580.14,-863.24 553.5,-849.12 547.34,-845.86 540.71,-842.94 533.96,-840.34"/>
<polygon fill="#63b8ff" stroke="#63b8ff" points="622.31,-904.56 631.99,-908.88 627.11,-899.47 622.31,-904.56"/>
</a>
</g>
</g>
<!-- Node9 -->
<g id="Node000009" class="node">
<title>Node9</title>
<g id="a_Node000009"><a xlink:href="classsteppable_1_1testing_1_1TestCase.html#a5b2c520e1adfc9dcd388736b55f36aea" target="_top" xlink:title="Asserts that two integers are not equal.">
<polygon fill="white" stroke="#666666" points="544.12,-1099.88 390.12,-1099.88 390.12,-1066.38 544.12,-1066.38 544.12,-1099.88"/>
<text text-anchor="start" x="398.12" y="-1086.38" font-family="Helvetica,sans-Serif" font-size="10.00">steppable::testing</text>
<text text-anchor="middle" x="467.12" y="-1073.62" font-family="Helvetica,sans-Serif" font-size="10.00">::TestCase::assertIsNotEqual</text>
</a>
</g>
</g>
<!-- Node4&#45;&gt;Node9 -->
<g id="edge8_Node000004_Node000009" class="edge">
<title>Node4&#45;&gt;Node9</title>
<g id="a_edge8_Node000004_Node000009"><a xlink:title=" ">
<path fill="none" stroke="#63b8ff" d="M636.75,-954.25C620.84,-983.76 591.59,-1030.3 553.5,-1057.12 548.69,-1060.52 543.42,-1063.47 537.94,-1066.05"/>
<polygon fill="#63b8ff" stroke="#63b8ff" points="639.76,-956.04 641.29,-945.55 633.56,-952.79 639.76,-956.04"/>
</a>
</g>
</g>
<!-- Node10 -->
<g id="Node000010" class="node">
<title>Node10</title>
<g id="a_Node000010"><a xlink:href="classsteppable_1_1testing_1_1TestCase.html#a2eb654185b127e9c62f4fdda127beac1" target="_top" xlink:title="Asserts that a boolean value is true.">
<polygon fill="white" stroke="#666666" points="528,-1047.88 406.25,-1047.88 406.25,-1014.38 528,-1014.38 528,-1047.88"/>
<text text-anchor="start" x="414.25" y="-1034.38" font-family="Helvetica,sans-Serif" font-size="10.00">steppable::testing</text>
<text text-anchor="middle" x="467.12" y="-1021.62" font-family="Helvetica,sans-Serif" font-size="10.00">::TestCase::assertTrue</text>
</a>
</g>
</g>
<!-- Node4&#45;&gt;Node10 -->
<g id="edge9_Node000004_Node000010" class="edge">
<title>Node4&#45;&gt;Node10</title>
<g id="a_edge9_Node000004_Node000010"><a xlink:title=" ">
<path fill="none" stroke="#63b8ff" d="M624.95,-952C606.51,-969.03 580.14,-991.01 553.5,-1005.12 545.56,-1009.33 536.84,-1012.97 528.09,-1016.08"/>
<polygon fill="#63b8ff" stroke="#63b8ff" points="627.11,-954.78 631.99,-945.37 622.31,-949.69 627.11,-954.78"/>
</a>
</g>
</g>
<!-- Node13&#45;&gt;Node11 -->
<g id="edge13_Node000013_Node000011" class="edge">
<title>Node13&#45;&gt;Node11</title>
<g id="a_edge13_Node000013_Node000011"><a xlink:title=" ">
<path fill="none" stroke="#63b8ff" d="M639.11,-500.64C626.65,-532.04 605.94,-585.04 589.5,-631.12 572.36,-679.18 589.04,-703.52 553.5,-740.12 548.12,-745.67 541.67,-750.22 534.76,-753.97"/>
<polygon fill="#63b8ff" stroke="#63b8ff" points="642.3,-502.09 642.75,-491.5 635.8,-499.5 642.3,-502.09"/>
</a>
</g>
</g>
<!-- Node14 -->
<g id="Node000014" class="node">
<title>Node14</title>
<g id="a_Node000014"><a xlink:href="namespacesteppable_1_1____internals_1_1arithmetic.html#ac9102075acd398b3bdf388f6cc2ef978" target="_top" xlink:title=" ">
<polygon fill="white" stroke="#666666" points="553.5,-489.88 380.75,-489.88 380.75,-456.38 553.5,-456.38 553.5,-489.88"/>
<text text-anchor="start" x="388.75" y="-476.38" font-family="Helvetica,sans-Serif" font-size="10.00">steppable::__internals</text>
<text text-anchor="middle" x="467.12" y="-463.62" font-family="Helvetica,sans-Serif" font-size="10.00">::arithmetic::divideWithQuotient</text>
</a>
</g>
</g>
<!-- Node13&#45;&gt;Node14 -->
<g id="edge14_Node000013_Node000014" class="edge">
<title>Node13&#45;&gt;Node14</title>
<g id="a_edge14_Node000013_Node000014"><a xlink:title=" ">
<path fill="none" stroke="#63b8ff" d="M577.74,-473.12C569.93,-473.12 561.94,-473.12 553.99,-473.12"/>
<polygon fill="#63b8ff" stroke="#63b8ff" points="577.5,-476.63 587.5,-473.13 577.5,-469.63 577.5,-476.63"/>
</a>
</g>
</g>
<!-- Node16 -->
<g id="Node000016" class="node">
<title>Node16</title>
<g id="a_Node000016"><a xlink:href="classsteppable_1_1Number.html#aebdaf5d342a2a897793556bd390bc184" target="_top" xlink:title="Divides two numbers.">
<polygon fill="white" stroke="#666666" points="524.62,-437.88 409.62,-437.88 409.62,-404.38 524.62,-404.38 524.62,-437.88"/>
<text text-anchor="start" x="417.62" y="-424.38" font-family="Helvetica,sans-Serif" font-size="10.00">steppable::Number::</text>
<text text-anchor="middle" x="467.12" y="-411.62" font-family="Helvetica,sans-Serif" font-size="10.00">operator/</text>
</a>
</g>
</g>
<!-- Node13&#45;&gt;Node16 -->
<g id="edge16_Node000013_Node000016" class="edge">
<title>Node13&#45;&gt;Node16</title>
<g id="a_edge16_Node000013_Node000016"><a xlink:title=" ">
<path fill="none" stroke="#63b8ff" d="M578.81,-452.75C560.93,-447.64 541.99,-442.23 524.92,-437.35"/>
<polygon fill="#63b8ff" stroke="#63b8ff" points="577.74,-456.08 588.32,-455.47 579.67,-449.35 577.74,-456.08"/>
</a>
</g>
</g>
<!-- Node17 -->
<g id="Node000017" class="node">
<title>Node17</title>
<g id="a_Node000017"><a xlink:href="namespacesteppable_1_1____internals_1_1arithmetic.html#a1b2a13f3be54bd279552f57aba88907d" target="_top" xlink:title="Takes the n&#45;th root of a numer.">
<polygon fill="white" stroke="#666666" points="528.75,-315.88 405.5,-315.88 405.5,-282.38 528.75,-282.38 528.75,-315.88"/>
<text text-anchor="start" x="413.5" y="-302.38" font-family="Helvetica,sans-Serif" font-size="10.00">steppable::__internals</text>
<text text-anchor="middle" x="467.12" y="-289.62" font-family="Helvetica,sans-Serif" font-size="10.00">::arithmetic::root</text>
</a>
</g>
</g>
<!-- Node13&#45;&gt;Node17 -->
<g id="edge17_Node000013_Node000017" class="edge">
<title>Node13&#45;&gt;Node17</title>
<g id="a_edge17_Node000013_Node000017"><a xlink:title=" ">
<path fill="none" stroke="#63b8ff" d="M624.41,-448.54C586.97,-412.74 518.38,-347.17 485.98,-316.19"/>
<polygon fill="#63b8ff" stroke="#63b8ff" points="621.6,-450.7 631.25,-455.08 626.44,-445.64 621.6,-450.7"/>
</a>
</g>
</g>
<!-- Node22 -->
<g id="Node000022" class="node">
<title>Node22</title>
<g id="a_Node000022"><a xlink:href="classsteppable_1_1Fraction.html#a9cf64d847c268d9334775c572ef75dfa" target="_top" xlink:title="Simplifies a fraction. This function simplifies the fraction by dividing the top and bottom component...">
<polygon fill="white" stroke="#666666" points="521.62,-593.88 412.62,-593.88 412.62,-560.38 521.62,-560.38 521.62,-593.88"/>
<text text-anchor="start" x="420.62" y="-580.38" font-family="Helvetica,sans-Serif" font-size="10.00">steppable::Fraction</text>
<text text-anchor="middle" x="467.12" y="-567.62" font-family="Helvetica,sans-Serif" font-size="10.00">::simplify</text>
</a>
</g>
</g>
<!-- Node13&#45;&gt;Node22 -->
<g id="edge27_Node000013_Node000022" class="edge">
<title>Node13&#45;&gt;Node22</title>
<g id="a_edge27_Node000013_Node000022"><a xlink:title=" ">
<path fill="none" stroke="#63b8ff" d="M610.08,-496.01C576.33,-515.29 528.8,-542.45 498.22,-559.93"/>
<polygon fill="#63b8ff" stroke="#63b8ff" points="611.81,-499.05 618.76,-491.05 608.34,-492.97 611.81,-499.05"/>
</a>
</g>
</g>
<!-- Node15 -->
<g id="Node000015" class="node">
<title>Node15</title>
<g id="a_Node000015"><a xlink:href="classsteppable_1_1Number.html#a719a8a93fcfe91b30c38ba0830d6de50" target="_top" xlink:title="Calculates the remainder of two numbers. (Modulus)">
<polygon fill="white" stroke="#666666" points="340.62,-385.88 225.62,-385.88 225.62,-352.38 340.62,-352.38 340.62,-385.88"/>
<text text-anchor="start" x="233.62" y="-372.38" font-family="Helvetica,sans-Serif" font-size="10.00">steppable::Number::</text>
<text text-anchor="middle" x="283.12" y="-359.62" font-family="Helvetica,sans-Serif" font-size="10.00">operator%</text>
</a>
</g>
</g>
<!-- Node14&#45;&gt;Node15 -->
<g id="edge15_Node000014_Node000015" class="edge">
<title>Node14&#45;&gt;Node15</title>
<g id="a_edge15_Node000014_Node000015"><a xlink:title=" ">
<path fill="none" stroke="#63b8ff" d="M385.67,-450.46C383.99,-449.4 382.34,-448.29 380.75,-447.12 358.04,-430.55 366.51,-412.91 344.75,-395.12 340.76,-391.86 336.3,-388.95 331.66,-386.35"/>
<polygon fill="#63b8ff" stroke="#63b8ff" points="383.98,-453.52 394.43,-455.29 387.36,-447.39 383.98,-453.52"/>
</a>
</g>
</g>
<!-- Node17&#45;&gt;Node17 -->
<g id="edge26_Node000017_Node000017" class="edge">
<title>Node17&#45;&gt;Node17</title>
<g id="a_edge26_Node000017_Node000017"><a xlink:title=" ">
<path fill="none" stroke="#63b8ff" d="M498.02,-327.26C492.99,-331.22 482.69,-333.88 467.12,-333.88 439.45,-333.88 428.43,-325.49 434.05,-316.29"/>
<polygon fill="#63b8ff" stroke="#63b8ff" points="501.39,-328.26 499.91,-317.77 494.52,-326.9 501.39,-328.26"/>
</a>
</g>
</g>
<!-- Node18 -->
<g id="Node000018" class="node">
<title>Node18</title>
<g id="a_Node000018"><a xlink:href="namespacesteppable_1_1____internals_1_1arithmetic.html#a50acfa1ad06ce385943ddd207146c9e0" target="_top" xlink:title="Raises a string representation of a number to a power.">
<polygon fill="white" stroke="#666666" points="344.75,-315.88 221.5,-315.88 221.5,-282.38 344.75,-282.38 344.75,-315.88"/>
<text text-anchor="start" x="229.5" y="-302.38" font-family="Helvetica,sans-Serif" font-size="10.00">steppable::__internals</text>
<text text-anchor="middle" x="283.12" y="-289.62" font-family="Helvetica,sans-Serif" font-size="10.00">::arithmetic::power</text>
</a>
</g>
</g>
<!-- Node17&#45;&gt;Node18 -->
<g id="edge18_Node000017_Node000018" class="edge">
<title>Node17&#45;&gt;Node18</title>
<g id="a_edge18_Node000017_Node000018"><a xlink:title=" ">
<path fill="none" stroke="#63b8ff" d="M393.97,-292.51C377.78,-292.28 360.75,-292.35 345.07,-292.71"/>
<polygon fill="#63b8ff" stroke="#63b8ff" points="393.44,-296 403.5,-292.68 393.57,-289 393.44,-296"/>
</a>
</g>
</g>
<!-- Node18&#45;&gt;Node12 -->
<g id="edge19_Node000018_Node000012" class="edge">
<title>Node18&#45;&gt;Node12</title>
<g id="a_edge19_Node000018_Node000012"><a xlink:title=" ">
<path fill="none" stroke="#63b8ff" d="M210.27,-280.81C194.19,-276.72 177.19,-272.39 161.29,-268.33"/>
<polygon fill="#63b8ff" stroke="#63b8ff" points="209.2,-284.16 219.76,-283.23 210.93,-277.37 209.2,-284.16"/>
</a>
</g>
</g>
<!-- Node18&#45;&gt;Node17 -->
<g id="edge25_Node000018_Node000017" class="edge">
<title>Node18&#45;&gt;Node17</title>
<g id="a_edge25_Node000018_Node000017"><a xlink:title=" ">
<path fill="none" stroke="#63b8ff" d="M356.58,-305.75C372.63,-305.97 389.48,-305.9 405.02,-305.54"/>
<polygon fill="#63b8ff" stroke="#63b8ff" points="356.65,-302.25 346.59,-305.56 356.52,-309.25 356.65,-302.25"/>
</a>
</g>
</g>
<!-- Node18&#45;&gt;Node18 -->
<g id="edge24_Node000018_Node000018" class="edge">
<title>Node18&#45;&gt;Node18</title>
<g id="a_edge24_Node000018_Node000018"><a xlink:title=" ">
<path fill="none" stroke="#63b8ff" d="M314.02,-327.26C308.99,-331.22 298.69,-333.88 283.12,-333.88 255.45,-333.88 244.43,-325.49 250.05,-316.29"/>
<polygon fill="#63b8ff" stroke="#63b8ff" points="317.39,-328.26 315.91,-317.77 310.52,-326.9 317.39,-328.26"/>
</a>
</g>
</g>
<!-- Node19 -->
<g id="Node000019" class="node">
<title>Node19</title>
<g id="a_Node000019"><a xlink:href="namespacesteppable_1_1____internals_1_1arithmetic.html#aa150ef39a272f7228ae239679247fab3" target="_top" xlink:title="Determines the scale of the quotient of division.">
<polygon fill="white" stroke="#666666" points="185.5,-634.88 0,-634.88 0,-601.38 185.5,-601.38 185.5,-634.88"/>
<text text-anchor="start" x="8" y="-621.38" font-family="Helvetica,sans-Serif" font-size="10.00">steppable::__internals</text>
<text text-anchor="middle" x="92.75" y="-608.62" font-family="Helvetica,sans-Serif" font-size="10.00">::arithmetic::determineResultScale</text>
</a>
</g>
</g>
<!-- Node18&#45;&gt;Node19 -->
<g id="edge20_Node000018_Node000019" class="edge">
<title>Node18&#45;&gt;Node19</title>
<g id="a_edge20_Node000018_Node000019"><a xlink:title=" ">
<path fill="none" stroke="#63b8ff" d="M243.28,-322.78C235.42,-328.75 227.68,-335.62 221.5,-343.12 152.23,-427.24 111.45,-555.13 98.39,-601"/>
<polygon fill="#63b8ff" stroke="#63b8ff" points="245.15,-325.74 251.25,-317.08 241.08,-320.05 245.15,-325.74"/>
</a>
</g>
</g>
<!-- Node20 -->
<g id="Node000020" class="node">
<title>Node20</title>
<g id="a_Node000020"><a xlink:href="classsteppable_1_1Fraction.html#abaf8678e0b61e3097789959b66e4c23c" target="_top" xlink:title="Raises the fraction to a power.">
<polygon fill="white" stroke="#666666" points="147.25,-319.88 38.25,-319.88 38.25,-286.38 147.25,-286.38 147.25,-319.88"/>
<text text-anchor="start" x="46.25" y="-306.38" font-family="Helvetica,sans-Serif" font-size="10.00">steppable::Fraction</text>
<text text-anchor="middle" x="92.75" y="-293.62" font-family="Helvetica,sans-Serif" font-size="10.00">::operator^</text>
</a>
</g>
</g>
<!-- Node18&#45;&gt;Node20 -->
<g id="edge22_Node000018_Node000020" class="edge">
<title>Node18&#45;&gt;Node20</title>
<g id="a_edge22_Node000018_Node000020"><a xlink:title=" ">
<path fill="none" stroke="#63b8ff" d="M209.88,-300.66C189.13,-301.1 166.87,-301.57 147.46,-301.98"/>
<polygon fill="#63b8ff" stroke="#63b8ff" points="209.79,-304.16 219.71,-300.45 209.64,-297.16 209.79,-304.16"/>
</a>
</g>
</g>
<!-- Node21 -->
<g id="Node000021" class="node">
<title>Node21</title>
<g id="a_Node000021"><a xlink:href="classsteppable_1_1Number.html#ae3e13c5f73bc67cd464c84a8640e1387" target="_top" xlink:title="Raises the number to a power.">
<polygon fill="white" stroke="#666666" points="150.25,-371.88 35.25,-371.88 35.25,-338.38 150.25,-338.38 150.25,-371.88"/>
<text text-anchor="start" x="43.25" y="-358.38" font-family="Helvetica,sans-Serif" font-size="10.00">steppable::Number::</text>
<text text-anchor="middle" x="92.75" y="-345.62" font-family="Helvetica,sans-Serif" font-size="10.00">operator^</text>
</a>
</g>
</g>
<!-- Node18&#45;&gt;Node21 -->
<g id="edge23_Node000018_Node000021" class="edge">
<title>Node18&#45;&gt;Node21</title>
<g id="a_edge23_Node000018_Node000021"><a xlink:title=" ">
<path fill="none" stroke="#63b8ff" d="M216.76,-319.66C206.32,-322.87 195.62,-326.12 185.5,-329.12 174.23,-332.47 162.16,-335.96 150.59,-339.26"/>
<polygon fill="#63b8ff" stroke="#63b8ff" points="217.55,-323.08 226.07,-316.79 215.49,-316.39 217.55,-323.08"/>
</a>
</g>
</g>
<!-- Node19&#45;&gt;Node13 -->
<g id="edge21_Node000019_Node000013" class="edge">
<title>Node19&#45;&gt;Node13</title>
<g id="a_edge21_Node000019_Node000013"><a xlink:title=" ">
<path fill="none" stroke="#63b8ff" d="M102.56,-646C118.29,-690.42 155.86,-775.86 221.5,-811.12 269.75,-837.05 297.65,-839.09 344.75,-811.12 373.48,-794.07 359.45,-770.87 380.75,-745.12 444.1,-668.54 497.2,-685.03 553.5,-603.12 582.16,-561.43 554.2,-531.37 589.5,-495.12 591.22,-493.36 593.09,-491.74 595.07,-490.24"/>
<polygon fill="#63b8ff" stroke="#63b8ff" points="105.88,-644.91 99.35,-636.57 99.26,-647.16 105.88,-644.91"/>
</a>
</g>
</g>
<!-- Node23 -->
<g id="Node000023" class="node">
<title>Node23</title>
<g id="a_Node000023"><a xlink:href="classsteppable_1_1Fraction.html#a4647e3f3062426a91d1ef7cdbde23bb6" target="_top" xlink:title="Initialized a fraction from a number.">
<polygon fill="white" stroke="#666666" points="337.62,-437.88 228.62,-437.88 228.62,-404.38 337.62,-404.38 337.62,-437.88"/>
<text text-anchor="start" x="236.62" y="-424.38" font-family="Helvetica,sans-Serif" font-size="10.00">steppable::Fraction</text>
<text text-anchor="middle" x="283.12" y="-411.62" font-family="Helvetica,sans-Serif" font-size="10.00">::Fraction</text>
</a>
</g>
</g>
<!-- Node22&#45;&gt;Node23 -->
<g id="edge28_Node000022_Node000023" class="edge">
<title>Node22&#45;&gt;Node23</title>
<g id="a_edge28_Node000022_Node000023"><a xlink:title=" ">
<path fill="none" stroke="#63b8ff" d="M436.35,-552.84C419.2,-538.16 397.73,-518.57 380.75,-499.12 362.26,-477.96 366.51,-464.91 344.75,-447.12 340.76,-443.86 336.3,-440.95 331.66,-438.35"/>
<polygon fill="#63b8ff" stroke="#63b8ff" points="433.83,-555.29 443.73,-559.07 438.35,-549.94 433.83,-555.29"/>
</a>
</g>
</g>
<!-- Node24 -->
<g id="Node000024" class="node">
<title>Node24</title>
<g id="a_Node000024"><a xlink:href="classsteppable_1_1Fraction.html#a1fa38ab4cede78e19fa478242f6e5b46" target="_top" xlink:title="Initializes a fraction with a specified top component and bottom component.">
<polygon fill="white" stroke="#666666" points="337.62,-801.88 228.62,-801.88 228.62,-768.38 337.62,-768.38 337.62,-801.88"/>
<text text-anchor="start" x="236.62" y="-788.38" font-family="Helvetica,sans-Serif" font-size="10.00">steppable::Fraction</text>
<text text-anchor="middle" x="283.12" y="-775.62" font-family="Helvetica,sans-Serif" font-size="10.00">::Fraction</text>
</a>
</g>
</g>
<!-- Node22&#45;&gt;Node24 -->
<g id="edge29_Node000022_Node000024" class="edge">
<title>Node22&#45;&gt;Node24</title>
<g id="a_edge29_Node000022_Node000024"><a xlink:title=" ">
<path fill="none" stroke="#63b8ff" d="M449.53,-603.78C419.68,-651.47 358.72,-747.5 344.75,-759.12 340.79,-762.42 336.35,-765.36 331.71,-767.97"/>
<polygon fill="#63b8ff" stroke="#63b8ff" points="452.44,-605.74 454.77,-595.4 446.5,-602.03 452.44,-605.74"/>
</a>
</g>
</g>
<!-- Node25 -->
<g id="Node000025" class="node">
<title>Node25</title>
<g id="a_Node000025"><a xlink:href="classsteppable_1_1Fraction.html#a21eef8107e9cd1e590f7595c4ecbe147" target="_top" xlink:title="Multiplies two fractions together and stores the result in the current one. This function does it by ...">
<polygon fill="white" stroke="#666666" points="337.62,-749.88 228.62,-749.88 228.62,-716.38 337.62,-716.38 337.62,-749.88"/>
<text text-anchor="start" x="236.62" y="-736.38" font-family="Helvetica,sans-Serif" font-size="10.00">steppable::Fraction</text>
<text text-anchor="middle" x="283.12" y="-723.62" font-family="Helvetica,sans-Serif" font-size="10.00">::operator*=</text>
</a>
</g>
</g>
<!-- Node22&#45;&gt;Node25 -->
<g id="edge30_Node000022_Node000025" class="edge">
<title>Node22&#45;&gt;Node25</title>
<g id="a_edge30_Node000022_Node000025"><a xlink:title=" ">
<path fill="none" stroke="#63b8ff" d="M447.3,-603C425.37,-631.63 386.74,-677.62 344.75,-707.12 340.16,-710.35 335.1,-713.29 329.93,-715.95"/>
<polygon fill="#63b8ff" stroke="#63b8ff" points="449.95,-605.3 453.17,-595.21 444.36,-601.09 449.95,-605.3"/>
</a>
</g>
</g>
<!-- Node26 -->
<g id="Node000026" class="node">
<title>Node26</title>
<g id="a_Node000026"><a xlink:href="classsteppable_1_1Fraction.html#ab10a5f43f6e60253ab6f4a097c73cf6e" target="_top" xlink:title="Adds two fractions together and stores the result in the current one. This function does it by doing ...">
<polygon fill="white" stroke="#666666" points="337.62,-697.88 228.62,-697.88 228.62,-664.38 337.62,-664.38 337.62,-697.88"/>
<text text-anchor="start" x="236.62" y="-684.38" font-family="Helvetica,sans-Serif" font-size="10.00">steppable::Fraction</text>
<text text-anchor="middle" x="283.12" y="-671.62" font-family="Helvetica,sans-Serif" font-size="10.00">::operator+=</text>
</a>
</g>
</g>
<!-- Node22&#45;&gt;Node26 -->
<g id="edge31_Node000022_Node000026" class="edge">
<title>Node22&#45;&gt;Node26</title>
<g id="a_edge31_Node000022_Node000026"><a xlink:title=" ">
<path fill="none" stroke="#63b8ff" d="M432.89,-600.62C409,-616.97 375.67,-638.71 344.75,-655.12 338.98,-658.19 332.78,-661.17 326.62,-663.97"/>
<polygon fill="#63b8ff" stroke="#63b8ff" points="434.72,-603.61 440.96,-595.05 430.74,-597.85 434.72,-603.61"/>
</a>
</g>
</g>
<!-- Node27 -->
<g id="Node000027" class="node">
<title>Node27</title>
<g id="a_Node000027"><a xlink:href="classsteppable_1_1Fraction.html#aad3d96fbba7e7a0fa36c3f69f0463b8b" target="_top" xlink:title="Subtracts a fraction from another fraction and stores the result in the current one....">
<polygon fill="white" stroke="#666666" points="337.62,-645.88 228.62,-645.88 228.62,-612.38 337.62,-612.38 337.62,-645.88"/>
<text text-anchor="start" x="236.62" y="-632.38" font-family="Helvetica,sans-Serif" font-size="10.00">steppable::Fraction</text>
<text text-anchor="middle" x="283.12" y="-619.62" font-family="Helvetica,sans-Serif" font-size="10.00">::operator&#45;=</text>
</a>
</g>
</g>
<!-- Node22&#45;&gt;Node27 -->
<g id="edge32_Node000022_Node000027" class="edge">
<title>Node22&#45;&gt;Node27</title>
<g id="a_edge32_Node000022_Node000027"><a xlink:title=" ">
<path fill="none" stroke="#63b8ff" d="M401.52,-595.58C380.73,-601.52 357.93,-608.04 337.99,-613.73"/>
<polygon fill="#63b8ff" stroke="#63b8ff" points="402.39,-598.97 411.05,-592.86 400.47,-592.24 402.39,-598.97"/>
</a>
</g>
</g>
<!-- Node28 -->
<g id="Node000028" class="node">
<title>Node28</title>
<g id="a_Node000028"><a xlink:href="classsteppable_1_1Fraction.html#a86913160c5f596b74be3007bd16bda6b" target="_top" xlink:title="Divides a fraction by abother fraction and stores the result in the current one. This function does i...">
<polygon fill="white" stroke="#666666" points="337.62,-593.88 228.62,-593.88 228.62,-560.38 337.62,-560.38 337.62,-593.88"/>
<text text-anchor="start" x="236.62" y="-580.38" font-family="Helvetica,sans-Serif" font-size="10.00">steppable::Fraction</text>
<text text-anchor="middle" x="283.12" y="-567.62" font-family="Helvetica,sans-Serif" font-size="10.00">::operator/=</text>
</a>
</g>
</g>
<!-- Node22&#45;&gt;Node28 -->
<g id="edge33_Node000022_Node000028" class="edge">
<title>Node22&#45;&gt;Node28</title>
<g id="a_edge33_Node000022_Node000028"><a xlink:title=" ">
<path fill="none" stroke="#63b8ff" d="M401.23,-577.12C380.52,-577.12 357.83,-577.12 337.99,-577.12"/>
<polygon fill="#63b8ff" stroke="#63b8ff" points="400.99,-580.63 410.99,-577.13 400.99,-573.63 400.99,-580.63"/>
</a>
</g>
</g>
<!-- Node29 -->
<g id="Node000029" class="node">
<title>Node29</title>
<g id="a_Node000029"><a xlink:href="classsteppable_1_1Fraction.html#ac0a3d392ac70f42f74392fe08c1ab8be" target="_top" xlink:title="Raises the fraction to a power and stores the result in the current one.">
<polygon fill="white" stroke="#666666" points="337.62,-541.88 228.62,-541.88 228.62,-508.38 337.62,-508.38 337.62,-541.88"/>
<text text-anchor="start" x="236.62" y="-528.38" font-family="Helvetica,sans-Serif" font-size="10.00">steppable::Fraction</text>
<text text-anchor="middle" x="283.12" y="-515.62" font-family="Helvetica,sans-Serif" font-size="10.00">::operator^=</text>
</a>
</g>
</g>
<!-- Node22&#45;&gt;Node29 -->
<g id="edge34_Node000022_Node000029" class="edge">
<title>Node22&#45;&gt;Node29</title>
<g id="a_edge34_Node000022_Node000029"><a xlink:title=" ">
<path fill="none" stroke="#63b8ff" d="M401.52,-558.67C380.73,-552.73 357.93,-546.21 337.99,-540.52"/>
<polygon fill="#63b8ff" stroke="#63b8ff" points="400.47,-562.01 411.05,-561.39 402.39,-555.28 400.47,-562.01"/>
</a>
</g>
</g>
<!-- Node30 -->
<g id="Node000030" class="node">
<title>Node30</title>
<g id="a_Node000030"><a xlink:href="classsteppable_1_1Fraction.html#a24daec3e07be2176c6efbcb569d8c921" target="_top" xlink:title="Returns the fraction as a string. The string is formatted as &quot;top/bottom&quot;, and it will automatically ...">
<polygon fill="white" stroke="#666666" points="337.62,-489.88 228.62,-489.88 228.62,-456.38 337.62,-456.38 337.62,-489.88"/>
<text text-anchor="start" x="236.62" y="-476.38" font-family="Helvetica,sans-Serif" font-size="10.00">steppable::Fraction</text>
<text text-anchor="middle" x="283.12" y="-463.62" font-family="Helvetica,sans-Serif" font-size="10.00">::present</text>
</a>
</g>
</g>
<!-- Node22&#45;&gt;Node30 -->
<g id="edge35_Node000022_Node000030" class="edge">
<title>Node22&#45;&gt;Node30</title>
<g id="a_edge35_Node000022_Node000030"><a xlink:title=" ">
<path fill="none" stroke="#63b8ff" d="M432.89,-553.63C409,-537.28 375.67,-515.54 344.75,-499.12 338.98,-496.06 332.78,-493.08 326.62,-490.28"/>
<polygon fill="#63b8ff" stroke="#63b8ff" points="430.74,-556.4 440.96,-559.2 434.72,-550.64 430.74,-556.4"/>
</a>
</g>
</g>
<!-- Node34 -->
<g id="Node000034" class="node">
<title>Node34</title>
<g id="a_Node000034"><a xlink:href="classsteppable_1_1____internals_1_1utils_1_1ProgramArgs.html#abc3534db8c4d346cbd23df19566f2432" target="_top" xlink:title="This function is used to get the value of a keyword argument.">
<polygon fill="white" stroke="#666666" points="528.75,-46.25 405.5,-46.25 405.5,0 528.75,0 528.75,-46.25"/>
<text text-anchor="start" x="413.5" y="-32.75" font-family="Helvetica,sans-Serif" font-size="10.00">steppable::__internals</text>
<text text-anchor="start" x="413.5" y="-20" font-family="Helvetica,sans-Serif" font-size="10.00">::utils::ProgramArgs::</text>
<text text-anchor="middle" x="467.12" y="-7.25" font-family="Helvetica,sans-Serif" font-size="10.00">getKeywordArgument</text>
</a>
</g>
</g>
<!-- Node33&#45;&gt;Node34 -->
<g id="edge39_Node000033_Node000034" class="edge">
<title>Node33&#45;&gt;Node34</title>
<g id="a_edge39_Node000033_Node000034"><a xlink:title=" ">
<path fill="none" stroke="#63b8ff" d="M578.43,-61.91C562.1,-56.17 544.91,-50.12 529.07,-44.56"/>
<polygon fill="#63b8ff" stroke="#63b8ff" points="576.99,-65.12 587.59,-65.13 579.31,-58.51 576.99,-65.12"/>
</a>
</g>
</g>
<!-- Node35 -->
<g id="Node000035" class="node">
<title>Node35</title>
<g id="a_Node000035"><a xlink:href="classsteppable_1_1____internals_1_1utils_1_1ProgramArgs.html#a80ee5c4af4d6a642b3a72bea343ebbd9" target="_top" xlink:title="This function is used to get the value of a positional argument.">
<polygon fill="white" stroke="#666666" points="528.75,-174.25 405.5,-174.25 405.5,-128 528.75,-128 528.75,-174.25"/>
<text text-anchor="start" x="413.5" y="-160.75" font-family="Helvetica,sans-Serif" font-size="10.00">steppable::__internals</text>
<text text-anchor="start" x="413.5" y="-148" font-family="Helvetica,sans-Serif" font-size="10.00">::utils::ProgramArgs::</text>
<text text-anchor="middle" x="467.12" y="-135.25" font-family="Helvetica,sans-Serif" font-size="10.00">getPosArg</text>
</a>
</g>
</g>
<!-- Node33&#45;&gt;Node35 -->
<g id="edge40_Node000033_Node000035" class="edge">
<title>Node33&#45;&gt;Node35</title>
<g id="a_edge40_Node000033_Node000035"><a xlink:title=" ">
<path fill="none" stroke="#63b8ff" d="M578.43,-112.34C562.1,-118.08 544.91,-124.13 529.07,-129.69"/>
<polygon fill="#63b8ff" stroke="#63b8ff" points="579.31,-115.74 587.59,-109.12 576.99,-109.13 579.31,-115.74"/>
</a>
</g>
</g>
<!-- Node36 -->
<g id="Node000036" class="node">
<title>Node36</title>
<g id="a_Node000036"><a xlink:href="classsteppable_1_1____internals_1_1utils_1_1ProgramArgs.html#abfbc6f2e68f3cc414843a59160a0cea6" target="_top" xlink:title="This function is used to get the value of a switch.">
<polygon fill="white" stroke="#666666" points="528.75,-110.25 405.5,-110.25 405.5,-64 528.75,-64 528.75,-110.25"/>
<text text-anchor="start" x="413.5" y="-96.75" font-family="Helvetica,sans-Serif" font-size="10.00">steppable::__internals</text>
<text text-anchor="start" x="413.5" y="-84" font-family="Helvetica,sans-Serif" font-size="10.00">::utils::ProgramArgs::</text>
<text text-anchor="middle" x="467.12" y="-71.25" font-family="Helvetica,sans-Serif" font-size="10.00">getSwitch</text>
</a>
</g>
</g>
<!-- Node33&#45;&gt;Node36 -->
<g id="edge41_Node000033_Node000036" class="edge">
<title>Node33&#45;&gt;Node36</title>
<g id="a_edge41_Node000033_Node000036"><a xlink:title=" ">
<path fill="none" stroke="#63b8ff" d="M577.97,-87.12C561.78,-87.12 544.75,-87.12 529.07,-87.12"/>
<polygon fill="#63b8ff" stroke="#63b8ff" points="577.5,-90.63 587.5,-87.13 577.5,-83.63 577.5,-90.63"/>
</a>
</g>
</g>
</g>
</svg>

<g id="navigator" transform="translate(0 0)" fill="#404254">
  <rect fill="#f2f5e9" fill-opacity="0.5" stroke="#606060" stroke-width=".5" x="0" y="0" width="60" height="60"/>
  <use id="zoomplus" xlink:href="#zoomPlus" x="17" y="9" onmousedown="handleZoom(evt,'in')"/>
  <use id="zoomminus" xlink:href="#zoomMin" x="42" y="9" onmousedown="handleZoom(evt,'out')"/>
  <use id="reset" xlink:href="#resetDef" x="30" y="36" onmousedown="handleReset()"/>
   <use id="arrowup" xlink:href="#arrowUp" x="0" y="0" onmousedown="handlePan(0,-1)"/>
  <use id="arrowright" xlink:href="#arrowRight" x="0" y="0" onmousedown="handlePan(1,0)"/>
  <use id="arrowdown" xlink:href="#arrowDown" x="0" y="0" onmousedown="handlePan(0,1)"/>
  <use id="arrowleft" xlink:href="#arrowLeft" x="0" y="0" onmousedown="handlePan(-1,0)"/>
</g>
<svg viewBox="0 0 15 15" width="100%" height="30px" preserveAspectRatio="xMaxYMin meet">
 <g id="arrow_out" transform="scale(0.3 0.3)">
  <a xlink:href="namespacesteppable_1_1____internals_1_1utils_1_1colors_a36cc73ec1844a03d7cba5b409109c999_icgraph_org.svg" target="_base">
   <rect id="button" ry="5" rx="5" y="6" x="6" height="38" width="38"
        fill="#f2f5e9" fill-opacity="0.5" stroke="#606060" stroke-width="1.0"/>
   <path id="arrow"
     d="M 11.500037,31.436501 C 11.940474,20.09759 22.043105,11.32322 32.158766,21.979434 L 37.068811,17.246167 C 37.068811,17.246167 37.088388,32 37.088388,32 L 22.160133,31.978069 C 22.160133,31.978069 26.997745,27.140456 26.997745,27.140456 C 18.528582,18.264221 13.291696,25.230495 11.500037,31.436501 z"
     style="fill:#404040;"/>
  </a>
 </g>
</svg>

<style type='text/css'>
<![CDATA[
[data-mouse-over-selected='false'] { opacity: 0.7; }
[data-mouse-over-selected='true']  { opacity: 1.0; }
]]>
</style>
<script type="application/ecmascript"><![CDATA[
document.addEventListener('DOMContentLoaded', (event) => {
  highlightEdges();
  highlightAdjacentNodes();
});
]]></script>
</svg>
