<?xml version="1.0" encoding="UTF-8" standalone="no"?>
<!DOCTYPE svg PUBLIC "-//W3C//DTD SVG 1.1//EN"
 "http://www.w3.org/Graphics/SVG/1.1/DTD/svg11.dtd">
<!-- Generated by graphviz version 12.2.1 (20241206.2353)
 -->
<!-- Title: ImGui::ClearActiveID Pages: 1 -->
<svg width="789pt" height="68pt"
 viewBox="0.00 0.00 789.25 67.75" xmlns="http://www.w3.org/2000/svg" xmlns:xlink="http://www.w3.org/1999/xlink">
<g id="graph0" class="graph" transform="scale(1 1) rotate(0) translate(4 63.75)">
<title>ImGui::ClearActiveID</title>
<!-- Node1 -->
<g id="Node000001" class="node">
<title>Node1</title>
<g id="a_Node000001"><a xlink:title=" ">
<polygon fill="#999999" stroke="#666666" points="118,-39.75 0,-39.75 0,-19 118,-19 118,-39.75"/>
<text text-anchor="middle" x="59" y="-26.25" font-family="Helvetica,sans-Serif" font-size="10.00">ImGui::ClearActiveID</text>
</a>
</g>
</g>
<!-- Node2 -->
<g id="Node000002" class="node">
<title>Node2</title>
<g id="a_Node000002"><a xlink:href="namespaceImGui.html#a27b8ace13a8c421ee8405f0cbebe4ead" target="_top" xlink:title=" ">
<polygon fill="white" stroke="#666666" points="262.25,-39.75 154,-39.75 154,-19 262.25,-19 262.25,-39.75"/>
<text text-anchor="middle" x="208.12" y="-26.25" font-family="Helvetica,sans-Serif" font-size="10.00">ImGui::SetActiveID</text>
</a>
</g>
</g>
<!-- Node1&#45;&gt;Node2 -->
<g id="edge1_Node000001_Node000002" class="edge">
<title>Node1&#45;&gt;Node2</title>
<g id="a_edge1_Node000001_Node000002"><a xlink:title=" ">
<path fill="none" stroke="#63b8ff" d="M118.15,-29.38C126.12,-29.38 134.34,-29.38 142.42,-29.38"/>
<polygon fill="#63b8ff" stroke="#63b8ff" points="142.19,-32.88 152.19,-29.38 142.19,-25.88 142.19,-32.88"/>
</a>
</g>
</g>
<!-- Node3 -->
<g id="Node000003" class="node">
<title>Node3</title>
<g id="a_Node000003"><a xlink:href="namespaceImGui.html#aad9419cf6e296c668807e3af4bfd62bb" target="_top" xlink:title=" ">
<polygon fill="white" stroke="#666666" points="473.25,-39.75 298.25,-39.75 298.25,-19 473.25,-19 473.25,-39.75"/>
<text text-anchor="middle" x="385.75" y="-26.25" font-family="Helvetica,sans-Serif" font-size="10.00">ImGui::InputTextDeactivateHook</text>
</a>
</g>
</g>
<!-- Node2&#45;&gt;Node3 -->
<g id="edge2_Node000002_Node000003" class="edge">
<title>Node2&#45;&gt;Node3</title>
<g id="a_edge2_Node000002_Node000003"><a xlink:title=" ">
<path fill="none" stroke="#63b8ff" d="M262.29,-29.38C270.07,-29.38 278.27,-29.38 286.6,-29.38"/>
<polygon fill="#63b8ff" stroke="#63b8ff" points="286.5,-32.88 296.5,-29.38 286.5,-25.88 286.5,-32.88"/>
</a>
</g>
</g>
<!-- Node4 -->
<g id="Node000004" class="node">
<title>Node4</title>
<g id="a_Node000004"><a xlink:href="structImVector.html#ac371dd62e56ae486b1a5038cf07eee56" target="_top" xlink:title=" ">
<polygon fill="white" stroke="#666666" points="604,-39.75 509.25,-39.75 509.25,-19 604,-19 604,-39.75"/>
<text text-anchor="middle" x="556.62" y="-26.25" font-family="Helvetica,sans-Serif" font-size="10.00">ImVector::resize</text>
</a>
</g>
</g>
<!-- Node3&#45;&gt;Node4 -->
<g id="edge3_Node000003_Node000004" class="edge">
<title>Node3&#45;&gt;Node4</title>
<g id="a_edge3_Node000003_Node000004"><a xlink:title=" ">
<path fill="none" stroke="#63b8ff" d="M473.66,-29.38C481.71,-29.38 489.73,-29.38 497.43,-29.38"/>
<polygon fill="#63b8ff" stroke="#63b8ff" points="497.31,-32.88 507.31,-29.38 497.31,-25.88 497.31,-32.88"/>
</a>
</g>
</g>
<!-- Node5 -->
<g id="Node000005" class="node">
<title>Node5</title>
<g id="a_Node000005"><a xlink:href="structImVector.html#a3a097635d464b1b70dc7d59996a88b28" target="_top" xlink:title=" ">
<polygon fill="white" stroke="#666666" points="781.25,-59.75 640,-59.75 640,-39 781.25,-39 781.25,-59.75"/>
<text text-anchor="middle" x="710.62" y="-46.25" font-family="Helvetica,sans-Serif" font-size="10.00">ImVector::_grow_capacity</text>
</a>
</g>
</g>
<!-- Node4&#45;&gt;Node5 -->
<g id="edge4_Node000004_Node000005" class="edge">
<title>Node4&#45;&gt;Node5</title>
<g id="a_edge4_Node000004_Node000005"><a xlink:title=" ">
<path fill="none" stroke="#63b8ff" d="M604.47,-35.54C612.15,-36.55 620.29,-37.62 628.51,-38.7"/>
<polygon fill="#63b8ff" stroke="#63b8ff" points="627.87,-42.15 638.24,-39.98 628.78,-35.21 627.87,-42.15"/>
</a>
</g>
</g>
<!-- Node6 -->
<g id="Node000006" class="node">
<title>Node6</title>
<g id="a_Node000006"><a xlink:href="structImVector.html#a0f14f5736c3372157856eebb67123b75" target="_top" xlink:title=" ">
<polygon fill="white" stroke="#666666" points="761.75,-20.75 659.5,-20.75 659.5,0 761.75,0 761.75,-20.75"/>
<text text-anchor="middle" x="710.62" y="-7.25" font-family="Helvetica,sans-Serif" font-size="10.00">ImVector::reserve</text>
</a>
</g>
</g>
<!-- Node4&#45;&gt;Node6 -->
<g id="edge5_Node000004_Node000006" class="edge">
<title>Node4&#45;&gt;Node6</title>
<g id="a_edge5_Node000004_Node000006"><a xlink:title=" ">
<path fill="none" stroke="#63b8ff" d="M604.47,-23.52C618.17,-21.81 633.35,-19.91 647.83,-18.1"/>
<polygon fill="#63b8ff" stroke="#63b8ff" points="648.25,-21.57 657.74,-16.86 647.38,-14.63 648.25,-21.57"/>
</a>
</g>
</g>
</g>
</svg>
