<?xml version="1.0" encoding="UTF-8" standalone="no"?>
<!DOCTYPE svg PUBLIC "-//W3C//DTD SVG 1.1//EN"
 "http://www.w3.org/Graphics/SVG/1.1/DTD/svg11.dtd">
<!-- Generated by graphviz version 12.0.0 (20240704.0754)
 -->
<!-- Title: ImGui::RenderTextEllipsis Pages: 1 -->
<!--zoomable 414 -->

<svg id="main" version="1.1" xmlns="http://www.w3.org/2000/svg" xmlns:xlink="http://www.w3.org/1999/xlink" xml:space="preserve" onload="init(evt)">
<style type="text/css"><![CDATA[
.node, .edge {opacity: 0.7;}
.node.selected, .edge.selected {opacity: 1;}
.edge:hover path { stroke: red; }
.edge:hover polygon { stroke: red; fill: red; }
]]></style>

<defs>
  <circle id="rim" cx="0" cy="0" r="7"/>
  <circle id="rim2" cx="0" cy="0" r="3.5"/>
  <g id="zoomPlus">
    <use xlink:href="#rim" fill="#404040"><set attributeName="fill" to="#808080" begin="zoomplus.mouseover" end="zoomplus.mouseout"/></use>
    <path d="M-4,0h8M0,-4v8" fill="none" stroke="white" stroke-width="1.5" pointer-events="none"/>
  </g>
  <g id="zoomMin">
    <use xlink:href="#rim" fill="#404040"><set attributeName="fill" to="#808080" begin="zoomminus.mouseover" end="zoomminus.mouseout"/></use>
    <path d="M-4,0h8" fill="none" stroke="white" stroke-width="1.5" pointer-events="none"/>
  </g>
  <g id="arrowUp" transform="translate(30 24)">
    <use xlink:href="#rim"/>
    <path pointer-events="none" fill="none" stroke="white" stroke-width="1.5" d="M0,-3.0v7 M-2.5,-0.5L0,-3.0L2.5,-0.5"/>
  </g>
  <g id="arrowRight" transform="rotate(90) translate(36 -43)">
    <use xlink:href="#rim"/>
    <path pointer-events="none" fill="none" stroke="white" stroke-width="1.5" d="M0,-3.0v7 M-2.5,-0.5L0,-3.0L2.5,-0.5"/>
  </g>
  <g id="arrowDown" transform="rotate(180) translate(-30 -48)">
    <use xlink:href="#rim"/>
    <path pointer-events="none" fill="none" stroke="white" stroke-width="1.5" d="M0,-3.0v7 M-2.5,-0.5L0,-3.0L2.5,-0.5"/>
  </g>
  <g id="arrowLeft" transform="rotate(270) translate(-36 17)">
    <use xlink:href="#rim"/>
    <path pointer-events="none" fill="none" stroke="white" stroke-width="1.5" d="M0,-3.0v7 M-2.5,-0.5L0,-3.0L2.5,-0.5"/>
  </g>
  <g id="resetDef">
    <use xlink:href="#rim2" fill="#404040"><set attributeName="fill" to="#808080" begin="reset.mouseover" end="reset.mouseout"/></use>
  </g>
</defs>
<script type="application/ecmascript">
var viewWidth = 1247;
var viewHeight = 414;
var sectionId = 'dynsection-934';
</script>
<script type="application/ecmascript" xlink:href="svg.min.js"/>
<svg id="graph" class="graph">
<g id="viewport">
<title>ImGui::RenderTextEllipsis</title>
<!-- Node1 -->
<g id="Node000001" class="node">
<title>Node1</title>
<g id="a_Node000001"><a xlink:title=" ">
<polygon fill="#999999" stroke="#666666" points="140.5,-289.12 0,-289.12 0,-268.38 140.5,-268.38 140.5,-289.12"/>
<text text-anchor="middle" x="70.25" y="-275.62" font-family="Helvetica,sans-Serif" font-size="10.00">ImGui::RenderTextEllipsis</text>
</a>
</g>
</g>
<!-- Node2 -->
<g id="Node000002" class="node">
<title>Node2</title>
<g id="a_Node000002"><a xlink:href="namespaceImGui.html#a848b9db6cc4a186751c0ecebcaadc33b" target="_top" xlink:title=" ">
<polygon fill="white" stroke="#666666" points="493.5,-375.12 380.75,-375.12 380.75,-354.38 493.5,-354.38 493.5,-375.12"/>
<text text-anchor="middle" x="437.12" y="-361.62" font-family="Helvetica,sans-Serif" font-size="10.00">ImGui::CalcTextSize</text>
</a>
</g>
</g>
<!-- Node1&#45;&gt;Node2 -->
<g id="edge1_Node000001_Node000002" class="edge">
<title>Node1&#45;&gt;Node2</title>
<g id="a_edge1_Node000001_Node000002"><a xlink:title=" ">
<path fill="none" stroke="#63b8ff" d="M84.93,-289.52C104.14,-303.99 140.78,-329.22 176.5,-340.75 239.61,-361.12 315.51,-366.04 368.9,-366.52"/>
<polygon fill="#63b8ff" stroke="#63b8ff" points="368.75,-370.01 378.76,-366.55 368.77,-363.01 368.75,-370.01"/>
</a>
</g>
</g>
<!-- Node3 -->
<g id="Node000003" class="node">
<title>Node3</title>
<g id="a_Node000003"><a xlink:href="structImFont.html#ad67f64fd206ad197f4b93b1a1ae27cfe" target="_top" xlink:title=" ">
<polygon fill="white" stroke="#666666" points="683.12,-394.12 559.12,-394.12 559.12,-373.38 683.12,-373.38 683.12,-394.12"/>
<text text-anchor="middle" x="621.12" y="-380.62" font-family="Helvetica,sans-Serif" font-size="10.00">ImFont::CalcTextSizeA</text>
</a>
</g>
</g>
<!-- Node1&#45;&gt;Node3 -->
<g id="edge5_Node000001_Node000003" class="edge">
<title>Node1&#45;&gt;Node3</title>
<g id="a_edge5_Node000001_Node000003"><a xlink:title=" ">
<path fill="none" stroke="#63b8ff" d="M80.03,-289.52C96.57,-308.93 134.47,-349.34 176.5,-366.75 298.91,-417.44 456.95,-407.72 547.58,-395.86"/>
<polygon fill="#63b8ff" stroke="#63b8ff" points="547.89,-399.35 557.33,-394.54 546.95,-392.42 547.89,-399.35"/>
</a>
</g>
</g>
<!-- Node5 -->
<g id="Node000005" class="node">
<title>Node5</title>
<g id="a_Node000005"><a xlink:href="namespaceImGui.html#a7671e1dbc803a31b06081b52a771d83f" target="_top" xlink:title=" ">
<polygon fill="white" stroke="#666666" points="699.25,-337.12 543,-337.12 543,-316.38 699.25,-316.38 699.25,-337.12"/>
<text text-anchor="middle" x="621.12" y="-323.62" font-family="Helvetica,sans-Serif" font-size="10.00">ImGui::FindRenderedTextEnd</text>
</a>
</g>
</g>
<!-- Node1&#45;&gt;Node5 -->
<g id="edge6_Node000001_Node000005" class="edge">
<title>Node1&#45;&gt;Node5</title>
<g id="a_edge6_Node000001_Node000005"><a xlink:title=" ">
<path fill="none" stroke="#63b8ff" d="M124.61,-289.59C141.18,-292.63 159.54,-295.67 176.5,-297.75 298.88,-312.75 441.27,-320.32 531.05,-323.89"/>
<polygon fill="#63b8ff" stroke="#63b8ff" points="530.9,-327.39 541.03,-324.28 531.17,-320.4 530.9,-327.39"/>
</a>
</g>
</g>
<!-- Node6 -->
<g id="Node000006" class="node">
<title>Node6</title>
<g id="a_Node000006"><a xlink:href="namespaceImGui.html#a0de2d9bd347d9866511eb8d014e62556" target="_top" xlink:title=" ">
<polygon fill="white" stroke="#666666" points="493.88,-242.12 380.38,-242.12 380.38,-221.38 493.88,-221.38 493.88,-242.12"/>
<text text-anchor="middle" x="437.12" y="-228.62" font-family="Helvetica,sans-Serif" font-size="10.00">ImGui::GetColorU32</text>
</a>
</g>
</g>
<!-- Node1&#45;&gt;Node6 -->
<g id="edge7_Node000001_Node000006" class="edge">
<title>Node1&#45;&gt;Node6</title>
<g id="a_edge7_Node000001_Node000006"><a xlink:title=" ">
<path fill="none" stroke="#63b8ff" d="M127.12,-267.9C143.03,-265.02 160.42,-262.07 176.5,-259.75 241.61,-250.37 316.32,-242.63 368.83,-237.68"/>
<polygon fill="#63b8ff" stroke="#63b8ff" points="368.88,-241.19 378.51,-236.78 368.23,-234.22 368.88,-241.19"/>
</a>
</g>
</g>
<!-- Node8 -->
<g id="Node000008" class="node">
<title>Node8</title>
<g id="a_Node000008"><a xlink:href="namespaceImGui.html#a7a0d62e33f2236ec2f789e24ca0fb56f" target="_top" xlink:title=" ">
<polygon fill="white" stroke="#666666" points="321.5,-195.12 186.25,-195.12 186.25,-174.38 321.5,-174.38 321.5,-195.12"/>
<text text-anchor="middle" x="253.88" y="-181.62" font-family="Helvetica,sans-Serif" font-size="10.00">ImGui::LogRenderedText</text>
</a>
</g>
</g>
<!-- Node1&#45;&gt;Node8 -->
<g id="edge9_Node000001_Node000008" class="edge">
<title>Node1&#45;&gt;Node8</title>
<g id="a_edge9_Node000001_Node000008"><a xlink:title=" ">
<path fill="none" stroke="#63b8ff" d="M92.08,-267.97C123.89,-251.51 184.74,-220.01 221.78,-200.84"/>
<polygon fill="#63b8ff" stroke="#63b8ff" points="223.39,-203.95 230.66,-196.25 220.17,-197.74 223.39,-203.95"/>
</a>
</g>
</g>
<!-- Node10 -->
<g id="Node000010" class="node">
<title>Node10</title>
<g id="a_Node000010"><a xlink:href="structImFont.html#a56d4d67f36cbabafd20b95ae55541a3d" target="_top" xlink:title=" ">
<polygon fill="white" stroke="#666666" points="310.25,-108.12 197.5,-108.12 197.5,-87.38 310.25,-87.38 310.25,-108.12"/>
<text text-anchor="middle" x="253.88" y="-94.62" font-family="Helvetica,sans-Serif" font-size="10.00">ImFont::RenderChar</text>
</a>
</g>
</g>
<!-- Node1&#45;&gt;Node10 -->
<g id="edge13_Node000001_Node000010" class="edge">
<title>Node1&#45;&gt;Node10</title>
<g id="a_edge13_Node000001_Node000010"><a xlink:title=" ">
<path fill="none" stroke="#63b8ff" d="M80.51,-268.16C98.47,-247.78 139.5,-201.92 176.5,-165.75 194.54,-148.11 216.09,-129.1 231.69,-115.68"/>
<polygon fill="#63b8ff" stroke="#63b8ff" points="233.64,-118.61 238.96,-109.46 229.09,-113.29 233.64,-118.61"/>
</a>
</g>
</g>
<!-- Node20 -->
<g id="Node000020" class="node">
<title>Node20</title>
<g id="a_Node000020"><a xlink:href="namespaceImGui.html#a6ff0aaef091d39b0e2e2f6afeb647b34" target="_top" xlink:title=" ">
<polygon fill="white" stroke="#666666" points="331.25,-289.12 176.5,-289.12 176.5,-268.38 331.25,-268.38 331.25,-289.12"/>
<text text-anchor="middle" x="253.88" y="-275.62" font-family="Helvetica,sans-Serif" font-size="10.00">ImGui::RenderTextClippedEx</text>
</a>
</g>
</g>
<!-- Node1&#45;&gt;Node20 -->
<g id="edge25_Node000001_Node000020" class="edge">
<title>Node1&#45;&gt;Node20</title>
<g id="a_edge25_Node000001_Node000020"><a xlink:title=" ">
<path fill="none" stroke="#63b8ff" d="M140.95,-278.75C148.77,-278.75 156.81,-278.75 164.82,-278.75"/>
<polygon fill="#63b8ff" stroke="#63b8ff" points="164.59,-282.25 174.59,-278.75 164.59,-275.25 164.59,-282.25"/>
</a>
</g>
</g>
<!-- Node2&#45;&gt;Node3 -->
<g id="edge2_Node000002_Node000003" class="edge">
<title>Node2&#45;&gt;Node3</title>
<g id="a_edge2_Node000002_Node000003"><a xlink:title=" ">
<path fill="none" stroke="#63b8ff" d="M493.72,-370.55C510.69,-372.33 529.61,-374.3 547.54,-376.17"/>
<polygon fill="#63b8ff" stroke="#63b8ff" points="547.03,-379.64 557.34,-377.2 547.76,-372.68 547.03,-379.64"/>
</a>
</g>
</g>
<!-- Node2&#45;&gt;Node5 -->
<g id="edge4_Node000002_Node000005" class="edge">
<title>Node2&#45;&gt;Node5</title>
<g id="a_edge4_Node000002_Node000005"><a xlink:title=" ">
<path fill="none" stroke="#63b8ff" d="M489.79,-353.96C510.73,-349.59 535.12,-344.5 557.09,-339.91"/>
<polygon fill="#63b8ff" stroke="#63b8ff" points="557.77,-343.34 566.85,-337.87 556.34,-336.49 557.77,-343.34"/>
</a>
</g>
</g>
<!-- Node4 -->
<g id="Node000004" class="node">
<title>Node4</title>
<g id="a_Node000004"><a xlink:href="structImFont.html#a3781bb82a1ceba919cb6c98a398c7a67" target="_top" xlink:title=" ">
<polygon fill="white" stroke="#666666" points="908,-394.12 735.25,-394.12 735.25,-373.38 908,-373.38 908,-394.12"/>
<text text-anchor="middle" x="821.62" y="-380.62" font-family="Helvetica,sans-Serif" font-size="10.00">ImFont::CalcWordWrapPositionA</text>
</a>
</g>
</g>
<!-- Node3&#45;&gt;Node4 -->
<g id="edge3_Node000003_Node000004" class="edge">
<title>Node3&#45;&gt;Node4</title>
<g id="a_edge3_Node000003_Node000004"><a xlink:title=" ">
<path fill="none" stroke="#63b8ff" d="M683.57,-383.75C696.29,-383.75 709.99,-383.75 723.63,-383.75"/>
<polygon fill="#63b8ff" stroke="#63b8ff" points="723.53,-387.25 733.53,-383.75 723.53,-380.25 723.53,-387.25"/>
</a>
</g>
</g>
<!-- Node7 -->
<g id="Node000007" class="node">
<title>Node7</title>
<g id="a_Node000007"><a xlink:href="namespaceImGui.html#abe2691de0b1a71c774ab24cc91564a94" target="_top" xlink:title=" ">
<polygon fill="white" stroke="#666666" points="694,-248.5 548.25,-248.5 548.25,-215 694,-215 694,-248.5"/>
<text text-anchor="start" x="556.25" y="-235" font-family="Helvetica,sans-Serif" font-size="10.00">ImGui::ColorConvertFloat4</text>
<text text-anchor="middle" x="621.12" y="-222.25" font-family="Helvetica,sans-Serif" font-size="10.00">ToU32</text>
</a>
</g>
</g>
<!-- Node6&#45;&gt;Node7 -->
<g id="edge8_Node000006_Node000007" class="edge">
<title>Node6&#45;&gt;Node7</title>
<g id="a_edge8_Node000006_Node000007"><a xlink:title=" ">
<path fill="none" stroke="#63b8ff" d="M494.22,-231.75C507.57,-231.75 522.1,-231.75 536.39,-231.75"/>
<polygon fill="#63b8ff" stroke="#63b8ff" points="536.26,-235.25 546.26,-231.75 536.26,-228.25 536.26,-235.25"/>
</a>
</g>
</g>
<!-- Node8&#45;&gt;Node5 -->
<g id="edge10_Node000008_Node000005" class="edge">
<title>Node8&#45;&gt;Node5</title>
<g id="a_edge10_Node000008_Node000005"><a xlink:title=" ">
<path fill="none" stroke="#63b8ff" d="M321.96,-178.68C375.32,-176.91 450.19,-181.47 507,-212.75 529.44,-225.1 525.4,-239.15 543,-257.75 560.45,-276.19 582.12,-295.29 598.05,-308.7"/>
<polygon fill="#63b8ff" stroke="#63b8ff" points="595.6,-311.22 605.53,-314.93 600.08,-305.84 595.6,-311.22"/>
</a>
</g>
</g>
<!-- Node8&#45;&gt;Node8 -->
<g id="edge11_Node000008_Node000008" class="edge">
<title>Node8&#45;&gt;Node8</title>
<g id="a_edge11_Node000008_Node000008"><a xlink:title=" ">
<path fill="none" stroke="#63b8ff" d="M224.35,-195.52C212.54,-204.18 222.38,-213.12 253.88,-213.12 271.1,-213.12 281.85,-210.45 286.12,-206.61"/>
<polygon fill="#63b8ff" stroke="#63b8ff" points="289.54,-205.87 283.76,-196.99 282.74,-207.54 289.54,-205.87"/>
</a>
</g>
</g>
<!-- Node9 -->
<g id="Node000009" class="node">
<title>Node9</title>
<g id="a_Node000009"><a xlink:href="namespaceImGui.html#aa548475d8f771ab6524d73d900a41198" target="_top" xlink:title=" ">
<polygon fill="white" stroke="#666666" points="481.5,-166.12 392.75,-166.12 392.75,-145.38 481.5,-145.38 481.5,-166.12"/>
<text text-anchor="middle" x="437.12" y="-152.62" font-family="Helvetica,sans-Serif" font-size="10.00">ImGui::LogText</text>
</a>
</g>
</g>
<!-- Node8&#45;&gt;Node9 -->
<g id="edge12_Node000008_Node000009" class="edge">
<title>Node8&#45;&gt;Node9</title>
<g id="a_edge12_Node000008_Node000009"><a xlink:title=" ">
<path fill="none" stroke="#63b8ff" d="M321.85,-174.03C341.39,-170.91 362.51,-167.53 381.21,-164.54"/>
<polygon fill="#63b8ff" stroke="#63b8ff" points="381.7,-168 391.02,-162.97 380.59,-161.09 381.7,-168"/>
</a>
</g>
</g>
<!-- Node11 -->
<g id="Node000011" class="node">
<title>Node11</title>
<g id="a_Node000011"><a xlink:href="structImFont.html#ac6a773b73c6406fd8f08c4c93213a501" target="_top" xlink:title=" ">
<polygon fill="white" stroke="#666666" points="489.38,-127.12 384.88,-127.12 384.88,-106.38 489.38,-106.38 489.38,-127.12"/>
<text text-anchor="middle" x="437.12" y="-113.62" font-family="Helvetica,sans-Serif" font-size="10.00">ImFont::FindGlyph</text>
</a>
</g>
</g>
<!-- Node10&#45;&gt;Node11 -->
<g id="edge14_Node000010_Node000011" class="edge">
<title>Node10&#45;&gt;Node11</title>
<g id="a_edge14_Node000010_Node000011"><a xlink:title=" ">
<path fill="none" stroke="#63b8ff" d="M310.73,-103.61C330.48,-105.68 352.81,-108.02 373.11,-110.14"/>
<polygon fill="#63b8ff" stroke="#63b8ff" points="372.65,-113.62 382.96,-111.18 373.38,-106.65 372.65,-113.62"/>
</a>
</g>
</g>
<!-- Node12 -->
<g id="Node000012" class="node">
<title>Node12</title>
<g id="a_Node000012"><a xlink:href="structImDrawList.html#a77d48ed5b33ccdd908824c0a3bebfff8" target="_top" xlink:title=" ">
<polygon fill="white" stroke="#666666" points="505.12,-88.12 369.12,-88.12 369.12,-67.38 505.12,-67.38 505.12,-88.12"/>
<text text-anchor="middle" x="437.12" y="-74.62" font-family="Helvetica,sans-Serif" font-size="10.00">ImDrawList::PrimRectUV</text>
</a>
</g>
</g>
<!-- Node10&#45;&gt;Node12 -->
<g id="edge15_Node000010_Node000012" class="edge">
<title>Node10&#45;&gt;Node12</title>
<g id="a_edge15_Node000010_Node000012"><a xlink:title=" ">
<path fill="none" stroke="#63b8ff" d="M310.73,-91.59C325.47,-89.96 341.64,-88.18 357.34,-86.44"/>
<polygon fill="#63b8ff" stroke="#63b8ff" points="357.59,-89.94 367.15,-85.36 356.82,-82.98 357.59,-89.94"/>
</a>
</g>
</g>
<!-- Node13 -->
<g id="Node000013" class="node">
<title>Node13</title>
<g id="a_Node000013"><a xlink:href="structImDrawList.html#a879aa38dbfb0344e3e023d65c002c7d7" target="_top" xlink:title=" ">
<polygon fill="white" stroke="#666666" points="507,-49.12 367.25,-49.12 367.25,-28.38 507,-28.38 507,-49.12"/>
<text text-anchor="middle" x="437.12" y="-35.62" font-family="Helvetica,sans-Serif" font-size="10.00">ImDrawList::PrimReserve</text>
</a>
</g>
</g>
<!-- Node10&#45;&gt;Node13 -->
<g id="edge16_Node000010_Node000013" class="edge">
<title>Node10&#45;&gt;Node13</title>
<g id="a_edge16_Node000010_Node000013"><a xlink:title=" ">
<path fill="none" stroke="#63b8ff" d="M284.78,-86.9C307.35,-78.83 339.11,-67.71 367.25,-58.75 373.48,-56.77 380.06,-54.75 386.57,-52.81"/>
<polygon fill="#63b8ff" stroke="#63b8ff" points="387.35,-56.23 395.95,-50.04 385.37,-49.51 387.35,-56.23"/>
</a>
</g>
</g>
<!-- Node14 -->
<g id="Node000014" class="node">
<title>Node14</title>
<g id="a_Node000014"><a xlink:href="structImDrawList.html#a7f2e315f147acd8b555d86d1557659cc" target="_top" xlink:title=" ">
<polygon fill="white" stroke="#666666" points="698.88,-33.5 543.38,-33.5 543.38,0 698.88,0 698.88,-33.5"/>
<text text-anchor="start" x="551.38" y="-20" font-family="Helvetica,sans-Serif" font-size="10.00">ImDrawList::_OnChangedVtx</text>
<text text-anchor="middle" x="621.12" y="-7.25" font-family="Helvetica,sans-Serif" font-size="10.00">Offset</text>
</a>
</g>
</g>
<!-- Node13&#45;&gt;Node14 -->
<g id="edge17_Node000013_Node000014" class="edge">
<title>Node13&#45;&gt;Node14</title>
<g id="a_edge17_Node000013_Node000014"><a xlink:title=" ">
<path fill="none" stroke="#63b8ff" d="M507.45,-30.37C515.46,-29.4 523.71,-28.4 531.93,-27.41"/>
<polygon fill="#63b8ff" stroke="#63b8ff" points="532.08,-30.92 541.59,-26.24 531.24,-23.97 532.08,-30.92"/>
</a>
</g>
</g>
<!-- Node19 -->
<g id="Node000019" class="node">
<title>Node19</title>
<g id="a_Node000019"><a xlink:href="structImVector.html#ac371dd62e56ae486b1a5038cf07eee56" target="_top" xlink:title=" ">
<polygon fill="white" stroke="#666666" points="1050,-71.12 955.25,-71.12 955.25,-50.38 1050,-50.38 1050,-71.12"/>
<text text-anchor="middle" x="1002.62" y="-57.62" font-family="Helvetica,sans-Serif" font-size="10.00">ImVector::resize</text>
</a>
</g>
</g>
<!-- Node13&#45;&gt;Node19 -->
<g id="edge22_Node000013_Node000019" class="edge">
<title>Node13&#45;&gt;Node19</title>
<g id="a_edge22_Node000013_Node000019"><a xlink:title=" ">
<path fill="none" stroke="#63b8ff" d="M507.22,-41.45C619.4,-45.83 839.09,-54.4 943.65,-58.49"/>
<polygon fill="#63b8ff" stroke="#63b8ff" points="943.27,-61.97 953.4,-58.87 943.54,-54.98 943.27,-61.97"/>
</a>
</g>
</g>
<!-- Node15 -->
<g id="Node000015" class="node">
<title>Node15</title>
<g id="a_Node000015"><a xlink:href="structImDrawList.html#a846714bb0321c6f1f908767abc8559e6" target="_top" xlink:title=" ">
<polygon fill="white" stroke="#666666" points="893.75,-30.12 749.5,-30.12 749.5,-9.38 893.75,-9.38 893.75,-30.12"/>
<text text-anchor="middle" x="821.62" y="-16.62" font-family="Helvetica,sans-Serif" font-size="10.00">ImDrawList::AddDrawCmd</text>
</a>
</g>
</g>
<!-- Node14&#45;&gt;Node15 -->
<g id="edge18_Node000014_Node000015" class="edge">
<title>Node14&#45;&gt;Node15</title>
<g id="a_edge18_Node000014_Node000015"><a xlink:title=" ">
<path fill="none" stroke="#63b8ff" d="M699.15,-17.91C711.88,-18.11 725.12,-18.31 737.98,-18.5"/>
<polygon fill="#63b8ff" stroke="#63b8ff" points="737.6,-22 747.65,-18.65 737.7,-15 737.6,-22"/>
</a>
</g>
</g>
<!-- Node16 -->
<g id="Node000016" class="node">
<title>Node16</title>
<g id="a_Node000016"><a xlink:href="structImVector.html#aab5df48e0711a48bd12f3206e08c4108" target="_top" xlink:title=" ">
<polygon fill="white" stroke="#666666" points="1061.25,-32.12 944,-32.12 944,-11.38 1061.25,-11.38 1061.25,-32.12"/>
<text text-anchor="middle" x="1002.62" y="-18.62" font-family="Helvetica,sans-Serif" font-size="10.00">ImVector::push_back</text>
</a>
</g>
</g>
<!-- Node15&#45;&gt;Node16 -->
<g id="edge19_Node000015_Node000016" class="edge">
<title>Node15&#45;&gt;Node16</title>
<g id="a_edge19_Node000015_Node000016"><a xlink:title=" ">
<path fill="none" stroke="#63b8ff" d="M894.14,-20.55C906.74,-20.69 919.84,-20.84 932.37,-20.98"/>
<polygon fill="#63b8ff" stroke="#63b8ff" points="932.15,-24.47 942.19,-21.09 932.23,-17.47 932.15,-24.47"/>
</a>
</g>
</g>
<!-- Node17 -->
<g id="Node000017" class="node">
<title>Node17</title>
<g id="a_Node000017"><a xlink:href="structImVector.html#a3a097635d464b1b70dc7d59996a88b28" target="_top" xlink:title=" ">
<polygon fill="white" stroke="#666666" points="1238.5,-32.12 1097.25,-32.12 1097.25,-11.38 1238.5,-11.38 1238.5,-32.12"/>
<text text-anchor="middle" x="1167.88" y="-18.62" font-family="Helvetica,sans-Serif" font-size="10.00">ImVector::_grow_capacity</text>
</a>
</g>
</g>
<!-- Node16&#45;&gt;Node17 -->
<g id="edge20_Node000016_Node000017" class="edge">
<title>Node16&#45;&gt;Node17</title>
<g id="a_edge20_Node000016_Node000017"><a xlink:title=" ">
<path fill="none" stroke="#63b8ff" d="M1061.64,-21.75C1069.43,-21.75 1077.53,-21.75 1085.62,-21.75"/>
<polygon fill="#63b8ff" stroke="#63b8ff" points="1085.52,-25.25 1095.52,-21.75 1085.52,-18.25 1085.52,-25.25"/>
</a>
</g>
</g>
<!-- Node18 -->
<g id="Node000018" class="node">
<title>Node18</title>
<g id="a_Node000018"><a xlink:href="structImVector.html#a0f14f5736c3372157856eebb67123b75" target="_top" xlink:title=" ">
<polygon fill="white" stroke="#666666" points="1219,-71.12 1116.75,-71.12 1116.75,-50.38 1219,-50.38 1219,-71.12"/>
<text text-anchor="middle" x="1167.88" y="-57.62" font-family="Helvetica,sans-Serif" font-size="10.00">ImVector::reserve</text>
</a>
</g>
</g>
<!-- Node16&#45;&gt;Node18 -->
<g id="edge21_Node000016_Node000018" class="edge">
<title>Node16&#45;&gt;Node18</title>
<g id="a_edge21_Node000016_Node000018"><a xlink:title=" ">
<path fill="none" stroke="#63b8ff" d="M1049.1,-32.61C1068.04,-37.14 1090.23,-42.44 1110.21,-47.21"/>
<polygon fill="#63b8ff" stroke="#63b8ff" points="1109.35,-50.61 1119.89,-49.53 1110.98,-43.8 1109.35,-50.61"/>
</a>
</g>
</g>
<!-- Node19&#45;&gt;Node17 -->
<g id="edge23_Node000019_Node000017" class="edge">
<title>Node19&#45;&gt;Node17</title>
<g id="a_edge23_Node000019_Node000017"><a xlink:title=" ">
<path fill="none" stroke="#63b8ff" d="M1049.1,-49.89C1068.04,-45.36 1090.23,-40.06 1110.21,-35.29"/>
<polygon fill="#63b8ff" stroke="#63b8ff" points="1110.98,-38.7 1119.89,-32.97 1109.35,-31.89 1110.98,-38.7"/>
</a>
</g>
</g>
<!-- Node19&#45;&gt;Node18 -->
<g id="edge24_Node000019_Node000018" class="edge">
<title>Node19&#45;&gt;Node18</title>
<g id="a_edge24_Node000019_Node000018"><a xlink:title=" ">
<path fill="none" stroke="#63b8ff" d="M1050.41,-60.75C1067.41,-60.75 1086.9,-60.75 1105.01,-60.75"/>
<polygon fill="#63b8ff" stroke="#63b8ff" points="1104.86,-64.25 1114.86,-60.75 1104.86,-57.25 1104.86,-64.25"/>
</a>
</g>
</g>
<!-- Node20&#45;&gt;Node2 -->
<g id="edge28_Node000020_Node000002" class="edge">
<title>Node20&#45;&gt;Node2</title>
<g id="a_edge28_Node000020_Node000002"><a xlink:title=" ">
<path fill="none" stroke="#63b8ff" d="M277.46,-289.47C309.08,-304.47 366.72,-331.82 403.13,-349.1"/>
<polygon fill="#63b8ff" stroke="#63b8ff" points="401.35,-352.12 411.88,-353.25 404.35,-345.8 401.35,-352.12"/>
</a>
</g>
</g>
<!-- Node20&#45;&gt;Node6 -->
<g id="edge29_Node000020_Node000006" class="edge">
<title>Node20&#45;&gt;Node6</title>
<g id="a_edge29_Node000020_Node000006"><a xlink:title=" ">
<path fill="none" stroke="#63b8ff" d="M296.46,-267.97C322.27,-261.27 355.68,-252.61 383.35,-245.44"/>
<polygon fill="#63b8ff" stroke="#63b8ff" points="384.16,-248.84 392.96,-242.94 382.4,-242.07 384.16,-248.84"/>
</a>
</g>
</g>
<!-- Node21 -->
<g id="Node000021" class="node">
<title>Node21</title>
<g id="a_Node000021"><a xlink:href="structImDrawList.html#ac5221bd86b3429f6d5b6e6ffe454942d" target="_top" xlink:title=" ">
<polygon fill="white" stroke="#666666" points="495.38,-281.12 378.88,-281.12 378.88,-260.38 495.38,-260.38 495.38,-281.12"/>
<text text-anchor="middle" x="437.12" y="-267.62" font-family="Helvetica,sans-Serif" font-size="10.00">ImDrawList::AddText</text>
</a>
</g>
</g>
<!-- Node20&#45;&gt;Node21 -->
<g id="edge26_Node000020_Node000021" class="edge">
<title>Node20&#45;&gt;Node21</title>
<g id="a_edge26_Node000020_Node000021"><a xlink:title=" ">
<path fill="none" stroke="#63b8ff" d="M331.74,-275.36C343.46,-274.84 355.5,-274.31 367.04,-273.8"/>
<polygon fill="#63b8ff" stroke="#63b8ff" points="367.04,-277.3 376.88,-273.37 366.73,-270.31 367.04,-277.3"/>
</a>
</g>
</g>
<!-- Node21&#45;&gt;Node21 -->
<g id="edge27_Node000021_Node000021" class="edge">
<title>Node21&#45;&gt;Node21</title>
<g id="a_edge27_Node000021_Node000021"><a xlink:title=" ">
<path fill="none" stroke="#63b8ff" d="M407.6,-281.52C395.79,-290.18 405.63,-299.12 437.12,-299.12 454.35,-299.12 465.1,-296.45 469.37,-292.61"/>
<polygon fill="#63b8ff" stroke="#63b8ff" points="472.79,-291.87 467.01,-282.99 465.99,-293.54 472.79,-291.87"/>
</a>
</g>
</g>
</g>
</svg>

<g id="navigator" transform="translate(0 0)" fill="#404254">
  <rect fill="#f2f5e9" fill-opacity="0.5" stroke="#606060" stroke-width=".5" x="0" y="0" width="60" height="60"/>
  <use id="zoomplus" xlink:href="#zoomPlus" x="17" y="9" onmousedown="handleZoom(evt,'in')"/>
  <use id="zoomminus" xlink:href="#zoomMin" x="42" y="9" onmousedown="handleZoom(evt,'out')"/>
  <use id="reset" xlink:href="#resetDef" x="30" y="36" onmousedown="handleReset()"/>
   <use id="arrowup" xlink:href="#arrowUp" x="0" y="0" onmousedown="handlePan(0,-1)"/>
  <use id="arrowright" xlink:href="#arrowRight" x="0" y="0" onmousedown="handlePan(1,0)"/>
  <use id="arrowdown" xlink:href="#arrowDown" x="0" y="0" onmousedown="handlePan(0,1)"/>
  <use id="arrowleft" xlink:href="#arrowLeft" x="0" y="0" onmousedown="handlePan(-1,0)"/>
</g>
<svg viewBox="0 0 15 15" width="100%" height="30px" preserveAspectRatio="xMaxYMin meet">
 <g id="arrow_out" transform="scale(0.3 0.3)">
  <a xlink:href="namespaceImGui_a029bab9f4602be86178307b168975a6d_cgraph_org.svg" target="_base">
   <rect id="button" ry="5" rx="5" y="6" x="6" height="38" width="38"
        fill="#f2f5e9" fill-opacity="0.5" stroke="#606060" stroke-width="1.0"/>
   <path id="arrow"
     d="M 11.500037,31.436501 C 11.940474,20.09759 22.043105,11.32322 32.158766,21.979434 L 37.068811,17.246167 C 37.068811,17.246167 37.088388,32 37.088388,32 L 22.160133,31.978069 C 22.160133,31.978069 26.997745,27.140456 26.997745,27.140456 C 18.528582,18.264221 13.291696,25.230495 11.500037,31.436501 z"
     style="fill:#404040;"/>
  </a>
 </g>
</svg>

<style type='text/css'>
<![CDATA[
[data-mouse-over-selected='false'] { opacity: 0.7; }
[data-mouse-over-selected='true']  { opacity: 1.0; }
]]>
</style>
<script type="application/ecmascript"><![CDATA[
document.addEventListener('DOMContentLoaded', (event) => {
  highlightEdges();
  highlightAdjacentNodes();
});
]]></script>
</svg>
