<?xml version="1.0" encoding="UTF-8" standalone="no"?>
<!DOCTYPE svg PUBLIC "-//W3C//DTD SVG 1.1//EN"
 "http://www.w3.org/Graphics/SVG/1.1/DTD/svg11.dtd">
<!-- Generated by graphviz version 12.2.1 (20241206.2353)
 -->
<!-- Title: ImGui::RenderArrowPointingAt Pages: 1 -->
<svg width="1292pt" height="74pt"
 viewBox="0.00 0.00 1292.25 74.12" xmlns="http://www.w3.org/2000/svg" xmlns:xlink="http://www.w3.org/1999/xlink">
<g id="graph0" class="graph" transform="scale(1 1) rotate(0) translate(4 70.12)">
<title>ImGui::RenderArrowPointingAt</title>
<!-- Node1 -->
<g id="Node000001" class="node">
<title>Node1</title>
<g id="a_Node000001"><a xlink:title=" ">
<polygon fill="#999999" stroke="#666666" points="164.5,-39.75 0,-39.75 0,-19 164.5,-19 164.5,-39.75"/>
<text text-anchor="middle" x="82.25" y="-26.25" font-family="Helvetica,sans-Serif" font-size="10.00">ImGui::RenderArrowPointingAt</text>
</a>
</g>
</g>
<!-- Node2 -->
<g id="Node000002" class="node">
<title>Node2</title>
<g id="a_Node000002"><a xlink:href="structImDrawList.html#af1dd4a3888034c5f71b66a38e44edf31" target="_top" xlink:title=" ">
<polygon fill="white" stroke="#666666" points="361.25,-39.75 200.5,-39.75 200.5,-19 361.25,-19 361.25,-39.75"/>
<text text-anchor="middle" x="280.88" y="-26.25" font-family="Helvetica,sans-Serif" font-size="10.00">ImDrawList::AddTriangleFilled</text>
</a>
</g>
</g>
<!-- Node1&#45;&gt;Node2 -->
<g id="edge1_Node000001_Node000002" class="edge">
<title>Node1&#45;&gt;Node2</title>
<g id="a_edge1_Node000001_Node000002"><a xlink:title=" ">
<path fill="none" stroke="#63b8ff" d="M164.93,-29.38C172.73,-29.38 180.67,-29.38 188.55,-29.38"/>
<polygon fill="#63b8ff" stroke="#63b8ff" points="188.52,-32.88 198.52,-29.38 188.52,-25.88 188.52,-32.88"/>
</a>
</g>
</g>
<!-- Node3 -->
<g id="Node000003" class="node">
<title>Node3</title>
<g id="a_Node000003"><a xlink:href="structImDrawList.html#aea9301cb99ebf4b27f5d3959017567c9" target="_top" xlink:title=" ">
<polygon fill="white" stroke="#666666" points="546.75,-59.75 397.25,-59.75 397.25,-39 546.75,-39 546.75,-59.75"/>
<text text-anchor="middle" x="472" y="-46.25" font-family="Helvetica,sans-Serif" font-size="10.00">ImDrawList::PathFillConvex</text>
</a>
</g>
</g>
<!-- Node2&#45;&gt;Node3 -->
<g id="edge2_Node000002_Node000003" class="edge">
<title>Node2&#45;&gt;Node3</title>
<g id="a_edge2_Node000002_Node000003"><a xlink:title=" ">
<path fill="none" stroke="#63b8ff" d="M361.53,-37.8C369.49,-38.64 377.6,-39.5 385.61,-40.35"/>
<polygon fill="#63b8ff" stroke="#63b8ff" points="385.04,-43.8 395.35,-41.38 385.78,-36.84 385.04,-43.8"/>
</a>
</g>
</g>
<!-- Node8 -->
<g id="Node000008" class="node">
<title>Node8</title>
<g id="a_Node000008"><a xlink:href="structImDrawList.html#a828d944325ed58d8b57abd3647bffaaf" target="_top" xlink:title=" ">
<polygon fill="white" stroke="#666666" points="536.62,-20.75 407.38,-20.75 407.38,0 536.62,0 536.62,-20.75"/>
<text text-anchor="middle" x="472" y="-7.25" font-family="Helvetica,sans-Serif" font-size="10.00">ImDrawList::PathLineTo</text>
</a>
</g>
</g>
<!-- Node2&#45;&gt;Node8 -->
<g id="edge7_Node000002_Node000008" class="edge">
<title>Node2&#45;&gt;Node8</title>
<g id="a_edge7_Node000002_Node000008"><a xlink:title=" ">
<path fill="none" stroke="#63b8ff" d="M361.53,-21.37C372.89,-20.23 384.54,-19.06 395.81,-17.93"/>
<polygon fill="#63b8ff" stroke="#63b8ff" points="395.82,-21.45 405.42,-16.96 395.12,-14.48 395.82,-21.45"/>
</a>
</g>
</g>
<!-- Node4 -->
<g id="Node000004" class="node">
<title>Node4</title>
<g id="a_Node000004"><a xlink:href="structImDrawList.html#ad2accc0a74845b08bd0e6fae6183d6d0" target="_top" xlink:title=" ">
<polygon fill="white" stroke="#666666" points="736.75,-66.12 582.75,-66.12 582.75,-32.62 736.75,-32.62 736.75,-66.12"/>
<text text-anchor="start" x="590.75" y="-52.62" font-family="Helvetica,sans-Serif" font-size="10.00">ImDrawList::AddConvexPoly</text>
<text text-anchor="middle" x="659.75" y="-39.88" font-family="Helvetica,sans-Serif" font-size="10.00">Filled</text>
</a>
</g>
</g>
<!-- Node3&#45;&gt;Node4 -->
<g id="edge3_Node000003_Node000004" class="edge">
<title>Node3&#45;&gt;Node4</title>
<g id="a_edge3_Node000003_Node000004"><a xlink:title=" ">
<path fill="none" stroke="#63b8ff" d="M547.21,-49.38C555.11,-49.38 563.2,-49.38 571.23,-49.38"/>
<polygon fill="#63b8ff" stroke="#63b8ff" points="571.01,-52.88 581.01,-49.38 571.01,-45.88 571.01,-52.88"/>
</a>
</g>
</g>
<!-- Node5 -->
<g id="Node000005" class="node">
<title>Node5</title>
<g id="a_Node000005"><a xlink:href="structImDrawList.html#a879aa38dbfb0344e3e023d65c002c7d7" target="_top" xlink:title=" ">
<polygon fill="white" stroke="#666666" points="912.5,-59.75 772.75,-59.75 772.75,-39 912.5,-39 912.5,-59.75"/>
<text text-anchor="middle" x="842.62" y="-46.25" font-family="Helvetica,sans-Serif" font-size="10.00">ImDrawList::PrimReserve</text>
</a>
</g>
</g>
<!-- Node4&#45;&gt;Node5 -->
<g id="edge4_Node000004_Node000005" class="edge">
<title>Node4&#45;&gt;Node5</title>
<g id="a_edge4_Node000004_Node000005"><a xlink:title=" ">
<path fill="none" stroke="#63b8ff" d="M737.2,-49.38C745.03,-49.38 753.02,-49.38 760.9,-49.38"/>
<polygon fill="#63b8ff" stroke="#63b8ff" points="760.83,-52.88 770.83,-49.38 760.83,-45.88 760.83,-52.88"/>
</a>
</g>
</g>
<!-- Node6 -->
<g id="Node000006" class="node">
<title>Node6</title>
<g id="a_Node000006"><a xlink:href="structImDrawList.html#a7f2e315f147acd8b555d86d1557659cc" target="_top" xlink:title=" ">
<polygon fill="white" stroke="#666666" points="1104,-66.12 948.5,-66.12 948.5,-32.62 1104,-32.62 1104,-66.12"/>
<text text-anchor="start" x="956.5" y="-52.62" font-family="Helvetica,sans-Serif" font-size="10.00">ImDrawList::_OnChangedVtx</text>
<text text-anchor="middle" x="1026.25" y="-39.88" font-family="Helvetica,sans-Serif" font-size="10.00">Offset</text>
</a>
</g>
</g>
<!-- Node5&#45;&gt;Node6 -->
<g id="edge5_Node000005_Node000006" class="edge">
<title>Node5&#45;&gt;Node6</title>
<g id="a_edge5_Node000005_Node000006"><a xlink:title=" ">
<path fill="none" stroke="#63b8ff" d="M912.81,-49.38C920.64,-49.38 928.71,-49.38 936.75,-49.38"/>
<polygon fill="#63b8ff" stroke="#63b8ff" points="936.56,-52.88 946.56,-49.38 936.56,-45.88 936.56,-52.88"/>
</a>
</g>
</g>
<!-- Node7 -->
<g id="Node000007" class="node">
<title>Node7</title>
<g id="a_Node000007"><a xlink:href="structImDrawList.html#a846714bb0321c6f1f908767abc8559e6" target="_top" xlink:title=" ">
<polygon fill="white" stroke="#666666" points="1284.25,-59.75 1140,-59.75 1140,-39 1284.25,-39 1284.25,-59.75"/>
<text text-anchor="middle" x="1212.12" y="-46.25" font-family="Helvetica,sans-Serif" font-size="10.00">ImDrawList::AddDrawCmd</text>
</a>
</g>
</g>
<!-- Node6&#45;&gt;Node7 -->
<g id="edge6_Node000006_Node000007" class="edge">
<title>Node6&#45;&gt;Node7</title>
<g id="a_edge6_Node000006_Node000007"><a xlink:title=" ">
<path fill="none" stroke="#63b8ff" d="M1104.43,-49.38C1112.29,-49.38 1120.29,-49.38 1128.21,-49.38"/>
<polygon fill="#63b8ff" stroke="#63b8ff" points="1128.2,-52.88 1138.2,-49.38 1128.2,-45.88 1128.2,-52.88"/>
</a>
</g>
</g>
</g>
</svg>
