<?xml version="1.0" encoding="UTF-8" standalone="no"?>
<!DOCTYPE svg PUBLIC "-//W3C//DTD SVG 1.1//EN"
 "http://www.w3.org/Graphics/SVG/1.1/DTD/svg11.dtd">
<!-- Generated by graphviz version 2.43.0 (0)
 -->
<!-- Title: colors::red Pages: 1 -->
<!--zoomable 266 -->
<svg id="main" version="1.1" xmlns="http://www.w3.org/2000/svg" xmlns:xlink="http://www.w3.org/1999/xlink" xml:space="preserve" onload="init(evt)">
<style type="text/css"><![CDATA[
.edge:hover path { stroke: red; }
.edge:hover polygon { stroke: red; fill: red; }
]]></style>
<script type="text/javascript"><![CDATA[
var edges = document.getElementsByTagName('g');
if (edges && edges.length) {
  for (var i=0;i<edges.length;i++) {
    if (edges[i].id.substr(0,4)=='edge') {
      edges[i].setAttribute('class','edge');
    }
  }
}
]]></script>
        <defs>
                <circle id="rim" cx="0" cy="0" r="7"/>
                <circle id="rim2" cx="0" cy="0" r="3.5"/>
                <g id="zoomPlus">
                        <use xlink:href="#rim" fill="#404040">
                                <set attributeName="fill" to="#808080" begin="zoomplus.mouseover" end="zoomplus.mouseout"/>
                        </use>
                        <path d="M-4,0h8M0,-4v8" fill="none" stroke="white" stroke-width="1.5" pointer-events="none"/>
                </g>
                <g id="zoomMin">
                        <use xlink:href="#rim" fill="#404040">
                                <set attributeName="fill" to="#808080" begin="zoomminus.mouseover" end="zoomminus.mouseout"/>
                        </use>
                        <path d="M-4,0h8" fill="none" stroke="white" stroke-width="1.5" pointer-events="none"/>
                </g>
                <g id="dirArrow">
                        <path fill="none" stroke="white" stroke-width="1.5" d="M0,-3.0v7 M-2.5,-0.5L0,-3.0L2.5,-0.5"/>
                </g>
               <g id="resetDef">
                       <use xlink:href="#rim2" fill="#404040">
                               <set attributeName="fill" to="#808080" begin="reset.mouseover" end="reset.mouseout"/>
                       </use>
               </g>
        </defs>

<script type="text/javascript">
var viewWidth = 832;
var viewHeight = 266;
var sectionId = 'dynsection-15';
</script>
<script xlink:href="svgpan.js"/>
<svg id="graph" class="graph">
<g id="viewport">
<title>colors::red</title>
<!-- Node1 -->
<g id="node1" class="node">
<title>Node1</title>
<g id="a_node1"><a xlink:title="Set the text color to red.">
<polygon fill="#bfbfbf" stroke="black" points="756,-105.77 756,-124.77 824,-124.77 824,-105.77 756,-105.77"/>
<text text-anchor="middle" x="790" y="-112.77" font-family="Helvetica,sans-Serif" font-size="10.00">colors::red</text>
</a>
</g>
</g>
<!-- Node2 -->
<g id="node2" class="node">
<title>Node2</title>
<g id="a_node2"><a xlink:href="output_8hpp.html#a1f009ce0a12690c37c88f2adfe9d2e1e" target="_top" xlink:title="Prints an error message.">
<polygon fill="none" stroke="black" points="639.5,-124.77 639.5,-143.77 679.5,-143.77 679.5,-124.77 639.5,-124.77"/>
<text text-anchor="middle" x="659.5" y="-131.77" font-family="Helvetica,sans-Serif" font-size="10.00">error</text>
</a>
</g>
</g>
<!-- Node1&#45;&gt;Node2 -->
<g id="edge1" class="edge">
<title>Node1&#45;&gt;Node2</title>
<path fill="none" stroke="midnightblue" d="M745.88,-121.64C723.36,-124.97 696.95,-128.88 679.53,-131.45"/>
<polygon fill="midnightblue" stroke="midnightblue" points="746.53,-125.09 755.91,-120.16 745.5,-118.16 746.53,-125.09"/>
</g>
<!-- Node17 -->
<g id="node17" class="node">
<title>Node17</title>
<g id="a_node17"><a xlink:href="classTestCase.html#a066fd61f7f3693cdd821d7057611cf61" target="_top" xlink:title="Prints a summary of the test case, including the number of errors encountered.">
<polygon fill="none" stroke="black" points="599,-86.77 599,-105.77 720,-105.77 720,-86.77 599,-86.77"/>
<text text-anchor="middle" x="659.5" y="-93.77" font-family="Helvetica,sans-Serif" font-size="10.00">TestCase::summarize</text>
</a>
</g>
</g>
<!-- Node1&#45;&gt;Node17 -->
<g id="edge20" class="edge">
<title>Node1&#45;&gt;Node17</title>
<path fill="none" stroke="midnightblue" d="M745.8,-108.88C737.56,-107.66 728.81,-106.37 720.16,-105.09"/>
<polygon fill="midnightblue" stroke="midnightblue" points="745.5,-112.37 755.91,-110.37 746.53,-105.45 745.5,-112.37"/>
</g>
<!-- Node3 -->
<g id="node3" class="node">
<title>Node3</title>
<g id="a_node3"><a xlink:href="classTestCase.html#a0d11e5a480783f9a30c443c28a6a7cae" target="_top" xlink:title="Asserts a given condition and logs the condition name if it fails.">
<polygon fill="none" stroke="black" points="467,-200.77 467,-219.77 563,-219.77 563,-200.77 467,-200.77"/>
<text text-anchor="middle" x="515" y="-207.77" font-family="Helvetica,sans-Serif" font-size="10.00">TestCase::assert</text>
</a>
</g>
</g>
<!-- Node2&#45;&gt;Node3 -->
<g id="edge2" class="edge">
<title>Node2&#45;&gt;Node3</title>
<path fill="none" stroke="midnightblue" d="M632.31,-148.77C613.18,-159.3 586.57,-173.84 563,-186.27 553.92,-191.06 543.79,-196.25 535.27,-200.57"/>
<polygon fill="midnightblue" stroke="midnightblue" points="634.26,-151.69 641.32,-143.8 630.87,-145.57 634.26,-151.69"/>
</g>
<!-- Node4 -->
<g id="node4" class="node">
<title>Node4</title>
<g id="a_node4"><a xlink:href="baseConvert_8cpp.html#a6443634f54179f61c6e58098cbb32210" target="_top" xlink:title=" ">
<polygon fill="none" stroke="black" points="336.5,-238.77 336.5,-257.77 414.5,-257.77 414.5,-238.77 336.5,-238.77"/>
<text text-anchor="middle" x="375.5" y="-245.77" font-family="Helvetica,sans-Serif" font-size="10.00">baseConvert</text>
</a>
</g>
</g>
<!-- Node2&#45;&gt;Node4 -->
<g id="edge3" class="edge">
<title>Node2&#45;&gt;Node4</title>
<path fill="none" stroke="midnightblue" d="M629.49,-140.95C583.06,-151.96 494.48,-174.39 467,-191.27 447.18,-203.44 450.54,-216.64 431,-229.27 425.19,-233.02 418.56,-236.13 411.96,-238.67"/>
<polygon fill="midnightblue" stroke="midnightblue" points="630.33,-144.35 639.26,-138.65 628.73,-137.53 630.33,-144.35"/>
</g>
<!-- Node6 -->
<g id="node6" class="node">
<title>Node6</title>
<g id="a_node6"><a xlink:href="basicArithm_8hpp.html#aedf78136562346db852758c848f8e83d" target="_top" xlink:title="Converts a string representation of a number from one base to another.">
<polygon fill="none" stroke="black" points="92,-10.77 92,-29.77 186,-29.77 186,-10.77 92,-10.77"/>
<text text-anchor="middle" x="139" y="-17.77" font-family="Helvetica,sans-Serif" font-size="10.00">decimalConvert</text>
</a>
</g>
</g>
<!-- Node2&#45;&gt;Node6 -->
<g id="edge5" class="edge">
<title>Node2&#45;&gt;Node6</title>
<path fill="none" stroke="midnightblue" d="M629.31,-129.26C618.97,-126.42 607.75,-122.03 599,-115.27 575.3,-96.94 588.14,-74.57 563,-58.27 445.3,18.05 268.92,1.92 186.08,-11.4"/>
<polygon fill="midnightblue" stroke="midnightblue" points="628.69,-132.71 639.23,-131.6 630.3,-125.9 628.69,-132.71"/>
</g>
<!-- Node8 -->
<g id="node8" class="node">
<title>Node8</title>
<g id="a_node8"><a xlink:href="basicArithm_8hpp.html#acb4215189a8d1cfd37f4f6fe13890a8f" target="_top" xlink:title="Divides a string representation of a number by another string representation of a number.">
<polygon fill="none" stroke="black" points="491.5,-124.77 491.5,-143.77 538.5,-143.77 538.5,-124.77 491.5,-124.77"/>
<text text-anchor="middle" x="515" y="-131.77" font-family="Helvetica,sans-Serif" font-size="10.00">divide</text>
</a>
</g>
</g>
<!-- Node2&#45;&gt;Node8 -->
<g id="edge7" class="edge">
<title>Node2&#45;&gt;Node8</title>
<path fill="none" stroke="midnightblue" d="M628.95,-134.27C602.12,-134.27 563.11,-134.27 538.67,-134.27"/>
<polygon fill="midnightblue" stroke="midnightblue" points="629.28,-137.77 639.28,-134.27 629.28,-130.77 629.28,-137.77"/>
</g>
<!-- Node16 -->
<g id="node16" class="node">
<title>Node16</title>
<g id="a_node16"><a xlink:href="basicArithm_8hpp.html#a4e1bb2f02ee5d9df627a57d0899ac07b" target="_top" xlink:title="Executes a given predicate function a specified number of times.">
<polygon fill="none" stroke="black" points="496,-67.77 496,-86.77 534,-86.77 534,-67.77 496,-67.77"/>
<text text-anchor="middle" x="515" y="-74.77" font-family="Helvetica,sans-Serif" font-size="10.00">loop</text>
</a>
</g>
</g>
<!-- Node2&#45;&gt;Node16 -->
<g id="edge18" class="edge">
<title>Node2&#45;&gt;Node16</title>
<path fill="none" stroke="midnightblue" d="M629.57,-125.8C619.78,-122.73 608.83,-119.07 599,-115.27 576.24,-106.46 550.83,-94.5 534.19,-86.36"/>
<polygon fill="midnightblue" stroke="midnightblue" points="628.68,-129.19 639.27,-128.77 630.73,-122.49 628.68,-129.19"/>
</g>
<!-- Node5 -->
<g id="node5" class="node">
<title>Node5</title>
<g id="a_node5"><a xlink:href="baseConvert_8cpp.html#ae66f6b31b5ad750f1fe042a706a4e3d4" target="_top" xlink:title=" ">
<polygon fill="none" stroke="black" points="240,-238.77 240,-257.77 281,-257.77 281,-238.77 240,-238.77"/>
<text text-anchor="middle" x="260.5" y="-245.77" font-family="Helvetica,sans-Serif" font-size="10.00">main</text>
</a>
</g>
</g>
<!-- Node4&#45;&gt;Node5 -->
<g id="edge4" class="edge">
<title>Node4&#45;&gt;Node5</title>
<path fill="none" stroke="midnightblue" d="M326.07,-248.27C310.33,-248.27 293.74,-248.27 281.31,-248.27"/>
<polygon fill="midnightblue" stroke="midnightblue" points="326.24,-251.77 336.24,-248.27 326.24,-244.77 326.24,-251.77"/>
</g>
<!-- Node7 -->
<g id="node7" class="node">
<title>Node7</title>
<g id="a_node7"><a xlink:href="decimalConvert_8cpp.html#ac2c7bcd6d73ca32ee42312d0fa0b1aa9" target="_top" xlink:title=" ">
<polygon fill="none" stroke="black" points="0,-10.77 0,-29.77 41,-29.77 41,-10.77 0,-10.77"/>
<text text-anchor="middle" x="20.5" y="-17.77" font-family="Helvetica,sans-Serif" font-size="10.00">main</text>
</a>
</g>
</g>
<!-- Node6&#45;&gt;Node7 -->
<g id="edge6" class="edge">
<title>Node6&#45;&gt;Node7</title>
<path fill="none" stroke="midnightblue" d="M81.89,-20.27C67.24,-20.27 52.42,-20.27 41.12,-20.27"/>
<polygon fill="midnightblue" stroke="midnightblue" points="81.96,-23.77 91.96,-20.27 81.96,-16.77 81.96,-23.77"/>
</g>
<!-- Node8&#45;&gt;Node4 -->
<g id="edge8" class="edge">
<title>Node8&#45;&gt;Node4</title>
<path fill="none" stroke="midnightblue" d="M481.97,-147.14C476.56,-150.25 471.31,-153.95 467,-158.27 442.02,-183.32 457.63,-205.98 431,-229.27 426.25,-233.42 420.53,-236.68 414.62,-239.24"/>
<polygon fill="midnightblue" stroke="midnightblue" points="483.78,-150.14 491.08,-142.47 480.59,-143.92 483.78,-150.14"/>
</g>
<!-- Node9 -->
<g id="node9" class="node">
<title>Node9</title>
<g id="a_node9"><a xlink:href="basicArithm_8hpp.html#a3b20eba6c9046b375489c668443c165d" target="_top" xlink:title=" ">
<polygon fill="none" stroke="black" points="320,-86.77 320,-105.77 431,-105.77 431,-86.77 320,-86.77"/>
<text text-anchor="middle" x="375.5" y="-93.77" font-family="Helvetica,sans-Serif" font-size="10.00">divideWithQuotient</text>
</a>
</g>
</g>
<!-- Node8&#45;&gt;Node9 -->
<g id="edge9" class="edge">
<title>Node8&#45;&gt;Node9</title>
<path fill="none" stroke="midnightblue" d="M481.47,-125.28C460.29,-119.42 432.69,-111.8 411.1,-105.83"/>
<polygon fill="midnightblue" stroke="midnightblue" points="480.72,-128.7 491.29,-127.99 482.59,-121.96 480.72,-128.7"/>
</g>
<!-- Node10 -->
<g id="node10" class="node">
<title>Node10</title>
<g id="a_node10"><a xlink:href="division_8cpp.html#a065a3ee9a7ec43a06ab2fddbc3019a17" target="_top" xlink:title=" ">
<polygon fill="none" stroke="black" points="355,-200.77 355,-219.77 396,-219.77 396,-200.77 355,-200.77"/>
<text text-anchor="middle" x="375.5" y="-207.77" font-family="Helvetica,sans-Serif" font-size="10.00">main</text>
</a>
</g>
</g>
<!-- Node8&#45;&gt;Node10 -->
<g id="edge10" class="edge">
<title>Node8&#45;&gt;Node10</title>
<path fill="none" stroke="midnightblue" d="M483.67,-148.69C478.02,-151.67 472.25,-154.93 467,-158.27 449.9,-169.15 448.41,-175.88 431,-186.27 419.99,-192.84 406.86,-198.67 396.25,-202.94"/>
<polygon fill="midnightblue" stroke="midnightblue" points="485.62,-151.62 492.94,-143.96 482.44,-145.39 485.62,-151.62"/>
</g>
<!-- Node11 -->
<g id="node11" class="node">
<title>Node11</title>
<g id="a_node11"><a xlink:href="powerReport_8cpp.html#afff5f8aa771cf432836ef03f6f442dae" target="_top" xlink:title="Reports a power operation.">
<polygon fill="none" stroke="black" points="337.5,-48.77 337.5,-67.77 413.5,-67.77 413.5,-48.77 337.5,-48.77"/>
<text text-anchor="middle" x="375.5" y="-55.77" font-family="Helvetica,sans-Serif" font-size="10.00">reportPower</text>
</a>
</g>
</g>
<!-- Node8&#45;&gt;Node11 -->
<g id="edge11" class="edge">
<title>Node8&#45;&gt;Node11</title>
<path fill="none" stroke="midnightblue" d="M494.08,-118.33C477.83,-105.9 453.9,-88.86 431,-77.27 423.94,-73.69 416.04,-70.51 408.5,-67.83"/>
<polygon fill="midnightblue" stroke="midnightblue" points="492.22,-121.32 502.26,-124.7 496.52,-115.79 492.22,-121.32"/>
</g>
<!-- Node15 -->
<g id="node15" class="node">
<title>Node15</title>
<g id="a_node15"><a xlink:href="classFraction.html#a6a5092eb855dac602718b19eb7fe0d6d" target="_top" xlink:title="Simplifies a fraction. This function simplifies the fraction by dividing the top and bottom component...">
<polygon fill="none" stroke="black" points="325,-124.77 325,-143.77 426,-143.77 426,-124.77 325,-124.77"/>
<text text-anchor="middle" x="375.5" y="-131.77" font-family="Helvetica,sans-Serif" font-size="10.00">Fraction::simplify</text>
</a>
</g>
</g>
<!-- Node8&#45;&gt;Node15 -->
<g id="edge17" class="edge">
<title>Node8&#45;&gt;Node15</title>
<path fill="none" stroke="midnightblue" d="M481.09,-134.27C464.63,-134.27 444.36,-134.27 426.07,-134.27"/>
<polygon fill="midnightblue" stroke="midnightblue" points="481.29,-137.77 491.29,-134.27 481.29,-130.77 481.29,-137.77"/>
</g>
<!-- Node12 -->
<g id="node12" class="node">
<title>Node12</title>
<g id="a_node12"><a xlink:href="basicArithm_8hpp.html#a5967cef8aeb4f6ea90014159becd286d" target="_top" xlink:title="Raises a string representation of a number to a power.">
<polygon fill="none" stroke="black" points="237,-48.77 237,-67.77 284,-67.77 284,-48.77 237,-48.77"/>
<text text-anchor="middle" x="260.5" y="-55.77" font-family="Helvetica,sans-Serif" font-size="10.00">power</text>
</a>
</g>
</g>
<!-- Node11&#45;&gt;Node12 -->
<g id="edge12" class="edge">
<title>Node11&#45;&gt;Node12</title>
<path fill="none" stroke="midnightblue" d="M327.33,-58.27C312.35,-58.27 296.47,-58.27 284.07,-58.27"/>
<polygon fill="midnightblue" stroke="midnightblue" points="327.5,-61.77 337.5,-58.27 327.5,-54.77 327.5,-61.77"/>
</g>
<!-- Node12&#45;&gt;Node6 -->
<g id="edge13" class="edge">
<title>Node12&#45;&gt;Node6</title>
<path fill="none" stroke="midnightblue" d="M227.15,-47.68C218.65,-44.92 209.48,-41.97 201,-39.27 191.28,-36.17 180.66,-32.85 171.06,-29.86"/>
<polygon fill="midnightblue" stroke="midnightblue" points="226.15,-51.04 236.74,-50.8 228.31,-44.38 226.15,-51.04"/>
</g>
<!-- Node13 -->
<g id="node13" class="node">
<title>Node13</title>
<g id="a_node13"><a xlink:href="division_8cpp.html#a222752517a35fde0e4de4bb32cbaa9be" target="_top" xlink:title="Determines the scale of the quotient of division.">
<polygon fill="none" stroke="black" points="77,-124.77 77,-143.77 201,-143.77 201,-124.77 77,-124.77"/>
<text text-anchor="middle" x="139" y="-131.77" font-family="Helvetica,sans-Serif" font-size="10.00">determineResultScale</text>
</a>
</g>
</g>
<!-- Node12&#45;&gt;Node13 -->
<g id="edge14" class="edge">
<title>Node12&#45;&gt;Node13</title>
<path fill="none" stroke="midnightblue" d="M235.83,-73.32C211.8,-88.61 175.33,-111.8 155.01,-124.72"/>
<polygon fill="midnightblue" stroke="midnightblue" points="237.81,-76.21 244.37,-67.89 234.05,-70.31 237.81,-76.21"/>
</g>
<!-- Node14 -->
<g id="node14" class="node">
<title>Node14</title>
<g id="a_node14"><a xlink:href="power_8cpp.html#a065a3ee9a7ec43a06ab2fddbc3019a17" target="_top" xlink:title=" ">
<polygon fill="none" stroke="black" points="118.5,-48.77 118.5,-67.77 159.5,-67.77 159.5,-48.77 118.5,-48.77"/>
<text text-anchor="middle" x="139" y="-55.77" font-family="Helvetica,sans-Serif" font-size="10.00">main</text>
</a>
</g>
</g>
<!-- Node12&#45;&gt;Node14 -->
<g id="edge16" class="edge">
<title>Node12&#45;&gt;Node14</title>
<path fill="none" stroke="midnightblue" d="M226.71,-58.27C205.16,-58.27 177.69,-58.27 159.51,-58.27"/>
<polygon fill="midnightblue" stroke="midnightblue" points="226.74,-61.77 236.74,-58.27 226.74,-54.77 226.74,-61.77"/>
</g>
<!-- Node13&#45;&gt;Node8 -->
<g id="edge15" class="edge">
<title>Node13&#45;&gt;Node8</title>
<path fill="none" stroke="midnightblue" d="M205.87,-145.22C264.96,-153.46 353.96,-161.97 431,-153.27 451.71,-150.93 474.79,-145.4 491.34,-140.91"/>
<polygon fill="midnightblue" stroke="midnightblue" points="206.32,-141.75 195.93,-143.8 205.33,-148.68 206.32,-141.75"/>
</g>
<!-- Node16&#45;&gt;Node11 -->
<g id="edge19" class="edge">
<title>Node16&#45;&gt;Node11</title>
<path fill="none" stroke="midnightblue" d="M485.63,-73.35C464.83,-70.47 436.39,-66.54 413.76,-63.42"/>
<polygon fill="midnightblue" stroke="midnightblue" points="485.36,-76.84 495.74,-74.74 486.31,-69.91 485.36,-76.84"/>
</g>
</g>
</svg>
        <g id="navigator" transform="translate(0 0)" fill="#404254">
                <rect fill="#f2f5e9" fill-opacity="0.5" stroke="#606060" stroke-width=".5" x="0" y="0" width="60" height="60"/>
                <use id="zoomplus" xlink:href="#zoomPlus" x="17" y="9" onmousedown="handleZoom(evt,'in')"/>
                <use id="zoomminus" xlink:href="#zoomMin" x="42" y="9" onmousedown="handleZoom(evt,'out')"/>
                <use id="reset" xlink:href="#resetDef" x="30" y="36" onmousedown="handleReset()"/>
                <g id="arrowUp" xlink:href="#dirArrow" transform="translate(30 24)" onmousedown="handlePan(0,-1)">
                  <use xlink:href="#rim" fill="#404040">
                        <set attributeName="fill" to="#808080" begin="arrowUp.mouseover" end="arrowUp.mouseout"/>
                  </use>
                  <path fill="none" stroke="white" stroke-width="1.5" d="M0,-3.0v7 M-2.5,-0.5L0,-3.0L2.5,-0.5"/>
                </g>
                <g id="arrowRight" xlink:href="#dirArrow" transform="rotate(90) translate(36 -43)" onmousedown="handlePan(1,0)">
                  <use xlink:href="#rim" fill="#404040">
                        <set attributeName="fill" to="#808080" begin="arrowRight.mouseover" end="arrowRight.mouseout"/>
                  </use>
                  <path fill="none" stroke="white" stroke-width="1.5" d="M0,-3.0v7 M-2.5,-0.5L0,-3.0L2.5,-0.5"/>
                </g>
                <g id="arrowDown" xlink:href="#dirArrow" transform="rotate(180) translate(-30 -48)" onmousedown="handlePan(0,1)">
                  <use xlink:href="#rim" fill="#404040">
                        <set attributeName="fill" to="#808080" begin="arrowDown.mouseover" end="arrowDown.mouseout"/>
                  </use>
                  <path fill="none" stroke="white" stroke-width="1.5" d="M0,-3.0v7 M-2.5,-0.5L0,-3.0L2.5,-0.5"/>
                </g>
                <g id="arrowLeft" xlink:href="#dirArrow" transform="rotate(270) translate(-36 17)" onmousedown="handlePan(-1,0)">
                  <use xlink:href="#rim" fill="#404040">
                        <set attributeName="fill" to="#808080" begin="arrowLeft.mouseover" end="arrowLeft.mouseout"/>
                  </use>
                  <path fill="none" stroke="white" stroke-width="1.5" d="M0,-3.0v7 M-2.5,-0.5L0,-3.0L2.5,-0.5"/>
                </g>
        </g>
        <svg viewBox="0 0 15 15" width="100%" height="30px" preserveAspectRatio="xMaxYMin meet">
         <g id="arrow_out" transform="scale(0.3 0.3)">
          <a xlink:href="namespacecolors_ae360f74f6cd6e0fc3de2c245aba4d500_icgraph_org.svg" target="_base">
           <rect id="button" ry="5" rx="5" y="6" x="6" height="38" width="38"
                fill="#f2f5e9" fill-opacity="0.5" stroke="#606060" stroke-width="1.0"/>
           <path id="arrow"
             d="M 11.500037,31.436501 C 11.940474,20.09759 22.043105,11.32322 32.158766,21.979434 L 37.068811,17.246167 C 37.068811,17.246167 37.088388,32 37.088388,32 L 22.160133,31.978069 C 22.160133,31.978069 26.997745,27.140456 26.997745,27.140456 C 18.528582,18.264221 13.291696,25.230495 11.500037,31.436501 z"
             style="fill:#404040;"/>
          </a>
         </g>
        </svg>
</svg>
