<?xml version="1.0" encoding="UTF-8" standalone="no"?>
<!DOCTYPE svg PUBLIC "-//W3C//DTD SVG 1.1//EN"
 "http://www.w3.org/Graphics/SVG/1.1/DTD/svg11.dtd">
<!-- Generated by graphviz version 12.2.1 (20241206.2353)
 -->
<!-- Title: ImGui::GetKeyOwner Pages: 1 -->
<svg width="505pt" height="96pt"
 viewBox="0.00 0.00 504.50 96.12" xmlns="http://www.w3.org/2000/svg" xmlns:xlink="http://www.w3.org/1999/xlink">
<g id="graph0" class="graph" transform="scale(1 1) rotate(0) translate(4 92.12)">
<title>ImGui::GetKeyOwner</title>
<!-- Node1 -->
<g id="Node000001" class="node">
<title>Node1</title>
<g id="a_Node000001"><a xlink:title=" ">
<polygon fill="#999999" stroke="#666666" points="118,-39.75 0,-39.75 0,-19 118,-19 118,-39.75"/>
<text text-anchor="middle" x="59" y="-26.25" font-family="Helvetica,sans-Serif" font-size="10.00">ImGui::GetKeyOwner</text>
</a>
</g>
</g>
<!-- Node2 -->
<g id="Node000002" class="node">
<title>Node2</title>
<g id="a_Node000002"><a xlink:href="namespaceImGui.html#a05ada04953ac91c563334fb0fe934e03" target="_top" xlink:title=" ">
<polygon fill="white" stroke="#666666" points="297.12,-59.75 155.88,-59.75 155.88,-39 297.12,-39 297.12,-59.75"/>
<text text-anchor="middle" x="226.5" y="-46.25" font-family="Helvetica,sans-Serif" font-size="10.00">ImGui::GetKeyOwnerData</text>
</a>
</g>
</g>
<!-- Node1&#45;&gt;Node2 -->
<g id="edge1_Node000001_Node000002" class="edge">
<title>Node1&#45;&gt;Node2</title>
<g id="a_edge1_Node000001_Node000002"><a xlink:title=" ">
<path fill="none" stroke="#63b8ff" d="M118.35,-36.43C126.7,-37.43 135.41,-38.49 144.1,-39.54"/>
<polygon fill="#63b8ff" stroke="#63b8ff" points="143.63,-43.01 153.98,-40.73 144.47,-36.06 143.63,-43.01"/>
</a>
</g>
</g>
<!-- Node5 -->
<g id="Node000005" class="node">
<title>Node5</title>
<g id="a_Node000005"><a xlink:href="namespaceImGui.html#ad97807fb804a4d11866e5bca7d08d59c" target="_top" xlink:title=" ">
<polygon fill="white" stroke="#666666" points="299,-20.75 154,-20.75 154,0 299,0 299,-20.75"/>
<text text-anchor="middle" x="226.5" y="-7.25" font-family="Helvetica,sans-Serif" font-size="10.00">ImGui::IsNamedKeyOrMod</text>
</a>
</g>
</g>
<!-- Node1&#45;&gt;Node5 -->
<g id="edge4_Node000001_Node000005" class="edge">
<title>Node1&#45;&gt;Node5</title>
<g id="a_edge4_Node000001_Node000005"><a xlink:title=" ">
<path fill="none" stroke="#63b8ff" d="M118.35,-22.68C126.13,-21.78 134.23,-20.85 142.33,-19.92"/>
<polygon fill="#63b8ff" stroke="#63b8ff" points="142.71,-23.4 152.25,-18.78 141.91,-16.45 142.71,-23.4"/>
</a>
</g>
</g>
<!-- Node3 -->
<g id="Node000003" class="node">
<title>Node3</title>
<g id="a_Node000003"><a xlink:href="namespaceImGui.html#ad540a8f07e5834f77f76a84626cdc70e" target="_top" xlink:title=" ">
<polygon fill="white" stroke="#666666" points="496.5,-88.12 335,-88.12 335,-54.62 496.5,-54.62 496.5,-88.12"/>
<text text-anchor="start" x="343" y="-74.62" font-family="Helvetica,sans-Serif" font-size="10.00">ImGui::ConvertSingleModFlag</text>
<text text-anchor="middle" x="415.75" y="-61.88" font-family="Helvetica,sans-Serif" font-size="10.00">ToKey</text>
</a>
</g>
</g>
<!-- Node2&#45;&gt;Node3 -->
<g id="edge2_Node000002_Node000003" class="edge">
<title>Node2&#45;&gt;Node3</title>
<g id="a_edge2_Node000002_Node000003"><a xlink:title=" ">
<path fill="none" stroke="#63b8ff" d="M297.49,-57.6C305.94,-58.59 314.67,-59.62 323.37,-60.64"/>
<polygon fill="#63b8ff" stroke="#63b8ff" points="322.92,-64.11 333.26,-61.8 323.74,-57.16 322.92,-64.11"/>
</a>
</g>
</g>
<!-- Node4 -->
<g id="Node000004" class="node">
<title>Node4</title>
<g id="a_Node000004"><a xlink:href="namespaceImGui.html#a1e6a2ce7696a25d0dd0cf318e3b48a33" target="_top" xlink:title=" ">
<polygon fill="white" stroke="#666666" points="472.12,-36.75 359.38,-36.75 359.38,-16 472.12,-16 472.12,-36.75"/>
<text text-anchor="middle" x="415.75" y="-23.25" font-family="Helvetica,sans-Serif" font-size="10.00">ImGui::IsNamedKey</text>
</a>
</g>
</g>
<!-- Node2&#45;&gt;Node4 -->
<g id="edge3_Node000002_Node000004" class="edge">
<title>Node2&#45;&gt;Node4</title>
<g id="a_edge3_Node000002_Node000004"><a xlink:title=" ">
<path fill="none" stroke="#63b8ff" d="M297.49,-40.78C314.03,-38.75 331.63,-36.58 348.02,-34.57"/>
<polygon fill="#63b8ff" stroke="#63b8ff" points="348.15,-38.08 357.65,-33.39 347.3,-31.13 348.15,-38.08"/>
</a>
</g>
</g>
</g>
</svg>
