<?xml version="1.0" encoding="UTF-8" standalone="no"?>
<!DOCTYPE svg PUBLIC "-//W3C//DTD SVG 1.1//EN"
 "http://www.w3.org/Graphics/SVG/1.1/DTD/svg11.dtd">
<!-- Generated by graphviz version 11.0.0 (20240428.1522)
 -->
<!-- Title: steppable::__internals::arithmetic::root Pages: 1 -->
<!--zoomable 793 -->

<svg id="main" version="1.1" xmlns="http://www.w3.org/2000/svg" xmlns:xlink="http://www.w3.org/1999/xlink" xml:space="preserve" onload="init(evt)">
<style type="text/css"><![CDATA[
.node, .edge {opacity: 0.7;}
.node.selected, .edge.selected {opacity: 1;}
.edge:hover path { stroke: red; }
.edge:hover polygon { stroke: red; fill: red; }
]]></style>

<defs>
  <circle id="rim" cx="0" cy="0" r="7"/>
  <circle id="rim2" cx="0" cy="0" r="3.5"/>
  <g id="zoomPlus">
    <use xlink:href="#rim" fill="#404040"><set attributeName="fill" to="#808080" begin="zoomplus.mouseover" end="zoomplus.mouseout"/></use>
    <path d="M-4,0h8M0,-4v8" fill="none" stroke="white" stroke-width="1.5" pointer-events="none"/>
  </g>
  <g id="zoomMin">
    <use xlink:href="#rim" fill="#404040"><set attributeName="fill" to="#808080" begin="zoomminus.mouseover" end="zoomminus.mouseout"/></use>
    <path d="M-4,0h8" fill="none" stroke="white" stroke-width="1.5" pointer-events="none"/>
  </g>
  <g id="arrowUp" transform="translate(30 24)">
    <use xlink:href="#rim"/>
    <path pointer-events="none" fill="none" stroke="white" stroke-width="1.5" d="M0,-3.0v7 M-2.5,-0.5L0,-3.0L2.5,-0.5"/>
  </g>
  <g id="arrowRight" transform="rotate(90) translate(36 -43)">
    <use xlink:href="#rim"/>
    <path pointer-events="none" fill="none" stroke="white" stroke-width="1.5" d="M0,-3.0v7 M-2.5,-0.5L0,-3.0L2.5,-0.5"/>
  </g>
  <g id="arrowDown" transform="rotate(180) translate(-30 -48)">
    <use xlink:href="#rim"/>
    <path pointer-events="none" fill="none" stroke="white" stroke-width="1.5" d="M0,-3.0v7 M-2.5,-0.5L0,-3.0L2.5,-0.5"/>
  </g>
  <g id="arrowLeft" transform="rotate(270) translate(-36 17)">
    <use xlink:href="#rim"/>
    <path pointer-events="none" fill="none" stroke="white" stroke-width="1.5" d="M0,-3.0v7 M-2.5,-0.5L0,-3.0L2.5,-0.5"/>
  </g>
  <g id="resetDef">
    <use xlink:href="#rim2" fill="#404040"><set attributeName="fill" to="#808080" begin="reset.mouseover" end="reset.mouseout"/></use>
  </g>
</defs>
<script type="application/ecmascript">
var viewWidth = 1427;
var viewHeight = 793;
var sectionId = 'dynsection-29';
</script>
<script type="application/ecmascript" xlink:href="svg.min.js"/>
<svg id="graph" class="graph">
<g id="viewport">
<title>steppable::__internals::arithmetic::root</title>
<!-- Node1 -->
<g id="Node000001" class="node">
<title>Node1</title>
<g id="a_Node000001"><a xlink:title="Takes the n&#45;th root of a numer.">
<polygon fill="#999999" stroke="#666666" points="1418.75,-738.5 1295.5,-738.5 1295.5,-705 1418.75,-705 1418.75,-738.5"/>
<text text-anchor="start" x="1303.5" y="-725" font-family="Helvetica,sans-Serif" font-size="10.00">steppable::__internals</text>
<text text-anchor="middle" x="1357.12" y="-712.25" font-family="Helvetica,sans-Serif" font-size="10.00">::arithmetic::root</text>
</a>
</g>
</g>
<!-- Node2 -->
<g id="Node000002" class="node">
<title>Node2</title>
<g id="a_Node000002"><a xlink:href="namespacesteppable_1_1____internals_1_1arithmetic.html#a50acfa1ad06ce385943ddd207146c9e0" target="_top" xlink:title="Raises a string representation of a number to a power.">
<polygon fill="white" stroke="#666666" points="1259.5,-336.5 1136.25,-336.5 1136.25,-303 1259.5,-303 1259.5,-336.5"/>
<text text-anchor="start" x="1144.25" y="-323" font-family="Helvetica,sans-Serif" font-size="10.00">steppable::__internals</text>
<text text-anchor="middle" x="1197.88" y="-310.25" font-family="Helvetica,sans-Serif" font-size="10.00">::arithmetic::power</text>
</a>
</g>
</g>
<!-- Node1&#45;&gt;Node2 -->
<g id="edge1_Node000001_Node000002" class="edge">
<title>Node1&#45;&gt;Node2</title>
<g id="a_edge1_Node000001_Node000002"><a xlink:title=" ">
<path fill="none" stroke="#63b8ff" d="M1345.43,-694.42C1315.29,-617.36 1230.23,-399.9 1205.62,-337"/>
<polygon fill="#63b8ff" stroke="#63b8ff" points="1342.01,-695.29 1348.92,-703.32 1348.53,-692.74 1342.01,-695.29"/>
</a>
</g>
</g>
<!-- Node2&#45;&gt;Node2 -->
<g id="edge37_Node000002_Node000002" class="edge">
<title>Node2&#45;&gt;Node2</title>
<g id="a_edge37_Node000002_Node000002"><a xlink:title=" ">
<path fill="none" stroke="#63b8ff" d="M1224.61,-347.89C1220.26,-351.85 1211.35,-354.5 1197.88,-354.5 1173.93,-354.5 1164.38,-346.12 1169.25,-336.91"/>
<polygon fill="#63b8ff" stroke="#63b8ff" points="1228,-348.85 1226.25,-338.41 1221.1,-347.67 1228,-348.85"/>
</a>
</g>
</g>
<!-- Node3 -->
<g id="Node000003" class="node">
<title>Node3</title>
<g id="a_Node000003"><a xlink:href="namespacesteppable_1_1____internals_1_1arithmetic.html#a1eedcdd2349ec452f6319cd0ff443e0a" target="_top" xlink:title=" ">
<polygon fill="white" stroke="#666666" points="694.75,-738.5 571.5,-738.5 571.5,-705 694.75,-705 694.75,-738.5"/>
<text text-anchor="start" x="579.5" y="-725" font-family="Helvetica,sans-Serif" font-size="10.00">steppable::__internals</text>
<text text-anchor="middle" x="633.12" y="-712.25" font-family="Helvetica,sans-Serif" font-size="10.00">::arithmetic::_root</text>
</a>
</g>
</g>
<!-- Node2&#45;&gt;Node3 -->
<g id="edge2_Node000002_Node000003" class="edge">
<title>Node2&#45;&gt;Node3</title>
<g id="a_edge2_Node000002_Node000003"><a xlink:title=" ">
<path fill="none" stroke="#63b8ff" d="M1181.13,-346.36C1163.73,-374.29 1133.7,-418.42 1100.25,-449.75 953.2,-587.47 902.24,-610.92 719.5,-695.75 711.77,-699.34 703.42,-702.58 695.08,-705.47"/>
<polygon fill="#63b8ff" stroke="#63b8ff" points="1183.92,-348.5 1186.16,-338.14 1177.95,-344.84 1183.92,-348.5"/>
</a>
</g>
</g>
<!-- Node4 -->
<g id="Node000004" class="node">
<title>Node4</title>
<g id="a_Node000004"><a xlink:href="namespacesteppable_1_1____internals_1_1arithmetic.html#afc4c4f319dadbb5b1ff481132f008374" target="_top" xlink:title="Converts a string representation of a number from any base to decimal.">
<polygon fill="white" stroke="#666666" points="1085.25,-208.5 929.75,-208.5 929.75,-175 1085.25,-175 1085.25,-208.5"/>
<text text-anchor="start" x="937.75" y="-195" font-family="Helvetica,sans-Serif" font-size="10.00">steppable::__internals</text>
<text text-anchor="middle" x="1007.5" y="-182.25" font-family="Helvetica,sans-Serif" font-size="10.00">::arithmetic::decimalConvert</text>
</a>
</g>
</g>
<!-- Node2&#45;&gt;Node4 -->
<g id="edge5_Node000002_Node000004" class="edge">
<title>Node2&#45;&gt;Node4</title>
<g id="a_edge5_Node000002_Node000004"><a xlink:title=" ">
<path fill="none" stroke="#63b8ff" d="M1176.96,-293.91C1159.01,-272.2 1130.8,-241.76 1100.25,-222.75 1091.54,-217.33 1081.77,-212.74 1071.95,-208.88"/>
<polygon fill="#63b8ff" stroke="#63b8ff" points="1174.04,-295.87 1183.05,-301.45 1179.48,-291.47 1174.04,-295.87"/>
</a>
</g>
</g>
<!-- Node5 -->
<g id="Node000005" class="node">
<title>Node5</title>
<g id="a_Node000005"><a xlink:href="namespacesteppable_1_1____internals_1_1arithmetic.html#aa150ef39a272f7228ae239679247fab3" target="_top" xlink:title="Determines the scale of the quotient of division.">
<polygon fill="white" stroke="#666666" points="1100.25,-336.5 914.75,-336.5 914.75,-303 1100.25,-303 1100.25,-336.5"/>
<text text-anchor="start" x="922.75" y="-323" font-family="Helvetica,sans-Serif" font-size="10.00">steppable::__internals</text>
<text text-anchor="middle" x="1007.5" y="-310.25" font-family="Helvetica,sans-Serif" font-size="10.00">::arithmetic::determineResultScale</text>
</a>
</g>
</g>
<!-- Node2&#45;&gt;Node5 -->
<g id="edge6_Node000002_Node000005" class="edge">
<title>Node2&#45;&gt;Node5</title>
<g id="a_edge6_Node000002_Node000005"><a xlink:title=" ">
<path fill="none" stroke="#63b8ff" d="M1124.66,-319.75C1116.81,-319.75 1108.74,-319.75 1100.69,-319.75"/>
<polygon fill="#63b8ff" stroke="#63b8ff" points="1124.46,-323.25 1134.46,-319.75 1124.46,-316.25 1124.46,-323.25"/>
</a>
</g>
</g>
<!-- Node15 -->
<g id="Node000015" class="node">
<title>Node15</title>
<g id="a_Node000015"><a xlink:href="namespacesteppable_1_1____internals_1_1arithmetic.html#a6f1429e9d7719e6376dc68ae28d36dbe" target="_top" xlink:title="Gets the integer part of the root of a number.">
<polygon fill="white" stroke="#666666" points="697.75,-180.5 568.5,-180.5 568.5,-147 697.75,-147 697.75,-180.5"/>
<text text-anchor="start" x="576.5" y="-167" font-family="Helvetica,sans-Serif" font-size="10.00">steppable::__internals</text>
<text text-anchor="middle" x="633.12" y="-154.25" font-family="Helvetica,sans-Serif" font-size="10.00">::arithmetic::rootIntPart</text>
</a>
</g>
</g>
<!-- Node2&#45;&gt;Node15 -->
<g id="edge38_Node000002_Node000015" class="edge">
<title>Node2&#45;&gt;Node15</title>
<g id="a_edge38_Node000002_Node000015"><a xlink:title=" ">
<path fill="none" stroke="#63b8ff" d="M1164.39,-296.03C1146.3,-283.84 1122.92,-269.72 1100.25,-260.75 1063.16,-246.08 817.06,-198.4 698.18,-175.82"/>
<polygon fill="#63b8ff" stroke="#63b8ff" points="1162.39,-298.9 1172.61,-301.69 1166.36,-293.13 1162.39,-298.9"/>
</a>
</g>
</g>
<!-- Node16 -->
<g id="Node000016" class="node">
<title>Node16</title>
<g id="a_Node000016"><a xlink:href="namespacesteppable_1_1____internals_1_1numUtils.html#a9af210044669c6dd27a2fca4723fe831" target="_top" xlink:title="Get the greatest root number less than or equal to the given number.">
<polygon fill="white" stroke="#666666" points="510.75,-85.5 335,-85.5 335,-52 510.75,-52 510.75,-85.5"/>
<text text-anchor="start" x="343" y="-72" font-family="Helvetica,sans-Serif" font-size="10.00">steppable::__internals</text>
<text text-anchor="middle" x="422.88" y="-59.25" font-family="Helvetica,sans-Serif" font-size="10.00">::numUtils::getGreatestRootNum</text>
</a>
</g>
</g>
<!-- Node2&#45;&gt;Node16 -->
<g id="edge33_Node000002_Node000016" class="edge">
<title>Node2&#45;&gt;Node16</title>
<g id="a_edge33_Node000002_Node000016"><a xlink:title=" ">
<path fill="none" stroke="#63b8ff" d="M1125.07,-299.77C1116.73,-297.65 1108.32,-295.59 1100.25,-293.75 856.21,-238.08 738.65,-350.45 546.75,-189.75 512.13,-160.76 543.8,-125.52 510.75,-94.75 507.18,-91.42 503.2,-88.52 498.96,-85.99"/>
<polygon fill="#63b8ff" stroke="#63b8ff" points="1123.95,-303.1 1134.51,-302.22 1125.71,-296.32 1123.95,-303.1"/>
</a>
</g>
</g>
<!-- Node17 -->
<g id="Node000017" class="node">
<title>Node17</title>
<g id="a_Node000017"><a xlink:href="namespacesteppable_1_1____internals_1_1numUtils.html#af5d859c9839f7f49bf06f891693d5dfc" target="_top" xlink:title="Check if a number is a root number.">
<polygon fill="white" stroke="#666666" points="484.5,-33.5 361.25,-33.5 361.25,0 484.5,0 484.5,-33.5"/>
<text text-anchor="start" x="369.25" y="-20" font-family="Helvetica,sans-Serif" font-size="10.00">steppable::__internals</text>
<text text-anchor="middle" x="422.88" y="-7.25" font-family="Helvetica,sans-Serif" font-size="10.00">::numUtils::isRoot</text>
</a>
</g>
</g>
<!-- Node2&#45;&gt;Node17 -->
<g id="edge34_Node000002_Node000017" class="edge">
<title>Node2&#45;&gt;Node17</title>
<g id="a_edge34_Node000002_Node000017"><a xlink:title=" ">
<path fill="none" stroke="#63b8ff" d="M1187.34,-292.3C1173.7,-257.26 1145.19,-197.4 1100.25,-165.75 906.84,-29.52 611.2,-14.68 484.72,-15.11"/>
<polygon fill="#63b8ff" stroke="#63b8ff" points="1183.93,-293.18 1190.72,-301.32 1190.49,-290.72 1183.93,-293.18"/>
</a>
</g>
</g>
<!-- Node28 -->
<g id="Node000028" class="node">
<title>Node28</title>
<g id="a_Node000028"><a xlink:href="classsteppable_1_1Fraction.html#abaf8678e0b61e3097789959b66e4c23c" target="_top" xlink:title="Raises the fraction to a power.">
<polygon fill="white" stroke="#666666" points="1062,-440.5 953,-440.5 953,-407 1062,-407 1062,-440.5"/>
<text text-anchor="start" x="961" y="-427" font-family="Helvetica,sans-Serif" font-size="10.00">steppable::Fraction</text>
<text text-anchor="middle" x="1007.5" y="-414.25" font-family="Helvetica,sans-Serif" font-size="10.00">::operator^</text>
</a>
</g>
</g>
<!-- Node2&#45;&gt;Node28 -->
<g id="edge35_Node000002_Node000028" class="edge">
<title>Node2&#45;&gt;Node28</title>
<g id="a_edge35_Node000002_Node000028"><a xlink:title=" ">
<path fill="none" stroke="#63b8ff" d="M1172.13,-344.47C1153.71,-361.62 1127.19,-383.8 1100.25,-397.75 1088.49,-403.84 1075.12,-408.66 1062.29,-412.41"/>
<polygon fill="#63b8ff" stroke="#63b8ff" points="1174.31,-347.23 1179.14,-337.8 1169.49,-342.16 1174.31,-347.23"/>
</a>
</g>
</g>
<!-- Node29 -->
<g id="Node000029" class="node">
<title>Node29</title>
<g id="a_Node000029"><a xlink:href="classsteppable_1_1Number.html#ae3e13c5f73bc67cd464c84a8640e1387" target="_top" xlink:title="Raises the number to a power.">
<polygon fill="white" stroke="#666666" points="1065,-388.5 950,-388.5 950,-355 1065,-355 1065,-388.5"/>
<text text-anchor="start" x="958" y="-375" font-family="Helvetica,sans-Serif" font-size="10.00">steppable::Number::</text>
<text text-anchor="middle" x="1007.5" y="-362.25" font-family="Helvetica,sans-Serif" font-size="10.00">operator^</text>
</a>
</g>
</g>
<!-- Node2&#45;&gt;Node29 -->
<g id="edge36_Node000002_Node000029" class="edge">
<title>Node2&#45;&gt;Node29</title>
<g id="a_edge36_Node000002_Node000029"><a xlink:title=" ">
<path fill="none" stroke="#63b8ff" d="M1125.15,-339.55C1105.36,-345.01 1084.17,-350.86 1065.35,-356.06"/>
<polygon fill="#63b8ff" stroke="#63b8ff" points="1125.81,-343 1134.52,-336.96 1123.95,-336.25 1125.81,-343"/>
</a>
</g>
</g>
<!-- Node3&#45;&gt;Node1 -->
<g id="edge4_Node000003_Node000001" class="edge">
<title>Node3&#45;&gt;Node1</title>
<g id="a_edge4_Node000003_Node000001"><a xlink:title=" ">
<path fill="none" stroke="#63b8ff" d="M706.32,-721.75C848.54,-721.75 1162.62,-721.75 1295.19,-721.75"/>
<polygon fill="#63b8ff" stroke="#63b8ff" points="706.67,-718.25 696.67,-721.75 706.67,-725.25 706.67,-718.25"/>
</a>
</g>
</g>
<!-- Node3&#45;&gt;Node3 -->
<g id="edge3_Node000003_Node000003" class="edge">
<title>Node3&#45;&gt;Node3</title>
<g id="a_edge3_Node000003_Node000003"><a xlink:title=" ">
<path fill="none" stroke="#63b8ff" d="M664.02,-749.89C658.99,-753.85 648.69,-756.5 633.12,-756.5 605.45,-756.5 594.43,-748.12 600.05,-738.91"/>
<polygon fill="#63b8ff" stroke="#63b8ff" points="667.39,-750.89 665.91,-740.4 660.52,-749.52 667.39,-750.89"/>
</a>
</g>
</g>
<!-- Node6 -->
<g id="Node000006" class="node">
<title>Node6</title>
<g id="a_Node000006"><a xlink:href="namespacesteppable_1_1____internals_1_1arithmetic.html#a26194ae8ddb44afb942fbf8335ae1730" target="_top" xlink:title="Divides a string representation of a number by another string representation of a number.">
<polygon fill="white" stroke="#666666" points="878.75,-570.5 755.5,-570.5 755.5,-537 878.75,-537 878.75,-570.5"/>
<text text-anchor="start" x="763.5" y="-557" font-family="Helvetica,sans-Serif" font-size="10.00">steppable::__internals</text>
<text text-anchor="middle" x="817.12" y="-544.25" font-family="Helvetica,sans-Serif" font-size="10.00">::arithmetic::divide</text>
</a>
</g>
</g>
<!-- Node5&#45;&gt;Node6 -->
<g id="edge7_Node000005_Node000006" class="edge">
<title>Node5&#45;&gt;Node6</title>
<g id="a_edge7_Node000005_Node000006"><a xlink:title=" ">
<path fill="none" stroke="#63b8ff" d="M918.14,-343.04C916.98,-343.91 915.85,-344.81 914.75,-345.75 853.7,-397.81 828.89,-496.78 821.1,-536.56"/>
<polygon fill="#63b8ff" stroke="#63b8ff" points="919.74,-346.17 926.24,-337.8 915.94,-340.29 919.74,-346.17"/>
</a>
</g>
</g>
<!-- Node6&#45;&gt;Node3 -->
<g id="edge8_Node000006_Node000003" class="edge">
<title>Node6&#45;&gt;Node3</title>
<g id="a_edge8_Node000006_Node000003"><a xlink:title=" ">
<path fill="none" stroke="#63b8ff" d="M787.2,-578.66C776.31,-589.05 764.42,-601.72 755.5,-614.75 733.25,-647.26 749.01,-669.65 719.5,-695.75 712.42,-702.01 703.87,-706.76 694.94,-710.37"/>
<polygon fill="#63b8ff" stroke="#63b8ff" points="789.56,-581.24 794.53,-571.89 784.81,-576.1 789.56,-581.24"/>
</a>
</g>
</g>
<!-- Node7 -->
<g id="Node000007" class="node">
<title>Node7</title>
<g id="a_Node000007"><a xlink:href="namespacesteppable_1_1____internals_1_1arithmetic.html#a814abbd0fc1772320626c4c0ca3f677a" target="_top" xlink:title="Converts a string representation of a number from decimal to another one.">
<polygon fill="white" stroke="#666666" points="703,-686.5 563.25,-686.5 563.25,-653 703,-653 703,-686.5"/>
<text text-anchor="start" x="571.25" y="-673" font-family="Helvetica,sans-Serif" font-size="10.00">steppable::__internals</text>
<text text-anchor="middle" x="633.12" y="-660.25" font-family="Helvetica,sans-Serif" font-size="10.00">::arithmetic::baseConvert</text>
</a>
</g>
</g>
<!-- Node6&#45;&gt;Node7 -->
<g id="edge9_Node000006_Node000007" class="edge">
<title>Node6&#45;&gt;Node7</title>
<g id="a_edge9_Node000006_Node000007"><a xlink:title=" ">
<path fill="none" stroke="#63b8ff" d="M792.7,-578.92C774.27,-597.52 747.17,-622.36 719.5,-638.75 710.55,-644.06 700.53,-648.69 690.61,-652.64"/>
<polygon fill="#63b8ff" stroke="#63b8ff" points="795.01,-581.57 799.47,-571.96 789.99,-576.69 795.01,-581.57"/>
</a>
</g>
</g>
<!-- Node8 -->
<g id="Node000008" class="node">
<title>Node8</title>
<g id="a_Node000008"><a xlink:href="namespacesteppable_1_1____internals_1_1arithmetic.html#ac9102075acd398b3bdf388f6cc2ef978" target="_top" xlink:title=" ">
<polygon fill="white" stroke="#666666" points="719.5,-544.5 546.75,-544.5 546.75,-511 719.5,-511 719.5,-544.5"/>
<text text-anchor="start" x="554.75" y="-531" font-family="Helvetica,sans-Serif" font-size="10.00">steppable::__internals</text>
<text text-anchor="middle" x="633.12" y="-518.25" font-family="Helvetica,sans-Serif" font-size="10.00">::arithmetic::divideWithQuotient</text>
</a>
</g>
</g>
<!-- Node6&#45;&gt;Node8 -->
<g id="edge10_Node000006_Node000008" class="edge">
<title>Node6&#45;&gt;Node8</title>
<g id="a_edge10_Node000006_Node000008"><a xlink:title=" ">
<path fill="none" stroke="#63b8ff" d="M743.74,-543.41C735.93,-542.29 727.94,-541.15 719.99,-540.02"/>
<polygon fill="#63b8ff" stroke="#63b8ff" points="743.12,-546.86 753.52,-544.81 744.11,-539.93 743.12,-546.86"/>
</a>
</g>
</g>
<!-- Node11 -->
<g id="Node000011" class="node">
<title>Node11</title>
<g id="a_Node000011"><a xlink:href="namespacesteppable_1_1____internals_1_1arithmetic.html#a118bc6cb979317a7c762ee90fb44d0a4" target="_top" xlink:title="Converts a root operation into a surd.">
<polygon fill="white" stroke="#666666" points="123.25,-702.5 0,-702.5 0,-669 123.25,-669 123.25,-702.5"/>
<text text-anchor="start" x="8" y="-689" font-family="Helvetica,sans-Serif" font-size="10.00">steppable::__internals</text>
<text text-anchor="middle" x="61.62" y="-676.25" font-family="Helvetica,sans-Serif" font-size="10.00">::arithmetic::rootSurd</text>
</a>
</g>
</g>
<!-- Node6&#45;&gt;Node11 -->
<g id="edge22_Node000006_Node000011" class="edge">
<title>Node6&#45;&gt;Node11</title>
<g id="a_edge22_Node000006_Node000011"><a xlink:title=" ">
<path fill="none" stroke="#63b8ff" d="M779.34,-576.67C761.76,-586.8 740.1,-598.11 719.5,-605.75 645.79,-633.08 619.38,-613.68 546.75,-643.75 529.21,-651.01 528.86,-661.04 510.75,-666.75 377.63,-708.72 211.23,-701.23 123.41,-692.97"/>
<polygon fill="#63b8ff" stroke="#63b8ff" points="781.02,-579.74 787.87,-571.65 777.48,-573.7 781.02,-579.74"/>
</a>
</g>
</g>
<!-- Node14 -->
<g id="Node000014" class="node">
<title>Node14</title>
<g id="a_Node000014"><a xlink:href="classsteppable_1_1Number.html#aebdaf5d342a2a897793556bd390bc184" target="_top" xlink:title="Divides two numbers.">
<polygon fill="white" stroke="#666666" points="690.62,-596.5 575.62,-596.5 575.62,-563 690.62,-563 690.62,-596.5"/>
<text text-anchor="start" x="583.62" y="-583" font-family="Helvetica,sans-Serif" font-size="10.00">steppable::Number::</text>
<text text-anchor="middle" x="633.12" y="-570.25" font-family="Helvetica,sans-Serif" font-size="10.00">operator/</text>
</a>
</g>
</g>
<!-- Node6&#45;&gt;Node14 -->
<g id="edge17_Node000006_Node000014" class="edge">
<title>Node6&#45;&gt;Node14</title>
<g id="a_edge17_Node000006_Node000014"><a xlink:title=" ">
<path fill="none" stroke="#63b8ff" d="M743.69,-564.1C726.19,-566.6 707.75,-569.23 691.08,-571.61"/>
<polygon fill="#63b8ff" stroke="#63b8ff" points="744.11,-567.57 753.52,-562.69 743.12,-560.64 744.11,-567.57"/>
</a>
</g>
</g>
<!-- Node6&#45;&gt;Node15 -->
<g id="edge18_Node000006_Node000015" class="edge">
<title>Node6&#45;&gt;Node15</title>
<g id="a_edge18_Node000006_Node000015"><a xlink:title=" ">
<path fill="none" stroke="#63b8ff" d="M805.05,-526.23C787.71,-483.54 752.69,-398.96 719.5,-328.75 693.59,-273.93 659.69,-210.64 643.51,-180.89"/>
<polygon fill="#63b8ff" stroke="#63b8ff" points="801.7,-527.27 808.7,-535.23 808.19,-524.64 801.7,-527.27"/>
</a>
</g>
</g>
<!-- Node18 -->
<g id="Node000018" class="node">
<title>Node18</title>
<g id="a_Node000018"><a xlink:href="classsteppable_1_1Fraction.html#a9cf64d847c268d9334775c572ef75dfa" target="_top" xlink:title="Simplifies a fraction. This function simplifies the fraction by dividing the top and bottom component...">
<polygon fill="white" stroke="#666666" points="687.62,-371.5 578.62,-371.5 578.62,-338 687.62,-338 687.62,-371.5"/>
<text text-anchor="start" x="586.62" y="-358" font-family="Helvetica,sans-Serif" font-size="10.00">steppable::Fraction</text>
<text text-anchor="middle" x="633.12" y="-345.25" font-family="Helvetica,sans-Serif" font-size="10.00">::simplify</text>
</a>
</g>
</g>
<!-- Node6&#45;&gt;Node18 -->
<g id="edge23_Node000006_Node000018" class="edge">
<title>Node6&#45;&gt;Node18</title>
<g id="a_edge23_Node000006_Node000018"><a xlink:title=" ">
<path fill="none" stroke="#63b8ff" d="M792.94,-528.4C755.33,-487.27 682,-407.1 649.86,-371.96"/>
<polygon fill="#63b8ff" stroke="#63b8ff" points="790.25,-530.65 799.59,-535.67 795.42,-525.93 790.25,-530.65"/>
</a>
</g>
</g>
<!-- Node9 -->
<g id="Node000009" class="node">
<title>Node9</title>
<g id="a_Node000009"><a xlink:href="namespacesteppable_1_1____internals_1_1numUtils.html#a5eeb396144a9e1d3edd3339abb6f434f" target="_top" xlink:title="Get the factors of a number.">
<polygon fill="white" stroke="#666666" points="484.5,-605.5 361.25,-605.5 361.25,-572 484.5,-572 484.5,-605.5"/>
<text text-anchor="start" x="369.25" y="-592" font-family="Helvetica,sans-Serif" font-size="10.00">steppable::__internals</text>
<text text-anchor="middle" x="422.88" y="-579.25" font-family="Helvetica,sans-Serif" font-size="10.00">::numUtils::getFactors</text>
</a>
</g>
</g>
<!-- Node8&#45;&gt;Node9 -->
<g id="edge11_Node000008_Node000009" class="edge">
<title>Node8&#45;&gt;Node9</title>
<g id="a_edge11_Node000008_Node000009"><a xlink:title=" ">
<path fill="none" stroke="#63b8ff" d="M562.4,-548.17C536.5,-555.76 507.39,-564.29 482.57,-571.56"/>
<polygon fill="#63b8ff" stroke="#63b8ff" points="563.22,-551.58 571.83,-545.41 561.25,-544.86 563.22,-551.58"/>
</a>
</g>
</g>
<!-- Node13 -->
<g id="Node000013" class="node">
<title>Node13</title>
<g id="a_Node000013"><a xlink:href="classsteppable_1_1Number.html#a719a8a93fcfe91b30c38ba0830d6de50" target="_top" xlink:title="Calculates the remainder of two numbers. (Modulus)">
<polygon fill="white" stroke="#666666" points="480.38,-657.5 365.38,-657.5 365.38,-624 480.38,-624 480.38,-657.5"/>
<text text-anchor="start" x="373.38" y="-644" font-family="Helvetica,sans-Serif" font-size="10.00">steppable::Number::</text>
<text text-anchor="middle" x="422.88" y="-631.25" font-family="Helvetica,sans-Serif" font-size="10.00">operator%</text>
</a>
</g>
</g>
<!-- Node8&#45;&gt;Node13 -->
<g id="edge16_Node000008_Node000013" class="edge">
<title>Node8&#45;&gt;Node13</title>
<g id="a_edge16_Node000008_Node000013"><a xlink:title=" ">
<path fill="none" stroke="#63b8ff" d="M550.87,-550.73C549.46,-551.7 548.08,-552.7 546.75,-553.75 522.01,-573.22 535.54,-595.34 510.75,-614.75 501.95,-621.64 491.35,-626.71 480.62,-630.44"/>
<polygon fill="#63b8ff" stroke="#63b8ff" points="552.52,-553.82 559.33,-545.7 548.94,-547.8 552.52,-553.82"/>
</a>
</g>
</g>
<!-- Node10 -->
<g id="Node000010" class="node">
<title>Node10</title>
<g id="a_Node000010"><a xlink:href="namespacesteppable_1_1____internals_1_1numUtils.html#a379086734493f9c5d59b1bca39908074" target="_top" xlink:title="Get the largest factor of a number, that is a root number.">
<polygon fill="white" stroke="#666666" points="299,-579.5 159.25,-579.5 159.25,-546 299,-546 299,-579.5"/>
<text text-anchor="start" x="167.25" y="-566" font-family="Helvetica,sans-Serif" font-size="10.00">steppable::__internals</text>
<text text-anchor="middle" x="229.12" y="-553.25" font-family="Helvetica,sans-Serif" font-size="10.00">::numUtils::getRootFactor</text>
</a>
</g>
</g>
<!-- Node9&#45;&gt;Node10 -->
<g id="edge12_Node000009_Node000010" class="edge">
<title>Node9&#45;&gt;Node10</title>
<g id="a_edge12_Node000009_Node000010"><a xlink:title=" ">
<path fill="none" stroke="#63b8ff" d="M349.69,-578.96C333.16,-576.72 315.63,-574.34 299.24,-572.12"/>
<polygon fill="#63b8ff" stroke="#63b8ff" points="349.06,-582.41 359.44,-580.28 350,-575.47 349.06,-582.41"/>
</a>
</g>
</g>
<!-- Node12 -->
<g id="Node000012" class="node">
<title>Node12</title>
<g id="a_Node000012"><a xlink:href="namespacesteppable_1_1____internals_1_1numUtils.html#a1a51aabb1fe846587df780d136efd45f" target="_top" xlink:title="Check if a number is prime.">
<polygon fill="white" stroke="#666666" points="290.75,-631.5 167.5,-631.5 167.5,-598 290.75,-598 290.75,-631.5"/>
<text text-anchor="start" x="175.5" y="-618" font-family="Helvetica,sans-Serif" font-size="10.00">steppable::__internals</text>
<text text-anchor="middle" x="229.12" y="-605.25" font-family="Helvetica,sans-Serif" font-size="10.00">::numUtils::isPrime</text>
</a>
</g>
</g>
<!-- Node9&#45;&gt;Node12 -->
<g id="edge15_Node000009_Node000012" class="edge">
<title>Node9&#45;&gt;Node12</title>
<g id="a_edge15_Node000009_Node000012"><a xlink:title=" ">
<path fill="none" stroke="#63b8ff" d="M349.77,-598.53C330.5,-601.14 309.85,-603.94 291.23,-606.46"/>
<polygon fill="#63b8ff" stroke="#63b8ff" points="350,-602.03 359.44,-597.22 349.06,-595.09 350,-602.03"/>
</a>
</g>
</g>
<!-- Node10&#45;&gt;Node11 -->
<g id="edge13_Node000010_Node000011" class="edge">
<title>Node10&#45;&gt;Node11</title>
<g id="a_edge13_Node000010_Node000011"><a xlink:title=" ">
<path fill="none" stroke="#63b8ff" d="M165.36,-585.07C163.26,-586.25 161.22,-587.48 159.25,-588.75 124.72,-611.08 92.73,-647.53 75.62,-668.82"/>
<polygon fill="#63b8ff" stroke="#63b8ff" points="166.79,-588.27 174.1,-580.61 163.6,-582.04 166.79,-588.27"/>
</a>
</g>
</g>
<!-- Node11&#45;&gt;Node1 -->
<g id="edge14_Node000011_Node000001" class="edge">
<title>Node11&#45;&gt;Node1</title>
<g id="a_edge14_Node000011_Node000001"><a xlink:title=" ">
<path fill="none" stroke="#63b8ff" d="M109.77,-707.5C177.36,-736.64 306.43,-784.75 421.88,-784.75 1008.5,-784.75 1008.5,-784.75 1008.5,-784.75 1111.54,-784.75 1229.05,-757.62 1297.66,-738.97"/>
<polygon fill="#63b8ff" stroke="#63b8ff" points="111.41,-704.4 100.84,-703.6 108.61,-710.81 111.41,-704.4"/>
</a>
</g>
</g>
<!-- Node15&#45;&gt;Node16 -->
<g id="edge19_Node000015_Node000016" class="edge">
<title>Node15&#45;&gt;Node16</title>
<g id="a_edge19_Node000015_Node000016"><a xlink:title=" ">
<path fill="none" stroke="#63b8ff" d="M596.45,-140.61C572.83,-126.03 540.78,-107.59 510.75,-94.75 503.37,-91.59 495.48,-88.66 487.58,-86"/>
<polygon fill="#63b8ff" stroke="#63b8ff" points="594.4,-143.47 604.74,-145.8 598.12,-137.53 594.4,-143.47"/>
</a>
</g>
</g>
<!-- Node15&#45;&gt;Node17 -->
<g id="edge20_Node000015_Node000017" class="edge">
<title>Node15&#45;&gt;Node17</title>
<g id="a_edge20_Node000015_Node000017"><a xlink:title=" ">
<path fill="none" stroke="#63b8ff" d="M612.49,-137.63C590.55,-110.2 552.59,-67.68 510.75,-42.75 502.77,-38 493.85,-34.05 484.86,-30.8"/>
<polygon fill="#63b8ff" stroke="#63b8ff" points="609.7,-139.74 618.62,-145.45 615.21,-135.42 609.7,-139.74"/>
</a>
</g>
</g>
<!-- Node17&#45;&gt;Node10 -->
<g id="edge21_Node000017_Node000010" class="edge">
<title>Node17&#45;&gt;Node10</title>
<g id="a_edge21_Node000017_Node000010"><a xlink:title=" ">
<path fill="none" stroke="#63b8ff" d="M350.71,-30.57C344.86,-33.83 339.49,-37.83 335,-42.75 265.02,-119.47 236.95,-464.5 231.26,-545.63"/>
<polygon fill="#63b8ff" stroke="#63b8ff" points="351.99,-33.84 359.55,-26.42 349.01,-27.5 351.99,-33.84"/>
</a>
</g>
</g>
<!-- Node19 -->
<g id="Node000019" class="node">
<title>Node19</title>
<g id="a_Node000019"><a xlink:href="classsteppable_1_1Fraction.html#a4647e3f3062426a91d1ef7cdbde23bb6" target="_top" xlink:title="Initialized a fraction from a number.">
<polygon fill="white" stroke="#666666" points="477.38,-241.5 368.38,-241.5 368.38,-208 477.38,-208 477.38,-241.5"/>
<text text-anchor="start" x="376.38" y="-228" font-family="Helvetica,sans-Serif" font-size="10.00">steppable::Fraction</text>
<text text-anchor="middle" x="422.88" y="-215.25" font-family="Helvetica,sans-Serif" font-size="10.00">::Fraction</text>
</a>
</g>
</g>
<!-- Node18&#45;&gt;Node19 -->
<g id="edge24_Node000018_Node000019" class="edge">
<title>Node18&#45;&gt;Node19</title>
<g id="a_edge24_Node000018_Node000019"><a xlink:title=" ">
<path fill="none" stroke="#63b8ff" d="M599.03,-331.03C582.8,-318.94 563.24,-303.67 546.75,-288.75 529.5,-273.14 530.56,-262.94 510.75,-250.75 500.69,-244.56 489.07,-239.77 477.67,-236.08"/>
<polygon fill="#63b8ff" stroke="#63b8ff" points="596.81,-333.74 606.93,-336.86 600.96,-328.11 596.81,-333.74"/>
</a>
</g>
</g>
<!-- Node20 -->
<g id="Node000020" class="node">
<title>Node20</title>
<g id="a_Node000020"><a xlink:href="classsteppable_1_1Fraction.html#a1fa38ab4cede78e19fa478242f6e5b46" target="_top" xlink:title="Initializes a fraction with a specified top component and bottom component.">
<polygon fill="white" stroke="#666666" points="477.38,-189.5 368.38,-189.5 368.38,-156 477.38,-156 477.38,-189.5"/>
<text text-anchor="start" x="376.38" y="-176" font-family="Helvetica,sans-Serif" font-size="10.00">steppable::Fraction</text>
<text text-anchor="middle" x="422.88" y="-163.25" font-family="Helvetica,sans-Serif" font-size="10.00">::Fraction</text>
</a>
</g>
</g>
<!-- Node18&#45;&gt;Node20 -->
<g id="edge25_Node000018_Node000020" class="edge">
<title>Node18&#45;&gt;Node20</title>
<g id="a_edge25_Node000018_Node000020"><a xlink:title=" ">
<path fill="none" stroke="#63b8ff" d="M593.48,-331.5C577.32,-320.23 559.39,-305.5 546.75,-288.75 520.79,-254.37 542.55,-227.82 510.75,-198.75 501.57,-190.36 489.78,-184.67 477.87,-180.82"/>
<polygon fill="#63b8ff" stroke="#63b8ff" points="591.23,-334.2 601.49,-336.88 595.14,-328.39 591.23,-334.2"/>
</a>
</g>
</g>
<!-- Node21 -->
<g id="Node000021" class="node">
<title>Node21</title>
<g id="a_Node000021"><a xlink:href="classsteppable_1_1Fraction.html#a21eef8107e9cd1e590f7595c4ecbe147" target="_top" xlink:title="Multiplies two fractions together and stores the result in the current one. This function does it by ...">
<polygon fill="white" stroke="#666666" points="477.38,-137.5 368.38,-137.5 368.38,-104 477.38,-104 477.38,-137.5"/>
<text text-anchor="start" x="376.38" y="-124" font-family="Helvetica,sans-Serif" font-size="10.00">steppable::Fraction</text>
<text text-anchor="middle" x="422.88" y="-111.25" font-family="Helvetica,sans-Serif" font-size="10.00">::operator*=</text>
</a>
</g>
</g>
<!-- Node18&#45;&gt;Node21 -->
<g id="edge26_Node000018_Node000021" class="edge">
<title>Node18&#45;&gt;Node21</title>
<g id="a_edge26_Node000018_Node000021"><a xlink:title=" ">
<path fill="none" stroke="#63b8ff" d="M591.3,-331.5C575.25,-320.46 558,-305.91 546.75,-288.75 511.04,-234.31 555.8,-193.76 510.75,-146.75 501.93,-137.54 489.99,-131.56 477.79,-127.68"/>
<polygon fill="#63b8ff" stroke="#63b8ff" points="589.02,-334.19 599.3,-336.76 592.87,-328.34 589.02,-334.19"/>
</a>
</g>
</g>
<!-- Node22 -->
<g id="Node000022" class="node">
<title>Node22</title>
<g id="a_Node000022"><a xlink:href="classsteppable_1_1Fraction.html#ab10a5f43f6e60253ab6f4a097c73cf6e" target="_top" xlink:title="Adds two fractions together and stores the result in the current one. This function does it by doing ...">
<polygon fill="white" stroke="#666666" points="477.38,-553.5 368.38,-553.5 368.38,-520 477.38,-520 477.38,-553.5"/>
<text text-anchor="start" x="376.38" y="-540" font-family="Helvetica,sans-Serif" font-size="10.00">steppable::Fraction</text>
<text text-anchor="middle" x="422.88" y="-527.25" font-family="Helvetica,sans-Serif" font-size="10.00">::operator+=</text>
</a>
</g>
</g>
<!-- Node18&#45;&gt;Node22 -->
<g id="edge27_Node000018_Node000022" class="edge">
<title>Node18&#45;&gt;Node22</title>
<g id="a_edge27_Node000018_Node000022"><a xlink:title=" ">
<path fill="none" stroke="#63b8ff" d="M618.21,-381.59C598.79,-416.45 560.28,-476.85 510.75,-510.75 500.88,-517.51 489.21,-522.54 477.68,-526.29"/>
<polygon fill="#63b8ff" stroke="#63b8ff" points="621.19,-383.43 622.9,-372.98 615.04,-380.09 621.19,-383.43"/>
</a>
</g>
</g>
<!-- Node23 -->
<g id="Node000023" class="node">
<title>Node23</title>
<g id="a_Node000023"><a xlink:href="classsteppable_1_1Fraction.html#aad3d96fbba7e7a0fa36c3f69f0463b8b" target="_top" xlink:title="Subtracts a fraction from another fraction and stores the result in the current one....">
<polygon fill="white" stroke="#666666" points="477.38,-501.5 368.38,-501.5 368.38,-468 477.38,-468 477.38,-501.5"/>
<text text-anchor="start" x="376.38" y="-488" font-family="Helvetica,sans-Serif" font-size="10.00">steppable::Fraction</text>
<text text-anchor="middle" x="422.88" y="-475.25" font-family="Helvetica,sans-Serif" font-size="10.00">::operator&#45;=</text>
</a>
</g>
</g>
<!-- Node18&#45;&gt;Node23 -->
<g id="edge28_Node000018_Node000023" class="edge">
<title>Node18&#45;&gt;Node23</title>
<g id="a_edge28_Node000018_Node000023"><a xlink:title=" ">
<path fill="none" stroke="#63b8ff" d="M609.15,-379.73C586.28,-403.21 549.15,-437.79 510.75,-458.75 500.52,-464.33 488.95,-468.86 477.66,-472.47"/>
<polygon fill="#63b8ff" stroke="#63b8ff" points="611.47,-382.36 615.85,-372.72 606.41,-377.52 611.47,-382.36"/>
</a>
</g>
</g>
<!-- Node24 -->
<g id="Node000024" class="node">
<title>Node24</title>
<g id="a_Node000024"><a xlink:href="classsteppable_1_1Fraction.html#a86913160c5f596b74be3007bd16bda6b" target="_top" xlink:title="Divides a fraction by abother fraction and stores the result in the current one. This function does i...">
<polygon fill="white" stroke="#666666" points="477.38,-449.5 368.38,-449.5 368.38,-416 477.38,-416 477.38,-449.5"/>
<text text-anchor="start" x="376.38" y="-436" font-family="Helvetica,sans-Serif" font-size="10.00">steppable::Fraction</text>
<text text-anchor="middle" x="422.88" y="-423.25" font-family="Helvetica,sans-Serif" font-size="10.00">::operator/=</text>
</a>
</g>
</g>
<!-- Node18&#45;&gt;Node24 -->
<g id="edge29_Node000018_Node000024" class="edge">
<title>Node18&#45;&gt;Node24</title>
<g id="a_edge29_Node000018_Node000024"><a xlink:title=" ">
<path fill="none" stroke="#63b8ff" d="M584.62,-376.59C562.42,-386.41 535.48,-397.79 510.75,-406.75 500.09,-410.61 488.56,-414.36 477.48,-417.75"/>
<polygon fill="#63b8ff" stroke="#63b8ff" points="586.02,-379.8 593.73,-372.53 583.17,-373.41 586.02,-379.8"/>
</a>
</g>
</g>
<!-- Node25 -->
<g id="Node000025" class="node">
<title>Node25</title>
<g id="a_Node000025"><a xlink:href="classsteppable_1_1Fraction.html#ac0a3d392ac70f42f74392fe08c1ab8be" target="_top" xlink:title="Raises the fraction to a power and stores the result in the current one.">
<polygon fill="white" stroke="#666666" points="477.38,-397.5 368.38,-397.5 368.38,-364 477.38,-364 477.38,-397.5"/>
<text text-anchor="start" x="376.38" y="-384" font-family="Helvetica,sans-Serif" font-size="10.00">steppable::Fraction</text>
<text text-anchor="middle" x="422.88" y="-371.25" font-family="Helvetica,sans-Serif" font-size="10.00">::operator^=</text>
</a>
</g>
</g>
<!-- Node18&#45;&gt;Node25 -->
<g id="edge30_Node000018_Node000025" class="edge">
<title>Node18&#45;&gt;Node25</title>
<g id="a_edge30_Node000018_Node000025"><a xlink:title=" ">
<path fill="none" stroke="#63b8ff" d="M567.04,-362.88C538.27,-366.47 504.86,-370.64 477.55,-374.05"/>
<polygon fill="#63b8ff" stroke="#63b8ff" points="567.23,-366.38 576.72,-361.67 566.37,-359.43 567.23,-366.38"/>
</a>
</g>
</g>
<!-- Node26 -->
<g id="Node000026" class="node">
<title>Node26</title>
<g id="a_Node000026"><a xlink:href="classsteppable_1_1Fraction.html#a939fea669a7f630672f7215e77f335b6" target="_top" xlink:title="Returns the fraction as a string. The string is formatted as &quot;top/bottom&quot;, and it will automatically ...">
<polygon fill="white" stroke="#666666" points="477.38,-345.5 368.38,-345.5 368.38,-312 477.38,-312 477.38,-345.5"/>
<text text-anchor="start" x="376.38" y="-332" font-family="Helvetica,sans-Serif" font-size="10.00">steppable::Fraction</text>
<text text-anchor="middle" x="422.88" y="-319.25" font-family="Helvetica,sans-Serif" font-size="10.00">::present</text>
</a>
</g>
</g>
<!-- Node18&#45;&gt;Node26 -->
<g id="edge31_Node000018_Node000026" class="edge">
<title>Node18&#45;&gt;Node26</title>
<g id="a_edge31_Node000018_Node000026"><a xlink:title=" ">
<path fill="none" stroke="#63b8ff" d="M567.04,-346.62C538.27,-343.03 504.86,-338.86 477.55,-335.45"/>
<polygon fill="#63b8ff" stroke="#63b8ff" points="566.37,-350.07 576.72,-347.83 567.23,-343.12 566.37,-350.07"/>
</a>
</g>
</g>
<!-- Node27 -->
<g id="Node000027" class="node">
<title>Node27</title>
<g id="a_Node000027"><a xlink:href="classsteppable_1_1Fraction.html#a2d20a7ae3e6a1fd18b06c86db601e6e4" target="_top" xlink:title="Converts a fraction to its reciprocal. This function converts the fraction to its reciprocal.">
<polygon fill="white" stroke="#666666" points="477.38,-293.5 368.38,-293.5 368.38,-260 477.38,-260 477.38,-293.5"/>
<text text-anchor="start" x="376.38" y="-280" font-family="Helvetica,sans-Serif" font-size="10.00">steppable::Fraction</text>
<text text-anchor="middle" x="422.88" y="-267.25" font-family="Helvetica,sans-Serif" font-size="10.00">::reciprocal</text>
</a>
</g>
</g>
<!-- Node18&#45;&gt;Node27 -->
<g id="edge32_Node000018_Node000027" class="edge">
<title>Node18&#45;&gt;Node27</title>
<g id="a_edge32_Node000018_Node000027"><a xlink:title=" ">
<path fill="none" stroke="#63b8ff" d="M584.62,-332.91C562.42,-323.09 535.48,-311.71 510.75,-302.75 500.09,-298.89 488.56,-295.14 477.48,-291.75"/>
<polygon fill="#63b8ff" stroke="#63b8ff" points="583.17,-336.09 593.73,-336.97 586.02,-329.7 583.17,-336.09"/>
</a>
</g>
</g>
</g>
</svg>

<g id="navigator" transform="translate(0 0)" fill="#404254">
  <rect fill="#f2f5e9" fill-opacity="0.5" stroke="#606060" stroke-width=".5" x="0" y="0" width="60" height="60"/>
  <use id="zoomplus" xlink:href="#zoomPlus" x="17" y="9" onmousedown="handleZoom(evt,'in')"/>
  <use id="zoomminus" xlink:href="#zoomMin" x="42" y="9" onmousedown="handleZoom(evt,'out')"/>
  <use id="reset" xlink:href="#resetDef" x="30" y="36" onmousedown="handleReset()"/>
   <use id="arrowup" xlink:href="#arrowUp" x="0" y="0" onmousedown="handlePan(0,-1)"/>
  <use id="arrowright" xlink:href="#arrowRight" x="0" y="0" onmousedown="handlePan(1,0)"/>
  <use id="arrowdown" xlink:href="#arrowDown" x="0" y="0" onmousedown="handlePan(0,1)"/>
  <use id="arrowleft" xlink:href="#arrowLeft" x="0" y="0" onmousedown="handlePan(-1,0)"/>
</g>
<svg viewBox="0 0 15 15" width="100%" height="30px" preserveAspectRatio="xMaxYMin meet">
 <g id="arrow_out" transform="scale(0.3 0.3)">
  <a xlink:href="namespacesteppable_1_1____internals_1_1arithmetic_a4aa89d1787b7578cd2ed73392bdcd7df_icgraph_org.svg" target="_base">
   <rect id="button" ry="5" rx="5" y="6" x="6" height="38" width="38"
        fill="#f2f5e9" fill-opacity="0.5" stroke="#606060" stroke-width="1.0"/>
   <path id="arrow"
     d="M 11.500037,31.436501 C 11.940474,20.09759 22.043105,11.32322 32.158766,21.979434 L 37.068811,17.246167 C 37.068811,17.246167 37.088388,32 37.088388,32 L 22.160133,31.978069 C 22.160133,31.978069 26.997745,27.140456 26.997745,27.140456 C 18.528582,18.264221 13.291696,25.230495 11.500037,31.436501 z"
     style="fill:#404040;"/>
  </a>
 </g>
</svg>

<style type='text/css'>
<![CDATA[
[data-mouse-over-selected='false'] { opacity: 0.7; }
[data-mouse-over-selected='true']  { opacity: 1.0; }
]]>
</style>
<script type="application/ecmascript"><![CDATA[
document.addEventListener('DOMContentLoaded', (event) => {
  highlightEdges();
  highlightAdjacentNodes();
});
]]></script>
</svg>
