<?xml version="1.0" encoding="UTF-8" standalone="no"?>
<!DOCTYPE svg PUBLIC "-//W3C//DTD SVG 1.1//EN"
 "http://www.w3.org/Graphics/SVG/1.1/DTD/svg11.dtd">
<!-- Generated by graphviz version 12.2.0 (20241103.1931)
 -->
<!-- Title: ImGui::GetStyle Pages: 1 -->
<!--zoomable 318 -->

<svg id="main" version="1.1" xmlns="http://www.w3.org/2000/svg" xmlns:xlink="http://www.w3.org/1999/xlink" xml:space="preserve" onload="init(evt)">

<style type="text/css"><![CDATA[
.node, .edge {opacity: 0.7;}
.node.selected, .edge.selected {opacity: 1;}
.edge:hover path { stroke: red; }
.edge:hover polygon { stroke: red; fill: red; }
]]></style>

<defs>
  <circle id="rim" cx="0" cy="0" r="7"/>
  <circle id="rim2" cx="0" cy="0" r="3.5"/>
  <g id="zoomPlus">
    <use xlink:href="#rim" fill="#404040"><set attributeName="fill" to="#808080" begin="zoomplus.mouseover" end="zoomplus.mouseout"/></use>
    <path d="M-4,0h8M0,-4v8" fill="none" stroke="white" stroke-width="1.5" pointer-events="none"/>
  </g>
  <g id="zoomMin">
    <use xlink:href="#rim" fill="#404040"><set attributeName="fill" to="#808080" begin="zoomminus.mouseover" end="zoomminus.mouseout"/></use>
    <path d="M-4,0h8" fill="none" stroke="white" stroke-width="1.5" pointer-events="none"/>
  </g>
  <g id="arrowUp" transform="translate(30 24)">
    <use xlink:href="#rim"/>
    <path pointer-events="none" fill="none" stroke="white" stroke-width="1.5" d="M0,-3.0v7 M-2.5,-0.5L0,-3.0L2.5,-0.5"/>
  </g>
  <g id="arrowRight" transform="rotate(90) translate(36 -43)">
    <use xlink:href="#rim"/>
    <path pointer-events="none" fill="none" stroke="white" stroke-width="1.5" d="M0,-3.0v7 M-2.5,-0.5L0,-3.0L2.5,-0.5"/>
  </g>
  <g id="arrowDown" transform="rotate(180) translate(-30 -48)">
    <use xlink:href="#rim"/>
    <path pointer-events="none" fill="none" stroke="white" stroke-width="1.5" d="M0,-3.0v7 M-2.5,-0.5L0,-3.0L2.5,-0.5"/>
  </g>
  <g id="arrowLeft" transform="rotate(270) translate(-36 17)">
    <use xlink:href="#rim"/>
    <path pointer-events="none" fill="none" stroke="white" stroke-width="1.5" d="M0,-3.0v7 M-2.5,-0.5L0,-3.0L2.5,-0.5"/>
  </g>
  <g id="resetDef">
    <use xlink:href="#rim2" fill="#404040"><set attributeName="fill" to="#808080" begin="reset.mouseover" end="reset.mouseout"/></use>
  </g>
</defs>
<script type="application/ecmascript">
var viewWidth = 834;
var viewHeight = 318;
var sectionId = 'dynsection-591';
</script>
<script type="application/ecmascript" xlink:href="svg.min.js"/>
<svg id="graph" class="graph">
<g id="viewport">
<title>ImGui::GetStyle</title>
<!-- Node1 -->
<g id="Node000001" class="node">
<title>Node1</title>
<g id="a_Node000001"><a xlink:title=" ">
<polygon fill="#999999" stroke="#666666" points="825.5,-164.25 732.25,-164.25 732.25,-143.5 825.5,-143.5 825.5,-164.25"/>
<text text-anchor="middle" x="778.88" y="-150.75" font-family="Helvetica,sans-Serif" font-size="10.00">ImGui::GetStyle</text>
</a>
</g>
</g>
<!-- Node2 -->
<g id="Node000002" class="node">
<title>Node2</title>
<g id="a_Node000002"><a xlink:href="namespaceImGui.html#ae0207d60728f7e6a47dbcd1d7d84e3cb" target="_top" xlink:title=" ">
<polygon fill="white" stroke="#666666" points="686.88,-310.25 557.62,-310.25 557.62,-289.5 686.88,-289.5 686.88,-310.25"/>
<text text-anchor="middle" x="622.25" y="-296.75" font-family="Helvetica,sans-Serif" font-size="10.00">ImGui::DebugNodeFont</text>
</a>
</g>
</g>
<!-- Node1&#45;&gt;Node2 -->
<g id="edge1_Node000001_Node000002" class="edge">
<title>Node1&#45;&gt;Node2</title>
<g id="a_edge1_Node000001_Node000002"><a xlink:title=" ">
<path fill="none" stroke="#63b8ff" d="M769.76,-175.22C757.93,-203.46 733.24,-252.81 696.25,-279.87 691.16,-283.6 685.41,-286.63 679.43,-289.1"/>
<polygon fill="#63b8ff" stroke="#63b8ff" points="773.01,-176.53 773.48,-165.94 766.51,-173.92 773.01,-176.53"/>
</a>
</g>
</g>
<!-- Node6 -->
<g id="Node000006" class="node">
<title>Node6</title>
<g id="a_Node000006"><a xlink:href="namespaceImGui.html#ab2eb3dec78d054fe3feab1c091ec5de5" target="_top" xlink:title=" ">
<polygon fill="white" stroke="#666666" points="323.38,-142.25 192.62,-142.25 192.62,-121.5 323.38,-121.5 323.38,-142.25"/>
<text text-anchor="middle" x="258" y="-128.75" font-family="Helvetica,sans-Serif" font-size="10.00">ImGui::ShowStyleEditor</text>
</a>
</g>
</g>
<!-- Node1&#45;&gt;Node6 -->
<g id="edge11_Node000001_Node000006" class="edge">
<title>Node1&#45;&gt;Node6</title>
<g id="a_edge11_Node000001_Node000006"><a xlink:title=" ">
<path fill="none" stroke="#63b8ff" d="M764.7,-133.97C750.47,-114.46 725.82,-85.95 696.25,-73.87 562.11,-19.1 510.98,-39.39 370.25,-73.87 333.02,-83 294.4,-106.99 273.89,-121.1"/>
<polygon fill="#63b8ff" stroke="#63b8ff" points="761.7,-135.79 770.3,-141.98 767.44,-131.77 761.7,-135.79"/>
</a>
</g>
</g>
<!-- Node7 -->
<g id="Node000007" class="node">
<title>Node7</title>
<g id="a_Node000007"><a xlink:href="structExampleAppConsole.html#a0518a09c7e8648dd52c7c06df19ac17a" target="_top" xlink:title=" ">
<polygon fill="white" stroke="#666666" points="696.25,-232.25 548.25,-232.25 548.25,-211.5 696.25,-211.5 696.25,-232.25"/>
<text text-anchor="middle" x="622.25" y="-218.75" font-family="Helvetica,sans-Serif" font-size="10.00">ExampleAppConsole::Draw</text>
</a>
</g>
</g>
<!-- Node1&#45;&gt;Node7 -->
<g id="edge7_Node000001_Node000007" class="edge">
<title>Node1&#45;&gt;Node7</title>
<g id="a_edge7_Node000001_Node000007"><a xlink:title=" ">
<path fill="none" stroke="#63b8ff" d="M753.45,-171.07C737.72,-181.49 716.5,-194.37 696.25,-202.87 688.76,-206.02 680.62,-208.75 672.58,-211.09"/>
<polygon fill="#63b8ff" stroke="#63b8ff" points="755.36,-174 761.67,-165.5 751.43,-168.21 755.36,-174"/>
</a>
</g>
</g>
<!-- Node8 -->
<g id="Node000008" class="node">
<title>Node8</title>
<g id="a_Node000008"><a xlink:href="structExampleAssetsBrowser.html#a2b36e1f9b7d764e547611baa4c7fd8d1" target="_top" xlink:title=" ">
<polygon fill="white" stroke="#666666" points="687.62,-193.62 556.88,-193.62 556.88,-160.12 687.62,-160.12 687.62,-193.62"/>
<text text-anchor="start" x="564.88" y="-180.12" font-family="Helvetica,sans-Serif" font-size="10.00">ExampleAssetsBrowser</text>
<text text-anchor="middle" x="622.25" y="-167.37" font-family="Helvetica,sans-Serif" font-size="10.00">::Draw</text>
</a>
</g>
</g>
<!-- Node1&#45;&gt;Node8 -->
<g id="edge8_Node000001_Node000008" class="edge">
<title>Node1&#45;&gt;Node8</title>
<g id="a_edge8_Node000001_Node000008"><a xlink:title=" ">
<path fill="none" stroke="#63b8ff" d="M720.61,-162.39C709.97,-163.98 698.78,-165.64 687.93,-167.25"/>
<polygon fill="#63b8ff" stroke="#63b8ff" points="721.03,-165.87 730.4,-160.94 720,-158.95 721.03,-165.87"/>
</a>
</g>
</g>
<!-- Node9 -->
<g id="Node000009" class="node">
<title>Node9</title>
<g id="a_Node000009"><a xlink:href="namespaceImGui.html#ac297462e33309d0540fa459bccdc9304" target="_top" xlink:title=" ">
<polygon fill="white" stroke="#666666" points="330.5,-65.25 185.5,-65.25 185.5,-44.5 330.5,-44.5 330.5,-65.25"/>
<text text-anchor="middle" x="258" y="-51.75" font-family="Helvetica,sans-Serif" font-size="10.00">ImGui::ShowAboutWindow</text>
</a>
</g>
</g>
<!-- Node1&#45;&gt;Node9 -->
<g id="edge9_Node000001_Node000009" class="edge">
<title>Node1&#45;&gt;Node9</title>
<g id="a_edge9_Node000001_Node000009"><a xlink:title=" ">
<path fill="none" stroke="#63b8ff" d="M770.3,-132.41C759.07,-104.3 735.05,-56.21 696.25,-35.87 558.79,36.18 362.34,-18.84 288.53,-44.03"/>
<polygon fill="#63b8ff" stroke="#63b8ff" points="766.99,-133.56 773.8,-141.68 773.54,-131.09 766.99,-133.56"/>
</a>
</g>
</g>
<!-- Node10 -->
<g id="Node000010" class="node">
<title>Node10</title>
<g id="a_Node000010"><a xlink:href="namespaceImGui.html#a1cf931a42a10f71150def3ce222434b6" target="_top" xlink:title=" ">
<polygon fill="white" stroke="#666666" points="692.88,-271.25 551.62,-271.25 551.62,-250.5 692.88,-250.5 692.88,-271.25"/>
<text text-anchor="middle" x="622.25" y="-257.75" font-family="Helvetica,sans-Serif" font-size="10.00">ImGui::StyleColorsClassic</text>
</a>
</g>
</g>
<!-- Node1&#45;&gt;Node10 -->
<g id="edge12_Node000001_Node000010" class="edge">
<title>Node1&#45;&gt;Node10</title>
<g id="a_edge12_Node000001_Node000010"><a xlink:title=" ">
<path fill="none" stroke="#63b8ff" d="M764.28,-173.84C749.71,-193.71 724.8,-223.67 696.25,-240.87 690.17,-244.54 683.41,-247.54 676.52,-250.01"/>
<polygon fill="#63b8ff" stroke="#63b8ff" points="767.11,-175.9 770.04,-165.72 761.4,-171.85 767.11,-175.9"/>
</a>
</g>
</g>
<!-- Node12 -->
<g id="Node000012" class="node">
<title>Node12</title>
<g id="a_Node000012"><a xlink:href="namespaceImGui.html#a26c67fc14081b359566d5e135cd8c767" target="_top" xlink:title=" ">
<polygon fill="white" stroke="#666666" points="687.25,-103.25 557.25,-103.25 557.25,-82.5 687.25,-82.5 687.25,-103.25"/>
<text text-anchor="middle" x="622.25" y="-89.75" font-family="Helvetica,sans-Serif" font-size="10.00">ImGui::StyleColorsDark</text>
</a>
</g>
</g>
<!-- Node1&#45;&gt;Node12 -->
<g id="edge15_Node000001_Node000012" class="edge">
<title>Node1&#45;&gt;Node12</title>
<g id="a_edge15_Node000001_Node000012"><a xlink:title=" ">
<path fill="none" stroke="#63b8ff" d="M749.3,-137.77C733.92,-129.55 714.41,-119.85 696.25,-112.87 687.29,-109.44 677.51,-106.33 668.1,-103.65"/>
<polygon fill="#63b8ff" stroke="#63b8ff" points="747.44,-140.74 757.9,-142.45 750.79,-134.59 747.44,-140.74"/>
</a>
</g>
</g>
<!-- Node14 -->
<g id="Node000014" class="node">
<title>Node14</title>
<g id="a_Node000014"><a xlink:href="namespaceImGui.html#ae1fc558bfbc557b228d63f7facfc86e1" target="_top" xlink:title=" ">
<polygon fill="white" stroke="#666666" points="687.62,-142.25 556.88,-142.25 556.88,-121.5 687.62,-121.5 687.62,-142.25"/>
<text text-anchor="middle" x="622.25" y="-128.75" font-family="Helvetica,sans-Serif" font-size="10.00">ImGui::StyleColorsLight</text>
</a>
</g>
</g>
<!-- Node1&#45;&gt;Node14 -->
<g id="edge18_Node000001_Node000014" class="edge">
<title>Node1&#45;&gt;Node14</title>
<g id="a_edge18_Node000001_Node000014"><a xlink:title=" ">
<path fill="none" stroke="#63b8ff" d="M720.61,-145.73C709.97,-144.21 698.78,-142.62 687.93,-141.08"/>
<polygon fill="#63b8ff" stroke="#63b8ff" points="720.01,-149.18 730.4,-147.12 721,-142.25 720.01,-149.18"/>
</a>
</g>
</g>
<!-- Node3 -->
<g id="Node000003" class="node">
<title>Node3</title>
<g id="a_Node000003"><a xlink:href="namespaceImGui.html#acab51ec2b39577845309f24535381038" target="_top" xlink:title=" ">
<polygon fill="white" stroke="#666666" points="502.88,-181.25 379.62,-181.25 379.62,-160.5 502.88,-160.5 502.88,-181.25"/>
<text text-anchor="middle" x="441.25" y="-167.75" font-family="Helvetica,sans-Serif" font-size="10.00">ImGui::ShowFontAtlas</text>
</a>
</g>
</g>
<!-- Node2&#45;&gt;Node3 -->
<g id="edge2_Node000002_Node000003" class="edge">
<title>Node2&#45;&gt;Node3</title>
<g id="a_edge2_Node000002_Node000003"><a xlink:title=" ">
<path fill="none" stroke="#63b8ff" d="M558.03,-284.91C554.65,-283.39 551.36,-281.71 548.25,-279.87 503.7,-253.57 465.23,-203.65 449.65,-181.7"/>
<polygon fill="#63b8ff" stroke="#63b8ff" points="556.43,-288.04 567.01,-288.48 559.02,-281.53 556.43,-288.04"/>
</a>
</g>
</g>
<!-- Node4 -->
<g id="Node000004" class="node">
<title>Node4</title>
<g id="a_Node000004"><a xlink:href="namespaceImGui.html#afe7a28c6eb52fff3cc27d5a698fea4ff" target="_top" xlink:title=" ">
<polygon fill="white" stroke="#666666" points="334.25,-181.25 181.75,-181.25 181.75,-160.5 334.25,-160.5 334.25,-181.25"/>
<text text-anchor="middle" x="258" y="-167.75" font-family="Helvetica,sans-Serif" font-size="10.00">ImGui::ShowMetricsWindow</text>
</a>
</g>
</g>
<!-- Node3&#45;&gt;Node4 -->
<g id="edge3_Node000003_Node000004" class="edge">
<title>Node3&#45;&gt;Node4</title>
<g id="a_edge3_Node000003_Node000004"><a xlink:title=" ">
<path fill="none" stroke="#63b8ff" d="M367.9,-170.87C356.96,-170.87 345.65,-170.87 334.64,-170.87"/>
<polygon fill="#63b8ff" stroke="#63b8ff" points="367.63,-174.37 377.63,-170.87 367.63,-167.37 367.63,-174.37"/>
</a>
</g>
</g>
<!-- Node3&#45;&gt;Node6 -->
<g id="edge5_Node000003_Node000006" class="edge">
<title>Node3&#45;&gt;Node6</title>
<g id="a_edge5_Node000003_Node000006"><a xlink:title=" ">
<path fill="none" stroke="#63b8ff" d="M378.62,-157.61C356.12,-152.77 330.95,-147.36 309.53,-142.75"/>
<polygon fill="#63b8ff" stroke="#63b8ff" points="377.77,-161.01 388.28,-159.69 379.24,-154.17 377.77,-161.01"/>
</a>
</g>
</g>
<!-- Node5 -->
<g id="Node000005" class="node">
<title>Node5</title>
<g id="a_Node000005"><a xlink:href="namespaceImGui.html#af95643a0ce4893b9e57c12991922fb18" target="_top" xlink:title=" ">
<polygon fill="white" stroke="#666666" points="145.75,-142.25 0,-142.25 0,-121.5 145.75,-121.5 145.75,-142.25"/>
<text text-anchor="middle" x="72.88" y="-128.75" font-family="Helvetica,sans-Serif" font-size="10.00">ImGui::ShowDemoWindow</text>
</a>
</g>
</g>
<!-- Node4&#45;&gt;Node5 -->
<g id="edge4_Node000004_Node000005" class="edge">
<title>Node4&#45;&gt;Node5</title>
<g id="a_edge4_Node000004_Node000005"><a xlink:title=" ">
<path fill="none" stroke="#63b8ff" d="M194.73,-157.61C172,-152.77 146.57,-147.36 124.93,-142.75"/>
<polygon fill="#63b8ff" stroke="#63b8ff" points="194,-161.04 204.51,-159.7 195.46,-154.19 194,-161.04"/>
</a>
</g>
</g>
<!-- Node6&#45;&gt;Node5 -->
<g id="edge6_Node000006_Node000005" class="edge">
<title>Node6&#45;&gt;Node5</title>
<g id="a_edge6_Node000006_Node000005"><a xlink:title=" ">
<path fill="none" stroke="#63b8ff" d="M180.82,-131.87C169.33,-131.87 157.5,-131.87 146.09,-131.87"/>
<polygon fill="#63b8ff" stroke="#63b8ff" points="180.67,-135.37 190.67,-131.87 180.67,-128.37 180.67,-135.37"/>
</a>
</g>
</g>
<!-- Node9&#45;&gt;Node5 -->
<g id="edge10_Node000009_Node000005" class="edge">
<title>Node9&#45;&gt;Node5</title>
<g id="a_edge10_Node000009_Node000005"><a xlink:title=" ">
<path fill="none" stroke="#63b8ff" d="M220.67,-70.15C184.9,-85.19 131.16,-107.79 99.59,-121.06"/>
<polygon fill="#63b8ff" stroke="#63b8ff" points="221.89,-73.43 229.76,-66.33 219.18,-66.98 221.89,-73.43"/>
</a>
</g>
</g>
<!-- Node11 -->
<g id="Node000011" class="node">
<title>Node11</title>
<g id="a_Node000011"><a xlink:href="namespaceImGui.html#a83f4e863c102b0a05e0e3308b371b394" target="_top" xlink:title=" ">
<polygon fill="white" stroke="#666666" points="512.25,-142.25 370.25,-142.25 370.25,-121.5 512.25,-121.5 512.25,-142.25"/>
<text text-anchor="middle" x="441.25" y="-128.75" font-family="Helvetica,sans-Serif" font-size="10.00">ImGui::ShowStyleSelector</text>
</a>
</g>
</g>
<!-- Node10&#45;&gt;Node11 -->
<g id="edge13_Node000010_Node000011" class="edge">
<title>Node10&#45;&gt;Node11</title>
<g id="a_edge13_Node000010_Node000011"><a xlink:title=" ">
<path fill="none" stroke="#63b8ff" d="M552.29,-244.12C550.89,-243.1 549.54,-242.02 548.25,-240.87 516.37,-212.52 543.98,-180.4 512.25,-151.87 508.11,-148.16 503.33,-145.13 498.25,-142.66"/>
<polygon fill="#63b8ff" stroke="#63b8ff" points="550.46,-247.11 560.85,-249.23 554.05,-241.1 550.46,-247.11"/>
</a>
</g>
</g>
<!-- Node11&#45;&gt;Node6 -->
<g id="edge14_Node000011_Node000006" class="edge">
<title>Node11&#45;&gt;Node6</title>
<g id="a_edge14_Node000011_Node000006"><a xlink:title=" ">
<path fill="none" stroke="#63b8ff" d="M358.74,-131.87C346.99,-131.87 335.03,-131.87 323.67,-131.87"/>
<polygon fill="#63b8ff" stroke="#63b8ff" points="358.4,-135.37 368.4,-131.87 358.4,-128.37 358.4,-135.37"/>
</a>
</g>
</g>
<!-- Node12&#45;&gt;Node11 -->
<g id="edge17_Node000012_Node000011" class="edge">
<title>Node12&#45;&gt;Node11</title>
<g id="a_edge17_Node000012_Node000011"><a xlink:title=" ">
<path fill="none" stroke="#63b8ff" d="M560.38,-106.14C538.16,-110.98 513.31,-116.39 492.15,-121"/>
<polygon fill="#63b8ff" stroke="#63b8ff" points="560.88,-109.61 569.91,-104.06 559.39,-102.77 560.88,-109.61"/>
</a>
</g>
</g>
<!-- Node13 -->
<g id="Node000013" class="node">
<title>Node13</title>
<g id="a_Node000013"><a xlink:href="structImGuiStyle.html#ab0a3ffb3aeec3e6b09b9bde812b28369" target="_top" xlink:title=" ">
<polygon fill="white" stroke="#666666" points="506.25,-103.25 376.25,-103.25 376.25,-82.5 506.25,-82.5 506.25,-103.25"/>
<text text-anchor="middle" x="441.25" y="-89.75" font-family="Helvetica,sans-Serif" font-size="10.00">ImGuiStyle::ImGuiStyle</text>
</a>
</g>
</g>
<!-- Node12&#45;&gt;Node13 -->
<g id="edge16_Node000012_Node000013" class="edge">
<title>Node12&#45;&gt;Node13</title>
<g id="a_edge16_Node000012_Node000013"><a xlink:title=" ">
<path fill="none" stroke="#63b8ff" d="M545.62,-92.87C532.65,-92.87 519.29,-92.87 506.65,-92.87"/>
<polygon fill="#63b8ff" stroke="#63b8ff" points="545.37,-96.37 555.37,-92.87 545.37,-89.37 545.37,-96.37"/>
</a>
</g>
</g>
<!-- Node14&#45;&gt;Node11 -->
<g id="edge19_Node000014_Node000011" class="edge">
<title>Node14&#45;&gt;Node11</title>
<g id="a_edge19_Node000014_Node000011"><a xlink:title=" ">
<path fill="none" stroke="#63b8ff" d="M545.4,-131.87C534.49,-131.87 523.32,-131.87 512.53,-131.87"/>
<polygon fill="#63b8ff" stroke="#63b8ff" points="545.11,-135.37 555.11,-131.87 545.11,-128.37 545.11,-135.37"/>
</a>
</g>
</g>
</g>
</svg>

<g id="navigator" transform="translate(0 0)" fill="#404254">
  <rect fill="#f2f5e9" fill-opacity="0.5" stroke="#606060" stroke-width=".5" x="0" y="0" width="60" height="60"/>
  <use id="zoomplus" xlink:href="#zoomPlus" x="17" y="9" onmousedown="handleZoom(evt,'in')"/>
  <use id="zoomminus" xlink:href="#zoomMin" x="42" y="9" onmousedown="handleZoom(evt,'out')"/>
  <use id="reset" xlink:href="#resetDef" x="30" y="36" onmousedown="handleReset()"/>
   <use id="arrowup" xlink:href="#arrowUp" x="0" y="0" onmousedown="handlePan(0,-1)"/>
  <use id="arrowright" xlink:href="#arrowRight" x="0" y="0" onmousedown="handlePan(1,0)"/>
  <use id="arrowdown" xlink:href="#arrowDown" x="0" y="0" onmousedown="handlePan(0,1)"/>
  <use id="arrowleft" xlink:href="#arrowLeft" x="0" y="0" onmousedown="handlePan(-1,0)"/>
</g>
<svg viewBox="0 0 15 15" width="100%" height="30px" preserveAspectRatio="xMaxYMin meet">
 <g id="arrow_out" transform="scale(0.3 0.3)">
  <a xlink:href="namespaceImGui_abafef4bb3e3654efd96a47b2e22870a7_icgraph_org.svg" target="_base">
   <rect id="button" ry="5" rx="5" y="6" x="6" height="38" width="38"
        fill="#f2f5e9" fill-opacity="0.5" stroke="#606060" stroke-width="1.0"/>
   <path id="arrow"
     d="M 11.500037,31.436501 C 11.940474,20.09759 22.043105,11.32322 32.158766,21.979434 L 37.068811,17.246167 C 37.068811,17.246167 37.088388,32 37.088388,32 L 22.160133,31.978069 C 22.160133,31.978069 26.997745,27.140456 26.997745,27.140456 C 18.528582,18.264221 13.291696,25.230495 11.500037,31.436501 z"
     style="fill:#404040;"/>
  </a>
 </g>
</svg>

<style type='text/css'>
<![CDATA[
[data-mouse-over-selected='false'] { opacity: 0.7; }
[data-mouse-over-selected='true']  { opacity: 1.0; }
]]>
</style>
<script type="application/ecmascript"><![CDATA[
document.addEventListener('DOMContentLoaded', (event) => {
  highlightEdges();
  highlightAdjacentNodes();
});
]]></script>
</svg>
