<?xml version="1.0" encoding="UTF-8" standalone="no"?>
<!DOCTYPE svg PUBLIC "-//W3C//DTD SVG 1.1//EN"
 "http://www.w3.org/Graphics/SVG/1.1/DTD/svg11.dtd">
<!-- Generated by graphviz version 13.0.1 (20250615.1724)
 -->
<!-- Title: steppable::localization::$ Pages: 1 -->
<!--zoomable 407 -->

<svg id="main" version="1.1" xmlns="http://www.w3.org/2000/svg" xmlns:xlink="http://www.w3.org/1999/xlink" xml:space="preserve" onload="init(evt)">

<style type="text/css"><![CDATA[
.node, .edge {opacity: 0.7;}
.node.selected, .edge.selected {opacity: 1;}
.edge:hover path { stroke: red; }
.edge:hover polygon { stroke: red; fill: red; }
]]></style>

<defs>
  <circle id="rim" cx="0" cy="0" r="7"/>
  <circle id="rim2" cx="0" cy="0" r="3.5"/>
  <g id="zoomPlus">
    <use xlink:href="#rim" fill="#404040"><set attributeName="fill" to="#808080" begin="zoomplus.mouseover" end="zoomplus.mouseout"/></use>
    <path d="M-4,0h8M0,-4v8" fill="none" stroke="white" stroke-width="1.5" pointer-events="none"/>
  </g>
  <g id="zoomMin">
    <use xlink:href="#rim" fill="#404040"><set attributeName="fill" to="#808080" begin="zoomminus.mouseover" end="zoomminus.mouseout"/></use>
    <path d="M-4,0h8" fill="none" stroke="white" stroke-width="1.5" pointer-events="none"/>
  </g>
  <g id="arrowUp" transform="translate(30 24)">
    <use xlink:href="#rim"/>
    <path pointer-events="none" fill="none" stroke="white" stroke-width="1.5" d="M0,-3.0v7 M-2.5,-0.5L0,-3.0L2.5,-0.5"/>
  </g>
  <g id="arrowRight" transform="rotate(90) translate(36 -43)">
    <use xlink:href="#rim"/>
    <path pointer-events="none" fill="none" stroke="white" stroke-width="1.5" d="M0,-3.0v7 M-2.5,-0.5L0,-3.0L2.5,-0.5"/>
  </g>
  <g id="arrowDown" transform="rotate(180) translate(-30 -48)">
    <use xlink:href="#rim"/>
    <path pointer-events="none" fill="none" stroke="white" stroke-width="1.5" d="M0,-3.0v7 M-2.5,-0.5L0,-3.0L2.5,-0.5"/>
  </g>
  <g id="arrowLeft" transform="rotate(270) translate(-36 17)">
    <use xlink:href="#rim"/>
    <path pointer-events="none" fill="none" stroke="white" stroke-width="1.5" d="M0,-3.0v7 M-2.5,-0.5L0,-3.0L2.5,-0.5"/>
  </g>
  <g id="resetDef">
    <use xlink:href="#rim2" fill="#404040"><set attributeName="fill" to="#808080" begin="reset.mouseover" end="reset.mouseout"/></use>
  </g>
</defs>
<script type="application/ecmascript">
var viewWidth = 1929;
var viewHeight = 407;
var sectionId = 'dynsection-0';
</script>
<script type="application/ecmascript" xlink:href="svg.min.js"/>
<svg id="graph" class="graph">
<g id="viewport">
<title>steppable::localization::$</title>
<!-- Node1 -->
<g id="Node000001" class="node">
<title>Node1</title>
<g id="a_Node000001"><a xlink:title="Gets a string from origin, and by the key. Formats it with the format strings.">
<polygon fill="#999999" stroke="#666666" points="138.25,-243.12 0,-243.12 0,-222.38 138.25,-222.38 138.25,-243.12"/>
<text xml:space="preserve" text-anchor="middle" x="69.12" y="-229.62" font-family="Helvetica,sans-Serif" font-size="10.00">steppable::localization::$</text>
</a>
</g>
</g>
<!-- Node2 -->
<g id="Node000002" class="node">
<title>Node2</title>
<g id="a_Node000002"><a xlink:href="namespacesteppable_1_1localization.html#ae3e0bed8db649955a0360fa32175a0bc" target="_top" xlink:title="Gets a string from origin, and by the key.">
<polygon fill="white" stroke="#666666" points="312.5,-275.12 174.25,-275.12 174.25,-254.38 312.5,-254.38 312.5,-275.12"/>
<text xml:space="preserve" text-anchor="middle" x="243.38" y="-261.62" font-family="Helvetica,sans-Serif" font-size="10.00">steppable::localization::$</text>
</a>
</g>
</g>
<!-- Node1&#45;&gt;Node2 -->
<g id="edge1_Node000001_Node000002" class="edge">
<title>Node1&#45;&gt;Node2</title>
<g id="a_edge1_Node000001_Node000002"><a xlink:title=" ">
<path fill="none" stroke="#63b8ff" d="M128.44,-243.58C142.75,-246.24 158.21,-249.11 172.98,-251.86"/>
<polygon fill="#63b8ff" stroke="#63b8ff" points="172.16,-255.27 182.63,-253.65 173.44,-248.38 172.16,-255.27"/>
</a>
</g>
</g>
<!-- Node20 -->
<g id="Node000020" class="node">
<title>Node20</title>
<g id="a_Node000020"><a xlink:href="namespacesteppable_1_1____internals_1_1format.html#afed9c32da8cf316e7b7bc454edda5b2b" target="_top" xlink:title=" ">
<polygon fill="white" stroke="#666666" points="305,-218.5 181.75,-218.5 181.75,-185 305,-185 305,-218.5"/>
<text xml:space="preserve" text-anchor="start" x="189.75" y="-205" font-family="Helvetica,sans-Serif" font-size="10.00">steppable::__internals</text>
<text xml:space="preserve" text-anchor="middle" x="243.38" y="-192.25" font-family="Helvetica,sans-Serif" font-size="10.00">::format::format</text>
</a>
</g>
</g>
<!-- Node1&#45;&gt;Node20 -->
<g id="edge32_Node000001_Node000020" class="edge">
<title>Node1&#45;&gt;Node20</title>
<g id="a_edge32_Node000001_Node000020"><a xlink:title=" ">
<path fill="none" stroke="#63b8ff" d="M130.37,-221.91C143.25,-219.59 156.99,-217.12 170.27,-214.73"/>
<polygon fill="#63b8ff" stroke="#63b8ff" points="170.58,-218.23 179.8,-213.01 169.34,-211.34 170.58,-218.23"/>
</a>
</g>
</g>
<!-- Node3 -->
<g id="Node000003" class="node">
<title>Node3</title>
<g id="a_Node000003"><a xlink:href="namespacesteppable_1_1output.html#aaeed30985adb9664fb71758754dad2fa" target="_top" xlink:title="Prints an error message.">
<polygon fill="white" stroke="#666666" points="807.12,-398.5 699.62,-398.5 699.62,-365 807.12,-365 807.12,-398.5"/>
<text xml:space="preserve" text-anchor="start" x="707.62" y="-385" font-family="Helvetica,sans-Serif" font-size="10.00">steppable::output::</text>
<text xml:space="preserve" text-anchor="middle" x="753.38" y="-372.25" font-family="Helvetica,sans-Serif" font-size="10.00">error</text>
</a>
</g>
</g>
<!-- Node2&#45;&gt;Node3 -->
<g id="edge2_Node000002_Node000003" class="edge">
<title>Node2&#45;&gt;Node3</title>
<g id="a_edge2_Node000002_Node000003"><a xlink:title=" ">
<path fill="none" stroke="#63b8ff" d="M252.41,-275.36C268.24,-295.33 305.67,-338.08 348.5,-355.75 460.82,-402.09 605.69,-397.69 687.88,-389.95"/>
<polygon fill="#63b8ff" stroke="#63b8ff" points="688.18,-393.44 697.79,-388.97 687.49,-386.47 688.18,-393.44"/>
</a>
</g>
</g>
<!-- Node4 -->
<g id="Node000004" class="node">
<title>Node4</title>
<g id="a_Node000004"><a xlink:href="namespacesteppable_1_1____internals_1_1utils.html#a9f8874d38acee1827b2ad2aef3dc8386" target="_top" xlink:title=" ">
<polygon fill="white" stroke="#666666" points="480.75,-346.5 348.5,-346.5 348.5,-313 480.75,-313 480.75,-346.5"/>
<text xml:space="preserve" text-anchor="start" x="356.5" y="-333" font-family="Helvetica,sans-Serif" font-size="10.00">steppable::__internals</text>
<text xml:space="preserve" text-anchor="middle" x="414.62" y="-320.25" font-family="Helvetica,sans-Serif" font-size="10.00">::utils::getConfDirectory</text>
</a>
</g>
</g>
<!-- Node2&#45;&gt;Node4 -->
<g id="edge3_Node000002_Node000004" class="edge">
<title>Node2&#45;&gt;Node4</title>
<g id="a_edge3_Node000002_Node000004"><a xlink:title=" ">
<path fill="none" stroke="#63b8ff" d="M272.32,-275.48C295.55,-284.4 329.32,-297.37 358.02,-308.4"/>
<polygon fill="#63b8ff" stroke="#63b8ff" points="356.74,-311.65 367.33,-311.97 359.25,-305.12 356.74,-311.65"/>
</a>
</g>
</g>
<!-- Node19 -->
<g id="Node000019" class="node">
<title>Node19</title>
<g id="a_Node000019"><a xlink:href="namespacesteppable_1_1localization.html#abb3cdf12222c59b01352ee909d1d5e97" target="_top" xlink:title=" ">
<polygon fill="white" stroke="#666666" points="649.38,-99.5 523.12,-99.5 523.12,-66 649.38,-66 649.38,-99.5"/>
<text xml:space="preserve" text-anchor="start" x="531.12" y="-86" font-family="Helvetica,sans-Serif" font-size="10.00">steppable::localization</text>
<text xml:space="preserve" text-anchor="middle" x="586.25" y="-73.25" font-family="Helvetica,sans-Serif" font-size="10.00">::getLanguage</text>
</a>
</g>
</g>
<!-- Node2&#45;&gt;Node19 -->
<g id="edge30_Node000002_Node000019" class="edge">
<title>Node2&#45;&gt;Node19</title>
<g id="a_edge30_Node000002_Node000019"><a xlink:title=" ">
<path fill="none" stroke="#63b8ff" d="M300.26,-254.04C304.7,-251.78 308.86,-249.05 312.5,-245.75 345.33,-215.97 315.9,-182.78 348.5,-152.75 392.83,-111.91 459.89,-94.82 511.33,-87.7"/>
<polygon fill="#63b8ff" stroke="#63b8ff" points="511.74,-91.18 521.22,-86.45 510.86,-84.24 511.74,-91.18"/>
</a>
</g>
</g>
<!-- Node5 -->
<g id="Node000005" class="node">
<title>Node5</title>
<g id="a_Node000005"><a xlink:href="namespacesteppable_1_1____internals_1_1utils.html#af55d306f308c40f7cf64ad6cdb0235f7" target="_top" xlink:title=" ">
<polygon fill="white" stroke="#666666" points="655.75,-346.5 516.75,-346.5 516.75,-313 655.75,-313 655.75,-346.5"/>
<text xml:space="preserve" text-anchor="start" x="524.75" y="-333" font-family="Helvetica,sans-Serif" font-size="10.00">steppable::__internals</text>
<text xml:space="preserve" text-anchor="middle" x="586.25" y="-320.25" font-family="Helvetica,sans-Serif" font-size="10.00">::utils::getHomeDirectory</text>
</a>
</g>
</g>
<!-- Node4&#45;&gt;Node5 -->
<g id="edge4_Node000004_Node000005" class="edge">
<title>Node4&#45;&gt;Node5</title>
<g id="a_edge4_Node000004_Node000005"><a xlink:title=" ">
<path fill="none" stroke="#63b8ff" d="M481.21,-329.75C489.06,-329.75 497.15,-329.75 505.19,-329.75"/>
<polygon fill="#63b8ff" stroke="#63b8ff" points="504.96,-333.25 514.96,-329.75 504.96,-326.25 504.96,-333.25"/>
</a>
</g>
</g>
<!-- Node5&#45;&gt;Node3 -->
<g id="edge29_Node000005_Node000003" class="edge">
<title>Node5&#45;&gt;Node3</title>
<g id="a_edge29_Node000005_Node000003"><a xlink:title=" ">
<path fill="none" stroke="#63b8ff" d="M641.78,-346.92C656.81,-351.66 673.26,-356.83 688.76,-361.72"/>
<polygon fill="#63b8ff" stroke="#63b8ff" points="687.28,-364.92 697.87,-364.58 689.38,-358.24 687.28,-364.92"/>
</a>
</g>
</g>
<!-- Node6 -->
<g id="Node000006" class="node">
<title>Node6</title>
<g id="a_Node000006"><a xlink:href="namespacesteppable_1_1____internals_1_1calc.html#a4733396b66cc027f38d17f6aac309590" target="_top" xlink:title="Calculate the error between values a and b.">
<polygon fill="white" stroke="#666666" points="815,-346.5 691.75,-346.5 691.75,-313 815,-313 815,-346.5"/>
<text xml:space="preserve" text-anchor="start" x="699.75" y="-333" font-family="Helvetica,sans-Serif" font-size="10.00">steppable::__internals</text>
<text xml:space="preserve" text-anchor="middle" x="753.38" y="-320.25" font-family="Helvetica,sans-Serif" font-size="10.00">::calc::error</text>
</a>
</g>
</g>
<!-- Node5&#45;&gt;Node6 -->
<g id="edge5_Node000005_Node000006" class="edge">
<title>Node5&#45;&gt;Node6</title>
<g id="a_edge5_Node000005_Node000006"><a xlink:title=" ">
<path fill="none" stroke="#63b8ff" d="M655.84,-329.75C663.85,-329.75 672.04,-329.75 680.1,-329.75"/>
<polygon fill="#63b8ff" stroke="#63b8ff" points="679.86,-333.25 689.86,-329.75 679.86,-326.25 679.86,-333.25"/>
</a>
</g>
</g>
<!-- Node7 -->
<g id="Node000007" class="node">
<title>Node7</title>
<g id="a_Node000007"><a xlink:href="namespacesteppable_1_1____internals_1_1calc.html#ad4d7034aa4fea1469c85db9ddbb006c2" target="_top" xlink:title="Calculates the absolute value of a string representation of a number.">
<polygon fill="white" stroke="#666666" points="974.25,-349.5 851,-349.5 851,-316 974.25,-316 974.25,-349.5"/>
<text xml:space="preserve" text-anchor="start" x="859" y="-336" font-family="Helvetica,sans-Serif" font-size="10.00">steppable::__internals</text>
<text xml:space="preserve" text-anchor="middle" x="912.62" y="-323.25" font-family="Helvetica,sans-Serif" font-size="10.00">::calc::abs</text>
</a>
</g>
</g>
<!-- Node6&#45;&gt;Node7 -->
<g id="edge6_Node000006_Node000007" class="edge">
<title>Node6&#45;&gt;Node7</title>
<g id="a_edge6_Node000006_Node000007"><a xlink:title=" ">
<path fill="none" stroke="#63b8ff" d="M815.17,-330.91C823.1,-331.06 831.29,-331.22 839.38,-331.37"/>
<polygon fill="#63b8ff" stroke="#63b8ff" points="839.15,-334.87 849.22,-331.56 839.29,-327.87 839.15,-334.87"/>
</a>
</g>
</g>
<!-- Node9 -->
<g id="Node000009" class="node">
<title>Node9</title>
<g id="a_Node000009"><a xlink:href="namespacesteppable_1_1____internals_1_1calc.html#a2173185243502a4e962d22b97becdbbb" target="_top" xlink:title="Subtracts one string representation of a number from another string representation of a number.">
<polygon fill="white" stroke="#666666" points="974.25,-238.5 851,-238.5 851,-205 974.25,-205 974.25,-238.5"/>
<text xml:space="preserve" text-anchor="start" x="859" y="-225" font-family="Helvetica,sans-Serif" font-size="10.00">steppable::__internals</text>
<text xml:space="preserve" text-anchor="middle" x="912.62" y="-212.25" font-family="Helvetica,sans-Serif" font-size="10.00">::calc::subtract</text>
</a>
</g>
</g>
<!-- Node6&#45;&gt;Node9 -->
<g id="edge8_Node000006_Node000009" class="edge">
<title>Node6&#45;&gt;Node9</title>
<g id="a_edge8_Node000006_Node000009"><a xlink:title=" ">
<path fill="none" stroke="#63b8ff" d="M779.29,-312.64C805.78,-294.44 847.86,-265.55 877.44,-245.23"/>
<polygon fill="#63b8ff" stroke="#63b8ff" points="879.06,-248.36 885.32,-239.82 875.09,-242.59 879.06,-248.36"/>
</a>
</g>
</g>
<!-- Node8 -->
<g id="Node000008" class="node">
<title>Node8</title>
<g id="a_Node000008"><a xlink:href="namespacesteppable_1_1____internals_1_1calc.html#af34324955c6772c7a3cacd9fe4c9a915" target="_top" xlink:title=" ">
<polygon fill="white" stroke="#666666" points="1133.5,-353.5 1010.25,-353.5 1010.25,-320 1133.5,-320 1133.5,-353.5"/>
<text xml:space="preserve" text-anchor="start" x="1018.25" y="-340" font-family="Helvetica,sans-Serif" font-size="10.00">steppable::__internals</text>
<text xml:space="preserve" text-anchor="middle" x="1071.88" y="-327.25" font-family="Helvetica,sans-Serif" font-size="10.00">::calc::_abs</text>
</a>
</g>
</g>
<!-- Node7&#45;&gt;Node8 -->
<g id="edge7_Node000007_Node000008" class="edge">
<title>Node7&#45;&gt;Node8</title>
<g id="a_edge7_Node000007_Node000008"><a xlink:title=" ">
<path fill="none" stroke="#63b8ff" d="M974.42,-334.3C982.35,-334.5 990.54,-334.71 998.63,-334.91"/>
<polygon fill="#63b8ff" stroke="#63b8ff" points="998.38,-338.41 1008.47,-335.16 998.56,-331.41 998.38,-338.41"/>
</a>
</g>
</g>
<!-- Node9&#45;&gt;Node2 -->
<g id="edge9_Node000009_Node000002" class="edge">
<title>Node9&#45;&gt;Node2</title>
<g id="a_edge9_Node000009_Node000002"><a xlink:title=" ">
<path fill="none" stroke="#63b8ff" d="M850.82,-225.67C729.95,-233.46 459.54,-250.88 324.42,-259.59"/>
<polygon fill="#63b8ff" stroke="#63b8ff" points="324.22,-256.1 314.47,-260.23 324.67,-263.08 324.22,-256.1"/>
</a>
</g>
</g>
<!-- Node9&#45;&gt;Node9 -->
<g id="edge28_Node000009_Node000009" class="edge">
<title>Node9&#45;&gt;Node9</title>
<g id="a_edge28_Node000009_Node000009"><a xlink:title=" ">
<path fill="none" stroke="#63b8ff" d="M884,-238.91C879.13,-248.12 888.68,-256.5 912.62,-256.5 926.1,-256.5 935.01,-253.85 939.36,-249.89"/>
<polygon fill="#63b8ff" stroke="#63b8ff" points="942.75,-250.85 941,-240.41 935.85,-249.67 942.75,-250.85"/>
</a>
</g>
</g>
<!-- Node10 -->
<g id="Node000010" class="node">
<title>Node10</title>
<g id="a_Node000010"><a xlink:href="namespacesteppable_1_1____internals_1_1calc.html#a8ee74a3b901b7b3f12f0391a0d2be7b8" target="_top" xlink:title="Adds two string representations of numbers, and performs with the column method.">
<polygon fill="white" stroke="#666666" points="1133.5,-301.5 1010.25,-301.5 1010.25,-268 1133.5,-268 1133.5,-301.5"/>
<text xml:space="preserve" text-anchor="start" x="1018.25" y="-288" font-family="Helvetica,sans-Serif" font-size="10.00">steppable::__internals</text>
<text xml:space="preserve" text-anchor="middle" x="1071.88" y="-275.25" font-family="Helvetica,sans-Serif" font-size="10.00">::calc::add</text>
</a>
</g>
</g>
<!-- Node9&#45;&gt;Node10 -->
<g id="edge10_Node000009_Node000010" class="edge">
<title>Node9&#45;&gt;Node10</title>
<g id="a_edge10_Node000009_Node000010"><a xlink:title=" ">
<path fill="none" stroke="#63b8ff" d="M973.07,-239C992.52,-246.42 1013.63,-255.08 1031.25,-262.93"/>
<polygon fill="#63b8ff" stroke="#63b8ff" points="1029.79,-266.11 1040.34,-267.06 1032.69,-259.73 1029.79,-266.11"/>
</a>
</g>
</g>
<!-- Node11 -->
<g id="Node000011" class="node">
<title>Node11</title>
<g id="a_Node000011"><a xlink:href="namespacesteppable_1_1____internals_1_1numUtils.html#a6cc23d8eda7defd591a87a8b1d8b869d" target="_top" xlink:title="Checks if a given string is a zero string.">
<polygon fill="white" stroke="#666666" points="1921.25,-239.5 1789.75,-239.5 1789.75,-206 1921.25,-206 1921.25,-239.5"/>
<text xml:space="preserve" text-anchor="start" x="1797.75" y="-226" font-family="Helvetica,sans-Serif" font-size="10.00">steppable::__internals</text>
<text xml:space="preserve" text-anchor="middle" x="1855.5" y="-213.25" font-family="Helvetica,sans-Serif" font-size="10.00">::numUtils::isZeroString</text>
</a>
</g>
</g>
<!-- Node9&#45;&gt;Node11 -->
<g id="edge26_Node000009_Node000011" class="edge">
<title>Node9&#45;&gt;Node11</title>
<g id="a_edge26_Node000009_Node000011"><a xlink:title=" ">
<path fill="none" stroke="#63b8ff" d="M974.49,-222.48C1092.02,-223.84 1358.37,-226.74 1582.5,-227.75 1658.61,-228.09 1677.66,-229.64 1753.75,-227.75 1761.69,-227.55 1769.99,-227.27 1778.26,-226.93"/>
<polygon fill="#63b8ff" stroke="#63b8ff" points="1778.13,-230.44 1787.97,-226.52 1777.83,-223.45 1778.13,-230.44"/>
</a>
</g>
</g>
<!-- Node12 -->
<g id="Node000012" class="node">
<title>Node12</title>
<g id="a_Node000012"><a xlink:href="namespacesteppable_1_1____internals_1_1numUtils.html#af904a63deb5a7cc413325eb08b2118f3" target="_top" xlink:title=" ">
<polygon fill="white" stroke="#666666" points="1319.75,-175.5 1187.5,-175.5 1187.5,-142 1319.75,-142 1319.75,-175.5"/>
<text xml:space="preserve" text-anchor="start" x="1195.5" y="-162" font-family="Helvetica,sans-Serif" font-size="10.00">steppable::__internals</text>
<text xml:space="preserve" text-anchor="middle" x="1253.62" y="-149.25" font-family="Helvetica,sans-Serif" font-size="10.00">::numUtils::splitNumber</text>
</a>
</g>
</g>
<!-- Node9&#45;&gt;Node12 -->
<g id="edge27_Node000009_Node000012" class="edge">
<title>Node9&#45;&gt;Node12</title>
<g id="a_edge27_Node000009_Node000012"><a xlink:title=" ">
<path fill="none" stroke="#63b8ff" d="M974.36,-211.37C1018.54,-203.72 1079.79,-192.92 1133.5,-182.75 1147.24,-180.15 1161.85,-177.28 1175.96,-174.47"/>
<polygon fill="#63b8ff" stroke="#63b8ff" points="1176.54,-177.92 1185.66,-172.53 1175.16,-171.06 1176.54,-177.92"/>
</a>
</g>
</g>
<!-- Node16 -->
<g id="Node000016" class="node">
<title>Node16</title>
<g id="a_Node000016"><a xlink:href="namespacesteppable_1_1____internals_1_1calc.html#a42acdef9fc1e043591a9f42918ba7984" target="_top" xlink:title="Compares two string representations of numbers.">
<polygon fill="white" stroke="#666666" points="1133.5,-173.5 1010.25,-173.5 1010.25,-140 1133.5,-140 1133.5,-173.5"/>
<text xml:space="preserve" text-anchor="start" x="1018.25" y="-160" font-family="Helvetica,sans-Serif" font-size="10.00">steppable::__internals</text>
<text xml:space="preserve" text-anchor="middle" x="1071.88" y="-147.25" font-family="Helvetica,sans-Serif" font-size="10.00">::calc::compare</text>
</a>
</g>
</g>
<!-- Node9&#45;&gt;Node16 -->
<g id="edge20_Node000009_Node000016" class="edge">
<title>Node9&#45;&gt;Node16</title>
<g id="a_edge20_Node000009_Node000016"><a xlink:title=" ">
<path fill="none" stroke="#63b8ff" d="M955.35,-204.5C974.8,-196.46 998.14,-186.81 1018.74,-178.3"/>
<polygon fill="#63b8ff" stroke="#63b8ff" points="1019.92,-181.6 1027.83,-174.54 1017.25,-175.13 1019.92,-181.6"/>
</a>
</g>
</g>
<!-- Node10&#45;&gt;Node2 -->
<g id="edge11_Node000010_Node000002" class="edge">
<title>Node10&#45;&gt;Node2</title>
<g id="a_edge11_Node000010_Node000002"><a xlink:title=" ">
<path fill="none" stroke="#63b8ff" d="M1009.9,-284.75C946.17,-284.75 843.25,-284.75 754.38,-284.75 585.25,-284.75 585.25,-284.75 585.25,-284.75 495.68,-284.75 393.1,-277.78 324.07,-272.07"/>
<polygon fill="#63b8ff" stroke="#63b8ff" points="324.63,-268.61 314.37,-271.26 324.04,-275.58 324.63,-268.61"/>
</a>
</g>
</g>
<!-- Node10&#45;&gt;Node9 -->
<g id="edge19_Node000010_Node000009" class="edge">
<title>Node10&#45;&gt;Node9</title>
<g id="a_edge19_Node000010_Node000009"><a xlink:title=" ">
<path fill="none" stroke="#63b8ff" d="M1011.53,-267.54C991.9,-260.06 970.55,-251.29 952.82,-243.38"/>
<polygon fill="#63b8ff" stroke="#63b8ff" points="954.76,-240.42 944.21,-239.47 951.86,-246.79 954.76,-240.42"/>
</a>
</g>
</g>
<!-- Node10&#45;&gt;Node11 -->
<g id="edge12_Node000010_Node000011" class="edge">
<title>Node10&#45;&gt;Node11</title>
<g id="a_edge12_Node000010_Node000011"><a xlink:title=" ">
<path fill="none" stroke="#63b8ff" d="M1133.6,-287.68C1253.35,-292.26 1527.91,-296.74 1753.75,-255.75 1769.2,-252.95 1785.54,-248.35 1800.46,-243.46"/>
<polygon fill="#63b8ff" stroke="#63b8ff" points="1801.26,-246.89 1809.6,-240.36 1799.01,-240.26 1801.26,-246.89"/>
</a>
</g>
</g>
<!-- Node10&#45;&gt;Node12 -->
<g id="edge13_Node000010_Node000012" class="edge">
<title>Node10&#45;&gt;Node12</title>
<g id="a_edge13_Node000010_Node000012"><a xlink:title=" ">
<path fill="none" stroke="#63b8ff" d="M1097.12,-267.76C1128.61,-245.68 1183.74,-207.04 1219.19,-182.19"/>
<polygon fill="#63b8ff" stroke="#63b8ff" points="1220.77,-185.35 1226.95,-176.74 1216.76,-179.62 1220.77,-185.35"/>
</a>
</g>
</g>
<!-- Node12&#45;&gt;Node11 -->
<g id="edge14_Node000012_Node000011" class="edge">
<title>Node12&#45;&gt;Node11</title>
<g id="a_edge14_Node000012_Node000011"><a xlink:title=" ">
<path fill="none" stroke="#63b8ff" d="M1320.18,-174.73C1337.51,-178.5 1356.26,-182.16 1373.75,-184.75 1515.61,-205.74 1682.86,-215.65 1778.01,-219.92"/>
<polygon fill="#63b8ff" stroke="#63b8ff" points="1777.6,-223.4 1787.74,-220.34 1777.91,-216.41 1777.6,-223.4"/>
</a>
</g>
</g>
<!-- Node13 -->
<g id="Node000013" class="node">
<title>Node13</title>
<g id="a_Node000013"><a xlink:href="namespacesteppable_1_1____internals_1_1numUtils.html#a5d7e8d74d304a1ac7fc2ad4dbf5b40ae" target="_top" xlink:title=" ">
<polygon fill="white" stroke="#666666" points="1546.5,-175.5 1373.75,-175.5 1373.75,-142 1546.5,-142 1546.5,-175.5"/>
<text xml:space="preserve" text-anchor="start" x="1381.75" y="-162" font-family="Helvetica,sans-Serif" font-size="10.00">steppable::__internals</text>
<text xml:space="preserve" text-anchor="middle" x="1460.12" y="-149.25" font-family="Helvetica,sans-Serif" font-size="10.00">::numUtils::removeTrailingZeros</text>
</a>
</g>
</g>
<!-- Node12&#45;&gt;Node13 -->
<g id="edge15_Node000012_Node000013" class="edge">
<title>Node12&#45;&gt;Node13</title>
<g id="a_edge15_Node000012_Node000013"><a xlink:title=" ">
<path fill="none" stroke="#63b8ff" d="M1320.17,-158.75C1333.54,-158.75 1347.87,-158.75 1362.07,-158.75"/>
<polygon fill="#63b8ff" stroke="#63b8ff" points="1361.89,-162.25 1371.89,-158.75 1361.89,-155.25 1361.89,-162.25"/>
</a>
</g>
</g>
<!-- Node14 -->
<g id="Node000014" class="node">
<title>Node14</title>
<g id="a_Node000014"><a xlink:href="namespacesteppable_1_1____internals_1_1numUtils.html#a503084b920a7cfd569d321e04dcb4ae5" target="_top" xlink:title="Simplifies a string that represents a number with non&#45;standard polarity.">
<polygon fill="white" stroke="#666666" points="1753.75,-130.5 1582.5,-130.5 1582.5,-97 1753.75,-97 1753.75,-130.5"/>
<text xml:space="preserve" text-anchor="start" x="1590.5" y="-117" font-family="Helvetica,sans-Serif" font-size="10.00">steppable::__internals</text>
<text xml:space="preserve" text-anchor="middle" x="1668.12" y="-104.25" font-family="Helvetica,sans-Serif" font-size="10.00">::numUtils::simplifyZeroPolarity</text>
</a>
</g>
</g>
<!-- Node12&#45;&gt;Node14 -->
<g id="edge16_Node000012_Node000014" class="edge">
<title>Node12&#45;&gt;Node14</title>
<g id="a_edge16_Node000012_Node000014"><a xlink:title=" ">
<path fill="none" stroke="#63b8ff" d="M1320.16,-142.6C1337.49,-138.83 1356.25,-135.21 1373.75,-132.75 1439.14,-123.55 1513.36,-118.8 1570.79,-116.34"/>
<polygon fill="#63b8ff" stroke="#63b8ff" points="1570.69,-119.85 1580.54,-115.95 1570.4,-112.86 1570.69,-119.85"/>
</a>
</g>
</g>
<!-- Node15 -->
<g id="Node000015" class="node">
<title>Node15</title>
<g id="a_Node000015"><a xlink:href="namespacesteppable_1_1____internals_1_1stringUtils.html#a2600efb348f0dd19cc0068946d06b1b7" target="_top" xlink:title="Splits a string into substrings based on a separator.">
<polygon fill="white" stroke="#666666" points="1521.75,-33.5 1398.5,-33.5 1398.5,0 1521.75,0 1521.75,-33.5"/>
<text xml:space="preserve" text-anchor="start" x="1406.5" y="-20" font-family="Helvetica,sans-Serif" font-size="10.00">steppable::__internals</text>
<text xml:space="preserve" text-anchor="middle" x="1460.12" y="-7.25" font-family="Helvetica,sans-Serif" font-size="10.00">::stringUtils::split</text>
</a>
</g>
</g>
<!-- Node12&#45;&gt;Node15 -->
<g id="edge18_Node000012_Node000015" class="edge">
<title>Node12&#45;&gt;Node15</title>
<g id="a_edge18_Node000012_Node000015"><a xlink:title=" ">
<path fill="none" stroke="#63b8ff" d="M1308.77,-141.5C1319.28,-136.36 1329.56,-129.87 1337.75,-121.75 1365.15,-94.59 1344.73,-68.18 1373.75,-42.75 1378.08,-38.95 1382.96,-35.71 1388.12,-32.95"/>
<polygon fill="#63b8ff" stroke="#63b8ff" points="1389.39,-36.21 1396.98,-28.82 1386.44,-29.87 1389.39,-36.21"/>
</a>
</g>
</g>
<!-- Node14&#45;&gt;Node11 -->
<g id="edge17_Node000014_Node000011" class="edge">
<title>Node14&#45;&gt;Node11</title>
<g id="a_edge17_Node000014_Node000011"><a xlink:title=" ">
<path fill="none" stroke="#63b8ff" d="M1698.09,-130.78C1729.69,-149.36 1780.46,-179.21 1815.54,-199.84"/>
<polygon fill="#63b8ff" stroke="#63b8ff" points="1813.73,-202.84 1824.13,-204.89 1817.28,-196.81 1813.73,-202.84"/>
</a>
</g>
</g>
<!-- Node16&#45;&gt;Node2 -->
<g id="edge21_Node000016_Node000002" class="edge">
<title>Node16&#45;&gt;Node2</title>
<g id="a_edge21_Node000016_Node000002"><a xlink:title=" ">
<path fill="none" stroke="#63b8ff" d="M1009.92,-159.82C946.2,-162.76 843.3,-166.75 754.38,-166.75 585.25,-166.75 585.25,-166.75 585.25,-166.75 459.05,-166.75 433.9,-211.24 312.5,-245.75 306.59,-247.43 300.4,-249.18 294.25,-250.9"/>
<polygon fill="#63b8ff" stroke="#63b8ff" points="293.45,-247.49 284.76,-253.56 295.33,-254.23 293.45,-247.49"/>
</a>
</g>
</g>
<!-- Node16&#45;&gt;Node12 -->
<g id="edge22_Node000016_Node000012" class="edge">
<title>Node16&#45;&gt;Node12</title>
<g id="a_edge22_Node000016_Node000012"><a xlink:title=" ">
<path fill="none" stroke="#63b8ff" d="M1133.98,-157.43C1147.47,-157.58 1161.93,-157.74 1175.95,-157.9"/>
<polygon fill="#63b8ff" stroke="#63b8ff" points="1175.52,-161.39 1185.56,-158 1175.6,-154.39 1175.52,-161.39"/>
</a>
</g>
</g>
<!-- Node17 -->
<g id="Node000017" class="node">
<title>Node17</title>
<g id="a_Node000017"><a xlink:href="namespacesteppable_1_1____internals_1_1numUtils.html#ae9066a66afcc38203d68643378d1fde8" target="_top" xlink:title="Standardizes a number string.">
<polygon fill="white" stroke="#666666" points="1337.75,-112.5 1169.5,-112.5 1169.5,-79 1337.75,-79 1337.75,-112.5"/>
<text xml:space="preserve" text-anchor="start" x="1177.5" y="-99" font-family="Helvetica,sans-Serif" font-size="10.00">steppable::__internals</text>
<text xml:space="preserve" text-anchor="middle" x="1253.62" y="-86.25" font-family="Helvetica,sans-Serif" font-size="10.00">::numUtils::standardizeNumber</text>
</a>
</g>
</g>
<!-- Node16&#45;&gt;Node17 -->
<g id="edge23_Node000016_Node000017" class="edge">
<title>Node16&#45;&gt;Node17</title>
<g id="a_edge23_Node000016_Node000017"><a xlink:title=" ">
<path fill="none" stroke="#63b8ff" d="M1123.42,-139.6C1144.48,-132.45 1169.13,-124.08 1191.22,-116.59"/>
<polygon fill="#63b8ff" stroke="#63b8ff" points="1192.05,-120 1200.4,-113.47 1189.81,-113.37 1192.05,-120"/>
</a>
</g>
</g>
<!-- Node18 -->
<g id="Node000018" class="node">
<title>Node18</title>
<g id="a_Node000018"><a xlink:href="namespacesteppable_1_1____internals_1_1numUtils.html#a4d4ffec10442fd8ab9b778e4ff5168dc" target="_top" xlink:title="Simplifies a string with non&#45;standard polarity (e.g., –1, —1, etc.).">
<polygon fill="white" stroke="#666666" points="1534.5,-85.5 1385.75,-85.5 1385.75,-52 1534.5,-52 1534.5,-85.5"/>
<text xml:space="preserve" text-anchor="start" x="1393.75" y="-72" font-family="Helvetica,sans-Serif" font-size="10.00">steppable::__internals</text>
<text xml:space="preserve" text-anchor="middle" x="1460.12" y="-59.25" font-family="Helvetica,sans-Serif" font-size="10.00">::numUtils::simplifyPolarity</text>
</a>
</g>
</g>
<!-- Node17&#45;&gt;Node18 -->
<g id="edge24_Node000017_Node000018" class="edge">
<title>Node17&#45;&gt;Node18</title>
<g id="a_edge24_Node000017_Node000018"><a xlink:title=" ">
<path fill="none" stroke="#63b8ff" d="M1338.1,-84.73C1349.98,-83.16 1362.22,-81.54 1374.13,-79.97"/>
<polygon fill="#63b8ff" stroke="#63b8ff" points="1374.48,-83.46 1383.93,-78.68 1373.56,-76.52 1374.48,-83.46"/>
</a>
</g>
</g>
<!-- Node18&#45;&gt;Node14 -->
<g id="edge25_Node000018_Node000014" class="edge">
<title>Node18&#45;&gt;Node14</title>
<g id="a_edge25_Node000018_Node000014"><a xlink:title=" ">
<path fill="none" stroke="#63b8ff" d="M1534.91,-84.87C1548.58,-87.85 1562.99,-91 1577.07,-94.08"/>
<polygon fill="#63b8ff" stroke="#63b8ff" points="1576.28,-97.49 1586.8,-96.2 1577.78,-90.65 1576.28,-97.49"/>
</a>
</g>
</g>
<!-- Node19&#45;&gt;Node15 -->
<g id="edge31_Node000019_Node000015" class="edge">
<title>Node19&#45;&gt;Node15</title>
<g id="a_edge31_Node000019_Node000015"><a xlink:title=" ">
<path fill="none" stroke="#63b8ff" d="M649.83,-66.03C714.78,-50.17 819.57,-28.75 911.62,-28.75 911.62,-28.75 911.62,-28.75 1072.88,-28.75 1182.54,-28.75 1309.64,-23.86 1387.19,-20.32"/>
<polygon fill="#63b8ff" stroke="#63b8ff" points="1386.93,-23.84 1396.75,-19.88 1386.6,-16.84 1386.93,-23.84"/>
</a>
</g>
</g>
<!-- Node20&#45;&gt;Node20 -->
<g id="edge33_Node000020_Node000020" class="edge">
<title>Node20&#45;&gt;Node20</title>
<g id="a_edge33_Node000020_Node000020"><a xlink:title=" ">
<path fill="none" stroke="#63b8ff" d="M212.59,-218.91C207.36,-228.12 217.62,-236.5 243.38,-236.5 257.86,-236.5 267.45,-233.85 272.13,-229.89"/>
<polygon fill="#63b8ff" stroke="#63b8ff" points="275.51,-230.87 273.88,-220.4 268.62,-229.6 275.51,-230.87"/>
</a>
</g>
</g>
</g>
</svg>

<g id="navigator" transform="translate(0 0)" fill="#404254">
  <rect fill="#f2f5e9" fill-opacity="0.5" stroke="#606060" stroke-width=".5" x="0" y="0" width="60" height="60"/>
  <use id="zoomplus" xlink:href="#zoomPlus" x="17" y="9" onmousedown="handleZoom(evt,'in')"/>
  <use id="zoomminus" xlink:href="#zoomMin" x="42" y="9" onmousedown="handleZoom(evt,'out')"/>
  <use id="reset" xlink:href="#resetDef" x="30" y="36" onmousedown="handleReset()"/>
   <use id="arrowup" xlink:href="#arrowUp" x="0" y="0" onmousedown="handlePan(0,-1)"/>
  <use id="arrowright" xlink:href="#arrowRight" x="0" y="0" onmousedown="handlePan(1,0)"/>
  <use id="arrowdown" xlink:href="#arrowDown" x="0" y="0" onmousedown="handlePan(0,1)"/>
  <use id="arrowleft" xlink:href="#arrowLeft" x="0" y="0" onmousedown="handlePan(-1,0)"/>
</g>
<svg viewBox="0 0 15 15" width="100%" height="30px" preserveAspectRatio="xMaxYMin meet">
 <g id="arrow_out" transform="scale(0.3 0.3)">
  <a xlink:href="namespacesteppable_1_1localization_a59978a0a3a6490e522bdf41fbdb3ff61_cgraph_org.svg" target="_base">
   <rect id="button" ry="5" rx="5" y="6" x="6" height="38" width="38"
        fill="#f2f5e9" fill-opacity="0.5" stroke="#606060" stroke-width="1.0"/>
   <path id="arrow"
     d="M 11.500037,31.436501 C 11.940474,20.09759 22.043105,11.32322 32.158766,21.979434 L 37.068811,17.246167 C 37.068811,17.246167 37.088388,32 37.088388,32 L 22.160133,31.978069 C 22.160133,31.978069 26.997745,27.140456 26.997745,27.140456 C 18.528582,18.264221 13.291696,25.230495 11.500037,31.436501 z"
     style="fill:#404040;"/>
  </a>
 </g>
</svg>

<style type='text/css'>
<![CDATA[
[data-mouse-over-selected='false'] { opacity: 0.7; }
[data-mouse-over-selected='true']  { opacity: 1.0; }
]]>
</style>
<script type="application/ecmascript"><![CDATA[
document.addEventListener('DOMContentLoaded', (event) => {
  highlightEdges();
  highlightAdjacentNodes();
});
]]></script>
</svg>
