<?xml version="1.0" encoding="UTF-8" standalone="no"?>
<!DOCTYPE svg PUBLIC "-//W3C//DTD SVG 1.1//EN"
 "http://www.w3.org/Graphics/SVG/1.1/DTD/svg11.dtd">
<!-- Generated by graphviz version 12.2.1 (20241206.2353)
 -->
<!-- Title: ImGui::RenderWindowOuterBorders Pages: 1 -->
<svg width="1245pt" height="157pt"
 viewBox="0.00 0.00 1245.00 157.12" xmlns="http://www.w3.org/2000/svg" xmlns:xlink="http://www.w3.org/1999/xlink">
<g id="graph0" class="graph" transform="scale(1 1) rotate(0) translate(4 153.12)">
<title>ImGui::RenderWindowOuterBorders</title>
<!-- Node1 -->
<g id="Node000001" class="node">
<title>Node1</title>
<g id="a_Node000001"><a xlink:title=" ">
<polygon fill="#999999" stroke="#666666" points="151.75,-78.5 0,-78.5 0,-45 151.75,-45 151.75,-78.5"/>
<text text-anchor="start" x="8" y="-65" font-family="Helvetica,sans-Serif" font-size="10.00">ImGui::RenderWindowOuter</text>
<text text-anchor="middle" x="75.88" y="-52.25" font-family="Helvetica,sans-Serif" font-size="10.00">Borders</text>
</a>
</g>
</g>
<!-- Node2 -->
<g id="Node000002" class="node">
<title>Node2</title>
<g id="a_Node000002"><a xlink:href="structImDrawList.html#aa21e5a1c6e00239581f97d344fc0db61" target="_top" xlink:title=" ">
<polygon fill="white" stroke="#666666" points="305,-111.12 188.5,-111.12 188.5,-90.38 305,-90.38 305,-111.12"/>
<text text-anchor="middle" x="246.75" y="-97.62" font-family="Helvetica,sans-Serif" font-size="10.00">ImDrawList::AddLine</text>
</a>
</g>
</g>
<!-- Node1&#45;&gt;Node2 -->
<g id="edge1_Node000001_Node000002" class="edge">
<title>Node1&#45;&gt;Node2</title>
<g id="a_edge1_Node000001_Node000002"><a xlink:title=" ">
<path fill="none" stroke="#63b8ff" d="M151.44,-78.97C163.62,-81.78 176.09,-84.66 187.8,-87.37"/>
<polygon fill="#63b8ff" stroke="#63b8ff" points="186.75,-90.72 197.28,-89.56 188.33,-83.9 186.75,-90.72"/>
</a>
</g>
</g>
<!-- Node9 -->
<g id="Node000009" class="node">
<title>Node9</title>
<g id="a_Node000009"><a xlink:href="structImDrawList.html#ad96f10a3e954fe0c5b7c96d4e205af7b" target="_top" xlink:title=" ">
<polygon fill="white" stroke="#666666" points="305.75,-72.12 187.75,-72.12 187.75,-51.38 305.75,-51.38 305.75,-72.12"/>
<text text-anchor="middle" x="246.75" y="-58.62" font-family="Helvetica,sans-Serif" font-size="10.00">ImDrawList::AddRect</text>
</a>
</g>
</g>
<!-- Node1&#45;&gt;Node9 -->
<g id="edge8_Node000001_Node000009" class="edge">
<title>Node1&#45;&gt;Node9</title>
<g id="a_edge8_Node000001_Node000009"><a xlink:title=" ">
<path fill="none" stroke="#63b8ff" d="M151.93,-61.75C159.92,-61.75 168.02,-61.75 175.95,-61.75"/>
<polygon fill="#63b8ff" stroke="#63b8ff" points="175.89,-65.25 185.89,-61.75 175.89,-58.25 175.89,-65.25"/>
</a>
</g>
</g>
<!-- Node14 -->
<g id="Node000014" class="node">
<title>Node14</title>
<g id="a_Node000014"><a xlink:href="namespaceImGui.html#a0de2d9bd347d9866511eb8d014e62556" target="_top" xlink:title=" ">
<polygon fill="white" stroke="#666666" points="303.5,-30.12 190,-30.12 190,-9.38 303.5,-9.38 303.5,-30.12"/>
<text text-anchor="middle" x="246.75" y="-16.62" font-family="Helvetica,sans-Serif" font-size="10.00">ImGui::GetColorU32</text>
</a>
</g>
</g>
<!-- Node1&#45;&gt;Node14 -->
<g id="edge15_Node000001_Node000014" class="edge">
<title>Node1&#45;&gt;Node14</title>
<g id="a_edge15_Node000001_Node000014"><a xlink:title=" ">
<path fill="none" stroke="#63b8ff" d="M146.05,-44.55C161,-40.83 176.61,-36.95 190.92,-33.39"/>
<polygon fill="#63b8ff" stroke="#63b8ff" points="191.75,-36.79 200.61,-30.98 190.06,-29.99 191.75,-36.79"/>
</a>
</g>
</g>
<!-- Node3 -->
<g id="Node000003" class="node">
<title>Node3</title>
<g id="a_Node000003"><a xlink:href="structImDrawList.html#a828d944325ed58d8b57abd3647bffaaf" target="_top" xlink:title=" ">
<polygon fill="white" stroke="#666666" points="660.25,-149.12 531,-149.12 531,-128.38 660.25,-128.38 660.25,-149.12"/>
<text text-anchor="middle" x="595.62" y="-135.62" font-family="Helvetica,sans-Serif" font-size="10.00">ImDrawList::PathLineTo</text>
</a>
</g>
</g>
<!-- Node2&#45;&gt;Node3 -->
<g id="edge2_Node000002_Node000003" class="edge">
<title>Node2&#45;&gt;Node3</title>
<g id="a_edge2_Node000002_Node000003"><a xlink:title=" ">
<path fill="none" stroke="#63b8ff" d="M295.37,-111.57C310.17,-114.61 326.58,-117.65 341.75,-119.75 401.13,-127.95 468.87,-132.8 519.28,-135.55"/>
<polygon fill="#63b8ff" stroke="#63b8ff" points="519.06,-139.04 529.23,-136.07 519.42,-132.05 519.06,-139.04"/>
</a>
</g>
</g>
<!-- Node4 -->
<g id="Node000004" class="node">
<title>Node4</title>
<g id="a_Node000004"><a xlink:href="structImDrawList.html#a60bf9040ef3d09b39c4ba8f5a2a68ae9" target="_top" xlink:title=" ">
<polygon fill="white" stroke="#666666" points="479.25,-111.12 350,-111.12 350,-90.38 479.25,-90.38 479.25,-111.12"/>
<text text-anchor="middle" x="414.62" y="-97.62" font-family="Helvetica,sans-Serif" font-size="10.00">ImDrawList::PathStroke</text>
</a>
</g>
</g>
<!-- Node2&#45;&gt;Node4 -->
<g id="edge3_Node000002_Node000004" class="edge">
<title>Node2&#45;&gt;Node4</title>
<g id="a_edge3_Node000002_Node000004"><a xlink:title=" ">
<path fill="none" stroke="#63b8ff" d="M305.3,-100.75C315.92,-100.75 327.17,-100.75 338.23,-100.75"/>
<polygon fill="#63b8ff" stroke="#63b8ff" points="338.14,-104.25 348.14,-100.75 338.14,-97.25 338.14,-104.25"/>
</a>
</g>
</g>
<!-- Node5 -->
<g id="Node000005" class="node">
<title>Node5</title>
<g id="a_Node000005"><a xlink:href="structImDrawList.html#abc568847b1113e624456436bfab1b307" target="_top" xlink:title=" ">
<polygon fill="white" stroke="#666666" points="663.25,-110.12 528,-110.12 528,-89.38 663.25,-89.38 663.25,-110.12"/>
<text text-anchor="middle" x="595.62" y="-96.62" font-family="Helvetica,sans-Serif" font-size="10.00">ImDrawList::AddPolyline</text>
</a>
</g>
</g>
<!-- Node4&#45;&gt;Node5 -->
<g id="edge4_Node000004_Node000005" class="edge">
<title>Node4&#45;&gt;Node5</title>
<g id="a_edge4_Node000004_Node000005"><a xlink:title=" ">
<path fill="none" stroke="#63b8ff" d="M479.74,-100.39C491.65,-100.33 504.21,-100.26 516.47,-100.19"/>
<polygon fill="#63b8ff" stroke="#63b8ff" points="516.14,-103.69 526.12,-100.13 516.1,-96.69 516.14,-103.69"/>
</a>
</g>
</g>
<!-- Node6 -->
<g id="Node000006" class="node">
<title>Node6</title>
<g id="a_Node000006"><a xlink:href="structImDrawList.html#a879aa38dbfb0344e3e023d65c002c7d7" target="_top" xlink:title=" ">
<polygon fill="white" stroke="#666666" points="854.38,-113.12 714.62,-113.12 714.62,-92.38 854.38,-92.38 854.38,-113.12"/>
<text text-anchor="middle" x="784.5" y="-99.62" font-family="Helvetica,sans-Serif" font-size="10.00">ImDrawList::PrimReserve</text>
</a>
</g>
</g>
<!-- Node5&#45;&gt;Node6 -->
<g id="edge5_Node000005_Node000006" class="edge">
<title>Node5&#45;&gt;Node6</title>
<g id="a_edge5_Node000005_Node000006"><a xlink:title=" ">
<path fill="none" stroke="#63b8ff" d="M663.56,-100.82C676.28,-101.03 689.71,-101.24 702.8,-101.45"/>
<polygon fill="#63b8ff" stroke="#63b8ff" points="702.63,-104.95 712.68,-101.61 702.74,-97.95 702.63,-104.95"/>
</a>
</g>
</g>
<!-- Node7 -->
<g id="Node000007" class="node">
<title>Node7</title>
<g id="a_Node000007"><a xlink:href="structImDrawList.html#a7f2e315f147acd8b555d86d1557659cc" target="_top" xlink:title=" ">
<polygon fill="white" stroke="#666666" points="1056.75,-123.5 901.25,-123.5 901.25,-90 1056.75,-90 1056.75,-123.5"/>
<text text-anchor="start" x="909.25" y="-110" font-family="Helvetica,sans-Serif" font-size="10.00">ImDrawList::_OnChangedVtx</text>
<text text-anchor="middle" x="979" y="-97.25" font-family="Helvetica,sans-Serif" font-size="10.00">Offset</text>
</a>
</g>
</g>
<!-- Node6&#45;&gt;Node7 -->
<g id="edge6_Node000006_Node000007" class="edge">
<title>Node6&#45;&gt;Node7</title>
<g id="a_edge6_Node000006_Node000007"><a xlink:title=" ">
<path fill="none" stroke="#63b8ff" d="M854.72,-104.19C866.08,-104.42 877.98,-104.67 889.72,-104.92"/>
<polygon fill="#63b8ff" stroke="#63b8ff" points="889.32,-108.41 899.39,-105.12 889.47,-101.41 889.32,-108.41"/>
</a>
</g>
</g>
<!-- Node8 -->
<g id="Node000008" class="node">
<title>Node8</title>
<g id="a_Node000008"><a xlink:href="structImDrawList.html#a846714bb0321c6f1f908767abc8559e6" target="_top" xlink:title=" ">
<polygon fill="white" stroke="#666666" points="1237,-117.12 1092.75,-117.12 1092.75,-96.38 1237,-96.38 1237,-117.12"/>
<text text-anchor="middle" x="1164.88" y="-103.62" font-family="Helvetica,sans-Serif" font-size="10.00">ImDrawList::AddDrawCmd</text>
</a>
</g>
</g>
<!-- Node7&#45;&gt;Node8 -->
<g id="edge7_Node000007_Node000008" class="edge">
<title>Node7&#45;&gt;Node8</title>
<g id="a_edge7_Node000007_Node000008"><a xlink:title=" ">
<path fill="none" stroke="#63b8ff" d="M1057.18,-106.75C1065.04,-106.75 1073.04,-106.75 1080.96,-106.75"/>
<polygon fill="#63b8ff" stroke="#63b8ff" points="1080.95,-110.25 1090.95,-106.75 1080.95,-103.25 1080.95,-110.25"/>
</a>
</g>
</g>
<!-- Node9&#45;&gt;Node4 -->
<g id="edge14_Node000009_Node000004" class="edge">
<title>Node9&#45;&gt;Node4</title>
<g id="a_edge14_Node000009_Node000004"><a xlink:title=" ">
<path fill="none" stroke="#63b8ff" d="M293.96,-72.61C313.29,-77.16 335.95,-82.49 356.33,-87.28"/>
<polygon fill="#63b8ff" stroke="#63b8ff" points="355.37,-90.65 365.91,-89.53 356.97,-83.83 355.37,-90.65"/>
</a>
</g>
</g>
<!-- Node10 -->
<g id="Node000010" class="node">
<title>Node10</title>
<g id="a_Node000010"><a xlink:href="structImDrawList.html#a2251eb264ed8b17a253c409787375053" target="_top" xlink:title=" ">
<polygon fill="white" stroke="#666666" points="474.75,-72.12 354.5,-72.12 354.5,-51.38 474.75,-51.38 474.75,-72.12"/>
<text text-anchor="middle" x="414.62" y="-58.62" font-family="Helvetica,sans-Serif" font-size="10.00">ImDrawList::PathRect</text>
</a>
</g>
</g>
<!-- Node9&#45;&gt;Node10 -->
<g id="edge9_Node000009_Node000010" class="edge">
<title>Node9&#45;&gt;Node10</title>
<g id="a_edge9_Node000009_Node000010"><a xlink:title=" ">
<path fill="none" stroke="#63b8ff" d="M306.23,-61.75C318.16,-61.75 330.82,-61.75 343.12,-61.75"/>
<polygon fill="#63b8ff" stroke="#63b8ff" points="342.76,-65.25 352.76,-61.75 342.76,-58.25 342.76,-65.25"/>
</a>
</g>
</g>
<!-- Node10&#45;&gt;Node3 -->
<g id="edge13_Node000010_Node000003" class="edge">
<title>Node10&#45;&gt;Node3</title>
<g id="a_edge13_Node000010_Node000003"><a xlink:title=" ">
<path fill="none" stroke="#63b8ff" d="M467.26,-72.52C474.31,-75.01 481.26,-78.05 487.5,-81.75 507.23,-93.45 503.78,-107.02 523.5,-118.75 526.49,-120.53 529.65,-122.16 532.9,-123.64"/>
<polygon fill="#63b8ff" stroke="#63b8ff" points="531.54,-126.87 542.12,-127.36 534.16,-120.37 531.54,-126.87"/>
</a>
</g>
</g>
<!-- Node11 -->
<g id="Node000011" class="node">
<title>Node11</title>
<g id="a_Node000011"><a xlink:href="structImDrawList.html#a6d307c6de1a6522e76fa410e8fe96fcc" target="_top" xlink:title=" ">
<polygon fill="white" stroke="#666666" points="667.75,-71.12 523.5,-71.12 523.5,-50.38 667.75,-50.38 667.75,-71.12"/>
<text text-anchor="middle" x="595.62" y="-57.62" font-family="Helvetica,sans-Serif" font-size="10.00">ImDrawList::PathArcToFast</text>
</a>
</g>
</g>
<!-- Node10&#45;&gt;Node11 -->
<g id="edge10_Node000010_Node000011" class="edge">
<title>Node10&#45;&gt;Node11</title>
<g id="a_edge10_Node000010_Node000011"><a xlink:title=" ">
<path fill="none" stroke="#63b8ff" d="M475.23,-61.42C486.99,-61.35 499.52,-61.28 511.88,-61.21"/>
<polygon fill="#63b8ff" stroke="#63b8ff" points="511.67,-64.71 521.65,-61.16 511.63,-57.71 511.67,-64.71"/>
</a>
</g>
</g>
<!-- Node12 -->
<g id="Node000012" class="node">
<title>Node12</title>
<g id="a_Node000012"><a xlink:href="structImDrawList.html#ac25f3a7693ed13ba2dac455675be8654" target="_top" xlink:title=" ">
<polygon fill="white" stroke="#666666" points="865.25,-71.12 703.75,-71.12 703.75,-50.38 865.25,-50.38 865.25,-71.12"/>
<text text-anchor="middle" x="784.5" y="-57.62" font-family="Helvetica,sans-Serif" font-size="10.00">ImDrawList::_PathArcToFastEx</text>
</a>
</g>
</g>
<!-- Node11&#45;&gt;Node12 -->
<g id="edge11_Node000011_Node000012" class="edge">
<title>Node11&#45;&gt;Node12</title>
<g id="a_edge11_Node000011_Node000012"><a xlink:title=" ">
<path fill="none" stroke="#63b8ff" d="M668.07,-60.75C675.92,-60.75 683.98,-60.75 692.02,-60.75"/>
<polygon fill="#63b8ff" stroke="#63b8ff" points="691.85,-64.25 701.85,-60.75 691.85,-57.25 691.85,-64.25"/>
</a>
</g>
</g>
<!-- Node13 -->
<g id="Node000013" class="node">
<title>Node13</title>
<g id="a_Node000013"><a xlink:href="structImDrawList.html#a52afa32aaab6d581cda90dc5d8726ed6" target="_top" xlink:title=" ">
<polygon fill="white" stroke="#666666" points="1056,-71.5 902,-71.5 902,-38 1056,-38 1056,-71.5"/>
<text text-anchor="start" x="910" y="-58" font-family="Helvetica,sans-Serif" font-size="10.00">ImDrawList::_CalcCircleAuto</text>
<text text-anchor="middle" x="979" y="-45.25" font-family="Helvetica,sans-Serif" font-size="10.00">SegmentCount</text>
</a>
</g>
</g>
<!-- Node12&#45;&gt;Node13 -->
<g id="edge12_Node000012_Node000013" class="edge">
<title>Node12&#45;&gt;Node13</title>
<g id="a_edge12_Node000012_Node000013"><a xlink:title=" ">
<path fill="none" stroke="#63b8ff" d="M865.74,-58.25C873.81,-58 882.03,-57.74 890.16,-57.49"/>
<polygon fill="#63b8ff" stroke="#63b8ff" points="890.19,-60.99 900.08,-57.18 889.97,-53.99 890.19,-60.99"/>
</a>
</g>
</g>
<!-- Node15 -->
<g id="Node000015" class="node">
<title>Node15</title>
<g id="a_Node000015"><a xlink:href="namespaceImGui.html#abe2691de0b1a71c774ab24cc91564a94" target="_top" xlink:title=" ">
<polygon fill="white" stroke="#666666" points="487.5,-33.5 341.75,-33.5 341.75,0 487.5,0 487.5,-33.5"/>
<text text-anchor="start" x="349.75" y="-20" font-family="Helvetica,sans-Serif" font-size="10.00">ImGui::ColorConvertFloat4</text>
<text text-anchor="middle" x="414.62" y="-7.25" font-family="Helvetica,sans-Serif" font-size="10.00">ToU32</text>
</a>
</g>
</g>
<!-- Node14&#45;&gt;Node15 -->
<g id="edge16_Node000014_Node000015" class="edge">
<title>Node14&#45;&gt;Node15</title>
<g id="a_edge16_Node000014_Node000015"><a xlink:title=" ">
<path fill="none" stroke="#63b8ff" d="M303.91,-18.73C312.37,-18.58 321.24,-18.42 330.13,-18.26"/>
<polygon fill="#63b8ff" stroke="#63b8ff" points="329.9,-21.76 339.84,-18.08 329.78,-14.77 329.9,-21.76"/>
</a>
</g>
</g>
</g>
</svg>
