<?xml version="1.0" encoding="UTF-8" standalone="no"?>
<!DOCTYPE svg PUBLIC "-//W3C//DTD SVG 1.1//EN"
 "http://www.w3.org/Graphics/SVG/1.1/DTD/svg11.dtd">
<!-- Generated by graphviz version 12.2.0 (20241103.1931)
 -->
<!-- Title: ImGui::DataTypeApplyOp Pages: 1 -->
<svg width="581pt" height="243pt"
 viewBox="0.00 0.00 580.50 242.75" xmlns="http://www.w3.org/2000/svg" xmlns:xlink="http://www.w3.org/1999/xlink">
<g id="graph0" class="graph" transform="scale(1 1) rotate(0) translate(4 238.75)">
<title>ImGui::DataTypeApplyOp</title>
<!-- Node1 -->
<g id="Node000001" class="node">
<title>Node1</title>
<g id="a_Node000001"><a xlink:title=" ">
<polygon fill="#999999" stroke="#666666" points="572.5,-175.75 434.25,-175.75 434.25,-155 572.5,-155 572.5,-175.75"/>
<text text-anchor="middle" x="503.38" y="-162.25" font-family="Helvetica,sans-Serif" font-size="10.00">ImGui::DataTypeApplyOp</text>
</a>
</g>
</g>
<!-- Node2 -->
<g id="Node000002" class="node">
<title>Node2</title>
<g id="a_Node000002"><a xlink:href="namespaceImGui.html#afdb54540b7480872fbb746f64344b374" target="_top" xlink:title=" ">
<polygon fill="white" stroke="#666666" points="398.25,-175.75 292.25,-175.75 292.25,-155 398.25,-155 398.25,-175.75"/>
<text text-anchor="middle" x="345.25" y="-162.25" font-family="Helvetica,sans-Serif" font-size="10.00">ImGui::InputScalar</text>
</a>
</g>
</g>
<!-- Node1&#45;&gt;Node2 -->
<g id="edge1_Node000001_Node000002" class="edge">
<title>Node1&#45;&gt;Node2</title>
<g id="a_edge1_Node000001_Node000002"><a xlink:title=" ">
<path fill="none" stroke="#63b8ff" d="M422.5,-165.38C414.43,-165.38 406.39,-165.38 398.71,-165.38"/>
<polygon fill="#63b8ff" stroke="#63b8ff" points="422.38,-168.88 432.38,-165.38 422.38,-161.88 422.38,-168.88"/>
</a>
</g>
</g>
<!-- Node3 -->
<g id="Node000003" class="node">
<title>Node3</title>
<g id="a_Node000003"><a xlink:href="namespaceImGui.html#ad941c3cfa561ca35b674fd5802bcf870" target="_top" xlink:title=" ">
<polygon fill="white" stroke="#666666" points="254.75,-234.75 144.25,-234.75 144.25,-214 254.75,-214 254.75,-234.75"/>
<text text-anchor="middle" x="199.5" y="-221.25" font-family="Helvetica,sans-Serif" font-size="10.00">ImGui::InputDouble</text>
</a>
</g>
</g>
<!-- Node2&#45;&gt;Node3 -->
<g id="edge2_Node000002_Node000003" class="edge">
<title>Node2&#45;&gt;Node3</title>
<g id="a_edge2_Node000002_Node000003"><a xlink:title=" ">
<path fill="none" stroke="#63b8ff" d="M311.12,-180.74C294.73,-188.17 274.58,-197.04 256.25,-204.38 248.42,-207.51 239.89,-210.69 231.91,-213.56"/>
<polygon fill="#63b8ff" stroke="#63b8ff" points="312.26,-184.07 319.91,-176.73 309.36,-177.7 312.26,-184.07"/>
</a>
</g>
</g>
<!-- Node4 -->
<g id="Node000004" class="node">
<title>Node4</title>
<g id="a_Node000004"><a xlink:href="namespaceImGui.html#a36b86c9d7226f18c316400c83a904454" target="_top" xlink:title=" ">
<polygon fill="white" stroke="#666666" points="249.88,-195.75 149.12,-195.75 149.12,-175 249.88,-175 249.88,-195.75"/>
<text text-anchor="middle" x="199.5" y="-182.25" font-family="Helvetica,sans-Serif" font-size="10.00">ImGui::InputFloat</text>
</a>
</g>
</g>
<!-- Node2&#45;&gt;Node4 -->
<g id="edge3_Node000002_Node000004" class="edge">
<title>Node2&#45;&gt;Node4</title>
<g id="a_edge3_Node000002_Node000004"><a xlink:title=" ">
<path fill="none" stroke="#63b8ff" d="M280.57,-174.24C270.37,-175.65 259.94,-177.1 250.13,-178.47"/>
<polygon fill="#63b8ff" stroke="#63b8ff" points="281.02,-177.71 290.45,-172.86 280.06,-170.77 281.02,-177.71"/>
</a>
</g>
</g>
<!-- Node5 -->
<g id="Node000005" class="node">
<title>Node5</title>
<g id="a_Node000005"><a xlink:href="namespaceImGui.html#a36fc45a3c41a63ea9a983cc851752505" target="_top" xlink:title=" ">
<polygon fill="white" stroke="#666666" points="243.88,-156.75 155.12,-156.75 155.12,-136 243.88,-136 243.88,-156.75"/>
<text text-anchor="middle" x="199.5" y="-143.25" font-family="Helvetica,sans-Serif" font-size="10.00">ImGui::InputInt</text>
</a>
</g>
</g>
<!-- Node2&#45;&gt;Node5 -->
<g id="edge4_Node000002_Node000005" class="edge">
<title>Node2&#45;&gt;Node5</title>
<g id="a_edge4_Node000002_Node000005"><a xlink:title=" ">
<path fill="none" stroke="#63b8ff" d="M280.7,-156.98C268.31,-155.34 255.58,-153.66 244.02,-152.13"/>
<polygon fill="#63b8ff" stroke="#63b8ff" points="280.07,-160.42 290.45,-158.26 280.99,-153.48 280.07,-160.42"/>
</a>
</g>
</g>
<!-- Node6 -->
<g id="Node000006" class="node">
<title>Node6</title>
<g id="a_Node000006"><a xlink:href="namespaceImGui.html#afb17f0092027c09183df498834abace9" target="_top" xlink:title=" ">
<polygon fill="white" stroke="#666666" points="256.25,-117.75 142.75,-117.75 142.75,-97 256.25,-97 256.25,-117.75"/>
<text text-anchor="middle" x="199.5" y="-104.25" font-family="Helvetica,sans-Serif" font-size="10.00">ImGui::InputScalarN</text>
</a>
</g>
</g>
<!-- Node2&#45;&gt;Node6 -->
<g id="edge5_Node000002_Node000006" class="edge">
<title>Node2&#45;&gt;Node6</title>
<g id="a_edge5_Node000002_Node000006"><a xlink:title=" ">
<path fill="none" stroke="#63b8ff" d="M310.39,-150.16C294.12,-143 274.28,-134.49 256.25,-127.38 248.41,-124.28 239.87,-121.11 231.89,-118.24"/>
<polygon fill="#63b8ff" stroke="#63b8ff" points="308.57,-153.18 319.13,-154.03 311.4,-146.78 308.57,-153.18"/>
</a>
</g>
</g>
<!-- Node7 -->
<g id="Node000007" class="node">
<title>Node7</title>
<g id="a_Node000007"><a xlink:href="namespaceImGui.html#a854ba6decd4ae7e4b0980a9c71bfa47d" target="_top" xlink:title=" ">
<polygon fill="white" stroke="#666666" points="106.75,-215.75 0,-215.75 0,-195 106.75,-195 106.75,-215.75"/>
<text text-anchor="middle" x="53.38" y="-202.25" font-family="Helvetica,sans-Serif" font-size="10.00">ImGui::InputFloat2</text>
</a>
</g>
</g>
<!-- Node6&#45;&gt;Node7 -->
<g id="edge6_Node000006_Node000007" class="edge">
<title>Node6&#45;&gt;Node7</title>
<g id="a_edge6_Node000006_Node000007"><a xlink:title=" ">
<path fill="none" stroke="#63b8ff" d="M148.16,-123.5C146.27,-124.7 144.46,-125.99 142.75,-127.38 119.16,-146.45 130.15,-166.06 106.75,-185.38 102.32,-189.03 97.15,-192.06 91.82,-194.57"/>
<polygon fill="#63b8ff" stroke="#63b8ff" points="149.59,-126.7 156.74,-118.88 146.28,-120.54 149.59,-126.7"/>
</a>
</g>
</g>
<!-- Node8 -->
<g id="Node000008" class="node">
<title>Node8</title>
<g id="a_Node000008"><a xlink:href="namespaceImGui.html#a970a00fd1a4226c697ea5fb807fb62d8" target="_top" xlink:title=" ">
<polygon fill="white" stroke="#666666" points="106.75,-176.75 0,-176.75 0,-156 106.75,-156 106.75,-176.75"/>
<text text-anchor="middle" x="53.38" y="-163.25" font-family="Helvetica,sans-Serif" font-size="10.00">ImGui::InputFloat3</text>
</a>
</g>
</g>
<!-- Node6&#45;&gt;Node8 -->
<g id="edge7_Node000006_Node000008" class="edge">
<title>Node6&#45;&gt;Node8</title>
<g id="a_edge7_Node000006_Node000008"><a xlink:title=" ">
<path fill="none" stroke="#63b8ff" d="M155.24,-122.21C150.99,-123.87 146.76,-125.61 142.75,-127.38 126.19,-134.67 123.23,-138.91 106.75,-146.38 99.66,-149.59 91.88,-152.74 84.54,-155.57"/>
<polygon fill="#63b8ff" stroke="#63b8ff" points="156.23,-125.58 164.35,-118.78 153.76,-119.03 156.23,-125.58"/>
</a>
</g>
</g>
<!-- Node9 -->
<g id="Node000009" class="node">
<title>Node9</title>
<g id="a_Node000009"><a xlink:href="namespaceImGui.html#a69675d2e9780a0e5a7a372f936b64d49" target="_top" xlink:title=" ">
<polygon fill="white" stroke="#666666" points="106.75,-137.75 0,-137.75 0,-117 106.75,-117 106.75,-137.75"/>
<text text-anchor="middle" x="53.38" y="-124.25" font-family="Helvetica,sans-Serif" font-size="10.00">ImGui::InputFloat4</text>
</a>
</g>
</g>
<!-- Node6&#45;&gt;Node9 -->
<g id="edge8_Node000006_Node000009" class="edge">
<title>Node6&#45;&gt;Node9</title>
<g id="a_edge8_Node000006_Node000009"><a xlink:title=" ">
<path fill="none" stroke="#63b8ff" d="M130.99,-116.74C122.87,-117.87 114.68,-119.01 106.82,-120.1"/>
<polygon fill="#63b8ff" stroke="#63b8ff" points="131.44,-120.21 140.87,-115.37 130.48,-113.28 131.44,-120.21"/>
</a>
</g>
</g>
<!-- Node10 -->
<g id="Node000010" class="node">
<title>Node10</title>
<g id="a_Node000010"><a xlink:href="namespaceImGui.html#a83dfd2daacefb741e67d8d69821e1590" target="_top" xlink:title=" ">
<polygon fill="white" stroke="#666666" points="100.75,-98.75 6,-98.75 6,-78 100.75,-78 100.75,-98.75"/>
<text text-anchor="middle" x="53.38" y="-85.25" font-family="Helvetica,sans-Serif" font-size="10.00">ImGui::InputInt2</text>
</a>
</g>
</g>
<!-- Node6&#45;&gt;Node10 -->
<g id="edge9_Node000006_Node000010" class="edge">
<title>Node6&#45;&gt;Node10</title>
<g id="a_edge9_Node000006_Node000010"><a xlink:title=" ">
<path fill="none" stroke="#63b8ff" d="M131.27,-98.51C120.97,-97.15 110.53,-95.78 100.8,-94.5"/>
<polygon fill="#63b8ff" stroke="#63b8ff" points="130.49,-101.94 140.86,-99.78 131.41,-95 130.49,-101.94"/>
</a>
</g>
</g>
<!-- Node11 -->
<g id="Node000011" class="node">
<title>Node11</title>
<g id="a_Node000011"><a xlink:href="namespaceImGui.html#ab8e7466e5bdda70fefa551eb662dc3f5" target="_top" xlink:title=" ">
<polygon fill="white" stroke="#666666" points="100.75,-59.75 6,-59.75 6,-39 100.75,-39 100.75,-59.75"/>
<text text-anchor="middle" x="53.38" y="-46.25" font-family="Helvetica,sans-Serif" font-size="10.00">ImGui::InputInt3</text>
</a>
</g>
</g>
<!-- Node6&#45;&gt;Node11 -->
<g id="edge10_Node000006_Node000011" class="edge">
<title>Node6&#45;&gt;Node11</title>
<g id="a_edge10_Node000006_Node000011"><a xlink:title=" ">
<path fill="none" stroke="#63b8ff" d="M162.36,-92.13C145.5,-85.1 125.15,-76.7 106.75,-69.38 99.15,-66.35 90.9,-63.16 83.25,-60.23"/>
<polygon fill="#63b8ff" stroke="#63b8ff" points="160.9,-95.32 171.48,-95.95 163.6,-88.86 160.9,-95.32"/>
</a>
</g>
</g>
<!-- Node12 -->
<g id="Node000012" class="node">
<title>Node12</title>
<g id="a_Node000012"><a xlink:href="namespaceImGui.html#a3a57668b83f7a99d295f94baa71add0a" target="_top" xlink:title=" ">
<polygon fill="white" stroke="#666666" points="100.75,-20.75 6,-20.75 6,0 100.75,0 100.75,-20.75"/>
<text text-anchor="middle" x="53.38" y="-7.25" font-family="Helvetica,sans-Serif" font-size="10.00">ImGui::InputInt4</text>
</a>
</g>
</g>
<!-- Node6&#45;&gt;Node12 -->
<g id="edge11_Node000006_Node000012" class="edge">
<title>Node6&#45;&gt;Node12</title>
<g id="a_edge11_Node000006_Node000012"><a xlink:title=" ">
<path fill="none" stroke="#63b8ff" d="M180.38,-88.97C162.81,-71.94 134.79,-46.86 106.75,-30.38 100.88,-26.92 94.3,-23.86 87.84,-21.24"/>
<polygon fill="#63b8ff" stroke="#63b8ff" points="177.46,-91 187.03,-95.54 182.38,-86.02 177.46,-91"/>
</a>
</g>
</g>
</g>
</svg>
