<?xml version="1.0" encoding="UTF-8" standalone="no"?>
<!DOCTYPE svg PUBLIC "-//W3C//DTD SVG 1.1//EN"
 "http://www.w3.org/Graphics/SVG/1.1/DTD/svg11.dtd">
<!-- Generated by graphviz version 2.43.0 (0)
 -->
<!-- Title: steppable::__internals::symbols::makeSuperscript Pages: 1 -->
<!--zoomable 400 -->
<svg id="main" version="1.1" xmlns="http://www.w3.org/2000/svg" xmlns:xlink="http://www.w3.org/1999/xlink" xml:space="preserve" onload="init(evt)">
<style type="text/css"><![CDATA[
.edge:hover path { stroke: red; }
.edge:hover polygon { stroke: red; fill: red; }
]]></style>
<script type="text/javascript"><![CDATA[
var edges = document.getElementsByTagName('g');
if (edges && edges.length) {
  for (var i=0;i<edges.length;i++) {
    if (edges[i].id.substr(0,4)=='edge') {
      edges[i].setAttribute('class','edge');
    }
  }
}
]]></script>
        <defs>
                <circle id="rim" cx="0" cy="0" r="7"/>
                <circle id="rim2" cx="0" cy="0" r="3.5"/>
                <g id="zoomPlus">
                        <use xlink:href="#rim" fill="#404040">
                                <set attributeName="fill" to="#808080" begin="zoomplus.mouseover" end="zoomplus.mouseout"/>
                        </use>
                        <path d="M-4,0h8M0,-4v8" fill="none" stroke="white" stroke-width="1.5" pointer-events="none"/>
                </g>
                <g id="zoomMin">
                        <use xlink:href="#rim" fill="#404040">
                                <set attributeName="fill" to="#808080" begin="zoomminus.mouseover" end="zoomminus.mouseout"/>
                        </use>
                        <path d="M-4,0h8" fill="none" stroke="white" stroke-width="1.5" pointer-events="none"/>
                </g>
                <g id="dirArrow">
                        <path fill="none" stroke="white" stroke-width="1.5" d="M0,-3.0v7 M-2.5,-0.5L0,-3.0L2.5,-0.5"/>
                </g>
               <g id="resetDef">
                       <use xlink:href="#rim2" fill="#404040">
                               <set attributeName="fill" to="#808080" begin="reset.mouseover" end="reset.mouseout"/>
                       </use>
               </g>
        </defs>

<script type="text/javascript">
var viewWidth = 1197;
var viewHeight = 400;
var sectionId = 'dynsection-3';
</script>
<script xlink:href="svgpan.js"/>
<svg id="graph" class="graph">
<g id="viewport">
<title>steppable::__internals::symbols::makeSuperscript</title>
<!-- Node1 -->
<g id="node1" class="node">
<title>Node1</title>
<g id="a_node1"><a xlink:title="Create a superscript string from a normal string.">
<polygon fill="#bfbfbf" stroke="black" points="1037,-287.5 1037,-317.5 1189,-317.5 1189,-287.5 1037,-287.5"/>
<text text-anchor="start" x="1045" y="-305.5" font-family="Helvetica,sans-Serif" font-size="10.00">steppable::__internals</text>
<text text-anchor="middle" x="1113" y="-294.5" font-family="Helvetica,sans-Serif" font-size="10.00">::symbols::makeSuperscript</text>
</a>
</g>
</g>
<!-- Node2 -->
<g id="node2" class="node">
<title>Node2</title>
<g id="a_node2"><a xlink:href="decimalConvertReport_8cpp.html#a7a30eeca49cdc355732971d0aad6d244" target="_top" xlink:title=" ">
<polygon fill="none" stroke="black" points="743,-342 743,-361 889,-361 889,-342 743,-342"/>
<text text-anchor="middle" x="816" y="-349" font-family="Helvetica,sans-Serif" font-size="10.00">reportDecimalConvertStep</text>
</a>
</g>
</g>
<!-- Node1&#45;&gt;Node2 -->
<g id="edge1" class="edge">
<title>Node1&#45;&gt;Node2</title>
<path fill="none" stroke="midnightblue" d="M1026.85,-316.64C977.89,-324.78 917.71,-334.77 874.37,-341.97"/>
<polygon fill="midnightblue" stroke="midnightblue" points="1027.5,-320.08 1036.8,-314.99 1026.36,-313.18 1027.5,-320.08"/>
</g>
<!-- Node5 -->
<g id="node5" class="node">
<title>Node5</title>
<g id="a_node5"><a xlink:href="powerReport_8cpp.html#afff5f8aa771cf432836ef03f6f442dae" target="_top" xlink:title="Reports a power operation.">
<polygon fill="none" stroke="black" points="925,-274 925,-293 1001,-293 1001,-274 925,-274"/>
<text text-anchor="middle" x="963" y="-281" font-family="Helvetica,sans-Serif" font-size="10.00">reportPower</text>
</a>
</g>
</g>
<!-- Node1&#45;&gt;Node5 -->
<g id="edge4" class="edge">
<title>Node1&#45;&gt;Node5</title>
<path fill="none" stroke="midnightblue" d="M1026.66,-291.54C1017.83,-290.41 1009.22,-289.31 1001.35,-288.29"/>
<polygon fill="midnightblue" stroke="midnightblue" points="1026.33,-295.03 1036.7,-292.83 1027.23,-288.09 1026.33,-295.03"/>
</g>
<!-- Node3 -->
<g id="node3" class="node">
<title>Node3</title>
<g id="a_node3"><a xlink:href="namespacesteppable_1_1____internals_1_1arithmetic.html#afc4c4f319dadbb5b1ff481132f008374" target="_top" xlink:title="Converts a string representation of a number from one base to another.">
<polygon fill="none" stroke="black" points="536,-361.5 536,-391.5 692,-391.5 692,-361.5 536,-361.5"/>
<text text-anchor="start" x="544" y="-379.5" font-family="Helvetica,sans-Serif" font-size="10.00">steppable::__internals</text>
<text text-anchor="middle" x="614" y="-368.5" font-family="Helvetica,sans-Serif" font-size="10.00">::arithmetic::decimalConvert</text>
</a>
</g>
</g>
<!-- Node2&#45;&gt;Node3 -->
<g id="edge2" class="edge">
<title>Node2&#45;&gt;Node3</title>
<path fill="none" stroke="midnightblue" d="M732.65,-361.79C719.26,-363.47 705.43,-365.2 692.16,-366.85"/>
<polygon fill="midnightblue" stroke="midnightblue" points="733.31,-365.24 742.8,-360.53 732.44,-358.29 733.31,-365.24"/>
</g>
<!-- Node4 -->
<g id="node4" class="node">
<title>Node4</title>
<g id="a_node4"><a xlink:href="decimalConvert_8cpp.html#ac2c7bcd6d73ca32ee42312d0fa0b1aa9" target="_top" xlink:title=" ">
<polygon fill="none" stroke="black" points="402.5,-367 402.5,-386 443.5,-386 443.5,-367 402.5,-367"/>
<text text-anchor="middle" x="423" y="-374" font-family="Helvetica,sans-Serif" font-size="10.00">main</text>
</a>
</g>
</g>
<!-- Node3&#45;&gt;Node4 -->
<g id="edge3" class="edge">
<title>Node3&#45;&gt;Node4</title>
<path fill="none" stroke="midnightblue" d="M525.52,-376.5C494.86,-376.5 463.22,-376.5 443.58,-376.5"/>
<polygon fill="midnightblue" stroke="midnightblue" points="525.85,-380 535.85,-376.5 525.85,-373 525.85,-380"/>
</g>
<!-- Node6 -->
<g id="node6" class="node">
<title>Node6</title>
<g id="a_node6"><a xlink:href="namespacesteppable_1_1____internals_1_1arithmetic.html#a50acfa1ad06ce385943ddd207146c9e0" target="_top" xlink:title="Raises a string representation of a number to a power.">
<polygon fill="none" stroke="black" points="754,-268.5 754,-298.5 878,-298.5 878,-268.5 754,-268.5"/>
<text text-anchor="start" x="762" y="-286.5" font-family="Helvetica,sans-Serif" font-size="10.00">steppable::__internals</text>
<text text-anchor="middle" x="816" y="-275.5" font-family="Helvetica,sans-Serif" font-size="10.00">::arithmetic::power</text>
</a>
</g>
</g>
<!-- Node5&#45;&gt;Node6 -->
<g id="edge5" class="edge">
<title>Node5&#45;&gt;Node6</title>
<path fill="none" stroke="midnightblue" d="M914.34,-283.5C902.76,-283.5 890.22,-283.5 878.12,-283.5"/>
<polygon fill="midnightblue" stroke="midnightblue" points="914.66,-287 924.66,-283.5 914.66,-280 914.66,-287"/>
</g>
<!-- Node6&#45;&gt;Node3 -->
<g id="edge6" class="edge">
<title>Node6&#45;&gt;Node3</title>
<path fill="none" stroke="midnightblue" d="M784.52,-304.49C758.42,-322.18 722.66,-345.66 707,-352.5 699.29,-355.87 690.99,-358.85 682.66,-361.46"/>
<polygon fill="midnightblue" stroke="midnightblue" points="786.66,-307.27 792.95,-298.75 782.72,-301.48 786.66,-307.27"/>
</g>
<!-- Node7 -->
<g id="node7" class="node">
<title>Node7</title>
<g id="a_node7"><a xlink:href="namespacesteppable_1_1____internals_1_1arithmetic.html#aa150ef39a272f7228ae239679247fab3" target="_top" xlink:title="Determines the scale of the quotient of division.">
<polygon fill="none" stroke="black" points="521,-224.5 521,-254.5 707,-254.5 707,-224.5 521,-224.5"/>
<text text-anchor="start" x="529" y="-242.5" font-family="Helvetica,sans-Serif" font-size="10.00">steppable::__internals</text>
<text text-anchor="middle" x="614" y="-231.5" font-family="Helvetica,sans-Serif" font-size="10.00">::arithmetic::determineResultScale</text>
</a>
</g>
</g>
<!-- Node6&#45;&gt;Node7 -->
<g id="edge7" class="edge">
<title>Node6&#45;&gt;Node7</title>
<path fill="none" stroke="midnightblue" d="M744.07,-267.9C724.35,-263.56 702.97,-258.85 683.4,-254.55"/>
<polygon fill="midnightblue" stroke="midnightblue" points="743.39,-271.33 753.91,-270.06 744.89,-264.49 743.39,-271.33"/>
</g>
<!-- Node12 -->
<g id="node12" class="node">
<title>Node12</title>
<g id="a_node12"><a xlink:href="bindings_8cpp.html#af434d7fc3eaa11448eece320b8a7d90e" target="_top" xlink:title=" ">
<polygon fill="none" stroke="black" points="18.5,-88 18.5,-107 97.5,-107 97.5,-88 18.5,-88"/>
<text text-anchor="middle" x="58" y="-95" font-family="Helvetica,sans-Serif" font-size="10.00">NB_MODULE</text>
</a>
</g>
</g>
<!-- Node6&#45;&gt;Node12 -->
<g id="edge20" class="edge">
<title>Node6&#45;&gt;Node12</title>
<path fill="none" stroke="midnightblue" d="M743.78,-290.09C593.45,-302.63 249.54,-323.72 152,-264.5 121.36,-245.9 76.22,-139.8 62.86,-107.09"/>
<polygon fill="midnightblue" stroke="midnightblue" points="744.16,-293.57 753.83,-289.24 743.57,-286.59 744.16,-293.57"/>
</g>
<!-- Node17 -->
<g id="node17" class="node">
<title>Node17</title>
<g id="a_node17"><a xlink:href="power_8cpp.html#a065a3ee9a7ec43a06ab2fddbc3019a17" target="_top" xlink:title=" ">
<polygon fill="none" stroke="black" points="593.5,-186 593.5,-205 634.5,-205 634.5,-186 593.5,-186"/>
<text text-anchor="middle" x="614" y="-193" font-family="Helvetica,sans-Serif" font-size="10.00">main</text>
</a>
</g>
</g>
<!-- Node6&#45;&gt;Node17 -->
<g id="edge19" class="edge">
<title>Node6&#45;&gt;Node17</title>
<path fill="none" stroke="midnightblue" d="M787.32,-262.26C766.33,-247.13 736.2,-227.44 707,-215.5 683.09,-205.73 653.65,-200.4 634.61,-197.75"/>
<polygon fill="midnightblue" stroke="midnightblue" points="785.32,-265.13 795.45,-268.22 789.45,-259.48 785.32,-265.13"/>
</g>
<!-- Node18 -->
<g id="node18" class="node">
<title>Node18</title>
<g id="a_node18"><a xlink:href="classsteppable_1_1Number.html#aed9d4c238a2876ca951187b6f6173fd9" target="_top" xlink:title="Raises the number to a power.">
<polygon fill="none" stroke="black" points="556,-312.5 556,-342.5 672,-342.5 672,-312.5 556,-312.5"/>
<text text-anchor="start" x="564" y="-330.5" font-family="Helvetica,sans-Serif" font-size="10.00">steppable::Number::</text>
<text text-anchor="middle" x="614" y="-319.5" font-family="Helvetica,sans-Serif" font-size="10.00">operator^</text>
</a>
</g>
</g>
<!-- Node6&#45;&gt;Node18 -->
<g id="edge21" class="edge">
<title>Node6&#45;&gt;Node18</title>
<path fill="none" stroke="midnightblue" d="M743.99,-299.12C720.49,-304.29 694.65,-309.98 672.3,-314.89"/>
<polygon fill="midnightblue" stroke="midnightblue" points="744.89,-302.51 753.91,-296.94 743.39,-295.67 744.89,-302.51"/>
</g>
<!-- Node8 -->
<g id="node8" class="node">
<title>Node8</title>
<g id="a_node8"><a xlink:href="namespacesteppable_1_1____internals_1_1arithmetic.html#a26194ae8ddb44afb942fbf8335ae1730" target="_top" xlink:title="Divides a string representation of a number by another string representation of a number.">
<polygon fill="none" stroke="black" points="361,-134.5 361,-164.5 485,-164.5 485,-134.5 361,-134.5"/>
<text text-anchor="start" x="369" y="-152.5" font-family="Helvetica,sans-Serif" font-size="10.00">steppable::__internals</text>
<text text-anchor="middle" x="423" y="-141.5" font-family="Helvetica,sans-Serif" font-size="10.00">::arithmetic::divide</text>
</a>
</g>
</g>
<!-- Node7&#45;&gt;Node8 -->
<g id="edge8" class="edge">
<title>Node7&#45;&gt;Node8</title>
<path fill="none" stroke="midnightblue" d="M537.59,-221.19C531.89,-219.15 526.31,-216.92 521,-214.5 491.67,-201.13 461.36,-179.29 442.59,-164.66"/>
<polygon fill="midnightblue" stroke="midnightblue" points="536.64,-224.56 547.23,-224.45 538.88,-217.93 536.64,-224.56"/>
</g>
<!-- Node8&#45;&gt;Node5 -->
<g id="edge17" class="edge">
<title>Node8&#45;&gt;Node5</title>
<path fill="none" stroke="midnightblue" d="M495.21,-150.37C553.05,-152.49 636.33,-158.74 707,-176.5 800.36,-199.96 903.9,-252.31 944.4,-273.9"/>
<polygon fill="midnightblue" stroke="midnightblue" points="495.18,-146.87 485.07,-150.03 494.95,-153.86 495.18,-146.87"/>
</g>
<!-- Node9 -->
<g id="node9" class="node">
<title>Node9</title>
<g id="a_node9"><a xlink:href="namespacesteppable_1_1____internals_1_1arithmetic.html#a7e727b70fed2eba6324a6e41d1a1fe03" target="_top" xlink:title=" ">
<polygon fill="none" stroke="black" points="168.5,-224.5 168.5,-254.5 308.5,-254.5 308.5,-224.5 168.5,-224.5"/>
<text text-anchor="start" x="176.5" y="-242.5" font-family="Helvetica,sans-Serif" font-size="10.00">steppable::__internals</text>
<text text-anchor="middle" x="238.5" y="-231.5" font-family="Helvetica,sans-Serif" font-size="10.00">::arithmetic::baseConvert</text>
</a>
</g>
</g>
<!-- Node8&#45;&gt;Node9 -->
<g id="edge9" class="edge">
<title>Node8&#45;&gt;Node9</title>
<path fill="none" stroke="midnightblue" d="M395.72,-170.85C376.97,-185.19 350.62,-203.58 325,-215.5 317.87,-218.82 310.19,-221.77 302.46,-224.36"/>
<polygon fill="midnightblue" stroke="midnightblue" points="398.03,-173.49 403.77,-164.58 393.73,-167.96 398.03,-173.49"/>
</g>
<!-- Node11 -->
<g id="node11" class="node">
<title>Node11</title>
<g id="a_node11"><a xlink:href="namespacesteppable_1_1____internals_1_1arithmetic.html#ac9102075acd398b3bdf388f6cc2ef978" target="_top" xlink:title=" ">
<polygon fill="none" stroke="black" points="152,-0.5 152,-30.5 325,-30.5 325,-0.5 152,-0.5"/>
<text text-anchor="start" x="160" y="-18.5" font-family="Helvetica,sans-Serif" font-size="10.00">steppable::__internals</text>
<text text-anchor="middle" x="238.5" y="-7.5" font-family="Helvetica,sans-Serif" font-size="10.00">::arithmetic::divideWithQuotient</text>
</a>
</g>
</g>
<!-- Node8&#45;&gt;Node11 -->
<g id="edge11" class="edge">
<title>Node8&#45;&gt;Node11</title>
<path fill="none" stroke="midnightblue" d="M406.99,-125.93C390,-101.14 360.08,-62.69 325,-40.5 318.86,-36.61 312.09,-33.31 305.13,-30.51"/>
<polygon fill="midnightblue" stroke="midnightblue" points="404.18,-128.03 412.65,-134.4 410,-124.14 404.18,-128.03"/>
</g>
<!-- Node8&#45;&gt;Node12 -->
<g id="edge15" class="edge">
<title>Node8&#45;&gt;Node12</title>
<path fill="none" stroke="midnightblue" d="M375.34,-130.92C359.59,-125.38 341.75,-119.89 325,-116.5 245.36,-100.39 149.9,-97.44 97.74,-97.18"/>
<polygon fill="midnightblue" stroke="midnightblue" points="374.25,-134.25 384.85,-134.36 376.63,-127.67 374.25,-134.25"/>
</g>
<!-- Node14 -->
<g id="node14" class="node">
<title>Node14</title>
<g id="a_node14"><a xlink:href="division_8cpp.html#a065a3ee9a7ec43a06ab2fddbc3019a17" target="_top" xlink:title=" ">
<polygon fill="none" stroke="black" points="218,-50 218,-69 259,-69 259,-50 218,-50"/>
<text text-anchor="middle" x="238.5" y="-57" font-family="Helvetica,sans-Serif" font-size="10.00">main</text>
</a>
</g>
</g>
<!-- Node8&#45;&gt;Node14 -->
<g id="edge14" class="edge">
<title>Node8&#45;&gt;Node14</title>
<path fill="none" stroke="midnightblue" d="M395.72,-128.15C376.97,-113.81 350.62,-95.42 325,-83.5 303.47,-73.48 276.91,-66.83 259.15,-63.12"/>
<polygon fill="midnightblue" stroke="midnightblue" points="393.73,-131.04 403.77,-134.42 398.03,-125.51 393.73,-131.04"/>
</g>
<!-- Node15 -->
<g id="node15" class="node">
<title>Node15</title>
<g id="a_node15"><a xlink:href="classsteppable_1_1Number.html#aa66cc95056779a87d04caaf621b662bb" target="_top" xlink:title="Divides two numbers.">
<polygon fill="none" stroke="black" points="180.5,-175.5 180.5,-205.5 296.5,-205.5 296.5,-175.5 180.5,-175.5"/>
<text text-anchor="start" x="188.5" y="-193.5" font-family="Helvetica,sans-Serif" font-size="10.00">steppable::Number::</text>
<text text-anchor="middle" x="238.5" y="-182.5" font-family="Helvetica,sans-Serif" font-size="10.00">operator/</text>
</a>
</g>
</g>
<!-- Node8&#45;&gt;Node15 -->
<g id="edge16" class="edge">
<title>Node8&#45;&gt;Node15</title>
<path fill="none" stroke="midnightblue" d="M351.11,-165.43C333.11,-169.47 313.99,-173.76 296.76,-177.64"/>
<polygon fill="midnightblue" stroke="midnightblue" points="351.99,-168.82 360.98,-163.21 350.45,-161.99 351.99,-168.82"/>
</g>
<!-- Node16 -->
<g id="node16" class="node">
<title>Node16</title>
<g id="a_node16"><a xlink:href="classsteppable_1_1Fraction.html#a9cf64d847c268d9334775c572ef75dfa" target="_top" xlink:title="Simplifies a fraction. This function simplifies the fraction by dividing the top and bottom component...">
<polygon fill="none" stroke="black" points="183.5,-126.5 183.5,-156.5 293.5,-156.5 293.5,-126.5 183.5,-126.5"/>
<text text-anchor="start" x="191.5" y="-144.5" font-family="Helvetica,sans-Serif" font-size="10.00">steppable::Fraction</text>
<text text-anchor="middle" x="238.5" y="-133.5" font-family="Helvetica,sans-Serif" font-size="10.00">::simplify</text>
</a>
</g>
</g>
<!-- Node8&#45;&gt;Node16 -->
<g id="edge18" class="edge">
<title>Node8&#45;&gt;Node16</title>
<path fill="none" stroke="midnightblue" d="M350.87,-146.38C331.87,-145.55 311.65,-144.66 293.72,-143.88"/>
<polygon fill="midnightblue" stroke="midnightblue" points="350.83,-149.88 360.98,-146.82 351.14,-142.89 350.83,-149.88"/>
</g>
<!-- Node10 -->
<g id="node10" class="node">
<title>Node10</title>
<g id="a_node10"><a xlink:href="baseConvert_8cpp.html#ae66f6b31b5ad750f1fe042a706a4e3d4" target="_top" xlink:title=" ">
<polygon fill="none" stroke="black" points="37.5,-230 37.5,-249 78.5,-249 78.5,-230 37.5,-230"/>
<text text-anchor="middle" x="58" y="-237" font-family="Helvetica,sans-Serif" font-size="10.00">main</text>
</a>
</g>
</g>
<!-- Node9&#45;&gt;Node10 -->
<g id="edge10" class="edge">
<title>Node9&#45;&gt;Node10</title>
<path fill="none" stroke="midnightblue" d="M158.2,-239.5C128.9,-239.5 98.14,-239.5 78.79,-239.5"/>
<polygon fill="midnightblue" stroke="midnightblue" points="158.49,-243 168.49,-239.5 158.49,-236 158.49,-243"/>
</g>
<!-- Node11&#45;&gt;Node12 -->
<g id="edge12" class="edge">
<title>Node11&#45;&gt;Node12</title>
<path fill="none" stroke="midnightblue" d="M168.69,-33.86C162.97,-35.92 157.34,-38.13 152,-40.5 121.88,-53.85 89.74,-75.39 72.24,-87.81"/>
<polygon fill="midnightblue" stroke="midnightblue" points="170.02,-37.11 178.35,-30.56 167.76,-30.48 170.02,-37.11"/>
</g>
<!-- Node13 -->
<g id="node13" class="node">
<title>Node13</title>
<g id="a_node13"><a xlink:href="classsteppable_1_1Number.html#a6e98fb3dedfd70f3956e9d299733a58d" target="_top" xlink:title="Calculates the remainder of two numbers. (Modulus)">
<polygon fill="none" stroke="black" points="0,-0.5 0,-30.5 116,-30.5 116,-0.5 0,-0.5"/>
<text text-anchor="start" x="8" y="-18.5" font-family="Helvetica,sans-Serif" font-size="10.00">steppable::Number::</text>
<text text-anchor="middle" x="58" y="-7.5" font-family="Helvetica,sans-Serif" font-size="10.00">operator%</text>
</a>
</g>
</g>
<!-- Node11&#45;&gt;Node13 -->
<g id="edge13" class="edge">
<title>Node11&#45;&gt;Node13</title>
<path fill="none" stroke="midnightblue" d="M141.64,-15.5C132.91,-15.5 124.26,-15.5 116.04,-15.5"/>
<polygon fill="midnightblue" stroke="midnightblue" points="141.91,-19 151.91,-15.5 141.91,-12 141.91,-19"/>
</g>
</g>
</svg>
        <g id="navigator" transform="translate(0 0)" fill="#404254">
                <rect fill="#f2f5e9" fill-opacity="0.5" stroke="#606060" stroke-width=".5" x="0" y="0" width="60" height="60"/>
                <use id="zoomplus" xlink:href="#zoomPlus" x="17" y="9" onmousedown="handleZoom(evt,'in')"/>
                <use id="zoomminus" xlink:href="#zoomMin" x="42" y="9" onmousedown="handleZoom(evt,'out')"/>
                <use id="reset" xlink:href="#resetDef" x="30" y="36" onmousedown="handleReset()"/>
                <g id="arrowUp" xlink:href="#dirArrow" transform="translate(30 24)" onmousedown="handlePan(0,-1)">
                  <use xlink:href="#rim" fill="#404040">
                        <set attributeName="fill" to="#808080" begin="arrowUp.mouseover" end="arrowUp.mouseout"/>
                  </use>
                  <path fill="none" stroke="white" stroke-width="1.5" d="M0,-3.0v7 M-2.5,-0.5L0,-3.0L2.5,-0.5"/>
                </g>
                <g id="arrowRight" xlink:href="#dirArrow" transform="rotate(90) translate(36 -43)" onmousedown="handlePan(1,0)">
                  <use xlink:href="#rim" fill="#404040">
                        <set attributeName="fill" to="#808080" begin="arrowRight.mouseover" end="arrowRight.mouseout"/>
                  </use>
                  <path fill="none" stroke="white" stroke-width="1.5" d="M0,-3.0v7 M-2.5,-0.5L0,-3.0L2.5,-0.5"/>
                </g>
                <g id="arrowDown" xlink:href="#dirArrow" transform="rotate(180) translate(-30 -48)" onmousedown="handlePan(0,1)">
                  <use xlink:href="#rim" fill="#404040">
                        <set attributeName="fill" to="#808080" begin="arrowDown.mouseover" end="arrowDown.mouseout"/>
                  </use>
                  <path fill="none" stroke="white" stroke-width="1.5" d="M0,-3.0v7 M-2.5,-0.5L0,-3.0L2.5,-0.5"/>
                </g>
                <g id="arrowLeft" xlink:href="#dirArrow" transform="rotate(270) translate(-36 17)" onmousedown="handlePan(-1,0)">
                  <use xlink:href="#rim" fill="#404040">
                        <set attributeName="fill" to="#808080" begin="arrowLeft.mouseover" end="arrowLeft.mouseout"/>
                  </use>
                  <path fill="none" stroke="white" stroke-width="1.5" d="M0,-3.0v7 M-2.5,-0.5L0,-3.0L2.5,-0.5"/>
                </g>
        </g>
        <svg viewBox="0 0 15 15" width="100%" height="30px" preserveAspectRatio="xMaxYMin meet">
         <g id="arrow_out" transform="scale(0.3 0.3)">
          <a xlink:href="namespacesteppable_1_1____internals_1_1symbols_a746f88878c7cf9b2390e5836ff30ef40_icgraph_org.svg" target="_base">
           <rect id="button" ry="5" rx="5" y="6" x="6" height="38" width="38"
                fill="#f2f5e9" fill-opacity="0.5" stroke="#606060" stroke-width="1.0"/>
           <path id="arrow"
             d="M 11.500037,31.436501 C 11.940474,20.09759 22.043105,11.32322 32.158766,21.979434 L 37.068811,17.246167 C 37.068811,17.246167 37.088388,32 37.088388,32 L 22.160133,31.978069 C 22.160133,31.978069 26.997745,27.140456 26.997745,27.140456 C 18.528582,18.264221 13.291696,25.230495 11.500037,31.436501 z"
             style="fill:#404040;"/>
          </a>
         </g>
        </svg>
</svg>
