<?xml version="1.0" encoding="UTF-8" standalone="no"?>
<!DOCTYPE svg PUBLIC "-//W3C//DTD SVG 1.1//EN"
 "http://www.w3.org/Graphics/SVG/1.1/DTD/svg11.dtd">
<!-- Generated by graphviz version 12.0.0 (20240704.0754)
 -->
<!-- Title: ImGui::DebugNodeDrawCmdShowMeshAndBoundingBox Pages: 1 -->
<svg width="1331pt" height="230pt"
 viewBox="0.00 0.00 1331.25 230.12" xmlns="http://www.w3.org/2000/svg" xmlns:xlink="http://www.w3.org/1999/xlink">
<g id="graph0" class="graph" transform="scale(1 1) rotate(0) translate(4 226.12)">
<title>ImGui::DebugNodeDrawCmdShowMeshAndBoundingBox</title>
<!-- Node1 -->
<g id="Node000001" class="node">
<title>Node1</title>
<g id="a_Node000001"><a xlink:title=" ">
<polygon fill="#999999" stroke="#666666" points="1323.25,-190.5 1140.75,-190.5 1140.75,-157 1323.25,-157 1323.25,-190.5"/>
<text text-anchor="start" x="1148.75" y="-177" font-family="Helvetica,sans-Serif" font-size="10.00">ImGui::DebugNodeDrawCmdShow</text>
<text text-anchor="middle" x="1232" y="-164.25" font-family="Helvetica,sans-Serif" font-size="10.00">MeshAndBoundingBox</text>
</a>
</g>
</g>
<!-- Node2 -->
<g id="Node000002" class="node">
<title>Node2</title>
<g id="a_Node000002"><a xlink:href="namespaceImGui.html#af7b5e35566da44ac1ea8a7e1b9d9d574" target="_top" xlink:title=" ">
<polygon fill="white" stroke="#666666" points="1104.75,-184.12 953.75,-184.12 953.75,-163.38 1104.75,-163.38 1104.75,-184.12"/>
<text text-anchor="middle" x="1029.25" y="-170.62" font-family="Helvetica,sans-Serif" font-size="10.00">ImGui::DebugNodeDrawList</text>
</a>
</g>
</g>
<!-- Node1&#45;&gt;Node2 -->
<g id="edge1_Node000001_Node000002" class="edge">
<title>Node1&#45;&gt;Node2</title>
<g id="a_edge1_Node000001_Node000002"><a xlink:title=" ">
<path fill="none" stroke="#63b8ff" d="M1129,-173.75C1120.99,-173.75 1112.99,-173.75 1105.21,-173.75"/>
<polygon fill="#63b8ff" stroke="#63b8ff" points="1128.8,-177.25 1138.8,-173.75 1128.8,-170.25 1128.8,-177.25"/>
</a>
</g>
</g>
<!-- Node3 -->
<g id="Node000003" class="node">
<title>Node3</title>
<g id="a_Node000003"><a xlink:href="namespaceImGui.html#aa5e5f50f28c04a26264c0943c7281171" target="_top" xlink:title=" ">
<polygon fill="white" stroke="#666666" points="525.38,-222.12 373.62,-222.12 373.62,-201.38 525.38,-201.38 525.38,-222.12"/>
<text text-anchor="middle" x="449.5" y="-208.62" font-family="Helvetica,sans-Serif" font-size="10.00">ImGui::DebugNodeViewport</text>
</a>
</g>
</g>
<!-- Node2&#45;&gt;Node3 -->
<g id="edge2_Node000002_Node000003" class="edge">
<title>Node2&#45;&gt;Node3</title>
<g id="a_edge2_Node000002_Node000003"><a xlink:title=" ">
<path fill="none" stroke="#63b8ff" d="M942.21,-185.29C933.95,-186.2 925.7,-187.04 917.75,-187.75 779.6,-200.03 617.87,-206.61 525.48,-209.62"/>
<polygon fill="#63b8ff" stroke="#63b8ff" points="942.4,-188.79 951.93,-184.17 941.6,-181.83 942.4,-188.79"/>
</a>
</g>
</g>
<!-- Node4 -->
<g id="Node000004" class="node">
<title>Node4</title>
<g id="a_Node000004"><a xlink:href="namespaceImGui.html#afe7a28c6eb52fff3cc27d5a698fea4ff" target="_top" xlink:title=" ">
<polygon fill="white" stroke="#666666" points="334.25,-128.12 181.75,-128.12 181.75,-107.38 334.25,-107.38 334.25,-128.12"/>
<text text-anchor="middle" x="258" y="-114.62" font-family="Helvetica,sans-Serif" font-size="10.00">ImGui::ShowMetricsWindow</text>
</a>
</g>
</g>
<!-- Node2&#45;&gt;Node4 -->
<g id="edge18_Node000002_Node000004" class="edge">
<title>Node2&#45;&gt;Node4</title>
<g id="a_edge18_Node000002_Node000004"><a xlink:title=" ">
<path fill="none" stroke="#63b8ff" d="M942.4,-179.18C816.01,-185.4 572.89,-190.57 370.25,-154.75 339.98,-149.4 306.72,-137.49 284.52,-128.62"/>
<polygon fill="#63b8ff" stroke="#63b8ff" points="942.2,-182.7 952.01,-178.69 941.85,-175.71 942.2,-182.7"/>
</a>
</g>
</g>
<!-- Node6 -->
<g id="Node000006" class="node">
<title>Node6</title>
<g id="a_Node000006"><a xlink:href="namespaceImGui.html#afcb602554925c5409977f0fb39f77e5d" target="_top" xlink:title=" ">
<polygon fill="white" stroke="#666666" points="917.75,-109.12 770.5,-109.12 770.5,-88.38 917.75,-88.38 917.75,-109.12"/>
<text text-anchor="middle" x="844.12" y="-95.62" font-family="Helvetica,sans-Serif" font-size="10.00">ImGui::DebugNodeWindow</text>
</a>
</g>
</g>
<!-- Node2&#45;&gt;Node6 -->
<g id="edge5_Node000002_Node000006" class="edge">
<title>Node2&#45;&gt;Node6</title>
<g id="a_edge5_Node000002_Node000006"><a xlink:title=" ">
<path fill="none" stroke="#63b8ff" d="M991.6,-158.74C956.12,-144.21 903.18,-122.53 871.61,-109.6"/>
<polygon fill="#63b8ff" stroke="#63b8ff" points="990.03,-161.88 1000.61,-162.43 992.68,-155.4 990.03,-161.88"/>
</a>
</g>
</g>
<!-- Node3&#45;&gt;Node4 -->
<g id="edge3_Node000003_Node000004" class="edge">
<title>Node3&#45;&gt;Node4</title>
<g id="a_edge3_Node000003_Node000004"><a xlink:title=" ">
<path fill="none" stroke="#63b8ff" d="M394.97,-197.4C386.56,-194.56 378.06,-191.33 370.25,-187.75 333.32,-170.83 293.96,-143.6 273.41,-128.57"/>
<polygon fill="#63b8ff" stroke="#63b8ff" points="393.88,-200.73 404.47,-200.45 396.02,-194.06 393.88,-200.73"/>
</a>
</g>
</g>
<!-- Node5 -->
<g id="Node000005" class="node">
<title>Node5</title>
<g id="a_Node000005"><a xlink:href="namespaceImGui.html#af95643a0ce4893b9e57c12991922fb18" target="_top" xlink:title=" ">
<polygon fill="white" stroke="#666666" points="145.75,-128.12 0,-128.12 0,-107.38 145.75,-107.38 145.75,-128.12"/>
<text text-anchor="middle" x="72.88" y="-114.62" font-family="Helvetica,sans-Serif" font-size="10.00">ImGui::ShowDemoWindow</text>
</a>
</g>
</g>
<!-- Node4&#45;&gt;Node5 -->
<g id="edge4_Node000004_Node000005" class="edge">
<title>Node4&#45;&gt;Node5</title>
<g id="a_edge4_Node000004_Node000005"><a xlink:title=" ">
<path fill="none" stroke="#63b8ff" d="M170.11,-117.75C162.04,-117.75 153.92,-117.75 146,-117.75"/>
<polygon fill="#63b8ff" stroke="#63b8ff" points="169.95,-121.25 179.95,-117.75 169.95,-114.25 169.95,-121.25"/>
</a>
</g>
</g>
<!-- Node6&#45;&gt;Node6 -->
<g id="edge10_Node000006_Node000006" class="edge">
<title>Node6&#45;&gt;Node6</title>
<g id="a_edge10_Node000006_Node000006"><a xlink:title=" ">
<path fill="none" stroke="#63b8ff" d="M876.7,-120.61C872.38,-124.45 861.53,-127.12 844.12,-127.12 812.31,-127.12 802.36,-118.18 814.3,-109.52"/>
<polygon fill="#63b8ff" stroke="#63b8ff" points="880.12,-119.86 874.32,-110.99 873.32,-121.54 880.12,-119.86"/>
</a>
</g>
</g>
<!-- Node7 -->
<g id="Node000007" class="node">
<title>Node7</title>
<g id="a_Node000007"><a xlink:href="namespaceImGui.html#a8600f7b1f9b18926fb00837e56d2b3cd" target="_top" xlink:title=" ">
<polygon fill="white" stroke="#666666" points="528.75,-128.12 370.25,-128.12 370.25,-107.38 528.75,-107.38 528.75,-128.12"/>
<text text-anchor="middle" x="449.5" y="-114.62" font-family="Helvetica,sans-Serif" font-size="10.00">ImGui::DebugNodeDockNode</text>
</a>
</g>
</g>
<!-- Node6&#45;&gt;Node7 -->
<g id="edge6_Node000006_Node000007" class="edge">
<title>Node6&#45;&gt;Node7</title>
<g id="a_edge6_Node000006_Node000007"><a xlink:title=" ">
<path fill="none" stroke="#63b8ff" d="M759.08,-97.16C690.97,-98.96 595.71,-103.61 529.1,-108.42"/>
<polygon fill="#63b8ff" stroke="#63b8ff" points="758.77,-100.67 768.68,-96.93 758.6,-93.67 758.77,-100.67"/>
</a>
</g>
</g>
<!-- Node8 -->
<g id="Node000008" class="node">
<title>Node8</title>
<g id="a_Node000008"><a xlink:href="namespaceImGui.html#a8c2ed9f140c90d8eaca1e2cfd8f46142" target="_top" xlink:title=" ">
<polygon fill="white" stroke="#666666" points="734.5,-90.12 564.75,-90.12 564.75,-69.38 734.5,-69.38 734.5,-90.12"/>
<text text-anchor="middle" x="649.62" y="-76.62" font-family="Helvetica,sans-Serif" font-size="10.00">ImGui::DebugNodeWindowsList</text>
</a>
</g>
</g>
<!-- Node6&#45;&gt;Node8 -->
<g id="edge11_Node000006_Node000008" class="edge">
<title>Node6&#45;&gt;Node8</title>
<g id="a_edge11_Node000006_Node000008"><a xlink:title=" ">
<path fill="none" stroke="#63b8ff" d="M782.72,-86.47C767.51,-84.59 750.91,-82.82 734.76,-81.35"/>
<polygon fill="#63b8ff" stroke="#63b8ff" points="782.18,-89.93 792.55,-87.74 783.08,-82.99 782.18,-89.93"/>
</a>
</g>
</g>
<!-- Node9 -->
<g id="Node000009" class="node">
<title>Node9</title>
<g id="a_Node000009"><a xlink:href="namespaceImGui.html#a0fc8019faf3a1aec25b554384ad9e506" target="_top" xlink:title=" ">
<polygon fill="white" stroke="#666666" points="734.5,-33.5 564.75,-33.5 564.75,0 734.5,0 734.5,-33.5"/>
<text text-anchor="start" x="572.75" y="-20" font-family="Helvetica,sans-Serif" font-size="10.00">ImGui::DebugNodeWindowsList</text>
<text text-anchor="middle" x="649.62" y="-7.25" font-family="Helvetica,sans-Serif" font-size="10.00">ByBeginStackParent</text>
</a>
</g>
</g>
<!-- Node6&#45;&gt;Node9 -->
<g id="edge15_Node000006_Node000009" class="edge">
<title>Node6&#45;&gt;Node9</title>
<g id="a_edge15_Node000006_Node000009"><a xlink:title=" ">
<path fill="none" stroke="#63b8ff" d="M807.41,-83.54C774.37,-69.46 725.31,-48.57 690.9,-33.9"/>
<polygon fill="#63b8ff" stroke="#63b8ff" points="805.99,-86.74 816.57,-87.44 808.74,-80.3 805.99,-86.74"/>
</a>
</g>
</g>
<!-- Node7&#45;&gt;Node4 -->
<g id="edge9_Node000007_Node000004" class="edge">
<title>Node7&#45;&gt;Node4</title>
<g id="a_edge9_Node000007_Node000004"><a xlink:title=" ">
<path fill="none" stroke="#63b8ff" d="M358.29,-117.75C350.41,-117.75 342.48,-117.75 334.74,-117.75"/>
<polygon fill="#63b8ff" stroke="#63b8ff" points="358.27,-121.25 368.27,-117.75 358.27,-114.25 358.27,-121.25"/>
</a>
</g>
</g>
<!-- Node7&#45;&gt;Node6 -->
<g id="edge8_Node000007_Node000006" class="edge">
<title>Node7&#45;&gt;Node6</title>
<g id="a_edge8_Node000007_Node000006"><a xlink:title=" ">
<path fill="none" stroke="#63b8ff" d="M540.48,-119.17C610.1,-117.22 705.28,-112.48 770.2,-107.67"/>
<polygon fill="#63b8ff" stroke="#63b8ff" points="540.52,-115.67 530.61,-119.43 540.7,-122.67 540.52,-115.67"/>
</a>
</g>
</g>
<!-- Node7&#45;&gt;Node7 -->
<g id="edge7_Node000007_Node000007" class="edge">
<title>Node7&#45;&gt;Node7</title>
<g id="a_edge7_Node000007_Node000007"><a xlink:title=" ">
<path fill="none" stroke="#63b8ff" d="M483.2,-139.61C478.73,-143.45 467.5,-146.12 449.5,-146.12 416.59,-146.12 406.3,-137.18 418.64,-128.52"/>
<polygon fill="#63b8ff" stroke="#63b8ff" points="486.6,-138.81 480.73,-129.99 479.82,-140.54 486.6,-138.81"/>
</a>
</g>
</g>
<!-- Node8&#45;&gt;Node4 -->
<g id="edge14_Node000008_Node000004" class="edge">
<title>Node8&#45;&gt;Node4</title>
<g id="a_edge14_Node000008_Node000004"><a xlink:title=" ">
<path fill="none" stroke="#63b8ff" d="M553.11,-83.88C499.28,-86.81 430.87,-91.52 370.25,-98.75 352.54,-100.86 333.37,-103.87 316.01,-106.88"/>
<polygon fill="#63b8ff" stroke="#63b8ff" points="553.05,-87.39 562.85,-83.36 552.68,-80.4 553.05,-87.39"/>
</a>
</g>
</g>
<!-- Node8&#45;&gt;Node6 -->
<g id="edge13_Node000008_Node000006" class="edge">
<title>Node8&#45;&gt;Node6</title>
<g id="a_edge13_Node000008_Node000006"><a xlink:title=" ">
<path fill="none" stroke="#63b8ff" d="M711.34,-92.07C729.99,-94.37 750.7,-96.5 770.07,-98.11"/>
<polygon fill="#63b8ff" stroke="#63b8ff" points="711.9,-88.61 701.53,-90.8 711,-95.55 711.9,-88.61"/>
</a>
</g>
</g>
<!-- Node8&#45;&gt;Node7 -->
<g id="edge12_Node000008_Node000007" class="edge">
<title>Node8&#45;&gt;Node7</title>
<g id="a_edge12_Node000008_Node000007"><a xlink:title=" ">
<path fill="none" stroke="#63b8ff" d="M580.93,-92.73C556.89,-97.35 530.1,-102.48 507.08,-106.9"/>
<polygon fill="#63b8ff" stroke="#63b8ff" points="581.47,-96.19 590.63,-90.87 580.15,-89.32 581.47,-96.19"/>
</a>
</g>
</g>
<!-- Node9&#45;&gt;Node4 -->
<g id="edge17_Node000009_Node000004" class="edge">
<title>Node9&#45;&gt;Node4</title>
<g id="a_edge17_Node000009_Node000004"><a xlink:title=" ">
<path fill="none" stroke="#63b8ff" d="M553.4,-36.29C499.36,-47.97 430.66,-63.8 370.25,-80.75 342.42,-88.56 311.24,-99.09 288.98,-106.92"/>
<polygon fill="#63b8ff" stroke="#63b8ff" points="553.83,-39.78 562.87,-34.26 552.36,-32.94 553.83,-39.78"/>
</a>
</g>
</g>
<!-- Node9&#45;&gt;Node9 -->
<g id="edge16_Node000009_Node000009" class="edge">
<title>Node9&#45;&gt;Node9</title>
<g id="a_edge16_Node000009_Node000009"><a xlink:title=" ">
<path fill="none" stroke="#63b8ff" d="M682.28,-44.89C676.96,-48.85 666.08,-51.5 649.62,-51.5 620.37,-51.5 608.72,-43.12 614.66,-33.91"/>
<polygon fill="#63b8ff" stroke="#63b8ff" points="685.65,-45.9 684.28,-35.4 678.8,-44.46 685.65,-45.9"/>
</a>
</g>
</g>
</g>
</svg>
