<?xml version="1.0" encoding="UTF-8" standalone="no"?>
<!DOCTYPE svg PUBLIC "-//W3C//DTD SVG 1.1//EN"
 "http://www.w3.org/Graphics/SVG/1.1/DTD/svg11.dtd">
<!-- Generated by graphviz version 12.0.0 (20240704.0754)
 -->
<!-- Title: ImGui::Unindent Pages: 1 -->
<svg width="1398pt" height="765pt"
 viewBox="0.00 0.00 1398.25 765.29" xmlns="http://www.w3.org/2000/svg" xmlns:xlink="http://www.w3.org/1999/xlink">
<g id="graph0" class="graph" transform="scale(1 1) rotate(0) translate(4 761.29)">
<title>ImGui::Unindent</title>
<!-- Node1 -->
<g id="Node000001" class="node">
<title>Node1</title>
<g id="a_Node000001"><a xlink:title=" ">
<polygon fill="#999999" stroke="#666666" points="1390.25,-691.66 1294.75,-691.66 1294.75,-670.91 1390.25,-670.91 1390.25,-691.66"/>
<text text-anchor="middle" x="1342.5" y="-678.16" font-family="Helvetica,sans-Serif" font-size="10.00">ImGui::Unindent</text>
</a>
</g>
</g>
<!-- Node2 -->
<g id="Node000002" class="node">
<title>Node2</title>
<g id="a_Node000002"><a xlink:href="namespaceImGui.html#a0fc8019faf3a1aec25b554384ad9e506" target="_top" xlink:title=" ">
<polygon fill="white" stroke="#666666" points="734.5,-518.04 564.75,-518.04 564.75,-484.54 734.5,-484.54 734.5,-518.04"/>
<text text-anchor="start" x="572.75" y="-504.54" font-family="Helvetica,sans-Serif" font-size="10.00">ImGui::DebugNodeWindowsList</text>
<text text-anchor="middle" x="649.62" y="-491.79" font-family="Helvetica,sans-Serif" font-size="10.00">ByBeginStackParent</text>
</a>
</g>
</g>
<!-- Node1&#45;&gt;Node2 -->
<g id="edge1_Node000001_Node000002" class="edge">
<title>Node1&#45;&gt;Node2</title>
<g id="a_edge1_Node000001_Node000002"><a xlink:title=" ">
<path fill="none" stroke="#63b8ff" d="M1282.99,-670.79C1274.86,-669.51 1266.61,-668.3 1258.75,-667.29 1150.72,-653.41 868.9,-670.98 770.5,-624.29 720.39,-600.51 679.82,-546.35 661.37,-518.51"/>
<polygon fill="#63b8ff" stroke="#63b8ff" points="1282.41,-674.24 1292.84,-672.4 1283.53,-667.33 1282.41,-674.24"/>
</a>
</g>
</g>
<!-- Node3 -->
<g id="Node000003" class="node">
<title>Node3</title>
<g id="a_Node000003"><a xlink:href="namespaceImGui.html#afe7a28c6eb52fff3cc27d5a698fea4ff" target="_top" xlink:title=" ">
<polygon fill="white" stroke="#666666" points="334.25,-410.66 181.75,-410.66 181.75,-389.91 334.25,-389.91 334.25,-410.66"/>
<text text-anchor="middle" x="258" y="-397.16" font-family="Helvetica,sans-Serif" font-size="10.00">ImGui::ShowMetricsWindow</text>
</a>
</g>
</g>
<!-- Node1&#45;&gt;Node3 -->
<g id="edge6_Node000001_Node000003" class="edge">
<title>Node1&#45;&gt;Node3</title>
<g id="a_edge6_Node000001_Node000003"><a xlink:title=" ">
<path fill="none" stroke="#63b8ff" d="M1283.02,-681.29C1223.69,-681.29 1129.21,-681.29 1047.5,-681.29 1047.5,-681.29 1047.5,-681.29 648.62,-681.29 521.87,-681.29 467.13,-701.02 370.25,-619.29 337.95,-592.04 352.82,-569.25 334.25,-531.29 311.66,-485.11 279.55,-432.85 265.74,-410.89"/>
<polygon fill="#63b8ff" stroke="#63b8ff" points="1282.89,-684.79 1292.89,-681.29 1282.89,-677.79 1282.89,-684.79"/>
</a>
</g>
</g>
<!-- Node4 -->
<g id="Node000004" class="node">
<title>Node4</title>
<g id="a_Node000004"><a xlink:href="namespaceImGui.html#af95643a0ce4893b9e57c12991922fb18" target="_top" xlink:title=" ">
<polygon fill="white" stroke="#666666" points="145.75,-410.66 0,-410.66 0,-389.91 145.75,-389.91 145.75,-410.66"/>
<text text-anchor="middle" x="72.88" y="-397.16" font-family="Helvetica,sans-Serif" font-size="10.00">ImGui::ShowDemoWindow</text>
</a>
</g>
</g>
<!-- Node1&#45;&gt;Node4 -->
<g id="edge5_Node000001_Node000004" class="edge">
<title>Node1&#45;&gt;Node4</title>
<g id="a_edge5_Node000001_Node000004"><a xlink:title=" ">
<path fill="none" stroke="#63b8ff" d="M1309.86,-697.03C1294.7,-704.06 1276.1,-711.94 1258.75,-717.29 1167.43,-745.41 1143.06,-757.29 1047.5,-757.29 1047.5,-757.29 1047.5,-757.29 448.5,-757.29 314.61,-757.29 271.11,-716.99 181.75,-617.29 121.94,-550.55 86.98,-444.64 76.92,-410.95"/>
<polygon fill="#63b8ff" stroke="#63b8ff" points="1311.32,-700.21 1318.86,-692.77 1308.32,-693.89 1311.32,-700.21"/>
</a>
</g>
</g>
<!-- Node5 -->
<g id="Node000005" class="node">
<title>Node5</title>
<g id="a_Node000005"><a xlink:href="namespaceImGui.html#ad6f4919bc9aa806ca8d2c1d6e2bfb051" target="_top" xlink:title=" ">
<polygon fill="white" stroke="#666666" points="513.75,-729.66 385.25,-729.66 385.25,-708.91 513.75,-708.91 513.75,-729.66"/>
<text text-anchor="middle" x="449.5" y="-716.16" font-family="Helvetica,sans-Serif" font-size="10.00">ImGui::ShowUserGuide</text>
</a>
</g>
</g>
<!-- Node1&#45;&gt;Node5 -->
<g id="edge7_Node000001_Node000005" class="edge">
<title>Node1&#45;&gt;Node5</title>
<g id="a_edge7_Node000001_Node000005"><a xlink:title=" ">
<path fill="none" stroke="#63b8ff" d="M1283.41,-693.27C1224.31,-704.41 1129.94,-719.29 1047.5,-719.29 1047.5,-719.29 1047.5,-719.29 846.12,-719.29 729.02,-719.29 592.41,-719.29 514.22,-719.29"/>
<polygon fill="#63b8ff" stroke="#63b8ff" points="1283.74,-696.77 1292.9,-691.46 1282.42,-689.9 1283.74,-696.77"/>
</a>
</g>
</g>
<!-- Node6 -->
<g id="Node000006" class="node">
<title>Node6</title>
<g id="a_Node000006"><a xlink:href="namespaceImGui.html#a41ecf265e5f678c78fc9c30b3cf2077f" target="_top" xlink:title=" ">
<polygon fill="white" stroke="#666666" points="1258.75,-334.66 1169.25,-334.66 1169.25,-313.91 1258.75,-313.91 1258.75,-334.66"/>
<text text-anchor="middle" x="1214" y="-321.16" font-family="Helvetica,sans-Serif" font-size="10.00">ImGui::TreePop</text>
</a>
</g>
</g>
<!-- Node1&#45;&gt;Node6 -->
<g id="edge9_Node000001_Node000006" class="edge">
<title>Node1&#45;&gt;Node6</title>
<g id="a_edge9_Node000001_Node000006"><a xlink:title=" ">
<path fill="none" stroke="#63b8ff" d="M1333.97,-660.02C1310.04,-592.49 1236.31,-384.42 1218.77,-334.93"/>
<polygon fill="#63b8ff" stroke="#63b8ff" points="1330.57,-660.92 1337.21,-669.18 1337.17,-658.58 1330.57,-660.92"/>
</a>
</g>
</g>
<!-- Node2&#45;&gt;Node2 -->
<g id="edge2_Node000002_Node000002" class="edge">
<title>Node2&#45;&gt;Node2</title>
<g id="a_edge2_Node000002_Node000002"><a xlink:title=" ">
<path fill="none" stroke="#63b8ff" d="M682.79,-529.43C677.39,-533.38 666.33,-536.04 649.62,-536.04 619.92,-536.04 608.09,-527.65 614.12,-518.45"/>
<polygon fill="#63b8ff" stroke="#63b8ff" points="686.15,-530.44 684.81,-519.93 679.3,-528.98 686.15,-530.44"/>
</a>
</g>
</g>
<!-- Node2&#45;&gt;Node3 -->
<g id="edge3_Node000002_Node000003" class="edge">
<title>Node2&#45;&gt;Node3</title>
<g id="a_edge3_Node000002_Node000003"><a xlink:title=" ">
<path fill="none" stroke="#63b8ff" d="M552.92,-495.46C498.32,-490.1 429.23,-479.86 370.25,-460.29 334.01,-448.26 295.64,-424.86 274.78,-411.11"/>
<polygon fill="#63b8ff" stroke="#63b8ff" points="552.55,-498.94 562.84,-496.39 553.21,-491.97 552.55,-498.94"/>
</a>
</g>
</g>
<!-- Node3&#45;&gt;Node4 -->
<g id="edge4_Node000003_Node000004" class="edge">
<title>Node3&#45;&gt;Node4</title>
<g id="a_edge4_Node000003_Node000004"><a xlink:title=" ">
<path fill="none" stroke="#63b8ff" d="M170.11,-400.29C162.04,-400.29 153.92,-400.29 146,-400.29"/>
<polygon fill="#63b8ff" stroke="#63b8ff" points="169.95,-403.79 179.95,-400.29 169.95,-396.79 169.95,-403.79"/>
</a>
</g>
</g>
<!-- Node5&#45;&gt;Node4 -->
<g id="edge8_Node000005_Node000004" class="edge">
<title>Node5&#45;&gt;Node4</title>
<g id="a_edge8_Node000005_Node000004"><a xlink:title=" ">
<path fill="none" stroke="#63b8ff" d="M389.55,-704.65C382.83,-701.99 376.25,-698.88 370.25,-695.29 232.98,-612.94 112.3,-453.59 81.47,-410.98"/>
<polygon fill="#63b8ff" stroke="#63b8ff" points="388.15,-707.86 398.75,-707.97 390.53,-701.28 388.15,-707.86"/>
</a>
</g>
</g>
<!-- Node6&#45;&gt;Node3 -->
<g id="edge50_Node000006_Node000003" class="edge">
<title>Node6&#45;&gt;Node3</title>
<g id="a_edge50_Node000006_Node000003"><a xlink:title=" ">
<path fill="none" stroke="#63b8ff" d="M1211.71,-302.06C1207.88,-258.8 1192.78,-163.62 1133.25,-119.29 1082.27,-81.32 911.69,-96.29 848.12,-96.29 848.12,-96.29 848.12,-96.29 648.62,-96.29 520.83,-96.29 468.94,-87.1 370.25,-168.29 295.74,-229.58 267.76,-352.61 260.84,-389.55"/>
<polygon fill="#63b8ff" stroke="#63b8ff" points="1208.21,-302.26 1212.45,-311.98 1215.19,-301.74 1208.21,-302.26"/>
</a>
</g>
</g>
<!-- Node6&#45;&gt;Node4 -->
<g id="edge48_Node000006_Node000004" class="edge">
<title>Node6&#45;&gt;Node4</title>
<g id="a_edge48_Node000006_Node000004"><a xlink:title=" ">
<path fill="none" stroke="#63b8ff" d="M1210.02,-302.46C1201.36,-242.38 1174.14,-76.86 1133.25,-43.29 1034.99,37.38 975.26,-20.29 848.12,-20.29 848.12,-20.29 848.12,-20.29 448.5,-20.29 324.85,-20.29 271.6,-14.35 181.75,-99.29 92.6,-183.56 76.98,-346.65 74.37,-389.67"/>
<polygon fill="#63b8ff" stroke="#63b8ff" points="1206.52,-302.68 1211.38,-312.09 1213.45,-301.7 1206.52,-302.68"/>
</a>
</g>
</g>
<!-- Node7 -->
<g id="Node000007" class="node">
<title>Node7</title>
<g id="a_Node000007"><a xlink:href="namespaceImGui.html#a68c10eb20be9c419d00f2b5a9dfa6a38" target="_top" xlink:title=" ">
<polygon fill="white" stroke="#666666" points="1122,-424.66 971,-424.66 971,-403.91 1122,-403.91 1122,-424.66"/>
<text text-anchor="middle" x="1046.5" y="-411.16" font-family="Helvetica,sans-Serif" font-size="10.00">ImGui::DebugNodeColumns</text>
</a>
</g>
</g>
<!-- Node6&#45;&gt;Node7 -->
<g id="edge10_Node000006_Node000007" class="edge">
<title>Node6&#45;&gt;Node7</title>
<g id="a_edge10_Node000006_Node000007"><a xlink:title=" ">
<path fill="none" stroke="#63b8ff" d="M1196.84,-343.34C1181.97,-359.62 1158.46,-382.4 1133.25,-395.29 1126.87,-398.55 1119.94,-401.26 1112.88,-403.5"/>
<polygon fill="#63b8ff" stroke="#63b8ff" points="1199.15,-346 1203.16,-336.2 1193.91,-341.36 1199.15,-346"/>
</a>
</g>
</g>
<!-- Node8 -->
<g id="Node000008" class="node">
<title>Node8</title>
<g id="a_Node000008"><a xlink:href="namespaceImGui.html#afcb602554925c5409977f0fb39f77e5d" target="_top" xlink:title=" ">
<polygon fill="white" stroke="#666666" points="920.75,-466.66 773.5,-466.66 773.5,-445.91 920.75,-445.91 920.75,-466.66"/>
<text text-anchor="middle" x="847.12" y="-453.16" font-family="Helvetica,sans-Serif" font-size="10.00">ImGui::DebugNodeWindow</text>
</a>
</g>
</g>
<!-- Node6&#45;&gt;Node8 -->
<g id="edge44_Node000006_Node000008" class="edge">
<title>Node6&#45;&gt;Node8</title>
<g id="a_edge44_Node000006_Node000008"><a xlink:title=" ">
<path fill="none" stroke="#63b8ff" d="M1208.61,-346.09C1200.47,-380.09 1179.45,-444.7 1133.25,-472.29 1050.24,-521.85 928.26,-486.62 874.84,-467.02"/>
<polygon fill="#63b8ff" stroke="#63b8ff" points="1211.98,-347.07 1210.73,-336.55 1205.15,-345.56 1211.98,-347.07"/>
</a>
</g>
</g>
<!-- Node9 -->
<g id="Node000009" class="node">
<title>Node9</title>
<g id="a_Node000009"><a xlink:href="namespaceImGui.html#a8600f7b1f9b18926fb00837e56d2b3cd" target="_top" xlink:title=" ">
<polygon fill="white" stroke="#666666" points="528.75,-410.66 370.25,-410.66 370.25,-389.91 528.75,-389.91 528.75,-410.66"/>
<text text-anchor="middle" x="449.5" y="-397.16" font-family="Helvetica,sans-Serif" font-size="10.00">ImGui::DebugNodeDockNode</text>
</a>
</g>
</g>
<!-- Node6&#45;&gt;Node9 -->
<g id="edge22_Node000006_Node000009" class="edge">
<title>Node6&#45;&gt;Node9</title>
<g id="a_edge22_Node000006_Node000009"><a xlink:title=" ">
<path fill="none" stroke="#63b8ff" d="M1157.58,-324.3C1073.6,-324.85 909.2,-328.03 770.5,-343.29 673.74,-353.93 562.09,-376.11 499.54,-389.45"/>
<polygon fill="#63b8ff" stroke="#63b8ff" points="1157.39,-327.8 1167.37,-324.25 1157.36,-320.8 1157.39,-327.8"/>
</a>
</g>
</g>
<!-- Node10 -->
<g id="Node000010" class="node">
<title>Node10</title>
<g id="a_Node000010"><a xlink:href="namespaceImGui.html#a8c2ed9f140c90d8eaca1e2cfd8f46142" target="_top" xlink:title=" ">
<polygon fill="white" stroke="#666666" points="734.5,-466.66 564.75,-466.66 564.75,-445.91 734.5,-445.91 734.5,-466.66"/>
<text text-anchor="middle" x="649.62" y="-453.16" font-family="Helvetica,sans-Serif" font-size="10.00">ImGui::DebugNodeWindowsList</text>
</a>
</g>
</g>
<!-- Node6&#45;&gt;Node10 -->
<g id="edge45_Node000006_Node000010" class="edge">
<title>Node6&#45;&gt;Node10</title>
<g id="a_edge45_Node000006_Node000010"><a xlink:title=" ">
<path fill="none" stroke="#63b8ff" d="M1210.47,-346.35C1204.69,-385.21 1186.6,-464.97 1133.25,-499.29 997.64,-586.52 926.82,-532.82 770.5,-493.29 753.16,-488.9 751.35,-481.31 734.5,-475.29 725.78,-472.17 716.37,-469.45 707.11,-467.12"/>
<polygon fill="#63b8ff" stroke="#63b8ff" points="1213.92,-346.95 1211.77,-336.58 1206.98,-346.03 1213.92,-346.95"/>
</a>
</g>
</g>
<!-- Node11 -->
<g id="Node000011" class="node">
<title>Node11</title>
<g id="a_Node000011"><a xlink:href="namespaceImGui.html#af7b5e35566da44ac1ea8a7e1b9d9d574" target="_top" xlink:title=" ">
<polygon fill="white" stroke="#666666" points="1122,-577.66 971,-577.66 971,-556.91 1122,-556.91 1122,-577.66"/>
<text text-anchor="middle" x="1046.5" y="-564.16" font-family="Helvetica,sans-Serif" font-size="10.00">ImGui::DebugNodeDrawList</text>
</a>
</g>
</g>
<!-- Node6&#45;&gt;Node11 -->
<g id="edge23_Node000006_Node000011" class="edge">
<title>Node6&#45;&gt;Node11</title>
<g id="a_edge23_Node000006_Node000011"><a xlink:title=" ">
<path fill="none" stroke="#63b8ff" d="M1211.48,-346.07C1207.22,-389.97 1191.33,-489.48 1133.25,-543.29 1127.24,-548.86 1120.04,-553.15 1112.41,-556.45"/>
<polygon fill="#63b8ff" stroke="#63b8ff" points="1214.95,-346.56 1212.3,-336.3 1207.97,-345.97 1214.95,-346.56"/>
</a>
</g>
</g>
<!-- Node12 -->
<g id="Node000012" class="node">
<title>Node12</title>
<g id="a_Node000012"><a xlink:href="namespaceImGui.html#aa5e5f50f28c04a26264c0943c7281171" target="_top" xlink:title=" ">
<polygon fill="white" stroke="#666666" points="923,-615.66 771.25,-615.66 771.25,-594.91 923,-594.91 923,-615.66"/>
<text text-anchor="middle" x="847.12" y="-602.16" font-family="Helvetica,sans-Serif" font-size="10.00">ImGui::DebugNodeViewport</text>
</a>
</g>
</g>
<!-- Node6&#45;&gt;Node12 -->
<g id="edge43_Node000006_Node000012" class="edge">
<title>Node6&#45;&gt;Node12</title>
<g id="a_edge43_Node000006_Node000012"><a xlink:title=" ">
<path fill="none" stroke="#63b8ff" d="M1213.89,-346.46C1214.63,-398.11 1208.44,-526.61 1133.25,-586.29 1063.7,-641.5 952.01,-628.79 891.12,-616.15"/>
<polygon fill="#63b8ff" stroke="#63b8ff" points="1217.4,-346.48 1213.63,-336.58 1210.4,-346.67 1217.4,-346.48"/>
</a>
</g>
</g>
<!-- Node13 -->
<g id="Node000013" class="node">
<title>Node13</title>
<g id="a_Node000013"><a xlink:href="namespaceImGui.html#ae0207d60728f7e6a47dbcd1d7d84e3cb" target="_top" xlink:title=" ">
<polygon fill="white" stroke="#666666" points="1111.12,-182.66 981.88,-182.66 981.88,-161.91 1111.12,-161.91 1111.12,-182.66"/>
<text text-anchor="middle" x="1046.5" y="-169.16" font-family="Helvetica,sans-Serif" font-size="10.00">ImGui::DebugNodeFont</text>
</a>
</g>
</g>
<!-- Node6&#45;&gt;Node13 -->
<g id="edge28_Node000006_Node000013" class="edge">
<title>Node6&#45;&gt;Node13</title>
<g id="a_edge28_Node000006_Node000013"><a xlink:title=" ">
<path fill="none" stroke="#63b8ff" d="M1205.43,-303.02C1194.17,-274.44 1170.26,-224.03 1133.25,-196.29 1125.7,-190.63 1116.89,-186.31 1107.83,-183"/>
<polygon fill="#63b8ff" stroke="#63b8ff" points="1202.04,-303.93 1208.84,-312.06 1208.59,-301.46 1202.04,-303.93"/>
</a>
</g>
</g>
<!-- Node14 -->
<g id="Node000014" class="node">
<title>Node14</title>
<g id="a_Node000014"><a xlink:href="namespaceImGui.html#acab51ec2b39577845309f24535381038" target="_top" xlink:title=" ">
<polygon fill="white" stroke="#666666" points="908.75,-163.66 785.5,-163.66 785.5,-142.91 908.75,-142.91 908.75,-163.66"/>
<text text-anchor="middle" x="847.12" y="-150.16" font-family="Helvetica,sans-Serif" font-size="10.00">ImGui::ShowFontAtlas</text>
</a>
</g>
</g>
<!-- Node6&#45;&gt;Node14 -->
<g id="edge49_Node000006_Node000014" class="edge">
<title>Node6&#45;&gt;Node14</title>
<g id="a_edge49_Node000006_Node000014"><a xlink:title=" ">
<path fill="none" stroke="#63b8ff" d="M1210.26,-302.46C1204.16,-264.37 1185.62,-186.65 1133.25,-153.29 1055.18,-103.55 939.03,-126.48 882.08,-142.45"/>
<polygon fill="#63b8ff" stroke="#63b8ff" points="1206.78,-302.84 1211.66,-312.24 1213.7,-301.84 1206.78,-302.84"/>
</a>
</g>
</g>
<!-- Node15 -->
<g id="Node000015" class="node">
<title>Node15</title>
<g id="a_Node000015"><a xlink:href="namespaceImGui.html#ab2eb3dec78d054fe3feab1c091ec5de5" target="_top" xlink:title=" ">
<polygon fill="white" stroke="#666666" points="715,-68.66 584.25,-68.66 584.25,-47.91 715,-47.91 715,-68.66"/>
<text text-anchor="middle" x="649.62" y="-55.16" font-family="Helvetica,sans-Serif" font-size="10.00">ImGui::ShowStyleEditor</text>
</a>
</g>
</g>
<!-- Node6&#45;&gt;Node15 -->
<g id="edge51_Node000006_Node000015" class="edge">
<title>Node6&#45;&gt;Node15</title>
<g id="a_edge51_Node000006_Node000015"><a xlink:title=" ">
<path fill="none" stroke="#63b8ff" d="M1213.32,-302.06C1212.68,-253.05 1203.5,-135.81 1133.25,-82.29 1069.44,-33.67 831.61,-44.3 715.39,-52.79"/>
<polygon fill="#63b8ff" stroke="#63b8ff" points="1209.82,-301.96 1213.32,-311.96 1216.82,-301.95 1209.82,-301.96"/>
</a>
</g>
</g>
<!-- Node16 -->
<g id="Node000016" class="node">
<title>Node16</title>
<g id="a_Node000016"><a xlink:href="namespaceImGui.html#a8e1aae1a79042976013f36d7f2e7ee70" target="_top" xlink:title=" ">
<polygon fill="white" stroke="#666666" points="1119.38,-463.66 973.62,-463.66 973.62,-442.91 1119.38,-442.91 1119.38,-463.66"/>
<text text-anchor="middle" x="1046.5" y="-450.16" font-family="Helvetica,sans-Serif" font-size="10.00">ImGui::DebugNodeStorage</text>
</a>
</g>
</g>
<!-- Node6&#45;&gt;Node16 -->
<g id="edge33_Node000006_Node000016" class="edge">
<title>Node6&#45;&gt;Node16</title>
<g id="a_edge33_Node000006_Node000016"><a xlink:title=" ">
<path fill="none" stroke="#63b8ff" d="M1203.49,-345.12C1191,-370.05 1166.67,-411.2 1133.25,-433.29 1127.64,-437 1121.42,-440.02 1114.98,-442.49"/>
<polygon fill="#63b8ff" stroke="#63b8ff" points="1206.55,-346.82 1207.73,-336.29 1200.24,-343.79 1206.55,-346.82"/>
</a>
</g>
</g>
<!-- Node17 -->
<g id="Node000017" class="node">
<title>Node17</title>
<g id="a_Node000017"><a xlink:href="namespaceImGui.html#ac5f1a2b50c26c83d3df78d94e95f0bd0" target="_top" xlink:title=" ">
<polygon fill="white" stroke="#666666" points="720.25,-296.66 579,-296.66 579,-275.91 720.25,-275.91 720.25,-296.66"/>
<text text-anchor="middle" x="649.62" y="-283.16" font-family="Helvetica,sans-Serif" font-size="10.00">ImGui::DebugNodeTabBar</text>
</a>
</g>
</g>
<!-- Node6&#45;&gt;Node17 -->
<g id="edge35_Node000006_Node000017" class="edge">
<title>Node6&#45;&gt;Node17</title>
<g id="a_edge35_Node000006_Node000017"><a xlink:title=" ">
<path fill="none" stroke="#63b8ff" d="M1202.74,-303.57C1190.02,-280.53 1165.96,-244.53 1133.25,-229.29 970.56,-153.44 744.95,-243.03 673.37,-275.46"/>
<polygon fill="#63b8ff" stroke="#63b8ff" points="1199.6,-305.13 1207.35,-312.36 1205.8,-301.88 1199.6,-305.13"/>
</a>
</g>
</g>
<!-- Node18 -->
<g id="Node000018" class="node">
<title>Node18</title>
<g id="a_Node000018"><a xlink:href="namespaceImGui.html#ae944ffc599add73d6f3220165475ffd8" target="_top" xlink:title=" ">
<polygon fill="white" stroke="#666666" points="914,-296.66 780.25,-296.66 780.25,-275.91 914,-275.91 914,-296.66"/>
<text text-anchor="middle" x="847.12" y="-283.16" font-family="Helvetica,sans-Serif" font-size="10.00">ImGui::DebugNodeTable</text>
</a>
</g>
</g>
<!-- Node6&#45;&gt;Node18 -->
<g id="edge38_Node000006_Node000018" class="edge">
<title>Node6&#45;&gt;Node18</title>
<g id="a_edge38_Node000006_Node000018"><a xlink:title=" ">
<path fill="none" stroke="#63b8ff" d="M1157.5,-313.89C1149.39,-312.56 1141.11,-311.31 1133.25,-310.29 1058.49,-300.6 972.18,-293.96 914.27,-290.17"/>
<polygon fill="#63b8ff" stroke="#63b8ff" points="1156.88,-317.33 1167.32,-315.55 1158.05,-310.43 1156.88,-317.33"/>
</a>
</g>
</g>
<!-- Node19 -->
<g id="Node000019" class="node">
<title>Node19</title>
<g id="a_Node000019"><a xlink:href="namespaceImGui.html#a476f5fea6e50fae946a366567da7f89f" target="_top" xlink:title=" ">
<polygon fill="white" stroke="#666666" points="1133.25,-258.66 959.75,-258.66 959.75,-237.91 1133.25,-237.91 1133.25,-258.66"/>
<text text-anchor="middle" x="1046.5" y="-245.16" font-family="Helvetica,sans-Serif" font-size="10.00">ImGui::DebugNodeTableSettings</text>
</a>
</g>
</g>
<!-- Node6&#45;&gt;Node19 -->
<g id="edge40_Node000006_Node000019" class="edge">
<title>Node6&#45;&gt;Node19</title>
<g id="a_edge40_Node000006_Node000019"><a xlink:title=" ">
<path fill="none" stroke="#63b8ff" d="M1190.14,-306.68C1174.75,-295.52 1153.63,-281.52 1133.25,-272.29 1121.56,-266.99 1108.44,-262.61 1096.04,-259.1"/>
<polygon fill="#63b8ff" stroke="#63b8ff" points="1188.02,-309.46 1198.13,-312.61 1192.19,-303.84 1188.02,-309.46"/>
</a>
</g>
</g>
<!-- Node20 -->
<g id="Node000020" class="node">
<title>Node20</title>
<g id="a_Node000020"><a xlink:href="namespaceImGui.html#a945392cbf05b9434df8ec3630b10e01a" target="_top" xlink:title=" ">
<polygon fill="white" stroke="#666666" points="1127.25,-386.04 965.75,-386.04 965.75,-352.54 1127.25,-352.54 1127.25,-386.04"/>
<text text-anchor="start" x="973.75" y="-372.54" font-family="Helvetica,sans-Serif" font-size="10.00">ImGui::ErrorCheckEndWindow</text>
<text text-anchor="middle" x="1046.5" y="-359.79" font-family="Helvetica,sans-Serif" font-size="10.00">Recover</text>
</a>
</g>
</g>
<!-- Node6&#45;&gt;Node20 -->
<g id="edge46_Node000006_Node000020" class="edge">
<title>Node6&#45;&gt;Node20</title>
<g id="a_edge46_Node000006_Node000020"><a xlink:title=" ">
<path fill="none" stroke="#63b8ff" d="M1162.42,-338.04C1146.11,-342.47 1127.83,-347.44 1110.73,-352.09"/>
<polygon fill="#63b8ff" stroke="#63b8ff" points="1163.17,-341.46 1171.9,-335.46 1161.33,-334.71 1163.17,-341.46"/>
</a>
</g>
</g>
<!-- Node7&#45;&gt;Node8 -->
<g id="edge11_Node000007_Node000008" class="edge">
<title>Node7&#45;&gt;Node8</title>
<g id="a_edge11_Node000007_Node000008"><a xlink:title=" ">
<path fill="none" stroke="#63b8ff" d="M983.45,-427.49C956.27,-433.27 924.77,-439.98 899,-445.46"/>
<polygon fill="#63b8ff" stroke="#63b8ff" points="983.88,-430.98 992.93,-425.47 982.42,-424.13 983.88,-430.98"/>
</a>
</g>
</g>
<!-- Node8&#45;&gt;Node2 -->
<g id="edge21_Node000008_Node000002" class="edge">
<title>Node8&#45;&gt;Node2</title>
<g id="a_edge21_Node000008_Node000002"><a xlink:title=" ">
<path fill="none" stroke="#63b8ff" d="M788.32,-469.59C768.57,-474.14 746.2,-479.29 725.32,-484.09"/>
<polygon fill="#63b8ff" stroke="#63b8ff" points="788.86,-473.06 797.82,-467.41 787.29,-466.24 788.86,-473.06"/>
</a>
</g>
</g>
<!-- Node8&#45;&gt;Node8 -->
<g id="edge16_Node000008_Node000008" class="edge">
<title>Node8&#45;&gt;Node8</title>
<g id="a_edge16_Node000008_Node000008"><a xlink:title=" ">
<path fill="none" stroke="#63b8ff" d="M881.88,-478.15C877.27,-481.99 865.69,-484.66 847.12,-484.66 813.18,-484.66 802.57,-475.72 815.3,-467.06"/>
<polygon fill="#63b8ff" stroke="#63b8ff" points="885.27,-477.3 879.34,-468.52 878.51,-479.08 885.27,-477.3"/>
</a>
</g>
</g>
<!-- Node8&#45;&gt;Node9 -->
<g id="edge12_Node000008_Node000009" class="edge">
<title>Node8&#45;&gt;Node9</title>
<g id="a_edge12_Node000008_Node000009"><a xlink:title=" ">
<path fill="none" stroke="#63b8ff" d="M812.78,-442.6C790.62,-437.34 760.87,-432.25 734.5,-428.29 665.17,-417.87 586.06,-407.71 528.97,-402.18"/>
<polygon fill="#63b8ff" stroke="#63b8ff" points="811.91,-445.99 822.46,-445.07 813.64,-439.21 811.91,-445.99"/>
</a>
</g>
</g>
<!-- Node8&#45;&gt;Node10 -->
<g id="edge17_Node000008_Node000010" class="edge">
<title>Node8&#45;&gt;Node10</title>
<g id="a_edge17_Node000008_Node000010"><a xlink:title=" ">
<path fill="none" stroke="#63b8ff" d="M761.81,-449.59C752.86,-449.52 743.75,-449.52 734.8,-449.6"/>
<polygon fill="#63b8ff" stroke="#63b8ff" points="761.49,-453.09 771.54,-449.71 761.58,-446.09 761.49,-453.09"/>
</a>
</g>
</g>
<!-- Node9&#45;&gt;Node3 -->
<g id="edge15_Node000009_Node000003" class="edge">
<title>Node9&#45;&gt;Node3</title>
<g id="a_edge15_Node000009_Node000003"><a xlink:title=" ">
<path fill="none" stroke="#63b8ff" d="M358.29,-400.29C350.41,-400.29 342.48,-400.29 334.74,-400.29"/>
<polygon fill="#63b8ff" stroke="#63b8ff" points="358.27,-403.79 368.27,-400.29 358.27,-396.79 358.27,-403.79"/>
</a>
</g>
</g>
<!-- Node9&#45;&gt;Node8 -->
<g id="edge14_Node000009_Node000008" class="edge">
<title>Node9&#45;&gt;Node8</title>
<g id="a_edge14_Node000009_Node000008"><a xlink:title=" ">
<path fill="none" stroke="#63b8ff" d="M502.25,-413.02C559.23,-422.3 653.54,-434.13 734.5,-446.29 747.04,-448.17 760.35,-450.31 773.24,-452.31"/>
<polygon fill="#63b8ff" stroke="#63b8ff" points="502.95,-409.59 492.51,-411.39 501.79,-416.49 502.95,-409.59"/>
</a>
</g>
</g>
<!-- Node9&#45;&gt;Node9 -->
<g id="edge13_Node000009_Node000009" class="edge">
<title>Node9&#45;&gt;Node9</title>
<g id="a_edge13_Node000009_Node000009"><a xlink:title=" ">
<path fill="none" stroke="#63b8ff" d="M483.2,-422.15C478.73,-425.99 467.5,-428.66 449.5,-428.66 416.59,-428.66 406.3,-419.72 418.64,-411.06"/>
<polygon fill="#63b8ff" stroke="#63b8ff" points="486.6,-421.34 480.73,-412.53 479.82,-423.08 486.6,-421.34"/>
</a>
</g>
</g>
<!-- Node10&#45;&gt;Node3 -->
<g id="edge20_Node000010_Node000003" class="edge">
<title>Node10&#45;&gt;Node3</title>
<g id="a_edge20_Node000010_Node000003"><a xlink:title=" ">
<path fill="none" stroke="#63b8ff" d="M553.15,-455.72C499.05,-453.92 430.37,-449.14 370.25,-437.29 340.29,-431.38 307.25,-419.69 285.02,-411.03"/>
<polygon fill="#63b8ff" stroke="#63b8ff" points="552.85,-459.21 562.95,-456.01 553.06,-452.21 552.85,-459.21"/>
</a>
</g>
</g>
<!-- Node10&#45;&gt;Node8 -->
<g id="edge19_Node000010_Node000008" class="edge">
<title>Node10&#45;&gt;Node8</title>
<g id="a_edge19_Node000010_Node000008"><a xlink:title=" ">
<path fill="none" stroke="#63b8ff" d="M746.2,-463.04C755.23,-463.05 764.28,-462.98 773.05,-462.84"/>
<polygon fill="#63b8ff" stroke="#63b8ff" points="746.33,-459.54 736.31,-462.99 746.3,-466.54 746.33,-459.54"/>
</a>
</g>
</g>
<!-- Node10&#45;&gt;Node9 -->
<g id="edge18_Node000010_Node000009" class="edge">
<title>Node10&#45;&gt;Node9</title>
<g id="a_edge18_Node000010_Node000009"><a xlink:title=" ">
<path fill="none" stroke="#63b8ff" d="M599.74,-442.47C565.55,-432.81 520.54,-420.08 488.92,-411.15"/>
<polygon fill="#63b8ff" stroke="#63b8ff" points="598.39,-445.73 608.97,-445.08 600.3,-438.99 598.39,-445.73"/>
</a>
</g>
</g>
<!-- Node11&#45;&gt;Node3 -->
<g id="edge27_Node000011_Node000003" class="edge">
<title>Node11&#45;&gt;Node3</title>
<g id="a_edge27_Node000011_Node000003"><a xlink:title=" ">
<path fill="none" stroke="#63b8ff" d="M959.2,-576.48C825.08,-586.78 562.09,-590.72 370.25,-491.29 328.16,-469.47 287.27,-429.91 268.98,-410.96"/>
<polygon fill="#63b8ff" stroke="#63b8ff" points="959.4,-579.98 969.09,-575.69 958.84,-573 959.4,-579.98"/>
</a>
</g>
</g>
<!-- Node11&#45;&gt;Node8 -->
<g id="edge26_Node000011_Node000008" class="edge">
<title>Node11&#45;&gt;Node8</title>
<g id="a_edge26_Node000011_Node000008"><a xlink:title=" ">
<path fill="none" stroke="#63b8ff" d="M1016.3,-550.86C975.3,-527.81 901.84,-486.5 867.2,-467.01"/>
<polygon fill="#63b8ff" stroke="#63b8ff" points="1014.46,-553.85 1024.9,-555.7 1017.9,-547.75 1014.46,-553.85"/>
</a>
</g>
</g>
<!-- Node11&#45;&gt;Node12 -->
<g id="edge24_Node000011_Node000012" class="edge">
<title>Node11&#45;&gt;Node12</title>
<g id="a_edge24_Node000011_Node000012"><a xlink:title=" ">
<path fill="none" stroke="#63b8ff" d="M978.06,-580.27C954.11,-584.88 927.42,-590.02 904.5,-594.43"/>
<polygon fill="#63b8ff" stroke="#63b8ff" points="978.56,-583.74 987.72,-578.41 977.24,-576.87 978.56,-583.74"/>
</a>
</g>
</g>
<!-- Node12&#45;&gt;Node3 -->
<g id="edge25_Node000012_Node000003" class="edge">
<title>Node12&#45;&gt;Node3</title>
<g id="a_edge25_Node000012_Node000003"><a xlink:title=" ">
<path fill="none" stroke="#63b8ff" d="M789.17,-618.36C694.71,-636.75 502.91,-659.92 370.25,-581.29 361.62,-576.17 287.35,-449.1 265.21,-410.99"/>
<polygon fill="#63b8ff" stroke="#63b8ff" points="789.6,-621.84 798.72,-616.44 788.22,-614.98 789.6,-621.84"/>
</a>
</g>
</g>
<!-- Node13&#45;&gt;Node14 -->
<g id="edge29_Node000013_Node000014" class="edge">
<title>Node13&#45;&gt;Node14</title>
<g id="a_edge29_Node000013_Node000014"><a xlink:title=" ">
<path fill="none" stroke="#63b8ff" d="M970.08,-165.03C949.95,-163.09 928.45,-161.02 909.2,-159.17"/>
<polygon fill="#63b8ff" stroke="#63b8ff" points="969.62,-168.5 979.91,-165.97 970.29,-161.53 969.62,-168.5"/>
</a>
</g>
</g>
<!-- Node14&#45;&gt;Node3 -->
<g id="edge30_Node000014_Node000003" class="edge">
<title>Node14&#45;&gt;Node3</title>
<g id="a_edge30_Node000014_Node000003"><a xlink:title=" ">
<path fill="none" stroke="#63b8ff" d="M773.7,-148.64C674.58,-145.82 494.77,-153.69 370.25,-234.29 309.38,-273.69 273.75,-359.4 262.72,-389.54"/>
<polygon fill="#63b8ff" stroke="#63b8ff" points="773.47,-152.13 783.58,-148.97 773.7,-145.14 773.47,-152.13"/>
</a>
</g>
</g>
<!-- Node14&#45;&gt;Node15 -->
<g id="edge31_Node000014_Node000015" class="edge">
<title>Node14&#45;&gt;Node15</title>
<g id="a_edge31_Node000014_Node000015"><a xlink:title=" ">
<path fill="none" stroke="#63b8ff" d="M813.85,-137.6C774.04,-118.26 707.42,-85.89 672.89,-69.11"/>
<polygon fill="#63b8ff" stroke="#63b8ff" points="812.19,-140.69 822.72,-141.91 815.25,-134.39 812.19,-140.69"/>
</a>
</g>
</g>
<!-- Node15&#45;&gt;Node4 -->
<g id="edge32_Node000015_Node000004" class="edge">
<title>Node15&#45;&gt;Node4</title>
<g id="a_edge32_Node000015_Node000004"><a xlink:title=" ">
<path fill="none" stroke="#63b8ff" d="M572.48,-50.53C514.22,-47.88 433.42,-51.52 370.25,-82.29 218.95,-155.99 106.35,-342.59 79.84,-389.47"/>
<polygon fill="#63b8ff" stroke="#63b8ff" points="572.13,-54.02 582.31,-51.05 572.51,-47.03 572.13,-54.02"/>
</a>
</g>
</g>
<!-- Node16&#45;&gt;Node8 -->
<g id="edge34_Node000016_Node000008" class="edge">
<title>Node16&#45;&gt;Node8</title>
<g id="a_edge34_Node000016_Node000008"><a xlink:title=" ">
<path fill="none" stroke="#63b8ff" d="M961.87,-454.56C948.33,-454.76 934.41,-454.98 921.15,-455.18"/>
<polygon fill="#63b8ff" stroke="#63b8ff" points="961.67,-458.06 971.61,-454.41 961.56,-451.06 961.67,-458.06"/>
</a>
</g>
</g>
<!-- Node17&#45;&gt;Node3 -->
<g id="edge37_Node000017_Node000003" class="edge">
<title>Node17&#45;&gt;Node3</title>
<g id="a_edge37_Node000017_Node000003"><a xlink:title=" ">
<path fill="none" stroke="#63b8ff" d="M567.01,-280.96C509.92,-280.15 432.97,-285.01 370.25,-310.29 326.01,-328.12 285.55,-369.83 268.09,-389.57"/>
<polygon fill="#63b8ff" stroke="#63b8ff" points="566.93,-284.46 577,-281.17 567.08,-277.46 566.93,-284.46"/>
</a>
</g>
</g>
<!-- Node17&#45;&gt;Node9 -->
<g id="edge36_Node000017_Node000009" class="edge">
<title>Node17&#45;&gt;Node9</title>
<g id="a_edge36_Node000017_Node000009"><a xlink:title=" ">
<path fill="none" stroke="#63b8ff" d="M620.05,-302.73C578.89,-326.41 504.04,-369.48 469.23,-389.51"/>
<polygon fill="#63b8ff" stroke="#63b8ff" points="621.75,-305.79 628.67,-297.77 618.26,-299.72 621.75,-305.79"/>
</a>
</g>
</g>
<!-- Node18&#45;&gt;Node3 -->
<g id="edge39_Node000018_Node000003" class="edge">
<title>Node18&#45;&gt;Node3</title>
<g id="a_edge39_Node000018_Node000003"><a xlink:title=" ">
<path fill="none" stroke="#63b8ff" d="M779.1,-299.3C662.24,-321.99 423.32,-368.38 314.82,-389.45"/>
<polygon fill="#63b8ff" stroke="#63b8ff" points="779.73,-302.75 788.87,-297.4 778.39,-295.87 779.73,-302.75"/>
</a>
</g>
</g>
<!-- Node19&#45;&gt;Node3 -->
<g id="edge42_Node000019_Node000003" class="edge">
<title>Node19&#45;&gt;Node3</title>
<g id="a_edge42_Node000019_Node000003"><a xlink:title=" ">
<path fill="none" stroke="#63b8ff" d="M981.47,-235.41C856.75,-213.59 575.52,-180.65 370.25,-278.29 317.96,-303.16 278.92,-364.74 264.78,-389.61"/>
<polygon fill="#63b8ff" stroke="#63b8ff" points="980.73,-238.83 991.19,-237.15 981.97,-231.94 980.73,-238.83"/>
</a>
</g>
</g>
<!-- Node19&#45;&gt;Node18 -->
<g id="edge41_Node000019_Node000018" class="edge">
<title>Node19&#45;&gt;Node18</title>
<g id="a_edge41_Node000019_Node000018"><a xlink:title=" ">
<path fill="none" stroke="#63b8ff" d="M978.06,-261.27C954.11,-265.88 927.42,-271.02 904.5,-275.43"/>
<polygon fill="#63b8ff" stroke="#63b8ff" points="978.56,-264.74 987.72,-259.41 977.24,-257.87 978.56,-264.74"/>
</a>
</g>
</g>
<!-- Node21 -->
<g id="Node000021" class="node">
<title>Node21</title>
<g id="a_Node000021"><a xlink:href="namespaceImGui.html#aaeda60ee2c0b5c2b3f397b237c9928f3" target="_top" xlink:title=" ">
<polygon fill="white" stroke="#666666" points="923.75,-386.04 770.5,-386.04 770.5,-352.54 923.75,-352.54 923.75,-386.04"/>
<text text-anchor="start" x="778.5" y="-372.54" font-family="Helvetica,sans-Serif" font-size="10.00">ImGui::ErrorCheckEndFrame</text>
<text text-anchor="middle" x="847.12" y="-359.79" font-family="Helvetica,sans-Serif" font-size="10.00">Recover</text>
</a>
</g>
</g>
<!-- Node20&#45;&gt;Node21 -->
<g id="edge47_Node000020_Node000021" class="edge">
<title>Node20&#45;&gt;Node21</title>
<g id="a_edge47_Node000020_Node000021"><a xlink:title=" ">
<path fill="none" stroke="#63b8ff" d="M954.2,-369.29C944.12,-369.29 933.94,-369.29 924.08,-369.29"/>
<polygon fill="#63b8ff" stroke="#63b8ff" points="953.99,-372.79 963.99,-369.29 953.99,-365.79 953.99,-372.79"/>
</a>
</g>
</g>
</g>
</svg>
