<?xml version="1.0" encoding="UTF-8" standalone="no"?>
<!DOCTYPE svg PUBLIC "-//W3C//DTD SVG 1.1//EN"
 "http://www.w3.org/Graphics/SVG/1.1/DTD/svg11.dtd">
<!-- Generated by graphviz version 12.0.0 (20240704.0754)
 -->
<!-- Title: ImGui::PushAllowKeyboardFocus Pages: 1 -->
<svg width="640pt" height="91pt"
 viewBox="0.00 0.00 639.75 91.12" xmlns="http://www.w3.org/2000/svg" xmlns:xlink="http://www.w3.org/1999/xlink">
<g id="graph0" class="graph" transform="scale(1 1) rotate(0) translate(4 87.12)">
<title>ImGui::PushAllowKeyboardFocus</title>
<!-- Node1 -->
<g id="Node000001" class="node">
<title>Node1</title>
<g id="a_Node000001"><a xlink:title=" ">
<polygon fill="#999999" stroke="#666666" points="147.25,-65.12 0,-65.12 0,-31.62 147.25,-31.62 147.25,-65.12"/>
<text text-anchor="start" x="8" y="-51.62" font-family="Helvetica,sans-Serif" font-size="10.00">ImGui::PushAllowKeyboard</text>
<text text-anchor="middle" x="73.62" y="-38.88" font-family="Helvetica,sans-Serif" font-size="10.00">Focus</text>
</a>
</g>
</g>
<!-- Node1&#45;&gt;Node1 -->
<g id="edge1_Node000001_Node000001" class="edge">
<title>Node1&#45;&gt;Node1</title>
<g id="a_edge1_Node000001_Node000001"><a xlink:title=" ">
<path fill="none" stroke="#63b8ff" d="M43.31,-65.54C38.16,-74.74 48.27,-83.12 73.62,-83.12 87.89,-83.12 97.33,-80.47 101.94,-76.51"/>
<polygon fill="#63b8ff" stroke="#63b8ff" points="105.32,-77.49 103.67,-67.03 98.43,-76.24 105.32,-77.49"/>
</a>
</g>
</g>
<!-- Node2 -->
<g id="Node000002" class="node">
<title>Node2</title>
<g id="a_Node000002"><a xlink:href="namespaceImGui.html#ac7301f6378333f6d17f47823eed9e00a" target="_top" xlink:title=" ">
<polygon fill="white" stroke="#666666" points="301.25,-58.75 183.25,-58.75 183.25,-38 301.25,-38 301.25,-58.75"/>
<text text-anchor="middle" x="242.25" y="-45.25" font-family="Helvetica,sans-Serif" font-size="10.00">ImGui::PushItemFlag</text>
</a>
</g>
</g>
<!-- Node1&#45;&gt;Node2 -->
<g id="edge2_Node000001_Node000002" class="edge">
<title>Node1&#45;&gt;Node2</title>
<g id="a_edge2_Node000001_Node000002"><a xlink:title=" ">
<path fill="none" stroke="#63b8ff" d="M147.71,-48.38C155.64,-48.38 163.7,-48.38 171.59,-48.38"/>
<polygon fill="#63b8ff" stroke="#63b8ff" points="171.48,-51.88 181.48,-48.38 171.48,-44.88 171.48,-51.88"/>
</a>
</g>
</g>
<!-- Node3 -->
<g id="Node000003" class="node">
<title>Node3</title>
<g id="a_Node000003"><a xlink:href="structImVector.html#a2d80e87e81b1b01143c8d8be93e6fde1" target="_top" xlink:title=" ">
<polygon fill="white" stroke="#666666" points="440.25,-78.75 351.5,-78.75 351.5,-58 440.25,-58 440.25,-78.75"/>
<text text-anchor="middle" x="395.88" y="-65.25" font-family="Helvetica,sans-Serif" font-size="10.00">ImVector::back</text>
</a>
</g>
</g>
<!-- Node2&#45;&gt;Node3 -->
<g id="edge3_Node000002_Node000003" class="edge">
<title>Node2&#45;&gt;Node3</title>
<g id="a_edge3_Node000002_Node000003"><a xlink:title=" ">
<path fill="none" stroke="#63b8ff" d="M301.44,-56.05C314.1,-57.72 327.45,-59.48 339.98,-61.13"/>
<polygon fill="#63b8ff" stroke="#63b8ff" points="339.34,-64.58 349.71,-62.42 340.25,-57.64 339.34,-64.58"/>
</a>
</g>
</g>
<!-- Node4 -->
<g id="Node000004" class="node">
<title>Node4</title>
<g id="a_Node000004"><a xlink:href="structImVector.html#aab5df48e0711a48bd12f3206e08c4108" target="_top" xlink:title=" ">
<polygon fill="white" stroke="#666666" points="454.5,-39.75 337.25,-39.75 337.25,-19 454.5,-19 454.5,-39.75"/>
<text text-anchor="middle" x="395.88" y="-26.25" font-family="Helvetica,sans-Serif" font-size="10.00">ImVector::push_back</text>
</a>
</g>
</g>
<!-- Node2&#45;&gt;Node4 -->
<g id="edge4_Node000002_Node000004" class="edge">
<title>Node2&#45;&gt;Node4</title>
<g id="a_edge4_Node000002_Node000004"><a xlink:title=" ">
<path fill="none" stroke="#63b8ff" d="M301.44,-41.08C309.33,-40.09 317.49,-39.07 325.55,-38.06"/>
<polygon fill="#63b8ff" stroke="#63b8ff" points="325.85,-41.55 335.34,-36.84 324.98,-34.61 325.85,-41.55"/>
</a>
</g>
</g>
<!-- Node5 -->
<g id="Node000005" class="node">
<title>Node5</title>
<g id="a_Node000005"><a xlink:href="structImVector.html#a3a097635d464b1b70dc7d59996a88b28" target="_top" xlink:title=" ">
<polygon fill="white" stroke="#666666" points="631.75,-59.75 490.5,-59.75 490.5,-39 631.75,-39 631.75,-59.75"/>
<text text-anchor="middle" x="561.12" y="-46.25" font-family="Helvetica,sans-Serif" font-size="10.00">ImVector::_grow_capacity</text>
</a>
</g>
</g>
<!-- Node4&#45;&gt;Node5 -->
<g id="edge5_Node000004_Node000005" class="edge">
<title>Node4&#45;&gt;Node5</title>
<g id="a_edge5_Node000004_Node000005"><a xlink:title=" ">
<path fill="none" stroke="#63b8ff" d="M454.89,-36.48C462.68,-37.44 470.78,-38.43 478.87,-39.42"/>
<polygon fill="#63b8ff" stroke="#63b8ff" points="478.43,-42.89 488.78,-40.63 479.28,-35.94 478.43,-42.89"/>
</a>
</g>
</g>
<!-- Node6 -->
<g id="Node000006" class="node">
<title>Node6</title>
<g id="a_Node000006"><a xlink:href="structImVector.html#a0f14f5736c3372157856eebb67123b75" target="_top" xlink:title=" ">
<polygon fill="white" stroke="#666666" points="612.25,-20.75 510,-20.75 510,0 612.25,0 612.25,-20.75"/>
<text text-anchor="middle" x="561.12" y="-7.25" font-family="Helvetica,sans-Serif" font-size="10.00">ImVector::reserve</text>
</a>
</g>
</g>
<!-- Node4&#45;&gt;Node6 -->
<g id="edge6_Node000004_Node000006" class="edge">
<title>Node4&#45;&gt;Node6</title>
<g id="a_edge6_Node000004_Node000006"><a xlink:title=" ">
<path fill="none" stroke="#63b8ff" d="M454.89,-22.62C468.99,-20.98 484.12,-19.22 498.39,-17.56"/>
<polygon fill="#63b8ff" stroke="#63b8ff" points="498.58,-21.06 508.11,-16.43 497.77,-14.11 498.58,-21.06"/>
</a>
</g>
</g>
</g>
</svg>
