<?xml version="1.0" encoding="UTF-8" standalone="no"?>
<!DOCTYPE svg PUBLIC "-//W3C//DTD SVG 1.1//EN"
 "http://www.w3.org/Graphics/SVG/1.1/DTD/svg11.dtd">
<!-- Generated by graphviz version 12.2.1 (20241206.2353)
 -->
<!-- Title: ImGui::BeginTabBar Pages: 1 -->
<svg width="1415pt" height="347pt"
 viewBox="0.00 0.00 1414.75 347.12" xmlns="http://www.w3.org/2000/svg" xmlns:xlink="http://www.w3.org/1999/xlink">
<g id="graph0" class="graph" transform="scale(1 1) rotate(0) translate(4 343.12)">
<title>ImGui::BeginTabBar</title>
<!-- Node1 -->
<g id="Node000001" class="node">
<title>Node1</title>
<g id="a_Node000001"><a xlink:title=" ">
<polygon fill="#999999" stroke="#666666" points="112,-59.75 0,-59.75 0,-39 112,-39 112,-59.75"/>
<text text-anchor="middle" x="56" y="-46.25" font-family="Helvetica,sans-Serif" font-size="10.00">ImGui::BeginTabBar</text>
</a>
</g>
</g>
<!-- Node2 -->
<g id="Node000002" class="node">
<title>Node2</title>
<g id="a_Node000002"><a xlink:href="namespaceImGui.html#ae630dd2237aa12e9a306af817d8996c3" target="_top" xlink:title=" ">
<polygon fill="white" stroke="#666666" points="276.88,-134.75 152.88,-134.75 152.88,-114 276.88,-114 276.88,-134.75"/>
<text text-anchor="middle" x="214.88" y="-121.25" font-family="Helvetica,sans-Serif" font-size="10.00">ImGui::BeginTabBarEx</text>
</a>
</g>
</g>
<!-- Node1&#45;&gt;Node2 -->
<g id="edge1_Node000001_Node000002" class="edge">
<title>Node1&#45;&gt;Node2</title>
<g id="a_edge1_Node000001_Node000002"><a xlink:title=" ">
<path fill="none" stroke="#63b8ff" d="M79.48,-60.12C106.08,-72.84 150.6,-94.12 181.05,-108.68"/>
<polygon fill="#63b8ff" stroke="#63b8ff" points="179.29,-111.72 189.82,-112.87 182.31,-105.4 179.29,-111.72"/>
</a>
</g>
</g>
<!-- Node23 -->
<g id="Node000023" class="node">
<title>Node23</title>
<g id="a_Node000023"><a xlink:href="structImGuiWindow.html#a66400a63bc0b54d7d29e08d1b1b1a42b" target="_top" xlink:title=" ">
<polygon fill="white" stroke="#666666" points="273.5,-59.75 156.25,-59.75 156.25,-39 273.5,-39 273.5,-59.75"/>
<text text-anchor="middle" x="214.88" y="-46.25" font-family="Helvetica,sans-Serif" font-size="10.00">ImGuiWindow::GetID</text>
</a>
</g>
</g>
<!-- Node1&#45;&gt;Node23 -->
<g id="edge26_Node000001_Node000023" class="edge">
<title>Node1&#45;&gt;Node23</title>
<g id="a_edge26_Node000001_Node000023"><a xlink:title=" ">
<path fill="none" stroke="#63b8ff" d="M112.31,-49.38C122.78,-49.38 133.86,-49.38 144.7,-49.38"/>
<polygon fill="#63b8ff" stroke="#63b8ff" points="144.36,-52.88 154.36,-49.38 144.36,-45.88 144.36,-52.88"/>
</a>
</g>
</g>
<!-- Node24 -->
<g id="Node000024" class="node">
<title>Node24</title>
<g id="a_Node000024"><a xlink:href="structImPool.html#a47973a2eac8e4c06ef369ac02d23f4e5" target="_top" xlink:title=" ">
<polygon fill="white" stroke="#666666" points="281.75,-20.75 148,-20.75 148,0 281.75,0 281.75,-20.75"/>
<text text-anchor="middle" x="214.88" y="-7.25" font-family="Helvetica,sans-Serif" font-size="10.00">ImPool::GetOrAddByKey</text>
</a>
</g>
</g>
<!-- Node1&#45;&gt;Node24 -->
<g id="edge28_Node000001_Node000024" class="edge">
<title>Node1&#45;&gt;Node24</title>
<g id="a_edge28_Node000001_Node000024"><a xlink:title=" ">
<path fill="none" stroke="#63b8ff" d="M100.7,-38.51C118.81,-34.01 140.02,-28.74 159.15,-23.98"/>
<polygon fill="#63b8ff" stroke="#63b8ff" points="159.81,-27.42 168.67,-21.61 158.12,-20.63 159.81,-27.42"/>
</a>
</g>
</g>
<!-- Node3 -->
<g id="Node000003" class="node">
<title>Node3</title>
<g id="a_Node000003"><a xlink:href="structImDrawList.html#a6b16ab764160b0251d2e7b3bd08c1ffc" target="_top" xlink:title=" ">
<polygon fill="white" stroke="#666666" points="462,-211.75 317.75,-211.75 317.75,-191 462,-191 462,-211.75"/>
<text text-anchor="middle" x="389.88" y="-198.25" font-family="Helvetica,sans-Serif" font-size="10.00">ImDrawList::AddRectFilled</text>
</a>
</g>
</g>
<!-- Node2&#45;&gt;Node3 -->
<g id="edge2_Node000002_Node000003" class="edge">
<title>Node2&#45;&gt;Node3</title>
<g id="a_edge2_Node000002_Node000003"><a xlink:title=" ">
<path fill="none" stroke="#63b8ff" d="M240.29,-135.24C270.05,-148.49 320.51,-170.95 354.26,-185.97"/>
<polygon fill="#63b8ff" stroke="#63b8ff" points="352.64,-189.08 363.2,-189.95 355.48,-182.68 352.64,-189.08"/>
</a>
</g>
</g>
<!-- Node15 -->
<g id="Node000015" class="node">
<title>Node15</title>
<g id="a_Node000015"><a xlink:href="namespaceImGui.html#a0de2d9bd347d9866511eb8d014e62556" target="_top" xlink:title=" ">
<polygon fill="white" stroke="#666666" points="446.62,-291.75 333.12,-291.75 333.12,-271 446.62,-271 446.62,-291.75"/>
<text text-anchor="middle" x="389.88" y="-278.25" font-family="Helvetica,sans-Serif" font-size="10.00">ImGui::GetColorU32</text>
</a>
</g>
</g>
<!-- Node2&#45;&gt;Node15 -->
<g id="edge15_Node000002_Node000015" class="edge">
<title>Node2&#45;&gt;Node15</title>
<g id="a_edge15_Node000002_Node000015"><a xlink:title=" ">
<path fill="none" stroke="#63b8ff" d="M227.02,-135.2C245.59,-153.17 284.14,-190.15 317.75,-220.38 334.12,-235.1 353.07,-251.3 367.28,-263.31"/>
<polygon fill="#63b8ff" stroke="#63b8ff" points="364.81,-265.8 374.71,-269.56 369.31,-260.44 364.81,-265.8"/>
</a>
</g>
</g>
<!-- Node17 -->
<g id="Node000017" class="node">
<title>Node17</title>
<g id="a_Node000017"><a xlink:href="structImVector.html#aab5df48e0711a48bd12f3206e08c4108" target="_top" xlink:title=" ">
<polygon fill="white" stroke="#666666" points="819.12,-97.75 701.88,-97.75 701.88,-77 819.12,-77 819.12,-97.75"/>
<text text-anchor="middle" x="760.5" y="-84.25" font-family="Helvetica,sans-Serif" font-size="10.00">ImVector::push_back</text>
</a>
</g>
</g>
<!-- Node2&#45;&gt;Node17 -->
<g id="edge17_Node000002_Node000017" class="edge">
<title>Node2&#45;&gt;Node17</title>
<g id="a_edge17_Node000002_Node000017"><a xlink:title=" ">
<path fill="none" stroke="#63b8ff" d="M277.07,-122.13C360.8,-118.79 515.71,-111.68 647.5,-100.38 661.35,-99.19 676.14,-97.66 690.27,-96.07"/>
<polygon fill="#63b8ff" stroke="#63b8ff" points="690.4,-99.58 699.93,-94.96 689.6,-92.62 690.4,-99.58"/>
</a>
</g>
</g>
<!-- Node20 -->
<g id="Node000020" class="node">
<title>Node20</title>
<g id="a_Node000020"><a xlink:href="namespaceImGui.html#acff64eb876d279cfe1cc6129ccd19930" target="_top" xlink:title=" ">
<polygon fill="white" stroke="#666666" points="453.38,-96.75 326.38,-96.75 326.38,-76 453.38,-76 453.38,-96.75"/>
<text text-anchor="middle" x="389.88" y="-83.25" font-family="Helvetica,sans-Serif" font-size="10.00">ImGui::PushOverrideID</text>
</a>
</g>
</g>
<!-- Node2&#45;&gt;Node20 -->
<g id="edge20_Node000002_Node000020" class="edge">
<title>Node2&#45;&gt;Node20</title>
<g id="a_edge20_Node000002_Node000020"><a xlink:title=" ">
<path fill="none" stroke="#63b8ff" d="M264.99,-113.59C284.8,-109.24 307.86,-104.17 328.67,-99.6"/>
<polygon fill="#63b8ff" stroke="#63b8ff" points="329.15,-103.08 338.16,-97.51 327.64,-96.24 329.15,-103.08"/>
</a>
</g>
</g>
<!-- Node4 -->
<g id="Node000004" class="node">
<title>Node4</title>
<g id="a_Node000004"><a xlink:href="structImDrawList.html#aea9301cb99ebf4b27f5d3959017567c9" target="_top" xlink:title=" ">
<polygon fill="white" stroke="#666666" points="647.5,-211.75 498,-211.75 498,-191 647.5,-191 647.5,-211.75"/>
<text text-anchor="middle" x="572.75" y="-198.25" font-family="Helvetica,sans-Serif" font-size="10.00">ImDrawList::PathFillConvex</text>
</a>
</g>
</g>
<!-- Node3&#45;&gt;Node4 -->
<g id="edge3_Node000003_Node000004" class="edge">
<title>Node3&#45;&gt;Node4</title>
<g id="a_edge3_Node000003_Node000004"><a xlink:title=" ">
<path fill="none" stroke="#63b8ff" d="M462.36,-201.38C470.21,-201.38 478.27,-201.38 486.27,-201.38"/>
<polygon fill="#63b8ff" stroke="#63b8ff" points="486,-204.88 496,-201.38 486,-197.88 486,-204.88"/>
</a>
</g>
</g>
<!-- Node6 -->
<g id="Node000006" class="node">
<title>Node6</title>
<g id="a_Node000006"><a xlink:href="structImDrawList.html#a879aa38dbfb0344e3e023d65c002c7d7" target="_top" xlink:title=" ">
<polygon fill="white" stroke="#666666" points="1024.12,-226.75 884.38,-226.75 884.38,-206 1024.12,-206 1024.12,-226.75"/>
<text text-anchor="middle" x="954.25" y="-213.25" font-family="Helvetica,sans-Serif" font-size="10.00">ImDrawList::PrimReserve</text>
</a>
</g>
</g>
<!-- Node3&#45;&gt;Node6 -->
<g id="edge14_Node000003_Node000006" class="edge">
<title>Node3&#45;&gt;Node6</title>
<g id="a_edge14_Node000003_Node000006"><a xlink:title=" ">
<path fill="none" stroke="#63b8ff" d="M441.58,-212.25C459.34,-215.56 479.47,-218.74 498,-220.38 628.81,-231.89 781.58,-226.77 872.71,-221.76"/>
<polygon fill="#63b8ff" stroke="#63b8ff" points="872.76,-225.26 882.55,-221.21 872.37,-218.28 872.76,-225.26"/>
</a>
</g>
</g>
<!-- Node9 -->
<g id="Node000009" class="node">
<title>Node9</title>
<g id="a_Node000009"><a xlink:href="structImDrawList.html#a2251eb264ed8b17a253c409787375053" target="_top" xlink:title=" ">
<polygon fill="white" stroke="#666666" points="632.88,-287.75 512.62,-287.75 512.62,-267 632.88,-267 632.88,-287.75"/>
<text text-anchor="middle" x="572.75" y="-274.25" font-family="Helvetica,sans-Serif" font-size="10.00">ImDrawList::PathRect</text>
</a>
</g>
</g>
<!-- Node3&#45;&gt;Node9 -->
<g id="edge8_Node000003_Node000009" class="edge">
<title>Node3&#45;&gt;Node9</title>
<g id="a_edge8_Node000003_Node000009"><a xlink:title=" ">
<path fill="none" stroke="#63b8ff" d="M411.03,-212.19C432.29,-223.35 466.94,-240.85 498,-253.38 506.34,-256.74 515.35,-259.98 524.11,-262.94"/>
<polygon fill="#63b8ff" stroke="#63b8ff" points="522.98,-266.25 533.57,-266.04 525.16,-259.6 522.98,-266.25"/>
</a>
</g>
</g>
<!-- Node14 -->
<g id="Node000014" class="node">
<title>Node14</title>
<g id="a_Node000014"><a xlink:href="structImDrawList.html#ae2be093563f1d20b8190b7c423113925" target="_top" xlink:title=" ">
<polygon fill="white" stroke="#666666" points="633.62,-172.75 511.88,-172.75 511.88,-152 633.62,-152 633.62,-172.75"/>
<text text-anchor="middle" x="572.75" y="-159.25" font-family="Helvetica,sans-Serif" font-size="10.00">ImDrawList::PrimRect</text>
</a>
</g>
</g>
<!-- Node3&#45;&gt;Node14 -->
<g id="edge13_Node000003_Node000014" class="edge">
<title>Node3&#45;&gt;Node14</title>
<g id="a_edge13_Node000003_Node000014"><a xlink:title=" ">
<path fill="none" stroke="#63b8ff" d="M441.26,-190.51C462.63,-185.9 487.74,-180.49 510.2,-175.65"/>
<polygon fill="#63b8ff" stroke="#63b8ff" points="510.81,-179.1 519.84,-173.57 509.33,-172.25 510.81,-179.1"/>
</a>
</g>
</g>
<!-- Node5 -->
<g id="Node000005" class="node">
<title>Node5</title>
<g id="a_Node000005"><a xlink:href="structImDrawList.html#ad2accc0a74845b08bd0e6fae6183d6d0" target="_top" xlink:title=" ">
<polygon fill="white" stroke="#666666" points="837.5,-211.12 683.5,-211.12 683.5,-177.62 837.5,-177.62 837.5,-211.12"/>
<text text-anchor="start" x="691.5" y="-197.62" font-family="Helvetica,sans-Serif" font-size="10.00">ImDrawList::AddConvexPoly</text>
<text text-anchor="middle" x="760.5" y="-184.88" font-family="Helvetica,sans-Serif" font-size="10.00">Filled</text>
</a>
</g>
</g>
<!-- Node4&#45;&gt;Node5 -->
<g id="edge4_Node000004_Node000005" class="edge">
<title>Node4&#45;&gt;Node5</title>
<g id="a_edge4_Node000004_Node000005"><a xlink:title=" ">
<path fill="none" stroke="#63b8ff" d="M647.96,-198.58C655.86,-198.28 663.95,-197.98 671.98,-197.67"/>
<polygon fill="#63b8ff" stroke="#63b8ff" points="671.9,-201.18 681.77,-197.3 671.64,-194.18 671.9,-201.18"/>
</a>
</g>
</g>
<!-- Node5&#45;&gt;Node6 -->
<g id="edge5_Node000005_Node000006" class="edge">
<title>Node5&#45;&gt;Node6</title>
<g id="a_edge5_Node000005_Node000006"><a xlink:title=" ">
<path fill="none" stroke="#63b8ff" d="M837.84,-203.13C849.27,-204.45 861.1,-205.8 872.62,-207.12"/>
<polygon fill="#63b8ff" stroke="#63b8ff" points="872.18,-210.6 882.51,-208.26 872.97,-203.64 872.18,-210.6"/>
</a>
</g>
</g>
<!-- Node7 -->
<g id="Node000007" class="node">
<title>Node7</title>
<g id="a_Node000007"><a xlink:href="structImDrawList.html#a7f2e315f147acd8b555d86d1557659cc" target="_top" xlink:title=" ">
<polygon fill="white" stroke="#666666" points="1226.5,-233.12 1071,-233.12 1071,-199.62 1226.5,-199.62 1226.5,-233.12"/>
<text text-anchor="start" x="1079" y="-219.62" font-family="Helvetica,sans-Serif" font-size="10.00">ImDrawList::_OnChangedVtx</text>
<text text-anchor="middle" x="1148.75" y="-206.88" font-family="Helvetica,sans-Serif" font-size="10.00">Offset</text>
</a>
</g>
</g>
<!-- Node6&#45;&gt;Node7 -->
<g id="edge6_Node000006_Node000007" class="edge">
<title>Node6&#45;&gt;Node7</title>
<g id="a_edge6_Node000006_Node000007"><a xlink:title=" ">
<path fill="none" stroke="#63b8ff" d="M1024.47,-216.38C1035.83,-216.38 1047.73,-216.38 1059.47,-216.38"/>
<polygon fill="#63b8ff" stroke="#63b8ff" points="1059.14,-219.88 1069.14,-216.38 1059.14,-212.88 1059.14,-219.88"/>
</a>
</g>
</g>
<!-- Node8 -->
<g id="Node000008" class="node">
<title>Node8</title>
<g id="a_Node000008"><a xlink:href="structImDrawList.html#a846714bb0321c6f1f908767abc8559e6" target="_top" xlink:title=" ">
<polygon fill="white" stroke="#666666" points="1406.75,-226.75 1262.5,-226.75 1262.5,-206 1406.75,-206 1406.75,-226.75"/>
<text text-anchor="middle" x="1334.62" y="-213.25" font-family="Helvetica,sans-Serif" font-size="10.00">ImDrawList::AddDrawCmd</text>
</a>
</g>
</g>
<!-- Node7&#45;&gt;Node8 -->
<g id="edge7_Node000007_Node000008" class="edge">
<title>Node7&#45;&gt;Node8</title>
<g id="a_edge7_Node000007_Node000008"><a xlink:title=" ">
<path fill="none" stroke="#63b8ff" d="M1226.93,-216.38C1234.79,-216.38 1242.79,-216.38 1250.71,-216.38"/>
<polygon fill="#63b8ff" stroke="#63b8ff" points="1250.7,-219.88 1260.7,-216.38 1250.7,-212.88 1250.7,-219.88"/>
</a>
</g>
</g>
<!-- Node10 -->
<g id="Node000010" class="node">
<title>Node10</title>
<g id="a_Node000010"><a xlink:href="structImDrawList.html#a6d307c6de1a6522e76fa410e8fe96fcc" target="_top" xlink:title=" ">
<polygon fill="white" stroke="#666666" points="832.62,-326.75 688.38,-326.75 688.38,-306 832.62,-306 832.62,-326.75"/>
<text text-anchor="middle" x="760.5" y="-313.25" font-family="Helvetica,sans-Serif" font-size="10.00">ImDrawList::PathArcToFast</text>
</a>
</g>
</g>
<!-- Node9&#45;&gt;Node10 -->
<g id="edge9_Node000009_Node000010" class="edge">
<title>Node9&#45;&gt;Node10</title>
<g id="a_edge9_Node000009_Node000010"><a xlink:title=" ">
<path fill="none" stroke="#63b8ff" d="M625.49,-288.24C647.54,-292.87 673.46,-298.31 696.61,-303.17"/>
<polygon fill="#63b8ff" stroke="#63b8ff" points="695.73,-306.56 706.23,-305.19 697.17,-299.71 695.73,-306.56"/>
</a>
</g>
</g>
<!-- Node13 -->
<g id="Node000013" class="node">
<title>Node13</title>
<g id="a_Node000013"><a xlink:href="structImDrawList.html#a828d944325ed58d8b57abd3647bffaaf" target="_top" xlink:title=" ">
<polygon fill="white" stroke="#666666" points="825.12,-287.75 695.88,-287.75 695.88,-267 825.12,-267 825.12,-287.75"/>
<text text-anchor="middle" x="760.5" y="-274.25" font-family="Helvetica,sans-Serif" font-size="10.00">ImDrawList::PathLineTo</text>
</a>
</g>
</g>
<!-- Node9&#45;&gt;Node13 -->
<g id="edge12_Node000009_Node000013" class="edge">
<title>Node9&#45;&gt;Node13</title>
<g id="a_edge12_Node000009_Node000013"><a xlink:title=" ">
<path fill="none" stroke="#63b8ff" d="M633.29,-277.38C649.57,-277.38 667.42,-277.38 684.44,-277.38"/>
<polygon fill="#63b8ff" stroke="#63b8ff" points="683.97,-280.88 693.97,-277.38 683.97,-273.88 683.97,-280.88"/>
</a>
</g>
</g>
<!-- Node11 -->
<g id="Node000011" class="node">
<title>Node11</title>
<g id="a_Node000011"><a xlink:href="structImDrawList.html#ac25f3a7693ed13ba2dac455675be8654" target="_top" xlink:title=" ">
<polygon fill="white" stroke="#666666" points="1035,-326.75 873.5,-326.75 873.5,-306 1035,-306 1035,-326.75"/>
<text text-anchor="middle" x="954.25" y="-313.25" font-family="Helvetica,sans-Serif" font-size="10.00">ImDrawList::_PathArcToFastEx</text>
</a>
</g>
</g>
<!-- Node10&#45;&gt;Node11 -->
<g id="edge10_Node000010_Node000011" class="edge">
<title>Node10&#45;&gt;Node11</title>
<g id="a_edge10_Node000010_Node000011"><a xlink:title=" ">
<path fill="none" stroke="#63b8ff" d="M832.9,-316.38C842.31,-316.38 852.06,-316.38 861.76,-316.38"/>
<polygon fill="#63b8ff" stroke="#63b8ff" points="861.57,-319.88 871.57,-316.38 861.57,-312.88 861.57,-319.88"/>
</a>
</g>
</g>
<!-- Node12 -->
<g id="Node000012" class="node">
<title>Node12</title>
<g id="a_Node000012"><a xlink:href="structImDrawList.html#a52afa32aaab6d581cda90dc5d8726ed6" target="_top" xlink:title=" ">
<polygon fill="white" stroke="#666666" points="1225.75,-333.12 1071.75,-333.12 1071.75,-299.62 1225.75,-299.62 1225.75,-333.12"/>
<text text-anchor="start" x="1079.75" y="-319.62" font-family="Helvetica,sans-Serif" font-size="10.00">ImDrawList::_CalcCircleAuto</text>
<text text-anchor="middle" x="1148.75" y="-306.88" font-family="Helvetica,sans-Serif" font-size="10.00">SegmentCount</text>
</a>
</g>
</g>
<!-- Node11&#45;&gt;Node12 -->
<g id="edge11_Node000011_Node000012" class="edge">
<title>Node11&#45;&gt;Node12</title>
<g id="a_edge11_Node000011_Node000012"><a xlink:title=" ">
<path fill="none" stroke="#63b8ff" d="M1035.49,-316.38C1043.56,-316.38 1051.78,-316.38 1059.91,-316.38"/>
<polygon fill="#63b8ff" stroke="#63b8ff" points="1059.82,-319.88 1069.82,-316.38 1059.82,-312.88 1059.82,-319.88"/>
</a>
</g>
</g>
<!-- Node16 -->
<g id="Node000016" class="node">
<title>Node16</title>
<g id="a_Node000016"><a xlink:href="namespaceImGui.html#abe2691de0b1a71c774ab24cc91564a94" target="_top" xlink:title=" ">
<polygon fill="white" stroke="#666666" points="645.62,-339.12 499.88,-339.12 499.88,-305.62 645.62,-305.62 645.62,-339.12"/>
<text text-anchor="start" x="507.88" y="-325.62" font-family="Helvetica,sans-Serif" font-size="10.00">ImGui::ColorConvertFloat4</text>
<text text-anchor="middle" x="572.75" y="-312.88" font-family="Helvetica,sans-Serif" font-size="10.00">ToU32</text>
</a>
</g>
</g>
<!-- Node15&#45;&gt;Node16 -->
<g id="edge16_Node000015_Node000016" class="edge">
<title>Node15&#45;&gt;Node16</title>
<g id="a_edge16_Node000015_Node000016"><a xlink:title=" ">
<path fill="none" stroke="#63b8ff" d="M438.4,-292.15C453.77,-295.63 471.29,-299.6 488.46,-303.5"/>
<polygon fill="#63b8ff" stroke="#63b8ff" points="487.67,-306.91 498.2,-305.7 489.22,-300.08 487.67,-306.91"/>
</a>
</g>
</g>
<!-- Node18 -->
<g id="Node000018" class="node">
<title>Node18</title>
<g id="a_Node000018"><a xlink:href="structImVector.html#a3a097635d464b1b70dc7d59996a88b28" target="_top" xlink:title=" ">
<polygon fill="white" stroke="#666666" points="1024.88,-58.75 883.62,-58.75 883.62,-38 1024.88,-38 1024.88,-58.75"/>
<text text-anchor="middle" x="954.25" y="-45.25" font-family="Helvetica,sans-Serif" font-size="10.00">ImVector::_grow_capacity</text>
</a>
</g>
</g>
<!-- Node17&#45;&gt;Node18 -->
<g id="edge18_Node000017_Node000018" class="edge">
<title>Node17&#45;&gt;Node18</title>
<g id="a_edge18_Node000017_Node000018"><a xlink:title=" ">
<path fill="none" stroke="#63b8ff" d="M814.91,-76.51C837.78,-71.86 864.68,-66.39 888.65,-61.51"/>
<polygon fill="#63b8ff" stroke="#63b8ff" points="889.21,-64.97 898.31,-59.55 887.81,-58.11 889.21,-64.97"/>
</a>
</g>
</g>
<!-- Node19 -->
<g id="Node000019" class="node">
<title>Node19</title>
<g id="a_Node000019"><a xlink:href="structImVector.html#a0f14f5736c3372157856eebb67123b75" target="_top" xlink:title=" ">
<polygon fill="white" stroke="#666666" points="1005.38,-97.75 903.12,-97.75 903.12,-77 1005.38,-77 1005.38,-97.75"/>
<text text-anchor="middle" x="954.25" y="-84.25" font-family="Helvetica,sans-Serif" font-size="10.00">ImVector::reserve</text>
</a>
</g>
</g>
<!-- Node17&#45;&gt;Node19 -->
<g id="edge19_Node000017_Node000019" class="edge">
<title>Node17&#45;&gt;Node19</title>
<g id="a_edge19_Node000017_Node000019"><a xlink:title=" ">
<path fill="none" stroke="#63b8ff" d="M819.55,-87.38C842.28,-87.38 868.38,-87.38 891.45,-87.38"/>
<polygon fill="#63b8ff" stroke="#63b8ff" points="891.35,-90.88 901.35,-87.38 891.35,-83.88 891.35,-90.88"/>
</a>
</g>
</g>
<!-- Node20&#45;&gt;Node17 -->
<g id="edge25_Node000020_Node000017" class="edge">
<title>Node20&#45;&gt;Node17</title>
<g id="a_edge25_Node000020_Node000017"><a xlink:title=" ">
<path fill="none" stroke="#63b8ff" d="M453.83,-86.55C519.53,-86.72 622.27,-87 690.23,-87.19"/>
<polygon fill="#63b8ff" stroke="#63b8ff" points="690.14,-90.69 700.15,-87.21 690.16,-83.69 690.14,-90.69"/>
</a>
</g>
</g>
<!-- Node21 -->
<g id="Node000021" class="node">
<title>Node21</title>
<g id="a_Node000021"><a xlink:href="namespaceImGui.html#a5487269f4cb9fb809fd3e797411ed2d7" target="_top" xlink:title=" ">
<polygon fill="white" stroke="#666666" points="640.75,-58.75 504.75,-58.75 504.75,-38 640.75,-38 640.75,-58.75"/>
<text text-anchor="middle" x="572.75" y="-45.25" font-family="Helvetica,sans-Serif" font-size="10.00">ImGui::DebugHookIdInfo</text>
</a>
</g>
</g>
<!-- Node20&#45;&gt;Node21 -->
<g id="edge21_Node000020_Node000021" class="edge">
<title>Node20&#45;&gt;Node21</title>
<g id="a_edge21_Node000020_Node000021"><a xlink:title=" ">
<path fill="none" stroke="#63b8ff" d="M442.22,-75.59C463.03,-71.22 487.27,-66.12 509.1,-61.54"/>
<polygon fill="#63b8ff" stroke="#63b8ff" points="509.73,-64.98 518.79,-59.5 508.29,-58.13 509.73,-64.98"/>
</a>
</g>
</g>
<!-- Node22 -->
<g id="Node000022" class="node">
<title>Node22</title>
<g id="a_Node000022"><a xlink:href="structImVector.html#ac371dd62e56ae486b1a5038cf07eee56" target="_top" xlink:title=" ">
<polygon fill="white" stroke="#666666" points="807.88,-58.75 713.12,-58.75 713.12,-38 807.88,-38 807.88,-58.75"/>
<text text-anchor="middle" x="760.5" y="-45.25" font-family="Helvetica,sans-Serif" font-size="10.00">ImVector::resize</text>
</a>
</g>
</g>
<!-- Node21&#45;&gt;Node22 -->
<g id="edge22_Node000021_Node000022" class="edge">
<title>Node21&#45;&gt;Node22</title>
<g id="a_edge22_Node000021_Node000022"><a xlink:title=" ">
<path fill="none" stroke="#63b8ff" d="M641.07,-48.38C660.85,-48.38 682.31,-48.38 701.46,-48.38"/>
<polygon fill="#63b8ff" stroke="#63b8ff" points="701.23,-51.88 711.23,-48.38 701.23,-44.88 701.23,-51.88"/>
</a>
</g>
</g>
<!-- Node22&#45;&gt;Node18 -->
<g id="edge23_Node000022_Node000018" class="edge">
<title>Node22&#45;&gt;Node18</title>
<g id="a_edge23_Node000022_Node000018"><a xlink:title=" ">
<path fill="none" stroke="#63b8ff" d="M807.92,-48.38C827.17,-48.38 850.09,-48.38 871.97,-48.38"/>
<polygon fill="#63b8ff" stroke="#63b8ff" points="871.78,-51.88 881.78,-48.38 871.78,-44.88 871.78,-51.88"/>
</a>
</g>
</g>
<!-- Node22&#45;&gt;Node19 -->
<g id="edge24_Node000022_Node000019" class="edge">
<title>Node22&#45;&gt;Node19</title>
<g id="a_edge24_Node000022_Node000019"><a xlink:title=" ">
<path fill="none" stroke="#63b8ff" d="M807.92,-57.82C833.15,-62.95 864.67,-69.36 891.91,-74.9"/>
<polygon fill="#63b8ff" stroke="#63b8ff" points="890.91,-78.27 901.41,-76.83 892.3,-71.41 890.91,-78.27"/>
</a>
</g>
</g>
<!-- Node23&#45;&gt;Node21 -->
<g id="edge27_Node000023_Node000021" class="edge">
<title>Node23&#45;&gt;Node21</title>
<g id="a_edge27_Node000023_Node000021"><a xlink:title=" ">
<path fill="none" stroke="#63b8ff" d="M273.84,-49.21C333.52,-49.04 426.88,-48.78 493.17,-48.6"/>
<polygon fill="#63b8ff" stroke="#63b8ff" points="492.89,-52.1 502.88,-48.57 492.87,-45.1 492.89,-52.1"/>
</a>
</g>
</g>
<!-- Node25 -->
<g id="Node000025" class="node">
<title>Node25</title>
<g id="a_Node000025"><a xlink:href="structImPool.html#a39f9b742304d164c4298031537c1b09c" target="_top" xlink:title=" ">
<polygon fill="white" stroke="#666666" points="427.12,-20.75 352.62,-20.75 352.62,0 427.12,0 427.12,-20.75"/>
<text text-anchor="middle" x="389.88" y="-7.25" font-family="Helvetica,sans-Serif" font-size="10.00">ImPool::Add</text>
</a>
</g>
</g>
<!-- Node24&#45;&gt;Node25 -->
<g id="edge29_Node000024_Node000025" class="edge">
<title>Node24&#45;&gt;Node25</title>
<g id="a_edge29_Node000024_Node000025"><a xlink:title=" ">
<path fill="none" stroke="#63b8ff" d="M281.77,-10.38C301.45,-10.38 322.63,-10.38 340.93,-10.38"/>
<polygon fill="#63b8ff" stroke="#63b8ff" points="340.68,-13.88 350.68,-10.38 340.68,-6.88 340.68,-13.88"/>
</a>
</g>
</g>
</g>
</svg>
