<?xml version="1.0" encoding="UTF-8" standalone="no"?>
<!DOCTYPE svg PUBLIC "-//W3C//DTD SVG 1.1//EN"
 "http://www.w3.org/Graphics/SVG/1.1/DTD/svg11.dtd">
<!-- Generated by graphviz version 12.2.1 (20241206.2353)
 -->
<!-- Title: ImGui::ColorEdit4 Pages: 1 -->
<svg width="458pt" height="170pt"
 viewBox="0.00 0.00 458.00 170.12" xmlns="http://www.w3.org/2000/svg" xmlns:xlink="http://www.w3.org/1999/xlink">

<svg id="main" version="1.1" xmlns="http://www.w3.org/2000/svg" xmlns:xlink="http://www.w3.org/1999/xlink" xml:space="preserve">

<style type="text/css"><![CDATA[
.node, .edge {opacity: 0.7;}
.node.selected, .edge.selected {opacity: 1;}
.edge:hover path { stroke: red; }
.edge:hover polygon { stroke: red; fill: red; }
]]></style>
<script type="application/ecmascript" xlink:href="svg.min.js"/>
<svg id="graph" class="graph">
<g id="graph0" class="graph" transform="scale(1 1) rotate(0) translate(4 166.12)">
<title>ImGui::ColorEdit4</title>
<!-- Node1 -->
<g id="Node000001" class="node">
<title>Node1</title>
<g id="a_Node000001"><a xlink:title=" ">
<polygon fill="#999999" stroke="#666666" points="450,-65.75 348.5,-65.75 348.5,-45 450,-45 450,-65.75"/>
<text text-anchor="middle" x="399.25" y="-52.25" font-family="Helvetica,sans-Serif" font-size="10.00">ImGui::ColorEdit4</text>
</a>
</g>
</g>
<!-- Node2 -->
<g id="Node000002" class="node">
<title>Node2</title>
<g id="a_Node000002"><a xlink:href="namespaceImGui.html#a5afe76ba1c91f07363e40396e7df656e" target="_top" xlink:title=" ">
<polygon fill="white" stroke="#666666" points="297.88,-129.75 196.38,-129.75 196.38,-109 297.88,-109 297.88,-129.75"/>
<text text-anchor="middle" x="247.12" y="-116.25" font-family="Helvetica,sans-Serif" font-size="10.00">ImGui::ColorEdit3</text>
</a>
</g>
</g>
<!-- Node1&#45;&gt;Node2 -->
<g id="edge1_Node000001_Node000002" class="edge">
<title>Node1&#45;&gt;Node2</title>
<g id="a_edge1_Node000001_Node000002"><a xlink:title=" ">
<path fill="none" stroke="#63b8ff" d="M362.43,-70.65C335.01,-82.34 297.87,-98.17 273.47,-108.57"/>
<polygon fill="#63b8ff" stroke="#63b8ff" points="363.56,-73.97 371.39,-66.83 360.82,-67.53 363.56,-73.97"/>
</a>
</g>
</g>
<!-- Node4 -->
<g id="Node000004" class="node">
<title>Node4</title>
<g id="a_Node000004"><a xlink:href="namespaceImGui.html#a3d5aae9e0a14aa051d5a799abbe97b32" target="_top" xlink:title=" ">
<polygon fill="white" stroke="#666666" points="303.12,-65.75 191.12,-65.75 191.12,-45 303.12,-45 303.12,-65.75"/>
<text text-anchor="middle" x="247.12" y="-52.25" font-family="Helvetica,sans-Serif" font-size="10.00">ImGui::ColorPicker4</text>
</a>
</g>
</g>
<!-- Node1&#45;&gt;Node4 -->
<g id="edge3_Node000001_Node000004" class="edge">
<title>Node1&#45;&gt;Node4</title>
<g id="a_edge3_Node000001_Node000004"><a xlink:title=" ">
<path fill="none" stroke="#63b8ff" d="M336.94,-48.73C325.9,-48.56 314.45,-48.6 303.59,-48.83"/>
<polygon fill="#63b8ff" stroke="#63b8ff" points="336.67,-52.22 346.75,-48.94 336.83,-45.22 336.67,-52.22"/>
</a>
</g>
</g>
<!-- Node7 -->
<g id="Node000007" class="node">
<title>Node7</title>
<g id="a_Node000007"><a xlink:href="namespaceImGui.html#ab2eb3dec78d054fe3feab1c091ec5de5" target="_top" xlink:title=" ">
<polygon fill="white" stroke="#666666" points="312.5,-23.75 181.75,-23.75 181.75,-3 312.5,-3 312.5,-23.75"/>
<text text-anchor="middle" x="247.12" y="-10.25" font-family="Helvetica,sans-Serif" font-size="10.00">ImGui::ShowStyleEditor</text>
</a>
</g>
</g>
<!-- Node1&#45;&gt;Node7 -->
<g id="edge8_Node000001_Node000007" class="edge">
<title>Node1&#45;&gt;Node7</title>
<g id="a_edge8_Node000001_Node000007"><a xlink:title=" ">
<path fill="none" stroke="#63b8ff" d="M348.75,-41.53C328.65,-35.9 305.77,-29.5 286.92,-24.23"/>
<polygon fill="#63b8ff" stroke="#63b8ff" points="347.56,-44.83 358.13,-44.15 349.44,-38.09 347.56,-44.83"/>
</a>
</g>
</g>
<!-- Node3 -->
<g id="Node000003" class="node">
<title>Node3</title>
<g id="a_Node000003"><a xlink:href="structExampleAppDocuments.html#a007a1a59693a3c7fc7d87815e022dbe4" target="_top" xlink:title=" ">
<polygon fill="white" stroke="#666666" points="139.38,-162.12 6.38,-162.12 6.38,-128.62 139.38,-128.62 139.38,-162.12"/>
<text text-anchor="start" x="14.38" y="-148.62" font-family="Helvetica,sans-Serif" font-size="10.00">ExampleAppDocuments</text>
<text text-anchor="middle" x="72.88" y="-135.88" font-family="Helvetica,sans-Serif" font-size="10.00">::DisplayDocContents</text>
</a>
</g>
</g>
<!-- Node2&#45;&gt;Node3 -->
<g id="edge2_Node000002_Node000003" class="edge">
<title>Node2&#45;&gt;Node3</title>
<g id="a_edge2_Node000002_Node000003"><a xlink:title=" ">
<path fill="none" stroke="#63b8ff" d="M185.25,-128.56C170.47,-130.79 154.61,-133.19 139.62,-135.45"/>
<polygon fill="#63b8ff" stroke="#63b8ff" points="185.44,-132.07 194.81,-127.12 184.4,-125.15 185.44,-132.07"/>
</a>
</g>
</g>
<!-- Node4&#45;&gt;Node1 -->
<g id="edge4_Node000004_Node000001" class="edge">
<title>Node4&#45;&gt;Node1</title>
<g id="a_edge4_Node000004_Node000001"><a xlink:title=" ">
<path fill="none" stroke="#63b8ff" d="M315.08,-62.09C326.23,-62.19 337.63,-62.08 348.26,-61.78"/>
<polygon fill="#63b8ff" stroke="#63b8ff" points="315.15,-58.59 305.1,-61.94 315.05,-65.59 315.15,-58.59"/>
</a>
</g>
</g>
<!-- Node5 -->
<g id="Node000005" class="node">
<title>Node5</title>
<g id="a_Node000005"><a xlink:href="namespaceImGui.html#a2a2a98cb9a17b18702be6b954670b388" target="_top" xlink:title=" ">
<polygon fill="white" stroke="#666666" points="128.88,-110.75 16.87,-110.75 16.87,-90 128.88,-90 128.88,-110.75"/>
<text text-anchor="middle" x="72.88" y="-97.25" font-family="Helvetica,sans-Serif" font-size="10.00">ImGui::ColorPicker3</text>
</a>
</g>
</g>
<!-- Node4&#45;&gt;Node5 -->
<g id="edge5_Node000004_Node000005" class="edge">
<title>Node4&#45;&gt;Node5</title>
<g id="a_edge5_Node000004_Node000005"><a xlink:title=" ">
<path fill="none" stroke="#63b8ff" d="M194.02,-68.99C168.84,-75.57 139.02,-83.36 115.39,-89.53"/>
<polygon fill="#63b8ff" stroke="#63b8ff" points="194.61,-72.45 203.4,-66.54 192.84,-65.68 194.61,-72.45"/>
</a>
</g>
</g>
<!-- Node6 -->
<g id="Node000006" class="node">
<title>Node6</title>
<g id="a_Node000006"><a xlink:href="namespaceImGui.html#a6d112eeb6d8ffdebbc9d9a8c66babbee" target="_top" xlink:title=" ">
<polygon fill="white" stroke="#666666" points="144.62,-72.12 1.12,-72.12 1.12,-38.62 144.62,-38.62 144.62,-72.12"/>
<text text-anchor="start" x="9.12" y="-58.62" font-family="Helvetica,sans-Serif" font-size="10.00">ImGui::ColorPickerOptions</text>
<text text-anchor="middle" x="72.88" y="-45.88" font-family="Helvetica,sans-Serif" font-size="10.00">Popup</text>
</a>
</g>
</g>
<!-- Node4&#45;&gt;Node6 -->
<g id="edge6_Node000004_Node000006" class="edge">
<title>Node4&#45;&gt;Node6</title>
<g id="a_edge6_Node000004_Node000006"><a xlink:title=" ">
<path fill="none" stroke="#63b8ff" d="M179.18,-48.78C167.96,-48.6 156.29,-48.58 144.97,-48.72"/>
<polygon fill="#63b8ff" stroke="#63b8ff" points="179.09,-52.27 189.16,-48.99 179.24,-45.28 179.09,-52.27"/>
</a>
</g>
</g>
<!-- Node6&#45;&gt;Node4 -->
<g id="edge7_Node000006_Node000004" class="edge">
<title>Node6&#45;&gt;Node4</title>
<g id="a_edge7_Node000006_Node000004"><a xlink:title=" ">
<path fill="none" stroke="#63b8ff" d="M156.14,-62.12C167.84,-62.16 179.65,-62.03 190.68,-61.73"/>
<polygon fill="#63b8ff" stroke="#63b8ff" points="156.51,-58.62 146.48,-62.04 156.46,-65.62 156.51,-58.62"/>
</a>
</g>
</g>
<!-- Node8 -->
<g id="Node000008" class="node">
<title>Node8</title>
<g id="a_Node000008"><a xlink:href="namespaceImGui.html#af95643a0ce4893b9e57c12991922fb18" target="_top" xlink:title=" ">
<polygon fill="white" stroke="#666666" points="145.75,-20.75 0,-20.75 0,0 145.75,0 145.75,-20.75"/>
<text text-anchor="middle" x="72.88" y="-7.25" font-family="Helvetica,sans-Serif" font-size="10.00">ImGui::ShowDemoWindow</text>
</a>
</g>
</g>
<!-- Node7&#45;&gt;Node8 -->
<g id="edge9_Node000007_Node000008" class="edge">
<title>Node7&#45;&gt;Node8</title>
<g id="a_edge9_Node000007_Node000008"><a xlink:title=" ">
<path fill="none" stroke="#63b8ff" d="M170.26,-12.05C162.23,-11.91 154.08,-11.77 146.09,-11.63"/>
<polygon fill="#63b8ff" stroke="#63b8ff" points="169.92,-15.55 179.98,-12.22 170.04,-8.55 169.92,-15.55"/>
</a>
</g>
</g>
</g>
</svg>
</svg>

<style type='text/css'>
<![CDATA[
[data-mouse-over-selected='false'] { opacity: 0.7; }
[data-mouse-over-selected='true']  { opacity: 1.0; }
]]>
</style>
<script type="application/ecmascript"><![CDATA[
document.addEventListener('DOMContentLoaded', (event) => {
  highlightEdges();
  highlightAdjacentNodes();
});
]]></script>
</svg>
