<?xml version="1.0" encoding="UTF-8" standalone="no"?>
<!DOCTYPE svg PUBLIC "-//W3C//DTD SVG 1.1//EN"
 "http://www.w3.org/Graphics/SVG/1.1/DTD/svg11.dtd">
<!-- Generated by graphviz version 12.2.1 (20241206.2353)
 -->
<!-- Title: ImGui::WindowPosAbsToRel Pages: 1 -->
<!--zoomable 146 -->

<svg id="main" version="1.1" xmlns="http://www.w3.org/2000/svg" xmlns:xlink="http://www.w3.org/1999/xlink" xml:space="preserve" onload="init(evt)">

<style type="text/css"><![CDATA[
.node, .edge {opacity: 0.7;}
.node.selected, .edge.selected {opacity: 1;}
.edge:hover path { stroke: red; }
.edge:hover polygon { stroke: red; fill: red; }
]]></style>

<defs>
  <circle id="rim" cx="0" cy="0" r="7"/>
  <circle id="rim2" cx="0" cy="0" r="3.5"/>
  <g id="zoomPlus">
    <use xlink:href="#rim" fill="#404040"><set attributeName="fill" to="#808080" begin="zoomplus.mouseover" end="zoomplus.mouseout"/></use>
    <path d="M-4,0h8M0,-4v8" fill="none" stroke="white" stroke-width="1.5" pointer-events="none"/>
  </g>
  <g id="zoomMin">
    <use xlink:href="#rim" fill="#404040"><set attributeName="fill" to="#808080" begin="zoomminus.mouseover" end="zoomminus.mouseout"/></use>
    <path d="M-4,0h8" fill="none" stroke="white" stroke-width="1.5" pointer-events="none"/>
  </g>
  <g id="arrowUp" transform="translate(30 24)">
    <use xlink:href="#rim"/>
    <path pointer-events="none" fill="none" stroke="white" stroke-width="1.5" d="M0,-3.0v7 M-2.5,-0.5L0,-3.0L2.5,-0.5"/>
  </g>
  <g id="arrowRight" transform="rotate(90) translate(36 -43)">
    <use xlink:href="#rim"/>
    <path pointer-events="none" fill="none" stroke="white" stroke-width="1.5" d="M0,-3.0v7 M-2.5,-0.5L0,-3.0L2.5,-0.5"/>
  </g>
  <g id="arrowDown" transform="rotate(180) translate(-30 -48)">
    <use xlink:href="#rim"/>
    <path pointer-events="none" fill="none" stroke="white" stroke-width="1.5" d="M0,-3.0v7 M-2.5,-0.5L0,-3.0L2.5,-0.5"/>
  </g>
  <g id="arrowLeft" transform="rotate(270) translate(-36 17)">
    <use xlink:href="#rim"/>
    <path pointer-events="none" fill="none" stroke="white" stroke-width="1.5" d="M0,-3.0v7 M-2.5,-0.5L0,-3.0L2.5,-0.5"/>
  </g>
  <g id="resetDef">
    <use xlink:href="#rim2" fill="#404040"><set attributeName="fill" to="#808080" begin="reset.mouseover" end="reset.mouseout"/></use>
  </g>
</defs>
<script type="application/ecmascript">
var viewWidth = 861;
var viewHeight = 146;
var sectionId = 'dynsection-1414';
</script>
<script type="application/ecmascript" xlink:href="svg.min.js"/>
<svg id="graph" class="graph">
<g id="viewport">
<title>ImGui::WindowPosAbsToRel</title>
<!-- Node1 -->
<g id="Node000001" class="node">
<title>Node1</title>
<g id="a_Node000001"><a xlink:title=" ">
<polygon fill="#999999" stroke="#666666" points="852.5,-79.12 700.75,-79.12 700.75,-58.38 852.5,-58.38 852.5,-79.12"/>
<text text-anchor="middle" x="776.62" y="-65.62" font-family="Helvetica,sans-Serif" font-size="10.00">ImGui::WindowPosAbsToRel</text>
</a>
</g>
</g>
<!-- Node2 -->
<g id="Node000002" class="node">
<title>Node2</title>
<g id="a_Node000002"><a xlink:href="namespaceImGui.html#a38a72601961180f4a0db8d12fa3d09eb" target="_top" xlink:title=" ">
<polygon fill="white" stroke="#666666" points="664.75,-79.12 546.75,-79.12 546.75,-58.38 664.75,-58.38 664.75,-79.12"/>
<text text-anchor="middle" x="605.75" y="-65.62" font-family="Helvetica,sans-Serif" font-size="10.00">ImGui::EndBoxSelect</text>
</a>
</g>
</g>
<!-- Node1&#45;&gt;Node2 -->
<g id="edge1_Node000001_Node000002" class="edge">
<title>Node1&#45;&gt;Node2</title>
<g id="a_edge1_Node000001_Node000002"><a xlink:title=" ">
<path fill="none" stroke="#63b8ff" d="M689.1,-68.75C680.97,-68.75 672.87,-68.75 665.1,-68.75"/>
<polygon fill="#63b8ff" stroke="#63b8ff" points="689.06,-72.25 699.06,-68.75 689.06,-65.25 689.06,-72.25"/>
</a>
</g>
</g>
<!-- Node3 -->
<g id="Node000003" class="node">
<title>Node3</title>
<g id="a_Node000003"><a xlink:href="namespaceImGui.html#a19b11a3ea8f98b43089dc13ab015ad5b" target="_top" xlink:title=" ">
<polygon fill="white" stroke="#666666" points="510.75,-79.12 386.75,-79.12 386.75,-58.38 510.75,-58.38 510.75,-79.12"/>
<text text-anchor="middle" x="448.75" y="-65.62" font-family="Helvetica,sans-Serif" font-size="10.00">ImGui::EndMultiSelect</text>
</a>
</g>
</g>
<!-- Node2&#45;&gt;Node3 -->
<g id="edge2_Node000002_Node000003" class="edge">
<title>Node2&#45;&gt;Node3</title>
<g id="a_edge2_Node000002_Node000003"><a xlink:title=" ">
<path fill="none" stroke="#63b8ff" d="M535.3,-68.75C527.22,-68.75 519.03,-68.75 511.08,-68.75"/>
<polygon fill="#63b8ff" stroke="#63b8ff" points="535.08,-72.25 545.08,-68.75 535.08,-65.25 535.08,-72.25"/>
</a>
</g>
</g>
<!-- Node4 -->
<g id="Node000004" class="node">
<title>Node4</title>
<g id="a_Node000004"><a xlink:href="structExampleAssetsBrowser.html#a2b36e1f9b7d764e547611baa4c7fd8d1" target="_top" xlink:title=" ">
<polygon fill="white" stroke="#666666" points="335.38,-137.5 204.62,-137.5 204.62,-104 335.38,-104 335.38,-137.5"/>
<text text-anchor="start" x="212.62" y="-124" font-family="Helvetica,sans-Serif" font-size="10.00">ExampleAssetsBrowser</text>
<text text-anchor="middle" x="270" y="-111.25" font-family="Helvetica,sans-Serif" font-size="10.00">::Draw</text>
</a>
</g>
</g>
<!-- Node3&#45;&gt;Node4 -->
<g id="edge3_Node000003_Node000004" class="edge">
<title>Node3&#45;&gt;Node4</title>
<g id="a_edge3_Node000003_Node000004"><a xlink:title=" ">
<path fill="none" stroke="#63b8ff" d="M400.17,-82.75C378.42,-89.15 352.43,-96.79 329.49,-103.54"/>
<polygon fill="#63b8ff" stroke="#63b8ff" points="401.07,-86.13 409.68,-79.95 399.09,-79.42 401.07,-86.13"/>
</a>
</g>
</g>
<!-- Node5 -->
<g id="Node000005" class="node">
<title>Node5</title>
<g id="a_Node000005"><a xlink:href="namespaceImGui.html#a945392cbf05b9434df8ec3630b10e01a" target="_top" xlink:title=" ">
<polygon fill="white" stroke="#666666" points="350.75,-85.5 189.25,-85.5 189.25,-52 350.75,-52 350.75,-85.5"/>
<text text-anchor="start" x="197.25" y="-72" font-family="Helvetica,sans-Serif" font-size="10.00">ImGui::ErrorCheckEndWindow</text>
<text text-anchor="middle" x="270" y="-59.25" font-family="Helvetica,sans-Serif" font-size="10.00">Recover</text>
</a>
</g>
</g>
<!-- Node3&#45;&gt;Node5 -->
<g id="edge4_Node000003_Node000005" class="edge">
<title>Node3&#45;&gt;Node5</title>
<g id="a_edge4_Node000003_Node000005"><a xlink:title=" ">
<path fill="none" stroke="#63b8ff" d="M375.06,-68.75C367.19,-68.75 359.15,-68.75 351.2,-68.75"/>
<polygon fill="#63b8ff" stroke="#63b8ff" points="374.91,-72.25 384.91,-68.75 374.91,-65.25 374.91,-72.25"/>
</a>
</g>
</g>
<!-- Node7 -->
<g id="Node000007" class="node">
<title>Node7</title>
<g id="a_Node000007"><a xlink:href="structExampleDualListBox.html#a1413fd803c568a0d4b98a8f3c59af1be" target="_top" xlink:title=" ">
<polygon fill="white" stroke="#666666" points="328.62,-33.5 211.38,-33.5 211.38,0 328.62,0 328.62,-33.5"/>
<text text-anchor="start" x="219.38" y="-20" font-family="Helvetica,sans-Serif" font-size="10.00">ExampleDualListBox</text>
<text text-anchor="middle" x="270" y="-7.25" font-family="Helvetica,sans-Serif" font-size="10.00">::Show</text>
</a>
</g>
</g>
<!-- Node3&#45;&gt;Node7 -->
<g id="edge6_Node000003_Node000007" class="edge">
<title>Node3&#45;&gt;Node7</title>
<g id="a_edge6_Node000003_Node000007"><a xlink:title=" ">
<path fill="none" stroke="#63b8ff" d="M400.38,-54.81C378.36,-48.34 351.98,-40.57 328.8,-33.75"/>
<polygon fill="#63b8ff" stroke="#63b8ff" points="399.09,-58.08 409.68,-57.55 401.07,-51.37 399.09,-58.08"/>
</a>
</g>
</g>
<!-- Node6 -->
<g id="Node000006" class="node">
<title>Node6</title>
<g id="a_Node000006"><a xlink:href="namespaceImGui.html#aaeda60ee2c0b5c2b3f397b237c9928f3" target="_top" xlink:title=" ">
<polygon fill="white" stroke="#666666" points="153.25,-85.5 0,-85.5 0,-52 153.25,-52 153.25,-85.5"/>
<text text-anchor="start" x="8" y="-72" font-family="Helvetica,sans-Serif" font-size="10.00">ImGui::ErrorCheckEndFrame</text>
<text text-anchor="middle" x="76.62" y="-59.25" font-family="Helvetica,sans-Serif" font-size="10.00">Recover</text>
</a>
</g>
</g>
<!-- Node5&#45;&gt;Node6 -->
<g id="edge5_Node000005_Node000006" class="edge">
<title>Node5&#45;&gt;Node6</title>
<g id="a_edge5_Node000005_Node000006"><a xlink:title=" ">
<path fill="none" stroke="#63b8ff" d="M177.65,-68.75C169.63,-68.75 161.56,-68.75 153.68,-68.75"/>
<polygon fill="#63b8ff" stroke="#63b8ff" points="177.44,-72.25 187.44,-68.75 177.44,-65.25 177.44,-72.25"/>
</a>
</g>
</g>
</g>
</svg>

<g id="navigator" transform="translate(0 0)" fill="#404254">
  <rect fill="#f2f5e9" fill-opacity="0.5" stroke="#606060" stroke-width=".5" x="0" y="0" width="60" height="60"/>
  <use id="zoomplus" xlink:href="#zoomPlus" x="17" y="9" onmousedown="handleZoom(evt,'in')"/>
  <use id="zoomminus" xlink:href="#zoomMin" x="42" y="9" onmousedown="handleZoom(evt,'out')"/>
  <use id="reset" xlink:href="#resetDef" x="30" y="36" onmousedown="handleReset()"/>
   <use id="arrowup" xlink:href="#arrowUp" x="0" y="0" onmousedown="handlePan(0,-1)"/>
  <use id="arrowright" xlink:href="#arrowRight" x="0" y="0" onmousedown="handlePan(1,0)"/>
  <use id="arrowdown" xlink:href="#arrowDown" x="0" y="0" onmousedown="handlePan(0,1)"/>
  <use id="arrowleft" xlink:href="#arrowLeft" x="0" y="0" onmousedown="handlePan(-1,0)"/>
</g>
<svg viewBox="0 0 15 15" width="100%" height="30px" preserveAspectRatio="xMaxYMin meet">
 <g id="arrow_out" transform="scale(0.3 0.3)">
  <a xlink:href="namespaceImGui_a2ea45df28efe42db27071f5621cb792a_icgraph_org.svg" target="_base">
   <rect id="button" ry="5" rx="5" y="6" x="6" height="38" width="38"
        fill="#f2f5e9" fill-opacity="0.5" stroke="#606060" stroke-width="1.0"/>
   <path id="arrow"
     d="M 11.500037,31.436501 C 11.940474,20.09759 22.043105,11.32322 32.158766,21.979434 L 37.068811,17.246167 C 37.068811,17.246167 37.088388,32 37.088388,32 L 22.160133,31.978069 C 22.160133,31.978069 26.997745,27.140456 26.997745,27.140456 C 18.528582,18.264221 13.291696,25.230495 11.500037,31.436501 z"
     style="fill:#404040;"/>
  </a>
 </g>
</svg>

<style type='text/css'>
<![CDATA[
[data-mouse-over-selected='false'] { opacity: 0.7; }
[data-mouse-over-selected='true']  { opacity: 1.0; }
]]>
</style>
<script type="application/ecmascript"><![CDATA[
document.addEventListener('DOMContentLoaded', (event) => {
  highlightEdges();
  highlightAdjacentNodes();
});
]]></script>
</svg>
