<?xml version="1.0" encoding="UTF-8" standalone="no"?>
<!DOCTYPE svg PUBLIC "-//W3C//DTD SVG 1.1//EN"
 "http://www.w3.org/Graphics/SVG/1.1/DTD/svg11.dtd">
<!-- Generated by graphviz version 12.0.0 (20240704.0754)
 -->
<!-- Title: ImGui::RenderTextClippedEx Pages: 1 -->
<svg width="716pt" height="137pt"
 viewBox="0.00 0.00 716.25 137.12" xmlns="http://www.w3.org/2000/svg" xmlns:xlink="http://www.w3.org/1999/xlink">
<g id="graph0" class="graph" transform="scale(1 1) rotate(0) translate(4 133.12)">
<title>ImGui::RenderTextClippedEx</title>
<!-- Node1 -->
<g id="Node000001" class="node">
<title>Node1</title>
<g id="a_Node000001"><a xlink:title=" ">
<polygon fill="#999999" stroke="#666666" points="154.75,-72.12 0,-72.12 0,-51.38 154.75,-51.38 154.75,-72.12"/>
<text text-anchor="middle" x="77.38" y="-58.62" font-family="Helvetica,sans-Serif" font-size="10.00">ImGui::RenderTextClippedEx</text>
</a>
</g>
</g>
<!-- Node2 -->
<g id="Node000002" class="node">
<title>Node2</title>
<g id="a_Node000002"><a xlink:href="structImDrawList.html#ac5221bd86b3429f6d5b6e6ffe454942d" target="_top" xlink:title=" ">
<polygon fill="white" stroke="#666666" points="307.25,-111.12 190.75,-111.12 190.75,-90.38 307.25,-90.38 307.25,-111.12"/>
<text text-anchor="middle" x="249" y="-97.62" font-family="Helvetica,sans-Serif" font-size="10.00">ImDrawList::AddText</text>
</a>
</g>
</g>
<!-- Node1&#45;&gt;Node2 -->
<g id="edge1_Node000001_Node000002" class="edge">
<title>Node1&#45;&gt;Node2</title>
<g id="a_edge1_Node000001_Node000002"><a xlink:title=" ">
<path fill="none" stroke="#63b8ff" d="M125.63,-72.61C145.48,-77.18 168.79,-82.54 189.7,-87.35"/>
<polygon fill="#63b8ff" stroke="#63b8ff" points="188.7,-90.71 199.23,-89.54 190.27,-83.89 188.7,-90.71"/>
</a>
</g>
</g>
<!-- Node3 -->
<g id="Node000003" class="node">
<title>Node3</title>
<g id="a_Node000003"><a xlink:href="namespaceImGui.html#a848b9db6cc4a186751c0ecebcaadc33b" target="_top" xlink:title=" ">
<polygon fill="white" stroke="#666666" points="305.38,-72.12 192.62,-72.12 192.62,-51.38 305.38,-51.38 305.38,-72.12"/>
<text text-anchor="middle" x="249" y="-58.62" font-family="Helvetica,sans-Serif" font-size="10.00">ImGui::CalcTextSize</text>
</a>
</g>
</g>
<!-- Node1&#45;&gt;Node3 -->
<g id="edge3_Node000001_Node000003" class="edge">
<title>Node1&#45;&gt;Node3</title>
<g id="a_edge3_Node000001_Node000003"><a xlink:title=" ">
<path fill="none" stroke="#63b8ff" d="M155.25,-61.75C163.8,-61.75 172.47,-61.75 180.89,-61.75"/>
<polygon fill="#63b8ff" stroke="#63b8ff" points="180.68,-65.25 190.68,-61.75 180.68,-58.25 180.68,-65.25"/>
</a>
</g>
</g>
<!-- Node7 -->
<g id="Node000007" class="node">
<title>Node7</title>
<g id="a_Node000007"><a xlink:href="namespaceImGui.html#a0de2d9bd347d9866511eb8d014e62556" target="_top" xlink:title=" ">
<polygon fill="white" stroke="#666666" points="305.75,-30.12 192.25,-30.12 192.25,-9.38 305.75,-9.38 305.75,-30.12"/>
<text text-anchor="middle" x="249" y="-16.62" font-family="Helvetica,sans-Serif" font-size="10.00">ImGui::GetColorU32</text>
</a>
</g>
</g>
<!-- Node1&#45;&gt;Node7 -->
<g id="edge7_Node000001_Node000007" class="edge">
<title>Node1&#45;&gt;Node7</title>
<g id="a_edge7_Node000001_Node000007"><a xlink:title=" ">
<path fill="none" stroke="#63b8ff" d="M122.06,-50.93C143.74,-45.57 170.15,-39.03 193.17,-33.33"/>
<polygon fill="#63b8ff" stroke="#63b8ff" points="193.84,-36.77 202.7,-30.97 192.15,-29.97 193.84,-36.77"/>
</a>
</g>
</g>
<!-- Node2&#45;&gt;Node2 -->
<g id="edge2_Node000002_Node000002" class="edge">
<title>Node2&#45;&gt;Node2</title>
<g id="a_edge2_Node000002_Node000002"><a xlink:title=" ">
<path fill="none" stroke="#63b8ff" d="M221.35,-111.52C210.28,-120.18 219.5,-129.12 249,-129.12 265.13,-129.12 275.2,-126.45 279.2,-122.61"/>
<polygon fill="#63b8ff" stroke="#63b8ff" points="282.64,-121.96 276.99,-113 275.82,-123.53 282.64,-121.96"/>
</a>
</g>
</g>
<!-- Node4 -->
<g id="Node000004" class="node">
<title>Node4</title>
<g id="a_Node000004"><a xlink:href="structImFont.html#ad67f64fd206ad197f4b93b1a1ae27cfe" target="_top" xlink:title=" ">
<polygon fill="white" stroke="#666666" points="483.38,-111.12 359.38,-111.12 359.38,-90.38 483.38,-90.38 483.38,-111.12"/>
<text text-anchor="middle" x="421.38" y="-97.62" font-family="Helvetica,sans-Serif" font-size="10.00">ImFont::CalcTextSizeA</text>
</a>
</g>
</g>
<!-- Node3&#45;&gt;Node4 -->
<g id="edge4_Node000003_Node000004" class="edge">
<title>Node3&#45;&gt;Node4</title>
<g id="a_edge4_Node000003_Node000004"><a xlink:title=" ">
<path fill="none" stroke="#63b8ff" d="M297.46,-72.61C317.41,-77.18 340.81,-82.54 361.82,-87.35"/>
<polygon fill="#63b8ff" stroke="#63b8ff" points="360.87,-90.72 371.4,-89.54 362.43,-83.9 360.87,-90.72"/>
</a>
</g>
</g>
<!-- Node6 -->
<g id="Node000006" class="node">
<title>Node6</title>
<g id="a_Node000006"><a xlink:href="namespaceImGui.html#a7671e1dbc803a31b06081b52a771d83f" target="_top" xlink:title=" ">
<polygon fill="white" stroke="#666666" points="499.5,-72.12 343.25,-72.12 343.25,-51.38 499.5,-51.38 499.5,-72.12"/>
<text text-anchor="middle" x="421.38" y="-58.62" font-family="Helvetica,sans-Serif" font-size="10.00">ImGui::FindRenderedTextEnd</text>
</a>
</g>
</g>
<!-- Node3&#45;&gt;Node6 -->
<g id="edge6_Node000003_Node000006" class="edge">
<title>Node3&#45;&gt;Node6</title>
<g id="a_edge6_Node000003_Node000006"><a xlink:title=" ">
<path fill="none" stroke="#63b8ff" d="M305.79,-61.75C314.02,-61.75 322.67,-61.75 331.37,-61.75"/>
<polygon fill="#63b8ff" stroke="#63b8ff" points="331.3,-65.25 341.3,-61.75 331.3,-58.25 331.3,-65.25"/>
</a>
</g>
</g>
<!-- Node5 -->
<g id="Node000005" class="node">
<title>Node5</title>
<g id="a_Node000005"><a xlink:href="structImFont.html#a3781bb82a1ceba919cb6c98a398c7a67" target="_top" xlink:title=" ">
<polygon fill="white" stroke="#666666" points="708.25,-111.12 535.5,-111.12 535.5,-90.38 708.25,-90.38 708.25,-111.12"/>
<text text-anchor="middle" x="621.88" y="-97.62" font-family="Helvetica,sans-Serif" font-size="10.00">ImFont::CalcWordWrapPositionA</text>
</a>
</g>
</g>
<!-- Node4&#45;&gt;Node5 -->
<g id="edge5_Node000004_Node000005" class="edge">
<title>Node4&#45;&gt;Node5</title>
<g id="a_edge5_Node000004_Node000005"><a xlink:title=" ">
<path fill="none" stroke="#63b8ff" d="M483.82,-100.75C496.54,-100.75 510.24,-100.75 523.88,-100.75"/>
<polygon fill="#63b8ff" stroke="#63b8ff" points="523.78,-104.25 533.78,-100.75 523.78,-97.25 523.78,-104.25"/>
</a>
</g>
</g>
<!-- Node8 -->
<g id="Node000008" class="node">
<title>Node8</title>
<g id="a_Node000008"><a xlink:href="namespaceImGui.html#abe2691de0b1a71c774ab24cc91564a94" target="_top" xlink:title=" ">
<polygon fill="white" stroke="#666666" points="494.25,-33.5 348.5,-33.5 348.5,0 494.25,0 494.25,-33.5"/>
<text text-anchor="start" x="356.5" y="-20" font-family="Helvetica,sans-Serif" font-size="10.00">ImGui::ColorConvertFloat4</text>
<text text-anchor="middle" x="421.38" y="-7.25" font-family="Helvetica,sans-Serif" font-size="10.00">ToU32</text>
</a>
</g>
</g>
<!-- Node7&#45;&gt;Node8 -->
<g id="edge8_Node000007_Node000008" class="edge">
<title>Node7&#45;&gt;Node8</title>
<g id="a_edge8_Node000007_Node000008"><a xlink:title=" ">
<path fill="none" stroke="#63b8ff" d="M305.79,-18.77C315.69,-18.59 326.2,-18.41 336.69,-18.22"/>
<polygon fill="#63b8ff" stroke="#63b8ff" points="336.57,-21.73 346.5,-18.05 336.44,-14.73 336.57,-21.73"/>
</a>
</g>
</g>
</g>
</svg>
