<?xml version="1.0" encoding="UTF-8" standalone="no"?>
<!DOCTYPE svg PUBLIC "-//W3C//DTD SVG 1.1//EN"
 "http://www.w3.org/Graphics/SVG/1.1/DTD/svg11.dtd">
<!-- Generated by graphviz version 12.2.1 (20241206.2353)
 -->
<!-- Title: ImGui::DockContextBuildAddWindowsToNodes Pages: 1 -->
<svg width="856pt" height="132pt"
 viewBox="0.00 0.00 856.00 132.12" xmlns="http://www.w3.org/2000/svg" xmlns:xlink="http://www.w3.org/1999/xlink">
<g id="graph0" class="graph" transform="scale(1 1) rotate(0) translate(4 128.12)">
<title>ImGui::DockContextBuildAddWindowsToNodes</title>
<!-- Node1 -->
<g id="Node000001" class="node">
<title>Node1</title>
<g id="a_Node000001"><a xlink:title=" ">
<polygon fill="#999999" stroke="#666666" points="848,-85.5 690.25,-85.5 690.25,-52 848,-52 848,-85.5"/>
<text text-anchor="start" x="698.25" y="-72" font-family="Helvetica,sans-Serif" font-size="10.00">ImGui::DockContextBuildAdd</text>
<text text-anchor="middle" x="769.12" y="-59.25" font-family="Helvetica,sans-Serif" font-size="10.00">WindowsToNodes</text>
</a>
</g>
</g>
<!-- Node2 -->
<g id="Node000002" class="node">
<title>Node2</title>
<g id="a_Node000002"><a xlink:href="namespaceImGui.html#ae9e2b4c823afe829715ff7132bc1ffc9" target="_top" xlink:title=" ">
<polygon fill="white" stroke="#666666" points="646.75,-124.12 507.75,-124.12 507.75,-103.38 646.75,-103.38 646.75,-124.12"/>
<text text-anchor="middle" x="577.25" y="-110.62" font-family="Helvetica,sans-Serif" font-size="10.00">ImGui::DockBuilderFinish</text>
</a>
</g>
</g>
<!-- Node1&#45;&gt;Node2 -->
<g id="edge1_Node000001_Node000002" class="edge">
<title>Node1&#45;&gt;Node2</title>
<g id="a_edge1_Node000001_Node000002"><a xlink:title=" ">
<path fill="none" stroke="#63b8ff" d="M684.41,-88.59C663.6,-93.52 642.07,-98.63 623.88,-102.94"/>
<polygon fill="#63b8ff" stroke="#63b8ff" points="685.13,-92.02 694.06,-86.3 683.52,-85.2 685.13,-92.02"/>
</a>
</g>
</g>
<!-- Node3 -->
<g id="Node000003" class="node">
<title>Node3</title>
<g id="a_Node000003"><a xlink:href="namespaceImGui.html#a6789c5ed2a793129d51cb29ff9865c86" target="_top" xlink:title=" ">
<polygon fill="white" stroke="#666666" points="652.75,-85.5 501.75,-85.5 501.75,-52 652.75,-52 652.75,-85.5"/>
<text text-anchor="start" x="509.75" y="-72" font-family="Helvetica,sans-Serif" font-size="10.00">ImGui::DockContextRebuild</text>
<text text-anchor="middle" x="577.25" y="-59.25" font-family="Helvetica,sans-Serif" font-size="10.00">Nodes</text>
</a>
</g>
</g>
<!-- Node1&#45;&gt;Node3 -->
<g id="edge2_Node000001_Node000003" class="edge">
<title>Node1&#45;&gt;Node3</title>
<g id="a_edge2_Node000001_Node000003"><a xlink:title=" ">
<path fill="none" stroke="#63b8ff" d="M678.32,-68.75C669.86,-68.75 661.34,-68.75 653.04,-68.75"/>
<polygon fill="#63b8ff" stroke="#63b8ff" points="678.29,-72.25 688.29,-68.75 678.29,-65.25 678.29,-72.25"/>
</a>
</g>
</g>
<!-- Node6 -->
<g id="Node000006" class="node">
<title>Node6</title>
<g id="a_Node000006"><a xlink:href="namespaceImGui.html#a5a15182dbd53ea7081397d1ad968bc79" target="_top" xlink:title=" ">
<polygon fill="white" stroke="#666666" points="654.25,-33.5 500.25,-33.5 500.25,0 654.25,0 654.25,-33.5"/>
<text text-anchor="start" x="508.25" y="-20" font-family="Helvetica,sans-Serif" font-size="10.00">ImGui::DockSettingsHandler</text>
<text text-anchor="middle" x="577.25" y="-7.25" font-family="Helvetica,sans-Serif" font-size="10.00">_ApplyAll</text>
</a>
</g>
</g>
<!-- Node1&#45;&gt;Node6 -->
<g id="edge5_Node000001_Node000006" class="edge">
<title>Node1&#45;&gt;Node6</title>
<g id="a_edge5_Node000001_Node000006"><a xlink:title=" ">
<path fill="none" stroke="#63b8ff" d="M694.35,-48.55C676.74,-43.72 658.11,-38.62 641.04,-33.95"/>
<polygon fill="#63b8ff" stroke="#63b8ff" points="693.13,-51.84 703.7,-51.11 694.98,-45.09 693.13,-51.84"/>
</a>
</g>
</g>
<!-- Node4 -->
<g id="Node000004" class="node">
<title>Node4</title>
<g id="a_Node000004"><a xlink:href="namespaceImGui.html#a7f7a9ea28b0557a655c27375eb941a56" target="_top" xlink:title=" ">
<polygon fill="white" stroke="#666666" points="464.25,-85.5 297.5,-85.5 297.5,-52 464.25,-52 464.25,-85.5"/>
<text text-anchor="start" x="305.5" y="-72" font-family="Helvetica,sans-Serif" font-size="10.00">ImGui::DockContextNewFrame</text>
<text text-anchor="middle" x="380.88" y="-59.25" font-family="Helvetica,sans-Serif" font-size="10.00">UpdateUndocking</text>
</a>
</g>
</g>
<!-- Node3&#45;&gt;Node4 -->
<g id="edge3_Node000003_Node000004" class="edge">
<title>Node3&#45;&gt;Node4</title>
<g id="a_edge3_Node000003_Node000004"><a xlink:title=" ">
<path fill="none" stroke="#63b8ff" d="M489.93,-68.75C481.47,-68.75 472.89,-68.75 464.47,-68.75"/>
<polygon fill="#63b8ff" stroke="#63b8ff" points="489.86,-72.25 499.86,-68.75 489.86,-65.25 489.86,-72.25"/>
</a>
</g>
</g>
<!-- Node5 -->
<g id="Node000005" class="node">
<title>Node5</title>
<g id="a_Node000005"><a xlink:href="namespaceImGui.html#ab3f1fc018f903b7ad79fd10663375774" target="_top" xlink:title=" ">
<polygon fill="white" stroke="#666666" points="261.5,-79.12 157.75,-79.12 157.75,-58.38 261.5,-58.38 261.5,-79.12"/>
<text text-anchor="middle" x="209.62" y="-65.62" font-family="Helvetica,sans-Serif" font-size="10.00">ImGui::NewFrame</text>
</a>
</g>
</g>
<!-- Node4&#45;&gt;Node5 -->
<g id="edge4_Node000004_Node000005" class="edge">
<title>Node4&#45;&gt;Node5</title>
<g id="a_edge4_Node000004_Node000005"><a xlink:title=" ">
<path fill="none" stroke="#63b8ff" d="M285.92,-68.75C277.66,-68.75 269.51,-68.75 261.81,-68.75"/>
<polygon fill="#63b8ff" stroke="#63b8ff" points="285.72,-72.25 295.72,-68.75 285.72,-65.25 285.72,-72.25"/>
</a>
</g>
</g>
<!-- Node7 -->
<g id="Node000007" class="node">
<title>Node7</title>
<g id="a_Node000007"><a xlink:href="namespaceImGui.html#a3b7bcf876b64c28c4eb3868f79728499" target="_top" xlink:title=" ">
<polygon fill="white" stroke="#666666" points="459,-27.12 302.75,-27.12 302.75,-6.38 459,-6.38 459,-27.12"/>
<text text-anchor="middle" x="380.88" y="-13.62" font-family="Helvetica,sans-Serif" font-size="10.00">ImGui::DockContextInitialize</text>
</a>
</g>
</g>
<!-- Node6&#45;&gt;Node7 -->
<g id="edge6_Node000006_Node000007" class="edge">
<title>Node6&#45;&gt;Node7</title>
<g id="a_edge6_Node000006_Node000007"><a xlink:title=" ">
<path fill="none" stroke="#63b8ff" d="M488.57,-16.75C478.77,-16.75 468.85,-16.75 459.2,-16.75"/>
<polygon fill="#63b8ff" stroke="#63b8ff" points="488.47,-20.25 498.47,-16.75 488.47,-13.25 488.47,-20.25"/>
</a>
</g>
</g>
<!-- Node8 -->
<g id="Node000008" class="node">
<title>Node8</title>
<g id="a_Node000008"><a xlink:href="namespaceImGui.html#a1a611da38fae18a3d1dafcb3228259da" target="_top" xlink:title=" ">
<polygon fill="white" stroke="#666666" points="256.25,-27.12 163,-27.12 163,-6.38 256.25,-6.38 256.25,-27.12"/>
<text text-anchor="middle" x="209.62" y="-13.62" font-family="Helvetica,sans-Serif" font-size="10.00">ImGui::Initialize</text>
</a>
</g>
</g>
<!-- Node7&#45;&gt;Node8 -->
<g id="edge7_Node000007_Node000008" class="edge">
<title>Node7&#45;&gt;Node8</title>
<g id="a_edge7_Node000007_Node000008"><a xlink:title=" ">
<path fill="none" stroke="#63b8ff" d="M291.49,-16.75C279.31,-16.75 267.24,-16.75 256.28,-16.75"/>
<polygon fill="#63b8ff" stroke="#63b8ff" points="291.17,-20.25 301.17,-16.75 291.17,-13.25 291.17,-20.25"/>
</a>
</g>
</g>
<!-- Node9 -->
<g id="Node000009" class="node">
<title>Node9</title>
<g id="a_Node000009"><a xlink:href="namespaceImGui.html#a4ff6c9ad05a0eba37ce1b5ff1607810a" target="_top" xlink:title=" ">
<polygon fill="white" stroke="#666666" points="121.75,-27.12 0,-27.12 0,-6.38 121.75,-6.38 121.75,-27.12"/>
<text text-anchor="middle" x="60.88" y="-13.62" font-family="Helvetica,sans-Serif" font-size="10.00">ImGui::CreateContext</text>
</a>
</g>
</g>
<!-- Node8&#45;&gt;Node9 -->
<g id="edge8_Node000008_Node000009" class="edge">
<title>Node8&#45;&gt;Node9</title>
<g id="a_edge8_Node000008_Node000009"><a xlink:title=" ">
<path fill="none" stroke="#63b8ff" d="M151.16,-16.75C141.6,-16.75 131.65,-16.75 122.02,-16.75"/>
<polygon fill="#63b8ff" stroke="#63b8ff" points="151.08,-20.25 161.08,-16.75 151.08,-13.25 151.08,-20.25"/>
</a>
</g>
</g>
</g>
</svg>
