<?xml version="1.0" encoding="UTF-8" standalone="no"?>
<!DOCTYPE svg PUBLIC "-//W3C//DTD SVG 1.1//EN"
 "http://www.w3.org/Graphics/SVG/1.1/DTD/svg11.dtd">
<!-- Generated by graphviz version 12.0.0 (20240704.0754)
 -->
<!-- Title: steppable::__internals::arithmetic::asin Pages: 1 -->
<svg width="450pt" height="94pt"
 viewBox="0.00 0.00 449.75 93.50" xmlns="http://www.w3.org/2000/svg" xmlns:xlink="http://www.w3.org/1999/xlink">
<g id="graph0" class="graph" transform="scale(1 1) rotate(0) translate(4 89.5)">
<title>steppable::__internals::arithmetic::asin</title>
<!-- Node1 -->
<g id="Node000001" class="node">
<title>Node1</title>
<g id="a_Node000001"><a xlink:title="Calculates the arc sine of a number.">
<polygon fill="#999999" stroke="#666666" points="441.75,-59.5 318.5,-59.5 318.5,-26 441.75,-26 441.75,-59.5"/>
<text text-anchor="start" x="326.5" y="-46" font-family="Helvetica,sans-Serif" font-size="10.00">steppable::__internals</text>
<text text-anchor="middle" x="380.12" y="-33.25" font-family="Helvetica,sans-Serif" font-size="10.00">::arithmetic::asin</text>
</a>
</g>
</g>
<!-- Node2 -->
<g id="Node000002" class="node">
<title>Node2</title>
<g id="a_Node000002"><a xlink:href="namespacesteppable_1_1____internals_1_1arithmetic.html#a84f3eeacf23a1682d08489ae18ece557" target="_top" xlink:title="Calculates the arc cosine of a number.">
<polygon fill="white" stroke="#666666" points="282.5,-85.5 159.25,-85.5 159.25,-52 282.5,-52 282.5,-85.5"/>
<text text-anchor="start" x="167.25" y="-72" font-family="Helvetica,sans-Serif" font-size="10.00">steppable::__internals</text>
<text text-anchor="middle" x="220.88" y="-59.25" font-family="Helvetica,sans-Serif" font-size="10.00">::arithmetic::acos</text>
</a>
</g>
</g>
<!-- Node1&#45;&gt;Node2 -->
<g id="edge1_Node000001_Node000002" class="edge">
<title>Node1&#45;&gt;Node2</title>
<g id="a_edge1_Node000001_Node000002"><a xlink:title=" ">
<path fill="none" stroke="#63b8ff" d="M306.98,-54.68C298.89,-56.02 290.7,-57.37 282.77,-58.68"/>
<polygon fill="#63b8ff" stroke="#63b8ff" points="307.54,-58.13 316.83,-53.05 306.4,-51.23 307.54,-58.13"/>
</a>
</g>
</g>
<!-- Node4 -->
<g id="Node000004" class="node">
<title>Node4</title>
<g id="a_Node000004"><a xlink:href="namespacesteppable_1_1____internals_1_1arithmetic.html#ab6140f6ee4c81b1324337aa0359633ba" target="_top" xlink:title="Calculates the arc cosecant of a number.">
<polygon fill="white" stroke="#666666" points="282.5,-33.5 159.25,-33.5 159.25,0 282.5,0 282.5,-33.5"/>
<text text-anchor="start" x="167.25" y="-20" font-family="Helvetica,sans-Serif" font-size="10.00">steppable::__internals</text>
<text text-anchor="middle" x="220.88" y="-7.25" font-family="Helvetica,sans-Serif" font-size="10.00">::arithmetic::acsc</text>
</a>
</g>
</g>
<!-- Node1&#45;&gt;Node4 -->
<g id="edge3_Node000001_Node000004" class="edge">
<title>Node1&#45;&gt;Node4</title>
<g id="a_edge3_Node000001_Node000004"><a xlink:title=" ">
<path fill="none" stroke="#63b8ff" d="M306.98,-30.82C298.89,-29.48 290.7,-28.13 282.77,-26.82"/>
<polygon fill="#63b8ff" stroke="#63b8ff" points="306.4,-34.27 316.83,-32.45 307.54,-27.37 306.4,-34.27"/>
</a>
</g>
</g>
<!-- Node3 -->
<g id="Node000003" class="node">
<title>Node3</title>
<g id="a_Node000003"><a xlink:href="namespacesteppable_1_1____internals_1_1arithmetic.html#ae171ff423b2b3c31aae888b48ba654e2" target="_top" xlink:title="Calculates the arc secant of a number.">
<polygon fill="white" stroke="#666666" points="123.25,-85.5 0,-85.5 0,-52 123.25,-52 123.25,-85.5"/>
<text text-anchor="start" x="8" y="-72" font-family="Helvetica,sans-Serif" font-size="10.00">steppable::__internals</text>
<text text-anchor="middle" x="61.62" y="-59.25" font-family="Helvetica,sans-Serif" font-size="10.00">::arithmetic::asec</text>
</a>
</g>
</g>
<!-- Node2&#45;&gt;Node3 -->
<g id="edge2_Node000002_Node000003" class="edge">
<title>Node2&#45;&gt;Node3</title>
<g id="a_edge2_Node000002_Node000003"><a xlink:title=" ">
<path fill="none" stroke="#63b8ff" d="M147.73,-68.75C139.64,-68.75 131.45,-68.75 123.52,-68.75"/>
<polygon fill="#63b8ff" stroke="#63b8ff" points="147.56,-72.25 157.56,-68.75 147.56,-65.25 147.56,-72.25"/>
</a>
</g>
</g>
</g>
</svg>
