<?xml version="1.0" encoding="UTF-8" standalone="no"?>
<!DOCTYPE svg PUBLIC "-//W3C//DTD SVG 1.1//EN"
 "http://www.w3.org/Graphics/SVG/1.1/DTD/svg11.dtd">
<!-- Generated by graphviz version 12.0.0 (20240704.0754)
 -->
<!-- Title: ImGui::IsMouseDoubleClicked Pages: 1 -->
<svg width="728pt" height="96pt"
 viewBox="0.00 0.00 728.25 96.12" xmlns="http://www.w3.org/2000/svg" xmlns:xlink="http://www.w3.org/1999/xlink">
<g id="graph0" class="graph" transform="scale(1 1) rotate(0) translate(4 92.12)">
<title>ImGui::IsMouseDoubleClicked</title>
<!-- Node1 -->
<g id="Node000001" class="node">
<title>Node1</title>
<g id="a_Node000001"><a xlink:title=" ">
<polygon fill="#999999" stroke="#666666" points="161.5,-58.75 0,-58.75 0,-38 161.5,-38 161.5,-58.75"/>
<text text-anchor="middle" x="80.75" y="-45.25" font-family="Helvetica,sans-Serif" font-size="10.00">ImGui::IsMouseDoubleClicked</text>
</a>
</g>
</g>
<!-- Node2 -->
<g id="Node000002" class="node">
<title>Node2</title>
<g id="a_Node000002"><a xlink:href="namespaceImGui.html#a25689086f813c9714c4bbd4e3d5e669c" target="_top" xlink:title=" ">
<polygon fill="white" stroke="#666666" points="341.75,-78.75 197.5,-78.75 197.5,-58 341.75,-58 341.75,-78.75"/>
<text text-anchor="middle" x="269.62" y="-65.25" font-family="Helvetica,sans-Serif" font-size="10.00">ImGui::MouseButtonToKey</text>
</a>
</g>
</g>
<!-- Node1&#45;&gt;Node2 -->
<g id="edge1_Node000001_Node000002" class="edge">
<title>Node1&#45;&gt;Node2</title>
<g id="a_edge1_Node000001_Node000002"><a xlink:title=" ">
<path fill="none" stroke="#63b8ff" d="M161.82,-56.94C169.83,-57.8 177.97,-58.67 186.01,-59.53"/>
<polygon fill="#63b8ff" stroke="#63b8ff" points="185.46,-62.99 195.77,-60.58 186.2,-56.03 185.46,-62.99"/>
</a>
</g>
</g>
<!-- Node3 -->
<g id="Node000003" class="node">
<title>Node3</title>
<g id="a_Node000003"><a xlink:href="namespaceImGui.html#ad12c5be2f1c691e4e6656524248824fb" target="_top" xlink:title=" ">
<polygon fill="white" stroke="#666666" points="329.75,-39.75 209.5,-39.75 209.5,-19 329.75,-19 329.75,-39.75"/>
<text text-anchor="middle" x="269.62" y="-26.25" font-family="Helvetica,sans-Serif" font-size="10.00">ImGui::TestKeyOwner</text>
</a>
</g>
</g>
<!-- Node1&#45;&gt;Node3 -->
<g id="edge2_Node000001_Node000003" class="edge">
<title>Node1&#45;&gt;Node3</title>
<g id="a_edge2_Node000001_Node000003"><a xlink:title=" ">
<path fill="none" stroke="#63b8ff" d="M161.82,-40.23C173.83,-39.01 186.14,-37.76 197.94,-36.56"/>
<polygon fill="#63b8ff" stroke="#63b8ff" points="197.96,-40.08 207.56,-35.58 197.25,-33.11 197.96,-40.08"/>
</a>
</g>
</g>
<!-- Node4 -->
<g id="Node000004" class="node">
<title>Node4</title>
<g id="a_Node000004"><a xlink:href="namespaceImGui.html#a05ada04953ac91c563334fb0fe934e03" target="_top" xlink:title=" ">
<polygon fill="white" stroke="#666666" points="520.88,-59.75 379.62,-59.75 379.62,-39 520.88,-39 520.88,-59.75"/>
<text text-anchor="middle" x="450.25" y="-46.25" font-family="Helvetica,sans-Serif" font-size="10.00">ImGui::GetKeyOwnerData</text>
</a>
</g>
</g>
<!-- Node3&#45;&gt;Node4 -->
<g id="edge3_Node000003_Node000004" class="edge">
<title>Node3&#45;&gt;Node4</title>
<g id="a_edge3_Node000003_Node000004"><a xlink:title=" ">
<path fill="none" stroke="#63b8ff" d="M330.1,-36.03C342.27,-37.4 355.27,-38.85 368.05,-40.28"/>
<polygon fill="#63b8ff" stroke="#63b8ff" points="367.36,-43.73 377.69,-41.36 368.14,-36.77 367.36,-43.73"/>
</a>
</g>
</g>
<!-- Node7 -->
<g id="Node000007" class="node">
<title>Node7</title>
<g id="a_Node000007"><a xlink:href="namespaceImGui.html#ad97807fb804a4d11866e5bca7d08d59c" target="_top" xlink:title=" ">
<polygon fill="white" stroke="#666666" points="522.75,-20.75 377.75,-20.75 377.75,0 522.75,0 522.75,-20.75"/>
<text text-anchor="middle" x="450.25" y="-7.25" font-family="Helvetica,sans-Serif" font-size="10.00">ImGui::IsNamedKeyOrMod</text>
</a>
</g>
</g>
<!-- Node3&#45;&gt;Node7 -->
<g id="edge6_Node000003_Node000007" class="edge">
<title>Node3&#45;&gt;Node7</title>
<g id="a_edge6_Node000003_Node000007"><a xlink:title=" ">
<path fill="none" stroke="#63b8ff" d="M330.1,-23.05C341.68,-21.82 354.02,-20.5 366.19,-19.21"/>
<polygon fill="#63b8ff" stroke="#63b8ff" points="366.23,-22.73 375.8,-18.19 365.49,-15.77 366.23,-22.73"/>
</a>
</g>
</g>
<!-- Node5 -->
<g id="Node000005" class="node">
<title>Node5</title>
<g id="a_Node000005"><a xlink:href="namespaceImGui.html#ad540a8f07e5834f77f76a84626cdc70e" target="_top" xlink:title=" ">
<polygon fill="white" stroke="#666666" points="720.25,-88.12 558.75,-88.12 558.75,-54.62 720.25,-54.62 720.25,-88.12"/>
<text text-anchor="start" x="566.75" y="-74.62" font-family="Helvetica,sans-Serif" font-size="10.00">ImGui::ConvertSingleModFlag</text>
<text text-anchor="middle" x="639.5" y="-61.88" font-family="Helvetica,sans-Serif" font-size="10.00">ToKey</text>
</a>
</g>
</g>
<!-- Node4&#45;&gt;Node5 -->
<g id="edge4_Node000004_Node000005" class="edge">
<title>Node4&#45;&gt;Node5</title>
<g id="a_edge4_Node000004_Node000005"><a xlink:title=" ">
<path fill="none" stroke="#63b8ff" d="M521.24,-57.6C529.69,-58.59 538.42,-59.62 547.12,-60.64"/>
<polygon fill="#63b8ff" stroke="#63b8ff" points="546.67,-64.11 557.01,-61.8 547.49,-57.16 546.67,-64.11"/>
</a>
</g>
</g>
<!-- Node6 -->
<g id="Node000006" class="node">
<title>Node6</title>
<g id="a_Node000006"><a xlink:href="namespaceImGui.html#a1e6a2ce7696a25d0dd0cf318e3b48a33" target="_top" xlink:title=" ">
<polygon fill="white" stroke="#666666" points="695.88,-36.75 583.12,-36.75 583.12,-16 695.88,-16 695.88,-36.75"/>
<text text-anchor="middle" x="639.5" y="-23.25" font-family="Helvetica,sans-Serif" font-size="10.00">ImGui::IsNamedKey</text>
</a>
</g>
</g>
<!-- Node4&#45;&gt;Node6 -->
<g id="edge5_Node000004_Node000006" class="edge">
<title>Node4&#45;&gt;Node6</title>
<g id="a_edge5_Node000004_Node000006"><a xlink:title=" ">
<path fill="none" stroke="#63b8ff" d="M521.24,-40.78C537.78,-38.75 555.38,-36.58 571.77,-34.57"/>
<polygon fill="#63b8ff" stroke="#63b8ff" points="571.9,-38.08 581.4,-33.39 571.05,-31.13 571.9,-38.08"/>
</a>
</g>
</g>
</g>
</svg>
