<?xml version="1.0" encoding="UTF-8" standalone="no"?>
<!DOCTYPE svg PUBLIC "-//W3C//DTD SVG 1.1//EN"
 "http://www.w3.org/Graphics/SVG/1.1/DTD/svg11.dtd">
<!-- Generated by graphviz version 12.0.0 (20240704.0754)
 -->
<!-- Title: ImGui::InputTextEx Pages: 1 -->
<svg width="1338pt" height="807pt"
 viewBox="0.00 0.00 1337.50 806.75" xmlns="http://www.w3.org/2000/svg" xmlns:xlink="http://www.w3.org/1999/xlink">
<g id="graph0" class="graph" transform="scale(1 1) rotate(0) translate(4 802.75)">
<title>ImGui::InputTextEx</title>
<!-- Node1 -->
<g id="Node000001" class="node">
<title>Node1</title>
<g id="a_Node000001"><a xlink:title=" ">
<polygon fill="#999999" stroke="#666666" points="1329.5,-562.75 1221.25,-562.75 1221.25,-542 1329.5,-542 1329.5,-562.75"/>
<text text-anchor="middle" x="1275.38" y="-549.25" font-family="Helvetica,sans-Serif" font-size="10.00">ImGui::InputTextEx</text>
</a>
</g>
</g>
<!-- Node2 -->
<g id="Node000002" class="node">
<title>Node2</title>
<g id="a_Node000002"><a xlink:href="namespaceImGui.html#aa72b5760a3a206729723a587ac7c8519" target="_top" xlink:title=" ">
<polygon fill="white" stroke="#666666" points="670.38,-619.75 574.12,-619.75 574.12,-599 670.38,-599 670.38,-619.75"/>
<text text-anchor="middle" x="622.25" y="-606.25" font-family="Helvetica,sans-Serif" font-size="10.00">ImGui::InputText</text>
</a>
</g>
</g>
<!-- Node1&#45;&gt;Node2 -->
<g id="edge1_Node000001_Node000002" class="edge">
<title>Node1&#45;&gt;Node2</title>
<g id="a_edge1_Node000001_Node000002"><a xlink:title=" ">
<path fill="none" stroke="#63b8ff" d="M1225.04,-565.96C1212.17,-569.12 1198.26,-572.19 1185.25,-574.38 996.54,-606.11 767.83,-609.78 670.63,-609.74"/>
<polygon fill="#63b8ff" stroke="#63b8ff" points="1225.73,-569.4 1234.57,-563.55 1224.02,-562.61 1225.73,-569.4"/>
</a>
</g>
</g>
<!-- Node26 -->
<g id="Node000026" class="node">
<title>Node26</title>
<g id="a_Node000026"><a xlink:href="namespaceImGui.html#a0470693929ed9930cbf5b737577c2414" target="_top" xlink:title=" ">
<polygon fill="white" stroke="#666666" points="1010.25,-581.75 871.25,-581.75 871.25,-561 1010.25,-561 1010.25,-581.75"/>
<text text-anchor="middle" x="940.75" y="-568.25" font-family="Helvetica,sans-Serif" font-size="10.00">ImGui::InputTextMultiline</text>
</a>
</g>
</g>
<!-- Node1&#45;&gt;Node26 -->
<g id="edge30_Node000001_Node000026" class="edge">
<title>Node1&#45;&gt;Node26</title>
<g id="a_edge30_Node000001_Node000026"><a xlink:title=" ">
<path fill="none" stroke="#63b8ff" d="M1209.49,-556.08C1152.24,-559.35 1069.06,-564.1 1010.64,-567.44"/>
<polygon fill="#63b8ff" stroke="#63b8ff" points="1209.64,-559.58 1219.42,-555.51 1209.24,-552.59 1209.64,-559.58"/>
</a>
</g>
</g>
<!-- Node27 -->
<g id="Node000027" class="node">
<title>Node27</title>
<g id="a_Node000027"><a xlink:href="namespaceImGui.html#aee5a5127f494966ad16e578714e8fac2" target="_top" xlink:title=" ">
<polygon fill="white" stroke="#666666" points="1185.25,-504.75 1046.25,-504.75 1046.25,-484 1185.25,-484 1185.25,-504.75"/>
<text text-anchor="middle" x="1115.75" y="-491.25" font-family="Helvetica,sans-Serif" font-size="10.00">ImGui::InputTextWithHint</text>
</a>
</g>
</g>
<!-- Node1&#45;&gt;Node27 -->
<g id="edge32_Node000001_Node000027" class="edge">
<title>Node1&#45;&gt;Node27</title>
<g id="a_edge32_Node000001_Node000027"><a xlink:title=" ">
<path fill="none" stroke="#63b8ff" d="M1240.95,-537C1224.38,-529.67 1203.96,-521.07 1185.25,-514.38 1176.15,-511.12 1166.24,-507.99 1156.85,-505.22"/>
<polygon fill="#63b8ff" stroke="#63b8ff" points="1239.28,-540.09 1249.84,-540.99 1242.14,-533.71 1239.28,-540.09"/>
</a>
</g>
</g>
<!-- Node28 -->
<g id="Node000028" class="node">
<title>Node28</title>
<g id="a_Node000028"><a xlink:href="namespaceImGui.html#ae85def71d2fcf5409035b583b315964e" target="_top" xlink:title=" ">
<polygon fill="white" stroke="#666666" points="1177,-543.75 1054.5,-543.75 1054.5,-523 1177,-523 1177,-543.75"/>
<text text-anchor="middle" x="1115.75" y="-530.25" font-family="Helvetica,sans-Serif" font-size="10.00">ImGui::TempInputText</text>
</a>
</g>
</g>
<!-- Node1&#45;&gt;Node28 -->
<g id="edge33_Node000001_Node000028" class="edge">
<title>Node1&#45;&gt;Node28</title>
<g id="a_edge33_Node000001_Node000028"><a xlink:title=" ">
<path fill="none" stroke="#63b8ff" d="M1209.62,-544.57C1198.96,-543.28 1187.94,-541.96 1177.39,-540.68"/>
<polygon fill="#63b8ff" stroke="#63b8ff" points="1209.16,-548.04 1219.51,-545.76 1210,-541.09 1209.16,-548.04"/>
</a>
</g>
</g>
<!-- Node3 -->
<g id="Node000003" class="node">
<title>Node3</title>
<g id="a_Node000003"><a xlink:href="namespaceImGui.html#ac3f45e2aa0b1d591cc8a2cdf8b566a45" target="_top" xlink:title=" ">
<polygon fill="white" stroke="#666666" points="492.75,-503.75 391.25,-503.75 391.25,-483 492.75,-483 492.75,-503.75"/>
<text text-anchor="middle" x="442" y="-490.25" font-family="Helvetica,sans-Serif" font-size="10.00">ImGui::ColorEdit4</text>
</a>
</g>
</g>
<!-- Node2&#45;&gt;Node3 -->
<g id="edge2_Node000002_Node000003" class="edge">
<title>Node2&#45;&gt;Node3</title>
<g id="a_edge2_Node000002_Node000003"><a xlink:title=" ">
<path fill="none" stroke="#63b8ff" d="M605.6,-589.89C587.02,-568.07 554.03,-533.16 518.25,-513.38 510.44,-509.06 501.66,-505.64 492.92,-502.94"/>
<polygon fill="#63b8ff" stroke="#63b8ff" points="602.81,-592.01 611.89,-597.47 608.19,-587.54 602.81,-592.01"/>
</a>
</g>
</g>
<!-- Node11 -->
<g id="Node000011" class="node">
<title>Node11</title>
<g id="a_Node000011"><a xlink:href="structExampleAppConsole.html#a0518a09c7e8648dd52c7c06df19ac17a" target="_top" xlink:title=" ">
<polygon fill="white" stroke="#666666" points="329.75,-631.75 181.75,-631.75 181.75,-611 329.75,-611 329.75,-631.75"/>
<text text-anchor="middle" x="255.75" y="-618.25" font-family="Helvetica,sans-Serif" font-size="10.00">ExampleAppConsole::Draw</text>
</a>
</g>
</g>
<!-- Node2&#45;&gt;Node11 -->
<g id="edge12_Node000002_Node000011" class="edge">
<title>Node2&#45;&gt;Node11</title>
<g id="a_edge12_Node000002_Node000011"><a xlink:title=" ">
<path fill="none" stroke="#63b8ff" d="M564.26,-622.46C549.37,-625.32 533.28,-627.93 518.25,-629.38 454.95,-635.46 382.68,-632.5 330.18,-628.56"/>
<polygon fill="#63b8ff" stroke="#63b8ff" points="564.78,-625.93 573.9,-620.53 563.4,-619.06 564.78,-625.93"/>
</a>
</g>
</g>
<!-- Node12 -->
<g id="Node000012" class="node">
<title>Node12</title>
<g id="a_Node000012"><a xlink:href="structImGuiTextFilter.html#ab93ad5985019ff9d3781606551fc26cc" target="_top" xlink:title=" ">
<polygon fill="white" stroke="#666666" points="502.88,-620.75 381.12,-620.75 381.12,-600 502.88,-600 502.88,-620.75"/>
<text text-anchor="middle" x="442" y="-607.25" font-family="Helvetica,sans-Serif" font-size="10.00">ImGuiTextFilter::Draw</text>
</a>
</g>
</g>
<!-- Node2&#45;&gt;Node12 -->
<g id="edge13_Node000002_Node000012" class="edge">
<title>Node2&#45;&gt;Node12</title>
<g id="a_edge13_Node000002_Node000012"><a xlink:title=" ">
<path fill="none" stroke="#63b8ff" d="M562.44,-609.7C543.47,-609.81 522.41,-609.93 503.33,-610.04"/>
<polygon fill="#63b8ff" stroke="#63b8ff" points="562.46,-613.2 572.44,-609.65 562.42,-606.21 562.46,-613.2"/>
</a>
</g>
</g>
<!-- Node14 -->
<g id="Node000014" class="node">
<title>Node14</title>
<g id="a_Node000014"><a xlink:href="namespaceImGui.html#afdb54540b7480872fbb746f64344b374" target="_top" xlink:title=" ">
<polygon fill="white" stroke="#666666" points="495,-709.75 389,-709.75 389,-689 495,-689 495,-709.75"/>
<text text-anchor="middle" x="442" y="-696.25" font-family="Helvetica,sans-Serif" font-size="10.00">ImGui::InputScalar</text>
</a>
</g>
</g>
<!-- Node2&#45;&gt;Node14 -->
<g id="edge17_Node000002_Node000014" class="edge">
<title>Node2&#45;&gt;Node14</title>
<g id="a_edge17_Node000002_Node000014"><a xlink:title=" ">
<path fill="none" stroke="#63b8ff" d="M590.41,-625.43C569.98,-636.02 542.57,-650.14 518.25,-662.38 500.43,-671.34 480.13,-681.3 465.11,-688.63"/>
<polygon fill="#63b8ff" stroke="#63b8ff" points="591.79,-628.66 599.05,-620.94 588.56,-622.44 591.79,-628.66"/>
</a>
</g>
</g>
<!-- Node25 -->
<g id="Node000025" class="node">
<title>Node25</title>
<g id="a_Node000025"><a xlink:href="namespaceImGui.html#afe7a28c6eb52fff3cc27d5a698fea4ff" target="_top" xlink:title=" ">
<polygon fill="white" stroke="#666666" points="518.25,-581.75 365.75,-581.75 365.75,-561 518.25,-561 518.25,-581.75"/>
<text text-anchor="middle" x="442" y="-568.25" font-family="Helvetica,sans-Serif" font-size="10.00">ImGui::ShowMetricsWindow</text>
</a>
</g>
</g>
<!-- Node2&#45;&gt;Node25 -->
<g id="edge28_Node000002_Node000025" class="edge">
<title>Node2&#45;&gt;Node25</title>
<g id="a_edge28_Node000002_Node000025"><a xlink:title=" ">
<path fill="none" stroke="#63b8ff" d="M562.95,-596.95C540.68,-592.2 515.49,-586.83 493.96,-582.24"/>
<polygon fill="#63b8ff" stroke="#63b8ff" points="561.96,-600.31 572.47,-598.98 563.42,-593.47 561.96,-600.31"/>
</a>
</g>
</g>
<!-- Node4 -->
<g id="Node000004" class="node">
<title>Node4</title>
<g id="a_Node000004"><a xlink:href="namespaceImGui.html#a5afe76ba1c91f07363e40396e7df656e" target="_top" xlink:title=" ">
<polygon fill="white" stroke="#666666" points="306.5,-458.75 205,-458.75 205,-438 306.5,-438 306.5,-458.75"/>
<text text-anchor="middle" x="255.75" y="-445.25" font-family="Helvetica,sans-Serif" font-size="10.00">ImGui::ColorEdit3</text>
</a>
</g>
</g>
<!-- Node3&#45;&gt;Node4 -->
<g id="edge3_Node000003_Node000004" class="edge">
<title>Node3&#45;&gt;Node4</title>
<g id="a_edge3_Node000003_Node000004"><a xlink:title=" ">
<path fill="none" stroke="#63b8ff" d="M385.99,-479.94C358.9,-473.32 326.66,-465.45 301.16,-459.22"/>
<polygon fill="#63b8ff" stroke="#63b8ff" points="384.85,-483.26 395.4,-482.24 386.51,-476.46 384.85,-483.26"/>
</a>
</g>
</g>
<!-- Node6 -->
<g id="Node000006" class="node">
<title>Node6</title>
<g id="a_Node000006"><a xlink:href="namespaceImGui.html#a3d5aae9e0a14aa051d5a799abbe97b32" target="_top" xlink:title=" ">
<polygon fill="white" stroke="#666666" points="311.75,-503.75 199.75,-503.75 199.75,-483 311.75,-483 311.75,-503.75"/>
<text text-anchor="middle" x="255.75" y="-490.25" font-family="Helvetica,sans-Serif" font-size="10.00">ImGui::ColorPicker4</text>
</a>
</g>
</g>
<!-- Node3&#45;&gt;Node6 -->
<g id="edge5_Node000003_Node000006" class="edge">
<title>Node3&#45;&gt;Node6</title>
<g id="a_edge5_Node000003_Node000006"><a xlink:title=" ">
<path fill="none" stroke="#63b8ff" d="M379.67,-486.97C357.86,-486.46 333.45,-486.51 312.17,-487.13"/>
<polygon fill="#63b8ff" stroke="#63b8ff" points="379.53,-490.47 389.63,-487.26 379.73,-483.47 379.53,-490.47"/>
</a>
</g>
</g>
<!-- Node9 -->
<g id="Node000009" class="node">
<title>Node9</title>
<g id="a_Node000009"><a xlink:href="namespaceImGui.html#ab2eb3dec78d054fe3feab1c091ec5de5" target="_top" xlink:title=" ">
<polygon fill="white" stroke="#666666" points="321.12,-252.75 190.38,-252.75 190.38,-232 321.12,-232 321.12,-252.75"/>
<text text-anchor="middle" x="255.75" y="-239.25" font-family="Helvetica,sans-Serif" font-size="10.00">ImGui::ShowStyleEditor</text>
</a>
</g>
</g>
<!-- Node3&#45;&gt;Node9 -->
<g id="edge10_Node000003_Node000009" class="edge">
<title>Node3&#45;&gt;Node9</title>
<g id="a_edge10_Node000003_Node000009"><a xlink:title=" ">
<path fill="none" stroke="#63b8ff" d="M380.77,-480.27C375.24,-477.34 370.1,-473.76 365.75,-469.38 327.73,-431.06 352.81,-402.18 329.75,-353.38 311.13,-313.96 280.21,-272.24 265.31,-253.11"/>
<polygon fill="#63b8ff" stroke="#63b8ff" points="379.1,-483.35 389.65,-484.25 381.96,-476.97 379.1,-483.35"/>
</a>
</g>
</g>
<!-- Node5 -->
<g id="Node000005" class="node">
<title>Node5</title>
<g id="a_Node000005"><a xlink:href="structExampleAppDocuments.html#a007a1a59693a3c7fc7d87815e022dbe4" target="_top" xlink:title=" ">
<polygon fill="white" stroke="#666666" points="139.38,-458.12 6.38,-458.12 6.38,-424.62 139.38,-424.62 139.38,-458.12"/>
<text text-anchor="start" x="14.38" y="-444.62" font-family="Helvetica,sans-Serif" font-size="10.00">ExampleAppDocuments</text>
<text text-anchor="middle" x="72.88" y="-431.88" font-family="Helvetica,sans-Serif" font-size="10.00">::DisplayDocContents</text>
</a>
</g>
</g>
<!-- Node4&#45;&gt;Node5 -->
<g id="edge4_Node000004_Node000005" class="edge">
<title>Node4&#45;&gt;Node5</title>
<g id="a_edge4_Node000004_Node000005"><a xlink:title=" ">
<path fill="none" stroke="#63b8ff" d="M193.67,-446.01C176.26,-445.34 157.22,-444.6 139.54,-443.92"/>
<polygon fill="#63b8ff" stroke="#63b8ff" points="193.21,-449.5 203.33,-446.39 193.48,-442.5 193.21,-449.5"/>
</a>
</g>
</g>
<!-- Node6&#45;&gt;Node3 -->
<g id="edge6_Node000006_Node000003" class="edge">
<title>Node6&#45;&gt;Node3</title>
<g id="a_edge6_Node000006_Node000003"><a xlink:title=" ">
<path fill="none" stroke="#63b8ff" d="M323.6,-499.89C345.91,-500.31 370.36,-500.16 391.14,-499.45"/>
<polygon fill="#63b8ff" stroke="#63b8ff" points="323.76,-496.4 313.68,-499.66 323.59,-503.39 323.76,-496.4"/>
</a>
</g>
</g>
<!-- Node7 -->
<g id="Node000007" class="node">
<title>Node7</title>
<g id="a_Node000007"><a xlink:href="namespaceImGui.html#a2a2a98cb9a17b18702be6b954670b388" target="_top" xlink:title=" ">
<polygon fill="white" stroke="#666666" points="128.88,-548.75 16.87,-548.75 16.87,-528 128.88,-528 128.88,-548.75"/>
<text text-anchor="middle" x="72.88" y="-535.25" font-family="Helvetica,sans-Serif" font-size="10.00">ImGui::ColorPicker3</text>
</a>
</g>
</g>
<!-- Node6&#45;&gt;Node7 -->
<g id="edge7_Node000006_Node000007" class="edge">
<title>Node6&#45;&gt;Node7</title>
<g id="a_edge7_Node000006_Node000007"><a xlink:title=" ">
<path fill="none" stroke="#63b8ff" d="M200.4,-506.9C173.87,-513.5 142.39,-521.33 117.47,-527.53"/>
<polygon fill="#63b8ff" stroke="#63b8ff" points="201.1,-510.33 209.96,-504.52 199.41,-503.54 201.1,-510.33"/>
</a>
</g>
</g>
<!-- Node8 -->
<g id="Node000008" class="node">
<title>Node8</title>
<g id="a_Node000008"><a xlink:href="namespaceImGui.html#a6d112eeb6d8ffdebbc9d9a8c66babbee" target="_top" xlink:title=" ">
<polygon fill="white" stroke="#666666" points="144.62,-510.12 1.12,-510.12 1.12,-476.62 144.62,-476.62 144.62,-510.12"/>
<text text-anchor="start" x="9.12" y="-496.62" font-family="Helvetica,sans-Serif" font-size="10.00">ImGui::ColorPickerOptions</text>
<text text-anchor="middle" x="72.88" y="-483.88" font-family="Helvetica,sans-Serif" font-size="10.00">Popup</text>
</a>
</g>
</g>
<!-- Node6&#45;&gt;Node8 -->
<g id="edge8_Node000006_Node000008" class="edge">
<title>Node6&#45;&gt;Node8</title>
<g id="a_edge8_Node000006_Node000008"><a xlink:title=" ">
<path fill="none" stroke="#63b8ff" d="M188.34,-486.84C174.17,-486.58 159.15,-486.56 144.82,-486.77"/>
<polygon fill="#63b8ff" stroke="#63b8ff" points="187.91,-490.33 197.99,-487.07 188.07,-483.33 187.91,-490.33"/>
</a>
</g>
</g>
<!-- Node8&#45;&gt;Node6 -->
<g id="edge9_Node000008_Node000006" class="edge">
<title>Node8&#45;&gt;Node6</title>
<g id="a_edge9_Node000008_Node000006"><a xlink:title=" ">
<path fill="none" stroke="#63b8ff" d="M156,-500.1C170.73,-500.19 185.76,-500.04 199.5,-499.65"/>
<polygon fill="#63b8ff" stroke="#63b8ff" points="156.37,-496.6 146.33,-500 156.29,-503.6 156.37,-496.6"/>
</a>
</g>
</g>
<!-- Node10 -->
<g id="Node000010" class="node">
<title>Node10</title>
<g id="a_Node000010"><a xlink:href="namespaceImGui.html#af95643a0ce4893b9e57c12991922fb18" target="_top" xlink:title=" ">
<polygon fill="white" stroke="#666666" points="145.75,-252.75 0,-252.75 0,-232 145.75,-232 145.75,-252.75"/>
<text text-anchor="middle" x="72.88" y="-239.25" font-family="Helvetica,sans-Serif" font-size="10.00">ImGui::ShowDemoWindow</text>
</a>
</g>
</g>
<!-- Node9&#45;&gt;Node10 -->
<g id="edge11_Node000009_Node000010" class="edge">
<title>Node9&#45;&gt;Node10</title>
<g id="a_edge11_Node000009_Node000010"><a xlink:title=" ">
<path fill="none" stroke="#63b8ff" d="M178.49,-242.38C167.79,-242.38 156.82,-242.38 146.19,-242.38"/>
<polygon fill="#63b8ff" stroke="#63b8ff" points="178.45,-245.88 188.45,-242.38 178.45,-238.88 178.45,-245.88"/>
</a>
</g>
</g>
<!-- Node12&#45;&gt;Node9 -->
<g id="edge16_Node000012_Node000009" class="edge">
<title>Node12&#45;&gt;Node9</title>
<g id="a_edge16_Node000012_Node000009"><a xlink:title=" ">
<path fill="none" stroke="#63b8ff" d="M371.41,-595.37C369.4,-593.86 367.5,-592.2 365.75,-590.38 314.94,-537.51 351.14,-499.51 329.75,-429.38 308.8,-360.71 274.3,-281.46 261.62,-253.13"/>
<polygon fill="#63b8ff" stroke="#63b8ff" points="369.21,-598.13 379.57,-600.34 372.85,-592.15 369.21,-598.13"/>
</a>
</g>
</g>
<!-- Node12&#45;&gt;Node11 -->
<g id="edge14_Node000012_Node000011" class="edge">
<title>Node12&#45;&gt;Node11</title>
<g id="a_edge14_Node000012_Node000011"><a xlink:title=" ">
<path fill="none" stroke="#63b8ff" d="M369.48,-614.64C356.55,-615.42 343.05,-616.22 330.08,-617"/>
<polygon fill="#63b8ff" stroke="#63b8ff" points="369.39,-618.16 379.16,-614.07 368.97,-611.17 369.39,-618.16"/>
</a>
</g>
</g>
<!-- Node13 -->
<g id="Node000013" class="node">
<title>Node13</title>
<g id="a_Node000013"><a xlink:href="structExampleAppLog.html#a5ad3a4bdb89171b84aeaff96948a1f77" target="_top" xlink:title=" ">
<polygon fill="white" stroke="#666666" points="318.88,-592.75 192.62,-592.75 192.62,-572 318.88,-572 318.88,-592.75"/>
<text text-anchor="middle" x="255.75" y="-579.25" font-family="Helvetica,sans-Serif" font-size="10.00">ExampleAppLog::Draw</text>
</a>
</g>
</g>
<!-- Node12&#45;&gt;Node13 -->
<g id="edge15_Node000012_Node000013" class="edge">
<title>Node12&#45;&gt;Node13</title>
<g id="a_edge15_Node000012_Node000013"><a xlink:title=" ">
<path fill="none" stroke="#63b8ff" d="M369.37,-599.49C352.78,-596.97 335.26,-594.31 319.11,-591.85"/>
<polygon fill="#63b8ff" stroke="#63b8ff" points="368.76,-602.94 379.17,-600.98 369.81,-596.02 368.76,-602.94"/>
</a>
</g>
</g>
<!-- Node15 -->
<g id="Node000015" class="node">
<title>Node15</title>
<g id="a_Node000015"><a xlink:href="namespaceImGui.html#ad941c3cfa561ca35b674fd5802bcf870" target="_top" xlink:title=" ">
<polygon fill="white" stroke="#666666" points="311,-670.75 200.5,-670.75 200.5,-650 311,-650 311,-670.75"/>
<text text-anchor="middle" x="255.75" y="-657.25" font-family="Helvetica,sans-Serif" font-size="10.00">ImGui::InputDouble</text>
</a>
</g>
</g>
<!-- Node14&#45;&gt;Node15 -->
<g id="edge18_Node000014_Node000015" class="edge">
<title>Node14&#45;&gt;Node15</title>
<g id="a_edge18_Node000014_Node000015"><a xlink:title=" ">
<path fill="none" stroke="#63b8ff" d="M378.66,-686.18C355.71,-681.32 329.99,-675.88 308.12,-671.25"/>
<polygon fill="#63b8ff" stroke="#63b8ff" points="377.69,-689.55 388.2,-688.2 379.14,-682.7 377.69,-689.55"/>
</a>
</g>
</g>
<!-- Node16 -->
<g id="Node000016" class="node">
<title>Node16</title>
<g id="a_Node000016"><a xlink:href="namespaceImGui.html#a36b86c9d7226f18c316400c83a904454" target="_top" xlink:title=" ">
<polygon fill="white" stroke="#666666" points="306.12,-787.75 205.38,-787.75 205.38,-767 306.12,-767 306.12,-787.75"/>
<text text-anchor="middle" x="255.75" y="-774.25" font-family="Helvetica,sans-Serif" font-size="10.00">ImGui::InputFloat</text>
</a>
</g>
</g>
<!-- Node14&#45;&gt;Node16 -->
<g id="edge19_Node000014_Node000016" class="edge">
<title>Node14&#45;&gt;Node16</title>
<g id="a_edge19_Node000014_Node000016"><a xlink:title=" ">
<path fill="none" stroke="#63b8ff" d="M413.77,-715.67C391.71,-728.35 359.51,-745.7 329.75,-757.38 320.94,-760.83 311.32,-763.93 302.03,-766.59"/>
<polygon fill="#63b8ff" stroke="#63b8ff" points="415.25,-718.85 422.13,-710.8 411.73,-712.8 415.25,-718.85"/>
</a>
</g>
</g>
<!-- Node17 -->
<g id="Node000017" class="node">
<title>Node17</title>
<g id="a_Node000017"><a xlink:href="namespaceImGui.html#a36fc45a3c41a63ea9a983cc851752505" target="_top" xlink:title=" ">
<polygon fill="white" stroke="#666666" points="300.12,-748.75 211.38,-748.75 211.38,-728 300.12,-728 300.12,-748.75"/>
<text text-anchor="middle" x="255.75" y="-735.25" font-family="Helvetica,sans-Serif" font-size="10.00">ImGui::InputInt</text>
</a>
</g>
</g>
<!-- Node14&#45;&gt;Node17 -->
<g id="edge20_Node000014_Node000017" class="edge">
<title>Node14&#45;&gt;Node17</title>
<g id="a_edge20_Node000014_Node000017"><a xlink:title=" ">
<path fill="none" stroke="#63b8ff" d="M378.56,-712.59C352.95,-718.01 323.92,-724.16 300.62,-729.09"/>
<polygon fill="#63b8ff" stroke="#63b8ff" points="379.14,-716.05 388.2,-710.55 377.69,-709.2 379.14,-716.05"/>
</a>
</g>
</g>
<!-- Node18 -->
<g id="Node000018" class="node">
<title>Node18</title>
<g id="a_Node000018"><a xlink:href="namespaceImGui.html#afb17f0092027c09183df498834abace9" target="_top" xlink:title=" ">
<polygon fill="white" stroke="#666666" points="312.5,-709.75 199,-709.75 199,-689 312.5,-689 312.5,-709.75"/>
<text text-anchor="middle" x="255.75" y="-696.25" font-family="Helvetica,sans-Serif" font-size="10.00">ImGui::InputScalarN</text>
</a>
</g>
</g>
<!-- Node14&#45;&gt;Node18 -->
<g id="edge21_Node000014_Node000018" class="edge">
<title>Node14&#45;&gt;Node18</title>
<g id="a_edge21_Node000014_Node000018"><a xlink:title=" ">
<path fill="none" stroke="#63b8ff" d="M377.29,-699.38C356.29,-699.38 333.11,-699.38 312.73,-699.38"/>
<polygon fill="#63b8ff" stroke="#63b8ff" points="377.18,-702.88 387.18,-699.38 377.18,-695.88 377.18,-702.88"/>
</a>
</g>
</g>
<!-- Node19 -->
<g id="Node000019" class="node">
<title>Node19</title>
<g id="a_Node000019"><a xlink:href="namespaceImGui.html#a854ba6decd4ae7e4b0980a9c71bfa47d" target="_top" xlink:title=" ">
<polygon fill="white" stroke="#666666" points="126.25,-642.75 19.5,-642.75 19.5,-622 126.25,-622 126.25,-642.75"/>
<text text-anchor="middle" x="72.88" y="-629.25" font-family="Helvetica,sans-Serif" font-size="10.00">ImGui::InputFloat2</text>
</a>
</g>
</g>
<!-- Node18&#45;&gt;Node19 -->
<g id="edge22_Node000018_Node000019" class="edge">
<title>Node18&#45;&gt;Node19</title>
<g id="a_edge22_Node000018_Node000019"><a xlink:title=" ">
<path fill="none" stroke="#63b8ff" d="M194.29,-684.76C189.97,-683.13 185.75,-681.33 181.75,-679.38 163.79,-670.58 163.69,-661.21 145.75,-652.38 138.43,-648.77 130.36,-645.73 122.35,-643.19"/>
<polygon fill="#63b8ff" stroke="#63b8ff" points="193.1,-688.05 203.7,-688.01 195.38,-681.44 193.1,-688.05"/>
</a>
</g>
</g>
<!-- Node20 -->
<g id="Node000020" class="node">
<title>Node20</title>
<g id="a_Node000020"><a xlink:href="namespaceImGui.html#a970a00fd1a4226c697ea5fb807fb62d8" target="_top" xlink:title=" ">
<polygon fill="white" stroke="#666666" points="126.25,-603.75 19.5,-603.75 19.5,-583 126.25,-583 126.25,-603.75"/>
<text text-anchor="middle" x="72.88" y="-590.25" font-family="Helvetica,sans-Serif" font-size="10.00">ImGui::InputFloat3</text>
</a>
</g>
</g>
<!-- Node18&#45;&gt;Node20 -->
<g id="edge23_Node000018_Node000020" class="edge">
<title>Node18&#45;&gt;Node20</title>
<g id="a_edge23_Node000018_Node000020"><a xlink:title=" ">
<path fill="none" stroke="#63b8ff" d="M188.5,-684.02C186.14,-682.6 183.88,-681.06 181.75,-679.38 155.55,-658.64 171.91,-634.16 145.75,-613.38 140.07,-608.86 133.44,-605.37 126.54,-602.66"/>
<polygon fill="#63b8ff" stroke="#63b8ff" points="186.8,-687.08 197.3,-688.45 189.94,-680.83 186.8,-687.08"/>
</a>
</g>
</g>
<!-- Node21 -->
<g id="Node000021" class="node">
<title>Node21</title>
<g id="a_Node000021"><a xlink:href="namespaceImGui.html#a69675d2e9780a0e5a7a372f936b64d49" target="_top" xlink:title=" ">
<polygon fill="white" stroke="#666666" points="126.25,-798.75 19.5,-798.75 19.5,-778 126.25,-778 126.25,-798.75"/>
<text text-anchor="middle" x="72.88" y="-785.25" font-family="Helvetica,sans-Serif" font-size="10.00">ImGui::InputFloat4</text>
</a>
</g>
</g>
<!-- Node18&#45;&gt;Node21 -->
<g id="edge24_Node000018_Node000021" class="edge">
<title>Node18&#45;&gt;Node21</title>
<g id="a_edge24_Node000018_Node000021"><a xlink:title=" ">
<path fill="none" stroke="#63b8ff" d="M189.2,-714.88C186.62,-716.25 184.12,-717.75 181.75,-719.38 159.48,-734.68 167.99,-753.02 145.75,-768.38 139.89,-772.42 133.23,-775.65 126.38,-778.23"/>
<polygon fill="#63b8ff" stroke="#63b8ff" points="190.52,-718.12 198.16,-710.78 187.61,-711.76 190.52,-718.12"/>
</a>
</g>
</g>
<!-- Node22 -->
<g id="Node000022" class="node">
<title>Node22</title>
<g id="a_Node000022"><a xlink:href="namespaceImGui.html#a83dfd2daacefb741e67d8d69821e1590" target="_top" xlink:title=" ">
<polygon fill="white" stroke="#666666" points="120.25,-759.75 25.5,-759.75 25.5,-739 120.25,-739 120.25,-759.75"/>
<text text-anchor="middle" x="72.88" y="-746.25" font-family="Helvetica,sans-Serif" font-size="10.00">ImGui::InputInt2</text>
</a>
</g>
</g>
<!-- Node18&#45;&gt;Node22 -->
<g id="edge25_Node000018_Node000022" class="edge">
<title>Node18&#45;&gt;Node22</title>
<g id="a_edge25_Node000018_Node000022"><a xlink:title=" ">
<path fill="none" stroke="#63b8ff" d="M203.87,-713.29C196.45,-715.33 188.9,-717.4 181.75,-719.38 174.91,-721.26 140.79,-730.76 112.72,-738.56"/>
<polygon fill="#63b8ff" stroke="#63b8ff" points="204.78,-716.67 213.5,-710.65 202.93,-709.92 204.78,-716.67"/>
</a>
</g>
</g>
<!-- Node23 -->
<g id="Node000023" class="node">
<title>Node23</title>
<g id="a_Node000023"><a xlink:href="namespaceImGui.html#ab8e7466e5bdda70fefa551eb662dc3f5" target="_top" xlink:title=" ">
<polygon fill="white" stroke="#666666" points="120.25,-720.75 25.5,-720.75 25.5,-700 120.25,-700 120.25,-720.75"/>
<text text-anchor="middle" x="72.88" y="-707.25" font-family="Helvetica,sans-Serif" font-size="10.00">ImGui::InputInt3</text>
</a>
</g>
</g>
<!-- Node18&#45;&gt;Node23 -->
<g id="edge26_Node000018_Node000023" class="edge">
<title>Node18&#45;&gt;Node23</title>
<g id="a_edge26_Node000018_Node000023"><a xlink:title=" ">
<path fill="none" stroke="#63b8ff" d="M187.14,-703.49C165,-704.83 140.91,-706.3 120.66,-707.53"/>
<polygon fill="#63b8ff" stroke="#63b8ff" points="187.23,-706.99 197,-702.89 186.81,-700 187.23,-706.99"/>
</a>
</g>
</g>
<!-- Node24 -->
<g id="Node000024" class="node">
<title>Node24</title>
<g id="a_Node000024"><a xlink:href="namespaceImGui.html#a3a57668b83f7a99d295f94baa71add0a" target="_top" xlink:title=" ">
<polygon fill="white" stroke="#666666" points="120.25,-681.75 25.5,-681.75 25.5,-661 120.25,-661 120.25,-681.75"/>
<text text-anchor="middle" x="72.88" y="-668.25" font-family="Helvetica,sans-Serif" font-size="10.00">ImGui::InputInt4</text>
</a>
</g>
</g>
<!-- Node18&#45;&gt;Node24 -->
<g id="edge27_Node000018_Node000024" class="edge">
<title>Node18&#45;&gt;Node24</title>
<g id="a_edge27_Node000018_Node000024"><a xlink:title=" ">
<path fill="none" stroke="#63b8ff" d="M187.14,-688.91C165,-685.48 140.91,-681.75 120.66,-678.62"/>
<polygon fill="#63b8ff" stroke="#63b8ff" points="186.6,-692.37 197.02,-690.44 187.67,-685.45 186.6,-692.37"/>
</a>
</g>
</g>
<!-- Node25&#45;&gt;Node10 -->
<g id="edge29_Node000025_Node000010" class="edge">
<title>Node25&#45;&gt;Node10</title>
<g id="a_edge29_Node000025_Node000010"><a xlink:title=" ">
<path fill="none" stroke="#63b8ff" d="M369.07,-554.32C367.92,-553.39 366.81,-552.41 365.75,-551.38 325.24,-511.95 362.29,-475.61 329.75,-429.38 267.05,-340.29 148.27,-277.14 97.67,-253.1"/>
<polygon fill="#63b8ff" stroke="#63b8ff" points="367.05,-557.18 377.33,-559.72 370.88,-551.32 367.05,-557.18"/>
</a>
</g>
</g>
<!-- Node26&#45;&gt;Node25 -->
<g id="edge31_Node000026_Node000025" class="edge">
<title>Node26&#45;&gt;Node25</title>
<g id="a_edge31_Node000026_Node000025"><a xlink:title=" ">
<path fill="none" stroke="#63b8ff" d="M859.49,-571.38C765.35,-571.38 610.49,-571.38 518.47,-571.38"/>
<polygon fill="#63b8ff" stroke="#63b8ff" points="859.43,-574.88 869.43,-571.38 859.43,-567.88 859.43,-574.88"/>
</a>
</g>
</g>
<!-- Node29 -->
<g id="Node000029" class="node">
<title>Node29</title>
<g id="a_Node000029"><a xlink:href="namespaceImGui.html#a392fed3e7db2a75abf217bf84c6abce9" target="_top" xlink:title=" ">
<polygon fill="white" stroke="#666666" points="1006.88,-416.75 874.62,-416.75 874.62,-396 1006.88,-396 1006.88,-416.75"/>
<text text-anchor="middle" x="940.75" y="-403.25" font-family="Helvetica,sans-Serif" font-size="10.00">ImGui::TempInputScalar</text>
</a>
</g>
</g>
<!-- Node28&#45;&gt;Node29 -->
<g id="edge34_Node000028_Node000029" class="edge">
<title>Node28&#45;&gt;Node29</title>
<g id="a_edge34_Node000028_Node000029"><a xlink:title=" ">
<path fill="none" stroke="#63b8ff" d="M1055.64,-518.3C1052.39,-516.81 1049.23,-515.17 1046.25,-513.38 1002.62,-487.18 964.54,-438.38 949.09,-416.94"/>
<polygon fill="#63b8ff" stroke="#63b8ff" points="1054.28,-521.53 1064.86,-522.06 1056.92,-515.05 1054.28,-521.53"/>
</a>
</g>
</g>
<!-- Node30 -->
<g id="Node000030" class="node">
<title>Node30</title>
<g id="a_Node000030"><a xlink:href="namespaceImGui.html#a17d8926e8f44a6d00575b12081c51fe0" target="_top" xlink:title=" ">
<polygon fill="white" stroke="#666666" points="833,-416.75 728.5,-416.75 728.5,-396 833,-396 833,-416.75"/>
<text text-anchor="middle" x="780.75" y="-403.25" font-family="Helvetica,sans-Serif" font-size="10.00">ImGui::DragScalar</text>
</a>
</g>
</g>
<!-- Node29&#45;&gt;Node30 -->
<g id="edge35_Node000029_Node000030" class="edge">
<title>Node29&#45;&gt;Node30</title>
<g id="a_edge35_Node000029_Node000030"><a xlink:title=" ">
<path fill="none" stroke="#63b8ff" d="M863.18,-406.38C853.04,-406.38 842.85,-406.38 833.27,-406.38"/>
<polygon fill="#63b8ff" stroke="#63b8ff" points="863.06,-409.88 873.06,-406.38 863.06,-402.88 863.06,-409.88"/>
</a>
</g>
</g>
<!-- Node44 -->
<g id="Node000044" class="node">
<title>Node44</title>
<g id="a_Node000044"><a xlink:href="namespaceImGui.html#afdd7faa9a69f75b8d674cdc207441bea" target="_top" xlink:title=" ">
<polygon fill="white" stroke="#666666" points="835.25,-98.75 726.25,-98.75 726.25,-78 835.25,-78 835.25,-98.75"/>
<text text-anchor="middle" x="780.75" y="-85.25" font-family="Helvetica,sans-Serif" font-size="10.00">ImGui::SliderScalar</text>
</a>
</g>
</g>
<!-- Node29&#45;&gt;Node44 -->
<g id="edge51_Node000029_Node000044" class="edge">
<title>Node29&#45;&gt;Node44</title>
<g id="a_edge51_Node000029_Node000044"><a xlink:title=" ">
<path fill="none" stroke="#63b8ff" d="M929.52,-385.79C899.07,-324.5 809.7,-144.63 787.03,-99"/>
<polygon fill="#63b8ff" stroke="#63b8ff" points="926.24,-387.04 933.82,-394.44 932.5,-383.93 926.24,-387.04"/>
</a>
</g>
</g>
<!-- Node31 -->
<g id="Node000031" class="node">
<title>Node31</title>
<g id="a_Node000031"><a xlink:href="namespaceImGui.html#aab1b20e7bf98aa7bbdb26f8cd3ad91e6" target="_top" xlink:title=" ">
<polygon fill="white" stroke="#666666" points="671.88,-485.75 572.62,-485.75 572.62,-465 671.88,-465 671.88,-485.75"/>
<text text-anchor="middle" x="622.25" y="-472.25" font-family="Helvetica,sans-Serif" font-size="10.00">ImGui::DragFloat</text>
</a>
</g>
</g>
<!-- Node30&#45;&gt;Node31 -->
<g id="edge36_Node000030_Node000031" class="edge">
<title>Node30&#45;&gt;Node31</title>
<g id="a_edge36_Node000030_Node000031"><a xlink:title=" ">
<path fill="none" stroke="#63b8ff" d="M745.03,-421.68C715.53,-434.69 673.93,-453.03 647.79,-464.56"/>
<polygon fill="#63b8ff" stroke="#63b8ff" points="746.17,-425 753.91,-417.77 743.35,-418.6 746.17,-425"/>
</a>
</g>
</g>
<!-- Node34 -->
<g id="Node000034" class="node">
<title>Node34</title>
<g id="a_Node000034"><a xlink:href="namespaceImGui.html#aa6bfd93ead5c47e84b66185da88b8e8c" target="_top" xlink:title=" ">
<polygon fill="white" stroke="#666666" points="690.25,-397.75 554.25,-397.75 554.25,-377 690.25,-377 690.25,-397.75"/>
<text text-anchor="middle" x="622.25" y="-384.25" font-family="Helvetica,sans-Serif" font-size="10.00">ImGui::DragFloatRange2</text>
</a>
</g>
</g>
<!-- Node30&#45;&gt;Node34 -->
<g id="edge40_Node000030_Node000034" class="edge">
<title>Node30&#45;&gt;Node34</title>
<g id="a_edge40_Node000030_Node000034"><a xlink:title=" ">
<path fill="none" stroke="#63b8ff" d="M716.86,-398.74C708.19,-397.69 699.25,-396.6 690.5,-395.54"/>
<polygon fill="#63b8ff" stroke="#63b8ff" points="716.22,-402.19 726.57,-399.92 717.06,-395.24 716.22,-402.19"/>
</a>
</g>
</g>
<!-- Node35 -->
<g id="Node000035" class="node">
<title>Node35</title>
<g id="a_Node000035"><a xlink:href="namespaceImGui.html#a3714db739ae51fc75601d7fad234a58b" target="_top" xlink:title=" ">
<polygon fill="white" stroke="#666666" points="665.88,-436.75 578.62,-436.75 578.62,-416 665.88,-416 665.88,-436.75"/>
<text text-anchor="middle" x="622.25" y="-423.25" font-family="Helvetica,sans-Serif" font-size="10.00">ImGui::DragInt</text>
</a>
</g>
</g>
<!-- Node30&#45;&gt;Node35 -->
<g id="edge41_Node000030_Node000035" class="edge">
<title>Node30&#45;&gt;Node35</title>
<g id="a_edge41_Node000030_Node000035"><a xlink:title=" ">
<path fill="none" stroke="#63b8ff" d="M717.05,-414.39C700.01,-416.57 681.94,-418.88 666.25,-420.88"/>
<polygon fill="#63b8ff" stroke="#63b8ff" points="717.1,-417.91 726.57,-413.17 716.21,-410.97 717.1,-417.91"/>
</a>
</g>
</g>
<!-- Node37 -->
<g id="Node000037" class="node">
<title>Node37</title>
<g id="a_Node000037"><a xlink:href="namespaceImGui.html#a1265d2b30ced1fca909e26c8f718fcbd" target="_top" xlink:title=" ">
<polygon fill="white" stroke="#666666" points="678.25,-310.75 566.25,-310.75 566.25,-290 678.25,-290 678.25,-310.75"/>
<text text-anchor="middle" x="622.25" y="-297.25" font-family="Helvetica,sans-Serif" font-size="10.00">ImGui::DragScalarN</text>
</a>
</g>
</g>
<!-- Node30&#45;&gt;Node37 -->
<g id="edge44_Node000030_Node000037" class="edge">
<title>Node30&#45;&gt;Node37</title>
<g id="a_edge44_Node000030_Node000037"><a xlink:title=" ">
<path fill="none" stroke="#63b8ff" d="M754.59,-389.33C722.06,-367.3 666.37,-329.58 639.16,-311.15"/>
<polygon fill="#63b8ff" stroke="#63b8ff" points="752.39,-392.07 762.63,-394.78 756.31,-386.27 752.39,-392.07"/>
</a>
</g>
</g>
<!-- Node31&#45;&gt;Node3 -->
<g id="edge37_Node000031_Node000003" class="edge">
<title>Node31&#45;&gt;Node3</title>
<g id="a_edge37_Node000031_Node000003"><a xlink:title=" ">
<path fill="none" stroke="#63b8ff" d="M561.26,-481.43C539.15,-483.67 514.36,-486.17 493.2,-488.31"/>
<polygon fill="#63b8ff" stroke="#63b8ff" points="561.44,-484.93 571.04,-480.45 560.74,-477.97 561.44,-484.93"/>
</a>
</g>
</g>
<!-- Node31&#45;&gt;Node9 -->
<g id="edge39_Node000031_Node000009" class="edge">
<title>Node31&#45;&gt;Node9</title>
<g id="a_edge39_Node000031_Node000009"><a xlink:title=" ">
<path fill="none" stroke="#63b8ff" d="M560.81,-472.8C495.08,-468.87 395.42,-459.24 365.75,-436.38 333.9,-411.83 348.87,-388.75 329.75,-353.38 308.91,-314.82 278.79,-272.35 264.65,-253.02"/>
<polygon fill="#63b8ff" stroke="#63b8ff" points="560.57,-476.29 570.75,-473.36 560.96,-469.3 560.57,-476.29"/>
</a>
</g>
</g>
<!-- Node32 -->
<g id="Node000032" class="node">
<title>Node32</title>
<g id="a_Node000032"><a xlink:href="namespaceImGui.html#ae0207d60728f7e6a47dbcd1d7d84e3cb" target="_top" xlink:title=" ">
<polygon fill="#fff0f0" stroke="red" points="506.62,-542.75 377.38,-542.75 377.38,-522 506.62,-522 506.62,-542.75"/>
<text text-anchor="middle" x="442" y="-529.25" font-family="Helvetica,sans-Serif" font-size="10.00">ImGui::DebugNodeFont</text>
</a>
</g>
</g>
<!-- Node31&#45;&gt;Node32 -->
<g id="edge38_Node000031_Node000032" class="edge">
<title>Node31&#45;&gt;Node32</title>
<g id="a_edge38_Node000031_Node000032"><a xlink:title=" ">
<path fill="none" stroke="#63b8ff" d="M582.32,-490.24C563.16,-497.34 539.63,-505.71 518.25,-512.38 507.93,-515.59 496.71,-518.76 486.16,-521.58"/>
<polygon fill="#63b8ff" stroke="#63b8ff" points="583.49,-493.54 591.63,-486.77 581.04,-486.98 583.49,-493.54"/>
</a>
</g>
</g>
<!-- Node35&#45;&gt;Node3 -->
<g id="edge42_Node000035_Node000003" class="edge">
<title>Node35&#45;&gt;Node3</title>
<g id="a_edge42_Node000035_Node000003"><a xlink:title=" ">
<path fill="none" stroke="#63b8ff" d="M581.9,-441.17C548.63,-453.67 501.75,-471.29 471.86,-482.53"/>
<polygon fill="#63b8ff" stroke="#63b8ff" points="583.07,-444.47 591.19,-437.67 580.6,-437.91 583.07,-444.47"/>
</a>
</g>
</g>
<!-- Node36 -->
<g id="Node000036" class="node">
<title>Node36</title>
<g id="a_Node000036"><a xlink:href="namespaceImGui.html#a27a0380e0480671c7cd854dd7bfc6bd1" target="_top" xlink:title=" ">
<polygon fill="white" stroke="#666666" points="504,-427.75 380,-427.75 380,-407 504,-407 504,-427.75"/>
<text text-anchor="middle" x="442" y="-414.25" font-family="Helvetica,sans-Serif" font-size="10.00">ImGui::DragIntRange2</text>
</a>
</g>
</g>
<!-- Node35&#45;&gt;Node36 -->
<g id="edge43_Node000035_Node000036" class="edge">
<title>Node35&#45;&gt;Node36</title>
<g id="a_edge43_Node000035_Node000036"><a xlink:title=" ">
<path fill="none" stroke="#63b8ff" d="M567.21,-423.65C547.33,-422.64 524.69,-421.5 504.23,-420.47"/>
<polygon fill="#63b8ff" stroke="#63b8ff" points="566.88,-427.13 577.04,-424.14 567.23,-420.14 566.88,-427.13"/>
</a>
</g>
</g>
<!-- Node38 -->
<g id="Node000038" class="node">
<title>Node38</title>
<g id="a_Node000038"><a xlink:href="namespaceImGui.html#afc9ce10d78534a5c186cee0b337f7471" target="_top" xlink:title=" ">
<polygon fill="white" stroke="#666666" points="494.62,-349.75 389.38,-349.75 389.38,-329 494.62,-329 494.62,-349.75"/>
<text text-anchor="middle" x="442" y="-336.25" font-family="Helvetica,sans-Serif" font-size="10.00">ImGui::DragFloat2</text>
</a>
</g>
</g>
<!-- Node37&#45;&gt;Node38 -->
<g id="edge45_Node000037_Node000038" class="edge">
<title>Node37&#45;&gt;Node38</title>
<g id="a_edge45_Node000037_Node000038"><a xlink:title=" ">
<path fill="none" stroke="#63b8ff" d="M560.64,-313.64C538.51,-318.48 513.76,-323.89 492.7,-328.5"/>
<polygon fill="#63b8ff" stroke="#63b8ff" points="561.1,-317.12 570.12,-311.56 559.6,-310.28 561.1,-317.12"/>
</a>
</g>
</g>
<!-- Node39 -->
<g id="Node000039" class="node">
<title>Node39</title>
<g id="a_Node000039"><a xlink:href="namespaceImGui.html#a5ffcbb0240077cf2f300960db3c0a3d7" target="_top" xlink:title=" ">
<polygon fill="white" stroke="#666666" points="494.62,-310.75 389.38,-310.75 389.38,-290 494.62,-290 494.62,-310.75"/>
<text text-anchor="middle" x="442" y="-297.25" font-family="Helvetica,sans-Serif" font-size="10.00">ImGui::DragFloat3</text>
</a>
</g>
</g>
<!-- Node37&#45;&gt;Node39 -->
<g id="edge46_Node000037_Node000039" class="edge">
<title>Node37&#45;&gt;Node39</title>
<g id="a_edge46_Node000037_Node000039"><a xlink:title=" ">
<path fill="none" stroke="#63b8ff" d="M554.47,-300.38C534.82,-300.38 513.62,-300.38 495.04,-300.38"/>
<polygon fill="#63b8ff" stroke="#63b8ff" points="554.31,-303.88 564.31,-300.38 554.31,-296.88 554.31,-303.88"/>
</a>
</g>
</g>
<!-- Node40 -->
<g id="Node000040" class="node">
<title>Node40</title>
<g id="a_Node000040"><a xlink:href="namespaceImGui.html#a43e4508fb0c6a82cf6d78a645965dd57" target="_top" xlink:title=" ">
<polygon fill="white" stroke="#666666" points="494.62,-271.75 389.38,-271.75 389.38,-251 494.62,-251 494.62,-271.75"/>
<text text-anchor="middle" x="442" y="-258.25" font-family="Helvetica,sans-Serif" font-size="10.00">ImGui::DragFloat4</text>
</a>
</g>
</g>
<!-- Node37&#45;&gt;Node40 -->
<g id="edge47_Node000037_Node000040" class="edge">
<title>Node37&#45;&gt;Node40</title>
<g id="a_edge47_Node000037_Node000040"><a xlink:title=" ">
<path fill="none" stroke="#63b8ff" d="M560.64,-287.11C538.51,-282.27 513.76,-276.86 492.7,-272.25"/>
<polygon fill="#63b8ff" stroke="#63b8ff" points="559.6,-290.47 570.12,-289.19 561.1,-283.63 559.6,-290.47"/>
</a>
</g>
</g>
<!-- Node41 -->
<g id="Node000041" class="node">
<title>Node41</title>
<g id="a_Node000041"><a xlink:href="namespaceImGui.html#a56e3ba8164b0b78b46f01a3a2f7fe00b" target="_top" xlink:title=" ">
<polygon fill="white" stroke="#666666" points="488.62,-232.75 395.38,-232.75 395.38,-212 488.62,-212 488.62,-232.75"/>
<text text-anchor="middle" x="442" y="-219.25" font-family="Helvetica,sans-Serif" font-size="10.00">ImGui::DragInt2</text>
</a>
</g>
</g>
<!-- Node37&#45;&gt;Node41 -->
<g id="edge48_Node000037_Node000041" class="edge">
<title>Node37&#45;&gt;Node41</title>
<g id="a_edge48_Node000037_Node000041"><a xlink:title=" ">
<path fill="none" stroke="#63b8ff" d="M595.68,-283.56C575.37,-270.81 545.9,-253.62 518.25,-242.38 508.98,-238.61 498.79,-235.34 488.97,-232.61"/>
<polygon fill="#63b8ff" stroke="#63b8ff" points="593.54,-286.34 603.85,-288.77 597.31,-280.44 593.54,-286.34"/>
</a>
</g>
</g>
<!-- Node42 -->
<g id="Node000042" class="node">
<title>Node42</title>
<g id="a_Node000042"><a xlink:href="namespaceImGui.html#af4be377242ba2480b28b116390af7261" target="_top" xlink:title=" ">
<polygon fill="white" stroke="#666666" points="488.62,-193.75 395.38,-193.75 395.38,-173 488.62,-173 488.62,-193.75"/>
<text text-anchor="middle" x="442" y="-180.25" font-family="Helvetica,sans-Serif" font-size="10.00">ImGui::DragInt3</text>
</a>
</g>
</g>
<!-- Node37&#45;&gt;Node42 -->
<g id="edge49_Node000037_Node000042" class="edge">
<title>Node37&#45;&gt;Node42</title>
<g id="a_edge49_Node000037_Node000042"><a xlink:title=" ">
<path fill="none" stroke="#63b8ff" d="M605.64,-280.68C587.11,-258.62 554.15,-223.34 518.25,-203.38 509.27,-198.38 498.99,-194.59 488.98,-191.73"/>
<polygon fill="#63b8ff" stroke="#63b8ff" points="602.88,-282.83 611.92,-288.35 608.29,-278.39 602.88,-282.83"/>
</a>
</g>
</g>
<!-- Node43 -->
<g id="Node000043" class="node">
<title>Node43</title>
<g id="a_Node000043"><a xlink:href="namespaceImGui.html#a5d75e4d3263272f22eb2001652397e55" target="_top" xlink:title=" ">
<polygon fill="white" stroke="#666666" points="488.62,-388.75 395.38,-388.75 395.38,-368 488.62,-368 488.62,-388.75"/>
<text text-anchor="middle" x="442" y="-375.25" font-family="Helvetica,sans-Serif" font-size="10.00">ImGui::DragInt4</text>
</a>
</g>
</g>
<!-- Node37&#45;&gt;Node43 -->
<g id="edge50_Node000037_Node000043" class="edge">
<title>Node37&#45;&gt;Node43</title>
<g id="a_edge50_Node000037_Node000043"><a xlink:title=" ">
<path fill="none" stroke="#63b8ff" d="M595.68,-317.19C575.37,-329.94 545.9,-347.13 518.25,-358.38 508.98,-362.14 498.79,-365.41 488.97,-368.14"/>
<polygon fill="#63b8ff" stroke="#63b8ff" points="597.31,-320.31 603.85,-311.98 593.54,-314.41 597.31,-320.31"/>
</a>
</g>
</g>
<!-- Node45 -->
<g id="Node000045" class="node">
<title>Node45</title>
<g id="a_Node000045"><a xlink:href="namespaceImGui.html#a864f761801792a0cc5ce3408f3392cfc" target="_top" xlink:title=" ">
<polygon fill="white" stroke="#666666" points="674.12,-117.75 570.38,-117.75 570.38,-97 674.12,-97 674.12,-117.75"/>
<text text-anchor="middle" x="622.25" y="-104.25" font-family="Helvetica,sans-Serif" font-size="10.00">ImGui::SliderFloat</text>
</a>
</g>
</g>
<!-- Node44&#45;&gt;Node45 -->
<g id="edge52_Node000044_Node000045" class="edge">
<title>Node44&#45;&gt;Node45</title>
<g id="a_edge52_Node000044_Node000045"><a xlink:title=" ">
<path fill="none" stroke="#63b8ff" d="M714.78,-96.26C701.37,-97.89 687.42,-99.58 674.57,-101.14"/>
<polygon fill="#63b8ff" stroke="#63b8ff" points="714.88,-99.78 724.39,-95.1 714.04,-92.83 714.88,-99.78"/>
</a>
</g>
</g>
<!-- Node47 -->
<g id="Node000047" class="node">
<title>Node47</title>
<g id="a_Node000047"><a xlink:href="namespaceImGui.html#a580128c9b35d1a9fc5b7a057f6f5464a" target="_top" xlink:title=" ">
<polygon fill="white" stroke="#666666" points="668.12,-20.75 576.38,-20.75 576.38,0 668.12,0 668.12,-20.75"/>
<text text-anchor="middle" x="622.25" y="-7.25" font-family="Helvetica,sans-Serif" font-size="10.00">ImGui::SliderInt</text>
</a>
</g>
</g>
<!-- Node44&#45;&gt;Node47 -->
<g id="edge56_Node000044_Node000047" class="edge">
<title>Node44&#45;&gt;Node47</title>
<g id="a_edge56_Node000044_Node000047"><a xlink:title=" ">
<path fill="none" stroke="#63b8ff" d="M747.8,-72.45C717.08,-57.14 671.48,-34.42 644.83,-21.13"/>
<polygon fill="#63b8ff" stroke="#63b8ff" points="746.12,-75.53 756.63,-76.85 749.25,-69.26 746.12,-75.53"/>
</a>
</g>
</g>
<!-- Node49 -->
<g id="Node000049" class="node">
<title>Node49</title>
<g id="a_Node000049"><a xlink:href="namespaceImGui.html#a64031a4ad000695c1e1d3f42792f4bb4" target="_top" xlink:title=" ">
<polygon fill="#fff0f0" stroke="red" points="680.5,-78.75 564,-78.75 564,-58 680.5,-58 680.5,-78.75"/>
<text text-anchor="middle" x="622.25" y="-65.25" font-family="Helvetica,sans-Serif" font-size="10.00">ImGui::SliderScalarN</text>
</a>
</g>
</g>
<!-- Node44&#45;&gt;Node49 -->
<g id="edge59_Node000044_Node000049" class="edge">
<title>Node44&#45;&gt;Node49</title>
<g id="a_edge59_Node000044_Node000049"><a xlink:title=" ">
<path fill="none" stroke="#63b8ff" d="M714.82,-80.08C703.59,-78.64 691.97,-77.16 680.95,-75.75"/>
<polygon fill="#63b8ff" stroke="#63b8ff" points="714.03,-83.5 724.39,-81.3 714.91,-76.56 714.03,-83.5"/>
</a>
</g>
</g>
<!-- Node45&#45;&gt;Node9 -->
<g id="edge53_Node000045_Node000009" class="edge">
<title>Node45&#45;&gt;Node9</title>
<g id="a_edge53_Node000045_Node000009"><a xlink:title=" ">
<path fill="none" stroke="#63b8ff" d="M558.56,-99.4C504.75,-95.37 426.5,-96.36 365.75,-125.38 315.4,-149.42 276.92,-207.84 262.71,-231.82"/>
<polygon fill="#63b8ff" stroke="#63b8ff" points="558.23,-102.89 568.48,-100.24 558.81,-95.91 558.23,-102.89"/>
</a>
</g>
</g>
<!-- Node46 -->
<g id="Node000046" class="node">
<title>Node46</title>
<g id="a_Node000046"><a xlink:href="namespaceImGui.html#acd162f7732c5c7be7b8651d7e43bb979" target="_top" xlink:title=" ">
<polygon fill="white" stroke="#666666" points="495.38,-154.75 388.62,-154.75 388.62,-134 495.38,-134 495.38,-154.75"/>
<text text-anchor="middle" x="442" y="-141.25" font-family="Helvetica,sans-Serif" font-size="10.00">ImGui::SliderAngle</text>
</a>
</g>
</g>
<!-- Node45&#45;&gt;Node46 -->
<g id="edge54_Node000045_Node000046" class="edge">
<title>Node45&#45;&gt;Node46</title>
<g id="a_edge54_Node000045_Node000046"><a xlink:title=" ">
<path fill="none" stroke="#63b8ff" d="M559.18,-120.26C538.35,-124.58 515.33,-129.36 495.33,-133.51"/>
<polygon fill="#63b8ff" stroke="#63b8ff" points="559.61,-123.74 568.69,-118.29 558.19,-116.89 559.61,-123.74"/>
</a>
</g>
</g>
<!-- Node46&#45;&gt;Node9 -->
<g id="edge55_Node000046_Node000009" class="edge">
<title>Node46&#45;&gt;Node9</title>
<g id="a_edge55_Node000046_Node000009"><a xlink:title=" ">
<path fill="none" stroke="#63b8ff" d="M379.72,-158.64C374.91,-160.37 370.2,-162.28 365.75,-164.38 327.02,-182.63 287.65,-214.94 268.58,-231.67"/>
<polygon fill="#63b8ff" stroke="#63b8ff" points="380.48,-162.08 388.88,-155.62 378.28,-155.43 380.48,-162.08"/>
</a>
</g>
</g>
<!-- Node48 -->
<g id="Node000048" class="node">
<title>Node48</title>
<g id="a_Node000048"><a xlink:href="namespaceImGui.html#a7bd295da4be19bab98262c76fcaeb4fb" target="_top" xlink:title=" ">
<polygon fill="white" stroke="#666666" points="308.75,-39.75 202.75,-39.75 202.75,-19 308.75,-19 308.75,-39.75"/>
<text text-anchor="middle" x="255.75" y="-26.25" font-family="Helvetica,sans-Serif" font-size="10.00">ImGui::LogButtons</text>
</a>
</g>
</g>
<!-- Node47&#45;&gt;Node48 -->
<g id="edge57_Node000047_Node000048" class="edge">
<title>Node47&#45;&gt;Node48</title>
<g id="a_edge57_Node000047_Node000048"><a xlink:title=" ">
<path fill="none" stroke="#63b8ff" d="M564.63,-7.58C512.78,-5.69 433.95,-4.48 365.75,-10.38 346.9,-12.01 326.42,-15.19 308.35,-18.5"/>
<polygon fill="#63b8ff" stroke="#63b8ff" points="564.28,-11.07 574.41,-7.96 564.55,-4.08 564.28,-11.07"/>
</a>
</g>
</g>
<!-- Node48&#45;&gt;Node10 -->
<g id="edge58_Node000048_Node000010" class="edge">
<title>Node48&#45;&gt;Node10</title>
<g id="a_edge58_Node000048_Node000010"><a xlink:title=" ">
<path fill="none" stroke="#63b8ff" d="M238.24,-48.82C201.1,-92.56 111.96,-197.53 83.07,-231.54"/>
<polygon fill="#63b8ff" stroke="#63b8ff" points="240.75,-51.27 244.55,-41.38 235.41,-46.74 240.75,-51.27"/>
</a>
</g>
</g>
<!-- Node50 -->
<g id="Node000050" class="node">
<title>Node50</title>
<g id="a_Node000050"><a xlink:href="namespaceImGui.html#a65ed4a55f13d467b06075c951b310c23" target="_top" xlink:title=" ">
<polygon fill="white" stroke="#666666" points="496.88,-78.75 387.12,-78.75 387.12,-58 496.88,-58 496.88,-78.75"/>
<text text-anchor="middle" x="442" y="-65.25" font-family="Helvetica,sans-Serif" font-size="10.00">ImGui::SliderFloat2</text>
</a>
</g>
</g>
<!-- Node49&#45;&gt;Node50 -->
<g id="edge60_Node000049_Node000050" class="edge">
<title>Node49&#45;&gt;Node50</title>
<g id="a_edge60_Node000049_Node000050"><a xlink:title=" ">
<path fill="none" stroke="#63b8ff" d="M552.37,-68.38C534.09,-68.38 514.62,-68.38 497.24,-68.38"/>
<polygon fill="#63b8ff" stroke="#63b8ff" points="552.36,-71.88 562.36,-68.38 552.36,-64.88 552.36,-71.88"/>
</a>
</g>
</g>
<!-- Node51 -->
<g id="Node000051" class="node">
<title>Node51</title>
<g id="a_Node000051"><a xlink:href="namespaceImGui.html#a9fb9ae936849ae17be13c9b6a0391585" target="_top" xlink:title=" ">
<polygon fill="white" stroke="#666666" points="496.88,-39.75 387.12,-39.75 387.12,-19 496.88,-19 496.88,-39.75"/>
<text text-anchor="middle" x="442" y="-26.25" font-family="Helvetica,sans-Serif" font-size="10.00">ImGui::SliderFloat3</text>
</a>
</g>
</g>
<!-- Node49&#45;&gt;Node51 -->
<g id="edge62_Node000049_Node000051" class="edge">
<title>Node49&#45;&gt;Node51</title>
<g id="a_edge62_Node000049_Node000051"><a xlink:title=" ">
<path fill="none" stroke="#63b8ff" d="M560.64,-55.11C538.51,-50.27 513.76,-44.86 492.7,-40.25"/>
<polygon fill="#63b8ff" stroke="#63b8ff" points="559.6,-58.47 570.12,-57.19 561.1,-51.63 559.6,-58.47"/>
</a>
</g>
</g>
<!-- Node50&#45;&gt;Node9 -->
<g id="edge61_Node000050_Node000009" class="edge">
<title>Node50&#45;&gt;Node9</title>
<g id="a_edge61_Node000050_Node000009"><a xlink:title=" ">
<path fill="none" stroke="#63b8ff" d="M380.97,-83.57C375.59,-86.08 370.42,-89 365.75,-92.38 311.99,-131.21 274.17,-204.67 261.45,-231.89"/>
<polygon fill="#63b8ff" stroke="#63b8ff" points="382.18,-86.86 390.08,-79.79 379.5,-80.39 382.18,-86.86"/>
</a>
</g>
</g>
</g>
</svg>
