<?xml version="1.0" encoding="UTF-8" standalone="no"?>
<!DOCTYPE svg PUBLIC "-//W3C//DTD SVG 1.1//EN"
 "http://www.w3.org/Graphics/SVG/1.1/DTD/svg11.dtd">
<!-- Generated by graphviz version 12.2.1 (20241206.2353)
 -->
<!-- Title: ImGui::RenderTextClipped Pages: 1 -->
<svg width="895pt" height="227pt"
 viewBox="0.00 0.00 895.00 227.12" xmlns="http://www.w3.org/2000/svg" xmlns:xlink="http://www.w3.org/1999/xlink">
<g id="graph0" class="graph" transform="scale(1 1) rotate(0) translate(4 223.12)">
<title>ImGui::RenderTextClipped</title>
<!-- Node1 -->
<g id="Node000001" class="node">
<title>Node1</title>
<g id="a_Node000001"><a xlink:title=" ">
<polygon fill="#999999" stroke="#666666" points="142.75,-172.12 0,-172.12 0,-151.38 142.75,-151.38 142.75,-172.12"/>
<text text-anchor="middle" x="71.38" y="-158.62" font-family="Helvetica,sans-Serif" font-size="10.00">ImGui::RenderTextClipped</text>
</a>
</g>
</g>
<!-- Node2 -->
<g id="Node000002" class="node">
<title>Node2</title>
<g id="a_Node000002"><a xlink:href="namespaceImGui.html#a7671e1dbc803a31b06081b52a771d83f" target="_top" xlink:title=" ">
<polygon fill="white" stroke="#666666" points="678.25,-219.12 522,-219.12 522,-198.38 678.25,-198.38 678.25,-219.12"/>
<text text-anchor="middle" x="600.12" y="-205.62" font-family="Helvetica,sans-Serif" font-size="10.00">ImGui::FindRenderedTextEnd</text>
</a>
</g>
</g>
<!-- Node1&#45;&gt;Node2 -->
<g id="edge1_Node000001_Node000002" class="edge">
<title>Node1&#45;&gt;Node2</title>
<g id="a_edge1_Node000001_Node000002"><a xlink:title=" ">
<path fill="none" stroke="#63b8ff" d="M96.3,-172.48C117.49,-181.4 149.51,-193.45 178.75,-198.75 291.84,-219.24 424.81,-218.31 510.45,-214.56"/>
<polygon fill="#63b8ff" stroke="#63b8ff" points="510.35,-218.07 520.18,-214.11 510.03,-211.07 510.35,-218.07"/>
</a>
</g>
</g>
<!-- Node3 -->
<g id="Node000003" class="node">
<title>Node3</title>
<g id="a_Node000003"><a xlink:href="namespaceImGui.html#a7a0d62e33f2236ec2f789e24ca0fb56f" target="_top" xlink:title=" ">
<polygon fill="white" stroke="#666666" points="323.75,-172.12 188.5,-172.12 188.5,-151.38 323.75,-151.38 323.75,-172.12"/>
<text text-anchor="middle" x="256.12" y="-158.62" font-family="Helvetica,sans-Serif" font-size="10.00">ImGui::LogRenderedText</text>
</a>
</g>
</g>
<!-- Node1&#45;&gt;Node3 -->
<g id="edge2_Node000001_Node000003" class="edge">
<title>Node1&#45;&gt;Node3</title>
<g id="a_edge2_Node000001_Node000003"><a xlink:title=" ">
<path fill="none" stroke="#63b8ff" d="M143.03,-161.75C154.18,-161.75 165.76,-161.75 177.07,-161.75"/>
<polygon fill="#63b8ff" stroke="#63b8ff" points="176.74,-165.25 186.74,-161.75 176.74,-158.25 176.74,-165.25"/>
</a>
</g>
</g>
<!-- Node6 -->
<g id="Node000006" class="node">
<title>Node6</title>
<g id="a_Node000006"><a xlink:href="namespaceImGui.html#a6ff0aaef091d39b0e2e2f6afeb647b34" target="_top" xlink:title=" ">
<polygon fill="white" stroke="#666666" points="333.5,-105.12 178.75,-105.12 178.75,-84.38 333.5,-84.38 333.5,-105.12"/>
<text text-anchor="middle" x="256.12" y="-91.62" font-family="Helvetica,sans-Serif" font-size="10.00">ImGui::RenderTextClippedEx</text>
</a>
</g>
</g>
<!-- Node1&#45;&gt;Node6 -->
<g id="edge8_Node000001_Node000006" class="edge">
<title>Node1&#45;&gt;Node6</title>
<g id="a_edge8_Node000001_Node000006"><a xlink:title=" ">
<path fill="none" stroke="#63b8ff" d="M101.74,-150.99C132.42,-139.74 180.76,-122.01 214.97,-109.47"/>
<polygon fill="#63b8ff" stroke="#63b8ff" points="215.93,-112.85 224.11,-106.12 213.52,-106.28 215.93,-112.85"/>
</a>
</g>
</g>
<!-- Node3&#45;&gt;Node2 -->
<g id="edge3_Node000003_Node000002" class="edge">
<title>Node3&#45;&gt;Node2</title>
<g id="a_edge3_Node000003_Node000002"><a xlink:title=" ">
<path fill="none" stroke="#63b8ff" d="M323.88,-170.92C377.2,-178.25 452.4,-188.59 510.72,-196.6"/>
<polygon fill="#63b8ff" stroke="#63b8ff" points="509.9,-200.02 520.28,-197.91 510.85,-193.09 509.9,-200.02"/>
</a>
</g>
</g>
<!-- Node3&#45;&gt;Node3 -->
<g id="edge4_Node000003_Node000003" class="edge">
<title>Node3&#45;&gt;Node3</title>
<g id="a_edge4_Node000003_Node000003"><a xlink:title=" ">
<path fill="none" stroke="#63b8ff" d="M228.47,-172.52C217.41,-181.18 226.63,-190.12 256.12,-190.12 272.26,-190.12 282.32,-187.45 286.32,-183.61"/>
<polygon fill="#63b8ff" stroke="#63b8ff" points="289.77,-182.96 284.12,-174 282.94,-184.53 289.77,-182.96"/>
</a>
</g>
</g>
<!-- Node4 -->
<g id="Node000004" class="node">
<title>Node4</title>
<g id="a_Node000004"><a xlink:href="namespaceImGui.html#aa548475d8f771ab6524d73d900a41198" target="_top" xlink:title=" ">
<polygon fill="white" stroke="#666666" points="472.12,-162.12 383.38,-162.12 383.38,-141.38 472.12,-141.38 472.12,-162.12"/>
<text text-anchor="middle" x="427.75" y="-148.62" font-family="Helvetica,sans-Serif" font-size="10.00">ImGui::LogText</text>
</a>
</g>
</g>
<!-- Node3&#45;&gt;Node4 -->
<g id="edge5_Node000003_Node000004" class="edge">
<title>Node3&#45;&gt;Node4</title>
<g id="a_edge5_Node000003_Node000004"><a xlink:title=" ">
<path fill="none" stroke="#63b8ff" d="M324.17,-157.8C339.96,-156.87 356.61,-155.89 371.8,-154.99"/>
<polygon fill="#63b8ff" stroke="#63b8ff" points="371.8,-158.5 381.58,-154.41 371.39,-151.51 371.8,-158.5"/>
</a>
</g>
</g>
<!-- Node5 -->
<g id="Node000005" class="node">
<title>Node5</title>
<g id="a_Node000005"><a xlink:href="namespaceImGui.html#a98df9ecc95235a208c834945c71df3a0" target="_top" xlink:title=" ">
<polygon fill="white" stroke="#666666" points="647.88,-162.12 552.38,-162.12 552.38,-141.38 647.88,-141.38 647.88,-162.12"/>
<text text-anchor="middle" x="600.12" y="-148.62" font-family="Helvetica,sans-Serif" font-size="10.00">ImGui::LogTextV</text>
</a>
</g>
</g>
<!-- Node4&#45;&gt;Node5 -->
<g id="edge6_Node000004_Node000005" class="edge">
<title>Node4&#45;&gt;Node5</title>
<g id="a_edge6_Node000004_Node000005"><a xlink:title=" ">
<path fill="none" stroke="#63b8ff" d="M472.18,-151.75C492.92,-151.75 518.04,-151.75 540.45,-151.75"/>
<polygon fill="#63b8ff" stroke="#63b8ff" points="540.37,-155.25 550.37,-151.75 540.37,-148.25 540.37,-155.25"/>
</a>
</g>
</g>
<!-- Node5&#45;&gt;Node5 -->
<g id="edge7_Node000005_Node000005" class="edge">
<title>Node5&#45;&gt;Node5</title>
<g id="a_edge7_Node000005_Node000005"><a xlink:title=" ">
<path fill="none" stroke="#63b8ff" d="M572.35,-162.52C561.24,-171.18 570.5,-180.12 600.12,-180.12 616.33,-180.12 626.44,-177.45 630.46,-173.61"/>
<polygon fill="#63b8ff" stroke="#63b8ff" points="633.9,-172.96 628.24,-164 627.08,-174.53 633.9,-172.96"/>
</a>
</g>
</g>
<!-- Node7 -->
<g id="Node000007" class="node">
<title>Node7</title>
<g id="a_Node000007"><a xlink:href="structImDrawList.html#ac5221bd86b3429f6d5b6e6ffe454942d" target="_top" xlink:title=" ">
<polygon fill="white" stroke="#666666" points="486,-66.12 369.5,-66.12 369.5,-45.38 486,-45.38 486,-66.12"/>
<text text-anchor="middle" x="427.75" y="-52.62" font-family="Helvetica,sans-Serif" font-size="10.00">ImDrawList::AddText</text>
</a>
</g>
</g>
<!-- Node6&#45;&gt;Node7 -->
<g id="edge9_Node000006_Node000007" class="edge">
<title>Node6&#45;&gt;Node7</title>
<g id="a_edge9_Node000006_Node000007"><a xlink:title=" ">
<path fill="none" stroke="#63b8ff" d="M304.38,-83.89C324.23,-79.32 347.54,-73.96 368.45,-69.15"/>
<polygon fill="#63b8ff" stroke="#63b8ff" points="369.02,-72.61 377.98,-66.96 367.45,-65.79 369.02,-72.61"/>
</a>
</g>
</g>
<!-- Node8 -->
<g id="Node000008" class="node">
<title>Node8</title>
<g id="a_Node000008"><a xlink:href="namespaceImGui.html#a848b9db6cc4a186751c0ecebcaadc33b" target="_top" xlink:title=" ">
<polygon fill="white" stroke="#666666" points="484.12,-123.12 371.38,-123.12 371.38,-102.38 484.12,-102.38 484.12,-123.12"/>
<text text-anchor="middle" x="427.75" y="-109.62" font-family="Helvetica,sans-Serif" font-size="10.00">ImGui::CalcTextSize</text>
</a>
</g>
</g>
<!-- Node6&#45;&gt;Node8 -->
<g id="edge11_Node000006_Node000008" class="edge">
<title>Node6&#45;&gt;Node8</title>
<g id="a_edge11_Node000006_Node000008"><a xlink:title=" ">
<path fill="none" stroke="#63b8ff" d="M334,-102.91C342.55,-103.82 351.22,-104.74 359.64,-105.63"/>
<polygon fill="#63b8ff" stroke="#63b8ff" points="359.13,-109.09 369.44,-106.67 359.86,-102.13 359.13,-109.09"/>
</a>
</g>
</g>
<!-- Node11 -->
<g id="Node000011" class="node">
<title>Node11</title>
<g id="a_Node000011"><a xlink:href="namespaceImGui.html#a0de2d9bd347d9866511eb8d014e62556" target="_top" xlink:title=" ">
<polygon fill="white" stroke="#666666" points="484.5,-27.12 371,-27.12 371,-6.38 484.5,-6.38 484.5,-27.12"/>
<text text-anchor="middle" x="427.75" y="-13.62" font-family="Helvetica,sans-Serif" font-size="10.00">ImGui::GetColorU32</text>
</a>
</g>
</g>
<!-- Node6&#45;&gt;Node11 -->
<g id="edge15_Node000006_Node000011" class="edge">
<title>Node6&#45;&gt;Node11</title>
<g id="a_edge15_Node000006_Node000011"><a xlink:title=" ">
<path fill="none" stroke="#63b8ff" d="M275.82,-84.07C297.81,-71.75 335.62,-51.33 369.5,-36.75 373.74,-34.92 378.21,-33.14 382.71,-31.43"/>
<polygon fill="#63b8ff" stroke="#63b8ff" points="383.54,-34.85 391.73,-28.13 381.13,-28.28 383.54,-34.85"/>
</a>
</g>
</g>
<!-- Node7&#45;&gt;Node7 -->
<g id="edge10_Node000007_Node000007" class="edge">
<title>Node7&#45;&gt;Node7</title>
<g id="a_edge10_Node000007_Node000007"><a xlink:title=" ">
<path fill="none" stroke="#63b8ff" d="M400.1,-66.52C389.03,-75.18 398.25,-84.12 427.75,-84.12 443.88,-84.12 453.95,-81.45 457.95,-77.61"/>
<polygon fill="#63b8ff" stroke="#63b8ff" points="461.39,-76.96 455.74,-68 454.57,-78.53 461.39,-76.96"/>
</a>
</g>
</g>
<!-- Node8&#45;&gt;Node2 -->
<g id="edge14_Node000008_Node000002" class="edge">
<title>Node8&#45;&gt;Node2</title>
<g id="a_edge14_Node000008_Node000002"><a xlink:title=" ">
<path fill="none" stroke="#63b8ff" d="M470.5,-123.61C476.03,-126.09 481.37,-129.1 486,-132.75 509.23,-151.07 498.03,-171.4 522,-188.75 524.17,-190.32 526.46,-191.77 528.83,-193.11"/>
<polygon fill="#63b8ff" stroke="#63b8ff" points="527.09,-196.15 537.62,-197.33 530.12,-189.85 527.09,-196.15"/>
</a>
</g>
</g>
<!-- Node9 -->
<g id="Node000009" class="node">
<title>Node9</title>
<g id="a_Node000009"><a xlink:href="structImFont.html#ad67f64fd206ad197f4b93b1a1ae27cfe" target="_top" xlink:title=" ">
<polygon fill="white" stroke="#666666" points="662.12,-123.12 538.12,-123.12 538.12,-102.38 662.12,-102.38 662.12,-123.12"/>
<text text-anchor="middle" x="600.12" y="-109.62" font-family="Helvetica,sans-Serif" font-size="10.00">ImFont::CalcTextSizeA</text>
</a>
</g>
</g>
<!-- Node8&#45;&gt;Node9 -->
<g id="edge12_Node000008_Node000009" class="edge">
<title>Node8&#45;&gt;Node9</title>
<g id="a_edge12_Node000008_Node000009"><a xlink:title=" ">
<path fill="none" stroke="#63b8ff" d="M484.54,-112.75C498.01,-112.75 512.61,-112.75 526.73,-112.75"/>
<polygon fill="#63b8ff" stroke="#63b8ff" points="526.4,-116.25 536.4,-112.75 526.4,-109.25 526.4,-116.25"/>
</a>
</g>
</g>
<!-- Node10 -->
<g id="Node000010" class="node">
<title>Node10</title>
<g id="a_Node000010"><a xlink:href="structImFont.html#a3781bb82a1ceba919cb6c98a398c7a67" target="_top" xlink:title=" ">
<polygon fill="white" stroke="#666666" points="887,-123.12 714.25,-123.12 714.25,-102.38 887,-102.38 887,-123.12"/>
<text text-anchor="middle" x="800.62" y="-109.62" font-family="Helvetica,sans-Serif" font-size="10.00">ImFont::CalcWordWrapPositionA</text>
</a>
</g>
</g>
<!-- Node9&#45;&gt;Node10 -->
<g id="edge13_Node000009_Node000010" class="edge">
<title>Node9&#45;&gt;Node10</title>
<g id="a_edge13_Node000009_Node000010"><a xlink:title=" ">
<path fill="none" stroke="#63b8ff" d="M662.57,-112.75C675.29,-112.75 688.99,-112.75 702.63,-112.75"/>
<polygon fill="#63b8ff" stroke="#63b8ff" points="702.53,-116.25 712.53,-112.75 702.53,-109.25 702.53,-116.25"/>
</a>
</g>
</g>
<!-- Node12 -->
<g id="Node000012" class="node">
<title>Node12</title>
<g id="a_Node000012"><a xlink:href="namespaceImGui.html#abe2691de0b1a71c774ab24cc91564a94" target="_top" xlink:title=" ">
<polygon fill="white" stroke="#666666" points="673,-33.5 527.25,-33.5 527.25,0 673,0 673,-33.5"/>
<text text-anchor="start" x="535.25" y="-20" font-family="Helvetica,sans-Serif" font-size="10.00">ImGui::ColorConvertFloat4</text>
<text text-anchor="middle" x="600.12" y="-7.25" font-family="Helvetica,sans-Serif" font-size="10.00">ToU32</text>
</a>
</g>
</g>
<!-- Node11&#45;&gt;Node12 -->
<g id="edge16_Node000011_Node000012" class="edge">
<title>Node11&#45;&gt;Node12</title>
<g id="a_edge16_Node000011_Node000012"><a xlink:title=" ">
<path fill="none" stroke="#63b8ff" d="M484.54,-16.75C494.44,-16.75 504.95,-16.75 515.44,-16.75"/>
<polygon fill="#63b8ff" stroke="#63b8ff" points="515.25,-20.25 525.25,-16.75 515.25,-13.25 515.25,-20.25"/>
</a>
</g>
</g>
</g>
</svg>
