<?xml version="1.0" encoding="UTF-8" standalone="no"?>
<!DOCTYPE svg PUBLIC "-//W3C//DTD SVG 1.1//EN"
 "http://www.w3.org/Graphics/SVG/1.1/DTD/svg11.dtd">
<!-- Generated by graphviz version 2.43.0 (0)
 -->
<!-- Title: steppable::__internals::arithmetic::getQuotientRemainder Pages: 1 -->
<svg width="1026pt" height="352pt"
 viewBox="0.00 0.00 1026.00 352.25" xmlns="http://www.w3.org/2000/svg" xmlns:xlink="http://www.w3.org/1999/xlink">
<g id="graph0" class="graph" transform="scale(1 1) rotate(0) translate(4 348.25)">
<title>steppable::__internals::arithmetic::getQuotientRemainder</title>
<!-- Node1 -->
<g id="node1" class="node">
<title>Node1</title>
<g id="a_node1"><a xlink:title=" ">
<polygon fill="#bfbfbf" stroke="black" points="828,-80 828,-110 1018,-110 1018,-80 828,-80"/>
<text text-anchor="start" x="836" y="-98" font-family="Helvetica,sans-Serif" font-size="10.00">steppable::__internals</text>
<text text-anchor="middle" x="923" y="-87" font-family="Helvetica,sans-Serif" font-size="10.00">::arithmetic::getQuotientRemainder</text>
</a>
</g>
</g>
<!-- Node2 -->
<g id="node2" class="node">
<title>Node2</title>
<g id="a_node2"><a xlink:href="namespacesteppable_1_1____internals_1_1arithmetic.html#a26194ae8ddb44afb942fbf8335ae1730" target="_top" xlink:title="Divides a string representation of a number by another string representation of a number.">
<polygon fill="none" stroke="black" points="668,-121 668,-151 792,-151 792,-121 668,-121"/>
<text text-anchor="start" x="676" y="-139" font-family="Helvetica,sans-Serif" font-size="10.00">steppable::__internals</text>
<text text-anchor="middle" x="730" y="-128" font-family="Helvetica,sans-Serif" font-size="10.00">::arithmetic::divide</text>
</a>
</g>
</g>
<!-- Node1&#45;&gt;Node2 -->
<g id="edge1" class="edge">
<title>Node1&#45;&gt;Node2</title>
<path fill="none" stroke="midnightblue" d="M841.74,-112.23C825.17,-115.79 807.97,-119.48 792.21,-122.86"/>
<polygon fill="midnightblue" stroke="midnightblue" points="842.92,-115.55 851.96,-110.03 841.45,-108.71 842.92,-115.55"/>
</g>
<!-- Node18 -->
<g id="node18" class="node">
<title>Node18</title>
<g id="a_node18"><a xlink:href="namespacesteppable_1_1____internals_1_1arithmetic.html#a7ff9976bf48df9c832d7489e88004813" target="_top" xlink:title="Gets the greatest common divisor of two string representations of numbers.">
<polygon fill="none" stroke="black" points="668,-39 668,-69 792,-69 792,-39 668,-39"/>
<text text-anchor="start" x="676" y="-57" font-family="Helvetica,sans-Serif" font-size="10.00">steppable::__internals</text>
<text text-anchor="middle" x="730" y="-46" font-family="Helvetica,sans-Serif" font-size="10.00">::arithmetic::getGCD</text>
</a>
</g>
</g>
<!-- Node1&#45;&gt;Node18 -->
<g id="edge20" class="edge">
<title>Node1&#45;&gt;Node18</title>
<path fill="none" stroke="midnightblue" d="M841.74,-77.77C825.17,-74.21 807.97,-70.52 792.21,-67.14"/>
<polygon fill="midnightblue" stroke="midnightblue" points="841.45,-81.29 851.96,-79.97 842.92,-74.45 841.45,-81.29"/>
</g>
<!-- Node3 -->
<g id="node3" class="node">
<title>Node3</title>
<g id="a_node3"><a xlink:href="namespacesteppable_1_1____internals_1_1arithmetic.html#a7e727b70fed2eba6324a6e41d1a1fe03" target="_top" xlink:title=" ">
<polygon fill="none" stroke="black" points="475.5,-214 475.5,-244 615.5,-244 615.5,-214 475.5,-214"/>
<text text-anchor="start" x="483.5" y="-232" font-family="Helvetica,sans-Serif" font-size="10.00">steppable::__internals</text>
<text text-anchor="middle" x="545.5" y="-221" font-family="Helvetica,sans-Serif" font-size="10.00">::arithmetic::baseConvert</text>
</a>
</g>
</g>
<!-- Node2&#45;&gt;Node3 -->
<g id="edge2" class="edge">
<title>Node2&#45;&gt;Node3</title>
<path fill="none" stroke="midnightblue" d="M703.83,-157.62C685.09,-172.74 658.31,-192.42 632,-205 625.05,-208.33 617.55,-211.27 609.98,-213.85"/>
<polygon fill="midnightblue" stroke="midnightblue" points="706.08,-160.29 711.59,-151.24 701.64,-154.88 706.08,-160.29"/>
</g>
<!-- Node5 -->
<g id="node5" class="node">
<title>Node5</title>
<g id="a_node5"><a xlink:href="namespacesteppable_1_1____internals_1_1arithmetic.html#ac9102075acd398b3bdf388f6cc2ef978" target="_top" xlink:title=" ">
<polygon fill="none" stroke="black" points="459,-263 459,-293 632,-293 632,-263 459,-263"/>
<text text-anchor="start" x="467" y="-281" font-family="Helvetica,sans-Serif" font-size="10.00">steppable::__internals</text>
<text text-anchor="middle" x="545.5" y="-270" font-family="Helvetica,sans-Serif" font-size="10.00">::arithmetic::divideWithQuotient</text>
</a>
</g>
</g>
<!-- Node2&#45;&gt;Node5 -->
<g id="edge4" class="edge">
<title>Node2&#45;&gt;Node5</title>
<path fill="none" stroke="midnightblue" d="M715.51,-159.96C699.17,-186.81 669.15,-229.76 632,-254 626.71,-257.45 620.92,-260.42 614.92,-262.96"/>
<polygon fill="midnightblue" stroke="midnightblue" points="718.62,-161.58 720.71,-151.19 712.6,-158.01 718.62,-161.58"/>
</g>
<!-- Node7 -->
<g id="node7" class="node">
<title>Node7</title>
<g id="a_node7"><a xlink:href="bindings_8cpp.html#a666bdddd9974c5edbfc711175806eccd" target="_top" xlink:title=" ">
<polygon fill="none" stroke="black" points="113.5,-274.5 113.5,-293.5 226.5,-293.5 226.5,-274.5 113.5,-274.5"/>
<text text-anchor="middle" x="170" y="-281.5" font-family="Helvetica,sans-Serif" font-size="10.00">PYBIND11_MODULE</text>
</a>
</g>
</g>
<!-- Node2&#45;&gt;Node7 -->
<g id="edge9" class="edge">
<title>Node2&#45;&gt;Node7</title>
<path fill="none" stroke="midnightblue" d="M722.94,-161.07C712.11,-199.63 685.39,-272.27 632,-303 485.86,-387.12 268.36,-320.05 195.66,-293.56"/>
<polygon fill="midnightblue" stroke="midnightblue" points="726.39,-161.72 725.58,-151.16 719.62,-159.92 726.39,-161.72"/>
</g>
<!-- Node8 -->
<g id="node8" class="node">
<title>Node8</title>
<g id="a_node8"><a xlink:href="division_8cpp.html#a065a3ee9a7ec43a06ab2fddbc3019a17" target="_top" xlink:title=" ">
<polygon fill="none" stroke="black" points="525,-0.5 525,-19.5 566,-19.5 566,-0.5 525,-0.5"/>
<text text-anchor="middle" x="545.5" y="-7.5" font-family="Helvetica,sans-Serif" font-size="10.00">main</text>
</a>
</g>
</g>
<!-- Node2&#45;&gt;Node8 -->
<g id="edge7" class="edge">
<title>Node2&#45;&gt;Node8</title>
<path fill="none" stroke="midnightblue" d="M703.85,-113.95C692.44,-103.5 679.07,-90.56 668,-78 650.14,-57.72 654.63,-43.76 632,-29 612.13,-16.04 584.73,-11.82 566.35,-10.5"/>
<polygon fill="midnightblue" stroke="midnightblue" points="701.61,-116.65 711.38,-120.76 706.31,-111.46 701.61,-116.65"/>
</g>
<!-- Node9 -->
<g id="node9" class="node">
<title>Node9</title>
<g id="a_node9"><a xlink:href="classsteppable_1_1Number.html#aa66cc95056779a87d04caaf621b662bb" target="_top" xlink:title="Divides two numbers.">
<polygon fill="none" stroke="black" points="487.5,-165 487.5,-195 603.5,-195 603.5,-165 487.5,-165"/>
<text text-anchor="start" x="495.5" y="-183" font-family="Helvetica,sans-Serif" font-size="10.00">steppable::Number::</text>
<text text-anchor="middle" x="545.5" y="-172" font-family="Helvetica,sans-Serif" font-size="10.00">operator/</text>
</a>
</g>
</g>
<!-- Node2&#45;&gt;Node9 -->
<g id="edge8" class="edge">
<title>Node2&#45;&gt;Node9</title>
<path fill="none" stroke="midnightblue" d="M658.11,-153.09C640.11,-157.43 620.99,-162.04 603.76,-166.19"/>
<polygon fill="midnightblue" stroke="midnightblue" points="659.08,-156.46 667.98,-150.71 657.43,-149.65 659.08,-156.46"/>
</g>
<!-- Node10 -->
<g id="node10" class="node">
<title>Node10</title>
<g id="a_node10"><a xlink:href="powerReport_8cpp.html#afff5f8aa771cf432836ef03f6f442dae" target="_top" xlink:title="Reports a power operation.">
<polygon fill="none" stroke="black" points="507.5,-126.5 507.5,-145.5 583.5,-145.5 583.5,-126.5 507.5,-126.5"/>
<text text-anchor="middle" x="545.5" y="-133.5" font-family="Helvetica,sans-Serif" font-size="10.00">reportPower</text>
</a>
</g>
</g>
<!-- Node2&#45;&gt;Node10 -->
<g id="edge10" class="edge">
<title>Node2&#45;&gt;Node10</title>
<path fill="none" stroke="midnightblue" d="M657.65,-136C632.31,-136 604.81,-136 583.51,-136"/>
<polygon fill="midnightblue" stroke="midnightblue" points="657.98,-139.5 667.98,-136 657.98,-132.5 657.98,-139.5"/>
</g>
<!-- Node17 -->
<g id="node17" class="node">
<title>Node17</title>
<g id="a_node17"><a xlink:href="classsteppable_1_1Fraction.html#a9cf64d847c268d9334775c572ef75dfa" target="_top" xlink:title="Simplifies a fraction. This function simplifies the fraction by dividing the top and bottom component...">
<polygon fill="none" stroke="black" points="490.5,-39 490.5,-69 600.5,-69 600.5,-39 490.5,-39"/>
<text text-anchor="start" x="498.5" y="-57" font-family="Helvetica,sans-Serif" font-size="10.00">steppable::Fraction</text>
<text text-anchor="middle" x="545.5" y="-46" font-family="Helvetica,sans-Serif" font-size="10.00">::simplify</text>
</a>
</g>
</g>
<!-- Node2&#45;&gt;Node17 -->
<g id="edge19" class="edge">
<title>Node2&#45;&gt;Node17</title>
<path fill="none" stroke="midnightblue" d="M694.78,-115.98C676.49,-105.71 653.39,-93.42 632,-84 619.76,-78.61 606.23,-73.49 593.6,-69.06"/>
<polygon fill="midnightblue" stroke="midnightblue" points="693.18,-119.1 703.6,-120.99 696.63,-113.01 693.18,-119.1"/>
</g>
<!-- Node4 -->
<g id="node4" class="node">
<title>Node4</title>
<g id="a_node4"><a xlink:href="baseConvert_8cpp.html#ae66f6b31b5ad750f1fe042a706a4e3d4" target="_top" xlink:title=" ">
<polygon fill="none" stroke="black" points="340.5,-186.5 340.5,-205.5 381.5,-205.5 381.5,-186.5 340.5,-186.5"/>
<text text-anchor="middle" x="361" y="-193.5" font-family="Helvetica,sans-Serif" font-size="10.00">main</text>
</a>
</g>
</g>
<!-- Node3&#45;&gt;Node4 -->
<g id="edge3" class="edge">
<title>Node3&#45;&gt;Node4</title>
<path fill="none" stroke="midnightblue" d="M465.33,-214.69C434.55,-209.12 401.91,-203.22 381.74,-199.57"/>
<polygon fill="midnightblue" stroke="midnightblue" points="464.78,-218.14 475.24,-216.48 466.03,-211.25 464.78,-218.14"/>
</g>
<!-- Node6 -->
<g id="node6" class="node">
<title>Node6</title>
<g id="a_node6"><a xlink:href="classsteppable_1_1Number.html#a6e98fb3dedfd70f3956e9d299733a58d" target="_top" xlink:title="Calculates the remainder of two numbers. (Modulus)">
<polygon fill="none" stroke="black" points="303,-225 303,-255 419,-255 419,-225 303,-225"/>
<text text-anchor="start" x="311" y="-243" font-family="Helvetica,sans-Serif" font-size="10.00">steppable::Number::</text>
<text text-anchor="middle" x="361" y="-232" font-family="Helvetica,sans-Serif" font-size="10.00">operator%</text>
</a>
</g>
</g>
<!-- Node5&#45;&gt;Node6 -->
<g id="edge5" class="edge">
<title>Node5&#45;&gt;Node6</title>
<path fill="none" stroke="midnightblue" d="M462.36,-260.9C447.81,-257.87 432.95,-254.77 419.27,-251.92"/>
<polygon fill="midnightblue" stroke="midnightblue" points="461.87,-264.37 472.37,-262.98 463.29,-257.52 461.87,-264.37"/>
</g>
<!-- Node5&#45;&gt;Node7 -->
<g id="edge6" class="edge">
<title>Node5&#45;&gt;Node7</title>
<path fill="none" stroke="midnightblue" d="M448.61,-279.54C378.29,-280.67 285.24,-282.16 226.75,-283.1"/>
<polygon fill="midnightblue" stroke="midnightblue" points="448.87,-283.04 458.81,-279.38 448.76,-276.04 448.87,-283.04"/>
</g>
<!-- Node11 -->
<g id="node11" class="node">
<title>Node11</title>
<g id="a_node11"><a xlink:href="namespacesteppable_1_1____internals_1_1arithmetic.html#a50acfa1ad06ce385943ddd207146c9e0" target="_top" xlink:title="Raises a string representation of a number to a power.">
<polygon fill="none" stroke="black" points="299,-134 299,-164 423,-164 423,-134 299,-134"/>
<text text-anchor="start" x="307" y="-152" font-family="Helvetica,sans-Serif" font-size="10.00">steppable::__internals</text>
<text text-anchor="middle" x="361" y="-141" font-family="Helvetica,sans-Serif" font-size="10.00">::arithmetic::power</text>
</a>
</g>
</g>
<!-- Node10&#45;&gt;Node11 -->
<g id="edge11" class="edge">
<title>Node10&#45;&gt;Node11</title>
<path fill="none" stroke="midnightblue" d="M497.1,-139.38C474.49,-140.99 447.17,-142.93 423.03,-144.65"/>
<polygon fill="midnightblue" stroke="midnightblue" points="497.4,-142.86 507.13,-138.66 496.9,-135.88 497.4,-142.86"/>
</g>
<!-- Node11&#45;&gt;Node7 -->
<g id="edge18" class="edge">
<title>Node11&#45;&gt;Node7</title>
<path fill="none" stroke="midnightblue" d="M307.74,-169.61C304.6,-171.85 301.65,-174.31 299,-177 271.09,-205.38 293.15,-233.02 263,-259 252.84,-267.75 239.9,-273.47 226.96,-277.19"/>
<polygon fill="midnightblue" stroke="midnightblue" points="309.8,-172.45 316.42,-164.17 306.08,-166.52 309.8,-172.45"/>
</g>
<!-- Node12 -->
<g id="node12" class="node">
<title>Node12</title>
<g id="a_node12"><a xlink:href="namespacesteppable_1_1____internals_1_1arithmetic.html#afc4c4f319dadbb5b1ff481132f008374" target="_top" xlink:title="Converts a string representation of a number from one base to another.">
<polygon fill="none" stroke="black" points="92,-132 92,-162 248,-162 248,-132 92,-132"/>
<text text-anchor="start" x="100" y="-150" font-family="Helvetica,sans-Serif" font-size="10.00">steppable::__internals</text>
<text text-anchor="middle" x="170" y="-139" font-family="Helvetica,sans-Serif" font-size="10.00">::arithmetic::decimalConvert</text>
</a>
</g>
</g>
<!-- Node11&#45;&gt;Node12 -->
<g id="edge12" class="edge">
<title>Node11&#45;&gt;Node12</title>
<path fill="none" stroke="midnightblue" d="M288.87,-148.25C275.57,-148.11 261.61,-147.96 248.14,-147.82"/>
<polygon fill="midnightblue" stroke="midnightblue" points="288.86,-151.75 298.9,-148.35 288.94,-144.75 288.86,-151.75"/>
</g>
<!-- Node14 -->
<g id="node14" class="node">
<title>Node14</title>
<g id="a_node14"><a xlink:href="namespacesteppable_1_1____internals_1_1arithmetic.html#aa150ef39a272f7228ae239679247fab3" target="_top" xlink:title="Determines the scale of the quotient of division.">
<polygon fill="none" stroke="black" points="77,-83 77,-113 263,-113 263,-83 77,-83"/>
<text text-anchor="start" x="85" y="-101" font-family="Helvetica,sans-Serif" font-size="10.00">steppable::__internals</text>
<text text-anchor="middle" x="170" y="-90" font-family="Helvetica,sans-Serif" font-size="10.00">::arithmetic::determineResultScale</text>
</a>
</g>
</g>
<!-- Node11&#45;&gt;Node14 -->
<g id="edge14" class="edge">
<title>Node11&#45;&gt;Node14</title>
<path fill="none" stroke="midnightblue" d="M296.89,-131.27C285.61,-128.15 273.97,-124.96 263,-122 252.16,-119.08 240.59,-116.02 229.44,-113.09"/>
<polygon fill="midnightblue" stroke="midnightblue" points="296.11,-134.69 306.68,-133.99 297.98,-127.94 296.11,-134.69"/>
</g>
<!-- Node15 -->
<g id="node15" class="node">
<title>Node15</title>
<g id="a_node15"><a xlink:href="power_8cpp.html#a065a3ee9a7ec43a06ab2fddbc3019a17" target="_top" xlink:title=" ">
<polygon fill="none" stroke="black" points="149.5,-230.5 149.5,-249.5 190.5,-249.5 190.5,-230.5 149.5,-230.5"/>
<text text-anchor="middle" x="170" y="-237.5" font-family="Helvetica,sans-Serif" font-size="10.00">main</text>
</a>
</g>
</g>
<!-- Node11&#45;&gt;Node15 -->
<g id="edge16" class="edge">
<title>Node11&#45;&gt;Node15</title>
<path fill="none" stroke="midnightblue" d="M311.18,-168.9C306.91,-171.38 302.78,-174.08 299,-177 279,-192.45 284.61,-207.91 263,-221 240.68,-234.51 210.32,-238.56 190.69,-239.69"/>
<polygon fill="midnightblue" stroke="midnightblue" points="312.93,-171.94 320.09,-164.13 309.62,-165.77 312.93,-171.94"/>
</g>
<!-- Node16 -->
<g id="node16" class="node">
<title>Node16</title>
<g id="a_node16"><a xlink:href="classsteppable_1_1Number.html#aed9d4c238a2876ca951187b6f6173fd9" target="_top" xlink:title="Raises the number to a power.">
<polygon fill="none" stroke="black" points="112,-181 112,-211 228,-211 228,-181 112,-181"/>
<text text-anchor="start" x="120" y="-199" font-family="Helvetica,sans-Serif" font-size="10.00">steppable::Number::</text>
<text text-anchor="middle" x="170" y="-188" font-family="Helvetica,sans-Serif" font-size="10.00">operator^</text>
</a>
</g>
</g>
<!-- Node11&#45;&gt;Node16 -->
<g id="edge17" class="edge">
<title>Node11&#45;&gt;Node16</title>
<path fill="none" stroke="midnightblue" d="M289.85,-166.44C269.53,-171.5 247.6,-176.95 228.18,-181.78"/>
<polygon fill="midnightblue" stroke="midnightblue" points="290.82,-169.81 299.68,-164 289.13,-163.02 290.82,-169.81"/>
</g>
<!-- Node13 -->
<g id="node13" class="node">
<title>Node13</title>
<g id="a_node13"><a xlink:href="decimalConvert_8cpp.html#ac2c7bcd6d73ca32ee42312d0fa0b1aa9" target="_top" xlink:title=" ">
<polygon fill="none" stroke="black" points="0,-137.5 0,-156.5 41,-156.5 41,-137.5 0,-137.5"/>
<text text-anchor="middle" x="20.5" y="-144.5" font-family="Helvetica,sans-Serif" font-size="10.00">main</text>
</a>
</g>
</g>
<!-- Node12&#45;&gt;Node13 -->
<g id="edge13" class="edge">
<title>Node12&#45;&gt;Node13</title>
<path fill="none" stroke="midnightblue" d="M81.71,-147C66.49,-147 52.07,-147 41.15,-147"/>
<polygon fill="midnightblue" stroke="midnightblue" points="81.79,-150.5 91.79,-147 81.79,-143.5 81.79,-150.5"/>
</g>
<!-- Node14&#45;&gt;Node2 -->
<g id="edge15" class="edge">
<title>Node14&#45;&gt;Node2</title>
<path fill="none" stroke="midnightblue" d="M273.21,-97.76C366.86,-98.6 509.19,-102.53 632,-117 643.67,-118.38 656.05,-120.38 667.91,-122.57"/>
<polygon fill="midnightblue" stroke="midnightblue" points="273.19,-94.26 263.17,-97.68 273.14,-101.26 273.19,-94.26"/>
</g>
<!-- Node18&#45;&gt;Node8 -->
<g id="edge21" class="edge">
<title>Node18&#45;&gt;Node8</title>
<path fill="none" stroke="midnightblue" d="M661.96,-36.41C651.93,-33.87 641.7,-31.33 632,-29 609.52,-23.61 583.6,-17.92 566.24,-14.19"/>
<polygon fill="midnightblue" stroke="midnightblue" points="661.33,-39.86 671.89,-38.94 663.06,-33.08 661.33,-39.86"/>
</g>
<!-- Node18&#45;&gt;Node17 -->
<g id="edge22" class="edge">
<title>Node18&#45;&gt;Node17</title>
<path fill="none" stroke="midnightblue" d="M657.87,-54C638.87,-54 618.65,-54 600.72,-54"/>
<polygon fill="midnightblue" stroke="midnightblue" points="657.98,-57.5 667.98,-54 657.98,-50.5 657.98,-57.5"/>
</g>
</g>
</svg>
