<?xml version="1.0" encoding="UTF-8" standalone="no"?>
<!DOCTYPE svg PUBLIC "-//W3C//DTD SVG 1.1//EN"
 "http://www.w3.org/Graphics/SVG/1.1/DTD/svg11.dtd">
<!-- Generated by graphviz version 2.43.0 (0)
 -->
<!-- Title: steppable::__internals::numUtils::moveDecimalPlaces Pages: 1 -->
<svg width="1294pt" height="282pt"
 viewBox="0.00 0.00 1294.00 282.10" xmlns="http://www.w3.org/2000/svg" xmlns:xlink="http://www.w3.org/1999/xlink">
<g id="graph0" class="graph" transform="scale(1 1) rotate(0) translate(4 278.1)">
<title>steppable::__internals::numUtils::moveDecimalPlaces</title>
<!-- Node1 -->
<g id="node1" class="node">
<title>Node1</title>
<g id="a_node1"><a xlink:title="Move the decimal places of a number.">
<polygon fill="#bfbfbf" stroke="black" points="0,-80.5 0,-110.5 173,-110.5 173,-80.5 0,-80.5"/>
<text text-anchor="start" x="8" y="-98.5" font-family="Helvetica,sans-Serif" font-size="10.00">steppable::__internals</text>
<text text-anchor="middle" x="86.5" y="-87.5" font-family="Helvetica,sans-Serif" font-size="10.00">::numUtils::moveDecimalPlaces</text>
</a>
</g>
</g>
<!-- Node2 -->
<g id="node2" class="node">
<title>Node2</title>
<g id="a_node2"><a xlink:href="namespacesteppable_1_1____internals_1_1arithmetic.html#a37bfff2d022f3dd5e5a15e800ecfd5d6" target="_top" xlink:title="Calculates the absolute value of a string representation of a number.">
<polygon fill="none" stroke="black" points="209,-58.5 209,-88.5 333,-88.5 333,-58.5 209,-58.5"/>
<text text-anchor="start" x="217" y="-76.5" font-family="Helvetica,sans-Serif" font-size="10.00">steppable::__internals</text>
<text text-anchor="middle" x="271" y="-65.5" font-family="Helvetica,sans-Serif" font-size="10.00">::arithmetic::abs</text>
</a>
</g>
</g>
<!-- Node1&#45;&gt;Node2 -->
<g id="edge1" class="edge">
<title>Node1&#45;&gt;Node2</title>
<path fill="none" stroke="midnightblue" d="M173.14,-85.18C181.7,-84.14 190.32,-83.1 198.71,-82.09"/>
<polygon fill="midnightblue" stroke="midnightblue" points="199.3,-85.55 208.81,-80.88 198.46,-78.6 199.3,-85.55"/>
</g>
<!-- Node4 -->
<g id="node4" class="node">
<title>Node4</title>
<g id="a_node4"><a xlink:href="namespacesteppable_1_1____internals_1_1numUtils.html#a97316c4c4bc4640d519cec4841c7b0e9" target="_top" xlink:title="Standardizes a number string.">
<polygon fill="none" stroke="black" points="529,-14.5 529,-44.5 698,-44.5 698,-14.5 529,-14.5"/>
<text text-anchor="start" x="537" y="-32.5" font-family="Helvetica,sans-Serif" font-size="10.00">steppable::__internals</text>
<text text-anchor="middle" x="613.5" y="-21.5" font-family="Helvetica,sans-Serif" font-size="10.00">::numUtils::standardizeNumber</text>
</a>
</g>
</g>
<!-- Node1&#45;&gt;Node4 -->
<g id="edge17" class="edge">
<title>Node1&#45;&gt;Node4</title>
<path fill="none" stroke="midnightblue" d="M118.12,-80.48C142.2,-69.45 176.91,-55.27 209,-48.5 313.4,-26.46 436.24,-23.9 518.72,-25.46"/>
<polygon fill="midnightblue" stroke="midnightblue" points="518.75,-28.96 528.82,-25.68 518.9,-21.96 518.75,-28.96"/>
</g>
<!-- Node8 -->
<g id="node8" class="node">
<title>Node8</title>
<g id="a_node8"><a xlink:href="namespacesteppable_1_1____internals_1_1numUtils.html#acc0d8c2dcee479d9b8c4b5b4585c70d8" target="_top" xlink:title="Determines whether the number is an integer or not.">
<polygon fill="none" stroke="black" points="369,-146.5 369,-176.5 493,-176.5 493,-146.5 369,-146.5"/>
<text text-anchor="start" x="377" y="-164.5" font-family="Helvetica,sans-Serif" font-size="10.00">steppable::__internals</text>
<text text-anchor="middle" x="431" y="-153.5" font-family="Helvetica,sans-Serif" font-size="10.00">::numUtils::isInteger</text>
</a>
</g>
</g>
<!-- Node1&#45;&gt;Node8 -->
<g id="edge7" class="edge">
<title>Node1&#45;&gt;Node8</title>
<path fill="none" stroke="midnightblue" d="M132.37,-110.58C155.11,-117.77 183.3,-125.98 209,-131.5 258.42,-142.11 314.9,-149.7 358.39,-154.59"/>
<polygon fill="midnightblue" stroke="midnightblue" points="358.27,-158.1 368.59,-155.72 359.03,-151.14 358.27,-158.1"/>
</g>
<!-- Node9 -->
<g id="node9" class="node">
<title>Node9</title>
<g id="a_node9"><a xlink:href="namespacesteppable_1_1____internals_1_1numUtils.html#ad13b8651b0d069d596f7e25f78a8b4ed" target="_top" xlink:title=" ">
<polygon fill="none" stroke="black" points="547,-115.5 547,-145.5 680,-145.5 680,-115.5 547,-115.5"/>
<text text-anchor="start" x="555" y="-133.5" font-family="Helvetica,sans-Serif" font-size="10.00">steppable::__internals</text>
<text text-anchor="middle" x="613.5" y="-122.5" font-family="Helvetica,sans-Serif" font-size="10.00">::numUtils::splitNumber</text>
</a>
</g>
</g>
<!-- Node1&#45;&gt;Node9 -->
<g id="edge16" class="edge">
<title>Node1&#45;&gt;Node9</title>
<path fill="none" stroke="midnightblue" d="M173.02,-101.2C273.94,-107.93 440.2,-119.01 536.69,-125.45"/>
<polygon fill="midnightblue" stroke="midnightblue" points="536.74,-128.96 546.95,-126.13 537.21,-121.97 536.74,-128.96"/>
</g>
<!-- Node3 -->
<g id="node3" class="node">
<title>Node3</title>
<g id="a_node3"><a xlink:href="absReport_8cpp.html#a7e44e3e84696a88d84e6d9e3331ea6a3" target="_top" xlink:title="Reports the absolute value of a number string to the user.">
<polygon fill="none" stroke="black" points="399,-61 399,-80 463,-80 463,-61 399,-61"/>
<text text-anchor="middle" x="431" y="-68" font-family="Helvetica,sans-Serif" font-size="10.00">reportAbs</text>
</a>
</g>
</g>
<!-- Node2&#45;&gt;Node3 -->
<g id="edge2" class="edge">
<title>Node2&#45;&gt;Node3</title>
<path fill="none" stroke="midnightblue" d="M333.09,-72.34C351.64,-71.99 371.59,-71.61 388.53,-71.29"/>
<polygon fill="midnightblue" stroke="midnightblue" points="388.72,-74.78 398.65,-71.1 388.59,-67.79 388.72,-74.78"/>
</g>
<!-- Node3&#45;&gt;Node4 -->
<g id="edge3" class="edge">
<title>Node3&#45;&gt;Node4</title>
<path fill="none" stroke="midnightblue" d="M463.03,-63.45C483.32,-58.84 510.76,-52.61 536.59,-46.74"/>
<polygon fill="midnightblue" stroke="midnightblue" points="537.41,-50.15 546.39,-44.52 535.86,-43.32 537.41,-50.15"/>
</g>
<!-- Node5 -->
<g id="node5" class="node">
<title>Node5</title>
<g id="a_node5"><a xlink:href="namespacesteppable_1_1____internals_1_1numUtils.html#a32fc3a968fc9629ed8616c539e840472" target="_top" xlink:title="Simplifies a string with non&#45;standard polarity (e.g., –1, —1, etc.).">
<polygon fill="none" stroke="black" points="747.5,-0.5 747.5,-30.5 896.5,-30.5 896.5,-0.5 747.5,-0.5"/>
<text text-anchor="start" x="755.5" y="-18.5" font-family="Helvetica,sans-Serif" font-size="10.00">steppable::__internals</text>
<text text-anchor="middle" x="822" y="-7.5" font-family="Helvetica,sans-Serif" font-size="10.00">::numUtils::simplifyPolarity</text>
</a>
</g>
</g>
<!-- Node4&#45;&gt;Node5 -->
<g id="edge4" class="edge">
<title>Node4&#45;&gt;Node5</title>
<path fill="none" stroke="midnightblue" d="M698.19,-23.83C711.07,-22.95 724.37,-22.05 737.26,-21.18"/>
<polygon fill="midnightblue" stroke="midnightblue" points="737.74,-24.65 747.48,-20.48 737.27,-17.67 737.74,-24.65"/>
</g>
<!-- Node6 -->
<g id="node6" class="node">
<title>Node6</title>
<g id="a_node6"><a xlink:href="namespacesteppable_1_1____internals_1_1numUtils.html#a5e6d1c6139edf65f76c0bd6aeba82066" target="_top" xlink:title="Simplifies a string that represents a number with non&#45;standard polarity.">
<polygon fill="none" stroke="black" points="946,-93.5 946,-123.5 1118,-123.5 1118,-93.5 946,-93.5"/>
<text text-anchor="start" x="954" y="-111.5" font-family="Helvetica,sans-Serif" font-size="10.00">steppable::__internals</text>
<text text-anchor="middle" x="1032" y="-100.5" font-family="Helvetica,sans-Serif" font-size="10.00">::numUtils::simplifyZeroPolarity</text>
</a>
</g>
</g>
<!-- Node5&#45;&gt;Node6 -->
<g id="edge5" class="edge">
<title>Node5&#45;&gt;Node6</title>
<path fill="none" stroke="midnightblue" d="M884.96,-30.54C893.49,-33.2 902.04,-36.19 910,-39.5 941.88,-52.74 975.83,-72.67 999.63,-87.72"/>
<polygon fill="midnightblue" stroke="midnightblue" points="997.92,-90.78 1008.23,-93.22 1001.69,-84.88 997.92,-90.78"/>
</g>
<!-- Node7 -->
<g id="node7" class="node">
<title>Node7</title>
<g id="a_node7"><a xlink:href="namespacesteppable_1_1____internals_1_1numUtils.html#afce13d9dd949a08a7e75b27246a276b2" target="_top" xlink:title="Checks if a given string is a zero string.">
<polygon fill="none" stroke="black" points="1154,-230.5 1154,-260.5 1286,-260.5 1286,-230.5 1154,-230.5"/>
<text text-anchor="start" x="1162" y="-248.5" font-family="Helvetica,sans-Serif" font-size="10.00">steppable::__internals</text>
<text text-anchor="middle" x="1220" y="-237.5" font-family="Helvetica,sans-Serif" font-size="10.00">::numUtils::isZeroString</text>
</a>
</g>
</g>
<!-- Node6&#45;&gt;Node7 -->
<g id="edge6" class="edge">
<title>Node6&#45;&gt;Node7</title>
<path fill="none" stroke="midnightblue" d="M1053.62,-123.68C1086.94,-148.23 1152.73,-196.68 1190.51,-224.51"/>
<polygon fill="midnightblue" stroke="midnightblue" points="1188.45,-227.34 1198.58,-230.46 1192.6,-221.71 1188.45,-227.34"/>
</g>
<!-- Node8&#45;&gt;Node7 -->
<g id="edge8" class="edge">
<title>Node8&#45;&gt;Node7</title>
<path fill="none" stroke="midnightblue" d="M468.4,-176.6C524.37,-199.02 635.42,-240.43 734,-258.5 826.8,-275.51 851.68,-267.05 946,-269.5 1022.42,-271.48 1042.08,-278.4 1118,-269.5 1130.43,-268.04 1143.55,-265.61 1156.06,-262.84"/>
<polygon fill="midnightblue" stroke="midnightblue" points="1156.99,-266.22 1165.95,-260.56 1155.42,-259.4 1156.99,-266.22"/>
</g>
<!-- Node8&#45;&gt;Node9 -->
<g id="edge9" class="edge">
<title>Node8&#45;&gt;Node9</title>
<path fill="none" stroke="midnightblue" d="M493.11,-151C507.15,-148.59 522.25,-146 536.83,-143.5"/>
<polygon fill="midnightblue" stroke="midnightblue" points="537.55,-146.92 546.82,-141.78 536.37,-140.02 537.55,-146.92"/>
</g>
<!-- Node9&#45;&gt;Node5 -->
<g id="edge13" class="edge">
<title>Node9&#45;&gt;Node5</title>
<path fill="none" stroke="midnightblue" d="M630.17,-115.36C651.81,-95.25 692.87,-59.88 734,-39.5 737.98,-37.53 742.14,-35.7 746.4,-34.01"/>
<polygon fill="midnightblue" stroke="midnightblue" points="747.67,-37.27 755.84,-30.51 745.24,-30.7 747.67,-37.27"/>
</g>
<!-- Node9&#45;&gt;Node6 -->
<g id="edge14" class="edge">
<title>Node9&#45;&gt;Node6</title>
<path fill="none" stroke="midnightblue" d="M680.04,-127.04C748.66,-123.41 857.12,-117.68 935.31,-113.55"/>
<polygon fill="midnightblue" stroke="midnightblue" points="935.85,-117.03 945.65,-113.01 935.48,-110.04 935.85,-117.03"/>
</g>
<!-- Node9&#45;&gt;Node7 -->
<g id="edge10" class="edge">
<title>Node9&#45;&gt;Node7</title>
<path fill="none" stroke="midnightblue" d="M627.31,-145.67C647.38,-168.17 688.64,-209.53 734,-226.5 871.21,-277.83 1045.73,-268.2 1143.61,-256.74"/>
<polygon fill="midnightblue" stroke="midnightblue" points="1144.2,-260.2 1153.71,-255.52 1143.36,-253.25 1144.2,-260.2"/>
</g>
<!-- Node10 -->
<g id="node10" class="node">
<title>Node10</title>
<g id="a_node10"><a xlink:href="namespacesteppable_1_1____internals_1_1numUtils.html#a3d4e1e21ccf1afecd766d3152df87212" target="_top" xlink:title=" ">
<polygon fill="none" stroke="black" points="734,-49.5 734,-79.5 910,-79.5 910,-49.5 734,-49.5"/>
<text text-anchor="start" x="742" y="-67.5" font-family="Helvetica,sans-Serif" font-size="10.00">steppable::__internals</text>
<text text-anchor="middle" x="822" y="-56.5" font-family="Helvetica,sans-Serif" font-size="10.00">::numUtils::removeLeadingZeros</text>
</a>
</g>
</g>
<!-- Node9&#45;&gt;Node10 -->
<g id="edge11" class="edge">
<title>Node9&#45;&gt;Node10</title>
<path fill="none" stroke="midnightblue" d="M661.62,-115.44C692.04,-105.72 731.8,-93.01 764,-82.72"/>
<polygon fill="midnightblue" stroke="midnightblue" points="765.27,-85.99 773.73,-79.61 763.14,-79.32 765.27,-85.99"/>
</g>
<!-- Node11 -->
<g id="node11" class="node">
<title>Node11</title>
<g id="a_node11"><a xlink:href="namespacesteppable_1_1____internals_1_1numUtils.html#a5d7e8d74d304a1ac7fc2ad4dbf5b40ae" target="_top" xlink:title=" ">
<polygon fill="none" stroke="black" points="735.5,-186.5 735.5,-216.5 908.5,-216.5 908.5,-186.5 735.5,-186.5"/>
<text text-anchor="start" x="743.5" y="-204.5" font-family="Helvetica,sans-Serif" font-size="10.00">steppable::__internals</text>
<text text-anchor="middle" x="822" y="-193.5" font-family="Helvetica,sans-Serif" font-size="10.00">::numUtils::removeTrailingZeros</text>
</a>
</g>
</g>
<!-- Node9&#45;&gt;Node11 -->
<g id="edge12" class="edge">
<title>Node9&#45;&gt;Node11</title>
<path fill="none" stroke="midnightblue" d="M649.96,-145.58C673.54,-155.33 705.34,-167.94 734,-177.5 740.29,-179.6 746.88,-181.66 753.5,-183.64"/>
<polygon fill="midnightblue" stroke="midnightblue" points="752.6,-187.02 763.18,-186.47 754.57,-180.3 752.6,-187.02"/>
</g>
<!-- Node12 -->
<g id="node12" class="node">
<title>Node12</title>
<g id="a_node12"><a xlink:href="namespacesteppable_1_1____internals_1_1stringUtils.html#a2600efb348f0dd19cc0068946d06b1b7" target="_top" xlink:title="Splits a string into substrings based on a separator.">
<polygon fill="none" stroke="black" points="760,-137.5 760,-167.5 884,-167.5 884,-137.5 760,-137.5"/>
<text text-anchor="start" x="768" y="-155.5" font-family="Helvetica,sans-Serif" font-size="10.00">steppable::__internals</text>
<text text-anchor="middle" x="822" y="-144.5" font-family="Helvetica,sans-Serif" font-size="10.00">::stringUtils::split</text>
</a>
</g>
</g>
<!-- Node9&#45;&gt;Node12 -->
<g id="edge15" class="edge">
<title>Node9&#45;&gt;Node12</title>
<path fill="none" stroke="midnightblue" d="M680.12,-137.49C702.24,-139.85 727.03,-142.49 749.58,-144.89"/>
<polygon fill="midnightblue" stroke="midnightblue" points="749.45,-148.4 759.76,-145.98 750.19,-141.44 749.45,-148.4"/>
</g>
</g>
</svg>
