<?xml version="1.0" encoding="UTF-8" standalone="no"?>
<!DOCTYPE svg PUBLIC "-//W3C//DTD SVG 1.1//EN"
 "http://www.w3.org/Graphics/SVG/1.1/DTD/svg11.dtd">
<!-- Generated by graphviz version 12.0.0 (20240704.0754)
 -->
<!-- Title: steppable::__internals::arithmetic::ln Pages: 1 -->
<svg width="291pt" height="302pt"
 viewBox="0.00 0.00 290.50 301.50" xmlns="http://www.w3.org/2000/svg" xmlns:xlink="http://www.w3.org/1999/xlink">
<g id="graph0" class="graph" transform="scale(1 1) rotate(0) translate(4 297.5)">
<title>steppable::__internals::arithmetic::ln</title>
<!-- Node1 -->
<g id="Node000001" class="node">
<title>Node1</title>
<g id="a_Node000001"><a xlink:title="Calculates the natural logarithm of a number.">
<polygon fill="#999999" stroke="#666666" points="282.5,-163.5 159.25,-163.5 159.25,-130 282.5,-130 282.5,-163.5"/>
<text text-anchor="start" x="167.25" y="-150" font-family="Helvetica,sans-Serif" font-size="10.00">steppable::__internals</text>
<text text-anchor="middle" x="220.88" y="-137.25" font-family="Helvetica,sans-Serif" font-size="10.00">::arithmetic::ln</text>
</a>
</g>
</g>
<!-- Node2 -->
<g id="Node000002" class="node">
<title>Node2</title>
<g id="a_Node000002"><a xlink:href="namespacesteppable_1_1____internals_1_1arithmetic.html#a284825c9ef7aa393817e5722ae973474" target="_top" xlink:title="Inverse hyperbolic cosine function.">
<polygon fill="white" stroke="#666666" points="123.25,-293.5 0,-293.5 0,-260 123.25,-260 123.25,-293.5"/>
<text text-anchor="start" x="8" y="-280" font-family="Helvetica,sans-Serif" font-size="10.00">steppable::__internals</text>
<text text-anchor="middle" x="61.62" y="-267.25" font-family="Helvetica,sans-Serif" font-size="10.00">::arithmetic::acosh</text>
</a>
</g>
</g>
<!-- Node1&#45;&gt;Node2 -->
<g id="edge1_Node000001_Node000002" class="edge">
<title>Node1&#45;&gt;Node2</title>
<g id="a_edge1_Node000001_Node000002"><a xlink:title=" ">
<path fill="none" stroke="#63b8ff" d="M200.79,-172.8C182.87,-195.78 154.24,-228.92 123.25,-250.75 118.66,-253.98 113.61,-256.93 108.44,-259.58"/>
<polygon fill="#63b8ff" stroke="#63b8ff" points="203.36,-175.21 206.65,-165.14 197.79,-170.96 203.36,-175.21"/>
</a>
</g>
</g>
<!-- Node3 -->
<g id="Node000003" class="node">
<title>Node3</title>
<g id="a_Node000003"><a xlink:href="namespacesteppable_1_1____internals_1_1arithmetic.html#a5e831f056becdb75c5401d989d75de3d" target="_top" xlink:title="Inverse hyperbolic cotangent function.">
<polygon fill="white" stroke="#666666" points="123.25,-241.5 0,-241.5 0,-208 123.25,-208 123.25,-241.5"/>
<text text-anchor="start" x="8" y="-228" font-family="Helvetica,sans-Serif" font-size="10.00">steppable::__internals</text>
<text text-anchor="middle" x="61.62" y="-215.25" font-family="Helvetica,sans-Serif" font-size="10.00">::arithmetic::acoth</text>
</a>
</g>
</g>
<!-- Node1&#45;&gt;Node3 -->
<g id="edge2_Node000001_Node000003" class="edge">
<title>Node1&#45;&gt;Node3</title>
<g id="a_edge2_Node000001_Node000003"><a xlink:title=" ">
<path fill="none" stroke="#63b8ff" d="M180.02,-169.23C162.75,-178.7 142.18,-189.62 123.25,-198.75 117.06,-201.74 110.44,-204.75 103.94,-207.61"/>
<polygon fill="#63b8ff" stroke="#63b8ff" points="181.38,-172.47 188.44,-164.57 178,-166.34 181.38,-172.47"/>
</a>
</g>
</g>
<!-- Node4 -->
<g id="Node000004" class="node">
<title>Node4</title>
<g id="a_Node000004"><a xlink:href="namespacesteppable_1_1____internals_1_1arithmetic.html#ab71f051f3e9dd04736bd159d19606a5a" target="_top" xlink:title="Inverse hyperbolic cosecant function.">
<polygon fill="white" stroke="#666666" points="123.25,-189.5 0,-189.5 0,-156 123.25,-156 123.25,-189.5"/>
<text text-anchor="start" x="8" y="-176" font-family="Helvetica,sans-Serif" font-size="10.00">steppable::__internals</text>
<text text-anchor="middle" x="61.62" y="-163.25" font-family="Helvetica,sans-Serif" font-size="10.00">::arithmetic::acsch</text>
</a>
</g>
</g>
<!-- Node1&#45;&gt;Node4 -->
<g id="edge3_Node000001_Node000004" class="edge">
<title>Node1&#45;&gt;Node4</title>
<g id="a_edge3_Node000001_Node000004"><a xlink:title=" ">
<path fill="none" stroke="#63b8ff" d="M147.73,-158.68C139.64,-160.02 131.45,-161.37 123.52,-162.68"/>
<polygon fill="#63b8ff" stroke="#63b8ff" points="148.29,-162.13 157.58,-157.05 147.15,-155.23 148.29,-162.13"/>
</a>
</g>
</g>
<!-- Node5 -->
<g id="Node000005" class="node">
<title>Node5</title>
<g id="a_Node000005"><a xlink:href="namespacesteppable_1_1____internals_1_1arithmetic.html#a30f74a72754366996ff69e5d9b29c0cc" target="_top" xlink:title="Inverse hyperbolic secant function.">
<polygon fill="white" stroke="#666666" points="123.25,-137.5 0,-137.5 0,-104 123.25,-104 123.25,-137.5"/>
<text text-anchor="start" x="8" y="-124" font-family="Helvetica,sans-Serif" font-size="10.00">steppable::__internals</text>
<text text-anchor="middle" x="61.62" y="-111.25" font-family="Helvetica,sans-Serif" font-size="10.00">::arithmetic::asech</text>
</a>
</g>
</g>
<!-- Node1&#45;&gt;Node5 -->
<g id="edge4_Node000001_Node000005" class="edge">
<title>Node1&#45;&gt;Node5</title>
<g id="a_edge4_Node000001_Node000005"><a xlink:title=" ">
<path fill="none" stroke="#63b8ff" d="M147.73,-134.82C139.64,-133.48 131.45,-132.13 123.52,-130.82"/>
<polygon fill="#63b8ff" stroke="#63b8ff" points="147.15,-138.27 157.58,-136.45 148.29,-131.37 147.15,-138.27"/>
</a>
</g>
</g>
<!-- Node6 -->
<g id="Node000006" class="node">
<title>Node6</title>
<g id="a_Node000006"><a xlink:href="namespacesteppable_1_1____internals_1_1arithmetic.html#a8921127f62c92fb384c6066c1d14df1a" target="_top" xlink:title="Inverse hyperbolic sine function.">
<polygon fill="white" stroke="#666666" points="123.25,-85.5 0,-85.5 0,-52 123.25,-52 123.25,-85.5"/>
<text text-anchor="start" x="8" y="-72" font-family="Helvetica,sans-Serif" font-size="10.00">steppable::__internals</text>
<text text-anchor="middle" x="61.62" y="-59.25" font-family="Helvetica,sans-Serif" font-size="10.00">::arithmetic::asinh</text>
</a>
</g>
</g>
<!-- Node1&#45;&gt;Node6 -->
<g id="edge5_Node000001_Node000006" class="edge">
<title>Node1&#45;&gt;Node6</title>
<g id="a_edge5_Node000001_Node000006"><a xlink:title=" ">
<path fill="none" stroke="#63b8ff" d="M180.02,-124.27C162.75,-114.8 142.18,-103.88 123.25,-94.75 117.06,-91.76 110.44,-88.75 103.94,-85.89"/>
<polygon fill="#63b8ff" stroke="#63b8ff" points="178,-127.16 188.44,-128.93 181.38,-121.03 178,-127.16"/>
</a>
</g>
</g>
<!-- Node7 -->
<g id="Node000007" class="node">
<title>Node7</title>
<g id="a_Node000007"><a xlink:href="namespacesteppable_1_1____internals_1_1arithmetic.html#a819f79be9ee055e3ff415cd73a72d0bb" target="_top" xlink:title="Inverse hyperbolic tangent function.">
<polygon fill="white" stroke="#666666" points="123.25,-33.5 0,-33.5 0,0 123.25,0 123.25,-33.5"/>
<text text-anchor="start" x="8" y="-20" font-family="Helvetica,sans-Serif" font-size="10.00">steppable::__internals</text>
<text text-anchor="middle" x="61.62" y="-7.25" font-family="Helvetica,sans-Serif" font-size="10.00">::arithmetic::atanh</text>
</a>
</g>
</g>
<!-- Node1&#45;&gt;Node7 -->
<g id="edge6_Node000001_Node000007" class="edge">
<title>Node1&#45;&gt;Node7</title>
<g id="a_edge6_Node000001_Node000007"><a xlink:title=" ">
<path fill="none" stroke="#63b8ff" d="M200.79,-120.7C182.87,-97.72 154.24,-64.58 123.25,-42.75 118.66,-39.52 113.61,-36.57 108.44,-33.92"/>
<polygon fill="#63b8ff" stroke="#63b8ff" points="197.79,-122.54 206.65,-128.36 203.36,-118.29 197.79,-122.54"/>
</a>
</g>
</g>
</g>
</svg>
