<?xml version="1.0" encoding="UTF-8" standalone="no"?>
<!DOCTYPE svg PUBLIC "-//W3C//DTD SVG 1.1//EN"
 "http://www.w3.org/Graphics/SVG/1.1/DTD/svg11.dtd">
<!-- Generated by graphviz version 12.0.0 (20240704.0754)
 -->
<!-- Title: ImGui::TableSaveSettings Pages: 1 -->
<!--zoomable 241 -->

<svg id="main" version="1.1" xmlns="http://www.w3.org/2000/svg" xmlns:xlink="http://www.w3.org/1999/xlink" xml:space="preserve" onload="init(evt)">

<style type="text/css"><![CDATA[
.node, .edge {opacity: 0.7;}
.node.selected, .edge.selected {opacity: 1;}
.edge:hover path { stroke: red; }
.edge:hover polygon { stroke: red; fill: red; }
]]></style>

<defs>
  <circle id="rim" cx="0" cy="0" r="7"/>
  <circle id="rim2" cx="0" cy="0" r="3.5"/>
  <g id="zoomPlus">
    <use xlink:href="#rim" fill="#404040"><set attributeName="fill" to="#808080" begin="zoomplus.mouseover" end="zoomplus.mouseout"/></use>
    <path d="M-4,0h8M0,-4v8" fill="none" stroke="white" stroke-width="1.5" pointer-events="none"/>
  </g>
  <g id="zoomMin">
    <use xlink:href="#rim" fill="#404040"><set attributeName="fill" to="#808080" begin="zoomminus.mouseover" end="zoomminus.mouseout"/></use>
    <path d="M-4,0h8" fill="none" stroke="white" stroke-width="1.5" pointer-events="none"/>
  </g>
  <g id="arrowUp" transform="translate(30 24)">
    <use xlink:href="#rim"/>
    <path pointer-events="none" fill="none" stroke="white" stroke-width="1.5" d="M0,-3.0v7 M-2.5,-0.5L0,-3.0L2.5,-0.5"/>
  </g>
  <g id="arrowRight" transform="rotate(90) translate(36 -43)">
    <use xlink:href="#rim"/>
    <path pointer-events="none" fill="none" stroke="white" stroke-width="1.5" d="M0,-3.0v7 M-2.5,-0.5L0,-3.0L2.5,-0.5"/>
  </g>
  <g id="arrowDown" transform="rotate(180) translate(-30 -48)">
    <use xlink:href="#rim"/>
    <path pointer-events="none" fill="none" stroke="white" stroke-width="1.5" d="M0,-3.0v7 M-2.5,-0.5L0,-3.0L2.5,-0.5"/>
  </g>
  <g id="arrowLeft" transform="rotate(270) translate(-36 17)">
    <use xlink:href="#rim"/>
    <path pointer-events="none" fill="none" stroke="white" stroke-width="1.5" d="M0,-3.0v7 M-2.5,-0.5L0,-3.0L2.5,-0.5"/>
  </g>
  <g id="resetDef">
    <use xlink:href="#rim2" fill="#404040"><set attributeName="fill" to="#808080" begin="reset.mouseover" end="reset.mouseout"/></use>
  </g>
</defs>
<script type="application/ecmascript">
var viewWidth = 821;
var viewHeight = 241;
var sectionId = 'dynsection-1267';
</script>
<script type="application/ecmascript" xlink:href="svg.min.js"/>
<svg id="graph" class="graph">
<g id="viewport">
<title>ImGui::TableSaveSettings</title>
<!-- Node1 -->
<g id="Node000001" class="node">
<title>Node1</title>
<g id="a_Node000001"><a xlink:title=" ">
<polygon fill="#999999" stroke="#666666" points="140.5,-136.75 0,-136.75 0,-116 140.5,-116 140.5,-136.75"/>
<text text-anchor="middle" x="70.25" y="-123.25" font-family="Helvetica,sans-Serif" font-size="10.00">ImGui::TableSaveSettings</text>
</a>
</g>
</g>
<!-- Node2 -->
<g id="Node000002" class="node">
<title>Node2</title>
<g id="a_Node000002"><a xlink:href="structImGuiTableSettings.html#ae26859503d7552a9d4efe351d8f9f7a2" target="_top" xlink:title=" ">
<polygon fill="white" stroke="#666666" points="317,-233.12 200.5,-233.12 200.5,-199.62 317,-199.62 317,-233.12"/>
<text text-anchor="start" x="208.5" y="-219.62" font-family="Helvetica,sans-Serif" font-size="10.00">ImGuiTableSettings</text>
<text text-anchor="middle" x="258.75" y="-206.88" font-family="Helvetica,sans-Serif" font-size="10.00">::GetColumnSettings</text>
</a>
</g>
</g>
<!-- Node1&#45;&gt;Node2 -->
<g id="edge1_Node000001_Node000002" class="edge">
<title>Node1&#45;&gt;Node2</title>
<g id="a_edge1_Node000001_Node000002"><a xlink:title=" ">
<path fill="none" stroke="#63b8ff" d="M86.31,-137.11C106.19,-150.91 142.65,-174.93 176.5,-190.38 180.74,-192.31 185.17,-194.16 189.68,-195.93"/>
<polygon fill="#63b8ff" stroke="#63b8ff" points="188.27,-199.14 198.86,-199.34 190.71,-192.57 188.27,-199.14"/>
</a>
</g>
</g>
<!-- Node3 -->
<g id="Node000003" class="node">
<title>Node3</title>
<g id="a_Node000003"><a xlink:href="namespaceImGui.html#aee9b660c1d6786c00fc47c71c66eb1eb" target="_top" xlink:title=" ">
<polygon fill="white" stroke="#666666" points="334.62,-181.75 182.88,-181.75 182.88,-161 334.62,-161 334.62,-181.75"/>
<text text-anchor="middle" x="258.75" y="-168.25" font-family="Helvetica,sans-Serif" font-size="10.00">ImGui::MarkIniSettingsDirty</text>
</a>
</g>
</g>
<!-- Node1&#45;&gt;Node3 -->
<g id="edge2_Node000001_Node000003" class="edge">
<title>Node1&#45;&gt;Node3</title>
<g id="a_edge2_Node000001_Node000003"><a xlink:title=" ">
<path fill="none" stroke="#63b8ff" d="M114.75,-137.25C133.7,-141.95 156.19,-147.49 176.5,-152.38 184.06,-154.19 192.03,-156.08 199.89,-157.94"/>
<polygon fill="#63b8ff" stroke="#63b8ff" points="198.89,-161.3 209.42,-160.18 200.49,-154.48 198.89,-161.3"/>
</a>
</g>
</g>
<!-- Node4 -->
<g id="Node000004" class="node">
<title>Node4</title>
<g id="a_Node000004"><a xlink:href="structImChunkStream.html#ab3dccb857d0b35ae295d14ff7f9dd0ac" target="_top" xlink:title=" ">
<polygon fill="white" stroke="#666666" points="323,-143.12 194.5,-143.12 194.5,-109.62 323,-109.62 323,-143.12"/>
<text text-anchor="start" x="202.5" y="-129.62" font-family="Helvetica,sans-Serif" font-size="10.00">ImChunkStream::offset</text>
<text text-anchor="middle" x="258.75" y="-116.88" font-family="Helvetica,sans-Serif" font-size="10.00">_from_ptr</text>
</a>
</g>
</g>
<!-- Node1&#45;&gt;Node4 -->
<g id="edge3_Node000001_Node000004" class="edge">
<title>Node1&#45;&gt;Node4</title>
<g id="a_edge3_Node000001_Node000004"><a xlink:title=" ">
<path fill="none" stroke="#63b8ff" d="M140.96,-126.38C154.62,-126.38 169,-126.38 182.82,-126.38"/>
<polygon fill="#63b8ff" stroke="#63b8ff" points="182.76,-129.88 192.76,-126.38 182.76,-122.88 182.76,-129.88"/>
</a>
</g>
</g>
<!-- Node7 -->
<g id="Node000007" class="node">
<title>Node7</title>
<g id="a_Node000007"><a xlink:href="namespaceImGui.html#a4824b64a0052e57fdb17c90331fb39cd" target="_top" xlink:title=" ">
<polygon fill="white" stroke="#666666" points="341,-91.75 176.5,-91.75 176.5,-71 341,-71 341,-91.75"/>
<text text-anchor="middle" x="258.75" y="-78.25" font-family="Helvetica,sans-Serif" font-size="10.00">ImGui::TableGetBoundSettings</text>
</a>
</g>
</g>
<!-- Node1&#45;&gt;Node7 -->
<g id="edge6_Node000001_Node000007" class="edge">
<title>Node1&#45;&gt;Node7</title>
<g id="a_edge6_Node000001_Node000007"><a xlink:title=" ">
<path fill="none" stroke="#63b8ff" d="M114.75,-115.5C133.7,-110.8 156.19,-105.26 176.5,-100.38 184.06,-98.56 192.03,-96.67 199.89,-94.81"/>
<polygon fill="#63b8ff" stroke="#63b8ff" points="200.49,-98.27 209.42,-92.57 198.89,-91.45 200.49,-98.27"/>
</a>
</g>
</g>
<!-- Node9 -->
<g id="Node000009" class="node">
<title>Node9</title>
<g id="a_Node000009"><a xlink:href="namespaceImGui.html#a627a6a9580dc916a0a273afc16cefc19" target="_top" xlink:title=" ">
<polygon fill="white" stroke="#666666" points="333.12,-46.75 184.38,-46.75 184.38,-26 333.12,-26 333.12,-46.75"/>
<text text-anchor="middle" x="258.75" y="-33.25" font-family="Helvetica,sans-Serif" font-size="10.00">ImGui::TableSettingsCreate</text>
</a>
</g>
</g>
<!-- Node1&#45;&gt;Node9 -->
<g id="edge8_Node000001_Node000009" class="edge">
<title>Node1&#45;&gt;Node9</title>
<g id="a_edge8_Node000001_Node000009"><a xlink:title=" ">
<path fill="none" stroke="#63b8ff" d="M86.31,-115.64C106.19,-101.84 142.65,-77.82 176.5,-62.38 186,-58.04 196.43,-54.12 206.56,-50.72"/>
<polygon fill="#63b8ff" stroke="#63b8ff" points="207.48,-54.1 215.93,-47.7 205.33,-47.44 207.48,-54.1"/>
</a>
</g>
</g>
<!-- Node5 -->
<g id="Node000005" class="node">
<title>Node5</title>
<g id="a_Node000005"><a xlink:href="structImChunkStream.html#a10a9b29c856b3f84ce8811ebfaf2cfe8" target="_top" xlink:title=" ">
<polygon fill="white" stroke="#666666" points="504.75,-175.75 377,-175.75 377,-155 504.75,-155 504.75,-175.75"/>
<text text-anchor="middle" x="440.88" y="-162.25" font-family="Helvetica,sans-Serif" font-size="10.00">ImChunkStream::begin</text>
</a>
</g>
</g>
<!-- Node4&#45;&gt;Node5 -->
<g id="edge4_Node000004_Node000005" class="edge">
<title>Node4&#45;&gt;Node5</title>
<g id="a_edge4_Node000004_Node000005"><a xlink:title=" ">
<path fill="none" stroke="#63b8ff" d="M323.26,-140.12C341.2,-144.01 360.7,-148.23 378.52,-152.09"/>
<polygon fill="#63b8ff" stroke="#63b8ff" points="377.67,-155.49 388.18,-154.18 379.15,-148.65 377.67,-155.49"/>
</a>
</g>
</g>
<!-- Node6 -->
<g id="Node000006" class="node">
<title>Node6</title>
<g id="a_Node000006"><a xlink:href="structImChunkStream.html#a5c7faa90ac7fa02140a3298dbfdd5cad" target="_top" xlink:title=" ">
<polygon fill="white" stroke="#666666" points="500.25,-136.75 381.5,-136.75 381.5,-116 500.25,-116 500.25,-136.75"/>
<text text-anchor="middle" x="440.88" y="-123.25" font-family="Helvetica,sans-Serif" font-size="10.00">ImChunkStream::end</text>
</a>
</g>
</g>
<!-- Node4&#45;&gt;Node6 -->
<g id="edge5_Node000004_Node000006" class="edge">
<title>Node4&#45;&gt;Node6</title>
<g id="a_edge5_Node000004_Node000006"><a xlink:title=" ">
<path fill="none" stroke="#63b8ff" d="M323.26,-126.38C338.27,-126.38 354.36,-126.38 369.65,-126.38"/>
<polygon fill="#63b8ff" stroke="#63b8ff" points="369.64,-129.88 379.64,-126.38 369.64,-122.88 369.64,-129.88"/>
</a>
</g>
</g>
<!-- Node8 -->
<g id="Node000008" class="node">
<title>Node8</title>
<g id="a_Node000008"><a xlink:href="structImChunkStream.html#a385c84c0a5eca2d402f3550530af587e" target="_top" xlink:title=" ">
<polygon fill="white" stroke="#666666" points="498,-98.12 383.75,-98.12 383.75,-64.62 498,-64.62 498,-98.12"/>
<text text-anchor="start" x="391.75" y="-84.62" font-family="Helvetica,sans-Serif" font-size="10.00">ImChunkStream::ptr</text>
<text text-anchor="middle" x="440.88" y="-71.88" font-family="Helvetica,sans-Serif" font-size="10.00">_from_offset</text>
</a>
</g>
</g>
<!-- Node7&#45;&gt;Node8 -->
<g id="edge7_Node000007_Node000008" class="edge">
<title>Node7&#45;&gt;Node8</title>
<g id="a_edge7_Node000007_Node000008"><a xlink:title=" ">
<path fill="none" stroke="#63b8ff" d="M341.38,-81.38C351.55,-81.38 361.86,-81.38 371.8,-81.38"/>
<polygon fill="#63b8ff" stroke="#63b8ff" points="371.74,-84.88 381.74,-81.38 371.74,-77.88 371.74,-84.88"/>
</a>
</g>
</g>
<!-- Node10 -->
<g id="Node000010" class="node">
<title>Node10</title>
<g id="a_Node000010"><a xlink:href="structImChunkStream.html#a29ced7ee3e9a2ae8123a92b110b4b0bd" target="_top" xlink:title=" ">
<polygon fill="white" stroke="#666666" points="502.88,-46.12 378.88,-46.12 378.88,-12.62 502.88,-12.62 502.88,-46.12"/>
<text text-anchor="start" x="386.88" y="-32.62" font-family="Helvetica,sans-Serif" font-size="10.00">ImChunkStream::alloc</text>
<text text-anchor="middle" x="440.88" y="-19.88" font-family="Helvetica,sans-Serif" font-size="10.00">_chunk</text>
</a>
</g>
</g>
<!-- Node9&#45;&gt;Node10 -->
<g id="edge9_Node000009_Node000010" class="edge">
<title>Node9&#45;&gt;Node10</title>
<g id="a_edge9_Node000009_Node000010"><a xlink:title=" ">
<path fill="none" stroke="#63b8ff" d="M333.53,-33.51C344.64,-33.08 356.08,-32.63 367.17,-32.2"/>
<polygon fill="#63b8ff" stroke="#63b8ff" points="367.18,-35.7 377.04,-31.82 366.91,-28.71 367.18,-35.7"/>
</a>
</g>
</g>
<!-- Node11 -->
<g id="Node000011" class="node">
<title>Node11</title>
<g id="a_Node000011"><a xlink:href="structImVector.html#ac371dd62e56ae486b1a5038cf07eee56" target="_top" xlink:title=" ">
<polygon fill="white" stroke="#666666" points="635.5,-39.75 540.75,-39.75 540.75,-19 635.5,-19 635.5,-39.75"/>
<text text-anchor="middle" x="588.12" y="-26.25" font-family="Helvetica,sans-Serif" font-size="10.00">ImVector::resize</text>
</a>
</g>
</g>
<!-- Node10&#45;&gt;Node11 -->
<g id="edge10_Node000010_Node000011" class="edge">
<title>Node10&#45;&gt;Node11</title>
<g id="a_edge10_Node000010_Node000011"><a xlink:title=" ">
<path fill="none" stroke="#63b8ff" d="M503.05,-29.38C511.69,-29.38 520.54,-29.38 529.12,-29.38"/>
<polygon fill="#63b8ff" stroke="#63b8ff" points="529.07,-32.88 539.07,-29.38 529.07,-25.88 529.07,-32.88"/>
</a>
</g>
</g>
<!-- Node12 -->
<g id="Node000012" class="node">
<title>Node12</title>
<g id="a_Node000012"><a xlink:href="structImVector.html#a3a097635d464b1b70dc7d59996a88b28" target="_top" xlink:title=" ">
<polygon fill="white" stroke="#666666" points="812.75,-59.75 671.5,-59.75 671.5,-39 812.75,-39 812.75,-59.75"/>
<text text-anchor="middle" x="742.12" y="-46.25" font-family="Helvetica,sans-Serif" font-size="10.00">ImVector::_grow_capacity</text>
</a>
</g>
</g>
<!-- Node11&#45;&gt;Node12 -->
<g id="edge11_Node000011_Node000012" class="edge">
<title>Node11&#45;&gt;Node12</title>
<g id="a_edge11_Node000011_Node000012"><a xlink:title=" ">
<path fill="none" stroke="#63b8ff" d="M635.97,-35.54C643.65,-36.55 651.79,-37.62 660.01,-38.7"/>
<polygon fill="#63b8ff" stroke="#63b8ff" points="659.37,-42.15 669.74,-39.98 660.28,-35.21 659.37,-42.15"/>
</a>
</g>
</g>
<!-- Node13 -->
<g id="Node000013" class="node">
<title>Node13</title>
<g id="a_Node000013"><a xlink:href="structImVector.html#a0f14f5736c3372157856eebb67123b75" target="_top" xlink:title=" ">
<polygon fill="white" stroke="#666666" points="793.25,-20.75 691,-20.75 691,0 793.25,0 793.25,-20.75"/>
<text text-anchor="middle" x="742.12" y="-7.25" font-family="Helvetica,sans-Serif" font-size="10.00">ImVector::reserve</text>
</a>
</g>
</g>
<!-- Node11&#45;&gt;Node13 -->
<g id="edge12_Node000011_Node000013" class="edge">
<title>Node11&#45;&gt;Node13</title>
<g id="a_edge12_Node000011_Node000013"><a xlink:title=" ">
<path fill="none" stroke="#63b8ff" d="M635.97,-23.52C649.67,-21.81 664.85,-19.91 679.33,-18.1"/>
<polygon fill="#63b8ff" stroke="#63b8ff" points="679.75,-21.57 689.24,-16.86 678.88,-14.63 679.75,-21.57"/>
</a>
</g>
</g>
</g>
</svg>

<g id="navigator" transform="translate(0 0)" fill="#404254">
  <rect fill="#f2f5e9" fill-opacity="0.5" stroke="#606060" stroke-width=".5" x="0" y="0" width="60" height="60"/>
  <use id="zoomplus" xlink:href="#zoomPlus" x="17" y="9" onmousedown="handleZoom(evt,'in')"/>
  <use id="zoomminus" xlink:href="#zoomMin" x="42" y="9" onmousedown="handleZoom(evt,'out')"/>
  <use id="reset" xlink:href="#resetDef" x="30" y="36" onmousedown="handleReset()"/>
   <use id="arrowup" xlink:href="#arrowUp" x="0" y="0" onmousedown="handlePan(0,-1)"/>
  <use id="arrowright" xlink:href="#arrowRight" x="0" y="0" onmousedown="handlePan(1,0)"/>
  <use id="arrowdown" xlink:href="#arrowDown" x="0" y="0" onmousedown="handlePan(0,1)"/>
  <use id="arrowleft" xlink:href="#arrowLeft" x="0" y="0" onmousedown="handlePan(-1,0)"/>
</g>
<svg viewBox="0 0 15 15" width="100%" height="30px" preserveAspectRatio="xMaxYMin meet">
 <g id="arrow_out" transform="scale(0.3 0.3)">
  <a xlink:href="namespaceImGui_aadf0917c8bc98aaab0bf3c7667b19afe_cgraph_org.svg" target="_base">
   <rect id="button" ry="5" rx="5" y="6" x="6" height="38" width="38"
        fill="#f2f5e9" fill-opacity="0.5" stroke="#606060" stroke-width="1.0"/>
   <path id="arrow"
     d="M 11.500037,31.436501 C 11.940474,20.09759 22.043105,11.32322 32.158766,21.979434 L 37.068811,17.246167 C 37.068811,17.246167 37.088388,32 37.088388,32 L 22.160133,31.978069 C 22.160133,31.978069 26.997745,27.140456 26.997745,27.140456 C 18.528582,18.264221 13.291696,25.230495 11.500037,31.436501 z"
     style="fill:#404040;"/>
  </a>
 </g>
</svg>

<style type='text/css'>
<![CDATA[
[data-mouse-over-selected='false'] { opacity: 0.7; }
[data-mouse-over-selected='true']  { opacity: 1.0; }
]]>
</style>
<script type="application/ecmascript"><![CDATA[
document.addEventListener('DOMContentLoaded', (event) => {
  highlightEdges();
  highlightAdjacentNodes();
});
]]></script>
</svg>
