<?xml version="1.0" encoding="UTF-8" standalone="no"?>
<!DOCTYPE svg PUBLIC "-//W3C//DTD SVG 1.1//EN"
 "http://www.w3.org/Graphics/SVG/1.1/DTD/svg11.dtd">
<!-- Generated by graphviz version 12.2.1 (20241206.2353)
 -->
<!-- Title: steppable::__internals::calc::getGCD Pages: 1 -->
<!--zoomable 503 -->

<svg id="main" version="1.1" xmlns="http://www.w3.org/2000/svg" xmlns:xlink="http://www.w3.org/1999/xlink" xml:space="preserve" onload="init(evt)">

<style type="text/css"><![CDATA[
.node, .edge {opacity: 0.7;}
.node.selected, .edge.selected {opacity: 1;}
.edge:hover path { stroke: red; }
.edge:hover polygon { stroke: red; fill: red; }
]]></style>

<defs>
  <circle id="rim" cx="0" cy="0" r="7"/>
  <circle id="rim2" cx="0" cy="0" r="3.5"/>
  <g id="zoomPlus">
    <use xlink:href="#rim" fill="#404040"><set attributeName="fill" to="#808080" begin="zoomplus.mouseover" end="zoomplus.mouseout"/></use>
    <path d="M-4,0h8M0,-4v8" fill="none" stroke="white" stroke-width="1.5" pointer-events="none"/>
  </g>
  <g id="zoomMin">
    <use xlink:href="#rim" fill="#404040"><set attributeName="fill" to="#808080" begin="zoomminus.mouseover" end="zoomminus.mouseout"/></use>
    <path d="M-4,0h8" fill="none" stroke="white" stroke-width="1.5" pointer-events="none"/>
  </g>
  <g id="arrowUp" transform="translate(30 24)">
    <use xlink:href="#rim"/>
    <path pointer-events="none" fill="none" stroke="white" stroke-width="1.5" d="M0,-3.0v7 M-2.5,-0.5L0,-3.0L2.5,-0.5"/>
  </g>
  <g id="arrowRight" transform="rotate(90) translate(36 -43)">
    <use xlink:href="#rim"/>
    <path pointer-events="none" fill="none" stroke="white" stroke-width="1.5" d="M0,-3.0v7 M-2.5,-0.5L0,-3.0L2.5,-0.5"/>
  </g>
  <g id="arrowDown" transform="rotate(180) translate(-30 -48)">
    <use xlink:href="#rim"/>
    <path pointer-events="none" fill="none" stroke="white" stroke-width="1.5" d="M0,-3.0v7 M-2.5,-0.5L0,-3.0L2.5,-0.5"/>
  </g>
  <g id="arrowLeft" transform="rotate(270) translate(-36 17)">
    <use xlink:href="#rim"/>
    <path pointer-events="none" fill="none" stroke="white" stroke-width="1.5" d="M0,-3.0v7 M-2.5,-0.5L0,-3.0L2.5,-0.5"/>
  </g>
  <g id="resetDef">
    <use xlink:href="#rim2" fill="#404040"><set attributeName="fill" to="#808080" begin="reset.mouseover" end="reset.mouseout"/></use>
  </g>
</defs>
<script type="application/ecmascript">
var viewWidth = 1435;
var viewHeight = 503;
var sectionId = 'dynsection-50';
</script>
<script type="application/ecmascript" xlink:href="svg.min.js"/>
<svg id="graph" class="graph">
<g id="viewport">
<title>steppable::__internals::calc::getGCD</title>
<!-- Node1 -->
<g id="Node000001" class="node">
<title>Node1</title>
<g id="a_Node000001"><a xlink:title="Gets the greatest common divisor of two string representations of numbers.">
<polygon fill="#999999" stroke="#666666" points="123.25,-430.5 0,-430.5 0,-397 123.25,-397 123.25,-430.5"/>
<text text-anchor="start" x="8" y="-417" font-family="Helvetica,sans-Serif" font-size="10.00">steppable::__internals</text>
<text text-anchor="middle" x="61.62" y="-404.25" font-family="Helvetica,sans-Serif" font-size="10.00">::calc::getGCD</text>
</a>
</g>
</g>
<!-- Node1&#45;&gt;Node1 -->
<g id="edge22_Node000001_Node000001" class="edge">
<title>Node1&#45;&gt;Node1</title>
<g id="a_edge22_Node000001_Node000001"><a xlink:title=" ">
<path fill="none" stroke="#63b8ff" d="M29.83,-430.91C24.43,-440.12 35.02,-448.5 61.62,-448.5 76.59,-448.5 86.49,-445.85 91.32,-441.89"/>
<polygon fill="#63b8ff" stroke="#63b8ff" points="94.7,-442.88 93.14,-432.4 87.82,-441.57 94.7,-442.88"/>
</a>
</g>
</g>
<!-- Node2 -->
<g id="Node000002" class="node">
<title>Node2</title>
<g id="a_Node000002"><a xlink:href="namespacesteppable_1_1____internals_1_1calc.html#ad4d7034aa4fea1469c85db9ddbb006c2" target="_top" xlink:title="Calculates the absolute value of a string representation of a number.">
<polygon fill="white" stroke="#666666" points="300.12,-494.5 176.88,-494.5 176.88,-461 300.12,-461 300.12,-494.5"/>
<text text-anchor="start" x="184.88" y="-481" font-family="Helvetica,sans-Serif" font-size="10.00">steppable::__internals</text>
<text text-anchor="middle" x="238.5" y="-468.25" font-family="Helvetica,sans-Serif" font-size="10.00">::calc::abs</text>
</a>
</g>
</g>
<!-- Node1&#45;&gt;Node2 -->
<g id="edge1_Node000001_Node000002" class="edge">
<title>Node1&#45;&gt;Node2</title>
<g id="a_edge1_Node000001_Node000002"><a xlink:title=" ">
<path fill="none" stroke="#63b8ff" d="M109.49,-430.9C131.15,-438.83 157.08,-448.32 179.92,-456.68"/>
<polygon fill="#63b8ff" stroke="#63b8ff" points="178.49,-459.88 189.09,-460.03 180.9,-453.31 178.49,-459.88"/>
</a>
</g>
</g>
<!-- Node4 -->
<g id="Node000004" class="node">
<title>Node4</title>
<g id="a_Node000004"><a xlink:href="namespacesteppable_1_1____internals_1_1calc.html#a42acdef9fc1e043591a9f42918ba7984" target="_top" xlink:title="Compares two string representations of numbers.">
<polygon fill="white" stroke="#666666" points="636.25,-327.5 513,-327.5 513,-294 636.25,-294 636.25,-327.5"/>
<text text-anchor="start" x="521" y="-314" font-family="Helvetica,sans-Serif" font-size="10.00">steppable::__internals</text>
<text text-anchor="middle" x="574.62" y="-301.25" font-family="Helvetica,sans-Serif" font-size="10.00">::calc::compare</text>
</a>
</g>
</g>
<!-- Node1&#45;&gt;Node4 -->
<g id="edge3_Node000001_Node000004" class="edge">
<title>Node1&#45;&gt;Node4</title>
<g id="a_edge3_Node000001_Node000004"><a xlink:title=" ">
<path fill="none" stroke="#63b8ff" d="M123.62,-403.59C204.66,-389.79 352.15,-363.62 477,-335.75 485.05,-333.95 493.46,-331.96 501.8,-329.9"/>
<polygon fill="#63b8ff" stroke="#63b8ff" points="502.38,-333.37 511.23,-327.54 500.68,-326.58 502.38,-333.37"/>
</a>
</g>
</g>
<!-- Node11 -->
<g id="Node000011" class="node">
<title>Node11</title>
<g id="a_Node000011"><a xlink:href="namespacesteppable_1_1____internals_1_1numUtils.html#af904a63deb5a7cc413325eb08b2118f3" target="_top" xlink:title=" ">
<polygon fill="white" stroke="#666666" points="822.5,-282.5 690.25,-282.5 690.25,-249 822.5,-249 822.5,-282.5"/>
<text text-anchor="start" x="698.25" y="-269" font-family="Helvetica,sans-Serif" font-size="10.00">steppable::__internals</text>
<text text-anchor="middle" x="756.38" y="-256.25" font-family="Helvetica,sans-Serif" font-size="10.00">::numUtils::splitNumber</text>
</a>
</g>
</g>
<!-- Node1&#45;&gt;Node11 -->
<g id="edge37_Node000001_Node000011" class="edge">
<title>Node1&#45;&gt;Node11</title>
<g id="a_edge37_Node000001_Node000011"><a xlink:title=" ">
<path fill="none" stroke="#63b8ff" d="M123.41,-420.53C234.03,-429.83 471.97,-435.48 636.25,-336.75 658.2,-323.56 651.11,-306.2 672.25,-291.75 674.74,-290.05 677.34,-288.45 680.03,-286.96"/>
<polygon fill="#63b8ff" stroke="#63b8ff" points="681.31,-290.23 688.72,-282.66 678.2,-283.96 681.31,-290.23"/>
</a>
</g>
</g>
<!-- Node18 -->
<g id="Node000018" class="node">
<title>Node18</title>
<g id="a_Node000018"><a xlink:href="namespacesteppable_1_1____internals_1_1calc.html#ad8b168032e06d1d0fb6f8c157eace02c" target="_top" xlink:title=" ">
<polygon fill="white" stroke="#666666" points="317.75,-351.5 159.25,-351.5 159.25,-318 317.75,-318 317.75,-351.5"/>
<text text-anchor="start" x="167.25" y="-338" font-family="Helvetica,sans-Serif" font-size="10.00">steppable::__internals</text>
<text text-anchor="middle" x="238.5" y="-325.25" font-family="Helvetica,sans-Serif" font-size="10.00">::calc::getQuotientRemainder</text>
</a>
</g>
</g>
<!-- Node1&#45;&gt;Node18 -->
<g id="edge23_Node000001_Node000018" class="edge">
<title>Node1&#45;&gt;Node18</title>
<g id="a_edge23_Node000001_Node000018"><a xlink:title=" ">
<path fill="none" stroke="#63b8ff" d="M100.57,-396.61C126.49,-384.9 161.06,-369.28 188.98,-356.67"/>
<polygon fill="#63b8ff" stroke="#63b8ff" points="190.28,-359.92 197.95,-352.62 187.39,-353.55 190.28,-359.92"/>
</a>
</g>
</g>
<!-- Node3 -->
<g id="Node000003" class="node">
<title>Node3</title>
<g id="a_Node000003"><a xlink:href="namespacesteppable_1_1____internals_1_1calc.html#af34324955c6772c7a3cacd9fe4c9a915" target="_top" xlink:title=" ">
<polygon fill="white" stroke="#666666" points="477,-494.5 353.75,-494.5 353.75,-461 477,-461 477,-494.5"/>
<text text-anchor="start" x="361.75" y="-481" font-family="Helvetica,sans-Serif" font-size="10.00">steppable::__internals</text>
<text text-anchor="middle" x="415.38" y="-468.25" font-family="Helvetica,sans-Serif" font-size="10.00">::calc::_abs</text>
</a>
</g>
</g>
<!-- Node2&#45;&gt;Node3 -->
<g id="edge2_Node000002_Node000003" class="edge">
<title>Node2&#45;&gt;Node3</title>
<g id="a_edge2_Node000002_Node000003"><a xlink:title=" ">
<path fill="none" stroke="#63b8ff" d="M300.17,-477.75C313.79,-477.75 328.38,-477.75 342.41,-477.75"/>
<polygon fill="#63b8ff" stroke="#63b8ff" points="342,-481.25 352,-477.75 342,-474.25 342,-481.25"/>
</a>
</g>
</g>
<!-- Node5 -->
<g id="Node000005" class="node">
<title>Node5</title>
<g id="a_Node000005"><a xlink:href="namespacesteppable_1_1localization.html#ae3e0bed8db649955a0360fa32175a0bc" target="_top" xlink:title="Gets a string from origin, and by the key.">
<polygon fill="white" stroke="#666666" points="825.5,-158.12 687.25,-158.12 687.25,-137.38 825.5,-137.38 825.5,-158.12"/>
<text text-anchor="middle" x="756.38" y="-144.62" font-family="Helvetica,sans-Serif" font-size="10.00">steppable::localization::$</text>
</a>
</g>
</g>
<!-- Node4&#45;&gt;Node5 -->
<g id="edge4_Node000004_Node000005" class="edge">
<title>Node4&#45;&gt;Node5</title>
<g id="a_edge4_Node000004_Node000005"><a xlink:title=" ">
<path fill="none" stroke="#63b8ff" d="M594.52,-293.61C628.61,-262.7 700.11,-197.87 735.15,-166.09"/>
<polygon fill="#63b8ff" stroke="#63b8ff" points="737.44,-168.74 742.49,-159.43 732.73,-163.56 737.44,-168.74"/>
</a>
</g>
</g>
<!-- Node4&#45;&gt;Node11 -->
<g id="edge11_Node000004_Node000011" class="edge">
<title>Node4&#45;&gt;Node11</title>
<g id="a_edge11_Node000004_Node000011"><a xlink:title=" ">
<path fill="none" stroke="#63b8ff" d="M636.73,-295.45C650.22,-292.07 664.68,-288.45 678.7,-284.94"/>
<polygon fill="#63b8ff" stroke="#63b8ff" points="679.51,-288.35 688.36,-282.53 677.81,-281.56 679.51,-288.35"/>
</a>
</g>
</g>
<!-- Node17 -->
<g id="Node000017" class="node">
<title>Node17</title>
<g id="a_Node000017"><a xlink:href="namespacesteppable_1_1____internals_1_1numUtils.html#ae9066a66afcc38203d68643378d1fde8" target="_top" xlink:title="Standardizes a number string.">
<polygon fill="white" stroke="#666666" points="840.5,-334.5 672.25,-334.5 672.25,-301 840.5,-301 840.5,-334.5"/>
<text text-anchor="start" x="680.25" y="-321" font-family="Helvetica,sans-Serif" font-size="10.00">steppable::__internals</text>
<text text-anchor="middle" x="756.38" y="-308.25" font-family="Helvetica,sans-Serif" font-size="10.00">::numUtils::standardizeNumber</text>
</a>
</g>
</g>
<!-- Node4&#45;&gt;Node17 -->
<g id="edge20_Node000004_Node000017" class="edge">
<title>Node4&#45;&gt;Node17</title>
<g id="a_edge20_Node000004_Node000017"><a xlink:title=" ">
<path fill="none" stroke="#63b8ff" d="M636.73,-313.13C644.41,-313.43 652.4,-313.74 660.45,-314.05"/>
<polygon fill="#63b8ff" stroke="#63b8ff" points="660.19,-317.55 670.32,-314.44 660.46,-310.55 660.19,-317.55"/>
</a>
</g>
</g>
<!-- Node6 -->
<g id="Node000006" class="node">
<title>Node6</title>
<g id="a_Node000006"><a xlink:href="namespacesteppable_1_1output.html#aaeed30985adb9664fb71758754dad2fa" target="_top" xlink:title="Prints an error message.">
<polygon fill="white" stroke="#666666" points="1415,-56.5 1307.5,-56.5 1307.5,-23 1415,-23 1415,-56.5"/>
<text text-anchor="start" x="1315.5" y="-43" font-family="Helvetica,sans-Serif" font-size="10.00">steppable::output::</text>
<text text-anchor="middle" x="1361.25" y="-30.25" font-family="Helvetica,sans-Serif" font-size="10.00">error</text>
</a>
</g>
</g>
<!-- Node5&#45;&gt;Node6 -->
<g id="edge5_Node000005_Node000006" class="edge">
<title>Node5&#45;&gt;Node6</title>
<g id="a_edge5_Node000005_Node000006"><a xlink:title=" ">
<path fill="none" stroke="#63b8ff" d="M798.55,-136.9C821.41,-131.08 850.43,-124.04 876.5,-118.75 1025.8,-88.43 1202.87,-61.88 1295.85,-48.66"/>
<polygon fill="#63b8ff" stroke="#63b8ff" points="1296.13,-52.15 1305.54,-47.29 1295.15,-45.22 1296.13,-52.15"/>
</a>
</g>
</g>
<!-- Node7 -->
<g id="Node000007" class="node">
<title>Node7</title>
<g id="a_Node000007"><a xlink:href="namespacesteppable_1_1____internals_1_1utils.html#a9f8874d38acee1827b2ad2aef3dc8386" target="_top" xlink:title=" ">
<polygon fill="white" stroke="#666666" points="1030.5,-33.5 898.25,-33.5 898.25,0 1030.5,0 1030.5,-33.5"/>
<text text-anchor="start" x="906.25" y="-20" font-family="Helvetica,sans-Serif" font-size="10.00">steppable::__internals</text>
<text text-anchor="middle" x="964.38" y="-7.25" font-family="Helvetica,sans-Serif" font-size="10.00">::utils::getConfDirectory</text>
</a>
</g>
</g>
<!-- Node5&#45;&gt;Node7 -->
<g id="edge6_Node000005_Node000007" class="edge">
<title>Node5&#45;&gt;Node7</title>
<g id="a_edge6_Node000005_Node000007"><a xlink:title=" ">
<path fill="none" stroke="#63b8ff" d="M767.55,-136.96C787,-116.89 831.52,-73.54 876.5,-47.75 882.52,-44.3 888.99,-41.13 895.58,-38.24"/>
<polygon fill="#63b8ff" stroke="#63b8ff" points="896.69,-41.57 904.6,-34.52 894.02,-35.1 896.69,-41.57"/>
</a>
</g>
</g>
<!-- Node9 -->
<g id="Node000009" class="node">
<title>Node9</title>
<g id="a_Node000009"><a xlink:href="namespacesteppable_1_1localization.html#abb3cdf12222c59b01352ee909d1d5e97" target="_top" xlink:title=" ">
<polygon fill="white" stroke="#666666" points="1027.5,-161.5 901.25,-161.5 901.25,-128 1027.5,-128 1027.5,-161.5"/>
<text text-anchor="start" x="909.25" y="-148" font-family="Helvetica,sans-Serif" font-size="10.00">steppable::localization</text>
<text text-anchor="middle" x="964.38" y="-135.25" font-family="Helvetica,sans-Serif" font-size="10.00">::getLanguage</text>
</a>
</g>
</g>
<!-- Node5&#45;&gt;Node9 -->
<g id="edge9_Node000005_Node000009" class="edge">
<title>Node5&#45;&gt;Node9</title>
<g id="a_edge9_Node000005_Node000009"><a xlink:title=" ">
<path fill="none" stroke="#63b8ff" d="M825.97,-146.75C846.41,-146.45 868.9,-146.13 889.65,-145.82"/>
<polygon fill="#63b8ff" stroke="#63b8ff" points="889.52,-149.33 899.47,-145.68 889.42,-142.33 889.52,-149.33"/>
</a>
</g>
</g>
<!-- Node8 -->
<g id="Node000008" class="node">
<title>Node8</title>
<g id="a_Node000008"><a xlink:href="namespacesteppable_1_1____internals_1_1utils.html#af55d306f308c40f7cf64ad6cdb0235f7" target="_top" xlink:title=" ">
<polygon fill="white" stroke="#666666" points="1243.38,-33.5 1104.38,-33.5 1104.38,0 1243.38,0 1243.38,-33.5"/>
<text text-anchor="start" x="1112.38" y="-20" font-family="Helvetica,sans-Serif" font-size="10.00">steppable::__internals</text>
<text text-anchor="middle" x="1173.88" y="-7.25" font-family="Helvetica,sans-Serif" font-size="10.00">::utils::getHomeDirectory</text>
</a>
</g>
</g>
<!-- Node7&#45;&gt;Node8 -->
<g id="edge7_Node000007_Node000008" class="edge">
<title>Node7&#45;&gt;Node8</title>
<g id="a_edge7_Node000007_Node000008"><a xlink:title=" ">
<path fill="none" stroke="#63b8ff" d="M1030.74,-16.75C1050.3,-16.75 1071.97,-16.75 1092.38,-16.75"/>
<polygon fill="#63b8ff" stroke="#63b8ff" points="1092.38,-20.25 1102.38,-16.75 1092.38,-13.25 1092.38,-20.25"/>
</a>
</g>
</g>
<!-- Node8&#45;&gt;Node6 -->
<g id="edge8_Node000008_Node000006" class="edge">
<title>Node8&#45;&gt;Node6</title>
<g id="a_edge8_Node000008_Node000006"><a xlink:title=" ">
<path fill="none" stroke="#63b8ff" d="M1243.64,-25.28C1260.72,-27.4 1278.96,-29.66 1295.82,-31.76"/>
<polygon fill="#63b8ff" stroke="#63b8ff" points="1295.39,-35.23 1305.74,-32.99 1296.25,-28.28 1295.39,-35.23"/>
</a>
</g>
</g>
<!-- Node10 -->
<g id="Node000010" class="node">
<title>Node10</title>
<g id="a_Node000010"><a xlink:href="namespacesteppable_1_1____internals_1_1stringUtils.html#a2600efb348f0dd19cc0068946d06b1b7" target="_top" xlink:title="Splits a string into substrings based on a separator.">
<polygon fill="white" stroke="#666666" points="1235.5,-161.5 1112.25,-161.5 1112.25,-128 1235.5,-128 1235.5,-161.5"/>
<text text-anchor="start" x="1120.25" y="-148" font-family="Helvetica,sans-Serif" font-size="10.00">steppable::__internals</text>
<text text-anchor="middle" x="1173.88" y="-135.25" font-family="Helvetica,sans-Serif" font-size="10.00">::stringUtils::split</text>
</a>
</g>
</g>
<!-- Node9&#45;&gt;Node10 -->
<g id="edge10_Node000009_Node000010" class="edge">
<title>Node9&#45;&gt;Node10</title>
<g id="a_edge10_Node000009_Node000010"><a xlink:title=" ">
<path fill="none" stroke="#63b8ff" d="M1027.91,-144.75C1050.78,-144.75 1076.84,-144.75 1100.5,-144.75"/>
<polygon fill="#63b8ff" stroke="#63b8ff" points="1100.38,-148.25 1110.38,-144.75 1100.38,-141.25 1100.38,-148.25"/>
</a>
</g>
</g>
<!-- Node11&#45;&gt;Node10 -->
<g id="edge19_Node000011_Node000010" class="edge">
<title>Node11&#45;&gt;Node10</title>
<g id="a_edge19_Node000011_Node000010"><a xlink:title=" ">
<path fill="none" stroke="#63b8ff" d="M816.46,-248.54C891.89,-226.58 1022.23,-188.62 1102.65,-165.2"/>
<polygon fill="#63b8ff" stroke="#63b8ff" points="1103.58,-168.58 1112.2,-162.42 1101.62,-161.86 1103.58,-168.58"/>
</a>
</g>
</g>
<!-- Node12 -->
<g id="Node000012" class="node">
<title>Node12</title>
<g id="a_Node000012"><a xlink:href="namespacesteppable_1_1____internals_1_1numUtils.html#a6cc23d8eda7defd591a87a8b1d8b869d" target="_top" xlink:title="Checks if a given string is a zero string.">
<polygon fill="white" stroke="#666666" points="1427,-244.5 1295.5,-244.5 1295.5,-211 1427,-211 1427,-244.5"/>
<text text-anchor="start" x="1303.5" y="-231" font-family="Helvetica,sans-Serif" font-size="10.00">steppable::__internals</text>
<text text-anchor="middle" x="1361.25" y="-218.25" font-family="Helvetica,sans-Serif" font-size="10.00">::numUtils::isZeroString</text>
</a>
</g>
</g>
<!-- Node11&#45;&gt;Node12 -->
<g id="edge12_Node000011_Node000012" class="edge">
<title>Node11&#45;&gt;Node12</title>
<g id="a_edge12_Node000011_Node000012"><a xlink:title=" ">
<path fill="none" stroke="#63b8ff" d="M822.75,-261.63C935.12,-254.55 1164.28,-240.1 1283.83,-232.57"/>
<polygon fill="#63b8ff" stroke="#63b8ff" points="1283.78,-236.08 1293.54,-231.95 1283.34,-229.09 1283.78,-236.08"/>
</a>
</g>
</g>
<!-- Node13 -->
<g id="Node000013" class="node">
<title>Node13</title>
<g id="a_Node000013"><a xlink:href="namespacesteppable_1_1____internals_1_1numUtils.html#a3d4e1e21ccf1afecd766d3152df87212" target="_top" xlink:title=" ">
<polygon fill="white" stroke="#666666" points="1052.25,-469.5 876.5,-469.5 876.5,-436 1052.25,-436 1052.25,-469.5"/>
<text text-anchor="start" x="884.5" y="-456" font-family="Helvetica,sans-Serif" font-size="10.00">steppable::__internals</text>
<text text-anchor="middle" x="964.38" y="-443.25" font-family="Helvetica,sans-Serif" font-size="10.00">::numUtils::removeLeadingZeros</text>
</a>
</g>
</g>
<!-- Node11&#45;&gt;Node13 -->
<g id="edge13_Node000011_Node000013" class="edge">
<title>Node11&#45;&gt;Node13</title>
<g id="a_edge13_Node000011_Node000013"><a xlink:title=" ">
<path fill="none" stroke="#63b8ff" d="M822.88,-278.97C829.42,-282.32 835.48,-286.51 840.5,-291.75 883.47,-336.58 833.26,-382.18 876.5,-426.75 877.12,-427.39 877.75,-428.01 878.39,-428.61"/>
<polygon fill="#63b8ff" stroke="#63b8ff" points="876.25,-431.37 886.29,-434.74 880.53,-425.84 876.25,-431.37"/>
</a>
</g>
</g>
<!-- Node14 -->
<g id="Node000014" class="node">
<title>Node14</title>
<g id="a_Node000014"><a xlink:href="namespacesteppable_1_1____internals_1_1numUtils.html#a5d7e8d74d304a1ac7fc2ad4dbf5b40ae" target="_top" xlink:title=" ">
<polygon fill="white" stroke="#666666" points="1050.75,-327.5 878,-327.5 878,-294 1050.75,-294 1050.75,-327.5"/>
<text text-anchor="start" x="886" y="-314" font-family="Helvetica,sans-Serif" font-size="10.00">steppable::__internals</text>
<text text-anchor="middle" x="964.38" y="-301.25" font-family="Helvetica,sans-Serif" font-size="10.00">::numUtils::removeTrailingZeros</text>
</a>
</g>
</g>
<!-- Node11&#45;&gt;Node14 -->
<g id="edge14_Node000011_Node000014" class="edge">
<title>Node11&#45;&gt;Node14</title>
<g id="a_edge14_Node000011_Node000014"><a xlink:title=" ">
<path fill="none" stroke="#63b8ff" d="M822.84,-280.05C838.98,-283.58 856.54,-287.41 873.61,-291.14"/>
<polygon fill="#63b8ff" stroke="#63b8ff" points="872.74,-294.53 883.26,-293.25 874.24,-287.7 872.74,-294.53"/>
</a>
</g>
</g>
<!-- Node15 -->
<g id="Node000015" class="node">
<title>Node15</title>
<g id="a_Node000015"><a xlink:href="namespacesteppable_1_1____internals_1_1numUtils.html#a4d4ffec10442fd8ab9b778e4ff5168dc" target="_top" xlink:title="Simplifies a string with non&#45;standard polarity (e.g., –1, —1, etc.).">
<polygon fill="white" stroke="#666666" points="1038.75,-417.5 890,-417.5 890,-384 1038.75,-384 1038.75,-417.5"/>
<text text-anchor="start" x="898" y="-404" font-family="Helvetica,sans-Serif" font-size="10.00">steppable::__internals</text>
<text text-anchor="middle" x="964.38" y="-391.25" font-family="Helvetica,sans-Serif" font-size="10.00">::numUtils::simplifyPolarity</text>
</a>
</g>
</g>
<!-- Node11&#45;&gt;Node15 -->
<g id="edge15_Node000011_Node000015" class="edge">
<title>Node11&#45;&gt;Node15</title>
<g id="a_edge15_Node000011_Node000015"><a xlink:title=" ">
<path fill="none" stroke="#63b8ff" d="M822.86,-280.27C829.24,-283.38 835.27,-287.16 840.5,-291.75 869.19,-316.95 848.32,-343.99 876.5,-369.75 879.8,-372.76 883.41,-375.49 887.22,-377.95"/>
<polygon fill="#63b8ff" stroke="#63b8ff" points="885.33,-380.9 895.75,-382.8 888.79,-374.82 885.33,-380.9"/>
</a>
</g>
</g>
<!-- Node16 -->
<g id="Node000016" class="node">
<title>Node16</title>
<g id="a_Node000016"><a xlink:href="namespacesteppable_1_1____internals_1_1numUtils.html#a503084b920a7cfd569d321e04dcb4ae5" target="_top" xlink:title="Simplifies a string that represents a number with non&#45;standard polarity.">
<polygon fill="white" stroke="#666666" points="1259.5,-372.5 1088.25,-372.5 1088.25,-339 1259.5,-339 1259.5,-372.5"/>
<text text-anchor="start" x="1096.25" y="-359" font-family="Helvetica,sans-Serif" font-size="10.00">steppable::__internals</text>
<text text-anchor="middle" x="1173.88" y="-346.25" font-family="Helvetica,sans-Serif" font-size="10.00">::numUtils::simplifyZeroPolarity</text>
</a>
</g>
</g>
<!-- Node11&#45;&gt;Node16 -->
<g id="edge18_Node000011_Node000016" class="edge">
<title>Node11&#45;&gt;Node16</title>
<g id="a_edge18_Node000011_Node000016"><a xlink:title=" ">
<path fill="none" stroke="#63b8ff" d="M822.68,-281.99C828.95,-284.76 835.01,-288 840.5,-291.75 861.64,-306.2 853.78,-324.92 876.5,-336.75 937.74,-368.64 1016.01,-372.36 1076.74,-368.66"/>
<polygon fill="#63b8ff" stroke="#63b8ff" points="1076.62,-372.18 1086.35,-368 1076.13,-365.2 1076.62,-372.18"/>
</a>
</g>
</g>
<!-- Node15&#45;&gt;Node16 -->
<g id="edge16_Node000015_Node000016" class="edge">
<title>Node15&#45;&gt;Node16</title>
<g id="a_edge16_Node000015_Node000016"><a xlink:title=" ">
<path fill="none" stroke="#63b8ff" d="M1039.12,-384.76C1053.13,-381.72 1067.95,-378.51 1082.41,-375.37"/>
<polygon fill="#63b8ff" stroke="#63b8ff" points="1082.88,-378.85 1091.91,-373.31 1081.4,-372.01 1082.88,-378.85"/>
</a>
</g>
</g>
<!-- Node16&#45;&gt;Node12 -->
<g id="edge17_Node000016_Node000012" class="edge">
<title>Node16&#45;&gt;Node12</title>
<g id="a_edge17_Node000016_Node000012"><a xlink:title=" ">
<path fill="none" stroke="#63b8ff" d="M1199.49,-338.75C1232.04,-316.28 1289.54,-276.57 1326.23,-251.24"/>
<polygon fill="#63b8ff" stroke="#63b8ff" points="1328.05,-254.24 1334.29,-245.68 1324.07,-248.48 1328.05,-254.24"/>
</a>
</g>
</g>
<!-- Node17&#45;&gt;Node15 -->
<g id="edge21_Node000017_Node000015" class="edge">
<title>Node17&#45;&gt;Node15</title>
<g id="a_edge21_Node000017_Node000015"><a xlink:title=" ">
<path fill="none" stroke="#63b8ff" d="M807.62,-334.91C818.6,-339.09 830.06,-343.8 840.5,-348.75 857.24,-356.68 859.71,-361.94 876.5,-369.75 883.89,-373.19 891.77,-376.48 899.66,-379.55"/>
<polygon fill="#63b8ff" stroke="#63b8ff" points="898.36,-382.81 908.96,-383.07 900.84,-376.26 898.36,-382.81"/>
</a>
</g>
</g>
<!-- Node18&#45;&gt;Node4 -->
<g id="edge24_Node000018_Node000004" class="edge">
<title>Node18&#45;&gt;Node4</title>
<g id="a_edge24_Node000018_Node000004"><a xlink:title=" ">
<path fill="none" stroke="#63b8ff" d="M317.84,-329.12C373.39,-325.13 447.38,-319.82 501.49,-315.93"/>
<polygon fill="#63b8ff" stroke="#63b8ff" points="501.49,-319.44 511.21,-315.23 500.99,-312.46 501.49,-319.44"/>
</a>
</g>
</g>
<!-- Node18&#45;&gt;Node13 -->
<g id="edge25_Node000018_Node000013" class="edge">
<title>Node18&#45;&gt;Node13</title>
<g id="a_edge25_Node000018_Node000013"><a xlink:title=" ">
<path fill="none" stroke="#63b8ff" d="M318,-347.55C450.88,-369.21 719.79,-413.04 865.02,-436.72"/>
<polygon fill="#63b8ff" stroke="#63b8ff" points="864.19,-440.13 874.62,-438.28 865.32,-433.22 864.19,-440.13"/>
</a>
</g>
</g>
<!-- Node19 -->
<g id="Node000019" class="node">
<title>Node19</title>
<g id="a_Node000019"><a xlink:href="namespacesteppable_1_1____internals_1_1calc.html#a2173185243502a4e962d22b97becdbbb" target="_top" xlink:title="Subtracts one string representation of a number from another string representation of a number.">
<polygon fill="white" stroke="#666666" points="477,-219.5 353.75,-219.5 353.75,-186 477,-186 477,-219.5"/>
<text text-anchor="start" x="361.75" y="-206" font-family="Helvetica,sans-Serif" font-size="10.00">steppable::__internals</text>
<text text-anchor="middle" x="415.38" y="-193.25" font-family="Helvetica,sans-Serif" font-size="10.00">::calc::subtract</text>
</a>
</g>
</g>
<!-- Node18&#45;&gt;Node19 -->
<g id="edge26_Node000018_Node000019" class="edge">
<title>Node18&#45;&gt;Node19</title>
<g id="a_edge26_Node000018_Node000019"><a xlink:title=" ">
<path fill="none" stroke="#63b8ff" d="M262,-317.76C292.74,-294.56 348.01,-252.84 382.86,-226.54"/>
<polygon fill="#63b8ff" stroke="#63b8ff" points="384.6,-229.61 390.47,-220.79 380.38,-224.02 384.6,-229.61"/>
</a>
</g>
</g>
<!-- Node19&#45;&gt;Node4 -->
<g id="edge33_Node000019_Node000004" class="edge">
<title>Node19&#45;&gt;Node4</title>
<g id="a_edge33_Node000019_Node000004"><a xlink:title=" ">
<path fill="none" stroke="#63b8ff" d="M436.86,-219.81C456,-235.41 485.65,-258.74 513,-276.75 518.82,-280.58 525.1,-284.42 531.34,-288.06"/>
<polygon fill="#63b8ff" stroke="#63b8ff" points="529.29,-290.92 539.71,-292.84 532.76,-284.84 529.29,-290.92"/>
</a>
</g>
</g>
<!-- Node19&#45;&gt;Node5 -->
<g id="edge27_Node000019_Node000005" class="edge">
<title>Node19&#45;&gt;Node5</title>
<g id="a_edge27_Node000019_Node000005"><a xlink:title=" ">
<path fill="none" stroke="#63b8ff" d="M475.08,-185.51C487.52,-182.26 500.63,-179.14 513,-176.75 566.72,-166.36 627.9,-159.08 675.35,-154.41"/>
<polygon fill="#63b8ff" stroke="#63b8ff" points="675.67,-157.89 685.29,-153.45 675,-150.92 675.67,-157.89"/>
</a>
</g>
</g>
<!-- Node19&#45;&gt;Node11 -->
<g id="edge35_Node000019_Node000011" class="edge">
<title>Node19&#45;&gt;Node11</title>
<g id="a_edge35_Node000019_Node000011"><a xlink:title=" ">
<path fill="none" stroke="#63b8ff" d="M476.17,-219.95C488.3,-223.13 501.01,-226.23 513,-228.75 568.05,-240.32 630.86,-249.81 678.74,-256.27"/>
<polygon fill="#63b8ff" stroke="#63b8ff" points="678.08,-259.72 688.45,-257.57 679,-252.78 678.08,-259.72"/>
</a>
</g>
</g>
<!-- Node19&#45;&gt;Node12 -->
<g id="edge34_Node000019_Node000012" class="edge">
<title>Node19&#45;&gt;Node12</title>
<g id="a_edge34_Node000019_Node000012"><a xlink:title=" ">
<path fill="none" stroke="#63b8ff" d="M446.03,-185.71C464.75,-175.55 489.71,-163.04 513,-154.75 617.06,-117.69 644.91,-99.75 755.38,-99.75 755.38,-99.75 755.38,-99.75 965.38,-99.75 1096.37,-99.75 1141.24,-62.41 1259.5,-118.75 1296.88,-136.56 1327.02,-174.95 1344.29,-201.07"/>
<polygon fill="#63b8ff" stroke="#63b8ff" points="1341.33,-202.93 1349.66,-209.47 1347.23,-199.16 1341.33,-202.93"/>
</a>
</g>
</g>
<!-- Node19&#45;&gt;Node19 -->
<g id="edge36_Node000019_Node000019" class="edge">
<title>Node19&#45;&gt;Node19</title>
<g id="a_edge36_Node000019_Node000019"><a xlink:title=" ">
<path fill="none" stroke="#63b8ff" d="M386.75,-219.91C381.88,-229.12 391.43,-237.5 415.38,-237.5 428.85,-237.5 437.76,-234.85 442.11,-230.89"/>
<polygon fill="#63b8ff" stroke="#63b8ff" points="445.5,-231.85 443.75,-221.41 438.6,-230.67 445.5,-231.85"/>
</a>
</g>
</g>
<!-- Node20 -->
<g id="Node000020" class="node">
<title>Node20</title>
<g id="a_Node000020"><a xlink:href="namespacesteppable_1_1____internals_1_1calc.html#a8ee74a3b901b7b3f12f0391a0d2be7b8" target="_top" xlink:title="Adds two string representations of numbers, and performs with the column method.">
<polygon fill="white" stroke="#666666" points="636.25,-219.5 513,-219.5 513,-186 636.25,-186 636.25,-219.5"/>
<text text-anchor="start" x="521" y="-206" font-family="Helvetica,sans-Serif" font-size="10.00">steppable::__internals</text>
<text text-anchor="middle" x="574.62" y="-193.25" font-family="Helvetica,sans-Serif" font-size="10.00">::calc::add</text>
</a>
</g>
</g>
<!-- Node19&#45;&gt;Node20 -->
<g id="edge28_Node000019_Node000020" class="edge">
<title>Node19&#45;&gt;Node20</title>
<g id="a_edge28_Node000019_Node000020"><a xlink:title=" ">
<path fill="none" stroke="#63b8ff" d="M477.17,-196.16C485.1,-196.02 493.29,-195.97 501.38,-196.02"/>
<polygon fill="#63b8ff" stroke="#63b8ff" points="501.18,-199.52 511.22,-196.14 501.26,-192.52 501.18,-199.52"/>
</a>
</g>
</g>
<!-- Node20&#45;&gt;Node5 -->
<g id="edge29_Node000020_Node000005" class="edge">
<title>Node20&#45;&gt;Node5</title>
<g id="a_edge29_Node000020_Node000005"><a xlink:title=" ">
<path fill="none" stroke="#63b8ff" d="M631.51,-185.65C656.42,-178.03 685.42,-169.15 709.09,-161.91"/>
<polygon fill="#63b8ff" stroke="#63b8ff" points="709.92,-165.32 718.46,-159.05 707.87,-158.63 709.92,-165.32"/>
</a>
</g>
</g>
<!-- Node20&#45;&gt;Node11 -->
<g id="edge31_Node000020_Node000011" class="edge">
<title>Node20&#45;&gt;Node11</title>
<g id="a_edge31_Node000020_Node000011"><a xlink:title=" ">
<path fill="none" stroke="#63b8ff" d="M624.74,-219.97C646.64,-227.64 672.63,-236.75 695.64,-244.81"/>
<polygon fill="#63b8ff" stroke="#63b8ff" points="694.29,-248.05 704.89,-248.06 696.61,-241.44 694.29,-248.05"/>
</a>
</g>
</g>
<!-- Node20&#45;&gt;Node12 -->
<g id="edge30_Node000020_Node000012" class="edge">
<title>Node20&#45;&gt;Node12</title>
<g id="a_edge30_Node000020_Node000012"><a xlink:title=" ">
<path fill="none" stroke="#63b8ff" d="M636.54,-204.69C778.01,-209.2 1128.56,-220.37 1283.97,-225.32"/>
<polygon fill="#63b8ff" stroke="#63b8ff" points="1283.65,-228.81 1293.75,-225.63 1283.87,-221.81 1283.65,-228.81"/>
</a>
</g>
</g>
<!-- Node20&#45;&gt;Node19 -->
<g id="edge32_Node000020_Node000019" class="edge">
<title>Node20&#45;&gt;Node19</title>
<g id="a_edge32_Node000020_Node000019"><a xlink:title=" ">
<path fill="none" stroke="#63b8ff" d="M512.73,-209.35C504.8,-209.49 496.61,-209.53 488.52,-209.48"/>
<polygon fill="#63b8ff" stroke="#63b8ff" points="488.73,-205.98 478.69,-209.36 488.64,-212.98 488.73,-205.98"/>
</a>
</g>
</g>
</g>
</svg>

<g id="navigator" transform="translate(0 0)" fill="#404254">
  <rect fill="#f2f5e9" fill-opacity="0.5" stroke="#606060" stroke-width=".5" x="0" y="0" width="60" height="60"/>
  <use id="zoomplus" xlink:href="#zoomPlus" x="17" y="9" onmousedown="handleZoom(evt,'in')"/>
  <use id="zoomminus" xlink:href="#zoomMin" x="42" y="9" onmousedown="handleZoom(evt,'out')"/>
  <use id="reset" xlink:href="#resetDef" x="30" y="36" onmousedown="handleReset()"/>
   <use id="arrowup" xlink:href="#arrowUp" x="0" y="0" onmousedown="handlePan(0,-1)"/>
  <use id="arrowright" xlink:href="#arrowRight" x="0" y="0" onmousedown="handlePan(1,0)"/>
  <use id="arrowdown" xlink:href="#arrowDown" x="0" y="0" onmousedown="handlePan(0,1)"/>
  <use id="arrowleft" xlink:href="#arrowLeft" x="0" y="0" onmousedown="handlePan(-1,0)"/>
</g>
<svg viewBox="0 0 15 15" width="100%" height="30px" preserveAspectRatio="xMaxYMin meet">
 <g id="arrow_out" transform="scale(0.3 0.3)">
  <a xlink:href="namespacesteppable_1_1____internals_1_1calc_a92f460e668412aacfbdb59e6a4266310_cgraph_org.svg" target="_base">
   <rect id="button" ry="5" rx="5" y="6" x="6" height="38" width="38"
        fill="#f2f5e9" fill-opacity="0.5" stroke="#606060" stroke-width="1.0"/>
   <path id="arrow"
     d="M 11.500037,31.436501 C 11.940474,20.09759 22.043105,11.32322 32.158766,21.979434 L 37.068811,17.246167 C 37.068811,17.246167 37.088388,32 37.088388,32 L 22.160133,31.978069 C 22.160133,31.978069 26.997745,27.140456 26.997745,27.140456 C 18.528582,18.264221 13.291696,25.230495 11.500037,31.436501 z"
     style="fill:#404040;"/>
  </a>
 </g>
</svg>

<style type='text/css'>
<![CDATA[
[data-mouse-over-selected='false'] { opacity: 0.7; }
[data-mouse-over-selected='true']  { opacity: 1.0; }
]]>
</style>
<script type="application/ecmascript"><![CDATA[
document.addEventListener('DOMContentLoaded', (event) => {
  highlightEdges();
  highlightAdjacentNodes();
});
]]></script>
</svg>
