<?xml version="1.0" encoding="UTF-8" standalone="no"?>
<!DOCTYPE svg PUBLIC "-//W3C//DTD SVG 1.1//EN"
 "http://www.w3.org/Graphics/SVG/1.1/DTD/svg11.dtd">
<!-- Generated by graphviz version 12.0.0 (20240704.0754)
 -->
<!-- Title: ImGui::UpdateDebugToolStackQueries Pages: 1 -->
<svg width="481pt" height="68pt"
 viewBox="0.00 0.00 480.50 67.75" xmlns="http://www.w3.org/2000/svg" xmlns:xlink="http://www.w3.org/1999/xlink">
<g id="graph0" class="graph" transform="scale(1 1) rotate(0) translate(4 63.75)">
<title>ImGui::UpdateDebugToolStackQueries</title>
<!-- Node1 -->
<g id="Node000001" class="node">
<title>Node1</title>
<g id="a_Node000001"><a xlink:title=" ">
<polygon fill="#999999" stroke="#666666" points="164.5,-46.12 0,-46.12 0,-12.62 164.5,-12.62 164.5,-46.12"/>
<text text-anchor="start" x="8" y="-32.62" font-family="Helvetica,sans-Serif" font-size="10.00">ImGui::UpdateDebugToolStack</text>
<text text-anchor="middle" x="82.25" y="-19.88" font-family="Helvetica,sans-Serif" font-size="10.00">Queries</text>
</a>
</g>
</g>
<!-- Node2 -->
<g id="Node000002" class="node">
<title>Node2</title>
<g id="a_Node000002"><a xlink:href="structImVector.html#ac371dd62e56ae486b1a5038cf07eee56" target="_top" xlink:title=" ">
<polygon fill="white" stroke="#666666" points="295.25,-39.75 200.5,-39.75 200.5,-19 295.25,-19 295.25,-39.75"/>
<text text-anchor="middle" x="247.88" y="-26.25" font-family="Helvetica,sans-Serif" font-size="10.00">ImVector::resize</text>
</a>
</g>
</g>
<!-- Node1&#45;&gt;Node2 -->
<g id="edge1_Node000001_Node000002" class="edge">
<title>Node1&#45;&gt;Node2</title>
<g id="a_edge1_Node000001_Node000002"><a xlink:title=" ">
<path fill="none" stroke="#63b8ff" d="M164.58,-29.38C172.77,-29.38 180.97,-29.38 188.85,-29.38"/>
<polygon fill="#63b8ff" stroke="#63b8ff" points="188.6,-32.88 198.6,-29.38 188.6,-25.88 188.6,-32.88"/>
</a>
</g>
</g>
<!-- Node3 -->
<g id="Node000003" class="node">
<title>Node3</title>
<g id="a_Node000003"><a xlink:href="structImVector.html#a3a097635d464b1b70dc7d59996a88b28" target="_top" xlink:title=" ">
<polygon fill="white" stroke="#666666" points="472.5,-59.75 331.25,-59.75 331.25,-39 472.5,-39 472.5,-59.75"/>
<text text-anchor="middle" x="401.88" y="-46.25" font-family="Helvetica,sans-Serif" font-size="10.00">ImVector::_grow_capacity</text>
</a>
</g>
</g>
<!-- Node2&#45;&gt;Node3 -->
<g id="edge2_Node000002_Node000003" class="edge">
<title>Node2&#45;&gt;Node3</title>
<g id="a_edge2_Node000002_Node000003"><a xlink:title=" ">
<path fill="none" stroke="#63b8ff" d="M295.72,-35.54C303.4,-36.55 311.54,-37.62 319.76,-38.7"/>
<polygon fill="#63b8ff" stroke="#63b8ff" points="319.12,-42.15 329.49,-39.98 320.03,-35.21 319.12,-42.15"/>
</a>
</g>
</g>
<!-- Node4 -->
<g id="Node000004" class="node">
<title>Node4</title>
<g id="a_Node000004"><a xlink:href="structImVector.html#a0f14f5736c3372157856eebb67123b75" target="_top" xlink:title=" ">
<polygon fill="white" stroke="#666666" points="453,-20.75 350.75,-20.75 350.75,0 453,0 453,-20.75"/>
<text text-anchor="middle" x="401.88" y="-7.25" font-family="Helvetica,sans-Serif" font-size="10.00">ImVector::reserve</text>
</a>
</g>
</g>
<!-- Node2&#45;&gt;Node4 -->
<g id="edge3_Node000002_Node000004" class="edge">
<title>Node2&#45;&gt;Node4</title>
<g id="a_edge3_Node000002_Node000004"><a xlink:title=" ">
<path fill="none" stroke="#63b8ff" d="M295.72,-23.52C309.42,-21.81 324.6,-19.91 339.08,-18.1"/>
<polygon fill="#63b8ff" stroke="#63b8ff" points="339.5,-21.57 348.99,-16.86 338.63,-14.63 339.5,-21.57"/>
</a>
</g>
</g>
</g>
</svg>
