<?xml version="1.0" encoding="UTF-8" standalone="no"?>
<!DOCTYPE svg PUBLIC "-//W3C//DTD SVG 1.1//EN"
 "http://www.w3.org/Graphics/SVG/1.1/DTD/svg11.dtd">
<!-- Generated by graphviz version 12.0.0 (20240704.0754)
 -->
<!-- Title: ImGui::SetItemTooltip Pages: 1 -->
<!--zoomable 430 -->

<svg id="main" version="1.1" xmlns="http://www.w3.org/2000/svg" xmlns:xlink="http://www.w3.org/1999/xlink" xml:space="preserve" onload="init(evt)">
<style type="text/css"><![CDATA[
.node, .edge {opacity: 0.7;}
.node.selected, .edge.selected {opacity: 1;}
.edge:hover path { stroke: red; }
.edge:hover polygon { stroke: red; fill: red; }
]]></style>

<defs>
  <circle id="rim" cx="0" cy="0" r="7"/>
  <circle id="rim2" cx="0" cy="0" r="3.5"/>
  <g id="zoomPlus">
    <use xlink:href="#rim" fill="#404040"><set attributeName="fill" to="#808080" begin="zoomplus.mouseover" end="zoomplus.mouseout"/></use>
    <path d="M-4,0h8M0,-4v8" fill="none" stroke="white" stroke-width="1.5" pointer-events="none"/>
  </g>
  <g id="zoomMin">
    <use xlink:href="#rim" fill="#404040"><set attributeName="fill" to="#808080" begin="zoomminus.mouseover" end="zoomminus.mouseout"/></use>
    <path d="M-4,0h8" fill="none" stroke="white" stroke-width="1.5" pointer-events="none"/>
  </g>
  <g id="arrowUp" transform="translate(30 24)">
    <use xlink:href="#rim"/>
    <path pointer-events="none" fill="none" stroke="white" stroke-width="1.5" d="M0,-3.0v7 M-2.5,-0.5L0,-3.0L2.5,-0.5"/>
  </g>
  <g id="arrowRight" transform="rotate(90) translate(36 -43)">
    <use xlink:href="#rim"/>
    <path pointer-events="none" fill="none" stroke="white" stroke-width="1.5" d="M0,-3.0v7 M-2.5,-0.5L0,-3.0L2.5,-0.5"/>
  </g>
  <g id="arrowDown" transform="rotate(180) translate(-30 -48)">
    <use xlink:href="#rim"/>
    <path pointer-events="none" fill="none" stroke="white" stroke-width="1.5" d="M0,-3.0v7 M-2.5,-0.5L0,-3.0L2.5,-0.5"/>
  </g>
  <g id="arrowLeft" transform="rotate(270) translate(-36 17)">
    <use xlink:href="#rim"/>
    <path pointer-events="none" fill="none" stroke="white" stroke-width="1.5" d="M0,-3.0v7 M-2.5,-0.5L0,-3.0L2.5,-0.5"/>
  </g>
  <g id="resetDef">
    <use xlink:href="#rim2" fill="#404040"><set attributeName="fill" to="#808080" begin="reset.mouseover" end="reset.mouseout"/></use>
  </g>
</defs>
<script type="application/ecmascript">
var viewWidth = 1104;
var viewHeight = 430;
var sectionId = 'dynsection-998';
</script>
<script type="application/ecmascript" xlink:href="svg.min.js"/>
<svg id="graph" class="graph">
<g id="viewport">
<title>ImGui::SetItemTooltip</title>
<!-- Node1 -->
<g id="Node000001" class="node">
<title>Node1</title>
<g id="a_Node000001"><a xlink:title=" ">
<polygon fill="#999999" stroke="#666666" points="1095.75,-315.75 974,-315.75 974,-295 1095.75,-295 1095.75,-315.75"/>
<text text-anchor="middle" x="1034.88" y="-302.25" font-family="Helvetica,sans-Serif" font-size="10.00">ImGui::SetItemTooltip</text>
</a>
</g>
</g>
<!-- Node2 -->
<g id="Node000002" class="node">
<title>Node2</title>
<g id="a_Node000002"><a xlink:href="namespaceImGui.html#af1b39e70cac2e1b9e62dd3c9d154cbd6" target="_top" xlink:title=" ">
<polygon fill="white" stroke="#666666" points="580.12,-392.75 414.88,-392.75 414.88,-372 580.12,-372 580.12,-392.75"/>
<text text-anchor="middle" x="497.5" y="-379.25" font-family="Helvetica,sans-Serif" font-size="10.00">ImGui::ShowDebugLogWindow</text>
</a>
</g>
</g>
<!-- Node1&#45;&gt;Node2 -->
<g id="edge1_Node000001_Node000002" class="edge">
<title>Node1&#45;&gt;Node2</title>
<g id="a_edge1_Node000001_Node000002"><a xlink:title=" ">
<path fill="none" stroke="#63b8ff" d="M1010.1,-322.52C991.47,-334.93 964.37,-350.8 938,-358.38 817.18,-393.09 670.16,-393.1 580.5,-388.67"/>
<polygon fill="#63b8ff" stroke="#63b8ff" points="1012.01,-325.45 1018.27,-316.91 1008.05,-319.68 1012.01,-325.45"/>
</a>
</g>
</g>
<!-- Node3 -->
<g id="Node000003" class="node">
<title>Node3</title>
<g id="a_Node000003"><a xlink:href="namespaceImGui.html#af95643a0ce4893b9e57c12991922fb18" target="_top" xlink:title=" ">
<polygon fill="white" stroke="#666666" points="158.88,-316.75 13.12,-316.75 13.12,-296 158.88,-296 158.88,-316.75"/>
<text text-anchor="middle" x="86" y="-303.25" font-family="Helvetica,sans-Serif" font-size="10.00">ImGui::ShowDemoWindow</text>
</a>
</g>
</g>
<!-- Node1&#45;&gt;Node3 -->
<g id="edge5_Node000001_Node000003" class="edge">
<title>Node1&#45;&gt;Node3</title>
<g id="a_edge5_Node000001_Node000003"><a xlink:title=" ">
<path fill="none" stroke="#63b8ff" d="M1016.71,-324.19C998.9,-342.45 969.31,-369.37 938,-383.38 842.74,-425.99 810.48,-420.38 706.12,-420.38 706.12,-420.38 706.12,-420.38 496.5,-420.38 367.44,-420.38 329.15,-431.86 208,-387.38 163.39,-370.99 119.04,-334.99 98.63,-317.02"/>
<polygon fill="#63b8ff" stroke="#63b8ff" points="1019.07,-326.79 1023.42,-317.12 1014,-321.97 1019.07,-326.79"/>
</a>
</g>
</g>
<!-- Node4 -->
<g id="Node000004" class="node">
<title>Node4</title>
<g id="a_Node000004"><a xlink:href="namespaceImGui.html#afe7a28c6eb52fff3cc27d5a698fea4ff" target="_top" xlink:title=" ">
<polygon fill="white" stroke="#666666" points="367.62,-354.75 215.12,-354.75 215.12,-334 367.62,-334 367.62,-354.75"/>
<text text-anchor="middle" x="291.38" y="-341.25" font-family="Helvetica,sans-Serif" font-size="10.00">ImGui::ShowMetricsWindow</text>
</a>
</g>
</g>
<!-- Node1&#45;&gt;Node4 -->
<g id="edge6_Node000001_Node000004" class="edge">
<title>Node1&#45;&gt;Node4</title>
<g id="a_edge6_Node000001_Node000004"><a xlink:title=" ">
<path fill="none" stroke="#63b8ff" d="M976.06,-318.43C963.57,-320.8 950.39,-322.96 938,-324.38 732.7,-347.74 488.48,-347.83 367.71,-346.05"/>
<polygon fill="#63b8ff" stroke="#63b8ff" points="976.69,-321.87 985.82,-316.5 975.33,-315 976.69,-321.87"/>
</a>
</g>
</g>
<!-- Node5 -->
<g id="Node000005" class="node">
<title>Node5</title>
<g id="a_Node000005"><a xlink:href="namespaceImGui.html#ab2eb3dec78d054fe3feab1c091ec5de5" target="_top" xlink:title=" ">
<polygon fill="white" stroke="#666666" points="562.88,-158.75 432.12,-158.75 432.12,-138 562.88,-138 562.88,-158.75"/>
<text text-anchor="middle" x="497.5" y="-145.25" font-family="Helvetica,sans-Serif" font-size="10.00">ImGui::ShowStyleEditor</text>
</a>
</g>
</g>
<!-- Node1&#45;&gt;Node5 -->
<g id="edge7_Node000001_Node000005" class="edge">
<title>Node1&#45;&gt;Node5</title>
<g id="a_edge7_Node000001_Node000005"><a xlink:title=" ">
<path fill="none" stroke="#63b8ff" d="M971.89,-292.21C873.19,-270.97 684.85,-229.21 620.25,-206.38 582.72,-193.11 541.35,-171.89 517.78,-159.12"/>
<polygon fill="#63b8ff" stroke="#63b8ff" points="970.9,-295.58 981.41,-294.26 972.37,-288.73 970.9,-295.58"/>
</a>
</g>
</g>
<!-- Node6 -->
<g id="Node000006" class="node">
<title>Node6</title>
<g id="a_Node000006"><a xlink:href="namespaceImGui.html#a4e0986fc689e7855cd9a9099dc87dac5" target="_top" xlink:title=" ">
<polygon fill="white" stroke="#666666" points="933.12,-178.75 830.88,-178.75 830.88,-158 933.12,-158 933.12,-178.75"/>
<text text-anchor="middle" x="882" y="-165.25" font-family="Helvetica,sans-Serif" font-size="10.00">ImGui::TabItemEx</text>
</a>
</g>
</g>
<!-- Node1&#45;&gt;Node6 -->
<g id="edge9_Node000001_Node000006" class="edge">
<title>Node1&#45;&gt;Node6</title>
<g id="a_edge9_Node000001_Node000006"><a xlink:title=" ">
<path fill="none" stroke="#63b8ff" d="M1015.09,-286.49C996.06,-267.57 965.57,-237.81 938,-213.38 924.34,-201.26 908.09,-188.12 896.81,-179.18"/>
<polygon fill="#63b8ff" stroke="#63b8ff" points="1012.59,-288.94 1022.14,-293.53 1017.54,-283.99 1012.59,-288.94"/>
</a>
</g>
</g>
<!-- Node16 -->
<g id="Node000016" class="node">
<title>Node16</title>
<g id="a_Node000016"><a xlink:href="namespaceImGui.html#ae51bc07bc518779f58def3c0e2d0045c" target="_top" xlink:title=" ">
<polygon fill="white" stroke="#666666" points="938,-315.75 826,-315.75 826,-295 938,-295 938,-315.75"/>
<text text-anchor="middle" x="882" y="-302.25" font-family="Helvetica,sans-Serif" font-size="10.00">ImGui::TableHeader</text>
</a>
</g>
</g>
<!-- Node1&#45;&gt;Node16 -->
<g id="edge21_Node000001_Node000016" class="edge">
<title>Node1&#45;&gt;Node16</title>
<g id="a_edge21_Node000001_Node000016"><a xlink:title=" ">
<path fill="none" stroke="#63b8ff" d="M962.48,-305.38C954.41,-305.38 946.27,-305.38 938.45,-305.38"/>
<polygon fill="#63b8ff" stroke="#63b8ff" points="962.3,-308.88 972.3,-305.38 962.3,-301.88 962.3,-308.88"/>
</a>
</g>
</g>
<!-- Node21 -->
<g id="Node000021" class="node">
<title>Node21</title>
<g id="a_Node000021"><a xlink:href="namespaceImGui.html#a6635413c896caed9487e51c772525ca4" target="_top" xlink:title=" ">
<polygon fill="white" stroke="#666666" points="565.88,-222.75 429.12,-222.75 429.12,-202 565.88,-202 565.88,-222.75"/>
<text text-anchor="middle" x="497.5" y="-209.25" font-family="Helvetica,sans-Serif" font-size="10.00">ImGui::TextLinkOpenURL</text>
</a>
</g>
</g>
<!-- Node1&#45;&gt;Node21 -->
<g id="edge30_Node000001_Node000021" class="edge">
<title>Node1&#45;&gt;Node21</title>
<g id="a_edge30_Node000001_Node000021"><a xlink:title=" ">
<path fill="none" stroke="#63b8ff" d="M969.43,-292.34C958.94,-290.29 948.17,-288.24 938,-286.38 806.71,-262.32 652.8,-237.08 566.37,-223.18"/>
<polygon fill="#63b8ff" stroke="#63b8ff" points="968.71,-295.76 979.19,-294.26 970.06,-288.9 968.71,-295.76"/>
</a>
</g>
</g>
<!-- Node2&#45;&gt;Node3 -->
<g id="edge2_Node000002_Node000003" class="edge">
<title>Node2&#45;&gt;Node3</title>
<g id="a_edge2_Node000002_Node000003"><a xlink:title=" ">
<path fill="none" stroke="#63b8ff" d="M403.18,-384.98C346,-384.44 271.78,-379.87 208,-363.38 168.88,-353.26 127.04,-330.56 104.25,-317.06"/>
<polygon fill="#63b8ff" stroke="#63b8ff" points="402.85,-388.48 412.87,-385.03 402.89,-381.48 402.85,-388.48"/>
</a>
</g>
</g>
<!-- Node2&#45;&gt;Node4 -->
<g id="edge3_Node000002_Node000004" class="edge">
<title>Node2&#45;&gt;Node4</title>
<g id="a_edge3_Node000002_Node000004"><a xlink:title=" ">
<path fill="none" stroke="#63b8ff" d="M427.09,-369.45C402.23,-364.83 374.49,-359.66 350.67,-355.23"/>
<polygon fill="#63b8ff" stroke="#63b8ff" points="426.32,-372.87 436.79,-371.26 427.6,-365.99 426.32,-372.87"/>
</a>
</g>
</g>
<!-- Node4&#45;&gt;Node3 -->
<g id="edge4_Node000004_Node000003" class="edge">
<title>Node4&#45;&gt;Node3</title>
<g id="a_edge4_Node000004_Node000003"><a xlink:title=" ">
<path fill="none" stroke="#63b8ff" d="M221.22,-331.45C196.45,-326.83 168.81,-321.66 145.08,-317.23"/>
<polygon fill="#63b8ff" stroke="#63b8ff" points="220.41,-334.86 230.88,-333.26 221.69,-327.98 220.41,-334.86"/>
</a>
</g>
</g>
<!-- Node5&#45;&gt;Node3 -->
<g id="edge8_Node000005_Node000003" class="edge">
<title>Node5&#45;&gt;Node3</title>
<g id="a_edge8_Node000005_Node000003"><a xlink:title=" ">
<path fill="none" stroke="#63b8ff" d="M435.73,-135.62C374.78,-125.98 279.92,-119.77 208,-155.38 145.38,-186.38 104.64,-266.69 91.56,-295.71"/>
<polygon fill="#63b8ff" stroke="#63b8ff" points="435.14,-139.07 445.58,-137.26 436.29,-132.16 435.14,-139.07"/>
</a>
</g>
</g>
<!-- Node7 -->
<g id="Node000007" class="node">
<title>Node7</title>
<g id="a_Node000007"><a xlink:href="namespaceImGui.html#a4cee1ccc9018a298cfff90a704bde8ca" target="_top" xlink:title=" ">
<polygon fill="white" stroke="#666666" points="764.12,-158.75 646.12,-158.75 646.12,-138 764.12,-138 764.12,-158.75"/>
<text text-anchor="middle" x="705.12" y="-145.25" font-family="Helvetica,sans-Serif" font-size="10.00">ImGui::BeginTabItem</text>
</a>
</g>
</g>
<!-- Node6&#45;&gt;Node7 -->
<g id="edge10_Node000006_Node000007" class="edge">
<title>Node6&#45;&gt;Node7</title>
<g id="a_edge10_Node000006_Node000007"><a xlink:title=" ">
<path fill="none" stroke="#63b8ff" d="M819.04,-161.29C801.33,-159.26 782.1,-157.06 764.61,-155.06"/>
<polygon fill="#63b8ff" stroke="#63b8ff" points="818.58,-164.76 828.92,-162.42 819.38,-157.8 818.58,-164.76"/>
</a>
</g>
</g>
<!-- Node8 -->
<g id="Node000008" class="node">
<title>Node8</title>
<g id="a_Node000008"><a xlink:href="namespaceImGui.html#a4b4e1fb0487e571a4a04fb5b2274189e" target="_top" xlink:title=" ">
<polygon fill="white" stroke="#666666" points="790,-110.75 620.25,-110.75 620.25,-90 790,-90 790,-110.75"/>
<text text-anchor="middle" x="705.12" y="-97.25" font-family="Helvetica,sans-Serif" font-size="10.00">ImGui::DockNodeUpdateTabBar</text>
</a>
</g>
</g>
<!-- Node6&#45;&gt;Node8 -->
<g id="edge12_Node000006_Node000008" class="edge">
<title>Node6&#45;&gt;Node8</title>
<g id="a_edge12_Node000006_Node000008"><a xlink:title=" ">
<path fill="none" stroke="#63b8ff" d="M846.72,-152.99C829.77,-145.56 808.94,-136.7 790,-129.38 773.33,-122.93 754.55,-116.37 738.99,-111.13"/>
<polygon fill="#63b8ff" stroke="#63b8ff" points="845.3,-156.19 855.86,-157.03 848.12,-149.79 845.3,-156.19"/>
</a>
</g>
</g>
<!-- Node15 -->
<g id="Node000015" class="node">
<title>Node15</title>
<g id="a_Node000015"><a xlink:href="namespaceImGui.html#a1dbc539ac5b49e9445c4573607e6d60d" target="_top" xlink:title=" ">
<polygon fill="white" stroke="#666666" points="766.38,-197.75 643.88,-197.75 643.88,-177 766.38,-177 766.38,-197.75"/>
<text text-anchor="middle" x="705.12" y="-184.25" font-family="Helvetica,sans-Serif" font-size="10.00">ImGui::TabItemButton</text>
</a>
</g>
</g>
<!-- Node6&#45;&gt;Node15 -->
<g id="edge20_Node000006_Node000015" class="edge">
<title>Node6&#45;&gt;Node15</title>
<g id="a_edge20_Node000006_Node000015"><a xlink:title=" ">
<path fill="none" stroke="#63b8ff" d="M819.44,-175.06C802.36,-176.92 783.84,-178.93 766.81,-180.78"/>
<polygon fill="#63b8ff" stroke="#63b8ff" points="819.35,-178.59 828.91,-174.03 818.59,-171.63 819.35,-178.59"/>
</a>
</g>
</g>
<!-- Node7&#45;&gt;Node5 -->
<g id="edge11_Node000007_Node000005" class="edge">
<title>Node7&#45;&gt;Node5</title>
<g id="a_edge11_Node000007_Node000005"><a xlink:title=" ">
<path fill="none" stroke="#63b8ff" d="M634.32,-148.38C611.29,-148.38 585.79,-148.38 563.16,-148.38"/>
<polygon fill="#63b8ff" stroke="#63b8ff" points="634.24,-151.88 644.24,-148.38 634.24,-144.88 634.24,-151.88"/>
</a>
</g>
</g>
<!-- Node9 -->
<g id="Node000009" class="node">
<title>Node9</title>
<g id="a_Node000009"><a xlink:href="namespaceImGui.html#a526230d8de99b07ff2b2992c192ce212" target="_top" xlink:title=" ">
<polygon fill="white" stroke="#666666" points="565.88,-101.75 429.12,-101.75 429.12,-81 565.88,-81 565.88,-101.75"/>
<text text-anchor="middle" x="497.5" y="-88.25" font-family="Helvetica,sans-Serif" font-size="10.00">ImGui::DockNodeUpdate</text>
</a>
</g>
</g>
<!-- Node8&#45;&gt;Node9 -->
<g id="edge13_Node000008_Node000009" class="edge">
<title>Node8&#45;&gt;Node9</title>
<g id="a_edge13_Node000008_Node000009"><a xlink:title=" ">
<path fill="none" stroke="#63b8ff" d="M608.51,-96.19C594.25,-95.57 579.79,-94.93 566.26,-94.34"/>
<polygon fill="#63b8ff" stroke="#63b8ff" points="608.24,-99.68 618.38,-96.62 608.55,-92.69 608.24,-99.68"/>
</a>
</g>
</g>
<!-- Node9&#45;&gt;Node9 -->
<g id="edge16_Node000009_Node000009" class="edge">
<title>Node9&#45;&gt;Node9</title>
<g id="a_edge16_Node000009_Node000009"><a xlink:title=" ">
<path fill="none" stroke="#63b8ff" d="M533.77,-113.24C528.96,-117.08 516.87,-119.75 497.5,-119.75 462.07,-119.75 451,-110.81 464.29,-102.15"/>
<polygon fill="#63b8ff" stroke="#63b8ff" points="537.15,-112.32 531.12,-103.61 530.4,-114.18 537.15,-112.32"/>
</a>
</g>
</g>
<!-- Node10 -->
<g id="Node000010" class="node">
<title>Node10</title>
<g id="a_Node000010"><a xlink:href="namespaceImGui.html#a3fd836d2bd3163537d1c36607e93ed6d" target="_top" xlink:title=" ">
<polygon fill="white" stroke="#666666" points="374.75,-108.12 208,-108.12 208,-74.62 374.75,-74.62 374.75,-108.12"/>
<text text-anchor="start" x="216" y="-94.62" font-family="Helvetica,sans-Serif" font-size="10.00">ImGui::DockContextNewFrame</text>
<text text-anchor="middle" x="291.38" y="-81.88" font-family="Helvetica,sans-Serif" font-size="10.00">UpdateDocking</text>
</a>
</g>
</g>
<!-- Node9&#45;&gt;Node10 -->
<g id="edge14_Node000009_Node000010" class="edge">
<title>Node9&#45;&gt;Node10</title>
<g id="a_edge14_Node000009_Node000010"><a xlink:title=" ">
<path fill="none" stroke="#63b8ff" d="M417.35,-91.38C403.52,-91.38 389.09,-91.38 375.16,-91.38"/>
<polygon fill="#63b8ff" stroke="#63b8ff" points="417.3,-94.88 427.3,-91.38 417.3,-87.88 417.3,-94.88"/>
</a>
</g>
</g>
<!-- Node12 -->
<g id="Node000012" class="node">
<title>Node12</title>
<g id="a_Node000012"><a xlink:href="namespaceImGui.html#a3d9d26cbb99a95938979a3ca3e211f92" target="_top" xlink:title=" ">
<polygon fill="white" stroke="#666666" points="344,-56.75 238.75,-56.75 238.75,-36 344,-36 344,-56.75"/>
<text text-anchor="middle" x="291.38" y="-43.25" font-family="Helvetica,sans-Serif" font-size="10.00">ImGui::DockSpace</text>
</a>
</g>
</g>
<!-- Node9&#45;&gt;Node12 -->
<g id="edge17_Node000009_Node000012" class="edge">
<title>Node9&#45;&gt;Node12</title>
<g id="a_edge17_Node000009_Node000012"><a xlink:title=" ">
<path fill="none" stroke="#63b8ff" d="M436.5,-78.15C406.25,-71.48 370.02,-63.49 341.45,-57.19"/>
<polygon fill="#63b8ff" stroke="#63b8ff" points="435.35,-81.48 445.87,-80.21 436.86,-74.64 435.35,-81.48"/>
</a>
</g>
</g>
<!-- Node11 -->
<g id="Node000011" class="node">
<title>Node11</title>
<g id="a_Node000011"><a xlink:href="namespaceImGui.html#ab3f1fc018f903b7ad79fd10663375774" target="_top" xlink:title=" ">
<polygon fill="white" stroke="#666666" points="137.88,-101.75 34.12,-101.75 34.12,-81 137.88,-81 137.88,-101.75"/>
<text text-anchor="middle" x="86" y="-88.25" font-family="Helvetica,sans-Serif" font-size="10.00">ImGui::NewFrame</text>
</a>
</g>
</g>
<!-- Node10&#45;&gt;Node11 -->
<g id="edge15_Node000010_Node000011" class="edge">
<title>Node10&#45;&gt;Node11</title>
<g id="a_edge15_Node000010_Node000011"><a xlink:title=" ">
<path fill="none" stroke="#63b8ff" d="M196.26,-91.38C176.23,-91.38 155.81,-91.38 138.12,-91.38"/>
<polygon fill="#63b8ff" stroke="#63b8ff" points="196.14,-94.88 206.14,-91.38 196.14,-87.88 196.14,-94.88"/>
</a>
</g>
</g>
<!-- Node13 -->
<g id="Node000013" class="node">
<title>Node13</title>
<g id="a_Node000013"><a xlink:href="namespaceImGui.html#a941b7d9d1f491f778796221031b5e439" target="_top" xlink:title=" ">
<polygon fill="white" stroke="#666666" points="163.38,-59.75 8.62,-59.75 8.62,-39 163.38,-39 163.38,-59.75"/>
<text text-anchor="middle" x="86" y="-46.25" font-family="Helvetica,sans-Serif" font-size="10.00">ImGui::DockBuilderAddNode</text>
</a>
</g>
</g>
<!-- Node12&#45;&gt;Node13 -->
<g id="edge18_Node000012_Node000013" class="edge">
<title>Node12&#45;&gt;Node13</title>
<g id="a_edge18_Node000012_Node000013"><a xlink:title=" ">
<path fill="none" stroke="#63b8ff" d="M226.76,-47.31C206.72,-47.61 184.38,-47.94 163.54,-48.25"/>
<polygon fill="#63b8ff" stroke="#63b8ff" points="226.8,-50.81 236.75,-47.17 226.7,-43.81 226.8,-50.81"/>
</a>
</g>
</g>
<!-- Node14 -->
<g id="Node000014" class="node">
<title>Node14</title>
<g id="a_Node000014"><a xlink:href="namespaceImGui.html#a29b58b0887b599185dfe677eb3ef6cdc" target="_top" xlink:title=" ">
<polygon fill="white" stroke="#666666" points="172,-20.75 0,-20.75 0,0 172,0 172,-20.75"/>
<text text-anchor="middle" x="86" y="-7.25" font-family="Helvetica,sans-Serif" font-size="10.00">ImGui::DockSpaceOverViewport</text>
</a>
</g>
</g>
<!-- Node12&#45;&gt;Node14 -->
<g id="edge19_Node000012_Node000014" class="edge">
<title>Node12&#45;&gt;Node14</title>
<g id="a_edge19_Node000012_Node000014"><a xlink:title=" ">
<path fill="none" stroke="#63b8ff" d="M227.03,-35.16C201.96,-30.72 173.24,-25.64 148.37,-21.24"/>
<polygon fill="#63b8ff" stroke="#63b8ff" points="226.32,-38.59 236.77,-36.89 227.54,-31.7 226.32,-38.59"/>
</a>
</g>
</g>
<!-- Node17 -->
<g id="Node000017" class="node">
<title>Node17</title>
<g id="a_Node000017"><a xlink:href="namespaceImGui.html#a0c16791f4620e8db38511553d5d63335" target="_top" xlink:title=" ">
<polygon fill="white" stroke="#666666" points="774.25,-315.75 636,-315.75 636,-295 774.25,-295 774.25,-315.75"/>
<text text-anchor="middle" x="705.12" y="-302.25" font-family="Helvetica,sans-Serif" font-size="10.00">ImGui::TableHeadersRow</text>
</a>
</g>
</g>
<!-- Node16&#45;&gt;Node17 -->
<g id="edge22_Node000016_Node000017" class="edge">
<title>Node16&#45;&gt;Node17</title>
<g id="a_edge22_Node000016_Node000017"><a xlink:title=" ">
<path fill="none" stroke="#63b8ff" d="M814.42,-305.38C801.39,-305.38 787.7,-305.38 774.61,-305.38"/>
<polygon fill="#63b8ff" stroke="#63b8ff" points="814.15,-308.88 824.15,-305.38 814.15,-301.88 814.15,-308.88"/>
</a>
</g>
</g>
<!-- Node18 -->
<g id="Node000018" class="node">
<title>Node18</title>
<g id="a_Node000018"><a xlink:href="namespaceImGui.html#a326f0badd138d1dea078a31b0e8dd685" target="_top" xlink:title=" ">
<polygon fill="white" stroke="#666666" points="571.12,-316.75 423.88,-316.75 423.88,-296 571.12,-296 571.12,-316.75"/>
<text text-anchor="middle" x="497.5" y="-303.25" font-family="Helvetica,sans-Serif" font-size="10.00">ImGui::DebugTextEncoding</text>
</a>
</g>
</g>
<!-- Node17&#45;&gt;Node18 -->
<g id="edge23_Node000017_Node000018" class="edge">
<title>Node17&#45;&gt;Node18</title>
<g id="a_edge23_Node000017_Node000018"><a xlink:title=" ">
<path fill="none" stroke="#63b8ff" d="M624.39,-305.76C607.02,-305.85 588.71,-305.94 571.61,-306.02"/>
<polygon fill="#63b8ff" stroke="#63b8ff" points="624.16,-309.26 634.14,-305.72 624.12,-302.26 624.16,-309.26"/>
</a>
</g>
</g>
<!-- Node19 -->
<g id="Node000019" class="node">
<title>Node19</title>
<g id="a_Node000019"><a xlink:href="namespaceImGui.html#ab4a87bf4a874a8e5872b60b4a9b1d99e" target="_top" xlink:title=" ">
<polygon fill="white" stroke="#666666" points="584.25,-277.75 410.75,-277.75 410.75,-257 584.25,-257 584.25,-277.75"/>
<text text-anchor="middle" x="497.5" y="-264.25" font-family="Helvetica,sans-Serif" font-size="10.00">ImGui::ShowIDStackToolWindow</text>
</a>
</g>
</g>
<!-- Node17&#45;&gt;Node19 -->
<g id="edge25_Node000017_Node000019" class="edge">
<title>Node17&#45;&gt;Node19</title>
<g id="a_edge25_Node000017_Node000019"><a xlink:title=" ">
<path fill="none" stroke="#63b8ff" d="M634.2,-292.45C609.17,-287.83 581.22,-282.66 557.23,-278.23"/>
<polygon fill="#63b8ff" stroke="#63b8ff" points="633.52,-295.89 643.99,-294.26 634.79,-289 633.52,-295.89"/>
</a>
</g>
</g>
<!-- Node18&#45;&gt;Node4 -->
<g id="edge24_Node000018_Node000004" class="edge">
<title>Node18&#45;&gt;Node4</title>
<g id="a_edge24_Node000018_Node000004"><a xlink:title=" ">
<path fill="none" stroke="#63b8ff" d="M427.09,-319.3C402.23,-323.92 374.49,-329.09 350.67,-333.52"/>
<polygon fill="#63b8ff" stroke="#63b8ff" points="427.6,-322.76 436.79,-317.49 426.32,-315.88 427.6,-322.76"/>
</a>
</g>
</g>
<!-- Node19&#45;&gt;Node3 -->
<g id="edge26_Node000019_Node000003" class="edge">
<title>Node19&#45;&gt;Node3</title>
<g id="a_edge26_Node000019_Node000003"><a xlink:title=" ">
<path fill="none" stroke="#63b8ff" d="M426.59,-280.05C409.66,-282.79 391.6,-285.44 374.75,-287.38 301.63,-295.77 217.61,-300.79 159.31,-303.54"/>
<polygon fill="#63b8ff" stroke="#63b8ff" points="426.73,-283.57 436.03,-278.49 425.59,-276.67 426.73,-283.57"/>
</a>
</g>
</g>
<!-- Node19&#45;&gt;Node4 -->
<g id="edge27_Node000019_Node000004" class="edge">
<title>Node19&#45;&gt;Node4</title>
<g id="a_edge27_Node000019_Node000004"><a xlink:title=" ">
<path fill="none" stroke="#63b8ff" d="M422.8,-281.88C418.64,-283.52 414.59,-285.35 410.75,-287.38 391.55,-297.5 393.66,-309.73 374.75,-320.38 365.01,-325.86 353.91,-330.18 343.08,-333.57"/>
<polygon fill="#63b8ff" stroke="#63b8ff" points="423.63,-285.3 431.89,-278.67 421.3,-278.7 423.63,-285.3"/>
</a>
</g>
</g>
<!-- Node20 -->
<g id="Node000020" class="node">
<title>Node20</title>
<g id="a_Node000020"><a xlink:href="namespaceImGui.html#a1b6e100d30894c9379908efc540e5486" target="_top" xlink:title=" ">
<polygon fill="white" stroke="#666666" points="372.88,-260.75 209.88,-260.75 209.88,-240 372.88,-240 372.88,-260.75"/>
<text text-anchor="middle" x="291.38" y="-247.25" font-family="Helvetica,sans-Serif" font-size="10.00">ImGui::ShowStackToolWindow</text>
</a>
</g>
</g>
<!-- Node19&#45;&gt;Node20 -->
<g id="edge28_Node000019_Node000020" class="edge">
<title>Node19&#45;&gt;Node20</title>
<g id="a_edge28_Node000019_Node000020"><a xlink:title=" ">
<path fill="none" stroke="#63b8ff" d="M399.2,-259.27C390.55,-258.55 381.86,-257.83 373.37,-257.12"/>
<polygon fill="#63b8ff" stroke="#63b8ff" points="398.76,-262.75 409.02,-260.09 399.34,-255.77 398.76,-262.75"/>
</a>
</g>
</g>
<!-- Node20&#45;&gt;Node20 -->
<g id="edge29_Node000020_Node000020" class="edge">
<title>Node20&#45;&gt;Node20</title>
<g id="a_edge29_Node000020_Node000020"><a xlink:title=" ">
<path fill="none" stroke="#63b8ff" d="M327.51,-272.24C322.73,-276.08 310.68,-278.75 291.38,-278.75 256.08,-278.75 245.05,-269.81 258.28,-261.15"/>
<polygon fill="#63b8ff" stroke="#63b8ff" points="330.89,-271.32 324.87,-262.61 324.14,-273.18 330.89,-271.32"/>
</a>
</g>
</g>
<!-- Node21&#45;&gt;Node3 -->
<g id="edge33_Node000021_Node000003" class="edge">
<title>Node21&#45;&gt;Node3</title>
<g id="a_edge33_Node000021_Node000003"><a xlink:title=" ">
<path fill="none" stroke="#63b8ff" d="M417.4,-207.4C358.32,-206.1 276.34,-209.46 208,-231.38 164.23,-245.41 120.19,-278.64 99.37,-295.77"/>
<polygon fill="#63b8ff" stroke="#63b8ff" points="417.3,-210.9 427.39,-207.68 417.49,-203.9 417.3,-210.9"/>
</a>
</g>
</g>
<!-- Node22 -->
<g id="Node000022" class="node">
<title>Node22</title>
<g id="a_Node000022"><a xlink:href="namespaceImGui.html#ac297462e33309d0540fa459bccdc9304" target="_top" xlink:title=" ">
<polygon fill="white" stroke="#666666" points="363.88,-184.75 218.88,-184.75 218.88,-164 363.88,-164 363.88,-184.75"/>
<text text-anchor="middle" x="291.38" y="-171.25" font-family="Helvetica,sans-Serif" font-size="10.00">ImGui::ShowAboutWindow</text>
</a>
</g>
</g>
<!-- Node21&#45;&gt;Node22 -->
<g id="edge31_Node000021_Node000022" class="edge">
<title>Node21&#45;&gt;Node22</title>
<g id="a_edge31_Node000021_Node000022"><a xlink:title=" ">
<path fill="none" stroke="#63b8ff" d="M427.09,-199.45C402.23,-194.83 374.49,-189.66 350.67,-185.23"/>
<polygon fill="#63b8ff" stroke="#63b8ff" points="426.32,-202.87 436.79,-201.26 427.6,-195.99 426.32,-202.87"/>
</a>
</g>
</g>
<!-- Node22&#45;&gt;Node3 -->
<g id="edge32_Node000022_Node000003" class="edge">
<title>Node22&#45;&gt;Node3</title>
<g id="a_edge32_Node000022_Node000003"><a xlink:title=" ">
<path fill="none" stroke="#63b8ff" d="M229.31,-188.8C221.93,-191.52 214.65,-194.69 208,-198.38 159.73,-225.13 114.45,-274.22 95.87,-295.77"/>
<polygon fill="#63b8ff" stroke="#63b8ff" points="230.36,-192.14 238.72,-185.63 228.13,-185.51 230.36,-192.14"/>
</a>
</g>
</g>
</g>
</svg>

<g id="navigator" transform="translate(0 0)" fill="#404254">
  <rect fill="#f2f5e9" fill-opacity="0.5" stroke="#606060" stroke-width=".5" x="0" y="0" width="60" height="60"/>
  <use id="zoomplus" xlink:href="#zoomPlus" x="17" y="9" onmousedown="handleZoom(evt,'in')"/>
  <use id="zoomminus" xlink:href="#zoomMin" x="42" y="9" onmousedown="handleZoom(evt,'out')"/>
  <use id="reset" xlink:href="#resetDef" x="30" y="36" onmousedown="handleReset()"/>
   <use id="arrowup" xlink:href="#arrowUp" x="0" y="0" onmousedown="handlePan(0,-1)"/>
  <use id="arrowright" xlink:href="#arrowRight" x="0" y="0" onmousedown="handlePan(1,0)"/>
  <use id="arrowdown" xlink:href="#arrowDown" x="0" y="0" onmousedown="handlePan(0,1)"/>
  <use id="arrowleft" xlink:href="#arrowLeft" x="0" y="0" onmousedown="handlePan(-1,0)"/>
</g>
<svg viewBox="0 0 15 15" width="100%" height="30px" preserveAspectRatio="xMaxYMin meet">
 <g id="arrow_out" transform="scale(0.3 0.3)">
  <a xlink:href="namespaceImGui_a3685a04624f724222fa78824de3a1c63_icgraph_org.svg" target="_base">
   <rect id="button" ry="5" rx="5" y="6" x="6" height="38" width="38"
        fill="#f2f5e9" fill-opacity="0.5" stroke="#606060" stroke-width="1.0"/>
   <path id="arrow"
     d="M 11.500037,31.436501 C 11.940474,20.09759 22.043105,11.32322 32.158766,21.979434 L 37.068811,17.246167 C 37.068811,17.246167 37.088388,32 37.088388,32 L 22.160133,31.978069 C 22.160133,31.978069 26.997745,27.140456 26.997745,27.140456 C 18.528582,18.264221 13.291696,25.230495 11.500037,31.436501 z"
     style="fill:#404040;"/>
  </a>
 </g>
</svg>

<style type='text/css'>
<![CDATA[
[data-mouse-over-selected='false'] { opacity: 0.7; }
[data-mouse-over-selected='true']  { opacity: 1.0; }
]]>
</style>
<script type="application/ecmascript"><![CDATA[
document.addEventListener('DOMContentLoaded', (event) => {
  highlightEdges();
  highlightAdjacentNodes();
});
]]></script>
</svg>
