<?xml version="1.0" encoding="UTF-8" standalone="no"?>
<!DOCTYPE svg PUBLIC "-//W3C//DTD SVG 1.1//EN"
 "http://www.w3.org/Graphics/SVG/1.1/DTD/svg11.dtd">
<!-- Generated by graphviz version 12.2.0 (20241103.1931)
 -->
<!-- Title: ImGui::LogRenderedText Pages: 1 -->
<svg width="336pt" height="68pt"
 viewBox="0.00 0.00 335.50 67.75" xmlns="http://www.w3.org/2000/svg" xmlns:xlink="http://www.w3.org/1999/xlink">
<g id="graph0" class="graph" transform="scale(1 1) rotate(0) translate(4 63.75)">
<title>ImGui::LogRenderedText</title>
<!-- Node1 -->
<g id="Node000001" class="node">
<title>Node1</title>
<g id="a_Node000001"><a xlink:title=" ">
<polygon fill="#999999" stroke="#666666" points="135.25,-39.75 0,-39.75 0,-19 135.25,-19 135.25,-39.75"/>
<text text-anchor="middle" x="67.62" y="-26.25" font-family="Helvetica,sans-Serif" font-size="10.00">ImGui::LogRenderedText</text>
</a>
</g>
</g>
<!-- Node1&#45;&gt;Node1 -->
<g id="edge2_Node000001_Node000001" class="edge">
<title>Node1&#45;&gt;Node1</title>
<g id="a_edge2_Node000001_Node000001"><a xlink:title=" ">
<path fill="none" stroke="#63b8ff" d="M38.34,-40.15C26.62,-48.81 36.39,-57.75 67.62,-57.75 84.71,-57.75 95.37,-55.08 99.61,-51.24"/>
<polygon fill="#63b8ff" stroke="#63b8ff" points="103.03,-50.51 97.27,-41.62 96.23,-52.16 103.03,-50.51"/>
</a>
</g>
</g>
<!-- Node2 -->
<g id="Node000002" class="node">
<title>Node2</title>
<g id="a_Node000002"><a xlink:href="namespaceImGui.html#a7671e1dbc803a31b06081b52a771d83f" target="_top" xlink:title=" ">
<polygon fill="white" stroke="#666666" points="327.5,-59.75 171.25,-59.75 171.25,-39 327.5,-39 327.5,-59.75"/>
<text text-anchor="middle" x="249.38" y="-46.25" font-family="Helvetica,sans-Serif" font-size="10.00">ImGui::FindRenderedTextEnd</text>
</a>
</g>
</g>
<!-- Node1&#45;&gt;Node2 -->
<g id="edge1_Node000001_Node000002" class="edge">
<title>Node1&#45;&gt;Node2</title>
<g id="a_edge1_Node000001_Node000002"><a xlink:title=" ">
<path fill="none" stroke="#63b8ff" d="M135.56,-36.82C143.36,-37.69 151.41,-38.59 159.45,-39.48"/>
<polygon fill="#63b8ff" stroke="#63b8ff" points="158.95,-42.95 169.28,-40.57 159.72,-35.99 158.95,-42.95"/>
</a>
</g>
</g>
<!-- Node3 -->
<g id="Node000003" class="node">
<title>Node3</title>
<g id="a_Node000003"><a xlink:href="namespaceImGui.html#aa548475d8f771ab6524d73d900a41198" target="_top" xlink:title=" ">
<polygon fill="white" stroke="#666666" points="293.75,-20.75 205,-20.75 205,0 293.75,0 293.75,-20.75"/>
<text text-anchor="middle" x="249.38" y="-7.25" font-family="Helvetica,sans-Serif" font-size="10.00">ImGui::LogText</text>
</a>
</g>
</g>
<!-- Node1&#45;&gt;Node3 -->
<g id="edge3_Node000001_Node000003" class="edge">
<title>Node1&#45;&gt;Node3</title>
<g id="a_edge3_Node000001_Node000003"><a xlink:title=" ">
<path fill="none" stroke="#63b8ff" d="M135.56,-22.3C154.56,-20.29 175.03,-18.13 193.25,-16.2"/>
<polygon fill="#63b8ff" stroke="#63b8ff" points="193.48,-19.7 203.06,-15.16 192.75,-12.74 193.48,-19.7"/>
</a>
</g>
</g>
</g>
</svg>
