<?xml version="1.0" encoding="UTF-8" standalone="no"?>
<!DOCTYPE svg PUBLIC "-//W3C//DTD SVG 1.1//EN"
 "http://www.w3.org/Graphics/SVG/1.1/DTD/svg11.dtd">
<!-- Generated by graphviz version 2.43.0 (0)
 -->
<!-- Title: formats::reverse Pages: 1 -->
<!--zoomable 383 -->
<svg id="main" version="1.1" xmlns="http://www.w3.org/2000/svg" xmlns:xlink="http://www.w3.org/1999/xlink" xml:space="preserve" onload="init(evt)">
<style type="text/css"><![CDATA[
.edge:hover path { stroke: red; }
.edge:hover polygon { stroke: red; fill: red; }
]]></style>
<script type="text/javascript"><![CDATA[
var edges = document.getElementsByTagName('g');
if (edges && edges.length) {
  for (var i=0;i<edges.length;i++) {
    if (edges[i].id.substr(0,4)=='edge') {
      edges[i].setAttribute('class','edge');
    }
  }
}
]]></script>
        <defs>
                <circle id="rim" cx="0" cy="0" r="7"/>
                <circle id="rim2" cx="0" cy="0" r="3.5"/>
                <g id="zoomPlus">
                        <use xlink:href="#rim" fill="#404040">
                                <set attributeName="fill" to="#808080" begin="zoomplus.mouseover" end="zoomplus.mouseout"/>
                        </use>
                        <path d="M-4,0h8M0,-4v8" fill="none" stroke="white" stroke-width="1.5" pointer-events="none"/>
                </g>
                <g id="zoomMin">
                        <use xlink:href="#rim" fill="#404040">
                                <set attributeName="fill" to="#808080" begin="zoomminus.mouseover" end="zoomminus.mouseout"/>
                        </use>
                        <path d="M-4,0h8" fill="none" stroke="white" stroke-width="1.5" pointer-events="none"/>
                </g>
                <g id="dirArrow">
                        <path fill="none" stroke="white" stroke-width="1.5" d="M0,-3.0v7 M-2.5,-0.5L0,-3.0L2.5,-0.5"/>
                </g>
               <g id="resetDef">
                       <use xlink:href="#rim2" fill="#404040">
                               <set attributeName="fill" to="#808080" begin="reset.mouseover" end="reset.mouseout"/>
                       </use>
               </g>
        </defs>

<script type="text/javascript">
var viewWidth = 920;
var viewHeight = 383;
var sectionId = 'dynsection-6';
</script>
<script xlink:href="svgpan.js"/>
<svg id="graph" class="graph">
<g id="viewport">
<title>formats::reverse</title>
<!-- Node1 -->
<g id="node1" class="node">
<title>Node1</title>
<g id="a_node1"><a xlink:title="Set the text format to reverse.">
<polygon fill="#bfbfbf" stroke="black" points="814,-151.5 814,-170.5 912,-170.5 912,-151.5 814,-151.5"/>
<text text-anchor="middle" x="863" y="-158.5" font-family="Helvetica,sans-Serif" font-size="10.00">formats::reverse</text>
</a>
</g>
</g>
<!-- Node2 -->
<g id="node2" class="node">
<title>Node2</title>
<g id="a_node2"><a xlink:href="basicArithm_8hpp.html#acf222f0bfc4ca97fbdc6db7fe808a9ee" target="_top" xlink:title="Adds two string representations of numbers, and performs with the column method.">
<polygon fill="none" stroke="black" points="743,-151.5 743,-170.5 778,-170.5 778,-151.5 743,-151.5"/>
<text text-anchor="middle" x="760.5" y="-158.5" font-family="Helvetica,sans-Serif" font-size="10.00">add</text>
</a>
</g>
</g>
<!-- Node1&#45;&gt;Node2 -->
<g id="edge1" class="edge">
<title>Node1&#45;&gt;Node2</title>
<path fill="none" stroke="midnightblue" d="M803.72,-161C794.5,-161 785.64,-161 778.45,-161"/>
<polygon fill="midnightblue" stroke="midnightblue" points="803.81,-164.5 813.81,-161 803.81,-157.5 803.81,-164.5"/>
</g>
<!-- Node5 -->
<g id="node5" class="node">
<title>Node5</title>
<g id="a_node5"><a xlink:href="basicArithm_8hpp.html#aedf78136562346db852758c848f8e83d" target="_top" xlink:title="Converts a string representation of a number from one base to another.">
<polygon fill="none" stroke="black" points="77,-28.5 77,-47.5 171,-47.5 171,-28.5 77,-28.5"/>
<text text-anchor="middle" x="124" y="-35.5" font-family="Helvetica,sans-Serif" font-size="10.00">decimalConvert</text>
</a>
</g>
</g>
<!-- Node1&#45;&gt;Node5 -->
<g id="edge26" class="edge">
<title>Node1&#45;&gt;Node5</title>
<path fill="none" stroke="midnightblue" d="M852.44,-142.42C829.15,-100.06 765.14,0 680,0 680,0 680,0 328,0 266.33,0 195.89,-17.15 156.31,-28.41"/>
<polygon fill="midnightblue" stroke="midnightblue" points="849.44,-144.24 857.24,-151.41 855.61,-140.94 849.44,-144.24"/>
</g>
<!-- Node14 -->
<g id="node14" class="node">
<title>Node14</title>
<g id="a_node14"><a xlink:href="basicArithm_8hpp.html#a08faec0b8e863df19e3f978758166482" target="_top" xlink:title="Subtracts one string representation of a number from another string representation of a number.">
<polygon fill="none" stroke="black" points="651,-218.5 651,-237.5 707,-237.5 707,-218.5 651,-218.5"/>
<text text-anchor="middle" x="679" y="-225.5" font-family="Helvetica,sans-Serif" font-size="10.00">subtract</text>
</a>
</g>
</g>
<!-- Node1&#45;&gt;Node14 -->
<g id="edge27" class="edge">
<title>Node1&#45;&gt;Node14</title>
<path fill="none" stroke="midnightblue" d="M826.46,-174.08C791.08,-187.11 737.63,-206.78 706.03,-218.42"/>
<polygon fill="midnightblue" stroke="midnightblue" points="827.75,-177.34 835.92,-170.6 825.33,-170.77 827.75,-177.34"/>
</g>
<!-- Node3 -->
<g id="node3" class="node">
<title>Node3</title>
<g id="a_node3"><a xlink:href="baseConvert_8cpp.html#a6443634f54179f61c6e58098cbb32210" target="_top" xlink:title=" ">
<polygon fill="none" stroke="black" points="290,-294.5 290,-313.5 368,-313.5 368,-294.5 290,-294.5"/>
<text text-anchor="middle" x="329" y="-301.5" font-family="Helvetica,sans-Serif" font-size="10.00">baseConvert</text>
</a>
</g>
</g>
<!-- Node2&#45;&gt;Node3 -->
<g id="edge2" class="edge">
<title>Node2&#45;&gt;Node3</title>
<path fill="none" stroke="midnightblue" d="M753.1,-180.67C737.69,-224.17 693.82,-327.37 615,-361 518.47,-402.19 390.66,-338.82 346.12,-313.6"/>
<polygon fill="midnightblue" stroke="midnightblue" points="756.5,-181.57 756.41,-170.97 749.87,-179.3 756.5,-181.57"/>
</g>
<!-- Node2&#45;&gt;Node5 -->
<g id="edge4" class="edge">
<title>Node2&#45;&gt;Node5</title>
<path fill="none" stroke="midnightblue" d="M753.23,-141.84C745.59,-121.56 730.67,-90.17 707,-73 649.83,-31.54 622.62,-38 552,-38 552,-38 552,-38 328,-38 274.25,-38 212.5,-38 171.36,-38"/>
<polygon fill="midnightblue" stroke="midnightblue" points="749.94,-143.04 756.58,-151.3 756.54,-140.7 749.94,-143.04"/>
</g>
<!-- Node7 -->
<g id="node7" class="node">
<title>Node7</title>
<g id="a_node7"><a xlink:href="basicArithm_8hpp.html#acb4215189a8d1cfd37f4f6fe13890a8f" target="_top" xlink:title="Divides a string representation of a number by another string representation of a number.">
<polygon fill="none" stroke="black" points="404,-218.5 404,-237.5 451,-237.5 451,-218.5 404,-218.5"/>
<text text-anchor="middle" x="427.5" y="-225.5" font-family="Helvetica,sans-Serif" font-size="10.00">divide</text>
</a>
</g>
</g>
<!-- Node2&#45;&gt;Node7 -->
<g id="edge6" class="edge">
<title>Node2&#45;&gt;Node7</title>
<path fill="none" stroke="midnightblue" d="M732.87,-165.59C666.64,-177.01 498.95,-206.02 487,-209 474.98,-211.99 461.84,-216.18 451.07,-219.86"/>
<polygon fill="midnightblue" stroke="midnightblue" points="733.68,-169 742.94,-163.85 732.49,-162.1 733.68,-169"/>
</g>
<!-- Node9 -->
<g id="node9" class="node">
<title>Node9</title>
<g id="a_node9"><a xlink:href="powerReport_8cpp.html#afff5f8aa771cf432836ef03f6f442dae" target="_top" xlink:title=" ">
<polygon fill="none" stroke="black" points="291,-114.5 291,-133.5 367,-133.5 367,-114.5 291,-114.5"/>
<text text-anchor="middle" x="329" y="-121.5" font-family="Helvetica,sans-Serif" font-size="10.00">reportPower</text>
</a>
</g>
</g>
<!-- Node2&#45;&gt;Node9 -->
<g id="edge16" class="edge">
<title>Node2&#45;&gt;Node9</title>
<path fill="none" stroke="midnightblue" d="M750.54,-142.08C741.87,-126.23 727.09,-104.69 707,-95 585.2,-36.25 415.31,-90.83 353.59,-114.39"/>
<polygon fill="midnightblue" stroke="midnightblue" points="747.46,-143.75 755.14,-151.05 753.69,-140.56 747.46,-143.75"/>
</g>
<!-- Node12 -->
<g id="node12" class="node">
<title>Node12</title>
<g id="a_node12"><a xlink:href="basicArithm_8hpp.html#a4e1bb2f02ee5d9df627a57d0899ac07b" target="_top" xlink:title="Executes a given predicate function a specified number of times.">
<polygon fill="none" stroke="black" points="408.5,-133.5 408.5,-152.5 446.5,-152.5 446.5,-133.5 408.5,-133.5"/>
<text text-anchor="middle" x="427.5" y="-140.5" font-family="Helvetica,sans-Serif" font-size="10.00">loop</text>
</a>
</g>
</g>
<!-- Node2&#45;&gt;Node12 -->
<g id="edge13" class="edge">
<title>Node2&#45;&gt;Node12</title>
<path fill="none" stroke="midnightblue" d="M732.3,-159.52C666.75,-155.96 501.44,-146.97 446.54,-143.98"/>
<polygon fill="midnightblue" stroke="midnightblue" points="732.46,-163.03 742.63,-160.08 732.84,-156.04 732.46,-163.03"/>
</g>
<!-- Node13 -->
<g id="node13" class="node">
<title>Node13</title>
<g id="a_node13"><a xlink:href="add_8cpp.html#a065a3ee9a7ec43a06ab2fddbc3019a17" target="_top" xlink:title=" ">
<polygon fill="none" stroke="black" points="658.5,-104.5 658.5,-123.5 699.5,-123.5 699.5,-104.5 658.5,-104.5"/>
<text text-anchor="middle" x="679" y="-111.5" font-family="Helvetica,sans-Serif" font-size="10.00">main</text>
</a>
</g>
</g>
<!-- Node2&#45;&gt;Node13 -->
<g id="edge15" class="edge">
<title>Node2&#45;&gt;Node13</title>
<path fill="none" stroke="midnightblue" d="M734.8,-146.39C722.28,-138.99 707.42,-130.21 696.34,-123.66"/>
<polygon fill="midnightblue" stroke="midnightblue" points="733.02,-149.41 743.41,-151.49 736.58,-143.39 733.02,-149.41"/>
</g>
<!-- Node2&#45;&gt;Node14 -->
<g id="edge17" class="edge">
<title>Node2&#45;&gt;Node14</title>
<path fill="none" stroke="midnightblue" d="M734.42,-175.81C717.87,-188.75 697.38,-206.8 686.89,-218.19"/>
<polygon fill="midnightblue" stroke="midnightblue" points="736.79,-178.41 742.64,-169.57 732.56,-172.83 736.79,-178.41"/>
</g>
<!-- Node4 -->
<g id="node4" class="node">
<title>Node4</title>
<g id="a_node4"><a xlink:href="baseConvert_8cpp.html#ae66f6b31b5ad750f1fe042a706a4e3d4" target="_top" xlink:title=" ">
<polygon fill="none" stroke="black" points="210,-294.5 210,-313.5 251,-313.5 251,-294.5 210,-294.5"/>
<text text-anchor="middle" x="230.5" y="-301.5" font-family="Helvetica,sans-Serif" font-size="10.00">main</text>
</a>
</g>
</g>
<!-- Node3&#45;&gt;Node4 -->
<g id="edge3" class="edge">
<title>Node3&#45;&gt;Node4</title>
<path fill="none" stroke="midnightblue" d="M279.77,-304C269.61,-304 259.45,-304 251.09,-304"/>
<polygon fill="midnightblue" stroke="midnightblue" points="279.86,-307.5 289.86,-304 279.86,-300.5 279.86,-307.5"/>
</g>
<!-- Node6 -->
<g id="node6" class="node">
<title>Node6</title>
<g id="a_node6"><a xlink:href="decimalConvert_8cpp.html#ac2c7bcd6d73ca32ee42312d0fa0b1aa9" target="_top" xlink:title=" ">
<polygon fill="none" stroke="black" points="0,-28.5 0,-47.5 41,-47.5 41,-28.5 0,-28.5"/>
<text text-anchor="middle" x="20.5" y="-35.5" font-family="Helvetica,sans-Serif" font-size="10.00">main</text>
</a>
</g>
</g>
<!-- Node5&#45;&gt;Node6 -->
<g id="edge5" class="edge">
<title>Node5&#45;&gt;Node6</title>
<path fill="none" stroke="midnightblue" d="M66.69,-38C57.49,-38 48.54,-38 41.06,-38"/>
<polygon fill="midnightblue" stroke="midnightblue" points="66.71,-41.5 76.71,-38 66.71,-34.5 66.71,-41.5"/>
</g>
<!-- Node7&#45;&gt;Node3 -->
<g id="edge7" class="edge">
<title>Node7&#45;&gt;Node3</title>
<path fill="none" stroke="midnightblue" d="M406.35,-243.87C386.94,-259.15 358.24,-281.76 342.12,-294.45"/>
<polygon fill="midnightblue" stroke="midnightblue" points="408.59,-246.56 414.28,-237.63 404.26,-241.06 408.59,-246.56"/>
</g>
<!-- Node8 -->
<g id="node8" class="node">
<title>Node8</title>
<g id="a_node8"><a xlink:href="division_8cpp.html#a065a3ee9a7ec43a06ab2fddbc3019a17" target="_top" xlink:title=" ">
<polygon fill="none" stroke="black" points="308.5,-218.5 308.5,-237.5 349.5,-237.5 349.5,-218.5 308.5,-218.5"/>
<text text-anchor="middle" x="329" y="-225.5" font-family="Helvetica,sans-Serif" font-size="10.00">main</text>
</a>
</g>
</g>
<!-- Node7&#45;&gt;Node8 -->
<g id="edge8" class="edge">
<title>Node7&#45;&gt;Node8</title>
<path fill="none" stroke="midnightblue" d="M393.49,-228C378.95,-228 362.35,-228 349.77,-228"/>
<polygon fill="midnightblue" stroke="midnightblue" points="393.63,-231.5 403.63,-228 393.63,-224.5 393.63,-231.5"/>
</g>
<!-- Node7&#45;&gt;Node9 -->
<g id="edge9" class="edge">
<title>Node7&#45;&gt;Node9</title>
<path fill="none" stroke="midnightblue" d="M410.78,-211.06C390.31,-189 355.24,-151.2 338.88,-133.57"/>
<polygon fill="midnightblue" stroke="midnightblue" points="408.23,-213.45 417.59,-218.4 413.36,-208.69 408.23,-213.45"/>
</g>
<!-- Node10 -->
<g id="node10" class="node">
<title>Node10</title>
<g id="a_node10"><a xlink:href="basicArithm_8hpp.html#a5967cef8aeb4f6ea90014159becd286d" target="_top" xlink:title="Raises a string representation of a number to a power.">
<polygon fill="none" stroke="black" points="207,-76.5 207,-95.5 254,-95.5 254,-76.5 207,-76.5"/>
<text text-anchor="middle" x="230.5" y="-83.5" font-family="Helvetica,sans-Serif" font-size="10.00">power</text>
</a>
</g>
</g>
<!-- Node9&#45;&gt;Node10 -->
<g id="edge10" class="edge">
<title>Node9&#45;&gt;Node10</title>
<path fill="none" stroke="midnightblue" d="M294.33,-110.74C281.05,-105.51 266.15,-99.64 254.19,-94.93"/>
<polygon fill="midnightblue" stroke="midnightblue" points="293.06,-114 303.65,-114.41 295.63,-107.49 293.06,-114"/>
</g>
<!-- Node10&#45;&gt;Node5 -->
<g id="edge11" class="edge">
<title>Node10&#45;&gt;Node5</title>
<path fill="none" stroke="midnightblue" d="M199.05,-72.01C181.97,-64.17 161.09,-54.58 145.86,-47.58"/>
<polygon fill="midnightblue" stroke="midnightblue" points="198.06,-75.41 208.6,-76.4 200.98,-69.05 198.06,-75.41"/>
</g>
<!-- Node11 -->
<g id="node11" class="node">
<title>Node11</title>
<g id="a_node11"><a xlink:href="power_8cpp.html#a065a3ee9a7ec43a06ab2fddbc3019a17" target="_top" xlink:title=" ">
<polygon fill="none" stroke="black" points="103.5,-76.5 103.5,-95.5 144.5,-95.5 144.5,-76.5 103.5,-76.5"/>
<text text-anchor="middle" x="124" y="-83.5" font-family="Helvetica,sans-Serif" font-size="10.00">main</text>
</a>
</g>
</g>
<!-- Node10&#45;&gt;Node11 -->
<g id="edge12" class="edge">
<title>Node10&#45;&gt;Node11</title>
<path fill="none" stroke="midnightblue" d="M196.72,-86C179.69,-86 159.44,-86 144.81,-86"/>
<polygon fill="midnightblue" stroke="midnightblue" points="196.83,-89.5 206.83,-86 196.83,-82.5 196.83,-89.5"/>
</g>
<!-- Node12&#45;&gt;Node9 -->
<g id="edge14" class="edge">
<title>Node12&#45;&gt;Node9</title>
<path fill="none" stroke="midnightblue" d="M398.41,-137.47C388.67,-135.55 377.61,-133.37 367.25,-131.33"/>
<polygon fill="midnightblue" stroke="midnightblue" points="397.86,-140.93 408.35,-139.43 399.21,-134.06 397.86,-140.93"/>
</g>
<!-- Node14&#45;&gt;Node2 -->
<g id="edge18" class="edge">
<title>Node14&#45;&gt;Node2</title>
<path fill="none" stroke="midnightblue" d="M706.44,-212.12C722.8,-199.22 742.55,-181.76 752.72,-170.69"/>
<polygon fill="midnightblue" stroke="midnightblue" points="704.07,-209.53 698.27,-218.39 708.33,-215.08 704.07,-209.53"/>
</g>
<!-- Node14&#45;&gt;Node3 -->
<g id="edge19" class="edge">
<title>Node14&#45;&gt;Node3</title>
<path fill="none" stroke="midnightblue" d="M664.09,-245.87C652.53,-259.23 634.83,-276.59 615,-285 532.59,-319.94 424.71,-315.05 368.24,-309.13"/>
<polygon fill="midnightblue" stroke="midnightblue" points="667.08,-247.74 670.75,-237.8 661.68,-243.28 667.08,-247.74"/>
</g>
<!-- Node14&#45;&gt;Node14 -->
<g id="edge25" class="edge">
<title>Node14&#45;&gt;Node14</title>
<path fill="none" stroke="midnightblue" d="M693.73,-247.77C692.58,-252.5 687.66,-256 679,-256 664.78,-256 660.67,-246.57 666.67,-237.76"/>
<polygon fill="midnightblue" stroke="midnightblue" points="697.07,-246.66 691.33,-237.76 690.26,-248.3 697.07,-246.66"/>
</g>
<!-- Node15 -->
<g id="node15" class="node">
<title>Node15</title>
<g id="a_node15"><a xlink:href="basicArithm_8hpp.html#afe2f9d37fbb1090dfb3af32476b43fca" target="_top" xlink:title=" ">
<polygon fill="none" stroke="black" points="487,-256.5 487,-275.5 615,-275.5 615,-256.5 487,-256.5"/>
<text text-anchor="middle" x="551" y="-263.5" font-family="Helvetica,sans-Serif" font-size="10.00">getQuotientRemainder</text>
</a>
</g>
</g>
<!-- Node14&#45;&gt;Node15 -->
<g id="edge20" class="edge">
<title>Node14&#45;&gt;Node15</title>
<path fill="none" stroke="midnightblue" d="M641.28,-239.07C623.1,-244.56 601.36,-251.11 583.89,-256.38"/>
<polygon fill="midnightblue" stroke="midnightblue" points="642.41,-242.39 650.97,-236.15 640.39,-235.69 642.41,-242.39"/>
</g>
<!-- Node16 -->
<g id="node16" class="node">
<title>Node16</title>
<g id="a_node16"><a xlink:href="subtract_8cpp.html#ac2c7bcd6d73ca32ee42312d0fa0b1aa9" target="_top" xlink:title=" ">
<polygon fill="none" stroke="black" points="530.5,-332.5 530.5,-351.5 571.5,-351.5 571.5,-332.5 530.5,-332.5"/>
<text text-anchor="middle" x="551" y="-339.5" font-family="Helvetica,sans-Serif" font-size="10.00">main</text>
</a>
</g>
</g>
<!-- Node14&#45;&gt;Node16 -->
<g id="edge22" class="edge">
<title>Node14&#45;&gt;Node16</title>
<path fill="none" stroke="midnightblue" d="M669.21,-246.66C658.84,-266.82 639.84,-298.64 615,-318 602.26,-327.93 584.95,-334.13 571.7,-337.73"/>
<polygon fill="midnightblue" stroke="midnightblue" points="672.41,-248.07 673.71,-237.56 666.14,-244.97 672.41,-248.07"/>
</g>
<!-- Node17 -->
<g id="node17" class="node">
<title>Node17</title>
<g id="a_node17"><a xlink:href="divisionReport_8cpp.html#aaebd1f284f6703b7629aa18d21f7ccf2" target="_top" xlink:title=" ">
<polygon fill="none" stroke="black" points="497.5,-218.5 497.5,-237.5 604.5,-237.5 604.5,-218.5 497.5,-218.5"/>
<text text-anchor="middle" x="551" y="-225.5" font-family="Helvetica,sans-Serif" font-size="10.00">reportDivisionStep</text>
</a>
</g>
</g>
<!-- Node14&#45;&gt;Node17 -->
<g id="edge23" class="edge">
<title>Node14&#45;&gt;Node17</title>
<path fill="none" stroke="midnightblue" d="M640.97,-228C629.6,-228 616.87,-228 604.66,-228"/>
<polygon fill="midnightblue" stroke="midnightblue" points="640.97,-231.5 650.97,-228 640.97,-224.5 640.97,-231.5"/>
</g>
<!-- Node15&#45;&gt;Node7 -->
<g id="edge21" class="edge">
<title>Node15&#45;&gt;Node7</title>
<path fill="none" stroke="midnightblue" d="M507.88,-253.43C500.9,-251.31 493.74,-249.11 487,-247 475.18,-243.3 462.06,-239.05 451.25,-235.51"/>
<polygon fill="midnightblue" stroke="midnightblue" points="507.33,-256.92 517.91,-256.46 509.35,-250.22 507.33,-256.92"/>
</g>
<!-- Node17&#45;&gt;Node7 -->
<g id="edge24" class="edge">
<title>Node17&#45;&gt;Node7</title>
<path fill="none" stroke="midnightblue" d="M487.13,-228C474.28,-228 461.55,-228 451.26,-228"/>
<polygon fill="midnightblue" stroke="midnightblue" points="487.42,-231.5 497.41,-228 487.41,-224.5 487.42,-231.5"/>
</g>
</g>
</svg>
        <g id="navigator" transform="translate(0 0)" fill="#404254">
                <rect fill="#f2f5e9" fill-opacity="0.5" stroke="#606060" stroke-width=".5" x="0" y="0" width="60" height="60"/>
                <use id="zoomplus" xlink:href="#zoomPlus" x="17" y="9" onmousedown="handleZoom(evt,'in')"/>
                <use id="zoomminus" xlink:href="#zoomMin" x="42" y="9" onmousedown="handleZoom(evt,'out')"/>
                <use id="reset" xlink:href="#resetDef" x="30" y="36" onmousedown="handleReset()"/>
                <g id="arrowUp" xlink:href="#dirArrow" transform="translate(30 24)" onmousedown="handlePan(0,-1)">
                  <use xlink:href="#rim" fill="#404040">
                        <set attributeName="fill" to="#808080" begin="arrowUp.mouseover" end="arrowUp.mouseout"/>
                  </use>
                  <path fill="none" stroke="white" stroke-width="1.5" d="M0,-3.0v7 M-2.5,-0.5L0,-3.0L2.5,-0.5"/>
                </g>
                <g id="arrowRight" xlink:href="#dirArrow" transform="rotate(90) translate(36 -43)" onmousedown="handlePan(1,0)">
                  <use xlink:href="#rim" fill="#404040">
                        <set attributeName="fill" to="#808080" begin="arrowRight.mouseover" end="arrowRight.mouseout"/>
                  </use>
                  <path fill="none" stroke="white" stroke-width="1.5" d="M0,-3.0v7 M-2.5,-0.5L0,-3.0L2.5,-0.5"/>
                </g>
                <g id="arrowDown" xlink:href="#dirArrow" transform="rotate(180) translate(-30 -48)" onmousedown="handlePan(0,1)">
                  <use xlink:href="#rim" fill="#404040">
                        <set attributeName="fill" to="#808080" begin="arrowDown.mouseover" end="arrowDown.mouseout"/>
                  </use>
                  <path fill="none" stroke="white" stroke-width="1.5" d="M0,-3.0v7 M-2.5,-0.5L0,-3.0L2.5,-0.5"/>
                </g>
                <g id="arrowLeft" xlink:href="#dirArrow" transform="rotate(270) translate(-36 17)" onmousedown="handlePan(-1,0)">
                  <use xlink:href="#rim" fill="#404040">
                        <set attributeName="fill" to="#808080" begin="arrowLeft.mouseover" end="arrowLeft.mouseout"/>
                  </use>
                  <path fill="none" stroke="white" stroke-width="1.5" d="M0,-3.0v7 M-2.5,-0.5L0,-3.0L2.5,-0.5"/>
                </g>
        </g>
        <svg viewBox="0 0 15 15" width="100%" height="30px" preserveAspectRatio="xMaxYMin meet">
         <g id="arrow_out" transform="scale(0.3 0.3)">
          <a xlink:href="namespaceformats_a296119cbd1b0c858739af6b363fb262a_icgraph_org.svg" target="_base">
           <rect id="button" ry="5" rx="5" y="6" x="6" height="38" width="38"
                fill="#f2f5e9" fill-opacity="0.5" stroke="#606060" stroke-width="1.0"/>
           <path id="arrow"
             d="M 11.500037,31.436501 C 11.940474,20.09759 22.043105,11.32322 32.158766,21.979434 L 37.068811,17.246167 C 37.068811,17.246167 37.088388,32 37.088388,32 L 22.160133,31.978069 C 22.160133,31.978069 26.997745,27.140456 26.997745,27.140456 C 18.528582,18.264221 13.291696,25.230495 11.500037,31.436501 z"
             style="fill:#404040;"/>
          </a>
         </g>
        </svg>
</svg>
