<?xml version="1.0" encoding="UTF-8" standalone="no"?>
<!DOCTYPE svg PUBLIC "-//W3C//DTD SVG 1.1//EN"
 "http://www.w3.org/Graphics/SVG/1.1/DTD/svg11.dtd">
<!-- Generated by graphviz version 2.43.0 (0)
 -->
<!-- Title: steppable::__internals::utils::reset Pages: 1 -->
<svg width="1136pt" height="440pt"
 viewBox="0.00 0.00 1136.00 439.50" xmlns="http://www.w3.org/2000/svg" xmlns:xlink="http://www.w3.org/1999/xlink">
<g id="graph0" class="graph" transform="scale(1 1) rotate(0) translate(4 435.5)">
<title>steppable::__internals::utils::reset</title>
<!-- Node1 -->
<g id="node1" class="node">
<title>Node1</title>
<g id="a_node1"><a xlink:title="Reset the text color and format to the default values.">
<polygon fill="#bfbfbf" stroke="black" points="1004,-104.5 1004,-134.5 1128,-134.5 1128,-104.5 1004,-104.5"/>
<text text-anchor="start" x="1012" y="-122.5" font-family="Helvetica,sans-Serif" font-size="10.00">steppable::__internals</text>
<text text-anchor="middle" x="1066" y="-111.5" font-family="Helvetica,sans-Serif" font-size="10.00">::utils::reset</text>
</a>
</g>
</g>
<!-- Node2 -->
<g id="node2" class="node">
<title>Node2</title>
<g id="a_node2"><a xlink:href="namespacesteppable_1_1output.html#a076ed2ffbc6d17c02f91f3b9cb4026b7" target="_top" xlink:title="Prints an error message.">
<polygon fill="none" stroke="black" points="850.5,-148.5 850.5,-178.5 958.5,-178.5 958.5,-148.5 850.5,-148.5"/>
<text text-anchor="start" x="858.5" y="-166.5" font-family="Helvetica,sans-Serif" font-size="10.00">steppable::output::</text>
<text text-anchor="middle" x="904.5" y="-155.5" font-family="Helvetica,sans-Serif" font-size="10.00">error</text>
</a>
</g>
</g>
<!-- Node1&#45;&gt;Node2 -->
<g id="edge1" class="edge">
<title>Node1&#45;&gt;Node2</title>
<path fill="none" stroke="midnightblue" d="M1000.55,-137.28C986.63,-141.12 972.05,-145.14 958.62,-148.85"/>
<polygon fill="midnightblue" stroke="midnightblue" points="1001.85,-140.55 1010.56,-134.52 999.98,-133.8 1001.85,-140.55"/>
</g>
<!-- Node21 -->
<g id="node21" class="node">
<title>Node21</title>
<g id="a_node21"><a xlink:href="namespacesteppable_1_1output.html#a0fdf81583afe2caa95d7e8fbb6c456b4" target="_top" xlink:title="Prints an info message.">
<polygon fill="none" stroke="black" points="841,-252 841,-271 968,-271 968,-252 841,-252"/>
<text text-anchor="middle" x="904.5" y="-259" font-family="Helvetica,sans-Serif" font-size="10.00">steppable::output::info</text>
</a>
</g>
</g>
<!-- Node1&#45;&gt;Node21 -->
<g id="edge26" class="edge">
<title>Node1&#45;&gt;Node21</title>
<path fill="none" stroke="midnightblue" d="M1040.44,-141.37C1005.14,-172.79 941.56,-229.4 916.28,-251.9"/>
<polygon fill="midnightblue" stroke="midnightblue" points="1042.79,-143.96 1047.93,-134.7 1038.13,-138.73 1042.79,-143.96"/>
</g>
<!-- Node23 -->
<g id="node23" class="node">
<title>Node23</title>
<g id="a_node23"><a xlink:href="classsteppable_1_1____internals_1_1utils_1_1ProgramArgs.html#af3703e67d1a580ec98788508de89af45" target="_top" xlink:title="This function is used to print the possible command&#45;line arguments. Usually called when the user spec...">
<polygon fill="none" stroke="black" points="842.5,-50 842.5,-91 966.5,-91 966.5,-50 842.5,-50"/>
<text text-anchor="start" x="850.5" y="-79" font-family="Helvetica,sans-Serif" font-size="10.00">steppable::__internals</text>
<text text-anchor="start" x="850.5" y="-68" font-family="Helvetica,sans-Serif" font-size="10.00">::utils::ProgramArgs::</text>
<text text-anchor="middle" x="904.5" y="-57" font-family="Helvetica,sans-Serif" font-size="10.00">printUsage</text>
</a>
</g>
</g>
<!-- Node1&#45;&gt;Node23 -->
<g id="edge29" class="edge">
<title>Node1&#45;&gt;Node23</title>
<path fill="none" stroke="midnightblue" d="M1006.16,-101.42C993.26,-97.46 979.58,-93.26 966.6,-89.27"/>
<polygon fill="midnightblue" stroke="midnightblue" points="1005.26,-104.81 1015.84,-104.4 1007.31,-98.12 1005.26,-104.81"/>
</g>
<!-- Node24 -->
<g id="node24" class="node">
<title>Node24</title>
<g id="a_node24"><a xlink:href="classsteppable_1_1testing_1_1TestCase.html#a2cb156d120e70f37ceb5421fbf04f8f7" target="_top" xlink:title="Prints a summary of the test case, including the number of errors encountered.">
<polygon fill="none" stroke="black" points="841,-0.5 841,-30.5 968,-30.5 968,-0.5 841,-0.5"/>
<text text-anchor="start" x="849" y="-18.5" font-family="Helvetica,sans-Serif" font-size="10.00">steppable::testing</text>
<text text-anchor="middle" x="904.5" y="-7.5" font-family="Helvetica,sans-Serif" font-size="10.00">::TestCase::summarize</text>
</a>
</g>
</g>
<!-- Node1&#45;&gt;Node24 -->
<g id="edge30" class="edge">
<title>Node1&#45;&gt;Node24</title>
<path fill="none" stroke="midnightblue" d="M1042.18,-97.54C1023.41,-80.34 995.51,-56.69 968,-40.5 961.86,-36.88 955.09,-33.57 948.35,-30.62"/>
<polygon fill="midnightblue" stroke="midnightblue" points="1039.94,-100.23 1049.64,-104.47 1044.7,-95.1 1039.94,-100.23"/>
</g>
<!-- Node25 -->
<g id="node25" class="node">
<title>Node25</title>
<g id="a_node25"><a xlink:href="namespacesteppable_1_1output.html#a79984a569aee130e0b145359a404754e" target="_top" xlink:title="Prints a warning message.">
<polygon fill="none" stroke="black" points="682.5,-19.5 682.5,-49.5 790.5,-49.5 790.5,-19.5 682.5,-19.5"/>
<text text-anchor="start" x="690.5" y="-37.5" font-family="Helvetica,sans-Serif" font-size="10.00">steppable::output::</text>
<text text-anchor="middle" x="736.5" y="-26.5" font-family="Helvetica,sans-Serif" font-size="10.00">warning</text>
</a>
</g>
</g>
<!-- Node1&#45;&gt;Node25 -->
<g id="edge31" class="edge">
<title>Node1&#45;&gt;Node25</title>
<path fill="none" stroke="midnightblue" d="M993.53,-125.68C947.88,-126.73 888.55,-122.6 841,-100.5 820.48,-90.96 823.65,-77.31 805,-64.5 796.75,-58.84 787.27,-53.84 778.06,-49.63"/>
<polygon fill="midnightblue" stroke="midnightblue" points="993.76,-129.17 1003.64,-125.35 993.54,-122.17 993.76,-129.17"/>
</g>
<!-- Node3 -->
<g id="node3" class="node">
<title>Node3</title>
<g id="a_node3"><a xlink:href="classsteppable_1_1testing_1_1TestCase.html#a72a291251c17f79279ad7235120b7e2c" target="_top" xlink:title="Asserts a given condition and logs the condition name if it fails.">
<polygon fill="none" stroke="black" points="684.5,-246.5 684.5,-276.5 788.5,-276.5 788.5,-246.5 684.5,-246.5"/>
<text text-anchor="start" x="692.5" y="-264.5" font-family="Helvetica,sans-Serif" font-size="10.00">steppable::testing</text>
<text text-anchor="middle" x="736.5" y="-253.5" font-family="Helvetica,sans-Serif" font-size="10.00">::TestCase::assert</text>
</a>
</g>
</g>
<!-- Node2&#45;&gt;Node3 -->
<g id="edge2" class="edge">
<title>Node2&#45;&gt;Node3</title>
<path fill="none" stroke="midnightblue" d="M879.17,-185.1C860.05,-201.22 832.2,-222.89 805,-237.5 798.86,-240.8 792.18,-243.8 785.49,-246.48"/>
<polygon fill="midnightblue" stroke="midnightblue" points="881.47,-187.73 886.79,-178.57 876.92,-182.42 881.47,-187.73"/>
</g>
<!-- Node4 -->
<g id="node4" class="node">
<title>Node4</title>
<g id="a_node4"><a xlink:href="namespacesteppable_1_1____internals_1_1arithmetic.html#a7e727b70fed2eba6324a6e41d1a1fe03" target="_top" xlink:title=" ">
<polygon fill="none" stroke="black" points="475.5,-107.5 475.5,-137.5 615.5,-137.5 615.5,-107.5 475.5,-107.5"/>
<text text-anchor="start" x="483.5" y="-125.5" font-family="Helvetica,sans-Serif" font-size="10.00">steppable::__internals</text>
<text text-anchor="middle" x="545.5" y="-114.5" font-family="Helvetica,sans-Serif" font-size="10.00">::arithmetic::baseConvert</text>
</a>
</g>
</g>
<!-- Node2&#45;&gt;Node4 -->
<g id="edge3" class="edge">
<title>Node2&#45;&gt;Node4</title>
<path fill="none" stroke="midnightblue" d="M841.94,-146C829.78,-143.08 817.05,-140.39 805,-138.5 741.36,-128.54 668,-124.72 615.73,-123.28"/>
<polygon fill="midnightblue" stroke="midnightblue" points="841.44,-149.48 851.99,-148.5 843.13,-142.69 841.44,-149.48"/>
</g>
<!-- Node6 -->
<g id="node6" class="node">
<title>Node6</title>
<g id="a_node6"><a xlink:href="namespacesteppable_1_1____internals_1_1arithmetic.html#afc4c4f319dadbb5b1ff481132f008374" target="_top" xlink:title="Converts a string representation of a number from one base to another.">
<polygon fill="none" stroke="black" points="92,-55.5 92,-85.5 248,-85.5 248,-55.5 92,-55.5"/>
<text text-anchor="start" x="100" y="-73.5" font-family="Helvetica,sans-Serif" font-size="10.00">steppable::__internals</text>
<text text-anchor="middle" x="170" y="-62.5" font-family="Helvetica,sans-Serif" font-size="10.00">::arithmetic::decimalConvert</text>
</a>
</g>
</g>
<!-- Node2&#45;&gt;Node6 -->
<g id="edge5" class="edge">
<title>Node2&#45;&gt;Node6</title>
<path fill="none" stroke="midnightblue" d="M863.35,-144.1C845.79,-136.33 824.74,-127.94 805,-122.5 609.9,-68.72 369.25,-65.29 248.23,-67.68"/>
<polygon fill="midnightblue" stroke="midnightblue" points="862.16,-147.4 872.71,-148.33 865.04,-141.02 862.16,-147.4"/>
</g>
<!-- Node8 -->
<g id="node8" class="node">
<title>Node8</title>
<g id="a_node8"><a xlink:href="namespacesteppable_1_1____internals_1_1arithmetic.html#a26194ae8ddb44afb942fbf8335ae1730" target="_top" xlink:title="Divides a string representation of a number by another string representation of a number.">
<polygon fill="none" stroke="black" points="674.5,-197.5 674.5,-227.5 798.5,-227.5 798.5,-197.5 674.5,-197.5"/>
<text text-anchor="start" x="682.5" y="-215.5" font-family="Helvetica,sans-Serif" font-size="10.00">steppable::__internals</text>
<text text-anchor="middle" x="736.5" y="-204.5" font-family="Helvetica,sans-Serif" font-size="10.00">::arithmetic::divide</text>
</a>
</g>
</g>
<!-- Node2&#45;&gt;Node8 -->
<g id="edge7" class="edge">
<title>Node2&#45;&gt;Node8</title>
<path fill="none" stroke="midnightblue" d="M842.63,-181.47C824.85,-186.72 805.6,-192.4 788.49,-197.45"/>
<polygon fill="midnightblue" stroke="midnightblue" points="843.74,-184.79 852.34,-178.6 841.76,-178.08 843.74,-184.79"/>
</g>
<!-- Node20 -->
<g id="node20" class="node">
<title>Node20</title>
<g id="a_node20"><a xlink:href="namespacesteppable_1_1____internals_1_1arithmetic.html#a210c635ae60eaa54f65bc82a0f3c953a" target="_top" xlink:title="Executes a given predicate function a specified number of times.">
<polygon fill="none" stroke="black" points="674.5,-148.5 674.5,-178.5 798.5,-178.5 798.5,-148.5 674.5,-148.5"/>
<text text-anchor="start" x="682.5" y="-166.5" font-family="Helvetica,sans-Serif" font-size="10.00">steppable::__internals</text>
<text text-anchor="middle" x="736.5" y="-155.5" font-family="Helvetica,sans-Serif" font-size="10.00">::arithmetic::loop</text>
</a>
</g>
</g>
<!-- Node2&#45;&gt;Node20 -->
<g id="edge24" class="edge">
<title>Node2&#45;&gt;Node20</title>
<path fill="none" stroke="midnightblue" d="M839.88,-163.5C826.34,-163.5 812.07,-163.5 798.63,-163.5"/>
<polygon fill="midnightblue" stroke="midnightblue" points="840.06,-167 850.06,-163.5 840.06,-160 840.06,-167"/>
</g>
<!-- Node5 -->
<g id="node5" class="node">
<title>Node5</title>
<g id="a_node5"><a xlink:href="baseConvert_8cpp.html#ae66f6b31b5ad750f1fe042a706a4e3d4" target="_top" xlink:title=" ">
<polygon fill="none" stroke="black" points="340.5,-110 340.5,-129 381.5,-129 381.5,-110 340.5,-110"/>
<text text-anchor="middle" x="361" y="-117" font-family="Helvetica,sans-Serif" font-size="10.00">main</text>
</a>
</g>
</g>
<!-- Node4&#45;&gt;Node5 -->
<g id="edge4" class="edge">
<title>Node4&#45;&gt;Node5</title>
<path fill="none" stroke="midnightblue" d="M464.93,-121.19C434.27,-120.69 401.82,-120.15 381.74,-119.82"/>
<polygon fill="midnightblue" stroke="midnightblue" points="465.19,-124.7 475.24,-121.36 465.3,-117.7 465.19,-124.7"/>
</g>
<!-- Node7 -->
<g id="node7" class="node">
<title>Node7</title>
<g id="a_node7"><a xlink:href="decimalConvert_8cpp.html#ac2c7bcd6d73ca32ee42312d0fa0b1aa9" target="_top" xlink:title=" ">
<polygon fill="none" stroke="black" points="0,-61 0,-80 41,-80 41,-61 0,-61"/>
<text text-anchor="middle" x="20.5" y="-68" font-family="Helvetica,sans-Serif" font-size="10.00">main</text>
</a>
</g>
</g>
<!-- Node6&#45;&gt;Node7 -->
<g id="edge6" class="edge">
<title>Node6&#45;&gt;Node7</title>
<path fill="none" stroke="midnightblue" d="M81.71,-70.5C66.49,-70.5 52.07,-70.5 41.15,-70.5"/>
<polygon fill="midnightblue" stroke="midnightblue" points="81.79,-74 91.79,-70.5 81.79,-67 81.79,-74"/>
</g>
<!-- Node8&#45;&gt;Node4 -->
<g id="edge8" class="edge">
<title>Node8&#45;&gt;Node4</title>
<path fill="none" stroke="midnightblue" d="M675,-192.8C672.58,-191.45 670.24,-190.02 668,-188.5 647.93,-174.89 652.45,-160.53 632,-147.5 626,-143.68 619.4,-140.42 612.6,-137.65"/>
<polygon fill="midnightblue" stroke="midnightblue" points="673.51,-195.97 684.01,-197.35 676.66,-189.72 673.51,-195.97"/>
</g>
<!-- Node9 -->
<g id="node9" class="node">
<title>Node9</title>
<g id="a_node9"><a xlink:href="namespacesteppable_1_1____internals_1_1arithmetic.html#ac9102075acd398b3bdf388f6cc2ef978" target="_top" xlink:title=" ">
<polygon fill="none" stroke="black" points="459,-236.5 459,-266.5 632,-266.5 632,-236.5 459,-236.5"/>
<text text-anchor="start" x="467" y="-254.5" font-family="Helvetica,sans-Serif" font-size="10.00">steppable::__internals</text>
<text text-anchor="middle" x="545.5" y="-243.5" font-family="Helvetica,sans-Serif" font-size="10.00">::arithmetic::divideWithQuotient</text>
</a>
</g>
</g>
<!-- Node8&#45;&gt;Node9 -->
<g id="edge9" class="edge">
<title>Node8&#45;&gt;Node9</title>
<path fill="none" stroke="midnightblue" d="M664.34,-227.18C649.6,-230.22 634.06,-233.43 619.26,-236.49"/>
<polygon fill="midnightblue" stroke="midnightblue" points="665.31,-230.56 674.4,-225.11 663.9,-223.7 665.31,-230.56"/>
</g>
<!-- Node10 -->
<g id="node10" class="node">
<title>Node10</title>
<g id="a_node10"><a xlink:href="bindings_8cpp.html#af434d7fc3eaa11448eece320b8a7d90e" target="_top" xlink:title=" ">
<polygon fill="none" stroke="black" points="130.5,-242 130.5,-261 209.5,-261 209.5,-242 130.5,-242"/>
<text text-anchor="middle" x="170" y="-249" font-family="Helvetica,sans-Serif" font-size="10.00">NB_MODULE</text>
</a>
</g>
</g>
<!-- Node8&#45;&gt;Node10 -->
<g id="edge13" class="edge">
<title>Node8&#45;&gt;Node10</title>
<path fill="none" stroke="midnightblue" d="M677.11,-232.06C673.95,-233.75 670.89,-235.56 668,-237.5 648.4,-250.62 652.67,-265.14 632,-276.5 501.46,-348.26 444.08,-348.27 299,-314.5 254.61,-304.17 207.91,-276.14 185.15,-261.2"/>
<polygon fill="midnightblue" stroke="midnightblue" points="678.77,-235.15 686.22,-227.62 675.69,-228.86 678.77,-235.15"/>
</g>
<!-- Node12 -->
<g id="node12" class="node">
<title>Node12</title>
<g id="a_node12"><a xlink:href="division_8cpp.html#a065a3ee9a7ec43a06ab2fddbc3019a17" target="_top" xlink:title=" ">
<polygon fill="none" stroke="black" points="525,-412 525,-431 566,-431 566,-412 525,-412"/>
<text text-anchor="middle" x="545.5" y="-419" font-family="Helvetica,sans-Serif" font-size="10.00">main</text>
</a>
</g>
</g>
<!-- Node8&#45;&gt;Node12 -->
<g id="edge12" class="edge">
<title>Node8&#45;&gt;Node12</title>
<path fill="none" stroke="midnightblue" d="M671.69,-233.72C670.39,-234.91 669.16,-236.17 668,-237.5 618.76,-294.15 684.97,-349.32 632,-402.5 614.83,-419.74 585.72,-422.85 566.31,-422.76"/>
<polygon fill="midnightblue" stroke="midnightblue" points="673.9,-236.43 679.75,-227.6 669.67,-230.86 673.9,-236.43"/>
</g>
<!-- Node13 -->
<g id="node13" class="node">
<title>Node13</title>
<g id="a_node13"><a xlink:href="classsteppable_1_1Number.html#aa66cc95056779a87d04caaf621b662bb" target="_top" xlink:title="Divides two numbers.">
<polygon fill="none" stroke="black" points="487.5,-19.5 487.5,-49.5 603.5,-49.5 603.5,-19.5 487.5,-19.5"/>
<text text-anchor="start" x="495.5" y="-37.5" font-family="Helvetica,sans-Serif" font-size="10.00">steppable::Number::</text>
<text text-anchor="middle" x="545.5" y="-26.5" font-family="Helvetica,sans-Serif" font-size="10.00">operator/</text>
</a>
</g>
</g>
<!-- Node8&#45;&gt;Node13 -->
<g id="edge14" class="edge">
<title>Node8&#45;&gt;Node13</title>
<path fill="none" stroke="midnightblue" d="M671.5,-191.6C670.29,-190.61 669.12,-189.58 668,-188.5 636.71,-158.29 658.54,-131.96 632,-97.5 616.59,-77.49 593.18,-60.85 574.76,-49.71"/>
<polygon fill="midnightblue" stroke="midnightblue" points="669.84,-194.7 680.07,-197.45 673.79,-188.92 669.84,-194.7"/>
</g>
<!-- Node14 -->
<g id="node14" class="node">
<title>Node14</title>
<g id="a_node14"><a xlink:href="powerReport_8cpp.html#afff5f8aa771cf432836ef03f6f442dae" target="_top" xlink:title="Reports a power operation.">
<polygon fill="none" stroke="black" points="507.5,-157 507.5,-176 583.5,-176 583.5,-157 507.5,-157"/>
<text text-anchor="middle" x="545.5" y="-164" font-family="Helvetica,sans-Serif" font-size="10.00">reportPower</text>
</a>
</g>
</g>
<!-- Node8&#45;&gt;Node14 -->
<g id="edge15" class="edge">
<title>Node8&#45;&gt;Node14</title>
<path fill="none" stroke="midnightblue" d="M664.43,-195.2C636.98,-188.52 606.71,-181.16 583.72,-175.56"/>
<polygon fill="midnightblue" stroke="midnightblue" points="663.85,-198.66 674.4,-197.63 665.51,-191.86 663.85,-198.66"/>
</g>
<!-- Node19 -->
<g id="node19" class="node">
<title>Node19</title>
<g id="a_node19"><a xlink:href="classsteppable_1_1Fraction.html#a9cf64d847c268d9334775c572ef75dfa" target="_top" xlink:title="Simplifies a fraction. This function simplifies the fraction by dividing the top and bottom component...">
<polygon fill="none" stroke="black" points="490.5,-362.5 490.5,-392.5 600.5,-392.5 600.5,-362.5 490.5,-362.5"/>
<text text-anchor="start" x="498.5" y="-380.5" font-family="Helvetica,sans-Serif" font-size="10.00">steppable::Fraction</text>
<text text-anchor="middle" x="545.5" y="-369.5" font-family="Helvetica,sans-Serif" font-size="10.00">::simplify</text>
</a>
</g>
</g>
<!-- Node8&#45;&gt;Node19 -->
<g id="edge23" class="edge">
<title>Node8&#45;&gt;Node19</title>
<path fill="none" stroke="midnightblue" d="M672.45,-233.39C670.89,-234.68 669.4,-236.05 668,-237.5 632.33,-274.57 667.99,-310.74 632,-347.5 623.42,-356.27 612.13,-362.48 600.57,-366.87"/>
<polygon fill="midnightblue" stroke="midnightblue" points="674.6,-236.16 680.81,-227.58 670.6,-230.41 674.6,-236.16"/>
</g>
<!-- Node9&#45;&gt;Node10 -->
<g id="edge10" class="edge">
<title>Node9&#45;&gt;Node10</title>
<path fill="none" stroke="midnightblue" d="M448.52,-251.5C370.86,-251.5 265.51,-251.5 209.59,-251.5"/>
<polygon fill="midnightblue" stroke="midnightblue" points="448.81,-255 458.81,-251.5 448.81,-248 448.81,-255"/>
</g>
<!-- Node11 -->
<g id="node11" class="node">
<title>Node11</title>
<g id="a_node11"><a xlink:href="classsteppable_1_1Number.html#a6e98fb3dedfd70f3956e9d299733a58d" target="_top" xlink:title="Calculates the remainder of two numbers. (Modulus)">
<polygon fill="none" stroke="black" points="303,-274.5 303,-304.5 419,-304.5 419,-274.5 303,-274.5"/>
<text text-anchor="start" x="311" y="-292.5" font-family="Helvetica,sans-Serif" font-size="10.00">steppable::Number::</text>
<text text-anchor="middle" x="361" y="-281.5" font-family="Helvetica,sans-Serif" font-size="10.00">operator%</text>
</a>
</g>
</g>
<!-- Node9&#45;&gt;Node11 -->
<g id="edge11" class="edge">
<title>Node9&#45;&gt;Node11</title>
<path fill="none" stroke="midnightblue" d="M462.36,-268.6C447.81,-271.63 432.95,-274.73 419.27,-277.58"/>
<polygon fill="midnightblue" stroke="midnightblue" points="463.29,-271.98 472.37,-266.52 461.87,-265.13 463.29,-271.98"/>
</g>
<!-- Node15 -->
<g id="node15" class="node">
<title>Node15</title>
<g id="a_node15"><a xlink:href="namespacesteppable_1_1____internals_1_1arithmetic.html#a50acfa1ad06ce385943ddd207146c9e0" target="_top" xlink:title="Raises a string representation of a number to a power.">
<polygon fill="none" stroke="black" points="299,-148.5 299,-178.5 423,-178.5 423,-148.5 299,-148.5"/>
<text text-anchor="start" x="307" y="-166.5" font-family="Helvetica,sans-Serif" font-size="10.00">steppable::__internals</text>
<text text-anchor="middle" x="361" y="-155.5" font-family="Helvetica,sans-Serif" font-size="10.00">::arithmetic::power</text>
</a>
</g>
</g>
<!-- Node14&#45;&gt;Node15 -->
<g id="edge16" class="edge">
<title>Node14&#45;&gt;Node15</title>
<path fill="none" stroke="midnightblue" d="M497.1,-165.72C474.49,-165.35 447.17,-164.9 423.03,-164.5"/>
<polygon fill="midnightblue" stroke="midnightblue" points="497.07,-169.22 507.13,-165.89 497.19,-162.22 497.07,-169.22"/>
</g>
<!-- Node15&#45;&gt;Node6 -->
<g id="edge17" class="edge">
<title>Node15&#45;&gt;Node6</title>
<path fill="none" stroke="midnightblue" d="M306.75,-143.62C304.05,-142.02 301.45,-140.31 299,-138.5 278.69,-123.47 284.27,-108.14 263,-94.5 257.58,-91.03 251.68,-88.05 245.56,-85.51"/>
<polygon fill="midnightblue" stroke="midnightblue" points="305.13,-146.73 315.6,-148.39 308.45,-140.57 305.13,-146.73"/>
</g>
<!-- Node15&#45;&gt;Node10 -->
<g id="edge21" class="edge">
<title>Node15&#45;&gt;Node10</title>
<path fill="none" stroke="midnightblue" d="M335.77,-185.11C317.13,-200.59 290.07,-220.71 263,-232.5 246.25,-239.8 226.55,-244.35 209.69,-247.15"/>
<polygon fill="midnightblue" stroke="midnightblue" points="338.1,-187.72 343.46,-178.58 333.57,-182.38 338.1,-187.72"/>
</g>
<!-- Node16 -->
<g id="node16" class="node">
<title>Node16</title>
<g id="a_node16"><a xlink:href="namespacesteppable_1_1____internals_1_1arithmetic.html#aa150ef39a272f7228ae239679247fab3" target="_top" xlink:title="Determines the scale of the quotient of division.">
<polygon fill="none" stroke="black" points="77,-192.5 77,-222.5 263,-222.5 263,-192.5 77,-192.5"/>
<text text-anchor="start" x="85" y="-210.5" font-family="Helvetica,sans-Serif" font-size="10.00">steppable::__internals</text>
<text text-anchor="middle" x="170" y="-199.5" font-family="Helvetica,sans-Serif" font-size="10.00">::arithmetic::determineResultScale</text>
</a>
</g>
</g>
<!-- Node15&#45;&gt;Node16 -->
<g id="edge18" class="edge">
<title>Node15&#45;&gt;Node16</title>
<path fill="none" stroke="midnightblue" d="M288.75,-180.09C271.25,-184.16 252.63,-188.5 235.47,-192.49"/>
<polygon fill="midnightblue" stroke="midnightblue" points="289.95,-183.4 298.9,-177.72 288.36,-176.58 289.95,-183.4"/>
</g>
<!-- Node17 -->
<g id="node17" class="node">
<title>Node17</title>
<g id="a_node17"><a xlink:href="power_8cpp.html#a065a3ee9a7ec43a06ab2fddbc3019a17" target="_top" xlink:title=" ">
<polygon fill="none" stroke="black" points="149.5,-154 149.5,-173 190.5,-173 190.5,-154 149.5,-154"/>
<text text-anchor="middle" x="170" y="-161" font-family="Helvetica,sans-Serif" font-size="10.00">main</text>
</a>
</g>
</g>
<!-- Node15&#45;&gt;Node17 -->
<g id="edge20" class="edge">
<title>Node15&#45;&gt;Node17</title>
<path fill="none" stroke="midnightblue" d="M288.67,-163.5C253.6,-163.5 214.01,-163.5 190.85,-163.5"/>
<polygon fill="midnightblue" stroke="midnightblue" points="288.9,-167 298.9,-163.5 288.9,-160 288.9,-167"/>
</g>
<!-- Node18 -->
<g id="node18" class="node">
<title>Node18</title>
<g id="a_node18"><a xlink:href="classsteppable_1_1Number.html#aed9d4c238a2876ca951187b6f6173fd9" target="_top" xlink:title="Raises the number to a power.">
<polygon fill="none" stroke="black" points="112,-104.5 112,-134.5 228,-134.5 228,-104.5 112,-104.5"/>
<text text-anchor="start" x="120" y="-122.5" font-family="Helvetica,sans-Serif" font-size="10.00">steppable::Number::</text>
<text text-anchor="middle" x="170" y="-111.5" font-family="Helvetica,sans-Serif" font-size="10.00">operator^</text>
</a>
</g>
</g>
<!-- Node15&#45;&gt;Node18 -->
<g id="edge22" class="edge">
<title>Node15&#45;&gt;Node18</title>
<path fill="none" stroke="midnightblue" d="M289.14,-147C268.97,-142.31 247.27,-137.26 228.04,-132.78"/>
<polygon fill="midnightblue" stroke="midnightblue" points="288.36,-150.42 298.9,-149.28 289.95,-143.6 288.36,-150.42"/>
</g>
<!-- Node16&#45;&gt;Node8 -->
<g id="edge19" class="edge">
<title>Node16&#45;&gt;Node8</title>
<path fill="none" stroke="midnightblue" d="M273.05,-208.4C390.03,-209.44 577.98,-211.1 674.28,-211.96"/>
<polygon fill="midnightblue" stroke="midnightblue" points="273.04,-204.9 263.01,-208.31 272.98,-211.9 273.04,-204.9"/>
</g>
<!-- Node20&#45;&gt;Node14 -->
<g id="edge25" class="edge">
<title>Node20&#45;&gt;Node14</title>
<path fill="none" stroke="midnightblue" d="M664.07,-164.63C636.72,-165.07 606.61,-165.55 583.72,-165.91"/>
<polygon fill="midnightblue" stroke="midnightblue" points="664.45,-168.13 674.4,-164.47 664.34,-161.13 664.45,-168.13"/>
</g>
<!-- Node21&#45;&gt;Node3 -->
<g id="edge27" class="edge">
<title>Node21&#45;&gt;Node3</title>
<path fill="none" stroke="midnightblue" d="M830.57,-261.5C816.46,-261.5 801.96,-261.5 788.73,-261.5"/>
<polygon fill="midnightblue" stroke="midnightblue" points="830.74,-265 840.74,-261.5 830.74,-258 830.74,-265"/>
</g>
<!-- Node22 -->
<g id="node22" class="node">
<title>Node22</title>
<g id="a_node22"><a xlink:href="classsteppable_1_1____internals_1_1logging_1_1Logger.html#a3c66a92d73c0da631dcfcfe62e0c948e" target="_top" xlink:title="Constructs a Logger object.">
<polygon fill="none" stroke="black" points="668,-295.5 668,-325.5 805,-325.5 805,-295.5 668,-295.5"/>
<text text-anchor="start" x="676" y="-313.5" font-family="Helvetica,sans-Serif" font-size="10.00">steppable::__internals</text>
<text text-anchor="middle" x="736.5" y="-302.5" font-family="Helvetica,sans-Serif" font-size="10.00">::logging::Logger::Logger</text>
</a>
</g>
</g>
<!-- Node21&#45;&gt;Node22 -->
<g id="edge28" class="edge">
<title>Node21&#45;&gt;Node22</title>
<path fill="none" stroke="midnightblue" d="M861.31,-273.95C839.14,-280.5 811.79,-288.57 788.44,-295.46"/>
<polygon fill="midnightblue" stroke="midnightblue" points="862.5,-277.25 871.1,-271.06 860.52,-270.54 862.5,-277.25"/>
</g>
<!-- Node25&#45;&gt;Node13 -->
<g id="edge32" class="edge">
<title>Node25&#45;&gt;Node13</title>
<path fill="none" stroke="midnightblue" d="M672.34,-34.5C650.1,-34.5 625.25,-34.5 603.55,-34.5"/>
<polygon fill="midnightblue" stroke="midnightblue" points="672.35,-38 682.35,-34.5 672.35,-31 672.35,-38"/>
</g>
</g>
</svg>
