<?xml version="1.0" encoding="UTF-8" standalone="no"?>
<!DOCTYPE svg PUBLIC "-//W3C//DTD SVG 1.1//EN"
 "http://www.w3.org/Graphics/SVG/1.1/DTD/svg11.dtd">
<!-- Generated by graphviz version 12.0.0 (20240704.0754)
 -->
<!-- Title: ImGui::TreeNodeUpdateNextOpen Pages: 1 -->
<!--zoomable 87 -->

<svg id="main" version="1.1" xmlns="http://www.w3.org/2000/svg" xmlns:xlink="http://www.w3.org/1999/xlink" xml:space="preserve" onload="init(evt)">

<style type="text/css"><![CDATA[
.node, .edge {opacity: 0.7;}
.node.selected, .edge.selected {opacity: 1;}
.edge:hover path { stroke: red; }
.edge:hover polygon { stroke: red; fill: red; }
]]></style>

<defs>
  <circle id="rim" cx="0" cy="0" r="7"/>
  <circle id="rim2" cx="0" cy="0" r="3.5"/>
  <g id="zoomPlus">
    <use xlink:href="#rim" fill="#404040"><set attributeName="fill" to="#808080" begin="zoomplus.mouseover" end="zoomplus.mouseout"/></use>
    <path d="M-4,0h8M0,-4v8" fill="none" stroke="white" stroke-width="1.5" pointer-events="none"/>
  </g>
  <g id="zoomMin">
    <use xlink:href="#rim" fill="#404040"><set attributeName="fill" to="#808080" begin="zoomminus.mouseover" end="zoomminus.mouseout"/></use>
    <path d="M-4,0h8" fill="none" stroke="white" stroke-width="1.5" pointer-events="none"/>
  </g>
  <g id="arrowUp" transform="translate(30 24)">
    <use xlink:href="#rim"/>
    <path pointer-events="none" fill="none" stroke="white" stroke-width="1.5" d="M0,-3.0v7 M-2.5,-0.5L0,-3.0L2.5,-0.5"/>
  </g>
  <g id="arrowRight" transform="rotate(90) translate(36 -43)">
    <use xlink:href="#rim"/>
    <path pointer-events="none" fill="none" stroke="white" stroke-width="1.5" d="M0,-3.0v7 M-2.5,-0.5L0,-3.0L2.5,-0.5"/>
  </g>
  <g id="arrowDown" transform="rotate(180) translate(-30 -48)">
    <use xlink:href="#rim"/>
    <path pointer-events="none" fill="none" stroke="white" stroke-width="1.5" d="M0,-3.0v7 M-2.5,-0.5L0,-3.0L2.5,-0.5"/>
  </g>
  <g id="arrowLeft" transform="rotate(270) translate(-36 17)">
    <use xlink:href="#rim"/>
    <path pointer-events="none" fill="none" stroke="white" stroke-width="1.5" d="M0,-3.0v7 M-2.5,-0.5L0,-3.0L2.5,-0.5"/>
  </g>
  <g id="resetDef">
    <use xlink:href="#rim2" fill="#404040"><set attributeName="fill" to="#808080" begin="reset.mouseover" end="reset.mouseout"/></use>
  </g>
</defs>
<script type="application/ecmascript">
var viewWidth = 825;
var viewHeight = 87;
var sectionId = 'dynsection-1346';
</script>
<script type="application/ecmascript" xlink:href="svg.min.js"/>
<svg id="graph" class="graph">
<g id="viewport">
<title>ImGui::TreeNodeUpdateNextOpen</title>
<!-- Node1 -->
<g id="Node000001" class="node">
<title>Node1</title>
<g id="a_Node000001"><a xlink:title=" ">
<polygon fill="#999999" stroke="#666666" points="181,-58.75 0,-58.75 0,-38 181,-38 181,-58.75"/>
<text text-anchor="middle" x="90.5" y="-45.25" font-family="Helvetica,sans-Serif" font-size="10.00">ImGui::TreeNodeUpdateNextOpen</text>
</a>
</g>
</g>
<!-- Node2 -->
<g id="Node000002" class="node">
<title>Node2</title>
<g id="a_Node000002"><a xlink:href="structImGuiStorage.html#a9af0043a681938246b80ecd273ce990d" target="_top" xlink:title=" ">
<polygon fill="white" stroke="#666666" points="510,-78.75 391.25,-78.75 391.25,-58 510,-58 510,-78.75"/>
<text text-anchor="middle" x="450.62" y="-65.25" font-family="Helvetica,sans-Serif" font-size="10.00">ImGuiStorage::GetInt</text>
</a>
</g>
</g>
<!-- Node1&#45;&gt;Node2 -->
<g id="edge1_Node000001_Node000002" class="edge">
<title>Node1&#45;&gt;Node2</title>
<g id="a_edge1_Node000001_Node000002"><a xlink:title=" ">
<path fill="none" stroke="#63b8ff" d="M181.41,-53.4C242.76,-56.82 322.85,-61.3 379.5,-64.46"/>
<polygon fill="#63b8ff" stroke="#63b8ff" points="379.16,-67.95 389.34,-65.01 379.55,-60.96 379.16,-67.95"/>
</a>
</g>
</g>
<!-- Node4 -->
<g id="Node000004" class="node">
<title>Node4</title>
<g id="a_Node000004"><a xlink:href="namespaceImGui.html#a1756b0bbb8f15af6ab35a6690e904565" target="_top" xlink:title=" ">
<polygon fill="white" stroke="#666666" points="355.25,-39.75 217,-39.75 217,-19 355.25,-19 355.25,-39.75"/>
<text text-anchor="middle" x="286.12" y="-26.25" font-family="Helvetica,sans-Serif" font-size="10.00">ImGui::TreeNodeSetOpen</text>
</a>
</g>
</g>
<!-- Node1&#45;&gt;Node4 -->
<g id="edge3_Node000001_Node000004" class="edge">
<title>Node1&#45;&gt;Node4</title>
<g id="a_edge3_Node000001_Node000004"><a xlink:title=" ">
<path fill="none" stroke="#63b8ff" d="M181.23,-39.57C189.2,-38.79 197.24,-38 205.13,-37.22"/>
<polygon fill="#63b8ff" stroke="#63b8ff" points="205.43,-40.71 215.04,-36.25 204.75,-33.75 205.43,-40.71"/>
</a>
</g>
</g>
<!-- Node3 -->
<g id="Node000003" class="node">
<title>Node3</title>
<g id="a_Node000003"><a xlink:href="structImVector.html#a278ca772697b2b2139d3b8add336a249" target="_top" xlink:title=" ">
<polygon fill="white" stroke="#666666" points="634.38,-78.75 550.88,-78.75 550.88,-58 634.38,-58 634.38,-78.75"/>
<text text-anchor="middle" x="592.62" y="-65.25" font-family="Helvetica,sans-Serif" font-size="10.00">ImVector::end</text>
</a>
</g>
</g>
<!-- Node2&#45;&gt;Node3 -->
<g id="edge2_Node000002_Node000003" class="edge">
<title>Node2&#45;&gt;Node3</title>
<g id="a_edge2_Node000002_Node000003"><a xlink:title=" ">
<path fill="none" stroke="#63b8ff" d="M510.19,-68.38C519.88,-68.38 529.88,-68.38 539.4,-68.38"/>
<polygon fill="#63b8ff" stroke="#63b8ff" points="539.22,-71.88 549.22,-68.38 539.22,-64.88 539.22,-71.88"/>
</a>
</g>
</g>
<!-- Node5 -->
<g id="Node000005" class="node">
<title>Node5</title>
<g id="a_Node000005"><a xlink:href="structImGuiStorage.html#af83975ca841a9bd0e06a6ea0a41bf159" target="_top" xlink:title=" ">
<polygon fill="white" stroke="#666666" points="509.25,-39.75 392,-39.75 392,-19 509.25,-19 509.25,-39.75"/>
<text text-anchor="middle" x="450.62" y="-26.25" font-family="Helvetica,sans-Serif" font-size="10.00">ImGuiStorage::SetInt</text>
</a>
</g>
</g>
<!-- Node4&#45;&gt;Node5 -->
<g id="edge4_Node000004_Node000005" class="edge">
<title>Node4&#45;&gt;Node5</title>
<g id="a_edge4_Node000004_Node000005"><a xlink:title=" ">
<path fill="none" stroke="#63b8ff" d="M355.57,-29.38C363.7,-29.38 372.02,-29.38 380.17,-29.38"/>
<polygon fill="#63b8ff" stroke="#63b8ff" points="380.03,-32.88 390.03,-29.38 380.03,-25.88 380.03,-32.88"/>
</a>
</g>
</g>
<!-- Node5&#45;&gt;Node3 -->
<g id="edge5_Node000005_Node000003" class="edge">
<title>Node5&#45;&gt;Node3</title>
<g id="a_edge5_Node000005_Node000003"><a xlink:title=" ">
<path fill="none" stroke="#63b8ff" d="M490.62,-40.24C506.55,-44.68 525.16,-49.86 542.04,-54.56"/>
<polygon fill="#63b8ff" stroke="#63b8ff" points="540.81,-57.85 551.38,-57.16 542.68,-51.11 540.81,-57.85"/>
</a>
</g>
</g>
<!-- Node6 -->
<g id="Node000006" class="node">
<title>Node6</title>
<g id="a_Node000006"><a xlink:href="structImVector.html#a541c8cd4b844f5276f10d160cb500533" target="_top" xlink:title=" ">
<polygon fill="white" stroke="#666666" points="639.25,-39.75 546,-39.75 546,-19 639.25,-19 639.25,-39.75"/>
<text text-anchor="middle" x="592.62" y="-26.25" font-family="Helvetica,sans-Serif" font-size="10.00">ImVector::insert</text>
</a>
</g>
</g>
<!-- Node5&#45;&gt;Node6 -->
<g id="edge6_Node000005_Node000006" class="edge">
<title>Node5&#45;&gt;Node6</title>
<g id="a_edge6_Node000005_Node000006"><a xlink:title=" ">
<path fill="none" stroke="#63b8ff" d="M509.38,-29.38C517.57,-29.38 525.99,-29.38 534.18,-29.38"/>
<polygon fill="#63b8ff" stroke="#63b8ff" points="534.03,-32.88 544.03,-29.38 534.03,-25.88 534.03,-32.88"/>
</a>
</g>
</g>
<!-- Node7 -->
<g id="Node000007" class="node">
<title>Node7</title>
<g id="a_Node000007"><a xlink:href="structImVector.html#a3a097635d464b1b70dc7d59996a88b28" target="_top" xlink:title=" ">
<polygon fill="white" stroke="#666666" points="816.5,-59.75 675.25,-59.75 675.25,-39 816.5,-39 816.5,-59.75"/>
<text text-anchor="middle" x="745.88" y="-46.25" font-family="Helvetica,sans-Serif" font-size="10.00">ImVector::_grow_capacity</text>
</a>
</g>
</g>
<!-- Node6&#45;&gt;Node7 -->
<g id="edge7_Node000006_Node000007" class="edge">
<title>Node6&#45;&gt;Node7</title>
<g id="a_edge7_Node000006_Node000007"><a xlink:title=" ">
<path fill="none" stroke="#63b8ff" d="M639.42,-35.43C647.13,-36.45 655.33,-37.53 663.63,-38.63"/>
<polygon fill="#63b8ff" stroke="#63b8ff" points="663.08,-42.09 673.45,-39.93 664,-35.15 663.08,-42.09"/>
</a>
</g>
</g>
<!-- Node8 -->
<g id="Node000008" class="node">
<title>Node8</title>
<g id="a_Node000008"><a xlink:href="structImVector.html#a0f14f5736c3372157856eebb67123b75" target="_top" xlink:title=" ">
<polygon fill="white" stroke="#666666" points="797,-20.75 694.75,-20.75 694.75,0 797,0 797,-20.75"/>
<text text-anchor="middle" x="745.88" y="-7.25" font-family="Helvetica,sans-Serif" font-size="10.00">ImVector::reserve</text>
</a>
</g>
</g>
<!-- Node6&#45;&gt;Node8 -->
<g id="edge8_Node000006_Node000008" class="edge">
<title>Node6&#45;&gt;Node8</title>
<g id="a_edge8_Node000006_Node000008"><a xlink:title=" ">
<path fill="none" stroke="#63b8ff" d="M639.42,-23.62C653.27,-21.88 668.72,-19.94 683.43,-18.09"/>
<polygon fill="#63b8ff" stroke="#63b8ff" points="683.5,-21.61 692.99,-16.89 682.63,-14.67 683.5,-21.61"/>
</a>
</g>
</g>
</g>
</svg>

<g id="navigator" transform="translate(0 0)" fill="#404254">
  <rect fill="#f2f5e9" fill-opacity="0.5" stroke="#606060" stroke-width=".5" x="0" y="0" width="60" height="60"/>
  <use id="zoomplus" xlink:href="#zoomPlus" x="17" y="9" onmousedown="handleZoom(evt,'in')"/>
  <use id="zoomminus" xlink:href="#zoomMin" x="42" y="9" onmousedown="handleZoom(evt,'out')"/>
  <use id="reset" xlink:href="#resetDef" x="30" y="36" onmousedown="handleReset()"/>
   <use id="arrowup" xlink:href="#arrowUp" x="0" y="0" onmousedown="handlePan(0,-1)"/>
  <use id="arrowright" xlink:href="#arrowRight" x="0" y="0" onmousedown="handlePan(1,0)"/>
  <use id="arrowdown" xlink:href="#arrowDown" x="0" y="0" onmousedown="handlePan(0,1)"/>
  <use id="arrowleft" xlink:href="#arrowLeft" x="0" y="0" onmousedown="handlePan(-1,0)"/>
</g>
<svg viewBox="0 0 15 15" width="100%" height="30px" preserveAspectRatio="xMaxYMin meet">
 <g id="arrow_out" transform="scale(0.3 0.3)">
  <a xlink:href="namespaceImGui_a5dc6b814cfe2dd923ece2d3cf77a5f62_cgraph_org.svg" target="_base">
   <rect id="button" ry="5" rx="5" y="6" x="6" height="38" width="38"
        fill="#f2f5e9" fill-opacity="0.5" stroke="#606060" stroke-width="1.0"/>
   <path id="arrow"
     d="M 11.500037,31.436501 C 11.940474,20.09759 22.043105,11.32322 32.158766,21.979434 L 37.068811,17.246167 C 37.068811,17.246167 37.088388,32 37.088388,32 L 22.160133,31.978069 C 22.160133,31.978069 26.997745,27.140456 26.997745,27.140456 C 18.528582,18.264221 13.291696,25.230495 11.500037,31.436501 z"
     style="fill:#404040;"/>
  </a>
 </g>
</svg>

<style type='text/css'>
<![CDATA[
[data-mouse-over-selected='false'] { opacity: 0.7; }
[data-mouse-over-selected='true']  { opacity: 1.0; }
]]>
</style>
<script type="application/ecmascript"><![CDATA[
document.addEventListener('DOMContentLoaded', (event) => {
  highlightEdges();
  highlightAdjacentNodes();
});
]]></script>
</svg>
