<?xml version="1.0" encoding="UTF-8" standalone="no"?>
<!DOCTYPE svg PUBLIC "-//W3C//DTD SVG 1.1//EN"
 "http://www.w3.org/Graphics/SVG/1.1/DTD/svg11.dtd">
<!-- Generated by graphviz version 11.0.0 (20240428.1522)
 -->
<!-- Title: steppable::__internals::numUtils::getRootFactor Pages: 1 -->
<svg width="1586pt" height="666pt"
 viewBox="0.00 0.00 1586.00 665.50" xmlns="http://www.w3.org/2000/svg" xmlns:xlink="http://www.w3.org/1999/xlink">
<g id="graph0" class="graph" transform="scale(1 1) rotate(0) translate(4 661.5)">
<title>steppable::__internals::numUtils::getRootFactor</title>
<!-- Node1 -->
<g id="Node000001" class="node">
<title>Node1</title>
<g id="a_Node000001"><a xlink:title="Get the largest factor of a number, that is a root number.">
<polygon fill="#999999" stroke="#666666" points="1578,-187.5 1438.25,-187.5 1438.25,-154 1578,-154 1578,-187.5"/>
<text text-anchor="start" x="1446.25" y="-174" font-family="Helvetica,sans-Serif" font-size="10.00">steppable::__internals</text>
<text text-anchor="middle" x="1508.12" y="-161.25" font-family="Helvetica,sans-Serif" font-size="10.00">::numUtils::getRootFactor</text>
</a>
</g>
</g>
<!-- Node2 -->
<g id="Node000002" class="node">
<title>Node2</title>
<g id="a_Node000002"><a xlink:href="namespacesteppable_1_1____internals_1_1arithmetic.html#a118bc6cb979317a7c762ee90fb44d0a4" target="_top" xlink:title="Converts a root operation into a surd.">
<polygon fill="white" stroke="#666666" points="1402.25,-187.5 1279,-187.5 1279,-154 1402.25,-154 1402.25,-187.5"/>
<text text-anchor="start" x="1287" y="-174" font-family="Helvetica,sans-Serif" font-size="10.00">steppable::__internals</text>
<text text-anchor="middle" x="1340.62" y="-161.25" font-family="Helvetica,sans-Serif" font-size="10.00">::arithmetic::rootSurd</text>
</a>
</g>
</g>
<!-- Node1&#45;&gt;Node2 -->
<g id="edge1_Node000001_Node000002" class="edge">
<title>Node1&#45;&gt;Node2</title>
<g id="a_edge1_Node000001_Node000002"><a xlink:title=" ">
<path fill="none" stroke="#63b8ff" d="M1426.58,-170.75C1418.54,-170.75 1410.47,-170.75 1402.68,-170.75"/>
<polygon fill="#63b8ff" stroke="#63b8ff" points="1426.38,-174.25 1436.38,-170.75 1426.38,-167.25 1426.38,-174.25"/>
</a>
</g>
</g>
<!-- Node3 -->
<g id="Node000003" class="node">
<title>Node3</title>
<g id="a_Node000003"><a xlink:href="namespacesteppable_1_1____internals_1_1arithmetic.html#a4aa89d1787b7578cd2ed73392bdcd7df" target="_top" xlink:title="Takes the n&#45;th root of a numer.">
<polygon fill="white" stroke="#666666" points="1243,-165.5 1119.75,-165.5 1119.75,-132 1243,-132 1243,-165.5"/>
<text text-anchor="start" x="1127.75" y="-152" font-family="Helvetica,sans-Serif" font-size="10.00">steppable::__internals</text>
<text text-anchor="middle" x="1181.38" y="-139.25" font-family="Helvetica,sans-Serif" font-size="10.00">::arithmetic::root</text>
</a>
</g>
</g>
<!-- Node2&#45;&gt;Node3 -->
<g id="edge2_Node000002_Node000003" class="edge">
<title>Node2&#45;&gt;Node3</title>
<g id="a_edge2_Node000002_Node000003"><a xlink:title=" ">
<path fill="none" stroke="#63b8ff" d="M1267.48,-160.66C1259.39,-159.52 1251.2,-158.38 1243.27,-157.27"/>
<polygon fill="#63b8ff" stroke="#63b8ff" points="1266.94,-164.12 1277.33,-162.03 1267.91,-157.18 1266.94,-164.12"/>
</a>
</g>
</g>
<!-- Node4 -->
<g id="Node000004" class="node">
<title>Node4</title>
<g id="a_Node000004"><a xlink:href="namespacesteppable_1_1____internals_1_1arithmetic.html#a50acfa1ad06ce385943ddd207146c9e0" target="_top" xlink:title="Raises a string representation of a number to a power.">
<polygon fill="white" stroke="#666666" points="1083.75,-428.5 960.5,-428.5 960.5,-395 1083.75,-395 1083.75,-428.5"/>
<text text-anchor="start" x="968.5" y="-415" font-family="Helvetica,sans-Serif" font-size="10.00">steppable::__internals</text>
<text text-anchor="middle" x="1022.12" y="-402.25" font-family="Helvetica,sans-Serif" font-size="10.00">::arithmetic::power</text>
</a>
</g>
</g>
<!-- Node3&#45;&gt;Node4 -->
<g id="edge3_Node000003_Node000004" class="edge">
<title>Node3&#45;&gt;Node4</title>
<g id="a_edge3_Node000003_Node000004"><a xlink:title=" ">
<path fill="none" stroke="#63b8ff" d="M1164.4,-175.46C1132.15,-229.41 1060.02,-350.04 1033.32,-394.7"/>
<polygon fill="#63b8ff" stroke="#63b8ff" points="1167.39,-177.28 1169.52,-166.9 1161.39,-173.69 1167.39,-177.28"/>
</a>
</g>
</g>
<!-- Node4&#45;&gt;Node4 -->
<g id="edge37_Node000004_Node000004" class="edge">
<title>Node4&#45;&gt;Node4</title>
<g id="a_edge37_Node000004_Node000004"><a xlink:title=" ">
<path fill="none" stroke="#63b8ff" d="M1048.86,-439.89C1044.51,-443.85 1035.6,-446.5 1022.12,-446.5 998.18,-446.5 988.63,-438.12 993.5,-428.91"/>
<polygon fill="#63b8ff" stroke="#63b8ff" points="1052.25,-440.85 1050.5,-430.41 1045.35,-439.67 1052.25,-440.85"/>
</a>
</g>
</g>
<!-- Node5 -->
<g id="Node000005" class="node">
<title>Node5</title>
<g id="a_Node000005"><a xlink:href="namespacesteppable_1_1____internals_1_1arithmetic.html#a1eedcdd2349ec452f6319cd0ff443e0a" target="_top" xlink:title=" ">
<polygon fill="white" stroke="#666666" points="519,-119.5 395.75,-119.5 395.75,-86 519,-86 519,-119.5"/>
<text text-anchor="start" x="403.75" y="-106" font-family="Helvetica,sans-Serif" font-size="10.00">steppable::__internals</text>
<text text-anchor="middle" x="457.38" y="-93.25" font-family="Helvetica,sans-Serif" font-size="10.00">::arithmetic::_root</text>
</a>
</g>
</g>
<!-- Node4&#45;&gt;Node5 -->
<g id="edge4_Node000004_Node000005" class="edge">
<title>Node4&#45;&gt;Node5</title>
<g id="a_edge4_Node000004_Node000005"><a xlink:title=" ">
<path fill="none" stroke="#63b8ff" d="M1007.94,-384.51C992.03,-354.28 962.61,-305.93 924.5,-276.75 890.08,-250.4 623,-158.38 509.33,-119.88"/>
<polygon fill="#63b8ff" stroke="#63b8ff" points="1004.82,-386.1 1012.49,-393.41 1011.05,-382.91 1004.82,-386.1"/>
</a>
</g>
</g>
<!-- Node6 -->
<g id="Node000006" class="node">
<title>Node6</title>
<g id="a_Node000006"><a xlink:href="namespacesteppable_1_1____internals_1_1arithmetic.html#afc4c4f319dadbb5b1ff481132f008374" target="_top" xlink:title="Converts a string representation of a number from any base to decimal.">
<polygon fill="white" stroke="#666666" points="909.5,-511.5 754,-511.5 754,-478 909.5,-478 909.5,-511.5"/>
<text text-anchor="start" x="762" y="-498" font-family="Helvetica,sans-Serif" font-size="10.00">steppable::__internals</text>
<text text-anchor="middle" x="831.75" y="-485.25" font-family="Helvetica,sans-Serif" font-size="10.00">::arithmetic::decimalConvert</text>
</a>
</g>
</g>
<!-- Node4&#45;&gt;Node6 -->
<g id="edge7_Node000004_Node000006" class="edge">
<title>Node4&#45;&gt;Node6</title>
<g id="a_edge7_Node000004_Node000006"><a xlink:title=" ">
<path fill="none" stroke="#63b8ff" d="M982.38,-434.53C965.02,-444.23 944.07,-455.25 924.5,-463.75 913.09,-468.71 900.61,-473.39 888.63,-477.54"/>
<polygon fill="#63b8ff" stroke="#63b8ff" points="983.86,-437.71 990.84,-429.74 980.42,-431.62 983.86,-437.71"/>
</a>
</g>
</g>
<!-- Node7 -->
<g id="Node000007" class="node">
<title>Node7</title>
<g id="a_Node000007"><a xlink:href="namespacesteppable_1_1____internals_1_1arithmetic.html#aa150ef39a272f7228ae239679247fab3" target="_top" xlink:title="Determines the scale of the quotient of division.">
<polygon fill="white" stroke="#666666" points="924.5,-319.5 739,-319.5 739,-286 924.5,-286 924.5,-319.5"/>
<text text-anchor="start" x="747" y="-306" font-family="Helvetica,sans-Serif" font-size="10.00">steppable::__internals</text>
<text text-anchor="middle" x="831.75" y="-293.25" font-family="Helvetica,sans-Serif" font-size="10.00">::arithmetic::determineResultScale</text>
</a>
</g>
</g>
<!-- Node4&#45;&gt;Node7 -->
<g id="edge8_Node000004_Node000007" class="edge">
<title>Node4&#45;&gt;Node7</title>
<g id="a_edge8_Node000004_Node000007"><a xlink:title=" ">
<path fill="none" stroke="#63b8ff" d="M982.1,-389.17C946.47,-368.55 894.58,-338.53 862.29,-319.84"/>
<polygon fill="#63b8ff" stroke="#63b8ff" points="979.97,-391.98 990.38,-393.96 983.48,-385.92 979.97,-391.98"/>
</a>
</g>
</g>
<!-- Node15 -->
<g id="Node000015" class="node">
<title>Node15</title>
<g id="a_Node000015"><a xlink:href="namespacesteppable_1_1____internals_1_1arithmetic.html#a6f1429e9d7719e6376dc68ae28d36dbe" target="_top" xlink:title="Gets the integer part of the root of a number.">
<polygon fill="white" stroke="#666666" points="522,-435.5 392.75,-435.5 392.75,-402 522,-402 522,-435.5"/>
<text text-anchor="start" x="400.75" y="-422" font-family="Helvetica,sans-Serif" font-size="10.00">steppable::__internals</text>
<text text-anchor="middle" x="457.38" y="-409.25" font-family="Helvetica,sans-Serif" font-size="10.00">::arithmetic::rootIntPart</text>
</a>
</g>
</g>
<!-- Node4&#45;&gt;Node15 -->
<g id="edge38_Node000004_Node000015" class="edge">
<title>Node4&#45;&gt;Node15</title>
<g id="a_edge38_Node000004_Node000015"><a xlink:title=" ">
<path fill="none" stroke="#63b8ff" d="M948.71,-412.65C837.83,-414.03 627.77,-416.64 522.25,-417.96"/>
<polygon fill="#63b8ff" stroke="#63b8ff" points="948.63,-416.15 958.58,-412.53 948.54,-409.15 948.63,-416.15"/>
</a>
</g>
</g>
<!-- Node16 -->
<g id="Node000016" class="node">
<title>Node16</title>
<g id="a_Node000016"><a xlink:href="namespacesteppable_1_1____internals_1_1numUtils.html#a9af210044669c6dd27a2fca4723fe831" target="_top" xlink:title="Get the greatest root number less than or equal to the given number.">
<polygon fill="white" stroke="#666666" points="335,-605.5 159.25,-605.5 159.25,-572 335,-572 335,-605.5"/>
<text text-anchor="start" x="167.25" y="-592" font-family="Helvetica,sans-Serif" font-size="10.00">steppable::__internals</text>
<text text-anchor="middle" x="247.12" y="-579.25" font-family="Helvetica,sans-Serif" font-size="10.00">::numUtils::getGreatestRootNum</text>
</a>
</g>
</g>
<!-- Node4&#45;&gt;Node16 -->
<g id="edge33_Node000004_Node000016" class="edge">
<title>Node4&#45;&gt;Node16</title>
<g id="a_edge33_Node000004_Node000016"><a xlink:title=" ">
<path fill="none" stroke="#63b8ff" d="M949.33,-398.4C798.99,-372.18 457.81,-322.39 371,-392.75 311,-441.38 387.32,-505.94 335,-562.75 331.91,-566.11 328.4,-569.04 324.61,-571.6"/>
<polygon fill="#63b8ff" stroke="#63b8ff" points="948.3,-401.77 958.76,-400.06 949.52,-394.88 948.3,-401.77"/>
</a>
</g>
</g>
<!-- Node17 -->
<g id="Node000017" class="node">
<title>Node17</title>
<g id="a_Node000017"><a xlink:href="namespacesteppable_1_1____internals_1_1numUtils.html#af5d859c9839f7f49bf06f891693d5dfc" target="_top" xlink:title="Check if a number is a root number.">
<polygon fill="white" stroke="#666666" points="308.75,-657.5 185.5,-657.5 185.5,-624 308.75,-624 308.75,-657.5"/>
<text text-anchor="start" x="193.5" y="-644" font-family="Helvetica,sans-Serif" font-size="10.00">steppable::__internals</text>
<text text-anchor="middle" x="247.12" y="-631.25" font-family="Helvetica,sans-Serif" font-size="10.00">::numUtils::isRoot</text>
</a>
</g>
</g>
<!-- Node4&#45;&gt;Node17 -->
<g id="edge34_Node000004_Node000017" class="edge">
<title>Node4&#45;&gt;Node17</title>
<g id="a_edge34_Node000004_Node000017"><a xlink:title=" ">
<path fill="none" stroke="#63b8ff" d="M949.27,-425.02C879.2,-438.18 777.71,-457.91 739,-468.75 555.15,-520.24 516.3,-554.91 335,-614.75 326.03,-617.71 316.49,-620.71 307.15,-623.57"/>
<polygon fill="#63b8ff" stroke="#63b8ff" points="949.56,-428.52 958.74,-423.24 948.27,-421.64 949.56,-428.52"/>
</a>
</g>
</g>
<!-- Node28 -->
<g id="Node000028" class="node">
<title>Node28</title>
<g id="a_Node000028"><a xlink:href="classsteppable_1_1Fraction.html#abaf8678e0b61e3097789959b66e4c23c" target="_top" xlink:title="Raises the fraction to a power.">
<polygon fill="white" stroke="#666666" points="886.25,-615.5 777.25,-615.5 777.25,-582 886.25,-582 886.25,-615.5"/>
<text text-anchor="start" x="785.25" y="-602" font-family="Helvetica,sans-Serif" font-size="10.00">steppable::Fraction</text>
<text text-anchor="middle" x="831.75" y="-589.25" font-family="Helvetica,sans-Serif" font-size="10.00">::operator^</text>
</a>
</g>
</g>
<!-- Node4&#45;&gt;Node28 -->
<g id="edge35_Node000004_Node000028" class="edge">
<title>Node4&#45;&gt;Node28</title>
<g id="a_edge35_Node000004_Node000028"><a xlink:title=" ">
<path fill="none" stroke="#63b8ff" d="M1011.74,-439.74C998.19,-475.86 969.7,-538.16 924.5,-572.75 913.46,-581.2 899.78,-586.91 886.39,-590.76"/>
<polygon fill="#63b8ff" stroke="#63b8ff" points="1015,-441.02 1015.1,-430.42 1008.42,-438.64 1015,-441.02"/>
</a>
</g>
</g>
<!-- Node29 -->
<g id="Node000029" class="node">
<title>Node29</title>
<g id="a_Node000029"><a xlink:href="classsteppable_1_1Number.html#ae3e13c5f73bc67cd464c84a8640e1387" target="_top" xlink:title="Raises the number to a power.">
<polygon fill="white" stroke="#666666" points="889.25,-563.5 774.25,-563.5 774.25,-530 889.25,-530 889.25,-563.5"/>
<text text-anchor="start" x="782.25" y="-550" font-family="Helvetica,sans-Serif" font-size="10.00">steppable::Number::</text>
<text text-anchor="middle" x="831.75" y="-537.25" font-family="Helvetica,sans-Serif" font-size="10.00">operator^</text>
</a>
</g>
</g>
<!-- Node4&#45;&gt;Node29 -->
<g id="edge36_Node000004_Node000029" class="edge">
<title>Node4&#45;&gt;Node29</title>
<g id="a_edge36_Node000004_Node000029"><a xlink:title=" ">
<path fill="none" stroke="#63b8ff" d="M1004.14,-438.42C986.96,-463.27 958.19,-499.59 924.5,-520.75 913.99,-527.35 901.76,-532.32 889.72,-536.04"/>
<polygon fill="#63b8ff" stroke="#63b8ff" points="1007.04,-440.37 1009.72,-430.12 1001.23,-436.47 1007.04,-440.37"/>
</a>
</g>
</g>
<!-- Node5&#45;&gt;Node3 -->
<g id="edge6_Node000005_Node000003" class="edge">
<title>Node5&#45;&gt;Node3</title>
<g id="a_edge6_Node000005_Node000003"><a xlink:title=" ">
<path fill="none" stroke="#63b8ff" d="M530.57,-107.35C672.79,-116.41 986.87,-136.42 1119.44,-144.87"/>
<polygon fill="#63b8ff" stroke="#63b8ff" points="531.11,-103.88 520.91,-106.73 530.67,-110.86 531.11,-103.88"/>
</a>
</g>
</g>
<!-- Node5&#45;&gt;Node5 -->
<g id="edge5_Node000005_Node000005" class="edge">
<title>Node5&#45;&gt;Node5</title>
<g id="a_edge5_Node000005_Node000005"><a xlink:title=" ">
<path fill="none" stroke="#63b8ff" d="M488.27,-130.89C483.24,-134.85 472.94,-137.5 457.38,-137.5 429.7,-137.5 418.68,-129.12 424.3,-119.91"/>
<polygon fill="#63b8ff" stroke="#63b8ff" points="491.64,-131.89 490.16,-121.4 484.77,-130.52 491.64,-131.89"/>
</a>
</g>
</g>
<!-- Node8 -->
<g id="Node000008" class="node">
<title>Node8</title>
<g id="a_Node000008"><a xlink:href="namespacesteppable_1_1____internals_1_1arithmetic.html#a26194ae8ddb44afb942fbf8335ae1730" target="_top" xlink:title="Divides a string representation of a number by another string representation of a number.">
<polygon fill="white" stroke="#666666" points="703,-293.5 579.75,-293.5 579.75,-260 703,-260 703,-293.5"/>
<text text-anchor="start" x="587.75" y="-280" font-family="Helvetica,sans-Serif" font-size="10.00">steppable::__internals</text>
<text text-anchor="middle" x="641.38" y="-267.25" font-family="Helvetica,sans-Serif" font-size="10.00">::arithmetic::divide</text>
</a>
</g>
</g>
<!-- Node7&#45;&gt;Node8 -->
<g id="edge9_Node000007_Node000008" class="edge">
<title>Node7&#45;&gt;Node8</title>
<g id="a_edge9_Node000007_Node000008"><a xlink:title=" ">
<path fill="none" stroke="#63b8ff" d="M727.48,-288.5C719.23,-287.36 711.08,-286.23 703.27,-285.15"/>
<polygon fill="#63b8ff" stroke="#63b8ff" points="726.89,-291.95 737.27,-289.85 727.84,-285.01 726.89,-291.95"/>
</a>
</g>
</g>
<!-- Node8&#45;&gt;Node2 -->
<g id="edge22_Node000008_Node000002" class="edge">
<title>Node8&#45;&gt;Node2</title>
<g id="a_edge22_Node000008_Node000002"><a xlink:title=" ">
<path fill="none" stroke="#63b8ff" d="M714.55,-265.78C852.26,-244.84 1150.21,-199.55 1278.66,-180.02"/>
<polygon fill="#63b8ff" stroke="#63b8ff" points="714.18,-262.29 704.82,-267.26 715.23,-269.21 714.18,-262.29"/>
</a>
</g>
</g>
<!-- Node8&#45;&gt;Node5 -->
<g id="edge10_Node000008_Node000005" class="edge">
<title>Node8&#45;&gt;Node5</title>
<g id="a_edge10_Node000008_Node000005"><a xlink:title=" ">
<path fill="none" stroke="#63b8ff" d="M587.41,-253.04C584.65,-250.79 582.06,-248.37 579.75,-245.75 548.76,-210.66 574.69,-181.89 543.75,-146.75 533.72,-135.36 520.04,-126.51 506.56,-119.83"/>
<polygon fill="#63b8ff" stroke="#63b8ff" points="585.31,-255.84 595.51,-258.73 589.34,-250.11 585.31,-255.84"/>
</a>
</g>
</g>
<!-- Node9 -->
<g id="Node000009" class="node">
<title>Node9</title>
<g id="a_Node000009"><a xlink:href="namespacesteppable_1_1____internals_1_1arithmetic.html#a814abbd0fc1772320626c4c0ca3f677a" target="_top" xlink:title="Converts a string representation of a number from decimal to another one.">
<polygon fill="white" stroke="#666666" points="527.25,-293.5 387.5,-293.5 387.5,-260 527.25,-260 527.25,-293.5"/>
<text text-anchor="start" x="395.5" y="-280" font-family="Helvetica,sans-Serif" font-size="10.00">steppable::__internals</text>
<text text-anchor="middle" x="457.38" y="-267.25" font-family="Helvetica,sans-Serif" font-size="10.00">::arithmetic::baseConvert</text>
</a>
</g>
</g>
<!-- Node8&#45;&gt;Node9 -->
<g id="edge11_Node000008_Node000009" class="edge">
<title>Node8&#45;&gt;Node9</title>
<g id="a_edge11_Node000008_Node000009"><a xlink:title=" ">
<path fill="none" stroke="#63b8ff" d="M567.76,-276.75C554.48,-276.75 540.66,-276.75 527.48,-276.75"/>
<polygon fill="#63b8ff" stroke="#63b8ff" points="567.75,-280.25 577.75,-276.75 567.75,-273.25 567.75,-280.25"/>
</a>
</g>
</g>
<!-- Node10 -->
<g id="Node000010" class="node">
<title>Node10</title>
<g id="a_Node000010"><a xlink:href="namespacesteppable_1_1____internals_1_1arithmetic.html#ac9102075acd398b3bdf388f6cc2ef978" target="_top" xlink:title=" ">
<polygon fill="white" stroke="#666666" points="543.75,-189.5 371,-189.5 371,-156 543.75,-156 543.75,-189.5"/>
<text text-anchor="start" x="379" y="-176" font-family="Helvetica,sans-Serif" font-size="10.00">steppable::__internals</text>
<text text-anchor="middle" x="457.38" y="-163.25" font-family="Helvetica,sans-Serif" font-size="10.00">::arithmetic::divideWithQuotient</text>
</a>
</g>
</g>
<!-- Node8&#45;&gt;Node10 -->
<g id="edge12_Node000008_Node000010" class="edge">
<title>Node8&#45;&gt;Node10</title>
<g id="a_edge12_Node000008_Node000010"><a xlink:title=" ">
<path fill="none" stroke="#63b8ff" d="M590.79,-253.8C586.91,-251.29 583.18,-248.61 579.75,-245.75 559.54,-228.9 565.37,-213.75 543.75,-198.75 538.91,-195.39 533.63,-192.46 528.14,-189.9"/>
<polygon fill="#63b8ff" stroke="#63b8ff" points="588.93,-256.77 599.32,-258.88 592.51,-250.76 588.93,-256.77"/>
</a>
</g>
</g>
<!-- Node14 -->
<g id="Node000014" class="node">
<title>Node14</title>
<g id="a_Node000014"><a xlink:href="classsteppable_1_1Number.html#aebdaf5d342a2a897793556bd390bc184" target="_top" xlink:title="Divides two numbers.">
<polygon fill="white" stroke="#666666" points="514.88,-241.5 399.88,-241.5 399.88,-208 514.88,-208 514.88,-241.5"/>
<text text-anchor="start" x="407.88" y="-228" font-family="Helvetica,sans-Serif" font-size="10.00">steppable::Number::</text>
<text text-anchor="middle" x="457.38" y="-215.25" font-family="Helvetica,sans-Serif" font-size="10.00">operator/</text>
</a>
</g>
</g>
<!-- Node8&#45;&gt;Node14 -->
<g id="edge17_Node000008_Node000014" class="edge">
<title>Node8&#45;&gt;Node14</title>
<g id="a_edge17_Node000008_Node000014"><a xlink:title=" ">
<path fill="none" stroke="#63b8ff" d="M569.06,-256.37C551.18,-251.27 532.24,-245.85 515.17,-240.98"/>
<polygon fill="#63b8ff" stroke="#63b8ff" points="567.99,-259.71 578.57,-259.09 569.92,-252.98 567.99,-259.71"/>
</a>
</g>
</g>
<!-- Node8&#45;&gt;Node15 -->
<g id="edge18_Node000008_Node000015" class="edge">
<title>Node8&#45;&gt;Node15</title>
<g id="a_edge18_Node000008_Node000015"><a xlink:title=" ">
<path fill="none" stroke="#63b8ff" d="M611.02,-300.9C591.98,-316.45 566.56,-337 543.75,-354.75 522.99,-370.9 498.99,-388.83 481.74,-401.59"/>
<polygon fill="#63b8ff" stroke="#63b8ff" points="613.12,-303.7 618.64,-294.66 608.69,-298.29 613.12,-303.7"/>
</a>
</g>
</g>
<!-- Node18 -->
<g id="Node000018" class="node">
<title>Node18</title>
<g id="a_Node000018"><a xlink:href="classsteppable_1_1Fraction.html#a9cf64d847c268d9334775c572ef75dfa" target="_top" xlink:title="Simplifies a fraction. This function simplifies the fraction by dividing the top and bottom component...">
<polygon fill="white" stroke="#666666" points="511.88,-345.5 402.88,-345.5 402.88,-312 511.88,-312 511.88,-345.5"/>
<text text-anchor="start" x="410.88" y="-332" font-family="Helvetica,sans-Serif" font-size="10.00">steppable::Fraction</text>
<text text-anchor="middle" x="457.38" y="-319.25" font-family="Helvetica,sans-Serif" font-size="10.00">::simplify</text>
</a>
</g>
</g>
<!-- Node8&#45;&gt;Node18 -->
<g id="edge23_Node000008_Node000018" class="edge">
<title>Node8&#45;&gt;Node18</title>
<g id="a_edge23_Node000008_Node000018"><a xlink:title=" ">
<path fill="none" stroke="#63b8ff" d="M569.04,-297.13C550.1,-302.54 529.96,-308.3 512.13,-313.39"/>
<polygon fill="#63b8ff" stroke="#63b8ff" points="569.92,-300.52 578.57,-294.41 567.99,-293.79 569.92,-300.52"/>
</a>
</g>
</g>
<!-- Node11 -->
<g id="Node000011" class="node">
<title>Node11</title>
<g id="a_Node000011"><a xlink:href="namespacesteppable_1_1____internals_1_1numUtils.html#a5eeb396144a9e1d3edd3339abb6f434f" target="_top" xlink:title="Get the factors of a number.">
<polygon fill="white" stroke="#666666" points="308.75,-33.5 185.5,-33.5 185.5,0 308.75,0 308.75,-33.5"/>
<text text-anchor="start" x="193.5" y="-20" font-family="Helvetica,sans-Serif" font-size="10.00">steppable::__internals</text>
<text text-anchor="middle" x="247.12" y="-7.25" font-family="Helvetica,sans-Serif" font-size="10.00">::numUtils::getFactors</text>
</a>
</g>
</g>
<!-- Node10&#45;&gt;Node11 -->
<g id="edge13_Node000010_Node000011" class="edge">
<title>Node10&#45;&gt;Node11</title>
<g id="a_edge13_Node000010_Node000011"><a xlink:title=" ">
<path fill="none" stroke="#63b8ff" d="M373.33,-148.88C372.53,-148.19 371.76,-147.48 371,-146.75 335.77,-112.82 370.31,-76.6 335,-42.75 327.73,-35.78 318.66,-30.67 309.15,-26.92"/>
<polygon fill="#63b8ff" stroke="#63b8ff" points="371.1,-151.58 381.25,-154.63 375.22,-145.92 371.1,-151.58"/>
</a>
</g>
</g>
<!-- Node13 -->
<g id="Node000013" class="node">
<title>Node13</title>
<g id="a_Node000013"><a xlink:href="classsteppable_1_1Number.html#a719a8a93fcfe91b30c38ba0830d6de50" target="_top" xlink:title="Calculates the remainder of two numbers. (Modulus)">
<polygon fill="white" stroke="#666666" points="304.62,-85.5 189.62,-85.5 189.62,-52 304.62,-52 304.62,-85.5"/>
<text text-anchor="start" x="197.62" y="-72" font-family="Helvetica,sans-Serif" font-size="10.00">steppable::Number::</text>
<text text-anchor="middle" x="247.12" y="-59.25" font-family="Helvetica,sans-Serif" font-size="10.00">operator%</text>
</a>
</g>
</g>
<!-- Node10&#45;&gt;Node13 -->
<g id="edge16_Node000010_Node000013" class="edge">
<title>Node10&#45;&gt;Node13</title>
<g id="a_edge16_Node000010_Node000013"><a xlink:title=" ">
<path fill="none" stroke="#63b8ff" d="M375.92,-150.08C374.24,-149.02 372.59,-147.91 371,-146.75 348.29,-130.18 357.75,-111.27 335,-94.75 326.08,-88.27 315.55,-83.4 304.94,-79.73"/>
<polygon fill="#63b8ff" stroke="#63b8ff" points="374.23,-153.15 384.68,-154.91 377.61,-147.02 374.23,-153.15"/>
</a>
</g>
</g>
<!-- Node11&#45;&gt;Node1 -->
<g id="edge14_Node000011_Node000001" class="edge">
<title>Node11&#45;&gt;Node1</title>
<g id="a_edge14_Node000011_Node000001"><a xlink:title=" ">
<path fill="none" stroke="#63b8ff" d="M320.45,-22.94C399.11,-29.14 528.58,-37.75 640.38,-37.75 1182.38,-37.75 1182.38,-37.75 1182.38,-37.75 1303.31,-37.75 1431.95,-117.71 1483.64,-153.63"/>
<polygon fill="#63b8ff" stroke="#63b8ff" points="320.97,-19.48 310.73,-22.17 320.42,-26.45 320.97,-19.48"/>
</a>
</g>
</g>
<!-- Node12 -->
<g id="Node000012" class="node">
<title>Node12</title>
<g id="a_Node000012"><a xlink:href="namespacesteppable_1_1____internals_1_1numUtils.html#a1a51aabb1fe846587df780d136efd45f" target="_top" xlink:title="Check if a number is prime.">
<polygon fill="white" stroke="#666666" points="123.25,-33.5 0,-33.5 0,0 123.25,0 123.25,-33.5"/>
<text text-anchor="start" x="8" y="-20" font-family="Helvetica,sans-Serif" font-size="10.00">steppable::__internals</text>
<text text-anchor="middle" x="61.62" y="-7.25" font-family="Helvetica,sans-Serif" font-size="10.00">::numUtils::isPrime</text>
</a>
</g>
</g>
<!-- Node11&#45;&gt;Node12 -->
<g id="edge15_Node000011_Node000012" class="edge">
<title>Node11&#45;&gt;Node12</title>
<g id="a_edge15_Node000011_Node000012"><a xlink:title=" ">
<path fill="none" stroke="#63b8ff" d="M173.68,-16.75C157.05,-16.75 139.54,-16.75 123.46,-16.75"/>
<polygon fill="#63b8ff" stroke="#63b8ff" points="173.51,-20.25 183.51,-16.75 173.51,-13.25 173.51,-20.25"/>
</a>
</g>
</g>
<!-- Node15&#45;&gt;Node16 -->
<g id="edge19_Node000015_Node000016" class="edge">
<title>Node15&#45;&gt;Node16</title>
<g id="a_edge19_Node000015_Node000016"><a xlink:title=" ">
<path fill="none" stroke="#63b8ff" d="M382.85,-439.96C378.55,-442.82 374.54,-446.07 371,-449.75 334.48,-487.76 372.6,-525.81 335,-562.75 331.52,-566.17 327.61,-569.14 323.42,-571.73"/>
<polygon fill="#63b8ff" stroke="#63b8ff" points="384.45,-443.08 391.36,-435.05 380.95,-437.02 384.45,-443.08"/>
</a>
</g>
</g>
<!-- Node15&#45;&gt;Node17 -->
<g id="edge20_Node000015_Node000017" class="edge">
<title>Node15&#45;&gt;Node17</title>
<g id="a_edge20_Node000015_Node000017"><a xlink:title=" ">
<path fill="none" stroke="#63b8ff" d="M382.67,-439.43C378.38,-442.42 374.42,-445.84 371,-449.75 321.58,-506.25 386.02,-559.7 335,-614.75 327.94,-622.37 318.74,-627.79 308.98,-631.64"/>
<polygon fill="#63b8ff" stroke="#63b8ff" points="384.44,-442.46 391.24,-434.33 380.86,-436.44 384.44,-442.46"/>
</a>
</g>
</g>
<!-- Node17&#45;&gt;Node1 -->
<g id="edge21_Node000017_Node000001" class="edge">
<title>Node17&#45;&gt;Node1</title>
<g id="a_edge21_Node000017_Node000001"><a xlink:title=" ">
<path fill="none" stroke="#63b8ff" d="M320.17,-641.63C398.84,-642.52 528.57,-643.75 640.38,-643.75 1182.38,-643.75 1182.38,-643.75 1182.38,-643.75 1408.24,-643.75 1488.77,-272.66 1504.22,-187.86"/>
<polygon fill="#63b8ff" stroke="#63b8ff" points="320.49,-638.13 310.45,-641.52 320.41,-645.13 320.49,-638.13"/>
</a>
</g>
</g>
<!-- Node19 -->
<g id="Node000019" class="node">
<title>Node19</title>
<g id="a_Node000019"><a xlink:href="classsteppable_1_1Fraction.html#a4647e3f3062426a91d1ef7cdbde23bb6" target="_top" xlink:title="Initialized a fraction from a number.">
<polygon fill="white" stroke="#666666" points="301.62,-137.5 192.62,-137.5 192.62,-104 301.62,-104 301.62,-137.5"/>
<text text-anchor="start" x="200.62" y="-124" font-family="Helvetica,sans-Serif" font-size="10.00">steppable::Fraction</text>
<text text-anchor="middle" x="247.12" y="-111.25" font-family="Helvetica,sans-Serif" font-size="10.00">::Fraction</text>
</a>
</g>
</g>
<!-- Node18&#45;&gt;Node19 -->
<g id="edge24_Node000018_Node000019" class="edge">
<title>Node18&#45;&gt;Node19</title>
<g id="a_edge24_Node000018_Node000019"><a xlink:title=" ">
<path fill="none" stroke="#63b8ff" d="M392.15,-317.48C384.24,-313.84 376.88,-309.05 371,-302.75 322.45,-250.73 383.68,-198.65 335,-146.75 326.17,-137.33 314.08,-131.28 301.73,-127.41"/>
<polygon fill="#63b8ff" stroke="#63b8ff" points="390.8,-320.71 401.38,-321.08 393.34,-314.19 390.8,-320.71"/>
</a>
</g>
</g>
<!-- Node20 -->
<g id="Node000020" class="node">
<title>Node20</title>
<g id="a_Node000020"><a xlink:href="classsteppable_1_1Fraction.html#a1fa38ab4cede78e19fa478242f6e5b46" target="_top" xlink:title="Initializes a fraction with a specified top component and bottom component.">
<polygon fill="white" stroke="#666666" points="301.62,-553.5 192.62,-553.5 192.62,-520 301.62,-520 301.62,-553.5"/>
<text text-anchor="start" x="200.62" y="-540" font-family="Helvetica,sans-Serif" font-size="10.00">steppable::Fraction</text>
<text text-anchor="middle" x="247.12" y="-527.25" font-family="Helvetica,sans-Serif" font-size="10.00">::Fraction</text>
</a>
</g>
</g>
<!-- Node18&#45;&gt;Node20 -->
<g id="edge25_Node000018_Node000020" class="edge">
<title>Node18&#45;&gt;Node20</title>
<g id="a_edge25_Node000018_Node000020"><a xlink:title=" ">
<path fill="none" stroke="#63b8ff" d="M392.34,-343.83C384.33,-347.92 376.9,-353.13 371,-359.75 325.08,-411.24 382.38,-460.6 335,-510.75 326.13,-520.13 314.03,-526.17 301.68,-530.05"/>
<polygon fill="#63b8ff" stroke="#63b8ff" points="393.61,-347.09 401.32,-339.83 390.77,-340.7 393.61,-347.09"/>
</a>
</g>
</g>
<!-- Node21 -->
<g id="Node000021" class="node">
<title>Node21</title>
<g id="a_Node000021"><a xlink:href="classsteppable_1_1Fraction.html#a21eef8107e9cd1e590f7595c4ecbe147" target="_top" xlink:title="Multiplies two fractions together and stores the result in the current one. This function does it by ...">
<polygon fill="white" stroke="#666666" points="301.62,-501.5 192.62,-501.5 192.62,-468 301.62,-468 301.62,-501.5"/>
<text text-anchor="start" x="200.62" y="-488" font-family="Helvetica,sans-Serif" font-size="10.00">steppable::Fraction</text>
<text text-anchor="middle" x="247.12" y="-475.25" font-family="Helvetica,sans-Serif" font-size="10.00">::operator*=</text>
</a>
</g>
</g>
<!-- Node18&#45;&gt;Node21 -->
<g id="edge26_Node000018_Node000021" class="edge">
<title>Node18&#45;&gt;Node21</title>
<g id="a_edge26_Node000018_Node000021"><a xlink:title=" ">
<path fill="none" stroke="#63b8ff" d="M392.14,-344.9C384.37,-348.83 377.05,-353.7 371,-359.75 337.89,-392.85 369.05,-426.62 335,-458.75 325.84,-467.39 313.92,-473.17 301.86,-477.04"/>
<polygon fill="#63b8ff" stroke="#63b8ff" points="393.47,-348.14 401.18,-340.87 390.62,-341.74 393.47,-348.14"/>
</a>
</g>
</g>
<!-- Node22 -->
<g id="Node000022" class="node">
<title>Node22</title>
<g id="a_Node000022"><a xlink:href="classsteppable_1_1Fraction.html#ab10a5f43f6e60253ab6f4a097c73cf6e" target="_top" xlink:title="Adds two fractions together and stores the result in the current one. This function does it by doing ...">
<polygon fill="white" stroke="#666666" points="301.62,-449.5 192.62,-449.5 192.62,-416 301.62,-416 301.62,-449.5"/>
<text text-anchor="start" x="200.62" y="-436" font-family="Helvetica,sans-Serif" font-size="10.00">steppable::Fraction</text>
<text text-anchor="middle" x="247.12" y="-423.25" font-family="Helvetica,sans-Serif" font-size="10.00">::operator+=</text>
</a>
</g>
</g>
<!-- Node18&#45;&gt;Node22 -->
<g id="edge27_Node000018_Node000022" class="edge">
<title>Node18&#45;&gt;Node22</title>
<g id="a_edge27_Node000018_Node000022"><a xlink:title=" ">
<path fill="none" stroke="#63b8ff" d="M391.98,-347.55C384.57,-351.02 377.4,-355.06 371,-359.75 349.78,-375.31 356.66,-391.81 335,-406.75 325.15,-413.55 313.49,-418.6 301.97,-422.34"/>
<polygon fill="#63b8ff" stroke="#63b8ff" points="393.34,-350.77 401.15,-343.61 390.58,-344.34 393.34,-350.77"/>
</a>
</g>
</g>
<!-- Node23 -->
<g id="Node000023" class="node">
<title>Node23</title>
<g id="a_Node000023"><a xlink:href="classsteppable_1_1Fraction.html#aad3d96fbba7e7a0fa36c3f69f0463b8b" target="_top" xlink:title="Subtracts a fraction from another fraction and stores the result in the current one....">
<polygon fill="white" stroke="#666666" points="301.62,-397.5 192.62,-397.5 192.62,-364 301.62,-364 301.62,-397.5"/>
<text text-anchor="start" x="200.62" y="-384" font-family="Helvetica,sans-Serif" font-size="10.00">steppable::Fraction</text>
<text text-anchor="middle" x="247.12" y="-371.25" font-family="Helvetica,sans-Serif" font-size="10.00">::operator&#45;=</text>
</a>
</g>
</g>
<!-- Node18&#45;&gt;Node23 -->
<g id="edge28_Node000018_Node000023" class="edge">
<title>Node18&#45;&gt;Node23</title>
<g id="a_edge28_Node000018_Node000023"><a xlink:title=" ">
<path fill="none" stroke="#63b8ff" d="M391.67,-344.91C362.82,-352.11 329.23,-360.5 301.8,-367.35"/>
<polygon fill="#63b8ff" stroke="#63b8ff" points="392.15,-348.39 401.01,-342.58 390.46,-341.6 392.15,-348.39"/>
</a>
</g>
</g>
<!-- Node24 -->
<g id="Node000024" class="node">
<title>Node24</title>
<g id="a_Node000024"><a xlink:href="classsteppable_1_1Fraction.html#a86913160c5f596b74be3007bd16bda6b" target="_top" xlink:title="Divides a fraction by abother fraction and stores the result in the current one. This function does i...">
<polygon fill="white" stroke="#666666" points="301.62,-345.5 192.62,-345.5 192.62,-312 301.62,-312 301.62,-345.5"/>
<text text-anchor="start" x="200.62" y="-332" font-family="Helvetica,sans-Serif" font-size="10.00">steppable::Fraction</text>
<text text-anchor="middle" x="247.12" y="-319.25" font-family="Helvetica,sans-Serif" font-size="10.00">::operator/=</text>
</a>
</g>
</g>
<!-- Node18&#45;&gt;Node24 -->
<g id="edge29_Node000018_Node000024" class="edge">
<title>Node18&#45;&gt;Node24</title>
<g id="a_edge29_Node000018_Node000024"><a xlink:title=" ">
<path fill="none" stroke="#63b8ff" d="M391.29,-328.75C362.52,-328.75 329.11,-328.75 301.8,-328.75"/>
<polygon fill="#63b8ff" stroke="#63b8ff" points="390.96,-332.25 400.96,-328.75 390.96,-325.25 390.96,-332.25"/>
</a>
</g>
</g>
<!-- Node25 -->
<g id="Node000025" class="node">
<title>Node25</title>
<g id="a_Node000025"><a xlink:href="classsteppable_1_1Fraction.html#ac0a3d392ac70f42f74392fe08c1ab8be" target="_top" xlink:title="Raises the fraction to a power and stores the result in the current one.">
<polygon fill="white" stroke="#666666" points="301.62,-293.5 192.62,-293.5 192.62,-260 301.62,-260 301.62,-293.5"/>
<text text-anchor="start" x="200.62" y="-280" font-family="Helvetica,sans-Serif" font-size="10.00">steppable::Fraction</text>
<text text-anchor="middle" x="247.12" y="-267.25" font-family="Helvetica,sans-Serif" font-size="10.00">::operator^=</text>
</a>
</g>
</g>
<!-- Node18&#45;&gt;Node25 -->
<g id="edge30_Node000018_Node000025" class="edge">
<title>Node18&#45;&gt;Node25</title>
<g id="a_edge30_Node000018_Node000025"><a xlink:title=" ">
<path fill="none" stroke="#63b8ff" d="M391.67,-312.59C362.82,-305.39 329.23,-297 301.8,-290.15"/>
<polygon fill="#63b8ff" stroke="#63b8ff" points="390.46,-315.9 401.01,-314.92 392.15,-309.11 390.46,-315.9"/>
</a>
</g>
</g>
<!-- Node26 -->
<g id="Node000026" class="node">
<title>Node26</title>
<g id="a_Node000026"><a xlink:href="classsteppable_1_1Fraction.html#a939fea669a7f630672f7215e77f335b6" target="_top" xlink:title="Returns the fraction as a string. The string is formatted as &quot;top/bottom&quot;, and it will automatically ...">
<polygon fill="white" stroke="#666666" points="301.62,-241.5 192.62,-241.5 192.62,-208 301.62,-208 301.62,-241.5"/>
<text text-anchor="start" x="200.62" y="-228" font-family="Helvetica,sans-Serif" font-size="10.00">steppable::Fraction</text>
<text text-anchor="middle" x="247.12" y="-215.25" font-family="Helvetica,sans-Serif" font-size="10.00">::present</text>
</a>
</g>
</g>
<!-- Node18&#45;&gt;Node26 -->
<g id="edge31_Node000018_Node000026" class="edge">
<title>Node18&#45;&gt;Node26</title>
<g id="a_edge31_Node000018_Node000026"><a xlink:title=" ">
<path fill="none" stroke="#63b8ff" d="M392.08,-314.39C384.6,-311.24 377.38,-307.41 371,-302.75 348.29,-286.18 357.75,-267.27 335,-250.75 325.19,-243.63 313.42,-238.44 301.76,-234.66"/>
<polygon fill="#63b8ff" stroke="#63b8ff" points="390.76,-317.63 401.35,-317.88 393.22,-311.08 390.76,-317.63"/>
</a>
</g>
</g>
<!-- Node27 -->
<g id="Node000027" class="node">
<title>Node27</title>
<g id="a_Node000027"><a xlink:href="classsteppable_1_1Fraction.html#a2d20a7ae3e6a1fd18b06c86db601e6e4" target="_top" xlink:title="Converts a fraction to its reciprocal. This function converts the fraction to its reciprocal.">
<polygon fill="white" stroke="#666666" points="301.62,-189.5 192.62,-189.5 192.62,-156 301.62,-156 301.62,-189.5"/>
<text text-anchor="start" x="200.62" y="-176" font-family="Helvetica,sans-Serif" font-size="10.00">steppable::Fraction</text>
<text text-anchor="middle" x="247.12" y="-163.25" font-family="Helvetica,sans-Serif" font-size="10.00">::reciprocal</text>
</a>
</g>
</g>
<!-- Node18&#45;&gt;Node27 -->
<g id="edge32_Node000018_Node000027" class="edge">
<title>Node18&#45;&gt;Node27</title>
<g id="a_edge32_Node000018_Node000027"><a xlink:title=" ">
<path fill="none" stroke="#63b8ff" d="M391.89,-316.5C384.21,-313 376.98,-308.51 371,-302.75 335.77,-268.82 370.31,-232.6 335,-198.75 325.91,-190.04 314.01,-184.23 301.96,-180.36"/>
<polygon fill="#63b8ff" stroke="#63b8ff" points="390.58,-319.74 401.16,-320.13 393.13,-313.23 390.58,-319.74"/>
</a>
</g>
</g>
</g>
</svg>
