<?xml version="1.0" encoding="UTF-8" standalone="no"?>
<!DOCTYPE svg PUBLIC "-//W3C//DTD SVG 1.1//EN"
 "http://www.w3.org/Graphics/SVG/1.1/DTD/svg11.dtd">
<!-- Generated by graphviz version 12.2.1 (20241206.2353)
 -->
<!-- Title: ImStb::is_separator Pages: 1 -->
<svg width="1863pt" height="558pt"
 viewBox="0.00 0.00 1862.50 558.12" xmlns="http://www.w3.org/2000/svg" xmlns:xlink="http://www.w3.org/1999/xlink">
<g id="graph0" class="graph" transform="scale(1 1) rotate(0) translate(4 554.12)">
<title>ImStb::is_separator</title>
<!-- Node1 -->
<g id="Node000001" class="node">
<title>Node1</title>
<g id="a_Node000001"><a xlink:title=" ">
<polygon fill="#999999" stroke="#666666" points="1854.5,-105.12 1744,-105.12 1744,-84.38 1854.5,-84.38 1854.5,-105.12"/>
<text text-anchor="middle" x="1799.25" y="-91.62" font-family="Helvetica,sans-Serif" font-size="10.00">ImStb::is_separator</text>
</a>
</g>
</g>
<!-- Node2 -->
<g id="Node000002" class="node">
<title>Node2</title>
<g id="a_Node000002"><a xlink:href="namespaceImStb.html#a6625118253ca25ee5849aae59cd47c88" target="_top" xlink:title=" ">
<polygon fill="white" stroke="#666666" points="1708,-137.5 1569,-137.5 1569,-104 1708,-104 1708,-137.5"/>
<text text-anchor="start" x="1577" y="-124" font-family="Helvetica,sans-Serif" font-size="10.00">ImStb::is_word_boundary</text>
<text text-anchor="middle" x="1638.5" y="-111.25" font-family="Helvetica,sans-Serif" font-size="10.00">_from_left</text>
</a>
</g>
</g>
<!-- Node1&#45;&gt;Node2 -->
<g id="edge1_Node000001_Node000002" class="edge">
<title>Node1&#45;&gt;Node2</title>
<g id="a_edge1_Node000001_Node000002"><a xlink:title=" ">
<path fill="none" stroke="#63b8ff" d="M1732.47,-105.52C1724.48,-106.83 1716.29,-108.17 1708.26,-109.49"/>
<polygon fill="#63b8ff" stroke="#63b8ff" points="1732.82,-109.01 1742.12,-103.94 1731.69,-102.1 1732.82,-109.01"/>
</a>
</g>
</g>
<!-- Node65 -->
<g id="Node000065" class="node">
<title>Node65</title>
<g id="a_Node000065"><a xlink:href="namespaceImStb.html#ab7f998a5fc7a1f6cab073a2392e786c3" target="_top" xlink:title=" ">
<polygon fill="white" stroke="#666666" points="1708,-85.5 1569,-85.5 1569,-52 1708,-52 1708,-85.5"/>
<text text-anchor="start" x="1577" y="-72" font-family="Helvetica,sans-Serif" font-size="10.00">ImStb::is_word_boundary</text>
<text text-anchor="middle" x="1638.5" y="-59.25" font-family="Helvetica,sans-Serif" font-size="10.00">_from_right</text>
</a>
</g>
</g>
<!-- Node1&#45;&gt;Node65 -->
<g id="edge56_Node000001_Node000065" class="edge">
<title>Node1&#45;&gt;Node65</title>
<g id="a_edge56_Node000001_Node000065"><a xlink:title=" ">
<path fill="none" stroke="#63b8ff" d="M1732.47,-83.98C1724.48,-82.67 1716.29,-81.33 1708.26,-80.01"/>
<polygon fill="#63b8ff" stroke="#63b8ff" points="1731.69,-87.4 1742.12,-85.56 1732.82,-80.49 1731.69,-87.4"/>
</a>
</g>
</g>
<!-- Node3 -->
<g id="Node000003" class="node">
<title>Node3</title>
<g id="a_Node000003"><a xlink:href="namespaceImStb.html#a1c32d6fc2251c9168d5ce133104110d4" target="_top" xlink:title=" ">
<polygon fill="white" stroke="#666666" points="1533,-137.5 1392.5,-137.5 1392.5,-104 1533,-104 1533,-137.5"/>
<text text-anchor="start" x="1400.5" y="-124" font-family="Helvetica,sans-Serif" font-size="10.00">ImStb::STB_TEXTEDIT</text>
<text text-anchor="middle" x="1462.75" y="-111.25" font-family="Helvetica,sans-Serif" font-size="10.00">_MOVEWORDRIGHT_MAC</text>
</a>
</g>
</g>
<!-- Node2&#45;&gt;Node3 -->
<g id="edge2_Node000002_Node000003" class="edge">
<title>Node2&#45;&gt;Node3</title>
<g id="a_edge2_Node000002_Node000003"><a xlink:title=" ">
<path fill="none" stroke="#63b8ff" d="M1557.51,-120.75C1549.44,-120.75 1541.29,-120.75 1533.35,-120.75"/>
<polygon fill="#63b8ff" stroke="#63b8ff" points="1557.32,-124.25 1567.32,-120.75 1557.32,-117.25 1557.32,-124.25"/>
</a>
</g>
</g>
<!-- Node4 -->
<g id="Node000004" class="node">
<title>Node4</title>
<g id="a_Node000004"><a xlink:href="namespaceImGui.html#af89af17ecc11653f25fea1e50e195de6" target="_top" xlink:title=" ">
<polygon fill="white" stroke="#666666" points="1340,-131.12 1231.75,-131.12 1231.75,-110.38 1340,-110.38 1340,-131.12"/>
<text text-anchor="middle" x="1285.88" y="-117.62" font-family="Helvetica,sans-Serif" font-size="10.00">ImGui::InputTextEx</text>
</a>
</g>
</g>
<!-- Node3&#45;&gt;Node4 -->
<g id="edge3_Node000003_Node000004" class="edge">
<title>Node3&#45;&gt;Node4</title>
<g id="a_edge3_Node000003_Node000004"><a xlink:title=" ">
<path fill="none" stroke="#63b8ff" d="M1380.71,-120.75C1367.02,-120.75 1353.11,-120.75 1340.35,-120.75"/>
<polygon fill="#63b8ff" stroke="#63b8ff" points="1380.62,-124.25 1390.62,-120.75 1380.62,-117.25 1380.62,-124.25"/>
</a>
</g>
</g>
<!-- Node64 -->
<g id="Node000064" class="node">
<title>Node64</title>
<g id="a_Node000064"><a xlink:href="namespaceImStb.html#a591af6c724a8088d03687aba81098ae9" target="_top" xlink:title=" ">
<polygon fill="white" stroke="#666666" points="1356.5,-63.5 1215.25,-63.5 1215.25,-30 1356.5,-30 1356.5,-63.5"/>
<text text-anchor="start" x="1223.25" y="-50" font-family="Helvetica,sans-Serif" font-size="10.00">ImStb::STB_TEXTEDIT</text>
<text text-anchor="middle" x="1285.88" y="-37.25" font-family="Helvetica,sans-Serif" font-size="10.00">_MOVEWORDRIGHT_IMPL</text>
</a>
</g>
</g>
<!-- Node3&#45;&gt;Node64 -->
<g id="edge55_Node000003_Node000064" class="edge">
<title>Node3&#45;&gt;Node64</title>
<g id="a_edge55_Node000003_Node000064"><a xlink:title=" ">
<path fill="none" stroke="#63b8ff" d="M1404.15,-99.46C1400.2,-97.9 1396.28,-96.32 1392.5,-94.75 1369.05,-85.03 1343.1,-73.25 1322.79,-63.8"/>
<polygon fill="#63b8ff" stroke="#63b8ff" points="1402.65,-102.63 1413.24,-103 1405.19,-96.11 1402.65,-102.63"/>
</a>
</g>
</g>
<!-- Node5 -->
<g id="Node000005" class="node">
<title>Node5</title>
<g id="a_Node000005"><a xlink:href="namespaceImGui.html#aa72b5760a3a206729723a587ac7c8519" target="_top" xlink:title=" ">
<polygon fill="white" stroke="#666666" points="654.62,-365.12 558.38,-365.12 558.38,-344.38 654.62,-344.38 654.62,-365.12"/>
<text text-anchor="middle" x="606.5" y="-351.62" font-family="Helvetica,sans-Serif" font-size="10.00">ImGui::InputText</text>
</a>
</g>
</g>
<!-- Node4&#45;&gt;Node5 -->
<g id="edge4_Node000004_Node000005" class="edge">
<title>Node4&#45;&gt;Node5</title>
<g id="a_edge4_Node000004_Node000005"><a xlink:title=" ">
<path fill="none" stroke="#63b8ff" d="M1244.57,-135.35C1224.89,-142.45 1200.85,-151.09 1179.25,-158.75 955.93,-237.97 901.64,-262.41 676,-334.75 666.33,-337.85 655.82,-341.02 646.01,-343.89"/>
<polygon fill="#63b8ff" stroke="#63b8ff" points="1245.67,-138.67 1253.88,-131.98 1243.29,-132.09 1245.67,-138.67"/>
</a>
</g>
</g>
<!-- Node29 -->
<g id="Node000029" class="node">
<title>Node29</title>
<g id="a_Node000029"><a xlink:href="namespaceImGui.html#a0470693929ed9930cbf5b737577c2414" target="_top" xlink:title=" ">
<polygon fill="white" stroke="#666666" points="676,-53.12 537,-53.12 537,-32.38 676,-32.38 676,-53.12"/>
<text text-anchor="middle" x="606.5" y="-39.62" font-family="Helvetica,sans-Serif" font-size="10.00">ImGui::InputTextMultiline</text>
</a>
</g>
</g>
<!-- Node4&#45;&gt;Node29 -->
<g id="edge32_Node000004_Node000029" class="edge">
<title>Node4&#45;&gt;Node29</title>
<g id="a_edge32_Node000004_Node000029"><a xlink:title=" ">
<path fill="none" stroke="#63b8ff" d="M1219.99,-116.42C1136.02,-110.48 985.29,-98.71 857,-82.75 792.03,-74.67 718.01,-62.41 667.58,-53.6"/>
<polygon fill="#63b8ff" stroke="#63b8ff" points="1219.65,-119.9 1229.87,-117.11 1220.14,-112.92 1219.65,-119.9"/>
</a>
</g>
</g>
<!-- Node31 -->
<g id="Node000031" class="node">
<title>Node31</title>
<g id="a_Node000031"><a xlink:href="namespaceImGui.html#aee5a5127f494966ad16e578714e8fac2" target="_top" xlink:title=" ">
<polygon fill="white" stroke="#666666" points="1179.25,-74.12 1040.25,-74.12 1040.25,-53.38 1179.25,-53.38 1179.25,-74.12"/>
<text text-anchor="middle" x="1109.75" y="-60.62" font-family="Helvetica,sans-Serif" font-size="10.00">ImGui::InputTextWithHint</text>
</a>
</g>
</g>
<!-- Node4&#45;&gt;Node31 -->
<g id="edge35_Node000004_Node000031" class="edge">
<title>Node4&#45;&gt;Node31</title>
<g id="a_edge35_Node000004_Node000031"><a xlink:title=" ">
<path fill="none" stroke="#63b8ff" d="M1241.05,-106.4C1210.85,-96.52 1171.35,-83.59 1143.79,-74.57"/>
<polygon fill="#63b8ff" stroke="#63b8ff" points="1239.68,-109.64 1250.28,-109.42 1241.86,-102.99 1239.68,-109.64"/>
</a>
</g>
</g>
<!-- Node34 -->
<g id="Node000034" class="node">
<title>Node34</title>
<g id="a_Node000034"><a xlink:href="namespaceImGui.html#ae85def71d2fcf5409035b583b315964e" target="_top" xlink:title=" ">
<polygon fill="white" stroke="#666666" points="1171,-150.12 1048.5,-150.12 1048.5,-129.38 1171,-129.38 1171,-150.12"/>
<text text-anchor="middle" x="1109.75" y="-136.62" font-family="Helvetica,sans-Serif" font-size="10.00">ImGui::TempInputText</text>
</a>
</g>
</g>
<!-- Node4&#45;&gt;Node34 -->
<g id="edge38_Node000004_Node000034" class="edge">
<title>Node4&#45;&gt;Node34</title>
<g id="a_edge38_Node000004_Node000034"><a xlink:title=" ">
<path fill="none" stroke="#63b8ff" d="M1220.7,-127.75C1204.52,-129.52 1187.21,-131.41 1171.23,-133.15"/>
<polygon fill="#63b8ff" stroke="#63b8ff" points="1220.62,-131.28 1230.18,-126.72 1219.86,-124.32 1220.62,-131.28"/>
</a>
</g>
</g>
<!-- Node6 -->
<g id="Node000006" class="node">
<title>Node6</title>
<g id="a_Node000006"><a xlink:href="namespaceImGui.html#ac3f45e2aa0b1d591cc8a2cdf8b566a45" target="_top" xlink:title=" ">
<polygon fill="white" stroke="#666666" points="475.5,-326.12 374,-326.12 374,-305.38 475.5,-305.38 475.5,-326.12"/>
<text text-anchor="middle" x="424.75" y="-312.62" font-family="Helvetica,sans-Serif" font-size="10.00">ImGui::ColorEdit4</text>
</a>
</g>
</g>
<!-- Node5&#45;&gt;Node6 -->
<g id="edge5_Node000005_Node000006" class="edge">
<title>Node5&#45;&gt;Node6</title>
<g id="a_edge5_Node000005_Node000006"><a xlink:title=" ">
<path fill="none" stroke="#63b8ff" d="M547.25,-342.11C524.2,-337.11 497.98,-331.42 475.81,-326.61"/>
<polygon fill="#63b8ff" stroke="#63b8ff" points="546.28,-345.48 556.79,-344.18 547.76,-338.64 546.28,-345.48"/>
</a>
</g>
</g>
<!-- Node14 -->
<g id="Node000014" class="node">
<title>Node14</title>
<g id="a_Node000014"><a xlink:href="structExampleAppConsole.html#a0518a09c7e8648dd52c7c06df19ac17a" target="_top" xlink:title=" ">
<polygon fill="white" stroke="#666666" points="498.75,-433.12 350.75,-433.12 350.75,-412.38 498.75,-412.38 498.75,-433.12"/>
<text text-anchor="middle" x="424.75" y="-419.62" font-family="Helvetica,sans-Serif" font-size="10.00">ExampleAppConsole::Draw</text>
</a>
</g>
</g>
<!-- Node5&#45;&gt;Node14 -->
<g id="edge15_Node000005_Node000014" class="edge">
<title>Node5&#45;&gt;Node14</title>
<g id="a_edge15_Node000005_Node000014"><a xlink:title=" ">
<path fill="none" stroke="#63b8ff" d="M574.43,-370.72C553.94,-380.82 526.32,-393.65 501,-402.75 491.59,-406.13 481.33,-409.23 471.5,-411.93"/>
<polygon fill="#63b8ff" stroke="#63b8ff" points="575.99,-373.85 583.37,-366.25 572.86,-367.59 575.99,-373.85"/>
</a>
</g>
</g>
<!-- Node15 -->
<g id="Node000015" class="node">
<title>Node15</title>
<g id="a_Node000015"><a xlink:href="structImGuiTextFilter.html#ab93ad5985019ff9d3781606551fc26cc" target="_top" xlink:title=" ">
<polygon fill="white" stroke="#666666" points="485.62,-287.12 363.88,-287.12 363.88,-266.38 485.62,-266.38 485.62,-287.12"/>
<text text-anchor="middle" x="424.75" y="-273.62" font-family="Helvetica,sans-Serif" font-size="10.00">ImGuiTextFilter::Draw</text>
</a>
</g>
</g>
<!-- Node5&#45;&gt;Node15 -->
<g id="edge16_Node000005_Node000015" class="edge">
<title>Node5&#45;&gt;Node15</title>
<g id="a_edge16_Node000005_Node000015"><a xlink:title=" ">
<path fill="none" stroke="#63b8ff" d="M547.52,-340.27C543.87,-338.61 540.33,-336.78 537,-334.75 517.15,-322.62 521,-308.63 501,-296.75 494.72,-293.02 487.75,-289.98 480.65,-287.49"/>
<polygon fill="#63b8ff" stroke="#63b8ff" points="546.05,-343.45 556.64,-343.91 548.65,-336.95 546.05,-343.45"/>
</a>
</g>
</g>
<!-- Node16 -->
<g id="Node000016" class="node">
<title>Node16</title>
<g id="a_Node000016"><a xlink:href="namespaceImGui.html#afdb54540b7480872fbb746f64344b374" target="_top" xlink:title=" ">
<polygon fill="white" stroke="#666666" points="477.75,-394.12 371.75,-394.12 371.75,-373.38 477.75,-373.38 477.75,-394.12"/>
<text text-anchor="middle" x="424.75" y="-380.62" font-family="Helvetica,sans-Serif" font-size="10.00">ImGui::InputScalar</text>
</a>
</g>
</g>
<!-- Node5&#45;&gt;Node16 -->
<g id="edge18_Node000005_Node000016" class="edge">
<title>Node5&#45;&gt;Node16</title>
<g id="a_edge18_Node000005_Node000016"><a xlink:title=" ">
<path fill="none" stroke="#63b8ff" d="M546.96,-364.19C524.75,-367.78 499.63,-371.83 478.04,-375.31"/>
<polygon fill="#63b8ff" stroke="#63b8ff" points="547.46,-367.66 556.78,-362.61 546.35,-360.75 547.46,-367.66"/>
</a>
</g>
</g>
<!-- Node27 -->
<g id="Node000027" class="node">
<title>Node27</title>
<g id="a_Node000027"><a xlink:href="namespaceImGui.html#a27fe05fc98111a29564a22400096b91f" target="_top" xlink:title=" ">
<polygon fill="white" stroke="#666666" points="472.88,-472.12 376.62,-472.12 376.62,-451.38 472.88,-451.38 472.88,-472.12"/>
<text text-anchor="middle" x="424.75" y="-458.62" font-family="Helvetica,sans-Serif" font-size="10.00">ImGui::InputText</text>
</a>
</g>
</g>
<!-- Node5&#45;&gt;Node27 -->
<g id="edge29_Node000005_Node000027" class="edge">
<title>Node5&#45;&gt;Node27</title>
<g id="a_edge29_Node000005_Node000027"><a xlink:title=" ">
<path fill="none" stroke="#63b8ff" d="M587.69,-373.85C568.21,-393.63 535.19,-424.08 501,-441.75 492.35,-446.22 482.62,-449.76 473.09,-452.53"/>
<polygon fill="#63b8ff" stroke="#63b8ff" points="590.18,-376.31 594.59,-366.68 585.13,-371.46 590.18,-376.31"/>
</a>
</g>
</g>
<!-- Node28 -->
<g id="Node000028" class="node">
<title>Node28</title>
<g id="a_Node000028"><a xlink:href="namespaceImGui.html#afe7a28c6eb52fff3cc27d5a698fea4ff" target="_top" xlink:title=" ">
<polygon fill="white" stroke="#666666" points="501,-96.12 348.5,-96.12 348.5,-75.38 501,-75.38 501,-96.12"/>
<text text-anchor="middle" x="424.75" y="-82.62" font-family="Helvetica,sans-Serif" font-size="10.00">ImGui::ShowMetricsWindow</text>
</a>
</g>
</g>
<!-- Node5&#45;&gt;Node28 -->
<g id="edge30_Node000005_Node000028" class="edge">
<title>Node5&#45;&gt;Node28</title>
<g id="a_edge30_Node000005_Node000028"><a xlink:title=" ">
<path fill="none" stroke="#63b8ff" d="M547.7,-343.38C543.73,-341.01 540.09,-338.16 537,-334.75 478.71,-270.4 546.67,-216.59 501,-142.75 488.24,-122.12 465.08,-106.29 447.82,-96.61"/>
<polygon fill="#63b8ff" stroke="#63b8ff" points="546.18,-346.53 556.72,-347.68 549.2,-340.22 546.18,-346.53"/>
</a>
</g>
</g>
<!-- Node7 -->
<g id="Node000007" class="node">
<title>Node7</title>
<g id="a_Node000007"><a xlink:href="namespaceImGui.html#a5afe76ba1c91f07363e40396e7df656e" target="_top" xlink:title=" ">
<polygon fill="white" stroke="#666666" points="297.88,-318.12 196.38,-318.12 196.38,-297.38 297.88,-297.38 297.88,-318.12"/>
<text text-anchor="middle" x="247.12" y="-304.62" font-family="Helvetica,sans-Serif" font-size="10.00">ImGui::ColorEdit3</text>
</a>
</g>
</g>
<!-- Node6&#45;&gt;Node7 -->
<g id="edge6_Node000006_Node000007" class="edge">
<title>Node6&#45;&gt;Node7</title>
<g id="a_edge6_Node000006_Node000007"><a xlink:title=" ">
<path fill="none" stroke="#63b8ff" d="M362.47,-312.96C341.43,-312 318.14,-310.94 298.11,-310.03"/>
<polygon fill="#63b8ff" stroke="#63b8ff" points="362.23,-316.45 372.38,-313.41 362.55,-309.46 362.23,-316.45"/>
</a>
</g>
</g>
<!-- Node9 -->
<g id="Node000009" class="node">
<title>Node9</title>
<g id="a_Node000009"><a xlink:href="namespaceImGui.html#a3d5aae9e0a14aa051d5a799abbe97b32" target="_top" xlink:title=" ">
<polygon fill="white" stroke="#666666" points="303.12,-265.12 191.12,-265.12 191.12,-244.38 303.12,-244.38 303.12,-265.12"/>
<text text-anchor="middle" x="247.12" y="-251.62" font-family="Helvetica,sans-Serif" font-size="10.00">ImGui::ColorPicker4</text>
</a>
</g>
</g>
<!-- Node6&#45;&gt;Node9 -->
<g id="edge8_Node000006_Node000009" class="edge">
<title>Node6&#45;&gt;Node9</title>
<g id="a_edge8_Node000006_Node000009"><a xlink:title=" ">
<path fill="none" stroke="#63b8ff" d="M396.44,-301.37C382.05,-296.81 364.17,-292.01 348.5,-286.75 329.58,-280.4 309.12,-272.28 291.64,-265.58"/>
<polygon fill="#63b8ff" stroke="#63b8ff" points="395.1,-304.61 405.69,-304.49 397.34,-297.98 395.1,-304.61"/>
</a>
</g>
</g>
<!-- Node12 -->
<g id="Node000012" class="node">
<title>Node12</title>
<g id="a_Node000012"><a xlink:href="namespaceImGui.html#ab2eb3dec78d054fe3feab1c091ec5de5" target="_top" xlink:title=" ">
<polygon fill="white" stroke="#666666" points="312.5,-210.12 181.75,-210.12 181.75,-189.38 312.5,-189.38 312.5,-210.12"/>
<text text-anchor="middle" x="247.12" y="-196.62" font-family="Helvetica,sans-Serif" font-size="10.00">ImGui::ShowStyleEditor</text>
</a>
</g>
</g>
<!-- Node6&#45;&gt;Node12 -->
<g id="edge13_Node000006_Node000012" class="edge">
<title>Node6&#45;&gt;Node12</title>
<g id="a_edge13_Node000006_Node000012"><a xlink:title=" ">
<path fill="none" stroke="#63b8ff" d="M363.44,-304.35C358.12,-302 353.04,-299.17 348.5,-295.75 323.65,-277.05 334.82,-257.4 312.5,-235.75 301.56,-225.14 286.88,-216.62 274.3,-210.53"/>
<polygon fill="#63b8ff" stroke="#63b8ff" points="361.88,-307.5 372.47,-307.77 364.35,-300.96 361.88,-307.5"/>
</a>
</g>
</g>
<!-- Node8 -->
<g id="Node000008" class="node">
<title>Node8</title>
<g id="a_Node000008"><a xlink:href="structExampleAppDocuments.html#a007a1a59693a3c7fc7d87815e022dbe4" target="_top" xlink:title=" ">
<polygon fill="white" stroke="#666666" points="139.38,-316.5 6.38,-316.5 6.38,-283 139.38,-283 139.38,-316.5"/>
<text text-anchor="start" x="14.38" y="-303" font-family="Helvetica,sans-Serif" font-size="10.00">ExampleAppDocuments</text>
<text text-anchor="middle" x="72.88" y="-290.25" font-family="Helvetica,sans-Serif" font-size="10.00">::DisplayDocContents</text>
</a>
</g>
</g>
<!-- Node7&#45;&gt;Node8 -->
<g id="edge7_Node000007_Node000008" class="edge">
<title>Node7&#45;&gt;Node8</title>
<g id="a_edge7_Node000007_Node000008"><a xlink:title=" ">
<path fill="none" stroke="#63b8ff" d="M184.81,-304.9C170.16,-304.22 154.46,-303.49 139.62,-302.8"/>
<polygon fill="#63b8ff" stroke="#63b8ff" points="184.64,-308.4 194.79,-305.37 184.96,-301.41 184.64,-308.4"/>
</a>
</g>
</g>
<!-- Node9&#45;&gt;Node6 -->
<g id="edge9_Node000009_Node000006" class="edge">
<title>Node9&#45;&gt;Node6</title>
<g id="a_edge9_Node000009_Node000006"><a xlink:title=" ">
<path fill="none" stroke="#63b8ff" d="M269.33,-271.3C289.44,-282.21 320.64,-295.4 348.5,-304.75 356.57,-307.46 365.23,-310.05 373.7,-312.27"/>
<polygon fill="#63b8ff" stroke="#63b8ff" points="271.1,-268.28 260.69,-266.27 267.57,-274.33 271.1,-268.28"/>
</a>
</g>
</g>
<!-- Node10 -->
<g id="Node000010" class="node">
<title>Node10</title>
<g id="a_Node000010"><a xlink:href="namespaceImGui.html#a2a2a98cb9a17b18702be6b954670b388" target="_top" xlink:title=" ">
<polygon fill="white" stroke="#666666" points="128.88,-265.12 16.87,-265.12 16.87,-244.38 128.88,-244.38 128.88,-265.12"/>
<text text-anchor="middle" x="72.88" y="-251.62" font-family="Helvetica,sans-Serif" font-size="10.00">ImGui::ColorPicker3</text>
</a>
</g>
</g>
<!-- Node9&#45;&gt;Node10 -->
<g id="edge10_Node000009_Node000010" class="edge">
<title>Node9&#45;&gt;Node10</title>
<g id="a_edge10_Node000009_Node000010"><a xlink:title=" ">
<path fill="none" stroke="#63b8ff" d="M179.39,-254.75C162.8,-254.75 145.19,-254.75 129.22,-254.75"/>
<polygon fill="#63b8ff" stroke="#63b8ff" points="179.16,-258.25 189.16,-254.75 179.16,-251.25 179.16,-258.25"/>
</a>
</g>
</g>
<!-- Node11 -->
<g id="Node000011" class="node">
<title>Node11</title>
<g id="a_Node000011"><a xlink:href="namespaceImGui.html#a6d112eeb6d8ffdebbc9d9a8c66babbee" target="_top" xlink:title=" ">
<polygon fill="white" stroke="#666666" points="144.62,-226.5 1.12,-226.5 1.12,-193 144.62,-193 144.62,-226.5"/>
<text text-anchor="start" x="9.12" y="-213" font-family="Helvetica,sans-Serif" font-size="10.00">ImGui::ColorPickerOptions</text>
<text text-anchor="middle" x="72.88" y="-200.25" font-family="Helvetica,sans-Serif" font-size="10.00">Popup</text>
</a>
</g>
</g>
<!-- Node9&#45;&gt;Node11 -->
<g id="edge11_Node000009_Node000011" class="edge">
<title>Node9&#45;&gt;Node11</title>
<g id="a_edge11_Node000009_Node000011"><a xlink:title=" ">
<path fill="none" stroke="#63b8ff" d="M212.02,-240.33C192.86,-234.27 168.21,-227.45 145.05,-221.69"/>
<polygon fill="#63b8ff" stroke="#63b8ff" points="210.86,-243.64 221.46,-243.42 213.04,-236.98 210.86,-243.64"/>
</a>
</g>
</g>
<!-- Node11&#45;&gt;Node9 -->
<g id="edge12_Node000011_Node000009" class="edge">
<title>Node11&#45;&gt;Node9</title>
<g id="a_edge12_Node000011_Node000009"><a xlink:title=" ">
<path fill="none" stroke="#63b8ff" d="M127.74,-230.13C147.77,-235.94 170.51,-241.89 190.68,-246.62"/>
<polygon fill="#63b8ff" stroke="#63b8ff" points="128.96,-226.84 118.38,-227.36 126.98,-233.56 128.96,-226.84"/>
</a>
</g>
</g>
<!-- Node13 -->
<g id="Node000013" class="node">
<title>Node13</title>
<g id="a_Node000013"><a xlink:href="namespaceImGui.html#af95643a0ce4893b9e57c12991922fb18" target="_top" xlink:title=" ">
<polygon fill="white" stroke="#666666" points="145.75,-159.12 0,-159.12 0,-138.38 145.75,-138.38 145.75,-159.12"/>
<text text-anchor="middle" x="72.88" y="-145.62" font-family="Helvetica,sans-Serif" font-size="10.00">ImGui::ShowDemoWindow</text>
</a>
</g>
</g>
<!-- Node12&#45;&gt;Node13 -->
<g id="edge14_Node000012_Node000013" class="edge">
<title>Node12&#45;&gt;Node13</title>
<g id="a_edge14_Node000012_Node000013"><a xlink:title=" ">
<path fill="none" stroke="#63b8ff" d="M198.88,-185.76C170.96,-177.5 136.15,-167.19 110.35,-159.55"/>
<polygon fill="#63b8ff" stroke="#63b8ff" points="197.56,-189.02 208.14,-188.5 199.55,-182.31 197.56,-189.02"/>
</a>
</g>
</g>
<!-- Node15&#45;&gt;Node12 -->
<g id="edge17_Node000015_Node000012" class="edge">
<title>Node15&#45;&gt;Node12</title>
<g id="a_edge17_Node000015_Node000012"><a xlink:title=" ">
<path fill="none" stroke="#63b8ff" d="M364.68,-262.68C359.14,-260.88 353.67,-258.9 348.5,-256.75 331.4,-249.64 328.58,-244.94 312.5,-235.75 297.49,-227.18 280.41,-217.63 267.61,-210.53"/>
<polygon fill="#63b8ff" stroke="#63b8ff" points="363.31,-265.92 373.89,-265.5 365.35,-259.23 363.31,-265.92"/>
</a>
</g>
</g>
<!-- Node17 -->
<g id="Node000017" class="node">
<title>Node17</title>
<g id="a_Node000017"><a xlink:href="namespaceImGui.html#ad941c3cfa561ca35b674fd5802bcf870" target="_top" xlink:title=" ">
<polygon fill="white" stroke="#666666" points="302.38,-511.12 191.88,-511.12 191.88,-490.38 302.38,-490.38 302.38,-511.12"/>
<text text-anchor="middle" x="247.12" y="-497.62" font-family="Helvetica,sans-Serif" font-size="10.00">ImGui::InputDouble</text>
</a>
</g>
</g>
<!-- Node16&#45;&gt;Node17 -->
<g id="edge19_Node000016_Node000017" class="edge">
<title>Node16&#45;&gt;Node17</title>
<g id="a_edge19_Node000016_Node000017"><a xlink:title=" ">
<path fill="none" stroke="#63b8ff" d="M361.18,-395.57C356.64,-397.84 352.34,-400.54 348.5,-403.75 319.52,-427.99 340.97,-455.92 312.5,-480.75 308.27,-484.44 303.36,-487.45 298.18,-489.91"/>
<polygon fill="#63b8ff" stroke="#63b8ff" points="362.2,-398.94 370.06,-391.84 359.49,-392.49 362.2,-398.94"/>
</a>
</g>
</g>
<!-- Node18 -->
<g id="Node000018" class="node">
<title>Node18</title>
<g id="a_Node000018"><a xlink:href="namespaceImGui.html#a36b86c9d7226f18c316400c83a904454" target="_top" xlink:title=" ">
<polygon fill="white" stroke="#666666" points="297.5,-472.12 196.75,-472.12 196.75,-451.38 297.5,-451.38 297.5,-472.12"/>
<text text-anchor="middle" x="247.12" y="-458.62" font-family="Helvetica,sans-Serif" font-size="10.00">ImGui::InputFloat</text>
</a>
</g>
</g>
<!-- Node16&#45;&gt;Node18 -->
<g id="edge20_Node000016_Node000018" class="edge">
<title>Node16&#45;&gt;Node18</title>
<g id="a_edge20_Node000016_Node000018"><a xlink:title=" ">
<path fill="none" stroke="#63b8ff" d="M361.16,-397.44C356.76,-399.29 352.49,-401.38 348.5,-403.75 328.5,-415.63 332.25,-429.45 312.5,-441.75 306.64,-445.4 300.06,-448.43 293.4,-450.93"/>
<polygon fill="#63b8ff" stroke="#63b8ff" points="362.05,-400.84 370.2,-394.08 359.61,-394.28 362.05,-400.84"/>
</a>
</g>
</g>
<!-- Node19 -->
<g id="Node000019" class="node">
<title>Node19</title>
<g id="a_Node000019"><a xlink:href="namespaceImGui.html#a36fc45a3c41a63ea9a983cc851752505" target="_top" xlink:title=" ">
<polygon fill="white" stroke="#666666" points="291.5,-433.12 202.75,-433.12 202.75,-412.38 291.5,-412.38 291.5,-433.12"/>
<text text-anchor="middle" x="247.12" y="-419.62" font-family="Helvetica,sans-Serif" font-size="10.00">ImGui::InputInt</text>
</a>
</g>
</g>
<!-- Node16&#45;&gt;Node19 -->
<g id="edge21_Node000016_Node000019" class="edge">
<title>Node16&#45;&gt;Node19</title>
<g id="a_edge21_Node000016_Node000019"><a xlink:title=" ">
<path fill="none" stroke="#63b8ff" d="M363.88,-397.04C340.31,-402.28 313.73,-408.18 291.99,-413.01"/>
<polygon fill="#63b8ff" stroke="#63b8ff" points="364.35,-400.53 373.35,-394.94 362.83,-393.69 364.35,-400.53"/>
</a>
</g>
</g>
<!-- Node20 -->
<g id="Node000020" class="node">
<title>Node20</title>
<g id="a_Node000020"><a xlink:href="namespaceImGui.html#afb17f0092027c09183df498834abace9" target="_top" xlink:title=" ">
<polygon fill="white" stroke="#666666" points="303.88,-394.12 190.38,-394.12 190.38,-373.38 303.88,-373.38 303.88,-394.12"/>
<text text-anchor="middle" x="247.12" y="-380.62" font-family="Helvetica,sans-Serif" font-size="10.00">ImGui::InputScalarN</text>
</a>
</g>
</g>
<!-- Node16&#45;&gt;Node20 -->
<g id="edge22_Node000016_Node000020" class="edge">
<title>Node16&#45;&gt;Node20</title>
<g id="a_edge22_Node000016_Node000020"><a xlink:title=" ">
<path fill="none" stroke="#63b8ff" d="M360.06,-383.75C341.75,-383.75 321.93,-383.75 304.12,-383.75"/>
<polygon fill="#63b8ff" stroke="#63b8ff" points="360.02,-387.25 370.02,-383.75 360.02,-380.25 360.02,-387.25"/>
</a>
</g>
</g>
<!-- Node21 -->
<g id="Node000021" class="node">
<title>Node21</title>
<g id="a_Node000021"><a xlink:href="namespaceImGui.html#a854ba6decd4ae7e4b0980a9c71bfa47d" target="_top" xlink:title=" ">
<polygon fill="white" stroke="#666666" points="126.25,-550.12 19.5,-550.12 19.5,-529.38 126.25,-529.38 126.25,-550.12"/>
<text text-anchor="middle" x="72.88" y="-536.62" font-family="Helvetica,sans-Serif" font-size="10.00">ImGui::InputFloat2</text>
</a>
</g>
</g>
<!-- Node20&#45;&gt;Node21 -->
<g id="edge23_Node000020_Node000021" class="edge">
<title>Node20&#45;&gt;Node21</title>
<g id="a_edge23_Node000020_Node000021"><a xlink:title=" ">
<path fill="none" stroke="#63b8ff" d="M185.05,-400.77C183.9,-401.71 182.8,-402.7 181.75,-403.75 143.59,-441.93 184.48,-482.15 145.75,-519.75 140.36,-524.98 133.72,-528.87 126.68,-531.76"/>
<polygon fill="#63b8ff" stroke="#63b8ff" points="186.88,-403.75 193.34,-395.35 183.05,-397.89 186.88,-403.75"/>
</a>
</g>
</g>
<!-- Node22 -->
<g id="Node000022" class="node">
<title>Node22</title>
<g id="a_Node000022"><a xlink:href="namespaceImGui.html#a970a00fd1a4226c697ea5fb807fb62d8" target="_top" xlink:title=" ">
<polygon fill="white" stroke="#666666" points="126.25,-511.12 19.5,-511.12 19.5,-490.38 126.25,-490.38 126.25,-511.12"/>
<text text-anchor="middle" x="72.88" y="-497.62" font-family="Helvetica,sans-Serif" font-size="10.00">ImGui::InputFloat3</text>
</a>
</g>
</g>
<!-- Node20&#45;&gt;Node22 -->
<g id="edge24_Node000020_Node000022" class="edge">
<title>Node20&#45;&gt;Node22</title>
<g id="a_edge24_Node000020_Node000022"><a xlink:title=" ">
<path fill="none" stroke="#63b8ff" d="M186.34,-400.18C184.74,-401.29 183.21,-402.48 181.75,-403.75 153.28,-428.58 174.58,-456.34 145.75,-480.75 140.11,-485.52 133.43,-489.16 126.43,-491.93"/>
<polygon fill="#63b8ff" stroke="#63b8ff" points="187.83,-403.36 194.76,-395.34 184.35,-397.29 187.83,-403.36"/>
</a>
</g>
</g>
<!-- Node23 -->
<g id="Node000023" class="node">
<title>Node23</title>
<g id="a_Node000023"><a xlink:href="namespaceImGui.html#a69675d2e9780a0e5a7a372f936b64d49" target="_top" xlink:title=" ">
<polygon fill="white" stroke="#666666" points="126.25,-472.12 19.5,-472.12 19.5,-451.38 126.25,-451.38 126.25,-472.12"/>
<text text-anchor="middle" x="72.88" y="-458.62" font-family="Helvetica,sans-Serif" font-size="10.00">ImGui::InputFloat4</text>
</a>
</g>
</g>
<!-- Node20&#45;&gt;Node23 -->
<g id="edge25_Node000020_Node000023" class="edge">
<title>Node20&#45;&gt;Node23</title>
<g id="a_edge25_Node000020_Node000023"><a xlink:title=" ">
<path fill="none" stroke="#63b8ff" d="M190.4,-399.02C187.4,-400.47 184.5,-402.04 181.75,-403.75 162,-416.05 165.68,-429.75 145.75,-441.75 139.65,-445.42 132.85,-448.44 125.94,-450.92"/>
<polygon fill="#63b8ff" stroke="#63b8ff" points="191.62,-402.3 199.45,-395.16 188.88,-395.86 191.62,-402.3"/>
</a>
</g>
</g>
<!-- Node24 -->
<g id="Node000024" class="node">
<title>Node24</title>
<g id="a_Node000024"><a xlink:href="namespaceImGui.html#a83dfd2daacefb741e67d8d69821e1590" target="_top" xlink:title=" ">
<polygon fill="white" stroke="#666666" points="120.25,-433.12 25.5,-433.12 25.5,-412.38 120.25,-412.38 120.25,-433.12"/>
<text text-anchor="middle" x="72.88" y="-419.62" font-family="Helvetica,sans-Serif" font-size="10.00">ImGui::InputInt2</text>
</a>
</g>
</g>
<!-- Node20&#45;&gt;Node24 -->
<g id="edge26_Node000020_Node000024" class="edge">
<title>Node20&#45;&gt;Node24</title>
<g id="a_edge26_Node000020_Node000024"><a xlink:title=" ">
<path fill="none" stroke="#63b8ff" d="M187.07,-397.12C165.39,-402.03 141.17,-407.51 120.71,-412.15"/>
<polygon fill="#63b8ff" stroke="#63b8ff" points="187.69,-400.57 196.67,-394.95 186.14,-393.74 187.69,-400.57"/>
</a>
</g>
</g>
<!-- Node25 -->
<g id="Node000025" class="node">
<title>Node25</title>
<g id="a_Node000025"><a xlink:href="namespaceImGui.html#ab8e7466e5bdda70fefa551eb662dc3f5" target="_top" xlink:title=" ">
<polygon fill="white" stroke="#666666" points="120.25,-394.12 25.5,-394.12 25.5,-373.38 120.25,-373.38 120.25,-394.12"/>
<text text-anchor="middle" x="72.88" y="-380.62" font-family="Helvetica,sans-Serif" font-size="10.00">ImGui::InputInt3</text>
</a>
</g>
</g>
<!-- Node20&#45;&gt;Node25 -->
<g id="edge27_Node000020_Node000025" class="edge">
<title>Node20&#45;&gt;Node25</title>
<g id="a_edge27_Node000020_Node000025"><a xlink:title=" ">
<path fill="none" stroke="#63b8ff" d="M178.91,-383.75C159.4,-383.75 138.54,-383.75 120.59,-383.75"/>
<polygon fill="#63b8ff" stroke="#63b8ff" points="178.69,-387.25 188.69,-383.75 178.69,-380.25 178.69,-387.25"/>
</a>
</g>
</g>
<!-- Node26 -->
<g id="Node000026" class="node">
<title>Node26</title>
<g id="a_Node000026"><a xlink:href="namespaceImGui.html#a3a57668b83f7a99d295f94baa71add0a" target="_top" xlink:title=" ">
<polygon fill="white" stroke="#666666" points="120.25,-355.12 25.5,-355.12 25.5,-334.38 120.25,-334.38 120.25,-355.12"/>
<text text-anchor="middle" x="72.88" y="-341.62" font-family="Helvetica,sans-Serif" font-size="10.00">ImGui::InputInt4</text>
</a>
</g>
</g>
<!-- Node20&#45;&gt;Node26 -->
<g id="edge28_Node000020_Node000026" class="edge">
<title>Node20&#45;&gt;Node26</title>
<g id="a_edge28_Node000020_Node000026"><a xlink:title=" ">
<path fill="none" stroke="#63b8ff" d="M187.07,-370.38C165.39,-365.47 141.17,-359.99 120.71,-355.35"/>
<polygon fill="#63b8ff" stroke="#63b8ff" points="186.14,-373.76 196.67,-372.55 187.69,-366.93 186.14,-373.76"/>
</a>
</g>
</g>
<!-- Node28&#45;&gt;Node13 -->
<g id="edge31_Node000028_Node000013" class="edge">
<title>Node28&#45;&gt;Node13</title>
<g id="a_edge31_Node000028_Node000013"><a xlink:title=" ">
<path fill="none" stroke="#63b8ff" d="M352.36,-98.61C288.09,-110.18 194.69,-126.99 134.11,-137.9"/>
<polygon fill="#63b8ff" stroke="#63b8ff" points="352.89,-102.07 362.11,-96.85 351.65,-95.18 352.89,-102.07"/>
</a>
</g>
</g>
<!-- Node29&#45;&gt;Node28 -->
<g id="edge34_Node000029_Node000028" class="edge">
<title>Node29&#45;&gt;Node28</title>
<g id="a_edge34_Node000029_Node000028"><a xlink:title=" ">
<path fill="none" stroke="#63b8ff" d="M549.27,-56.2C524.11,-62.22 494.83,-69.23 471.09,-74.9"/>
<polygon fill="#63b8ff" stroke="#63b8ff" points="549.76,-59.68 558.67,-53.95 548.13,-52.88 549.76,-59.68"/>
</a>
</g>
</g>
<!-- Node30 -->
<g id="Node000030" class="node">
<title>Node30</title>
<g id="a_Node000030"><a xlink:href="namespaceImGui.html#af8c6be5f8ecd879edf7fee6769976329" target="_top" xlink:title=" ">
<polygon fill="white" stroke="#666666" points="494.25,-53.12 355.25,-53.12 355.25,-32.38 494.25,-32.38 494.25,-53.12"/>
<text text-anchor="middle" x="424.75" y="-39.62" font-family="Helvetica,sans-Serif" font-size="10.00">ImGui::InputTextMultiline</text>
</a>
</g>
</g>
<!-- Node29&#45;&gt;Node30 -->
<g id="edge33_Node000029_Node000030" class="edge">
<title>Node29&#45;&gt;Node30</title>
<g id="a_edge33_Node000029_Node000030"><a xlink:title=" ">
<path fill="none" stroke="#63b8ff" d="M525.1,-42.75C514.9,-42.75 504.54,-42.75 494.55,-42.75"/>
<polygon fill="#63b8ff" stroke="#63b8ff" points="525,-46.25 535,-42.75 525,-39.25 525,-46.25"/>
</a>
</g>
</g>
<!-- Node32 -->
<g id="Node000032" class="node">
<title>Node32</title>
<g id="a_Node000032"><a xlink:href="structExampleAppPropertyEditor.html#adfdfd135c8e210849d5ecbe4d4969813" target="_top" xlink:title=" ">
<polygon fill="white" stroke="#666666" points="1004.25,-35.5 857,-35.5 857,-2 1004.25,-2 1004.25,-35.5"/>
<text text-anchor="start" x="865" y="-22" font-family="Helvetica,sans-Serif" font-size="10.00">ExampleAppPropertyEditor</text>
<text text-anchor="middle" x="930.62" y="-9.25" font-family="Helvetica,sans-Serif" font-size="10.00">::Draw</text>
</a>
</g>
</g>
<!-- Node31&#45;&gt;Node32 -->
<g id="edge36_Node000031_Node000032" class="edge">
<title>Node31&#45;&gt;Node32</title>
<g id="a_edge36_Node000031_Node000032"><a xlink:title=" ">
<path fill="none" stroke="#63b8ff" d="M1055.37,-50.19C1037.73,-45.71 1017.86,-40.66 999.3,-35.94"/>
<polygon fill="#63b8ff" stroke="#63b8ff" points="1054.3,-53.53 1064.86,-52.6 1056.03,-46.74 1054.3,-53.53"/>
</a>
</g>
</g>
<!-- Node33 -->
<g id="Node000033" class="node">
<title>Node33</title>
<g id="a_Node000033"><a xlink:href="namespaceImGui.html#ad95e19f8707e06a0ae8b06374bbe9ec1" target="_top" xlink:title=" ">
<polygon fill="white" stroke="#666666" points="1000.12,-74.12 861.12,-74.12 861.12,-53.38 1000.12,-53.38 1000.12,-74.12"/>
<text text-anchor="middle" x="930.62" y="-60.62" font-family="Helvetica,sans-Serif" font-size="10.00">ImGui::InputTextWithHint</text>
</a>
</g>
</g>
<!-- Node31&#45;&gt;Node33 -->
<g id="edge37_Node000031_Node000033" class="edge">
<title>Node31&#45;&gt;Node33</title>
<g id="a_edge37_Node000031_Node000033"><a xlink:title=" ">
<path fill="none" stroke="#63b8ff" d="M1028.44,-63.75C1019.08,-63.75 1009.61,-63.75 1000.43,-63.75"/>
<polygon fill="#63b8ff" stroke="#63b8ff" points="1028.25,-67.25 1038.25,-63.75 1028.25,-60.25 1028.25,-67.25"/>
</a>
</g>
</g>
<!-- Node35 -->
<g id="Node000035" class="node">
<title>Node35</title>
<g id="a_Node000035"><a xlink:href="namespaceImGui.html#a392fed3e7db2a75abf217bf84c6abce9" target="_top" xlink:title=" ">
<polygon fill="white" stroke="#666666" points="996.75,-150.12 864.5,-150.12 864.5,-129.38 996.75,-129.38 996.75,-150.12"/>
<text text-anchor="middle" x="930.62" y="-136.62" font-family="Helvetica,sans-Serif" font-size="10.00">ImGui::TempInputScalar</text>
</a>
</g>
</g>
<!-- Node34&#45;&gt;Node35 -->
<g id="edge39_Node000034_Node000035" class="edge">
<title>Node34&#45;&gt;Node35</title>
<g id="a_edge39_Node000034_Node000035"><a xlink:title=" ">
<path fill="none" stroke="#63b8ff" d="M1036.86,-139.75C1023.66,-139.75 1009.95,-139.75 996.96,-139.75"/>
<polygon fill="#63b8ff" stroke="#63b8ff" points="1036.78,-143.25 1046.78,-139.75 1036.78,-136.25 1036.78,-143.25"/>
</a>
</g>
</g>
<!-- Node36 -->
<g id="Node000036" class="node">
<title>Node36</title>
<g id="a_Node000036"><a xlink:href="namespaceImGui.html#a17d8926e8f44a6d00575b12081c51fe0" target="_top" xlink:title=" ">
<polygon fill="white" stroke="#666666" points="818.75,-248.12 714.25,-248.12 714.25,-227.38 818.75,-227.38 818.75,-248.12"/>
<text text-anchor="middle" x="766.5" y="-234.62" font-family="Helvetica,sans-Serif" font-size="10.00">ImGui::DragScalar</text>
</a>
</g>
</g>
<!-- Node35&#45;&gt;Node36 -->
<g id="edge40_Node000035_Node000036" class="edge">
<title>Node35&#45;&gt;Node36</title>
<g id="a_edge40_Node000035_Node000036"><a xlink:title=" ">
<path fill="none" stroke="#63b8ff" d="M902.03,-156.43C868.57,-176.65 813.18,-210.13 785.06,-227.14"/>
<polygon fill="#63b8ff" stroke="#63b8ff" points="903.61,-159.56 910.36,-151.4 899.99,-153.57 903.61,-159.56"/>
</a>
</g>
</g>
<!-- Node51 -->
<g id="Node000051" class="node">
<title>Node51</title>
<g id="a_Node000051"><a xlink:href="namespaceImGui.html#afdd7faa9a69f75b8d674cdc207441bea" target="_top" xlink:title=" ">
<polygon fill="white" stroke="#666666" points="821,-150.12 712,-150.12 712,-129.38 821,-129.38 821,-150.12"/>
<text text-anchor="middle" x="766.5" y="-136.62" font-family="Helvetica,sans-Serif" font-size="10.00">ImGui::SliderScalar</text>
</a>
</g>
</g>
<!-- Node35&#45;&gt;Node51 -->
<g id="edge50_Node000035_Node000051" class="edge">
<title>Node35&#45;&gt;Node51</title>
<g id="a_edge50_Node000035_Node000051"><a xlink:title=" ">
<path fill="none" stroke="#63b8ff" d="M852.7,-139.75C842.08,-139.75 831.36,-139.75 821.29,-139.75"/>
<polygon fill="#63b8ff" stroke="#63b8ff" points="852.64,-143.25 862.64,-139.75 852.64,-136.25 852.64,-143.25"/>
</a>
</g>
</g>
<!-- Node37 -->
<g id="Node000037" class="node">
<title>Node37</title>
<g id="a_Node000037"><a xlink:href="namespaceImGui.html#aab1b20e7bf98aa7bbdb26f8cd3ad91e6" target="_top" xlink:title=" ">
<polygon fill="white" stroke="#666666" points="656.12,-248.12 556.88,-248.12 556.88,-227.38 656.12,-227.38 656.12,-248.12"/>
<text text-anchor="middle" x="606.5" y="-234.62" font-family="Helvetica,sans-Serif" font-size="10.00">ImGui::DragFloat</text>
</a>
</g>
</g>
<!-- Node36&#45;&gt;Node37 -->
<g id="edge41_Node000036_Node000037" class="edge">
<title>Node36&#45;&gt;Node37</title>
<g id="a_edge41_Node000036_Node000037"><a xlink:title=" ">
<path fill="none" stroke="#63b8ff" d="M702.28,-237.75C687,-237.75 670.91,-237.75 656.4,-237.75"/>
<polygon fill="#63b8ff" stroke="#63b8ff" points="702.25,-241.25 712.25,-237.75 702.25,-234.25 702.25,-241.25"/>
</a>
</g>
</g>
<!-- Node40 -->
<g id="Node000040" class="node">
<title>Node40</title>
<g id="a_Node000040"><a xlink:href="namespaceImGui.html#aa6bfd93ead5c47e84b66185da88b8e8c" target="_top" xlink:title=" ">
<polygon fill="white" stroke="#666666" points="674.5,-287.12 538.5,-287.12 538.5,-266.38 674.5,-266.38 674.5,-287.12"/>
<text text-anchor="middle" x="606.5" y="-273.62" font-family="Helvetica,sans-Serif" font-size="10.00">ImGui::DragFloatRange2</text>
</a>
</g>
</g>
<!-- Node36&#45;&gt;Node40 -->
<g id="edge45_Node000036_Node000040" class="edge">
<title>Node36&#45;&gt;Node40</title>
<g id="a_edge45_Node000036_Node000040"><a xlink:title=" ">
<path fill="none" stroke="#63b8ff" d="M710.43,-251.34C691.16,-256.1 669.8,-261.37 651.55,-265.88"/>
<polygon fill="#63b8ff" stroke="#63b8ff" points="711.15,-254.77 720.02,-248.98 709.47,-247.97 711.15,-254.77"/>
</a>
</g>
</g>
<!-- Node41 -->
<g id="Node000041" class="node">
<title>Node41</title>
<g id="a_Node000041"><a xlink:href="namespaceImGui.html#a3714db739ae51fc75601d7fad234a58b" target="_top" xlink:title=" ">
<polygon fill="white" stroke="#666666" points="650.12,-209.12 562.88,-209.12 562.88,-188.38 650.12,-188.38 650.12,-209.12"/>
<text text-anchor="middle" x="606.5" y="-195.62" font-family="Helvetica,sans-Serif" font-size="10.00">ImGui::DragInt</text>
</a>
</g>
</g>
<!-- Node36&#45;&gt;Node41 -->
<g id="edge46_Node000036_Node000041" class="edge">
<title>Node36&#45;&gt;Node41</title>
<g id="a_edge46_Node000036_Node000041"><a xlink:title=" ">
<path fill="none" stroke="#63b8ff" d="M710.51,-224.18C690.84,-219.32 668.97,-213.92 650.46,-209.35"/>
<polygon fill="#63b8ff" stroke="#63b8ff" points="709.47,-227.53 720.02,-226.52 711.15,-220.73 709.47,-227.53"/>
</a>
</g>
</g>
<!-- Node43 -->
<g id="Node000043" class="node">
<title>Node43</title>
<g id="a_Node000043"><a xlink:href="namespaceImGui.html#a1265d2b30ced1fca909e26c8f718fcbd" target="_top" xlink:title=" ">
<polygon fill="#fff0f0" stroke="red" points="662.5,-326.12 550.5,-326.12 550.5,-305.38 662.5,-305.38 662.5,-326.12"/>
<text text-anchor="middle" x="606.5" y="-312.62" font-family="Helvetica,sans-Serif" font-size="10.00">ImGui::DragScalarN</text>
</a>
</g>
</g>
<!-- Node36&#45;&gt;Node43 -->
<g id="edge49_Node000036_Node000043" class="edge">
<title>Node36&#45;&gt;Node43</title>
<g id="a_edge49_Node000036_Node000043"><a xlink:title=" ">
<path fill="none" stroke="#63b8ff" d="M742.81,-255.11C725.33,-267.82 700.15,-284.69 676,-295.75 668.34,-299.26 659.92,-302.31 651.68,-304.91"/>
<polygon fill="#63b8ff" stroke="#63b8ff" points="744.5,-258.22 750.46,-249.45 740.34,-252.59 744.5,-258.22"/>
</a>
</g>
</g>
<!-- Node37&#45;&gt;Node6 -->
<g id="edge42_Node000037_Node000006" class="edge">
<title>Node37&#45;&gt;Node6</title>
<g id="a_edge42_Node000037_Node000006"><a xlink:title=" ">
<path fill="none" stroke="#63b8ff" d="M546.19,-252.85C543.01,-254.34 539.92,-255.97 537,-257.75 517.15,-269.88 521,-283.87 501,-295.75 493.33,-300.31 484.61,-303.84 475.9,-306.58"/>
<polygon fill="#63b8ff" stroke="#63b8ff" points="547.3,-256.18 555.2,-249.12 544.62,-249.71 547.3,-256.18"/>
</a>
</g>
</g>
<!-- Node37&#45;&gt;Node12 -->
<g id="edge44_Node000037_Node000012" class="edge">
<title>Node37&#45;&gt;Node12</title>
<g id="a_edge44_Node000037_Node000012"><a xlink:title=" ">
<path fill="none" stroke="#63b8ff" d="M545.59,-225.74C531.05,-223.14 515.5,-220.61 501,-218.75 437.24,-210.58 363.96,-205.55 312.75,-202.73"/>
<polygon fill="#63b8ff" stroke="#63b8ff" points="544.54,-229.11 555,-227.47 545.8,-222.22 544.54,-229.11"/>
</a>
</g>
</g>
<!-- Node38 -->
<g id="Node000038" class="node">
<title>Node38</title>
<g id="a_Node000038"><a xlink:href="namespaceImGui.html#ae0207d60728f7e6a47dbcd1d7d84e3cb" target="_top" xlink:title=" ">
<polygon fill="#fff0f0" stroke="red" points="489.38,-248.12 360.12,-248.12 360.12,-227.38 489.38,-227.38 489.38,-248.12"/>
<text text-anchor="middle" x="424.75" y="-234.62" font-family="Helvetica,sans-Serif" font-size="10.00">ImGui::DebugNodeFont</text>
</a>
</g>
</g>
<!-- Node37&#45;&gt;Node38 -->
<g id="edge43_Node000037_Node000038" class="edge">
<title>Node37&#45;&gt;Node38</title>
<g id="a_edge43_Node000037_Node000038"><a xlink:title=" ">
<path fill="none" stroke="#63b8ff" d="M544.97,-237.75C527.18,-237.75 507.66,-237.75 489.66,-237.75"/>
<polygon fill="#63b8ff" stroke="#63b8ff" points="544.87,-241.25 554.87,-237.75 544.87,-234.25 544.87,-241.25"/>
</a>
</g>
</g>
<!-- Node41&#45;&gt;Node6 -->
<g id="edge47_Node000041_Node000006" class="edge">
<title>Node41&#45;&gt;Node6</title>
<g id="a_edge47_Node000041_Node000006"><a xlink:title=" ">
<path fill="none" stroke="#63b8ff" d="M551.89,-209.41C546.51,-211.9 541.41,-214.97 537,-218.75 508.32,-243.34 529.98,-271.51 501,-295.75 493.74,-301.82 484.83,-306.07 475.7,-309.03"/>
<polygon fill="#63b8ff" stroke="#63b8ff" points="553.01,-212.73 561.07,-205.85 550.49,-206.2 553.01,-212.73"/>
</a>
</g>
</g>
<!-- Node42 -->
<g id="Node000042" class="node">
<title>Node42</title>
<g id="a_Node000042"><a xlink:href="namespaceImGui.html#a27a0380e0480671c7cd854dd7bfc6bd1" target="_top" xlink:title=" ">
<polygon fill="white" stroke="#666666" points="486.75,-172.12 362.75,-172.12 362.75,-151.38 486.75,-151.38 486.75,-172.12"/>
<text text-anchor="middle" x="424.75" y="-158.62" font-family="Helvetica,sans-Serif" font-size="10.00">ImGui::DragIntRange2</text>
</a>
</g>
</g>
<!-- Node41&#45;&gt;Node42 -->
<g id="edge48_Node000041_Node000042" class="edge">
<title>Node41&#45;&gt;Node42</title>
<g id="a_edge48_Node000041_Node000042"><a xlink:title=" ">
<path fill="none" stroke="#63b8ff" d="M551.43,-187.62C528.29,-182.86 501.37,-177.32 478.4,-172.59"/>
<polygon fill="#63b8ff" stroke="#63b8ff" points="550.46,-190.99 560.96,-189.58 551.87,-184.14 550.46,-190.99"/>
</a>
</g>
</g>
<!-- Node52 -->
<g id="Node000052" class="node">
<title>Node52</title>
<g id="a_Node000052"><a xlink:href="namespaceImGui.html#a864f761801792a0cc5ce3408f3392cfc" target="_top" xlink:title=" ">
<polygon fill="#fff0f0" stroke="red" points="658.38,-170.12 554.62,-170.12 554.62,-149.38 658.38,-149.38 658.38,-170.12"/>
<text text-anchor="middle" x="606.5" y="-156.62" font-family="Helvetica,sans-Serif" font-size="10.00">ImGui::SliderFloat</text>
</a>
</g>
</g>
<!-- Node51&#45;&gt;Node52 -->
<g id="edge51_Node000051_Node000052" class="edge">
<title>Node51&#45;&gt;Node52</title>
<g id="a_edge51_Node000051_Node000052"><a xlink:title=" ">
<path fill="none" stroke="#63b8ff" d="M700.15,-148.02C686.35,-149.77 671.98,-151.59 658.79,-153.26"/>
<polygon fill="#63b8ff" stroke="#63b8ff" points="700.58,-151.5 710.07,-146.77 699.71,-144.55 700.58,-151.5"/>
</a>
</g>
</g>
<!-- Node55 -->
<g id="Node000055" class="node">
<title>Node55</title>
<g id="a_Node000055"><a xlink:href="namespaceImGui.html#a580128c9b35d1a9fc5b7a057f6f5464a" target="_top" xlink:title=" ">
<polygon fill="#fff0f0" stroke="red" points="652.38,-131.12 560.62,-131.12 560.62,-110.38 652.38,-110.38 652.38,-131.12"/>
<text text-anchor="middle" x="606.5" y="-117.62" font-family="Helvetica,sans-Serif" font-size="10.00">ImGui::SliderInt</text>
</a>
</g>
</g>
<!-- Node51&#45;&gt;Node55 -->
<g id="edge53_Node000051_Node000055" class="edge">
<title>Node51&#45;&gt;Node55</title>
<g id="a_edge53_Node000051_Node000055"><a xlink:title=" ">
<path fill="none" stroke="#63b8ff" d="M700.15,-131.89C684.22,-129.98 667.54,-127.97 652.78,-126.2"/>
<polygon fill="#63b8ff" stroke="#63b8ff" points="699.72,-135.36 710.06,-133.08 700.55,-128.41 699.72,-135.36"/>
</a>
</g>
</g>
<!-- Node57 -->
<g id="Node000057" class="node">
<title>Node57</title>
<g id="a_Node000057"><a xlink:href="namespaceImGui.html#a64031a4ad000695c1e1d3f42792f4bb4" target="_top" xlink:title=" ">
<polygon fill="#fff0f0" stroke="red" points="664.75,-92.12 548.25,-92.12 548.25,-71.38 664.75,-71.38 664.75,-92.12"/>
<text text-anchor="middle" x="606.5" y="-78.62" font-family="Helvetica,sans-Serif" font-size="10.00">ImGui::SliderScalarN</text>
</a>
</g>
</g>
<!-- Node51&#45;&gt;Node57 -->
<g id="edge54_Node000051_Node000057" class="edge">
<title>Node51&#45;&gt;Node57</title>
<g id="a_edge54_Node000051_Node000057"><a xlink:title=" ">
<path fill="none" stroke="#63b8ff" d="M731.92,-124.39C715.28,-117.06 694.78,-108.45 676,-101.75 666.9,-98.5 656.98,-95.38 647.6,-92.6"/>
<polygon fill="#63b8ff" stroke="#63b8ff" points="730.3,-127.5 740.86,-128.37 733.15,-121.1 730.3,-127.5"/>
</a>
</g>
</g>
<!-- Node52&#45;&gt;Node12 -->
<g id="edge52_Node000052_Node000012" class="edge">
<title>Node52&#45;&gt;Node12</title>
<g id="a_edge52_Node000052_Node000012"><a xlink:title=" ">
<path fill="none" stroke="#63b8ff" d="M552.68,-146.52C500.05,-135.59 417.37,-124.56 348.5,-142.75 314.59,-151.71 280.14,-175.05 261.73,-188.93"/>
<polygon fill="#63b8ff" stroke="#63b8ff" points="551.77,-149.91 562.29,-148.59 553.25,-143.06 551.77,-149.91"/>
</a>
</g>
</g>
<!-- Node66 -->
<g id="Node000066" class="node">
<title>Node66</title>
<g id="a_Node000066"><a xlink:href="namespaceImStb.html#aa17450e2c20f846067d1aee8dbaaf976" target="_top" xlink:title=" ">
<polygon fill="white" stroke="#666666" points="1529.25,-85.5 1396.25,-85.5 1396.25,-52 1529.25,-52 1529.25,-85.5"/>
<text text-anchor="start" x="1404.25" y="-72" font-family="Helvetica,sans-Serif" font-size="10.00">ImStb::STB_TEXTEDIT</text>
<text text-anchor="middle" x="1462.75" y="-59.25" font-family="Helvetica,sans-Serif" font-size="10.00">_MOVEWORDLEFT_IMPL</text>
</a>
</g>
</g>
<!-- Node65&#45;&gt;Node66 -->
<g id="edge57_Node000065_Node000066" class="edge">
<title>Node65&#45;&gt;Node66</title>
<g id="a_edge57_Node000065_Node000066"><a xlink:title=" ">
<path fill="none" stroke="#63b8ff" d="M1557.53,-68.75C1548.2,-68.75 1538.76,-68.75 1529.65,-68.75"/>
<polygon fill="#63b8ff" stroke="#63b8ff" points="1557.32,-72.25 1567.32,-68.75 1557.32,-65.25 1557.32,-72.25"/>
</a>
</g>
</g>
<!-- Node67 -->
<g id="Node000067" class="node">
<title>Node67</title>
<g id="a_Node000067"><a xlink:href="namespaceImStb.html#aaadd38b7c62661755d9205493a834f1e" target="_top" xlink:title=" ">
<polygon fill="white" stroke="#666666" points="1531.88,-33.5 1393.62,-33.5 1393.62,0 1531.88,0 1531.88,-33.5"/>
<text text-anchor="start" x="1401.62" y="-20" font-family="Helvetica,sans-Serif" font-size="10.00">ImStb::STB_TEXTEDIT</text>
<text text-anchor="middle" x="1462.75" y="-7.25" font-family="Helvetica,sans-Serif" font-size="10.00">_MOVEWORDRIGHT_WIN</text>
</a>
</g>
</g>
<!-- Node65&#45;&gt;Node67 -->
<g id="edge58_Node000065_Node000067" class="edge">
<title>Node65&#45;&gt;Node67</title>
<g id="a_edge58_Node000065_Node000067"><a xlink:title=" ">
<path fill="none" stroke="#63b8ff" d="M1569.31,-48.34C1553.45,-43.6 1536.71,-38.59 1521.36,-33.99"/>
<polygon fill="#63b8ff" stroke="#63b8ff" points="1568.09,-51.63 1578.68,-51.15 1570.1,-44.92 1568.09,-51.63"/>
</a>
</g>
</g>
<!-- Node67&#45;&gt;Node64 -->
<g id="edge59_Node000067_Node000064" class="edge">
<title>Node67&#45;&gt;Node64</title>
<g id="a_edge59_Node000067_Node000064"><a xlink:title=" ">
<path fill="none" stroke="#63b8ff" d="M1381.81,-30.46C1373.44,-31.9 1364.97,-33.35 1356.73,-34.77"/>
<polygon fill="#63b8ff" stroke="#63b8ff" points="1382.38,-33.92 1391.64,-28.78 1381.2,-27.02 1382.38,-33.92"/>
</a>
</g>
</g>
</g>
</svg>
