<?xml version="1.0" encoding="UTF-8" standalone="no"?>
<!DOCTYPE svg PUBLIC "-//W3C//DTD SVG 1.1//EN"
 "http://www.w3.org/Graphics/SVG/1.1/DTD/svg11.dtd">
<!-- Generated by graphviz version 13.1.0 (20250701.0955)
 -->
<!-- Title: steppable::graphing::cubicInterpolateFill Pages: 1 -->
<svg width="420pt" height="42pt"
 viewBox="0.00 0.00 420.00 42.00" xmlns="http://www.w3.org/2000/svg" xmlns:xlink="http://www.w3.org/1999/xlink">
<g id="graph0" class="graph" transform="scale(1 1) rotate(0) translate(4 37.5)">
<title>steppable::graphing::cubicInterpolateFill</title>
<!-- Node1 -->
<g id="Node000001" class="node">
<title>Node1</title>
<g id="a_Node000001"><a xlink:title="Fill in integral values with cubic interpolation.">
<polygon fill="#999999" stroke="#666666" points="115,-33.5 0,-33.5 0,0 115,0 115,-33.5"/>
<text xml:space="preserve" text-anchor="start" x="8" y="-20" font-family="Helvetica,sans-Serif" font-size="10.00">steppable::graphing</text>
<text xml:space="preserve" text-anchor="middle" x="57.5" y="-7.25" font-family="Helvetica,sans-Serif" font-size="10.00">::cubicInterpolateFill</text>
</a>
</g>
</g>
<!-- Node2 -->
<g id="Node000002" class="node">
<title>Node2</title>
<g id="a_Node000002"><a xlink:href="namespacesteppable_1_1graphing.html#a91df4cd252af2609c7e43cb07b531e75" target="_top" xlink:title="Fill in integral values with linear interpolation.">
<polygon fill="white" stroke="#666666" points="268.25,-33.5 151,-33.5 151,0 268.25,0 268.25,-33.5"/>
<text xml:space="preserve" text-anchor="start" x="159" y="-20" font-family="Helvetica,sans-Serif" font-size="10.00">steppable::graphing</text>
<text xml:space="preserve" text-anchor="middle" x="209.62" y="-7.25" font-family="Helvetica,sans-Serif" font-size="10.00">::linearInterpolateFill</text>
</a>
</g>
</g>
<!-- Node1&#45;&gt;Node2 -->
<g id="edge1_Node000001_Node000002" class="edge">
<title>Node1&#45;&gt;Node2</title>
<g id="a_edge1_Node000001_Node000002"><a xlink:title=" ">
<path fill="none" stroke="#63b8ff" d="M115.26,-16.75C123.1,-16.75 131.23,-16.75 139.27,-16.75"/>
<polygon fill="#63b8ff" stroke="#63b8ff" points="139.03,-20.25 149.03,-16.75 139.03,-13.25 139.03,-20.25"/>
</a>
</g>
</g>
<!-- Node3 -->
<g id="Node000003" class="node">
<title>Node3</title>
<g id="a_Node000003"><a xlink:href="namespacesteppable_1_1output.html#aaeed30985adb9664fb71758754dad2fa" target="_top" xlink:title="Prints an error message.">
<polygon fill="white" stroke="#666666" points="411.75,-33.5 304.25,-33.5 304.25,0 411.75,0 411.75,-33.5"/>
<text xml:space="preserve" text-anchor="start" x="312.25" y="-20" font-family="Helvetica,sans-Serif" font-size="10.00">steppable::output::</text>
<text xml:space="preserve" text-anchor="middle" x="358" y="-7.25" font-family="Helvetica,sans-Serif" font-size="10.00">error</text>
</a>
</g>
</g>
<!-- Node2&#45;&gt;Node3 -->
<g id="edge2_Node000002_Node000003" class="edge">
<title>Node2&#45;&gt;Node3</title>
<g id="a_edge2_Node000002_Node000003"><a xlink:title=" ">
<path fill="none" stroke="#63b8ff" d="M268.48,-16.75C276.32,-16.75 284.4,-16.75 292.35,-16.75"/>
<polygon fill="#63b8ff" stroke="#63b8ff" points="292.34,-20.25 302.34,-16.75 292.34,-13.25 292.34,-20.25"/>
</a>
</g>
</g>
</g>
</svg>
