<?xml version="1.0" encoding="UTF-8" standalone="no"?>
<!DOCTYPE svg PUBLIC "-//W3C//DTD SVG 1.1//EN"
 "http://www.w3.org/Graphics/SVG/1.1/DTD/svg11.dtd">
<!-- Generated by graphviz version 12.2.1 (20241206.2353)
 -->
<!-- Title: ImGui::RenderMouseCursor Pages: 1 -->
<!--zoomable 273 -->

<svg id="main" version="1.1" xmlns="http://www.w3.org/2000/svg" xmlns:xlink="http://www.w3.org/1999/xlink" xml:space="preserve" onload="init(evt)">

<style type="text/css"><![CDATA[
.node, .edge {opacity: 0.7;}
.node.selected, .edge.selected {opacity: 1;}
.edge:hover path { stroke: red; }
.edge:hover polygon { stroke: red; fill: red; }
]]></style>

<defs>
  <circle id="rim" cx="0" cy="0" r="7"/>
  <circle id="rim2" cx="0" cy="0" r="3.5"/>
  <g id="zoomPlus">
    <use xlink:href="#rim" fill="#404040"><set attributeName="fill" to="#808080" begin="zoomplus.mouseover" end="zoomplus.mouseout"/></use>
    <path d="M-4,0h8M0,-4v8" fill="none" stroke="white" stroke-width="1.5" pointer-events="none"/>
  </g>
  <g id="zoomMin">
    <use xlink:href="#rim" fill="#404040"><set attributeName="fill" to="#808080" begin="zoomminus.mouseover" end="zoomminus.mouseout"/></use>
    <path d="M-4,0h8" fill="none" stroke="white" stroke-width="1.5" pointer-events="none"/>
  </g>
  <g id="arrowUp" transform="translate(30 24)">
    <use xlink:href="#rim"/>
    <path pointer-events="none" fill="none" stroke="white" stroke-width="1.5" d="M0,-3.0v7 M-2.5,-0.5L0,-3.0L2.5,-0.5"/>
  </g>
  <g id="arrowRight" transform="rotate(90) translate(36 -43)">
    <use xlink:href="#rim"/>
    <path pointer-events="none" fill="none" stroke="white" stroke-width="1.5" d="M0,-3.0v7 M-2.5,-0.5L0,-3.0L2.5,-0.5"/>
  </g>
  <g id="arrowDown" transform="rotate(180) translate(-30 -48)">
    <use xlink:href="#rim"/>
    <path pointer-events="none" fill="none" stroke="white" stroke-width="1.5" d="M0,-3.0v7 M-2.5,-0.5L0,-3.0L2.5,-0.5"/>
  </g>
  <g id="arrowLeft" transform="rotate(270) translate(-36 17)">
    <use xlink:href="#rim"/>
    <path pointer-events="none" fill="none" stroke="white" stroke-width="1.5" d="M0,-3.0v7 M-2.5,-0.5L0,-3.0L2.5,-0.5"/>
  </g>
  <g id="resetDef">
    <use xlink:href="#rim2" fill="#404040"><set attributeName="fill" to="#808080" begin="reset.mouseover" end="reset.mouseout"/></use>
  </g>
</defs>
<script type="application/ecmascript">
var viewWidth = 954;
var viewHeight = 273;
var sectionId = 'dynsection-946';
</script>
<script type="application/ecmascript" xlink:href="svg.min.js"/>
<svg id="graph" class="graph">
<g id="viewport">
<title>ImGui::RenderMouseCursor</title>
<!-- Node1 -->
<g id="Node000001" class="node">
<title>Node1</title>
<g id="a_Node000001"><a xlink:title=" ">
<polygon fill="#999999" stroke="#666666" points="149.5,-149.75 0,-149.75 0,-129 149.5,-129 149.5,-149.75"/>
<text text-anchor="middle" x="74.75" y="-136.25" font-family="Helvetica,sans-Serif" font-size="10.00">ImGui::RenderMouseCursor</text>
</a>
</g>
</g>
<!-- Node2 -->
<g id="Node000002" class="node">
<title>Node2</title>
<g id="a_Node000002"><a xlink:href="structImDrawList.html#ac1f529d53d7ba118484e47e49218c603" target="_top" xlink:title=" ">
<polygon fill="white" stroke="#666666" points="332,-188.75 205,-188.75 205,-168 332,-168 332,-188.75"/>
<text text-anchor="middle" x="268.5" y="-175.25" font-family="Helvetica,sans-Serif" font-size="10.00">ImDrawList::AddImage</text>
</a>
</g>
</g>
<!-- Node1&#45;&gt;Node2 -->
<g id="edge1_Node000001_Node000002" class="edge">
<title>Node1&#45;&gt;Node2</title>
<g id="a_edge1_Node000001_Node000002"><a xlink:title=" ">
<path fill="none" stroke="#63b8ff" d="M129.16,-150.24C152.03,-154.89 178.93,-160.36 202.9,-165.24"/>
<polygon fill="#63b8ff" stroke="#63b8ff" points="202.06,-168.64 212.56,-167.2 203.46,-161.78 202.06,-168.64"/>
</a>
</g>
</g>
<!-- Node3 -->
<g id="Node000003" class="node">
<title>Node3</title>
<g id="a_Node000003"><a xlink:href="structImDrawList.html#ade9286c5ca58753f7bd571b30e2ff76c" target="_top" xlink:title=" ">
<polygon fill="white" stroke="#666666" points="537,-264.75 395,-264.75 395,-244 537,-244 537,-264.75"/>
<text text-anchor="middle" x="466" y="-251.25" font-family="Helvetica,sans-Serif" font-size="10.00">ImDrawList::PopTextureID</text>
</a>
</g>
</g>
<!-- Node1&#45;&gt;Node3 -->
<g id="edge17_Node000001_Node000003" class="edge">
<title>Node1&#45;&gt;Node3</title>
<g id="a_edge17_Node000001_Node000003"><a xlink:title=" ">
<path fill="none" stroke="#63b8ff" d="M85.75,-150.01C103.74,-168.35 143.58,-205.6 185.5,-222.38 248.84,-247.73 326.27,-254.94 383.56,-256.26"/>
<polygon fill="#63b8ff" stroke="#63b8ff" points="383.17,-259.76 393.23,-256.42 383.29,-252.76 383.17,-259.76"/>
</a>
</g>
</g>
<!-- Node9 -->
<g id="Node000009" class="node">
<title>Node9</title>
<g id="a_Node000009"><a xlink:href="structImDrawList.html#a7ac41e329a9df911b4823ef0150cee16" target="_top" xlink:title=" ">
<polygon fill="white" stroke="#666666" points="539.62,-225.75 392.38,-225.75 392.38,-205 539.62,-205 539.62,-225.75"/>
<text text-anchor="middle" x="466" y="-212.25" font-family="Helvetica,sans-Serif" font-size="10.00">ImDrawList::PushTextureID</text>
</a>
</g>
</g>
<!-- Node1&#45;&gt;Node9 -->
<g id="edge18_Node000001_Node000009" class="edge">
<title>Node1&#45;&gt;Node9</title>
<g id="a_edge18_Node000001_Node000009"><a xlink:title=" ">
<path fill="none" stroke="#63b8ff" d="M90.86,-150.04C111.25,-163.79 149.21,-187.13 185.5,-197.38 249.31,-215.39 324.44,-219.32 380.73,-219.06"/>
<polygon fill="#63b8ff" stroke="#63b8ff" points="380.6,-222.56 390.57,-218.97 380.53,-215.56 380.6,-222.56"/>
</a>
</g>
</g>
<!-- Node10 -->
<g id="Node000010" class="node">
<title>Node10</title>
<g id="a_Node000010"><a xlink:href="namespaceImGui.html#a77e1a981b472415e6613a2bd0966d817" target="_top" xlink:title=" ">
<polygon fill="white" stroke="#666666" points="351.5,-149.75 185.5,-149.75 185.5,-129 351.5,-129 351.5,-149.75"/>
<text text-anchor="middle" x="268.5" y="-136.25" font-family="Helvetica,sans-Serif" font-size="10.00">ImGui::GetForegroundDrawList</text>
</a>
</g>
</g>
<!-- Node1&#45;&gt;Node10 -->
<g id="edge11_Node000001_Node000010" class="edge">
<title>Node1&#45;&gt;Node10</title>
<g id="a_edge11_Node000001_Node000010"><a xlink:title=" ">
<path fill="none" stroke="#63b8ff" d="M149.89,-139.38C157.76,-139.38 165.85,-139.38 173.92,-139.38"/>
<polygon fill="#63b8ff" stroke="#63b8ff" points="173.77,-142.88 183.77,-139.38 173.77,-135.88 173.77,-142.88"/>
</a>
</g>
</g>
<!-- Node11 -->
<g id="Node000011" class="node">
<title>Node11</title>
<g id="a_Node000011"><a xlink:href="structImGuiViewportP.html#adb4c14f0b0a42bff9c1c0ab1971027f7" target="_top" xlink:title=" ">
<polygon fill="white" stroke="#666666" points="350.38,-110.75 186.62,-110.75 186.62,-90 350.38,-90 350.38,-110.75"/>
<text text-anchor="middle" x="268.5" y="-97.25" font-family="Helvetica,sans-Serif" font-size="10.00">ImGuiViewportP::GetMainRect</text>
</a>
</g>
</g>
<!-- Node1&#45;&gt;Node11 -->
<g id="edge12_Node000001_Node000011" class="edge">
<title>Node1&#45;&gt;Node11</title>
<g id="a_edge12_Node000001_Node000011"><a xlink:title=" ">
<path fill="none" stroke="#63b8ff" d="M129.16,-128.51C152.03,-123.86 178.93,-118.39 202.9,-113.51"/>
<polygon fill="#63b8ff" stroke="#63b8ff" points="203.46,-116.97 212.56,-111.55 202.06,-110.11 203.46,-116.97"/>
</a>
</g>
</g>
<!-- Node12 -->
<g id="Node000012" class="node">
<title>Node12</title>
<g id="a_Node000012"><a xlink:href="structImFontAtlas.html#a6d27a36fe034851310dd00d7dc5253c3" target="_top" xlink:title=" ">
<polygon fill="white" stroke="#666666" points="349.25,-72.12 187.75,-72.12 187.75,-38.62 349.25,-38.62 349.25,-72.12"/>
<text text-anchor="start" x="195.75" y="-58.62" font-family="Helvetica,sans-Serif" font-size="10.00">ImFontAtlas::GetMouseCursor</text>
<text text-anchor="middle" x="268.5" y="-45.88" font-family="Helvetica,sans-Serif" font-size="10.00">TexData</text>
</a>
</g>
</g>
<!-- Node1&#45;&gt;Node12 -->
<g id="edge13_Node000001_Node000012" class="edge">
<title>Node1&#45;&gt;Node12</title>
<g id="a_edge13_Node000001_Node000012"><a xlink:title=" ">
<path fill="none" stroke="#63b8ff" d="M93.52,-128.71C114.84,-116.21 151.91,-95.44 185.5,-81.38 189.57,-79.67 193.79,-78.01 198.07,-76.42"/>
<polygon fill="#63b8ff" stroke="#63b8ff" points="199.14,-79.75 207.38,-73.08 196.78,-73.16 199.14,-79.75"/>
</a>
</g>
</g>
<!-- Node14 -->
<g id="Node000014" class="node">
<title>Node14</title>
<g id="a_Node000014"><a xlink:href="structImRect.html#a0af3bade3781e5e7c6afdf71ccfb0d43" target="_top" xlink:title=" ">
<polygon fill="white" stroke="#666666" points="318.5,-20.75 218.5,-20.75 218.5,0 318.5,0 318.5,-20.75"/>
<text text-anchor="middle" x="268.5" y="-7.25" font-family="Helvetica,sans-Serif" font-size="10.00">ImRect::Overlaps</text>
</a>
</g>
</g>
<!-- Node1&#45;&gt;Node14 -->
<g id="edge15_Node000001_Node000014" class="edge">
<title>Node1&#45;&gt;Node14</title>
<g id="a_edge15_Node000001_Node000014"><a xlink:title=" ">
<path fill="none" stroke="#63b8ff" d="M83.15,-128.65C99.1,-106.41 139.04,-55.18 185.5,-29.38 192.19,-25.66 199.58,-22.66 207.1,-20.26"/>
<polygon fill="#63b8ff" stroke="#63b8ff" points="208.02,-23.63 216.69,-17.54 206.12,-16.9 208.02,-23.63"/>
</a>
</g>
</g>
<!-- Node2&#45;&gt;Node3 -->
<g id="edge2_Node000002_Node000003" class="edge">
<title>Node2&#45;&gt;Node3</title>
<g id="a_edge2_Node000002_Node000003"><a xlink:title=" ">
<path fill="none" stroke="#63b8ff" d="M289.05,-189.07C312.06,-201.33 351.69,-221.39 387.5,-234.38 393.53,-236.56 399.9,-238.61 406.29,-240.49"/>
<polygon fill="#63b8ff" stroke="#63b8ff" points="404.99,-243.76 415.56,-243.11 406.89,-237.03 404.99,-243.76"/>
</a>
</g>
</g>
<!-- Node6 -->
<g id="Node000006" class="node">
<title>Node6</title>
<g id="a_Node000006"><a xlink:href="structImDrawList.html#a77d48ed5b33ccdd908824c0a3bebfff8" target="_top" xlink:title=" ">
<polygon fill="white" stroke="#666666" points="534,-147.75 398,-147.75 398,-127 534,-127 534,-147.75"/>
<text text-anchor="middle" x="466" y="-134.25" font-family="Helvetica,sans-Serif" font-size="10.00">ImDrawList::PrimRectUV</text>
</a>
</g>
</g>
<!-- Node2&#45;&gt;Node6 -->
<g id="edge5_Node000002_Node000006" class="edge">
<title>Node2&#45;&gt;Node6</title>
<g id="a_edge5_Node000002_Node000006"><a xlink:title=" ">
<path fill="none" stroke="#63b8ff" d="M321.12,-167.55C346.07,-162.32 376.21,-156 402.45,-150.49"/>
<polygon fill="#63b8ff" stroke="#63b8ff" points="402.88,-153.98 411.95,-148.5 401.44,-147.13 402.88,-153.98"/>
</a>
</g>
</g>
<!-- Node7 -->
<g id="Node000007" class="node">
<title>Node7</title>
<g id="a_Node000007"><a xlink:href="structImDrawList.html#a879aa38dbfb0344e3e023d65c002c7d7" target="_top" xlink:title=" ">
<polygon fill="white" stroke="#666666" points="535.88,-186.75 396.12,-186.75 396.12,-166 535.88,-166 535.88,-186.75"/>
<text text-anchor="middle" x="466" y="-173.25" font-family="Helvetica,sans-Serif" font-size="10.00">ImDrawList::PrimReserve</text>
</a>
</g>
</g>
<!-- Node2&#45;&gt;Node7 -->
<g id="edge6_Node000002_Node000007" class="edge">
<title>Node2&#45;&gt;Node7</title>
<g id="a_edge6_Node000002_Node000007"><a xlink:title=" ">
<path fill="none" stroke="#63b8ff" d="M332.43,-177.73C349.01,-177.56 367.12,-177.38 384.48,-177.2"/>
<polygon fill="#63b8ff" stroke="#63b8ff" points="384.28,-180.7 394.24,-177.1 384.2,-173.7 384.28,-180.7"/>
</a>
</g>
</g>
<!-- Node2&#45;&gt;Node9 -->
<g id="edge9_Node000002_Node000009" class="edge">
<title>Node2&#45;&gt;Node9</title>
<g id="a_edge9_Node000002_Node000009"><a xlink:title=" ">
<path fill="none" stroke="#63b8ff" d="M326.84,-189.23C348.62,-193.35 373.65,-198.09 396.37,-202.39"/>
<polygon fill="#63b8ff" stroke="#63b8ff" points="395.7,-205.82 406.18,-204.24 397,-198.94 395.7,-205.82"/>
</a>
</g>
</g>
<!-- Node4 -->
<g id="Node000004" class="node">
<title>Node4</title>
<g id="a_Node000004"><a xlink:href="structImDrawList.html#a7c14ae666a0df75214ecb97cdb9bd8f4" target="_top" xlink:title=" ">
<polygon fill="white" stroke="#666666" points="766,-231.75 580.5,-231.75 580.5,-211 766,-211 766,-231.75"/>
<text text-anchor="middle" x="673.25" y="-218.25" font-family="Helvetica,sans-Serif" font-size="10.00">ImDrawList::_OnChangedTextureID</text>
</a>
</g>
</g>
<!-- Node3&#45;&gt;Node4 -->
<g id="edge3_Node000003_Node000004" class="edge">
<title>Node3&#45;&gt;Node4</title>
<g id="a_edge3_Node000003_Node000004"><a xlink:title=" ">
<path fill="none" stroke="#63b8ff" d="M534.49,-243.52C553.34,-240.49 573.99,-237.17 593.43,-234.05"/>
<polygon fill="#63b8ff" stroke="#63b8ff" points="593.91,-237.52 603.22,-232.47 592.8,-230.6 593.91,-237.52"/>
</a>
</g>
</g>
<!-- Node5 -->
<g id="Node000005" class="node">
<title>Node5</title>
<g id="a_Node000005"><a xlink:href="structImDrawList.html#a846714bb0321c6f1f908767abc8559e6" target="_top" xlink:title=" ">
<polygon fill="white" stroke="#666666" points="946.25,-208.75 802,-208.75 802,-188 946.25,-188 946.25,-208.75"/>
<text text-anchor="middle" x="874.12" y="-195.25" font-family="Helvetica,sans-Serif" font-size="10.00">ImDrawList::AddDrawCmd</text>
</a>
</g>
</g>
<!-- Node4&#45;&gt;Node5 -->
<g id="edge4_Node000004_Node000005" class="edge">
<title>Node4&#45;&gt;Node5</title>
<g id="a_edge4_Node000004_Node000005"><a xlink:title=" ">
<path fill="none" stroke="#63b8ff" d="M766.41,-210.72C774.33,-209.8 782.31,-208.88 790.15,-207.97"/>
<polygon fill="#63b8ff" stroke="#63b8ff" points="790.48,-211.46 800.01,-206.83 789.67,-204.5 790.48,-211.46"/>
</a>
</g>
</g>
<!-- Node8 -->
<g id="Node000008" class="node">
<title>Node8</title>
<g id="a_Node000008"><a xlink:href="structImDrawList.html#a7f2e315f147acd8b555d86d1557659cc" target="_top" xlink:title=" ">
<polygon fill="white" stroke="#666666" points="751,-193.12 595.5,-193.12 595.5,-159.62 751,-159.62 751,-193.12"/>
<text text-anchor="start" x="603.5" y="-179.62" font-family="Helvetica,sans-Serif" font-size="10.00">ImDrawList::_OnChangedVtx</text>
<text text-anchor="middle" x="673.25" y="-166.88" font-family="Helvetica,sans-Serif" font-size="10.00">Offset</text>
</a>
</g>
</g>
<!-- Node7&#45;&gt;Node8 -->
<g id="edge7_Node000007_Node000008" class="edge">
<title>Node7&#45;&gt;Node8</title>
<g id="a_edge7_Node000007_Node000008"><a xlink:title=" ">
<path fill="none" stroke="#63b8ff" d="M536.2,-176.38C551.47,-176.38 567.84,-176.38 583.75,-176.38"/>
<polygon fill="#63b8ff" stroke="#63b8ff" points="583.72,-179.88 593.72,-176.38 583.72,-172.88 583.72,-179.88"/>
</a>
</g>
</g>
<!-- Node8&#45;&gt;Node5 -->
<g id="edge8_Node000008_Node000005" class="edge">
<title>Node8&#45;&gt;Node5</title>
<g id="a_edge8_Node000008_Node000005"><a xlink:title=" ">
<path fill="none" stroke="#63b8ff" d="M751.42,-184.91C764.18,-186.32 777.44,-187.79 790.33,-189.22"/>
<polygon fill="#63b8ff" stroke="#63b8ff" points="789.7,-192.67 800.02,-190.29 790.47,-185.71 789.7,-192.67"/>
</a>
</g>
</g>
<!-- Node9&#45;&gt;Node4 -->
<g id="edge10_Node000009_Node000004" class="edge">
<title>Node9&#45;&gt;Node4</title>
<g id="a_edge10_Node000009_Node000004"><a xlink:title=" ">
<path fill="none" stroke="#63b8ff" d="M539.94,-217.51C549.3,-217.78 559.02,-218.06 568.75,-218.35"/>
<polygon fill="#63b8ff" stroke="#63b8ff" points="568.54,-221.84 578.64,-218.64 568.75,-214.85 568.54,-221.84"/>
</a>
</g>
</g>
<!-- Node13 -->
<g id="Node000013" class="node">
<title>Node13</title>
<g id="a_Node000013"><a xlink:href="structImFontAtlas.html#a6a4c5f59c12c88a5c0429d6a6ec06481" target="_top" xlink:title=" ">
<polygon fill="white" stroke="#666666" points="544.5,-72.12 387.5,-72.12 387.5,-38.62 544.5,-38.62 544.5,-72.12"/>
<text text-anchor="start" x="395.5" y="-58.62" font-family="Helvetica,sans-Serif" font-size="10.00">ImFontAtlas::GetCustomRect</text>
<text text-anchor="middle" x="466" y="-45.88" font-family="Helvetica,sans-Serif" font-size="10.00">ByIndex</text>
</a>
</g>
</g>
<!-- Node12&#45;&gt;Node13 -->
<g id="edge14_Node000012_Node000013" class="edge">
<title>Node12&#45;&gt;Node13</title>
<g id="a_edge14_Node000012_Node000013"><a xlink:title=" ">
<path fill="none" stroke="#63b8ff" d="M349.58,-55.38C358.23,-55.38 367.08,-55.38 375.83,-55.38"/>
<polygon fill="#63b8ff" stroke="#63b8ff" points="375.74,-58.88 385.74,-55.38 375.74,-51.88 375.74,-58.88"/>
</a>
</g>
</g>
<!-- Node15 -->
<g id="Node000015" class="node">
<title>Node15</title>
<g id="a_Node000015"><a xlink:href="structImRect.html#a1e9548c8a334dfd32eaf4d399aa740e9" target="_top" xlink:title=" ">
<polygon fill="white" stroke="#666666" points="511.5,-20.75 420.5,-20.75 420.5,0 511.5,0 511.5,-20.75"/>
<text text-anchor="middle" x="466" y="-7.25" font-family="Helvetica,sans-Serif" font-size="10.00">ImRect::ImRect</text>
</a>
</g>
</g>
<!-- Node14&#45;&gt;Node15 -->
<g id="edge16_Node000014_Node000015" class="edge">
<title>Node14&#45;&gt;Node15</title>
<g id="a_edge16_Node000014_Node000015"><a xlink:title=" ">
<path fill="none" stroke="#63b8ff" d="M318.83,-10.38C346.17,-10.38 380.27,-10.38 408.66,-10.38"/>
<polygon fill="#63b8ff" stroke="#63b8ff" points="408.52,-13.88 418.52,-10.38 408.52,-6.88 408.52,-13.88"/>
</a>
</g>
</g>
</g>
</svg>

<g id="navigator" transform="translate(0 0)" fill="#404254">
  <rect fill="#f2f5e9" fill-opacity="0.5" stroke="#606060" stroke-width=".5" x="0" y="0" width="60" height="60"/>
  <use id="zoomplus" xlink:href="#zoomPlus" x="17" y="9" onmousedown="handleZoom(evt,'in')"/>
  <use id="zoomminus" xlink:href="#zoomMin" x="42" y="9" onmousedown="handleZoom(evt,'out')"/>
  <use id="reset" xlink:href="#resetDef" x="30" y="36" onmousedown="handleReset()"/>
   <use id="arrowup" xlink:href="#arrowUp" x="0" y="0" onmousedown="handlePan(0,-1)"/>
  <use id="arrowright" xlink:href="#arrowRight" x="0" y="0" onmousedown="handlePan(1,0)"/>
  <use id="arrowdown" xlink:href="#arrowDown" x="0" y="0" onmousedown="handlePan(0,1)"/>
  <use id="arrowleft" xlink:href="#arrowLeft" x="0" y="0" onmousedown="handlePan(-1,0)"/>
</g>
<svg viewBox="0 0 15 15" width="100%" height="30px" preserveAspectRatio="xMaxYMin meet">
 <g id="arrow_out" transform="scale(0.3 0.3)">
  <a xlink:href="namespaceImGui_ade001ee6028075c9c1e2bd3f0395b920_cgraph_org.svg" target="_base">
   <rect id="button" ry="5" rx="5" y="6" x="6" height="38" width="38"
        fill="#f2f5e9" fill-opacity="0.5" stroke="#606060" stroke-width="1.0"/>
   <path id="arrow"
     d="M 11.500037,31.436501 C 11.940474,20.09759 22.043105,11.32322 32.158766,21.979434 L 37.068811,17.246167 C 37.068811,17.246167 37.088388,32 37.088388,32 L 22.160133,31.978069 C 22.160133,31.978069 26.997745,27.140456 26.997745,27.140456 C 18.528582,18.264221 13.291696,25.230495 11.500037,31.436501 z"
     style="fill:#404040;"/>
  </a>
 </g>
</svg>

<style type='text/css'>
<![CDATA[
[data-mouse-over-selected='false'] { opacity: 0.7; }
[data-mouse-over-selected='true']  { opacity: 1.0; }
]]>
</style>
<script type="application/ecmascript"><![CDATA[
document.addEventListener('DOMContentLoaded', (event) => {
  highlightEdges();
  highlightAdjacentNodes();
});
]]></script>
</svg>
