<?xml version="1.0" encoding="UTF-8" standalone="no"?>
<!DOCTYPE svg PUBLIC "-//W3C//DTD SVG 1.1//EN"
 "http://www.w3.org/Graphics/SVG/1.1/DTD/svg11.dtd">
<!-- Generated by graphviz version 12.2.1 (20241206.2353)
 -->
<!-- Title: ImGui::DockContextCalcDropPosForDocking Pages: 1 -->
<svg width="719pt" height="377pt"
 viewBox="0.00 0.00 718.50 376.75" xmlns="http://www.w3.org/2000/svg" xmlns:xlink="http://www.w3.org/1999/xlink">
<g id="graph0" class="graph" transform="scale(1 1) rotate(0) translate(4 372.75)">
<title>ImGui::DockContextCalcDropPosForDocking</title>
<!-- Node1 -->
<g id="Node000001" class="node">
<title>Node1</title>
<g id="a_Node000001"><a xlink:title=" ">
<polygon fill="#999999" stroke="#666666" points="158.5,-84.12 0,-84.12 0,-50.62 158.5,-50.62 158.5,-84.12"/>
<text text-anchor="start" x="8" y="-70.62" font-family="Helvetica,sans-Serif" font-size="10.00">ImGui::DockContextCalcDrop</text>
<text text-anchor="middle" x="79.25" y="-57.88" font-family="Helvetica,sans-Serif" font-size="10.00">PosForDocking</text>
</a>
</g>
</g>
<!-- Node2 -->
<g id="Node000002" class="node">
<title>Node2</title>
<g id="a_Node000002"><a xlink:href="namespaceImGui.html#ad24d7eec255244bfacce75b3faa053a7" target="_top" xlink:title=" ">
<polygon fill="white" stroke="#666666" points="359.75,-181.12 194.5,-181.12 194.5,-147.62 359.75,-147.62 359.75,-181.12"/>
<text text-anchor="start" x="202.5" y="-167.62" font-family="Helvetica,sans-Serif" font-size="10.00">ImGui::DockNodePreviewDock</text>
<text text-anchor="middle" x="277.12" y="-154.88" font-family="Helvetica,sans-Serif" font-size="10.00">Setup</text>
</a>
</g>
</g>
<!-- Node1&#45;&gt;Node2 -->
<g id="edge1_Node000001_Node000002" class="edge">
<title>Node1&#45;&gt;Node2</title>
<g id="a_edge1_Node000001_Node000002"><a xlink:title=" ">
<path fill="none" stroke="#63b8ff" d="M114.82,-84.49C147.3,-100.58 196.09,-124.74 231.51,-142.28"/>
<polygon fill="#63b8ff" stroke="#63b8ff" points="229.7,-145.29 240.22,-146.59 232.81,-139.02 229.7,-145.29"/>
</a>
</g>
</g>
<!-- Node6 -->
<g id="Node000006" class="node">
<title>Node6</title>
<g id="a_Node000006"><a xlink:href="structImRect.html#aae13f8003184fd84f29d27c3c074cf43" target="_top" xlink:title=" ">
<polygon fill="white" stroke="#666666" points="710.5,-145.75 604.5,-145.75 604.5,-125 710.5,-125 710.5,-145.75"/>
<text text-anchor="middle" x="657.5" y="-132.25" font-family="Helvetica,sans-Serif" font-size="10.00">ImRect::GetCenter</text>
</a>
</g>
</g>
<!-- Node1&#45;&gt;Node6 -->
<g id="edge13_Node000001_Node000006" class="edge">
<title>Node1&#45;&gt;Node6</title>
<g id="a_edge13_Node000001_Node000006"><a xlink:title=" ">
<path fill="none" stroke="#63b8ff" d="M158.89,-52.16C257.55,-36.47 430.52,-20.28 568.5,-67.38 596.97,-77.09 623.39,-100.18 639.7,-116.76"/>
<polygon fill="#63b8ff" stroke="#63b8ff" points="636.81,-118.79 646.23,-123.63 641.88,-113.97 636.81,-118.79"/>
</a>
</g>
</g>
<!-- Node11 -->
<g id="Node000011" class="node">
<title>Node11</title>
<g id="a_Node000011"><a xlink:href="structImGuiDockNode.html#a65a6bb0809083aef0edbf937c90b83f6" target="_top" xlink:title=" ">
<polygon fill="white" stroke="#666666" points="567.38,-96.75 396.88,-96.75 396.88,-76 567.38,-76 567.38,-96.75"/>
<text text-anchor="middle" x="482.12" y="-83.25" font-family="Helvetica,sans-Serif" font-size="10.00">ImGuiDockNode::IsCentralNode</text>
</a>
</g>
</g>
<!-- Node1&#45;&gt;Node11 -->
<g id="edge14_Node000001_Node000011" class="edge">
<title>Node1&#45;&gt;Node11</title>
<g id="a_edge14_Node000001_Node000011"><a xlink:title=" ">
<path fill="none" stroke="#63b8ff" d="M158.97,-71.11C223.88,-74.18 316.19,-78.56 385.37,-81.84"/>
<polygon fill="#63b8ff" stroke="#63b8ff" points="385.03,-85.32 395.19,-82.3 385.37,-78.33 385.03,-85.32"/>
</a>
</g>
</g>
<!-- Node14 -->
<g id="Node000014" class="node">
<title>Node14</title>
<g id="a_Node000014"><a xlink:href="structImRect.html#a140efca57832182e2483e5fe4ba50422" target="_top" xlink:title=" ">
<polygon fill="white" stroke="#666666" points="329.75,-20.75 224.5,-20.75 224.5,0 329.75,0 329.75,-20.75"/>
<text text-anchor="middle" x="277.12" y="-7.25" font-family="Helvetica,sans-Serif" font-size="10.00">ImRect::IsInverted</text>
</a>
</g>
</g>
<!-- Node1&#45;&gt;Node14 -->
<g id="edge15_Node000001_Node000014" class="edge">
<title>Node1&#45;&gt;Node14</title>
<g id="a_edge15_Node000001_Node000014"><a xlink:title=" ">
<path fill="none" stroke="#63b8ff" d="M139.28,-50.2C167.57,-41.96 201.03,-32.23 227.78,-24.44"/>
<polygon fill="#63b8ff" stroke="#63b8ff" points="228.72,-27.81 237.35,-21.66 226.77,-21.09 228.72,-27.81"/>
</a>
</g>
</g>
<!-- Node3 -->
<g id="Node000003" class="node">
<title>Node3</title>
<g id="a_Node000003"><a xlink:href="namespaceImGui.html#ae0069cc2c5d2e92e9084f7da7ea4936c" target="_top" xlink:title=" ">
<polygon fill="white" stroke="#666666" points="568.5,-317.12 395.75,-317.12 395.75,-283.62 568.5,-283.62 568.5,-317.12"/>
<text text-anchor="start" x="403.75" y="-303.62" font-family="Helvetica,sans-Serif" font-size="10.00">ImGui::DockNodeCalcDropRects</text>
<text text-anchor="middle" x="482.12" y="-290.88" font-family="Helvetica,sans-Serif" font-size="10.00">AndTestMousePos</text>
</a>
</g>
</g>
<!-- Node2&#45;&gt;Node3 -->
<g id="edge2_Node000002_Node000003" class="edge">
<title>Node2&#45;&gt;Node3</title>
<g id="a_edge2_Node000002_Node000003"><a xlink:title=" ">
<path fill="none" stroke="#63b8ff" d="M291.89,-181.45C312.17,-205.54 352.41,-249.34 395.75,-274.38 398.36,-275.88 401.08,-277.32 403.85,-278.67"/>
<polygon fill="#63b8ff" stroke="#63b8ff" points="402.21,-281.77 412.77,-282.63 405.05,-275.37 402.21,-281.77"/>
</a>
</g>
</g>
<!-- Node9 -->
<g id="Node000009" class="node">
<title>Node9</title>
<g id="a_Node000009"><a xlink:href="namespaceImGui.html#aae753e1d8b5338959c5a6b5f1ea9079c" target="_top" xlink:title=" ">
<polygon fill="white" stroke="#666666" points="554.25,-265.12 410,-265.12 410,-231.62 554.25,-231.62 554.25,-265.12"/>
<text text-anchor="start" x="418" y="-251.62" font-family="Helvetica,sans-Serif" font-size="10.00">ImGui::DockNodeCalcSplit</text>
<text text-anchor="middle" x="482.12" y="-238.88" font-family="Helvetica,sans-Serif" font-size="10.00">Rects</text>
</a>
</g>
</g>
<!-- Node2&#45;&gt;Node9 -->
<g id="edge8_Node000002_Node000009" class="edge">
<title>Node2&#45;&gt;Node9</title>
<g id="a_edge8_Node000002_Node000009"><a xlink:title=" ">
<path fill="none" stroke="#63b8ff" d="M309.44,-181.56C332.78,-193.93 365.69,-210.48 395.75,-222.38 400.33,-224.19 405.09,-225.95 409.92,-227.65"/>
<polygon fill="#63b8ff" stroke="#63b8ff" points="408.51,-230.87 419.1,-230.77 410.76,-224.24 408.51,-230.87"/>
</a>
</g>
</g>
<!-- Node10 -->
<g id="Node000010" class="node">
<title>Node10</title>
<g id="a_Node000010"><a xlink:href="namespaceImGui.html#ab52284ace3da5320ccc6e29ea8781aaa" target="_top" xlink:title=" ">
<polygon fill="white" stroke="#666666" points="565.5,-213.75 398.75,-213.75 398.75,-193 565.5,-193 565.5,-213.75"/>
<text text-anchor="middle" x="482.12" y="-200.25" font-family="Helvetica,sans-Serif" font-size="10.00">ImGui::DockNodeGetRootNode</text>
</a>
</g>
</g>
<!-- Node2&#45;&gt;Node10 -->
<g id="edge9_Node000002_Node000010" class="edge">
<title>Node2&#45;&gt;Node10</title>
<g id="a_edge9_Node000002_Node000010"><a xlink:title=" ">
<path fill="none" stroke="#63b8ff" d="M360.11,-180.13C377.89,-183.54 396.5,-187.12 413.65,-190.41"/>
<polygon fill="#63b8ff" stroke="#63b8ff" points="412.72,-193.8 423.2,-192.25 414.04,-186.92 412.72,-193.8"/>
</a>
</g>
</g>
<!-- Node2&#45;&gt;Node11 -->
<g id="edge10_Node000002_Node000011" class="edge">
<title>Node2&#45;&gt;Node11</title>
<g id="a_edge10_Node000002_Node000011"><a xlink:title=" ">
<path fill="none" stroke="#63b8ff" d="M308.24,-147.14C331.53,-134.4 364.89,-117.44 395.75,-106.38 402.15,-104.08 408.9,-101.98 415.71,-100.08"/>
<polygon fill="#63b8ff" stroke="#63b8ff" points="416.16,-103.58 424.92,-97.63 414.36,-96.81 416.16,-103.58"/>
</a>
</g>
</g>
<!-- Node12 -->
<g id="Node000012" class="node">
<title>Node12</title>
<g id="a_Node000012"><a xlink:href="structImGuiDockNode.html#aa66de14ef925ac9d0777e293d81687de" target="_top" xlink:title=" ">
<polygon fill="white" stroke="#666666" points="552.75,-174.75 411.5,-174.75 411.5,-154 552.75,-154 552.75,-174.75"/>
<text text-anchor="middle" x="482.12" y="-161.25" font-family="Helvetica,sans-Serif" font-size="10.00">ImGuiDockNode::IsEmpty</text>
</a>
</g>
</g>
<!-- Node2&#45;&gt;Node12 -->
<g id="edge11_Node000002_Node000012" class="edge">
<title>Node2&#45;&gt;Node12</title>
<g id="a_edge11_Node000002_Node000012"><a xlink:title=" ">
<path fill="none" stroke="#63b8ff" d="M360.11,-164.38C373.21,-164.38 386.77,-164.38 399.86,-164.38"/>
<polygon fill="#63b8ff" stroke="#63b8ff" points="399.71,-167.88 409.71,-164.38 399.71,-160.88 399.71,-167.88"/>
</a>
</g>
</g>
<!-- Node13 -->
<g id="Node000013" class="node">
<title>Node13</title>
<g id="a_Node000013"><a xlink:href="structImGuiDockNode.html#af861ee38a5bc618e866e3c74117689b5" target="_top" xlink:title=" ">
<polygon fill="white" stroke="#666666" points="560.62,-135.75 403.62,-135.75 403.62,-115 560.62,-115 560.62,-135.75"/>
<text text-anchor="middle" x="482.12" y="-122.25" font-family="Helvetica,sans-Serif" font-size="10.00">ImGuiDockNode::IsSplitNode</text>
</a>
</g>
</g>
<!-- Node2&#45;&gt;Node13 -->
<g id="edge12_Node000002_Node000013" class="edge">
<title>Node2&#45;&gt;Node13</title>
<g id="a_edge12_Node000002_Node000013"><a xlink:title=" ">
<path fill="none" stroke="#63b8ff" d="M360.11,-148.62C377.89,-145.21 396.5,-141.63 413.65,-138.34"/>
<polygon fill="#63b8ff" stroke="#63b8ff" points="414.04,-141.83 423.2,-136.5 412.72,-134.95 414.04,-141.83"/>
</a>
</g>
</g>
<!-- Node4 -->
<g id="Node000004" class="node">
<title>Node4</title>
<g id="a_Node000004"><a xlink:href="structImRect.html#ac583156fd0e9306181fff5d120b262ea" target="_top" xlink:title=" ">
<polygon fill="white" stroke="#666666" points="707.12,-368.75 607.88,-368.75 607.88,-348 707.12,-348 707.12,-368.75"/>
<text text-anchor="middle" x="657.5" y="-355.25" font-family="Helvetica,sans-Serif" font-size="10.00">ImRect::Contains</text>
</a>
</g>
</g>
<!-- Node3&#45;&gt;Node4 -->
<g id="edge3_Node000003_Node000004" class="edge">
<title>Node3&#45;&gt;Node4</title>
<g id="a_edge3_Node000003_Node000004"><a xlink:title=" ">
<path fill="none" stroke="#63b8ff" d="M534.67,-317.62C559.75,-326.01 589.55,-335.98 613.4,-343.96"/>
<polygon fill="#63b8ff" stroke="#63b8ff" points="612.21,-347.25 622.8,-347.1 614.43,-340.61 612.21,-347.25"/>
</a>
</g>
</g>
<!-- Node5 -->
<g id="Node000005" class="node">
<title>Node5</title>
<g id="a_Node000005"><a xlink:href="structImRect.html#af33a7424c3341d08acd69da30c27c753" target="_top" xlink:title=" ">
<polygon fill="white" stroke="#666666" points="703.75,-329.75 611.25,-329.75 611.25,-309 703.75,-309 703.75,-329.75"/>
<text text-anchor="middle" x="657.5" y="-316.25" font-family="Helvetica,sans-Serif" font-size="10.00">ImRect::Expand</text>
</a>
</g>
</g>
<!-- Node3&#45;&gt;Node5 -->
<g id="edge4_Node000003_Node000005" class="edge">
<title>Node3&#45;&gt;Node5</title>
<g id="a_edge4_Node000003_Node000005"><a xlink:title=" ">
<path fill="none" stroke="#63b8ff" d="M568.8,-309.76C579.22,-310.91 589.66,-312.05 599.52,-313.13"/>
<polygon fill="#63b8ff" stroke="#63b8ff" points="598.97,-316.59 609.29,-314.2 599.73,-309.63 598.97,-316.59"/>
</a>
</g>
</g>
<!-- Node3&#45;&gt;Node6 -->
<g id="edge5_Node000003_Node000006" class="edge">
<title>Node3&#45;&gt;Node6</title>
<g id="a_edge5_Node000003_Node000006"><a xlink:title=" ">
<path fill="none" stroke="#63b8ff" d="M554.08,-283.26C559.19,-280.7 564.06,-277.76 568.5,-274.38 574,-270.18 621.6,-192.69 644.41,-155.27"/>
<polygon fill="#63b8ff" stroke="#63b8ff" points="647.13,-157.53 649.34,-147.17 641.15,-153.89 647.13,-157.53"/>
</a>
</g>
</g>
<!-- Node7 -->
<g id="Node000007" class="node">
<title>Node7</title>
<g id="a_Node000007"><a xlink:href="structImRect.html#a748d8ae9cb26508951ec6e2f2df0625b" target="_top" xlink:title=" ">
<polygon fill="white" stroke="#666666" points="710.5,-290.75 604.5,-290.75 604.5,-270 710.5,-270 710.5,-290.75"/>
<text text-anchor="middle" x="657.5" y="-277.25" font-family="Helvetica,sans-Serif" font-size="10.00">ImRect::GetHeight</text>
</a>
</g>
</g>
<!-- Node3&#45;&gt;Node7 -->
<g id="edge6_Node000003_Node000007" class="edge">
<title>Node3&#45;&gt;Node7</title>
<g id="a_edge6_Node000003_Node000007"><a xlink:title=" ">
<path fill="none" stroke="#63b8ff" d="M568.8,-290.49C576.94,-289.55 585.09,-288.61 592.96,-287.7"/>
<polygon fill="#63b8ff" stroke="#63b8ff" points="593.24,-291.2 602.77,-286.57 592.43,-284.24 593.24,-291.2"/>
</a>
</g>
</g>
<!-- Node8 -->
<g id="Node000008" class="node">
<title>Node8</title>
<g id="a_Node000008"><a xlink:href="structImRect.html#afa75cb8491f20901c96166d17dcddac4" target="_top" xlink:title=" ">
<polygon fill="white" stroke="#666666" points="708.62,-251.75 606.38,-251.75 606.38,-231 708.62,-231 708.62,-251.75"/>
<text text-anchor="middle" x="657.5" y="-238.25" font-family="Helvetica,sans-Serif" font-size="10.00">ImRect::GetWidth</text>
</a>
</g>
</g>
<!-- Node3&#45;&gt;Node8 -->
<g id="edge7_Node000003_Node000008" class="edge">
<title>Node3&#45;&gt;Node8</title>
<g id="a_edge7_Node000003_Node000008"><a xlink:title=" ">
<path fill="none" stroke="#63b8ff" d="M541.15,-283.24C550.33,-280.38 559.7,-277.36 568.5,-274.38 578.04,-271.14 598.84,-263.35 617.83,-256.15"/>
<polygon fill="#63b8ff" stroke="#63b8ff" points="618.88,-259.49 626.99,-252.67 616.4,-252.95 618.88,-259.49"/>
</a>
</g>
</g>
</g>
</svg>
