<?xml version="1.0" encoding="UTF-8" standalone="no"?>
<!DOCTYPE svg PUBLIC "-//W3C//DTD SVG 1.1//EN"
 "http://www.w3.org/Graphics/SVG/1.1/DTD/svg11.dtd">
<!-- Generated by graphviz version 12.0.0 (20240704.0754)
 -->
<!-- Title: ImGui::TreeNodeBehaviorIsOpen Pages: 1 -->
<!--zoomable 87 -->

<svg id="main" version="1.1" xmlns="http://www.w3.org/2000/svg" xmlns:xlink="http://www.w3.org/1999/xlink" xml:space="preserve" onload="init(evt)">

<style type="text/css"><![CDATA[
.node, .edge {opacity: 0.7;}
.node.selected, .edge.selected {opacity: 1;}
.edge:hover path { stroke: red; }
.edge:hover polygon { stroke: red; fill: red; }
]]></style>

<defs>
  <circle id="rim" cx="0" cy="0" r="7"/>
  <circle id="rim2" cx="0" cy="0" r="3.5"/>
  <g id="zoomPlus">
    <use xlink:href="#rim" fill="#404040"><set attributeName="fill" to="#808080" begin="zoomplus.mouseover" end="zoomplus.mouseout"/></use>
    <path d="M-4,0h8M0,-4v8" fill="none" stroke="white" stroke-width="1.5" pointer-events="none"/>
  </g>
  <g id="zoomMin">
    <use xlink:href="#rim" fill="#404040"><set attributeName="fill" to="#808080" begin="zoomminus.mouseover" end="zoomminus.mouseout"/></use>
    <path d="M-4,0h8" fill="none" stroke="white" stroke-width="1.5" pointer-events="none"/>
  </g>
  <g id="arrowUp" transform="translate(30 24)">
    <use xlink:href="#rim"/>
    <path pointer-events="none" fill="none" stroke="white" stroke-width="1.5" d="M0,-3.0v7 M-2.5,-0.5L0,-3.0L2.5,-0.5"/>
  </g>
  <g id="arrowRight" transform="rotate(90) translate(36 -43)">
    <use xlink:href="#rim"/>
    <path pointer-events="none" fill="none" stroke="white" stroke-width="1.5" d="M0,-3.0v7 M-2.5,-0.5L0,-3.0L2.5,-0.5"/>
  </g>
  <g id="arrowDown" transform="rotate(180) translate(-30 -48)">
    <use xlink:href="#rim"/>
    <path pointer-events="none" fill="none" stroke="white" stroke-width="1.5" d="M0,-3.0v7 M-2.5,-0.5L0,-3.0L2.5,-0.5"/>
  </g>
  <g id="arrowLeft" transform="rotate(270) translate(-36 17)">
    <use xlink:href="#rim"/>
    <path pointer-events="none" fill="none" stroke="white" stroke-width="1.5" d="M0,-3.0v7 M-2.5,-0.5L0,-3.0L2.5,-0.5"/>
  </g>
  <g id="resetDef">
    <use xlink:href="#rim2" fill="#404040"><set attributeName="fill" to="#808080" begin="reset.mouseover" end="reset.mouseout"/></use>
  </g>
</defs>
<script type="application/ecmascript">
var viewWidth = 1035;
var viewHeight = 87;
var sectionId = 'dynsection-1335';
</script>
<script type="application/ecmascript" xlink:href="svg.min.js"/>
<svg id="graph" class="graph">
<g id="viewport">
<title>ImGui::TreeNodeBehaviorIsOpen</title>
<!-- Node1 -->
<g id="Node000001" class="node">
<title>Node1</title>
<g id="a_Node000001"><a xlink:title=" ">
<polygon fill="#999999" stroke="#666666" points="174.25,-58.75 0,-58.75 0,-38 174.25,-38 174.25,-58.75"/>
<text text-anchor="middle" x="87.12" y="-45.25" font-family="Helvetica,sans-Serif" font-size="10.00">ImGui::TreeNodeBehaviorIsOpen</text>
</a>
</g>
</g>
<!-- Node2 -->
<g id="Node000002" class="node">
<title>Node2</title>
<g id="a_Node000002"><a xlink:href="namespaceImGui.html#a5dc6b814cfe2dd923ece2d3cf77a5f62" target="_top" xlink:title=" ">
<polygon fill="white" stroke="#666666" points="391.25,-58.75 210.25,-58.75 210.25,-38 391.25,-38 391.25,-58.75"/>
<text text-anchor="middle" x="300.75" y="-45.25" font-family="Helvetica,sans-Serif" font-size="10.00">ImGui::TreeNodeUpdateNextOpen</text>
</a>
</g>
</g>
<!-- Node1&#45;&gt;Node2 -->
<g id="edge1_Node000001_Node000002" class="edge">
<title>Node1&#45;&gt;Node2</title>
<g id="a_edge1_Node000001_Node000002"><a xlink:title=" ">
<path fill="none" stroke="#63b8ff" d="M174.51,-48.38C182.43,-48.38 190.5,-48.38 198.54,-48.38"/>
<polygon fill="#63b8ff" stroke="#63b8ff" points="198.35,-51.88 208.35,-48.38 198.35,-44.88 198.35,-51.88"/>
</a>
</g>
</g>
<!-- Node3 -->
<g id="Node000003" class="node">
<title>Node3</title>
<g id="a_Node000003"><a xlink:href="structImGuiStorage.html#a9af0043a681938246b80ecd273ce990d" target="_top" xlink:title=" ">
<polygon fill="white" stroke="#666666" points="720.25,-78.75 601.5,-78.75 601.5,-58 720.25,-58 720.25,-78.75"/>
<text text-anchor="middle" x="660.88" y="-65.25" font-family="Helvetica,sans-Serif" font-size="10.00">ImGuiStorage::GetInt</text>
</a>
</g>
</g>
<!-- Node2&#45;&gt;Node3 -->
<g id="edge2_Node000002_Node000003" class="edge">
<title>Node2&#45;&gt;Node3</title>
<g id="a_edge2_Node000002_Node000003"><a xlink:title=" ">
<path fill="none" stroke="#63b8ff" d="M391.66,-53.4C453.01,-56.82 533.1,-61.3 589.75,-64.46"/>
<polygon fill="#63b8ff" stroke="#63b8ff" points="589.41,-67.95 599.59,-65.01 589.8,-60.96 589.41,-67.95"/>
</a>
</g>
</g>
<!-- Node5 -->
<g id="Node000005" class="node">
<title>Node5</title>
<g id="a_Node000005"><a xlink:href="namespaceImGui.html#a1756b0bbb8f15af6ab35a6690e904565" target="_top" xlink:title=" ">
<polygon fill="white" stroke="#666666" points="565.5,-39.75 427.25,-39.75 427.25,-19 565.5,-19 565.5,-39.75"/>
<text text-anchor="middle" x="496.38" y="-26.25" font-family="Helvetica,sans-Serif" font-size="10.00">ImGui::TreeNodeSetOpen</text>
</a>
</g>
</g>
<!-- Node2&#45;&gt;Node5 -->
<g id="edge4_Node000002_Node000005" class="edge">
<title>Node2&#45;&gt;Node5</title>
<g id="a_edge4_Node000002_Node000005"><a xlink:title=" ">
<path fill="none" stroke="#63b8ff" d="M391.48,-39.57C399.45,-38.79 407.49,-38 415.38,-37.22"/>
<polygon fill="#63b8ff" stroke="#63b8ff" points="415.68,-40.71 425.29,-36.25 415,-33.75 415.68,-40.71"/>
</a>
</g>
</g>
<!-- Node4 -->
<g id="Node000004" class="node">
<title>Node4</title>
<g id="a_Node000004"><a xlink:href="structImVector.html#a278ca772697b2b2139d3b8add336a249" target="_top" xlink:title=" ">
<polygon fill="white" stroke="#666666" points="844.62,-78.75 761.12,-78.75 761.12,-58 844.62,-58 844.62,-78.75"/>
<text text-anchor="middle" x="802.88" y="-65.25" font-family="Helvetica,sans-Serif" font-size="10.00">ImVector::end</text>
</a>
</g>
</g>
<!-- Node3&#45;&gt;Node4 -->
<g id="edge3_Node000003_Node000004" class="edge">
<title>Node3&#45;&gt;Node4</title>
<g id="a_edge3_Node000003_Node000004"><a xlink:title=" ">
<path fill="none" stroke="#63b8ff" d="M720.44,-68.38C730.13,-68.38 740.13,-68.38 749.65,-68.38"/>
<polygon fill="#63b8ff" stroke="#63b8ff" points="749.47,-71.88 759.47,-68.38 749.47,-64.88 749.47,-71.88"/>
</a>
</g>
</g>
<!-- Node6 -->
<g id="Node000006" class="node">
<title>Node6</title>
<g id="a_Node000006"><a xlink:href="structImGuiStorage.html#af83975ca841a9bd0e06a6ea0a41bf159" target="_top" xlink:title=" ">
<polygon fill="white" stroke="#666666" points="719.5,-39.75 602.25,-39.75 602.25,-19 719.5,-19 719.5,-39.75"/>
<text text-anchor="middle" x="660.88" y="-26.25" font-family="Helvetica,sans-Serif" font-size="10.00">ImGuiStorage::SetInt</text>
</a>
</g>
</g>
<!-- Node5&#45;&gt;Node6 -->
<g id="edge5_Node000005_Node000006" class="edge">
<title>Node5&#45;&gt;Node6</title>
<g id="a_edge5_Node000005_Node000006"><a xlink:title=" ">
<path fill="none" stroke="#63b8ff" d="M565.82,-29.38C573.95,-29.38 582.27,-29.38 590.42,-29.38"/>
<polygon fill="#63b8ff" stroke="#63b8ff" points="590.28,-32.88 600.28,-29.38 590.28,-25.88 590.28,-32.88"/>
</a>
</g>
</g>
<!-- Node6&#45;&gt;Node4 -->
<g id="edge6_Node000006_Node000004" class="edge">
<title>Node6&#45;&gt;Node4</title>
<g id="a_edge6_Node000006_Node000004"><a xlink:title=" ">
<path fill="none" stroke="#63b8ff" d="M700.87,-40.24C716.8,-44.68 735.41,-49.86 752.29,-54.56"/>
<polygon fill="#63b8ff" stroke="#63b8ff" points="751.06,-57.85 761.63,-57.16 752.93,-51.11 751.06,-57.85"/>
</a>
</g>
</g>
<!-- Node7 -->
<g id="Node000007" class="node">
<title>Node7</title>
<g id="a_Node000007"><a xlink:href="structImVector.html#a541c8cd4b844f5276f10d160cb500533" target="_top" xlink:title=" ">
<polygon fill="white" stroke="#666666" points="849.5,-39.75 756.25,-39.75 756.25,-19 849.5,-19 849.5,-39.75"/>
<text text-anchor="middle" x="802.88" y="-26.25" font-family="Helvetica,sans-Serif" font-size="10.00">ImVector::insert</text>
</a>
</g>
</g>
<!-- Node6&#45;&gt;Node7 -->
<g id="edge7_Node000006_Node000007" class="edge">
<title>Node6&#45;&gt;Node7</title>
<g id="a_edge7_Node000006_Node000007"><a xlink:title=" ">
<path fill="none" stroke="#63b8ff" d="M719.63,-29.38C727.82,-29.38 736.24,-29.38 744.43,-29.38"/>
<polygon fill="#63b8ff" stroke="#63b8ff" points="744.28,-32.88 754.28,-29.38 744.28,-25.88 744.28,-32.88"/>
</a>
</g>
</g>
<!-- Node8 -->
<g id="Node000008" class="node">
<title>Node8</title>
<g id="a_Node000008"><a xlink:href="structImVector.html#a3a097635d464b1b70dc7d59996a88b28" target="_top" xlink:title=" ">
<polygon fill="white" stroke="#666666" points="1026.75,-59.75 885.5,-59.75 885.5,-39 1026.75,-39 1026.75,-59.75"/>
<text text-anchor="middle" x="956.12" y="-46.25" font-family="Helvetica,sans-Serif" font-size="10.00">ImVector::_grow_capacity</text>
</a>
</g>
</g>
<!-- Node7&#45;&gt;Node8 -->
<g id="edge8_Node000007_Node000008" class="edge">
<title>Node7&#45;&gt;Node8</title>
<g id="a_edge8_Node000007_Node000008"><a xlink:title=" ">
<path fill="none" stroke="#63b8ff" d="M849.67,-35.43C857.38,-36.45 865.58,-37.53 873.88,-38.63"/>
<polygon fill="#63b8ff" stroke="#63b8ff" points="873.33,-42.09 883.7,-39.93 874.25,-35.15 873.33,-42.09"/>
</a>
</g>
</g>
<!-- Node9 -->
<g id="Node000009" class="node">
<title>Node9</title>
<g id="a_Node000009"><a xlink:href="structImVector.html#a0f14f5736c3372157856eebb67123b75" target="_top" xlink:title=" ">
<polygon fill="white" stroke="#666666" points="1007.25,-20.75 905,-20.75 905,0 1007.25,0 1007.25,-20.75"/>
<text text-anchor="middle" x="956.12" y="-7.25" font-family="Helvetica,sans-Serif" font-size="10.00">ImVector::reserve</text>
</a>
</g>
</g>
<!-- Node7&#45;&gt;Node9 -->
<g id="edge9_Node000007_Node000009" class="edge">
<title>Node7&#45;&gt;Node9</title>
<g id="a_edge9_Node000007_Node000009"><a xlink:title=" ">
<path fill="none" stroke="#63b8ff" d="M849.67,-23.62C863.52,-21.88 878.97,-19.94 893.68,-18.09"/>
<polygon fill="#63b8ff" stroke="#63b8ff" points="893.75,-21.61 903.24,-16.89 892.88,-14.67 893.75,-21.61"/>
</a>
</g>
</g>
</g>
</svg>

<g id="navigator" transform="translate(0 0)" fill="#404254">
  <rect fill="#f2f5e9" fill-opacity="0.5" stroke="#606060" stroke-width=".5" x="0" y="0" width="60" height="60"/>
  <use id="zoomplus" xlink:href="#zoomPlus" x="17" y="9" onmousedown="handleZoom(evt,'in')"/>
  <use id="zoomminus" xlink:href="#zoomMin" x="42" y="9" onmousedown="handleZoom(evt,'out')"/>
  <use id="reset" xlink:href="#resetDef" x="30" y="36" onmousedown="handleReset()"/>
   <use id="arrowup" xlink:href="#arrowUp" x="0" y="0" onmousedown="handlePan(0,-1)"/>
  <use id="arrowright" xlink:href="#arrowRight" x="0" y="0" onmousedown="handlePan(1,0)"/>
  <use id="arrowdown" xlink:href="#arrowDown" x="0" y="0" onmousedown="handlePan(0,1)"/>
  <use id="arrowleft" xlink:href="#arrowLeft" x="0" y="0" onmousedown="handlePan(-1,0)"/>
</g>
<svg viewBox="0 0 15 15" width="100%" height="30px" preserveAspectRatio="xMaxYMin meet">
 <g id="arrow_out" transform="scale(0.3 0.3)">
  <a xlink:href="namespaceImGui_a22cc50485aad6da8a3a4e156b500ed4a_cgraph_org.svg" target="_base">
   <rect id="button" ry="5" rx="5" y="6" x="6" height="38" width="38"
        fill="#f2f5e9" fill-opacity="0.5" stroke="#606060" stroke-width="1.0"/>
   <path id="arrow"
     d="M 11.500037,31.436501 C 11.940474,20.09759 22.043105,11.32322 32.158766,21.979434 L 37.068811,17.246167 C 37.068811,17.246167 37.088388,32 37.088388,32 L 22.160133,31.978069 C 22.160133,31.978069 26.997745,27.140456 26.997745,27.140456 C 18.528582,18.264221 13.291696,25.230495 11.500037,31.436501 z"
     style="fill:#404040;"/>
  </a>
 </g>
</svg>

<style type='text/css'>
<![CDATA[
[data-mouse-over-selected='false'] { opacity: 0.7; }
[data-mouse-over-selected='true']  { opacity: 1.0; }
]]>
</style>
<script type="application/ecmascript"><![CDATA[
document.addEventListener('DOMContentLoaded', (event) => {
  highlightEdges();
  highlightAdjacentNodes();
});
]]></script>
</svg>
