<?xml version="1.0" encoding="UTF-8" standalone="no"?>
<!DOCTYPE svg PUBLIC "-//W3C//DTD SVG 1.1//EN"
 "http://www.w3.org/Graphics/SVG/1.1/DTD/svg11.dtd">
<!-- Generated by graphviz version 11.0.0 (20240428.1522)
 -->
<!-- Title: steppable::__internals::arithmetic::add Pages: 1 -->
<svg width="1067pt" height="657pt"
 viewBox="0.00 0.00 1067.00 656.50" xmlns="http://www.w3.org/2000/svg" xmlns:xlink="http://www.w3.org/1999/xlink">
<g id="graph0" class="graph" transform="scale(1 1) rotate(0) translate(4 652.5)">
<title>steppable::__internals::arithmetic::add</title>
<!-- Node1 -->
<g id="Node000001" class="node">
<title>Node1</title>
<g id="a_Node000001"><a xlink:title="Adds two string representations of numbers, and performs with the column method.">
<polygon fill="#999999" stroke="#666666" points="1059,-263.5 935.75,-263.5 935.75,-230 1059,-230 1059,-263.5"/>
<text text-anchor="start" x="943.75" y="-250" font-family="Helvetica,sans-Serif" font-size="10.00">steppable::__internals</text>
<text text-anchor="middle" x="997.38" y="-237.25" font-family="Helvetica,sans-Serif" font-size="10.00">::arithmetic::add</text>
</a>
</g>
</g>
<!-- Node2 -->
<g id="Node000002" class="node">
<title>Node2</title>
<g id="a_Node000002"><a xlink:href="namespacesteppable_1_1____internals_1_1arithmetic.html#a5b80b731e3e2c0d16dcbe5d52b08ffd5" target="_top" xlink:title="Converts a string representation of a number from decimal to another one.">
<polygon fill="white" stroke="#666666" points="307.25,-575.5 167.5,-575.5 167.5,-542 307.25,-542 307.25,-575.5"/>
<text text-anchor="start" x="175.5" y="-562" font-family="Helvetica,sans-Serif" font-size="10.00">steppable::__internals</text>
<text text-anchor="middle" x="237.38" y="-549.25" font-family="Helvetica,sans-Serif" font-size="10.00">::arithmetic::baseConvert</text>
</a>
</g>
</g>
<!-- Node1&#45;&gt;Node2 -->
<g id="edge1_Node000001_Node000002" class="edge">
<title>Node1&#45;&gt;Node2</title>
<g id="a_edge1_Node000001_Node000002"><a xlink:title=" ">
<path fill="none" stroke="#63b8ff" d="M990.22,-274.93C979.23,-319.19 952.28,-405.37 899.75,-457.75 833.55,-523.75 797.76,-517.8 708.25,-544.75 559.15,-589.64 514.84,-594.69 359.75,-580.75 342.79,-579.23 324.66,-576.53 307.72,-573.53"/>
<polygon fill="#63b8ff" stroke="#63b8ff" points="993.6,-275.88 992.5,-265.34 986.79,-274.26 993.6,-275.88"/>
</a>
</g>
</g>
<!-- Node3 -->
<g id="Node000003" class="node">
<title>Node3</title>
<g id="a_Node000003"><a xlink:href="namespacesteppable_1_1____internals_1_1arithmetic.html#afc4c4f319dadbb5b1ff481132f008374" target="_top" xlink:title="Converts a string representation of a number from any base to decimal.">
<polygon fill="white" stroke="#666666" points="899.75,-241.5 744.25,-241.5 744.25,-208 899.75,-208 899.75,-241.5"/>
<text text-anchor="start" x="752.25" y="-228" font-family="Helvetica,sans-Serif" font-size="10.00">steppable::__internals</text>
<text text-anchor="middle" x="822" y="-215.25" font-family="Helvetica,sans-Serif" font-size="10.00">::arithmetic::decimalConvert</text>
</a>
</g>
</g>
<!-- Node1&#45;&gt;Node3 -->
<g id="edge2_Node000001_Node000003" class="edge">
<title>Node1&#45;&gt;Node3</title>
<g id="a_edge2_Node000001_Node000003"><a xlink:title=" ">
<path fill="none" stroke="#63b8ff" d="M924.49,-237.63C916.42,-236.6 908.19,-235.56 900.06,-234.53"/>
<polygon fill="#63b8ff" stroke="#63b8ff" points="923.87,-241.08 934.24,-238.86 924.76,-234.13 923.87,-241.08"/>
</a>
</g>
</g>
<!-- Node4 -->
<g id="Node000004" class="node">
<title>Node4</title>
<g id="a_Node000004"><a xlink:href="namespacesteppable_1_1____internals_1_1arithmetic.html#a26194ae8ddb44afb942fbf8335ae1730" target="_top" xlink:title="Divides a string representation of a number by another string representation of a number.">
<polygon fill="white" stroke="#666666" points="483,-440.5 359.75,-440.5 359.75,-407 483,-407 483,-440.5"/>
<text text-anchor="start" x="367.75" y="-427" font-family="Helvetica,sans-Serif" font-size="10.00">steppable::__internals</text>
<text text-anchor="middle" x="421.38" y="-414.25" font-family="Helvetica,sans-Serif" font-size="10.00">::arithmetic::divide</text>
</a>
</g>
</g>
<!-- Node1&#45;&gt;Node4 -->
<g id="edge3_Node000001_Node000004" class="edge">
<title>Node1&#45;&gt;Node4</title>
<g id="a_edge3_Node000001_Node000004"><a xlink:title=" ">
<path fill="none" stroke="#63b8ff" d="M983.98,-274.12C968.18,-306.61 938.24,-360.89 899.75,-396.75 828.73,-462.92 802.28,-477.66 708.25,-501.75 626.77,-522.62 593.5,-540.79 519,-501.75 494.1,-488.7 504.76,-467.54 483,-449.75 479.01,-446.49 474.55,-443.57 469.91,-440.98"/>
<polygon fill="#63b8ff" stroke="#63b8ff" points="987.01,-275.9 988.14,-265.36 980.69,-272.89 987.01,-275.9"/>
</a>
</g>
</g>
<!-- Node8 -->
<g id="Node000008" class="node">
<title>Node8</title>
<g id="a_Node000008"><a xlink:href="namespacesteppable_1_1____internals_1_1arithmetic.html#a8c20a75a55d968bd679a1a550a46a497" target="_top" xlink:title="Takes the n&#45;th root of a numer.">
<polygon fill="white" stroke="#666666" points="299,-298.5 175.75,-298.5 175.75,-265 299,-265 299,-298.5"/>
<text text-anchor="start" x="183.75" y="-285" font-family="Helvetica,sans-Serif" font-size="10.00">steppable::__internals</text>
<text text-anchor="middle" x="237.38" y="-272.25" font-family="Helvetica,sans-Serif" font-size="10.00">::arithmetic::root</text>
</a>
</g>
</g>
<!-- Node1&#45;&gt;Node8 -->
<g id="edge19_Node000001_Node000008" class="edge">
<title>Node1&#45;&gt;Node8</title>
<g id="a_edge19_Node000001_Node000008"><a xlink:title=" ">
<path fill="none" stroke="#63b8ff" d="M924.08,-250.09C775.42,-256.95 437.8,-272.54 299.35,-278.93"/>
<polygon fill="#63b8ff" stroke="#63b8ff" points="923.97,-253.6 933.79,-249.64 923.64,-246.6 923.97,-253.6"/>
</a>
</g>
</g>
<!-- Node16 -->
<g id="Node000016" class="node">
<title>Node16</title>
<g id="a_Node000016"><a xlink:href="namespacesteppable_1_1____internals_1_1arithmetic.html#a210c635ae60eaa54f65bc82a0f3c953a" target="_top" xlink:title="Executes a given predicate function a specified number of times.">
<polygon fill="white" stroke="#666666" points="883.62,-189.5 760.38,-189.5 760.38,-156 883.62,-156 883.62,-189.5"/>
<text text-anchor="start" x="768.38" y="-176" font-family="Helvetica,sans-Serif" font-size="10.00">steppable::__internals</text>
<text text-anchor="middle" x="822" y="-163.25" font-family="Helvetica,sans-Serif" font-size="10.00">::arithmetic::loop</text>
</a>
</g>
</g>
<!-- Node1&#45;&gt;Node16 -->
<g id="edge16_Node000001_Node000016" class="edge">
<title>Node1&#45;&gt;Node16</title>
<g id="a_edge16_Node000001_Node000016"><a xlink:title=" ">
<path fill="none" stroke="#63b8ff" d="M954.61,-224.47C937.8,-215.91 918.08,-206.37 899.75,-198.75 892.34,-195.67 884.43,-192.68 876.61,-189.88"/>
<polygon fill="#63b8ff" stroke="#63b8ff" points="952.83,-227.49 963.32,-228.96 956.04,-221.27 952.83,-227.49"/>
</a>
</g>
</g>
<!-- Node17 -->
<g id="Node000017" class="node">
<title>Node17</title>
<g id="a_Node000017"><a xlink:href="classsteppable_1_1Fraction.html#a177374401a6d78045720bdf97db60055" target="_top" xlink:title="Adds two fractions together. This function does it by doing a simple fraction addition and returns th...">
<polygon fill="white" stroke="#666666" points="876.5,-137.5 767.5,-137.5 767.5,-104 876.5,-104 876.5,-137.5"/>
<text text-anchor="start" x="775.5" y="-124" font-family="Helvetica,sans-Serif" font-size="10.00">steppable::Fraction</text>
<text text-anchor="middle" x="822" y="-111.25" font-family="Helvetica,sans-Serif" font-size="10.00">::operator+</text>
</a>
</g>
</g>
<!-- Node1&#45;&gt;Node17 -->
<g id="edge17_Node000001_Node000017" class="edge">
<title>Node1&#45;&gt;Node17</title>
<g id="a_edge17_Node000001_Node000017"><a xlink:title=" ">
<path fill="none" stroke="#63b8ff" d="M977.23,-220.87C959.42,-198.43 930.98,-166.53 899.75,-146.75 892.74,-142.31 884.88,-138.53 876.94,-135.35"/>
<polygon fill="#63b8ff" stroke="#63b8ff" points="974.37,-222.89 983.27,-228.64 979.91,-218.6 974.37,-222.89"/>
</a>
</g>
</g>
<!-- Node18 -->
<g id="Node000018" class="node">
<title>Node18</title>
<g id="a_Node000018"><a xlink:href="classsteppable_1_1Number.html#ab92bf92daec1e2db8c9b4ccd985159b3" target="_top" xlink:title="Adds two numbers together.">
<polygon fill="white" stroke="#666666" points="879.5,-85.5 764.5,-85.5 764.5,-52 879.5,-52 879.5,-85.5"/>
<text text-anchor="start" x="772.5" y="-72" font-family="Helvetica,sans-Serif" font-size="10.00">steppable::Number::</text>
<text text-anchor="middle" x="822" y="-59.25" font-family="Helvetica,sans-Serif" font-size="10.00">operator+</text>
</a>
</g>
</g>
<!-- Node1&#45;&gt;Node18 -->
<g id="edge18_Node000001_Node000018" class="edge">
<title>Node1&#45;&gt;Node18</title>
<g id="a_edge18_Node000001_Node000018"><a xlink:title=" ">
<path fill="none" stroke="#63b8ff" d="M985.78,-219.42C971.3,-185.49 942.18,-128.06 899.75,-94.75 893.77,-90.06 886.91,-86.19 879.78,-83"/>
<polygon fill="#63b8ff" stroke="#63b8ff" points="982.5,-220.64 989.55,-228.55 988.97,-217.97 982.5,-220.64"/>
</a>
</g>
</g>
<!-- Node19 -->
<g id="Node000019" class="node">
<title>Node19</title>
<g id="a_Node000019"><a xlink:href="namespacesteppable_1_1____internals_1_1numUtils.html#ac634c8aea297b7e8f5cc251041089c5b" target="_top" xlink:title="Round off a number to the nearest integer.">
<polygon fill="white" stroke="#666666" points="883.62,-33.5 760.38,-33.5 760.38,0 883.62,0 883.62,-33.5"/>
<text text-anchor="start" x="768.38" y="-20" font-family="Helvetica,sans-Serif" font-size="10.00">steppable::__internals</text>
<text text-anchor="middle" x="822" y="-7.25" font-family="Helvetica,sans-Serif" font-size="10.00">::numUtils::roundOff</text>
</a>
</g>
</g>
<!-- Node1&#45;&gt;Node19 -->
<g id="edge20_Node000001_Node000019" class="edge">
<title>Node1&#45;&gt;Node19</title>
<g id="a_edge20_Node000001_Node000019"><a xlink:title=" ">
<path fill="none" stroke="#63b8ff" d="M990.47,-218.55C979.86,-174.8 953.5,-90.62 899.75,-42.75 895.02,-38.54 889.58,-35.01 883.83,-32.04"/>
<polygon fill="#63b8ff" stroke="#63b8ff" points="986.99,-219.08 992.65,-228.04 993.81,-217.51 986.99,-219.08"/>
</a>
</g>
</g>
<!-- Node20 -->
<g id="Node000020" class="node">
<title>Node20</title>
<g id="a_Node000020"><a xlink:href="namespacesteppable_1_1____internals_1_1arithmetic.html#ae61ae2915786a49aebb7025105cf058e" target="_top" xlink:title="Subtracts one string representation of a number from another string representation of a number.">
<polygon fill="white" stroke="#666666" points="883.62,-369.5 760.38,-369.5 760.38,-336 883.62,-336 883.62,-369.5"/>
<text text-anchor="start" x="768.38" y="-356" font-family="Helvetica,sans-Serif" font-size="10.00">steppable::__internals</text>
<text text-anchor="middle" x="822" y="-343.25" font-family="Helvetica,sans-Serif" font-size="10.00">::arithmetic::subtract</text>
</a>
</g>
</g>
<!-- Node1&#45;&gt;Node20 -->
<g id="edge21_Node000001_Node000020" class="edge">
<title>Node1&#45;&gt;Node20</title>
<g id="a_edge21_Node000001_Node000020"><a xlink:title=" ">
<path fill="none" stroke="#63b8ff" d="M949.26,-269.47C914.61,-289.4 869.21,-317.68 843.36,-335.77"/>
<polygon fill="#63b8ff" stroke="#63b8ff" points="950.9,-272.57 957.87,-264.58 947.44,-266.48 950.9,-272.57"/>
</a>
</g>
</g>
<!-- Node4&#45;&gt;Node2 -->
<g id="edge4_Node000004_Node000002" class="edge">
<title>Node4&#45;&gt;Node2</title>
<g id="a_edge4_Node000004_Node000002"><a xlink:title=" ">
<path fill="none" stroke="#63b8ff" d="M363.22,-447.08C362.03,-447.94 360.87,-448.83 359.75,-449.75 337.99,-467.54 343.79,-482.04 323.75,-501.75 307.87,-517.37 287.14,-531.33 270.08,-541.52"/>
<polygon fill="#63b8ff" stroke="#63b8ff" points="365,-450.1 371.57,-441.79 361.25,-444.19 365,-450.1"/>
</a>
</g>
</g>
<!-- Node5 -->
<g id="Node000005" class="node">
<title>Node5</title>
<g id="a_Node000005"><a xlink:href="namespacesteppable_1_1____internals_1_1arithmetic.html#ac9102075acd398b3bdf388f6cc2ef978" target="_top" xlink:title=" ">
<polygon fill="white" stroke="#666666" points="323.75,-350.5 151,-350.5 151,-317 323.75,-317 323.75,-350.5"/>
<text text-anchor="start" x="159" y="-337" font-family="Helvetica,sans-Serif" font-size="10.00">steppable::__internals</text>
<text text-anchor="middle" x="237.38" y="-324.25" font-family="Helvetica,sans-Serif" font-size="10.00">::arithmetic::divideWithQuotient</text>
</a>
</g>
</g>
<!-- Node4&#45;&gt;Node5 -->
<g id="edge5_Node000004_Node000005" class="edge">
<title>Node4&#45;&gt;Node5</title>
<g id="a_edge5_Node000004_Node000005"><a xlink:title=" ">
<path fill="none" stroke="#63b8ff" d="M375.43,-401.52C343.87,-385.92 302.27,-365.35 273.22,-350.98"/>
<polygon fill="#63b8ff" stroke="#63b8ff" points="373.84,-404.64 384.36,-405.94 376.94,-398.37 373.84,-404.64"/>
</a>
</g>
</g>
<!-- Node7 -->
<g id="Node000007" class="node">
<title>Node7</title>
<g id="a_Node000007"><a xlink:href="classsteppable_1_1Number.html#aebdaf5d342a2a897793556bd390bc184" target="_top" xlink:title="Divides two numbers.">
<polygon fill="white" stroke="#666666" points="294.88,-440.5 179.88,-440.5 179.88,-407 294.88,-407 294.88,-440.5"/>
<text text-anchor="start" x="187.88" y="-427" font-family="Helvetica,sans-Serif" font-size="10.00">steppable::Number::</text>
<text text-anchor="middle" x="237.38" y="-414.25" font-family="Helvetica,sans-Serif" font-size="10.00">operator/</text>
</a>
</g>
</g>
<!-- Node4&#45;&gt;Node7 -->
<g id="edge7_Node000004_Node000007" class="edge">
<title>Node4&#45;&gt;Node7</title>
<g id="a_edge7_Node000004_Node000007"><a xlink:title=" ">
<path fill="none" stroke="#63b8ff" d="M347.94,-423.75C330.44,-423.75 312,-423.75 295.33,-423.75"/>
<polygon fill="#63b8ff" stroke="#63b8ff" points="347.75,-427.25 357.75,-423.75 347.75,-420.25 347.75,-427.25"/>
</a>
</g>
</g>
<!-- Node4&#45;&gt;Node8 -->
<g id="edge8_Node000004_Node000008" class="edge">
<title>Node4&#45;&gt;Node8</title>
<g id="a_edge8_Node000004_Node000008"><a xlink:title=" ">
<path fill="none" stroke="#63b8ff" d="M404.75,-397.16C387.94,-370.79 358.84,-331.04 323.75,-307.75 316.26,-302.78 307.79,-298.73 299.15,-295.43"/>
<polygon fill="#63b8ff" stroke="#63b8ff" points="401.74,-398.95 409.99,-405.6 407.69,-395.26 401.74,-398.95"/>
</a>
</g>
</g>
<!-- Node9 -->
<g id="Node000009" class="node">
<title>Node9</title>
<g id="a_Node000009"><a xlink:href="classsteppable_1_1Fraction.html#a9cf64d847c268d9334775c572ef75dfa" target="_top" xlink:title="Simplifies a fraction. This function simplifies the fraction by dividing the top and bottom component...">
<polygon fill="white" stroke="#666666" points="291.88,-492.5 182.88,-492.5 182.88,-459 291.88,-459 291.88,-492.5"/>
<text text-anchor="start" x="190.88" y="-479" font-family="Helvetica,sans-Serif" font-size="10.00">steppable::Fraction</text>
<text text-anchor="middle" x="237.38" y="-466.25" font-family="Helvetica,sans-Serif" font-size="10.00">::simplify</text>
</a>
</g>
</g>
<!-- Node4&#45;&gt;Node9 -->
<g id="edge9_Node000004_Node000009" class="edge">
<title>Node4&#45;&gt;Node9</title>
<g id="a_edge9_Node000004_Node000009"><a xlink:title=" ">
<path fill="none" stroke="#63b8ff" d="M349.04,-444.13C330.1,-449.54 309.96,-455.3 292.13,-460.39"/>
<polygon fill="#63b8ff" stroke="#63b8ff" points="349.92,-447.52 358.57,-441.41 347.99,-440.79 349.92,-447.52"/>
</a>
</g>
</g>
<!-- Node6 -->
<g id="Node000006" class="node">
<title>Node6</title>
<g id="a_Node000006"><a xlink:href="classsteppable_1_1Number.html#a719a8a93fcfe91b30c38ba0830d6de50" target="_top" xlink:title="Calculates the remainder of two numbers. (Modulus)">
<polygon fill="white" stroke="#666666" points="115,-336.5 0,-336.5 0,-303 115,-303 115,-336.5"/>
<text text-anchor="start" x="8" y="-323" font-family="Helvetica,sans-Serif" font-size="10.00">steppable::Number::</text>
<text text-anchor="middle" x="57.5" y="-310.25" font-family="Helvetica,sans-Serif" font-size="10.00">operator%</text>
</a>
</g>
</g>
<!-- Node5&#45;&gt;Node6 -->
<g id="edge6_Node000005_Node000006" class="edge">
<title>Node5&#45;&gt;Node6</title>
<g id="a_edge6_Node000005_Node000006"><a xlink:title=" ">
<path fill="none" stroke="#63b8ff" d="M139.13,-326.1C131.06,-325.46 123.09,-324.83 115.48,-324.23"/>
<polygon fill="#63b8ff" stroke="#63b8ff" points="138.81,-329.58 149.05,-326.88 139.36,-322.6 138.81,-329.58"/>
</a>
</g>
</g>
<!-- Node10 -->
<g id="Node000010" class="node">
<title>Node10</title>
<g id="a_Node000010"><a xlink:href="classsteppable_1_1Fraction.html#a21eef8107e9cd1e590f7595c4ecbe147" target="_top" xlink:title="Multiplies two fractions together and stores the result in the current one. This function does it by ...">
<polygon fill="white" stroke="#666666" points="112,-544.5 3,-544.5 3,-511 112,-511 112,-544.5"/>
<text text-anchor="start" x="11" y="-531" font-family="Helvetica,sans-Serif" font-size="10.00">steppable::Fraction</text>
<text text-anchor="middle" x="57.5" y="-518.25" font-family="Helvetica,sans-Serif" font-size="10.00">::operator*=</text>
</a>
</g>
</g>
<!-- Node9&#45;&gt;Node10 -->
<g id="edge10_Node000009_Node000010" class="edge">
<title>Node9&#45;&gt;Node10</title>
<g id="a_edge10_Node000009_Node000010"><a xlink:title=" ">
<path fill="none" stroke="#63b8ff" d="M171.62,-494.68C152.21,-500.36 131.12,-506.52 112.47,-511.97"/>
<polygon fill="#63b8ff" stroke="#63b8ff" points="172.46,-498.08 181.07,-491.92 170.49,-491.36 172.46,-498.08"/>
</a>
</g>
</g>
<!-- Node11 -->
<g id="Node000011" class="node">
<title>Node11</title>
<g id="a_Node000011"><a xlink:href="classsteppable_1_1Fraction.html#ab10a5f43f6e60253ab6f4a097c73cf6e" target="_top" xlink:title="Adds two fractions together and stores the result in the current one. This function does it by doing ...">
<polygon fill="white" stroke="#666666" points="112,-492.5 3,-492.5 3,-459 112,-459 112,-492.5"/>
<text text-anchor="start" x="11" y="-479" font-family="Helvetica,sans-Serif" font-size="10.00">steppable::Fraction</text>
<text text-anchor="middle" x="57.5" y="-466.25" font-family="Helvetica,sans-Serif" font-size="10.00">::operator+=</text>
</a>
</g>
</g>
<!-- Node9&#45;&gt;Node11 -->
<g id="edge11_Node000009_Node000011" class="edge">
<title>Node9&#45;&gt;Node11</title>
<g id="a_edge11_Node000009_Node000011"><a xlink:title=" ">
<path fill="none" stroke="#63b8ff" d="M171.08,-475.75C151.81,-475.75 130.95,-475.75 112.47,-475.75"/>
<polygon fill="#63b8ff" stroke="#63b8ff" points="171.01,-479.25 181.01,-475.75 171.01,-472.25 171.01,-479.25"/>
</a>
</g>
</g>
<!-- Node12 -->
<g id="Node000012" class="node">
<title>Node12</title>
<g id="a_Node000012"><a xlink:href="classsteppable_1_1Fraction.html#aad3d96fbba7e7a0fa36c3f69f0463b8b" target="_top" xlink:title="Subtracts a fraction from another fraction and stores the result in the current one....">
<polygon fill="white" stroke="#666666" points="112,-440.5 3,-440.5 3,-407 112,-407 112,-440.5"/>
<text text-anchor="start" x="11" y="-427" font-family="Helvetica,sans-Serif" font-size="10.00">steppable::Fraction</text>
<text text-anchor="middle" x="57.5" y="-414.25" font-family="Helvetica,sans-Serif" font-size="10.00">::operator&#45;=</text>
</a>
</g>
</g>
<!-- Node9&#45;&gt;Node12 -->
<g id="edge12_Node000009_Node000012" class="edge">
<title>Node9&#45;&gt;Node12</title>
<g id="a_edge12_Node000009_Node000012"><a xlink:title=" ">
<path fill="none" stroke="#63b8ff" d="M171.62,-456.82C152.21,-451.14 131.12,-444.98 112.47,-439.53"/>
<polygon fill="#63b8ff" stroke="#63b8ff" points="170.49,-460.14 181.07,-459.58 172.46,-453.42 170.49,-460.14"/>
</a>
</g>
</g>
<!-- Node13 -->
<g id="Node000013" class="node">
<title>Node13</title>
<g id="a_Node000013"><a xlink:href="classsteppable_1_1Fraction.html#a86913160c5f596b74be3007bd16bda6b" target="_top" xlink:title="Divides a fraction by abother fraction and stores the result in the current one. This function does i...">
<polygon fill="white" stroke="#666666" points="112,-388.5 3,-388.5 3,-355 112,-355 112,-388.5"/>
<text text-anchor="start" x="11" y="-375" font-family="Helvetica,sans-Serif" font-size="10.00">steppable::Fraction</text>
<text text-anchor="middle" x="57.5" y="-362.25" font-family="Helvetica,sans-Serif" font-size="10.00">::operator/=</text>
</a>
</g>
</g>
<!-- Node9&#45;&gt;Node13 -->
<g id="edge13_Node000009_Node000013" class="edge">
<title>Node9&#45;&gt;Node13</title>
<g id="a_edge13_Node000009_Node000013"><a xlink:title=" ">
<path fill="none" stroke="#63b8ff" d="M172.08,-461.39C164.6,-458.24 157.38,-454.41 151,-449.75 128.29,-433.18 136.53,-415.82 115,-397.75 111.11,-394.49 106.75,-391.55 102.21,-388.92"/>
<polygon fill="#63b8ff" stroke="#63b8ff" points="170.76,-464.63 181.35,-464.88 173.22,-458.08 170.76,-464.63"/>
</a>
</g>
</g>
<!-- Node14 -->
<g id="Node000014" class="node">
<title>Node14</title>
<g id="a_Node000014"><a xlink:href="classsteppable_1_1Fraction.html#ac0a3d392ac70f42f74392fe08c1ab8be" target="_top" xlink:title="Raises the fraction to a power and stores the result in the current one.">
<polygon fill="white" stroke="#666666" points="112,-648.5 3,-648.5 3,-615 112,-615 112,-648.5"/>
<text text-anchor="start" x="11" y="-635" font-family="Helvetica,sans-Serif" font-size="10.00">steppable::Fraction</text>
<text text-anchor="middle" x="57.5" y="-622.25" font-family="Helvetica,sans-Serif" font-size="10.00">::operator^=</text>
</a>
</g>
</g>
<!-- Node9&#45;&gt;Node14 -->
<g id="edge14_Node000009_Node000014" class="edge">
<title>Node9&#45;&gt;Node14</title>
<g id="a_edge14_Node000009_Node000014"><a xlink:title=" ">
<path fill="none" stroke="#63b8ff" d="M193.03,-498.51C178.38,-507.71 162.76,-519.34 151,-532.75 127.14,-559.94 140.92,-580.52 115,-605.75 111.6,-609.06 107.69,-612.01 103.56,-614.61"/>
<polygon fill="#63b8ff" stroke="#63b8ff" points="194.42,-501.76 201.18,-493.6 190.81,-495.76 194.42,-501.76"/>
</a>
</g>
</g>
<!-- Node15 -->
<g id="Node000015" class="node">
<title>Node15</title>
<g id="a_Node000015"><a xlink:href="classsteppable_1_1Fraction.html#a9a892820854af33b0eabc6b6ec43b389" target="_top" xlink:title="Returns the fraction as a string. The string is formatted as &quot;top/bottom&quot;, and it will automatically ...">
<polygon fill="white" stroke="#666666" points="112,-596.5 3,-596.5 3,-563 112,-563 112,-596.5"/>
<text text-anchor="start" x="11" y="-583" font-family="Helvetica,sans-Serif" font-size="10.00">steppable::Fraction</text>
<text text-anchor="middle" x="57.5" y="-570.25" font-family="Helvetica,sans-Serif" font-size="10.00">::present</text>
</a>
</g>
</g>
<!-- Node9&#45;&gt;Node15 -->
<g id="edge15_Node000009_Node000015" class="edge">
<title>Node9&#45;&gt;Node15</title>
<g id="a_edge15_Node000009_Node000015"><a xlink:title=" ">
<path fill="none" stroke="#63b8ff" d="M202.56,-499.3C178.63,-515.5 145.5,-537.04 115,-553.75 109.51,-556.76 103.6,-559.74 97.76,-562.55"/>
<polygon fill="#63b8ff" stroke="#63b8ff" points="204.35,-502.31 210.64,-493.78 200.41,-496.53 204.35,-502.31"/>
</a>
</g>
</g>
<!-- Node20&#45;&gt;Node1 -->
<g id="edge22_Node000020_Node000001" class="edge">
<title>Node20&#45;&gt;Node1</title>
<g id="a_edge22_Node000020_Node000001"><a xlink:title=" ">
<path fill="none" stroke="#63b8ff" d="M870.13,-330.02C904.69,-310.14 949.93,-281.97 975.81,-263.88"/>
<polygon fill="#63b8ff" stroke="#63b8ff" points="868.52,-326.91 861.55,-334.89 871.98,-332.99 868.52,-326.91"/>
</a>
</g>
</g>
<!-- Node20&#45;&gt;Node2 -->
<g id="edge23_Node000020_Node000002" class="edge">
<title>Node20&#45;&gt;Node2</title>
<g id="a_edge23_Node000020_Node000002"><a xlink:title=" ">
<path fill="none" stroke="#63b8ff" d="M808.81,-380.07C791.74,-414.79 757.22,-473.59 708.25,-501.75 581.63,-574.56 404.32,-573.74 307.75,-566.44"/>
<polygon fill="#63b8ff" stroke="#63b8ff" points="811.95,-381.61 813.09,-371.08 805.63,-378.6 811.95,-381.61"/>
</a>
</g>
</g>
<!-- Node20&#45;&gt;Node5 -->
<g id="edge24_Node000020_Node000005" class="edge">
<title>Node20&#45;&gt;Node5</title>
<g id="a_edge24_Node000020_Node000005"><a xlink:title=" ">
<path fill="none" stroke="#63b8ff" d="M748.96,-347.88C735.44,-347.08 721.41,-346.33 708.25,-345.75 574.14,-339.88 418.37,-336.6 324.15,-335"/>
<polygon fill="#63b8ff" stroke="#63b8ff" points="748.46,-351.36 758.66,-348.47 748.89,-344.37 748.46,-351.36"/>
</a>
</g>
</g>
<!-- Node20&#45;&gt;Node8 -->
<g id="edge32_Node000020_Node000008" class="edge">
<title>Node20&#45;&gt;Node8</title>
<g id="a_edge32_Node000020_Node000008"><a xlink:title=" ">
<path fill="none" stroke="#63b8ff" d="M748.77,-340.71C735.32,-338.62 721.37,-336.54 708.25,-334.75 561.83,-314.82 389.02,-296.71 299.31,-287.72"/>
<polygon fill="#63b8ff" stroke="#63b8ff" points="748.01,-344.14 758.43,-342.24 749.1,-337.22 748.01,-344.14"/>
</a>
</g>
</g>
<!-- Node20&#45;&gt;Node20 -->
<g id="edge33_Node000020_Node000020" class="edge">
<title>Node20&#45;&gt;Node20</title>
<g id="a_edge33_Node000020_Node000020"><a xlink:title=" ">
<path fill="none" stroke="#63b8ff" d="M851.45,-380.89C846.65,-384.85 836.84,-387.5 822,-387.5 795.63,-387.5 785.12,-379.12 790.47,-369.91"/>
<polygon fill="#63b8ff" stroke="#63b8ff" points="854.82,-381.88 853.24,-371.4 847.94,-380.58 854.82,-381.88"/>
</a>
</g>
</g>
<!-- Node21 -->
<g id="Node000021" class="node">
<title>Node21</title>
<g id="a_Node000021"><a xlink:href="namespacesteppable_1_1____internals_1_1arithmetic.html#a677f253d71524a9d500e980dc159c79c" target="_top" xlink:title=" ">
<polygon fill="white" stroke="#666666" points="708.25,-440.5 519,-440.5 519,-407 708.25,-407 708.25,-440.5"/>
<text text-anchor="start" x="527" y="-427" font-family="Helvetica,sans-Serif" font-size="10.00">steppable::__internals</text>
<text text-anchor="middle" x="613.62" y="-414.25" font-family="Helvetica,sans-Serif" font-size="10.00">::arithmetic::getQuotientRemainder</text>
</a>
</g>
</g>
<!-- Node20&#45;&gt;Node21 -->
<g id="edge25_Node000020_Node000021" class="edge">
<title>Node20&#45;&gt;Node21</title>
<g id="a_edge25_Node000020_Node000021"><a xlink:title=" ">
<path fill="none" stroke="#63b8ff" d="M770.56,-374.24C751.24,-382.11 728.89,-390.79 708.25,-397.75 699.22,-400.8 689.61,-403.76 680.13,-406.54"/>
<polygon fill="#63b8ff" stroke="#63b8ff" points="771.64,-377.58 779.55,-370.54 768.97,-371.11 771.64,-377.58"/>
</a>
</g>
</g>
<!-- Node23 -->
<g id="Node000023" class="node">
<title>Node23</title>
<g id="a_Node000023"><a xlink:href="classsteppable_1_1Fraction.html#a0220c31296f34e81e58d3b57c1aefe62" target="_top" xlink:title="Subtracts a fraction from another fraction. This function does it by doing a simple fraction subtract...">
<polygon fill="white" stroke="#666666" points="668.12,-388.5 559.12,-388.5 559.12,-355 668.12,-355 668.12,-388.5"/>
<text text-anchor="start" x="567.12" y="-375" font-family="Helvetica,sans-Serif" font-size="10.00">steppable::Fraction</text>
<text text-anchor="middle" x="613.62" y="-362.25" font-family="Helvetica,sans-Serif" font-size="10.00">::operator&#45;</text>
</a>
</g>
</g>
<!-- Node20&#45;&gt;Node23 -->
<g id="edge30_Node000020_Node000023" class="edge">
<title>Node20&#45;&gt;Node23</title>
<g id="a_edge30_Node000020_Node000023"><a xlink:title=" ">
<path fill="none" stroke="#63b8ff" d="M748.46,-359.43C722.16,-361.85 692.95,-364.54 668.54,-366.79"/>
<polygon fill="#63b8ff" stroke="#63b8ff" points="748.77,-362.91 758.41,-358.51 748.13,-355.94 748.77,-362.91"/>
</a>
</g>
</g>
<!-- Node24 -->
<g id="Node000024" class="node">
<title>Node24</title>
<g id="a_Node000024"><a xlink:href="classsteppable_1_1Number.html#ae839c653cf0ceaca2c76f44374a44fe3" target="_top" xlink:title="Subtracts two numbers.">
<polygon fill="white" stroke="#666666" points="671.12,-492.5 556.12,-492.5 556.12,-459 671.12,-459 671.12,-492.5"/>
<text text-anchor="start" x="564.12" y="-479" font-family="Helvetica,sans-Serif" font-size="10.00">steppable::Number::</text>
<text text-anchor="middle" x="613.62" y="-466.25" font-family="Helvetica,sans-Serif" font-size="10.00">operator&#45;</text>
</a>
</g>
</g>
<!-- Node20&#45;&gt;Node24 -->
<g id="edge31_Node000020_Node000024" class="edge">
<title>Node20&#45;&gt;Node24</title>
<g id="a_edge31_Node000020_Node000024"><a xlink:title=" ">
<path fill="none" stroke="#63b8ff" d="M798.11,-377.92C776.83,-399.87 743.23,-431.06 708.25,-449.75 696.94,-455.79 684.1,-460.54 671.62,-464.22"/>
<polygon fill="#63b8ff" stroke="#63b8ff" points="800.51,-380.47 804.86,-370.81 795.44,-375.65 800.51,-380.47"/>
</a>
</g>
</g>
<!-- Node21&#45;&gt;Node4 -->
<g id="edge26_Node000021_Node000004" class="edge">
<title>Node21&#45;&gt;Node4</title>
<g id="a_edge26_Node000021_Node000004"><a xlink:title=" ">
<path fill="none" stroke="#63b8ff" d="M507.12,-423.75C499.02,-423.75 491.02,-423.75 483.36,-423.75"/>
<polygon fill="#63b8ff" stroke="#63b8ff" points="507.1,-427.25 517.1,-423.75 507.1,-420.25 507.1,-427.25"/>
</a>
</g>
</g>
<!-- Node22 -->
<g id="Node000022" class="node">
<title>Node22</title>
<g id="a_Node000022"><a xlink:href="namespacesteppable_1_1____internals_1_1arithmetic.html#a7ff9976bf48df9c832d7489e88004813" target="_top" xlink:title="Gets the greatest common divisor of two string representations of numbers.">
<polygon fill="white" stroke="#666666" points="483,-492.5 359.75,-492.5 359.75,-459 483,-459 483,-492.5"/>
<text text-anchor="start" x="367.75" y="-479" font-family="Helvetica,sans-Serif" font-size="10.00">steppable::__internals</text>
<text text-anchor="middle" x="421.38" y="-466.25" font-family="Helvetica,sans-Serif" font-size="10.00">::arithmetic::getGCD</text>
</a>
</g>
</g>
<!-- Node21&#45;&gt;Node22 -->
<g id="edge27_Node000021_Node000022" class="edge">
<title>Node21&#45;&gt;Node22</title>
<g id="a_edge27_Node000021_Node000022"><a xlink:title=" ">
<path fill="none" stroke="#63b8ff" d="M538.62,-443.98C520.33,-448.98 500.94,-454.28 483.35,-459.08"/>
<polygon fill="#63b8ff" stroke="#63b8ff" points="539.36,-447.4 548.08,-441.39 537.51,-440.65 539.36,-447.4"/>
</a>
</g>
</g>
<!-- Node22&#45;&gt;Node9 -->
<g id="edge29_Node000022_Node000009" class="edge">
<title>Node22&#45;&gt;Node9</title>
<g id="a_edge29_Node000022_Node000009"><a xlink:title=" ">
<path fill="none" stroke="#63b8ff" d="M347.89,-475.75C329.34,-475.75 309.73,-475.75 292.3,-475.75"/>
<polygon fill="#63b8ff" stroke="#63b8ff" points="347.75,-479.25 357.75,-475.75 347.75,-472.25 347.75,-479.25"/>
</a>
</g>
</g>
<!-- Node22&#45;&gt;Node22 -->
<g id="edge28_Node000022_Node000022" class="edge">
<title>Node22&#45;&gt;Node22</title>
<g id="a_edge28_Node000022_Node000022"><a xlink:title=" ">
<path fill="none" stroke="#63b8ff" d="M452.27,-503.89C447.24,-507.85 436.94,-510.5 421.38,-510.5 393.7,-510.5 382.68,-502.12 388.3,-492.91"/>
<polygon fill="#63b8ff" stroke="#63b8ff" points="455.64,-504.89 454.16,-494.4 448.77,-503.52 455.64,-504.89"/>
</a>
</g>
</g>
</g>
</svg>
