<?xml version="1.0" encoding="UTF-8" standalone="no"?>
<!DOCTYPE svg PUBLIC "-//W3C//DTD SVG 1.1//EN"
 "http://www.w3.org/Graphics/SVG/1.1/DTD/svg11.dtd">
<!-- Generated by graphviz version 2.43.0 (0)
 -->
<!-- Title: info Pages: 1 -->
<svg width="395pt" height="142pt"
 viewBox="0.00 0.00 395.00 142.00" xmlns="http://www.w3.org/2000/svg" xmlns:xlink="http://www.w3.org/1999/xlink">
<g id="graph0" class="graph" transform="scale(1 1) rotate(0) translate(4 138)">
<title>info</title>
<!-- Node1 -->
<g id="node1" class="node">
<title>Node1</title>
<g id="a_node1"><a xlink:title="Prints an info message.">
<polygon fill="#bfbfbf" stroke="black" points="352,-38.5 352,-57.5 387,-57.5 387,-38.5 352,-38.5"/>
<text text-anchor="middle" x="369.5" y="-45.5" font-family="Helvetica,sans-Serif" font-size="10.00">info</text>
</a>
</g>
</g>
<!-- Node2 -->
<g id="node2" class="node">
<title>Node2</title>
<g id="a_node2"><a xlink:href="classTestCase.html#a0d11e5a480783f9a30c443c28a6a7cae" target="_top" xlink:title="Asserts a given condition and logs the condition name if it fails.">
<polygon fill="none" stroke="black" points="202.5,-57.5 202.5,-76.5 298.5,-76.5 298.5,-57.5 202.5,-57.5"/>
<text text-anchor="middle" x="250.5" y="-64.5" font-family="Helvetica,sans-Serif" font-size="10.00">TestCase::assert</text>
</a>
</g>
</g>
<!-- Node1&#45;&gt;Node2 -->
<g id="edge1" class="edge">
<title>Node1&#45;&gt;Node2</title>
<path fill="none" stroke="midnightblue" d="M342.02,-52.3C329.24,-54.38 313.5,-56.93 298.75,-59.33"/>
<polygon fill="midnightblue" stroke="midnightblue" points="342.68,-55.74 351.98,-50.68 341.55,-48.83 342.68,-55.74"/>
</g>
<!-- Node7 -->
<g id="node7" class="node">
<title>Node7</title>
<g id="a_node7"><a xlink:href="classlogging_1_1Logger.html#a5eb000375caf0992557c973f7dfaff9a" target="_top" xlink:title="Constructs a Logger object.">
<polygon fill="none" stroke="black" points="185,-19.5 185,-38.5 316,-38.5 316,-19.5 185,-19.5"/>
<text text-anchor="middle" x="250.5" y="-26.5" font-family="Helvetica,sans-Serif" font-size="10.00">logging::Logger::Logger</text>
</a>
</g>
</g>
<!-- Node1&#45;&gt;Node7 -->
<g id="edge6" class="edge">
<title>Node1&#45;&gt;Node7</title>
<path fill="none" stroke="midnightblue" d="M342.02,-43.7C332.51,-42.16 321.36,-40.34 310.2,-38.53"/>
<polygon fill="midnightblue" stroke="midnightblue" points="341.55,-47.17 351.98,-45.32 342.68,-40.26 341.55,-47.17"/>
</g>
<!-- Node3 -->
<g id="node3" class="node">
<title>Node3</title>
<g id="a_node3"><a xlink:href="classTestCase.html#ad85adf6c1abe41b1f6577905e7a78b76" target="_top" xlink:title="Asserts that a boolean value is false.">
<polygon fill="none" stroke="black" points="14,-114.5 14,-133.5 135,-133.5 135,-114.5 14,-114.5"/>
<text text-anchor="middle" x="74.5" y="-121.5" font-family="Helvetica,sans-Serif" font-size="10.00">TestCase::assertFalse</text>
</a>
</g>
</g>
<!-- Node2&#45;&gt;Node3 -->
<g id="edge2" class="edge">
<title>Node2&#45;&gt;Node3</title>
<path fill="none" stroke="midnightblue" d="M216.85,-80.37C197.35,-88.1 171.97,-97.71 149,-105 138.32,-108.39 126.63,-111.62 115.78,-114.43"/>
<polygon fill="midnightblue" stroke="midnightblue" points="218.21,-83.6 226.2,-76.64 215.61,-77.1 218.21,-83.6"/>
</g>
<!-- Node4 -->
<g id="node4" class="node">
<title>Node4</title>
<g id="a_node4"><a xlink:href="classTestCase.html#abecee8f4e5536c81da631de091f49d3d" target="_top" xlink:title="Asserts that two strings are equal.">
<polygon fill="none" stroke="black" points="9,-76.5 9,-95.5 140,-95.5 140,-76.5 9,-76.5"/>
<text text-anchor="middle" x="74.5" y="-83.5" font-family="Helvetica,sans-Serif" font-size="10.00">TestCase::assertIsEqual</text>
</a>
</g>
</g>
<!-- Node2&#45;&gt;Node4 -->
<g id="edge3" class="edge">
<title>Node2&#45;&gt;Node4</title>
<path fill="none" stroke="midnightblue" d="M192.29,-73.25C175.64,-75.07 157.34,-77.06 140.26,-78.93"/>
<polygon fill="midnightblue" stroke="midnightblue" points="192.85,-76.71 202.41,-72.14 192.09,-69.75 192.85,-76.71"/>
</g>
<!-- Node5 -->
<g id="node5" class="node">
<title>Node5</title>
<g id="a_node5"><a xlink:href="classTestCase.html#a14aa13de91243652b103aa0e68990bd2" target="_top" xlink:title="Asserts that two strings are not equal.">
<polygon fill="none" stroke="black" points="0,-38.5 0,-57.5 149,-57.5 149,-38.5 0,-38.5"/>
<text text-anchor="middle" x="74.5" y="-45.5" font-family="Helvetica,sans-Serif" font-size="10.00">TestCase::assertIsNotEqual</text>
</a>
</g>
</g>
<!-- Node2&#45;&gt;Node5 -->
<g id="edge4" class="edge">
<title>Node2&#45;&gt;Node5</title>
<path fill="none" stroke="midnightblue" d="M192.14,-60.74C178.39,-59.24 163.52,-57.61 149.15,-56.04"/>
<polygon fill="midnightblue" stroke="midnightblue" points="192.09,-64.25 202.41,-61.86 192.85,-57.29 192.09,-64.25"/>
</g>
<!-- Node6 -->
<g id="node6" class="node">
<title>Node6</title>
<g id="a_node6"><a xlink:href="classTestCase.html#aa22816a3159d8ca22cdfa5f6b15b3789" target="_top" xlink:title="Asserts that a boolean value is true.">
<polygon fill="none" stroke="black" points="16.5,-0.5 16.5,-19.5 132.5,-19.5 132.5,-0.5 16.5,-0.5"/>
<text text-anchor="middle" x="74.5" y="-7.5" font-family="Helvetica,sans-Serif" font-size="10.00">TestCase::assertTrue</text>
</a>
</g>
</g>
<!-- Node2&#45;&gt;Node6 -->
<g id="edge5" class="edge">
<title>Node2&#45;&gt;Node6</title>
<path fill="none" stroke="midnightblue" d="M203.02,-54.52C196.89,-52.52 190.75,-50.34 185,-48 168.24,-41.19 165.87,-35.53 149,-29 139.54,-25.34 129.12,-22.16 119.17,-19.5"/>
<polygon fill="midnightblue" stroke="midnightblue" points="201.98,-57.86 212.57,-57.49 204.06,-51.18 201.98,-57.86"/>
</g>
</g>
</svg>
