<?xml version="1.0" encoding="UTF-8" standalone="no"?>
<!DOCTYPE svg PUBLIC "-//W3C//DTD SVG 1.1//EN"
 "http://www.w3.org/Graphics/SVG/1.1/DTD/svg11.dtd">
<!-- Generated by graphviz version 2.43.0 (0)
 -->
<!-- Title: reportPower Pages: 1 -->
<!--zoomable 310 -->
<svg id="main" version="1.1" xmlns="http://www.w3.org/2000/svg" xmlns:xlink="http://www.w3.org/1999/xlink" xml:space="preserve" onload="init(evt)">
<style type="text/css"><![CDATA[
.edge:hover path { stroke: red; }
.edge:hover polygon { stroke: red; fill: red; }
]]></style>
<script type="text/javascript"><![CDATA[
var edges = document.getElementsByTagName('g');
if (edges && edges.length) {
  for (var i=0;i<edges.length;i++) {
    if (edges[i].id.substr(0,4)=='edge') {
      edges[i].setAttribute('class','edge');
    }
  }
}
]]></script>
        <defs>
                <circle id="rim" cx="0" cy="0" r="7"/>
                <circle id="rim2" cx="0" cy="0" r="3.5"/>
                <g id="zoomPlus">
                        <use xlink:href="#rim" fill="#404040">
                                <set attributeName="fill" to="#808080" begin="zoomplus.mouseover" end="zoomplus.mouseout"/>
                        </use>
                        <path d="M-4,0h8M0,-4v8" fill="none" stroke="white" stroke-width="1.5" pointer-events="none"/>
                </g>
                <g id="zoomMin">
                        <use xlink:href="#rim" fill="#404040">
                                <set attributeName="fill" to="#808080" begin="zoomminus.mouseover" end="zoomminus.mouseout"/>
                        </use>
                        <path d="M-4,0h8" fill="none" stroke="white" stroke-width="1.5" pointer-events="none"/>
                </g>
                <g id="dirArrow">
                        <path fill="none" stroke="white" stroke-width="1.5" d="M0,-3.0v7 M-2.5,-0.5L0,-3.0L2.5,-0.5"/>
                </g>
               <g id="resetDef">
                       <use xlink:href="#rim2" fill="#404040">
                               <set attributeName="fill" to="#808080" begin="reset.mouseover" end="reset.mouseout"/>
                       </use>
               </g>
        </defs>

<script type="text/javascript">
var viewWidth = 987;
var viewHeight = 310;
var sectionId = 'dynsection-2';
</script>
<script xlink:href="svgpan.js"/>
<svg id="graph" class="graph">
<g id="viewport">
<title>reportPower</title>
<!-- Node1 -->
<g id="node1" class="node">
<title>Node1</title>
<g id="a_node1"><a xlink:title="Reports a power operation.">
<polygon fill="#bfbfbf" stroke="black" points="903,-206.19 903,-225.19 979,-225.19 979,-206.19 903,-206.19"/>
<text text-anchor="middle" x="941" y="-213.19" font-family="Helvetica,sans-Serif" font-size="10.00">reportPower</text>
</a>
</g>
</g>
<!-- Node2 -->
<g id="node2" class="node">
<title>Node2</title>
<g id="a_node2"><a xlink:href="namespacesteppable_1_1____internals_1_1arithmetic.html#a50acfa1ad06ce385943ddd207146c9e0" target="_top" xlink:title="Raises a string representation of a number to a power.">
<polygon fill="none" stroke="black" points="743,-129.69 743,-159.69 867,-159.69 867,-129.69 743,-129.69"/>
<text text-anchor="start" x="751" y="-147.69" font-family="Helvetica,sans-Serif" font-size="10.00">steppable::__internals</text>
<text text-anchor="middle" x="805" y="-136.69" font-family="Helvetica,sans-Serif" font-size="10.00">::arithmetic::power</text>
</a>
</g>
</g>
<!-- Node1&#45;&gt;Node2 -->
<g id="edge1" class="edge">
<title>Node1&#45;&gt;Node2</title>
<path fill="none" stroke="midnightblue" d="M912.82,-201.28C890.06,-189.22 857.67,-172.07 834.54,-159.81"/>
<polygon fill="midnightblue" stroke="midnightblue" points="911.45,-204.52 921.93,-206.11 914.73,-198.34 911.45,-204.52"/>
</g>
<!-- Node3 -->
<g id="node3" class="node">
<title>Node3</title>
<g id="a_node3"><a xlink:href="namespacesteppable_1_1____internals_1_1arithmetic.html#afc4c4f319dadbb5b1ff481132f008374" target="_top" xlink:title="Converts a string representation of a number from one base to another.">
<polygon fill="none" stroke="black" points="536,-80.69 536,-110.69 692,-110.69 692,-80.69 536,-80.69"/>
<text text-anchor="start" x="544" y="-98.69" font-family="Helvetica,sans-Serif" font-size="10.00">steppable::__internals</text>
<text text-anchor="middle" x="614" y="-87.69" font-family="Helvetica,sans-Serif" font-size="10.00">::arithmetic::decimalConvert</text>
</a>
</g>
</g>
<!-- Node2&#45;&gt;Node3 -->
<g id="edge2" class="edge">
<title>Node2&#45;&gt;Node3</title>
<path fill="none" stroke="midnightblue" d="M736.31,-127.14C715.55,-121.76 692.92,-115.89 672.88,-110.69"/>
<polygon fill="midnightblue" stroke="midnightblue" points="735.45,-130.53 746.01,-129.65 737.21,-123.75 735.45,-130.53"/>
</g>
<!-- Node5 -->
<g id="node5" class="node">
<title>Node5</title>
<g id="a_node5"><a xlink:href="namespacesteppable_1_1____internals_1_1arithmetic.html#aa150ef39a272f7228ae239679247fab3" target="_top" xlink:title="Determines the scale of the quotient of division.">
<polygon fill="none" stroke="black" points="521,-178.69 521,-208.69 707,-208.69 707,-178.69 521,-178.69"/>
<text text-anchor="start" x="529" y="-196.69" font-family="Helvetica,sans-Serif" font-size="10.00">steppable::__internals</text>
<text text-anchor="middle" x="614" y="-185.69" font-family="Helvetica,sans-Serif" font-size="10.00">::arithmetic::determineResultScale</text>
</a>
</g>
</g>
<!-- Node2&#45;&gt;Node5 -->
<g id="edge4" class="edge">
<title>Node2&#45;&gt;Node5</title>
<path fill="none" stroke="midnightblue" d="M736.31,-162.24C715.55,-167.62 692.92,-173.49 672.88,-178.68"/>
<polygon fill="midnightblue" stroke="midnightblue" points="737.21,-165.62 746.01,-159.72 735.45,-158.84 737.21,-165.62"/>
</g>
<!-- Node10 -->
<g id="node10" class="node">
<title>Node10</title>
<g id="a_node10"><a xlink:href="bindings_8cpp.html#af434d7fc3eaa11448eece320b8a7d90e" target="_top" xlink:title=" ">
<polygon fill="none" stroke="black" points="18.5,-184.19 18.5,-203.19 97.5,-203.19 97.5,-184.19 18.5,-184.19"/>
<text text-anchor="middle" x="58" y="-191.19" font-family="Helvetica,sans-Serif" font-size="10.00">NB_MODULE</text>
</a>
</g>
</g>
<!-- Node2&#45;&gt;Node10 -->
<g id="edge17" class="edge">
<title>Node2&#45;&gt;Node10</title>
<path fill="none" stroke="midnightblue" d="M791.48,-120.53C775.86,-93.35 746.35,-50.66 707,-32.69 635.67,-0.1 253.23,21.74 152,-36.69 94.1,-70.1 68.47,-155.09 61.24,-183.94"/>
<polygon fill="midnightblue" stroke="midnightblue" points="788.5,-122.39 796.41,-129.43 794.62,-118.99 788.5,-122.39"/>
</g>
<!-- Node15 -->
<g id="node15" class="node">
<title>Node15</title>
<g id="a_node15"><a xlink:href="power_8cpp.html#a065a3ee9a7ec43a06ab2fddbc3019a17" target="_top" xlink:title=" ">
<polygon fill="none" stroke="black" points="593.5,-42.19 593.5,-61.19 634.5,-61.19 634.5,-42.19 593.5,-42.19"/>
<text text-anchor="middle" x="614" y="-49.19" font-family="Helvetica,sans-Serif" font-size="10.00">main</text>
</a>
</g>
</g>
<!-- Node2&#45;&gt;Node15 -->
<g id="edge16" class="edge">
<title>Node2&#45;&gt;Node15</title>
<path fill="none" stroke="midnightblue" d="M781.3,-122.59C762.78,-105.82 735.16,-83.52 707,-70.69 683.55,-60 654,-55.27 634.82,-53.21"/>
<polygon fill="midnightblue" stroke="midnightblue" points="778.93,-125.17 788.65,-129.39 783.69,-120.03 778.93,-125.17"/>
</g>
<!-- Node16 -->
<g id="node16" class="node">
<title>Node16</title>
<g id="a_node16"><a xlink:href="classsteppable_1_1Fraction.html#abaf8678e0b61e3097789959b66e4c23c" target="_top" xlink:title="Raises the fraction to a power.">
<polygon fill="none" stroke="black" points="559,-227.69 559,-257.69 669,-257.69 669,-227.69 559,-227.69"/>
<text text-anchor="start" x="567" y="-245.69" font-family="Helvetica,sans-Serif" font-size="10.00">steppable::Fraction</text>
<text text-anchor="middle" x="614" y="-234.69" font-family="Helvetica,sans-Serif" font-size="10.00">::operator^</text>
</a>
</g>
</g>
<!-- Node2&#45;&gt;Node16 -->
<g id="edge18" class="edge">
<title>Node2&#45;&gt;Node16</title>
<path fill="none" stroke="midnightblue" d="M780.43,-166.51C761.77,-182.73 734.37,-204.29 707,-217.69 695.26,-223.44 682,-228.02 669.28,-231.6"/>
<polygon fill="midnightblue" stroke="midnightblue" points="782.95,-168.96 788.11,-159.71 778.31,-163.72 782.95,-168.96"/>
</g>
<!-- Node17 -->
<g id="node17" class="node">
<title>Node17</title>
<g id="a_node17"><a xlink:href="classsteppable_1_1Number.html#ae3e13c5f73bc67cd464c84a8640e1387" target="_top" xlink:title="Raises the number to a power.">
<polygon fill="none" stroke="black" points="556,-129.69 556,-159.69 672,-159.69 672,-129.69 556,-129.69"/>
<text text-anchor="start" x="564" y="-147.69" font-family="Helvetica,sans-Serif" font-size="10.00">steppable::Number::</text>
<text text-anchor="middle" x="614" y="-136.69" font-family="Helvetica,sans-Serif" font-size="10.00">operator^</text>
</a>
</g>
</g>
<!-- Node2&#45;&gt;Node17 -->
<g id="edge19" class="edge">
<title>Node2&#45;&gt;Node17</title>
<path fill="none" stroke="midnightblue" d="M732.86,-144.69C712.78,-144.69 691.19,-144.69 672.04,-144.69"/>
<polygon fill="midnightblue" stroke="midnightblue" points="732.9,-148.19 742.9,-144.69 732.9,-141.19 732.9,-148.19"/>
</g>
<!-- Node4 -->
<g id="node4" class="node">
<title>Node4</title>
<g id="a_node4"><a xlink:href="decimalConvert_8cpp.html#ac2c7bcd6d73ca32ee42312d0fa0b1aa9" target="_top" xlink:title=" ">
<polygon fill="none" stroke="black" points="402.5,-86.19 402.5,-105.19 443.5,-105.19 443.5,-86.19 402.5,-86.19"/>
<text text-anchor="middle" x="423" y="-93.19" font-family="Helvetica,sans-Serif" font-size="10.00">main</text>
</a>
</g>
</g>
<!-- Node3&#45;&gt;Node4 -->
<g id="edge3" class="edge">
<title>Node3&#45;&gt;Node4</title>
<path fill="none" stroke="midnightblue" d="M525.52,-95.69C494.86,-95.69 463.22,-95.69 443.58,-95.69"/>
<polygon fill="midnightblue" stroke="midnightblue" points="525.85,-99.19 535.85,-95.69 525.85,-92.19 525.85,-99.19"/>
</g>
<!-- Node6 -->
<g id="node6" class="node">
<title>Node6</title>
<g id="a_node6"><a xlink:href="namespacesteppable_1_1____internals_1_1arithmetic.html#a26194ae8ddb44afb942fbf8335ae1730" target="_top" xlink:title="Divides a string representation of a number by another string representation of a number.">
<polygon fill="none" stroke="black" points="361,-178.69 361,-208.69 485,-208.69 485,-178.69 361,-178.69"/>
<text text-anchor="start" x="369" y="-196.69" font-family="Helvetica,sans-Serif" font-size="10.00">steppable::__internals</text>
<text text-anchor="middle" x="423" y="-185.69" font-family="Helvetica,sans-Serif" font-size="10.00">::arithmetic::divide</text>
</a>
</g>
</g>
<!-- Node5&#45;&gt;Node6 -->
<g id="edge5" class="edge">
<title>Node5&#45;&gt;Node6</title>
<path fill="none" stroke="midnightblue" d="M510.98,-193.69C502.14,-193.69 493.38,-193.69 485.03,-193.69"/>
<polygon fill="midnightblue" stroke="midnightblue" points="510.99,-197.19 520.99,-193.69 510.99,-190.19 510.99,-197.19"/>
</g>
<!-- Node6&#45;&gt;Node1 -->
<g id="edge14" class="edge">
<title>Node6&#45;&gt;Node1</title>
<path fill="none" stroke="midnightblue" d="M444.83,-215.85C463.01,-233.44 491.09,-256.69 521,-266.69 665.91,-315.12 852.71,-250.83 917.04,-225.31"/>
<polygon fill="midnightblue" stroke="midnightblue" points="447.23,-213.29 437.67,-208.71 442.28,-218.25 447.23,-213.29"/>
</g>
<!-- Node7 -->
<g id="node7" class="node">
<title>Node7</title>
<g id="a_node7"><a xlink:href="namespacesteppable_1_1____internals_1_1arithmetic.html#a7e727b70fed2eba6324a6e41d1a1fe03" target="_top" xlink:title=" ">
<polygon fill="none" stroke="black" points="168.5,-271.69 168.5,-301.69 308.5,-301.69 308.5,-271.69 168.5,-271.69"/>
<text text-anchor="start" x="176.5" y="-289.69" font-family="Helvetica,sans-Serif" font-size="10.00">steppable::__internals</text>
<text text-anchor="middle" x="238.5" y="-278.69" font-family="Helvetica,sans-Serif" font-size="10.00">::arithmetic::baseConvert</text>
</a>
</g>
</g>
<!-- Node6&#45;&gt;Node7 -->
<g id="edge6" class="edge">
<title>Node6&#45;&gt;Node7</title>
<path fill="none" stroke="midnightblue" d="M396.13,-215.36C377.38,-230.15 350.88,-249.25 325,-261.69 317.19,-265.44 308.71,-268.74 300.22,-271.62"/>
<polygon fill="midnightblue" stroke="midnightblue" points="398.56,-217.9 404.17,-208.91 394.18,-212.44 398.56,-217.9"/>
</g>
<!-- Node9 -->
<g id="node9" class="node">
<title>Node9</title>
<g id="a_node9"><a xlink:href="namespacesteppable_1_1____internals_1_1arithmetic.html#ac9102075acd398b3bdf388f6cc2ef978" target="_top" xlink:title=" ">
<polygon fill="none" stroke="black" points="152,-222.69 152,-252.69 325,-252.69 325,-222.69 152,-222.69"/>
<text text-anchor="start" x="160" y="-240.69" font-family="Helvetica,sans-Serif" font-size="10.00">steppable::__internals</text>
<text text-anchor="middle" x="238.5" y="-229.69" font-family="Helvetica,sans-Serif" font-size="10.00">::arithmetic::divideWithQuotient</text>
</a>
</g>
</g>
<!-- Node6&#45;&gt;Node9 -->
<g id="edge8" class="edge">
<title>Node6&#45;&gt;Node9</title>
<path fill="none" stroke="midnightblue" d="M351.04,-210.79C334.88,-214.69 317.81,-218.81 302.02,-222.61"/>
<polygon fill="midnightblue" stroke="midnightblue" points="352.08,-214.15 360.98,-208.4 350.43,-207.34 352.08,-214.15"/>
</g>
<!-- Node6&#45;&gt;Node10 -->
<g id="edge12" class="edge">
<title>Node6&#45;&gt;Node10</title>
<path fill="none" stroke="midnightblue" d="M350.41,-193.69C274.54,-193.69 157.57,-193.69 97.5,-193.69"/>
<polygon fill="midnightblue" stroke="midnightblue" points="350.83,-197.19 360.83,-193.69 350.83,-190.19 350.83,-197.19"/>
</g>
<!-- Node12 -->
<g id="node12" class="node">
<title>Node12</title>
<g id="a_node12"><a xlink:href="division_8cpp.html#a065a3ee9a7ec43a06ab2fddbc3019a17" target="_top" xlink:title=" ">
<polygon fill="none" stroke="black" points="218,-96.19 218,-115.19 259,-115.19 259,-96.19 218,-96.19"/>
<text text-anchor="middle" x="238.5" y="-103.19" font-family="Helvetica,sans-Serif" font-size="10.00">main</text>
</a>
</g>
</g>
<!-- Node6&#45;&gt;Node12 -->
<g id="edge11" class="edge">
<title>Node6&#45;&gt;Node12</title>
<path fill="none" stroke="midnightblue" d="M397.37,-171.92C378.72,-156.53 351.81,-136.61 325,-124.69 303.6,-115.17 277.01,-110.23 259.21,-107.8"/>
<polygon fill="midnightblue" stroke="midnightblue" points="395.18,-174.64 405.08,-178.4 399.69,-169.29 395.18,-174.64"/>
</g>
<!-- Node13 -->
<g id="node13" class="node">
<title>Node13</title>
<g id="a_node13"><a xlink:href="classsteppable_1_1Number.html#aebdaf5d342a2a897793556bd390bc184" target="_top" xlink:title="Divides two numbers.">
<polygon fill="none" stroke="black" points="180.5,-46.69 180.5,-76.69 296.5,-76.69 296.5,-46.69 180.5,-46.69"/>
<text text-anchor="start" x="188.5" y="-64.69" font-family="Helvetica,sans-Serif" font-size="10.00">steppable::Number::</text>
<text text-anchor="middle" x="238.5" y="-53.69" font-family="Helvetica,sans-Serif" font-size="10.00">operator/</text>
</a>
</g>
</g>
<!-- Node6&#45;&gt;Node13 -->
<g id="edge13" class="edge">
<title>Node6&#45;&gt;Node13</title>
<path fill="none" stroke="midnightblue" d="M406.61,-170.16C389.49,-145.82 359.64,-108.37 325,-86.69 316.35,-81.27 306.48,-76.98 296.59,-73.61"/>
<polygon fill="midnightblue" stroke="midnightblue" points="403.78,-172.23 412.32,-178.49 409.55,-168.26 403.78,-172.23"/>
</g>
<!-- Node14 -->
<g id="node14" class="node">
<title>Node14</title>
<g id="a_node14"><a xlink:href="classsteppable_1_1Fraction.html#a9cf64d847c268d9334775c572ef75dfa" target="_top" xlink:title="Simplifies a fraction. This function simplifies the fraction by dividing the top and bottom component...">
<polygon fill="none" stroke="black" points="183.5,-134.69 183.5,-164.69 293.5,-164.69 293.5,-134.69 183.5,-134.69"/>
<text text-anchor="start" x="191.5" y="-152.69" font-family="Helvetica,sans-Serif" font-size="10.00">steppable::Fraction</text>
<text text-anchor="middle" x="238.5" y="-141.69" font-family="Helvetica,sans-Serif" font-size="10.00">::simplify</text>
</a>
</g>
</g>
<!-- Node6&#45;&gt;Node14 -->
<g id="edge15" class="edge">
<title>Node6&#45;&gt;Node14</title>
<path fill="none" stroke="midnightblue" d="M351.13,-176.6C332.06,-172 311.73,-167.1 293.72,-162.76"/>
<polygon fill="midnightblue" stroke="midnightblue" points="350.43,-180.03 360.98,-178.97 352.08,-173.23 350.43,-180.03"/>
</g>
<!-- Node8 -->
<g id="node8" class="node">
<title>Node8</title>
<g id="a_node8"><a xlink:href="baseConvert_8cpp.html#ae66f6b31b5ad750f1fe042a706a4e3d4" target="_top" xlink:title=" ">
<polygon fill="none" stroke="black" points="37.5,-277.19 37.5,-296.19 78.5,-296.19 78.5,-277.19 37.5,-277.19"/>
<text text-anchor="middle" x="58" y="-284.19" font-family="Helvetica,sans-Serif" font-size="10.00">main</text>
</a>
</g>
</g>
<!-- Node7&#45;&gt;Node8 -->
<g id="edge7" class="edge">
<title>Node7&#45;&gt;Node8</title>
<path fill="none" stroke="midnightblue" d="M158.2,-286.69C128.9,-286.69 98.14,-286.69 78.79,-286.69"/>
<polygon fill="midnightblue" stroke="midnightblue" points="158.49,-290.19 168.49,-286.69 158.49,-283.19 158.49,-290.19"/>
</g>
<!-- Node9&#45;&gt;Node10 -->
<g id="edge9" class="edge">
<title>Node9&#45;&gt;Node10</title>
<path fill="none" stroke="midnightblue" d="M166.61,-220.21C143.07,-214.41 117.75,-208.17 97.59,-203.2"/>
<polygon fill="midnightblue" stroke="midnightblue" points="166.02,-223.67 176.57,-222.67 167.7,-216.88 166.02,-223.67"/>
</g>
<!-- Node11 -->
<g id="node11" class="node">
<title>Node11</title>
<g id="a_node11"><a xlink:href="classsteppable_1_1Number.html#a719a8a93fcfe91b30c38ba0830d6de50" target="_top" xlink:title="Calculates the remainder of two numbers. (Modulus)">
<polygon fill="none" stroke="black" points="0,-222.69 0,-252.69 116,-252.69 116,-222.69 0,-222.69"/>
<text text-anchor="start" x="8" y="-240.69" font-family="Helvetica,sans-Serif" font-size="10.00">steppable::Number::</text>
<text text-anchor="middle" x="58" y="-229.69" font-family="Helvetica,sans-Serif" font-size="10.00">operator%</text>
</a>
</g>
</g>
<!-- Node9&#45;&gt;Node11 -->
<g id="edge10" class="edge">
<title>Node9&#45;&gt;Node11</title>
<path fill="none" stroke="midnightblue" d="M141.64,-237.69C132.91,-237.69 124.26,-237.69 116.04,-237.69"/>
<polygon fill="midnightblue" stroke="midnightblue" points="141.91,-241.19 151.91,-237.69 141.91,-234.19 141.91,-241.19"/>
</g>
</g>
</svg>
        <g id="navigator" transform="translate(0 0)" fill="#404254">
                <rect fill="#f2f5e9" fill-opacity="0.5" stroke="#606060" stroke-width=".5" x="0" y="0" width="60" height="60"/>
                <use id="zoomplus" xlink:href="#zoomPlus" x="17" y="9" onmousedown="handleZoom(evt,'in')"/>
                <use id="zoomminus" xlink:href="#zoomMin" x="42" y="9" onmousedown="handleZoom(evt,'out')"/>
                <use id="reset" xlink:href="#resetDef" x="30" y="36" onmousedown="handleReset()"/>
                <g id="arrowUp" xlink:href="#dirArrow" transform="translate(30 24)" onmousedown="handlePan(0,-1)">
                  <use xlink:href="#rim" fill="#404040">
                        <set attributeName="fill" to="#808080" begin="arrowUp.mouseover" end="arrowUp.mouseout"/>
                  </use>
                  <path fill="none" stroke="white" stroke-width="1.5" d="M0,-3.0v7 M-2.5,-0.5L0,-3.0L2.5,-0.5"/>
                </g>
                <g id="arrowRight" xlink:href="#dirArrow" transform="rotate(90) translate(36 -43)" onmousedown="handlePan(1,0)">
                  <use xlink:href="#rim" fill="#404040">
                        <set attributeName="fill" to="#808080" begin="arrowRight.mouseover" end="arrowRight.mouseout"/>
                  </use>
                  <path fill="none" stroke="white" stroke-width="1.5" d="M0,-3.0v7 M-2.5,-0.5L0,-3.0L2.5,-0.5"/>
                </g>
                <g id="arrowDown" xlink:href="#dirArrow" transform="rotate(180) translate(-30 -48)" onmousedown="handlePan(0,1)">
                  <use xlink:href="#rim" fill="#404040">
                        <set attributeName="fill" to="#808080" begin="arrowDown.mouseover" end="arrowDown.mouseout"/>
                  </use>
                  <path fill="none" stroke="white" stroke-width="1.5" d="M0,-3.0v7 M-2.5,-0.5L0,-3.0L2.5,-0.5"/>
                </g>
                <g id="arrowLeft" xlink:href="#dirArrow" transform="rotate(270) translate(-36 17)" onmousedown="handlePan(-1,0)">
                  <use xlink:href="#rim" fill="#404040">
                        <set attributeName="fill" to="#808080" begin="arrowLeft.mouseover" end="arrowLeft.mouseout"/>
                  </use>
                  <path fill="none" stroke="white" stroke-width="1.5" d="M0,-3.0v7 M-2.5,-0.5L0,-3.0L2.5,-0.5"/>
                </g>
        </g>
        <svg viewBox="0 0 15 15" width="100%" height="30px" preserveAspectRatio="xMaxYMin meet">
         <g id="arrow_out" transform="scale(0.3 0.3)">
          <a xlink:href="powerReport_8cpp_afff5f8aa771cf432836ef03f6f442dae_icgraph_org.svg" target="_base">
           <rect id="button" ry="5" rx="5" y="6" x="6" height="38" width="38"
                fill="#f2f5e9" fill-opacity="0.5" stroke="#606060" stroke-width="1.0"/>
           <path id="arrow"
             d="M 11.500037,31.436501 C 11.940474,20.09759 22.043105,11.32322 32.158766,21.979434 L 37.068811,17.246167 C 37.068811,17.246167 37.088388,32 37.088388,32 L 22.160133,31.978069 C 22.160133,31.978069 26.997745,27.140456 26.997745,27.140456 C 18.528582,18.264221 13.291696,25.230495 11.500037,31.436501 z"
             style="fill:#404040;"/>
          </a>
         </g>
        </svg>
</svg>
