<?xml version="1.0" encoding="UTF-8" standalone="no"?>
<!DOCTYPE svg PUBLIC "-//W3C//DTD SVG 1.1//EN"
 "http://www.w3.org/Graphics/SVG/1.1/DTD/svg11.dtd">
<!-- Generated by graphviz version 2.43.0 (0)
 -->
<!-- Title: power Pages: 1 -->
<!--zoomable 200 -->
<svg id="main" version="1.1" xmlns="http://www.w3.org/2000/svg" xmlns:xlink="http://www.w3.org/1999/xlink" xml:space="preserve" onload="init(evt)">
<style type="text/css"><![CDATA[
.edge:hover path { stroke: red; }
.edge:hover polygon { stroke: red; fill: red; }
]]></style>
<script type="text/javascript"><![CDATA[
var edges = document.getElementsByTagName('g');
if (edges && edges.length) {
  for (var i=0;i<edges.length;i++) {
    if (edges[i].id.substr(0,4)=='edge') {
      edges[i].setAttribute('class','edge');
    }
  }
}
]]></script>
        <defs>
                <circle id="rim" cx="0" cy="0" r="7"/>
                <circle id="rim2" cx="0" cy="0" r="3.5"/>
                <g id="zoomPlus">
                        <use xlink:href="#rim" fill="#404040">
                                <set attributeName="fill" to="#808080" begin="zoomplus.mouseover" end="zoomplus.mouseout"/>
                        </use>
                        <path d="M-4,0h8M0,-4v8" fill="none" stroke="white" stroke-width="1.5" pointer-events="none"/>
                </g>
                <g id="zoomMin">
                        <use xlink:href="#rim" fill="#404040">
                                <set attributeName="fill" to="#808080" begin="zoomminus.mouseover" end="zoomminus.mouseout"/>
                        </use>
                        <path d="M-4,0h8" fill="none" stroke="white" stroke-width="1.5" pointer-events="none"/>
                </g>
                <g id="dirArrow">
                        <path fill="none" stroke="white" stroke-width="1.5" d="M0,-3.0v7 M-2.5,-0.5L0,-3.0L2.5,-0.5"/>
                </g>
               <g id="resetDef">
                       <use xlink:href="#rim2" fill="#404040">
                               <set attributeName="fill" to="#808080" begin="reset.mouseover" end="reset.mouseout"/>
                       </use>
               </g>
        </defs>

<script type="text/javascript">
var viewWidth = 702;
var viewHeight = 200;
var sectionId = 'dynsection-3';
</script>
<script xlink:href="svgpan.js"/>
<svg id="graph" class="graph">
<g id="viewport">
<title>power</title>
<!-- Node1 -->
<g id="node1" class="node">
<title>Node1</title>
<g id="a_node1"><a xlink:title="Raises a string representation of a number to a power.">
<polygon fill="#bfbfbf" stroke="black" points="647,-66.5 647,-85.5 694,-85.5 694,-66.5 647,-66.5"/>
<text text-anchor="middle" x="670.5" y="-73.5" font-family="Helvetica,sans-Serif" font-size="10.00">power</text>
</a>
</g>
</g>
<!-- Node2 -->
<g id="node2" class="node">
<title>Node2</title>
<g id="a_node2"><a xlink:href="basicArithm_8hpp.html#aedf78136562346db852758c848f8e83d" target="_top" xlink:title="Converts a string representation of a number from one base to another.">
<polygon fill="none" stroke="black" points="77,-70.5 77,-89.5 171,-89.5 171,-70.5 77,-70.5"/>
<text text-anchor="middle" x="124" y="-77.5" font-family="Helvetica,sans-Serif" font-size="10.00">decimalConvert</text>
</a>
</g>
</g>
<!-- Node1&#45;&gt;Node2 -->
<g id="edge1" class="edge">
<title>Node1&#45;&gt;Node2</title>
<path fill="none" stroke="midnightblue" d="M650.48,-92.22C611.57,-123.7 518.86,-190 428.5,-190 428.5,-190 428.5,-190 328,-190 273.56,-190 254.86,-196.93 207,-171 170.54,-151.24 142.05,-108.79 130.54,-89.67"/>
<polygon fill="midnightblue" stroke="midnightblue" points="652.88,-94.78 658.37,-85.72 648.43,-89.38 652.88,-94.78"/>
</g>
<!-- Node4 -->
<g id="node4" class="node">
<title>Node4</title>
<g id="a_node4"><a xlink:href="division_8cpp.html#a222752517a35fde0e4de4bb32cbaa9be" target="_top" xlink:title="Determines the scale of the quotient of division.">
<polygon fill="none" stroke="black" points="487,-66.5 487,-85.5 611,-85.5 611,-66.5 487,-66.5"/>
<text text-anchor="middle" x="549" y="-73.5" font-family="Helvetica,sans-Serif" font-size="10.00">determineResultScale</text>
</a>
</g>
</g>
<!-- Node1&#45;&gt;Node4 -->
<g id="edge3" class="edge">
<title>Node1&#45;&gt;Node4</title>
<path fill="none" stroke="midnightblue" d="M636.53,-76C628.63,-76 619.94,-76 611.21,-76"/>
<polygon fill="midnightblue" stroke="midnightblue" points="636.74,-79.5 646.74,-76 636.74,-72.5 636.74,-79.5"/>
</g>
<!-- Node11 -->
<g id="node11" class="node">
<title>Node11</title>
<g id="a_node11"><a xlink:href="power_8cpp.html#a065a3ee9a7ec43a06ab2fddbc3019a17" target="_top" xlink:title=" ">
<polygon fill="none" stroke="black" points="103.5,-23.5 103.5,-42.5 144.5,-42.5 144.5,-23.5 103.5,-23.5"/>
<text text-anchor="middle" x="124" y="-30.5" font-family="Helvetica,sans-Serif" font-size="10.00">main</text>
</a>
</g>
</g>
<!-- Node1&#45;&gt;Node11 -->
<g id="edge13" class="edge">
<title>Node1&#45;&gt;Node11</title>
<path fill="none" stroke="midnightblue" d="M642.9,-61.71C599.39,-39.69 509.67,0 428.5,0 428.5,0 428.5,0 328,0 259.98,0 180.78,-18.27 144.71,-27.62"/>
<polygon fill="midnightblue" stroke="midnightblue" points="641.47,-64.91 651.96,-66.37 644.68,-58.68 641.47,-64.91"/>
</g>
<!-- Node3 -->
<g id="node3" class="node">
<title>Node3</title>
<g id="a_node3"><a xlink:href="decimalConvert_8cpp.html#ac2c7bcd6d73ca32ee42312d0fa0b1aa9" target="_top" xlink:title=" ">
<polygon fill="none" stroke="black" points="0,-70.5 0,-89.5 41,-89.5 41,-70.5 0,-70.5"/>
<text text-anchor="middle" x="20.5" y="-77.5" font-family="Helvetica,sans-Serif" font-size="10.00">main</text>
</a>
</g>
</g>
<!-- Node2&#45;&gt;Node3 -->
<g id="edge2" class="edge">
<title>Node2&#45;&gt;Node3</title>
<path fill="none" stroke="midnightblue" d="M66.69,-80C57.49,-80 48.54,-80 41.06,-80"/>
<polygon fill="midnightblue" stroke="midnightblue" points="66.71,-83.5 76.71,-80 66.71,-76.5 66.71,-83.5"/>
</g>
<!-- Node5 -->
<g id="node5" class="node">
<title>Node5</title>
<g id="a_node5"><a xlink:href="basicArithm_8hpp.html#acb4215189a8d1cfd37f4f6fe13890a8f" target="_top" xlink:title="Divides a string representation of a number by another string representation of a number.">
<polygon fill="none" stroke="black" points="404,-85.5 404,-104.5 451,-104.5 451,-85.5 404,-85.5"/>
<text text-anchor="middle" x="427.5" y="-92.5" font-family="Helvetica,sans-Serif" font-size="10.00">divide</text>
</a>
</g>
</g>
<!-- Node4&#45;&gt;Node5 -->
<g id="edge4" class="edge">
<title>Node4&#45;&gt;Node5</title>
<path fill="none" stroke="midnightblue" d="M477.79,-87.16C468.17,-88.69 458.93,-90.16 451.1,-91.41"/>
<polygon fill="midnightblue" stroke="midnightblue" points="478.57,-90.58 487.9,-85.56 477.47,-83.67 478.57,-90.58"/>
</g>
<!-- Node6 -->
<g id="node6" class="node">
<title>Node6</title>
<g id="a_node6"><a xlink:href="baseConvert_8cpp.html#a6443634f54179f61c6e58098cbb32210" target="_top" xlink:title=" ">
<polygon fill="none" stroke="black" points="290,-142.5 290,-161.5 368,-161.5 368,-142.5 290,-142.5"/>
<text text-anchor="middle" x="329" y="-149.5" font-family="Helvetica,sans-Serif" font-size="10.00">baseConvert</text>
</a>
</g>
</g>
<!-- Node5&#45;&gt;Node6 -->
<g id="edge5" class="edge">
<title>Node5&#45;&gt;Node6</title>
<path fill="none" stroke="midnightblue" d="M404.42,-110.18C393.62,-117.39 380.32,-125.95 368,-133 362.37,-136.22 356.12,-139.48 350.34,-142.36"/>
<polygon fill="midnightblue" stroke="midnightblue" points="406.49,-113 412.83,-104.51 402.58,-107.2 406.49,-113"/>
</g>
<!-- Node8 -->
<g id="node8" class="node">
<title>Node8</title>
<g id="a_node8"><a xlink:href="division_8cpp.html#a065a3ee9a7ec43a06ab2fddbc3019a17" target="_top" xlink:title=" ">
<polygon fill="none" stroke="black" points="308.5,-104.5 308.5,-123.5 349.5,-123.5 349.5,-104.5 308.5,-104.5"/>
<text text-anchor="middle" x="329" y="-111.5" font-family="Helvetica,sans-Serif" font-size="10.00">main</text>
</a>
</g>
</g>
<!-- Node5&#45;&gt;Node8 -->
<g id="edge7" class="edge">
<title>Node5&#45;&gt;Node8</title>
<path fill="none" stroke="midnightblue" d="M393.49,-101.5C378.95,-104.36 362.35,-107.63 349.77,-110.11"/>
<polygon fill="midnightblue" stroke="midnightblue" points="394.5,-104.87 403.63,-99.5 393.14,-98 394.5,-104.87"/>
</g>
<!-- Node9 -->
<g id="node9" class="node">
<title>Node9</title>
<g id="a_node9"><a xlink:href="powerReport_8cpp.html#afff5f8aa771cf432836ef03f6f442dae" target="_top" xlink:title=" ">
<polygon fill="none" stroke="black" points="291,-66.5 291,-85.5 367,-85.5 367,-66.5 291,-66.5"/>
<text text-anchor="middle" x="329" y="-73.5" font-family="Helvetica,sans-Serif" font-size="10.00">reportPower</text>
</a>
</g>
</g>
<!-- Node5&#45;&gt;Node9 -->
<g id="edge8" class="edge">
<title>Node5&#45;&gt;Node9</title>
<path fill="none" stroke="midnightblue" d="M393.63,-88.53C385.07,-86.84 375.8,-85.02 367.04,-83.29"/>
<polygon fill="midnightblue" stroke="midnightblue" points="393.14,-92 403.63,-90.5 394.5,-85.13 393.14,-92"/>
</g>
<!-- Node7 -->
<g id="node7" class="node">
<title>Node7</title>
<g id="a_node7"><a xlink:href="baseConvert_8cpp.html#ae66f6b31b5ad750f1fe042a706a4e3d4" target="_top" xlink:title=" ">
<polygon fill="none" stroke="black" points="210,-142.5 210,-161.5 251,-161.5 251,-142.5 210,-142.5"/>
<text text-anchor="middle" x="230.5" y="-149.5" font-family="Helvetica,sans-Serif" font-size="10.00">main</text>
</a>
</g>
</g>
<!-- Node6&#45;&gt;Node7 -->
<g id="edge6" class="edge">
<title>Node6&#45;&gt;Node7</title>
<path fill="none" stroke="midnightblue" d="M279.77,-152C269.61,-152 259.45,-152 251.09,-152"/>
<polygon fill="midnightblue" stroke="midnightblue" points="279.86,-155.5 289.86,-152 279.86,-148.5 279.86,-155.5"/>
</g>
<!-- Node10 -->
<g id="node10" class="node">
<title>Node10</title>
<g id="a_node10"><a xlink:href="basicArithm_8hpp.html#a5967cef8aeb4f6ea90014159becd286d" target="_top" xlink:title="Raises a string representation of a number to a power.">
<polygon fill="none" stroke="black" points="207,-47.5 207,-66.5 254,-66.5 254,-47.5 207,-47.5"/>
<text text-anchor="middle" x="230.5" y="-54.5" font-family="Helvetica,sans-Serif" font-size="10.00">power</text>
</a>
</g>
</g>
<!-- Node9&#45;&gt;Node10 -->
<g id="edge9" class="edge">
<title>Node9&#45;&gt;Node10</title>
<path fill="none" stroke="midnightblue" d="M280.9,-66.73C271.54,-64.88 262.12,-63.03 254.06,-61.44"/>
<polygon fill="midnightblue" stroke="midnightblue" points="280.48,-70.21 290.97,-68.71 281.83,-63.34 280.48,-70.21"/>
</g>
<!-- Node10&#45;&gt;Node2 -->
<g id="edge10" class="edge">
<title>Node10&#45;&gt;Node2</title>
<path fill="none" stroke="midnightblue" d="M197.02,-64.15C187.93,-66.15 177.89,-68.36 168.27,-70.48"/>
<polygon fill="midnightblue" stroke="midnightblue" points="197.81,-67.56 206.83,-61.99 196.31,-60.72 197.81,-67.56"/>
</g>
<!-- Node10&#45;&gt;Node4 -->
<g id="edge11" class="edge">
<title>Node10&#45;&gt;Node4</title>
<path fill="none" stroke="midnightblue" d="M264.52,-56.03C292.18,-55.45 332.69,-55.14 368,-57 407.7,-59.09 452.11,-63.75 486.89,-67.94"/>
<polygon fill="midnightblue" stroke="midnightblue" points="264.14,-52.54 254.22,-56.27 264.3,-59.54 264.14,-52.54"/>
</g>
<!-- Node10&#45;&gt;Node11 -->
<g id="edge12" class="edge">
<title>Node10&#45;&gt;Node11</title>
<path fill="none" stroke="midnightblue" d="M196.72,-49.47C179.69,-45.56 159.44,-40.91 144.81,-37.55"/>
<polygon fill="midnightblue" stroke="midnightblue" points="196.3,-52.97 206.83,-51.79 197.86,-46.14 196.3,-52.97"/>
</g>
</g>
</svg>
        <g id="navigator" transform="translate(0 0)" fill="#404254">
                <rect fill="#f2f5e9" fill-opacity="0.5" stroke="#606060" stroke-width=".5" x="0" y="0" width="60" height="60"/>
                <use id="zoomplus" xlink:href="#zoomPlus" x="17" y="9" onmousedown="handleZoom(evt,'in')"/>
                <use id="zoomminus" xlink:href="#zoomMin" x="42" y="9" onmousedown="handleZoom(evt,'out')"/>
                <use id="reset" xlink:href="#resetDef" x="30" y="36" onmousedown="handleReset()"/>
                <g id="arrowUp" xlink:href="#dirArrow" transform="translate(30 24)" onmousedown="handlePan(0,-1)">
                  <use xlink:href="#rim" fill="#404040">
                        <set attributeName="fill" to="#808080" begin="arrowUp.mouseover" end="arrowUp.mouseout"/>
                  </use>
                  <path fill="none" stroke="white" stroke-width="1.5" d="M0,-3.0v7 M-2.5,-0.5L0,-3.0L2.5,-0.5"/>
                </g>
                <g id="arrowRight" xlink:href="#dirArrow" transform="rotate(90) translate(36 -43)" onmousedown="handlePan(1,0)">
                  <use xlink:href="#rim" fill="#404040">
                        <set attributeName="fill" to="#808080" begin="arrowRight.mouseover" end="arrowRight.mouseout"/>
                  </use>
                  <path fill="none" stroke="white" stroke-width="1.5" d="M0,-3.0v7 M-2.5,-0.5L0,-3.0L2.5,-0.5"/>
                </g>
                <g id="arrowDown" xlink:href="#dirArrow" transform="rotate(180) translate(-30 -48)" onmousedown="handlePan(0,1)">
                  <use xlink:href="#rim" fill="#404040">
                        <set attributeName="fill" to="#808080" begin="arrowDown.mouseover" end="arrowDown.mouseout"/>
                  </use>
                  <path fill="none" stroke="white" stroke-width="1.5" d="M0,-3.0v7 M-2.5,-0.5L0,-3.0L2.5,-0.5"/>
                </g>
                <g id="arrowLeft" xlink:href="#dirArrow" transform="rotate(270) translate(-36 17)" onmousedown="handlePan(-1,0)">
                  <use xlink:href="#rim" fill="#404040">
                        <set attributeName="fill" to="#808080" begin="arrowLeft.mouseover" end="arrowLeft.mouseout"/>
                  </use>
                  <path fill="none" stroke="white" stroke-width="1.5" d="M0,-3.0v7 M-2.5,-0.5L0,-3.0L2.5,-0.5"/>
                </g>
        </g>
        <svg viewBox="0 0 15 15" width="100%" height="30px" preserveAspectRatio="xMaxYMin meet">
         <g id="arrow_out" transform="scale(0.3 0.3)">
          <a xlink:href="power_8cpp_af89984cd69aac63fd697b9cdcc548020_icgraph_org.svg" target="_base">
           <rect id="button" ry="5" rx="5" y="6" x="6" height="38" width="38"
                fill="#f2f5e9" fill-opacity="0.5" stroke="#606060" stroke-width="1.0"/>
           <path id="arrow"
             d="M 11.500037,31.436501 C 11.940474,20.09759 22.043105,11.32322 32.158766,21.979434 L 37.068811,17.246167 C 37.068811,17.246167 37.088388,32 37.088388,32 L 22.160133,31.978069 C 22.160133,31.978069 26.997745,27.140456 26.997745,27.140456 C 18.528582,18.264221 13.291696,25.230495 11.500037,31.436501 z"
             style="fill:#404040;"/>
          </a>
         </g>
        </svg>
</svg>
