<?xml version="1.0" encoding="UTF-8" standalone="no"?>
<!DOCTYPE svg PUBLIC "-//W3C//DTD SVG 1.1//EN"
 "http://www.w3.org/Graphics/SVG/1.1/DTD/svg11.dtd">
<!-- Generated by graphviz version 2.43.0 (0)
 -->
<!-- Title: reportPower Pages: 1 -->
<!--zoomable 911 -->
<svg id="main" version="1.1" xmlns="http://www.w3.org/2000/svg" xmlns:xlink="http://www.w3.org/1999/xlink" xml:space="preserve" onload="init(evt)">
<style type="text/css"><![CDATA[
.edge:hover path { stroke: red; }
.edge:hover polygon { stroke: red; fill: red; }
]]></style>
<script type="text/javascript"><![CDATA[
var edges = document.getElementsByTagName('g');
if (edges && edges.length) {
  for (var i=0;i<edges.length;i++) {
    if (edges[i].id.substr(0,4)=='edge') {
      edges[i].setAttribute('class','edge');
    }
  }
}
]]></script>
        <defs>
                <circle id="rim" cx="0" cy="0" r="7"/>
                <circle id="rim2" cx="0" cy="0" r="3.5"/>
                <g id="zoomPlus">
                        <use xlink:href="#rim" fill="#404040">
                                <set attributeName="fill" to="#808080" begin="zoomplus.mouseover" end="zoomplus.mouseout"/>
                        </use>
                        <path d="M-4,0h8M0,-4v8" fill="none" stroke="white" stroke-width="1.5" pointer-events="none"/>
                </g>
                <g id="zoomMin">
                        <use xlink:href="#rim" fill="#404040">
                                <set attributeName="fill" to="#808080" begin="zoomminus.mouseover" end="zoomminus.mouseout"/>
                        </use>
                        <path d="M-4,0h8" fill="none" stroke="white" stroke-width="1.5" pointer-events="none"/>
                </g>
                <g id="dirArrow">
                        <path fill="none" stroke="white" stroke-width="1.5" d="M0,-3.0v7 M-2.5,-0.5L0,-3.0L2.5,-0.5"/>
                </g>
               <g id="resetDef">
                       <use xlink:href="#rim2" fill="#404040">
                               <set attributeName="fill" to="#808080" begin="reset.mouseover" end="reset.mouseout"/>
                       </use>
               </g>
        </defs>

<script type="text/javascript">
var viewWidth = 1086;
var viewHeight = 911;
var sectionId = 'dynsection-2';
</script>
<script xlink:href="svgpan.js"/>
<svg id="graph" class="graph">
<g id="viewport">
<title>reportPower</title>
<!-- Node1 -->
<g id="node1" class="node">
<title>Node1</title>
<g id="a_node1"><a xlink:title=" ">
<polygon fill="#bfbfbf" stroke="black" points="0,-304.71 0,-323.71 76,-323.71 76,-304.71 0,-304.71"/>
<text text-anchor="middle" x="38" y="-311.71" font-family="Helvetica,sans-Serif" font-size="10.00">reportPower</text>
</a>
</g>
</g>
<!-- Node2 -->
<g id="node2" class="node">
<title>Node2</title>
<g id="a_node2"><a xlink:href="basicArithm_8hpp.html#acf222f0bfc4ca97fbdc6db7fe808a9ee" target="_top" xlink:title="Adds two string representations of numbers, and performs with the column method.">
<polygon fill="none" stroke="black" points="282,-475.71 282,-494.71 317,-494.71 317,-475.71 282,-475.71"/>
<text text-anchor="middle" x="299.5" y="-482.71" font-family="Helvetica,sans-Serif" font-size="10.00">add</text>
</a>
</g>
</g>
<!-- Node1&#45;&gt;Node2 -->
<g id="edge1" class="edge">
<title>Node1&#45;&gt;Node2</title>
<path fill="none" stroke="midnightblue" d="M53.7,-323.89C96.78,-352.28 223.05,-435.49 275.37,-469.97"/>
<polygon fill="midnightblue" stroke="midnightblue" points="273.69,-473.05 283.97,-475.63 277.54,-467.2 273.69,-473.05"/>
</g>
<!-- Node21 -->
<g id="node21" class="node">
<title>Node21</title>
<g id="a_node21"><a xlink:href="basicArithm_8hpp.html#acb4215189a8d1cfd37f4f6fe13890a8f" target="_top" xlink:title="Divides a string representation of a number by another string representation of a number.">
<polygon fill="none" stroke="black" points="137.5,-304.71 137.5,-323.71 184.5,-323.71 184.5,-304.71 137.5,-304.71"/>
<text text-anchor="middle" x="161" y="-311.71" font-family="Helvetica,sans-Serif" font-size="10.00">divide</text>
</a>
</g>
</g>
<!-- Node1&#45;&gt;Node21 -->
<g id="edge35" class="edge">
<title>Node1&#45;&gt;Node21</title>
<path fill="none" stroke="midnightblue" d="M76.29,-314.21C92.54,-314.21 111.42,-314.21 127.13,-314.21"/>
<polygon fill="midnightblue" stroke="midnightblue" points="127.44,-317.71 137.44,-314.21 127.44,-310.71 127.44,-317.71"/>
</g>
<!-- Node31 -->
<g id="node31" class="node">
<title>Node31</title>
<g id="a_node31"><a xlink:href="basicArithm_8hpp.html#ac99d69ea51545fe30da4a36290f3fedc" target="_top" xlink:title="Multiplies two string representations of numbers.">
<polygon fill="none" stroke="black" points="403.5,-190.71 403.5,-209.71 460.5,-209.71 460.5,-190.71 403.5,-190.71"/>
<text text-anchor="middle" x="432" y="-197.71" font-family="Helvetica,sans-Serif" font-size="10.00">multiply</text>
</a>
</g>
</g>
<!-- Node1&#45;&gt;Node31 -->
<g id="edge76" class="edge">
<title>Node1&#45;&gt;Node31</title>
<path fill="none" stroke="midnightblue" d="M49.11,-304.57C77.38,-278.39 160.75,-206.23 246,-181.21 295.56,-166.66 355.41,-177.71 393.35,-188.05"/>
<polygon fill="midnightblue" stroke="midnightblue" points="392.86,-191.55 403.44,-190.92 394.78,-184.82 392.86,-191.55"/>
</g>
<!-- Node36 -->
<g id="node36" class="node">
<title>Node36</title>
<g id="a_node36"><a xlink:href="basicArithm_8hpp.html#a4e1bb2f02ee5d9df627a57d0899ac07b" target="_top" xlink:title="Executes a given predicate function a specified number of times.">
<polygon fill="none" stroke="black" points="142,-517.71 142,-536.71 180,-536.71 180,-517.71 142,-517.71"/>
<text text-anchor="middle" x="161" y="-524.71" font-family="Helvetica,sans-Serif" font-size="10.00">loop</text>
</a>
</g>
</g>
<!-- Node1&#45;&gt;Node36 -->
<g id="edge71" class="edge">
<title>Node1&#45;&gt;Node36</title>
<path fill="none" stroke="midnightblue" d="M43.4,-323.72C54.23,-346.87 83.33,-407.79 112,-456.21 122.95,-474.69 136.81,-494.91 146.82,-509.03"/>
<polygon fill="midnightblue" stroke="midnightblue" points="144.11,-511.25 152.78,-517.34 149.8,-507.17 144.11,-511.25"/>
</g>
<!-- Node37 -->
<g id="node37" class="node">
<title>Node37</title>
<g id="a_node37"><a xlink:href="symbols_8hpp.html#acf67793c16f9f196c7aafa5228649e36" target="_top" xlink:title="Create a superscript string from a normal string.">
<polygon fill="none" stroke="black" points="112,-14.71 112,-33.71 210,-33.71 210,-14.71 112,-14.71"/>
<text text-anchor="middle" x="161" y="-21.71" font-family="Helvetica,sans-Serif" font-size="10.00">makeSuperscript</text>
</a>
</g>
</g>
<!-- Node1&#45;&gt;Node37 -->
<g id="edge75" class="edge">
<title>Node1&#45;&gt;Node37</title>
<path fill="none" stroke="midnightblue" d="M38.96,-304.48C39.31,-266.93 45.29,-129.44 112,-48.21 114.94,-44.63 118.55,-41.53 122.45,-38.87"/>
<polygon fill="midnightblue" stroke="midnightblue" points="124.45,-41.76 131.34,-33.71 120.93,-35.71 124.45,-41.76"/>
</g>
<!-- Node3 -->
<g id="node3" class="node">
<title>Node3</title>
<g id="a_node3"><a xlink:href="util_8hpp.html#a183c024df291889f90106e47bb64fe0b" target="_top" xlink:title="Checks if a given string is a zero string.">
<polygon fill="none" stroke="black" points="980,-446.71 980,-465.71 1056,-465.71 1056,-446.71 980,-446.71"/>
<text text-anchor="middle" x="1018" y="-453.71" font-family="Helvetica,sans-Serif" font-size="10.00">isZeroString</text>
</a>
</g>
</g>
<!-- Node2&#45;&gt;Node3 -->
<g id="edge2" class="edge">
<title>Node2&#45;&gt;Node3</title>
<path fill="none" stroke="midnightblue" d="M301.52,-495.1C308.6,-558.25 356.23,-902.21 553,-902.21 553,-902.21 553,-902.21 683,-902.21 794.46,-902.21 845.44,-907.22 922,-826.21 971.4,-773.93 1005.29,-544.58 1014.49,-475.78"/>
<polygon fill="midnightblue" stroke="midnightblue" points="1017.96,-476.22 1015.79,-465.84 1011.02,-475.3 1017.96,-476.22"/>
</g>
<!-- Node4 -->
<g id="node4" class="node">
<title>Node4</title>
<g id="a_node4"><a xlink:href="addReport_8cpp.html#a790c309eb43b10e2fca286cee3a94ac1" target="_top" xlink:title=" ">
<polygon fill="none" stroke="black" points="649.5,-484.71 649.5,-503.71 714.5,-503.71 714.5,-484.71 649.5,-484.71"/>
<text text-anchor="middle" x="682" y="-491.71" font-family="Helvetica,sans-Serif" font-size="10.00">reportAdd</text>
</a>
</g>
</g>
<!-- Node2&#45;&gt;Node4 -->
<g id="edge3" class="edge">
<title>Node2&#45;&gt;Node4</title>
<path fill="none" stroke="midnightblue" d="M317.34,-485.61C373.61,-486.94 556.25,-491.26 639.26,-493.22"/>
<polygon fill="midnightblue" stroke="midnightblue" points="639.27,-496.72 649.35,-493.46 639.43,-489.72 639.27,-496.72"/>
</g>
<!-- Node7 -->
<g id="node7" class="node">
<title>Node7</title>
<g id="a_node7"><a xlink:href="namespaceformats.html#a296119cbd1b0c858739af6b363fb262a" target="_top" xlink:title="Set the text format to reverse.">
<polygon fill="none" stroke="black" points="633,-702.71 633,-721.71 731,-721.71 731,-702.71 633,-702.71"/>
<text text-anchor="middle" x="682" y="-709.71" font-family="Helvetica,sans-Serif" font-size="10.00">formats::reverse</text>
</a>
</g>
</g>
<!-- Node2&#45;&gt;Node7 -->
<g id="edge7" class="edge">
<title>Node2&#45;&gt;Node7</title>
<path fill="none" stroke="midnightblue" d="M309.57,-495.03C337.07,-524.25 423.04,-611.55 511,-659.21 546.38,-678.37 589.72,-691.75 623.79,-700.27"/>
<polygon fill="midnightblue" stroke="midnightblue" points="623.05,-703.69 633.59,-702.65 624.7,-696.89 623.05,-703.69"/>
</g>
<!-- Node9 -->
<g id="node9" class="node">
<title>Node9</title>
<g id="a_node9"><a xlink:href="util_8hpp.html#a7e7fdd236a1593ed0124a3a7dd05946d" target="_top" xlink:title=" ">
<polygon fill="none" stroke="black" points="806,-332.71 806,-351.71 883,-351.71 883,-332.71 806,-332.71"/>
<text text-anchor="middle" x="844.5" y="-339.71" font-family="Helvetica,sans-Serif" font-size="10.00">splitNumber</text>
</a>
</g>
</g>
<!-- Node2&#45;&gt;Node9 -->
<g id="edge9" class="edge">
<title>Node2&#45;&gt;Node9</title>
<path fill="none" stroke="midnightblue" d="M317.22,-482.68C375.34,-473.66 573.62,-440.83 731,-390.21 760.23,-380.81 792.33,-366.71 814.74,-356.22"/>
<polygon fill="midnightblue" stroke="midnightblue" points="816.47,-359.28 824.01,-351.83 813.47,-352.95 816.47,-359.28"/>
</g>
<!-- Node12 -->
<g id="node12" class="node">
<title>Node12</title>
<g id="a_node12"><a xlink:href="basicArithm_8hpp.html#a08faec0b8e863df19e3f978758166482" target="_top" xlink:title="Subtracts one string representation of a number from another string representation of a number.">
<polygon fill="none" stroke="black" points="404,-418.71 404,-437.71 460,-437.71 460,-418.71 404,-418.71"/>
<text text-anchor="middle" x="432" y="-425.71" font-family="Helvetica,sans-Serif" font-size="10.00">subtract</text>
</a>
</g>
</g>
<!-- Node2&#45;&gt;Node12 -->
<g id="edge13" class="edge">
<title>Node2&#45;&gt;Node12</title>
<path fill="none" stroke="midnightblue" d="M313.01,-475.56C331.54,-464.93 366.99,-448.78 394.22,-438.13"/>
<polygon fill="midnightblue" stroke="midnightblue" points="395.73,-441.3 403.83,-434.47 393.24,-434.76 395.73,-441.3"/>
</g>
<!-- Node4&#45;&gt;Node3 -->
<g id="edge4" class="edge">
<title>Node4&#45;&gt;Node3</title>
<path fill="none" stroke="midnightblue" d="M714.75,-491.49C760.59,-487.46 847.92,-479.38 922,-470.21 937.46,-468.29 954.29,-465.91 969.43,-463.66"/>
<polygon fill="midnightblue" stroke="midnightblue" points="970.24,-467.08 979.6,-462.13 969.19,-460.15 970.24,-467.08"/>
</g>
<!-- Node5 -->
<g id="node5" class="node">
<title>Node5</title>
<g id="a_node5"><a xlink:href="symbols_8hpp.html#a4c2486dd425b34a3a7b6f64db79add2c" target="_top" xlink:title="Create a subscript string from a normal string.">
<polygon fill="none" stroke="black" points="800,-180.71 800,-199.71 889,-199.71 889,-180.71 800,-180.71"/>
<text text-anchor="middle" x="844.5" y="-187.71" font-family="Helvetica,sans-Serif" font-size="10.00">makeSubscript</text>
</a>
</g>
</g>
<!-- Node4&#45;&gt;Node5 -->
<g id="edge5" class="edge">
<title>Node4&#45;&gt;Node5</title>
<path fill="none" stroke="midnightblue" d="M687.52,-484.45C699.76,-458.15 734.82,-383.64 767,-323.21 789.2,-281.51 817.36,-233.76 832.56,-208.35"/>
<polygon fill="midnightblue" stroke="midnightblue" points="835.57,-210.14 837.71,-199.77 829.57,-206.54 835.57,-210.14"/>
</g>
<!-- Node6 -->
<g id="node6" class="node">
<title>Node6</title>
<g id="a_node6"><a xlink:href="util_8hpp.html#a2c093cfa77eddb403db19eaecf57fa6e" target="_top" xlink:title="Converts a Unicode character to UTF&#45;8 encoding.">
<polygon fill="none" stroke="black" points="975,-180.71 975,-199.71 1061,-199.71 1061,-180.71 975,-180.71"/>
<text text-anchor="middle" x="1018" y="-187.71" font-family="Helvetica,sans-Serif" font-size="10.00">unicodeToUtf8</text>
</a>
</g>
</g>
<!-- Node5&#45;&gt;Node6 -->
<g id="edge6" class="edge">
<title>Node5&#45;&gt;Node6</title>
<path fill="none" stroke="midnightblue" d="M889.22,-190.21C912.23,-190.21 940.61,-190.21 964.77,-190.21"/>
<polygon fill="midnightblue" stroke="midnightblue" points="964.84,-193.71 974.84,-190.21 964.84,-186.71 964.84,-193.71"/>
</g>
<!-- Node8 -->
<g id="node8" class="node">
<title>Node8</title>
<g id="a_node8"><a xlink:href="colors_8cpp.html#aea0b5c095796ad31bd8aa86853337868" target="_top" xlink:title="Check if the output stream is a terminal.">
<polygon fill="none" stroke="black" points="811,-797.71 811,-816.71 878,-816.71 878,-797.71 811,-797.71"/>
<text text-anchor="middle" x="844.5" y="-804.71" font-family="Helvetica,sans-Serif" font-size="10.00">isTerminal</text>
</a>
</g>
</g>
<!-- Node7&#45;&gt;Node8 -->
<g id="edge8" class="edge">
<title>Node7&#45;&gt;Node8</title>
<path fill="none" stroke="midnightblue" d="M710.12,-721.75C717.06,-724.52 724.42,-727.74 731,-731.21 764.9,-749.09 801.12,-774.92 823.04,-791.38"/>
<polygon fill="midnightblue" stroke="midnightblue" points="821.16,-794.35 831.24,-797.61 825.39,-788.77 821.16,-794.35"/>
</g>
<!-- Node9&#45;&gt;Node3 -->
<g id="edge10" class="edge">
<title>Node9&#45;&gt;Node3</title>
<path fill="none" stroke="midnightblue" d="M883.12,-350.34C895.99,-354.06 910.12,-359.23 922,-366.21 955.08,-385.64 985.86,-418.6 1002.97,-438.78"/>
<polygon fill="midnightblue" stroke="midnightblue" points="1000.36,-441.11 1009.44,-446.57 1005.75,-436.64 1000.36,-441.11"/>
</g>
<!-- Node10 -->
<g id="node10" class="node">
<title>Node10</title>
<g id="a_node10"><a xlink:href="util_8cpp.html#a8056dcad90ba9582ba25405a95c2f1e4" target="_top" xlink:title=" ">
<polygon fill="none" stroke="black" points="958,-332.71 958,-351.71 1078,-351.71 1078,-332.71 958,-332.71"/>
<text text-anchor="middle" x="1018" y="-339.71" font-family="Helvetica,sans-Serif" font-size="10.00">removeLeadingZeros</text>
</a>
</g>
</g>
<!-- Node9&#45;&gt;Node10 -->
<g id="edge11" class="edge">
<title>Node9&#45;&gt;Node10</title>
<path fill="none" stroke="midnightblue" d="M883.14,-342.21C902.12,-342.21 925.75,-342.21 947.85,-342.21"/>
<polygon fill="midnightblue" stroke="midnightblue" points="947.88,-345.71 957.88,-342.21 947.88,-338.71 947.88,-345.71"/>
</g>
<!-- Node11 -->
<g id="node11" class="node">
<title>Node11</title>
<g id="a_node11"><a xlink:href="util_8hpp.html#a771e8f4ac1c095d4c0fef2c966cd69d7" target="_top" xlink:title="Splits a string into substrings based on a separator.">
<polygon fill="none" stroke="black" points="999,-256.71 999,-275.71 1037,-275.71 1037,-256.71 999,-256.71"/>
<text text-anchor="middle" x="1018" y="-263.71" font-family="Helvetica,sans-Serif" font-size="10.00">split</text>
</a>
</g>
</g>
<!-- Node9&#45;&gt;Node11 -->
<g id="edge12" class="edge">
<title>Node9&#45;&gt;Node11</title>
<path fill="none" stroke="midnightblue" d="M867.22,-332.58C898.31,-318.8 955.5,-293.46 989.5,-278.39"/>
<polygon fill="midnightblue" stroke="midnightblue" points="991.12,-281.5 998.85,-274.25 988.29,-275.1 991.12,-281.5"/>
</g>
<!-- Node12&#45;&gt;Node2 -->
<g id="edge14" class="edge">
<title>Node12&#45;&gt;Node2</title>
<path fill="none" stroke="midnightblue" d="M418.5,-437.84C397.43,-449.95 354.4,-469.19 326.54,-479.36"/>
<polygon fill="midnightblue" stroke="midnightblue" points="325.32,-476.07 317.03,-482.66 327.62,-482.68 325.32,-476.07"/>
</g>
<!-- Node12&#45;&gt;Node3 -->
<g id="edge20" class="edge">
<title>Node12&#45;&gt;Node3</title>
<path fill="none" stroke="midnightblue" d="M460.38,-429.52C552.65,-433.94 852.91,-448.34 969.81,-453.94"/>
<polygon fill="midnightblue" stroke="midnightblue" points="969.73,-457.44 979.89,-454.43 970.06,-450.45 969.73,-457.44"/>
</g>
<!-- Node12&#45;&gt;Node7 -->
<g id="edge25" class="edge">
<title>Node12&#45;&gt;Node7</title>
<path fill="none" stroke="midnightblue" d="M434.77,-437.87C440.63,-467.51 461.91,-558.52 511,-614.21 547.39,-655.5 605.56,-683.7 643.52,-698.89"/>
<polygon fill="midnightblue" stroke="midnightblue" points="642.6,-702.29 653.19,-702.66 645.14,-695.77 642.6,-702.29"/>
</g>
<!-- Node12&#45;&gt;Node9 -->
<g id="edge26" class="edge">
<title>Node12&#45;&gt;Node9</title>
<path fill="none" stroke="midnightblue" d="M460.25,-422.5C528.89,-408.12 709.57,-370.27 796.05,-352.15"/>
<polygon fill="midnightblue" stroke="midnightblue" points="796.8,-355.57 805.87,-350.09 795.36,-348.72 796.8,-355.57"/>
</g>
<!-- Node13 -->
<g id="node13" class="node">
<title>Node13</title>
<g id="a_node13"><a xlink:href="basicArithm_8hpp.html#aabb709fcb471467879352bf51bb0030a" target="_top" xlink:title="Compares two string representations of numbers.">
<polygon fill="none" stroke="black" points="652.5,-626.71 652.5,-645.71 711.5,-645.71 711.5,-626.71 652.5,-626.71"/>
<text text-anchor="middle" x="682" y="-633.71" font-family="Helvetica,sans-Serif" font-size="10.00">compare</text>
</a>
</g>
</g>
<!-- Node12&#45;&gt;Node13 -->
<g id="edge15" class="edge">
<title>Node12&#45;&gt;Node13</title>
<path fill="none" stroke="midnightblue" d="M435.28,-437.93C442.04,-464.54 464.41,-539.26 511,-579.21 548.48,-611.34 604.76,-625.54 642.17,-631.69"/>
<polygon fill="midnightblue" stroke="midnightblue" points="641.77,-635.17 652.19,-633.22 642.83,-628.25 641.77,-635.17"/>
</g>
<!-- Node17 -->
<g id="node17" class="node">
<title>Node17</title>
<g id="a_node17"><a xlink:href="subtractReport_8cpp.html#ad21f3d209885b1c419ff73800bb3b33b" target="_top" xlink:title=" ">
<polygon fill="none" stroke="black" points="639,-180.71 639,-199.71 725,-199.71 725,-180.71 639,-180.71"/>
<text text-anchor="middle" x="682" y="-187.71" font-family="Helvetica,sans-Serif" font-size="10.00">reportSubtract</text>
</a>
</g>
</g>
<!-- Node12&#45;&gt;Node17 -->
<g id="edge21" class="edge">
<title>Node12&#45;&gt;Node17</title>
<path fill="none" stroke="midnightblue" d="M443.03,-418.58C480.88,-382.25 615.39,-253.18 663.62,-206.88"/>
<polygon fill="midnightblue" stroke="midnightblue" points="666.05,-209.4 670.85,-199.95 661.21,-204.35 666.05,-209.4"/>
</g>
<!-- Node20 -->
<g id="node20" class="node">
<title>Node20</title>
<g id="a_node20"><a xlink:href="subtract_8cpp.html#ac94acf58b23f19e226b9263fa3a2b0da" target="_top" xlink:title="Subtracts one string representation of a number from another string representation of a number.">
<polygon fill="none" stroke="black" points="526,-532.71 526,-551.71 582,-551.71 582,-532.71 526,-532.71"/>
<text text-anchor="middle" x="554" y="-539.71" font-family="Helvetica,sans-Serif" font-size="10.00">subtract</text>
</a>
</g>
</g>
<!-- Node12&#45;&gt;Node20 -->
<g id="edge27" class="edge">
<title>Node12&#45;&gt;Node20</title>
<path fill="none" stroke="midnightblue" d="M443.23,-437.93C463.69,-457.36 509.85,-501.22 535.31,-525.41"/>
<polygon fill="midnightblue" stroke="midnightblue" points="533.13,-528.16 542.79,-532.51 537.96,-523.09 533.13,-528.16"/>
</g>
<!-- Node13&#45;&gt;Node9 -->
<g id="edge19" class="edge">
<title>Node13&#45;&gt;Node9</title>
<path fill="none" stroke="midnightblue" d="M688.34,-626.43C711.43,-584.13 802.9,-416.59 833.48,-360.56"/>
<polygon fill="midnightblue" stroke="midnightblue" points="836.58,-362.18 838.3,-351.73 830.44,-358.83 836.58,-362.18"/>
</g>
<!-- Node14 -->
<g id="node14" class="node">
<title>Node14</title>
<g id="a_node14"><a xlink:href="comparisonReport_8cpp.html#a9837660fa80278748f7f9bc397f5fba4" target="_top" xlink:title=" ">
<polygon fill="none" stroke="black" points="770,-636.71 770,-655.71 919,-655.71 919,-636.71 770,-636.71"/>
<text text-anchor="middle" x="844.5" y="-643.71" font-family="Helvetica,sans-Serif" font-size="10.00">reportComparisonAtInteger</text>
</a>
</g>
</g>
<!-- Node13&#45;&gt;Node14 -->
<g id="edge16" class="edge">
<title>Node13&#45;&gt;Node14</title>
<path fill="none" stroke="midnightblue" d="M711.69,-638C725.34,-638.85 742.43,-639.91 759.74,-640.99"/>
<polygon fill="midnightblue" stroke="midnightblue" points="759.73,-644.49 769.93,-641.62 760.16,-637.51 759.73,-644.49"/>
</g>
<!-- Node15 -->
<g id="node15" class="node">
<title>Node15</title>
<g id="a_node15"><a xlink:href="comparisonReport_8cpp.html#adc6ac398c16b4d30ab55b0ec5ceef9f3" target="_top" xlink:title=" ">
<polygon fill="none" stroke="black" points="774.5,-598.71 774.5,-617.71 914.5,-617.71 914.5,-598.71 774.5,-598.71"/>
<text text-anchor="middle" x="844.5" y="-605.71" font-family="Helvetica,sans-Serif" font-size="10.00">reportComparisonByDigit</text>
</a>
</g>
</g>
<!-- Node13&#45;&gt;Node15 -->
<g id="edge17" class="edge">
<title>Node13&#45;&gt;Node15</title>
<path fill="none" stroke="midnightblue" d="M711.69,-631.2C730.39,-627.94 755.57,-623.55 778.9,-619.48"/>
<polygon fill="midnightblue" stroke="midnightblue" points="779.52,-622.92 788.77,-617.76 778.32,-616.03 779.52,-622.92"/>
</g>
<!-- Node16 -->
<g id="node16" class="node">
<title>Node16</title>
<g id="a_node16"><a xlink:href="comparisonReport_8cpp.html#a8bdddfcaa5a1d0339df5705ec6ff2aff" target="_top" xlink:title=" ">
<polygon fill="none" stroke="black" points="767,-674.71 767,-693.71 922,-693.71 922,-674.71 767,-674.71"/>
<text text-anchor="middle" x="844.5" y="-681.71" font-family="Helvetica,sans-Serif" font-size="10.00">reportComparisonByPolarity</text>
</a>
</g>
</g>
<!-- Node13&#45;&gt;Node16 -->
<g id="edge18" class="edge">
<title>Node13&#45;&gt;Node16</title>
<path fill="none" stroke="midnightblue" d="M708.91,-645.82C725.42,-651.78 747.33,-659.38 767,-665.21 775.11,-667.61 783.76,-669.96 792.23,-672.14"/>
<polygon fill="midnightblue" stroke="midnightblue" points="791.48,-675.56 802.03,-674.62 793.19,-668.78 791.48,-675.56"/>
</g>
<!-- Node17&#45;&gt;Node5 -->
<g id="edge22" class="edge">
<title>Node17&#45;&gt;Node5</title>
<path fill="none" stroke="midnightblue" d="M725.17,-190.21C744.96,-190.21 768.78,-190.21 789.85,-190.21"/>
<polygon fill="midnightblue" stroke="midnightblue" points="789.93,-193.71 799.93,-190.21 789.93,-186.71 789.93,-193.71"/>
</g>
<!-- Node18 -->
<g id="node18" class="node">
<title>Node18</title>
<g id="a_node18"><a xlink:href="util_8hpp.html#a8056dcad90ba9582ba25405a95c2f1e4" target="_top" xlink:title=" ">
<polygon fill="none" stroke="black" points="784.5,-9.71 784.5,-28.71 904.5,-28.71 904.5,-9.71 784.5,-9.71"/>
<text text-anchor="middle" x="844.5" y="-16.71" font-family="Helvetica,sans-Serif" font-size="10.00">removeLeadingZeros</text>
</a>
</g>
</g>
<!-- Node17&#45;&gt;Node18 -->
<g id="edge23" class="edge">
<title>Node17&#45;&gt;Node18</title>
<path fill="none" stroke="midnightblue" d="M692.09,-180.52C718.24,-152.66 793.94,-72.01 827.34,-36.42"/>
<polygon fill="midnightblue" stroke="midnightblue" points="830.22,-38.47 834.51,-28.78 825.11,-33.68 830.22,-38.47"/>
</g>
<!-- Node19 -->
<g id="node19" class="node">
<title>Node19</title>
<g id="a_node19"><a xlink:href="util_8hpp.html#ac87bf229222a2a4f32b8626281c6c282" target="_top" xlink:title=" ">
<polygon fill="none" stroke="black" points="785,-123.71 785,-142.71 904,-142.71 904,-123.71 785,-123.71"/>
<text text-anchor="middle" x="844.5" y="-130.71" font-family="Helvetica,sans-Serif" font-size="10.00">replaceLeadingZeros</text>
</a>
</g>
</g>
<!-- Node17&#45;&gt;Node19 -->
<g id="edge24" class="edge">
<title>Node17&#45;&gt;Node19</title>
<path fill="none" stroke="midnightblue" d="M709.86,-180.67C736.48,-171.21 777.44,-156.67 807,-146.17"/>
<polygon fill="midnightblue" stroke="midnightblue" points="808.3,-149.42 816.55,-142.78 805.95,-142.83 808.3,-149.42"/>
</g>
<!-- Node20&#45;&gt;Node2 -->
<g id="edge28" class="edge">
<title>Node20&#45;&gt;Node2</title>
<path fill="none" stroke="midnightblue" d="M525.95,-540.02C493.16,-536.96 436.38,-530.36 389,-518.21 367.49,-512.69 343.97,-503.77 326.59,-496.6"/>
<polygon fill="midnightblue" stroke="midnightblue" points="327.7,-493.27 317.13,-492.62 324.98,-499.72 327.7,-493.27"/>
</g>
<!-- Node20&#45;&gt;Node3 -->
<g id="edge30" class="edge">
<title>Node20&#45;&gt;Node3</title>
<path fill="none" stroke="midnightblue" d="M582.27,-544.11C616.99,-546.06 678.72,-547.96 731,-541.21 817.92,-529.99 838.45,-518.66 922,-492.21 943.09,-485.53 966.33,-476.75 984.54,-469.53"/>
<polygon fill="midnightblue" stroke="midnightblue" points="985.85,-472.78 993.83,-465.82 983.24,-466.28 985.85,-472.78"/>
</g>
<!-- Node20&#45;&gt;Node7 -->
<g id="edge32" class="edge">
<title>Node20&#45;&gt;Node7</title>
<path fill="none" stroke="midnightblue" d="M561.17,-551.8C573.99,-571.56 604.65,-618.07 633,-655.21 643.38,-668.81 655.85,-683.57 665.48,-694.67"/>
<polygon fill="midnightblue" stroke="midnightblue" points="662.99,-697.13 672.21,-702.36 668.26,-692.52 662.99,-697.13"/>
</g>
<!-- Node20&#45;&gt;Node9 -->
<g id="edge33" class="edge">
<title>Node20&#45;&gt;Node9</title>
<path fill="none" stroke="midnightblue" d="M582.12,-544.17C618.87,-545.49 685.16,-542.98 731,-513.21 788.5,-475.85 823.23,-397.66 836.85,-361.42"/>
<polygon fill="midnightblue" stroke="midnightblue" points="840.15,-362.58 840.27,-351.99 833.57,-360.2 840.15,-362.58"/>
</g>
<!-- Node20&#45;&gt;Node13 -->
<g id="edge29" class="edge">
<title>Node20&#45;&gt;Node13</title>
<path fill="none" stroke="midnightblue" d="M568.01,-551.91C589.82,-568.18 633.92,-601.08 660.11,-620.62"/>
<polygon fill="midnightblue" stroke="midnightblue" points="658.14,-623.52 668.25,-626.69 662.33,-617.91 658.14,-623.52"/>
</g>
<!-- Node20&#45;&gt;Node17 -->
<g id="edge31" class="edge">
<title>Node20&#45;&gt;Node17</title>
<path fill="none" stroke="midnightblue" d="M558.5,-532.43C575.63,-484.56 650.75,-274.72 674.07,-209.57"/>
<polygon fill="midnightblue" stroke="midnightblue" points="677.5,-210.37 677.57,-199.78 670.91,-208.01 677.5,-210.37"/>
</g>
<!-- Node20&#45;&gt;Node20 -->
<g id="edge34" class="edge">
<title>Node20&#45;&gt;Node20</title>
<path fill="none" stroke="midnightblue" d="M535.2,-551.96C526.05,-560.77 532.32,-570.21 554,-570.21 567.89,-570.21 575.46,-566.34 576.69,-561.24"/>
<polygon fill="midnightblue" stroke="midnightblue" points="579.9,-559.83 572.8,-551.96 573.44,-562.54 579.9,-559.83"/>
</g>
<!-- Node21&#45;&gt;Node2 -->
<g id="edge38" class="edge">
<title>Node21&#45;&gt;Node2</title>
<path fill="none" stroke="midnightblue" d="M166.43,-323.75C177.47,-346.84 208.06,-406.79 246,-447.21 254.05,-455.79 264.29,-463.7 273.58,-470.06"/>
<polygon fill="midnightblue" stroke="midnightblue" points="271.81,-473.08 282.09,-475.65 275.65,-467.23 271.81,-473.08"/>
</g>
<!-- Node21&#45;&gt;Node3 -->
<g id="edge60" class="edge">
<title>Node21&#45;&gt;Node3</title>
<path fill="none" stroke="midnightblue" d="M184.71,-315.85C220.57,-318.57 292.46,-324.6 353,-333.21 585.76,-366.28 861.3,-423.01 969.77,-446.04"/>
<polygon fill="midnightblue" stroke="midnightblue" points="969.23,-449.51 979.74,-448.17 970.69,-442.66 969.23,-449.51"/>
</g>
<!-- Node21&#45;&gt;Node9 -->
<g id="edge69" class="edge">
<title>Node21&#45;&gt;Node9</title>
<path fill="none" stroke="midnightblue" d="M171.8,-304.58C186.47,-290.92 215.68,-266.52 246,-257.21 456.21,-192.62 723.35,-291.07 812.78,-328.64"/>
<polygon fill="midnightblue" stroke="midnightblue" points="811.5,-331.9 822.08,-332.59 814.24,-325.46 811.5,-331.9"/>
</g>
<!-- Node21&#45;&gt;Node12 -->
<g id="edge70" class="edge">
<title>Node21&#45;&gt;Node12</title>
<path fill="none" stroke="midnightblue" d="M173.82,-323.92C189.48,-336.37 218.35,-357.94 246,-371.21 272.27,-383.82 347.82,-405.49 393.84,-418.17"/>
<polygon fill="midnightblue" stroke="midnightblue" points="393.18,-421.62 403.74,-420.88 395.03,-414.86 393.18,-421.62"/>
</g>
<!-- Node21&#45;&gt;Node13 -->
<g id="edge39" class="edge">
<title>Node21&#45;&gt;Node13</title>
<path fill="none" stroke="midnightblue" d="M163.84,-323.77C170.08,-353.96 193.11,-448.5 246,-504.21 336.87,-599.92 382.62,-607.59 511,-638.21 554.97,-648.69 607.18,-645.92 642.03,-641.99"/>
<polygon fill="midnightblue" stroke="midnightblue" points="642.75,-645.43 652.25,-640.75 641.91,-638.48 642.75,-645.43"/>
</g>
<!-- Node21&#45;&gt;Node18 -->
<g id="edge62" class="edge">
<title>Node21&#45;&gt;Node18</title>
<path fill="none" stroke="midnightblue" d="M162.15,-304.69C163.25,-267.37 172.36,-129.61 246,-57.21 307.35,3.11 344.96,-0.21 431,-0.21 431,-0.21 431,-0.21 555,-0.21 630.05,-0.21 715.85,-6.69 774.24,-12.08"/>
<polygon fill="midnightblue" stroke="midnightblue" points="774.17,-15.59 784.45,-13.04 774.82,-8.62 774.17,-15.59"/>
</g>
<!-- Node22 -->
<g id="node22" class="node">
<title>Node22</title>
<g id="a_node22"><a xlink:href="basicArithm_8hpp.html#a0bf76a4df6c2748fbcb5b33b3e8166b3" target="_top" xlink:title="Calculates the absolute value of a string representation of a number.">
<polygon fill="none" stroke="black" points="282.5,-266.71 282.5,-285.71 316.5,-285.71 316.5,-266.71 282.5,-266.71"/>
<text text-anchor="middle" x="299.5" y="-273.71" font-family="Helvetica,sans-Serif" font-size="10.00">abs</text>
</a>
</g>
</g>
<!-- Node21&#45;&gt;Node22 -->
<g id="edge36" class="edge">
<title>Node21&#45;&gt;Node22</title>
<path fill="none" stroke="midnightblue" d="M184.54,-307.93C208.77,-301.19 247.21,-290.49 272.65,-283.4"/>
<polygon fill="midnightblue" stroke="midnightblue" points="273.65,-286.76 282.35,-280.7 271.78,-280.01 273.65,-286.76"/>
</g>
<!-- Node24 -->
<g id="node24" class="node">
<title>Node24</title>
<g id="a_node24"><a xlink:href="output_8hpp.html#a1f009ce0a12690c37c88f2adfe9d2e1e" target="_top" xlink:title="Prints an error message.">
<polygon fill="none" stroke="black" points="534,-816.71 534,-835.71 574,-835.71 574,-816.71 534,-816.71"/>
<text text-anchor="middle" x="554" y="-823.71" font-family="Helvetica,sans-Serif" font-size="10.00">error</text>
</a>
</g>
</g>
<!-- Node21&#45;&gt;Node24 -->
<g id="edge40" class="edge">
<title>Node21&#45;&gt;Node24</title>
<path fill="none" stroke="midnightblue" d="M164.55,-323.86C171.99,-352.11 194.1,-437.1 210,-508.21 227.8,-587.83 195.15,-624.41 246,-688.21 317.98,-778.52 461.79,-811.64 523.63,-822.04"/>
<polygon fill="midnightblue" stroke="midnightblue" points="523.42,-825.55 533.84,-823.68 524.52,-818.64 523.42,-825.55"/>
</g>
<!-- Node29 -->
<g id="node29" class="node">
<title>Node29</title>
<g id="a_node29"><a xlink:href="division_8cpp.html#ab006d1ea81d0490f752bcadaee51b984" target="_top" xlink:title=" ">
<polygon fill="none" stroke="black" points="262.5,-418.71 262.5,-437.71 336.5,-437.71 336.5,-418.71 262.5,-418.71"/>
<text text-anchor="middle" x="299.5" y="-425.71" font-family="Helvetica,sans-Serif" font-size="10.00">getQuotient</text>
</a>
</g>
</g>
<!-- Node21&#45;&gt;Node29 -->
<g id="edge48" class="edge">
<title>Node21&#45;&gt;Node29</title>
<path fill="none" stroke="midnightblue" d="M168.88,-323.77C182.1,-341.59 212.7,-380.22 246,-404.21 251.23,-407.97 257.14,-411.36 263.07,-414.33"/>
<polygon fill="midnightblue" stroke="midnightblue" points="261.75,-417.57 272.3,-418.63 264.71,-411.23 261.75,-417.57"/>
</g>
<!-- Node30 -->
<g id="node30" class="node">
<title>Node30</title>
<g id="a_node30"><a xlink:href="division_8cpp.html#a8b6a82cb05abd6a1664e14df888f3cb7" target="_top" xlink:title=" ">
<polygon fill="none" stroke="black" points="256.5,-342.71 256.5,-361.71 342.5,-361.71 342.5,-342.71 256.5,-342.71"/>
<text text-anchor="middle" x="299.5" y="-349.71" font-family="Helvetica,sans-Serif" font-size="10.00">getRemainder</text>
</a>
</g>
</g>
<!-- Node21&#45;&gt;Node30 -->
<g id="edge51" class="edge">
<title>Node21&#45;&gt;Node30</title>
<path fill="none" stroke="midnightblue" d="M184.54,-320.48C203.49,-325.76 231.14,-333.46 254.46,-339.95"/>
<polygon fill="midnightblue" stroke="midnightblue" points="253.58,-343.33 264.15,-342.64 255.45,-336.59 253.58,-343.33"/>
</g>
<!-- Node33 -->
<g id="node33" class="node">
<title>Node33</title>
<g id="a_node33"><a xlink:href="util_8hpp.html#a93b9ba3fe803c8e3fa1b128f4e83924f" target="_top" xlink:title="Makes the given string wider by adding 2 spaces between each character.">
<polygon fill="none" stroke="black" points="646,-28.71 646,-47.71 718,-47.71 718,-28.71 646,-28.71"/>
<text text-anchor="middle" x="682" y="-35.71" font-family="Helvetica,sans-Serif" font-size="10.00">makeWider</text>
</a>
</g>
</g>
<!-- Node21&#45;&gt;Node33 -->
<g id="edge61" class="edge">
<title>Node21&#45;&gt;Node33</title>
<path fill="none" stroke="midnightblue" d="M166.15,-304.38C176.56,-280.68 205.87,-219.46 246,-181.21 298.87,-130.81 320.7,-126.1 389,-100.21 433.75,-83.25 565.88,-58.49 636.04,-46.02"/>
<polygon fill="midnightblue" stroke="midnightblue" points="636.69,-49.46 645.93,-44.27 635.47,-42.56 636.69,-49.46"/>
</g>
<!-- Node34 -->
<g id="node34" class="node">
<title>Node34</title>
<g id="a_node34"><a xlink:href="divisionReport_8cpp.html#a37e4e7cb6fe42ae3131cdc071b038687" target="_top" xlink:title=" ">
<polygon fill="none" stroke="black" points="389,-28.71 389,-47.71 475,-47.71 475,-28.71 389,-28.71"/>
<text text-anchor="middle" x="432" y="-35.71" font-family="Helvetica,sans-Serif" font-size="10.00">reportDivision</text>
</a>
</g>
</g>
<!-- Node21&#45;&gt;Node34 -->
<g id="edge63" class="edge">
<title>Node21&#45;&gt;Node34</title>
<path fill="none" stroke="midnightblue" d="M163.76,-304.57C169.77,-274.16 192.19,-179.04 246,-124.21 283.24,-86.26 340.42,-63.24 381.35,-50.7"/>
<polygon fill="midnightblue" stroke="midnightblue" points="382.53,-54 391.12,-47.8 380.54,-47.29 382.53,-54"/>
</g>
<!-- Node35 -->
<g id="node35" class="node">
<title>Node35</title>
<g id="a_node35"><a xlink:href="divisionReport_8cpp.html#aaebd1f284f6703b7629aa18d21f7ccf2" target="_top" xlink:title=" ">
<polygon fill="none" stroke="black" points="246,-190.71 246,-209.71 353,-209.71 353,-190.71 246,-190.71"/>
<text text-anchor="middle" x="299.5" y="-197.71" font-family="Helvetica,sans-Serif" font-size="10.00">reportDivisionStep</text>
</a>
</g>
</g>
<!-- Node21&#45;&gt;Node35 -->
<g id="edge65" class="edge">
<title>Node21&#45;&gt;Node35</title>
<path fill="none" stroke="midnightblue" d="M168.88,-304.64C182.1,-286.83 212.7,-248.2 246,-224.21 251.23,-220.44 257.14,-217.05 263.07,-214.09"/>
<polygon fill="midnightblue" stroke="midnightblue" points="264.71,-217.18 272.3,-209.79 261.75,-210.84 264.71,-217.18"/>
</g>
<!-- Node23 -->
<g id="node23" class="node">
<title>Node23</title>
<g id="a_node23"><a xlink:href="absReport_8cpp.html#a7e44e3e84696a88d84e6d9e3331ea6a3" target="_top" xlink:title=" ">
<polygon fill="none" stroke="black" points="400,-266.71 400,-285.71 464,-285.71 464,-266.71 400,-266.71"/>
<text text-anchor="middle" x="432" y="-273.71" font-family="Helvetica,sans-Serif" font-size="10.00">reportAbs</text>
</a>
</g>
</g>
<!-- Node22&#45;&gt;Node23 -->
<g id="edge37" class="edge">
<title>Node22&#45;&gt;Node23</title>
<path fill="none" stroke="midnightblue" d="M316.5,-276.21C334.61,-276.21 364.8,-276.21 389.64,-276.21"/>
<polygon fill="midnightblue" stroke="midnightblue" points="389.91,-279.71 399.91,-276.21 389.91,-272.71 389.91,-279.71"/>
</g>
<!-- Node25 -->
<g id="node25" class="node">
<title>Node25</title>
<g id="a_node25"><a xlink:href="namespaceformats.html#a02e589d39c7fb74bc6095fffeb1480fb" target="_top" xlink:title="Set the text format to bold.">
<polygon fill="none" stroke="black" points="641,-854.71 641,-873.71 723,-873.71 723,-854.71 641,-854.71"/>
<text text-anchor="middle" x="682" y="-861.71" font-family="Helvetica,sans-Serif" font-size="10.00">formats::bold</text>
</a>
</g>
</g>
<!-- Node24&#45;&gt;Node25 -->
<g id="edge41" class="edge">
<title>Node24&#45;&gt;Node25</title>
<path fill="none" stroke="midnightblue" d="M574.14,-831.98C591.45,-837.2 617.54,-845.07 639.6,-851.72"/>
<polygon fill="midnightblue" stroke="midnightblue" points="638.83,-855.14 649.41,-854.68 640.85,-848.44 638.83,-855.14"/>
</g>
<!-- Node26 -->
<g id="node26" class="node">
<title>Node26</title>
<g id="a_node26"><a xlink:href="namespacecolors.html#ae360f74f6cd6e0fc3de2c245aba4d500" target="_top" xlink:title="Set the text color to red.">
<polygon fill="none" stroke="black" points="648,-816.71 648,-835.71 716,-835.71 716,-816.71 648,-816.71"/>
<text text-anchor="middle" x="682" y="-823.71" font-family="Helvetica,sans-Serif" font-size="10.00">colors::red</text>
</a>
</g>
</g>
<!-- Node24&#45;&gt;Node26 -->
<g id="edge43" class="edge">
<title>Node24&#45;&gt;Node26</title>
<path fill="none" stroke="midnightblue" d="M574.14,-826.21C590.94,-826.21 616,-826.21 637.64,-826.21"/>
<polygon fill="midnightblue" stroke="midnightblue" points="637.93,-829.71 647.93,-826.21 637.93,-822.71 637.93,-829.71"/>
</g>
<!-- Node27 -->
<g id="node27" class="node">
<title>Node27</title>
<g id="a_node27"><a xlink:href="colors_8hpp.html#a4661597771a019efa3f0f92cfb0c6e02" target="_top" xlink:title="Reset the text color and format to the default values.">
<polygon fill="none" stroke="black" points="661.5,-778.71 661.5,-797.71 702.5,-797.71 702.5,-778.71 661.5,-778.71"/>
<text text-anchor="middle" x="682" y="-785.71" font-family="Helvetica,sans-Serif" font-size="10.00">reset</text>
</a>
</g>
</g>
<!-- Node24&#45;&gt;Node27 -->
<g id="edge45" class="edge">
<title>Node24&#45;&gt;Node27</title>
<path fill="none" stroke="midnightblue" d="M574.14,-820.44C594.74,-814.22 627.76,-804.26 651.65,-797.06"/>
<polygon fill="midnightblue" stroke="midnightblue" points="652.7,-800.4 661.27,-794.16 650.68,-793.7 652.7,-800.4"/>
</g>
<!-- Node28 -->
<g id="node28" class="node">
<title>Node28</title>
<g id="a_node28"><a xlink:href="format_8hpp.html#aec7a78e0e53305094ec38dc8bd038de8" target="_top" xlink:title="Formats a string using a variable number of arguments.">
<polygon fill="none" stroke="black" points="653.5,-740.71 653.5,-759.71 710.5,-759.71 710.5,-740.71 653.5,-740.71"/>
<text text-anchor="middle" x="682" y="-747.71" font-family="Helvetica,sans-Serif" font-size="10.00">vFormat</text>
</a>
</g>
</g>
<!-- Node24&#45;&gt;Node28 -->
<g id="edge47" class="edge">
<title>Node24&#45;&gt;Node28</title>
<path fill="none" stroke="midnightblue" d="M573.96,-816.55C581.37,-812.47 589.81,-807.46 597,-802.21 614.53,-789.41 614.6,-780.73 633,-769.21 636.41,-767.07 640.09,-765.11 643.86,-763.31"/>
<polygon fill="midnightblue" stroke="midnightblue" points="645.49,-766.41 653.25,-759.2 642.69,-760 645.49,-766.41"/>
</g>
<!-- Node25&#45;&gt;Node8 -->
<g id="edge42" class="edge">
<title>Node25&#45;&gt;Node8</title>
<path fill="none" stroke="midnightblue" d="M709.86,-854.67C736.48,-845.21 777.44,-830.67 807,-820.17"/>
<polygon fill="midnightblue" stroke="midnightblue" points="808.3,-823.42 816.55,-816.78 805.95,-816.83 808.3,-823.42"/>
</g>
<!-- Node26&#45;&gt;Node8 -->
<g id="edge44" class="edge">
<title>Node26&#45;&gt;Node8</title>
<path fill="none" stroke="midnightblue" d="M716.26,-822.27C740.74,-819.37 774.22,-815.41 800.7,-812.27"/>
<polygon fill="midnightblue" stroke="midnightblue" points="801.32,-815.73 810.84,-811.07 800.49,-808.77 801.32,-815.73"/>
</g>
<!-- Node27&#45;&gt;Node8 -->
<g id="edge46" class="edge">
<title>Node27&#45;&gt;Node8</title>
<path fill="none" stroke="midnightblue" d="M702.68,-790.54C727,-793.42 769.07,-798.4 800.91,-802.17"/>
<polygon fill="midnightblue" stroke="midnightblue" points="800.51,-805.64 810.85,-803.34 801.33,-798.69 800.51,-805.64"/>
</g>
<!-- Node29&#45;&gt;Node12 -->
<g id="edge50" class="edge">
<title>Node29&#45;&gt;Node12</title>
<path fill="none" stroke="midnightblue" d="M336.51,-428.21C354.29,-428.21 375.73,-428.21 393.69,-428.21"/>
<polygon fill="midnightblue" stroke="midnightblue" points="393.81,-431.71 403.81,-428.21 393.81,-424.71 393.81,-431.71"/>
</g>
<!-- Node29&#45;&gt;Node13 -->
<g id="edge49" class="edge">
<title>Node29&#45;&gt;Node13</title>
<path fill="none" stroke="midnightblue" d="M314.68,-437.74C325.45,-445.16 340.5,-455.9 353,-466.21 427.23,-527.43 423.98,-573.16 511,-614.21 552.89,-633.97 606.68,-637.83 642.42,-637.82"/>
<polygon fill="midnightblue" stroke="midnightblue" points="642.48,-641.32 652.44,-637.72 642.41,-634.32 642.48,-641.32"/>
</g>
<!-- Node30&#45;&gt;Node12 -->
<g id="edge59" class="edge">
<title>Node30&#45;&gt;Node12</title>
<path fill="none" stroke="midnightblue" d="M323.37,-361.71C332.72,-365.84 343.55,-370.94 353,-376.21 372.85,-387.27 394.24,-401.73 409.6,-412.59"/>
<polygon fill="midnightblue" stroke="midnightblue" points="407.71,-415.55 417.88,-418.52 411.79,-409.85 407.71,-415.55"/>
</g>
<!-- Node30&#45;&gt;Node31 -->
<g id="edge52" class="edge">
<title>Node30&#45;&gt;Node31</title>
<path fill="none" stroke="midnightblue" d="M309.59,-342.68C320.19,-331.48 338.17,-312.26 353,-295.21 376.08,-268.68 401.76,-236.95 417.13,-217.7"/>
<polygon fill="midnightblue" stroke="midnightblue" points="419.93,-219.8 423.43,-209.79 414.46,-215.44 419.93,-219.8"/>
</g>
<!-- Node31&#45;&gt;Node3 -->
<g id="edge53" class="edge">
<title>Node31&#45;&gt;Node3</title>
<path fill="none" stroke="midnightblue" d="M460.55,-199.87C540.48,-200.29 776.01,-211.48 922,-323.21 943.53,-339.69 985.87,-405.7 1005.94,-438.09"/>
<polygon fill="midnightblue" stroke="midnightblue" points="1002.97,-439.94 1011.19,-446.62 1008.93,-436.27 1002.97,-439.94"/>
</g>
<!-- Node31&#45;&gt;Node9 -->
<g id="edge58" class="edge">
<title>Node31&#45;&gt;Node9</title>
<path fill="none" stroke="midnightblue" d="M460.57,-209.74C532.27,-234.55 724.65,-301.1 806.17,-329.3"/>
<polygon fill="midnightblue" stroke="midnightblue" points="805.18,-332.66 815.78,-332.62 807.47,-326.04 805.18,-332.66"/>
</g>
<!-- Node32 -->
<g id="node32" class="node">
<title>Node32</title>
<g id="a_node32"><a xlink:href="multiplyReport_8cpp.html#a3e493cd7dde79f0eaa41c2eddd4cb895" target="_top" xlink:title=" ">
<polygon fill="none" stroke="black" points="511,-142.71 511,-161.71 597,-161.71 597,-142.71 511,-142.71"/>
<text text-anchor="middle" x="554" y="-149.71" font-family="Helvetica,sans-Serif" font-size="10.00">reportMultiply</text>
</a>
</g>
</g>
<!-- Node31&#45;&gt;Node32 -->
<g id="edge54" class="edge">
<title>Node31&#45;&gt;Node32</title>
<path fill="none" stroke="midnightblue" d="M457,-190.61C474.98,-183.41 499.82,-173.48 519.72,-165.52"/>
<polygon fill="midnightblue" stroke="midnightblue" points="521.06,-168.75 529.05,-161.79 518.46,-162.25 521.06,-168.75"/>
</g>
<!-- Node32&#45;&gt;Node5 -->
<g id="edge55" class="edge">
<title>Node32&#45;&gt;Node5</title>
<path fill="none" stroke="midnightblue" d="M597.05,-156.03C632.76,-159.45 685.33,-164.89 731,-171.21 750.2,-173.86 771.17,-177.27 789.74,-180.46"/>
<polygon fill="midnightblue" stroke="midnightblue" points="789.33,-183.94 799.78,-182.2 790.53,-177.04 789.33,-183.94"/>
</g>
<!-- Node32&#45;&gt;Node19 -->
<g id="edge57" class="edge">
<title>Node32&#45;&gt;Node19</title>
<path fill="none" stroke="midnightblue" d="M597.34,-143.39C608.86,-141.32 621.36,-139.38 633,-138.21 680.11,-133.45 733.43,-132.23 774.62,-132.18"/>
<polygon fill="midnightblue" stroke="midnightblue" points="774.82,-135.68 784.82,-132.19 774.83,-128.68 774.82,-135.68"/>
</g>
<!-- Node32&#45;&gt;Node33 -->
<g id="edge56" class="edge">
<title>Node32&#45;&gt;Node33</title>
<path fill="none" stroke="midnightblue" d="M565.74,-142.49C587.32,-122.97 636.12,-78.82 662.78,-54.7"/>
<polygon fill="midnightblue" stroke="midnightblue" points="665.22,-57.21 670.28,-47.9 660.52,-52.02 665.22,-57.21"/>
</g>
<!-- Node34&#45;&gt;Node33 -->
<g id="edge64" class="edge">
<title>Node34&#45;&gt;Node33</title>
<path fill="none" stroke="midnightblue" d="M475.07,-38.21C519.69,-38.21 589.92,-38.21 635.72,-38.21"/>
<polygon fill="midnightblue" stroke="midnightblue" points="635.95,-41.71 645.95,-38.21 635.95,-34.71 635.95,-41.71"/>
</g>
<!-- Node35&#45;&gt;Node11 -->
<g id="edge67" class="edge">
<title>Node35&#45;&gt;Node11</title>
<path fill="none" stroke="midnightblue" d="M316.76,-190.6C393.06,-146.92 720.32,25.04 922,-114.21 959.16,-139.86 933.16,-171.5 958,-209.21 968.31,-224.86 983.62,-239.49 996.05,-250"/>
<polygon fill="midnightblue" stroke="midnightblue" points="994.15,-252.97 1004.11,-256.59 998.58,-247.55 994.15,-252.97"/>
</g>
<!-- Node35&#45;&gt;Node12 -->
<g id="edge68" class="edge">
<title>Node35&#45;&gt;Node12</title>
<path fill="none" stroke="midnightblue" d="M311.24,-209.88C322.68,-220.6 340.8,-238.83 353,-257.21 386.73,-308.01 412.78,-375.76 424.39,-408.65"/>
<polygon fill="midnightblue" stroke="midnightblue" points="421.18,-410.09 427.76,-418.39 427.8,-407.8 421.18,-410.09"/>
</g>
<!-- Node35&#45;&gt;Node31 -->
<g id="edge66" class="edge">
<title>Node35&#45;&gt;Node31</title>
<path fill="none" stroke="midnightblue" d="M353.2,-200.21C366.58,-200.21 380.68,-200.21 393.15,-200.21"/>
<polygon fill="midnightblue" stroke="midnightblue" points="393.2,-203.71 403.2,-200.21 393.2,-196.71 393.2,-203.71"/>
</g>
<!-- Node36&#45;&gt;Node2 -->
<g id="edge72" class="edge">
<title>Node36&#45;&gt;Node2</title>
<path fill="none" stroke="midnightblue" d="M180.13,-521.63C203.66,-514.39 244.92,-501.69 271.98,-493.37"/>
<polygon fill="midnightblue" stroke="midnightblue" points="273.06,-496.7 281.59,-490.41 271,-490.01 273.06,-496.7"/>
</g>
<!-- Node36&#45;&gt;Node13 -->
<g id="edge73" class="edge">
<title>Node36&#45;&gt;Node13</title>
<path fill="none" stroke="midnightblue" d="M163.53,-536.77C168.75,-565.89 188.84,-653.56 246,-688.21 379.4,-769.07 446.95,-730.89 597,-688.21 621.5,-681.24 645.84,-664.86 661.96,-652.33"/>
<polygon fill="midnightblue" stroke="midnightblue" points="664.42,-654.84 670.02,-645.85 660.04,-649.39 664.42,-654.84"/>
</g>
<!-- Node36&#45;&gt;Node24 -->
<g id="edge74" class="edge">
<title>Node36&#45;&gt;Node24</title>
<path fill="none" stroke="midnightblue" d="M161.48,-536.8C159.87,-576.98 159.56,-732.85 246,-802.21 327.82,-867.86 464.57,-846.97 523.98,-833.63"/>
<polygon fill="midnightblue" stroke="midnightblue" points="524.88,-837.02 533.82,-831.33 523.28,-830.2 524.88,-837.02"/>
</g>
</g>
</svg>
        <g id="navigator" transform="translate(0 0)" fill="#404254">
                <rect fill="#f2f5e9" fill-opacity="0.5" stroke="#606060" stroke-width=".5" x="0" y="0" width="60" height="60"/>
                <use id="zoomplus" xlink:href="#zoomPlus" x="17" y="9" onmousedown="handleZoom(evt,'in')"/>
                <use id="zoomminus" xlink:href="#zoomMin" x="42" y="9" onmousedown="handleZoom(evt,'out')"/>
                <use id="reset" xlink:href="#resetDef" x="30" y="36" onmousedown="handleReset()"/>
                <g id="arrowUp" xlink:href="#dirArrow" transform="translate(30 24)" onmousedown="handlePan(0,-1)">
                  <use xlink:href="#rim" fill="#404040">
                        <set attributeName="fill" to="#808080" begin="arrowUp.mouseover" end="arrowUp.mouseout"/>
                  </use>
                  <path fill="none" stroke="white" stroke-width="1.5" d="M0,-3.0v7 M-2.5,-0.5L0,-3.0L2.5,-0.5"/>
                </g>
                <g id="arrowRight" xlink:href="#dirArrow" transform="rotate(90) translate(36 -43)" onmousedown="handlePan(1,0)">
                  <use xlink:href="#rim" fill="#404040">
                        <set attributeName="fill" to="#808080" begin="arrowRight.mouseover" end="arrowRight.mouseout"/>
                  </use>
                  <path fill="none" stroke="white" stroke-width="1.5" d="M0,-3.0v7 M-2.5,-0.5L0,-3.0L2.5,-0.5"/>
                </g>
                <g id="arrowDown" xlink:href="#dirArrow" transform="rotate(180) translate(-30 -48)" onmousedown="handlePan(0,1)">
                  <use xlink:href="#rim" fill="#404040">
                        <set attributeName="fill" to="#808080" begin="arrowDown.mouseover" end="arrowDown.mouseout"/>
                  </use>
                  <path fill="none" stroke="white" stroke-width="1.5" d="M0,-3.0v7 M-2.5,-0.5L0,-3.0L2.5,-0.5"/>
                </g>
                <g id="arrowLeft" xlink:href="#dirArrow" transform="rotate(270) translate(-36 17)" onmousedown="handlePan(-1,0)">
                  <use xlink:href="#rim" fill="#404040">
                        <set attributeName="fill" to="#808080" begin="arrowLeft.mouseover" end="arrowLeft.mouseout"/>
                  </use>
                  <path fill="none" stroke="white" stroke-width="1.5" d="M0,-3.0v7 M-2.5,-0.5L0,-3.0L2.5,-0.5"/>
                </g>
        </g>
        <svg viewBox="0 0 15 15" width="100%" height="30px" preserveAspectRatio="xMaxYMin meet">
         <g id="arrow_out" transform="scale(0.3 0.3)">
          <a xlink:href="powerReport_8hpp_a3983fa7e3f0ac4977f27439fb574b389_cgraph_org.svg" target="_base">
           <rect id="button" ry="5" rx="5" y="6" x="6" height="38" width="38"
                fill="#f2f5e9" fill-opacity="0.5" stroke="#606060" stroke-width="1.0"/>
           <path id="arrow"
             d="M 11.500037,31.436501 C 11.940474,20.09759 22.043105,11.32322 32.158766,21.979434 L 37.068811,17.246167 C 37.068811,17.246167 37.088388,32 37.088388,32 L 22.160133,31.978069 C 22.160133,31.978069 26.997745,27.140456 26.997745,27.140456 C 18.528582,18.264221 13.291696,25.230495 11.500037,31.436501 z"
             style="fill:#404040;"/>
          </a>
         </g>
        </svg>
</svg>
