<?xml version="1.0" encoding="UTF-8" standalone="no"?>
<!DOCTYPE svg PUBLIC "-//W3C//DTD SVG 1.1//EN"
 "http://www.w3.org/Graphics/SVG/1.1/DTD/svg11.dtd">
<!-- Generated by graphviz version 2.43.0 (0)
 -->
<!-- Title: roundOff Pages: 1 -->
<svg width="1067pt" height="512pt"
 viewBox="0.00 0.00 1067.00 512.00" xmlns="http://www.w3.org/2000/svg" xmlns:xlink="http://www.w3.org/1999/xlink">
<g id="graph0" class="graph" transform="scale(1 1) rotate(0) translate(4 508)">
<title>roundOff</title>
<!-- Node1 -->
<g id="node1" class="node">
<title>Node1</title>
<g id="a_node1"><a xlink:title=" ">
<polygon fill="#bfbfbf" stroke="black" points="0,-152.5 0,-171.5 59,-171.5 59,-152.5 0,-152.5"/>
<text text-anchor="middle" x="29.5" y="-159.5" font-family="Helvetica,sans-Serif" font-size="10.00">roundOff</text>
</a>
</g>
</g>
<!-- Node2 -->
<g id="node2" class="node">
<title>Node2</title>
<g id="a_node2"><a xlink:href="basicArithm_8hpp.html#a22524b6e1ea1e62b578978978521148e" target="_top" xlink:title="Adds two string representations of numbers, and performs with the column method.">
<polygon fill="none" stroke="black" points="95,-285.5 95,-304.5 130,-304.5 130,-285.5 95,-285.5"/>
<text text-anchor="middle" x="112.5" y="-292.5" font-family="Helvetica,sans-Serif" font-size="10.00">add</text>
</a>
</g>
</g>
<!-- Node1&#45;&gt;Node2 -->
<g id="edge1" class="edge">
<title>Node1&#45;&gt;Node2</title>
<path fill="none" stroke="midnightblue" d="M36.33,-171.57C49.69,-193.51 82.73,-247.77 100.22,-276.49"/>
<polygon fill="midnightblue" stroke="midnightblue" points="97.32,-278.44 105.51,-285.16 103.3,-274.8 97.32,-278.44"/>
</g>
<!-- Node12 -->
<g id="node12" class="node">
<title>Node12</title>
<g id="a_node12"><a xlink:href="util_8hpp.html#a3cd8277bb803a7241ab377e88d8c6876" target="_top" xlink:title=" ">
<polygon fill="none" stroke="black" points="523,-38.5 523,-57.5 600,-57.5 600,-38.5 523,-38.5"/>
<text text-anchor="middle" x="561.5" y="-45.5" font-family="Helvetica,sans-Serif" font-size="10.00">splitNumber</text>
</a>
</g>
</g>
<!-- Node1&#45;&gt;Node12 -->
<g id="edge44" class="edge">
<title>Node1&#45;&gt;Node12</title>
<path fill="none" stroke="midnightblue" d="M37.34,-152.28C57.64,-124.71 120.63,-48 193,-48 193,-48 193,-48 287,-48 366.18,-48 458.25,-48 512.82,-48"/>
<polygon fill="midnightblue" stroke="midnightblue" points="512.9,-51.5 522.9,-48 512.9,-44.5 512.9,-51.5"/>
</g>
<!-- Node17 -->
<g id="node17" class="node">
<title>Node17</title>
<g id="a_node17"><a xlink:href="basicArithm_8hpp.html#ad245e4f72a78f746e7e16ae14f21f2e1" target="_top" xlink:title="Compares two string representations of numbers.">
<polygon fill="none" stroke="black" points="369.5,-190.5 369.5,-209.5 428.5,-209.5 428.5,-190.5 369.5,-190.5"/>
<text text-anchor="middle" x="399" y="-197.5" font-family="Helvetica,sans-Serif" font-size="10.00">compare</text>
</a>
</g>
</g>
<!-- Node1&#45;&gt;Node17 -->
<g id="edge43" class="edge">
<title>Node1&#45;&gt;Node17</title>
<path fill="none" stroke="midnightblue" d="M59.03,-164.95C124.37,-171.71 284.93,-188.31 359.18,-195.99"/>
<polygon fill="midnightblue" stroke="midnightblue" points="359.18,-199.5 369.49,-197.05 359.9,-192.54 359.18,-199.5"/>
</g>
<!-- Node3 -->
<g id="node3" class="node">
<title>Node3</title>
<g id="a_node3"><a xlink:href="util_8hpp.html#a183c024df291889f90106e47bb64fe0b" target="_top" xlink:title="Checks if a given string is a zero string.">
<polygon fill="none" stroke="black" points="983,-304.5 983,-323.5 1059,-323.5 1059,-304.5 983,-304.5"/>
<text text-anchor="middle" x="1021" y="-311.5" font-family="Helvetica,sans-Serif" font-size="10.00">isZeroString</text>
</a>
</g>
</g>
<!-- Node2&#45;&gt;Node3 -->
<g id="edge2" class="edge">
<title>Node2&#45;&gt;Node3</title>
<path fill="none" stroke="midnightblue" d="M116.1,-304.52C127.88,-345.41 180.33,-504 285,-504 285,-504 285,-504 736,-504 834,-504 870.19,-500.86 947,-440 982.68,-411.72 1004.29,-360.87 1013.96,-333.21"/>
<polygon fill="midnightblue" stroke="midnightblue" points="1017.35,-334.11 1017.19,-323.52 1010.71,-331.9 1017.35,-334.11"/>
</g>
<!-- Node4 -->
<g id="node4" class="node">
<title>Node4</title>
<g id="a_node4"><a xlink:href="addReport_8cpp.html#ad77bd53c675044525fecd7273407c4a6" target="_top" xlink:title="Reports the sum of two number strings.">
<polygon fill="none" stroke="black" points="366.5,-436.5 366.5,-455.5 431.5,-455.5 431.5,-436.5 366.5,-436.5"/>
<text text-anchor="middle" x="399" y="-443.5" font-family="Helvetica,sans-Serif" font-size="10.00">reportAdd</text>
</a>
</g>
</g>
<!-- Node2&#45;&gt;Node4 -->
<g id="edge3" class="edge">
<title>Node2&#45;&gt;Node4</title>
<path fill="none" stroke="midnightblue" d="M119.14,-304.6C127.71,-318.47 145.23,-344.18 166,-360 223.91,-404.09 306.8,-427.49 356.23,-438.28"/>
<polygon fill="midnightblue" stroke="midnightblue" points="355.74,-441.75 366.25,-440.39 357.19,-434.9 355.74,-441.75"/>
</g>
<!-- Node10 -->
<g id="node10" class="node">
<title>Node10</title>
<g id="a_node10"><a xlink:href="namespaceformats.html#a296119cbd1b0c858739af6b363fb262a" target="_top" xlink:title="Set the text format to reverse.">
<polygon fill="none" stroke="black" points="350,-398.5 350,-417.5 448,-417.5 448,-398.5 350,-398.5"/>
<text text-anchor="middle" x="399" y="-405.5" font-family="Helvetica,sans-Serif" font-size="10.00">formats::reverse</text>
</a>
</g>
</g>
<!-- Node2&#45;&gt;Node10 -->
<g id="edge11" class="edge">
<title>Node2&#45;&gt;Node10</title>
<path fill="none" stroke="midnightblue" d="M126.7,-304.67C151.28,-322.18 206.24,-359.2 258,-379 284.09,-388.98 314.31,-395.79 339.97,-400.29"/>
<polygon fill="midnightblue" stroke="midnightblue" points="339.49,-403.76 349.93,-401.96 340.65,-396.86 339.49,-403.76"/>
</g>
<!-- Node2&#45;&gt;Node12 -->
<g id="edge13" class="edge">
<title>Node2&#45;&gt;Node12</title>
<path fill="none" stroke="midnightblue" d="M121.23,-285.41C148.42,-252.5 243.71,-143.75 350,-100 403.82,-77.85 469.41,-63.49 512.92,-55.58"/>
<polygon fill="midnightblue" stroke="midnightblue" points="513.71,-59 522.94,-53.81 512.49,-52.11 513.71,-59"/>
</g>
<!-- Node16 -->
<g id="node16" class="node">
<title>Node16</title>
<g id="a_node16"><a xlink:href="basicArithm_8hpp.html#a08faec0b8e863df19e3f978758166482" target="_top" xlink:title="Subtracts one string representation of a number from another string representation of a number.">
<polygon fill="none" stroke="black" points="166,-266.5 166,-285.5 222,-285.5 222,-266.5 166,-266.5"/>
<text text-anchor="middle" x="194" y="-273.5" font-family="Helvetica,sans-Serif" font-size="10.00">subtract</text>
</a>
</g>
</g>
<!-- Node2&#45;&gt;Node16 -->
<g id="edge20" class="edge">
<title>Node2&#45;&gt;Node16</title>
<path fill="none" stroke="midnightblue" d="M129.97,-285.47C137.51,-282.82 146.76,-280.22 155.84,-278.14"/>
<polygon fill="midnightblue" stroke="midnightblue" points="156.84,-281.51 165.91,-276.04 155.4,-274.66 156.84,-281.51"/>
</g>
<!-- Node4&#45;&gt;Node3 -->
<g id="edge4" class="edge">
<title>Node4&#45;&gt;Node3</title>
<path fill="none" stroke="midnightblue" d="M431.65,-452.28C519.99,-468.09 774.08,-501.64 947,-404 976.49,-387.35 998.76,-353.68 1010.56,-332.57"/>
<polygon fill="midnightblue" stroke="midnightblue" points="1013.72,-334.08 1015.36,-323.61 1007.55,-330.77 1013.72,-334.08"/>
</g>
<!-- Node5 -->
<g id="node5" class="node">
<title>Node5</title>
<g id="a_node5"><a xlink:href="symbols_8hpp.html#a4c2486dd425b34a3a7b6f64db79add2c" target="_top" xlink:title="Create a subscript string from a normal string.">
<polygon fill="none" stroke="black" points="517,-342.5 517,-361.5 606,-361.5 606,-342.5 517,-342.5"/>
<text text-anchor="middle" x="561.5" y="-349.5" font-family="Helvetica,sans-Serif" font-size="10.00">makeSubscript</text>
</a>
</g>
</g>
<!-- Node4&#45;&gt;Node5 -->
<g id="edge5" class="edge">
<title>Node4&#45;&gt;Node5</title>
<path fill="none" stroke="midnightblue" d="M427.11,-436.43C434.05,-433.66 441.41,-430.45 448,-427 481.63,-409.39 517.66,-384.1 539.65,-367.86"/>
<polygon fill="midnightblue" stroke="midnightblue" points="541.97,-370.49 547.89,-361.71 537.78,-364.88 541.97,-370.49"/>
</g>
<!-- Node7 -->
<g id="node7" class="node">
<title>Node7</title>
<g id="a_node7"><a xlink:href="util_8hpp.html#afbed3096b7064ba07c83c6c15212b793" target="_top" xlink:title="Standardizes a number string.">
<polygon fill="none" stroke="black" points="505,-190.5 505,-209.5 618,-209.5 618,-190.5 505,-190.5"/>
<text text-anchor="middle" x="561.5" y="-197.5" font-family="Helvetica,sans-Serif" font-size="10.00">standardizeNumber</text>
</a>
</g>
</g>
<!-- Node4&#45;&gt;Node7 -->
<g id="edge7" class="edge">
<title>Node4&#45;&gt;Node7</title>
<path fill="none" stroke="midnightblue" d="M431.8,-438.53C437.9,-435.79 443.72,-432.07 448,-427 497.83,-367.99 442.35,-322.04 484,-257 495.68,-238.76 515.39,-224.28 531.88,-214.48"/>
<polygon fill="midnightblue" stroke="midnightblue" points="533.66,-217.49 540.64,-209.52 530.21,-211.4 533.66,-217.49"/>
</g>
<!-- Node6 -->
<g id="node6" class="node">
<title>Node6</title>
<g id="a_node6"><a xlink:href="util_8hpp.html#a2c093cfa77eddb403db19eaecf57fa6e" target="_top" xlink:title="Converts a Unicode character to UTF&#45;8 encoding.">
<polygon fill="none" stroke="black" points="692,-342.5 692,-361.5 778,-361.5 778,-342.5 692,-342.5"/>
<text text-anchor="middle" x="735" y="-349.5" font-family="Helvetica,sans-Serif" font-size="10.00">unicodeToUtf8</text>
</a>
</g>
</g>
<!-- Node5&#45;&gt;Node6 -->
<g id="edge6" class="edge">
<title>Node5&#45;&gt;Node6</title>
<path fill="none" stroke="midnightblue" d="M606.22,-352C629.23,-352 657.61,-352 681.77,-352"/>
<polygon fill="midnightblue" stroke="midnightblue" points="681.84,-355.5 691.84,-352 681.84,-348.5 681.84,-355.5"/>
</g>
<!-- Node8 -->
<g id="node8" class="node">
<title>Node8</title>
<g id="a_node8"><a xlink:href="util_8cpp.html#a32344e51c6ae485367b4fbf6bb535742" target="_top" xlink:title="Simplifies a string with non&#45;standard polarity (e.g., –1, —1, etc.).">
<polygon fill="none" stroke="black" points="688.5,-190.5 688.5,-209.5 781.5,-209.5 781.5,-190.5 688.5,-190.5"/>
<text text-anchor="middle" x="735" y="-197.5" font-family="Helvetica,sans-Serif" font-size="10.00">simplifyPolarity</text>
</a>
</g>
</g>
<!-- Node7&#45;&gt;Node8 -->
<g id="edge8" class="edge">
<title>Node7&#45;&gt;Node8</title>
<path fill="none" stroke="midnightblue" d="M618.18,-200C637.42,-200 658.96,-200 678.2,-200"/>
<polygon fill="midnightblue" stroke="midnightblue" points="678.33,-203.5 688.33,-200 678.33,-196.5 678.33,-203.5"/>
</g>
<!-- Node9 -->
<g id="node9" class="node">
<title>Node9</title>
<g id="a_node9"><a xlink:href="util_8cpp.html#a70584872ee14fa0befa8f25788f98a2b" target="_top" xlink:title="Simplifies a string that represents a number with non&#45;standard polarity.">
<polygon fill="none" stroke="black" points="831,-190.5 831,-209.5 947,-209.5 947,-190.5 831,-190.5"/>
<text text-anchor="middle" x="889" y="-197.5" font-family="Helvetica,sans-Serif" font-size="10.00">simplifyZeroPolarity</text>
</a>
</g>
</g>
<!-- Node8&#45;&gt;Node9 -->
<g id="edge9" class="edge">
<title>Node8&#45;&gt;Node9</title>
<path fill="none" stroke="midnightblue" d="M781.61,-200C793.94,-200 807.55,-200 820.8,-200"/>
<polygon fill="midnightblue" stroke="midnightblue" points="820.84,-203.5 830.84,-200 820.84,-196.5 820.84,-203.5"/>
</g>
<!-- Node9&#45;&gt;Node3 -->
<g id="edge10" class="edge">
<title>Node9&#45;&gt;Node3</title>
<path fill="none" stroke="midnightblue" d="M920.19,-209.51C929.31,-213.2 939.01,-218.01 947,-224 973.55,-243.93 996.2,-275.56 1008.95,-295.52"/>
<polygon fill="midnightblue" stroke="midnightblue" points="1006.14,-297.63 1014.39,-304.29 1012.09,-293.94 1006.14,-297.63"/>
</g>
<!-- Node11 -->
<g id="node11" class="node">
<title>Node11</title>
<g id="a_node11"><a xlink:href="colors_8cpp.html#aea0b5c095796ad31bd8aa86853337868" target="_top" xlink:title="Check if the output stream is a terminal.">
<polygon fill="none" stroke="black" points="528,-418.5 528,-437.5 595,-437.5 595,-418.5 528,-418.5"/>
<text text-anchor="middle" x="561.5" y="-425.5" font-family="Helvetica,sans-Serif" font-size="10.00">isTerminal</text>
</a>
</g>
</g>
<!-- Node10&#45;&gt;Node11 -->
<g id="edge12" class="edge">
<title>Node10&#45;&gt;Node11</title>
<path fill="none" stroke="midnightblue" d="M448.16,-414C470.22,-416.75 496.15,-419.98 517.54,-422.65"/>
<polygon fill="midnightblue" stroke="midnightblue" points="517.28,-426.14 527.64,-423.9 518.15,-419.2 517.28,-426.14"/>
</g>
<!-- Node12&#45;&gt;Node3 -->
<g id="edge14" class="edge">
<title>Node12&#45;&gt;Node3</title>
<path fill="none" stroke="midnightblue" d="M600.13,-44.82C647.3,-42.21 729.87,-42.3 795,-67 873.96,-96.95 891.66,-117.22 947,-181 977.93,-216.65 1001.33,-267.57 1012.59,-294.9"/>
<polygon fill="midnightblue" stroke="midnightblue" points="1009.44,-296.47 1016.41,-304.45 1015.94,-293.87 1009.44,-296.47"/>
</g>
<!-- Node12&#45;&gt;Node8 -->
<g id="edge17" class="edge">
<title>Node12&#45;&gt;Node8</title>
<path fill="none" stroke="midnightblue" d="M600.34,-49.91C613.98,-52.37 628.56,-57.32 639,-67 676.41,-101.69 640.16,-138.73 675,-176 678.59,-179.84 682.88,-183.08 687.49,-185.81"/>
<polygon fill="midnightblue" stroke="midnightblue" points="686.14,-189.05 696.64,-190.47 689.31,-182.81 686.14,-189.05"/>
</g>
<!-- Node12&#45;&gt;Node9 -->
<g id="edge18" class="edge">
<title>Node12&#45;&gt;Node9</title>
<path fill="none" stroke="midnightblue" d="M600.13,-50.68C613.58,-53.25 628.09,-58.07 639,-67 667.92,-90.67 646.29,-119.07 675,-143 687.4,-153.34 776,-174.81 834.95,-188.25"/>
<polygon fill="midnightblue" stroke="midnightblue" points="834.34,-191.7 844.86,-190.5 835.89,-184.87 834.34,-191.7"/>
</g>
<!-- Node13 -->
<g id="node13" class="node">
<title>Node13</title>
<g id="a_node13"><a xlink:href="util_8cpp.html#a8056dcad90ba9582ba25405a95c2f1e4" target="_top" xlink:title=" ">
<polygon fill="none" stroke="black" points="675,-0.5 675,-19.5 795,-19.5 795,-0.5 675,-0.5"/>
<text text-anchor="middle" x="735" y="-7.5" font-family="Helvetica,sans-Serif" font-size="10.00">removeLeadingZeros</text>
</a>
</g>
</g>
<!-- Node12&#45;&gt;Node13 -->
<g id="edge15" class="edge">
<title>Node12&#45;&gt;Node13</title>
<path fill="none" stroke="midnightblue" d="M600.14,-39.66C623.92,-34.39 655,-27.5 681.23,-21.69"/>
<polygon fill="midnightblue" stroke="midnightblue" points="682.01,-25.11 691.01,-19.52 680.49,-18.27 682.01,-25.11"/>
</g>
<!-- Node14 -->
<g id="node14" class="node">
<title>Node14</title>
<g id="a_node14"><a xlink:href="util_8cpp.html#a7f0f5e18cd1b1507ace9b814e6286dda" target="_top" xlink:title=" ">
<polygon fill="none" stroke="black" points="676.5,-114.5 676.5,-133.5 793.5,-133.5 793.5,-114.5 676.5,-114.5"/>
<text text-anchor="middle" x="735" y="-121.5" font-family="Helvetica,sans-Serif" font-size="10.00">removeTrailingZeros</text>
</a>
</g>
</g>
<!-- Node12&#45;&gt;Node14 -->
<g id="edge16" class="edge">
<title>Node12&#45;&gt;Node14</title>
<path fill="none" stroke="midnightblue" d="M600.32,-52.97C613.2,-55.79 627.3,-60.18 639,-67 659.1,-78.72 655.31,-92.6 675,-105 678.19,-107.01 681.62,-108.83 685.15,-110.46"/>
<polygon fill="midnightblue" stroke="midnightblue" points="684.1,-113.81 694.67,-114.39 686.76,-107.34 684.1,-113.81"/>
</g>
<!-- Node15 -->
<g id="node15" class="node">
<title>Node15</title>
<g id="a_node15"><a xlink:href="util_8hpp.html#a771e8f4ac1c095d4c0fef2c966cd69d7" target="_top" xlink:title="Splits a string into substrings based on a separator.">
<polygon fill="none" stroke="black" points="716,-76.5 716,-95.5 754,-95.5 754,-76.5 716,-76.5"/>
<text text-anchor="middle" x="735" y="-83.5" font-family="Helvetica,sans-Serif" font-size="10.00">split</text>
</a>
</g>
</g>
<!-- Node12&#45;&gt;Node15 -->
<g id="edge19" class="edge">
<title>Node12&#45;&gt;Node15</title>
<path fill="none" stroke="midnightblue" d="M600.14,-56.34C632.1,-63.42 677.26,-73.43 706.08,-79.81"/>
<polygon fill="midnightblue" stroke="midnightblue" points="705.39,-83.24 715.91,-81.99 706.9,-76.41 705.39,-83.24"/>
</g>
<!-- Node16&#45;&gt;Node2 -->
<g id="edge21" class="edge">
<title>Node16&#45;&gt;Node2</title>
<path fill="none" stroke="midnightblue" d="M176.44,-285.56C165.99,-289.23 152.27,-292.79 140.3,-295.02"/>
<polygon fill="midnightblue" stroke="midnightblue" points="139.68,-291.57 130.36,-296.61 140.79,-298.48 139.68,-291.57"/>
</g>
<!-- Node16&#45;&gt;Node3 -->
<g id="edge28" class="edge">
<title>Node16&#45;&gt;Node3</title>
<path fill="none" stroke="midnightblue" d="M222.28,-267.57C260.97,-256.37 334.18,-238 398,-238 398,-238 398,-238 736,-238 831.22,-238 938.49,-278.36 989.67,-300.26"/>
<polygon fill="midnightblue" stroke="midnightblue" points="988.57,-303.6 999.14,-304.37 991.36,-297.18 988.57,-303.6"/>
</g>
<!-- Node16&#45;&gt;Node10 -->
<g id="edge33" class="edge">
<title>Node16&#45;&gt;Node10</title>
<path fill="none" stroke="midnightblue" d="M200.82,-285.58C210.76,-301.23 232.43,-332.38 258,-351 286.18,-371.52 322.81,-386.09 351.53,-395.36"/>
<polygon fill="midnightblue" stroke="midnightblue" points="350.75,-398.79 361.34,-398.42 352.83,-392.1 350.75,-398.79"/>
</g>
<!-- Node16&#45;&gt;Node12 -->
<g id="edge34" class="edge">
<title>Node16&#45;&gt;Node12</title>
<path fill="none" stroke="midnightblue" d="M202.51,-266.04C213.71,-251.53 235.86,-224.1 258,-204 295.26,-170.17 305.74,-161.95 350,-138 391.08,-115.76 408.32,-124.65 448,-100 466.44,-88.55 464.88,-77.27 484,-67 492.95,-62.19 503.15,-58.58 513.11,-55.86"/>
<polygon fill="midnightblue" stroke="midnightblue" points="514.07,-59.23 522.94,-53.44 512.39,-52.44 514.07,-59.23"/>
</g>
<!-- Node16&#45;&gt;Node17 -->
<g id="edge22" class="edge">
<title>Node16&#45;&gt;Node17</title>
<path fill="none" stroke="midnightblue" d="M203.74,-266.16C215.01,-254.15 235.83,-234.17 258,-224 290.14,-209.26 330.2,-203.5 359.22,-201.29"/>
<polygon fill="midnightblue" stroke="midnightblue" points="359.63,-204.77 369.38,-200.63 359.17,-197.79 359.63,-204.77"/>
</g>
<!-- Node21 -->
<g id="node21" class="node">
<title>Node21</title>
<g id="a_node21"><a xlink:href="subtractReport_8cpp.html#ad21f3d209885b1c419ff73800bb3b33b" target="_top" xlink:title="Reports a subtraction operation to the user.">
<polygon fill="none" stroke="black" points="356,-304.5 356,-323.5 442,-323.5 442,-304.5 356,-304.5"/>
<text text-anchor="middle" x="399" y="-311.5" font-family="Helvetica,sans-Serif" font-size="10.00">reportSubtract</text>
</a>
</g>
</g>
<!-- Node16&#45;&gt;Node21 -->
<g id="edge29" class="edge">
<title>Node16&#45;&gt;Node21</title>
<path fill="none" stroke="midnightblue" d="M222.03,-279.81C246.2,-283.34 282.57,-288.94 314,-295 325.24,-297.17 337.27,-299.74 348.62,-302.28"/>
<polygon fill="midnightblue" stroke="midnightblue" points="347.84,-305.69 358.37,-304.49 349.39,-298.86 347.84,-305.69"/>
</g>
<!-- Node24 -->
<g id="node24" class="node">
<title>Node24</title>
<g id="a_node24"><a xlink:href="subtract_8cpp.html#ac94acf58b23f19e226b9263fa3a2b0da" target="_top" xlink:title="Subtracts one string representation of a number from another string representation of a number.">
<polygon fill="none" stroke="black" points="258,-304.5 258,-323.5 314,-323.5 314,-304.5 258,-304.5"/>
<text text-anchor="middle" x="286" y="-311.5" font-family="Helvetica,sans-Serif" font-size="10.00">subtract</text>
</a>
</g>
</g>
<!-- Node16&#45;&gt;Node24 -->
<g id="edge35" class="edge">
<title>Node16&#45;&gt;Node24</title>
<path fill="none" stroke="midnightblue" d="M217.71,-285.59C228.37,-290.09 241.26,-295.53 252.9,-300.44"/>
<polygon fill="midnightblue" stroke="midnightblue" points="251.72,-303.75 262.3,-304.41 254.45,-297.3 251.72,-303.75"/>
</g>
<!-- Node17&#45;&gt;Node7 -->
<g id="edge27" class="edge">
<title>Node17&#45;&gt;Node7</title>
<path fill="none" stroke="midnightblue" d="M428.69,-200C447.07,-200 471.71,-200 494.71,-200"/>
<polygon fill="midnightblue" stroke="midnightblue" points="494.78,-203.5 504.78,-200 494.78,-196.5 494.78,-203.5"/>
</g>
<!-- Node17&#45;&gt;Node12 -->
<g id="edge26" class="edge">
<title>Node17&#45;&gt;Node12</title>
<path fill="none" stroke="midnightblue" d="M428.45,-190.32C435.62,-186.76 442.76,-182.06 448,-176 481.37,-137.41 446.59,-101.69 484,-67 491.91,-59.67 502.2,-55.05 512.65,-52.17"/>
<polygon fill="midnightblue" stroke="midnightblue" points="513.67,-55.53 522.66,-49.91 512.13,-48.7 513.67,-55.53"/>
</g>
<!-- Node18 -->
<g id="node18" class="node">
<title>Node18</title>
<g id="a_node18"><a xlink:href="comparisonReport_8cpp.html#a9837660fa80278748f7f9bc397f5fba4" target="_top" xlink:title="Reports the comparison based on the integer. If the integer parts are of different length,...">
<polygon fill="none" stroke="black" points="487,-114.5 487,-133.5 636,-133.5 636,-114.5 487,-114.5"/>
<text text-anchor="middle" x="561.5" y="-121.5" font-family="Helvetica,sans-Serif" font-size="10.00">reportComparisonAtInteger</text>
</a>
</g>
</g>
<!-- Node17&#45;&gt;Node18 -->
<g id="edge23" class="edge">
<title>Node17&#45;&gt;Node18</title>
<path fill="none" stroke="midnightblue" d="M422.23,-190.47C430.6,-186.48 440.02,-181.49 448,-176 465.88,-163.69 464.88,-153.27 484,-143 488.3,-140.69 492.88,-138.66 497.58,-136.87"/>
<polygon fill="midnightblue" stroke="midnightblue" points="499.03,-140.08 507.36,-133.53 496.76,-133.45 499.03,-140.08"/>
</g>
<!-- Node19 -->
<g id="node19" class="node">
<title>Node19</title>
<g id="a_node19"><a xlink:href="comparisonReport_8cpp.html#adc6ac398c16b4d30ab55b0ec5ceef9f3" target="_top" xlink:title="Compares each digit and see if one is larger.">
<polygon fill="none" stroke="black" points="491.5,-76.5 491.5,-95.5 631.5,-95.5 631.5,-76.5 491.5,-76.5"/>
<text text-anchor="middle" x="561.5" y="-83.5" font-family="Helvetica,sans-Serif" font-size="10.00">reportComparisonByDigit</text>
</a>
</g>
</g>
<!-- Node17&#45;&gt;Node19 -->
<g id="edge24" class="edge">
<title>Node17&#45;&gt;Node19</title>
<path fill="none" stroke="midnightblue" d="M426.87,-190.27C434.36,-186.63 442.05,-181.91 448,-176 473.09,-151.05 456.32,-127.04 484,-105 486.18,-103.26 488.5,-101.68 490.93,-100.24"/>
<polygon fill="midnightblue" stroke="midnightblue" points="492.72,-103.25 500.08,-95.63 489.57,-97 492.72,-103.25"/>
</g>
<!-- Node20 -->
<g id="node20" class="node">
<title>Node20</title>
<g id="a_node20"><a xlink:href="comparisonReport_8cpp.html#a8bdddfcaa5a1d0339df5705ec6ff2aff" target="_top" xlink:title="Reports the comparison based on the polarity. If they are of different polarity, the one that is posi...">
<polygon fill="none" stroke="black" points="484,-152.5 484,-171.5 639,-171.5 639,-152.5 484,-152.5"/>
<text text-anchor="middle" x="561.5" y="-159.5" font-family="Helvetica,sans-Serif" font-size="10.00">reportComparisonByPolarity</text>
</a>
</g>
</g>
<!-- Node17&#45;&gt;Node20 -->
<g id="edge25" class="edge">
<title>Node17&#45;&gt;Node20</title>
<path fill="none" stroke="midnightblue" d="M428.69,-193.21C451.32,-187.85 483.43,-180.25 510.29,-173.89"/>
<polygon fill="midnightblue" stroke="midnightblue" points="511.37,-177.23 520.3,-171.52 509.76,-170.42 511.37,-177.23"/>
</g>
<!-- Node21&#45;&gt;Node5 -->
<g id="edge30" class="edge">
<title>Node21&#45;&gt;Node5</title>
<path fill="none" stroke="midnightblue" d="M440.5,-323.59C461.68,-328.6 487.8,-334.79 510.26,-340.11"/>
<polygon fill="midnightblue" stroke="midnightblue" points="509.75,-343.58 520.29,-342.48 511.37,-336.77 509.75,-343.58"/>
</g>
<!-- Node22 -->
<g id="node22" class="node">
<title>Node22</title>
<g id="a_node22"><a xlink:href="util_8hpp.html#a8056dcad90ba9582ba25405a95c2f1e4" target="_top" xlink:title=" ">
<polygon fill="none" stroke="black" points="501.5,-304.5 501.5,-323.5 621.5,-323.5 621.5,-304.5 501.5,-304.5"/>
<text text-anchor="middle" x="561.5" y="-311.5" font-family="Helvetica,sans-Serif" font-size="10.00">removeLeadingZeros</text>
</a>
</g>
</g>
<!-- Node21&#45;&gt;Node22 -->
<g id="edge31" class="edge">
<title>Node21&#45;&gt;Node22</title>
<path fill="none" stroke="midnightblue" d="M442.17,-314C457.17,-314 474.48,-314 491.15,-314"/>
<polygon fill="midnightblue" stroke="midnightblue" points="491.42,-317.5 501.42,-314 491.42,-310.5 491.42,-317.5"/>
</g>
<!-- Node23 -->
<g id="node23" class="node">
<title>Node23</title>
<g id="a_node23"><a xlink:href="util_8hpp.html#ac87bf229222a2a4f32b8626281c6c282" target="_top" xlink:title=" ">
<polygon fill="none" stroke="black" points="502,-266.5 502,-285.5 621,-285.5 621,-266.5 502,-266.5"/>
<text text-anchor="middle" x="561.5" y="-273.5" font-family="Helvetica,sans-Serif" font-size="10.00">replaceLeadingZeros</text>
</a>
</g>
</g>
<!-- Node21&#45;&gt;Node23 -->
<g id="edge32" class="edge">
<title>Node21&#45;&gt;Node23</title>
<path fill="none" stroke="midnightblue" d="M440.5,-304.41C461.68,-299.4 487.8,-293.21 510.26,-287.89"/>
<polygon fill="midnightblue" stroke="midnightblue" points="511.37,-291.23 520.29,-285.52 509.75,-284.42 511.37,-291.23"/>
</g>
<!-- Node24&#45;&gt;Node2 -->
<g id="edge36" class="edge">
<title>Node24&#45;&gt;Node2</title>
<path fill="none" stroke="midnightblue" d="M257.8,-310.99C225.58,-307.42 172.25,-301.51 140.24,-297.96"/>
<polygon fill="midnightblue" stroke="midnightblue" points="140.58,-294.48 130.26,-296.86 139.81,-301.44 140.58,-294.48"/>
</g>
<!-- Node24&#45;&gt;Node3 -->
<g id="edge38" class="edge">
<title>Node24&#45;&gt;Node3</title>
<path fill="none" stroke="midnightblue" d="M311.38,-323.53C348.12,-337.31 420.17,-362.12 484,-371 620.91,-390.04 657.84,-388.1 795,-371 861.96,-362.65 937.59,-340.83 981.9,-326.74"/>
<polygon fill="midnightblue" stroke="midnightblue" points="983.22,-330 991.67,-323.6 981.07,-323.33 983.22,-330"/>
</g>
<!-- Node24&#45;&gt;Node10 -->
<g id="edge40" class="edge">
<title>Node24&#45;&gt;Node10</title>
<path fill="none" stroke="midnightblue" d="M293.81,-323.65C304.47,-338.2 326.33,-365.97 350,-384 354.75,-387.62 360.13,-390.93 365.52,-393.85"/>
<polygon fill="midnightblue" stroke="midnightblue" points="364.01,-397.01 374.51,-398.41 367.17,-390.77 364.01,-397.01"/>
</g>
<!-- Node24&#45;&gt;Node12 -->
<g id="edge41" class="edge">
<title>Node24&#45;&gt;Node12</title>
<path fill="none" stroke="midnightblue" d="M289.11,-304.26C294.81,-280.21 312.62,-217.32 350,-181 384.12,-147.86 413.44,-170.68 448,-138 473.71,-113.69 456.32,-89.04 484,-67 492.27,-60.41 502.53,-56.07 512.81,-53.22"/>
<polygon fill="midnightblue" stroke="midnightblue" points="513.68,-56.61 522.61,-50.91 512.08,-49.79 513.68,-56.61"/>
</g>
<!-- Node24&#45;&gt;Node17 -->
<g id="edge37" class="edge">
<title>Node24&#45;&gt;Node17</title>
<path fill="none" stroke="midnightblue" d="M296.46,-304.28C315.3,-284.93 357.72,-241.37 381.33,-217.12"/>
<polygon fill="midnightblue" stroke="midnightblue" points="384.09,-219.3 388.56,-209.69 379.08,-214.42 384.09,-219.3"/>
</g>
<!-- Node24&#45;&gt;Node21 -->
<g id="edge39" class="edge">
<title>Node24&#45;&gt;Node21</title>
<path fill="none" stroke="midnightblue" d="M314.15,-314C323.79,-314 334.97,-314 345.98,-314"/>
<polygon fill="midnightblue" stroke="midnightblue" points="345.98,-317.5 355.98,-314 345.98,-310.5 345.98,-317.5"/>
</g>
<!-- Node24&#45;&gt;Node24 -->
<g id="edge42" class="edge">
<title>Node24&#45;&gt;Node24</title>
<path fill="none" stroke="midnightblue" d="M271.82,-323.76C264.92,-332.57 269.65,-342 286,-342 296.22,-342 301.9,-338.31 303.04,-333.4"/>
<polygon fill="midnightblue" stroke="midnightblue" points="306.38,-332.35 300.18,-323.76 299.66,-334.34 306.38,-332.35"/>
</g>
</g>
</svg>
