<?xml version="1.0" encoding="UTF-8" standalone="no"?>
<!DOCTYPE svg PUBLIC "-//W3C//DTD SVG 1.1//EN"
 "http://www.w3.org/Graphics/SVG/1.1/DTD/svg11.dtd">
<!-- Generated by graphviz version 12.0.0 (20240704.0754)
 -->
<!-- Title: ExampleAssetsBrowser Pages: 1 -->
<svg width="434pt" height="389pt"
 viewBox="0.00 0.00 433.88 389.00" xmlns="http://www.w3.org/2000/svg" xmlns:xlink="http://www.w3.org/1999/xlink">
<g id="graph0" class="graph" transform="scale(1 1) rotate(0) translate(4 385)">
<title>ExampleAssetsBrowser</title>
<!-- Node1 -->
<g id="Node000001" class="node">
<title>Node1</title>
<g id="a_Node000001"><a xlink:title=" ">
<polygon fill="#999999" stroke="#666666" points="322.5,-20.75 191.75,-20.75 191.75,0 322.5,0 322.5,-20.75"/>
<text text-anchor="middle" x="257.12" y="-7.25" font-family="Helvetica,sans-Serif" font-size="10.00">ExampleAssetsBrowser</text>
</a>
</g>
</g>
<!-- Node2 -->
<g id="Node000002" class="node">
<title>Node2</title>
<g id="a_Node000002"><a xlink:href="structImVector.html" target="_top" xlink:title=" ">
<polygon fill="white" stroke="#666666" points="155,-103 3.25,-103 3.25,-82.25 155,-82.25 155,-103"/>
<text text-anchor="middle" x="79.12" y="-89.5" font-family="Helvetica,sans-Serif" font-size="10.00">ImVector&lt; ExampleAsset &gt;</text>
</a>
</g>
</g>
<!-- Node2&#45;&gt;Node1 -->
<g id="edge1_Node000001_Node000002" class="edge">
<title>Node2&#45;&gt;Node1</title>
<g id="a_edge1_Node000001_Node000002"><a xlink:title=" ">
<path fill="none" stroke="#9a32cd" stroke-dasharray="5,2" d="M111.37,-77.09C147.3,-60.89 204.41,-35.14 235.4,-21.17"/>
<polygon fill="#9a32cd" stroke="#9a32cd" points="110.01,-73.86 102.33,-81.16 112.89,-80.24 110.01,-73.86"/>
</a>
</g>
<text text-anchor="middle" x="210.5" y="-48.38" font-family="Helvetica,sans-Serif" font-size="10.00" fill="grey"> Items</text>
</g>
<!-- Node3 -->
<g id="Node000003" class="node">
<title>Node3</title>
<g id="a_Node000003"><a xlink:href="structExampleAsset.html" target="_top" xlink:title=" ">
<polygon fill="white" stroke="#666666" points="121,-172.5 35.25,-172.5 35.25,-151.75 121,-151.75 121,-172.5"/>
<text text-anchor="middle" x="78.12" y="-159" font-family="Helvetica,sans-Serif" font-size="10.00">ExampleAsset</text>
</a>
</g>
</g>
<!-- Node3&#45;&gt;Node2 -->
<g id="edge2_Node000002_Node000003" class="edge">
<title>Node3&#45;&gt;Node2</title>
<g id="a_edge2_Node000002_Node000003"><a xlink:title=" ">
<path fill="none" stroke="#9a32cd" stroke-dasharray="5,2" d="M78.43,-140.32C78.62,-127.97 78.84,-112.9 78.98,-103.28"/>
<polygon fill="#9a32cd" stroke="#9a32cd" points="74.94,-139.89 78.29,-149.94 81.94,-139.99 74.94,-139.89"/>
</a>
</g>
<text text-anchor="middle" x="92.25" y="-124.25" font-family="Helvetica,sans-Serif" font-size="10.00" fill="grey"> Data</text>
</g>
<!-- Node4 -->
<g id="Node000004" class="node">
<title>Node4</title>
<g id="a_Node000004"><a xlink:href="structImGuiTableSortSpecs.html" target="_top" xlink:title=" ">
<polygon fill="white" stroke="#666666" points="137.5,-242 18.75,-242 18.75,-221.25 137.5,-221.25 137.5,-242"/>
<text text-anchor="middle" x="78.12" y="-228.5" font-family="Helvetica,sans-Serif" font-size="10.00">ImGuiTableSortSpecs</text>
</a>
</g>
</g>
<!-- Node4&#45;&gt;Node3 -->
<g id="edge3_Node000003_Node000004" class="edge">
<title>Node4&#45;&gt;Node3</title>
<g id="a_edge3_Node000003_Node000004"><a xlink:title=" ">
<path fill="none" stroke="#9a32cd" stroke-dasharray="5,2" d="M78.12,-209.82C78.12,-197.47 78.12,-182.4 78.12,-172.78"/>
<polygon fill="#9a32cd" stroke="#9a32cd" points="74.63,-209.44 78.13,-219.44 81.63,-209.44 74.63,-209.44"/>
</a>
</g>
<text text-anchor="middle" x="130.62" y="-193.75" font-family="Helvetica,sans-Serif" font-size="10.00" fill="grey"> s_current_sort_specs</text>
</g>
<!-- Node5 -->
<g id="Node000005" class="node">
<title>Node5</title>
<g id="a_Node000005"><a xlink:href="structImGuiTableColumnSortSpecs.html" target="_top" xlink:title=" ">
<polygon fill="white" stroke="#666666" points="156.25,-311.5 0,-311.5 0,-290.75 156.25,-290.75 156.25,-311.5"/>
<text text-anchor="middle" x="78.12" y="-298" font-family="Helvetica,sans-Serif" font-size="10.00">ImGuiTableColumnSortSpecs</text>
</a>
</g>
</g>
<!-- Node5&#45;&gt;Node4 -->
<g id="edge4_Node000004_Node000005" class="edge">
<title>Node5&#45;&gt;Node4</title>
<g id="a_edge4_Node000004_Node000005"><a xlink:title=" ">
<path fill="none" stroke="#9a32cd" stroke-dasharray="5,2" d="M78.12,-279.32C78.12,-266.97 78.12,-251.9 78.12,-242.28"/>
<polygon fill="#9a32cd" stroke="#9a32cd" points="74.63,-278.94 78.13,-288.94 81.63,-278.94 74.63,-278.94"/>
</a>
</g>
<text text-anchor="middle" x="93.88" y="-263.25" font-family="Helvetica,sans-Serif" font-size="10.00" fill="grey"> Specs</text>
</g>
<!-- Node6 -->
<g id="Node000006" class="node">
<title>Node6</title>
<g id="a_Node000006"><a xlink:href="structExampleSelectionWithDeletion.html" target="_top" xlink:title=" ">
<polygon fill="white" stroke="#666666" points="340.88,-103 173.38,-103 173.38,-82.25 340.88,-82.25 340.88,-103"/>
<text text-anchor="middle" x="257.12" y="-89.5" font-family="Helvetica,sans-Serif" font-size="10.00">ExampleSelectionWithDeletion</text>
</a>
</g>
</g>
<!-- Node6&#45;&gt;Node1 -->
<g id="edge5_Node000001_Node000006" class="edge">
<title>Node6&#45;&gt;Node1</title>
<g id="a_edge5_Node000001_Node000006"><a xlink:title=" ">
<path fill="none" stroke="#9a32cd" stroke-dasharray="5,2" d="M257.12,-70.74C257.12,-54.59 257.12,-32.99 257.12,-20.8"/>
<polygon fill="#9a32cd" stroke="#9a32cd" points="253.63,-70.27 257.13,-80.27 260.63,-70.27 253.63,-70.27"/>
</a>
</g>
<text text-anchor="middle" x="281.12" y="-48.38" font-family="Helvetica,sans-Serif" font-size="10.00" fill="grey"> Selection</text>
</g>
<!-- Node7 -->
<g id="Node000007" class="node">
<title>Node7</title>
<g id="a_Node000007"><a xlink:href="structImGuiSelectionBasicStorage.html" target="_top" xlink:title=" ">
<polygon fill="white" stroke="#666666" points="334.12,-172.5 180.12,-172.5 180.12,-151.75 334.12,-151.75 334.12,-172.5"/>
<text text-anchor="middle" x="257.12" y="-159" font-family="Helvetica,sans-Serif" font-size="10.00">ImGuiSelectionBasicStorage</text>
</a>
</g>
</g>
<!-- Node7&#45;&gt;Node6 -->
<g id="edge6_Node000006_Node000007" class="edge">
<title>Node7&#45;&gt;Node6</title>
<g id="a_edge6_Node000006_Node000007"><a xlink:title=" ">
<path fill="none" stroke="#63b8ff" d="M257.12,-140.32C257.12,-127.97 257.12,-112.9 257.12,-103.28"/>
<polygon fill="#63b8ff" stroke="#63b8ff" points="253.63,-139.94 257.13,-149.94 260.63,-139.94 253.63,-139.94"/>
</a>
</g>
</g>
<!-- Node8 -->
<g id="Node000008" class="node">
<title>Node8</title>
<g id="a_Node000008"><a xlink:href="structImGuiStorage.html" target="_top" xlink:title=" ">
<polygon fill="white" stroke="#666666" points="298.5,-242 215.75,-242 215.75,-221.25 298.5,-221.25 298.5,-242"/>
<text text-anchor="middle" x="257.12" y="-228.5" font-family="Helvetica,sans-Serif" font-size="10.00">ImGuiStorage</text>
</a>
</g>
</g>
<!-- Node8&#45;&gt;Node7 -->
<g id="edge7_Node000007_Node000008" class="edge">
<title>Node8&#45;&gt;Node7</title>
<g id="a_edge7_Node000007_Node000008"><a xlink:title=" ">
<path fill="none" stroke="#9a32cd" stroke-dasharray="5,2" d="M257.12,-209.82C257.12,-197.47 257.12,-182.4 257.12,-172.78"/>
<polygon fill="#9a32cd" stroke="#9a32cd" points="253.63,-209.44 257.13,-219.44 260.63,-209.44 253.63,-209.44"/>
</a>
</g>
<text text-anchor="middle" x="280" y="-193.75" font-family="Helvetica,sans-Serif" font-size="10.00" fill="grey"> _Storage</text>
</g>
<!-- Node9 -->
<g id="Node000009" class="node">
<title>Node9</title>
<g id="a_Node000009"><a xlink:href="structImVector.html" target="_top" xlink:title=" ">
<polygon fill="white" stroke="#666666" points="341.5,-311.5 174.75,-311.5 174.75,-290.75 341.5,-290.75 341.5,-311.5"/>
<text text-anchor="middle" x="258.12" y="-298" font-family="Helvetica,sans-Serif" font-size="10.00">ImVector&lt; ImGuiStoragePair &gt;</text>
</a>
</g>
</g>
<!-- Node9&#45;&gt;Node8 -->
<g id="edge8_Node000008_Node000009" class="edge">
<title>Node9&#45;&gt;Node8</title>
<g id="a_edge8_Node000008_Node000009"><a xlink:title=" ">
<path fill="none" stroke="#9a32cd" stroke-dasharray="5,2" d="M257.82,-279.32C257.63,-266.97 257.41,-251.9 257.27,-242.28"/>
<polygon fill="#9a32cd" stroke="#9a32cd" points="254.31,-278.99 257.96,-288.94 261.31,-278.89 254.31,-278.99"/>
</a>
</g>
<text text-anchor="middle" x="271.25" y="-263.25" font-family="Helvetica,sans-Serif" font-size="10.00" fill="grey"> Data</text>
</g>
<!-- Node10 -->
<g id="Node000010" class="node">
<title>Node10</title>
<g id="a_Node000010"><a xlink:href="structImGuiStoragePair.html" target="_top" xlink:title=" ">
<polygon fill="white" stroke="#666666" points="308.5,-381 207.75,-381 207.75,-360.25 308.5,-360.25 308.5,-381"/>
<text text-anchor="middle" x="258.12" y="-367.5" font-family="Helvetica,sans-Serif" font-size="10.00">ImGuiStoragePair</text>
</a>
</g>
</g>
<!-- Node10&#45;&gt;Node9 -->
<g id="edge9_Node000009_Node000010" class="edge">
<title>Node10&#45;&gt;Node9</title>
<g id="a_edge9_Node000009_Node000010"><a xlink:title=" ">
<path fill="none" stroke="#9a32cd" stroke-dasharray="5,2" d="M258.12,-348.82C258.12,-336.47 258.12,-321.4 258.12,-311.78"/>
<polygon fill="#9a32cd" stroke="#9a32cd" points="254.63,-348.44 258.13,-358.44 261.63,-348.44 254.63,-348.44"/>
</a>
</g>
<text text-anchor="middle" x="271.25" y="-332.75" font-family="Helvetica,sans-Serif" font-size="10.00" fill="grey"> Data</text>
</g>
<!-- Node11 -->
<g id="Node000011" class="node">
<title>Node11</title>
<g id="a_Node000011"><a xlink:href="structImVec2.html" target="_top" xlink:title=" ">
<polygon fill="white" stroke="#666666" points="411.12,-103 359.12,-103 359.12,-82.25 411.12,-82.25 411.12,-103"/>
<text text-anchor="middle" x="385.12" y="-89.5" font-family="Helvetica,sans-Serif" font-size="10.00">ImVec2</text>
</a>
</g>
</g>
<!-- Node11&#45;&gt;Node1 -->
<g id="edge10_Node000001_Node000011" class="edge">
<title>Node11&#45;&gt;Node1</title>
<g id="a_edge10_Node000001_Node000011"><a xlink:title=" ">
<path fill="none" stroke="#9a32cd" stroke-dasharray="5,2" d="M363.05,-75.19C348.14,-64.35 327.83,-50.12 309.12,-38.75 298.84,-32.5 286.99,-26.19 277.2,-21.21"/>
<polygon fill="#9a32cd" stroke="#9a32cd" points="360.65,-77.77 370.78,-80.86 364.79,-72.12 360.65,-77.77"/>
</a>
</g>
<text text-anchor="middle" x="386.5" y="-54.75" font-family="Helvetica,sans-Serif" font-size="10.00" fill="grey"> LayoutItemSize</text>
<text text-anchor="middle" x="386.5" y="-42" font-family="Helvetica,sans-Serif" font-size="10.00" fill="grey">LayoutItemStep</text>
</g>
</g>
</svg>
