<?xml version="1.0" encoding="UTF-8" standalone="no"?>
<!DOCTYPE svg PUBLIC "-//W3C//DTD SVG 1.1//EN"
 "http://www.w3.org/Graphics/SVG/1.1/DTD/svg11.dtd">
<!-- Generated by graphviz version 12.2.0 (20241103.1931)
 -->
<!-- Title: ImFont::AddGlyph Pages: 1 -->
<svg width="419pt" height="87pt"
 viewBox="0.00 0.00 419.00 86.75" xmlns="http://www.w3.org/2000/svg" xmlns:xlink="http://www.w3.org/1999/xlink">
<g id="graph0" class="graph" transform="scale(1 1) rotate(0) translate(4 82.75)">
<title>ImFont::AddGlyph</title>
<!-- Node1 -->
<g id="Node000001" class="node">
<title>Node1</title>
<g id="a_Node000001"><a xlink:title=" ">
<polygon fill="#999999" stroke="#666666" points="103,-58.75 0,-58.75 0,-38 103,-38 103,-58.75"/>
<text text-anchor="middle" x="51.5" y="-45.25" font-family="Helvetica,sans-Serif" font-size="10.00">ImFont::AddGlyph</text>
</a>
</g>
</g>
<!-- Node2 -->
<g id="Node000002" class="node">
<title>Node2</title>
<g id="a_Node000002"><a xlink:href="structImVector.html#a2d80e87e81b1b01143c8d8be93e6fde1" target="_top" xlink:title=" ">
<polygon fill="white" stroke="#666666" points="230.75,-78.75 142,-78.75 142,-58 230.75,-58 230.75,-78.75"/>
<text text-anchor="middle" x="186.38" y="-65.25" font-family="Helvetica,sans-Serif" font-size="10.00">ImVector::back</text>
</a>
</g>
</g>
<!-- Node1&#45;&gt;Node2 -->
<g id="edge1_Node000001_Node000002" class="edge">
<title>Node1&#45;&gt;Node2</title>
<g id="a_edge1_Node000001_Node000002"><a xlink:title=" ">
<path fill="none" stroke="#63b8ff" d="M103.49,-56.05C112.34,-57.38 121.58,-58.77 130.53,-60.12"/>
<polygon fill="#63b8ff" stroke="#63b8ff" points="129.75,-63.54 140.16,-61.57 130.8,-56.62 129.75,-63.54"/>
</a>
</g>
</g>
<!-- Node3 -->
<g id="Node000003" class="node">
<title>Node3</title>
<g id="a_Node000003"><a xlink:href="structImVector.html#ac371dd62e56ae486b1a5038cf07eee56" target="_top" xlink:title=" ">
<polygon fill="white" stroke="#666666" points="233.75,-39.75 139,-39.75 139,-19 233.75,-19 233.75,-39.75"/>
<text text-anchor="middle" x="186.38" y="-26.25" font-family="Helvetica,sans-Serif" font-size="10.00">ImVector::resize</text>
</a>
</g>
</g>
<!-- Node1&#45;&gt;Node3 -->
<g id="edge2_Node000001_Node000003" class="edge">
<title>Node1&#45;&gt;Node3</title>
<g id="a_edge2_Node000001_Node000003"><a xlink:title=" ">
<path fill="none" stroke="#63b8ff" d="M103.49,-41.08C111.35,-39.96 119.52,-38.79 127.51,-37.65"/>
<polygon fill="#63b8ff" stroke="#63b8ff" points="127.75,-41.15 137.16,-36.27 126.76,-34.22 127.75,-41.15"/>
</a>
</g>
</g>
<!-- Node4 -->
<g id="Node000004" class="node">
<title>Node4</title>
<g id="a_Node000004"><a xlink:href="structImVector.html#a3a097635d464b1b70dc7d59996a88b28" target="_top" xlink:title=" ">
<polygon fill="white" stroke="#666666" points="411,-59.75 269.75,-59.75 269.75,-39 411,-39 411,-59.75"/>
<text text-anchor="middle" x="340.38" y="-46.25" font-family="Helvetica,sans-Serif" font-size="10.00">ImVector::_grow_capacity</text>
</a>
</g>
</g>
<!-- Node3&#45;&gt;Node4 -->
<g id="edge3_Node000003_Node000004" class="edge">
<title>Node3&#45;&gt;Node4</title>
<g id="a_edge3_Node000003_Node000004"><a xlink:title=" ">
<path fill="none" stroke="#63b8ff" d="M234.22,-35.54C241.9,-36.55 250.04,-37.62 258.26,-38.7"/>
<polygon fill="#63b8ff" stroke="#63b8ff" points="257.62,-42.15 267.99,-39.98 258.53,-35.21 257.62,-42.15"/>
</a>
</g>
</g>
<!-- Node5 -->
<g id="Node000005" class="node">
<title>Node5</title>
<g id="a_Node000005"><a xlink:href="structImVector.html#a0f14f5736c3372157856eebb67123b75" target="_top" xlink:title=" ">
<polygon fill="white" stroke="#666666" points="391.5,-20.75 289.25,-20.75 289.25,0 391.5,0 391.5,-20.75"/>
<text text-anchor="middle" x="340.38" y="-7.25" font-family="Helvetica,sans-Serif" font-size="10.00">ImVector::reserve</text>
</a>
</g>
</g>
<!-- Node3&#45;&gt;Node5 -->
<g id="edge4_Node000003_Node000005" class="edge">
<title>Node3&#45;&gt;Node5</title>
<g id="a_edge4_Node000003_Node000005"><a xlink:title=" ">
<path fill="none" stroke="#63b8ff" d="M234.22,-23.52C247.92,-21.81 263.1,-19.91 277.58,-18.1"/>
<polygon fill="#63b8ff" stroke="#63b8ff" points="278,-21.57 287.49,-16.86 277.13,-14.63 278,-21.57"/>
</a>
</g>
</g>
</g>
</svg>
