<?xml version="1.0" encoding="UTF-8" standalone="no"?>
<!DOCTYPE svg PUBLIC "-//W3C//DTD SVG 1.1//EN"
 "http://www.w3.org/Graphics/SVG/1.1/DTD/svg11.dtd">
<!-- Generated by graphviz version 12.0.0 (20240704.0754)
 -->
<!-- Title: ExampleDualListBox::MoveAll Pages: 1 -->
<svg width="662pt" height="222pt"
 viewBox="0.00 0.00 662.25 221.50" xmlns="http://www.w3.org/2000/svg" xmlns:xlink="http://www.w3.org/1999/xlink">
<g id="graph0" class="graph" transform="scale(1 1) rotate(0) translate(4 217.5)">
<title>ExampleDualListBox::MoveAll</title>
<!-- Node1 -->
<g id="Node000001" class="node">
<title>Node1</title>
<g id="a_Node000001"><a xlink:title=" ">
<polygon fill="#999999" stroke="#666666" points="117.25,-130.5 0,-130.5 0,-97 117.25,-97 117.25,-130.5"/>
<text text-anchor="start" x="8" y="-117" font-family="Helvetica,sans-Serif" font-size="10.00">ExampleDualListBox</text>
<text text-anchor="middle" x="58.62" y="-104.25" font-family="Helvetica,sans-Serif" font-size="10.00">::MoveAll</text>
</a>
</g>
</g>
<!-- Node2 -->
<g id="Node000002" class="node">
<title>Node2</title>
<g id="a_Node000002"><a xlink:href="structImGuiSelectionBasicStorage.html#a9b1f057e4578e031520a78ae392af037" target="_top" xlink:title=" ">
<polygon fill="white" stroke="#666666" points="307.25,-213.5 153.25,-213.5 153.25,-180 307.25,-180 307.25,-213.5"/>
<text text-anchor="start" x="161.25" y="-200" font-family="Helvetica,sans-Serif" font-size="10.00">ImGuiSelectionBasicStorage</text>
<text text-anchor="middle" x="230.25" y="-187.25" font-family="Helvetica,sans-Serif" font-size="10.00">::Clear</text>
</a>
</g>
</g>
<!-- Node1&#45;&gt;Node2 -->
<g id="edge1_Node000001_Node000002" class="edge">
<title>Node1&#45;&gt;Node2</title>
<g id="a_edge1_Node000001_Node000002"><a xlink:title=" ">
<path fill="none" stroke="#63b8ff" d="M88.25,-130.82C106.55,-141.44 130.95,-155.06 153.25,-165.75 159.98,-168.98 167.15,-172.19 174.28,-175.24"/>
<polygon fill="#63b8ff" stroke="#63b8ff" points="172.68,-178.37 183.26,-179.01 175.39,-171.91 172.68,-178.37"/>
</a>
</g>
</g>
<!-- Node6 -->
<g id="Node000006" class="node">
<title>Node6</title>
<g id="a_Node000006"><a xlink:href="structImVector.html#ae2d401b4ec5f1113cdb8edb5a61a38f7" target="_top" xlink:title=" ">
<polygon fill="white" stroke="#666666" points="275,-124.12 185.5,-124.12 185.5,-103.38 275,-103.38 275,-124.12"/>
<text text-anchor="middle" x="230.25" y="-110.62" font-family="Helvetica,sans-Serif" font-size="10.00">ImVector::clear</text>
</a>
</g>
</g>
<!-- Node1&#45;&gt;Node6 -->
<g id="edge5_Node000001_Node000006" class="edge">
<title>Node1&#45;&gt;Node6</title>
<g id="a_edge5_Node000001_Node000006"><a xlink:title=" ">
<path fill="none" stroke="#63b8ff" d="M117.53,-113.75C135.71,-113.75 155.74,-113.75 173.76,-113.75"/>
<polygon fill="#63b8ff" stroke="#63b8ff" points="173.75,-117.25 183.75,-113.75 173.75,-110.25 173.75,-117.25"/>
</a>
</g>
</g>
<!-- Node7 -->
<g id="Node000007" class="node">
<title>Node7</title>
<g id="a_Node000007"><a xlink:href="structImVector.html#aab5df48e0711a48bd12f3206e08c4108" target="_top" xlink:title=" ">
<polygon fill="white" stroke="#666666" points="468.75,-165.12 351.5,-165.12 351.5,-144.38 468.75,-144.38 468.75,-165.12"/>
<text text-anchor="middle" x="410.12" y="-151.62" font-family="Helvetica,sans-Serif" font-size="10.00">ImVector::push_back</text>
</a>
</g>
</g>
<!-- Node1&#45;&gt;Node7 -->
<g id="edge6_Node000001_Node000007" class="edge">
<title>Node1&#45;&gt;Node7</title>
<g id="a_edge6_Node000001_Node000007"><a xlink:title=" ">
<path fill="none" stroke="#63b8ff" d="M117.38,-126.55C129.2,-128.86 141.59,-131.07 153.25,-132.75 216.13,-141.8 288.27,-147.59 339.89,-150.95"/>
<polygon fill="#63b8ff" stroke="#63b8ff" points="339.53,-154.43 349.73,-151.57 339.97,-147.45 339.53,-154.43"/>
</a>
</g>
</g>
<!-- Node8 -->
<g id="Node000008" class="node">
<title>Node8</title>
<g id="a_Node000008"><a xlink:href="structExampleDualListBox.html#a62c365982dcd29b71bf6589801b40099" target="_top" xlink:title=" ">
<polygon fill="white" stroke="#666666" points="288.88,-85.5 171.62,-85.5 171.62,-52 288.88,-52 288.88,-85.5"/>
<text text-anchor="start" x="179.62" y="-72" font-family="Helvetica,sans-Serif" font-size="10.00">ExampleDualListBox</text>
<text text-anchor="middle" x="230.25" y="-59.25" font-family="Helvetica,sans-Serif" font-size="10.00">::SortItems</text>
</a>
</g>
</g>
<!-- Node1&#45;&gt;Node8 -->
<g id="edge9_Node000001_Node000008" class="edge">
<title>Node1&#45;&gt;Node8</title>
<g id="a_edge9_Node000001_Node000008"><a xlink:title=" ">
<path fill="none" stroke="#63b8ff" d="M117.53,-98.39C131.37,-94.72 146.28,-90.76 160.56,-86.97"/>
<polygon fill="#63b8ff" stroke="#63b8ff" points="161.09,-90.45 169.86,-84.51 159.3,-83.69 161.09,-90.45"/>
</a>
</g>
</g>
<!-- Node10 -->
<g id="Node000010" class="node">
<title>Node10</title>
<g id="a_Node000010"><a xlink:href="structImGuiSelectionBasicStorage.html#a18377dc1f474f77951a5da925c4cbfac" target="_top" xlink:title=" ">
<polygon fill="white" stroke="#666666" points="307.25,-33.5 153.25,-33.5 153.25,0 307.25,0 307.25,-33.5"/>
<text text-anchor="start" x="161.25" y="-20" font-family="Helvetica,sans-Serif" font-size="10.00">ImGuiSelectionBasicStorage</text>
<text text-anchor="middle" x="230.25" y="-7.25" font-family="Helvetica,sans-Serif" font-size="10.00">::Swap</text>
</a>
</g>
</g>
<!-- Node1&#45;&gt;Node10 -->
<g id="edge11_Node000001_Node000010" class="edge">
<title>Node1&#45;&gt;Node10</title>
<g id="a_edge11_Node000001_Node000010"><a xlink:title=" ">
<path fill="none" stroke="#63b8ff" d="M78.46,-96.56C96.54,-80.8 125.16,-57.71 153.25,-42.75 156.08,-41.24 159.01,-39.8 162,-38.42"/>
<polygon fill="#63b8ff" stroke="#63b8ff" points="163.18,-41.72 170.98,-34.56 160.41,-35.29 163.18,-41.72"/>
</a>
</g>
</g>
<!-- Node3 -->
<g id="Node000003" class="node">
<title>Node3</title>
<g id="a_Node000003"><a xlink:href="structImVector.html#ac371dd62e56ae486b1a5038cf07eee56" target="_top" xlink:title=" ">
<polygon fill="white" stroke="#666666" points="457.5,-204.12 362.75,-204.12 362.75,-183.38 457.5,-183.38 457.5,-204.12"/>
<text text-anchor="middle" x="410.12" y="-190.62" font-family="Helvetica,sans-Serif" font-size="10.00">ImVector::resize</text>
</a>
</g>
</g>
<!-- Node2&#45;&gt;Node3 -->
<g id="edge2_Node000002_Node000003" class="edge">
<title>Node2&#45;&gt;Node3</title>
<g id="a_edge2_Node000002_Node000003"><a xlink:title=" ">
<path fill="none" stroke="#63b8ff" d="M307.72,-195.46C322.21,-195.22 337.15,-194.96 350.96,-194.73"/>
<polygon fill="#63b8ff" stroke="#63b8ff" points="350.81,-198.23 360.75,-194.57 350.7,-191.24 350.81,-198.23"/>
</a>
</g>
</g>
<!-- Node4 -->
<g id="Node000004" class="node">
<title>Node4</title>
<g id="a_Node000004"><a xlink:href="structImVector.html#a3a097635d464b1b70dc7d59996a88b28" target="_top" xlink:title=" ">
<polygon fill="white" stroke="#666666" points="654.25,-204.12 513,-204.12 513,-183.38 654.25,-183.38 654.25,-204.12"/>
<text text-anchor="middle" x="583.62" y="-190.62" font-family="Helvetica,sans-Serif" font-size="10.00">ImVector::_grow_capacity</text>
</a>
</g>
</g>
<!-- Node3&#45;&gt;Node4 -->
<g id="edge3_Node000003_Node000004" class="edge">
<title>Node3&#45;&gt;Node4</title>
<g id="a_edge3_Node000003_Node000004"><a xlink:title=" ">
<path fill="none" stroke="#63b8ff" d="M457.99,-193.75C471.42,-193.75 486.47,-193.75 501.35,-193.75"/>
<polygon fill="#63b8ff" stroke="#63b8ff" points="501.14,-197.25 511.14,-193.75 501.14,-190.25 501.14,-197.25"/>
</a>
</g>
</g>
<!-- Node5 -->
<g id="Node000005" class="node">
<title>Node5</title>
<g id="a_Node000005"><a xlink:href="structImVector.html#a0f14f5736c3372157856eebb67123b75" target="_top" xlink:title=" ">
<polygon fill="white" stroke="#666666" points="634.75,-165.12 532.5,-165.12 532.5,-144.38 634.75,-144.38 634.75,-165.12"/>
<text text-anchor="middle" x="583.62" y="-151.62" font-family="Helvetica,sans-Serif" font-size="10.00">ImVector::reserve</text>
</a>
</g>
</g>
<!-- Node3&#45;&gt;Node5 -->
<g id="edge4_Node000003_Node000005" class="edge">
<title>Node3&#45;&gt;Node5</title>
<g id="a_edge4_Node000003_Node000005"><a xlink:title=" ">
<path fill="none" stroke="#63b8ff" d="M457.99,-183.09C478.34,-178.46 502.4,-172.99 523.93,-168.1"/>
<polygon fill="#63b8ff" stroke="#63b8ff" points="524.47,-171.56 533.45,-165.93 522.92,-164.74 524.47,-171.56"/>
</a>
</g>
</g>
<!-- Node7&#45;&gt;Node4 -->
<g id="edge7_Node000007_Node000004" class="edge">
<title>Node7&#45;&gt;Node4</title>
<g id="a_edge7_Node000007_Node000004"><a xlink:title=" ">
<path fill="none" stroke="#63b8ff" d="M458.9,-165.61C478.98,-170.18 502.54,-175.54 523.68,-180.35"/>
<polygon fill="#63b8ff" stroke="#63b8ff" points="522.81,-183.74 533.34,-182.54 524.36,-176.91 522.81,-183.74"/>
</a>
</g>
</g>
<!-- Node7&#45;&gt;Node5 -->
<g id="edge8_Node000007_Node000005" class="edge">
<title>Node7&#45;&gt;Node5</title>
<g id="a_edge8_Node000007_Node000005"><a xlink:title=" ">
<path fill="none" stroke="#63b8ff" d="M469.19,-154.75C485.77,-154.75 503.9,-154.75 520.7,-154.75"/>
<polygon fill="#63b8ff" stroke="#63b8ff" points="520.57,-158.25 530.57,-154.75 520.57,-151.25 520.57,-158.25"/>
</a>
</g>
</g>
<!-- Node9 -->
<g id="Node000009" class="node">
<title>Node9</title>
<g id="a_Node000009"><a xlink:href="structExampleDualListBox.html#a5599b6173a52a3193a1f3db8ecedefbe" target="_top" xlink:title=" ">
<polygon fill="white" stroke="#666666" points="477,-85.5 343.25,-85.5 343.25,-52 477,-52 477,-85.5"/>
<text text-anchor="start" x="351.25" y="-72" font-family="Helvetica,sans-Serif" font-size="10.00">ExampleDualListBox</text>
<text text-anchor="middle" x="410.12" y="-59.25" font-family="Helvetica,sans-Serif" font-size="10.00">::CompareItemsByValue</text>
</a>
</g>
</g>
<!-- Node8&#45;&gt;Node9 -->
<g id="edge10_Node000008_Node000009" class="edge">
<title>Node8&#45;&gt;Node9</title>
<g id="a_edge10_Node000008_Node000009"><a xlink:title=" ">
<path fill="none" stroke="#63b8ff" d="M289,-68.75C302.61,-68.75 317.33,-68.75 331.65,-68.75"/>
<polygon fill="#63b8ff" stroke="#63b8ff" points="331.51,-72.25 341.51,-68.75 331.51,-65.25 331.51,-72.25"/>
</a>
</g>
</g>
<!-- Node11 -->
<g id="Node000011" class="node">
<title>Node11</title>
<g id="a_Node000011"><a xlink:href="structImVector.html#afcec0d2a1e28aebe412b6efd06f0a77a" target="_top" xlink:title=" ">
<polygon fill="white" stroke="#666666" points="455.62,-27.12 364.62,-27.12 364.62,-6.38 455.62,-6.38 455.62,-27.12"/>
<text text-anchor="middle" x="410.12" y="-13.62" font-family="Helvetica,sans-Serif" font-size="10.00">ImVector::swap</text>
</a>
</g>
</g>
<!-- Node10&#45;&gt;Node11 -->
<g id="edge12_Node000010_Node000011" class="edge">
<title>Node10&#45;&gt;Node11</title>
<g id="a_edge12_Node000010_Node000011"><a xlink:title=" ">
<path fill="none" stroke="#63b8ff" d="M307.72,-16.75C322.95,-16.75 338.68,-16.75 353.07,-16.75"/>
<polygon fill="#63b8ff" stroke="#63b8ff" points="352.78,-20.25 362.78,-16.75 352.78,-13.25 352.78,-20.25"/>
</a>
</g>
</g>
</g>
</svg>
