<?xml version="1.0" encoding="UTF-8" standalone="no"?>
<!DOCTYPE svg PUBLIC "-//W3C//DTD SVG 1.1//EN"
 "http://www.w3.org/Graphics/SVG/1.1/DTD/svg11.dtd">
<!-- Generated by graphviz version 12.0.0 (20240704.0754)
 -->
<!-- Title: ImPool::GetIndex Pages: 1 -->
<svg width="1459pt" height="424pt"
 viewBox="0.00 0.00 1459.00 423.75" xmlns="http://www.w3.org/2000/svg" xmlns:xlink="http://www.w3.org/1999/xlink">
<g id="graph0" class="graph" transform="scale(1 1) rotate(0) translate(4 419.75)">
<title>ImPool::GetIndex</title>
<!-- Node1 -->
<g id="Node000001" class="node">
<title>Node1</title>
<g id="a_Node000001"><a xlink:title=" ">
<polygon fill="#999999" stroke="#666666" points="1451,-153.12 1351,-153.12 1351,-132.38 1451,-132.38 1451,-153.12"/>
<text text-anchor="middle" x="1401" y="-139.62" font-family="Helvetica,sans-Serif" font-size="10.00">ImPool::GetIndex</text>
</a>
</g>
</g>
<!-- Node2 -->
<g id="Node000002" class="node">
<title>Node2</title>
<g id="a_Node000002"><a xlink:href="namespaceImGui.html#a28046a30716afeb7738a82a5b19044ca" target="_top" xlink:title=" ">
<polygon fill="white" stroke="#666666" points="1284.62,-266.12 1168.12,-266.12 1168.12,-245.38 1284.62,-245.38 1284.62,-266.12"/>
<text text-anchor="middle" x="1226.38" y="-252.62" font-family="Helvetica,sans-Serif" font-size="10.00">ImGui::BeginTableEx</text>
</a>
</g>
</g>
<!-- Node1&#45;&gt;Node2 -->
<g id="edge1_Node000001_Node000002" class="edge">
<title>Node1&#45;&gt;Node2</title>
<g id="a_edge1_Node000001_Node000002"><a xlink:title=" ">
<path fill="none" stroke="#63b8ff" d="M1380.53,-161.02C1363.92,-176.04 1339,-197.28 1315,-212.75 1295.2,-225.51 1271.07,-237.09 1253.15,-245.01"/>
<polygon fill="#63b8ff" stroke="#63b8ff" points="1382.72,-163.76 1387.72,-154.42 1377.99,-158.6 1382.72,-163.76"/>
</a>
</g>
</g>
<!-- Node13 -->
<g id="Node000013" class="node">
<title>Node13</title>
<g id="a_Node000013"><a xlink:href="namespaceImGui.html#a9c70aaa6464c2e51e6f3342da133ada1" target="_top" xlink:title=" ">
<polygon fill="white" stroke="#666666" points="1090.5,-206.12 995.75,-206.12 995.75,-185.38 1090.5,-185.38 1090.5,-206.12"/>
<text text-anchor="middle" x="1043.12" y="-192.62" font-family="Helvetica,sans-Serif" font-size="10.00">ImGui::EndTable</text>
</a>
</g>
</g>
<!-- Node1&#45;&gt;Node13 -->
<g id="edge25_Node000001_Node000013" class="edge">
<title>Node1&#45;&gt;Node13</title>
<g id="a_edge25_Node000001_Node000013"><a xlink:title=" ">
<path fill="none" stroke="#63b8ff" d="M1370.94,-158.44C1354.91,-166.3 1334.39,-175.11 1315,-179.75 1238.03,-198.16 1145.43,-199.3 1090.86,-197.9"/>
<polygon fill="#63b8ff" stroke="#63b8ff" points="1372.07,-161.79 1379.41,-154.15 1368.91,-155.54 1372.07,-161.79"/>
</a>
</g>
</g>
<!-- Node16 -->
<g id="Node000016" class="node">
<title>Node16</title>
<g id="a_Node000016"><a xlink:href="structImPool.html#a7b2c095ea540dc8afb670e705a37a912" target="_top" xlink:title=" ">
<polygon fill="white" stroke="#666666" points="1274.5,-153.12 1178.25,-153.12 1178.25,-132.38 1274.5,-132.38 1274.5,-153.12"/>
<text text-anchor="middle" x="1226.38" y="-139.62" font-family="Helvetica,sans-Serif" font-size="10.00">ImPool::Remove</text>
</a>
</g>
</g>
<!-- Node1&#45;&gt;Node16 -->
<g id="edge32_Node000001_Node000016" class="edge">
<title>Node1&#45;&gt;Node16</title>
<g id="a_edge32_Node000001_Node000016"><a xlink:title=" ">
<path fill="none" stroke="#63b8ff" d="M1339.07,-142.75C1317.96,-142.75 1294.63,-142.75 1274.77,-142.75"/>
<polygon fill="#63b8ff" stroke="#63b8ff" points="1339.02,-146.25 1349.02,-142.75 1339.02,-139.25 1339.02,-146.25"/>
</a>
</g>
</g>
<!-- Node17 -->
<g id="Node000017" class="node">
<title>Node17</title>
<g id="a_Node000017"><a xlink:href="namespaceImGui.html#a3fa207dacfbee7ac3c7241dfea4fb638" target="_top" xlink:title=" ">
<polygon fill="white" stroke="#666666" points="1101.75,-133.12 984.5,-133.12 984.5,-112.38 1101.75,-112.38 1101.75,-133.12"/>
<text text-anchor="middle" x="1043.12" y="-119.62" font-family="Helvetica,sans-Serif" font-size="10.00">ImGui::TableRemove</text>
</a>
</g>
</g>
<!-- Node1&#45;&gt;Node17 -->
<g id="edge37_Node000001_Node000017" class="edge">
<title>Node1&#45;&gt;Node17</title>
<g id="a_edge37_Node000001_Node000017"><a xlink:title=" ">
<path fill="none" stroke="#63b8ff" d="M1349.17,-129.51C1337.99,-127.13 1326.16,-125 1315,-123.75 1241.98,-115.55 1157.19,-116.99 1102.19,-119.35"/>
<polygon fill="#63b8ff" stroke="#63b8ff" points="1348.09,-132.86 1358.61,-131.63 1349.62,-126.03 1348.09,-132.86"/>
</a>
</g>
</g>
<!-- Node18 -->
<g id="Node000018" class="node">
<title>Node18</title>
<g id="a_Node000018"><a xlink:href="namespaceImGui.html#af3cb65f8b45057e34fa7d9447a57eb28" target="_top" xlink:title=" ">
<polygon fill="white" stroke="#666666" points="1315,-76.5 1137.75,-76.5 1137.75,-43 1315,-43 1315,-76.5"/>
<text text-anchor="start" x="1145.75" y="-63" font-family="Helvetica,sans-Serif" font-size="10.00">ImGui::TableGcCompactTransient</text>
<text text-anchor="middle" x="1226.38" y="-50.25" font-family="Helvetica,sans-Serif" font-size="10.00">Buffers</text>
</a>
</g>
</g>
<!-- Node1&#45;&gt;Node18 -->
<g id="edge35_Node000001_Node000018" class="edge">
<title>Node1&#45;&gt;Node18</title>
<g id="a_edge35_Node000001_Node000018"><a xlink:title=" ">
<path fill="none" stroke="#63b8ff" d="M1375.11,-125.61C1358.56,-114.7 1336.08,-100.79 1315,-90.75 1304.37,-85.68 1292.67,-80.99 1281.38,-76.86"/>
<polygon fill="#63b8ff" stroke="#63b8ff" points="1373.06,-128.45 1383.32,-131.11 1376.96,-122.63 1373.06,-128.45"/>
</a>
</g>
</g>
<!-- Node3 -->
<g id="Node000003" class="node">
<title>Node3</title>
<g id="a_Node000003"><a xlink:href="namespaceImGui.html#a7ab019bafef9850ab97375a6b52670d3" target="_top" xlink:title=" ">
<polygon fill="white" stroke="#666666" points="1095.38,-275.12 990.88,-275.12 990.88,-254.38 1095.38,-254.38 1095.38,-275.12"/>
<text text-anchor="middle" x="1043.12" y="-261.62" font-family="Helvetica,sans-Serif" font-size="10.00">ImGui::BeginTable</text>
</a>
</g>
</g>
<!-- Node2&#45;&gt;Node3 -->
<g id="edge2_Node000002_Node000003" class="edge">
<title>Node2&#45;&gt;Node3</title>
<g id="a_edge2_Node000002_Node000003"><a xlink:title=" ">
<path fill="none" stroke="#63b8ff" d="M1156.63,-259.16C1136.37,-260.17 1114.56,-261.25 1095.58,-262.2"/>
<polygon fill="#63b8ff" stroke="#63b8ff" points="1156.7,-262.66 1166.51,-258.67 1156.35,-255.67 1156.7,-262.66"/>
</a>
</g>
</g>
<!-- Node4 -->
<g id="Node000004" class="node">
<title>Node4</title>
<g id="a_Node000004"><a xlink:href="namespaceImGui.html#a8600f7b1f9b18926fb00837e56d2b3cd" target="_top" xlink:title=" ">
<polygon fill="white" stroke="#666666" points="941,-275.12 782.5,-275.12 782.5,-254.38 941,-254.38 941,-275.12"/>
<text text-anchor="middle" x="861.75" y="-261.62" font-family="Helvetica,sans-Serif" font-size="10.00">ImGui::DebugNodeDockNode</text>
</a>
</g>
</g>
<!-- Node3&#45;&gt;Node4 -->
<g id="edge3_Node000003_Node000004" class="edge">
<title>Node3&#45;&gt;Node4</title>
<g id="a_edge3_Node000003_Node000004"><a xlink:title=" ">
<path fill="none" stroke="#63b8ff" d="M979.22,-264.75C966.96,-264.75 953.95,-264.75 941.26,-264.75"/>
<polygon fill="#63b8ff" stroke="#63b8ff" points="979.21,-268.25 989.21,-264.75 979.21,-261.25 979.21,-268.25"/>
</a>
</g>
</g>
<!-- Node8 -->
<g id="Node000008" class="node">
<title>Node8</title>
<g id="a_Node000008"><a xlink:href="namespaceImGui.html#af95643a0ce4893b9e57c12991922fb18" target="_top" xlink:title=" ">
<polygon fill="white" stroke="#666666" points="145.75,-176.12 0,-176.12 0,-155.38 145.75,-155.38 145.75,-176.12"/>
<text text-anchor="middle" x="72.88" y="-162.62" font-family="Helvetica,sans-Serif" font-size="10.00">ImGui::ShowDemoWindow</text>
</a>
</g>
</g>
<!-- Node3&#45;&gt;Node8 -->
<g id="edge19_Node000003_Node000008" class="edge">
<title>Node3&#45;&gt;Node8</title>
<g id="a_edge19_Node000003_Node000008"><a xlink:title=" ">
<path fill="none" stroke="#63b8ff" d="M1024.2,-283.32C1006.5,-300.62 977.89,-325.91 948.5,-340.75 829.65,-400.74 791.63,-415.75 658.5,-415.75 658.5,-415.75 658.5,-415.75 454.12,-415.75 277.15,-415.75 118.75,-224.34 81.92,-176.49"/>
<polygon fill="#63b8ff" stroke="#63b8ff" points="1026.31,-286.17 1030.9,-276.62 1021.36,-281.22 1026.31,-286.17"/>
</a>
</g>
</g>
<!-- Node10 -->
<g id="Node000010" class="node">
<title>Node10</title>
<g id="a_Node000010"><a xlink:href="namespaceImGui.html#a326f0badd138d1dea078a31b0e8dd685" target="_top" xlink:title=" ">
<polygon fill="white" stroke="#666666" points="935.38,-332.12 788.12,-332.12 788.12,-311.38 935.38,-311.38 935.38,-332.12"/>
<text text-anchor="middle" x="861.75" y="-318.62" font-family="Helvetica,sans-Serif" font-size="10.00">ImGui::DebugTextEncoding</text>
</a>
</g>
</g>
<!-- Node3&#45;&gt;Node10 -->
<g id="edge17_Node000003_Node000010" class="edge">
<title>Node3&#45;&gt;Node10</title>
<g id="a_edge17_Node000003_Node000010"><a xlink:title=" ">
<path fill="none" stroke="#63b8ff" d="M1007.55,-279.82C990.07,-287.08 968.39,-295.54 948.5,-301.75 937.7,-305.12 925.98,-308.22 914.77,-310.91"/>
<polygon fill="#63b8ff" stroke="#63b8ff" points="1008.59,-283.19 1016.44,-276.08 1005.87,-276.73 1008.59,-283.19"/>
</a>
</g>
</g>
<!-- Node11 -->
<g id="Node000011" class="node">
<title>Node11</title>
<g id="a_Node000011"><a xlink:href="namespaceImGui.html#ab4a87bf4a874a8e5872b60b4a9b1d99e" target="_top" xlink:title=" ">
<polygon fill="white" stroke="#666666" points="948.5,-204.12 775,-204.12 775,-183.38 948.5,-183.38 948.5,-204.12"/>
<text text-anchor="middle" x="861.75" y="-190.62" font-family="Helvetica,sans-Serif" font-size="10.00">ImGui::ShowIDStackToolWindow</text>
</a>
</g>
</g>
<!-- Node3&#45;&gt;Node11 -->
<g id="edge20_Node000003_Node000011" class="edge">
<title>Node3&#45;&gt;Node11</title>
<g id="a_edge20_Node000003_Node000011"><a xlink:title=" ">
<path fill="none" stroke="#63b8ff" d="M1004.35,-249.8C970.1,-236.24 920.45,-216.59 889.96,-204.52"/>
<polygon fill="#63b8ff" stroke="#63b8ff" points="1002.89,-252.98 1013.47,-253.41 1005.46,-246.47 1002.89,-252.98"/>
</a>
</g>
</g>
<!-- Node4&#45;&gt;Node4 -->
<g id="edge4_Node000004_Node000004" class="edge">
<title>Node4&#45;&gt;Node4</title>
<g id="a_edge4_Node000004_Node000004"><a xlink:title=" ">
<path fill="none" stroke="#63b8ff" d="M893.67,-286.61C889.44,-290.45 878.8,-293.12 861.75,-293.12 830.58,-293.12 820.83,-284.18 832.52,-275.52"/>
<polygon fill="#63b8ff" stroke="#63b8ff" points="897.09,-285.89 891.33,-276.99 890.29,-287.54 897.09,-285.89"/>
</a>
</g>
</g>
<!-- Node5 -->
<g id="Node000005" class="node">
<title>Node5</title>
<g id="a_Node000005"><a xlink:href="namespaceImGui.html#afcb602554925c5409977f0fb39f77e5d" target="_top" xlink:title=" ">
<polygon fill="white" stroke="#666666" points="731.12,-280.12 583.88,-280.12 583.88,-259.38 731.12,-259.38 731.12,-280.12"/>
<text text-anchor="middle" x="657.5" y="-266.62" font-family="Helvetica,sans-Serif" font-size="10.00">ImGui::DebugNodeWindow</text>
</a>
</g>
</g>
<!-- Node4&#45;&gt;Node5 -->
<g id="edge5_Node000004_Node000005" class="edge">
<title>Node4&#45;&gt;Node5</title>
<g id="a_edge5_Node000004_Node000005"><a xlink:title=" ">
<path fill="none" stroke="#63b8ff" d="M770.76,-260.26C757.56,-260.5 744.11,-260.9 731.31,-261.44"/>
<polygon fill="#63b8ff" stroke="#63b8ff" points="770.8,-263.76 780.75,-260.12 770.7,-256.76 770.8,-263.76"/>
</a>
</g>
</g>
<!-- Node7 -->
<g id="Node000007" class="node">
<title>Node7</title>
<g id="a_Node000007"><a xlink:href="namespaceImGui.html#afe7a28c6eb52fff3cc27d5a698fea4ff" target="_top" xlink:title=" ">
<polygon fill="white" stroke="#666666" points="334.25,-264.12 181.75,-264.12 181.75,-243.38 334.25,-243.38 334.25,-264.12"/>
<text text-anchor="middle" x="258" y="-250.62" font-family="Helvetica,sans-Serif" font-size="10.00">ImGui::ShowMetricsWindow</text>
</a>
</g>
</g>
<!-- Node4&#45;&gt;Node7 -->
<g id="edge16_Node000004_Node000007" class="edge">
<title>Node4&#45;&gt;Node7</title>
<g id="a_edge16_Node000004_Node000007"><a xlink:title=" ">
<path fill="none" stroke="#63b8ff" d="M824.97,-279.87C801.07,-289.28 768.69,-300.69 739,-306.75 578.3,-339.53 528.27,-364.66 370.25,-320.75 330.71,-309.76 291.16,-280.53 271.6,-264.55"/>
<polygon fill="#63b8ff" stroke="#63b8ff" points="826.26,-283.13 834.24,-276.15 823.65,-276.63 826.26,-283.13"/>
</a>
</g>
</g>
<!-- Node5&#45;&gt;Node4 -->
<g id="edge6_Node000005_Node000004" class="edge">
<title>Node5&#45;&gt;Node4</title>
<g id="a_edge6_Node000005_Node000004"><a xlink:title=" ">
<path fill="none" stroke="#63b8ff" d="M742.7,-274.33C755.81,-274.14 769.3,-273.79 782.27,-273.29"/>
<polygon fill="#63b8ff" stroke="#63b8ff" points="742.79,-270.83 732.83,-274.44 742.87,-277.83 742.79,-270.83"/>
</a>
</g>
</g>
<!-- Node5&#45;&gt;Node5 -->
<g id="edge7_Node000005_Node000005" class="edge">
<title>Node5&#45;&gt;Node5</title>
<g id="a_edge7_Node000005_Node000005"><a xlink:title=" ">
<path fill="none" stroke="#63b8ff" d="M693.11,-291.61C688.39,-295.45 676.52,-298.12 657.5,-298.12 622.72,-298.12 611.85,-289.18 624.89,-280.52"/>
<polygon fill="#63b8ff" stroke="#63b8ff" points="696.5,-290.72 690.5,-281.98 689.74,-292.55 696.5,-290.72"/>
</a>
</g>
</g>
<!-- Node6 -->
<g id="Node000006" class="node">
<title>Node6</title>
<g id="a_Node000006"><a xlink:href="namespaceImGui.html#a8c2ed9f140c90d8eaca1e2cfd8f46142" target="_top" xlink:title=" ">
<polygon fill="white" stroke="#666666" points="540,-242.12 370.25,-242.12 370.25,-221.38 540,-221.38 540,-242.12"/>
<text text-anchor="middle" x="455.12" y="-228.62" font-family="Helvetica,sans-Serif" font-size="10.00">ImGui::DebugNodeWindowsList</text>
</a>
</g>
</g>
<!-- Node5&#45;&gt;Node6 -->
<g id="edge8_Node000005_Node000006" class="edge">
<title>Node5&#45;&gt;Node6</title>
<g id="a_edge8_Node000005_Node000006"><a xlink:title=" ">
<path fill="none" stroke="#63b8ff" d="M614.98,-256.28C593.33,-251.2 566.02,-245.67 540.19,-241.02"/>
<polygon fill="#63b8ff" stroke="#63b8ff" points="614.05,-259.66 624.6,-258.61 615.7,-252.86 614.05,-259.66"/>
</a>
</g>
</g>
<!-- Node9 -->
<g id="Node000009" class="node">
<title>Node9</title>
<g id="a_Node000009"><a xlink:href="namespaceImGui.html#a0fc8019faf3a1aec25b554384ad9e506" target="_top" xlink:title=" ">
<polygon fill="white" stroke="#666666" points="540,-293.5 370.25,-293.5 370.25,-260 540,-260 540,-293.5"/>
<text text-anchor="start" x="378.25" y="-280" font-family="Helvetica,sans-Serif" font-size="10.00">ImGui::DebugNodeWindowsList</text>
<text text-anchor="middle" x="455.12" y="-267.25" font-family="Helvetica,sans-Serif" font-size="10.00">ByBeginStackParent</text>
</a>
</g>
</g>
<!-- Node5&#45;&gt;Node9 -->
<g id="edge13_Node000005_Node000009" class="edge">
<title>Node5&#45;&gt;Node9</title>
<g id="a_edge13_Node000005_Node000009"><a xlink:title=" ">
<path fill="none" stroke="#63b8ff" d="M572.22,-272.69C561.62,-273.06 550.78,-273.44 540.19,-273.81"/>
<polygon fill="#63b8ff" stroke="#63b8ff" points="572.21,-276.2 582.08,-272.35 571.96,-269.2 572.21,-276.2"/>
</a>
</g>
</g>
<!-- Node6&#45;&gt;Node4 -->
<g id="edge9_Node000006_Node000004" class="edge">
<title>Node6&#45;&gt;Node4</title>
<g id="a_edge9_Node000006_Node000004"><a xlink:title=" ">
<path fill="none" stroke="#63b8ff" d="M551.84,-237.05C606.68,-240.37 676.76,-245.08 739,-250.75 752.98,-252.02 767.85,-253.57 782.21,-255.17"/>
<polygon fill="#63b8ff" stroke="#63b8ff" points="552.08,-233.56 541.89,-236.45 551.66,-240.54 552.08,-233.56"/>
</a>
</g>
</g>
<!-- Node6&#45;&gt;Node5 -->
<g id="edge10_Node000006_Node000005" class="edge">
<title>Node6&#45;&gt;Node5</title>
<g id="a_edge10_Node000006_Node000005"><a xlink:title=" ">
<path fill="none" stroke="#63b8ff" d="M498.01,-245.3C522.77,-251.1 554.81,-257.48 583.59,-262.45"/>
<polygon fill="#63b8ff" stroke="#63b8ff" points="498.85,-241.91 488.31,-242.96 497.21,-248.71 498.85,-241.91"/>
</a>
</g>
</g>
<!-- Node6&#45;&gt;Node7 -->
<g id="edge11_Node000006_Node000007" class="edge">
<title>Node6&#45;&gt;Node7</title>
<g id="a_edge11_Node000006_Node000007"><a xlink:title=" ">
<path fill="none" stroke="#63b8ff" d="M358.6,-242.52C350.54,-243.43 342.47,-244.34 334.59,-245.23"/>
<polygon fill="#63b8ff" stroke="#63b8ff" points="358.91,-246.01 368.45,-241.41 358.13,-239.05 358.91,-246.01"/>
</a>
</g>
</g>
<!-- Node7&#45;&gt;Node8 -->
<g id="edge12_Node000007_Node000008" class="edge">
<title>Node7&#45;&gt;Node8</title>
<g id="a_edge12_Node000007_Node000008"><a xlink:title=" ">
<path fill="none" stroke="#63b8ff" d="M224.3,-238.04C187.37,-220.29 128.24,-191.88 96.23,-176.49"/>
<polygon fill="#63b8ff" stroke="#63b8ff" points="222.65,-241.13 233.18,-242.3 225.68,-234.82 222.65,-241.13"/>
</a>
</g>
</g>
<!-- Node9&#45;&gt;Node7 -->
<g id="edge15_Node000009_Node000007" class="edge">
<title>Node9&#45;&gt;Node7</title>
<g id="a_edge15_Node000009_Node000007"><a xlink:title=" ">
<path fill="none" stroke="#63b8ff" d="M358.6,-265.49C350.54,-264.54 342.47,-263.59 334.59,-262.66"/>
<polygon fill="#63b8ff" stroke="#63b8ff" points="358.11,-268.96 368.46,-266.65 358.93,-262.01 358.11,-268.96"/>
</a>
</g>
</g>
<!-- Node9&#45;&gt;Node9 -->
<g id="edge14_Node000009_Node000009" class="edge">
<title>Node9&#45;&gt;Node9</title>
<g id="a_edge14_Node000009_Node000009"><a xlink:title=" ">
<path fill="none" stroke="#63b8ff" d="M488.22,-304.89C482.83,-308.85 471.8,-311.5 455.12,-311.5 425.48,-311.5 413.67,-303.12 419.69,-293.91"/>
<polygon fill="#63b8ff" stroke="#63b8ff" points="491.59,-305.9 490.25,-295.39 484.74,-304.45 491.59,-305.9"/>
</a>
</g>
</g>
<!-- Node10&#45;&gt;Node7 -->
<g id="edge18_Node000010_Node000007" class="edge">
<title>Node10&#45;&gt;Node7</title>
<g id="a_edge18_Node000010_Node000007"><a xlink:title=" ">
<path fill="none" stroke="#63b8ff" d="M814.1,-335.59C724.82,-359.62 524.91,-401.42 370.25,-345.75 324.5,-329.28 284.2,-284.94 267.37,-264.43"/>
<polygon fill="#63b8ff" stroke="#63b8ff" points="815.02,-338.97 823.73,-332.95 813.16,-332.22 815.02,-338.97"/>
</a>
</g>
</g>
<!-- Node11&#45;&gt;Node7 -->
<g id="edge22_Node000011_Node000007" class="edge">
<title>Node11&#45;&gt;Node7</title>
<g id="a_edge22_Node000011_Node000007"><a xlink:title=" ">
<path fill="none" stroke="#63b8ff" d="M763.47,-188.61C663.75,-185.41 504.67,-186.08 370.25,-212.75 338.55,-219.04 303.89,-233.04 281.82,-242.92"/>
<polygon fill="#63b8ff" stroke="#63b8ff" points="763.11,-192.1 773.22,-188.95 763.35,-185.11 763.11,-192.1"/>
</a>
</g>
</g>
<!-- Node11&#45;&gt;Node8 -->
<g id="edge21_Node000011_Node000008" class="edge">
<title>Node11&#45;&gt;Node8</title>
<g id="a_edge21_Node000011_Node000008"><a xlink:title=" ">
<path fill="none" stroke="#63b8ff" d="M839.9,-175.83C816.94,-157.38 778.08,-129.82 739,-118.75 506.22,-52.81 210.21,-125.86 109.36,-154.91"/>
<polygon fill="#63b8ff" stroke="#63b8ff" points="837.61,-178.47 847.55,-182.14 842.06,-173.07 837.61,-178.47"/>
</a>
</g>
</g>
<!-- Node12 -->
<g id="Node000012" class="node">
<title>Node12</title>
<g id="a_Node000012"><a xlink:href="namespaceImGui.html#a1b6e100d30894c9379908efc540e5486" target="_top" xlink:title=" ">
<polygon fill="white" stroke="#666666" points="739,-148.12 576,-148.12 576,-127.38 739,-127.38 739,-148.12"/>
<text text-anchor="middle" x="657.5" y="-134.62" font-family="Helvetica,sans-Serif" font-size="10.00">ImGui::ShowStackToolWindow</text>
</a>
</g>
</g>
<!-- Node11&#45;&gt;Node12 -->
<g id="edge23_Node000011_Node000012" class="edge">
<title>Node11&#45;&gt;Node12</title>
<g id="a_edge23_Node000011_Node000012"><a xlink:title=" ">
<path fill="none" stroke="#63b8ff" d="M810.84,-179.93C775.95,-170.27 730,-157.55 697.72,-148.61"/>
<polygon fill="#63b8ff" stroke="#63b8ff" points="809.72,-183.25 820.3,-182.55 811.59,-176.51 809.72,-183.25"/>
</a>
</g>
</g>
<!-- Node12&#45;&gt;Node12 -->
<g id="edge24_Node000012_Node000012" class="edge">
<title>Node12&#45;&gt;Node12</title>
<g id="a_edge24_Node000012_Node000012"><a xlink:title=" ">
<path fill="none" stroke="#63b8ff" d="M693.11,-159.61C688.39,-163.45 676.52,-166.12 657.5,-166.12 622.72,-166.12 611.85,-157.18 624.89,-148.52"/>
<polygon fill="#63b8ff" stroke="#63b8ff" points="696.5,-158.72 690.5,-149.98 689.74,-160.55 696.5,-158.72"/>
</a>
</g>
</g>
<!-- Node13&#45;&gt;Node4 -->
<g id="edge26_Node000013_Node000004" class="edge">
<title>Node13&#45;&gt;Node4</title>
<g id="a_edge26_Node000013_Node000004"><a xlink:title=" ">
<path fill="none" stroke="#63b8ff" d="M1003.66,-210.55C969.78,-223.58 921.23,-242.25 890.88,-253.93"/>
<polygon fill="#63b8ff" stroke="#63b8ff" points="1004.61,-213.93 1012.69,-207.07 1002.1,-207.4 1004.61,-213.93"/>
</a>
</g>
</g>
<!-- Node13&#45;&gt;Node8 -->
<g id="edge30_Node000013_Node000008" class="edge">
<title>Node13&#45;&gt;Node8</title>
<g id="a_edge30_Node000013_Node000008"><a xlink:title=" ">
<path fill="none" stroke="#63b8ff" d="M1015.28,-179.28C954.27,-143.48 799.55,-61.75 658.5,-61.75 658.5,-61.75 658.5,-61.75 454.12,-61.75 331.71,-61.75 297.2,-62.04 181.75,-102.75 145.55,-115.52 107.84,-140.75 88.01,-155.1"/>
<polygon fill="#63b8ff" stroke="#63b8ff" points="1013.22,-182.13 1023.6,-184.24 1016.8,-176.12 1013.22,-182.13"/>
</a>
</g>
</g>
<!-- Node13&#45;&gt;Node10 -->
<g id="edge27_Node000013_Node000010" class="edge">
<title>Node13&#45;&gt;Node10</title>
<g id="a_edge27_Node000013_Node000010"><a xlink:title=" ">
<path fill="none" stroke="#63b8ff" d="M1019.07,-213.2C1007.94,-222.24 994.8,-233.86 984.5,-245.75 965.13,-268.12 972.68,-284.7 948.5,-301.75 943.25,-305.45 937.42,-308.48 931.33,-310.95"/>
<polygon fill="#63b8ff" stroke="#63b8ff" points="1020.99,-216.15 1026.66,-207.2 1016.64,-210.66 1020.99,-216.15"/>
</a>
</g>
</g>
<!-- Node13&#45;&gt;Node11 -->
<g id="edge31_Node000013_Node000011" class="edge">
<title>Node13&#45;&gt;Node11</title>
<g id="a_edge31_Node000013_Node000011"><a xlink:title=" ">
<path fill="none" stroke="#63b8ff" d="M984.04,-195.1C972.77,-194.98 960.75,-194.84 948.81,-194.71"/>
<polygon fill="#63b8ff" stroke="#63b8ff" points="983.91,-198.6 993.95,-195.21 983.99,-191.6 983.91,-198.6"/>
</a>
</g>
</g>
<!-- Node14 -->
<g id="Node000014" class="node">
<title>Node14</title>
<g id="a_Node000014"><a xlink:href="namespaceImGui.html#a945392cbf05b9434df8ec3630b10e01a" target="_top" xlink:title=" ">
<polygon fill="white" stroke="#666666" points="942.5,-33.5 781,-33.5 781,0 942.5,0 942.5,-33.5"/>
<text text-anchor="start" x="789" y="-20" font-family="Helvetica,sans-Serif" font-size="10.00">ImGui::ErrorCheckEndWindow</text>
<text text-anchor="middle" x="861.75" y="-7.25" font-family="Helvetica,sans-Serif" font-size="10.00">Recover</text>
</a>
</g>
</g>
<!-- Node13&#45;&gt;Node14 -->
<g id="edge28_Node000013_Node000014" class="edge">
<title>Node13&#45;&gt;Node14</title>
<g id="a_edge28_Node000013_Node000014"><a xlink:title=" ">
<path fill="none" stroke="#63b8ff" d="M1018.82,-178.15C1007.25,-168.44 993.79,-155.58 984.5,-141.75 959.54,-104.62 980.43,-79.08 948.5,-47.75 942.85,-42.21 936.14,-37.65 928.99,-33.9"/>
<polygon fill="#63b8ff" stroke="#63b8ff" points="1016.42,-180.71 1026.4,-184.26 1020.81,-175.26 1016.42,-180.71"/>
</a>
</g>
</g>
<!-- Node15 -->
<g id="Node000015" class="node">
<title>Node15</title>
<g id="a_Node000015"><a xlink:href="namespaceImGui.html#aaeda60ee2c0b5c2b3f397b237c9928f3" target="_top" xlink:title=" ">
<polygon fill="white" stroke="#666666" points="734.12,-33.5 580.88,-33.5 580.88,0 734.12,0 734.12,-33.5"/>
<text text-anchor="start" x="588.88" y="-20" font-family="Helvetica,sans-Serif" font-size="10.00">ImGui::ErrorCheckEndFrame</text>
<text text-anchor="middle" x="657.5" y="-7.25" font-family="Helvetica,sans-Serif" font-size="10.00">Recover</text>
</a>
</g>
</g>
<!-- Node14&#45;&gt;Node15 -->
<g id="edge29_Node000014_Node000015" class="edge">
<title>Node14&#45;&gt;Node15</title>
<g id="a_edge29_Node000014_Node000015"><a xlink:title=" ">
<path fill="none" stroke="#63b8ff" d="M769.37,-16.75C757.66,-16.75 745.77,-16.75 734.35,-16.75"/>
<polygon fill="#63b8ff" stroke="#63b8ff" points="769.01,-20.25 779.01,-16.75 769.01,-13.25 769.01,-20.25"/>
</a>
</g>
</g>
<!-- Node16&#45;&gt;Node16 -->
<g id="edge33_Node000016_Node000016" class="edge">
<title>Node16&#45;&gt;Node16</title>
<g id="a_edge33_Node000016_Node000016"><a xlink:title=" ">
<path fill="none" stroke="#63b8ff" d="M1257.1,-164.61C1253.03,-168.45 1242.79,-171.12 1226.38,-171.12 1196.36,-171.12 1186.98,-162.18 1198.24,-153.52"/>
<polygon fill="#63b8ff" stroke="#63b8ff" points="1260.54,-163.94 1254.86,-155 1253.72,-165.53 1260.54,-163.94"/>
</a>
</g>
</g>
<!-- Node16&#45;&gt;Node17 -->
<g id="edge34_Node000016_Node000017" class="edge">
<title>Node16&#45;&gt;Node17</title>
<g id="a_edge34_Node000016_Node000017"><a xlink:title=" ">
<path fill="none" stroke="#63b8ff" d="M1166.56,-136.26C1145.89,-133.98 1122.69,-131.42 1102.09,-129.15"/>
<polygon fill="#63b8ff" stroke="#63b8ff" points="1165.93,-139.71 1176.25,-137.33 1166.69,-132.75 1165.93,-139.71"/>
</a>
</g>
</g>
<!-- Node19 -->
<g id="Node000019" class="node">
<title>Node19</title>
<g id="a_Node000019"><a xlink:href="namespaceImGui.html#ab3f1fc018f903b7ad79fd10663375774" target="_top" xlink:title=" ">
<polygon fill="white" stroke="#666666" points="1095,-70.12 991.25,-70.12 991.25,-49.38 1095,-49.38 1095,-70.12"/>
<text text-anchor="middle" x="1043.12" y="-56.62" font-family="Helvetica,sans-Serif" font-size="10.00">ImGui::NewFrame</text>
</a>
</g>
</g>
<!-- Node18&#45;&gt;Node19 -->
<g id="edge36_Node000018_Node000019" class="edge">
<title>Node18&#45;&gt;Node19</title>
<g id="a_edge36_Node000018_Node000019"><a xlink:title=" ">
<path fill="none" stroke="#63b8ff" d="M1125.91,-59.75C1115.36,-59.75 1104.96,-59.75 1095.31,-59.75"/>
<polygon fill="#63b8ff" stroke="#63b8ff" points="1125.89,-63.25 1135.89,-59.75 1125.89,-56.25 1125.89,-63.25"/>
</a>
</g>
</g>
</g>
</svg>
