<?xml version="1.0" encoding="UTF-8" standalone="no"?>
<!DOCTYPE svg PUBLIC "-//W3C//DTD SVG 1.1//EN"
 "http://www.w3.org/Graphics/SVG/1.1/DTD/svg11.dtd">
<!-- Generated by graphviz version 12.2.0 (20241103.1931)
 -->
<!-- Title: ImFontAtlas::AddCustomRectRegular Pages: 1 -->
<svg width="497pt" height="68pt"
 viewBox="0.00 0.00 497.00 67.75" xmlns="http://www.w3.org/2000/svg" xmlns:xlink="http://www.w3.org/1999/xlink">
<g id="graph0" class="graph" transform="scale(1 1) rotate(0) translate(4 63.75)">
<title>ImFontAtlas::AddCustomRectRegular</title>
<!-- Node1 -->
<g id="Node000001" class="node">
<title>Node1</title>
<g id="a_Node000001"><a xlink:title=" ">
<polygon fill="#999999" stroke="#666666" points="158.5,-46.12 0,-46.12 0,-12.62 158.5,-12.62 158.5,-46.12"/>
<text text-anchor="start" x="8" y="-32.62" font-family="Helvetica,sans-Serif" font-size="10.00">ImFontAtlas::AddCustomRect</text>
<text text-anchor="middle" x="79.25" y="-19.88" font-family="Helvetica,sans-Serif" font-size="10.00">Regular</text>
</a>
</g>
</g>
<!-- Node2 -->
<g id="Node000002" class="node">
<title>Node2</title>
<g id="a_Node000002"><a xlink:href="structImVector.html#aab5df48e0711a48bd12f3206e08c4108" target="_top" xlink:title=" ">
<polygon fill="white" stroke="#666666" points="311.75,-39.75 194.5,-39.75 194.5,-19 311.75,-19 311.75,-39.75"/>
<text text-anchor="middle" x="253.12" y="-26.25" font-family="Helvetica,sans-Serif" font-size="10.00">ImVector::push_back</text>
</a>
</g>
</g>
<!-- Node1&#45;&gt;Node2 -->
<g id="edge1_Node000001_Node000002" class="edge">
<title>Node1&#45;&gt;Node2</title>
<g id="a_edge1_Node000001_Node000002"><a xlink:title=" ">
<path fill="none" stroke="#63b8ff" d="M158.89,-29.38C166.85,-29.38 174.89,-29.38 182.74,-29.38"/>
<polygon fill="#63b8ff" stroke="#63b8ff" points="182.56,-32.88 192.56,-29.38 182.56,-25.88 182.56,-32.88"/>
</a>
</g>
</g>
<!-- Node3 -->
<g id="Node000003" class="node">
<title>Node3</title>
<g id="a_Node000003"><a xlink:href="structImVector.html#a3a097635d464b1b70dc7d59996a88b28" target="_top" xlink:title=" ">
<polygon fill="white" stroke="#666666" points="489,-59.75 347.75,-59.75 347.75,-39 489,-39 489,-59.75"/>
<text text-anchor="middle" x="418.38" y="-46.25" font-family="Helvetica,sans-Serif" font-size="10.00">ImVector::_grow_capacity</text>
</a>
</g>
</g>
<!-- Node2&#45;&gt;Node3 -->
<g id="edge2_Node000002_Node000003" class="edge">
<title>Node2&#45;&gt;Node3</title>
<g id="a_edge2_Node000002_Node000003"><a xlink:title=" ">
<path fill="none" stroke="#63b8ff" d="M312.14,-36.48C319.93,-37.44 328.03,-38.43 336.12,-39.42"/>
<polygon fill="#63b8ff" stroke="#63b8ff" points="335.68,-42.89 346.03,-40.63 336.53,-35.94 335.68,-42.89"/>
</a>
</g>
</g>
<!-- Node4 -->
<g id="Node000004" class="node">
<title>Node4</title>
<g id="a_Node000004"><a xlink:href="structImVector.html#a0f14f5736c3372157856eebb67123b75" target="_top" xlink:title=" ">
<polygon fill="white" stroke="#666666" points="469.5,-20.75 367.25,-20.75 367.25,0 469.5,0 469.5,-20.75"/>
<text text-anchor="middle" x="418.38" y="-7.25" font-family="Helvetica,sans-Serif" font-size="10.00">ImVector::reserve</text>
</a>
</g>
</g>
<!-- Node2&#45;&gt;Node4 -->
<g id="edge3_Node000002_Node000004" class="edge">
<title>Node2&#45;&gt;Node4</title>
<g id="a_edge3_Node000002_Node000004"><a xlink:title=" ">
<path fill="none" stroke="#63b8ff" d="M312.14,-22.62C326.24,-20.98 341.37,-19.22 355.64,-17.56"/>
<polygon fill="#63b8ff" stroke="#63b8ff" points="355.83,-21.06 365.36,-16.43 355.02,-14.11 355.83,-21.06"/>
</a>
</g>
</g>
</g>
</svg>
