<?xml version="1.0" encoding="UTF-8" standalone="no"?>
<!DOCTYPE svg PUBLIC "-//W3C//DTD SVG 1.1//EN"
 "http://www.w3.org/Graphics/SVG/1.1/DTD/svg11.dtd">
<!-- Generated by graphviz version 12.2.1 (20241206.2353)
 -->
<!-- Title: ImVector::swap Pages: 1 -->
<!--zoomable 202 -->

<svg id="main" version="1.1" xmlns="http://www.w3.org/2000/svg" xmlns:xlink="http://www.w3.org/1999/xlink" xml:space="preserve" onload="init(evt)">

<style type="text/css"><![CDATA[
.node, .edge {opacity: 0.7;}
.node.selected, .edge.selected {opacity: 1;}
.edge:hover path { stroke: red; }
.edge:hover polygon { stroke: red; fill: red; }
]]></style>

<defs>
  <circle id="rim" cx="0" cy="0" r="7"/>
  <circle id="rim2" cx="0" cy="0" r="3.5"/>
  <g id="zoomPlus">
    <use xlink:href="#rim" fill="#404040"><set attributeName="fill" to="#808080" begin="zoomplus.mouseover" end="zoomplus.mouseout"/></use>
    <path d="M-4,0h8M0,-4v8" fill="none" stroke="white" stroke-width="1.5" pointer-events="none"/>
  </g>
  <g id="zoomMin">
    <use xlink:href="#rim" fill="#404040"><set attributeName="fill" to="#808080" begin="zoomminus.mouseover" end="zoomminus.mouseout"/></use>
    <path d="M-4,0h8" fill="none" stroke="white" stroke-width="1.5" pointer-events="none"/>
  </g>
  <g id="arrowUp" transform="translate(30 24)">
    <use xlink:href="#rim"/>
    <path pointer-events="none" fill="none" stroke="white" stroke-width="1.5" d="M0,-3.0v7 M-2.5,-0.5L0,-3.0L2.5,-0.5"/>
  </g>
  <g id="arrowRight" transform="rotate(90) translate(36 -43)">
    <use xlink:href="#rim"/>
    <path pointer-events="none" fill="none" stroke="white" stroke-width="1.5" d="M0,-3.0v7 M-2.5,-0.5L0,-3.0L2.5,-0.5"/>
  </g>
  <g id="arrowDown" transform="rotate(180) translate(-30 -48)">
    <use xlink:href="#rim"/>
    <path pointer-events="none" fill="none" stroke="white" stroke-width="1.5" d="M0,-3.0v7 M-2.5,-0.5L0,-3.0L2.5,-0.5"/>
  </g>
  <g id="arrowLeft" transform="rotate(270) translate(-36 17)">
    <use xlink:href="#rim"/>
    <path pointer-events="none" fill="none" stroke="white" stroke-width="1.5" d="M0,-3.0v7 M-2.5,-0.5L0,-3.0L2.5,-0.5"/>
  </g>
  <g id="resetDef">
    <use xlink:href="#rim2" fill="#404040"><set attributeName="fill" to="#808080" begin="reset.mouseover" end="reset.mouseout"/></use>
  </g>
</defs>
<script type="application/ecmascript">
var viewWidth = 853;
var viewHeight = 202;
var sectionId = 'dynsection-34';
</script>
<script type="application/ecmascript" xlink:href="svg.min.js"/>
<svg id="graph" class="graph">
<g id="viewport">
<title>ImVector::swap</title>
<!-- Node1 -->
<g id="Node000001" class="node">
<title>Node1</title>
<g id="a_Node000001"><a xlink:title=" ">
<polygon fill="#999999" stroke="#666666" points="845,-103.75 754,-103.75 754,-83 845,-83 845,-103.75"/>
<text text-anchor="middle" x="799.5" y="-90.25" font-family="Helvetica,sans-Serif" font-size="10.00">ImVector::swap</text>
</a>
</g>
</g>
<!-- Node2 -->
<g id="Node000002" class="node">
<title>Node2</title>
<g id="a_Node000002"><a xlink:href="structExampleSelectionWithDeletion.html#aa040ee356abd37ae15d34eaae8b53822" target="_top" xlink:title=" ">
<polygon fill="white" stroke="#666666" points="716.12,-194.12 548.62,-194.12 548.62,-160.62 716.12,-160.62 716.12,-194.12"/>
<text text-anchor="start" x="556.62" y="-180.62" font-family="Helvetica,sans-Serif" font-size="10.00">ExampleSelectionWithDeletion</text>
<text text-anchor="middle" x="632.38" y="-167.88" font-family="Helvetica,sans-Serif" font-size="10.00">::ApplyDeletionPostLoop</text>
</a>
</g>
</g>
<!-- Node1&#45;&gt;Node2 -->
<g id="edge1_Node000001_Node000002" class="edge">
<title>Node1&#45;&gt;Node2</title>
<g id="a_edge1_Node000001_Node000002"><a xlink:title=" ">
<path fill="none" stroke="#63b8ff" d="M777.46,-111.49C761.89,-124.12 739.72,-140.58 718,-151.38 711.39,-154.66 704.29,-157.62 697.11,-160.28"/>
<polygon fill="#63b8ff" stroke="#63b8ff" points="779.61,-114.25 785.06,-105.17 775.13,-108.87 779.61,-114.25"/>
</a>
</g>
</g>
<!-- Node3 -->
<g id="Node000003" class="node">
<title>Node3</title>
<g id="a_Node000003"><a xlink:href="structImDrawData.html#a88ae746e958b79ee527fe94dee29d57c" target="_top" xlink:title=" ">
<polygon fill="white" stroke="#666666" points="718,-142.75 546.75,-142.75 546.75,-122 718,-122 718,-142.75"/>
<text text-anchor="middle" x="632.38" y="-129.25" font-family="Helvetica,sans-Serif" font-size="10.00">ImDrawData::DeIndexAllBuffers</text>
</a>
</g>
</g>
<!-- Node1&#45;&gt;Node3 -->
<g id="edge2_Node000001_Node000003" class="edge">
<title>Node1&#45;&gt;Node3</title>
<g id="a_edge2_Node000001_Node000003"><a xlink:title=" ">
<path fill="none" stroke="#63b8ff" d="M742.65,-106.57C722.02,-111.44 698.89,-116.9 679.25,-121.54"/>
<polygon fill="#63b8ff" stroke="#63b8ff" points="743.41,-109.98 752.34,-104.28 741.81,-103.17 743.41,-109.98"/>
</a>
</g>
</g>
<!-- Node4 -->
<g id="Node000004" class="node">
<title>Node4</title>
<g id="a_Node000004"><a xlink:href="namespaceImGui.html#a246c37da45e88a12ade440a0feacb4ee" target="_top" xlink:title=" ">
<polygon fill="white" stroke="#666666" points="682.38,-103.75 582.38,-103.75 582.38,-83 682.38,-83 682.38,-103.75"/>
<text text-anchor="middle" x="632.38" y="-90.25" font-family="Helvetica,sans-Serif" font-size="10.00">ImGui::EndFrame</text>
</a>
</g>
</g>
<!-- Node1&#45;&gt;Node4 -->
<g id="edge3_Node000001_Node000004" class="edge">
<title>Node1&#45;&gt;Node4</title>
<g id="a_edge3_Node000001_Node000004"><a xlink:title=" ">
<path fill="none" stroke="#63b8ff" d="M742.4,-93.38C723.04,-93.38 701.52,-93.38 682.74,-93.38"/>
<polygon fill="#63b8ff" stroke="#63b8ff" points="742.3,-96.88 752.3,-93.38 742.3,-89.88 742.3,-96.88"/>
</a>
</g>
</g>
<!-- Node6 -->
<g id="Node000006" class="node">
<title>Node6</title>
<g id="a_Node000006"><a xlink:href="structImChunkStream.html#adbd734ea08939c0bce519e90b26c9d28" target="_top" xlink:title=" ">
<polygon fill="white" stroke="#666666" points="695.5,-64.75 569.25,-64.75 569.25,-44 695.5,-44 695.5,-64.75"/>
<text text-anchor="middle" x="632.38" y="-51.25" font-family="Helvetica,sans-Serif" font-size="10.00">ImChunkStream::swap</text>
</a>
</g>
</g>
<!-- Node1&#45;&gt;Node6 -->
<g id="edge5_Node000001_Node000006" class="edge">
<title>Node1&#45;&gt;Node6</title>
<g id="a_edge5_Node000001_Node000006"><a xlink:title=" ">
<path fill="none" stroke="#63b8ff" d="M742.65,-80.18C722.02,-75.31 698.89,-69.85 679.25,-65.21"/>
<polygon fill="#63b8ff" stroke="#63b8ff" points="741.81,-83.58 752.34,-82.47 743.41,-76.77 741.81,-83.58"/>
</a>
</g>
</g>
<!-- Node10 -->
<g id="Node000010" class="node">
<title>Node10</title>
<g id="a_Node000010"><a xlink:href="namespaceImGui.html#ae48847b764f778b336dcb65519295c84" target="_top" xlink:title=" ">
<polygon fill="white" stroke="#666666" points="716.12,-24.75 548.62,-24.75 548.62,-4 716.12,-4 716.12,-24.75"/>
<text text-anchor="middle" x="632.38" y="-11.25" font-family="Helvetica,sans-Serif" font-size="10.00">ImGui::UpdateKeyRoutingTable</text>
</a>
</g>
</g>
<!-- Node1&#45;&gt;Node10 -->
<g id="edge9_Node000001_Node000010" class="edge">
<title>Node1&#45;&gt;Node10</title>
<g id="a_edge9_Node000001_Node000010"><a xlink:title=" ">
<path fill="none" stroke="#63b8ff" d="M777.9,-75.12C762.41,-62.28 740.13,-45.63 718,-35.38 709.21,-31.3 699.52,-27.95 689.94,-25.22"/>
<polygon fill="#63b8ff" stroke="#63b8ff" points="775.57,-77.74 785.46,-81.55 780.11,-72.41 775.57,-77.74"/>
</a>
</g>
</g>
<!-- Node5 -->
<g id="Node000005" class="node">
<title>Node5</title>
<g id="a_Node000005"><a xlink:href="namespaceImGui.html#ab51a164f547317c16c441f1599e3946d" target="_top" xlink:title=" ">
<polygon fill="white" stroke="#666666" points="467.25,-103.75 381.5,-103.75 381.5,-83 467.25,-83 467.25,-103.75"/>
<text text-anchor="middle" x="424.38" y="-90.25" font-family="Helvetica,sans-Serif" font-size="10.00">ImGui::Render</text>
</a>
</g>
</g>
<!-- Node4&#45;&gt;Node5 -->
<g id="edge4_Node000004_Node000005" class="edge">
<title>Node4&#45;&gt;Node5</title>
<g id="a_edge4_Node000004_Node000005"><a xlink:title=" ">
<path fill="none" stroke="#63b8ff" d="M570.65,-93.38C537.54,-93.38 497.39,-93.38 467.7,-93.38"/>
<polygon fill="#63b8ff" stroke="#63b8ff" points="570.52,-96.88 580.52,-93.38 570.52,-89.88 570.52,-96.88"/>
</a>
</g>
</g>
<!-- Node7 -->
<g id="Node000007" class="node">
<title>Node7</title>
<g id="a_Node000007"><a xlink:href="namespaceImGui.html#a4e0c06857053c7c3fbde16b8fd5bee17" target="_top" xlink:title=" ">
<polygon fill="white" stroke="#666666" points="510.75,-64.75 338,-64.75 338,-44 510.75,-44 510.75,-64.75"/>
<text text-anchor="middle" x="424.38" y="-51.25" font-family="Helvetica,sans-Serif" font-size="10.00">ImGui::TableGcCompactSettings</text>
</a>
</g>
</g>
<!-- Node6&#45;&gt;Node7 -->
<g id="edge6_Node000006_Node000007" class="edge">
<title>Node6&#45;&gt;Node7</title>
<g id="a_edge6_Node000006_Node000007"><a xlink:title=" ">
<path fill="none" stroke="#63b8ff" d="M557.67,-54.38C542.58,-54.38 526.57,-54.38 511.09,-54.38"/>
<polygon fill="#63b8ff" stroke="#63b8ff" points="557.5,-57.88 567.5,-54.38 557.5,-50.88 557.5,-57.88"/>
</a>
</g>
</g>
<!-- Node8 -->
<g id="Node000008" class="node">
<title>Node8</title>
<g id="a_Node000008"><a xlink:href="namespaceImGui.html#aab0d052a1581fddc1cc2d9d981f487c0" target="_top" xlink:title=" ">
<polygon fill="white" stroke="#666666" points="296.75,-72.12 145,-72.12 145,-38.62 296.75,-38.62 296.75,-72.12"/>
<text text-anchor="start" x="153" y="-58.62" font-family="Helvetica,sans-Serif" font-size="10.00">ImGui::GcCompactTransient</text>
<text text-anchor="middle" x="220.88" y="-45.88" font-family="Helvetica,sans-Serif" font-size="10.00">MiscBuffers</text>
</a>
</g>
</g>
<!-- Node7&#45;&gt;Node8 -->
<g id="edge7_Node000007_Node000008" class="edge">
<title>Node7&#45;&gt;Node8</title>
<g id="a_edge7_Node000007_Node000008"><a xlink:title=" ">
<path fill="none" stroke="#63b8ff" d="M326.18,-54.86C316.38,-54.91 306.55,-54.95 297.03,-55"/>
<polygon fill="#63b8ff" stroke="#63b8ff" points="326.13,-58.36 336.12,-54.81 326.1,-51.36 326.13,-58.36"/>
</a>
</g>
</g>
<!-- Node9 -->
<g id="Node000009" class="node">
<title>Node9</title>
<g id="a_Node000009"><a xlink:href="namespaceImGui.html#ab3f1fc018f903b7ad79fd10663375774" target="_top" xlink:title=" ">
<polygon fill="white" stroke="#666666" points="103.75,-42.75 0,-42.75 0,-22 103.75,-22 103.75,-42.75"/>
<text text-anchor="middle" x="51.88" y="-29.25" font-family="Helvetica,sans-Serif" font-size="10.00">ImGui::NewFrame</text>
</a>
</g>
</g>
<!-- Node8&#45;&gt;Node9 -->
<g id="edge8_Node000008_Node000009" class="edge">
<title>Node8&#45;&gt;Node9</title>
<g id="a_edge8_Node000008_Node000009"><a xlink:title=" ">
<path fill="none" stroke="#63b8ff" d="M133.42,-43.47C123.45,-42.09 113.52,-40.73 104.23,-39.45"/>
<polygon fill="#63b8ff" stroke="#63b8ff" points="132.8,-46.92 143.18,-44.81 133.75,-39.98 132.8,-46.92"/>
</a>
</g>
</g>
<!-- Node11 -->
<g id="Node000011" class="node">
<title>Node11</title>
<g id="a_Node000011"><a xlink:href="namespaceImGui.html#ab9f7d60c2c00ab2bad55e49288983766" target="_top" xlink:title=" ">
<polygon fill="white" stroke="#666666" points="302,-20.75 139.75,-20.75 139.75,0 302,0 302,-20.75"/>
<text text-anchor="middle" x="220.88" y="-7.25" font-family="Helvetica,sans-Serif" font-size="10.00">ImGui::UpdateKeyboardInputs</text>
</a>
</g>
</g>
<!-- Node10&#45;&gt;Node11 -->
<g id="edge10_Node000010_Node000011" class="edge">
<title>Node10&#45;&gt;Node11</title>
<g id="a_edge10_Node000010_Node000011"><a xlink:title=" ">
<path fill="none" stroke="#63b8ff" d="M537.32,-13.46C466.23,-12.76 369.67,-11.82 302.18,-11.16"/>
<polygon fill="#63b8ff" stroke="#63b8ff" points="536.96,-16.95 546.99,-13.55 537.03,-9.95 536.96,-16.95"/>
</a>
</g>
</g>
<!-- Node11&#45;&gt;Node9 -->
<g id="edge11_Node000011_Node000009" class="edge">
<title>Node11&#45;&gt;Node9</title>
<g id="a_edge11_Node000011_Node000009"><a xlink:title=" ">
<path fill="none" stroke="#63b8ff" d="M128.06,-22.47C119.83,-23.55 111.71,-24.62 104.03,-25.64"/>
<polygon fill="#63b8ff" stroke="#63b8ff" points="128.35,-25.96 137.81,-21.19 127.44,-19.02 128.35,-25.96"/>
</a>
</g>
</g>
</g>
</svg>

<g id="navigator" transform="translate(0 0)" fill="#404254">
  <rect fill="#f2f5e9" fill-opacity="0.5" stroke="#606060" stroke-width=".5" x="0" y="0" width="60" height="60"/>
  <use id="zoomplus" xlink:href="#zoomPlus" x="17" y="9" onmousedown="handleZoom(evt,'in')"/>
  <use id="zoomminus" xlink:href="#zoomMin" x="42" y="9" onmousedown="handleZoom(evt,'out')"/>
  <use id="reset" xlink:href="#resetDef" x="30" y="36" onmousedown="handleReset()"/>
   <use id="arrowup" xlink:href="#arrowUp" x="0" y="0" onmousedown="handlePan(0,-1)"/>
  <use id="arrowright" xlink:href="#arrowRight" x="0" y="0" onmousedown="handlePan(1,0)"/>
  <use id="arrowdown" xlink:href="#arrowDown" x="0" y="0" onmousedown="handlePan(0,1)"/>
  <use id="arrowleft" xlink:href="#arrowLeft" x="0" y="0" onmousedown="handlePan(-1,0)"/>
</g>
<svg viewBox="0 0 15 15" width="100%" height="30px" preserveAspectRatio="xMaxYMin meet">
 <g id="arrow_out" transform="scale(0.3 0.3)">
  <a xlink:href="structImVector_afcec0d2a1e28aebe412b6efd06f0a77a_icgraph_org.svg" target="_base">
   <rect id="button" ry="5" rx="5" y="6" x="6" height="38" width="38"
        fill="#f2f5e9" fill-opacity="0.5" stroke="#606060" stroke-width="1.0"/>
   <path id="arrow"
     d="M 11.500037,31.436501 C 11.940474,20.09759 22.043105,11.32322 32.158766,21.979434 L 37.068811,17.246167 C 37.068811,17.246167 37.088388,32 37.088388,32 L 22.160133,31.978069 C 22.160133,31.978069 26.997745,27.140456 26.997745,27.140456 C 18.528582,18.264221 13.291696,25.230495 11.500037,31.436501 z"
     style="fill:#404040;"/>
  </a>
 </g>
</svg>

<style type='text/css'>
<![CDATA[
[data-mouse-over-selected='false'] { opacity: 0.7; }
[data-mouse-over-selected='true']  { opacity: 1.0; }
]]>
</style>
<script type="application/ecmascript"><![CDATA[
document.addEventListener('DOMContentLoaded', (event) => {
  highlightEdges();
  highlightAdjacentNodes();
});
]]></script>
</svg>
