<?xml version="1.0" encoding="UTF-8" standalone="no"?>
<!DOCTYPE svg PUBLIC "-//W3C//DTD SVG 1.1//EN"
 "http://www.w3.org/Graphics/SVG/1.1/DTD/svg11.dtd">
<!-- Generated by graphviz version 12.2.0 (20241103.1931)
 -->
<!-- Title: ImGuiSelectionBasicStorage::GetStorageIdFromIndex Pages: 1 -->
<svg width="695pt" height="146pt"
 viewBox="0.00 0.00 694.50 145.50" xmlns="http://www.w3.org/2000/svg" xmlns:xlink="http://www.w3.org/1999/xlink">
<g id="graph0" class="graph" transform="scale(1 1) rotate(0) translate(4 141.5)">
<title>ImGuiSelectionBasicStorage::GetStorageIdFromIndex</title>
<!-- Node1 -->
<g id="Node000001" class="node">
<title>Node1</title>
<g id="a_Node000001"><a xlink:title=" ">
<polygon fill="#999999" stroke="#666666" points="686.5,-85.5 532.5,-85.5 532.5,-52 686.5,-52 686.5,-85.5"/>
<text text-anchor="start" x="540.5" y="-72" font-family="Helvetica,sans-Serif" font-size="10.00">ImGuiSelectionBasicStorage</text>
<text text-anchor="middle" x="609.5" y="-59.25" font-family="Helvetica,sans-Serif" font-size="10.00">::GetStorageIdFromIndex</text>
</a>
</g>
</g>
<!-- Node2 -->
<g id="Node000002" class="node">
<title>Node2</title>
<g id="a_Node000002"><a xlink:href="structExampleSelectionWithDeletion.html#aa040ee356abd37ae15d34eaae8b53822" target="_top" xlink:title=" ">
<polygon fill="white" stroke="#666666" points="496.5,-137.5 329,-137.5 329,-104 496.5,-104 496.5,-137.5"/>
<text text-anchor="start" x="337" y="-124" font-family="Helvetica,sans-Serif" font-size="10.00">ExampleSelectionWithDeletion</text>
<text text-anchor="middle" x="412.75" y="-111.25" font-family="Helvetica,sans-Serif" font-size="10.00">::ApplyDeletionPostLoop</text>
</a>
</g>
</g>
<!-- Node1&#45;&gt;Node2 -->
<g id="edge1_Node000001_Node000002" class="edge">
<title>Node1&#45;&gt;Node2</title>
<g id="a_edge1_Node000001_Node000002"><a xlink:title=" ">
<path fill="none" stroke="#63b8ff" d="M532.83,-88.95C514.77,-93.78 495.66,-98.88 478.15,-103.55"/>
<polygon fill="#63b8ff" stroke="#63b8ff" points="533.7,-92.34 542.46,-86.38 531.89,-85.58 533.7,-92.34"/>
</a>
</g>
</g>
<!-- Node4 -->
<g id="Node000004" class="node">
<title>Node4</title>
<g id="a_Node000004"><a xlink:href="structExampleSelectionWithDeletion.html#a741d9367a06463991c3171a06c0924c8" target="_top" xlink:title=" ">
<polygon fill="white" stroke="#666666" points="496.5,-85.5 329,-85.5 329,-52 496.5,-52 496.5,-85.5"/>
<text text-anchor="start" x="337" y="-72" font-family="Helvetica,sans-Serif" font-size="10.00">ExampleSelectionWithDeletion</text>
<text text-anchor="middle" x="412.75" y="-59.25" font-family="Helvetica,sans-Serif" font-size="10.00">::ApplyDeletionPreLoop</text>
</a>
</g>
</g>
<!-- Node1&#45;&gt;Node4 -->
<g id="edge3_Node000001_Node000004" class="edge">
<title>Node1&#45;&gt;Node4</title>
<g id="a_edge3_Node000001_Node000004"><a xlink:title=" ">
<path fill="none" stroke="#63b8ff" d="M520.82,-68.75C512.79,-68.75 504.68,-68.75 496.69,-68.75"/>
<polygon fill="#63b8ff" stroke="#63b8ff" points="520.58,-72.25 530.58,-68.75 520.58,-65.25 520.58,-72.25"/>
</a>
</g>
</g>
<!-- Node5 -->
<g id="Node000005" class="node">
<title>Node5</title>
<g id="a_Node000005"><a xlink:href="structImGuiSelectionBasicStorage.html#a5da8efc0dbe1611b3f980afba295110a" target="_top" xlink:title=" ">
<polygon fill="white" stroke="#666666" points="489.75,-33.5 335.75,-33.5 335.75,0 489.75,0 489.75,-33.5"/>
<text text-anchor="start" x="343.75" y="-20" font-family="Helvetica,sans-Serif" font-size="10.00">ImGuiSelectionBasicStorage</text>
<text text-anchor="middle" x="412.75" y="-7.25" font-family="Helvetica,sans-Serif" font-size="10.00">::ApplyRequests</text>
</a>
</g>
</g>
<!-- Node1&#45;&gt;Node5 -->
<g id="edge5_Node000001_Node000005" class="edge">
<title>Node1&#45;&gt;Node5</title>
<g id="a_edge5_Node000001_Node000005"><a xlink:title=" ">
<path fill="none" stroke="#63b8ff" d="M532.83,-48.55C514.77,-43.72 495.66,-38.62 478.15,-33.95"/>
<polygon fill="#63b8ff" stroke="#63b8ff" points="531.89,-51.92 542.46,-51.12 533.7,-45.16 531.89,-51.92"/>
</a>
</g>
</g>
<!-- Node3 -->
<g id="Node000003" class="node">
<title>Node3</title>
<g id="a_Node000003"><a xlink:href="structExampleAssetsBrowser.html#a2b36e1f9b7d764e547611baa4c7fd8d1" target="_top" xlink:title=" ">
<polygon fill="white" stroke="#666666" points="288.5,-85.5 157.75,-85.5 157.75,-52 288.5,-52 288.5,-85.5"/>
<text text-anchor="start" x="165.75" y="-72" font-family="Helvetica,sans-Serif" font-size="10.00">ExampleAssetsBrowser</text>
<text text-anchor="middle" x="223.12" y="-59.25" font-family="Helvetica,sans-Serif" font-size="10.00">::Draw</text>
</a>
</g>
</g>
<!-- Node2&#45;&gt;Node3 -->
<g id="edge2_Node000002_Node000003" class="edge">
<title>Node2&#45;&gt;Node3</title>
<g id="a_edge2_Node000002_Node000003"><a xlink:title=" ">
<path fill="none" stroke="#63b8ff" d="M338.85,-100.55C321.45,-95.72 303.03,-90.62 286.17,-85.95"/>
<polygon fill="#63b8ff" stroke="#63b8ff" points="337.5,-103.8 348.08,-103.1 339.37,-97.06 337.5,-103.8"/>
</a>
</g>
</g>
<!-- Node4&#45;&gt;Node3 -->
<g id="edge4_Node000004_Node000003" class="edge">
<title>Node4&#45;&gt;Node3</title>
<g id="a_edge4_Node000004_Node000003"><a xlink:title=" ">
<path fill="none" stroke="#63b8ff" d="M317.34,-68.75C307.71,-68.75 298.08,-68.75 288.86,-68.75"/>
<polygon fill="#63b8ff" stroke="#63b8ff" points="317.12,-72.25 327.12,-68.75 317.12,-65.25 317.12,-72.25"/>
</a>
</g>
</g>
<!-- Node5&#45;&gt;Node3 -->
<g id="edge8_Node000005_Node000003" class="edge">
<title>Node5&#45;&gt;Node3</title>
<g id="a_edge8_Node000005_Node000003"><a xlink:title=" ">
<path fill="none" stroke="#63b8ff" d="M338.85,-36.95C321.45,-41.78 303.03,-46.88 286.17,-51.55"/>
<polygon fill="#63b8ff" stroke="#63b8ff" points="339.37,-40.44 348.08,-34.4 337.5,-33.7 339.37,-40.44"/>
</a>
</g>
</g>
<!-- Node6 -->
<g id="Node000006" class="node">
<title>Node6</title>
<g id="a_Node000006"><a xlink:href="structExampleDualListBox.html#aab28206553b6614372697f40dbc4c9a8" target="_top" xlink:title=" ">
<polygon fill="white" stroke="#666666" points="293,-33.5 153.25,-33.5 153.25,0 293,0 293,-33.5"/>
<text text-anchor="start" x="161.25" y="-20" font-family="Helvetica,sans-Serif" font-size="10.00">ExampleDualListBox</text>
<text text-anchor="middle" x="223.12" y="-7.25" font-family="Helvetica,sans-Serif" font-size="10.00">::ApplySelectionRequests</text>
</a>
</g>
</g>
<!-- Node5&#45;&gt;Node6 -->
<g id="edge6_Node000005_Node000006" class="edge">
<title>Node5&#45;&gt;Node6</title>
<g id="a_edge6_Node000005_Node000006"><a xlink:title=" ">
<path fill="none" stroke="#63b8ff" d="M323.94,-16.75C313.7,-16.75 303.36,-16.75 293.42,-16.75"/>
<polygon fill="#63b8ff" stroke="#63b8ff" points="323.92,-20.25 333.92,-16.75 323.92,-13.25 323.92,-20.25"/>
</a>
</g>
</g>
<!-- Node7 -->
<g id="Node000007" class="node">
<title>Node7</title>
<g id="a_Node000007"><a xlink:href="structExampleDualListBox.html#a1413fd803c568a0d4b98a8f3c59af1be" target="_top" xlink:title=" ">
<polygon fill="white" stroke="#666666" points="117.25,-33.5 0,-33.5 0,0 117.25,0 117.25,-33.5"/>
<text text-anchor="start" x="8" y="-20" font-family="Helvetica,sans-Serif" font-size="10.00">ExampleDualListBox</text>
<text text-anchor="middle" x="58.62" y="-7.25" font-family="Helvetica,sans-Serif" font-size="10.00">::Show</text>
</a>
</g>
</g>
<!-- Node6&#45;&gt;Node7 -->
<g id="edge7_Node000006_Node000007" class="edge">
<title>Node6&#45;&gt;Node7</title>
<g id="a_edge7_Node000006_Node000007"><a xlink:title=" ">
<path fill="none" stroke="#63b8ff" d="M141.75,-16.75C133.61,-16.75 125.46,-16.75 117.62,-16.75"/>
<polygon fill="#63b8ff" stroke="#63b8ff" points="141.7,-20.25 151.7,-16.75 141.7,-13.25 141.7,-20.25"/>
</a>
</g>
</g>
</g>
</svg>
