<?xml version="1.0" encoding="UTF-8" standalone="no"?>
<!DOCTYPE svg PUBLIC "-//W3C//DTD SVG 1.1//EN"
 "http://www.w3.org/Graphics/SVG/1.1/DTD/svg11.dtd">
<!-- Generated by graphviz version 12.2.0 (20241103.1931)
 -->
<!-- Title: ImFontAtlas::GetTexDataAsRGBA32 Pages: 1 -->
<svg width="1761pt" height="165pt"
 viewBox="0.00 0.00 1761.00 165.12" xmlns="http://www.w3.org/2000/svg" xmlns:xlink="http://www.w3.org/1999/xlink">
<g id="graph0" class="graph" transform="scale(1 1) rotate(0) translate(4 161.12)">
<title>ImFontAtlas::GetTexDataAsRGBA32</title>
<!-- Node1 -->
<g id="Node000001" class="node">
<title>Node1</title>
<g id="a_Node000001"><a xlink:title=" ">
<polygon fill="#999999" stroke="#666666" points="149.5,-55.5 0,-55.5 0,-22 149.5,-22 149.5,-55.5"/>
<text text-anchor="start" x="8" y="-42" font-family="Helvetica,sans-Serif" font-size="10.00">ImFontAtlas::GetTexDataAs</text>
<text text-anchor="middle" x="74.75" y="-29.25" font-family="Helvetica,sans-Serif" font-size="10.00">RGBA32</text>
</a>
</g>
</g>
<!-- Node2 -->
<g id="Node000002" class="node">
<title>Node2</title>
<g id="a_Node000002"><a xlink:href="structImFontAtlas.html#aeff1a1044a1ab68d8f27bb2819cd9f44" target="_top" xlink:title=" ">
<polygon fill="white" stroke="#666666" points="335,-55.5 185.5,-55.5 185.5,-22 335,-22 335,-55.5"/>
<text text-anchor="start" x="193.5" y="-42" font-family="Helvetica,sans-Serif" font-size="10.00">ImFontAtlas::GetTexDataAs</text>
<text text-anchor="middle" x="260.25" y="-29.25" font-family="Helvetica,sans-Serif" font-size="10.00">Alpha8</text>
</a>
</g>
</g>
<!-- Node1&#45;&gt;Node2 -->
<g id="edge1_Node000001_Node000002" class="edge">
<title>Node1&#45;&gt;Node2</title>
<g id="a_edge1_Node000001_Node000002"><a xlink:title=" ">
<path fill="none" stroke="#63b8ff" d="M149.86,-38.75C157.77,-38.75 165.86,-38.75 173.89,-38.75"/>
<polygon fill="#63b8ff" stroke="#63b8ff" points="173.65,-42.25 183.65,-38.75 173.65,-35.25 173.65,-42.25"/>
</a>
</g>
</g>
<!-- Node3 -->
<g id="Node000003" class="node">
<title>Node3</title>
<g id="a_Node000003"><a xlink:href="structImFontAtlas.html#a81e39e30dffa4dd7e458a53297451e27" target="_top" xlink:title=" ">
<polygon fill="white" stroke="#666666" points="476.25,-49.12 371,-49.12 371,-28.38 476.25,-28.38 476.25,-49.12"/>
<text text-anchor="middle" x="423.62" y="-35.62" font-family="Helvetica,sans-Serif" font-size="10.00">ImFontAtlas::Build</text>
</a>
</g>
</g>
<!-- Node2&#45;&gt;Node3 -->
<g id="edge2_Node000002_Node000003" class="edge">
<title>Node2&#45;&gt;Node3</title>
<g id="a_edge2_Node000002_Node000003"><a xlink:title=" ">
<path fill="none" stroke="#63b8ff" d="M335.33,-38.75C343.34,-38.75 351.45,-38.75 359.32,-38.75"/>
<polygon fill="#63b8ff" stroke="#63b8ff" points="359.14,-42.25 369.14,-38.75 359.14,-35.25 359.14,-42.25"/>
</a>
</g>
</g>
<!-- Node4 -->
<g id="Node000004" class="node">
<title>Node4</title>
<g id="a_Node000004"><a xlink:href="structImFontAtlas.html#a9d2b4a94579bf603a0d2662cd8348cbd" target="_top" xlink:title=" ">
<polygon fill="white" stroke="#666666" points="668.5,-72.12 512.25,-72.12 512.25,-51.38 668.5,-51.38 668.5,-72.12"/>
<text text-anchor="middle" x="590.38" y="-58.62" font-family="Helvetica,sans-Serif" font-size="10.00">ImFontAtlas::AddFontDefault</text>
</a>
</g>
</g>
<!-- Node3&#45;&gt;Node4 -->
<g id="edge3_Node000003_Node000004" class="edge">
<title>Node3&#45;&gt;Node4</title>
<g id="a_edge3_Node000003_Node000004"><a xlink:title=" ">
<path fill="none" stroke="#63b8ff" d="M476.3,-45.96C484.09,-47.05 492.3,-48.2 500.6,-49.36"/>
<polygon fill="#63b8ff" stroke="#63b8ff" points="500.05,-52.81 510.44,-50.73 501.02,-45.88 500.05,-52.81"/>
</a>
</g>
</g>
<!-- Node16 -->
<g id="Node000016" class="node">
<title>Node16</title>
<g id="a_Node000016"><a xlink:href="namespaceImGuiFreeType.html#ad0ba08f92f212ec5da9dd7a2872e0ae3" target="_top" xlink:title=" ">
<polygon fill="white" stroke="#666666" points="663.62,-33.5 517.12,-33.5 517.12,0 663.62,0 663.62,-33.5"/>
<text text-anchor="start" x="525.12" y="-20" font-family="Helvetica,sans-Serif" font-size="10.00">ImGuiFreeType::GetBuilder</text>
<text text-anchor="middle" x="590.38" y="-7.25" font-family="Helvetica,sans-Serif" font-size="10.00">ForFreeType</text>
</a>
</g>
</g>
<!-- Node3&#45;&gt;Node16 -->
<g id="edge15_Node000003_Node000016" class="edge">
<title>Node3&#45;&gt;Node16</title>
<g id="a_edge15_Node000003_Node000016"><a xlink:title=" ">
<path fill="none" stroke="#63b8ff" d="M476.3,-31.85C485.63,-30.6 495.56,-29.28 505.53,-27.95"/>
<polygon fill="#63b8ff" stroke="#63b8ff" points="505.81,-31.44 515.26,-26.65 504.89,-24.5 505.81,-31.44"/>
</a>
</g>
</g>
<!-- Node5 -->
<g id="Node000005" class="node">
<title>Node5</title>
<g id="a_Node000005"><a xlink:href="structImFontAtlas.html#ab43b930beb57c0b998f42f4586677956" target="_top" xlink:title=" ">
<polygon fill="white" stroke="#666666" points="875.75,-104.5 704.5,-104.5 704.5,-71 875.75,-71 875.75,-104.5"/>
<text text-anchor="start" x="712.5" y="-91" font-family="Helvetica,sans-Serif" font-size="10.00">ImFontAtlas::AddFontFrom</text>
<text text-anchor="middle" x="790.12" y="-78.25" font-family="Helvetica,sans-Serif" font-size="10.00">MemoryCompressedBase85TTF</text>
</a>
</g>
</g>
<!-- Node4&#45;&gt;Node5 -->
<g id="edge4_Node000004_Node000005" class="edge">
<title>Node4&#45;&gt;Node5</title>
<g id="a_edge4_Node000004_Node000005"><a xlink:title=" ">
<path fill="none" stroke="#63b8ff" d="M668.96,-71.95C676.83,-72.99 684.89,-74.05 692.93,-75.1"/>
<polygon fill="#63b8ff" stroke="#63b8ff" points="692.38,-78.56 702.75,-76.39 693.29,-71.62 692.38,-78.56"/>
</a>
</g>
</g>
<!-- Node15 -->
<g id="Node000015" class="node">
<title>Node15</title>
<g id="a_Node000015"><a xlink:href="structImFontAtlas.html#adec0df140eb1dc01c2a22a5253d62820" target="_top" xlink:title=" ">
<polygon fill="white" stroke="#666666" points="871.25,-52.5 709,-52.5 709,-19 871.25,-19 871.25,-52.5"/>
<text text-anchor="start" x="717" y="-39" font-family="Helvetica,sans-Serif" font-size="10.00">ImFontAtlas::GetGlyphRanges</text>
<text text-anchor="middle" x="790.12" y="-26.25" font-family="Helvetica,sans-Serif" font-size="10.00">Default</text>
</a>
</g>
</g>
<!-- Node4&#45;&gt;Node15 -->
<g id="edge14_Node000004_Node000015" class="edge">
<title>Node4&#45;&gt;Node15</title>
<g id="a_edge14_Node000004_Node000015"><a xlink:title=" ">
<path fill="none" stroke="#63b8ff" d="M668.96,-51.55C678.19,-50.34 687.69,-49.09 697.09,-47.85"/>
<polygon fill="#63b8ff" stroke="#63b8ff" points="697.55,-51.32 707,-46.55 696.63,-44.38 697.55,-51.32"/>
</a>
</g>
</g>
<!-- Node6 -->
<g id="Node000006" class="node">
<title>Node6</title>
<g id="a_Node000006"><a xlink:href="structImFontAtlas.html#a478ffa07777bf990ade02889e15a21ab" target="_top" xlink:title=" ">
<polygon fill="white" stroke="#666666" points="1056.75,-104.5 911.75,-104.5 911.75,-71 1056.75,-71 1056.75,-104.5"/>
<text text-anchor="start" x="919.75" y="-91" font-family="Helvetica,sans-Serif" font-size="10.00">ImFontAtlas::AddFontFrom</text>
<text text-anchor="middle" x="984.25" y="-78.25" font-family="Helvetica,sans-Serif" font-size="10.00">MemoryCompressedTTF</text>
</a>
</g>
</g>
<!-- Node5&#45;&gt;Node6 -->
<g id="edge5_Node000005_Node000006" class="edge">
<title>Node5&#45;&gt;Node6</title>
<g id="a_edge5_Node000005_Node000006"><a xlink:title=" ">
<path fill="none" stroke="#63b8ff" d="M876.23,-87.75C884.12,-87.75 892.11,-87.75 899.99,-87.75"/>
<polygon fill="#63b8ff" stroke="#63b8ff" points="899.9,-91.25 909.9,-87.75 899.9,-84.25 899.9,-91.25"/>
</a>
</g>
</g>
<!-- Node7 -->
<g id="Node000007" class="node">
<title>Node7</title>
<g id="a_Node000007"><a xlink:href="structImFontAtlas.html#a95eec9b791e9c509180030f8176406ff" target="_top" xlink:title=" ">
<polygon fill="white" stroke="#666666" points="1237.75,-104.5 1092.75,-104.5 1092.75,-71 1237.75,-71 1237.75,-104.5"/>
<text text-anchor="start" x="1100.75" y="-91" font-family="Helvetica,sans-Serif" font-size="10.00">ImFontAtlas::AddFontFrom</text>
<text text-anchor="middle" x="1165.25" y="-78.25" font-family="Helvetica,sans-Serif" font-size="10.00">MemoryTTF</text>
</a>
</g>
</g>
<!-- Node6&#45;&gt;Node7 -->
<g id="edge6_Node000006_Node000007" class="edge">
<title>Node6&#45;&gt;Node7</title>
<g id="a_edge6_Node000006_Node000007"><a xlink:title=" ">
<path fill="none" stroke="#63b8ff" d="M1057.02,-87.75C1064.96,-87.75 1073.08,-87.75 1081.14,-87.75"/>
<polygon fill="#63b8ff" stroke="#63b8ff" points="1080.95,-91.25 1090.95,-87.75 1080.95,-84.25 1080.95,-91.25"/>
</a>
</g>
</g>
<!-- Node8 -->
<g id="Node000008" class="node">
<title>Node8</title>
<g id="a_Node000008"><a xlink:href="structImFontAtlas.html#ad01c0f19a95d37a9e5ebab1e54525625" target="_top" xlink:title=" ">
<polygon fill="white" stroke="#666666" points="1394,-98.12 1273.75,-98.12 1273.75,-77.38 1394,-77.38 1394,-98.12"/>
<text text-anchor="middle" x="1333.88" y="-84.62" font-family="Helvetica,sans-Serif" font-size="10.00">ImFontAtlas::AddFont</text>
</a>
</g>
</g>
<!-- Node7&#45;&gt;Node8 -->
<g id="edge7_Node000007_Node000008" class="edge">
<title>Node7&#45;&gt;Node8</title>
<g id="a_edge7_Node000007_Node000008"><a xlink:title=" ">
<path fill="none" stroke="#63b8ff" d="M1237.88,-87.75C1245.82,-87.75 1253.91,-87.75 1261.84,-87.75"/>
<polygon fill="#63b8ff" stroke="#63b8ff" points="1261.81,-91.25 1271.81,-87.75 1261.81,-84.25 1261.81,-91.25"/>
</a>
</g>
</g>
<!-- Node9 -->
<g id="Node000009" class="node">
<title>Node9</title>
<g id="a_Node000009"><a xlink:href="structImVector.html#a2d80e87e81b1b01143c8d8be93e6fde1" target="_top" xlink:title=" ">
<polygon fill="white" stroke="#666666" points="1547.25,-157.12 1458.5,-157.12 1458.5,-136.38 1547.25,-136.38 1547.25,-157.12"/>
<text text-anchor="middle" x="1502.88" y="-143.62" font-family="Helvetica,sans-Serif" font-size="10.00">ImVector::back</text>
</a>
</g>
</g>
<!-- Node8&#45;&gt;Node9 -->
<g id="edge8_Node000008_Node000009" class="edge">
<title>Node8&#45;&gt;Node9</title>
<g id="a_edge8_Node000008_Node000009"><a xlink:title=" ">
<path fill="none" stroke="#63b8ff" d="M1358.82,-98.48C1377.88,-106.8 1405.35,-118.3 1430,-126.75 1436.12,-128.85 1442.59,-130.89 1449.04,-132.82"/>
<polygon fill="#63b8ff" stroke="#63b8ff" points="1447.78,-136.09 1458.36,-135.52 1449.73,-129.37 1447.78,-136.09"/>
</a>
</g>
</g>
<!-- Node10 -->
<g id="Node000010" class="node">
<title>Node10</title>
<g id="a_Node000010"><a xlink:href="structImFontAtlas.html#a3ede4bd513bec044c77ac392ad9c6e86" target="_top" xlink:title=" ">
<polygon fill="white" stroke="#666666" points="1575.75,-118.12 1430,-118.12 1430,-97.38 1575.75,-97.38 1575.75,-118.12"/>
<text text-anchor="middle" x="1502.88" y="-104.62" font-family="Helvetica,sans-Serif" font-size="10.00">ImFontAtlas::ClearTexData</text>
</a>
</g>
</g>
<!-- Node8&#45;&gt;Node10 -->
<g id="edge9_Node000008_Node000010" class="edge">
<title>Node8&#45;&gt;Node10</title>
<g id="a_edge9_Node000008_Node000010"><a xlink:title=" ">
<path fill="none" stroke="#63b8ff" d="M1394.22,-94.86C1402,-95.79 1410.08,-96.76 1418.16,-97.72"/>
<polygon fill="#63b8ff" stroke="#63b8ff" points="1417.71,-101.2 1428.05,-98.91 1418.54,-94.24 1417.71,-101.2"/>
</a>
</g>
</g>
<!-- Node11 -->
<g id="Node000011" class="node">
<title>Node11</title>
<g id="a_Node000011"><a xlink:href="structImVector.html#aa53e48a5272f4bad1099368769514ff1" target="_top" xlink:title=" ">
<polygon fill="white" stroke="#666666" points="1551.38,-79.12 1454.38,-79.12 1454.38,-58.38 1551.38,-58.38 1551.38,-79.12"/>
<text text-anchor="middle" x="1502.88" y="-65.62" font-family="Helvetica,sans-Serif" font-size="10.00">ImVector::empty</text>
</a>
</g>
</g>
<!-- Node8&#45;&gt;Node11 -->
<g id="edge10_Node000008_Node000011" class="edge">
<title>Node8&#45;&gt;Node11</title>
<g id="a_edge10_Node000008_Node000011"><a xlink:title=" ">
<path fill="none" stroke="#63b8ff" d="M1394.22,-81C1409.99,-79.2 1427.01,-77.27 1442.77,-75.47"/>
<polygon fill="#63b8ff" stroke="#63b8ff" points="1442.94,-78.98 1452.48,-74.37 1442.14,-72.02 1442.94,-78.98"/>
</a>
</g>
</g>
<!-- Node12 -->
<g id="Node000012" class="node">
<title>Node12</title>
<g id="a_Node000012"><a xlink:href="structImVector.html#aab5df48e0711a48bd12f3206e08c4108" target="_top" xlink:title=" ">
<polygon fill="white" stroke="#666666" points="1561.5,-40.12 1444.25,-40.12 1444.25,-19.38 1561.5,-19.38 1561.5,-40.12"/>
<text text-anchor="middle" x="1502.88" y="-26.62" font-family="Helvetica,sans-Serif" font-size="10.00">ImVector::push_back</text>
</a>
</g>
</g>
<!-- Node8&#45;&gt;Node12 -->
<g id="edge11_Node000008_Node000012" class="edge">
<title>Node8&#45;&gt;Node12</title>
<g id="a_edge11_Node000008_Node000012"><a xlink:title=" ">
<path fill="none" stroke="#63b8ff" d="M1359.63,-77C1378.67,-68.94 1405.74,-57.94 1430,-49.75 1436.13,-47.68 1442.61,-45.65 1449.06,-43.74"/>
<polygon fill="#63b8ff" stroke="#63b8ff" points="1449.75,-47.18 1458.38,-41.04 1447.8,-40.46 1449.75,-47.18"/>
</a>
</g>
</g>
<!-- Node13 -->
<g id="Node000013" class="node">
<title>Node13</title>
<g id="a_Node000013"><a xlink:href="structImVector.html#a3a097635d464b1b70dc7d59996a88b28" target="_top" xlink:title=" ">
<polygon fill="white" stroke="#666666" points="1753,-60.12 1611.75,-60.12 1611.75,-39.38 1753,-39.38 1753,-60.12"/>
<text text-anchor="middle" x="1682.38" y="-46.62" font-family="Helvetica,sans-Serif" font-size="10.00">ImVector::_grow_capacity</text>
</a>
</g>
</g>
<!-- Node12&#45;&gt;Node13 -->
<g id="edge12_Node000012_Node000013" class="edge">
<title>Node12&#45;&gt;Node13</title>
<g id="a_edge12_Node000012_Node000013"><a xlink:title=" ">
<path fill="none" stroke="#63b8ff" d="M1562,-36.3C1574.19,-37.67 1587.27,-39.15 1600.14,-40.6"/>
<polygon fill="#63b8ff" stroke="#63b8ff" points="1599.53,-44.05 1609.86,-41.69 1600.32,-37.09 1599.53,-44.05"/>
</a>
</g>
</g>
<!-- Node14 -->
<g id="Node000014" class="node">
<title>Node14</title>
<g id="a_Node000014"><a xlink:href="structImVector.html#a0f14f5736c3372157856eebb67123b75" target="_top" xlink:title=" ">
<polygon fill="white" stroke="#666666" points="1733.5,-21.12 1631.25,-21.12 1631.25,-0.38 1733.5,-0.38 1733.5,-21.12"/>
<text text-anchor="middle" x="1682.38" y="-7.62" font-family="Helvetica,sans-Serif" font-size="10.00">ImVector::reserve</text>
</a>
</g>
</g>
<!-- Node12&#45;&gt;Node14 -->
<g id="edge13_Node000012_Node000014" class="edge">
<title>Node12&#45;&gt;Node14</title>
<g id="a_edge13_Node000012_Node000014"><a xlink:title=" ">
<path fill="none" stroke="#63b8ff" d="M1562,-23.53C1580.42,-21.56 1600.84,-19.37 1619.52,-17.37"/>
<polygon fill="#63b8ff" stroke="#63b8ff" points="1619.81,-20.86 1629.38,-16.32 1619.06,-13.9 1619.81,-20.86"/>
</a>
</g>
</g>
</g>
</svg>
