<?xml version="1.0" encoding="UTF-8" standalone="no"?>
<!DOCTYPE svg PUBLIC "-//W3C//DTD SVG 1.1//EN"
 "http://www.w3.org/Graphics/SVG/1.1/DTD/svg11.dtd">
<!-- Generated by graphviz version 12.2.0 (20241103.1931)
 -->
<!-- Title: ExampleAppConsole::ExecCommand Pages: 1 -->
<!--zoomable 325 -->

<svg id="main" version="1.1" xmlns="http://www.w3.org/2000/svg" xmlns:xlink="http://www.w3.org/1999/xlink" xml:space="preserve" onload="init(evt)">

<style type="text/css"><![CDATA[
.node, .edge {opacity: 0.7;}
.node.selected, .edge.selected {opacity: 1;}
.edge:hover path { stroke: red; }
.edge:hover polygon { stroke: red; fill: red; }
]]></style>

<defs>
  <circle id="rim" cx="0" cy="0" r="7"/>
  <circle id="rim2" cx="0" cy="0" r="3.5"/>
  <g id="zoomPlus">
    <use xlink:href="#rim" fill="#404040"><set attributeName="fill" to="#808080" begin="zoomplus.mouseover" end="zoomplus.mouseout"/></use>
    <path d="M-4,0h8M0,-4v8" fill="none" stroke="white" stroke-width="1.5" pointer-events="none"/>
  </g>
  <g id="zoomMin">
    <use xlink:href="#rim" fill="#404040"><set attributeName="fill" to="#808080" begin="zoomminus.mouseover" end="zoomminus.mouseout"/></use>
    <path d="M-4,0h8" fill="none" stroke="white" stroke-width="1.5" pointer-events="none"/>
  </g>
  <g id="arrowUp" transform="translate(30 24)">
    <use xlink:href="#rim"/>
    <path pointer-events="none" fill="none" stroke="white" stroke-width="1.5" d="M0,-3.0v7 M-2.5,-0.5L0,-3.0L2.5,-0.5"/>
  </g>
  <g id="arrowRight" transform="rotate(90) translate(36 -43)">
    <use xlink:href="#rim"/>
    <path pointer-events="none" fill="none" stroke="white" stroke-width="1.5" d="M0,-3.0v7 M-2.5,-0.5L0,-3.0L2.5,-0.5"/>
  </g>
  <g id="arrowDown" transform="rotate(180) translate(-30 -48)">
    <use xlink:href="#rim"/>
    <path pointer-events="none" fill="none" stroke="white" stroke-width="1.5" d="M0,-3.0v7 M-2.5,-0.5L0,-3.0L2.5,-0.5"/>
  </g>
  <g id="arrowLeft" transform="rotate(270) translate(-36 17)">
    <use xlink:href="#rim"/>
    <path pointer-events="none" fill="none" stroke="white" stroke-width="1.5" d="M0,-3.0v7 M-2.5,-0.5L0,-3.0L2.5,-0.5"/>
  </g>
  <g id="resetDef">
    <use xlink:href="#rim2" fill="#404040"><set attributeName="fill" to="#808080" begin="reset.mouseover" end="reset.mouseout"/></use>
  </g>
</defs>
<script type="application/ecmascript">
var viewWidth = 793;
var viewHeight = 325;
var sectionId = 'dynsection-8';
</script>
<script type="application/ecmascript" xlink:href="svg.min.js"/>
<svg id="graph" class="graph">
<g id="viewport">
<title>ExampleAppConsole::ExecCommand</title>
<!-- Node1 -->
<g id="Node000001" class="node">
<title>Node1</title>
<g id="a_Node000001"><a xlink:title=" ">
<polygon fill="#999999" stroke="#666666" points="122.5,-183.5 0,-183.5 0,-150 122.5,-150 122.5,-183.5"/>
<text text-anchor="start" x="8" y="-170" font-family="Helvetica,sans-Serif" font-size="10.00">ExampleAppConsole::</text>
<text text-anchor="middle" x="61.25" y="-157.25" font-family="Helvetica,sans-Serif" font-size="10.00">ExecCommand</text>
</a>
</g>
</g>
<!-- Node2 -->
<g id="Node000002" class="node">
<title>Node2</title>
<g id="a_Node000002"><a xlink:href="structExampleAppConsole.html#a719354ce6be7481923a5fd702e785952" target="_top" xlink:title=" ">
<polygon fill="white" stroke="#666666" points="281,-289.5 158.5,-289.5 158.5,-256 281,-256 281,-289.5"/>
<text text-anchor="start" x="166.5" y="-276" font-family="Helvetica,sans-Serif" font-size="10.00">ExampleAppConsole::</text>
<text text-anchor="middle" x="219.75" y="-263.25" font-family="Helvetica,sans-Serif" font-size="10.00">AddLog</text>
</a>
</g>
</g>
<!-- Node1&#45;&gt;Node2 -->
<g id="edge1_Node000001_Node000002" class="edge">
<title>Node1&#45;&gt;Node2</title>
<g id="a_edge1_Node000001_Node000002"><a xlink:title=" ">
<path fill="none" stroke="#63b8ff" d="M82.09,-184C101,-200 130.65,-223.96 158.5,-241.75 163.03,-244.65 167.87,-247.5 172.75,-250.22"/>
<polygon fill="#63b8ff" stroke="#63b8ff" points="170.97,-253.24 181.44,-254.91 174.3,-247.08 170.97,-253.24"/>
</a>
</g>
</g>
<!-- Node3 -->
<g id="Node000003" class="node">
<title>Node3</title>
<g id="a_Node000003"><a xlink:href="structImVector.html#aab5df48e0711a48bd12f3206e08c4108" target="_top" xlink:title=" ">
<polygon fill="white" stroke="#666666" points="436.88,-301.12 319.62,-301.12 319.62,-280.38 436.88,-280.38 436.88,-301.12"/>
<text text-anchor="middle" x="378.25" y="-287.62" font-family="Helvetica,sans-Serif" font-size="10.00">ImVector::push_back</text>
</a>
</g>
</g>
<!-- Node1&#45;&gt;Node3 -->
<g id="edge15_Node000001_Node000003" class="edge">
<title>Node1&#45;&gt;Node3</title>
<g id="a_edge15_Node000001_Node000003"><a xlink:title=" ">
<path fill="none" stroke="#63b8ff" d="M68.57,-183.68C80.71,-213.45 110.46,-274.33 158.5,-298.75 213.42,-326.68 286.52,-316.02 332.74,-304.45"/>
<polygon fill="#63b8ff" stroke="#63b8ff" points="333.36,-307.91 342.14,-301.98 331.57,-301.14 333.36,-307.91"/>
</a>
</g>
</g>
<!-- Node6 -->
<g id="Node000006" class="node">
<title>Node6</title>
<g id="a_Node000006"><a xlink:href="structExampleAppConsole.html#ab81253ac3575f7fcd63a61c7f5820913" target="_top" xlink:title=" ">
<polygon fill="white" stroke="#666666" points="439.5,-244.5 317,-244.5 317,-211 439.5,-211 439.5,-244.5"/>
<text text-anchor="start" x="325" y="-231" font-family="Helvetica,sans-Serif" font-size="10.00">ExampleAppConsole::</text>
<text text-anchor="middle" x="378.25" y="-218.25" font-family="Helvetica,sans-Serif" font-size="10.00">Strdup</text>
</a>
</g>
</g>
<!-- Node1&#45;&gt;Node6 -->
<g id="edge16_Node000001_Node000006" class="edge">
<title>Node1&#45;&gt;Node6</title>
<g id="a_edge16_Node000001_Node000006"><a xlink:title=" ">
<path fill="none" stroke="#63b8ff" d="M94.28,-183.86C112.57,-192.82 136.24,-203.09 158.5,-208.75 206.66,-221 262.49,-225.7 305.69,-227.36"/>
<polygon fill="#63b8ff" stroke="#63b8ff" points="305.33,-230.85 315.44,-227.69 305.57,-223.86 305.33,-230.85"/>
</a>
</g>
</g>
<!-- Node9 -->
<g id="Node000009" class="node">
<title>Node9</title>
<g id="a_Node000009"><a xlink:href="structImVector.html#ab48ae48675fa779e29c9ae5892bb99f4" target="_top" xlink:title=" ">
<polygon fill="white" stroke="#666666" points="266,-200.12 173.5,-200.12 173.5,-179.38 266,-179.38 266,-200.12"/>
<text text-anchor="middle" x="219.75" y="-186.62" font-family="Helvetica,sans-Serif" font-size="10.00">ImVector::begin</text>
</a>
</g>
</g>
<!-- Node1&#45;&gt;Node9 -->
<g id="edge8_Node000001_Node000009" class="edge">
<title>Node1&#45;&gt;Node9</title>
<g id="a_edge8_Node000001_Node000009"><a xlink:title=" ">
<path fill="none" stroke="#63b8ff" d="M122.76,-175.64C135.8,-177.56 149.53,-179.58 162.4,-181.47"/>
<polygon fill="#63b8ff" stroke="#63b8ff" points="161.55,-184.88 171.96,-182.87 162.57,-177.96 161.55,-184.88"/>
</a>
</g>
</g>
<!-- Node10 -->
<g id="Node000010" class="node">
<title>Node10</title>
<g id="a_Node000010"><a xlink:href="structExampleAppConsole.html#a2ef13f00c474b16b8da2ec062d5e5cc2" target="_top" xlink:title=" ">
<polygon fill="white" stroke="#666666" points="281,-161.5 158.5,-161.5 158.5,-128 281,-128 281,-161.5"/>
<text text-anchor="start" x="166.5" y="-148" font-family="Helvetica,sans-Serif" font-size="10.00">ExampleAppConsole::</text>
<text text-anchor="middle" x="219.75" y="-135.25" font-family="Helvetica,sans-Serif" font-size="10.00">ClearLog</text>
</a>
</g>
</g>
<!-- Node1&#45;&gt;Node10 -->
<g id="edge9_Node000001_Node000010" class="edge">
<title>Node1&#45;&gt;Node10</title>
<g id="a_edge9_Node000001_Node000010"><a xlink:title=" ">
<path fill="none" stroke="#63b8ff" d="M122.76,-158.24C130.65,-157.13 138.8,-155.99 146.85,-154.86"/>
<polygon fill="#63b8ff" stroke="#63b8ff" points="147.23,-158.34 156.65,-153.48 146.26,-151.41 147.23,-158.34"/>
</a>
</g>
</g>
<!-- Node12 -->
<g id="Node000012" class="node">
<title>Node12</title>
<g id="a_Node000012"><a xlink:href="namespaceImGui.html#a269ec695c6e722ec3da85dae37f0675d" target="_top" xlink:title=" ">
<polygon fill="white" stroke="#666666" points="426.75,-135.12 329.75,-135.12 329.75,-114.38 426.75,-114.38 426.75,-135.12"/>
<text text-anchor="middle" x="378.25" y="-121.62" font-family="Helvetica,sans-Serif" font-size="10.00">ImGui::MemFree</text>
</a>
</g>
</g>
<!-- Node1&#45;&gt;Node12 -->
<g id="edge14_Node000001_Node000012" class="edge">
<title>Node1&#45;&gt;Node12</title>
<g id="a_edge14_Node000001_Node000012"><a xlink:title=" ">
<path fill="none" stroke="#63b8ff" d="M88.36,-149.56C107.03,-138.34 133.24,-124.7 158.5,-118.75 211.57,-106.25 273.88,-109.65 318.4,-115.05"/>
<polygon fill="#63b8ff" stroke="#63b8ff" points="317.73,-118.5 328.1,-116.31 318.63,-111.55 317.73,-118.5"/>
</a>
</g>
</g>
<!-- Node13 -->
<g id="Node000013" class="node">
<title>Node13</title>
<g id="a_Node000013"><a xlink:href="structImVector.html#a2f88ac70791f2da6d4168d7b29f38f1e" target="_top" xlink:title=" ">
<polygon fill="white" stroke="#666666" points="266,-72.12 173.5,-72.12 173.5,-51.38 266,-51.38 266,-72.12"/>
<text text-anchor="middle" x="219.75" y="-58.62" font-family="Helvetica,sans-Serif" font-size="10.00">ImVector::erase</text>
</a>
</g>
</g>
<!-- Node1&#45;&gt;Node13 -->
<g id="edge13_Node000001_Node000013" class="edge">
<title>Node1&#45;&gt;Node13</title>
<g id="a_edge13_Node000001_Node000013"><a xlink:title=" ">
<path fill="none" stroke="#63b8ff" d="M79.03,-149.69C97.29,-131.87 127.95,-104.03 158.5,-85.75 163.81,-82.57 169.63,-79.65 175.48,-77.02"/>
<polygon fill="#63b8ff" stroke="#63b8ff" points="176.69,-80.31 184.55,-73.2 173.98,-73.85 176.69,-80.31"/>
</a>
</g>
</g>
<!-- Node14 -->
<g id="Node000014" class="node">
<title>Node14</title>
<g id="a_Node000014"><a xlink:href="structExampleAppConsole.html#a3ac60d63c0eed2d3ad282fbbc1ae068a" target="_top" xlink:title=" ">
<polygon fill="white" stroke="#666666" points="281,-33.5 158.5,-33.5 158.5,0 281,0 281,-33.5"/>
<text text-anchor="start" x="166.5" y="-20" font-family="Helvetica,sans-Serif" font-size="10.00">ExampleAppConsole::</text>
<text text-anchor="middle" x="219.75" y="-7.25" font-family="Helvetica,sans-Serif" font-size="10.00">Stricmp</text>
</a>
</g>
</g>
<!-- Node1&#45;&gt;Node14 -->
<g id="edge17_Node000001_Node000014" class="edge">
<title>Node1&#45;&gt;Node14</title>
<g id="a_edge17_Node000001_Node000014"><a xlink:title=" ">
<path fill="none" stroke="#63b8ff" d="M71.65,-149.7C86.83,-123.53 119.07,-73.29 158.5,-42.75 159.82,-41.73 161.19,-40.73 162.6,-39.77"/>
<polygon fill="#63b8ff" stroke="#63b8ff" points="164.28,-42.85 171.02,-34.67 160.65,-36.86 164.28,-42.85"/>
</a>
</g>
</g>
<!-- Node2&#45;&gt;Node3 -->
<g id="edge2_Node000002_Node000003" class="edge">
<title>Node2&#45;&gt;Node3</title>
<g id="a_edge2_Node000002_Node000003"><a xlink:title=" ">
<path fill="none" stroke="#63b8ff" d="M281.26,-279.71C290.03,-280.72 299.11,-281.76 308.03,-282.79"/>
<polygon fill="#63b8ff" stroke="#63b8ff" points="307.38,-286.24 317.71,-283.9 308.18,-279.28 307.38,-286.24"/>
</a>
</g>
</g>
<!-- Node2&#45;&gt;Node6 -->
<g id="edge5_Node000002_Node000006" class="edge">
<title>Node2&#45;&gt;Node6</title>
<g id="a_edge5_Node000002_Node000006"><a xlink:title=" ">
<path fill="none" stroke="#63b8ff" d="M280.36,-255.61C288.87,-253.16 297.68,-250.63 306.37,-248.13"/>
<polygon fill="#63b8ff" stroke="#63b8ff" points="307.19,-251.54 315.83,-245.41 305.25,-244.81 307.19,-251.54"/>
</a>
</g>
</g>
<!-- Node4 -->
<g id="Node000004" class="node">
<title>Node4</title>
<g id="a_Node000004"><a xlink:href="structImVector.html#a3a097635d464b1b70dc7d59996a88b28" target="_top" xlink:title=" ">
<polygon fill="white" stroke="#666666" points="616.75,-310.12 475.5,-310.12 475.5,-289.38 616.75,-289.38 616.75,-310.12"/>
<text text-anchor="middle" x="546.12" y="-296.62" font-family="Helvetica,sans-Serif" font-size="10.00">ImVector::_grow_capacity</text>
</a>
</g>
</g>
<!-- Node3&#45;&gt;Node4 -->
<g id="edge3_Node000003_Node000004" class="edge">
<title>Node3&#45;&gt;Node4</title>
<g id="a_edge3_Node000003_Node000004"><a xlink:title=" ">
<path fill="none" stroke="#63b8ff" d="M437.27,-293.9C445.87,-294.36 454.87,-294.85 463.84,-295.34"/>
<polygon fill="#63b8ff" stroke="#63b8ff" points="463.48,-298.83 473.65,-295.87 463.86,-291.84 463.48,-298.83"/>
</a>
</g>
</g>
<!-- Node5 -->
<g id="Node000005" class="node">
<title>Node5</title>
<g id="a_Node000005"><a xlink:href="structImVector.html#a0f14f5736c3372157856eebb67123b75" target="_top" xlink:title=" ">
<polygon fill="white" stroke="#666666" points="597.25,-271.12 495,-271.12 495,-250.38 597.25,-250.38 597.25,-271.12"/>
<text text-anchor="middle" x="546.12" y="-257.62" font-family="Helvetica,sans-Serif" font-size="10.00">ImVector::reserve</text>
</a>
</g>
</g>
<!-- Node3&#45;&gt;Node5 -->
<g id="edge4_Node000003_Node000005" class="edge">
<title>Node3&#45;&gt;Node5</title>
<g id="a_edge4_Node000003_Node000005"><a xlink:title=" ">
<path fill="none" stroke="#63b8ff" d="M437.27,-280.26C452.15,-277.56 468.23,-274.66 483.3,-271.93"/>
<polygon fill="#63b8ff" stroke="#63b8ff" points="483.89,-275.38 493.11,-270.16 482.64,-268.49 483.89,-275.38"/>
</a>
</g>
</g>
<!-- Node7 -->
<g id="Node000007" class="node">
<title>Node7</title>
<g id="a_Node000007"><a xlink:href="namespaceImGui.html#aed896913f2e140cd0ad7431060dba50b" target="_top" xlink:title=" ">
<polygon fill="white" stroke="#666666" points="596.12,-229.12 496.12,-229.12 496.12,-208.38 596.12,-208.38 596.12,-229.12"/>
<text text-anchor="middle" x="546.12" y="-215.62" font-family="Helvetica,sans-Serif" font-size="10.00">ImGui::MemAlloc</text>
</a>
</g>
</g>
<!-- Node6&#45;&gt;Node7 -->
<g id="edge6_Node000006_Node000007" class="edge">
<title>Node6&#45;&gt;Node7</title>
<g id="a_edge6_Node000006_Node000007"><a xlink:title=" ">
<path fill="none" stroke="#63b8ff" d="M439.6,-224.48C454.15,-223.69 469.7,-222.84 484.27,-222.05"/>
<polygon fill="#63b8ff" stroke="#63b8ff" points="484.39,-225.55 494.19,-221.51 484.02,-218.56 484.39,-225.55"/>
</a>
</g>
</g>
<!-- Node8 -->
<g id="Node000008" class="node">
<title>Node8</title>
<g id="a_Node000008"><a xlink:href="namespaceImGui.html#af81dc8d88fa2e5d0996163993f90ccf8" target="_top" xlink:title=" ">
<polygon fill="white" stroke="#666666" points="785,-204.12 652.75,-204.12 652.75,-183.38 785,-183.38 785,-204.12"/>
<text text-anchor="middle" x="718.88" y="-190.62" font-family="Helvetica,sans-Serif" font-size="10.00">ImGui::DebugAllocHook</text>
</a>
</g>
</g>
<!-- Node7&#45;&gt;Node8 -->
<g id="edge7_Node000007_Node000008" class="edge">
<title>Node7&#45;&gt;Node8</title>
<g id="a_edge7_Node000007_Node000008"><a xlink:title=" ">
<path fill="none" stroke="#63b8ff" d="M596.51,-211.52C610.54,-209.47 626.16,-207.18 641.39,-204.95"/>
<polygon fill="#63b8ff" stroke="#63b8ff" points="641.5,-208.47 650.89,-203.56 640.49,-201.54 641.5,-208.47"/>
</a>
</g>
</g>
<!-- Node11 -->
<g id="Node000011" class="node">
<title>Node11</title>
<g id="a_Node000011"><a xlink:href="structImVector.html#ae2d401b4ec5f1113cdb8edb5a61a38f7" target="_top" xlink:title=" ">
<polygon fill="white" stroke="#666666" points="423,-174.12 333.5,-174.12 333.5,-153.38 423,-153.38 423,-174.12"/>
<text text-anchor="middle" x="378.25" y="-160.62" font-family="Helvetica,sans-Serif" font-size="10.00">ImVector::clear</text>
</a>
</g>
</g>
<!-- Node10&#45;&gt;Node11 -->
<g id="edge10_Node000010_Node000011" class="edge">
<title>Node10&#45;&gt;Node11</title>
<g id="a_edge10_Node000010_Node000011"><a xlink:title=" ">
<path fill="none" stroke="#63b8ff" d="M281.26,-152.1C294.7,-153.73 308.87,-155.45 322.08,-157.05"/>
<polygon fill="#63b8ff" stroke="#63b8ff" points="321.55,-160.51 331.9,-158.24 322.39,-153.56 321.55,-160.51"/>
</a>
</g>
</g>
<!-- Node10&#45;&gt;Node12 -->
<g id="edge11_Node000010_Node000012" class="edge">
<title>Node10&#45;&gt;Node12</title>
<g id="a_edge11_Node000010_Node000012"><a xlink:title=" ">
<path fill="none" stroke="#63b8ff" d="M281.26,-137.02C293.38,-135.47 306.1,-133.84 318.18,-132.3"/>
<polygon fill="#63b8ff" stroke="#63b8ff" points="318.54,-135.78 328.01,-131.04 317.65,-128.84 318.54,-135.78"/>
</a>
</g>
</g>
<!-- Node12&#45;&gt;Node8 -->
<g id="edge12_Node000012_Node000008" class="edge">
<title>Node12&#45;&gt;Node8</title>
<g id="a_edge12_Node000012_Node000008"><a xlink:title=" ">
<path fill="none" stroke="#63b8ff" d="M427.05,-134.49C486.33,-146.57 587.63,-167.21 653.65,-180.66"/>
<polygon fill="#63b8ff" stroke="#63b8ff" points="652.76,-184.05 663.26,-182.62 654.16,-177.2 652.76,-184.05"/>
</a>
</g>
</g>
</g>
</svg>

<g id="navigator" transform="translate(0 0)" fill="#404254">
  <rect fill="#f2f5e9" fill-opacity="0.5" stroke="#606060" stroke-width=".5" x="0" y="0" width="60" height="60"/>
  <use id="zoomplus" xlink:href="#zoomPlus" x="17" y="9" onmousedown="handleZoom(evt,'in')"/>
  <use id="zoomminus" xlink:href="#zoomMin" x="42" y="9" onmousedown="handleZoom(evt,'out')"/>
  <use id="reset" xlink:href="#resetDef" x="30" y="36" onmousedown="handleReset()"/>
   <use id="arrowup" xlink:href="#arrowUp" x="0" y="0" onmousedown="handlePan(0,-1)"/>
  <use id="arrowright" xlink:href="#arrowRight" x="0" y="0" onmousedown="handlePan(1,0)"/>
  <use id="arrowdown" xlink:href="#arrowDown" x="0" y="0" onmousedown="handlePan(0,1)"/>
  <use id="arrowleft" xlink:href="#arrowLeft" x="0" y="0" onmousedown="handlePan(-1,0)"/>
</g>
<svg viewBox="0 0 15 15" width="100%" height="30px" preserveAspectRatio="xMaxYMin meet">
 <g id="arrow_out" transform="scale(0.3 0.3)">
  <a xlink:href="structExampleAppConsole_aa1e8bf1f3795cbc41597e1ff081c6589_cgraph_org.svg" target="_base">
   <rect id="button" ry="5" rx="5" y="6" x="6" height="38" width="38"
        fill="#f2f5e9" fill-opacity="0.5" stroke="#606060" stroke-width="1.0"/>
   <path id="arrow"
     d="M 11.500037,31.436501 C 11.940474,20.09759 22.043105,11.32322 32.158766,21.979434 L 37.068811,17.246167 C 37.068811,17.246167 37.088388,32 37.088388,32 L 22.160133,31.978069 C 22.160133,31.978069 26.997745,27.140456 26.997745,27.140456 C 18.528582,18.264221 13.291696,25.230495 11.500037,31.436501 z"
     style="fill:#404040;"/>
  </a>
 </g>
</svg>

<style type='text/css'>
<![CDATA[
[data-mouse-over-selected='false'] { opacity: 0.7; }
[data-mouse-over-selected='true']  { opacity: 1.0; }
]]>
</style>
<script type="application/ecmascript"><![CDATA[
document.addEventListener('DOMContentLoaded', (event) => {
  highlightEdges();
  highlightAdjacentNodes();
});
]]></script>
</svg>
