<?xml version="1.0" encoding="UTF-8" standalone="no"?>
<!DOCTYPE svg PUBLIC "-//W3C//DTD SVG 1.1//EN"
 "http://www.w3.org/Graphics/SVG/1.1/DTD/svg11.dtd">
<!-- Generated by graphviz version 12.2.1 (20241206.2353)
 -->
<!-- Title: ImGuiListClipper::ForceDisplayRangeByIndices Pages: 1 -->
<svg width="512pt" height="42pt"
 viewBox="0.00 0.00 512.00 41.50" xmlns="http://www.w3.org/2000/svg" xmlns:xlink="http://www.w3.org/1999/xlink">
<g id="graph0" class="graph" transform="scale(1 1) rotate(0) translate(4 37.5)">
<title>ImGuiListClipper::ForceDisplayRangeByIndices</title>
<!-- Node1 -->
<g id="Node000001" class="node">
<title>Node1</title>
<g id="a_Node000001"><a xlink:title=" ">
<polygon fill="#999999" stroke="#666666" points="166,-33.5 0,-33.5 0,0 166,0 166,-33.5"/>
<text text-anchor="start" x="8" y="-20" font-family="Helvetica,sans-Serif" font-size="10.00">ImGuiListClipper::ForceDisplay</text>
<text text-anchor="middle" x="83" y="-7.25" font-family="Helvetica,sans-Serif" font-size="10.00">RangeByIndices</text>
</a>
</g>
</g>
<!-- Node2 -->
<g id="Node000002" class="node">
<title>Node2</title>
<g id="a_Node000002"><a xlink:href="structImGuiListClipper.html#a7bf69e01d7de8ecf459ba6c697dc932b" target="_top" xlink:title=" ">
<polygon fill="white" stroke="#666666" points="340.25,-33.5 202,-33.5 202,0 340.25,0 340.25,-33.5"/>
<text text-anchor="start" x="210" y="-20" font-family="Helvetica,sans-Serif" font-size="10.00">ImGuiListClipper::Include</text>
<text text-anchor="middle" x="271.12" y="-7.25" font-family="Helvetica,sans-Serif" font-size="10.00">ItemsByIndex</text>
</a>
</g>
</g>
<!-- Node1&#45;&gt;Node2 -->
<g id="edge1_Node000001_Node000002" class="edge">
<title>Node1&#45;&gt;Node2</title>
<g id="a_edge1_Node000001_Node000002"><a xlink:title=" ">
<path fill="none" stroke="#63b8ff" d="M166.45,-16.75C174.35,-16.75 182.36,-16.75 190.24,-16.75"/>
<polygon fill="#63b8ff" stroke="#63b8ff" points="190.16,-20.25 200.16,-16.75 190.16,-13.25 190.16,-20.25"/>
</a>
</g>
</g>
<!-- Node3 -->
<g id="Node000003" class="node">
<title>Node3</title>
<g id="a_Node000003"><a xlink:href="structImGuiListClipperRange.html#ae04d9b8993b4fafcbf416fbaeed316b1" target="_top" xlink:title=" ">
<polygon fill="white" stroke="#666666" points="504,-33.5 376.25,-33.5 376.25,0 504,0 504,-33.5"/>
<text text-anchor="start" x="384.25" y="-20" font-family="Helvetica,sans-Serif" font-size="10.00">ImGuiListClipperRange</text>
<text text-anchor="middle" x="440.12" y="-7.25" font-family="Helvetica,sans-Serif" font-size="10.00">::FromIndices</text>
</a>
</g>
</g>
<!-- Node2&#45;&gt;Node3 -->
<g id="edge2_Node000002_Node000003" class="edge">
<title>Node2&#45;&gt;Node3</title>
<g id="a_edge2_Node000002_Node000003"><a xlink:title=" ">
<path fill="none" stroke="#63b8ff" d="M340.53,-16.75C348.49,-16.75 356.64,-16.75 364.67,-16.75"/>
<polygon fill="#63b8ff" stroke="#63b8ff" points="364.41,-20.25 374.41,-16.75 364.41,-13.25 364.41,-20.25"/>
</a>
</g>
</g>
</g>
</svg>
