<?xml version="1.0" encoding="UTF-8" standalone="no"?>
<!DOCTYPE svg PUBLIC "-//W3C//DTD SVG 1.1//EN"
 "http://www.w3.org/Graphics/SVG/1.1/DTD/svg11.dtd">
<!-- Generated by graphviz version 12.0.0 (20240704.0754)
 -->
<!-- Title: ImGuiStyle::ImGuiStyle Pages: 1 -->
<svg width="433pt" height="29pt"
 viewBox="0.00 0.00 433.25 28.75" xmlns="http://www.w3.org/2000/svg" xmlns:xlink="http://www.w3.org/1999/xlink">
<g id="graph0" class="graph" transform="scale(1 1) rotate(0) translate(4 24.75)">
<title>ImGuiStyle::ImGuiStyle</title>
<!-- Node1 -->
<g id="Node000001" class="node">
<title>Node1</title>
<g id="a_Node000001"><a xlink:title=" ">
<polygon fill="#999999" stroke="#666666" points="130,-20.75 0,-20.75 0,0 130,0 130,-20.75"/>
<text text-anchor="middle" x="65" y="-7.25" font-family="Helvetica,sans-Serif" font-size="10.00">ImGuiStyle::ImGuiStyle</text>
</a>
</g>
</g>
<!-- Node2 -->
<g id="Node000002" class="node">
<title>Node2</title>
<g id="a_Node000002"><a xlink:href="namespaceImGui.html#a26c67fc14081b359566d5e135cd8c767" target="_top" xlink:title=" ">
<polygon fill="white" stroke="#666666" points="296,-20.75 166,-20.75 166,0 296,0 296,-20.75"/>
<text text-anchor="middle" x="231" y="-7.25" font-family="Helvetica,sans-Serif" font-size="10.00">ImGui::StyleColorsDark</text>
</a>
</g>
</g>
<!-- Node1&#45;&gt;Node2 -->
<g id="edge1_Node000001_Node000002" class="edge">
<title>Node1&#45;&gt;Node2</title>
<g id="a_edge1_Node000001_Node000002"><a xlink:title=" ">
<path fill="none" stroke="#63b8ff" d="M130.35,-10.38C138.21,-10.38 146.31,-10.38 154.33,-10.38"/>
<polygon fill="#63b8ff" stroke="#63b8ff" points="154.06,-13.88 164.06,-10.38 154.06,-6.88 154.06,-13.88"/>
</a>
</g>
</g>
<!-- Node3 -->
<g id="Node000003" class="node">
<title>Node3</title>
<g id="a_Node000003"><a xlink:href="namespaceImGui.html#abafef4bb3e3654efd96a47b2e22870a7" target="_top" xlink:title=" ">
<polygon fill="white" stroke="#666666" points="425.25,-20.75 332,-20.75 332,0 425.25,0 425.25,-20.75"/>
<text text-anchor="middle" x="378.62" y="-7.25" font-family="Helvetica,sans-Serif" font-size="10.00">ImGui::GetStyle</text>
</a>
</g>
</g>
<!-- Node2&#45;&gt;Node3 -->
<g id="edge2_Node000002_Node000003" class="edge">
<title>Node2&#45;&gt;Node3</title>
<g id="a_edge2_Node000002_Node000003"><a xlink:title=" ">
<path fill="none" stroke="#63b8ff" d="M296.3,-10.38C304.28,-10.38 312.41,-10.38 320.28,-10.38"/>
<polygon fill="#63b8ff" stroke="#63b8ff" points="320.07,-13.88 330.07,-10.38 320.07,-6.88 320.07,-13.88"/>
</a>
</g>
</g>
</g>
</svg>
