<?xml version="1.0" encoding="UTF-8" standalone="no"?>
<!DOCTYPE svg PUBLIC "-//W3C//DTD SVG 1.1//EN"
 "http://www.w3.org/Graphics/SVG/1.1/DTD/svg11.dtd">
<!-- Generated by graphviz version 12.0.0 (20240704.0754)
 -->
<!-- Title: ImFontAtlasCustomRect Pages: 1 -->
<!--zoomable 334 -->

<svg id="main" version="1.1" xmlns="http://www.w3.org/2000/svg" xmlns:xlink="http://www.w3.org/1999/xlink" xml:space="preserve" onload="init(evt)">
<style type="text/css"><![CDATA[
.node, .edge {opacity: 0.7;}
.node.selected, .edge.selected {opacity: 1;}
.edge:hover path { stroke: red; }
.edge:hover polygon { stroke: red; fill: red; }
]]></style>

<defs>
  <circle id="rim" cx="0" cy="0" r="7"/>
  <circle id="rim2" cx="0" cy="0" r="3.5"/>
  <g id="zoomPlus">
    <use xlink:href="#rim" fill="#404040"><set attributeName="fill" to="#808080" begin="zoomplus.mouseover" end="zoomplus.mouseout"/></use>
    <path d="M-4,0h8M0,-4v8" fill="none" stroke="white" stroke-width="1.5" pointer-events="none"/>
  </g>
  <g id="zoomMin">
    <use xlink:href="#rim" fill="#404040"><set attributeName="fill" to="#808080" begin="zoomminus.mouseover" end="zoomminus.mouseout"/></use>
    <path d="M-4,0h8" fill="none" stroke="white" stroke-width="1.5" pointer-events="none"/>
  </g>
  <g id="arrowUp" transform="translate(30 24)">
    <use xlink:href="#rim"/>
    <path pointer-events="none" fill="none" stroke="white" stroke-width="1.5" d="M0,-3.0v7 M-2.5,-0.5L0,-3.0L2.5,-0.5"/>
  </g>
  <g id="arrowRight" transform="rotate(90) translate(36 -43)">
    <use xlink:href="#rim"/>
    <path pointer-events="none" fill="none" stroke="white" stroke-width="1.5" d="M0,-3.0v7 M-2.5,-0.5L0,-3.0L2.5,-0.5"/>
  </g>
  <g id="arrowDown" transform="rotate(180) translate(-30 -48)">
    <use xlink:href="#rim"/>
    <path pointer-events="none" fill="none" stroke="white" stroke-width="1.5" d="M0,-3.0v7 M-2.5,-0.5L0,-3.0L2.5,-0.5"/>
  </g>
  <g id="arrowLeft" transform="rotate(270) translate(-36 17)">
    <use xlink:href="#rim"/>
    <path pointer-events="none" fill="none" stroke="white" stroke-width="1.5" d="M0,-3.0v7 M-2.5,-0.5L0,-3.0L2.5,-0.5"/>
  </g>
  <g id="resetDef">
    <use xlink:href="#rim2" fill="#404040"><set attributeName="fill" to="#808080" begin="reset.mouseover" end="reset.mouseout"/></use>
  </g>
</defs>
<script type="application/ecmascript">
var viewWidth = 1441;
var viewHeight = 334;
var sectionId = 'dynsection-0';
</script>
<script type="application/ecmascript" xlink:href="svg.min.js"/>
<svg id="graph" class="graph">
<g id="viewport">
<title>ImFontAtlasCustomRect</title>
<!-- Node1 -->
<g id="Node000001" class="node">
<title>Node1</title>
<g id="a_Node000001"><a xlink:title=" ">
<polygon fill="#999999" stroke="#666666" points="282.5,-212.75 148.75,-212.75 148.75,-192 282.5,-192 282.5,-212.75"/>
<text text-anchor="middle" x="215.62" y="-199.25" font-family="Helvetica,sans-Serif" font-size="10.00">ImFontAtlasCustomRect</text>
</a>
</g>
</g>
<!-- Node10 -->
<g id="Node000010" class="node">
<title>Node10</title>
<g id="a_Node000010"><a xlink:href="structImVector.html" target="_top" xlink:title=" ">
<polygon fill="white" stroke="#666666" points="567,-153.12 400.25,-153.12 400.25,-119.62 567,-119.62 567,-153.12"/>
<text text-anchor="start" x="408.25" y="-139.62" font-family="Helvetica,sans-Serif" font-size="10.00">ImVector&lt; ImFontAtlasCustom</text>
<text text-anchor="middle" x="483.62" y="-126.88" font-family="Helvetica,sans-Serif" font-size="10.00">Rect &gt;</text>
</a>
</g>
</g>
<!-- Node1&#45;&gt;Node10 -->
<g id="edge13_Node000010_Node000001" class="edge">
<title>Node1&#45;&gt;Node10</title>
<g id="a_edge13_Node000010_Node000001"><a xlink:title=" ">
<path fill="none" stroke="#9a32cd" stroke-dasharray="5,2" d="M271.4,-188.78C312.48,-178.59 368.99,-164.57 413.22,-153.59"/>
<polygon fill="#9a32cd" stroke="#9a32cd" points="270.58,-185.38 261.72,-191.19 272.27,-192.17 270.58,-185.38"/>
</a>
</g>
<text text-anchor="middle" x="341.38" y="-183.62" font-family="Helvetica,sans-Serif" font-size="10.00" fill="grey"> Data</text>
</g>
<!-- Node2 -->
<g id="Node000002" class="node">
<title>Node2</title>
<g id="a_Node000002"><a xlink:href="structImVec2.html" target="_top" xlink:title=" ">
<polygon fill="white" stroke="#666666" points="52,-212.75 0,-212.75 0,-192 52,-192 52,-212.75"/>
<text text-anchor="middle" x="26" y="-199.25" font-family="Helvetica,sans-Serif" font-size="10.00">ImVec2</text>
</a>
</g>
</g>
<!-- Node2&#45;&gt;Node1 -->
<g id="edge1_Node000001_Node000002" class="edge">
<title>Node2&#45;&gt;Node1</title>
<g id="a_edge1_Node000001_Node000002"><a xlink:title=" ">
<path fill="none" stroke="#9a32cd" stroke-dasharray="5,2" d="M63.78,-202.38C87.91,-202.38 120.16,-202.38 148.64,-202.38"/>
<polygon fill="#9a32cd" stroke="#9a32cd" points="63.82,-198.88 53.82,-202.38 63.82,-205.88 63.82,-198.88"/>
</a>
</g>
<text text-anchor="middle" x="100.38" y="-205.62" font-family="Helvetica,sans-Serif" font-size="10.00" fill="grey"> GlyphOffset</text>
</g>
<!-- Node8 -->
<g id="Node000008" class="node">
<title>Node8</title>
<g id="a_Node000008"><a xlink:href="structImFontAtlas.html" target="_top" xlink:title=" ">
<polygon fill="white" stroke="#666666" points="807.62,-58.75 733.12,-58.75 733.12,-38 807.62,-38 807.62,-58.75"/>
<text text-anchor="middle" x="770.38" y="-45.25" font-family="Helvetica,sans-Serif" font-size="10.00">ImFontAtlas</text>
</a>
</g>
</g>
<!-- Node2&#45;&gt;Node8 -->
<g id="edge9_Node000008_Node000002" class="edge">
<title>Node2&#45;&gt;Node8</title>
<g id="a_edge9_Node000008_Node000002"><a xlink:title=" ">
<path fill="none" stroke="#9a32cd" stroke-dasharray="5,2" d="M59.69,-186.8C123.46,-157.27 269.67,-93.74 400.25,-67.38 520.07,-43.18 665.97,-44.47 732.78,-46.72"/>
<polygon fill="#9a32cd" stroke="#9a32cd" points="58.42,-183.53 50.84,-190.93 61.38,-189.87 58.42,-183.53"/>
</a>
</g>
<text text-anchor="middle" x="341.38" y="-107.38" font-family="Helvetica,sans-Serif" font-size="10.00" fill="grey"> TexUvScale</text>
<text text-anchor="middle" x="341.38" y="-94.62" font-family="Helvetica,sans-Serif" font-size="10.00" fill="grey">TexUvWhitePixel</text>
</g>
<!-- Node12 -->
<g id="Node000012" class="node">
<title>Node12</title>
<g id="a_Node000012"><a xlink:href="structImFontConfig.html" target="_top" xlink:title=" ">
<polygon fill="white" stroke="#666666" points="1202.25,-166.75 1121.75,-166.75 1121.75,-146 1202.25,-146 1202.25,-166.75"/>
<text text-anchor="middle" x="1162" y="-153.25" font-family="Helvetica,sans-Serif" font-size="10.00">ImFontConfig</text>
</a>
</g>
</g>
<!-- Node2&#45;&gt;Node12 -->
<g id="edge16_Node000012_Node000002" class="edge">
<title>Node2&#45;&gt;Node12</title>
<g id="a_edge16_Node000012_Node000002"><a xlink:title=" ">
<path fill="none" stroke="#9a32cd" stroke-dasharray="5,2" d="M46.73,-220.92C79.1,-249.33 146.73,-300.38 214.62,-300.38 214.62,-300.38 214.62,-300.38 983.12,-300.38 1067.75,-300.38 1134.69,-200.69 1154.79,-167.2"/>
<polygon fill="#9a32cd" stroke="#9a32cd" points="49.1,-218.34 39.33,-214.25 44.41,-223.54 49.1,-218.34"/>
</a>
</g>
<text text-anchor="middle" x="632.62" y="-316.38" font-family="Helvetica,sans-Serif" font-size="10.00" fill="grey"> GlyphExtraSpacing</text>
<text text-anchor="middle" x="632.62" y="-303.62" font-family="Helvetica,sans-Serif" font-size="10.00" fill="grey">GlyphOffset</text>
</g>
<!-- Node3 -->
<g id="Node000003" class="node">
<title>Node3</title>
<g id="a_Node000003"><a xlink:href="structImFont.html" target="_top" xlink:title=" ">
<polygon fill="white" stroke="#666666" points="1007,-155.75 957.25,-155.75 957.25,-135 1007,-135 1007,-155.75"/>
<text text-anchor="middle" x="982.12" y="-142.25" font-family="Helvetica,sans-Serif" font-size="10.00">ImFont</text>
</a>
</g>
</g>
<!-- Node3&#45;&gt;Node1 -->
<g id="edge2_Node000001_Node000003" class="edge">
<title>Node3&#45;&gt;Node1</title>
<g id="a_edge2_Node000001_Node000003"><a xlink:title=" ">
<path fill="none" stroke="#9a32cd" stroke-dasharray="5,2" d="M967.96,-165.33C960.65,-174.77 950.72,-185.29 939.25,-191.38 900.87,-211.75 885.84,-202.26 842.5,-205.38 639.02,-220.02 397.36,-211.57 282.97,-206.02"/>
<polygon fill="#9a32cd" stroke="#9a32cd" points="970.71,-167.5 973.7,-157.34 965.02,-163.42 970.71,-167.5"/>
</a>
</g>
<text text-anchor="middle" x="632.62" y="-216.62" font-family="Helvetica,sans-Serif" font-size="10.00" fill="grey"> Font</text>
</g>
<!-- Node9 -->
<g id="Node000009" class="node">
<title>Node9</title>
<g id="a_Node000009"><a xlink:href="structImVector.html" target="_top" xlink:title=" ">
<polygon fill="white" stroke="#666666" points="1224,-81.75 1100,-81.75 1100,-61 1224,-61 1224,-81.75"/>
<text text-anchor="middle" x="1162" y="-68.25" font-family="Helvetica,sans-Serif" font-size="10.00">ImVector&lt; ImFont * &gt;</text>
</a>
</g>
</g>
<!-- Node3&#45;&gt;Node9 -->
<g id="edge11_Node000009_Node000003" class="edge">
<title>Node3&#45;&gt;Node9</title>
<g id="a_edge11_Node000009_Node000003"><a xlink:title=" ">
<path fill="none" stroke="#9a32cd" stroke-dasharray="5,2" d="M1005.08,-127.89C1011.29,-123.49 1018.2,-119.04 1025,-115.62 1054.17,-100.95 1089.25,-89.68 1116.48,-82.18"/>
<polygon fill="#9a32cd" stroke="#9a32cd" points="1003.18,-124.95 997.26,-133.73 1007.37,-130.56 1003.18,-124.95"/>
</a>
</g>
<text text-anchor="middle" x="1053.5" y="-118.62" font-family="Helvetica,sans-Serif" font-size="10.00" fill="grey"> Data</text>
</g>
<!-- Node3&#45;&gt;Node12 -->
<g id="edge17_Node000012_Node000003" class="edge">
<title>Node3&#45;&gt;Node12</title>
<g id="a_edge17_Node000012_Node000003"><a xlink:title=" ">
<path fill="none" stroke="#9a32cd" stroke-dasharray="5,2" d="M1018.71,-151.66C1020.84,-151.93 1022.94,-152.17 1025,-152.38 1057.33,-155.54 1094.16,-156.46 1121.34,-156.63"/>
<polygon fill="#9a32cd" stroke="#9a32cd" points="1019.31,-148.21 1008.91,-150.23 1018.29,-155.14 1019.31,-148.21"/>
</a>
</g>
<text text-anchor="middle" x="1053.5" y="-158.62" font-family="Helvetica,sans-Serif" font-size="10.00" fill="grey"> DstFont</text>
</g>
<!-- Node4 -->
<g id="Node000004" class="node">
<title>Node4</title>
<g id="a_Node000004"><a xlink:href="structImVector.html" target="_top" xlink:title=" ">
<polygon fill="white" stroke="#666666" points="822.25,-109.75 718.5,-109.75 718.5,-89 822.25,-89 822.25,-109.75"/>
<text text-anchor="middle" x="770.38" y="-96.25" font-family="Helvetica,sans-Serif" font-size="10.00">ImVector&lt; float &gt;</text>
</a>
</g>
</g>
<!-- Node4&#45;&gt;Node3 -->
<g id="edge3_Node000003_Node000004" class="edge">
<title>Node4&#45;&gt;Node3</title>
<g id="a_edge3_Node000003_Node000004"><a xlink:title=" ">
<path fill="none" stroke="#9a32cd" stroke-dasharray="5,2" d="M833.76,-99.85C866.04,-101.74 905.62,-106.68 939.25,-118.62 949.49,-122.26 959.8,-128.8 967.62,-134.5"/>
<polygon fill="#9a32cd" stroke="#9a32cd" points="834.34,-96.37 824.18,-99.37 834,-103.36 834.34,-96.37"/>
</a>
</g>
<text text-anchor="middle" x="899.88" y="-121.62" font-family="Helvetica,sans-Serif" font-size="10.00" fill="grey"> IndexAdvanceX</text>
</g>
<!-- Node5 -->
<g id="Node000005" class="node">
<title>Node5</title>
<g id="a_Node000005"><a xlink:href="structImVector.html" target="_top" xlink:title=" ">
<polygon fill="white" stroke="#666666" points="833.12,-272.75 707.62,-272.75 707.62,-252 833.12,-252 833.12,-272.75"/>
<text text-anchor="middle" x="770.38" y="-259.25" font-family="Helvetica,sans-Serif" font-size="10.00">ImVector&lt; ImWchar &gt;</text>
</a>
</g>
</g>
<!-- Node5&#45;&gt;Node3 -->
<g id="edge4_Node000003_Node000005" class="edge">
<title>Node5&#45;&gt;Node3</title>
<g id="a_edge4_Node000003_Node000005"><a xlink:title=" ">
<path fill="none" stroke="#9a32cd" stroke-dasharray="5,2" d="M845.02,-267C876.77,-265.41 912.64,-258.39 939.25,-238.38 966.42,-217.94 976.39,-175.84 979.68,-156.07"/>
<polygon fill="#9a32cd" stroke="#9a32cd" points="844.93,-263.5 835.05,-267.31 845.15,-270.5 844.93,-263.5"/>
</a>
</g>
<text text-anchor="middle" x="899.88" y="-268.62" font-family="Helvetica,sans-Serif" font-size="10.00" fill="grey"> IndexLookup</text>
</g>
<!-- Node6 -->
<g id="Node000006" class="node">
<title>Node6</title>
<g id="a_Node000006"><a xlink:href="structImVector.html" target="_top" xlink:title=" ">
<polygon fill="white" stroke="#666666" points="842.5,-196.75 698.25,-196.75 698.25,-176 842.5,-176 842.5,-196.75"/>
<text text-anchor="middle" x="770.38" y="-183.25" font-family="Helvetica,sans-Serif" font-size="10.00">ImVector&lt; ImFontGlyph &gt;</text>
</a>
</g>
</g>
<!-- Node6&#45;&gt;Node3 -->
<g id="edge5_Node000003_Node000006" class="edge">
<title>Node6&#45;&gt;Node3</title>
<g id="a_edge5_Node000003_Node000006"><a xlink:title=" ">
<path fill="none" stroke="#9a32cd" stroke-dasharray="5,2" d="M854.05,-175.82C881.37,-171.61 911.79,-166.13 939.25,-159.38 945.06,-157.95 951.21,-156.09 956.96,-154.2"/>
<polygon fill="#9a32cd" stroke="#9a32cd" points="853.82,-172.32 844.45,-177.26 854.86,-179.24 853.82,-172.32"/>
</a>
</g>
<text text-anchor="middle" x="899.88" y="-177.62" font-family="Helvetica,sans-Serif" font-size="10.00" fill="grey"> Glyphs</text>
</g>
<!-- Node7 -->
<g id="Node000007" class="node">
<title>Node7</title>
<g id="a_Node000007"><a xlink:href="structImFontGlyph.html" target="_top" xlink:title=" ">
<polygon fill="white" stroke="#666666" points="522.75,-193.75 444.5,-193.75 444.5,-173 522.75,-173 522.75,-193.75"/>
<text text-anchor="middle" x="483.62" y="-180.25" font-family="Helvetica,sans-Serif" font-size="10.00">ImFontGlyph</text>
</a>
</g>
</g>
<!-- Node7&#45;&gt;Node3 -->
<g id="edge7_Node000003_Node000007" class="edge">
<title>Node7&#45;&gt;Node3</title>
<g id="a_edge7_Node000003_Node000007"><a xlink:title=" ">
<path fill="none" stroke="#9a32cd" stroke-dasharray="5,2" d="M534.42,-175.22C577.61,-168.5 641.89,-159.33 698.25,-154.62 793.73,-146.66 907.88,-145.46 956.86,-145.34"/>
<polygon fill="#9a32cd" stroke="#9a32cd" points="533.92,-171.76 524.58,-176.77 535.01,-178.67 533.92,-171.76"/>
</a>
</g>
<text text-anchor="middle" x="770.38" y="-157.62" font-family="Helvetica,sans-Serif" font-size="10.00" fill="grey"> FallbackGlyph</text>
</g>
<!-- Node7&#45;&gt;Node6 -->
<g id="edge6_Node000006_Node000007" class="edge">
<title>Node7&#45;&gt;Node6</title>
<g id="a_edge6_Node000006_Node000007"><a xlink:title=" ">
<path fill="none" stroke="#9a32cd" stroke-dasharray="5,2" d="M534.32,-183.9C579.59,-184.38 646.96,-185.09 697.98,-185.62"/>
<polygon fill="#9a32cd" stroke="#9a32cd" points="534.58,-180.4 524.54,-183.8 534.5,-187.4 534.58,-180.4"/>
</a>
</g>
<text text-anchor="middle" x="632.62" y="-188.62" font-family="Helvetica,sans-Serif" font-size="10.00" fill="grey"> Data</text>
</g>
<!-- Node8&#45;&gt;Node3 -->
<g id="edge8_Node000003_Node000008" class="edge">
<title>Node8&#45;&gt;Node3</title>
<g id="a_edge8_Node000003_Node000008"><a xlink:title=" ">
<path fill="none" stroke="#9a32cd" stroke-dasharray="5,2" d="M819.22,-54.7C861.68,-61.03 919.9,-71.67 939.25,-84.62 957.98,-97.17 970.75,-121.18 976.9,-134.96"/>
<polygon fill="#9a32cd" stroke="#9a32cd" points="819.87,-51.26 809.47,-53.29 818.87,-58.19 819.87,-51.26"/>
</a>
</g>
<text text-anchor="middle" x="899.88" y="-87.62" font-family="Helvetica,sans-Serif" font-size="10.00" fill="grey"> ContainerAtlas</text>
</g>
<!-- Node9&#45;&gt;Node8 -->
<g id="edge10_Node000008_Node000009" class="edge">
<title>Node9&#45;&gt;Node8</title>
<g id="a_edge10_Node000008_Node000009"><a xlink:title=" ">
<path fill="none" stroke="#9a32cd" stroke-dasharray="5,2" d="M1088.31,-67.08C1005.08,-62.17 871.99,-54.31 808.03,-50.54"/>
<polygon fill="#9a32cd" stroke="#9a32cd" points="1088.02,-70.57 1098.21,-67.67 1088.43,-63.58 1088.02,-70.57"/>
</a>
</g>
<text text-anchor="middle" x="982.12" y="-64.62" font-family="Helvetica,sans-Serif" font-size="10.00" fill="grey"> Fonts</text>
</g>
<!-- Node10&#45;&gt;Node8 -->
<g id="edge12_Node000008_Node000010" class="edge">
<title>Node10&#45;&gt;Node8</title>
<g id="a_edge12_Node000008_Node000010"><a xlink:title=" ">
<path fill="none" stroke="#9a32cd" stroke-dasharray="5,2" d="M578.34,-117.02C610.97,-109.33 647.57,-99.61 680.25,-88.38 681.09,-88.09 719.21,-70.95 745.32,-59.2"/>
<polygon fill="#9a32cd" stroke="#9a32cd" points="577.86,-113.54 568.91,-119.21 579.45,-120.36 577.86,-113.54"/>
</a>
</g>
<text text-anchor="middle" x="632.62" y="-116.62" font-family="Helvetica,sans-Serif" font-size="10.00" fill="grey"> CustomRects</text>
</g>
<!-- Node11 -->
<g id="Node000011" class="node">
<title>Node11</title>
<g id="a_Node000011"><a xlink:href="structImVector.html" target="_top" xlink:title=" ">
<polygon fill="white" stroke="#666666" points="1432.75,-28.75 1286.25,-28.75 1286.25,-8 1432.75,-8 1432.75,-28.75"/>
<text text-anchor="middle" x="1359.5" y="-15.25" font-family="Helvetica,sans-Serif" font-size="10.00">ImVector&lt; ImFontConfig &gt;</text>
</a>
</g>
</g>
<!-- Node11&#45;&gt;Node8 -->
<g id="edge14_Node000008_Node000011" class="edge">
<title>Node11&#45;&gt;Node8</title>
<g id="a_edge14_Node000008_Node000011"><a xlink:title=" ">
<path fill="none" stroke="#9a32cd" stroke-dasharray="5,2" d="M1274.45,-22.67C1144.59,-29.31 900.52,-41.78 808.1,-46.5"/>
<polygon fill="#9a32cd" stroke="#9a32cd" points="1274.57,-26.17 1284.38,-22.16 1274.21,-19.18 1274.57,-26.17"/>
</a>
</g>
<text text-anchor="middle" x="1053.5" y="-37.62" font-family="Helvetica,sans-Serif" font-size="10.00" fill="grey"> ConfigData</text>
</g>
<!-- Node12&#45;&gt;Node3 -->
<g id="edge20_Node000003_Node000012" class="edge">
<title>Node12&#45;&gt;Node3</title>
<g id="a_edge20_Node000003_Node000012"><a xlink:title=" ">
<path fill="none" stroke="#9a32cd" stroke-dasharray="5,2" d="M1116.69,-142.6C1105.48,-139.71 1093.39,-137.1 1082,-135.62 1056.88,-132.38 1050.17,-132.73 1025,-135.62 1019.22,-136.29 1013.07,-137.45 1007.32,-138.75"/>
<polygon fill="#9a32cd" stroke="#9a32cd" points="1115.52,-145.91 1126.09,-145.16 1117.35,-139.16 1115.52,-145.91"/>
</a>
</g>
<text text-anchor="middle" x="1053.5" y="-138.62" font-family="Helvetica,sans-Serif" font-size="10.00" fill="grey"> ConfigData</text>
</g>
<!-- Node12&#45;&gt;Node11 -->
<g id="edge15_Node000011_Node000012" class="edge">
<title>Node12&#45;&gt;Node11</title>
<g id="a_edge15_Node000011_Node000012"><a xlink:title=" ">
<path fill="none" stroke="#9a32cd" stroke-dasharray="5,2" d="M1187.61,-139.01C1228.56,-110.1 1309.54,-52.94 1343.23,-29.15"/>
<polygon fill="#9a32cd" stroke="#9a32cd" points="1185.73,-136.05 1179.58,-144.67 1189.77,-141.77 1185.73,-136.05"/>
</a>
</g>
<text text-anchor="middle" x="1255.12" y="-102.62" font-family="Helvetica,sans-Serif" font-size="10.00" fill="grey"> Data</text>
</g>
<!-- Node13 -->
<g id="Node000013" class="node">
<title>Node13</title>
<g id="a_Node000013"><a xlink:href="structImVec4.html" target="_top" xlink:title=" ">
<polygon fill="white" stroke="#666666" points="509.62,-96.75 457.62,-96.75 457.62,-76 509.62,-76 509.62,-96.75"/>
<text text-anchor="middle" x="483.62" y="-83.25" font-family="Helvetica,sans-Serif" font-size="10.00">ImVec4</text>
</a>
</g>
</g>
<!-- Node13&#45;&gt;Node8 -->
<g id="edge18_Node000008_Node000013" class="edge">
<title>Node13&#45;&gt;Node8</title>
<g id="a_edge18_Node000008_Node000013"><a xlink:title=" ">
<path fill="none" stroke="#9a32cd" stroke-dasharray="5,2" d="M521.1,-81.51C575.66,-74.23 677.96,-60.57 732.67,-53.27"/>
<polygon fill="#9a32cd" stroke="#9a32cd" points="520.84,-78.01 511.39,-82.8 521.77,-84.95 520.84,-78.01"/>
</a>
</g>
<text text-anchor="middle" x="632.62" y="-74.62" font-family="Helvetica,sans-Serif" font-size="10.00" fill="grey"> TexUvLines</text>
</g>
<!-- Node14 -->
<g id="Node000014" class="node">
<title>Node14</title>
<g id="a_Node000014"><a xlink:href="structImFontBuilderIO.html" target="_top" xlink:title=" ">
<polygon fill="white" stroke="#666666" points="531,-20.75 436.25,-20.75 436.25,0 531,0 531,-20.75"/>
<text text-anchor="middle" x="483.62" y="-7.25" font-family="Helvetica,sans-Serif" font-size="10.00">ImFontBuilderIO</text>
</a>
</g>
</g>
<!-- Node14&#45;&gt;Node8 -->
<g id="edge19_Node000008_Node000014" class="edge">
<title>Node14&#45;&gt;Node8</title>
<g id="a_edge19_Node000008_Node000014"><a xlink:title=" ">
<path fill="none" stroke="#9a32cd" stroke-dasharray="5,2" d="M542.66,-10.17C581.8,-10.89 634.46,-13.55 680.25,-21.62 700.46,-25.19 722.55,-31.8 739.68,-37.56"/>
<polygon fill="#9a32cd" stroke="#9a32cd" points="542.79,-6.67 532.74,-10.02 542.69,-13.67 542.79,-6.67"/>
</a>
</g>
<text text-anchor="middle" x="632.62" y="-24.62" font-family="Helvetica,sans-Serif" font-size="10.00" fill="grey"> FontBuilderIO</text>
</g>
</g>
</svg>

<g id="navigator" transform="translate(0 0)" fill="#404254">
  <rect fill="#f2f5e9" fill-opacity="0.5" stroke="#606060" stroke-width=".5" x="0" y="0" width="60" height="60"/>
  <use id="zoomplus" xlink:href="#zoomPlus" x="17" y="9" onmousedown="handleZoom(evt,'in')"/>
  <use id="zoomminus" xlink:href="#zoomMin" x="42" y="9" onmousedown="handleZoom(evt,'out')"/>
  <use id="reset" xlink:href="#resetDef" x="30" y="36" onmousedown="handleReset()"/>
   <use id="arrowup" xlink:href="#arrowUp" x="0" y="0" onmousedown="handlePan(0,-1)"/>
  <use id="arrowright" xlink:href="#arrowRight" x="0" y="0" onmousedown="handlePan(1,0)"/>
  <use id="arrowdown" xlink:href="#arrowDown" x="0" y="0" onmousedown="handlePan(0,1)"/>
  <use id="arrowleft" xlink:href="#arrowLeft" x="0" y="0" onmousedown="handlePan(-1,0)"/>
</g>
<svg viewBox="0 0 15 15" width="100%" height="30px" preserveAspectRatio="xMaxYMin meet">
 <g id="arrow_out" transform="scale(0.3 0.3)">
  <a xlink:href="structImFontAtlasCustomRect__coll__graph_org.svg" target="_base">
   <rect id="button" ry="5" rx="5" y="6" x="6" height="38" width="38"
        fill="#f2f5e9" fill-opacity="0.5" stroke="#606060" stroke-width="1.0"/>
   <path id="arrow"
     d="M 11.500037,31.436501 C 11.940474,20.09759 22.043105,11.32322 32.158766,21.979434 L 37.068811,17.246167 C 37.068811,17.246167 37.088388,32 37.088388,32 L 22.160133,31.978069 C 22.160133,31.978069 26.997745,27.140456 26.997745,27.140456 C 18.528582,18.264221 13.291696,25.230495 11.500037,31.436501 z"
     style="fill:#404040;"/>
  </a>
 </g>
</svg>

<style type='text/css'>
<![CDATA[
[data-mouse-over-selected='false'] { opacity: 0.7; }
[data-mouse-over-selected='true']  { opacity: 1.0; }
]]>
</style>
<script type="application/ecmascript"><![CDATA[
document.addEventListener('DOMContentLoaded', (event) => {
  highlightEdges();
  highlightAdjacentNodes();
});
]]></script>
</svg>
