<?xml version="1.0" encoding="UTF-8" standalone="no"?>
<!DOCTYPE svg PUBLIC "-//W3C//DTD SVG 1.1//EN"
 "http://www.w3.org/Graphics/SVG/1.1/DTD/svg11.dtd">
<!-- Generated by graphviz version 12.2.1 (20241206.2353)
 -->
<!-- Title: ImDrawList::AddCircle Pages: 1 -->
<svg width="808pt" height="143pt"
 viewBox="0.00 0.00 808.00 142.76" xmlns="http://www.w3.org/2000/svg" xmlns:xlink="http://www.w3.org/1999/xlink">
<g id="graph0" class="graph" transform="scale(1 1) rotate(0) translate(4 138.76)">
<title>ImDrawList::AddCircle</title>
<!-- Node1 -->
<g id="Node000001" class="node">
<title>Node1</title>
<g id="a_Node000001"><a xlink:title=" ">
<polygon fill="#999999" stroke="#666666" points="800,-21.39 676,-21.39 676,-0.64 800,-0.64 800,-21.39"/>
<text text-anchor="middle" x="738" y="-7.89" font-family="Helvetica,sans-Serif" font-size="10.00">ImDrawList::AddCircle</text>
</a>
</g>
</g>
<!-- Node2 -->
<g id="Node000002" class="node">
<title>Node2</title>
<g id="a_Node000002"><a xlink:href="namespaceImGui.html#a3d5aae9e0a14aa051d5a799abbe97b32" target="_top" xlink:title=" ">
<polygon fill="white" stroke="#666666" points="640,-66.39 528,-66.39 528,-45.64 640,-45.64 640,-66.39"/>
<text text-anchor="middle" x="584" y="-52.89" font-family="Helvetica,sans-Serif" font-size="10.00">ImGui::ColorPicker4</text>
</a>
</g>
</g>
<!-- Node1&#45;&gt;Node2 -->
<g id="edge1_Node000001_Node000002" class="edge">
<title>Node1&#45;&gt;Node2</title>
<g id="a_edge1_Node000001_Node000002"><a xlink:title=" ">
<path fill="none" stroke="#63b8ff" d="M689.82,-24.98C667.85,-31.48 642.11,-39.1 621.64,-45.16"/>
<polygon fill="#63b8ff" stroke="#63b8ff" points="690.55,-28.41 699.14,-22.22 688.56,-21.7 690.55,-28.41"/>
</a>
</g>
</g>
<!-- Node6 -->
<g id="Node000006" class="node">
<title>Node6</title>
<g id="a_Node000006"><a xlink:href="namespaceImGui.html#ab2eb3dec78d054fe3feab1c091ec5de5" target="_top" xlink:title=" ">
<polygon fill="white" stroke="#666666" points="312.5,-41.39 181.75,-41.39 181.75,-20.64 312.5,-20.64 312.5,-41.39"/>
<text text-anchor="middle" x="247.12" y="-27.89" font-family="Helvetica,sans-Serif" font-size="10.00">ImGui::ShowStyleEditor</text>
</a>
</g>
</g>
<!-- Node1&#45;&gt;Node6 -->
<g id="edge11_Node000001_Node000006" class="edge">
<title>Node1&#45;&gt;Node6</title>
<g id="a_edge11_Node000001_Node000006"><a xlink:title=" ">
<path fill="none" stroke="#63b8ff" d="M664.35,-5.26C586.1,-0.28 458.06,4.38 348.5,-8.01 327.54,-10.38 304.57,-15.45 285.91,-20.23"/>
<polygon fill="#63b8ff" stroke="#63b8ff" points="663.81,-8.73 674.02,-5.9 664.27,-1.75 663.81,-8.73"/>
</a>
</g>
</g>
<!-- Node3 -->
<g id="Node000003" class="node">
<title>Node3</title>
<g id="a_Node000003"><a xlink:href="namespaceImGui.html#ac3f45e2aa0b1d591cc8a2cdf8b566a45" target="_top" xlink:title=" ">
<polygon fill="white" stroke="#666666" points="471,-128.39 369.5,-128.39 369.5,-107.64 471,-107.64 471,-128.39"/>
<text text-anchor="middle" x="420.25" y="-114.89" font-family="Helvetica,sans-Serif" font-size="10.00">ImGui::ColorEdit4</text>
</a>
</g>
</g>
<!-- Node2&#45;&gt;Node3 -->
<g id="edge2_Node000002_Node000003" class="edge">
<title>Node2&#45;&gt;Node3</title>
<g id="a_edge2_Node000002_Node000003"><a xlink:title=" ">
<path fill="none" stroke="#63b8ff" d="M534.88,-71.28C521.21,-77.25 506.18,-83.77 492,-89.01 473.56,-95.82 451.7,-101.68 437.21,-107.22"/>
<polygon fill="#63b8ff" stroke="#63b8ff" points="535.89,-74.66 543.65,-67.45 533.09,-68.24 535.89,-74.66"/>
</a>
</g>
</g>
<!-- Node8 -->
<g id="Node000008" class="node">
<title>Node8</title>
<g id="a_Node000008"><a xlink:href="namespaceImGui.html#a2a2a98cb9a17b18702be6b954670b388" target="_top" xlink:title=" ">
<polygon fill="white" stroke="#666666" points="476.25,-89.39 364.25,-89.39 364.25,-68.64 476.25,-68.64 476.25,-89.39"/>
<text text-anchor="middle" x="420.25" y="-75.89" font-family="Helvetica,sans-Serif" font-size="10.00">ImGui::ColorPicker3</text>
</a>
</g>
</g>
<!-- Node2&#45;&gt;Node8 -->
<g id="edge8_Node000002_Node000008" class="edge">
<title>Node2&#45;&gt;Node8</title>
<g id="a_edge8_Node000002_Node000008"><a xlink:title=" ">
<path fill="none" stroke="#63b8ff" d="M516.72,-65.44C503.35,-67.34 489.43,-69.32 476.49,-71.16"/>
<polygon fill="#63b8ff" stroke="#63b8ff" points="516.88,-68.95 526.29,-64.07 515.9,-62.02 516.88,-68.95"/>
</a>
</g>
</g>
<!-- Node9 -->
<g id="Node000009" class="node">
<title>Node9</title>
<g id="a_Node000009"><a xlink:href="namespaceImGui.html#a6d112eeb6d8ffdebbc9d9a8c66babbee" target="_top" xlink:title=" ">
<polygon fill="white" stroke="#666666" points="492,-50.76 348.5,-50.76 348.5,-17.26 492,-17.26 492,-50.76"/>
<text text-anchor="start" x="356.5" y="-37.26" font-family="Helvetica,sans-Serif" font-size="10.00">ImGui::ColorPickerOptions</text>
<text text-anchor="middle" x="420.25" y="-24.51" font-family="Helvetica,sans-Serif" font-size="10.00">Popup</text>
</a>
</g>
</g>
<!-- Node2&#45;&gt;Node9 -->
<g id="edge9_Node000002_Node000009" class="edge">
<title>Node2&#45;&gt;Node9</title>
<g id="a_edge9_Node000002_Node000009"><a xlink:title=" ">
<path fill="none" stroke="#63b8ff" d="M534.6,-43.19C521.28,-40.93 506.55,-38.78 492.24,-36.96"/>
<polygon fill="#63b8ff" stroke="#63b8ff" points="533.94,-46.62 544.4,-44.92 535.16,-39.73 533.94,-46.62"/>
</a>
</g>
</g>
<!-- Node3&#45;&gt;Node2 -->
<g id="edge5_Node000003_Node000002" class="edge">
<title>Node3&#45;&gt;Node2</title>
<g id="a_edge5_Node000003_Node000002"><a xlink:title=" ">
<path fill="none" stroke="#63b8ff" d="M482.18,-110.44C485.52,-109.34 488.81,-108.19 492,-107.01 522.36,-95.79 556.64,-78.7 573.12,-66.75"/>
<polygon fill="#63b8ff" stroke="#63b8ff" points="481.38,-107.03 472.87,-113.34 483.46,-113.71 481.38,-107.03"/>
</a>
</g>
</g>
<!-- Node4 -->
<g id="Node000004" class="node">
<title>Node4</title>
<g id="a_Node000004"><a xlink:href="namespaceImGui.html#a5afe76ba1c91f07363e40396e7df656e" target="_top" xlink:title=" ">
<polygon fill="white" stroke="#666666" points="297.88,-128.39 196.38,-128.39 196.38,-107.64 297.88,-107.64 297.88,-128.39"/>
<text text-anchor="middle" x="247.12" y="-114.89" font-family="Helvetica,sans-Serif" font-size="10.00">ImGui::ColorEdit3</text>
</a>
</g>
</g>
<!-- Node3&#45;&gt;Node4 -->
<g id="edge3_Node000003_Node000004" class="edge">
<title>Node3&#45;&gt;Node4</title>
<g id="a_edge3_Node000003_Node000004"><a xlink:title=" ">
<path fill="none" stroke="#63b8ff" d="M357.99,-118.01C338.36,-118.01 316.87,-118.01 298.14,-118.01"/>
<polygon fill="#63b8ff" stroke="#63b8ff" points="357.78,-121.51 367.78,-118.01 357.78,-114.51 357.78,-121.51"/>
</a>
</g>
</g>
<!-- Node3&#45;&gt;Node6 -->
<g id="edge6_Node000003_Node000006" class="edge">
<title>Node3&#45;&gt;Node6</title>
<g id="a_edge6_Node000003_Node000006"><a xlink:title=" ">
<path fill="none" stroke="#63b8ff" d="M361.97,-103.5C357.35,-101.82 352.8,-99.99 348.5,-98.01 314.82,-82.48 279.73,-56.4 261.28,-41.78"/>
<polygon fill="#63b8ff" stroke="#63b8ff" points="360.8,-106.8 371.39,-106.66 363.02,-100.16 360.8,-106.8"/>
</a>
</g>
</g>
<!-- Node5 -->
<g id="Node000005" class="node">
<title>Node5</title>
<g id="a_Node000005"><a xlink:href="structExampleAppDocuments.html#a007a1a59693a3c7fc7d87815e022dbe4" target="_top" xlink:title=" ">
<polygon fill="white" stroke="#666666" points="139.38,-134.76 6.38,-134.76 6.38,-101.26 139.38,-101.26 139.38,-134.76"/>
<text text-anchor="start" x="14.38" y="-121.26" font-family="Helvetica,sans-Serif" font-size="10.00">ExampleAppDocuments</text>
<text text-anchor="middle" x="72.88" y="-108.51" font-family="Helvetica,sans-Serif" font-size="10.00">::DisplayDocContents</text>
</a>
</g>
</g>
<!-- Node4&#45;&gt;Node5 -->
<g id="edge4_Node000004_Node000005" class="edge">
<title>Node4&#45;&gt;Node5</title>
<g id="a_edge4_Node000004_Node000005"><a xlink:title=" ">
<path fill="none" stroke="#63b8ff" d="M184.81,-118.01C170.16,-118.01 154.46,-118.01 139.62,-118.01"/>
<polygon fill="#63b8ff" stroke="#63b8ff" points="184.79,-121.51 194.79,-118.01 184.79,-114.51 184.79,-121.51"/>
</a>
</g>
</g>
<!-- Node7 -->
<g id="Node000007" class="node">
<title>Node7</title>
<g id="a_Node000007"><a xlink:href="namespaceImGui.html#af95643a0ce4893b9e57c12991922fb18" target="_top" xlink:title=" ">
<polygon fill="white" stroke="#666666" points="145.75,-41.39 0,-41.39 0,-20.64 145.75,-20.64 145.75,-41.39"/>
<text text-anchor="middle" x="72.88" y="-27.89" font-family="Helvetica,sans-Serif" font-size="10.00">ImGui::ShowDemoWindow</text>
</a>
</g>
</g>
<!-- Node6&#45;&gt;Node7 -->
<g id="edge7_Node000006_Node000007" class="edge">
<title>Node6&#45;&gt;Node7</title>
<g id="a_edge7_Node000006_Node000007"><a xlink:title=" ">
<path fill="none" stroke="#63b8ff" d="M170.26,-31.01C162.23,-31.01 154.08,-31.01 146.09,-31.01"/>
<polygon fill="#63b8ff" stroke="#63b8ff" points="169.98,-34.51 179.98,-31.01 169.98,-27.51 169.98,-34.51"/>
</a>
</g>
</g>
<!-- Node9&#45;&gt;Node2 -->
<g id="edge10_Node000009_Node000002" class="edge">
<title>Node9&#45;&gt;Node2</title>
<g id="a_edge10_Node000009_Node000002"><a xlink:title=" ">
<path fill="none" stroke="#63b8ff" d="M503.45,-51.94C511.7,-53.05 519.92,-54.07 527.79,-54.94"/>
<polygon fill="#63b8ff" stroke="#63b8ff" points="504.12,-48.5 493.73,-50.58 503.15,-55.43 504.12,-48.5"/>
</a>
</g>
</g>
</g>
</svg>
