<?xml version="1.0" encoding="UTF-8" standalone="no"?>
<!DOCTYPE svg PUBLIC "-//W3C//DTD SVG 1.1//EN"
 "http://www.w3.org/Graphics/SVG/1.1/DTD/svg11.dtd">
<!-- Generated by graphviz version 12.0.0 (20240704.0754)
 -->
<!-- Title: ImDrawData::AddDrawList Pages: 1 -->
<!--zoomable 93 -->

<svg id="main" version="1.1" xmlns="http://www.w3.org/2000/svg" xmlns:xlink="http://www.w3.org/1999/xlink" xml:space="preserve" onload="init(evt)">
<style type="text/css"><![CDATA[
.node, .edge {opacity: 0.7;}
.node.selected, .edge.selected {opacity: 1;}
.edge:hover path { stroke: red; }
.edge:hover polygon { stroke: red; fill: red; }
]]></style>

<defs>
  <circle id="rim" cx="0" cy="0" r="7"/>
  <circle id="rim2" cx="0" cy="0" r="3.5"/>
  <g id="zoomPlus">
    <use xlink:href="#rim" fill="#404040"><set attributeName="fill" to="#808080" begin="zoomplus.mouseover" end="zoomplus.mouseout"/></use>
    <path d="M-4,0h8M0,-4v8" fill="none" stroke="white" stroke-width="1.5" pointer-events="none"/>
  </g>
  <g id="zoomMin">
    <use xlink:href="#rim" fill="#404040"><set attributeName="fill" to="#808080" begin="zoomminus.mouseover" end="zoomminus.mouseout"/></use>
    <path d="M-4,0h8" fill="none" stroke="white" stroke-width="1.5" pointer-events="none"/>
  </g>
  <g id="arrowUp" transform="translate(30 24)">
    <use xlink:href="#rim"/>
    <path pointer-events="none" fill="none" stroke="white" stroke-width="1.5" d="M0,-3.0v7 M-2.5,-0.5L0,-3.0L2.5,-0.5"/>
  </g>
  <g id="arrowRight" transform="rotate(90) translate(36 -43)">
    <use xlink:href="#rim"/>
    <path pointer-events="none" fill="none" stroke="white" stroke-width="1.5" d="M0,-3.0v7 M-2.5,-0.5L0,-3.0L2.5,-0.5"/>
  </g>
  <g id="arrowDown" transform="rotate(180) translate(-30 -48)">
    <use xlink:href="#rim"/>
    <path pointer-events="none" fill="none" stroke="white" stroke-width="1.5" d="M0,-3.0v7 M-2.5,-0.5L0,-3.0L2.5,-0.5"/>
  </g>
  <g id="arrowLeft" transform="rotate(270) translate(-36 17)">
    <use xlink:href="#rim"/>
    <path pointer-events="none" fill="none" stroke="white" stroke-width="1.5" d="M0,-3.0v7 M-2.5,-0.5L0,-3.0L2.5,-0.5"/>
  </g>
  <g id="resetDef">
    <use xlink:href="#rim2" fill="#404040"><set attributeName="fill" to="#808080" begin="reset.mouseover" end="reset.mouseout"/></use>
  </g>
</defs>
<script type="application/ecmascript">
var viewWidth = 705;
var viewHeight = 93;
var sectionId = 'dynsection-1';
</script>
<script type="application/ecmascript" xlink:href="svg.min.js"/>
<svg id="graph" class="graph">
<g id="viewport">
<title>ImDrawData::AddDrawList</title>
<!-- Node1 -->
<g id="Node000001" class="node">
<title>Node1</title>
<g id="a_Node000001"><a xlink:title=" ">
<polygon fill="#999999" stroke="#666666" points="145,-61.75 0,-61.75 0,-41 145,-41 145,-61.75"/>
<text text-anchor="middle" x="72.5" y="-48.25" font-family="Helvetica,sans-Serif" font-size="10.00">ImDrawData::AddDrawList</text>
</a>
</g>
</g>
<!-- Node2 -->
<g id="Node000002" class="node">
<title>Node2</title>
<g id="a_Node000002"><a xlink:href="structImDrawList.html#a2cb0295fcd3062bfedbebbad55865455" target="_top" xlink:title=" ">
<polygon fill="white" stroke="#666666" points="366.5,-84.75 181,-84.75 181,-64 366.5,-64 366.5,-84.75"/>
<text text-anchor="middle" x="273.75" y="-71.25" font-family="Helvetica,sans-Serif" font-size="10.00">ImDrawList::_PopUnusedDrawCmd</text>
</a>
</g>
</g>
<!-- Node1&#45;&gt;Node2 -->
<g id="edge1_Node000001_Node000002" class="edge">
<title>Node1&#45;&gt;Node2</title>
<g id="a_edge1_Node000001_Node000002"><a xlink:title=" ">
<path fill="none" stroke="#63b8ff" d="M145.43,-59.68C153.24,-60.58 161.29,-61.51 169.37,-62.44"/>
<polygon fill="#63b8ff" stroke="#63b8ff" points="168.96,-65.92 179.29,-63.59 169.76,-58.96 168.96,-65.92"/>
</a>
</g>
</g>
<!-- Node4 -->
<g id="Node000004" class="node">
<title>Node4</title>
<g id="a_Node000004"><a xlink:href="namespaceImGui.html#a0074bb825de97c5602d9d9bb2e4d49d4" target="_top" xlink:title=" ">
<polygon fill="white" stroke="#666666" points="348.12,-46.12 199.38,-46.12 199.38,-12.62 348.12,-12.62 348.12,-46.12"/>
<text text-anchor="start" x="207.38" y="-32.62" font-family="Helvetica,sans-Serif" font-size="10.00">ImGui::AddDrawListToDraw</text>
<text text-anchor="middle" x="273.75" y="-19.88" font-family="Helvetica,sans-Serif" font-size="10.00">DataEx</text>
</a>
</g>
</g>
<!-- Node1&#45;&gt;Node4 -->
<g id="edge3_Node000001_Node000004" class="edge">
<title>Node1&#45;&gt;Node4</title>
<g id="a_edge3_Node000001_Node000004"><a xlink:title=" ">
<path fill="none" stroke="#63b8ff" d="M145.43,-43.43C159.16,-41.92 173.64,-40.32 187.72,-38.76"/>
<polygon fill="#63b8ff" stroke="#63b8ff" points="187.85,-42.27 197.41,-37.69 187.08,-35.31 187.85,-42.27"/>
</a>
</g>
</g>
<!-- Node3 -->
<g id="Node000003" class="node">
<title>Node3</title>
<g id="a_Node000003"><a xlink:href="structImVector.html#a3db7ce62d3c429effdb893fbf7148c1c" target="_top" xlink:title=" ">
<polygon fill="white" stroke="#666666" points="517.12,-84.75 405.12,-84.75 405.12,-64 517.12,-64 517.12,-84.75"/>
<text text-anchor="middle" x="461.12" y="-71.25" font-family="Helvetica,sans-Serif" font-size="10.00">ImVector::pop_back</text>
</a>
</g>
</g>
<!-- Node2&#45;&gt;Node3 -->
<g id="edge2_Node000002_Node000003" class="edge">
<title>Node2&#45;&gt;Node3</title>
<g id="a_edge2_Node000002_Node000003"><a xlink:title=" ">
<path fill="none" stroke="#63b8ff" d="M366.89,-74.38C375.77,-74.38 384.64,-74.38 393.2,-74.38"/>
<polygon fill="#63b8ff" stroke="#63b8ff" points="393.13,-77.88 403.13,-74.38 393.13,-70.88 393.13,-77.88"/>
</a>
</g>
</g>
<!-- Node5 -->
<g id="Node000005" class="node">
<title>Node5</title>
<g id="a_Node000005"><a xlink:href="structImVector.html#aab5df48e0711a48bd12f3206e08c4108" target="_top" xlink:title=" ">
<polygon fill="white" stroke="#666666" points="519.75,-39.75 402.5,-39.75 402.5,-19 519.75,-19 519.75,-39.75"/>
<text text-anchor="middle" x="461.12" y="-26.25" font-family="Helvetica,sans-Serif" font-size="10.00">ImVector::push_back</text>
</a>
</g>
</g>
<!-- Node4&#45;&gt;Node5 -->
<g id="edge4_Node000004_Node000005" class="edge">
<title>Node4&#45;&gt;Node5</title>
<g id="a_edge4_Node000004_Node000005"><a xlink:title=" ">
<path fill="none" stroke="#63b8ff" d="M348.55,-29.38C362.51,-29.38 377.07,-29.38 390.88,-29.38"/>
<polygon fill="#63b8ff" stroke="#63b8ff" points="390.77,-32.88 400.77,-29.38 390.77,-25.88 390.77,-32.88"/>
</a>
</g>
</g>
<!-- Node6 -->
<g id="Node000006" class="node">
<title>Node6</title>
<g id="a_Node000006"><a xlink:href="structImVector.html#a3a097635d464b1b70dc7d59996a88b28" target="_top" xlink:title=" ">
<polygon fill="white" stroke="#666666" points="697,-59.75 555.75,-59.75 555.75,-39 697,-39 697,-59.75"/>
<text text-anchor="middle" x="626.38" y="-46.25" font-family="Helvetica,sans-Serif" font-size="10.00">ImVector::_grow_capacity</text>
</a>
</g>
</g>
<!-- Node5&#45;&gt;Node6 -->
<g id="edge5_Node000005_Node000006" class="edge">
<title>Node5&#45;&gt;Node6</title>
<g id="a_edge5_Node000005_Node000006"><a xlink:title=" ">
<path fill="none" stroke="#63b8ff" d="M520.14,-36.48C527.93,-37.44 536.03,-38.43 544.12,-39.42"/>
<polygon fill="#63b8ff" stroke="#63b8ff" points="543.68,-42.89 554.03,-40.63 544.53,-35.94 543.68,-42.89"/>
</a>
</g>
</g>
<!-- Node7 -->
<g id="Node000007" class="node">
<title>Node7</title>
<g id="a_Node000007"><a xlink:href="structImVector.html#a0f14f5736c3372157856eebb67123b75" target="_top" xlink:title=" ">
<polygon fill="white" stroke="#666666" points="677.5,-20.75 575.25,-20.75 575.25,0 677.5,0 677.5,-20.75"/>
<text text-anchor="middle" x="626.38" y="-7.25" font-family="Helvetica,sans-Serif" font-size="10.00">ImVector::reserve</text>
</a>
</g>
</g>
<!-- Node5&#45;&gt;Node7 -->
<g id="edge6_Node000005_Node000007" class="edge">
<title>Node5&#45;&gt;Node7</title>
<g id="a_edge6_Node000005_Node000007"><a xlink:title=" ">
<path fill="none" stroke="#63b8ff" d="M520.14,-22.62C534.24,-20.98 549.37,-19.22 563.64,-17.56"/>
<polygon fill="#63b8ff" stroke="#63b8ff" points="563.83,-21.06 573.36,-16.43 563.02,-14.11 563.83,-21.06"/>
</a>
</g>
</g>
</g>
</svg>

<g id="navigator" transform="translate(0 0)" fill="#404254">
  <rect fill="#f2f5e9" fill-opacity="0.5" stroke="#606060" stroke-width=".5" x="0" y="0" width="60" height="60"/>
  <use id="zoomplus" xlink:href="#zoomPlus" x="17" y="9" onmousedown="handleZoom(evt,'in')"/>
  <use id="zoomminus" xlink:href="#zoomMin" x="42" y="9" onmousedown="handleZoom(evt,'out')"/>
  <use id="reset" xlink:href="#resetDef" x="30" y="36" onmousedown="handleReset()"/>
   <use id="arrowup" xlink:href="#arrowUp" x="0" y="0" onmousedown="handlePan(0,-1)"/>
  <use id="arrowright" xlink:href="#arrowRight" x="0" y="0" onmousedown="handlePan(1,0)"/>
  <use id="arrowdown" xlink:href="#arrowDown" x="0" y="0" onmousedown="handlePan(0,1)"/>
  <use id="arrowleft" xlink:href="#arrowLeft" x="0" y="0" onmousedown="handlePan(-1,0)"/>
</g>
<svg viewBox="0 0 15 15" width="100%" height="30px" preserveAspectRatio="xMaxYMin meet">
 <g id="arrow_out" transform="scale(0.3 0.3)">
  <a xlink:href="structImDrawData_aa48f45dd7e1567f68cdf4b910e769302_cgraph_org.svg" target="_base">
   <rect id="button" ry="5" rx="5" y="6" x="6" height="38" width="38"
        fill="#f2f5e9" fill-opacity="0.5" stroke="#606060" stroke-width="1.0"/>
   <path id="arrow"
     d="M 11.500037,31.436501 C 11.940474,20.09759 22.043105,11.32322 32.158766,21.979434 L 37.068811,17.246167 C 37.068811,17.246167 37.088388,32 37.088388,32 L 22.160133,31.978069 C 22.160133,31.978069 26.997745,27.140456 26.997745,27.140456 C 18.528582,18.264221 13.291696,25.230495 11.500037,31.436501 z"
     style="fill:#404040;"/>
  </a>
 </g>
</svg>

<style type='text/css'>
<![CDATA[
[data-mouse-over-selected='false'] { opacity: 0.7; }
[data-mouse-over-selected='true']  { opacity: 1.0; }
]]>
</style>
<script type="application/ecmascript"><![CDATA[
document.addEventListener('DOMContentLoaded', (event) => {
  highlightEdges();
  highlightAdjacentNodes();
});
]]></script>
</svg>
