<?xml version="1.0" encoding="UTF-8" standalone="no"?>
<!DOCTYPE svg PUBLIC "-//W3C//DTD SVG 1.1//EN"
 "http://www.w3.org/Graphics/SVG/1.1/DTD/svg11.dtd">
<!-- Generated by graphviz version 12.0.0 (20240704.0754)
 -->
<!-- Title: ExampleSelectionWithDeletion Pages: 1 -->
<svg width="176pt" height="295pt"
 viewBox="0.00 0.00 175.50 295.00" xmlns="http://www.w3.org/2000/svg" xmlns:xlink="http://www.w3.org/1999/xlink">
<g id="graph0" class="graph" transform="scale(1 1) rotate(0) translate(4 291)">
<title>ExampleSelectionWithDeletion</title>
<!-- Node1 -->
<g id="Node000001" class="node">
<title>Node1</title>
<g id="a_Node000001"><a xlink:title=" ">
<polygon fill="#999999" stroke="#666666" points="167.5,-20.75 0,-20.75 0,0 167.5,0 167.5,-20.75"/>
<text text-anchor="middle" x="83.75" y="-7.25" font-family="Helvetica,sans-Serif" font-size="10.00">ExampleSelectionWithDeletion</text>
</a>
</g>
</g>
<!-- Node2 -->
<g id="Node000002" class="node">
<title>Node2</title>
<g id="a_Node000002"><a xlink:href="structImGuiSelectionBasicStorage.html" target="_top" xlink:title=" ">
<polygon fill="white" stroke="#666666" points="160.75,-78.5 6.75,-78.5 6.75,-57.75 160.75,-57.75 160.75,-78.5"/>
<text text-anchor="middle" x="83.75" y="-65" font-family="Helvetica,sans-Serif" font-size="10.00">ImGuiSelectionBasicStorage</text>
</a>
</g>
</g>
<!-- Node2&#45;&gt;Node1 -->
<g id="edge1_Node000001_Node000002" class="edge">
<title>Node2&#45;&gt;Node1</title>
<g id="a_edge1_Node000001_Node000002"><a xlink:title=" ">
<path fill="none" stroke="#63b8ff" d="M83.75,-46.18C83.75,-37.52 83.75,-27.9 83.75,-20.97"/>
<polygon fill="#63b8ff" stroke="#63b8ff" points="80.25,-45.9 83.75,-55.9 87.25,-45.9 80.25,-45.9"/>
</a>
</g>
</g>
<!-- Node3 -->
<g id="Node000003" class="node">
<title>Node3</title>
<g id="a_Node000003"><a xlink:href="structImGuiStorage.html" target="_top" xlink:title=" ">
<polygon fill="white" stroke="#666666" points="125.12,-148 42.38,-148 42.38,-127.25 125.12,-127.25 125.12,-148"/>
<text text-anchor="middle" x="83.75" y="-134.5" font-family="Helvetica,sans-Serif" font-size="10.00">ImGuiStorage</text>
</a>
</g>
</g>
<!-- Node3&#45;&gt;Node2 -->
<g id="edge2_Node000002_Node000003" class="edge">
<title>Node3&#45;&gt;Node2</title>
<g id="a_edge2_Node000002_Node000003"><a xlink:title=" ">
<path fill="none" stroke="#9a32cd" stroke-dasharray="5,2" d="M83.75,-115.82C83.75,-103.47 83.75,-88.4 83.75,-78.78"/>
<polygon fill="#9a32cd" stroke="#9a32cd" points="80.25,-115.44 83.75,-125.44 87.25,-115.44 80.25,-115.44"/>
</a>
</g>
<text text-anchor="middle" x="106.62" y="-99.75" font-family="Helvetica,sans-Serif" font-size="10.00" fill="grey"> _Storage</text>
</g>
<!-- Node4 -->
<g id="Node000004" class="node">
<title>Node4</title>
<g id="a_Node000004"><a xlink:href="structImVector.html" target="_top" xlink:title=" ">
<polygon fill="white" stroke="#666666" points="167.12,-217.5 0.38,-217.5 0.38,-196.75 167.12,-196.75 167.12,-217.5"/>
<text text-anchor="middle" x="83.75" y="-204" font-family="Helvetica,sans-Serif" font-size="10.00">ImVector&lt; ImGuiStoragePair &gt;</text>
</a>
</g>
</g>
<!-- Node4&#45;&gt;Node3 -->
<g id="edge3_Node000003_Node000004" class="edge">
<title>Node4&#45;&gt;Node3</title>
<g id="a_edge3_Node000003_Node000004"><a xlink:title=" ">
<path fill="none" stroke="#9a32cd" stroke-dasharray="5,2" d="M83.75,-185.32C83.75,-172.97 83.75,-157.9 83.75,-148.28"/>
<polygon fill="#9a32cd" stroke="#9a32cd" points="80.25,-184.94 83.75,-194.94 87.25,-184.94 80.25,-184.94"/>
</a>
</g>
<text text-anchor="middle" x="96.88" y="-169.25" font-family="Helvetica,sans-Serif" font-size="10.00" fill="grey"> Data</text>
</g>
<!-- Node5 -->
<g id="Node000005" class="node">
<title>Node5</title>
<g id="a_Node000005"><a xlink:href="structImGuiStoragePair.html" target="_top" xlink:title=" ">
<polygon fill="white" stroke="#666666" points="134.12,-287 33.38,-287 33.38,-266.25 134.12,-266.25 134.12,-287"/>
<text text-anchor="middle" x="83.75" y="-273.5" font-family="Helvetica,sans-Serif" font-size="10.00">ImGuiStoragePair</text>
</a>
</g>
</g>
<!-- Node5&#45;&gt;Node4 -->
<g id="edge4_Node000004_Node000005" class="edge">
<title>Node5&#45;&gt;Node4</title>
<g id="a_edge4_Node000004_Node000005"><a xlink:title=" ">
<path fill="none" stroke="#9a32cd" stroke-dasharray="5,2" d="M83.75,-254.82C83.75,-242.47 83.75,-227.4 83.75,-217.78"/>
<polygon fill="#9a32cd" stroke="#9a32cd" points="80.25,-254.44 83.75,-264.44 87.25,-254.44 80.25,-254.44"/>
</a>
</g>
<text text-anchor="middle" x="96.88" y="-238.75" font-family="Helvetica,sans-Serif" font-size="10.00" fill="grey"> Data</text>
</g>
</g>
</svg>
