<?xml version="1.0" encoding="UTF-8" standalone="no"?>
<!DOCTYPE svg PUBLIC "-//W3C//DTD SVG 1.1//EN"
 "http://www.w3.org/Graphics/SVG/1.1/DTD/svg11.dtd">
<!-- Generated by graphviz version 12.2.0 (20241103.1931)
 -->
<!-- Title: ExampleSelectionWithDeletion::ApplyDeletionPreLoop Pages: 1 -->
<svg width="640pt" height="94pt"
 viewBox="0.00 0.00 639.75 93.50" xmlns="http://www.w3.org/2000/svg" xmlns:xlink="http://www.w3.org/1999/xlink">
<g id="graph0" class="graph" transform="scale(1 1) rotate(0) translate(4 89.5)">
<title>ExampleSelectionWithDeletion::ApplyDeletionPreLoop</title>
<!-- Node1 -->
<g id="Node000001" class="node">
<title>Node1</title>
<g id="a_Node000001"><a xlink:title=" ">
<polygon fill="#999999" stroke="#666666" points="167.5,-59.5 0,-59.5 0,-26 167.5,-26 167.5,-59.5"/>
<text text-anchor="start" x="8" y="-46" font-family="Helvetica,sans-Serif" font-size="10.00">ExampleSelectionWithDeletion</text>
<text text-anchor="middle" x="83.75" y="-33.25" font-family="Helvetica,sans-Serif" font-size="10.00">::ApplyDeletionPreLoop</text>
</a>
</g>
</g>
<!-- Node2 -->
<g id="Node000002" class="node">
<title>Node2</title>
<g id="a_Node000002"><a xlink:href="structImGuiSelectionBasicStorage.html#ab55dc39b0ce40405957af6ff0086f4af" target="_top" xlink:title=" ">
<polygon fill="white" stroke="#666666" points="357.5,-85.5 203.5,-85.5 203.5,-52 357.5,-52 357.5,-85.5"/>
<text text-anchor="start" x="211.5" y="-72" font-family="Helvetica,sans-Serif" font-size="10.00">ImGuiSelectionBasicStorage</text>
<text text-anchor="middle" x="280.5" y="-59.25" font-family="Helvetica,sans-Serif" font-size="10.00">::Contains</text>
</a>
</g>
</g>
<!-- Node1&#45;&gt;Node2 -->
<g id="edge1_Node000001_Node000002" class="edge">
<title>Node1&#45;&gt;Node2</title>
<g id="a_edge1_Node000001_Node000002"><a xlink:title=" ">
<path fill="none" stroke="#63b8ff" d="M167.91,-53.85C175.85,-54.91 183.92,-55.99 191.9,-57.05"/>
<polygon fill="#63b8ff" stroke="#63b8ff" points="191.22,-60.5 201.6,-58.35 192.15,-53.56 191.22,-60.5"/>
</a>
</g>
</g>
<!-- Node5 -->
<g id="Node000005" class="node">
<title>Node5</title>
<g id="a_Node000005"><a xlink:href="structImGuiSelectionBasicStorage.html#a331efab75bdd203770ed5ccaaa09a6d1" target="_top" xlink:title=" ">
<polygon fill="white" stroke="#666666" points="357.5,-33.5 203.5,-33.5 203.5,0 357.5,0 357.5,-33.5"/>
<text text-anchor="start" x="211.5" y="-20" font-family="Helvetica,sans-Serif" font-size="10.00">ImGuiSelectionBasicStorage</text>
<text text-anchor="middle" x="280.5" y="-7.25" font-family="Helvetica,sans-Serif" font-size="10.00">::GetStorageIdFromIndex</text>
</a>
</g>
</g>
<!-- Node1&#45;&gt;Node5 -->
<g id="edge4_Node000001_Node000005" class="edge">
<title>Node1&#45;&gt;Node5</title>
<g id="a_edge4_Node000001_Node000005"><a xlink:title=" ">
<path fill="none" stroke="#63b8ff" d="M167.91,-31.65C175.85,-30.59 183.92,-29.51 191.9,-28.45"/>
<polygon fill="#63b8ff" stroke="#63b8ff" points="192.15,-31.94 201.6,-27.15 191.22,-25 192.15,-31.94"/>
</a>
</g>
</g>
<!-- Node3 -->
<g id="Node000003" class="node">
<title>Node3</title>
<g id="a_Node000003"><a xlink:href="structImGuiStorage.html#a9af0043a681938246b80ecd273ce990d" target="_top" xlink:title=" ">
<polygon fill="white" stroke="#666666" points="512.25,-79.12 393.5,-79.12 393.5,-58.38 512.25,-58.38 512.25,-79.12"/>
<text text-anchor="middle" x="452.88" y="-65.62" font-family="Helvetica,sans-Serif" font-size="10.00">ImGuiStorage::GetInt</text>
</a>
</g>
</g>
<!-- Node2&#45;&gt;Node3 -->
<g id="edge2_Node000002_Node000003" class="edge">
<title>Node2&#45;&gt;Node3</title>
<g id="a_edge2_Node000002_Node000003"><a xlink:title=" ">
<path fill="none" stroke="#63b8ff" d="M357.72,-68.75C365.69,-68.75 373.78,-68.75 381.68,-68.75"/>
<polygon fill="#63b8ff" stroke="#63b8ff" points="381.59,-72.25 391.59,-68.75 381.59,-65.25 381.59,-72.25"/>
</a>
</g>
</g>
<!-- Node4 -->
<g id="Node000004" class="node">
<title>Node4</title>
<g id="a_Node000004"><a xlink:href="structImVector.html#a278ca772697b2b2139d3b8add336a249" target="_top" xlink:title=" ">
<polygon fill="white" stroke="#666666" points="631.75,-79.12 548.25,-79.12 548.25,-58.38 631.75,-58.38 631.75,-79.12"/>
<text text-anchor="middle" x="590" y="-65.62" font-family="Helvetica,sans-Serif" font-size="10.00">ImVector::end</text>
</a>
</g>
</g>
<!-- Node3&#45;&gt;Node4 -->
<g id="edge3_Node000003_Node000004" class="edge">
<title>Node3&#45;&gt;Node4</title>
<g id="a_edge3_Node000003_Node000004"><a xlink:title=" ">
<path fill="none" stroke="#63b8ff" d="M512.75,-68.75C520.59,-68.75 528.59,-68.75 536.31,-68.75"/>
<polygon fill="#63b8ff" stroke="#63b8ff" points="536.26,-72.25 546.26,-68.75 536.26,-65.25 536.26,-72.25"/>
</a>
</g>
</g>
</g>
</svg>
