<?xml version="1.0" encoding="UTF-8" standalone="no"?>
<!DOCTYPE svg PUBLIC "-//W3C//DTD SVG 1.1//EN"
 "http://www.w3.org/Graphics/SVG/1.1/DTD/svg11.dtd">
<!-- Generated by graphviz version 12.2.1 (20241206.2353)
 -->
<!-- Title: ImDrawList::AddCircleFilled Pages: 1 -->
<svg width="1103pt" height="156pt"
 viewBox="0.00 0.00 1103.00 156.12" xmlns="http://www.w3.org/2000/svg" xmlns:xlink="http://www.w3.org/1999/xlink">
<g id="graph0" class="graph" transform="scale(1 1) rotate(0) translate(4 152.12)">
<title>ImDrawList::AddCircleFilled</title>
<!-- Node1 -->
<g id="Node000001" class="node">
<title>Node1</title>
<g id="a_Node000001"><a xlink:title=" ">
<polygon fill="#999999" stroke="#666666" points="150.25,-110.12 0,-110.12 0,-89.38 150.25,-89.38 150.25,-110.12"/>
<text text-anchor="middle" x="75.12" y="-96.62" font-family="Helvetica,sans-Serif" font-size="10.00">ImDrawList::AddCircleFilled</text>
</a>
</g>
</g>
<!-- Node2 -->
<g id="Node000002" class="node">
<title>Node2</title>
<g id="a_Node000002"><a xlink:href="structImDrawList.html#ac25f3a7693ed13ba2dac455675be8654" target="_top" xlink:title=" ">
<polygon fill="white" stroke="#666666" points="533.25,-148.12 371.75,-148.12 371.75,-127.38 533.25,-127.38 533.25,-148.12"/>
<text text-anchor="middle" x="452.5" y="-134.62" font-family="Helvetica,sans-Serif" font-size="10.00">ImDrawList::_PathArcToFastEx</text>
</a>
</g>
</g>
<!-- Node1&#45;&gt;Node2 -->
<g id="edge1_Node000001_Node000002" class="edge">
<title>Node1&#45;&gt;Node2</title>
<g id="a_edge1_Node000001_Node000002"><a xlink:title=" ">
<path fill="none" stroke="#63b8ff" d="M132.56,-110.59C149.74,-113.6 168.72,-116.62 186.25,-118.75 243.88,-125.77 308.89,-130.48 360.12,-133.45"/>
<polygon fill="#63b8ff" stroke="#63b8ff" points="359.81,-136.94 369.99,-134.01 360.21,-129.95 359.81,-136.94"/>
</a>
</g>
</g>
<!-- Node4 -->
<g id="Node000004" class="node">
<title>Node4</title>
<g id="a_Node000004"><a xlink:href="structImDrawList.html#af86073403f1557cccb4ff45dfad0a74a" target="_top" xlink:title=" ">
<polygon fill="white" stroke="#666666" points="323.38,-110.12 198.62,-110.12 198.62,-89.38 323.38,-89.38 323.38,-110.12"/>
<text text-anchor="middle" x="261" y="-96.62" font-family="Helvetica,sans-Serif" font-size="10.00">ImDrawList::PathArcTo</text>
</a>
</g>
</g>
<!-- Node1&#45;&gt;Node4 -->
<g id="edge3_Node000001_Node000004" class="edge">
<title>Node1&#45;&gt;Node4</title>
<g id="a_edge3_Node000001_Node000004"><a xlink:title=" ">
<path fill="none" stroke="#63b8ff" d="M150.65,-99.75C162.64,-99.75 175.05,-99.75 187.01,-99.75"/>
<polygon fill="#63b8ff" stroke="#63b8ff" points="186.79,-103.25 196.79,-99.75 186.79,-96.25 186.79,-103.25"/>
</a>
</g>
</g>
<!-- Node6 -->
<g id="Node000006" class="node">
<title>Node6</title>
<g id="a_Node000006"><a xlink:href="structImDrawList.html#aea9301cb99ebf4b27f5d3959017567c9" target="_top" xlink:title=" ">
<polygon fill="white" stroke="#666666" points="335.75,-49.12 186.25,-49.12 186.25,-28.38 335.75,-28.38 335.75,-49.12"/>
<text text-anchor="middle" x="261" y="-35.62" font-family="Helvetica,sans-Serif" font-size="10.00">ImDrawList::PathFillConvex</text>
</a>
</g>
</g>
<!-- Node1&#45;&gt;Node6 -->
<g id="edge7_Node000001_Node000006" class="edge">
<title>Node1&#45;&gt;Node6</title>
<g id="a_edge7_Node000001_Node000006"><a xlink:title=" ">
<path fill="none" stroke="#63b8ff" d="M108.57,-88.98C138.59,-79.03 183.42,-64.16 216.52,-53.17"/>
<polygon fill="#63b8ff" stroke="#63b8ff" points="217.43,-56.56 225.82,-50.09 215.23,-49.92 217.43,-56.56"/>
</a>
</g>
</g>
<!-- Node3 -->
<g id="Node000003" class="node">
<title>Node3</title>
<g id="a_Node000003"><a xlink:href="structImDrawList.html#a52afa32aaab6d581cda90dc5d8726ed6" target="_top" xlink:title=" ">
<polygon fill="white" stroke="#666666" points="723.25,-135.5 569.25,-135.5 569.25,-102 723.25,-102 723.25,-135.5"/>
<text text-anchor="start" x="577.25" y="-122" font-family="Helvetica,sans-Serif" font-size="10.00">ImDrawList::_CalcCircleAuto</text>
<text text-anchor="middle" x="646.25" y="-109.25" font-family="Helvetica,sans-Serif" font-size="10.00">SegmentCount</text>
</a>
</g>
</g>
<!-- Node2&#45;&gt;Node3 -->
<g id="edge2_Node000002_Node000003" class="edge">
<title>Node2&#45;&gt;Node3</title>
<g id="a_edge2_Node000002_Node000003"><a xlink:title=" ">
<path fill="none" stroke="#63b8ff" d="M533.71,-129.8C541.66,-129.01 549.76,-128.21 557.78,-127.42"/>
<polygon fill="#63b8ff" stroke="#63b8ff" points="557.93,-130.92 567.54,-126.45 557.24,-123.95 557.93,-130.92"/>
</a>
</g>
</g>
<!-- Node4&#45;&gt;Node2 -->
<g id="edge5_Node000004_Node000002" class="edge">
<title>Node4&#45;&gt;Node2</title>
<g id="a_edge5_Node000004_Node000002"><a xlink:title=" ">
<path fill="none" stroke="#63b8ff" d="M316.05,-110.59C337.95,-114.98 363.44,-120.09 386.36,-124.69"/>
<polygon fill="#63b8ff" stroke="#63b8ff" points="385.4,-128.07 395.89,-126.6 386.78,-121.2 385.4,-128.07"/>
</a>
</g>
</g>
<!-- Node4&#45;&gt;Node3 -->
<g id="edge4_Node000004_Node000003" class="edge">
<title>Node4&#45;&gt;Node3</title>
<g id="a_edge4_Node000004_Node000003"><a xlink:title=" ">
<path fill="none" stroke="#63b8ff" d="M323.58,-102.8C386.94,-105.94 486.24,-110.87 557.75,-114.41"/>
<polygon fill="#63b8ff" stroke="#63b8ff" points="557.3,-117.89 567.46,-114.89 557.65,-110.9 557.3,-117.89"/>
</a>
</g>
</g>
<!-- Node5 -->
<g id="Node000005" class="node">
<title>Node5</title>
<g id="a_Node000005"><a xlink:href="structImDrawList.html#a855fcd28cd12b81975e8a61ea2e80e96" target="_top" xlink:title=" ">
<polygon fill="white" stroke="#666666" points="521.25,-72.12 383.75,-72.12 383.75,-51.38 521.25,-51.38 521.25,-72.12"/>
<text text-anchor="middle" x="452.5" y="-58.62" font-family="Helvetica,sans-Serif" font-size="10.00">ImDrawList::_PathArcToN</text>
</a>
</g>
</g>
<!-- Node4&#45;&gt;Node5 -->
<g id="edge6_Node000004_Node000005" class="edge">
<title>Node4&#45;&gt;Node5</title>
<g id="a_edge6_Node000004_Node000005"><a xlink:title=" ">
<path fill="none" stroke="#63b8ff" d="M316.05,-88.91C337.95,-84.52 363.44,-79.41 386.36,-74.81"/>
<polygon fill="#63b8ff" stroke="#63b8ff" points="386.78,-78.3 395.89,-72.9 385.4,-71.43 386.78,-78.3"/>
</a>
</g>
</g>
<!-- Node7 -->
<g id="Node000007" class="node">
<title>Node7</title>
<g id="a_Node000007"><a xlink:href="structImDrawList.html#ad2accc0a74845b08bd0e6fae6183d6d0" target="_top" xlink:title=" ">
<polygon fill="white" stroke="#666666" points="529.5,-33.5 375.5,-33.5 375.5,0 529.5,0 529.5,-33.5"/>
<text text-anchor="start" x="383.5" y="-20" font-family="Helvetica,sans-Serif" font-size="10.00">ImDrawList::AddConvexPoly</text>
<text text-anchor="middle" x="452.5" y="-7.25" font-family="Helvetica,sans-Serif" font-size="10.00">Filled</text>
</a>
</g>
</g>
<!-- Node6&#45;&gt;Node7 -->
<g id="edge8_Node000006_Node000007" class="edge">
<title>Node6&#45;&gt;Node7</title>
<g id="a_edge8_Node000006_Node000007"><a xlink:title=" ">
<path fill="none" stroke="#63b8ff" d="M336.08,-30.15C345.23,-29.09 354.65,-27.99 363.98,-26.91"/>
<polygon fill="#63b8ff" stroke="#63b8ff" points="364.25,-30.4 373.78,-25.77 363.45,-23.45 364.25,-30.4"/>
</a>
</g>
</g>
<!-- Node8 -->
<g id="Node000008" class="node">
<title>Node8</title>
<g id="a_Node000008"><a xlink:href="structImDrawList.html#a879aa38dbfb0344e3e023d65c002c7d7" target="_top" xlink:title=" ">
<polygon fill="white" stroke="#666666" points="716.12,-27.12 576.38,-27.12 576.38,-6.38 716.12,-6.38 716.12,-27.12"/>
<text text-anchor="middle" x="646.25" y="-13.62" font-family="Helvetica,sans-Serif" font-size="10.00">ImDrawList::PrimReserve</text>
</a>
</g>
</g>
<!-- Node7&#45;&gt;Node8 -->
<g id="edge9_Node000007_Node000008" class="edge">
<title>Node7&#45;&gt;Node8</title>
<g id="a_edge9_Node000007_Node000008"><a xlink:title=" ">
<path fill="none" stroke="#63b8ff" d="M529.84,-16.75C541.27,-16.75 553.1,-16.75 564.62,-16.75"/>
<polygon fill="#63b8ff" stroke="#63b8ff" points="564.5,-20.25 574.5,-16.75 564.5,-13.25 564.5,-20.25"/>
</a>
</g>
</g>
<!-- Node9 -->
<g id="Node000009" class="node">
<title>Node9</title>
<g id="a_Node000009"><a xlink:href="structImDrawList.html#a7f2e315f147acd8b555d86d1557659cc" target="_top" xlink:title=" ">
<polygon fill="white" stroke="#666666" points="914.75,-33.5 759.25,-33.5 759.25,0 914.75,0 914.75,-33.5"/>
<text text-anchor="start" x="767.25" y="-20" font-family="Helvetica,sans-Serif" font-size="10.00">ImDrawList::_OnChangedVtx</text>
<text text-anchor="middle" x="837" y="-7.25" font-family="Helvetica,sans-Serif" font-size="10.00">Offset</text>
</a>
</g>
</g>
<!-- Node8&#45;&gt;Node9 -->
<g id="edge10_Node000008_Node000009" class="edge">
<title>Node8&#45;&gt;Node9</title>
<g id="a_edge10_Node000008_Node000009"><a xlink:title=" ">
<path fill="none" stroke="#63b8ff" d="M716.46,-16.75C726.58,-16.75 737.12,-16.75 747.56,-16.75"/>
<polygon fill="#63b8ff" stroke="#63b8ff" points="747.32,-20.25 757.32,-16.75 747.32,-13.25 747.32,-20.25"/>
</a>
</g>
</g>
<!-- Node10 -->
<g id="Node000010" class="node">
<title>Node10</title>
<g id="a_Node000010"><a xlink:href="structImDrawList.html#a846714bb0321c6f1f908767abc8559e6" target="_top" xlink:title=" ">
<polygon fill="white" stroke="#666666" points="1095,-27.12 950.75,-27.12 950.75,-6.38 1095,-6.38 1095,-27.12"/>
<text text-anchor="middle" x="1022.88" y="-13.62" font-family="Helvetica,sans-Serif" font-size="10.00">ImDrawList::AddDrawCmd</text>
</a>
</g>
</g>
<!-- Node9&#45;&gt;Node10 -->
<g id="edge11_Node000009_Node000010" class="edge">
<title>Node9&#45;&gt;Node10</title>
<g id="a_edge11_Node000009_Node000010"><a xlink:title=" ">
<path fill="none" stroke="#63b8ff" d="M915.18,-16.75C923.04,-16.75 931.04,-16.75 938.96,-16.75"/>
<polygon fill="#63b8ff" stroke="#63b8ff" points="938.95,-20.25 948.95,-16.75 938.95,-13.25 938.95,-20.25"/>
</a>
</g>
</g>
</g>
</svg>
