<?xml version="1.0" encoding="UTF-8" standalone="no"?>
<!DOCTYPE svg PUBLIC "-//W3C//DTD SVG 1.1//EN"
 "http://www.w3.org/Graphics/SVG/1.1/DTD/svg11.dtd">
<!-- Generated by graphviz version 12.2.0 (20241103.1931)
 -->
<!-- Title: ImGuiStorage::GetVoidPtrRef Pages: 1 -->
<svg width="472pt" height="87pt"
 viewBox="0.00 0.00 471.50 86.75" xmlns="http://www.w3.org/2000/svg" xmlns:xlink="http://www.w3.org/1999/xlink">

<svg id="main" version="1.1" xmlns="http://www.w3.org/2000/svg" xmlns:xlink="http://www.w3.org/1999/xlink" xml:space="preserve">

<style type="text/css"><![CDATA[
.node, .edge {opacity: 0.7;}
.node.selected, .edge.selected {opacity: 1;}
.edge:hover path { stroke: red; }
.edge:hover polygon { stroke: red; fill: red; }
]]></style>
<script type="application/ecmascript" xlink:href="svg.min.js"/>
<svg id="graph" class="graph">
<g id="graph0" class="graph" transform="scale(1 1) rotate(0) translate(4 82.75)">
<title>ImGuiStorage::GetVoidPtrRef</title>
<!-- Node1 -->
<g id="Node000001" class="node">
<title>Node1</title>
<g id="a_Node000001"><a xlink:title=" ">
<polygon fill="#999999" stroke="#666666" points="157,-58.75 0,-58.75 0,-38 157,-38 157,-58.75"/>
<text text-anchor="middle" x="78.5" y="-45.25" font-family="Helvetica,sans-Serif" font-size="10.00">ImGuiStorage::GetVoidPtrRef</text>
</a>
</g>
</g>
<!-- Node2 -->
<g id="Node000002" class="node">
<title>Node2</title>
<g id="a_Node000002"><a xlink:href="structImVector.html#a278ca772697b2b2139d3b8add336a249" target="_top" xlink:title=" ">
<polygon fill="white" stroke="#666666" points="281.38,-78.75 197.88,-78.75 197.88,-58 281.38,-58 281.38,-78.75"/>
<text text-anchor="middle" x="239.62" y="-65.25" font-family="Helvetica,sans-Serif" font-size="10.00">ImVector::end</text>
</a>
</g>
</g>
<!-- Node1&#45;&gt;Node2 -->
<g id="edge1_Node000001_Node000002" class="edge">
<title>Node1&#45;&gt;Node2</title>
<g id="a_edge1_Node000001_Node000002"><a xlink:title=" ">
<path fill="none" stroke="#63b8ff" d="M157.2,-58.14C166.96,-59.37 176.76,-60.6 186.01,-61.76"/>
<polygon fill="#63b8ff" stroke="#63b8ff" points="185.53,-65.23 195.89,-63 186.4,-58.28 185.53,-65.23"/>
</a>
</g>
</g>
<!-- Node3 -->
<g id="Node000003" class="node">
<title>Node3</title>
<g id="a_Node000003"><a xlink:href="structImVector.html#a541c8cd4b844f5276f10d160cb500533" target="_top" xlink:title=" ">
<polygon fill="white" stroke="#666666" points="286.25,-39.75 193,-39.75 193,-19 286.25,-19 286.25,-39.75"/>
<text text-anchor="middle" x="239.62" y="-26.25" font-family="Helvetica,sans-Serif" font-size="10.00">ImVector::insert</text>
</a>
</g>
</g>
<!-- Node1&#45;&gt;Node3 -->
<g id="edge2_Node000001_Node000003" class="edge">
<title>Node1&#45;&gt;Node3</title>
<g id="a_edge2_Node000001_Node000003"><a xlink:title=" ">
<path fill="none" stroke="#63b8ff" d="M157.2,-39.1C165.36,-38.12 173.55,-37.15 181.42,-36.21"/>
<polygon fill="#63b8ff" stroke="#63b8ff" points="181.67,-39.7 191.18,-35.04 180.84,-32.75 181.67,-39.7"/>
</a>
</g>
</g>
<!-- Node4 -->
<g id="Node000004" class="node">
<title>Node4</title>
<g id="a_Node000004"><a xlink:href="structImVector.html#a3a097635d464b1b70dc7d59996a88b28" target="_top" xlink:title=" ">
<polygon fill="white" stroke="#666666" points="463.5,-59.75 322.25,-59.75 322.25,-39 463.5,-39 463.5,-59.75"/>
<text text-anchor="middle" x="392.88" y="-46.25" font-family="Helvetica,sans-Serif" font-size="10.00">ImVector::_grow_capacity</text>
</a>
</g>
</g>
<!-- Node3&#45;&gt;Node4 -->
<g id="edge3_Node000003_Node000004" class="edge">
<title>Node3&#45;&gt;Node4</title>
<g id="a_edge3_Node000003_Node000004"><a xlink:title=" ">
<path fill="none" stroke="#63b8ff" d="M286.42,-35.43C294.13,-36.45 302.33,-37.53 310.63,-38.63"/>
<polygon fill="#63b8ff" stroke="#63b8ff" points="310.08,-42.09 320.45,-39.93 311,-35.15 310.08,-42.09"/>
</a>
</g>
</g>
<!-- Node5 -->
<g id="Node000005" class="node">
<title>Node5</title>
<g id="a_Node000005"><a xlink:href="structImVector.html#a0f14f5736c3372157856eebb67123b75" target="_top" xlink:title=" ">
<polygon fill="white" stroke="#666666" points="444,-20.75 341.75,-20.75 341.75,0 444,0 444,-20.75"/>
<text text-anchor="middle" x="392.88" y="-7.25" font-family="Helvetica,sans-Serif" font-size="10.00">ImVector::reserve</text>
</a>
</g>
</g>
<!-- Node3&#45;&gt;Node5 -->
<g id="edge4_Node000003_Node000005" class="edge">
<title>Node3&#45;&gt;Node5</title>
<g id="a_edge4_Node000003_Node000005"><a xlink:title=" ">
<path fill="none" stroke="#63b8ff" d="M286.42,-23.62C300.27,-21.88 315.72,-19.94 330.43,-18.09"/>
<polygon fill="#63b8ff" stroke="#63b8ff" points="330.5,-21.61 339.99,-16.89 329.63,-14.67 330.5,-21.61"/>
</a>
</g>
</g>
</g>
</svg>
</svg>

<style type='text/css'>
<![CDATA[
[data-mouse-over-selected='false'] { opacity: 0.7; }
[data-mouse-over-selected='true']  { opacity: 1.0; }
]]>
</style>
<script type="application/ecmascript"><![CDATA[
document.addEventListener('DOMContentLoaded', (event) => {
  highlightEdges();
  highlightAdjacentNodes();
});
]]></script>
</svg>
