<?xml version="1.0" encoding="UTF-8" standalone="no"?>
<!DOCTYPE svg PUBLIC "-//W3C//DTD SVG 1.1//EN"
 "http://www.w3.org/Graphics/SVG/1.1/DTD/svg11.dtd">
<!-- Generated by graphviz version 12.2.1 (20241206.2353)
 -->
<!-- Title: ExampleAppConsole::ClearLog Pages: 1 -->
<svg width="634pt" height="158pt"
 viewBox="0.00 0.00 633.75 158.19" xmlns="http://www.w3.org/2000/svg" xmlns:xlink="http://www.w3.org/1999/xlink">
<g id="graph0" class="graph" transform="scale(1 1) rotate(0) translate(4 154.19)">
<title>ExampleAppConsole::ClearLog</title>
<!-- Node1 -->
<g id="Node000001" class="node">
<title>Node1</title>
<g id="a_Node000001"><a xlink:title=" ">
<polygon fill="#999999" stroke="#666666" points="625.75,-100.5 503.25,-100.5 503.25,-67 625.75,-67 625.75,-100.5"/>
<text text-anchor="start" x="511.25" y="-87" font-family="Helvetica,sans-Serif" font-size="10.00">ExampleAppConsole::</text>
<text text-anchor="middle" x="564.5" y="-74.25" font-family="Helvetica,sans-Serif" font-size="10.00">ClearLog</text>
</a>
</g>
</g>
<!-- Node2 -->
<g id="Node000002" class="node">
<title>Node2</title>
<g id="a_Node000002"><a xlink:href="structExampleAppConsole.html#a0518a09c7e8648dd52c7c06df19ac17a" target="_top" xlink:title=" ">
<polygon fill="white" stroke="#666666" points="148,-117.12 0,-117.12 0,-96.38 148,-96.38 148,-117.12"/>
<text text-anchor="middle" x="74" y="-103.62" font-family="Helvetica,sans-Serif" font-size="10.00">ExampleAppConsole::Draw</text>
</a>
</g>
</g>
<!-- Node1&#45;&gt;Node2 -->
<g id="edge1_Node000001_Node000002" class="edge">
<title>Node1&#45;&gt;Node2</title>
<g id="a_edge1_Node000001_Node000002"><a xlink:title=" ">
<path fill="none" stroke="#63b8ff" d="M528.44,-106.65C510.85,-116.8 488.74,-127.59 467.25,-132.75 344.83,-162.12 309.03,-147.46 184,-132.75 159.27,-129.84 132.02,-123.34 110.95,-117.57"/>
<polygon fill="#63b8ff" stroke="#63b8ff" points="530.15,-109.7 536.95,-101.57 526.57,-103.69 530.15,-109.7"/>
</a>
</g>
</g>
<!-- Node3 -->
<g id="Node000003" class="node">
<title>Node3</title>
<g id="a_Node000003"><a xlink:href="structExampleAppConsole.html#a405521e6aa8f97954b67315baf8d6147" target="_top" xlink:title=" ">
<polygon fill="white" stroke="#666666" points="466.12,-123.5 343.62,-123.5 343.62,-90 466.12,-90 466.12,-123.5"/>
<text text-anchor="start" x="351.62" y="-110" font-family="Helvetica,sans-Serif" font-size="10.00">ExampleAppConsole::</text>
<text text-anchor="middle" x="404.88" y="-97.25" font-family="Helvetica,sans-Serif" font-size="10.00">ExampleAppConsole</text>
</a>
</g>
</g>
<!-- Node1&#45;&gt;Node3 -->
<g id="edge2_Node000001_Node000003" class="edge">
<title>Node1&#45;&gt;Node3</title>
<g id="a_edge2_Node000001_Node000003"><a xlink:title=" ">
<path fill="none" stroke="#63b8ff" d="M491.64,-94.24C483.22,-95.46 474.7,-96.71 466.46,-97.91"/>
<polygon fill="#63b8ff" stroke="#63b8ff" points="492.12,-97.7 501.51,-92.8 491.11,-90.78 492.12,-97.7"/>
</a>
</g>
</g>
<!-- Node5 -->
<g id="Node000005" class="node">
<title>Node5</title>
<g id="a_Node000005"><a xlink:href="structExampleAppConsole.html#aa1e8bf1f3795cbc41597e1ff081c6589" target="_top" xlink:title=" ">
<polygon fill="white" stroke="#666666" points="306.5,-71.5 184,-71.5 184,-38 306.5,-38 306.5,-71.5"/>
<text text-anchor="start" x="192" y="-58" font-family="Helvetica,sans-Serif" font-size="10.00">ExampleAppConsole::</text>
<text text-anchor="middle" x="245.25" y="-45.25" font-family="Helvetica,sans-Serif" font-size="10.00">ExecCommand</text>
</a>
</g>
</g>
<!-- Node1&#45;&gt;Node5 -->
<g id="edge5_Node000001_Node000005" class="edge">
<title>Node1&#45;&gt;Node5</title>
<g id="a_edge5_Node000001_Node000005"><a xlink:title=" ">
<path fill="none" stroke="#63b8ff" d="M491.88,-77.2C436.16,-72.11 359.72,-65.12 306.98,-60.3"/>
<polygon fill="#63b8ff" stroke="#63b8ff" points="491.3,-80.66 501.57,-78.09 491.93,-73.69 491.3,-80.66"/>
</a>
</g>
</g>
<!-- Node6 -->
<g id="Node000006" class="node">
<title>Node6</title>
<g id="a_Node000006"><a xlink:href="structExampleAppConsole.html#a91ef200056f867cf97a57db91bb991c4" target="_top" xlink:title=" ">
<polygon fill="white" stroke="#666666" points="467.25,-33.5 342.5,-33.5 342.5,0 467.25,0 467.25,-33.5"/>
<text text-anchor="start" x="350.5" y="-20" font-family="Helvetica,sans-Serif" font-size="10.00">ExampleAppConsole::</text>
<text text-anchor="middle" x="404.88" y="-7.25" font-family="Helvetica,sans-Serif" font-size="10.00">~ExampleAppConsole</text>
</a>
</g>
</g>
<!-- Node1&#45;&gt;Node6 -->
<g id="edge7_Node000001_Node000006" class="edge">
<title>Node1&#45;&gt;Node6</title>
<g id="a_edge7_Node000001_Node000006"><a xlink:title=" ">
<path fill="none" stroke="#63b8ff" d="M512.73,-62.17C491.21,-53.02 466.5,-42.52 446.26,-33.92"/>
<polygon fill="#63b8ff" stroke="#63b8ff" points="511.35,-65.39 521.92,-66.08 514.09,-58.94 511.35,-65.39"/>
</a>
</g>
</g>
<!-- Node4 -->
<g id="Node000004" class="node">
<title>Node4</title>
<g id="a_Node000004"><a xlink:href="structExampleAppConsole.html#a394debe3cbf3cfd93b9bfd2835a4fdec" target="_top" xlink:title=" ">
<polygon fill="white" stroke="#666666" points="306.5,-123.5 184,-123.5 184,-90 306.5,-90 306.5,-123.5"/>
<text text-anchor="start" x="192" y="-110" font-family="Helvetica,sans-Serif" font-size="10.00">ExampleAppConsole::</text>
<text text-anchor="middle" x="245.25" y="-97.25" font-family="Helvetica,sans-Serif" font-size="10.00">TextEditCallbackStub</text>
</a>
</g>
</g>
<!-- Node3&#45;&gt;Node4 -->
<g id="edge3_Node000003_Node000004" class="edge">
<title>Node3&#45;&gt;Node4</title>
<g id="a_edge3_Node000003_Node000004"><a xlink:title=" ">
<path fill="none" stroke="#63b8ff" d="M332.01,-106.75C323.6,-106.75 315.08,-106.75 306.84,-106.75"/>
<polygon fill="#63b8ff" stroke="#63b8ff" points="331.87,-110.25 341.87,-106.75 331.87,-103.25 331.87,-110.25"/>
</a>
</g>
</g>
<!-- Node4&#45;&gt;Node2 -->
<g id="edge4_Node000004_Node000002" class="edge">
<title>Node4&#45;&gt;Node2</title>
<g id="a_edge4_Node000004_Node000002"><a xlink:title=" ">
<path fill="none" stroke="#63b8ff" d="M172.15,-106.75C164.23,-106.75 156.15,-106.75 148.21,-106.75"/>
<polygon fill="#63b8ff" stroke="#63b8ff" points="172.11,-110.25 182.11,-106.75 172.11,-103.25 172.11,-110.25"/>
</a>
</g>
</g>
<!-- Node5&#45;&gt;Node2 -->
<g id="edge6_Node000005_Node000002" class="edge">
<title>Node5&#45;&gt;Node2</title>
<g id="a_edge6_Node000005_Node000002"><a xlink:title=" ">
<path fill="none" stroke="#63b8ff" d="M177.62,-75.22C154.66,-82.28 129.85,-89.9 110.37,-95.88"/>
<polygon fill="#63b8ff" stroke="#63b8ff" points="178.38,-78.65 186.92,-72.37 176.33,-71.96 178.38,-78.65"/>
</a>
</g>
</g>
</g>
</svg>
