<?xml version="1.0" encoding="UTF-8" standalone="no"?>
<!DOCTYPE svg PUBLIC "-//W3C//DTD SVG 1.1//EN"
 "http://www.w3.org/Graphics/SVG/1.1/DTD/svg11.dtd">
<!-- Generated by graphviz version 12.0.0 (20240704.0754)
 -->
<!-- Title: ImDrawList::PopTextureID Pages: 1 -->
<svg width="882pt" height="88pt"
 viewBox="0.00 0.00 882.25 87.75" xmlns="http://www.w3.org/2000/svg" xmlns:xlink="http://www.w3.org/1999/xlink">
<g id="graph0" class="graph" transform="scale(1 1) rotate(0) translate(4 83.75)">
<title>ImDrawList::PopTextureID</title>
<!-- Node1 -->
<g id="Node000001" class="node">
<title>Node1</title>
<g id="a_Node000001"><a xlink:title=" ">
<polygon fill="#999999" stroke="#666666" points="142,-39.75 0,-39.75 0,-19 142,-19 142,-39.75"/>
<text text-anchor="middle" x="71" y="-26.25" font-family="Helvetica,sans-Serif" font-size="10.00">ImDrawList::PopTextureID</text>
</a>
</g>
</g>
<!-- Node2 -->
<g id="Node000002" class="node">
<title>Node2</title>
<g id="a_Node000002"><a xlink:href="structImDrawList.html#a7c14ae666a0df75214ecb97cdb9bd8f4" target="_top" xlink:title=" ">
<polygon fill="white" stroke="#666666" points="363.5,-58.75 178,-58.75 178,-38 363.5,-38 363.5,-58.75"/>
<text text-anchor="middle" x="270.75" y="-45.25" font-family="Helvetica,sans-Serif" font-size="10.00">ImDrawList::_OnChangedTextureID</text>
</a>
</g>
</g>
<!-- Node1&#45;&gt;Node2 -->
<g id="edge1_Node000001_Node000002" class="edge">
<title>Node1&#45;&gt;Node2</title>
<g id="a_edge1_Node000001_Node000002"><a xlink:title=" ">
<path fill="none" stroke="#63b8ff" d="M142.28,-36.13C150.05,-36.87 158.08,-37.65 166.15,-38.42"/>
<polygon fill="#63b8ff" stroke="#63b8ff" points="165.77,-41.9 176.06,-39.37 166.44,-34.93 165.77,-41.9"/>
</a>
</g>
</g>
<!-- Node7 -->
<g id="Node000007" class="node">
<title>Node7</title>
<g id="a_Node000007"><a xlink:href="structImVector.html#a3db7ce62d3c429effdb893fbf7148c1c" target="_top" xlink:title=" ">
<polygon fill="white" stroke="#666666" points="527.62,-20.75 415.62,-20.75 415.62,0 527.62,0 527.62,-20.75"/>
<text text-anchor="middle" x="471.62" y="-7.25" font-family="Helvetica,sans-Serif" font-size="10.00">ImVector::pop_back</text>
</a>
</g>
</g>
<!-- Node1&#45;&gt;Node7 -->
<g id="edge7_Node000001_Node000007" class="edge">
<title>Node1&#45;&gt;Node7</title>
<g id="a_edge7_Node000001_Node000007"><a xlink:title=" ">
<path fill="none" stroke="#63b8ff" d="M142.35,-26.02C216.29,-22.5 331.72,-17 404.16,-13.54"/>
<polygon fill="#63b8ff" stroke="#63b8ff" points="404.07,-17.05 413.89,-13.08 403.74,-10.06 404.07,-17.05"/>
</a>
</g>
</g>
<!-- Node3 -->
<g id="Node000003" class="node">
<title>Node3</title>
<g id="a_Node000003"><a xlink:href="structImDrawList.html#a846714bb0321c6f1f908767abc8559e6" target="_top" xlink:title=" ">
<polygon fill="white" stroke="#666666" points="543.75,-59.75 399.5,-59.75 399.5,-39 543.75,-39 543.75,-59.75"/>
<text text-anchor="middle" x="471.62" y="-46.25" font-family="Helvetica,sans-Serif" font-size="10.00">ImDrawList::AddDrawCmd</text>
</a>
</g>
</g>
<!-- Node2&#45;&gt;Node3 -->
<g id="edge2_Node000002_Node000003" class="edge">
<title>Node2&#45;&gt;Node3</title>
<g id="a_edge2_Node000002_Node000003"><a xlink:title=" ">
<path fill="none" stroke="#63b8ff" d="M363.91,-48.84C371.83,-48.88 379.81,-48.92 387.65,-48.96"/>
<polygon fill="#63b8ff" stroke="#63b8ff" points="387.48,-52.46 397.5,-49.01 387.52,-45.46 387.48,-52.46"/>
</a>
</g>
</g>
<!-- Node2&#45;&gt;Node7 -->
<g id="edge6_Node000002_Node000007" class="edge">
<title>Node2&#45;&gt;Node7</title>
<g id="a_edge6_Node000002_Node000007"><a xlink:title=" ">
<path fill="none" stroke="#63b8ff" d="M328.47,-37.54C352.07,-33.03 379.63,-27.76 404.16,-23.07"/>
<polygon fill="#63b8ff" stroke="#63b8ff" points="404.55,-26.56 413.71,-21.25 403.23,-19.69 404.55,-26.56"/>
</a>
</g>
</g>
<!-- Node4 -->
<g id="Node000004" class="node">
<title>Node4</title>
<g id="a_Node000004"><a xlink:href="structImVector.html#aab5df48e0711a48bd12f3206e08c4108" target="_top" xlink:title=" ">
<polygon fill="white" stroke="#666666" points="697,-59.75 579.75,-59.75 579.75,-39 697,-39 697,-59.75"/>
<text text-anchor="middle" x="638.38" y="-46.25" font-family="Helvetica,sans-Serif" font-size="10.00">ImVector::push_back</text>
</a>
</g>
</g>
<!-- Node3&#45;&gt;Node4 -->
<g id="edge3_Node000003_Node000004" class="edge">
<title>Node3&#45;&gt;Node4</title>
<g id="a_edge3_Node000003_Node000004"><a xlink:title=" ">
<path fill="none" stroke="#63b8ff" d="M543.93,-49.38C551.87,-49.38 559.96,-49.38 567.88,-49.38"/>
<polygon fill="#63b8ff" stroke="#63b8ff" points="567.83,-52.88 577.83,-49.38 567.83,-45.88 567.83,-52.88"/>
</a>
</g>
</g>
<!-- Node5 -->
<g id="Node000005" class="node">
<title>Node5</title>
<g id="a_Node000005"><a xlink:href="structImVector.html#a3a097635d464b1b70dc7d59996a88b28" target="_top" xlink:title=" ">
<polygon fill="white" stroke="#666666" points="874.25,-79.75 733,-79.75 733,-59 874.25,-59 874.25,-79.75"/>
<text text-anchor="middle" x="803.62" y="-66.25" font-family="Helvetica,sans-Serif" font-size="10.00">ImVector::_grow_capacity</text>
</a>
</g>
</g>
<!-- Node4&#45;&gt;Node5 -->
<g id="edge4_Node000004_Node000005" class="edge">
<title>Node4&#45;&gt;Node5</title>
<g id="a_edge4_Node000004_Node000005"><a xlink:title=" ">
<path fill="none" stroke="#63b8ff" d="M697.39,-56.48C705.18,-57.44 713.28,-58.43 721.37,-59.42"/>
<polygon fill="#63b8ff" stroke="#63b8ff" points="720.93,-62.89 731.28,-60.63 721.78,-55.94 720.93,-62.89"/>
</a>
</g>
</g>
<!-- Node6 -->
<g id="Node000006" class="node">
<title>Node6</title>
<g id="a_Node000006"><a xlink:href="structImVector.html#a0f14f5736c3372157856eebb67123b75" target="_top" xlink:title=" ">
<polygon fill="white" stroke="#666666" points="854.75,-40.75 752.5,-40.75 752.5,-20 854.75,-20 854.75,-40.75"/>
<text text-anchor="middle" x="803.62" y="-27.25" font-family="Helvetica,sans-Serif" font-size="10.00">ImVector::reserve</text>
</a>
</g>
</g>
<!-- Node4&#45;&gt;Node6 -->
<g id="edge5_Node000004_Node000006" class="edge">
<title>Node4&#45;&gt;Node6</title>
<g id="a_edge5_Node000004_Node000006"><a xlink:title=" ">
<path fill="none" stroke="#63b8ff" d="M697.39,-42.62C711.49,-40.98 726.62,-39.22 740.89,-37.56"/>
<polygon fill="#63b8ff" stroke="#63b8ff" points="741.08,-41.06 750.61,-36.43 740.27,-34.11 741.08,-41.06"/>
</a>
</g>
</g>
</g>
</svg>
