<?xml version="1.0" encoding="UTF-8" standalone="no"?>
<!DOCTYPE svg PUBLIC "-//W3C//DTD SVG 1.1//EN"
 "http://www.w3.org/Graphics/SVG/1.1/DTD/svg11.dtd">
<!-- Generated by graphviz version 12.2.0 (20241103.1931)
 -->
<!-- Title: ImTriangulatorNode Pages: 1 -->
<svg width="164pt" height="103pt"
 viewBox="0.00 0.00 164.25 103.00" xmlns="http://www.w3.org/2000/svg" xmlns:xlink="http://www.w3.org/1999/xlink">
<g id="graph0" class="graph" transform="scale(1 1) rotate(0) translate(4 99)">
<title>ImTriangulatorNode</title>
<!-- Node1 -->
<g id="Node000001" class="node">
<title>Node1</title>
<g id="a_Node000001"><a xlink:title=" ">
<polygon fill="#999999" stroke="#666666" points="112,-23.12 0,-23.12 0,-2.38 112,-2.38 112,-23.12"/>
<text text-anchor="middle" x="56" y="-9.62" font-family="Helvetica,sans-Serif" font-size="10.00">ImTriangulatorNode</text>
</a>
</g>
</g>
<!-- Node1&#45;&gt;Node1 -->
<g id="edge2_Node000001_Node000001" class="edge">
<title>Node1&#45;&gt;Node1</title>
<g id="a_edge2_Node000001_Node000001"><a xlink:title=" ">
<path fill="none" stroke="#9a32cd" stroke-dasharray="5,2" d="M123.55,-17.55C127.58,-16.4 130,-14.8 130,-12.75 130,-9.2 122.77,-7 112.46,-6.17"/>
<polygon fill="#9a32cd" stroke="#9a32cd" points="123.28,-14.05 113.96,-19.09 124.39,-20.96 123.28,-14.05"/>
</a>
</g>
<text text-anchor="middle" x="143.12" y="-16" font-family="Helvetica,sans-Serif" font-size="10.00" fill="grey"> Next</text>
<text text-anchor="middle" x="143.12" y="-3.25" font-family="Helvetica,sans-Serif" font-size="10.00" fill="grey">Prev</text>
</g>
<!-- Node2 -->
<g id="Node000002" class="node">
<title>Node2</title>
<g id="a_Node000002"><a xlink:href="structImVec2.html" target="_top" xlink:title=" ">
<polygon fill="white" stroke="#666666" points="82,-95 30,-95 30,-74.25 82,-74.25 82,-95"/>
<text text-anchor="middle" x="56" y="-81.5" font-family="Helvetica,sans-Serif" font-size="10.00">ImVec2</text>
</a>
</g>
</g>
<!-- Node2&#45;&gt;Node1 -->
<g id="edge1_Node000001_Node000002" class="edge">
<title>Node2&#45;&gt;Node1</title>
<g id="a_edge1_Node000001_Node000002"><a xlink:title=" ">
<path fill="none" stroke="#9a32cd" stroke-dasharray="5,2" d="M56,-62.66C56,-49.62 56,-33.47 56,-23.38"/>
<polygon fill="#9a32cd" stroke="#9a32cd" points="52.5,-62.4 56,-72.4 59.5,-62.4 52.5,-62.4"/>
</a>
</g>
<text text-anchor="middle" x="66.12" y="-46.75" font-family="Helvetica,sans-Serif" font-size="10.00" fill="grey"> Pos</text>
</g>
</g>
</svg>
