<?xml version="1.0" encoding="UTF-8" standalone="no"?>
<!DOCTYPE svg PUBLIC "-//W3C//DTD SVG 1.1//EN"
 "http://www.w3.org/Graphics/SVG/1.1/DTD/svg11.dtd">
<!-- Generated by graphviz version 12.0.0 (20240704.0754)
 -->
<!-- Title: ImVector::begin Pages: 1 -->
<svg width="1242pt" height="230pt"
 viewBox="0.00 0.00 1242.00 230.12" xmlns="http://www.w3.org/2000/svg" xmlns:xlink="http://www.w3.org/1999/xlink">
<g id="graph0" class="graph" transform="scale(1 1) rotate(0) translate(4 226.12)">
<title>ImVector::begin</title>
<!-- Node1 -->
<g id="Node000001" class="node">
<title>Node1</title>
<g id="a_Node000001"><a xlink:title=" ">
<polygon fill="#999999" stroke="#666666" points="1234,-136.12 1141.5,-136.12 1141.5,-115.38 1234,-115.38 1234,-136.12"/>
<text text-anchor="middle" x="1187.75" y="-122.62" font-family="Helvetica,sans-Serif" font-size="10.00">ImVector::begin</text>
</a>
</g>
</g>
<!-- Node2 -->
<g id="Node000002" class="node">
<title>Node2</title>
<g id="a_Node000002"><a xlink:href="namespaceImGui.html#af7b5e35566da44ac1ea8a7e1b9d9d574" target="_top" xlink:title=" ">
<polygon fill="white" stroke="#666666" points="1105.5,-171.12 954.5,-171.12 954.5,-150.38 1105.5,-150.38 1105.5,-171.12"/>
<text text-anchor="middle" x="1030" y="-157.62" font-family="Helvetica,sans-Serif" font-size="10.00">ImGui::DebugNodeDrawList</text>
</a>
</g>
</g>
<!-- Node1&#45;&gt;Node2 -->
<g id="edge1_Node000001_Node000002" class="edge">
<title>Node1&#45;&gt;Node2</title>
<g id="a_edge1_Node000001_Node000002"><a xlink:title=" ">
<path fill="none" stroke="#63b8ff" d="M1130.5,-138.39C1113.71,-142.16 1095.47,-146.26 1079.24,-149.91"/>
<polygon fill="#63b8ff" stroke="#63b8ff" points="1130.82,-141.91 1139.81,-136.3 1129.28,-135.08 1130.82,-141.91"/>
</a>
</g>
</g>
<!-- Node10 -->
<g id="Node000010" class="node">
<title>Node10</title>
<g id="a_Node000010"><a xlink:href="structExampleAppConsole.html#aa1e8bf1f3795cbc41597e1ff081c6589" target="_top" xlink:title=" ">
<polygon fill="white" stroke="#666666" points="1091.25,-120.5 968.75,-120.5 968.75,-87 1091.25,-87 1091.25,-120.5"/>
<text text-anchor="start" x="976.75" y="-107" font-family="Helvetica,sans-Serif" font-size="10.00">ExampleAppConsole::</text>
<text text-anchor="middle" x="1030" y="-94.25" font-family="Helvetica,sans-Serif" font-size="10.00">ExecCommand</text>
</a>
</g>
</g>
<!-- Node1&#45;&gt;Node10 -->
<g id="edge19_Node000001_Node000010" class="edge">
<title>Node1&#45;&gt;Node10</title>
<g id="a_edge19_Node000001_Node000010"><a xlink:title=" ">
<path fill="none" stroke="#63b8ff" d="M1130.06,-117.74C1117.55,-115.97 1104.25,-114.1 1091.59,-112.31"/>
<polygon fill="#63b8ff" stroke="#63b8ff" points="1129.39,-121.18 1139.78,-119.12 1130.37,-114.25 1129.39,-121.18"/>
</a>
</g>
</g>
<!-- Node3 -->
<g id="Node000003" class="node">
<title>Node3</title>
<g id="a_Node000003"><a xlink:href="namespaceImGui.html#aa5e5f50f28c04a26264c0943c7281171" target="_top" xlink:title=" ">
<polygon fill="white" stroke="#666666" points="525.38,-222.12 373.62,-222.12 373.62,-201.38 525.38,-201.38 525.38,-222.12"/>
<text text-anchor="middle" x="449.5" y="-208.62" font-family="Helvetica,sans-Serif" font-size="10.00">ImGui::DebugNodeViewport</text>
</a>
</g>
</g>
<!-- Node2&#45;&gt;Node3 -->
<g id="edge2_Node000002_Node000003" class="edge">
<title>Node2&#45;&gt;Node3</title>
<g id="a_edge2_Node000002_Node000003"><a xlink:title=" ">
<path fill="none" stroke="#63b8ff" d="M981.3,-174.49C961.96,-179.51 939.33,-184.7 918.5,-187.75 780.85,-207.91 618.28,-211.85 525.5,-212.24"/>
<polygon fill="#63b8ff" stroke="#63b8ff" points="982.03,-177.92 990.79,-171.96 980.23,-171.15 982.03,-177.92"/>
</a>
</g>
</g>
<!-- Node4 -->
<g id="Node000004" class="node">
<title>Node4</title>
<g id="a_Node000004"><a xlink:href="namespaceImGui.html#afe7a28c6eb52fff3cc27d5a698fea4ff" target="_top" xlink:title=" ">
<polygon fill="white" stroke="#666666" points="334.25,-128.12 181.75,-128.12 181.75,-107.38 334.25,-107.38 334.25,-128.12"/>
<text text-anchor="middle" x="258" y="-114.62" font-family="Helvetica,sans-Serif" font-size="10.00">ImGui::ShowMetricsWindow</text>
</a>
</g>
</g>
<!-- Node2&#45;&gt;Node4 -->
<g id="edge18_Node000002_Node000004" class="edge">
<title>Node2&#45;&gt;Node4</title>
<g id="a_edge18_Node000002_Node000004"><a xlink:title=" ">
<path fill="none" stroke="#63b8ff" d="M943.13,-168.41C816.67,-177.8 573.39,-188.6 370.25,-154.75 339.73,-149.67 306.23,-137.57 284.05,-128.59"/>
<polygon fill="#63b8ff" stroke="#63b8ff" points="943.04,-171.93 952.74,-167.68 942.51,-164.95 943.04,-171.93"/>
</a>
</g>
</g>
<!-- Node6 -->
<g id="Node000006" class="node">
<title>Node6</title>
<g id="a_Node000006"><a xlink:href="namespaceImGui.html#afcb602554925c5409977f0fb39f77e5d" target="_top" xlink:title=" ">
<polygon fill="white" stroke="#666666" points="918.12,-128.12 770.88,-128.12 770.88,-107.38 918.12,-107.38 918.12,-128.12"/>
<text text-anchor="middle" x="844.5" y="-114.62" font-family="Helvetica,sans-Serif" font-size="10.00">ImGui::DebugNodeWindow</text>
</a>
</g>
</g>
<!-- Node2&#45;&gt;Node6 -->
<g id="edge5_Node000002_Node000006" class="edge">
<title>Node2&#45;&gt;Node6</title>
<g id="a_edge5_Node000002_Node000006"><a xlink:title=" ">
<path fill="none" stroke="#63b8ff" d="M971.6,-147.3C945.91,-141.28 916.02,-134.27 891.79,-128.6"/>
<polygon fill="#63b8ff" stroke="#63b8ff" points="970.69,-150.68 981.22,-149.55 972.28,-143.86 970.69,-150.68"/>
</a>
</g>
</g>
<!-- Node3&#45;&gt;Node4 -->
<g id="edge3_Node000003_Node000004" class="edge">
<title>Node3&#45;&gt;Node4</title>
<g id="a_edge3_Node000003_Node000004"><a xlink:title=" ">
<path fill="none" stroke="#63b8ff" d="M394.97,-197.4C386.56,-194.56 378.06,-191.33 370.25,-187.75 333.32,-170.83 293.96,-143.6 273.41,-128.57"/>
<polygon fill="#63b8ff" stroke="#63b8ff" points="393.88,-200.73 404.47,-200.45 396.02,-194.06 393.88,-200.73"/>
</a>
</g>
</g>
<!-- Node5 -->
<g id="Node000005" class="node">
<title>Node5</title>
<g id="a_Node000005"><a xlink:href="namespaceImGui.html#af95643a0ce4893b9e57c12991922fb18" target="_top" xlink:title=" ">
<polygon fill="white" stroke="#666666" points="145.75,-128.12 0,-128.12 0,-107.38 145.75,-107.38 145.75,-128.12"/>
<text text-anchor="middle" x="72.88" y="-114.62" font-family="Helvetica,sans-Serif" font-size="10.00">ImGui::ShowDemoWindow</text>
</a>
</g>
</g>
<!-- Node4&#45;&gt;Node5 -->
<g id="edge4_Node000004_Node000005" class="edge">
<title>Node4&#45;&gt;Node5</title>
<g id="a_edge4_Node000004_Node000005"><a xlink:title=" ">
<path fill="none" stroke="#63b8ff" d="M170.11,-117.75C162.04,-117.75 153.92,-117.75 146,-117.75"/>
<polygon fill="#63b8ff" stroke="#63b8ff" points="169.95,-121.25 179.95,-117.75 169.95,-114.25 169.95,-121.25"/>
</a>
</g>
</g>
<!-- Node6&#45;&gt;Node6 -->
<g id="edge10_Node000006_Node000006" class="edge">
<title>Node6&#45;&gt;Node6</title>
<g id="a_edge10_Node000006_Node000006"><a xlink:title=" ">
<path fill="none" stroke="#63b8ff" d="M877.14,-139.61C872.82,-143.45 861.94,-146.12 844.5,-146.12 812.62,-146.12 802.65,-137.18 814.61,-128.52"/>
<polygon fill="#63b8ff" stroke="#63b8ff" points="880.56,-138.85 874.75,-129.99 873.77,-140.54 880.56,-138.85"/>
</a>
</g>
</g>
<!-- Node7 -->
<g id="Node000007" class="node">
<title>Node7</title>
<g id="a_Node000007"><a xlink:href="namespaceImGui.html#a8600f7b1f9b18926fb00837e56d2b3cd" target="_top" xlink:title=" ">
<polygon fill="white" stroke="#666666" points="528.75,-128.12 370.25,-128.12 370.25,-107.38 528.75,-107.38 528.75,-128.12"/>
<text text-anchor="middle" x="449.5" y="-114.62" font-family="Helvetica,sans-Serif" font-size="10.00">ImGui::DebugNodeDockNode</text>
</a>
</g>
</g>
<!-- Node6&#45;&gt;Node7 -->
<g id="edge6_Node000006_Node000007" class="edge">
<title>Node6&#45;&gt;Node7</title>
<g id="a_edge6_Node000006_Node000007"><a xlink:title=" ">
<path fill="none" stroke="#63b8ff" d="M759.38,-112.1C691.2,-110.59 595.84,-110.64 529.18,-112.22"/>
<polygon fill="#63b8ff" stroke="#63b8ff" points="758.91,-115.59 768.99,-112.33 759.07,-108.59 758.91,-115.59"/>
</a>
</g>
</g>
<!-- Node8 -->
<g id="Node000008" class="node">
<title>Node8</title>
<g id="a_Node000008"><a xlink:href="namespaceImGui.html#a8c2ed9f140c90d8eaca1e2cfd8f46142" target="_top" xlink:title=" ">
<polygon fill="white" stroke="#666666" points="734.5,-90.12 564.75,-90.12 564.75,-69.38 734.5,-69.38 734.5,-90.12"/>
<text text-anchor="middle" x="649.62" y="-76.62" font-family="Helvetica,sans-Serif" font-size="10.00">ImGui::DebugNodeWindowsList</text>
</a>
</g>
</g>
<!-- Node6&#45;&gt;Node8 -->
<g id="edge11_Node000006_Node000008" class="edge">
<title>Node6&#45;&gt;Node8</title>
<g id="a_edge11_Node000006_Node000008"><a xlink:title=" ">
<path fill="none" stroke="#63b8ff" d="M803.13,-104.19C783.3,-99.36 758.61,-94.14 734.92,-89.66"/>
<polygon fill="#63b8ff" stroke="#63b8ff" points="802.19,-107.56 812.74,-106.6 803.89,-100.77 802.19,-107.56"/>
</a>
</g>
</g>
<!-- Node9 -->
<g id="Node000009" class="node">
<title>Node9</title>
<g id="a_Node000009"><a xlink:href="namespaceImGui.html#a0fc8019faf3a1aec25b554384ad9e506" target="_top" xlink:title=" ">
<polygon fill="white" stroke="#666666" points="734.5,-33.5 564.75,-33.5 564.75,0 734.5,0 734.5,-33.5"/>
<text text-anchor="start" x="572.75" y="-20" font-family="Helvetica,sans-Serif" font-size="10.00">ImGui::DebugNodeWindowsList</text>
<text text-anchor="middle" x="649.62" y="-7.25" font-family="Helvetica,sans-Serif" font-size="10.00">ByBeginStackParent</text>
</a>
</g>
</g>
<!-- Node6&#45;&gt;Node9 -->
<g id="edge15_Node000006_Node000009" class="edge">
<title>Node6&#45;&gt;Node9</title>
<g id="a_edge15_Node000006_Node000009"><a xlink:title=" ">
<path fill="none" stroke="#63b8ff" d="M780.28,-102.78C776.9,-101.26 773.61,-99.59 770.5,-97.75 750.74,-86.09 752.89,-74.47 734.5,-60.75 720.66,-50.42 704.07,-41.17 689.3,-33.84"/>
<polygon fill="#63b8ff" stroke="#63b8ff" points="778.68,-105.91 789.27,-106.36 781.27,-99.41 778.68,-105.91"/>
</a>
</g>
</g>
<!-- Node7&#45;&gt;Node4 -->
<g id="edge9_Node000007_Node000004" class="edge">
<title>Node7&#45;&gt;Node4</title>
<g id="a_edge9_Node000007_Node000004"><a xlink:title=" ">
<path fill="none" stroke="#63b8ff" d="M358.29,-117.75C350.41,-117.75 342.48,-117.75 334.74,-117.75"/>
<polygon fill="#63b8ff" stroke="#63b8ff" points="358.27,-121.25 368.27,-117.75 358.27,-114.25 358.27,-121.25"/>
</a>
</g>
</g>
<!-- Node7&#45;&gt;Node6 -->
<g id="edge8_Node000007_Node000006" class="edge">
<title>Node7&#45;&gt;Node6</title>
<g id="a_edge8_Node000007_Node000006"><a xlink:title=" ">
<path fill="none" stroke="#63b8ff" d="M540.57,-123.53C610.26,-124.94 705.53,-124.81 770.5,-123.14"/>
<polygon fill="#63b8ff" stroke="#63b8ff" points="540.76,-120.03 530.69,-123.31 540.61,-127.03 540.76,-120.03"/>
</a>
</g>
</g>
<!-- Node7&#45;&gt;Node7 -->
<g id="edge7_Node000007_Node000007" class="edge">
<title>Node7&#45;&gt;Node7</title>
<g id="a_edge7_Node000007_Node000007"><a xlink:title=" ">
<path fill="none" stroke="#63b8ff" d="M483.2,-139.61C478.73,-143.45 467.5,-146.12 449.5,-146.12 416.59,-146.12 406.3,-137.18 418.64,-128.52"/>
<polygon fill="#63b8ff" stroke="#63b8ff" points="486.6,-138.81 480.73,-129.99 479.82,-140.54 486.6,-138.81"/>
</a>
</g>
</g>
<!-- Node8&#45;&gt;Node4 -->
<g id="edge14_Node000008_Node000004" class="edge">
<title>Node8&#45;&gt;Node4</title>
<g id="a_edge14_Node000008_Node000004"><a xlink:title=" ">
<path fill="none" stroke="#63b8ff" d="M553.11,-83.88C499.28,-86.81 430.87,-91.52 370.25,-98.75 352.54,-100.86 333.37,-103.87 316.01,-106.88"/>
<polygon fill="#63b8ff" stroke="#63b8ff" points="553.05,-87.39 562.85,-83.36 552.68,-80.4 553.05,-87.39"/>
</a>
</g>
</g>
<!-- Node8&#45;&gt;Node6 -->
<g id="edge13_Node000008_Node000006" class="edge">
<title>Node8&#45;&gt;Node6</title>
<g id="a_edge13_Node000008_Node000006"><a xlink:title=" ">
<path fill="none" stroke="#63b8ff" d="M690.88,-93.29C713.93,-98.9 743.57,-105.06 770.58,-109.95"/>
<polygon fill="#63b8ff" stroke="#63b8ff" points="691.82,-89.91 681.27,-90.87 690.11,-96.7 691.82,-89.91"/>
</a>
</g>
</g>
<!-- Node8&#45;&gt;Node7 -->
<g id="edge12_Node000008_Node000007" class="edge">
<title>Node8&#45;&gt;Node7</title>
<g id="a_edge12_Node000008_Node000007"><a xlink:title=" ">
<path fill="none" stroke="#63b8ff" d="M580.93,-92.73C556.89,-97.35 530.1,-102.48 507.08,-106.9"/>
<polygon fill="#63b8ff" stroke="#63b8ff" points="581.47,-96.19 590.63,-90.87 580.15,-89.32 581.47,-96.19"/>
</a>
</g>
</g>
<!-- Node9&#45;&gt;Node4 -->
<g id="edge17_Node000009_Node000004" class="edge">
<title>Node9&#45;&gt;Node4</title>
<g id="a_edge17_Node000009_Node000004"><a xlink:title=" ">
<path fill="none" stroke="#63b8ff" d="M553.4,-36.29C499.36,-47.97 430.66,-63.8 370.25,-80.75 342.42,-88.56 311.24,-99.09 288.98,-106.92"/>
<polygon fill="#63b8ff" stroke="#63b8ff" points="553.83,-39.78 562.87,-34.26 552.36,-32.94 553.83,-39.78"/>
</a>
</g>
</g>
<!-- Node9&#45;&gt;Node9 -->
<g id="edge16_Node000009_Node000009" class="edge">
<title>Node9&#45;&gt;Node9</title>
<g id="a_edge16_Node000009_Node000009"><a xlink:title=" ">
<path fill="none" stroke="#63b8ff" d="M682.35,-44.89C677.02,-48.85 666.11,-51.5 649.62,-51.5 620.32,-51.5 608.64,-43.12 614.59,-33.91"/>
<polygon fill="#63b8ff" stroke="#63b8ff" points="685.71,-45.9 684.34,-35.4 678.86,-44.46 685.71,-45.9"/>
</a>
</g>
</g>
<!-- Node11 -->
<g id="Node000011" class="node">
<title>Node11</title>
<g id="a_Node000011"><a xlink:href="structExampleAppConsole.html#a0518a09c7e8648dd52c7c06df19ac17a" target="_top" xlink:title=" ">
<polygon fill="white" stroke="#666666" points="918.5,-89.12 770.5,-89.12 770.5,-68.38 918.5,-68.38 918.5,-89.12"/>
<text text-anchor="middle" x="844.5" y="-75.62" font-family="Helvetica,sans-Serif" font-size="10.00">ExampleAppConsole::Draw</text>
</a>
</g>
</g>
<!-- Node10&#45;&gt;Node11 -->
<g id="edge20_Node000010_Node000011" class="edge">
<title>Node10&#45;&gt;Node11</title>
<g id="a_edge20_Node000010_Node000011"><a xlink:title=" ">
<path fill="none" stroke="#63b8ff" d="M957.05,-93.95C944.48,-92.24 931.4,-90.45 918.81,-88.74"/>
<polygon fill="#63b8ff" stroke="#63b8ff" points="956.53,-97.41 966.91,-95.29 957.47,-90.47 956.53,-97.41"/>
</a>
</g>
</g>
</g>
</svg>
