<?xml version="1.0" encoding="UTF-8" standalone="no"?>
<!DOCTYPE svg PUBLIC "-//W3C//DTD SVG 1.1//EN"
 "http://www.w3.org/Graphics/SVG/1.1/DTD/svg11.dtd">
<!-- Generated by graphviz version 12.0.0 (20240704.0754)
 -->
<!-- Title: ImFont::FindGlyphNoFallback Pages: 1 -->
<svg width="872pt" height="87pt"
 viewBox="0.00 0.00 871.75 86.75" xmlns="http://www.w3.org/2000/svg" xmlns:xlink="http://www.w3.org/1999/xlink">
<g id="graph0" class="graph" transform="scale(1 1) rotate(0) translate(4 82.75)">
<title>ImFont::FindGlyphNoFallback</title>
<!-- Node1 -->
<g id="Node000001" class="node">
<title>Node1</title>
<g id="a_Node000001"><a xlink:title=" ">
<polygon fill="#999999" stroke="#666666" points="863.75,-58.75 706,-58.75 706,-38 863.75,-38 863.75,-58.75"/>
<text text-anchor="middle" x="784.88" y="-45.25" font-family="Helvetica,sans-Serif" font-size="10.00">ImFont::FindGlyphNoFallback</text>
</a>
</g>
</g>
<!-- Node2 -->
<g id="Node000002" class="node">
<title>Node2</title>
<g id="a_Node000002"><a xlink:href="structImFont.html#a04b3a1437bd0032722bbbd3613941162" target="_top" xlink:title=" ">
<polygon fill="white" stroke="#666666" points="670,-78.75 529.5,-78.75 529.5,-58 670,-58 670,-78.75"/>
<text text-anchor="middle" x="599.75" y="-65.25" font-family="Helvetica,sans-Serif" font-size="10.00">ImFont::BuildLookupTable</text>
</a>
</g>
</g>
<!-- Node1&#45;&gt;Node2 -->
<g id="edge1_Node000001_Node000002" class="edge">
<title>Node1&#45;&gt;Node2</title>
<g id="a_edge1_Node000001_Node000002"><a xlink:title=" ">
<path fill="none" stroke="#63b8ff" d="M694.31,-58.16C686.24,-59.04 678.15,-59.92 670.29,-60.78"/>
<polygon fill="#63b8ff" stroke="#63b8ff" points="694.62,-61.64 704.18,-57.08 693.86,-54.69 694.62,-61.64"/>
</a>
</g>
</g>
<!-- Node3 -->
<g id="Node000003" class="node">
<title>Node3</title>
<g id="a_Node000003"><a xlink:href="namespaceImGui.html#ae0207d60728f7e6a47dbcd1d7d84e3cb" target="_top" xlink:title=" ">
<polygon fill="white" stroke="#666666" points="664.38,-39.75 535.12,-39.75 535.12,-19 664.38,-19 664.38,-39.75"/>
<text text-anchor="middle" x="599.75" y="-26.25" font-family="Helvetica,sans-Serif" font-size="10.00">ImGui::DebugNodeFont</text>
</a>
</g>
</g>
<!-- Node1&#45;&gt;Node3 -->
<g id="edge2_Node000001_Node000003" class="edge">
<title>Node1&#45;&gt;Node3</title>
<g id="a_edge2_Node000001_Node000003"><a xlink:title=" ">
<path fill="none" stroke="#63b8ff" d="M694.37,-39.09C684.32,-38.05 674.23,-37 664.6,-36"/>
<polygon fill="#63b8ff" stroke="#63b8ff" points="693.87,-42.56 704.18,-40.11 694.59,-35.59 693.87,-42.56"/>
</a>
</g>
</g>
<!-- Node4 -->
<g id="Node000004" class="node">
<title>Node4</title>
<g id="a_Node000004"><a xlink:href="namespaceImGui.html#acab51ec2b39577845309f24535381038" target="_top" xlink:title=" ">
<polygon fill="white" stroke="#666666" points="493.5,-39.75 370.25,-39.75 370.25,-19 493.5,-19 493.5,-39.75"/>
<text text-anchor="middle" x="431.88" y="-26.25" font-family="Helvetica,sans-Serif" font-size="10.00">ImGui::ShowFontAtlas</text>
</a>
</g>
</g>
<!-- Node3&#45;&gt;Node4 -->
<g id="edge3_Node000003_Node000004" class="edge">
<title>Node3&#45;&gt;Node4</title>
<g id="a_edge3_Node000003_Node000004"><a xlink:title=" ">
<path fill="none" stroke="#63b8ff" d="M523.87,-29.38C513.84,-29.38 503.66,-29.38 493.9,-29.38"/>
<polygon fill="#63b8ff" stroke="#63b8ff" points="523.58,-32.88 533.58,-29.38 523.58,-25.88 523.58,-32.88"/>
</a>
</g>
</g>
<!-- Node5 -->
<g id="Node000005" class="node">
<title>Node5</title>
<g id="a_Node000005"><a xlink:href="namespaceImGui.html#afe7a28c6eb52fff3cc27d5a698fea4ff" target="_top" xlink:title=" ">
<polygon fill="white" stroke="#666666" points="334.25,-59.75 181.75,-59.75 181.75,-39 334.25,-39 334.25,-59.75"/>
<text text-anchor="middle" x="258" y="-46.25" font-family="Helvetica,sans-Serif" font-size="10.00">ImGui::ShowMetricsWindow</text>
</a>
</g>
</g>
<!-- Node4&#45;&gt;Node5 -->
<g id="edge4_Node000004_Node000005" class="edge">
<title>Node4&#45;&gt;Node5</title>
<g id="a_edge4_Node000004_Node000005"><a xlink:title=" ">
<path fill="none" stroke="#63b8ff" d="M358.41,-37.81C350.55,-38.72 342.53,-39.66 334.63,-40.57"/>
<polygon fill="#63b8ff" stroke="#63b8ff" points="358.76,-41.29 368.29,-36.66 357.95,-34.34 358.76,-41.29"/>
</a>
</g>
</g>
<!-- Node7 -->
<g id="Node000007" class="node">
<title>Node7</title>
<g id="a_Node000007"><a xlink:href="namespaceImGui.html#ab2eb3dec78d054fe3feab1c091ec5de5" target="_top" xlink:title=" ">
<polygon fill="white" stroke="#666666" points="323.38,-20.75 192.62,-20.75 192.62,0 323.38,0 323.38,-20.75"/>
<text text-anchor="middle" x="258" y="-7.25" font-family="Helvetica,sans-Serif" font-size="10.00">ImGui::ShowStyleEditor</text>
</a>
</g>
</g>
<!-- Node4&#45;&gt;Node7 -->
<g id="edge6_Node000004_Node000007" class="edge">
<title>Node4&#45;&gt;Node7</title>
<g id="a_edge6_Node000004_Node000007"><a xlink:title=" ">
<path fill="none" stroke="#63b8ff" d="M358.4,-21.36C346.87,-20.09 335,-18.78 323.67,-17.52"/>
<polygon fill="#63b8ff" stroke="#63b8ff" points="357.97,-24.84 368.29,-22.46 358.74,-17.88 357.97,-24.84"/>
</a>
</g>
</g>
<!-- Node6 -->
<g id="Node000006" class="node">
<title>Node6</title>
<g id="a_Node000006"><a xlink:href="namespaceImGui.html#af95643a0ce4893b9e57c12991922fb18" target="_top" xlink:title=" ">
<polygon fill="white" stroke="#666666" points="145.75,-39.75 0,-39.75 0,-19 145.75,-19 145.75,-39.75"/>
<text text-anchor="middle" x="72.88" y="-26.25" font-family="Helvetica,sans-Serif" font-size="10.00">ImGui::ShowDemoWindow</text>
</a>
</g>
</g>
<!-- Node5&#45;&gt;Node6 -->
<g id="edge5_Node000005_Node000006" class="edge">
<title>Node5&#45;&gt;Node6</title>
<g id="a_edge5_Node000005_Node000006"><a xlink:title=" ">
<path fill="none" stroke="#63b8ff" d="M170.11,-39.89C162.04,-39 153.92,-38.12 146,-37.25"/>
<polygon fill="#63b8ff" stroke="#63b8ff" points="169.63,-43.35 179.95,-40.96 170.39,-36.4 169.63,-43.35"/>
</a>
</g>
</g>
<!-- Node7&#45;&gt;Node6 -->
<g id="edge7_Node000007_Node000006" class="edge">
<title>Node7&#45;&gt;Node6</title>
<g id="a_edge7_Node000007_Node000006"><a xlink:title=" ">
<path fill="none" stroke="#63b8ff" d="M180.82,-18.28C169.33,-19.47 157.5,-20.7 146.09,-21.88"/>
<polygon fill="#63b8ff" stroke="#63b8ff" points="181.09,-21.77 190.67,-17.26 180.37,-14.81 181.09,-21.77"/>
</a>
</g>
</g>
</g>
</svg>
