<?xml version="1.0" encoding="UTF-8" standalone="no"?>
<!DOCTYPE svg PUBLIC "-//W3C//DTD SVG 1.1//EN"
 "http://www.w3.org/Graphics/SVG/1.1/DTD/svg11.dtd">
<!-- Generated by graphviz version 12.0.0 (20240704.0754)
 -->
<!-- Title: ImDrawList Pages: 1 -->
<!--zoomable 780 -->

<svg id="main" version="1.1" xmlns="http://www.w3.org/2000/svg" xmlns:xlink="http://www.w3.org/1999/xlink" xml:space="preserve" onload="init(evt)">

<style type="text/css"><![CDATA[
.node, .edge {opacity: 0.7;}
.node.selected, .edge.selected {opacity: 1;}
.edge:hover path { stroke: red; }
.edge:hover polygon { stroke: red; fill: red; }
]]></style>

<defs>
  <circle id="rim" cx="0" cy="0" r="7"/>
  <circle id="rim2" cx="0" cy="0" r="3.5"/>
  <g id="zoomPlus">
    <use xlink:href="#rim" fill="#404040"><set attributeName="fill" to="#808080" begin="zoomplus.mouseover" end="zoomplus.mouseout"/></use>
    <path d="M-4,0h8M0,-4v8" fill="none" stroke="white" stroke-width="1.5" pointer-events="none"/>
  </g>
  <g id="zoomMin">
    <use xlink:href="#rim" fill="#404040"><set attributeName="fill" to="#808080" begin="zoomminus.mouseover" end="zoomminus.mouseout"/></use>
    <path d="M-4,0h8" fill="none" stroke="white" stroke-width="1.5" pointer-events="none"/>
  </g>
  <g id="arrowUp" transform="translate(30 24)">
    <use xlink:href="#rim"/>
    <path pointer-events="none" fill="none" stroke="white" stroke-width="1.5" d="M0,-3.0v7 M-2.5,-0.5L0,-3.0L2.5,-0.5"/>
  </g>
  <g id="arrowRight" transform="rotate(90) translate(36 -43)">
    <use xlink:href="#rim"/>
    <path pointer-events="none" fill="none" stroke="white" stroke-width="1.5" d="M0,-3.0v7 M-2.5,-0.5L0,-3.0L2.5,-0.5"/>
  </g>
  <g id="arrowDown" transform="rotate(180) translate(-30 -48)">
    <use xlink:href="#rim"/>
    <path pointer-events="none" fill="none" stroke="white" stroke-width="1.5" d="M0,-3.0v7 M-2.5,-0.5L0,-3.0L2.5,-0.5"/>
  </g>
  <g id="arrowLeft" transform="rotate(270) translate(-36 17)">
    <use xlink:href="#rim"/>
    <path pointer-events="none" fill="none" stroke="white" stroke-width="1.5" d="M0,-3.0v7 M-2.5,-0.5L0,-3.0L2.5,-0.5"/>
  </g>
  <g id="resetDef">
    <use xlink:href="#rim2" fill="#404040"><set attributeName="fill" to="#808080" begin="reset.mouseover" end="reset.mouseout"/></use>
  </g>
</defs>
<script type="application/ecmascript">
var viewWidth = 2203;
var viewHeight = 780;
var sectionId = 'dynsection-0';
</script>
<script type="application/ecmascript" xlink:href="svg.min.js"/>
<svg id="graph" class="graph">
<g id="viewport">
<title>ImDrawList</title>
<!-- Node1 -->
<g id="Node000001" class="node">
<title>Node1</title>
<g id="a_Node000001"><a xlink:title=" ">
<polygon fill="#999999" stroke="#666666" points="1153.38,-597.58 1081.88,-597.58 1081.88,-576.83 1153.38,-576.83 1153.38,-597.58"/>
<text text-anchor="middle" x="1117.62" y="-584.08" font-family="Helvetica,sans-Serif" font-size="10.00">ImDrawList</text>
</a>
</g>
</g>
<!-- Node3 -->
<g id="Node000003" class="node">
<title>Node3</title>
<g id="a_Node000003"><a xlink:href="structImDrawCmd.html" target="_top" xlink:title=" ">
<polygon fill="white" stroke="#666666" points="1381.25,-684.58 1304.5,-684.58 1304.5,-663.83 1381.25,-663.83 1381.25,-684.58"/>
<text text-anchor="middle" x="1342.88" y="-671.08" font-family="Helvetica,sans-Serif" font-size="10.00">ImDrawCmd</text>
</a>
</g>
</g>
<!-- Node1&#45;&gt;Node3 -->
<g id="edge4_Node000003_Node000001" class="edge">
<title>Node1&#45;&gt;Node3</title>
<g id="a_edge4_Node000003_Node000001"><a xlink:title=" ">
<path fill="none" stroke="#9a32cd" stroke-dasharray="5,2" d="M1142.5,-604.5C1162.15,-617.97 1191.2,-636.18 1219,-647.2 1246.51,-658.11 1279.32,-665.04 1304.12,-669.14"/>
<polygon fill="#9a32cd" stroke="#9a32cd" points="1144.58,-601.68 1134.38,-598.82 1140.57,-607.42 1144.58,-601.68"/>
</a>
</g>
<text text-anchor="middle" x="1252.75" y="-668.45" font-family="Helvetica,sans-Serif" font-size="10.00" fill="grey"> UserCallback</text>
</g>
<!-- Node2 -->
<g id="Node000002" class="node">
<title>Node2</title>
<g id="a_Node000002"><a xlink:href="structImVector.html" target="_top" xlink:title=" ">
<polygon fill="white" stroke="#666666" points="1586.25,-670.58 1443.5,-670.58 1443.5,-649.83 1586.25,-649.83 1586.25,-670.58"/>
<text text-anchor="middle" x="1514.88" y="-657.08" font-family="Helvetica,sans-Serif" font-size="10.00">ImVector&lt; ImDrawCmd &gt;</text>
</a>
</g>
</g>
<!-- Node2&#45;&gt;Node1 -->
<g id="edge1_Node000001_Node000002" class="edge">
<title>Node2&#45;&gt;Node1</title>
<g id="a_edge1_Node000001_Node000002"><a xlink:title=" ">
<path fill="none" stroke="#9a32cd" stroke-dasharray="5,2" d="M1444.02,-647.3C1358.98,-631.6 1218.7,-605.69 1153.7,-593.68"/>
<polygon fill="#9a32cd" stroke="#9a32cd" points="1443.17,-650.7 1453.64,-649.08 1444.44,-643.82 1443.17,-650.7"/>
</a>
</g>
<text text-anchor="middle" x="1342.88" y="-638.45" font-family="Helvetica,sans-Serif" font-size="10.00" fill="grey"> CmdBuffer</text>
</g>
<!-- Node26 -->
<g id="Node000026" class="node">
<title>Node26</title>
<g id="a_Node000026"><a xlink:href="structImDrawChannel.html" target="_top" xlink:title=" ">
<polygon fill="white" stroke="#666666" points="1776.25,-670.58 1682.25,-670.58 1682.25,-649.83 1776.25,-649.83 1776.25,-670.58"/>
<text text-anchor="middle" x="1729.25" y="-657.08" font-family="Helvetica,sans-Serif" font-size="10.00">ImDrawChannel</text>
</a>
</g>
</g>
<!-- Node2&#45;&gt;Node26 -->
<g id="edge42_Node000026_Node000002" class="edge">
<title>Node2&#45;&gt;Node26</title>
<g id="a_edge42_Node000026_Node000002"><a xlink:title=" ">
<path fill="none" stroke="#9a32cd" stroke-dasharray="5,2" d="M1597.79,-660.2C1626.3,-660.2 1657.27,-660.2 1681.88,-660.2"/>
<polygon fill="#9a32cd" stroke="#9a32cd" points="1598.11,-656.7 1588.11,-660.2 1598.11,-663.7 1598.11,-656.7"/>
</a>
</g>
<text text-anchor="middle" x="1634.25" y="-663.45" font-family="Helvetica,sans-Serif" font-size="10.00" fill="grey"> _CmdBuffer</text>
</g>
<!-- Node3&#45;&gt;Node2 -->
<g id="edge2_Node000002_Node000003" class="edge">
<title>Node3&#45;&gt;Node2</title>
<g id="a_edge2_Node000002_Node000003"><a xlink:title=" ">
<path fill="none" stroke="#9a32cd" stroke-dasharray="5,2" d="M1392.65,-670.19C1408.36,-668.89 1426.11,-667.43 1443.08,-666.03"/>
<polygon fill="#9a32cd" stroke="#9a32cd" points="1392.79,-666.66 1383.11,-670.97 1393.37,-673.64 1392.79,-666.66"/>
</a>
</g>
<text text-anchor="middle" x="1412.38" y="-672.45" font-family="Helvetica,sans-Serif" font-size="10.00" fill="grey"> Data</text>
</g>
<!-- Node4 -->
<g id="Node000004" class="node">
<title>Node4</title>
<g id="a_Node000004"><a xlink:href="structImVec4.html" target="_top" xlink:title=" ">
<polygon fill="white" stroke="#666666" points="73.38,-648.58 21.38,-648.58 21.38,-627.83 73.38,-627.83 73.38,-648.58"/>
<text text-anchor="middle" x="47.38" y="-635.08" font-family="Helvetica,sans-Serif" font-size="10.00">ImVec4</text>
</a>
</g>
</g>
<!-- Node4&#45;&gt;Node3 -->
<g id="edge3_Node000003_Node000004" class="edge">
<title>Node4&#45;&gt;Node3</title>
<g id="a_edge3_Node000003_Node000004"><a xlink:title=" ">
<path fill="none" stroke="#9a32cd" stroke-dasharray="5,2" d="M67.71,-656.32C105.84,-690.08 194.76,-759.2 283.62,-759.2 283.62,-759.2 283.62,-759.2 1118.62,-759.2 1201.16,-759.2 1290.28,-707.84 1325.87,-684.97"/>
<polygon fill="#9a32cd" stroke="#9a32cd" points="70.43,-654.07 60.67,-649.96 65.74,-659.26 70.43,-654.07"/>
</a>
</g>
<text text-anchor="middle" x="699.75" y="-762.45" font-family="Helvetica,sans-Serif" font-size="10.00" fill="grey"> ClipRect</text>
</g>
<!-- Node9 -->
<g id="Node000009" class="node">
<title>Node9</title>
<g id="a_Node000009"><a xlink:href="structImDrawListSharedData.html" target="_top" xlink:title=" ">
<polygon fill="white" stroke="#666666" points="911.62,-550.58 783.12,-550.58 783.12,-529.83 911.62,-529.83 911.62,-550.58"/>
<text text-anchor="middle" x="847.38" y="-537.08" font-family="Helvetica,sans-Serif" font-size="10.00">ImDrawListSharedData</text>
</a>
</g>
</g>
<!-- Node4&#45;&gt;Node9 -->
<g id="edge32_Node000009_Node000004" class="edge">
<title>Node4&#45;&gt;Node9</title>
<g id="a_edge32_Node000009_Node000004"><a xlink:title=" ">
<path fill="none" stroke="#9a32cd" stroke-dasharray="5,2" d="M84.82,-634.85C189.76,-625.01 501.58,-594.48 758.75,-556.2 768.85,-554.7 779.56,-552.91 789.9,-551.08"/>
<polygon fill="#9a32cd" stroke="#9a32cd" points="84.76,-631.34 75.13,-635.75 85.41,-638.31 84.76,-631.34"/>
</a>
</g>
<text text-anchor="middle" x="430.75" y="-620.2" font-family="Helvetica,sans-Serif" font-size="10.00" fill="grey"> ClipRectFullscreen</text>
<text text-anchor="middle" x="430.75" y="-607.45" font-family="Helvetica,sans-Serif" font-size="10.00" fill="grey">TexUvLines</text>
</g>
<!-- Node15 -->
<g id="Node000015" class="node">
<title>Node15</title>
<g id="a_Node000015"><a xlink:href="structImFontAtlas.html" target="_top" xlink:title=" ">
<polygon fill="white" stroke="#666666" points="321.88,-280.58 247.38,-280.58 247.38,-259.83 321.88,-259.83 321.88,-280.58"/>
<text text-anchor="middle" x="284.62" y="-267.08" font-family="Helvetica,sans-Serif" font-size="10.00">ImFontAtlas</text>
</a>
</g>
</g>
<!-- Node4&#45;&gt;Node15 -->
<g id="edge29_Node000015_Node000004" class="edge">
<title>Node4&#45;&gt;Node15</title>
<g id="a_edge29_Node000015_Node000004"><a xlink:title=" ">
<path fill="none" stroke="#9a32cd" stroke-dasharray="5,2" d="M61.26,-618.04C104.61,-550.23 244.28,-331.74 276.81,-280.86"/>
<polygon fill="#9a32cd" stroke="#9a32cd" points="58.41,-616 55.98,-626.31 64.31,-619.77 58.41,-616"/>
</a>
</g>
<text text-anchor="middle" x="153.62" y="-532.45" font-family="Helvetica,sans-Serif" font-size="10.00" fill="grey"> TexUvLines</text>
</g>
<!-- Node23 -->
<g id="Node000023" class="node">
<title>Node23</title>
<g id="a_Node000023"><a xlink:href="structImDrawCmdHeader.html" target="_top" xlink:title=" ">
<polygon fill="white" stroke="#666666" points="486.75,-688.58 374.75,-688.58 374.75,-667.83 486.75,-667.83 486.75,-688.58"/>
<text text-anchor="middle" x="430.75" y="-675.08" font-family="Helvetica,sans-Serif" font-size="10.00">ImDrawCmdHeader</text>
</a>
</g>
</g>
<!-- Node4&#45;&gt;Node23 -->
<g id="edge38_Node000023_Node000004" class="edge">
<title>Node4&#45;&gt;Node23</title>
<g id="a_edge38_Node000023_Node000004"><a xlink:title=" ">
<path fill="none" stroke="#9a32cd" stroke-dasharray="5,2" d="M84.7,-646.98C93.81,-648.94 103.6,-650.84 112.75,-652.2 203.96,-665.8 311.07,-672.72 374.52,-675.89"/>
<polygon fill="#9a32cd" stroke="#9a32cd" points="85.61,-643.6 75.09,-644.83 84.08,-650.43 85.61,-643.6"/>
</a>
</g>
<text text-anchor="middle" x="153.62" y="-665.45" font-family="Helvetica,sans-Serif" font-size="10.00" fill="grey"> ClipRect</text>
</g>
<!-- Node27 -->
<g id="Node000027" class="node">
<title>Node27</title>
<g id="a_Node000027"><a xlink:href="structImVector.html" target="_top" xlink:title=" ">
<polygon fill="white" stroke="#666666" points="758.75,-646.58 640.75,-646.58 640.75,-625.83 758.75,-625.83 758.75,-646.58"/>
<text text-anchor="middle" x="699.75" y="-633.08" font-family="Helvetica,sans-Serif" font-size="10.00">ImVector&lt; ImVec4 &gt;</text>
</a>
</g>
</g>
<!-- Node4&#45;&gt;Node27 -->
<g id="edge45_Node000027_Node000004" class="edge">
<title>Node4&#45;&gt;Node27</title>
<g id="a_edge45_Node000027_Node000004"><a xlink:title=" ">
<path fill="none" stroke="#9a32cd" stroke-dasharray="5,2" d="M85.09,-638.09C192.9,-637.76 509.13,-636.79 640.49,-636.38"/>
<polygon fill="#9a32cd" stroke="#9a32cd" points="85.37,-634.59 75.38,-638.12 85.39,-641.59 85.37,-634.59"/>
</a>
</g>
<text text-anchor="middle" x="284.62" y="-640.45" font-family="Helvetica,sans-Serif" font-size="10.00" fill="grey"> Data</text>
</g>
<!-- Node5 -->
<g id="Node000005" class="node">
<title>Node5</title>
<g id="a_Node000005"><a xlink:href="structImVector.html" target="_top" xlink:title=" ">
<polygon fill="white" stroke="#666666" points="915,-728.58 779.75,-728.58 779.75,-707.83 915,-707.83 915,-728.58"/>
<text text-anchor="middle" x="847.38" y="-715.08" font-family="Helvetica,sans-Serif" font-size="10.00">ImVector&lt; ImDrawIdx &gt;</text>
</a>
</g>
</g>
<!-- Node5&#45;&gt;Node1 -->
<g id="edge5_Node000001_Node000005" class="edge">
<title>Node5&#45;&gt;Node1</title>
<g id="a_edge5_Node000001_Node000005"><a xlink:title=" ">
<path fill="none" stroke="#9a32cd" stroke-dasharray="5,2" d="M898.66,-704.4C947.12,-691.05 1013.54,-672.63 1016.25,-671.2 1053.84,-651.4 1090.07,-615.71 1106.87,-597.9"/>
<polygon fill="#9a32cd" stroke="#9a32cd" points="897.87,-700.98 889.16,-707.01 899.73,-707.73 897.87,-700.98"/>
</a>
</g>
<text text-anchor="middle" x="976.12" y="-695.45" font-family="Helvetica,sans-Serif" font-size="10.00" fill="grey"> IdxBuffer</text>
</g>
<!-- Node5&#45;&gt;Node26 -->
<g id="edge43_Node000026_Node000005" class="edge">
<title>Node5&#45;&gt;Node26</title>
<g id="a_edge43_Node000026_Node000005"><a xlink:title=" ">
<path fill="none" stroke="#9a32cd" stroke-dasharray="5,2" d="M926.8,-719.54C980.29,-720.34 1052.73,-721.2 1116.62,-721.2 1116.62,-721.2 1116.62,-721.2 1515.88,-721.2 1587.8,-721.2 1668.29,-688.48 1706.22,-670.97"/>
<polygon fill="#9a32cd" stroke="#9a32cd" points="926.91,-716.04 916.86,-719.39 926.8,-723.04 926.91,-716.04"/>
</a>
</g>
<text text-anchor="middle" x="1342.88" y="-724.45" font-family="Helvetica,sans-Serif" font-size="10.00" fill="grey"> _IdxBuffer</text>
</g>
<!-- Node6 -->
<g id="Node000006" class="node">
<title>Node6</title>
<g id="a_Node000006"><a xlink:href="structImVector.html" target="_top" xlink:title=" ">
<polygon fill="white" stroke="#666666" points="917.25,-511.58 777.5,-511.58 777.5,-490.83 917.25,-490.83 917.25,-511.58"/>
<text text-anchor="middle" x="847.38" y="-498.08" font-family="Helvetica,sans-Serif" font-size="10.00">ImVector&lt; ImDrawVert &gt;</text>
</a>
</g>
</g>
<!-- Node6&#45;&gt;Node1 -->
<g id="edge6_Node000001_Node000006" class="edge">
<title>Node6&#45;&gt;Node1</title>
<g id="a_edge6_Node000001_Node000006"><a xlink:title=" ">
<path fill="none" stroke="#9a32cd" stroke-dasharray="5,2" d="M928.59,-509.48C956.84,-513.88 988.46,-520.51 1016.25,-530.45 1048.48,-541.98 1082.44,-563.43 1101.44,-576.4"/>
<polygon fill="#9a32cd" stroke="#9a32cd" points="929.44,-506.07 919.03,-508.07 928.41,-512.99 929.44,-506.07"/>
</a>
</g>
<text text-anchor="middle" x="976.12" y="-533.45" font-family="Helvetica,sans-Serif" font-size="10.00" fill="grey"> VtxBuffer</text>
</g>
<!-- Node7 -->
<g id="Node000007" class="node">
<title>Node7</title>
<g id="a_Node000007"><a xlink:href="structImDrawVert.html" target="_top" xlink:title=" ">
<polygon fill="white" stroke="#666666" points="600.62,-431.58 526.88,-431.58 526.88,-410.83 600.62,-410.83 600.62,-431.58"/>
<text text-anchor="middle" x="563.75" y="-418.08" font-family="Helvetica,sans-Serif" font-size="10.00">ImDrawVert</text>
</a>
</g>
</g>
<!-- Node7&#45;&gt;Node1 -->
<g id="edge35_Node000001_Node000007" class="edge">
<title>Node7&#45;&gt;Node1</title>
<g id="a_edge35_Node000001_Node000007"><a xlink:title=" ">
<path fill="none" stroke="#9a32cd" stroke-dasharray="5,2" d="M612.21,-417.78C680.48,-413.9 810.08,-410.47 918,-430.45 963.54,-438.89 978.32,-438.63 1016.25,-465.2 1060.95,-496.52 1096.81,-552.87 1110.56,-576.41"/>
<polygon fill="#9a32cd" stroke="#9a32cd" points="612.27,-414.27 602.5,-418.36 612.69,-421.26 612.27,-414.27"/>
</a>
</g>
<text text-anchor="middle" x="847.38" y="-433.45" font-family="Helvetica,sans-Serif" font-size="10.00" fill="grey"> _VtxWritePtr</text>
</g>
<!-- Node7&#45;&gt;Node6 -->
<g id="edge7_Node000006_Node000007" class="edge">
<title>Node7&#45;&gt;Node6</title>
<g id="a_edge7_Node000006_Node000007"><a xlink:title=" ">
<path fill="none" stroke="#9a32cd" stroke-dasharray="5,2" d="M611.93,-430.51C667.25,-441.54 752.29,-458.86 758.75,-462.45 768.84,-468.07 766.86,-475.24 776.75,-481.2 782.89,-484.91 789.74,-487.95 796.7,-490.45"/>
<polygon fill="#9a32cd" stroke="#9a32cd" points="612.93,-427.14 602.44,-428.63 611.56,-434.01 612.93,-427.14"/>
</a>
</g>
<text text-anchor="middle" x="699.75" y="-465.45" font-family="Helvetica,sans-Serif" font-size="10.00" fill="grey"> Data</text>
</g>
<!-- Node8 -->
<g id="Node000008" class="node">
<title>Node8</title>
<g id="a_Node000008"><a xlink:href="structImVec2.html" target="_top" xlink:title=" ">
<polygon fill="white" stroke="#666666" points="73.38,-400.58 21.38,-400.58 21.38,-379.83 73.38,-379.83 73.38,-400.58"/>
<text text-anchor="middle" x="47.38" y="-387.08" font-family="Helvetica,sans-Serif" font-size="10.00">ImVec2</text>
</a>
</g>
</g>
<!-- Node8&#45;&gt;Node7 -->
<g id="edge8_Node000007_Node000008" class="edge">
<title>Node8&#45;&gt;Node7</title>
<g id="a_edge8_Node000007_Node000008"><a xlink:title=" ">
<path fill="none" stroke="#9a32cd" stroke-dasharray="5,2" d="M84.77,-392.4C179.34,-398.1 432,-413.32 526.45,-419.02"/>
<polygon fill="#9a32cd" stroke="#9a32cd" points="85.24,-388.92 75.04,-391.81 84.81,-395.91 85.24,-388.92"/>
</a>
</g>
<text text-anchor="middle" x="284.62" y="-424.2" font-family="Helvetica,sans-Serif" font-size="10.00" fill="grey"> pos</text>
<text text-anchor="middle" x="284.62" y="-411.45" font-family="Helvetica,sans-Serif" font-size="10.00" fill="grey">uv</text>
</g>
<!-- Node8&#45;&gt;Node9 -->
<g id="edge10_Node000009_Node000008" class="edge">
<title>Node8&#45;&gt;Node9</title>
<g id="a_edge10_Node000009_Node000008"><a xlink:title=" ">
<path fill="none" stroke="#9a32cd" stroke-dasharray="5,2" d="M57.75,-410.93C68.09,-431.13 86.78,-460.84 112.75,-475.2 212.3,-530.28 509.42,-510.14 622.75,-520.2 676.72,-525 738.01,-530.48 782.76,-534.49"/>
<polygon fill="#9a32cd" stroke="#9a32cd" points="61.03,-409.68 53.53,-402.21 54.73,-412.73 61.03,-409.68"/>
</a>
</g>
<text text-anchor="middle" x="430.75" y="-532.2" font-family="Helvetica,sans-Serif" font-size="10.00" fill="grey"> ArcFastVtx</text>
<text text-anchor="middle" x="430.75" y="-519.45" font-family="Helvetica,sans-Serif" font-size="10.00" fill="grey">TexUvWhitePixel</text>
</g>
<!-- Node8&#45;&gt;Node15 -->
<g id="edge18_Node000015_Node000008" class="edge">
<title>Node8&#45;&gt;Node15</title>
<g id="a_edge18_Node000015_Node000008"><a xlink:title=" ">
<path fill="none" stroke="#9a32cd" stroke-dasharray="5,2" d="M64.8,-370.98C76.92,-357.82 94.42,-340.81 112.75,-329.7 155.47,-303.82 211.04,-287.14 247.02,-278.21"/>
<polygon fill="#9a32cd" stroke="#9a32cd" points="62.38,-368.43 58.34,-378.22 67.61,-373.09 62.38,-368.43"/>
</a>
</g>
<text text-anchor="middle" x="153.62" y="-345.2" font-family="Helvetica,sans-Serif" font-size="10.00" fill="grey"> TexUvScale</text>
<text text-anchor="middle" x="153.62" y="-332.45" font-family="Helvetica,sans-Serif" font-size="10.00" fill="grey">TexUvWhitePixel</text>
</g>
<!-- Node18 -->
<g id="Node000018" class="node">
<title>Node18</title>
<g id="a_Node000018"><a xlink:href="structImFontAtlasCustomRect.html" target="_top" xlink:title=" ">
<polygon fill="white" stroke="#666666" points="914.25,-334.58 780.5,-334.58 780.5,-313.83 914.25,-313.83 914.25,-334.58"/>
<text text-anchor="middle" x="847.38" y="-321.08" font-family="Helvetica,sans-Serif" font-size="10.00">ImFontAtlasCustomRect</text>
</a>
</g>
</g>
<!-- Node8&#45;&gt;Node18 -->
<g id="edge23_Node000018_Node000008" class="edge">
<title>Node8&#45;&gt;Node18</title>
<g id="a_edge23_Node000018_Node000008"><a xlink:title=" ">
<path fill="none" stroke="#9a32cd" stroke-dasharray="5,2" d="M85.05,-386.73C177.97,-377.99 430.23,-354.61 640.75,-338.2 687.3,-334.58 739.83,-331.01 780.14,-328.38"/>
<polygon fill="#9a32cd" stroke="#9a32cd" points="84.9,-383.23 75.27,-387.65 85.56,-390.2 84.9,-383.23"/>
</a>
</g>
<text text-anchor="middle" x="430.75" y="-362.45" font-family="Helvetica,sans-Serif" font-size="10.00" fill="grey"> GlyphOffset</text>
</g>
<!-- Node20 -->
<g id="Node000020" class="node">
<title>Node20</title>
<g id="a_Node000020"><a xlink:href="structImFontConfig.html" target="_top" xlink:title=" ">
<polygon fill="white" stroke="#666666" points="887.62,-163.58 807.12,-163.58 807.12,-142.83 887.62,-142.83 887.62,-163.58"/>
<text text-anchor="middle" x="847.38" y="-150.08" font-family="Helvetica,sans-Serif" font-size="10.00">ImFontConfig</text>
</a>
</g>
</g>
<!-- Node8&#45;&gt;Node20 -->
<g id="edge27_Node000020_Node000008" class="edge">
<title>Node8&#45;&gt;Node20</title>
<g id="a_edge27_Node000020_Node000008"><a xlink:title=" ">
<path fill="none" stroke="#9a32cd" stroke-dasharray="5,2" d="M60.03,-369.27C70.65,-349.29 85.99,-318.04 94.75,-289.2 109.4,-240.96 93.22,-223.68 112.75,-177.2 141.65,-108.43 147.35,-78.54 212.5,-42.2 430.58,79.42 751.02,-95.93 828.86,-142.41"/>
<polygon fill="#9a32cd" stroke="#9a32cd" points="56.96,-367.59 55.26,-378.05 63.11,-370.93 56.96,-367.59"/>
</a>
</g>
<text text-anchor="middle" x="430.75" y="-25.2" font-family="Helvetica,sans-Serif" font-size="10.00" fill="grey"> GlyphExtraSpacing</text>
<text text-anchor="middle" x="430.75" y="-12.45" font-family="Helvetica,sans-Serif" font-size="10.00" fill="grey">GlyphOffset</text>
</g>
<!-- Node22 -->
<g id="Node000022" class="node">
<title>Node22</title>
<g id="a_Node000022"><a xlink:href="structImVector.html" target="_top" xlink:title=" ">
<polygon fill="white" stroke="#666666" points="622.75,-549.58 504.75,-549.58 504.75,-528.83 622.75,-528.83 622.75,-549.58"/>
<text text-anchor="middle" x="563.75" y="-536.08" font-family="Helvetica,sans-Serif" font-size="10.00">ImVector&lt; ImVec2 &gt;</text>
</a>
</g>
</g>
<!-- Node8&#45;&gt;Node22 -->
<g id="edge34_Node000022_Node000008" class="edge">
<title>Node8&#45;&gt;Node22</title>
<g id="a_edge34_Node000022_Node000008"><a xlink:title=" ">
<path fill="none" stroke="#9a32cd" stroke-dasharray="5,2" d="M53.95,-411.72C62.07,-438.23 79.87,-482.3 112.75,-503.2 236.09,-581.64 418.55,-564.9 508.53,-550.03"/>
<polygon fill="#9a32cd" stroke="#9a32cd" points="57.4,-411.05 51.3,-402.39 50.67,-412.96 57.4,-411.05"/>
</a>
</g>
<text text-anchor="middle" x="284.62" y="-565.45" font-family="Helvetica,sans-Serif" font-size="10.00" fill="grey"> Data</text>
</g>
<!-- Node9&#45;&gt;Node1 -->
<g id="edge9_Node000001_Node000009" class="edge">
<title>Node9&#45;&gt;Node1</title>
<g id="a_edge9_Node000001_Node000009"><a xlink:title=" ">
<path fill="none" stroke="#9a32cd" stroke-dasharray="5,2" d="M923.46,-546.29C952.59,-549.31 986.12,-553.6 1016.25,-559.45 1038.61,-563.8 1063.28,-570.59 1082.56,-576.37"/>
<polygon fill="#9a32cd" stroke="#9a32cd" points="923.91,-542.82 913.61,-545.31 923.21,-549.79 923.91,-542.82"/>
</a>
</g>
<text text-anchor="middle" x="976.12" y="-562.45" font-family="Helvetica,sans-Serif" font-size="10.00" fill="grey"> _Data</text>
</g>
<!-- Node10 -->
<g id="Node000010" class="node">
<title>Node10</title>
<g id="a_Node000010"><a xlink:href="structImFont.html" target="_top" xlink:title=" ">
<polygon fill="white" stroke="#666666" points="588.62,-181.58 538.88,-181.58 538.88,-160.83 588.62,-160.83 588.62,-181.58"/>
<text text-anchor="middle" x="563.75" y="-168.08" font-family="Helvetica,sans-Serif" font-size="10.00">ImFont</text>
</a>
</g>
</g>
<!-- Node10&#45;&gt;Node9 -->
<g id="edge11_Node000009_Node000010" class="edge">
<title>Node10&#45;&gt;Node9</title>
<g id="a_edge11_Node000009_Node000010"><a xlink:title=" ">
<path fill="none" stroke="#9a32cd" stroke-dasharray="5,2" d="M598.98,-184.73C608,-189.86 616.85,-196.6 622.75,-205.2 650.78,-246.05 609.18,-277.02 640.75,-315.2 676.34,-358.25 724.28,-314.5 758.75,-358.45 803.39,-415.37 730.1,-464.92 776.75,-520.2 779.83,-523.86 783.53,-526.86 787.6,-529.34"/>
<polygon fill="#9a32cd" stroke="#9a32cd" points="600.72,-181.69 590.22,-180.3 597.56,-187.94 600.72,-181.69"/>
</a>
</g>
<text text-anchor="middle" x="699.75" y="-361.45" font-family="Helvetica,sans-Serif" font-size="10.00" fill="grey"> Font</text>
</g>
<!-- Node16 -->
<g id="Node000016" class="node">
<title>Node16</title>
<g id="a_Node000016"><a xlink:href="structImVector.html" target="_top" xlink:title=" ">
<polygon fill="white" stroke="#666666" points="909.38,-218.58 785.38,-218.58 785.38,-197.83 909.38,-197.83 909.38,-218.58"/>
<text text-anchor="middle" x="847.38" y="-205.08" font-family="Helvetica,sans-Serif" font-size="10.00">ImVector&lt; ImFont * &gt;</text>
</a>
</g>
</g>
<!-- Node10&#45;&gt;Node16 -->
<g id="edge20_Node000016_Node000010" class="edge">
<title>Node10&#45;&gt;Node16</title>
<g id="a_edge20_Node000016_Node000010"><a xlink:title=" ">
<path fill="none" stroke="#9a32cd" stroke-dasharray="5,2" d="M600.01,-175.84C646.35,-181.92 728.5,-192.72 785.11,-200.15"/>
<polygon fill="#9a32cd" stroke="#9a32cd" points="600.63,-172.39 590.26,-174.56 599.72,-179.33 600.63,-172.39"/>
</a>
</g>
<text text-anchor="middle" x="699.75" y="-200.45" font-family="Helvetica,sans-Serif" font-size="10.00" fill="grey"> Data</text>
</g>
<!-- Node10&#45;&gt;Node18 -->
<g id="edge24_Node000018_Node000010" class="edge">
<title>Node10&#45;&gt;Node18</title>
<g id="a_edge24_Node000018_Node000010"><a xlink:title=" ">
<path fill="none" stroke="#9a32cd" stroke-dasharray="5,2" d="M599.2,-185.51C607.97,-190.59 616.62,-197.11 622.75,-205.2 641.88,-230.47 617.67,-252.48 640.75,-274.2 679.68,-310.84 706.9,-284.47 758.75,-297.45 777.11,-302.05 797.34,-308.16 813.72,-313.37"/>
<polygon fill="#9a32cd" stroke="#9a32cd" points="600.84,-182.42 590.36,-180.9 597.61,-188.63 600.84,-182.42"/>
</a>
</g>
<text text-anchor="middle" x="699.75" y="-301.45" font-family="Helvetica,sans-Serif" font-size="10.00" fill="grey"> Font</text>
</g>
<!-- Node10&#45;&gt;Node20 -->
<g id="edge28_Node000020_Node000010" class="edge">
<title>Node10&#45;&gt;Node20</title>
<g id="a_edge28_Node000020_Node000010"><a xlink:title=" ">
<path fill="none" stroke="#9a32cd" stroke-dasharray="5,2" d="M587.75,-154.13C602.17,-144.52 621.59,-133.47 640.75,-128.45 701.27,-112.6 774.52,-129.73 815.23,-142.33"/>
<polygon fill="#9a32cd" stroke="#9a32cd" points="586.1,-151.02 579.88,-159.6 590.09,-156.77 586.1,-151.02"/>
</a>
</g>
<text text-anchor="middle" x="699.75" y="-132.45" font-family="Helvetica,sans-Serif" font-size="10.00" fill="grey"> DstFont</text>
</g>
<!-- Node11 -->
<g id="Node000011" class="node">
<title>Node11</title>
<g id="a_Node000011"><a xlink:href="structImVector.html" target="_top" xlink:title=" ">
<polygon fill="white" stroke="#666666" points="336.5,-110.58 232.75,-110.58 232.75,-89.83 336.5,-89.83 336.5,-110.58"/>
<text text-anchor="middle" x="284.62" y="-97.08" font-family="Helvetica,sans-Serif" font-size="10.00">ImVector&lt; float &gt;</text>
</a>
</g>
</g>
<!-- Node11&#45;&gt;Node10 -->
<g id="edge12_Node000010_Node000011" class="edge">
<title>Node11&#45;&gt;Node10</title>
<g id="a_edge12_Node000010_Node000011"><a xlink:title=" ">
<path fill="none" stroke="#9a32cd" stroke-dasharray="5,2" d="M348.1,-98.26C388.72,-98.89 442.21,-103.37 486.75,-119.45 512.27,-128.67 537.41,-148.47 551.42,-160.73"/>
<polygon fill="#9a32cd" stroke="#9a32cd" points="348.28,-94.76 338.25,-98.19 348.23,-101.76 348.28,-94.76"/>
</a>
</g>
<text text-anchor="middle" x="430.75" y="-123.45" font-family="Helvetica,sans-Serif" font-size="10.00" fill="grey"> IndexAdvanceX</text>
</g>
<!-- Node12 -->
<g id="Node000012" class="node">
<title>Node12</title>
<g id="a_Node000012"><a xlink:href="structImVector.html" target="_top" xlink:title=" ">
<polygon fill="white" stroke="#666666" points="347.38,-71.58 221.88,-71.58 221.88,-50.83 347.38,-50.83 347.38,-71.58"/>
<text text-anchor="middle" x="284.62" y="-58.08" font-family="Helvetica,sans-Serif" font-size="10.00">ImVector&lt; ImWchar &gt;</text>
</a>
</g>
</g>
<!-- Node12&#45;&gt;Node10 -->
<g id="edge13_Node000010_Node000012" class="edge">
<title>Node12&#45;&gt;Node10</title>
<g id="a_edge13_Node000010_Node000012"><a xlink:title=" ">
<path fill="none" stroke="#9a32cd" stroke-dasharray="5,2" d="M358.78,-56.67C398.68,-57.21 447.74,-62.97 486.75,-83.45 520.83,-101.35 546.36,-141.39 557.13,-160.57"/>
<polygon fill="#9a32cd" stroke="#9a32cd" points="359.04,-53.17 349.04,-56.66 359.03,-60.17 359.04,-53.17"/>
</a>
</g>
<text text-anchor="middle" x="430.75" y="-87.45" font-family="Helvetica,sans-Serif" font-size="10.00" fill="grey"> IndexLookup</text>
</g>
<!-- Node13 -->
<g id="Node000013" class="node">
<title>Node13</title>
<g id="a_Node000013"><a xlink:href="structImVector.html" target="_top" xlink:title=" ">
<polygon fill="white" stroke="#666666" points="356.75,-202.58 212.5,-202.58 212.5,-181.83 356.75,-181.83 356.75,-202.58"/>
<text text-anchor="middle" x="284.62" y="-189.08" font-family="Helvetica,sans-Serif" font-size="10.00">ImVector&lt; ImFontGlyph &gt;</text>
</a>
</g>
</g>
<!-- Node13&#45;&gt;Node10 -->
<g id="edge14_Node000010_Node000013" class="edge">
<title>Node13&#45;&gt;Node10</title>
<g id="a_edge14_Node000010_Node000013"><a xlink:title=" ">
<path fill="none" stroke="#9a32cd" stroke-dasharray="5,2" d="M368.48,-181.05C370.59,-180.84 372.68,-180.64 374.75,-180.45 433.5,-175.14 502.86,-172.72 538.67,-171.76"/>
<polygon fill="#9a32cd" stroke="#9a32cd" points="368.16,-177.56 358.58,-182.1 368.9,-184.52 368.16,-177.56"/>
</a>
</g>
<text text-anchor="middle" x="430.75" y="-184.45" font-family="Helvetica,sans-Serif" font-size="10.00" fill="grey"> Glyphs</text>
</g>
<!-- Node14 -->
<g id="Node000014" class="node">
<title>Node14</title>
<g id="a_Node000014"><a xlink:href="structImFontGlyph.html" target="_top" xlink:title=" ">
<polygon fill="white" stroke="#666666" points="86.5,-177.58 8.25,-177.58 8.25,-156.83 86.5,-156.83 86.5,-177.58"/>
<text text-anchor="middle" x="47.38" y="-164.08" font-family="Helvetica,sans-Serif" font-size="10.00">ImFontGlyph</text>
</a>
</g>
</g>
<!-- Node14&#45;&gt;Node10 -->
<g id="edge16_Node000010_Node000014" class="edge">
<title>Node14&#45;&gt;Node10</title>
<g id="a_edge16_Node000010_Node000014"><a xlink:title=" ">
<path fill="none" stroke="#9a32cd" stroke-dasharray="5,2" d="M98.29,-164.62C130.8,-163.06 174.16,-161.24 212.5,-160.45 276.6,-159.14 292.66,-158.78 356.75,-160.45 422.62,-162.17 500.22,-166.97 538.66,-169.54"/>
<polygon fill="#9a32cd" stroke="#9a32cd" points="98.16,-161.12 88.34,-165.1 98.5,-168.11 98.16,-161.12"/>
</a>
</g>
<text text-anchor="middle" x="284.62" y="-164.45" font-family="Helvetica,sans-Serif" font-size="10.00" fill="grey"> FallbackGlyph</text>
</g>
<!-- Node14&#45;&gt;Node13 -->
<g id="edge15_Node000013_Node000014" class="edge">
<title>Node14&#45;&gt;Node13</title>
<g id="a_edge15_Node000013_Node000014"><a xlink:title=" ">
<path fill="none" stroke="#9a32cd" stroke-dasharray="5,2" d="M98.2,-172.5C131.34,-176.02 175.38,-180.7 212.23,-184.62"/>
<polygon fill="#9a32cd" stroke="#9a32cd" points="98.78,-169.04 88.46,-171.46 98.04,-176 98.78,-169.04"/>
</a>
</g>
<text text-anchor="middle" x="153.62" y="-186.45" font-family="Helvetica,sans-Serif" font-size="10.00" fill="grey"> Data</text>
</g>
<!-- Node15&#45;&gt;Node10 -->
<g id="edge17_Node000010_Node000015" class="edge">
<title>Node15&#45;&gt;Node10</title>
<g id="a_edge17_Node000010_Node000015"><a xlink:title=" ">
<path fill="none" stroke="#9a32cd" stroke-dasharray="5,2" d="M309.27,-252.9C326.6,-240.99 351.13,-225.72 374.75,-216.45 422.08,-197.89 437.41,-205.45 486.75,-193.2 504.21,-188.87 523.71,-183.21 538.58,-178.72"/>
<polygon fill="#9a32cd" stroke="#9a32cd" points="307.36,-249.96 301.2,-258.57 311.39,-255.68 307.36,-249.96"/>
</a>
</g>
<text text-anchor="middle" x="430.75" y="-220.45" font-family="Helvetica,sans-Serif" font-size="10.00" fill="grey"> ContainerAtlas</text>
</g>
<!-- Node16&#45;&gt;Node15 -->
<g id="edge19_Node000015_Node000016" class="edge">
<title>Node16&#45;&gt;Node15</title>
<g id="a_edge19_Node000015_Node000016"><a xlink:title=" ">
<path fill="none" stroke="#9a32cd" stroke-dasharray="5,2" d="M773.98,-214.4C681.27,-222.64 515.74,-238.38 374.75,-257.2 357.39,-259.52 338.16,-262.3 322.02,-264.69"/>
<polygon fill="#9a32cd" stroke="#9a32cd" points="774.03,-217.91 783.68,-213.54 773.41,-210.94 774.03,-217.91"/>
</a>
</g>
<text text-anchor="middle" x="563.75" y="-244.45" font-family="Helvetica,sans-Serif" font-size="10.00" fill="grey"> Fonts</text>
</g>
<!-- Node17 -->
<g id="Node000017" class="node">
<title>Node17</title>
<g id="a_Node000017"><a xlink:href="structImVector.html" target="_top" xlink:title=" ">
<polygon fill="white" stroke="#666666" points="1201,-366.95 1034.25,-366.95 1034.25,-333.45 1201,-333.45 1201,-366.95"/>
<text text-anchor="start" x="1042.25" y="-353.45" font-family="Helvetica,sans-Serif" font-size="10.00">ImVector&lt; ImFontAtlasCustom</text>
<text text-anchor="middle" x="1117.62" y="-340.7" font-family="Helvetica,sans-Serif" font-size="10.00">Rect &gt;</text>
</a>
</g>
</g>
<!-- Node17&#45;&gt;Node15 -->
<g id="edge21_Node000015_Node000017" class="edge">
<title>Node17&#45;&gt;Node15</title>
<g id="a_edge21_Node000015_Node000017"><a xlink:title=" ">
<path fill="none" stroke="#9a32cd" stroke-dasharray="5,2" d="M1022.93,-364.36C926.61,-376.56 772.52,-389.58 640.75,-371.2 515.69,-353.76 372.81,-303.36 313.59,-281.05"/>
<polygon fill="#9a32cd" stroke="#9a32cd" points="1023.12,-367.86 1032.59,-363.11 1022.22,-360.92 1023.12,-367.86"/>
</a>
</g>
<text text-anchor="middle" x="699.75" y="-382.45" font-family="Helvetica,sans-Serif" font-size="10.00" fill="grey"> CustomRects</text>
</g>
<!-- Node18&#45;&gt;Node17 -->
<g id="edge22_Node000017_Node000018" class="edge">
<title>Node18&#45;&gt;Node17</title>
<g id="a_edge22_Node000017_Node000018"><a xlink:title=" ">
<path fill="none" stroke="#9a32cd" stroke-dasharray="5,2" d="M925.91,-331.72C959.72,-335 999.4,-338.84 1033.79,-342.17"/>
<polygon fill="#9a32cd" stroke="#9a32cd" points="926.48,-328.26 916.19,-330.78 925.81,-335.22 926.48,-328.26"/>
</a>
</g>
<text text-anchor="middle" x="976.12" y="-343.45" font-family="Helvetica,sans-Serif" font-size="10.00" fill="grey"> Data</text>
</g>
<!-- Node19 -->
<g id="Node000019" class="node">
<title>Node19</title>
<g id="a_Node000019"><a xlink:href="structImVector.html" target="_top" xlink:title=" ">
<polygon fill="white" stroke="#666666" points="1190.88,-238.58 1044.38,-238.58 1044.38,-217.83 1190.88,-217.83 1190.88,-238.58"/>
<text text-anchor="middle" x="1117.62" y="-225.08" font-family="Helvetica,sans-Serif" font-size="10.00">ImVector&lt; ImFontConfig &gt;</text>
</a>
</g>
</g>
<!-- Node19&#45;&gt;Node15 -->
<g id="edge25_Node000015_Node000019" class="edge">
<title>Node19&#45;&gt;Node15</title>
<g id="a_edge25_Node000015_Node000019"><a xlink:title=" ">
<path fill="none" stroke="#9a32cd" stroke-dasharray="5,2" d="M1032.91,-232.74C934.68,-238.04 766.9,-246.99 622.75,-254.2 513.32,-259.68 383.87,-265.69 322.05,-268.54"/>
<polygon fill="#9a32cd" stroke="#9a32cd" points="1032.93,-236.25 1042.73,-232.21 1032.56,-229.26 1032.93,-236.25"/>
</a>
</g>
<text text-anchor="middle" x="699.75" y="-256.45" font-family="Helvetica,sans-Serif" font-size="10.00" fill="grey"> ConfigData</text>
</g>
<!-- Node20&#45;&gt;Node10 -->
<g id="edge31_Node000010_Node000020" class="edge">
<title>Node20&#45;&gt;Node10</title>
<g id="a_edge31_Node000010_Node000020"><a xlink:title=" ">
<path fill="none" stroke="#9a32cd" stroke-dasharray="5,2" d="M795.44,-155.51C753.81,-157.51 693.44,-160.67 640.75,-164.45 623.44,-165.7 603.95,-167.43 589.03,-168.84"/>
<polygon fill="#9a32cd" stroke="#9a32cd" points="795.6,-159.01 805.42,-155.04 795.26,-152.01 795.6,-159.01"/>
</a>
</g>
<text text-anchor="middle" x="699.75" y="-168.45" font-family="Helvetica,sans-Serif" font-size="10.00" fill="grey"> ConfigData</text>
</g>
<!-- Node20&#45;&gt;Node19 -->
<g id="edge26_Node000019_Node000020" class="edge">
<title>Node20&#45;&gt;Node19</title>
<g id="a_edge26_Node000019_Node000020"><a xlink:title=" ">
<path fill="none" stroke="#9a32cd" stroke-dasharray="5,2" d="M898.05,-167.09C950.01,-181.62 1030.48,-204.12 1077.92,-217.38"/>
<polygon fill="#9a32cd" stroke="#9a32cd" points="899.13,-163.76 888.55,-164.44 897.24,-170.5 899.13,-163.76"/>
</a>
</g>
<text text-anchor="middle" x="976.12" y="-203.45" font-family="Helvetica,sans-Serif" font-size="10.00" fill="grey"> Data</text>
</g>
<!-- Node21 -->
<g id="Node000021" class="node">
<title>Node21</title>
<g id="a_Node000021"><a xlink:href="structImFontBuilderIO.html" target="_top" xlink:title=" ">
<polygon fill="white" stroke="#666666" points="94.75,-280.58 0,-280.58 0,-259.83 94.75,-259.83 94.75,-280.58"/>
<text text-anchor="middle" x="47.38" y="-267.08" font-family="Helvetica,sans-Serif" font-size="10.00">ImFontBuilderIO</text>
</a>
</g>
</g>
<!-- Node21&#45;&gt;Node15 -->
<g id="edge30_Node000015_Node000021" class="edge">
<title>Node21&#45;&gt;Node15</title>
<g id="a_edge30_Node000015_Node000021"><a xlink:title=" ">
<path fill="none" stroke="#9a32cd" stroke-dasharray="5,2" d="M106.53,-270.2C150.46,-270.2 209.42,-270.2 246.98,-270.2"/>
<polygon fill="#9a32cd" stroke="#9a32cd" points="106.65,-266.7 96.65,-270.2 106.65,-273.7 106.65,-266.7"/>
</a>
</g>
<text text-anchor="middle" x="153.62" y="-273.45" font-family="Helvetica,sans-Serif" font-size="10.00" fill="grey"> FontBuilderIO</text>
</g>
<!-- Node22&#45;&gt;Node1 -->
<g id="edge36_Node000001_Node000022" class="edge">
<title>Node22&#45;&gt;Node1</title>
<g id="a_edge36_Node000001_Node000022"><a xlink:title=" ">
<path fill="none" stroke="#9a32cd" stroke-dasharray="5,2" d="M630.51,-551.78C633.97,-552.3 637.4,-552.78 640.75,-553.2 804.87,-574.12 1002.6,-583.09 1081.57,-586.03"/>
<polygon fill="#9a32cd" stroke="#9a32cd" points="631.35,-548.37 620.93,-550.26 630.26,-555.28 631.35,-548.37"/>
</a>
</g>
<text text-anchor="middle" x="847.38" y="-580.45" font-family="Helvetica,sans-Serif" font-size="10.00" fill="grey"> _Path</text>
</g>
<!-- Node22&#45;&gt;Node9 -->
<g id="edge33_Node000009_Node000022" class="edge">
<title>Node22&#45;&gt;Node9</title>
<g id="a_edge33_Node000009_Node000022"><a xlink:title=" ">
<path fill="none" stroke="#9a32cd" stroke-dasharray="5,2" d="M634.34,-539.45C679.74,-539.61 738.54,-539.82 782.7,-539.98"/>
<polygon fill="#9a32cd" stroke="#9a32cd" points="634.63,-535.95 624.62,-539.42 634.6,-542.95 634.63,-535.95"/>
</a>
</g>
<text text-anchor="middle" x="699.75" y="-542.45" font-family="Helvetica,sans-Serif" font-size="10.00" fill="grey"> TempBuffer</text>
</g>
<!-- Node23&#45;&gt;Node1 -->
<g id="edge37_Node000001_Node000023" class="edge">
<title>Node23&#45;&gt;Node1</title>
<g id="a_edge37_Node000001_Node000023"><a xlink:title=" ">
<path fill="none" stroke="#9a32cd" stroke-dasharray="5,2" d="M498.54,-677.51C592.69,-675.64 769.54,-668.81 918,-644.2 979.41,-634.03 1048.81,-611.46 1087.17,-597.98"/>
<polygon fill="#9a32cd" stroke="#9a32cd" points="498.65,-674.01 488.72,-677.69 498.78,-681.01 498.65,-674.01"/>
</a>
</g>
<text text-anchor="middle" x="699.75" y="-674.45" font-family="Helvetica,sans-Serif" font-size="10.00" fill="grey"> _CmdHeader</text>
</g>
<!-- Node24 -->
<g id="Node000024" class="node">
<title>Node24</title>
<g id="a_Node000024"><a xlink:href="structImDrawListSplitter.html" target="_top" xlink:title=" ">
<polygon fill="white" stroke="#666666" points="2194.5,-613.58 2087.75,-613.58 2087.75,-592.83 2194.5,-592.83 2194.5,-613.58"/>
<text text-anchor="middle" x="2141.12" y="-600.08" font-family="Helvetica,sans-Serif" font-size="10.00">ImDrawListSplitter</text>
</a>
</g>
</g>
<!-- Node24&#45;&gt;Node1 -->
<g id="edge39_Node000001_Node000024" class="edge">
<title>Node24&#45;&gt;Node1</title>
<g id="a_edge39_Node000001_Node000024"><a xlink:title=" ">
<path fill="none" stroke="#9a32cd" stroke-dasharray="5,2" d="M2076.2,-596.11C2032.2,-591.83 1972.38,-587.2 1919.5,-587.2 1341.88,-587.2 1341.88,-587.2 1341.88,-587.2 1275.4,-587.2 1197.8,-587.2 1153.81,-587.2"/>
<polygon fill="#9a32cd" stroke="#9a32cd" points="2075.8,-599.59 2086.1,-597.1 2076.49,-592.62 2075.8,-599.59"/>
</a>
</g>
<text text-anchor="middle" x="1634.25" y="-590.45" font-family="Helvetica,sans-Serif" font-size="10.00" fill="grey"> _Splitter</text>
</g>
<!-- Node25 -->
<g id="Node000025" class="node">
<title>Node25</title>
<g id="a_Node000025"><a xlink:href="structImVector.html" target="_top" xlink:title=" ">
<polygon fill="white" stroke="#666666" points="1998.5,-659.58 1838.5,-659.58 1838.5,-638.83 1998.5,-638.83 1998.5,-659.58"/>
<text text-anchor="middle" x="1918.5" y="-646.08" font-family="Helvetica,sans-Serif" font-size="10.00">ImVector&lt; ImDrawChannel &gt;</text>
</a>
</g>
</g>
<!-- Node25&#45;&gt;Node24 -->
<g id="edge40_Node000024_Node000025" class="edge">
<title>Node25&#45;&gt;Node24</title>
<g id="a_edge40_Node000024_Node000025"><a xlink:title=" ">
<path fill="none" stroke="#9a32cd" stroke-dasharray="5,2" d="M1982.54,-636.06C2015.95,-629.09 2056.49,-620.64 2088.09,-614.05"/>
<polygon fill="#9a32cd" stroke="#9a32cd" points="1982.06,-632.58 1972.99,-638.05 1983.49,-639.44 1982.06,-632.58"/>
</a>
</g>
<text text-anchor="middle" x="2043.12" y="-631.45" font-family="Helvetica,sans-Serif" font-size="10.00" fill="grey"> _Channels</text>
</g>
<!-- Node26&#45;&gt;Node25 -->
<g id="edge41_Node000025_Node000026" class="edge">
<title>Node26&#45;&gt;Node25</title>
<g id="a_edge41_Node000025_Node000026"><a xlink:title=" ">
<path fill="none" stroke="#9a32cd" stroke-dasharray="5,2" d="M1787.81,-656.82C1803.73,-655.89 1821.29,-654.86 1838.22,-653.86"/>
<polygon fill="#9a32cd" stroke="#9a32cd" points="1787.82,-653.31 1778.05,-657.4 1788.24,-660.3 1787.82,-653.31"/>
</a>
</g>
<text text-anchor="middle" x="1807.38" y="-659.45" font-family="Helvetica,sans-Serif" font-size="10.00" fill="grey"> Data</text>
</g>
<!-- Node27&#45;&gt;Node1 -->
<g id="edge44_Node000001_Node000027" class="edge">
<title>Node27&#45;&gt;Node1</title>
<g id="a_edge44_Node000001_Node000027"><a xlink:title=" ">
<path fill="none" stroke="#9a32cd" stroke-dasharray="5,2" d="M770.37,-628.57C834.32,-621.48 931.71,-610.5 1016.25,-600.2 1038.05,-597.55 1062.5,-594.39 1081.8,-591.85"/>
<polygon fill="#9a32cd" stroke="#9a32cd" points="770.28,-625.05 760.72,-629.63 771.05,-632.01 770.28,-625.05"/>
</a>
</g>
<text text-anchor="middle" x="847.38" y="-630.45" font-family="Helvetica,sans-Serif" font-size="10.00" fill="grey"> _ClipRectStack</text>
</g>
<!-- Node28 -->
<g id="Node000028" class="node">
<title>Node28</title>
<g id="a_Node000028"><a xlink:href="structImVector.html" target="_top" xlink:title=" ">
<polygon fill="white" stroke="#666666" points="918,-472.58 776.75,-472.58 776.75,-451.83 918,-451.83 918,-472.58"/>
<text text-anchor="middle" x="847.38" y="-459.08" font-family="Helvetica,sans-Serif" font-size="10.00">ImVector&lt; ImTextureID &gt;</text>
</a>
</g>
</g>
<!-- Node28&#45;&gt;Node1 -->
<g id="edge46_Node000001_Node000028" class="edge">
<title>Node28&#45;&gt;Node1</title>
<g id="a_edge46_Node000001_Node000028"><a xlink:title=" ">
<path fill="none" stroke="#9a32cd" stroke-dasharray="5,2" d="M929.36,-468.54C957.95,-473.12 989.59,-480.98 1016.25,-494.45 1056.91,-515 1093.04,-556.9 1108.57,-576.56"/>
<polygon fill="#9a32cd" stroke="#9a32cd" points="930.06,-465.1 919.65,-467.1 929.03,-472.03 930.06,-465.1"/>
</a>
</g>
<text text-anchor="middle" x="976.12" y="-497.45" font-family="Helvetica,sans-Serif" font-size="10.00" fill="grey"> _TextureIdStack</text>
</g>
</g>
</svg>

<g id="navigator" transform="translate(0 0)" fill="#404254">
  <rect fill="#f2f5e9" fill-opacity="0.5" stroke="#606060" stroke-width=".5" x="0" y="0" width="60" height="60"/>
  <use id="zoomplus" xlink:href="#zoomPlus" x="17" y="9" onmousedown="handleZoom(evt,'in')"/>
  <use id="zoomminus" xlink:href="#zoomMin" x="42" y="9" onmousedown="handleZoom(evt,'out')"/>
  <use id="reset" xlink:href="#resetDef" x="30" y="36" onmousedown="handleReset()"/>
   <use id="arrowup" xlink:href="#arrowUp" x="0" y="0" onmousedown="handlePan(0,-1)"/>
  <use id="arrowright" xlink:href="#arrowRight" x="0" y="0" onmousedown="handlePan(1,0)"/>
  <use id="arrowdown" xlink:href="#arrowDown" x="0" y="0" onmousedown="handlePan(0,1)"/>
  <use id="arrowleft" xlink:href="#arrowLeft" x="0" y="0" onmousedown="handlePan(-1,0)"/>
</g>
<svg viewBox="0 0 15 15" width="100%" height="30px" preserveAspectRatio="xMaxYMin meet">
 <g id="arrow_out" transform="scale(0.3 0.3)">
  <a xlink:href="structImDrawList__coll__graph_org.svg" target="_base">
   <rect id="button" ry="5" rx="5" y="6" x="6" height="38" width="38"
        fill="#f2f5e9" fill-opacity="0.5" stroke="#606060" stroke-width="1.0"/>
   <path id="arrow"
     d="M 11.500037,31.436501 C 11.940474,20.09759 22.043105,11.32322 32.158766,21.979434 L 37.068811,17.246167 C 37.068811,17.246167 37.088388,32 37.088388,32 L 22.160133,31.978069 C 22.160133,31.978069 26.997745,27.140456 26.997745,27.140456 C 18.528582,18.264221 13.291696,25.230495 11.500037,31.436501 z"
     style="fill:#404040;"/>
  </a>
 </g>
</svg>

<style type='text/css'>
<![CDATA[
[data-mouse-over-selected='false'] { opacity: 0.7; }
[data-mouse-over-selected='true']  { opacity: 1.0; }
]]>
</style>
<script type="application/ecmascript"><![CDATA[
document.addEventListener('DOMContentLoaded', (event) => {
  highlightEdges();
  highlightAdjacentNodes();
});
]]></script>
</svg>
