<?xml version="1.0" encoding="UTF-8" standalone="no"?>
<!DOCTYPE svg PUBLIC "-//W3C//DTD SVG 1.1//EN"
 "http://www.w3.org/Graphics/SVG/1.1/DTD/svg11.dtd">
<!-- Generated by graphviz version 12.2.1 (20241206.2353)
 -->
<!-- Title: ImFontAtlas::AddFontFromMemoryTTF Pages: 1 -->
<svg width="491pt" height="42pt"
 viewBox="0.00 0.00 491.00 41.50" xmlns="http://www.w3.org/2000/svg" xmlns:xlink="http://www.w3.org/1999/xlink">
<g id="graph0" class="graph" transform="scale(1 1) rotate(0) translate(4 37.5)">
<title>ImFontAtlas::AddFontFromMemoryTTF</title>
<!-- Node1 -->
<g id="Node000001" class="node">
<title>Node1</title>
<g id="a_Node000001"><a xlink:title=" ">
<polygon fill="#999999" stroke="#666666" points="145,-33.5 0,-33.5 0,0 145,0 145,-33.5"/>
<text text-anchor="start" x="8" y="-20" font-family="Helvetica,sans-Serif" font-size="10.00">ImFontAtlas::AddFontFrom</text>
<text text-anchor="middle" x="72.5" y="-7.25" font-family="Helvetica,sans-Serif" font-size="10.00">MemoryTTF</text>
</a>
</g>
</g>
<!-- Node2 -->
<g id="Node000002" class="node">
<title>Node2</title>
<g id="a_Node000002"><a xlink:href="structImFontAtlas.html#ad01c0f19a95d37a9e5ebab1e54525625" target="_top" xlink:title=" ">
<polygon fill="white" stroke="#666666" points="301.25,-27.12 181,-27.12 181,-6.38 301.25,-6.38 301.25,-27.12"/>
<text text-anchor="middle" x="241.12" y="-13.62" font-family="Helvetica,sans-Serif" font-size="10.00">ImFontAtlas::AddFont</text>
</a>
</g>
</g>
<!-- Node1&#45;&gt;Node2 -->
<g id="edge1_Node000001_Node000002" class="edge">
<title>Node1&#45;&gt;Node2</title>
<g id="a_edge1_Node000001_Node000002"><a xlink:title=" ">
<path fill="none" stroke="#63b8ff" d="M145.13,-16.75C153.07,-16.75 161.16,-16.75 169.09,-16.75"/>
<polygon fill="#63b8ff" stroke="#63b8ff" points="169.06,-20.25 179.06,-16.75 169.06,-13.25 169.06,-20.25"/>
</a>
</g>
</g>
<!-- Node3 -->
<g id="Node000003" class="node">
<title>Node3</title>
<g id="a_Node000003"><a xlink:href="structImFontAtlas.html#a3ede4bd513bec044c77ac392ad9c6e86" target="_top" xlink:title=" ">
<polygon fill="white" stroke="#666666" points="483,-27.12 337.25,-27.12 337.25,-6.38 483,-6.38 483,-27.12"/>
<text text-anchor="middle" x="410.12" y="-13.62" font-family="Helvetica,sans-Serif" font-size="10.00">ImFontAtlas::ClearTexData</text>
</a>
</g>
</g>
<!-- Node2&#45;&gt;Node3 -->
<g id="edge2_Node000002_Node000003" class="edge">
<title>Node2&#45;&gt;Node3</title>
<g id="a_edge2_Node000002_Node000003"><a xlink:title=" ">
<path fill="none" stroke="#63b8ff" d="M301.47,-16.75C309.25,-16.75 317.33,-16.75 325.41,-16.75"/>
<polygon fill="#63b8ff" stroke="#63b8ff" points="325.29,-20.25 335.29,-16.75 325.29,-13.25 325.29,-20.25"/>
</a>
</g>
</g>
</g>
</svg>
