<?xml version="1.0" encoding="UTF-8" standalone="no"?>
<!DOCTYPE svg PUBLIC "-//W3C//DTD SVG 1.1//EN"
 "http://www.w3.org/Graphics/SVG/1.1/DTD/svg11.dtd">
<!-- Generated by graphviz version 12.2.1 (20241206.2353)
 -->
<!-- Title: ImFont::RenderChar Pages: 1 -->
<svg width="668pt" height="113pt"
 viewBox="0.00 0.00 668.25 113.12" xmlns="http://www.w3.org/2000/svg" xmlns:xlink="http://www.w3.org/1999/xlink">
<g id="graph0" class="graph" transform="scale(1 1) rotate(0) translate(4 109.12)">
<title>ImFont::RenderChar</title>
<!-- Node1 -->
<g id="Node000001" class="node">
<title>Node1</title>
<g id="a_Node000001"><a xlink:title=" ">
<polygon fill="#999999" stroke="#666666" points="112.75,-66.12 0,-66.12 0,-45.38 112.75,-45.38 112.75,-66.12"/>
<text text-anchor="middle" x="56.38" y="-52.62" font-family="Helvetica,sans-Serif" font-size="10.00">ImFont::RenderChar</text>
</a>
</g>
</g>
<!-- Node2 -->
<g id="Node000002" class="node">
<title>Node2</title>
<g id="a_Node000002"><a xlink:href="structImFont.html#ac6a773b73c6406fd8f08c4c93213a501" target="_top" xlink:title=" ">
<polygon fill="white" stroke="#666666" points="270.88,-105.12 166.38,-105.12 166.38,-84.38 270.88,-84.38 270.88,-105.12"/>
<text text-anchor="middle" x="218.62" y="-91.62" font-family="Helvetica,sans-Serif" font-size="10.00">ImFont::FindGlyph</text>
</a>
</g>
</g>
<!-- Node1&#45;&gt;Node2 -->
<g id="edge1_Node000001_Node000002" class="edge">
<title>Node1&#45;&gt;Node2</title>
<g id="a_edge1_Node000001_Node000002"><a xlink:title=" ">
<path fill="none" stroke="#63b8ff" d="M102.01,-66.61C120.6,-71.14 142.39,-76.44 162,-81.21"/>
<polygon fill="#63b8ff" stroke="#63b8ff" points="160.93,-84.56 171.48,-83.52 162.59,-77.75 160.93,-84.56"/>
</a>
</g>
</g>
<!-- Node3 -->
<g id="Node000003" class="node">
<title>Node3</title>
<g id="a_Node000003"><a xlink:href="structImDrawList.html#a77d48ed5b33ccdd908824c0a3bebfff8" target="_top" xlink:title=" ">
<polygon fill="white" stroke="#666666" points="286.62,-66.12 150.62,-66.12 150.62,-45.38 286.62,-45.38 286.62,-66.12"/>
<text text-anchor="middle" x="218.62" y="-52.62" font-family="Helvetica,sans-Serif" font-size="10.00">ImDrawList::PrimRectUV</text>
</a>
</g>
</g>
<!-- Node1&#45;&gt;Node3 -->
<g id="edge2_Node000001_Node000003" class="edge">
<title>Node1&#45;&gt;Node3</title>
<g id="a_edge2_Node000001_Node000003"><a xlink:title=" ">
<path fill="none" stroke="#63b8ff" d="M112.97,-55.75C121.33,-55.75 130.09,-55.75 138.82,-55.75"/>
<polygon fill="#63b8ff" stroke="#63b8ff" points="138.74,-59.25 148.74,-55.75 138.74,-52.25 138.74,-59.25"/>
</a>
</g>
</g>
<!-- Node4 -->
<g id="Node000004" class="node">
<title>Node4</title>
<g id="a_Node000004"><a xlink:href="structImDrawList.html#a879aa38dbfb0344e3e023d65c002c7d7" target="_top" xlink:title=" ">
<polygon fill="white" stroke="#666666" points="288.5,-27.12 148.75,-27.12 148.75,-6.38 288.5,-6.38 288.5,-27.12"/>
<text text-anchor="middle" x="218.62" y="-13.62" font-family="Helvetica,sans-Serif" font-size="10.00">ImDrawList::PrimReserve</text>
</a>
</g>
</g>
<!-- Node1&#45;&gt;Node4 -->
<g id="edge3_Node000001_Node000004" class="edge">
<title>Node1&#45;&gt;Node4</title>
<g id="a_edge3_Node000001_Node000004"><a xlink:title=" ">
<path fill="none" stroke="#63b8ff" d="M102.01,-44.89C120.6,-40.36 142.39,-35.06 162,-30.29"/>
<polygon fill="#63b8ff" stroke="#63b8ff" points="162.59,-33.75 171.48,-27.98 160.93,-26.94 162.59,-33.75"/>
</a>
</g>
</g>
<!-- Node5 -->
<g id="Node000005" class="node">
<title>Node5</title>
<g id="a_Node000005"><a xlink:href="structImDrawList.html#a7f2e315f147acd8b555d86d1557659cc" target="_top" xlink:title=" ">
<polygon fill="white" stroke="#666666" points="480,-33.5 324.5,-33.5 324.5,0 480,0 480,-33.5"/>
<text text-anchor="start" x="332.5" y="-20" font-family="Helvetica,sans-Serif" font-size="10.00">ImDrawList::_OnChangedVtx</text>
<text text-anchor="middle" x="402.25" y="-7.25" font-family="Helvetica,sans-Serif" font-size="10.00">Offset</text>
</a>
</g>
</g>
<!-- Node4&#45;&gt;Node5 -->
<g id="edge4_Node000004_Node000005" class="edge">
<title>Node4&#45;&gt;Node5</title>
<g id="a_edge4_Node000004_Node000005"><a xlink:title=" ">
<path fill="none" stroke="#63b8ff" d="M288.81,-16.75C296.64,-16.75 304.71,-16.75 312.75,-16.75"/>
<polygon fill="#63b8ff" stroke="#63b8ff" points="312.56,-20.25 322.56,-16.75 312.56,-13.25 312.56,-20.25"/>
</a>
</g>
</g>
<!-- Node6 -->
<g id="Node000006" class="node">
<title>Node6</title>
<g id="a_Node000006"><a xlink:href="structImDrawList.html#a846714bb0321c6f1f908767abc8559e6" target="_top" xlink:title=" ">
<polygon fill="white" stroke="#666666" points="660.25,-27.12 516,-27.12 516,-6.38 660.25,-6.38 660.25,-27.12"/>
<text text-anchor="middle" x="588.12" y="-13.62" font-family="Helvetica,sans-Serif" font-size="10.00">ImDrawList::AddDrawCmd</text>
</a>
</g>
</g>
<!-- Node5&#45;&gt;Node6 -->
<g id="edge5_Node000005_Node000006" class="edge">
<title>Node5&#45;&gt;Node6</title>
<g id="a_edge5_Node000005_Node000006"><a xlink:title=" ">
<path fill="none" stroke="#63b8ff" d="M480.43,-16.75C488.29,-16.75 496.29,-16.75 504.21,-16.75"/>
<polygon fill="#63b8ff" stroke="#63b8ff" points="504.2,-20.25 514.2,-16.75 504.2,-13.25 504.2,-20.25"/>
</a>
</g>
</g>
</g>
</svg>
