<?xml version="1.0" encoding="UTF-8" standalone="no"?>
<!DOCTYPE svg PUBLIC "-//W3C//DTD SVG 1.1//EN"
 "http://www.w3.org/Graphics/SVG/1.1/DTD/svg11.dtd">
<!-- Generated by graphviz version 12.2.1 (20241206.2353)
 -->
<!-- Title: ImTriangulator Pages: 1 -->
<svg width="241pt" height="255pt"
 viewBox="0.00 0.00 241.00 254.75" xmlns="http://www.w3.org/2000/svg" xmlns:xlink="http://www.w3.org/1999/xlink">

<svg id="main" version="1.1" xmlns="http://www.w3.org/2000/svg" xmlns:xlink="http://www.w3.org/1999/xlink" xml:space="preserve">

<style type="text/css"><![CDATA[
.node, .edge {opacity: 0.7;}
.node.selected, .edge.selected {opacity: 1;}
.edge:hover path { stroke: red; }
.edge:hover polygon { stroke: red; fill: red; }
]]></style>
<script type="application/ecmascript" xlink:href="svg.min.js"/>
<svg id="graph" class="graph">
<g id="graph0" class="graph" transform="scale(1 1) rotate(0) translate(4 250.75)">
<title>ImTriangulator</title>
<!-- Node1 -->
<g id="Node000001" class="node">
<title>Node1</title>
<g id="a_Node000001"><a xlink:title=" ">
<polygon fill="#999999" stroke="#666666" points="99.25,-20.75 12.75,-20.75 12.75,0 99.25,0 99.25,-20.75"/>
<text text-anchor="middle" x="56" y="-7.25" font-family="Helvetica,sans-Serif" font-size="10.00">ImTriangulator</text>
</a>
</g>
</g>
<!-- Node2 -->
<g id="Node000002" class="node">
<title>Node2</title>
<g id="a_Node000002"><a xlink:href="structImTriangulatorNode.html" target="_top" xlink:title=" ">
<polygon fill="white" stroke="#666666" points="112,-174.88 0,-174.88 0,-154.12 112,-154.12 112,-174.88"/>
<text text-anchor="middle" x="56" y="-161.38" font-family="Helvetica,sans-Serif" font-size="10.00">ImTriangulatorNode</text>
</a>
</g>
</g>
<!-- Node2&#45;&gt;Node1 -->
<g id="edge1_Node000001_Node000002" class="edge">
<title>Node2&#45;&gt;Node1</title>
<g id="a_edge1_Node000001_Node000002"><a xlink:title=" ">
<path fill="none" stroke="#9a32cd" stroke-dasharray="5,2" d="M52.97,-142.51C51.44,-130.89 49.76,-116.18 49,-103 47.27,-73.06 51.86,-37.68 54.42,-21"/>
<polygon fill="#9a32cd" stroke="#9a32cd" points="49.47,-142.75 54.3,-152.18 56.4,-141.8 49.47,-142.75"/>
</a>
</g>
<text text-anchor="middle" x="68.5" y="-89.5" font-family="Helvetica,sans-Serif" font-size="10.00" fill="grey"> _Nodes</text>
</g>
<!-- Node2&#45;&gt;Node2 -->
<g id="edge3_Node000002_Node000002" class="edge">
<title>Node2&#45;&gt;Node2</title>
<g id="a_edge3_Node000002_Node000002"><a xlink:title=" ">
<path fill="none" stroke="#9a32cd" stroke-dasharray="5,2" d="M123.55,-169.3C127.58,-168.15 130,-166.55 130,-164.5 130,-160.95 122.77,-158.75 112.46,-157.92"/>
<polygon fill="#9a32cd" stroke="#9a32cd" points="123.28,-165.8 113.96,-170.84 124.39,-172.71 123.28,-165.8"/>
</a>
</g>
<text text-anchor="middle" x="143.12" y="-167.75" font-family="Helvetica,sans-Serif" font-size="10.00" fill="grey"> Next</text>
<text text-anchor="middle" x="143.12" y="-155" font-family="Helvetica,sans-Serif" font-size="10.00" fill="grey">Prev</text>
</g>
<!-- Node4 -->
<g id="Node000004" class="node">
<title>Node4</title>
<g id="a_Node000004"><a xlink:href="structImTriangulatorNodeSpan.html" target="_top" xlink:title=" ">
<polygon fill="white" stroke="#666666" points="233,-103 97,-103 97,-82.25 233,-82.25 233,-103"/>
<text text-anchor="middle" x="165" y="-89.5" font-family="Helvetica,sans-Serif" font-size="10.00">ImTriangulatorNodeSpan</text>
</a>
</g>
</g>
<!-- Node2&#45;&gt;Node4 -->
<g id="edge5_Node000004_Node000002" class="edge">
<title>Node2&#45;&gt;Node4</title>
<g id="a_edge5_Node000004_Node000002"><a xlink:title=" ">
<path fill="none" stroke="#9a32cd" stroke-dasharray="5,2" d="M80.76,-147.62C101.93,-134.05 131.73,-114.96 149.62,-103.48"/>
<polygon fill="#9a32cd" stroke="#9a32cd" points="78.96,-144.62 72.43,-152.97 82.74,-150.52 78.96,-144.62"/>
</a>
</g>
<text text-anchor="middle" x="133.39" y="-124.25" font-family="Helvetica,sans-Serif" font-size="10.00" fill="grey"> Data</text>
</g>
<!-- Node3 -->
<g id="Node000003" class="node">
<title>Node3</title>
<g id="a_Node000003"><a xlink:href="structImVec2.html" target="_top" xlink:title=" ">
<polygon fill="white" stroke="#666666" points="82,-246.75 30,-246.75 30,-226 82,-226 82,-246.75"/>
<text text-anchor="middle" x="56" y="-233.25" font-family="Helvetica,sans-Serif" font-size="10.00">ImVec2</text>
</a>
</g>
</g>
<!-- Node3&#45;&gt;Node2 -->
<g id="edge2_Node000002_Node000003" class="edge">
<title>Node3&#45;&gt;Node2</title>
<g id="a_edge2_Node000002_Node000003"><a xlink:title=" ">
<path fill="none" stroke="#9a32cd" stroke-dasharray="5,2" d="M56,-214.41C56,-201.37 56,-185.22 56,-175.13"/>
<polygon fill="#9a32cd" stroke="#9a32cd" points="52.5,-214.15 56,-224.15 59.5,-214.15 52.5,-214.15"/>
</a>
</g>
<text text-anchor="middle" x="66.12" y="-198.5" font-family="Helvetica,sans-Serif" font-size="10.00" fill="grey"> Pos</text>
</g>
<!-- Node4&#45;&gt;Node1 -->
<g id="edge4_Node000001_Node000004" class="edge">
<title>Node4&#45;&gt;Node1</title>
<g id="a_edge4_Node000001_Node000004"><a xlink:title=" ">
<path fill="none" stroke="#9a32cd" stroke-dasharray="5,2" d="M142.61,-75.14C120.47,-58.84 87.33,-34.44 69.13,-21.05"/>
<polygon fill="#9a32cd" stroke="#9a32cd" points="140.29,-77.78 150.42,-80.89 144.44,-72.14 140.29,-77.78"/>
</a>
</g>
<text text-anchor="middle" x="149.88" y="-54.75" font-family="Helvetica,sans-Serif" font-size="10.00" fill="grey"> _Ears</text>
<text text-anchor="middle" x="149.88" y="-42" font-family="Helvetica,sans-Serif" font-size="10.00" fill="grey">_Reflexes</text>
</g>
</g>
</svg>
</svg>

<style type='text/css'>
<![CDATA[
[data-mouse-over-selected='false'] { opacity: 0.7; }
[data-mouse-over-selected='true']  { opacity: 1.0; }
]]>
</style>
<script type="application/ecmascript"><![CDATA[
document.addEventListener('DOMContentLoaded', (event) => {
  highlightEdges();
  highlightAdjacentNodes();
});
]]></script>
</svg>
