<?xml version="1.0" encoding="UTF-8" standalone="no"?>
<!DOCTYPE svg PUBLIC "-//W3C//DTD SVG 1.1//EN"
 "http://www.w3.org/Graphics/SVG/1.1/DTD/svg11.dtd">
<!-- Generated by graphviz version 12.2.1 (20241206.2353)
 -->
<!-- Title: ImDrawList::AddTriangle Pages: 1 -->
<svg width="1027pt" height="74pt"
 viewBox="0.00 0.00 1026.50 74.12" xmlns="http://www.w3.org/2000/svg" xmlns:xlink="http://www.w3.org/1999/xlink">
<g id="graph0" class="graph" transform="scale(1 1) rotate(0) translate(4 70.12)">
<title>ImDrawList::AddTriangle</title>
<!-- Node1 -->
<g id="Node000001" class="node">
<title>Node1</title>
<g id="a_Node000001"><a xlink:title=" ">
<polygon fill="#999999" stroke="#666666" points="134.5,-46.12 0,-46.12 0,-25.38 134.5,-25.38 134.5,-46.12"/>
<text text-anchor="middle" x="67.25" y="-32.62" font-family="Helvetica,sans-Serif" font-size="10.00">ImDrawList::AddTriangle</text>
</a>
</g>
</g>
<!-- Node2 -->
<g id="Node000002" class="node">
<title>Node2</title>
<g id="a_Node000002"><a xlink:href="structImDrawList.html#a828d944325ed58d8b57abd3647bffaaf" target="_top" xlink:title=" ">
<polygon fill="white" stroke="#666666" points="299.75,-66.12 170.5,-66.12 170.5,-45.38 299.75,-45.38 299.75,-66.12"/>
<text text-anchor="middle" x="235.12" y="-52.62" font-family="Helvetica,sans-Serif" font-size="10.00">ImDrawList::PathLineTo</text>
</a>
</g>
</g>
<!-- Node1&#45;&gt;Node2 -->
<g id="edge1_Node000001_Node000002" class="edge">
<title>Node1&#45;&gt;Node2</title>
<g id="a_edge1_Node000001_Node000002"><a xlink:title=" ">
<path fill="none" stroke="#63b8ff" d="M134.76,-43.77C142.66,-44.72 150.77,-45.7 158.79,-46.67"/>
<polygon fill="#63b8ff" stroke="#63b8ff" points="158.18,-50.12 168.52,-47.84 159.01,-43.17 158.18,-50.12"/>
</a>
</g>
</g>
<!-- Node3 -->
<g id="Node000003" class="node">
<title>Node3</title>
<g id="a_Node000003"><a xlink:href="structImDrawList.html#a60bf9040ef3d09b39c4ba8f5a2a68ae9" target="_top" xlink:title=" ">
<polygon fill="white" stroke="#666666" points="299.75,-27.12 170.5,-27.12 170.5,-6.38 299.75,-6.38 299.75,-27.12"/>
<text text-anchor="middle" x="235.12" y="-13.62" font-family="Helvetica,sans-Serif" font-size="10.00">ImDrawList::PathStroke</text>
</a>
</g>
</g>
<!-- Node1&#45;&gt;Node3 -->
<g id="edge2_Node000001_Node000003" class="edge">
<title>Node1&#45;&gt;Node3</title>
<g id="a_edge2_Node000001_Node000003"><a xlink:title=" ">
<path fill="none" stroke="#63b8ff" d="M134.76,-28.13C142.66,-27.23 150.77,-26.3 158.79,-25.38"/>
<polygon fill="#63b8ff" stroke="#63b8ff" points="158.98,-28.88 168.52,-24.26 158.19,-21.93 158.98,-28.88"/>
</a>
</g>
</g>
<!-- Node4 -->
<g id="Node000004" class="node">
<title>Node4</title>
<g id="a_Node000004"><a xlink:href="structImDrawList.html#abc568847b1113e624456436bfab1b307" target="_top" xlink:title=" ">
<polygon fill="white" stroke="#666666" points="471,-27.12 335.75,-27.12 335.75,-6.38 471,-6.38 471,-27.12"/>
<text text-anchor="middle" x="403.38" y="-13.62" font-family="Helvetica,sans-Serif" font-size="10.00">ImDrawList::AddPolyline</text>
</a>
</g>
</g>
<!-- Node3&#45;&gt;Node4 -->
<g id="edge3_Node000003_Node000004" class="edge">
<title>Node3&#45;&gt;Node4</title>
<g id="a_edge3_Node000003_Node000004"><a xlink:title=" ">
<path fill="none" stroke="#63b8ff" d="M299.93,-16.75C307.83,-16.75 315.98,-16.75 324.07,-16.75"/>
<polygon fill="#63b8ff" stroke="#63b8ff" points="323.92,-20.25 333.92,-16.75 323.92,-13.25 323.92,-20.25"/>
</a>
</g>
</g>
<!-- Node5 -->
<g id="Node000005" class="node">
<title>Node5</title>
<g id="a_Node000005"><a xlink:href="structImDrawList.html#a879aa38dbfb0344e3e023d65c002c7d7" target="_top" xlink:title=" ">
<polygon fill="white" stroke="#666666" points="646.75,-27.12 507,-27.12 507,-6.38 646.75,-6.38 646.75,-27.12"/>
<text text-anchor="middle" x="576.88" y="-13.62" font-family="Helvetica,sans-Serif" font-size="10.00">ImDrawList::PrimReserve</text>
</a>
</g>
</g>
<!-- Node4&#45;&gt;Node5 -->
<g id="edge4_Node000004_Node000005" class="edge">
<title>Node4&#45;&gt;Node5</title>
<g id="a_edge4_Node000004_Node000005"><a xlink:title=" ">
<path fill="none" stroke="#63b8ff" d="M471.17,-16.75C479.1,-16.75 487.25,-16.75 495.35,-16.75"/>
<polygon fill="#63b8ff" stroke="#63b8ff" points="495.2,-20.25 505.2,-16.75 495.2,-13.25 495.2,-20.25"/>
</a>
</g>
</g>
<!-- Node6 -->
<g id="Node000006" class="node">
<title>Node6</title>
<g id="a_Node000006"><a xlink:href="structImDrawList.html#a7f2e315f147acd8b555d86d1557659cc" target="_top" xlink:title=" ">
<polygon fill="white" stroke="#666666" points="838.25,-33.5 682.75,-33.5 682.75,0 838.25,0 838.25,-33.5"/>
<text text-anchor="start" x="690.75" y="-20" font-family="Helvetica,sans-Serif" font-size="10.00">ImDrawList::_OnChangedVtx</text>
<text text-anchor="middle" x="760.5" y="-7.25" font-family="Helvetica,sans-Serif" font-size="10.00">Offset</text>
</a>
</g>
</g>
<!-- Node5&#45;&gt;Node6 -->
<g id="edge5_Node000005_Node000006" class="edge">
<title>Node5&#45;&gt;Node6</title>
<g id="a_edge5_Node000005_Node000006"><a xlink:title=" ">
<path fill="none" stroke="#63b8ff" d="M647.06,-16.75C654.89,-16.75 662.96,-16.75 671,-16.75"/>
<polygon fill="#63b8ff" stroke="#63b8ff" points="670.81,-20.25 680.81,-16.75 670.81,-13.25 670.81,-20.25"/>
</a>
</g>
</g>
<!-- Node7 -->
<g id="Node000007" class="node">
<title>Node7</title>
<g id="a_Node000007"><a xlink:href="structImDrawList.html#a846714bb0321c6f1f908767abc8559e6" target="_top" xlink:title=" ">
<polygon fill="white" stroke="#666666" points="1018.5,-27.12 874.25,-27.12 874.25,-6.38 1018.5,-6.38 1018.5,-27.12"/>
<text text-anchor="middle" x="946.38" y="-13.62" font-family="Helvetica,sans-Serif" font-size="10.00">ImDrawList::AddDrawCmd</text>
</a>
</g>
</g>
<!-- Node6&#45;&gt;Node7 -->
<g id="edge6_Node000006_Node000007" class="edge">
<title>Node6&#45;&gt;Node7</title>
<g id="a_edge6_Node000006_Node000007"><a xlink:title=" ">
<path fill="none" stroke="#63b8ff" d="M838.68,-16.75C846.54,-16.75 854.54,-16.75 862.46,-16.75"/>
<polygon fill="#63b8ff" stroke="#63b8ff" points="862.45,-20.25 872.45,-16.75 862.45,-13.25 862.45,-20.25"/>
</a>
</g>
</g>
</g>
</svg>
