<?xml version="1.0" encoding="UTF-8" standalone="no"?>
<!DOCTYPE svg PUBLIC "-//W3C//DTD SVG 1.1//EN"
 "http://www.w3.org/Graphics/SVG/1.1/DTD/svg11.dtd">
<!-- Generated by graphviz version 12.2.1 (20241206.2353)
 -->
<!-- Title: ImGuiMultiSelectIO Pages: 1 -->
<svg width="153pt" height="181pt"
 viewBox="0.00 0.00 153.00 180.50" xmlns="http://www.w3.org/2000/svg" xmlns:xlink="http://www.w3.org/1999/xlink">
<g id="graph0" class="graph" transform="scale(1 1) rotate(0) translate(4 176.5)">
<title>ImGuiMultiSelectIO</title>
<!-- Node1 -->
<g id="Node000001" class="node">
<title>Node1</title>
<g id="a_Node000001"><a xlink:title=" ">
<polygon fill="#999999" stroke="#666666" points="127.75,-20.75 17.25,-20.75 17.25,0 127.75,0 127.75,-20.75"/>
<text text-anchor="middle" x="72.5" y="-7.25" font-family="Helvetica,sans-Serif" font-size="10.00">ImGuiMultiSelectIO</text>
</a>
</g>
</g>
<!-- Node2 -->
<g id="Node000002" class="node">
<title>Node2</title>
<g id="a_Node000002"><a xlink:href="structImVector.html" target="_top" xlink:title=" ">
<polygon fill="white" stroke="#666666" points="145,-103 0,-103 0,-69.5 145,-69.5 145,-103"/>
<text text-anchor="start" x="8" y="-89.5" font-family="Helvetica,sans-Serif" font-size="10.00">ImVector&lt; ImGuiSelection</text>
<text text-anchor="middle" x="72.5" y="-76.75" font-family="Helvetica,sans-Serif" font-size="10.00">Request &gt;</text>
</a>
</g>
</g>
<!-- Node2&#45;&gt;Node1 -->
<g id="edge1_Node000001_Node000002" class="edge">
<title>Node2&#45;&gt;Node1</title>
<g id="a_edge1_Node000001_Node000002"><a xlink:title=" ">
<path fill="none" stroke="#9a32cd" stroke-dasharray="5,2" d="M72.5,-57.95C72.5,-44.92 72.5,-30.18 72.5,-20.83"/>
<polygon fill="#9a32cd" stroke="#9a32cd" points="69,-57.71 72.5,-67.71 76,-57.71 69,-57.71"/>
</a>
</g>
<text text-anchor="middle" x="96.5" y="-42" font-family="Helvetica,sans-Serif" font-size="10.00" fill="grey"> Requests</text>
</g>
<!-- Node3 -->
<g id="Node000003" class="node">
<title>Node3</title>
<g id="a_Node000003"><a xlink:href="structImGuiSelectionRequest.html" target="_top" xlink:title=" ">
<polygon fill="white" stroke="#666666" points="137.5,-172.5 7.5,-172.5 7.5,-151.75 137.5,-151.75 137.5,-172.5"/>
<text text-anchor="middle" x="72.5" y="-159" font-family="Helvetica,sans-Serif" font-size="10.00">ImGuiSelectionRequest</text>
</a>
</g>
</g>
<!-- Node3&#45;&gt;Node2 -->
<g id="edge2_Node000002_Node000003" class="edge">
<title>Node3&#45;&gt;Node2</title>
<g id="a_edge2_Node000002_Node000003"><a xlink:title=" ">
<path fill="none" stroke="#9a32cd" stroke-dasharray="5,2" d="M72.5,-140.13C72.5,-128.47 72.5,-114.19 72.5,-103.41"/>
<polygon fill="#9a32cd" stroke="#9a32cd" points="69,-139.95 72.5,-149.95 76,-139.95 69,-139.95"/>
</a>
</g>
<text text-anchor="middle" x="85.62" y="-124.25" font-family="Helvetica,sans-Serif" font-size="10.00" fill="grey"> Data</text>
</g>
</g>
</svg>
