<?xml version="1.0" encoding="UTF-8" standalone="no"?>
<!DOCTYPE svg PUBLIC "-//W3C//DTD SVG 1.1//EN"
 "http://www.w3.org/Graphics/SVG/1.1/DTD/svg11.dtd">
<!-- Generated by graphviz version 12.2.0 (20241103.1931)
 -->
<!-- Title: ImVector::clear_delete Pages: 1 -->
<svg width="649pt" height="68pt"
 viewBox="0.00 0.00 648.75 67.75" xmlns="http://www.w3.org/2000/svg" xmlns:xlink="http://www.w3.org/1999/xlink">
<g id="graph0" class="graph" transform="scale(1 1) rotate(0) translate(4 63.75)">
<title>ImVector::clear_delete</title>
<!-- Node1 -->
<g id="Node000001" class="node">
<title>Node1</title>
<g id="a_Node000001"><a xlink:title=" ">
<polygon fill="#999999" stroke="#666666" points="640.75,-39.75 515.25,-39.75 515.25,-19 640.75,-19 640.75,-39.75"/>
<text text-anchor="middle" x="578" y="-26.25" font-family="Helvetica,sans-Serif" font-size="10.00">ImVector::clear_delete</text>
</a>
</g>
</g>
<!-- Node2 -->
<g id="Node000002" class="node">
<title>Node2</title>
<g id="a_Node000002"><a xlink:href="structImFontAtlas.html#ad5c2560d708bd0c389e9bd9da2d9b055" target="_top" xlink:title=" ">
<polygon fill="white" stroke="#666666" points="479.25,-59.75 347,-59.75 347,-39 479.25,-39 479.25,-59.75"/>
<text text-anchor="middle" x="413.12" y="-46.25" font-family="Helvetica,sans-Serif" font-size="10.00">ImFontAtlas::ClearFonts</text>
</a>
</g>
</g>
<!-- Node1&#45;&gt;Node2 -->
<g id="edge1_Node000001_Node000002" class="edge">
<title>Node1&#45;&gt;Node2</title>
<g id="a_edge1_Node000001_Node000002"><a xlink:title=" ">
<path fill="none" stroke="#63b8ff" d="M503.68,-38.38C495.62,-39.37 487.46,-40.37 479.51,-41.35"/>
<polygon fill="#63b8ff" stroke="#63b8ff" points="503.96,-41.87 513.46,-37.18 503.11,-34.92 503.96,-41.87"/>
</a>
</g>
</g>
<!-- Node5 -->
<g id="Node000005" class="node">
<title>Node5</title>
<g id="a_Node000005"><a xlink:href="namespaceImGui.html#aeba34069558d4fbcf734a9c92ce3b773" target="_top" xlink:title=" ">
<polygon fill="white" stroke="#666666" points="462.75,-20.75 363.5,-20.75 363.5,0 462.75,0 462.75,-20.75"/>
<text text-anchor="middle" x="413.12" y="-7.25" font-family="Helvetica,sans-Serif" font-size="10.00">ImGui::Shutdown</text>
</a>
</g>
</g>
<!-- Node1&#45;&gt;Node5 -->
<g id="edge4_Node000001_Node000005" class="edge">
<title>Node1&#45;&gt;Node5</title>
<g id="a_edge4_Node000001_Node000005"><a xlink:title=" ">
<path fill="none" stroke="#63b8ff" d="M503.55,-20.81C489.84,-19.21 475.83,-17.57 463.08,-16.09"/>
<polygon fill="#63b8ff" stroke="#63b8ff" points="503.12,-24.28 513.46,-21.96 503.93,-17.33 503.12,-24.28"/>
</a>
</g>
</g>
<!-- Node3 -->
<g id="Node000003" class="node">
<title>Node3</title>
<g id="a_Node000003"><a xlink:href="structImFontAtlas.html#a8f6d01c671d8670f991ba651bbaf7e77" target="_top" xlink:title=" ">
<polygon fill="white" stroke="#666666" points="300.12,-59.75 194.12,-59.75 194.12,-39 300.12,-39 300.12,-59.75"/>
<text text-anchor="middle" x="247.12" y="-46.25" font-family="Helvetica,sans-Serif" font-size="10.00">ImFontAtlas::Clear</text>
</a>
</g>
</g>
<!-- Node2&#45;&gt;Node3 -->
<g id="edge2_Node000002_Node000003" class="edge">
<title>Node2&#45;&gt;Node3</title>
<g id="a_edge2_Node000002_Node000003"><a xlink:title=" ">
<path fill="none" stroke="#63b8ff" d="M335.56,-49.38C323.72,-49.38 311.73,-49.38 300.58,-49.38"/>
<polygon fill="#63b8ff" stroke="#63b8ff" points="335.32,-52.88 345.32,-49.38 335.32,-45.88 335.32,-52.88"/>
</a>
</g>
</g>
<!-- Node4 -->
<g id="Node000004" class="node">
<title>Node4</title>
<g id="a_Node000004"><a xlink:href="structImFontAtlas.html#a950b4f7586ad7786ae251b957d67a268" target="_top" xlink:title=" ">
<polygon fill="white" stroke="#666666" points="147.25,-59.75 0,-59.75 0,-39 147.25,-39 147.25,-59.75"/>
<text text-anchor="middle" x="73.62" y="-46.25" font-family="Helvetica,sans-Serif" font-size="10.00">ImFontAtlas::~ImFontAtlas</text>
</a>
</g>
</g>
<!-- Node3&#45;&gt;Node4 -->
<g id="edge3_Node000003_Node000004" class="edge">
<title>Node3&#45;&gt;Node4</title>
<g id="a_edge3_Node000003_Node000004"><a xlink:title=" ">
<path fill="none" stroke="#63b8ff" d="M182.55,-49.38C171.14,-49.38 159.17,-49.38 147.53,-49.38"/>
<polygon fill="#63b8ff" stroke="#63b8ff" points="182.22,-52.88 192.22,-49.38 182.22,-45.88 182.22,-52.88"/>
</a>
</g>
</g>
<!-- Node6 -->
<g id="Node000006" class="node">
<title>Node6</title>
<g id="a_Node000006"><a xlink:href="namespaceImGui.html#ab9132deece575023170cd8e681d0581d" target="_top" xlink:title=" ">
<polygon fill="white" stroke="#666666" points="311,-20.75 183.25,-20.75 183.25,0 311,0 311,-20.75"/>
<text text-anchor="middle" x="247.12" y="-7.25" font-family="Helvetica,sans-Serif" font-size="10.00">ImGui::DestroyContext</text>
</a>
</g>
</g>
<!-- Node5&#45;&gt;Node6 -->
<g id="edge5_Node000005_Node000006" class="edge">
<title>Node5&#45;&gt;Node6</title>
<g id="a_edge5_Node000005_Node000006"><a xlink:title=" ">
<path fill="none" stroke="#63b8ff" d="M351.97,-10.38C338.73,-10.38 324.66,-10.38 311.3,-10.38"/>
<polygon fill="#63b8ff" stroke="#63b8ff" points="351.85,-13.88 361.85,-10.38 351.85,-6.88 351.85,-13.88"/>
</a>
</g>
</g>
</g>
</svg>
