<?xml version="1.0" encoding="UTF-8" standalone="no"?>
<!DOCTYPE svg PUBLIC "-//W3C//DTD SVG 1.1//EN"
 "http://www.w3.org/Graphics/SVG/1.1/DTD/svg11.dtd">
<!-- Generated by graphviz version 12.2.1 (20241206.2353)
 -->
<!-- Title: ImDrawList::AddRectFilled Pages: 1 -->
<svg width="1097pt" height="157pt"
 viewBox="0.00 0.00 1097.00 157.12" xmlns="http://www.w3.org/2000/svg" xmlns:xlink="http://www.w3.org/1999/xlink">
<g id="graph0" class="graph" transform="scale(1 1) rotate(0) translate(4 153.12)">
<title>ImDrawList::AddRectFilled</title>
<!-- Node1 -->
<g id="Node000001" class="node">
<title>Node1</title>
<g id="a_Node000001"><a xlink:title=" ">
<polygon fill="#999999" stroke="#666666" points="144.25,-78.75 0,-78.75 0,-58 144.25,-58 144.25,-78.75"/>
<text text-anchor="middle" x="72.12" y="-65.25" font-family="Helvetica,sans-Serif" font-size="10.00">ImDrawList::AddRectFilled</text>
</a>
</g>
</g>
<!-- Node2 -->
<g id="Node000002" class="node">
<title>Node2</title>
<g id="a_Node000002"><a xlink:href="structImDrawList.html#aea9301cb99ebf4b27f5d3959017567c9" target="_top" xlink:title=" ">
<polygon fill="white" stroke="#666666" points="329.75,-138.75 180.25,-138.75 180.25,-118 329.75,-118 329.75,-138.75"/>
<text text-anchor="middle" x="255" y="-125.25" font-family="Helvetica,sans-Serif" font-size="10.00">ImDrawList::PathFillConvex</text>
</a>
</g>
</g>
<!-- Node1&#45;&gt;Node2 -->
<g id="edge1_Node000001_Node000002" class="edge">
<title>Node1&#45;&gt;Node2</title>
<g id="a_edge1_Node000001_Node000002"><a xlink:title=" ">
<path fill="none" stroke="#63b8ff" d="M105.88,-79.24C135.2,-88.97 178.41,-103.3 210.6,-113.98"/>
<polygon fill="#63b8ff" stroke="#63b8ff" points="209.46,-117.29 220.05,-117.11 211.66,-110.64 209.46,-117.29"/>
</a>
</g>
</g>
<!-- Node4 -->
<g id="Node000004" class="node">
<title>Node4</title>
<g id="a_Node000004"><a xlink:href="structImDrawList.html#a879aa38dbfb0344e3e023d65c002c7d7" target="_top" xlink:title=" ">
<polygon fill="white" stroke="#666666" points="706.38,-126.75 566.62,-126.75 566.62,-106 706.38,-106 706.38,-126.75"/>
<text text-anchor="middle" x="636.5" y="-113.25" font-family="Helvetica,sans-Serif" font-size="10.00">ImDrawList::PrimReserve</text>
</a>
</g>
</g>
<!-- Node1&#45;&gt;Node4 -->
<g id="edge12_Node000001_Node000004" class="edge">
<title>Node1&#45;&gt;Node4</title>
<g id="a_edge12_Node000001_Node000004"><a xlink:title=" ">
<path fill="none" stroke="#63b8ff" d="M144.68,-74.43C232.88,-81.91 387.36,-95.02 519.75,-106.38 531.17,-107.35 543.23,-108.39 555.07,-109.41"/>
<polygon fill="#63b8ff" stroke="#63b8ff" points="554.57,-112.88 564.83,-110.25 555.17,-105.91 554.57,-112.88"/>
</a>
</g>
</g>
<!-- Node7 -->
<g id="Node000007" class="node">
<title>Node7</title>
<g id="a_Node000007"><a xlink:href="structImDrawList.html#a2251eb264ed8b17a253c409787375053" target="_top" xlink:title=" ">
<polygon fill="white" stroke="#666666" points="315.12,-59.75 194.88,-59.75 194.88,-39 315.12,-39 315.12,-59.75"/>
<text text-anchor="middle" x="255" y="-46.25" font-family="Helvetica,sans-Serif" font-size="10.00">ImDrawList::PathRect</text>
</a>
</g>
</g>
<!-- Node1&#45;&gt;Node7 -->
<g id="edge6_Node000001_Node000007" class="edge">
<title>Node1&#45;&gt;Node7</title>
<g id="a_edge6_Node000001_Node000007"><a xlink:title=" ">
<path fill="none" stroke="#63b8ff" d="M144.61,-60.87C157.24,-59.54 170.38,-58.16 182.99,-56.83"/>
<polygon fill="#63b8ff" stroke="#63b8ff" points="183.31,-60.32 192.89,-55.79 182.58,-53.36 183.31,-60.32"/>
</a>
</g>
</g>
<!-- Node12 -->
<g id="Node000012" class="node">
<title>Node12</title>
<g id="a_Node000012"><a xlink:href="structImDrawList.html#ae2be093563f1d20b8190b7c423113925" target="_top" xlink:title=" ">
<polygon fill="white" stroke="#666666" points="315.88,-20.75 194.12,-20.75 194.12,0 315.88,0 315.88,-20.75"/>
<text text-anchor="middle" x="255" y="-7.25" font-family="Helvetica,sans-Serif" font-size="10.00">ImDrawList::PrimRect</text>
</a>
</g>
</g>
<!-- Node1&#45;&gt;Node12 -->
<g id="edge11_Node000001_Node000012" class="edge">
<title>Node1&#45;&gt;Node12</title>
<g id="a_edge11_Node000001_Node000012"><a xlink:title=" ">
<path fill="none" stroke="#63b8ff" d="M101.57,-57.62C123.05,-49.66 153.32,-38.79 180.25,-30.38 186.9,-28.3 193.92,-26.23 200.89,-24.26"/>
<polygon fill="#63b8ff" stroke="#63b8ff" points="201.56,-27.7 210.26,-21.65 199.69,-20.96 201.56,-27.7"/>
</a>
</g>
</g>
<!-- Node3 -->
<g id="Node000003" class="node">
<title>Node3</title>
<g id="a_Node000003"><a xlink:href="structImDrawList.html#ad2accc0a74845b08bd0e6fae6183d6d0" target="_top" xlink:title=" ">
<polygon fill="white" stroke="#666666" points="519.75,-149.12 365.75,-149.12 365.75,-115.62 519.75,-115.62 519.75,-149.12"/>
<text text-anchor="start" x="373.75" y="-135.62" font-family="Helvetica,sans-Serif" font-size="10.00">ImDrawList::AddConvexPoly</text>
<text text-anchor="middle" x="442.75" y="-122.88" font-family="Helvetica,sans-Serif" font-size="10.00">Filled</text>
</a>
</g>
</g>
<!-- Node2&#45;&gt;Node3 -->
<g id="edge2_Node000002_Node000003" class="edge">
<title>Node2&#45;&gt;Node3</title>
<g id="a_edge2_Node000002_Node000003"><a xlink:title=" ">
<path fill="none" stroke="#63b8ff" d="M330.21,-129.97C338.11,-130.14 346.2,-130.32 354.23,-130.49"/>
<polygon fill="#63b8ff" stroke="#63b8ff" points="353.94,-133.98 364.01,-130.7 354.09,-126.99 353.94,-133.98"/>
</a>
</g>
</g>
<!-- Node3&#45;&gt;Node4 -->
<g id="edge3_Node000003_Node000004" class="edge">
<title>Node3&#45;&gt;Node4</title>
<g id="a_edge3_Node000003_Node000004"><a xlink:title=" ">
<path fill="none" stroke="#63b8ff" d="M520.09,-126.01C531.52,-125.05 543.35,-124.06 554.87,-123.1"/>
<polygon fill="#63b8ff" stroke="#63b8ff" points="555.08,-126.6 564.75,-122.28 554.5,-119.62 555.08,-126.6"/>
</a>
</g>
</g>
<!-- Node5 -->
<g id="Node000005" class="node">
<title>Node5</title>
<g id="a_Node000005"><a xlink:href="structImDrawList.html#a7f2e315f147acd8b555d86d1557659cc" target="_top" xlink:title=" ">
<polygon fill="white" stroke="#666666" points="908.75,-133.12 753.25,-133.12 753.25,-99.62 908.75,-99.62 908.75,-133.12"/>
<text text-anchor="start" x="761.25" y="-119.62" font-family="Helvetica,sans-Serif" font-size="10.00">ImDrawList::_OnChangedVtx</text>
<text text-anchor="middle" x="831" y="-106.88" font-family="Helvetica,sans-Serif" font-size="10.00">Offset</text>
</a>
</g>
</g>
<!-- Node4&#45;&gt;Node5 -->
<g id="edge4_Node000004_Node000005" class="edge">
<title>Node4&#45;&gt;Node5</title>
<g id="a_edge4_Node000004_Node000005"><a xlink:title=" ">
<path fill="none" stroke="#63b8ff" d="M706.72,-116.38C718.08,-116.38 729.98,-116.38 741.72,-116.38"/>
<polygon fill="#63b8ff" stroke="#63b8ff" points="741.39,-119.88 751.39,-116.38 741.39,-112.88 741.39,-119.88"/>
</a>
</g>
</g>
<!-- Node6 -->
<g id="Node000006" class="node">
<title>Node6</title>
<g id="a_Node000006"><a xlink:href="structImDrawList.html#a846714bb0321c6f1f908767abc8559e6" target="_top" xlink:title=" ">
<polygon fill="white" stroke="#666666" points="1089,-126.75 944.75,-126.75 944.75,-106 1089,-106 1089,-126.75"/>
<text text-anchor="middle" x="1016.88" y="-113.25" font-family="Helvetica,sans-Serif" font-size="10.00">ImDrawList::AddDrawCmd</text>
</a>
</g>
</g>
<!-- Node5&#45;&gt;Node6 -->
<g id="edge5_Node000005_Node000006" class="edge">
<title>Node5&#45;&gt;Node6</title>
<g id="a_edge5_Node000005_Node000006"><a xlink:title=" ">
<path fill="none" stroke="#63b8ff" d="M909.18,-116.38C917.04,-116.38 925.04,-116.38 932.96,-116.38"/>
<polygon fill="#63b8ff" stroke="#63b8ff" points="932.95,-119.88 942.95,-116.38 932.95,-112.88 932.95,-119.88"/>
</a>
</g>
</g>
<!-- Node8 -->
<g id="Node000008" class="node">
<title>Node8</title>
<g id="a_Node000008"><a xlink:href="structImDrawList.html#a6d307c6de1a6522e76fa410e8fe96fcc" target="_top" xlink:title=" ">
<polygon fill="white" stroke="#666666" points="514.88,-59.75 370.62,-59.75 370.62,-39 514.88,-39 514.88,-59.75"/>
<text text-anchor="middle" x="442.75" y="-46.25" font-family="Helvetica,sans-Serif" font-size="10.00">ImDrawList::PathArcToFast</text>
</a>
</g>
</g>
<!-- Node7&#45;&gt;Node8 -->
<g id="edge7_Node000007_Node000008" class="edge">
<title>Node7&#45;&gt;Node8</title>
<g id="a_edge7_Node000007_Node000008"><a xlink:title=" ">
<path fill="none" stroke="#63b8ff" d="M315.54,-49.38C329.41,-49.38 344.42,-49.38 359.09,-49.38"/>
<polygon fill="#63b8ff" stroke="#63b8ff" points="358.7,-52.88 368.7,-49.38 358.7,-45.88 358.7,-52.88"/>
</a>
</g>
</g>
<!-- Node11 -->
<g id="Node000011" class="node">
<title>Node11</title>
<g id="a_Node000011"><a xlink:href="structImDrawList.html#a828d944325ed58d8b57abd3647bffaaf" target="_top" xlink:title=" ">
<polygon fill="white" stroke="#666666" points="507.38,-20.75 378.12,-20.75 378.12,0 507.38,0 507.38,-20.75"/>
<text text-anchor="middle" x="442.75" y="-7.25" font-family="Helvetica,sans-Serif" font-size="10.00">ImDrawList::PathLineTo</text>
</a>
</g>
</g>
<!-- Node7&#45;&gt;Node11 -->
<g id="edge10_Node000007_Node000011" class="edge">
<title>Node7&#45;&gt;Node11</title>
<g id="a_edge10_Node000007_Node000011"><a xlink:title=" ">
<path fill="none" stroke="#63b8ff" d="M307.74,-38.51C329.79,-33.88 355.71,-28.44 378.86,-23.58"/>
<polygon fill="#63b8ff" stroke="#63b8ff" points="379.42,-27.04 388.48,-21.56 377.98,-20.19 379.42,-27.04"/>
</a>
</g>
</g>
<!-- Node9 -->
<g id="Node000009" class="node">
<title>Node9</title>
<g id="a_Node000009"><a xlink:href="structImDrawList.html#ac25f3a7693ed13ba2dac455675be8654" target="_top" xlink:title=" ">
<polygon fill="white" stroke="#666666" points="717.25,-59.75 555.75,-59.75 555.75,-39 717.25,-39 717.25,-59.75"/>
<text text-anchor="middle" x="636.5" y="-46.25" font-family="Helvetica,sans-Serif" font-size="10.00">ImDrawList::_PathArcToFastEx</text>
</a>
</g>
</g>
<!-- Node8&#45;&gt;Node9 -->
<g id="edge8_Node000008_Node000009" class="edge">
<title>Node8&#45;&gt;Node9</title>
<g id="a_edge8_Node000008_Node000009"><a xlink:title=" ">
<path fill="none" stroke="#63b8ff" d="M515.15,-49.38C524.56,-49.38 534.31,-49.38 544.01,-49.38"/>
<polygon fill="#63b8ff" stroke="#63b8ff" points="543.82,-52.88 553.82,-49.38 543.82,-45.88 543.82,-52.88"/>
</a>
</g>
</g>
<!-- Node10 -->
<g id="Node000010" class="node">
<title>Node10</title>
<g id="a_Node000010"><a xlink:href="structImDrawList.html#a52afa32aaab6d581cda90dc5d8726ed6" target="_top" xlink:title=" ">
<polygon fill="white" stroke="#666666" points="908,-66.12 754,-66.12 754,-32.62 908,-32.62 908,-66.12"/>
<text text-anchor="start" x="762" y="-52.62" font-family="Helvetica,sans-Serif" font-size="10.00">ImDrawList::_CalcCircleAuto</text>
<text text-anchor="middle" x="831" y="-39.88" font-family="Helvetica,sans-Serif" font-size="10.00">SegmentCount</text>
</a>
</g>
</g>
<!-- Node9&#45;&gt;Node10 -->
<g id="edge9_Node000009_Node000010" class="edge">
<title>Node9&#45;&gt;Node10</title>
<g id="a_edge9_Node000009_Node000010"><a xlink:title=" ">
<path fill="none" stroke="#63b8ff" d="M717.74,-49.38C725.81,-49.38 734.03,-49.38 742.16,-49.38"/>
<polygon fill="#63b8ff" stroke="#63b8ff" points="742.07,-52.88 752.07,-49.38 742.07,-45.88 742.07,-52.88"/>
</a>
</g>
</g>
</g>
</svg>
