<?xml version="1.0" encoding="UTF-8" standalone="no"?>
<!DOCTYPE svg PUBLIC "-//W3C//DTD SVG 1.1//EN"
 "http://www.w3.org/Graphics/SVG/1.1/DTD/svg11.dtd">
<!-- Generated by graphviz version 12.0.0 (20240704.0754)
 -->
<!-- Title: ImGuiStyle Pages: 1 -->
<svg width="214pt" height="226pt"
 viewBox="0.00 0.00 213.75 225.75" xmlns="http://www.w3.org/2000/svg" xmlns:xlink="http://www.w3.org/1999/xlink">
<g id="graph0" class="graph" transform="scale(1 1) rotate(0) translate(4 221.75)">
<title>ImGuiStyle</title>
<!-- Node1 -->
<g id="Node000001" class="node">
<title>Node1</title>
<g id="a_Node000001"><a xlink:title=" ">
<polygon fill="#999999" stroke="#666666" points="132,-20.75 62,-20.75 62,0 132,0 132,-20.75"/>
<text text-anchor="middle" x="97" y="-7.25" font-family="Helvetica,sans-Serif" font-size="10.00">ImGuiStyle</text>
</a>
</g>
</g>
<!-- Node2 -->
<g id="Node000002" class="node">
<title>Node2</title>
<g id="a_Node000002"><a xlink:href="structImVec2.html" target="_top" xlink:title=" ">
<polygon fill="white" stroke="#666666" points="52,-217.75 0,-217.75 0,-197 52,-197 52,-217.75"/>
<text text-anchor="middle" x="26" y="-204.25" font-family="Helvetica,sans-Serif" font-size="10.00">ImVec2</text>
</a>
</g>
</g>
<!-- Node2&#45;&gt;Node1 -->
<g id="edge1_Node000001_Node000002" class="edge">
<title>Node2&#45;&gt;Node1</title>
<g id="a_edge1_Node000001_Node000002"><a xlink:title=" ">
<path fill="none" stroke="#9a32cd" stroke-dasharray="5,2" d="M19.29,-185.72C9.61,-151.74 -3.92,-83.4 26.75,-38.75 34.75,-27.1 48.51,-20.4 61.73,-16.56"/>
<polygon fill="#9a32cd" stroke="#9a32cd" points="15.89,-186.57 22.14,-195.12 22.58,-184.54 15.89,-186.57"/>
</a>
</g>
<text text-anchor="middle" x="86.62" y="-169.5" font-family="Helvetica,sans-Serif" font-size="10.00" fill="grey"> ButtonTextAlign</text>
<text text-anchor="middle" x="86.62" y="-156.75" font-family="Helvetica,sans-Serif" font-size="10.00" fill="grey">CellPadding</text>
<text text-anchor="middle" x="86.62" y="-144" font-family="Helvetica,sans-Serif" font-size="10.00" fill="grey">DisplaySafeAreaPadding</text>
<text text-anchor="middle" x="86.62" y="-131.25" font-family="Helvetica,sans-Serif" font-size="10.00" fill="grey">DisplayWindowPadding</text>
<text text-anchor="middle" x="86.62" y="-118.5" font-family="Helvetica,sans-Serif" font-size="10.00" fill="grey">FramePadding</text>
<text text-anchor="middle" x="86.62" y="-105.75" font-family="Helvetica,sans-Serif" font-size="10.00" fill="grey">ItemInnerSpacing</text>
<text text-anchor="middle" x="86.62" y="-93" font-family="Helvetica,sans-Serif" font-size="10.00" fill="grey">ItemSpacing</text>
<text text-anchor="middle" x="86.62" y="-80.25" font-family="Helvetica,sans-Serif" font-size="10.00" fill="grey">SelectableTextAlign</text>
<text text-anchor="middle" x="86.62" y="-67.5" font-family="Helvetica,sans-Serif" font-size="10.00" fill="grey">SeparatorTextAlign</text>
<text text-anchor="middle" x="86.62" y="-54.75" font-family="Helvetica,sans-Serif" font-size="10.00" fill="grey">SeparatorTextPadding</text>
<text text-anchor="middle" x="86.62" y="-42" font-family="Helvetica,sans-Serif" font-size="10.00" fill="grey">...</text>
</g>
<!-- Node3 -->
<g id="Node000003" class="node">
<title>Node3</title>
<g id="a_Node000003"><a xlink:href="structImVec4.html" target="_top" xlink:title=" ">
<polygon fill="white" stroke="#666666" points="194,-217.75 142,-217.75 142,-197 194,-197 194,-217.75"/>
<text text-anchor="middle" x="168" y="-204.25" font-family="Helvetica,sans-Serif" font-size="10.00">ImVec4</text>
</a>
</g>
</g>
<!-- Node3&#45;&gt;Node1 -->
<g id="edge2_Node000001_Node000003" class="edge">
<title>Node3&#45;&gt;Node1</title>
<g id="a_edge2_Node000001_Node000003"><a xlink:title=" ">
<path fill="none" stroke="#9a32cd" stroke-dasharray="5,2" d="M170.88,-185.39C174.39,-151.45 176.53,-83.77 146,-38.75 140.8,-31.09 132.72,-25.34 124.6,-21.15"/>
<polygon fill="#9a32cd" stroke="#9a32cd" points="167.42,-184.79 169.71,-195.13 174.37,-185.62 167.42,-184.79"/>
</a>
</g>
<text text-anchor="middle" x="188.88" y="-105.75" font-family="Helvetica,sans-Serif" font-size="10.00" fill="grey"> Colors</text>
</g>
</g>
</svg>
