<?xml version="1.0" encoding="UTF-8" standalone="no"?>
<!DOCTYPE svg PUBLIC "-//W3C//DTD SVG 1.1//EN"
 "http://www.w3.org/Graphics/SVG/1.1/DTD/svg11.dtd">
<!-- Generated by graphviz version 12.2.0 (20241103.1931)
 -->
<!-- Title: ImFontAtlas::GetTexDataAsAlpha8 Pages: 1 -->
<!--zoomable 165 -->

<svg id="main" version="1.1" xmlns="http://www.w3.org/2000/svg" xmlns:xlink="http://www.w3.org/1999/xlink" xml:space="preserve" onload="init(evt)">

<style type="text/css"><![CDATA[
.node, .edge {opacity: 0.7;}
.node.selected, .edge.selected {opacity: 1;}
.edge:hover path { stroke: red; }
.edge:hover polygon { stroke: red; fill: red; }
]]></style>

<defs>
  <circle id="rim" cx="0" cy="0" r="7"/>
  <circle id="rim2" cx="0" cy="0" r="3.5"/>
  <g id="zoomPlus">
    <use xlink:href="#rim" fill="#404040"><set attributeName="fill" to="#808080" begin="zoomplus.mouseover" end="zoomplus.mouseout"/></use>
    <path d="M-4,0h8M0,-4v8" fill="none" stroke="white" stroke-width="1.5" pointer-events="none"/>
  </g>
  <g id="zoomMin">
    <use xlink:href="#rim" fill="#404040"><set attributeName="fill" to="#808080" begin="zoomminus.mouseover" end="zoomminus.mouseout"/></use>
    <path d="M-4,0h8" fill="none" stroke="white" stroke-width="1.5" pointer-events="none"/>
  </g>
  <g id="arrowUp" transform="translate(30 24)">
    <use xlink:href="#rim"/>
    <path pointer-events="none" fill="none" stroke="white" stroke-width="1.5" d="M0,-3.0v7 M-2.5,-0.5L0,-3.0L2.5,-0.5"/>
  </g>
  <g id="arrowRight" transform="rotate(90) translate(36 -43)">
    <use xlink:href="#rim"/>
    <path pointer-events="none" fill="none" stroke="white" stroke-width="1.5" d="M0,-3.0v7 M-2.5,-0.5L0,-3.0L2.5,-0.5"/>
  </g>
  <g id="arrowDown" transform="rotate(180) translate(-30 -48)">
    <use xlink:href="#rim"/>
    <path pointer-events="none" fill="none" stroke="white" stroke-width="1.5" d="M0,-3.0v7 M-2.5,-0.5L0,-3.0L2.5,-0.5"/>
  </g>
  <g id="arrowLeft" transform="rotate(270) translate(-36 17)">
    <use xlink:href="#rim"/>
    <path pointer-events="none" fill="none" stroke="white" stroke-width="1.5" d="M0,-3.0v7 M-2.5,-0.5L0,-3.0L2.5,-0.5"/>
  </g>
  <g id="resetDef">
    <use xlink:href="#rim2" fill="#404040"><set attributeName="fill" to="#808080" begin="reset.mouseover" end="reset.mouseout"/></use>
  </g>
</defs>
<script type="application/ecmascript">
var viewWidth = 1576;
var viewHeight = 165;
var sectionId = 'dynsection-29';
</script>
<script type="application/ecmascript" xlink:href="svg.min.js"/>
<svg id="graph" class="graph">
<g id="viewport">
<title>ImFontAtlas::GetTexDataAsAlpha8</title>
<!-- Node1 -->
<g id="Node000001" class="node">
<title>Node1</title>
<g id="a_Node000001"><a xlink:title=" ">
<polygon fill="#999999" stroke="#666666" points="149.5,-55.5 0,-55.5 0,-22 149.5,-22 149.5,-55.5"/>
<text text-anchor="start" x="8" y="-42" font-family="Helvetica,sans-Serif" font-size="10.00">ImFontAtlas::GetTexDataAs</text>
<text text-anchor="middle" x="74.75" y="-29.25" font-family="Helvetica,sans-Serif" font-size="10.00">Alpha8</text>
</a>
</g>
</g>
<!-- Node2 -->
<g id="Node000002" class="node">
<title>Node2</title>
<g id="a_Node000002"><a xlink:href="structImFontAtlas.html#a81e39e30dffa4dd7e458a53297451e27" target="_top" xlink:title=" ">
<polygon fill="white" stroke="#666666" points="290.75,-49.12 185.5,-49.12 185.5,-28.38 290.75,-28.38 290.75,-49.12"/>
<text text-anchor="middle" x="238.12" y="-35.62" font-family="Helvetica,sans-Serif" font-size="10.00">ImFontAtlas::Build</text>
</a>
</g>
</g>
<!-- Node1&#45;&gt;Node2 -->
<g id="edge1_Node000001_Node000002" class="edge">
<title>Node1&#45;&gt;Node2</title>
<g id="a_edge1_Node000001_Node000002"><a xlink:title=" ">
<path fill="none" stroke="#63b8ff" d="M149.83,-38.75C157.84,-38.75 165.95,-38.75 173.82,-38.75"/>
<polygon fill="#63b8ff" stroke="#63b8ff" points="173.64,-42.25 183.64,-38.75 173.64,-35.25 173.64,-42.25"/>
</a>
</g>
</g>
<!-- Node3 -->
<g id="Node000003" class="node">
<title>Node3</title>
<g id="a_Node000003"><a xlink:href="structImFontAtlas.html#a9d2b4a94579bf603a0d2662cd8348cbd" target="_top" xlink:title=" ">
<polygon fill="white" stroke="#666666" points="483,-72.12 326.75,-72.12 326.75,-51.38 483,-51.38 483,-72.12"/>
<text text-anchor="middle" x="404.88" y="-58.62" font-family="Helvetica,sans-Serif" font-size="10.00">ImFontAtlas::AddFontDefault</text>
</a>
</g>
</g>
<!-- Node2&#45;&gt;Node3 -->
<g id="edge2_Node000002_Node000003" class="edge">
<title>Node2&#45;&gt;Node3</title>
<g id="a_edge2_Node000002_Node000003"><a xlink:title=" ">
<path fill="none" stroke="#63b8ff" d="M290.8,-45.96C298.59,-47.05 306.8,-48.2 315.1,-49.36"/>
<polygon fill="#63b8ff" stroke="#63b8ff" points="314.55,-52.81 324.94,-50.73 315.52,-45.88 314.55,-52.81"/>
</a>
</g>
</g>
<!-- Node15 -->
<g id="Node000015" class="node">
<title>Node15</title>
<g id="a_Node000015"><a xlink:href="namespaceImGuiFreeType.html#ad0ba08f92f212ec5da9dd7a2872e0ae3" target="_top" xlink:title=" ">
<polygon fill="white" stroke="#666666" points="478.12,-33.5 331.62,-33.5 331.62,0 478.12,0 478.12,-33.5"/>
<text text-anchor="start" x="339.62" y="-20" font-family="Helvetica,sans-Serif" font-size="10.00">ImGuiFreeType::GetBuilder</text>
<text text-anchor="middle" x="404.88" y="-7.25" font-family="Helvetica,sans-Serif" font-size="10.00">ForFreeType</text>
</a>
</g>
</g>
<!-- Node2&#45;&gt;Node15 -->
<g id="edge14_Node000002_Node000015" class="edge">
<title>Node2&#45;&gt;Node15</title>
<g id="a_edge14_Node000002_Node000015"><a xlink:title=" ">
<path fill="none" stroke="#63b8ff" d="M290.8,-31.85C300.13,-30.6 310.06,-29.28 320.03,-27.95"/>
<polygon fill="#63b8ff" stroke="#63b8ff" points="320.31,-31.44 329.76,-26.65 319.39,-24.5 320.31,-31.44"/>
</a>
</g>
</g>
<!-- Node4 -->
<g id="Node000004" class="node">
<title>Node4</title>
<g id="a_Node000004"><a xlink:href="structImFontAtlas.html#ab43b930beb57c0b998f42f4586677956" target="_top" xlink:title=" ">
<polygon fill="white" stroke="#666666" points="690.25,-104.5 519,-104.5 519,-71 690.25,-71 690.25,-104.5"/>
<text text-anchor="start" x="527" y="-91" font-family="Helvetica,sans-Serif" font-size="10.00">ImFontAtlas::AddFontFrom</text>
<text text-anchor="middle" x="604.62" y="-78.25" font-family="Helvetica,sans-Serif" font-size="10.00">MemoryCompressedBase85TTF</text>
</a>
</g>
</g>
<!-- Node3&#45;&gt;Node4 -->
<g id="edge3_Node000003_Node000004" class="edge">
<title>Node3&#45;&gt;Node4</title>
<g id="a_edge3_Node000003_Node000004"><a xlink:title=" ">
<path fill="none" stroke="#63b8ff" d="M483.46,-71.95C491.33,-72.99 499.39,-74.05 507.43,-75.1"/>
<polygon fill="#63b8ff" stroke="#63b8ff" points="506.88,-78.56 517.25,-76.39 507.79,-71.62 506.88,-78.56"/>
</a>
</g>
</g>
<!-- Node14 -->
<g id="Node000014" class="node">
<title>Node14</title>
<g id="a_Node000014"><a xlink:href="structImFontAtlas.html#adec0df140eb1dc01c2a22a5253d62820" target="_top" xlink:title=" ">
<polygon fill="white" stroke="#666666" points="685.75,-52.5 523.5,-52.5 523.5,-19 685.75,-19 685.75,-52.5"/>
<text text-anchor="start" x="531.5" y="-39" font-family="Helvetica,sans-Serif" font-size="10.00">ImFontAtlas::GetGlyphRanges</text>
<text text-anchor="middle" x="604.62" y="-26.25" font-family="Helvetica,sans-Serif" font-size="10.00">Default</text>
</a>
</g>
</g>
<!-- Node3&#45;&gt;Node14 -->
<g id="edge13_Node000003_Node000014" class="edge">
<title>Node3&#45;&gt;Node14</title>
<g id="a_edge13_Node000003_Node000014"><a xlink:title=" ">
<path fill="none" stroke="#63b8ff" d="M483.46,-51.55C492.69,-50.34 502.19,-49.09 511.59,-47.85"/>
<polygon fill="#63b8ff" stroke="#63b8ff" points="512.05,-51.32 521.5,-46.55 511.13,-44.38 512.05,-51.32"/>
</a>
</g>
</g>
<!-- Node5 -->
<g id="Node000005" class="node">
<title>Node5</title>
<g id="a_Node000005"><a xlink:href="structImFontAtlas.html#a478ffa07777bf990ade02889e15a21ab" target="_top" xlink:title=" ">
<polygon fill="white" stroke="#666666" points="871.25,-104.5 726.25,-104.5 726.25,-71 871.25,-71 871.25,-104.5"/>
<text text-anchor="start" x="734.25" y="-91" font-family="Helvetica,sans-Serif" font-size="10.00">ImFontAtlas::AddFontFrom</text>
<text text-anchor="middle" x="798.75" y="-78.25" font-family="Helvetica,sans-Serif" font-size="10.00">MemoryCompressedTTF</text>
</a>
</g>
</g>
<!-- Node4&#45;&gt;Node5 -->
<g id="edge4_Node000004_Node000005" class="edge">
<title>Node4&#45;&gt;Node5</title>
<g id="a_edge4_Node000004_Node000005"><a xlink:title=" ">
<path fill="none" stroke="#63b8ff" d="M690.73,-87.75C698.62,-87.75 706.61,-87.75 714.49,-87.75"/>
<polygon fill="#63b8ff" stroke="#63b8ff" points="714.4,-91.25 724.4,-87.75 714.4,-84.25 714.4,-91.25"/>
</a>
</g>
</g>
<!-- Node6 -->
<g id="Node000006" class="node">
<title>Node6</title>
<g id="a_Node000006"><a xlink:href="structImFontAtlas.html#a95eec9b791e9c509180030f8176406ff" target="_top" xlink:title=" ">
<polygon fill="white" stroke="#666666" points="1052.25,-104.5 907.25,-104.5 907.25,-71 1052.25,-71 1052.25,-104.5"/>
<text text-anchor="start" x="915.25" y="-91" font-family="Helvetica,sans-Serif" font-size="10.00">ImFontAtlas::AddFontFrom</text>
<text text-anchor="middle" x="979.75" y="-78.25" font-family="Helvetica,sans-Serif" font-size="10.00">MemoryTTF</text>
</a>
</g>
</g>
<!-- Node5&#45;&gt;Node6 -->
<g id="edge5_Node000005_Node000006" class="edge">
<title>Node5&#45;&gt;Node6</title>
<g id="a_edge5_Node000005_Node000006"><a xlink:title=" ">
<path fill="none" stroke="#63b8ff" d="M871.52,-87.75C879.46,-87.75 887.58,-87.75 895.64,-87.75"/>
<polygon fill="#63b8ff" stroke="#63b8ff" points="895.45,-91.25 905.45,-87.75 895.45,-84.25 895.45,-91.25"/>
</a>
</g>
</g>
<!-- Node7 -->
<g id="Node000007" class="node">
<title>Node7</title>
<g id="a_Node000007"><a xlink:href="structImFontAtlas.html#ad01c0f19a95d37a9e5ebab1e54525625" target="_top" xlink:title=" ">
<polygon fill="white" stroke="#666666" points="1208.5,-98.12 1088.25,-98.12 1088.25,-77.38 1208.5,-77.38 1208.5,-98.12"/>
<text text-anchor="middle" x="1148.38" y="-84.62" font-family="Helvetica,sans-Serif" font-size="10.00">ImFontAtlas::AddFont</text>
</a>
</g>
</g>
<!-- Node6&#45;&gt;Node7 -->
<g id="edge6_Node000006_Node000007" class="edge">
<title>Node6&#45;&gt;Node7</title>
<g id="a_edge6_Node000006_Node000007"><a xlink:title=" ">
<path fill="none" stroke="#63b8ff" d="M1052.38,-87.75C1060.32,-87.75 1068.41,-87.75 1076.34,-87.75"/>
<polygon fill="#63b8ff" stroke="#63b8ff" points="1076.31,-91.25 1086.31,-87.75 1076.31,-84.25 1076.31,-91.25"/>
</a>
</g>
</g>
<!-- Node8 -->
<g id="Node000008" class="node">
<title>Node8</title>
<g id="a_Node000008"><a xlink:href="structImVector.html#a2d80e87e81b1b01143c8d8be93e6fde1" target="_top" xlink:title=" ">
<polygon fill="white" stroke="#666666" points="1361.75,-157.12 1273,-157.12 1273,-136.38 1361.75,-136.38 1361.75,-157.12"/>
<text text-anchor="middle" x="1317.38" y="-143.62" font-family="Helvetica,sans-Serif" font-size="10.00">ImVector::back</text>
</a>
</g>
</g>
<!-- Node7&#45;&gt;Node8 -->
<g id="edge7_Node000007_Node000008" class="edge">
<title>Node7&#45;&gt;Node8</title>
<g id="a_edge7_Node000007_Node000008"><a xlink:title=" ">
<path fill="none" stroke="#63b8ff" d="M1173.32,-98.48C1192.38,-106.8 1219.85,-118.3 1244.5,-126.75 1250.62,-128.85 1257.09,-130.89 1263.54,-132.82"/>
<polygon fill="#63b8ff" stroke="#63b8ff" points="1262.28,-136.09 1272.86,-135.52 1264.23,-129.37 1262.28,-136.09"/>
</a>
</g>
</g>
<!-- Node9 -->
<g id="Node000009" class="node">
<title>Node9</title>
<g id="a_Node000009"><a xlink:href="structImFontAtlas.html#a3ede4bd513bec044c77ac392ad9c6e86" target="_top" xlink:title=" ">
<polygon fill="white" stroke="#666666" points="1390.25,-118.12 1244.5,-118.12 1244.5,-97.38 1390.25,-97.38 1390.25,-118.12"/>
<text text-anchor="middle" x="1317.38" y="-104.62" font-family="Helvetica,sans-Serif" font-size="10.00">ImFontAtlas::ClearTexData</text>
</a>
</g>
</g>
<!-- Node7&#45;&gt;Node9 -->
<g id="edge8_Node000007_Node000009" class="edge">
<title>Node7&#45;&gt;Node9</title>
<g id="a_edge8_Node000007_Node000009"><a xlink:title=" ">
<path fill="none" stroke="#63b8ff" d="M1208.72,-94.86C1216.5,-95.79 1224.58,-96.76 1232.66,-97.72"/>
<polygon fill="#63b8ff" stroke="#63b8ff" points="1232.21,-101.2 1242.55,-98.91 1233.04,-94.24 1232.21,-101.2"/>
</a>
</g>
</g>
<!-- Node10 -->
<g id="Node000010" class="node">
<title>Node10</title>
<g id="a_Node000010"><a xlink:href="structImVector.html#aa53e48a5272f4bad1099368769514ff1" target="_top" xlink:title=" ">
<polygon fill="white" stroke="#666666" points="1365.88,-79.12 1268.88,-79.12 1268.88,-58.38 1365.88,-58.38 1365.88,-79.12"/>
<text text-anchor="middle" x="1317.38" y="-65.62" font-family="Helvetica,sans-Serif" font-size="10.00">ImVector::empty</text>
</a>
</g>
</g>
<!-- Node7&#45;&gt;Node10 -->
<g id="edge9_Node000007_Node000010" class="edge">
<title>Node7&#45;&gt;Node10</title>
<g id="a_edge9_Node000007_Node000010"><a xlink:title=" ">
<path fill="none" stroke="#63b8ff" d="M1208.72,-81C1224.49,-79.2 1241.51,-77.27 1257.27,-75.47"/>
<polygon fill="#63b8ff" stroke="#63b8ff" points="1257.44,-78.98 1266.98,-74.37 1256.64,-72.02 1257.44,-78.98"/>
</a>
</g>
</g>
<!-- Node11 -->
<g id="Node000011" class="node">
<title>Node11</title>
<g id="a_Node000011"><a xlink:href="structImVector.html#aab5df48e0711a48bd12f3206e08c4108" target="_top" xlink:title=" ">
<polygon fill="white" stroke="#666666" points="1376,-40.12 1258.75,-40.12 1258.75,-19.38 1376,-19.38 1376,-40.12"/>
<text text-anchor="middle" x="1317.38" y="-26.62" font-family="Helvetica,sans-Serif" font-size="10.00">ImVector::push_back</text>
</a>
</g>
</g>
<!-- Node7&#45;&gt;Node11 -->
<g id="edge10_Node000007_Node000011" class="edge">
<title>Node7&#45;&gt;Node11</title>
<g id="a_edge10_Node000007_Node000011"><a xlink:title=" ">
<path fill="none" stroke="#63b8ff" d="M1174.13,-77C1193.17,-68.94 1220.24,-57.94 1244.5,-49.75 1250.63,-47.68 1257.11,-45.65 1263.56,-43.74"/>
<polygon fill="#63b8ff" stroke="#63b8ff" points="1264.25,-47.18 1272.88,-41.04 1262.3,-40.46 1264.25,-47.18"/>
</a>
</g>
</g>
<!-- Node12 -->
<g id="Node000012" class="node">
<title>Node12</title>
<g id="a_Node000012"><a xlink:href="structImVector.html#a3a097635d464b1b70dc7d59996a88b28" target="_top" xlink:title=" ">
<polygon fill="white" stroke="#666666" points="1567.5,-60.12 1426.25,-60.12 1426.25,-39.38 1567.5,-39.38 1567.5,-60.12"/>
<text text-anchor="middle" x="1496.88" y="-46.62" font-family="Helvetica,sans-Serif" font-size="10.00">ImVector::_grow_capacity</text>
</a>
</g>
</g>
<!-- Node11&#45;&gt;Node12 -->
<g id="edge11_Node000011_Node000012" class="edge">
<title>Node11&#45;&gt;Node12</title>
<g id="a_edge11_Node000011_Node000012"><a xlink:title=" ">
<path fill="none" stroke="#63b8ff" d="M1376.5,-36.3C1388.69,-37.67 1401.77,-39.15 1414.64,-40.6"/>
<polygon fill="#63b8ff" stroke="#63b8ff" points="1414.03,-44.05 1424.36,-41.69 1414.82,-37.09 1414.03,-44.05"/>
</a>
</g>
</g>
<!-- Node13 -->
<g id="Node000013" class="node">
<title>Node13</title>
<g id="a_Node000013"><a xlink:href="structImVector.html#a0f14f5736c3372157856eebb67123b75" target="_top" xlink:title=" ">
<polygon fill="white" stroke="#666666" points="1548,-21.12 1445.75,-21.12 1445.75,-0.38 1548,-0.38 1548,-21.12"/>
<text text-anchor="middle" x="1496.88" y="-7.62" font-family="Helvetica,sans-Serif" font-size="10.00">ImVector::reserve</text>
</a>
</g>
</g>
<!-- Node11&#45;&gt;Node13 -->
<g id="edge12_Node000011_Node000013" class="edge">
<title>Node11&#45;&gt;Node13</title>
<g id="a_edge12_Node000011_Node000013"><a xlink:title=" ">
<path fill="none" stroke="#63b8ff" d="M1376.5,-23.53C1394.92,-21.56 1415.34,-19.37 1434.02,-17.37"/>
<polygon fill="#63b8ff" stroke="#63b8ff" points="1434.31,-20.86 1443.88,-16.32 1433.56,-13.9 1434.31,-20.86"/>
</a>
</g>
</g>
</g>
</svg>

<g id="navigator" transform="translate(0 0)" fill="#404254">
  <rect fill="#f2f5e9" fill-opacity="0.5" stroke="#606060" stroke-width=".5" x="0" y="0" width="60" height="60"/>
  <use id="zoomplus" xlink:href="#zoomPlus" x="17" y="9" onmousedown="handleZoom(evt,'in')"/>
  <use id="zoomminus" xlink:href="#zoomMin" x="42" y="9" onmousedown="handleZoom(evt,'out')"/>
  <use id="reset" xlink:href="#resetDef" x="30" y="36" onmousedown="handleReset()"/>
   <use id="arrowup" xlink:href="#arrowUp" x="0" y="0" onmousedown="handlePan(0,-1)"/>
  <use id="arrowright" xlink:href="#arrowRight" x="0" y="0" onmousedown="handlePan(1,0)"/>
  <use id="arrowdown" xlink:href="#arrowDown" x="0" y="0" onmousedown="handlePan(0,1)"/>
  <use id="arrowleft" xlink:href="#arrowLeft" x="0" y="0" onmousedown="handlePan(-1,0)"/>
</g>
<svg viewBox="0 0 15 15" width="100%" height="30px" preserveAspectRatio="xMaxYMin meet">
 <g id="arrow_out" transform="scale(0.3 0.3)">
  <a xlink:href="structImFontAtlas_aeff1a1044a1ab68d8f27bb2819cd9f44_cgraph_org.svg" target="_base">
   <rect id="button" ry="5" rx="5" y="6" x="6" height="38" width="38"
        fill="#f2f5e9" fill-opacity="0.5" stroke="#606060" stroke-width="1.0"/>
   <path id="arrow"
     d="M 11.500037,31.436501 C 11.940474,20.09759 22.043105,11.32322 32.158766,21.979434 L 37.068811,17.246167 C 37.068811,17.246167 37.088388,32 37.088388,32 L 22.160133,31.978069 C 22.160133,31.978069 26.997745,27.140456 26.997745,27.140456 C 18.528582,18.264221 13.291696,25.230495 11.500037,31.436501 z"
     style="fill:#404040;"/>
  </a>
 </g>
</svg>

<style type='text/css'>
<![CDATA[
[data-mouse-over-selected='false'] { opacity: 0.7; }
[data-mouse-over-selected='true']  { opacity: 1.0; }
]]>
</style>
<script type="application/ecmascript"><![CDATA[
document.addEventListener('DOMContentLoaded', (event) => {
  highlightEdges();
  highlightAdjacentNodes();
});
]]></script>
</svg>
