<?xml version="1.0" encoding="UTF-8" standalone="no"?>
<!DOCTYPE svg PUBLIC "-//W3C//DTD SVG 1.1//EN"
 "http://www.w3.org/Graphics/SVG/1.1/DTD/svg11.dtd">
<!-- Generated by graphviz version 12.0.0 (20240704.0754)
 -->
<!-- Title: ImFontAtlas::AddFontFromMemoryCompressedBase85TTF Pages: 1 -->
<svg width="884pt" height="42pt"
 viewBox="0.00 0.00 883.75 41.50" xmlns="http://www.w3.org/2000/svg" xmlns:xlink="http://www.w3.org/1999/xlink">
<g id="graph0" class="graph" transform="scale(1 1) rotate(0) translate(4 37.5)">
<title>ImFontAtlas::AddFontFromMemoryCompressedBase85TTF</title>
<!-- Node1 -->
<g id="Node000001" class="node">
<title>Node1</title>
<g id="a_Node000001"><a xlink:title=" ">
<polygon fill="#999999" stroke="#666666" points="875.75,-33.5 704.5,-33.5 704.5,0 875.75,0 875.75,-33.5"/>
<text text-anchor="start" x="712.5" y="-20" font-family="Helvetica,sans-Serif" font-size="10.00">ImFontAtlas::AddFontFrom</text>
<text text-anchor="middle" x="790.12" y="-7.25" font-family="Helvetica,sans-Serif" font-size="10.00">MemoryCompressedBase85TTF</text>
</a>
</g>
</g>
<!-- Node2 -->
<g id="Node000002" class="node">
<title>Node2</title>
<g id="a_Node000002"><a xlink:href="structImFontAtlas.html#a9d2b4a94579bf603a0d2662cd8348cbd" target="_top" xlink:title=" ">
<polygon fill="white" stroke="#666666" points="668.5,-27.12 512.25,-27.12 512.25,-6.38 668.5,-6.38 668.5,-27.12"/>
<text text-anchor="middle" x="590.38" y="-13.62" font-family="Helvetica,sans-Serif" font-size="10.00">ImFontAtlas::AddFontDefault</text>
</a>
</g>
</g>
<!-- Node1&#45;&gt;Node2 -->
<g id="edge1_Node000001_Node000002" class="edge">
<title>Node1&#45;&gt;Node2</title>
<g id="a_edge1_Node000001_Node000002"><a xlink:title=" ">
<path fill="none" stroke="#63b8ff" d="M692.79,-16.75C684.75,-16.75 676.69,-16.75 668.82,-16.75"/>
<polygon fill="#63b8ff" stroke="#63b8ff" points="692.6,-20.25 702.6,-16.75 692.6,-13.25 692.6,-20.25"/>
</a>
</g>
</g>
<!-- Node3 -->
<g id="Node000003" class="node">
<title>Node3</title>
<g id="a_Node000003"><a xlink:href="structImFontAtlas.html#a81e39e30dffa4dd7e458a53297451e27" target="_top" xlink:title=" ">
<polygon fill="white" stroke="#666666" points="476.25,-27.12 371,-27.12 371,-6.38 476.25,-6.38 476.25,-27.12"/>
<text text-anchor="middle" x="423.62" y="-13.62" font-family="Helvetica,sans-Serif" font-size="10.00">ImFontAtlas::Build</text>
</a>
</g>
</g>
<!-- Node2&#45;&gt;Node3 -->
<g id="edge2_Node000002_Node000003" class="edge">
<title>Node2&#45;&gt;Node3</title>
<g id="a_edge2_Node000002_Node000003"><a xlink:title=" ">
<path fill="none" stroke="#63b8ff" d="M500.55,-16.75C492.3,-16.75 484.13,-16.75 476.39,-16.75"/>
<polygon fill="#63b8ff" stroke="#63b8ff" points="500.31,-20.25 510.31,-16.75 500.31,-13.25 500.31,-20.25"/>
</a>
</g>
</g>
<!-- Node4 -->
<g id="Node000004" class="node">
<title>Node4</title>
<g id="a_Node000004"><a xlink:href="structImFontAtlas.html#aeff1a1044a1ab68d8f27bb2819cd9f44" target="_top" xlink:title=" ">
<polygon fill="white" stroke="#666666" points="335,-33.5 185.5,-33.5 185.5,0 335,0 335,-33.5"/>
<text text-anchor="start" x="193.5" y="-20" font-family="Helvetica,sans-Serif" font-size="10.00">ImFontAtlas::GetTexDataAs</text>
<text text-anchor="middle" x="260.25" y="-7.25" font-family="Helvetica,sans-Serif" font-size="10.00">Alpha8</text>
</a>
</g>
</g>
<!-- Node3&#45;&gt;Node4 -->
<g id="edge3_Node000003_Node000004" class="edge">
<title>Node3&#45;&gt;Node4</title>
<g id="a_edge3_Node000003_Node000004"><a xlink:title=" ">
<path fill="none" stroke="#63b8ff" d="M359.37,-16.75C351.52,-16.75 343.43,-16.75 335.43,-16.75"/>
<polygon fill="#63b8ff" stroke="#63b8ff" points="359.16,-20.25 369.16,-16.75 359.16,-13.25 359.16,-20.25"/>
</a>
</g>
</g>
<!-- Node5 -->
<g id="Node000005" class="node">
<title>Node5</title>
<g id="a_Node000005"><a xlink:href="structImFontAtlas.html#a8abb0c4e67ebb38249d4df71218c4eec" target="_top" xlink:title=" ">
<polygon fill="white" stroke="#666666" points="149.5,-33.5 0,-33.5 0,0 149.5,0 149.5,-33.5"/>
<text text-anchor="start" x="8" y="-20" font-family="Helvetica,sans-Serif" font-size="10.00">ImFontAtlas::GetTexDataAs</text>
<text text-anchor="middle" x="74.75" y="-7.25" font-family="Helvetica,sans-Serif" font-size="10.00">RGBA32</text>
</a>
</g>
</g>
<!-- Node4&#45;&gt;Node5 -->
<g id="edge4_Node000004_Node000005" class="edge">
<title>Node4&#45;&gt;Node5</title>
<g id="a_edge4_Node000004_Node000005"><a xlink:title=" ">
<path fill="none" stroke="#63b8ff" d="M173.86,-16.75C165.84,-16.75 157.75,-16.75 149.84,-16.75"/>
<polygon fill="#63b8ff" stroke="#63b8ff" points="173.63,-20.25 183.63,-16.75 173.63,-13.25 173.63,-20.25"/>
</a>
</g>
</g>
</g>
</svg>
