<?xml version="1.0" encoding="UTF-8" standalone="no"?>
<!DOCTYPE svg PUBLIC "-//W3C//DTD SVG 1.1//EN"
 "http://www.w3.org/Graphics/SVG/1.1/DTD/svg11.dtd">
<!-- Generated by graphviz version 12.2.1 (20241206.2353)
 -->
<!-- Title: ImDrawList::AddNgonFilled Pages: 1 -->
<svg width="1101pt" height="145pt"
 viewBox="0.00 0.00 1100.75 144.50" xmlns="http://www.w3.org/2000/svg" xmlns:xlink="http://www.w3.org/1999/xlink">
<g id="graph0" class="graph" transform="scale(1 1) rotate(0) translate(4 140.5)">
<title>ImDrawList::AddNgonFilled</title>
<!-- Node1 -->
<g id="Node000001" class="node">
<title>Node1</title>
<g id="a_Node000001"><a xlink:title=" ">
<polygon fill="#999999" stroke="#666666" points="148,-68.12 0,-68.12 0,-47.38 148,-47.38 148,-68.12"/>
<text text-anchor="middle" x="74" y="-54.62" font-family="Helvetica,sans-Serif" font-size="10.00">ImDrawList::AddNgonFilled</text>
</a>
</g>
</g>
<!-- Node2 -->
<g id="Node000002" class="node">
<title>Node2</title>
<g id="a_Node000002"><a xlink:href="structImDrawList.html#af86073403f1557cccb4ff45dfad0a74a" target="_top" xlink:title=" ">
<polygon fill="white" stroke="#666666" points="321.12,-91.12 196.38,-91.12 196.38,-70.38 321.12,-70.38 321.12,-91.12"/>
<text text-anchor="middle" x="258.75" y="-77.62" font-family="Helvetica,sans-Serif" font-size="10.00">ImDrawList::PathArcTo</text>
</a>
</g>
</g>
<!-- Node1&#45;&gt;Node2 -->
<g id="edge1_Node000001_Node000002" class="edge">
<title>Node1&#45;&gt;Node2</title>
<g id="a_edge1_Node000001_Node000002"><a xlink:title=" ">
<path fill="none" stroke="#63b8ff" d="M148.28,-66.97C160.24,-68.48 172.64,-70.04 184.6,-71.54"/>
<polygon fill="#63b8ff" stroke="#63b8ff" points="184.05,-75 194.41,-72.78 184.92,-68.06 184.05,-75"/>
</a>
</g>
</g>
<!-- Node6 -->
<g id="Node000006" class="node">
<title>Node6</title>
<g id="a_Node000006"><a xlink:href="structImDrawList.html#aea9301cb99ebf4b27f5d3959017567c9" target="_top" xlink:title=" ">
<polygon fill="white" stroke="#666666" points="333.5,-49.12 184,-49.12 184,-28.38 333.5,-28.38 333.5,-49.12"/>
<text text-anchor="middle" x="258.75" y="-35.62" font-family="Helvetica,sans-Serif" font-size="10.00">ImDrawList::PathFillConvex</text>
</a>
</g>
</g>
<!-- Node1&#45;&gt;Node6 -->
<g id="edge6_Node000001_Node000006" class="edge">
<title>Node1&#45;&gt;Node6</title>
<g id="a_edge6_Node000001_Node000006"><a xlink:title=" ">
<path fill="none" stroke="#63b8ff" d="M148.28,-50.13C156.18,-49.31 164.26,-48.47 172.28,-47.64"/>
<polygon fill="#63b8ff" stroke="#63b8ff" points="172.47,-51.14 182.06,-46.62 171.75,-44.17 172.47,-51.14"/>
</a>
</g>
</g>
<!-- Node3 -->
<g id="Node000003" class="node">
<title>Node3</title>
<g id="a_Node000003"><a xlink:href="structImDrawList.html#a52afa32aaab6d581cda90dc5d8726ed6" target="_top" xlink:title=" ">
<polygon fill="white" stroke="#666666" points="721,-136.5 567,-136.5 567,-103 721,-103 721,-136.5"/>
<text text-anchor="start" x="575" y="-123" font-family="Helvetica,sans-Serif" font-size="10.00">ImDrawList::_CalcCircleAuto</text>
<text text-anchor="middle" x="644" y="-110.25" font-family="Helvetica,sans-Serif" font-size="10.00">SegmentCount</text>
</a>
</g>
</g>
<!-- Node2&#45;&gt;Node3 -->
<g id="edge2_Node000002_Node000003" class="edge">
<title>Node2&#45;&gt;Node3</title>
<g id="a_edge2_Node000002_Node000003"><a xlink:title=" ">
<path fill="none" stroke="#63b8ff" d="M282.68,-91.5C304.46,-101.08 338.41,-114.39 369.5,-119.75 430.99,-130.35 501.41,-130.07 555.4,-127.28"/>
<polygon fill="#63b8ff" stroke="#63b8ff" points="555.36,-130.79 565.15,-126.74 554.97,-123.8 555.36,-130.79"/>
</a>
</g>
</g>
<!-- Node4 -->
<g id="Node000004" class="node">
<title>Node4</title>
<g id="a_Node000004"><a xlink:href="structImDrawList.html#ac25f3a7693ed13ba2dac455675be8654" target="_top" xlink:title=" ">
<polygon fill="white" stroke="#666666" points="531,-111.12 369.5,-111.12 369.5,-90.38 531,-90.38 531,-111.12"/>
<text text-anchor="middle" x="450.25" y="-97.62" font-family="Helvetica,sans-Serif" font-size="10.00">ImDrawList::_PathArcToFastEx</text>
</a>
</g>
</g>
<!-- Node2&#45;&gt;Node4 -->
<g id="edge3_Node000002_Node000004" class="edge">
<title>Node2&#45;&gt;Node4</title>
<g id="a_edge3_Node000002_Node000004"><a xlink:title=" ">
<path fill="none" stroke="#63b8ff" d="M321.54,-87.27C333.2,-88.5 345.62,-89.81 357.96,-91.12"/>
<polygon fill="#63b8ff" stroke="#63b8ff" points="357.43,-94.58 367.74,-92.15 358.17,-87.62 357.43,-94.58"/>
</a>
</g>
</g>
<!-- Node5 -->
<g id="Node000005" class="node">
<title>Node5</title>
<g id="a_Node000005"><a xlink:href="structImDrawList.html#a855fcd28cd12b81975e8a61ea2e80e96" target="_top" xlink:title=" ">
<polygon fill="white" stroke="#666666" points="519,-72.12 381.5,-72.12 381.5,-51.38 519,-51.38 519,-72.12"/>
<text text-anchor="middle" x="450.25" y="-58.62" font-family="Helvetica,sans-Serif" font-size="10.00">ImDrawList::_PathArcToN</text>
</a>
</g>
</g>
<!-- Node2&#45;&gt;Node5 -->
<g id="edge5_Node000002_Node000005" class="edge">
<title>Node2&#45;&gt;Node5</title>
<g id="a_edge5_Node000002_Node000005"><a xlink:title=" ">
<path fill="none" stroke="#63b8ff" d="M321.54,-74.55C337.07,-73 353.95,-71.3 370.2,-69.68"/>
<polygon fill="#63b8ff" stroke="#63b8ff" points="370.22,-73.19 379.82,-68.71 369.52,-66.23 370.22,-73.19"/>
</a>
</g>
</g>
<!-- Node4&#45;&gt;Node3 -->
<g id="edge4_Node000004_Node000003" class="edge">
<title>Node4&#45;&gt;Node3</title>
<g id="a_edge4_Node000004_Node000003"><a xlink:title=" ">
<path fill="none" stroke="#63b8ff" d="M531.46,-108.7C539.41,-109.49 547.51,-110.29 555.53,-111.08"/>
<polygon fill="#63b8ff" stroke="#63b8ff" points="554.99,-114.55 565.29,-112.05 555.68,-107.58 554.99,-114.55"/>
</a>
</g>
</g>
<!-- Node7 -->
<g id="Node000007" class="node">
<title>Node7</title>
<g id="a_Node000007"><a xlink:href="structImDrawList.html#ad2accc0a74845b08bd0e6fae6183d6d0" target="_top" xlink:title=" ">
<polygon fill="white" stroke="#666666" points="527.25,-33.5 373.25,-33.5 373.25,0 527.25,0 527.25,-33.5"/>
<text text-anchor="start" x="381.25" y="-20" font-family="Helvetica,sans-Serif" font-size="10.00">ImDrawList::AddConvexPoly</text>
<text text-anchor="middle" x="450.25" y="-7.25" font-family="Helvetica,sans-Serif" font-size="10.00">Filled</text>
</a>
</g>
</g>
<!-- Node6&#45;&gt;Node7 -->
<g id="edge7_Node000006_Node000007" class="edge">
<title>Node6&#45;&gt;Node7</title>
<g id="a_edge7_Node000006_Node000007"><a xlink:title=" ">
<path fill="none" stroke="#63b8ff" d="M333.83,-30.15C342.98,-29.09 352.4,-27.99 361.73,-26.91"/>
<polygon fill="#63b8ff" stroke="#63b8ff" points="362,-30.4 371.53,-25.77 361.2,-23.45 362,-30.4"/>
</a>
</g>
</g>
<!-- Node8 -->
<g id="Node000008" class="node">
<title>Node8</title>
<g id="a_Node000008"><a xlink:href="structImDrawList.html#a879aa38dbfb0344e3e023d65c002c7d7" target="_top" xlink:title=" ">
<polygon fill="white" stroke="#666666" points="713.88,-27.12 574.12,-27.12 574.12,-6.38 713.88,-6.38 713.88,-27.12"/>
<text text-anchor="middle" x="644" y="-13.62" font-family="Helvetica,sans-Serif" font-size="10.00">ImDrawList::PrimReserve</text>
</a>
</g>
</g>
<!-- Node7&#45;&gt;Node8 -->
<g id="edge8_Node000007_Node000008" class="edge">
<title>Node7&#45;&gt;Node8</title>
<g id="a_edge8_Node000007_Node000008"><a xlink:title=" ">
<path fill="none" stroke="#63b8ff" d="M527.59,-16.75C539.02,-16.75 550.85,-16.75 562.37,-16.75"/>
<polygon fill="#63b8ff" stroke="#63b8ff" points="562.25,-20.25 572.25,-16.75 562.25,-13.25 562.25,-20.25"/>
</a>
</g>
</g>
<!-- Node9 -->
<g id="Node000009" class="node">
<title>Node9</title>
<g id="a_Node000009"><a xlink:href="structImDrawList.html#a7f2e315f147acd8b555d86d1557659cc" target="_top" xlink:title=" ">
<polygon fill="white" stroke="#666666" points="912.5,-33.5 757,-33.5 757,0 912.5,0 912.5,-33.5"/>
<text text-anchor="start" x="765" y="-20" font-family="Helvetica,sans-Serif" font-size="10.00">ImDrawList::_OnChangedVtx</text>
<text text-anchor="middle" x="834.75" y="-7.25" font-family="Helvetica,sans-Serif" font-size="10.00">Offset</text>
</a>
</g>
</g>
<!-- Node8&#45;&gt;Node9 -->
<g id="edge9_Node000008_Node000009" class="edge">
<title>Node8&#45;&gt;Node9</title>
<g id="a_edge9_Node000008_Node000009"><a xlink:title=" ">
<path fill="none" stroke="#63b8ff" d="M714.21,-16.75C724.33,-16.75 734.87,-16.75 745.31,-16.75"/>
<polygon fill="#63b8ff" stroke="#63b8ff" points="745.07,-20.25 755.07,-16.75 745.07,-13.25 745.07,-20.25"/>
</a>
</g>
</g>
<!-- Node10 -->
<g id="Node000010" class="node">
<title>Node10</title>
<g id="a_Node000010"><a xlink:href="structImDrawList.html#a846714bb0321c6f1f908767abc8559e6" target="_top" xlink:title=" ">
<polygon fill="white" stroke="#666666" points="1092.75,-27.12 948.5,-27.12 948.5,-6.38 1092.75,-6.38 1092.75,-27.12"/>
<text text-anchor="middle" x="1020.62" y="-13.62" font-family="Helvetica,sans-Serif" font-size="10.00">ImDrawList::AddDrawCmd</text>
</a>
</g>
</g>
<!-- Node9&#45;&gt;Node10 -->
<g id="edge10_Node000009_Node000010" class="edge">
<title>Node9&#45;&gt;Node10</title>
<g id="a_edge10_Node000009_Node000010"><a xlink:title=" ">
<path fill="none" stroke="#63b8ff" d="M912.93,-16.75C920.79,-16.75 928.79,-16.75 936.71,-16.75"/>
<polygon fill="#63b8ff" stroke="#63b8ff" points="936.7,-20.25 946.7,-16.75 936.7,-13.25 936.7,-20.25"/>
</a>
</g>
</g>
</g>
</svg>
