<?xml version="1.0" encoding="UTF-8" standalone="no"?>
<!DOCTYPE svg PUBLIC "-//W3C//DTD SVG 1.1//EN"
 "http://www.w3.org/Graphics/SVG/1.1/DTD/svg11.dtd">
<!-- Generated by graphviz version 12.2.1 (20241206.2353)
 -->
<!-- Title: ImDrawList::AddCircle Pages: 1 -->
<svg width="1057pt" height="150pt"
 viewBox="0.00 0.00 1056.50 150.12" xmlns="http://www.w3.org/2000/svg" xmlns:xlink="http://www.w3.org/1999/xlink">
<g id="graph0" class="graph" transform="scale(1 1) rotate(0) translate(4 146.12)">
<title>ImDrawList::AddCircle</title>
<!-- Node1 -->
<g id="Node000001" class="node">
<title>Node1</title>
<g id="a_Node000001"><a xlink:title=" ">
<polygon fill="#999999" stroke="#666666" points="124,-104.12 0,-104.12 0,-83.38 124,-83.38 124,-104.12"/>
<text text-anchor="middle" x="62" y="-90.62" font-family="Helvetica,sans-Serif" font-size="10.00">ImDrawList::AddCircle</text>
</a>
</g>
</g>
<!-- Node2 -->
<g id="Node000002" class="node">
<title>Node2</title>
<g id="a_Node000002"><a xlink:href="structImDrawList.html#ac25f3a7693ed13ba2dac455675be8654" target="_top" xlink:title=" ">
<polygon fill="white" stroke="#666666" points="486.75,-142.12 325.25,-142.12 325.25,-121.38 486.75,-121.38 486.75,-142.12"/>
<text text-anchor="middle" x="406" y="-128.62" font-family="Helvetica,sans-Serif" font-size="10.00">ImDrawList::_PathArcToFastEx</text>
</a>
</g>
</g>
<!-- Node1&#45;&gt;Node2 -->
<g id="edge1_Node000001_Node000002" class="edge">
<title>Node1&#45;&gt;Node2</title>
<g id="a_edge1_Node000001_Node000002"><a xlink:title=" ">
<path fill="none" stroke="#63b8ff" d="M112.16,-104.53C127.43,-107.57 144.36,-110.62 160,-112.75 210.47,-119.63 267.14,-124.22 313.27,-127.17"/>
<polygon fill="#63b8ff" stroke="#63b8ff" points="313.04,-130.66 323.24,-127.79 313.48,-123.67 313.04,-130.66"/>
</a>
</g>
</g>
<!-- Node4 -->
<g id="Node000004" class="node">
<title>Node4</title>
<g id="a_Node000004"><a xlink:href="structImDrawList.html#af86073403f1557cccb4ff45dfad0a74a" target="_top" xlink:title=" ">
<polygon fill="white" stroke="#666666" points="287,-104.12 162.25,-104.12 162.25,-83.38 287,-83.38 287,-104.12"/>
<text text-anchor="middle" x="224.62" y="-90.62" font-family="Helvetica,sans-Serif" font-size="10.00">ImDrawList::PathArcTo</text>
</a>
</g>
</g>
<!-- Node1&#45;&gt;Node4 -->
<g id="edge3_Node000001_Node000004" class="edge">
<title>Node1&#45;&gt;Node4</title>
<g id="a_edge3_Node000001_Node000004"><a xlink:title=" ">
<path fill="none" stroke="#63b8ff" d="M124.18,-93.75C132.75,-93.75 141.63,-93.75 150.39,-93.75"/>
<polygon fill="#63b8ff" stroke="#63b8ff" points="150.3,-97.25 160.3,-93.75 150.3,-90.25 150.3,-97.25"/>
</a>
</g>
</g>
<!-- Node6 -->
<g id="Node000006" class="node">
<title>Node6</title>
<g id="a_Node000006"><a xlink:href="structImDrawList.html#a60bf9040ef3d09b39c4ba8f5a2a68ae9" target="_top" xlink:title=" ">
<polygon fill="white" stroke="#666666" points="289.25,-46.12 160,-46.12 160,-25.38 289.25,-25.38 289.25,-46.12"/>
<text text-anchor="middle" x="224.62" y="-32.62" font-family="Helvetica,sans-Serif" font-size="10.00">ImDrawList::PathStroke</text>
</a>
</g>
</g>
<!-- Node1&#45;&gt;Node6 -->
<g id="edge7_Node000001_Node000006" class="edge">
<title>Node1&#45;&gt;Node6</title>
<g id="a_edge7_Node000001_Node000006"><a xlink:title=" ">
<path fill="none" stroke="#63b8ff" d="M92.84,-82.98C118.23,-73.81 154.93,-60.55 183,-50.42"/>
<polygon fill="#63b8ff" stroke="#63b8ff" points="184.04,-53.77 192.25,-47.08 181.66,-47.18 184.04,-53.77"/>
</a>
</g>
</g>
<!-- Node3 -->
<g id="Node000003" class="node">
<title>Node3</title>
<g id="a_Node000003"><a xlink:href="structImDrawList.html#a52afa32aaab6d581cda90dc5d8726ed6" target="_top" xlink:title=" ">
<polygon fill="white" stroke="#666666" points="676.75,-129.5 522.75,-129.5 522.75,-96 676.75,-96 676.75,-129.5"/>
<text text-anchor="start" x="530.75" y="-116" font-family="Helvetica,sans-Serif" font-size="10.00">ImDrawList::_CalcCircleAuto</text>
<text text-anchor="middle" x="599.75" y="-103.25" font-family="Helvetica,sans-Serif" font-size="10.00">SegmentCount</text>
</a>
</g>
</g>
<!-- Node2&#45;&gt;Node3 -->
<g id="edge2_Node000002_Node000003" class="edge">
<title>Node2&#45;&gt;Node3</title>
<g id="a_edge2_Node000002_Node000003"><a xlink:title=" ">
<path fill="none" stroke="#63b8ff" d="M487.21,-123.8C495.16,-123.01 503.26,-122.21 511.28,-121.42"/>
<polygon fill="#63b8ff" stroke="#63b8ff" points="511.43,-124.92 521.04,-120.45 510.74,-117.95 511.43,-124.92"/>
</a>
</g>
</g>
<!-- Node4&#45;&gt;Node2 -->
<g id="edge5_Node000004_Node000002" class="edge">
<title>Node4&#45;&gt;Node2</title>
<g id="a_edge5_Node000004_Node000002"><a xlink:title=" ">
<path fill="none" stroke="#63b8ff" d="M276.55,-104.54C297.19,-108.91 321.22,-114 342.87,-118.59"/>
<polygon fill="#63b8ff" stroke="#63b8ff" points="341.96,-121.97 352.47,-120.62 343.41,-115.13 341.96,-121.97"/>
</a>
</g>
</g>
<!-- Node4&#45;&gt;Node3 -->
<g id="edge4_Node000004_Node000003" class="edge">
<title>Node4&#45;&gt;Node3</title>
<g id="a_edge4_Node000004_Node000003"><a xlink:title=" ">
<path fill="none" stroke="#63b8ff" d="M287.24,-96.89C348.32,-100 442.46,-104.79 511.27,-108.3"/>
<polygon fill="#63b8ff" stroke="#63b8ff" points="510.84,-111.78 521,-108.79 511.19,-104.79 510.84,-111.78"/>
</a>
</g>
</g>
<!-- Node5 -->
<g id="Node000005" class="node">
<title>Node5</title>
<g id="a_Node000005"><a xlink:href="structImDrawList.html#a855fcd28cd12b81975e8a61ea2e80e96" target="_top" xlink:title=" ">
<polygon fill="white" stroke="#666666" points="474.75,-66.12 337.25,-66.12 337.25,-45.38 474.75,-45.38 474.75,-66.12"/>
<text text-anchor="middle" x="406" y="-52.62" font-family="Helvetica,sans-Serif" font-size="10.00">ImDrawList::_PathArcToN</text>
</a>
</g>
</g>
<!-- Node4&#45;&gt;Node5 -->
<g id="edge6_Node000004_Node000005" class="edge">
<title>Node4&#45;&gt;Node5</title>
<g id="a_edge6_Node000004_Node000005"><a xlink:title=" ">
<path fill="none" stroke="#63b8ff" d="M276.55,-82.96C297.19,-78.59 321.22,-73.5 342.87,-68.91"/>
<polygon fill="#63b8ff" stroke="#63b8ff" points="343.41,-72.37 352.47,-66.88 341.96,-65.53 343.41,-72.37"/>
</a>
</g>
</g>
<!-- Node7 -->
<g id="Node000007" class="node">
<title>Node7</title>
<g id="a_Node000007"><a xlink:href="structImDrawList.html#abc568847b1113e624456436bfab1b307" target="_top" xlink:title=" ">
<polygon fill="white" stroke="#666666" points="473.62,-27.12 338.38,-27.12 338.38,-6.38 473.62,-6.38 473.62,-27.12"/>
<text text-anchor="middle" x="406" y="-13.62" font-family="Helvetica,sans-Serif" font-size="10.00">ImDrawList::AddPolyline</text>
</a>
</g>
</g>
<!-- Node6&#45;&gt;Node7 -->
<g id="edge8_Node000006_Node000007" class="edge">
<title>Node6&#45;&gt;Node7</title>
<g id="a_edge8_Node000006_Node000007"><a xlink:title=" ">
<path fill="none" stroke="#63b8ff" d="M289.62,-28.97C301.64,-27.7 314.33,-26.35 326.72,-25.04"/>
<polygon fill="#63b8ff" stroke="#63b8ff" points="326.91,-28.54 336.49,-24.01 326.18,-21.58 326.91,-28.54"/>
</a>
</g>
</g>
<!-- Node8 -->
<g id="Node000008" class="node">
<title>Node8</title>
<g id="a_Node000008"><a xlink:href="structImDrawList.html#a879aa38dbfb0344e3e023d65c002c7d7" target="_top" xlink:title=" ">
<polygon fill="white" stroke="#666666" points="669.62,-27.12 529.88,-27.12 529.88,-6.38 669.62,-6.38 669.62,-27.12"/>
<text text-anchor="middle" x="599.75" y="-13.62" font-family="Helvetica,sans-Serif" font-size="10.00">ImDrawList::PrimReserve</text>
</a>
</g>
</g>
<!-- Node7&#45;&gt;Node8 -->
<g id="edge9_Node000007_Node000008" class="edge">
<title>Node7&#45;&gt;Node8</title>
<g id="a_edge9_Node000007_Node000008"><a xlink:title=" ">
<path fill="none" stroke="#63b8ff" d="M474.06,-16.75C488.35,-16.75 503.58,-16.75 518.31,-16.75"/>
<polygon fill="#63b8ff" stroke="#63b8ff" points="517.93,-20.25 527.93,-16.75 517.93,-13.25 517.93,-20.25"/>
</a>
</g>
</g>
<!-- Node9 -->
<g id="Node000009" class="node">
<title>Node9</title>
<g id="a_Node000009"><a xlink:href="structImDrawList.html#a7f2e315f147acd8b555d86d1557659cc" target="_top" xlink:title=" ">
<polygon fill="white" stroke="#666666" points="868.25,-33.5 712.75,-33.5 712.75,0 868.25,0 868.25,-33.5"/>
<text text-anchor="start" x="720.75" y="-20" font-family="Helvetica,sans-Serif" font-size="10.00">ImDrawList::_OnChangedVtx</text>
<text text-anchor="middle" x="790.5" y="-7.25" font-family="Helvetica,sans-Serif" font-size="10.00">Offset</text>
</a>
</g>
</g>
<!-- Node8&#45;&gt;Node9 -->
<g id="edge10_Node000008_Node000009" class="edge">
<title>Node8&#45;&gt;Node9</title>
<g id="a_edge10_Node000008_Node000009"><a xlink:title=" ">
<path fill="none" stroke="#63b8ff" d="M669.96,-16.75C680.08,-16.75 690.62,-16.75 701.06,-16.75"/>
<polygon fill="#63b8ff" stroke="#63b8ff" points="700.82,-20.25 710.82,-16.75 700.82,-13.25 700.82,-20.25"/>
</a>
</g>
</g>
<!-- Node10 -->
<g id="Node000010" class="node">
<title>Node10</title>
<g id="a_Node000010"><a xlink:href="structImDrawList.html#a846714bb0321c6f1f908767abc8559e6" target="_top" xlink:title=" ">
<polygon fill="white" stroke="#666666" points="1048.5,-27.12 904.25,-27.12 904.25,-6.38 1048.5,-6.38 1048.5,-27.12"/>
<text text-anchor="middle" x="976.38" y="-13.62" font-family="Helvetica,sans-Serif" font-size="10.00">ImDrawList::AddDrawCmd</text>
</a>
</g>
</g>
<!-- Node9&#45;&gt;Node10 -->
<g id="edge11_Node000009_Node000010" class="edge">
<title>Node9&#45;&gt;Node10</title>
<g id="a_edge11_Node000009_Node000010"><a xlink:title=" ">
<path fill="none" stroke="#63b8ff" d="M868.68,-16.75C876.54,-16.75 884.54,-16.75 892.46,-16.75"/>
<polygon fill="#63b8ff" stroke="#63b8ff" points="892.45,-20.25 902.45,-16.75 892.45,-13.25 892.45,-20.25"/>
</a>
</g>
</g>
</g>
</svg>
