<?xml version="1.0" encoding="UTF-8" standalone="no"?>
<!DOCTYPE svg PUBLIC "-//W3C//DTD SVG 1.1//EN"
 "http://www.w3.org/Graphics/SVG/1.1/DTD/svg11.dtd">
<!-- Generated by graphviz version 12.0.0 (20240704.0754)
 -->
<!-- Title: ImVector::size_in_bytes Pages: 1 -->
<svg width="1286pt" height="186pt"
 viewBox="0.00 0.00 1286.25 186.21" xmlns="http://www.w3.org/2000/svg" xmlns:xlink="http://www.w3.org/1999/xlink">
<g id="graph0" class="graph" transform="scale(1 1) rotate(0) translate(4 182.21)">
<title>ImVector::size_in_bytes</title>
<!-- Node1 -->
<g id="Node000001" class="node">
<title>Node1</title>
<g id="a_Node000001"><a xlink:title=" ">
<polygon fill="#999999" stroke="#666666" points="1278.25,-33.21 1146.75,-33.21 1146.75,-12.46 1278.25,-12.46 1278.25,-33.21"/>
<text text-anchor="middle" x="1212.5" y="-19.71" font-family="Helvetica,sans-Serif" font-size="10.00">ImVector::size_in_bytes</text>
</a>
</g>
</g>
<!-- Node2 -->
<g id="Node000002" class="node">
<title>Node2</title>
<g id="a_Node000002"><a xlink:href="namespaceImGui.html#a8e1aae1a79042976013f36d7f2e7ee70" target="_top" xlink:title=" ">
<polygon fill="white" stroke="#666666" points="1110.75,-82.21 965,-82.21 965,-61.46 1110.75,-61.46 1110.75,-82.21"/>
<text text-anchor="middle" x="1037.88" y="-68.71" font-family="Helvetica,sans-Serif" font-size="10.00">ImGui::DebugNodeStorage</text>
</a>
</g>
</g>
<!-- Node1&#45;&gt;Node2 -->
<g id="edge1_Node000001_Node000002" class="edge">
<title>Node1&#45;&gt;Node2</title>
<g id="a_edge1_Node000001_Node000002"><a xlink:title=" ">
<path fill="none" stroke="#63b8ff" d="M1162.38,-36.78C1135.31,-44.46 1102.2,-53.86 1077.08,-60.99"/>
<polygon fill="#63b8ff" stroke="#63b8ff" points="1163.07,-40.22 1171.73,-34.12 1161.16,-33.49 1163.07,-40.22"/>
</a>
</g>
</g>
<!-- Node5 -->
<g id="Node000005" class="node">
<title>Node5</title>
<g id="a_Node000005"><a xlink:href="namespaceImGui.html#afe7a28c6eb52fff3cc27d5a698fea4ff" target="_top" xlink:title=" ">
<polygon fill="white" stroke="#666666" points="334.25,-90.21 181.75,-90.21 181.75,-69.46 334.25,-69.46 334.25,-90.21"/>
<text text-anchor="middle" x="258" y="-76.71" font-family="Helvetica,sans-Serif" font-size="10.00">ImGui::ShowMetricsWindow</text>
</a>
</g>
</g>
<!-- Node1&#45;&gt;Node5 -->
<g id="edge16_Node000001_Node000005" class="edge">
<title>Node1&#45;&gt;Node5</title>
<g id="a_edge16_Node000001_Node000005"><a xlink:title=" ">
<path fill="none" stroke="#63b8ff" d="M1135.24,-16.39C1063.37,-10.88 952.64,-3.84 856.38,-3.84 856.38,-3.84 856.38,-3.84 659.88,-3.84 530.88,-3.84 494.59,11.51 370.25,-22.84 333.85,-32.89 295.54,-55.61 274.73,-69.13"/>
<polygon fill="#63b8ff" stroke="#63b8ff" points="1134.68,-19.86 1144.92,-17.15 1135.22,-12.88 1134.68,-19.86"/>
</a>
</g>
</g>
<!-- Node3 -->
<g id="Node000003" class="node">
<title>Node3</title>
<g id="a_Node000003"><a xlink:href="namespaceImGui.html#afcb602554925c5409977f0fb39f77e5d" target="_top" xlink:title=" ">
<polygon fill="white" stroke="#666666" points="929,-113.21 781.75,-113.21 781.75,-92.46 929,-92.46 929,-113.21"/>
<text text-anchor="middle" x="855.38" y="-99.71" font-family="Helvetica,sans-Serif" font-size="10.00">ImGui::DebugNodeWindow</text>
</a>
</g>
</g>
<!-- Node2&#45;&gt;Node3 -->
<g id="edge2_Node000002_Node000003" class="edge">
<title>Node2&#45;&gt;Node3</title>
<g id="a_edge2_Node000002_Node000003"><a xlink:title=" ">
<path fill="none" stroke="#63b8ff" d="M962.44,-84.62C948.17,-87.07 933.35,-89.62 919.47,-92"/>
<polygon fill="#63b8ff" stroke="#63b8ff" points="962.99,-88.08 972.25,-82.93 961.8,-81.18 962.99,-88.08"/>
</a>
</g>
</g>
<!-- Node3&#45;&gt;Node3 -->
<g id="edge8_Node000003_Node000003" class="edge">
<title>Node3&#45;&gt;Node3</title>
<g id="a_edge8_Node000003_Node000003"><a xlink:title=" ">
<path fill="none" stroke="#63b8ff" d="M887.49,-124.7C883.23,-128.54 872.53,-131.21 855.38,-131.21 824.01,-131.21 814.21,-122.27 825.97,-113.61"/>
<polygon fill="#63b8ff" stroke="#63b8ff" points="890.91,-123.96 885.14,-115.08 884.11,-125.62 890.91,-123.96"/>
</a>
</g>
</g>
<!-- Node4 -->
<g id="Node000004" class="node">
<title>Node4</title>
<g id="a_Node000004"><a xlink:href="namespaceImGui.html#a8600f7b1f9b18926fb00837e56d2b3cd" target="_top" xlink:title=" ">
<polygon fill="white" stroke="#666666" points="534.38,-160.21 375.88,-160.21 375.88,-139.46 534.38,-139.46 534.38,-160.21"/>
<text text-anchor="middle" x="455.12" y="-146.71" font-family="Helvetica,sans-Serif" font-size="10.00">ImGui::DebugNodeDockNode</text>
</a>
</g>
</g>
<!-- Node3&#45;&gt;Node4 -->
<g id="edge3_Node000003_Node000004" class="edge">
<title>Node3&#45;&gt;Node4</title>
<g id="a_edge3_Node000003_Node000004"><a xlink:title=" ">
<path fill="none" stroke="#63b8ff" d="M770.23,-109.25C761.97,-110.52 753.71,-111.76 745.75,-112.84 664.78,-123.82 570.51,-132.1 512.07,-138.98"/>
<polygon fill="#63b8ff" stroke="#63b8ff" points="770.62,-112.73 779.96,-107.74 769.54,-105.82 770.62,-112.73"/>
</a>
</g>
</g>
<!-- Node7 -->
<g id="Node000007" class="node">
<title>Node7</title>
<g id="a_Node000007"><a xlink:href="namespaceImGui.html#a8c2ed9f140c90d8eaca1e2cfd8f46142" target="_top" xlink:title=" ">
<polygon fill="white" stroke="#666666" points="745.75,-113.21 576,-113.21 576,-92.46 745.75,-92.46 745.75,-113.21"/>
<text text-anchor="middle" x="660.88" y="-99.71" font-family="Helvetica,sans-Serif" font-size="10.00">ImGui::DebugNodeWindowsList</text>
</a>
</g>
</g>
<!-- Node3&#45;&gt;Node7 -->
<g id="edge9_Node000003_Node000007" class="edge">
<title>Node3&#45;&gt;Node7</title>
<g id="a_edge9_Node000003_Node000007"><a xlink:title=" ">
<path fill="none" stroke="#63b8ff" d="M769.89,-96.13C762.02,-96.07 754.04,-96.07 746.17,-96.13"/>
<polygon fill="#63b8ff" stroke="#63b8ff" points="769.77,-99.63 779.81,-96.25 769.85,-92.63 769.77,-99.63"/>
</a>
</g>
</g>
<!-- Node8 -->
<g id="Node000008" class="node">
<title>Node8</title>
<g id="a_Node000008"><a xlink:href="namespaceImGui.html#a0fc8019faf3a1aec25b554384ad9e506" target="_top" xlink:title=" ">
<polygon fill="white" stroke="#666666" points="540,-65.59 370.25,-65.59 370.25,-32.09 540,-32.09 540,-65.59"/>
<text text-anchor="start" x="378.25" y="-52.09" font-family="Helvetica,sans-Serif" font-size="10.00">ImGui::DebugNodeWindowsList</text>
<text text-anchor="middle" x="455.12" y="-39.34" font-family="Helvetica,sans-Serif" font-size="10.00">ByBeginStackParent</text>
</a>
</g>
</g>
<!-- Node3&#45;&gt;Node8 -->
<g id="edge13_Node000003_Node000008" class="edge">
<title>Node3&#45;&gt;Node8</title>
<g id="a_edge13_Node000003_Node000008"><a xlink:title=" ">
<path fill="none" stroke="#63b8ff" d="M784.42,-90.04C771.58,-87.85 758.27,-85.69 745.75,-83.84 676.73,-73.64 598.13,-64.28 540.25,-57.81"/>
<polygon fill="#63b8ff" stroke="#63b8ff" points="783.61,-93.45 794.06,-91.71 784.81,-86.55 783.61,-93.45"/>
</a>
</g>
</g>
<!-- Node4&#45;&gt;Node3 -->
<g id="edge5_Node000004_Node000003" class="edge">
<title>Node4&#45;&gt;Node3</title>
<g id="a_edge5_Node000004_Node000003"><a xlink:title=" ">
<path fill="none" stroke="#63b8ff" d="M545.88,-150.68C603.19,-147.11 678.99,-139.89 745.75,-130.84 776.48,-126.67 811.82,-120.17 833.62,-113.67"/>
<polygon fill="#63b8ff" stroke="#63b8ff" points="545.96,-147.16 536.19,-151.25 546.38,-154.15 545.96,-147.16"/>
</a>
</g>
</g>
<!-- Node4&#45;&gt;Node4 -->
<g id="edge4_Node000004_Node000004" class="edge">
<title>Node4&#45;&gt;Node4</title>
<g id="a_edge4_Node000004_Node000004"><a xlink:title=" ">
<path fill="none" stroke="#63b8ff" d="M489.81,-171.7C485.22,-175.54 473.65,-178.21 455.12,-178.21 421.24,-178.21 410.66,-169.27 423.36,-160.61"/>
<polygon fill="#63b8ff" stroke="#63b8ff" points="493.21,-170.85 487.27,-162.07 486.44,-172.63 493.21,-170.85"/>
</a>
</g>
</g>
<!-- Node4&#45;&gt;Node5 -->
<g id="edge6_Node000004_Node000005" class="edge">
<title>Node4&#45;&gt;Node5</title>
<g id="a_edge6_Node000004_Node000005"><a xlink:title=" ">
<path fill="none" stroke="#63b8ff" d="M402.05,-135.93C391.46,-132.82 380.44,-129.39 370.25,-125.84 339.66,-115.17 305.33,-100.56 283,-90.69"/>
<polygon fill="#63b8ff" stroke="#63b8ff" points="400.85,-139.23 411.42,-138.62 402.78,-132.5 400.85,-139.23"/>
</a>
</g>
</g>
<!-- Node6 -->
<g id="Node000006" class="node">
<title>Node6</title>
<g id="a_Node000006"><a xlink:href="namespaceImGui.html#af95643a0ce4893b9e57c12991922fb18" target="_top" xlink:title=" ">
<polygon fill="white" stroke="#666666" points="145.75,-90.21 0,-90.21 0,-69.46 145.75,-69.46 145.75,-90.21"/>
<text text-anchor="middle" x="72.88" y="-76.71" font-family="Helvetica,sans-Serif" font-size="10.00">ImGui::ShowDemoWindow</text>
</a>
</g>
</g>
<!-- Node5&#45;&gt;Node6 -->
<g id="edge7_Node000005_Node000006" class="edge">
<title>Node5&#45;&gt;Node6</title>
<g id="a_edge7_Node000005_Node000006"><a xlink:title=" ">
<path fill="none" stroke="#63b8ff" d="M170.11,-79.84C162.04,-79.84 153.92,-79.84 146,-79.84"/>
<polygon fill="#63b8ff" stroke="#63b8ff" points="169.95,-83.34 179.95,-79.84 169.95,-76.34 169.95,-83.34"/>
</a>
</g>
</g>
<!-- Node7&#45;&gt;Node3 -->
<g id="edge11_Node000007_Node000003" class="edge">
<title>Node7&#45;&gt;Node3</title>
<g id="a_edge11_Node000007_Node000003"><a xlink:title=" ">
<path fill="none" stroke="#63b8ff" d="M757.47,-109.59C765.49,-109.59 773.52,-109.53 781.32,-109.41"/>
<polygon fill="#63b8ff" stroke="#63b8ff" points="757.69,-106.09 747.68,-109.55 757.67,-113.09 757.69,-106.09"/>
</a>
</g>
</g>
<!-- Node7&#45;&gt;Node4 -->
<g id="edge10_Node000007_Node000004" class="edge">
<title>Node7&#45;&gt;Node4</title>
<g id="a_edge10_Node000007_Node000004"><a xlink:title=" ">
<path fill="none" stroke="#63b8ff" d="M601.71,-116.25C570.52,-123.45 532.57,-132.2 503.24,-138.97"/>
<polygon fill="#63b8ff" stroke="#63b8ff" points="602.44,-119.68 611.4,-114.02 600.87,-112.86 602.44,-119.68"/>
</a>
</g>
</g>
<!-- Node7&#45;&gt;Node5 -->
<g id="edge12_Node000007_Node000005" class="edge">
<title>Node7&#45;&gt;Node5</title>
<g id="a_edge12_Node000007_Node000005"><a xlink:title=" ">
<path fill="none" stroke="#63b8ff" d="M564.37,-101.5C507.86,-100.22 434.9,-97.72 370.25,-92.84 358.71,-91.96 346.53,-90.8 334.62,-89.52"/>
<polygon fill="#63b8ff" stroke="#63b8ff" points="564.23,-105 574.3,-101.72 564.38,-98 564.23,-105"/>
</a>
</g>
</g>
<!-- Node8&#45;&gt;Node5 -->
<g id="edge15_Node000008_Node000005" class="edge">
<title>Node8&#45;&gt;Node5</title>
<g id="a_edge15_Node000008_Node000005"><a xlink:title=" ">
<path fill="none" stroke="#63b8ff" d="M358.89,-63.97C348.24,-65.66 337.55,-67.36 327.34,-68.98"/>
<polygon fill="#63b8ff" stroke="#63b8ff" points="359.14,-67.47 368.46,-62.45 358.04,-60.56 359.14,-67.47"/>
</a>
</g>
</g>
<!-- Node8&#45;&gt;Node8 -->
<g id="edge14_Node000008_Node000008" class="edge">
<title>Node8&#45;&gt;Node8</title>
<g id="a_edge14_Node000008_Node000008"><a xlink:title=" ">
<path fill="none" stroke="#63b8ff" d="M488.22,-76.97C482.83,-80.93 471.8,-83.59 455.12,-83.59 425.48,-83.59 413.67,-75.2 419.69,-66"/>
<polygon fill="#63b8ff" stroke="#63b8ff" points="491.59,-77.99 490.25,-67.48 484.74,-76.53 491.59,-77.99"/>
</a>
</g>
</g>
</g>
</svg>
