<?xml version="1.0" encoding="UTF-8" standalone="no"?>
<!DOCTYPE svg PUBLIC "-//W3C//DTD SVG 1.1//EN"
 "http://www.w3.org/Graphics/SVG/1.1/DTD/svg11.dtd">
<!-- Generated by graphviz version 12.0.0 (20240704.0754)
 -->
<!-- Title: ExampleAppConsole::AddLog Pages: 1 -->
<svg width="635pt" height="116pt"
 viewBox="0.00 0.00 634.50 116.12" xmlns="http://www.w3.org/2000/svg" xmlns:xlink="http://www.w3.org/1999/xlink">
<g id="graph0" class="graph" transform="scale(1 1) rotate(0) translate(4 112.12)">
<title>ExampleAppConsole::AddLog</title>
<!-- Node1 -->
<g id="Node000001" class="node">
<title>Node1</title>
<g id="a_Node000001"><a xlink:title=" ">
<polygon fill="#999999" stroke="#666666" points="122.5,-55.5 0,-55.5 0,-22 122.5,-22 122.5,-55.5"/>
<text text-anchor="start" x="8" y="-42" font-family="Helvetica,sans-Serif" font-size="10.00">ExampleAppConsole::</text>
<text text-anchor="middle" x="61.25" y="-29.25" font-family="Helvetica,sans-Serif" font-size="10.00">AddLog</text>
</a>
</g>
</g>
<!-- Node2 -->
<g id="Node000002" class="node">
<title>Node2</title>
<g id="a_Node000002"><a xlink:href="structImVector.html#aab5df48e0711a48bd12f3206e08c4108" target="_top" xlink:title=" ">
<polygon fill="white" stroke="#666666" points="278.38,-72.12 161.12,-72.12 161.12,-51.38 278.38,-51.38 278.38,-72.12"/>
<text text-anchor="middle" x="219.75" y="-58.62" font-family="Helvetica,sans-Serif" font-size="10.00">ImVector::push_back</text>
</a>
</g>
</g>
<!-- Node1&#45;&gt;Node2 -->
<g id="edge1_Node000001_Node000002" class="edge">
<title>Node1&#45;&gt;Node2</title>
<g id="a_edge1_Node000001_Node000002"><a xlink:title=" ">
<path fill="none" stroke="#63b8ff" d="M122.76,-47.64C131.53,-48.93 140.61,-50.27 149.53,-51.58"/>
<polygon fill="#63b8ff" stroke="#63b8ff" points="148.82,-55.01 159.22,-53 149.84,-48.08 148.82,-55.01"/>
</a>
</g>
</g>
<!-- Node5 -->
<g id="Node000005" class="node">
<title>Node5</title>
<g id="a_Node000005"><a xlink:href="structExampleAppConsole.html#ab81253ac3575f7fcd63a61c7f5820913" target="_top" xlink:title=" ">
<polygon fill="white" stroke="#666666" points="281,-33.5 158.5,-33.5 158.5,0 281,0 281,-33.5"/>
<text text-anchor="start" x="166.5" y="-20" font-family="Helvetica,sans-Serif" font-size="10.00">ExampleAppConsole::</text>
<text text-anchor="middle" x="219.75" y="-7.25" font-family="Helvetica,sans-Serif" font-size="10.00">Strdup</text>
</a>
</g>
</g>
<!-- Node1&#45;&gt;Node5 -->
<g id="edge4_Node000001_Node000005" class="edge">
<title>Node1&#45;&gt;Node5</title>
<g id="a_edge4_Node000001_Node000005"><a xlink:title=" ">
<path fill="none" stroke="#63b8ff" d="M122.76,-30.24C130.65,-29.13 138.8,-27.99 146.85,-26.86"/>
<polygon fill="#63b8ff" stroke="#63b8ff" points="147.23,-30.34 156.65,-25.48 146.26,-23.41 147.23,-30.34"/>
</a>
</g>
</g>
<!-- Node3 -->
<g id="Node000003" class="node">
<title>Node3</title>
<g id="a_Node000003"><a xlink:href="structImVector.html#a3a097635d464b1b70dc7d59996a88b28" target="_top" xlink:title=" ">
<polygon fill="white" stroke="#666666" points="458.25,-108.12 317,-108.12 317,-87.38 458.25,-87.38 458.25,-108.12"/>
<text text-anchor="middle" x="387.62" y="-94.62" font-family="Helvetica,sans-Serif" font-size="10.00">ImVector::_grow_capacity</text>
</a>
</g>
</g>
<!-- Node2&#45;&gt;Node3 -->
<g id="edge2_Node000002_Node000003" class="edge">
<title>Node2&#45;&gt;Node3</title>
<g id="a_edge2_Node000002_Node000003"><a xlink:title=" ">
<path fill="none" stroke="#63b8ff" d="M270.52,-72.55C287.82,-76.31 307.44,-80.56 325.55,-84.5"/>
<polygon fill="#63b8ff" stroke="#63b8ff" points="324.61,-87.87 335.13,-86.57 326.1,-81.03 324.61,-87.87"/>
</a>
</g>
</g>
<!-- Node4 -->
<g id="Node000004" class="node">
<title>Node4</title>
<g id="a_Node000004"><a xlink:href="structImVector.html#a0f14f5736c3372157856eebb67123b75" target="_top" xlink:title=" ">
<polygon fill="white" stroke="#666666" points="438.75,-69.12 336.5,-69.12 336.5,-48.38 438.75,-48.38 438.75,-69.12"/>
<text text-anchor="middle" x="387.62" y="-55.62" font-family="Helvetica,sans-Serif" font-size="10.00">ImVector::reserve</text>
</a>
</g>
</g>
<!-- Node2&#45;&gt;Node4 -->
<g id="edge3_Node000002_Node000004" class="edge">
<title>Node2&#45;&gt;Node4</title>
<g id="a_edge3_Node000002_Node000004"><a xlink:title=" ">
<path fill="none" stroke="#63b8ff" d="M278.77,-60.7C293.65,-60.43 309.73,-60.14 324.8,-59.87"/>
<polygon fill="#63b8ff" stroke="#63b8ff" points="324.65,-63.37 334.58,-59.69 324.52,-56.37 324.65,-63.37"/>
</a>
</g>
</g>
<!-- Node6 -->
<g id="Node000006" class="node">
<title>Node6</title>
<g id="a_Node000006"><a xlink:href="namespaceImGui.html#aed896913f2e140cd0ad7431060dba50b" target="_top" xlink:title=" ">
<polygon fill="white" stroke="#666666" points="437.62,-27.12 337.62,-27.12 337.62,-6.38 437.62,-6.38 437.62,-27.12"/>
<text text-anchor="middle" x="387.62" y="-13.62" font-family="Helvetica,sans-Serif" font-size="10.00">ImGui::MemAlloc</text>
</a>
</g>
</g>
<!-- Node5&#45;&gt;Node6 -->
<g id="edge5_Node000005_Node000006" class="edge">
<title>Node5&#45;&gt;Node6</title>
<g id="a_edge5_Node000005_Node000006"><a xlink:title=" ">
<path fill="none" stroke="#63b8ff" d="M281.1,-16.75C295.65,-16.75 311.2,-16.75 325.77,-16.75"/>
<polygon fill="#63b8ff" stroke="#63b8ff" points="325.69,-20.25 335.69,-16.75 325.69,-13.25 325.69,-20.25"/>
</a>
</g>
</g>
<!-- Node7 -->
<g id="Node000007" class="node">
<title>Node7</title>
<g id="a_Node000007"><a xlink:href="namespaceImGui.html#af81dc8d88fa2e5d0996163993f90ccf8" target="_top" xlink:title=" ">
<polygon fill="white" stroke="#666666" points="626.5,-27.12 494.25,-27.12 494.25,-6.38 626.5,-6.38 626.5,-27.12"/>
<text text-anchor="middle" x="560.38" y="-13.62" font-family="Helvetica,sans-Serif" font-size="10.00">ImGui::DebugAllocHook</text>
</a>
</g>
</g>
<!-- Node6&#45;&gt;Node7 -->
<g id="edge6_Node000006_Node000007" class="edge">
<title>Node6&#45;&gt;Node7</title>
<g id="a_edge6_Node000006_Node000007"><a xlink:title=" ">
<path fill="none" stroke="#63b8ff" d="M438.01,-16.75C451.91,-16.75 467.35,-16.75 482.45,-16.75"/>
<polygon fill="#63b8ff" stroke="#63b8ff" points="482.37,-20.25 492.37,-16.75 482.37,-13.25 482.37,-20.25"/>
</a>
</g>
</g>
</g>
</svg>
