<?xml version="1.0" encoding="UTF-8" standalone="no"?>
<!DOCTYPE svg PUBLIC "-//W3C//DTD SVG 1.1//EN"
 "http://www.w3.org/Graphics/SVG/1.1/DTD/svg11.dtd">
<!-- Generated by graphviz version 12.2.0 (20241103.1931)
 -->
<!-- Title: ImPool::GetIndex Pages: 1 -->
<svg width="1459pt" height="500pt"
 viewBox="0.00 0.00 1459.00 500.40" xmlns="http://www.w3.org/2000/svg" xmlns:xlink="http://www.w3.org/1999/xlink">
<g id="graph0" class="graph" transform="scale(1 1) rotate(0) translate(4 496.4)">
<title>ImPool::GetIndex</title>
<!-- Node1 -->
<g id="Node000001" class="node">
<title>Node1</title>
<g id="a_Node000001"><a xlink:title=" ">
<polygon fill="#999999" stroke="#666666" points="1451,-241.48 1351,-241.48 1351,-220.73 1451,-220.73 1451,-241.48"/>
<text text-anchor="middle" x="1401" y="-227.98" font-family="Helvetica,sans-Serif" font-size="10.00">ImPool::GetIndex</text>
</a>
</g>
</g>
<!-- Node2 -->
<g id="Node000002" class="node">
<title>Node2</title>
<g id="a_Node000002"><a xlink:href="namespaceImGui.html#a28046a30716afeb7738a82a5b19044ca" target="_top" xlink:title=" ">
<polygon fill="white" stroke="#666666" points="1284.62,-335.48 1168.12,-335.48 1168.12,-314.73 1284.62,-314.73 1284.62,-335.48"/>
<text text-anchor="middle" x="1226.38" y="-321.98" font-family="Helvetica,sans-Serif" font-size="10.00">ImGui::BeginTableEx</text>
</a>
</g>
</g>
<!-- Node1&#45;&gt;Node2 -->
<g id="edge1_Node000001_Node000002" class="edge">
<title>Node1&#45;&gt;Node2</title>
<g id="a_edge1_Node000001_Node000002"><a xlink:title=" ">
<path fill="none" stroke="#63b8ff" d="M1382.05,-249.8C1365.89,-265.6 1340.78,-287.75 1315,-301.11 1304.5,-306.55 1292.63,-310.87 1281.09,-314.24"/>
<polygon fill="#63b8ff" stroke="#63b8ff" points="1384.4,-252.39 1388.98,-242.84 1379.45,-247.45 1384.4,-252.39"/>
</a>
</g>
</g>
<!-- Node16 -->
<g id="Node000016" class="node">
<title>Node16</title>
<g id="a_Node000016"><a xlink:href="namespaceImGui.html#a9c70aaa6464c2e51e6f3342da133ada1" target="_top" xlink:title=" ">
<polygon fill="white" stroke="#666666" points="1090.5,-293.48 995.75,-293.48 995.75,-272.73 1090.5,-272.73 1090.5,-293.48"/>
<text text-anchor="middle" x="1043.12" y="-279.98" font-family="Helvetica,sans-Serif" font-size="10.00">ImGui::EndTable</text>
</a>
</g>
</g>
<!-- Node1&#45;&gt;Node16 -->
<g id="edge28_Node000001_Node000016" class="edge">
<title>Node1&#45;&gt;Node16</title>
<g id="a_edge28_Node000001_Node000016"><a xlink:title=" ">
<path fill="none" stroke="#63b8ff" d="M1370.94,-246.83C1354.92,-254.7 1334.4,-263.51 1315,-268.11 1238.01,-286.37 1145.41,-287.13 1090.85,-285.48"/>
<polygon fill="#63b8ff" stroke="#63b8ff" points="1372.08,-250.17 1379.42,-242.53 1368.91,-243.93 1372.08,-250.17"/>
</a>
</g>
</g>
<!-- Node19 -->
<g id="Node000019" class="node">
<title>Node19</title>
<g id="a_Node000019"><a xlink:href="structImPool.html#a7b2c095ea540dc8afb670e705a37a912" target="_top" xlink:title=" ">
<polygon fill="white" stroke="#666666" points="1274.5,-241.48 1178.25,-241.48 1178.25,-220.73 1274.5,-220.73 1274.5,-241.48"/>
<text text-anchor="middle" x="1226.38" y="-227.98" font-family="Helvetica,sans-Serif" font-size="10.00">ImPool::Remove</text>
</a>
</g>
</g>
<!-- Node1&#45;&gt;Node19 -->
<g id="edge38_Node000001_Node000019" class="edge">
<title>Node1&#45;&gt;Node19</title>
<g id="a_edge38_Node000001_Node000019"><a xlink:title=" ">
<path fill="none" stroke="#63b8ff" d="M1339.07,-231.11C1317.96,-231.11 1294.63,-231.11 1274.77,-231.11"/>
<polygon fill="#63b8ff" stroke="#63b8ff" points="1339.02,-234.61 1349.02,-231.11 1339.02,-227.61 1339.02,-234.61"/>
</a>
</g>
</g>
<!-- Node20 -->
<g id="Node000020" class="node">
<title>Node20</title>
<g id="a_Node000020"><a xlink:href="namespaceImGui.html#a3fa207dacfbee7ac3c7241dfea4fb638" target="_top" xlink:title=" ">
<polygon fill="white" stroke="#666666" points="1101.75,-222.48 984.5,-222.48 984.5,-201.73 1101.75,-201.73 1101.75,-222.48"/>
<text text-anchor="middle" x="1043.12" y="-208.98" font-family="Helvetica,sans-Serif" font-size="10.00">ImGui::TableRemove</text>
</a>
</g>
</g>
<!-- Node1&#45;&gt;Node20 -->
<g id="edge43_Node000001_Node000020" class="edge">
<title>Node1&#45;&gt;Node20</title>
<g id="a_edge43_Node000001_Node000020"><a xlink:title=" ">
<path fill="none" stroke="#63b8ff" d="M1349.18,-217.84C1338,-215.46 1326.16,-213.34 1315,-212.11 1241.96,-204.05 1157.17,-205.82 1102.19,-208.44"/>
<polygon fill="#63b8ff" stroke="#63b8ff" points="1348.09,-221.18 1358.62,-219.96 1349.63,-214.35 1348.09,-221.18"/>
</a>
</g>
</g>
<!-- Node21 -->
<g id="Node000021" class="node">
<title>Node21</title>
<g id="a_Node000021"><a xlink:href="namespaceImGui.html#af3cb65f8b45057e34fa7d9447a57eb28" target="_top" xlink:title=" ">
<polygon fill="white" stroke="#666666" points="1315,-164.86 1137.75,-164.86 1137.75,-131.36 1315,-131.36 1315,-164.86"/>
<text text-anchor="start" x="1145.75" y="-151.36" font-family="Helvetica,sans-Serif" font-size="10.00">ImGui::TableGcCompactTransient</text>
<text text-anchor="middle" x="1226.38" y="-138.61" font-family="Helvetica,sans-Serif" font-size="10.00">Buffers</text>
</a>
</g>
</g>
<!-- Node1&#45;&gt;Node21 -->
<g id="edge41_Node000001_Node000021" class="edge">
<title>Node1&#45;&gt;Node21</title>
<g id="a_edge41_Node000001_Node000021"><a xlink:title=" ">
<path fill="none" stroke="#63b8ff" d="M1375.11,-213.97C1358.56,-203.06 1336.08,-189.15 1315,-179.11 1304.37,-174.04 1292.67,-169.35 1281.38,-165.22"/>
<polygon fill="#63b8ff" stroke="#63b8ff" points="1373.06,-216.81 1383.32,-219.47 1376.96,-210.99 1373.06,-216.81"/>
</a>
</g>
</g>
<!-- Node3 -->
<g id="Node000003" class="node">
<title>Node3</title>
<g id="a_Node000003"><a xlink:href="namespaceImGui.html#a7ab019bafef9850ab97375a6b52670d3" target="_top" xlink:title=" ">
<polygon fill="white" stroke="#666666" points="1095.38,-335.48 990.88,-335.48 990.88,-314.73 1095.38,-314.73 1095.38,-335.48"/>
<text text-anchor="middle" x="1043.12" y="-321.98" font-family="Helvetica,sans-Serif" font-size="10.00">ImGui::BeginTable</text>
</a>
</g>
</g>
<!-- Node2&#45;&gt;Node3 -->
<g id="edge2_Node000002_Node000003" class="edge">
<title>Node2&#45;&gt;Node3</title>
<g id="a_edge2_Node000002_Node000003"><a xlink:title=" ">
<path fill="none" stroke="#63b8ff" d="M1156.63,-325.11C1136.37,-325.11 1114.56,-325.11 1095.58,-325.11"/>
<polygon fill="#63b8ff" stroke="#63b8ff" points="1156.51,-328.61 1166.51,-325.11 1156.51,-321.61 1156.51,-328.61"/>
</a>
</g>
</g>
<!-- Node4 -->
<g id="Node000004" class="node">
<title>Node4</title>
<g id="a_Node000004"><a xlink:href="namespaceImGui.html#a8600f7b1f9b18926fb00837e56d2b3cd" target="_top" xlink:title=" ">
<polygon fill="white" stroke="#666666" points="941,-236.48 782.5,-236.48 782.5,-215.73 941,-215.73 941,-236.48"/>
<text text-anchor="middle" x="861.75" y="-222.98" font-family="Helvetica,sans-Serif" font-size="10.00">ImGui::DebugNodeDockNode</text>
</a>
</g>
</g>
<!-- Node3&#45;&gt;Node4 -->
<g id="edge3_Node000003_Node000004" class="edge">
<title>Node3&#45;&gt;Node4</title>
<g id="a_edge3_Node000003_Node000004"><a xlink:title=" ">
<path fill="none" stroke="#63b8ff" d="M997.77,-309.72C993.14,-307.44 988.62,-304.91 984.5,-302.11 965.25,-289.05 967.5,-277.53 948.5,-264.11 932.14,-252.56 911.7,-243.33 894.89,-236.87"/>
<polygon fill="#63b8ff" stroke="#63b8ff" points="996.04,-312.78 1006.6,-313.68 998.9,-306.4 996.04,-312.78"/>
</a>
</g>
</g>
<!-- Node8 -->
<g id="Node000008" class="node">
<title>Node8</title>
<g id="a_Node000008"><a xlink:href="namespaceImGui.html#af95643a0ce4893b9e57c12991922fb18" target="_top" xlink:title=" ">
<polygon fill="white" stroke="#666666" points="145.75,-170.48 0,-170.48 0,-149.73 145.75,-149.73 145.75,-170.48"/>
<text text-anchor="middle" x="72.88" y="-156.98" font-family="Helvetica,sans-Serif" font-size="10.00">ImGui::ShowDemoWindow</text>
</a>
</g>
</g>
<!-- Node3&#45;&gt;Node8 -->
<g id="edge22_Node000003_Node000008" class="edge">
<title>Node3&#45;&gt;Node8</title>
<g id="a_edge22_Node000003_Node000008"><a xlink:title=" ">
<path fill="none" stroke="#63b8ff" d="M1034.18,-346.28C1021.38,-377.03 993.04,-433.11 948.5,-458.11 835.86,-521.32 787.67,-477.11 658.5,-477.11 658.5,-477.11 658.5,-477.11 454.12,-477.11 258.17,-477.11 109.64,-225.66 79.49,-170.66"/>
<polygon fill="#63b8ff" stroke="#63b8ff" points="1037.32,-347.84 1037.76,-337.26 1030.82,-345.26 1037.32,-347.84"/>
</a>
</g>
</g>
<!-- Node10 -->
<g id="Node000010" class="node">
<title>Node10</title>
<g id="a_Node000010"><a xlink:href="namespaceImGui.html#a326f0badd138d1dea078a31b0e8dd685" target="_top" xlink:title=" ">
<polygon fill="white" stroke="#666666" points="935.38,-293.48 788.12,-293.48 788.12,-272.73 935.38,-272.73 935.38,-293.48"/>
<text text-anchor="middle" x="861.75" y="-279.98" font-family="Helvetica,sans-Serif" font-size="10.00">ImGui::DebugTextEncoding</text>
</a>
</g>
</g>
<!-- Node3&#45;&gt;Node10 -->
<g id="edge17_Node000003_Node000010" class="edge">
<title>Node3&#45;&gt;Node10</title>
<g id="a_edge17_Node000003_Node000010"><a xlink:title=" ">
<path fill="none" stroke="#63b8ff" d="M987.78,-311.53C974.91,-308.38 961.23,-305.08 948.5,-302.11 936.92,-299.4 924.43,-296.58 912.67,-293.97"/>
<polygon fill="#63b8ff" stroke="#63b8ff" points="986.81,-314.9 997.36,-313.89 988.48,-308.1 986.81,-314.9"/>
</a>
</g>
</g>
<!-- Node11 -->
<g id="Node000011" class="node">
<title>Node11</title>
<g id="a_Node000011"><a xlink:href="structExampleAppPropertyEditor.html#adfdfd135c8e210849d5ecbe4d4969813" target="_top" xlink:title=" ">
<polygon fill="white" stroke="#666666" points="935.38,-448.86 788.12,-448.86 788.12,-415.36 935.38,-415.36 935.38,-448.86"/>
<text text-anchor="start" x="796.12" y="-435.36" font-family="Helvetica,sans-Serif" font-size="10.00">ExampleAppPropertyEditor</text>
<text text-anchor="middle" x="861.75" y="-422.61" font-family="Helvetica,sans-Serif" font-size="10.00">::Draw</text>
</a>
</g>
</g>
<!-- Node3&#45;&gt;Node11 -->
<g id="edge19_Node000003_Node000011" class="edge">
<title>Node3&#45;&gt;Node11</title>
<g id="a_edge19_Node000003_Node000011"><a xlink:title=" ">
<path fill="none" stroke="#63b8ff" d="M1024.87,-344.08C1007.29,-362.37 978.43,-389.61 948.5,-406.11 942.51,-409.41 936.04,-412.35 929.44,-414.95"/>
<polygon fill="#63b8ff" stroke="#63b8ff" points="1027.21,-346.7 1031.51,-337.02 1022.11,-341.91 1027.21,-346.7"/>
</a>
</g>
</g>
<!-- Node12 -->
<g id="Node000012" class="node">
<title>Node12</title>
<g id="a_Node000012"><a xlink:href="structExampleAssetsBrowser.html#a2b36e1f9b7d764e547611baa4c7fd8d1" target="_top" xlink:title=" ">
<polygon fill="white" stroke="#666666" points="927.12,-396.86 796.38,-396.86 796.38,-363.36 927.12,-363.36 927.12,-396.86"/>
<text text-anchor="start" x="804.38" y="-383.36" font-family="Helvetica,sans-Serif" font-size="10.00">ExampleAssetsBrowser</text>
<text text-anchor="middle" x="861.75" y="-370.61" font-family="Helvetica,sans-Serif" font-size="10.00">::Draw</text>
</a>
</g>
</g>
<!-- Node3&#45;&gt;Node12 -->
<g id="edge20_Node000003_Node000012" class="edge">
<title>Node3&#45;&gt;Node12</title>
<g id="a_edge20_Node000003_Node000012"><a xlink:title=" ">
<path fill="none" stroke="#63b8ff" d="M996.69,-339.24C981.39,-343.99 964.21,-349.29 948.5,-354.11 939.13,-356.98 929.18,-360.01 919.5,-362.95"/>
<polygon fill="#63b8ff" stroke="#63b8ff" points="997.5,-342.66 1006.01,-336.35 995.43,-335.97 997.5,-342.66"/>
</a>
</g>
</g>
<!-- Node13 -->
<g id="Node000013" class="node">
<title>Node13</title>
<g id="a_Node000013"><a xlink:href="structExampleDualListBox.html#a1413fd803c568a0d4b98a8f3c59af1be" target="_top" xlink:title=" ">
<polygon fill="white" stroke="#666666" points="920.38,-344.86 803.12,-344.86 803.12,-311.36 920.38,-311.36 920.38,-344.86"/>
<text text-anchor="start" x="811.12" y="-331.36" font-family="Helvetica,sans-Serif" font-size="10.00">ExampleDualListBox</text>
<text text-anchor="middle" x="861.75" y="-318.61" font-family="Helvetica,sans-Serif" font-size="10.00">::Show</text>
</a>
</g>
</g>
<!-- Node3&#45;&gt;Node13 -->
<g id="edge21_Node000003_Node000013" class="edge">
<title>Node3&#45;&gt;Node13</title>
<g id="a_edge21_Node000003_Node000013"><a xlink:title=" ">
<path fill="none" stroke="#63b8ff" d="M979.43,-326.16C960.37,-326.48 939.52,-326.82 920.79,-327.14"/>
<polygon fill="#63b8ff" stroke="#63b8ff" points="979.27,-329.66 989.21,-325.99 979.15,-322.66 979.27,-329.66"/>
</a>
</g>
</g>
<!-- Node14 -->
<g id="Node000014" class="node">
<title>Node14</title>
<g id="a_Node000014"><a xlink:href="namespaceImGui.html#ab4a87bf4a874a8e5872b60b4a9b1d99e" target="_top" xlink:title=" ">
<polygon fill="white" stroke="#666666" points="948.5,-197.48 775,-197.48 775,-176.73 948.5,-176.73 948.5,-197.48"/>
<text text-anchor="middle" x="861.75" y="-183.98" font-family="Helvetica,sans-Serif" font-size="10.00">ImGui::ShowIDStackToolWindow</text>
</a>
</g>
</g>
<!-- Node3&#45;&gt;Node14 -->
<g id="edge23_Node000003_Node000014" class="edge">
<title>Node3&#45;&gt;Node14</title>
<g id="a_edge23_Node000003_Node000014"><a xlink:title=" ">
<path fill="none" stroke="#63b8ff" d="M992.52,-308.74C989.62,-306.77 986.91,-304.56 984.5,-302.11 952.85,-269.9 982.48,-236.84 948.5,-207.11 944.24,-203.38 939.43,-200.32 934.3,-197.8"/>
<polygon fill="#63b8ff" stroke="#63b8ff" points="990.51,-311.63 1000.93,-313.54 993.98,-305.54 990.51,-311.63"/>
</a>
</g>
</g>
<!-- Node4&#45;&gt;Node4 -->
<g id="edge4_Node000004_Node000004" class="edge">
<title>Node4&#45;&gt;Node4</title>
<g id="a_edge4_Node000004_Node000004"><a xlink:title=" ">
<path fill="none" stroke="#63b8ff" d="M893.67,-247.97C889.44,-251.81 878.8,-254.48 861.75,-254.48 830.58,-254.48 820.83,-245.54 832.52,-236.88"/>
<polygon fill="#63b8ff" stroke="#63b8ff" points="897.09,-247.24 891.33,-238.35 890.29,-248.9 897.09,-247.24"/>
</a>
</g>
</g>
<!-- Node5 -->
<g id="Node000005" class="node">
<title>Node5</title>
<g id="a_Node000005"><a xlink:href="namespaceImGui.html#afcb602554925c5409977f0fb39f77e5d" target="_top" xlink:title=" ">
<polygon fill="white" stroke="#666666" points="731.12,-274.48 583.88,-274.48 583.88,-253.73 731.12,-253.73 731.12,-274.48"/>
<text text-anchor="middle" x="657.5" y="-260.98" font-family="Helvetica,sans-Serif" font-size="10.00">ImGui::DebugNodeWindow</text>
</a>
</g>
</g>
<!-- Node4&#45;&gt;Node5 -->
<g id="edge5_Node000004_Node000005" class="edge">
<title>Node4&#45;&gt;Node5</title>
<g id="a_edge5_Node000004_Node000005"><a xlink:title=" ">
<path fill="none" stroke="#63b8ff" d="M771.14,-236.23C741.9,-241.53 711.35,-247.83 689.46,-253.27"/>
<polygon fill="#63b8ff" stroke="#63b8ff" points="771.54,-239.72 780.78,-234.52 770.32,-232.83 771.54,-239.72"/>
</a>
</g>
</g>
<!-- Node7 -->
<g id="Node000007" class="node">
<title>Node7</title>
<g id="a_Node000007"><a xlink:href="namespaceImGui.html#afe7a28c6eb52fff3cc27d5a698fea4ff" target="_top" xlink:title=" ">
<polygon fill="white" stroke="#666666" points="334.25,-258.48 181.75,-258.48 181.75,-237.73 334.25,-237.73 334.25,-258.48"/>
<text text-anchor="middle" x="258" y="-244.98" font-family="Helvetica,sans-Serif" font-size="10.00">ImGui::ShowMetricsWindow</text>
</a>
</g>
</g>
<!-- Node4&#45;&gt;Node7 -->
<g id="edge16_Node000004_Node000007" class="edge">
<title>Node4&#45;&gt;Node7</title>
<g id="a_edge16_Node000004_Node000007"><a xlink:title=" ">
<path fill="none" stroke="#63b8ff" d="M818.05,-241.24C803.74,-247.28 788.1,-254.99 775,-264.11 756.17,-277.22 759.81,-291.45 739,-301.11 590.24,-370.17 528.27,-359.02 370.25,-315.11 330.71,-304.12 291.16,-274.89 271.6,-258.91"/>
<polygon fill="#63b8ff" stroke="#63b8ff" points="819.31,-244.51 827.27,-237.52 816.69,-238.02 819.31,-244.51"/>
</a>
</g>
</g>
<!-- Node5&#45;&gt;Node4 -->
<g id="edge6_Node000005_Node000004" class="edge">
<title>Node5&#45;&gt;Node4</title>
<g id="a_edge6_Node000005_Node000004"><a xlink:title=" ">
<path fill="none" stroke="#63b8ff" d="M742.83,-254.93C773.74,-249.43 806.81,-242.67 830.03,-236.89"/>
<polygon fill="#63b8ff" stroke="#63b8ff" points="742.3,-251.47 733.05,-256.63 743.51,-258.37 742.3,-251.47"/>
</a>
</g>
</g>
<!-- Node5&#45;&gt;Node5 -->
<g id="edge7_Node000005_Node000005" class="edge">
<title>Node5&#45;&gt;Node5</title>
<g id="a_edge7_Node000005_Node000005"><a xlink:title=" ">
<path fill="none" stroke="#63b8ff" d="M693.11,-285.97C688.39,-289.81 676.52,-292.48 657.5,-292.48 622.72,-292.48 611.85,-283.54 624.89,-274.88"/>
<polygon fill="#63b8ff" stroke="#63b8ff" points="696.5,-285.08 690.5,-276.34 689.74,-286.91 696.5,-285.08"/>
</a>
</g>
</g>
<!-- Node6 -->
<g id="Node000006" class="node">
<title>Node6</title>
<g id="a_Node000006"><a xlink:href="namespaceImGui.html#a8c2ed9f140c90d8eaca1e2cfd8f46142" target="_top" xlink:title=" ">
<polygon fill="white" stroke="#666666" points="540,-236.48 370.25,-236.48 370.25,-215.73 540,-215.73 540,-236.48"/>
<text text-anchor="middle" x="455.12" y="-222.98" font-family="Helvetica,sans-Serif" font-size="10.00">ImGui::DebugNodeWindowsList</text>
</a>
</g>
</g>
<!-- Node5&#45;&gt;Node6 -->
<g id="edge8_Node000005_Node000006" class="edge">
<title>Node5&#45;&gt;Node6</title>
<g id="a_edge8_Node000005_Node000006"><a xlink:title=" ">
<path fill="none" stroke="#63b8ff" d="M614.98,-250.64C593.33,-245.56 566.02,-240.03 540.19,-235.38"/>
<polygon fill="#63b8ff" stroke="#63b8ff" points="614.05,-254.02 624.6,-252.97 615.7,-247.22 614.05,-254.02"/>
</a>
</g>
</g>
<!-- Node9 -->
<g id="Node000009" class="node">
<title>Node9</title>
<g id="a_Node000009"><a xlink:href="namespaceImGui.html#a0fc8019faf3a1aec25b554384ad9e506" target="_top" xlink:title=" ">
<polygon fill="white" stroke="#666666" points="540,-287.86 370.25,-287.86 370.25,-254.36 540,-254.36 540,-287.86"/>
<text text-anchor="start" x="378.25" y="-274.36" font-family="Helvetica,sans-Serif" font-size="10.00">ImGui::DebugNodeWindowsList</text>
<text text-anchor="middle" x="455.12" y="-261.61" font-family="Helvetica,sans-Serif" font-size="10.00">ByBeginStackParent</text>
</a>
</g>
</g>
<!-- Node5&#45;&gt;Node9 -->
<g id="edge13_Node000005_Node000009" class="edge">
<title>Node5&#45;&gt;Node9</title>
<g id="a_edge13_Node000005_Node000009"><a xlink:title=" ">
<path fill="none" stroke="#63b8ff" d="M572.22,-267.05C561.62,-267.42 550.78,-267.8 540.19,-268.17"/>
<polygon fill="#63b8ff" stroke="#63b8ff" points="572.21,-270.56 582.08,-266.71 571.96,-263.56 572.21,-270.56"/>
</a>
</g>
</g>
<!-- Node6&#45;&gt;Node4 -->
<g id="edge9_Node000006_Node000004" class="edge">
<title>Node6&#45;&gt;Node4</title>
<g id="a_edge9_Node000006_Node000004"><a xlink:title=" ">
<path fill="none" stroke="#63b8ff" d="M551.83,-226.11C622.11,-226.11 716.4,-226.11 782.25,-226.11"/>
<polygon fill="#63b8ff" stroke="#63b8ff" points="551.84,-222.61 541.84,-226.11 551.84,-229.61 551.84,-222.61"/>
</a>
</g>
</g>
<!-- Node6&#45;&gt;Node5 -->
<g id="edge10_Node000006_Node000005" class="edge">
<title>Node6&#45;&gt;Node5</title>
<g id="a_edge10_Node000006_Node000005"><a xlink:title=" ">
<path fill="none" stroke="#63b8ff" d="M498.01,-239.66C522.77,-245.46 554.81,-251.84 583.59,-256.8"/>
<polygon fill="#63b8ff" stroke="#63b8ff" points="498.85,-236.26 488.31,-237.32 497.21,-243.07 498.85,-236.26"/>
</a>
</g>
</g>
<!-- Node6&#45;&gt;Node7 -->
<g id="edge11_Node000006_Node000007" class="edge">
<title>Node6&#45;&gt;Node7</title>
<g id="a_edge11_Node000006_Node000007"><a xlink:title=" ">
<path fill="none" stroke="#63b8ff" d="M358.6,-236.88C350.54,-237.79 342.47,-238.7 334.59,-239.59"/>
<polygon fill="#63b8ff" stroke="#63b8ff" points="358.91,-240.37 368.45,-235.77 358.13,-233.41 358.91,-240.37"/>
</a>
</g>
</g>
<!-- Node7&#45;&gt;Node8 -->
<g id="edge12_Node000007_Node000008" class="edge">
<title>Node7&#45;&gt;Node8</title>
<g id="a_edge12_Node000007_Node000008"><a xlink:title=" ">
<path fill="none" stroke="#63b8ff" d="M224.3,-232.4C187.37,-214.65 128.24,-186.24 96.23,-170.85"/>
<polygon fill="#63b8ff" stroke="#63b8ff" points="222.65,-235.49 233.18,-236.66 225.68,-229.18 222.65,-235.49"/>
</a>
</g>
</g>
<!-- Node9&#45;&gt;Node7 -->
<g id="edge15_Node000009_Node000007" class="edge">
<title>Node9&#45;&gt;Node7</title>
<g id="a_edge15_Node000009_Node000007"><a xlink:title=" ">
<path fill="none" stroke="#63b8ff" d="M358.6,-259.85C350.54,-258.9 342.47,-257.95 334.59,-257.02"/>
<polygon fill="#63b8ff" stroke="#63b8ff" points="358.11,-263.32 368.46,-261.01 358.93,-256.36 358.11,-263.32"/>
</a>
</g>
</g>
<!-- Node9&#45;&gt;Node9 -->
<g id="edge14_Node000009_Node000009" class="edge">
<title>Node9&#45;&gt;Node9</title>
<g id="a_edge14_Node000009_Node000009"><a xlink:title=" ">
<path fill="none" stroke="#63b8ff" d="M488.22,-299.25C482.83,-303.21 471.8,-305.86 455.12,-305.86 425.48,-305.86 413.67,-297.48 419.69,-288.27"/>
<polygon fill="#63b8ff" stroke="#63b8ff" points="491.59,-300.26 490.25,-289.75 484.74,-298.8 491.59,-300.26"/>
</a>
</g>
</g>
<!-- Node10&#45;&gt;Node7 -->
<g id="edge18_Node000010_Node000007" class="edge">
<title>Node10&#45;&gt;Node7</title>
<g id="a_edge18_Node000010_Node000007"><a xlink:title=" ">
<path fill="none" stroke="#63b8ff" d="M783.25,-298C780.42,-299.26 777.66,-300.63 775,-302.11 754.96,-313.28 759.98,-329.81 739,-339.11 589.14,-405.52 523.6,-404.02 370.25,-346.11 323.05,-328.29 282.91,-280.31 266.69,-258.8"/>
<polygon fill="#63b8ff" stroke="#63b8ff" points="784.33,-301.34 792.37,-294.45 781.79,-294.82 784.33,-301.34"/>
</a>
</g>
</g>
<!-- Node14&#45;&gt;Node7 -->
<g id="edge25_Node000014_Node000007" class="edge">
<title>Node14&#45;&gt;Node7</title>
<g id="a_edge25_Node000014_Node000007"><a xlink:title=" ">
<path fill="none" stroke="#63b8ff" d="M763.47,-182.23C663.74,-179.28 504.65,-180.29 370.25,-207.11 338.56,-213.43 303.9,-227.42 281.83,-237.29"/>
<polygon fill="#63b8ff" stroke="#63b8ff" points="763.11,-185.72 773.22,-182.53 763.33,-178.72 763.11,-185.72"/>
</a>
</g>
</g>
<!-- Node14&#45;&gt;Node8 -->
<g id="edge24_Node000014_Node000008" class="edge">
<title>Node14&#45;&gt;Node8</title>
<g id="a_edge24_Node000014_Node000008"><a xlink:title=" ">
<path fill="none" stroke="#63b8ff" d="M839.49,-169.13C816.45,-150.93 777.76,-123.97 739,-113.11 506.3,-47.94 210.84,-120.3 109.7,-149.24"/>
<polygon fill="#63b8ff" stroke="#63b8ff" points="837.21,-171.79 847.18,-175.37 841.62,-166.35 837.21,-171.79"/>
</a>
</g>
</g>
<!-- Node15 -->
<g id="Node000015" class="node">
<title>Node15</title>
<g id="a_Node000015"><a xlink:href="namespaceImGui.html#a1b6e100d30894c9379908efc540e5486" target="_top" xlink:title=" ">
<polygon fill="white" stroke="#666666" points="739,-142.48 576,-142.48 576,-121.73 739,-121.73 739,-142.48"/>
<text text-anchor="middle" x="657.5" y="-128.98" font-family="Helvetica,sans-Serif" font-size="10.00">ImGui::ShowStackToolWindow</text>
</a>
</g>
</g>
<!-- Node14&#45;&gt;Node15 -->
<g id="edge26_Node000014_Node000015" class="edge">
<title>Node14&#45;&gt;Node15</title>
<g id="a_edge26_Node000014_Node000015"><a xlink:title=" ">
<path fill="none" stroke="#63b8ff" d="M809.97,-173.3C775.42,-163.91 730.35,-151.65 698.38,-142.95"/>
<polygon fill="#63b8ff" stroke="#63b8ff" points="808.76,-176.6 819.33,-175.85 810.6,-169.84 808.76,-176.6"/>
</a>
</g>
</g>
<!-- Node15&#45;&gt;Node15 -->
<g id="edge27_Node000015_Node000015" class="edge">
<title>Node15&#45;&gt;Node15</title>
<g id="a_edge27_Node000015_Node000015"><a xlink:title=" ">
<path fill="none" stroke="#63b8ff" d="M693.11,-153.97C688.39,-157.81 676.52,-160.48 657.5,-160.48 622.72,-160.48 611.85,-151.54 624.89,-142.88"/>
<polygon fill="#63b8ff" stroke="#63b8ff" points="696.5,-153.08 690.5,-144.34 689.74,-154.91 696.5,-153.08"/>
</a>
</g>
</g>
<!-- Node16&#45;&gt;Node4 -->
<g id="edge29_Node000016_Node000004" class="edge">
<title>Node16&#45;&gt;Node4</title>
<g id="a_edge29_Node000016_Node000004"><a xlink:title=" ">
<path fill="none" stroke="#63b8ff" d="M997.38,-268.89C966.22,-258.99 925.3,-245.98 896.78,-236.92"/>
<polygon fill="#63b8ff" stroke="#63b8ff" points="995.93,-272.1 1006.52,-271.79 998.05,-265.43 995.93,-272.1"/>
</a>
</g>
</g>
<!-- Node16&#45;&gt;Node8 -->
<g id="edge36_Node000016_Node000008" class="edge">
<title>Node16&#45;&gt;Node8</title>
<g id="a_edge36_Node000016_Node000008"><a xlink:title=" ">
<path fill="none" stroke="#63b8ff" d="M1016.22,-265.49C1004.86,-256.48 992.35,-244.57 984.5,-231.11 947.36,-167.38 1000.61,-121.31 948.5,-69.11 855.19,24.38 790.59,-4.11 658.5,-4.11 658.5,-4.11 658.5,-4.11 454.12,-4.11 300.71,-4.11 136.78,-114.14 88.21,-149.39"/>
<polygon fill="#63b8ff" stroke="#63b8ff" points="1014.06,-268.25 1024.16,-271.44 1018.26,-262.65 1014.06,-268.25"/>
</a>
</g>
</g>
<!-- Node16&#45;&gt;Node10 -->
<g id="edge30_Node000016_Node000010" class="edge">
<title>Node16&#45;&gt;Node10</title>
<g id="a_edge30_Node000016_Node000010"><a xlink:title=" ">
<path fill="none" stroke="#63b8ff" d="M983.98,-283.11C968.55,-283.11 951.7,-283.11 935.6,-283.11"/>
<polygon fill="#63b8ff" stroke="#63b8ff" points="983.95,-286.61 993.95,-283.11 983.95,-279.61 983.95,-286.61"/>
</a>
</g>
</g>
<!-- Node16&#45;&gt;Node11 -->
<g id="edge31_Node000016_Node000011" class="edge">
<title>Node16&#45;&gt;Node11</title>
<g id="a_edge31_Node000016_Node000011"><a xlink:title=" ">
<path fill="none" stroke="#63b8ff" d="M992.47,-299.43C989.59,-301.42 986.89,-303.63 984.5,-306.11 951.67,-340.08 982.74,-373.57 948.5,-406.11 944.67,-409.75 940.34,-412.89 935.71,-415.58"/>
<polygon fill="#63b8ff" stroke="#63b8ff" points="993.93,-302.63 1000.87,-294.62 990.45,-296.56 993.93,-302.63"/>
</a>
</g>
</g>
<!-- Node16&#45;&gt;Node12 -->
<g id="edge32_Node000016_Node000012" class="edge">
<title>Node16&#45;&gt;Node12</title>
<g id="a_edge32_Node000016_Node000012"><a xlink:title=" ">
<path fill="none" stroke="#63b8ff" d="M995.88,-298.84C991.87,-301.01 988.01,-303.42 984.5,-306.11 963.33,-322.32 970.34,-338.81 948.5,-354.11 942.13,-358.57 934.97,-362.28 927.59,-365.36"/>
<polygon fill="#63b8ff" stroke="#63b8ff" points="997.18,-302.1 1004.69,-294.63 994.16,-295.79 997.18,-302.1"/>
</a>
</g>
</g>
<!-- Node16&#45;&gt;Node13 -->
<g id="edge35_Node000016_Node000013" class="edge">
<title>Node16&#45;&gt;Node13</title>
<g id="a_edge35_Node000016_Node000013"><a xlink:title=" ">
<path fill="none" stroke="#63b8ff" d="M988.03,-296.68C966.74,-302.02 942.26,-308.16 920.63,-313.59"/>
<polygon fill="#63b8ff" stroke="#63b8ff" points="988.84,-300.08 997.69,-294.26 987.14,-293.29 988.84,-300.08"/>
</a>
</g>
</g>
<!-- Node16&#45;&gt;Node14 -->
<g id="edge37_Node000016_Node000014" class="edge">
<title>Node16&#45;&gt;Node14</title>
<g id="a_edge37_Node000016_Node000014"><a xlink:title=" ">
<path fill="none" stroke="#63b8ff" d="M1021.73,-264.72C999.25,-244.79 964.2,-214.8 948.5,-207.11 940.95,-203.41 932.69,-200.38 924.36,-197.9"/>
<polygon fill="#63b8ff" stroke="#63b8ff" points="1019.31,-267.25 1029.1,-271.3 1023.97,-262.03 1019.31,-267.25"/>
</a>
</g>
</g>
<!-- Node17 -->
<g id="Node000017" class="node">
<title>Node17</title>
<g id="a_Node000017"><a xlink:href="namespaceImGui.html#a945392cbf05b9434df8ec3630b10e01a" target="_top" xlink:title=" ">
<polygon fill="white" stroke="#666666" points="942.5,-111.86 781,-111.86 781,-78.36 942.5,-78.36 942.5,-111.86"/>
<text text-anchor="start" x="789" y="-98.36" font-family="Helvetica,sans-Serif" font-size="10.00">ImGui::ErrorCheckEndWindow</text>
<text text-anchor="middle" x="861.75" y="-85.61" font-family="Helvetica,sans-Serif" font-size="10.00">Recover</text>
</a>
</g>
</g>
<!-- Node16&#45;&gt;Node17 -->
<g id="edge33_Node000016_Node000017" class="edge">
<title>Node16&#45;&gt;Node17</title>
<g id="a_edge33_Node000016_Node000017"><a xlink:title=" ">
<path fill="none" stroke="#63b8ff" d="M1018.85,-265.04C1007.66,-255.66 994.54,-243.57 984.5,-231.11 964.27,-205.99 969.09,-192.93 948.5,-168.11 930.53,-146.44 905.64,-126.05 887.31,-112.36"/>
<polygon fill="#63b8ff" stroke="#63b8ff" points="1016.54,-267.68 1026.51,-271.28 1020.96,-262.25 1016.54,-267.68"/>
</a>
</g>
</g>
<!-- Node18 -->
<g id="Node000018" class="node">
<title>Node18</title>
<g id="a_Node000018"><a xlink:href="namespaceImGui.html#aaeda60ee2c0b5c2b3f397b237c9928f3" target="_top" xlink:title=" ">
<polygon fill="white" stroke="#666666" points="734.12,-65.86 580.88,-65.86 580.88,-32.36 734.12,-32.36 734.12,-65.86"/>
<text text-anchor="start" x="588.88" y="-52.36" font-family="Helvetica,sans-Serif" font-size="10.00">ImGui::ErrorCheckEndFrame</text>
<text text-anchor="middle" x="657.5" y="-39.61" font-family="Helvetica,sans-Serif" font-size="10.00">Recover</text>
</a>
</g>
</g>
<!-- Node17&#45;&gt;Node18 -->
<g id="edge34_Node000017_Node000018" class="edge">
<title>Node17&#45;&gt;Node18</title>
<g id="a_edge34_Node000017_Node000018"><a xlink:title=" ">
<path fill="none" stroke="#63b8ff" d="M774.13,-75.41C760.9,-72.4 747.32,-69.31 734.34,-66.36"/>
<polygon fill="#63b8ff" stroke="#63b8ff" points="773.15,-78.77 783.68,-77.58 774.7,-71.95 773.15,-78.77"/>
</a>
</g>
</g>
<!-- Node19&#45;&gt;Node19 -->
<g id="edge39_Node000019_Node000019" class="edge">
<title>Node19&#45;&gt;Node19</title>
<g id="a_edge39_Node000019_Node000019"><a xlink:title=" ">
<path fill="none" stroke="#63b8ff" d="M1257.1,-252.97C1253.03,-256.81 1242.79,-259.48 1226.38,-259.48 1196.36,-259.48 1186.98,-250.54 1198.24,-241.88"/>
<polygon fill="#63b8ff" stroke="#63b8ff" points="1260.54,-252.3 1254.86,-243.35 1253.72,-253.89 1260.54,-252.3"/>
</a>
</g>
</g>
<!-- Node19&#45;&gt;Node20 -->
<g id="edge40_Node000019_Node000020" class="edge">
<title>Node19&#45;&gt;Node20</title>
<g id="a_edge40_Node000019_Node000020"><a xlink:title=" ">
<path fill="none" stroke="#63b8ff" d="M1166.56,-224.94C1145.89,-222.78 1122.69,-220.34 1102.09,-218.19"/>
<polygon fill="#63b8ff" stroke="#63b8ff" points="1165.94,-228.4 1176.25,-225.96 1166.67,-221.44 1165.94,-228.4"/>
</a>
</g>
</g>
<!-- Node22 -->
<g id="Node000022" class="node">
<title>Node22</title>
<g id="a_Node000022"><a xlink:href="namespaceImGui.html#ab3f1fc018f903b7ad79fd10663375774" target="_top" xlink:title=" ">
<polygon fill="white" stroke="#666666" points="1095,-158.48 991.25,-158.48 991.25,-137.73 1095,-137.73 1095,-158.48"/>
<text text-anchor="middle" x="1043.12" y="-144.98" font-family="Helvetica,sans-Serif" font-size="10.00">ImGui::NewFrame</text>
</a>
</g>
</g>
<!-- Node21&#45;&gt;Node22 -->
<g id="edge42_Node000021_Node000022" class="edge">
<title>Node21&#45;&gt;Node22</title>
<g id="a_edge42_Node000021_Node000022"><a xlink:title=" ">
<path fill="none" stroke="#63b8ff" d="M1125.91,-148.11C1115.36,-148.11 1104.96,-148.11 1095.31,-148.11"/>
<polygon fill="#63b8ff" stroke="#63b8ff" points="1125.89,-151.61 1135.89,-148.11 1125.89,-144.61 1125.89,-151.61"/>
</a>
</g>
</g>
</g>
</svg>
