<?xml version="1.0" encoding="UTF-8" standalone="no"?>
<!DOCTYPE svg PUBLIC "-//W3C//DTD SVG 1.1//EN"
 "http://www.w3.org/Graphics/SVG/1.1/DTD/svg11.dtd">
<!-- Generated by graphviz version 12.2.1 (20241206.2353)
 -->
<!-- Title: ImTriangulator::GetNextTriangle Pages: 1 -->
<svg width="535pt" height="197pt"
 viewBox="0.00 0.00 535.25 197.12" xmlns="http://www.w3.org/2000/svg" xmlns:xlink="http://www.w3.org/1999/xlink">
<g id="graph0" class="graph" transform="scale(1 1) rotate(0) translate(4 193.12)">
<title>ImTriangulator::GetNextTriangle</title>
<!-- Node1 -->
<g id="Node000001" class="node">
<title>Node1</title>
<g id="a_Node000001"><a xlink:title=" ">
<polygon fill="#999999" stroke="#666666" points="171.25,-111.12 0,-111.12 0,-90.38 171.25,-90.38 171.25,-111.12"/>
<text text-anchor="middle" x="85.62" y="-97.62" font-family="Helvetica,sans-Serif" font-size="10.00">ImTriangulator::GetNextTriangle</text>
</a>
</g>
</g>
<!-- Node2 -->
<g id="Node000002" class="node">
<title>Node2</title>
<g id="a_Node000002"><a xlink:href="structImTriangulator.html#a4018182289f66a6a993688a979146903" target="_top" xlink:title=" ">
<polygon fill="white" stroke="#666666" points="360.12,-189.12 221.88,-189.12 221.88,-168.38 360.12,-168.38 360.12,-189.12"/>
<text text-anchor="middle" x="291" y="-175.62" font-family="Helvetica,sans-Serif" font-size="10.00">ImTriangulator::BuildEars</text>
</a>
</g>
</g>
<!-- Node1&#45;&gt;Node2 -->
<g id="edge1_Node000001_Node000002" class="edge">
<title>Node1&#45;&gt;Node2</title>
<g id="a_edge1_Node000001_Node000002"><a xlink:title=" ">
<path fill="none" stroke="#63b8ff" d="M105.72,-111.5C129.06,-124.26 170.04,-145.48 207.25,-158.75 213.64,-161.03 220.41,-163.14 227.2,-165.06"/>
<polygon fill="#63b8ff" stroke="#63b8ff" points="225.83,-168.31 236.4,-167.53 227.65,-161.55 225.83,-168.31"/>
</a>
</g>
</g>
<!-- Node4 -->
<g id="Node000004" class="node">
<title>Node4</title>
<g id="a_Node000004"><a xlink:href="structImTriangulator.html#a9acf0c6964688f3e99e90ebf2360bb92" target="_top" xlink:title=" ">
<polygon fill="white" stroke="#666666" points="370.25,-150.12 211.75,-150.12 211.75,-129.38 370.25,-129.38 370.25,-150.12"/>
<text text-anchor="middle" x="291" y="-136.62" font-family="Helvetica,sans-Serif" font-size="10.00">ImTriangulator::BuildReflexes</text>
</a>
</g>
</g>
<!-- Node1&#45;&gt;Node4 -->
<g id="edge3_Node000001_Node000004" class="edge">
<title>Node1&#45;&gt;Node4</title>
<g id="a_edge3_Node000001_Node000004"><a xlink:title=" ">
<path fill="none" stroke="#63b8ff" d="M143.28,-111.61C167.75,-116.31 196.58,-121.83 222.17,-126.74"/>
<polygon fill="#63b8ff" stroke="#63b8ff" points="221.33,-130.15 231.81,-128.59 222.65,-123.27 221.33,-130.15"/>
</a>
</g>
</g>
<!-- Node5 -->
<g id="Node000005" class="node">
<title>Node5</title>
<g id="a_Node000005"><a xlink:href="structImTriangulator.html#a6ebecaeed8a6b7b972466b0f46605b1e" target="_top" xlink:title=" ">
<polygon fill="white" stroke="#666666" points="367.62,-111.12 214.38,-111.12 214.38,-90.38 367.62,-90.38 367.62,-111.12"/>
<text text-anchor="middle" x="291" y="-97.62" font-family="Helvetica,sans-Serif" font-size="10.00">ImTriangulator::FlipNodeList</text>
</a>
</g>
</g>
<!-- Node1&#45;&gt;Node5 -->
<g id="edge4_Node000001_Node000005" class="edge">
<title>Node1&#45;&gt;Node5</title>
<g id="a_edge4_Node000001_Node000005"><a xlink:title=" ">
<path fill="none" stroke="#63b8ff" d="M171.7,-100.75C181.9,-100.75 192.33,-100.75 202.56,-100.75"/>
<polygon fill="#63b8ff" stroke="#63b8ff" points="202.5,-104.25 212.5,-100.75 202.5,-97.25 202.5,-104.25"/>
</a>
</g>
</g>
<!-- Node6 -->
<g id="Node000006" class="node">
<title>Node6</title>
<g id="a_Node000006"><a xlink:href="structImTriangulator.html#a4acbba844b5b7241d1efbb61fefb895a" target="_top" xlink:title=" ">
<polygon fill="white" stroke="#666666" points="374.75,-72.12 207.25,-72.12 207.25,-51.38 374.75,-51.38 374.75,-72.12"/>
<text text-anchor="middle" x="291" y="-58.62" font-family="Helvetica,sans-Serif" font-size="10.00">ImTriangulator::ReclassifyNode</text>
</a>
</g>
</g>
<!-- Node1&#45;&gt;Node6 -->
<g id="edge5_Node000001_Node000006" class="edge">
<title>Node1&#45;&gt;Node6</title>
<g id="a_edge5_Node000001_Node000006"><a xlink:title=" ">
<path fill="none" stroke="#63b8ff" d="M143.28,-89.89C167.75,-85.19 196.58,-79.67 222.17,-74.76"/>
<polygon fill="#63b8ff" stroke="#63b8ff" points="222.65,-78.23 231.81,-72.91 221.33,-71.35 222.65,-78.23"/>
</a>
</g>
</g>
<!-- Node7 -->
<g id="Node000007" class="node">
<title>Node7</title>
<g id="a_Node000007"><a xlink:href="structImTriangulatorNode.html#aa41868655d868a7afb6ae38f20841ee6" target="_top" xlink:title=" ">
<polygon fill="white" stroke="#666666" points="347,-33.5 235,-33.5 235,0 347,0 347,-33.5"/>
<text text-anchor="start" x="243" y="-20" font-family="Helvetica,sans-Serif" font-size="10.00">ImTriangulatorNode</text>
<text text-anchor="middle" x="291" y="-7.25" font-family="Helvetica,sans-Serif" font-size="10.00">::Unlink</text>
</a>
</g>
</g>
<!-- Node1&#45;&gt;Node7 -->
<g id="edge7_Node000001_Node000007" class="edge">
<title>Node1&#45;&gt;Node7</title>
<g id="a_edge7_Node000001_Node000007"><a xlink:title=" ">
<path fill="none" stroke="#63b8ff" d="M106.72,-89.99C130.34,-77.59 170.94,-57.1 207.25,-42.75 212.76,-40.57 218.54,-38.45 224.37,-36.41"/>
<polygon fill="#63b8ff" stroke="#63b8ff" points="225.08,-39.87 233.43,-33.34 222.83,-33.24 225.08,-39.87"/>
</a>
</g>
</g>
<!-- Node3 -->
<g id="Node000003" class="node">
<title>Node3</title>
<g id="a_Node000003"><a xlink:href="structImTriangulator.html#a2fae6ba9afe9322843a93c7511985fc8" target="_top" xlink:title=" ">
<polygon fill="white" stroke="#666666" points="527.25,-130.12 410.75,-130.12 410.75,-109.38 527.25,-109.38 527.25,-130.12"/>
<text text-anchor="middle" x="469" y="-116.62" font-family="Helvetica,sans-Serif" font-size="10.00">ImTriangulator::IsEar</text>
</a>
</g>
</g>
<!-- Node2&#45;&gt;Node3 -->
<g id="edge2_Node000002_Node000003" class="edge">
<title>Node2&#45;&gt;Node3</title>
<g id="a_edge2_Node000002_Node000003"><a xlink:title=" ">
<path fill="none" stroke="#63b8ff" d="M342.24,-167.96C353.06,-165.26 364.36,-162.16 374.75,-158.75 395.05,-152.1 417.13,-142.95 434.71,-135.19"/>
<polygon fill="#63b8ff" stroke="#63b8ff" points="435.94,-138.48 443.63,-131.19 433.07,-132.09 435.94,-138.48"/>
</a>
</g>
</g>
<!-- Node6&#45;&gt;Node3 -->
<g id="edge6_Node000006_Node000003" class="edge">
<title>Node6&#45;&gt;Node3</title>
<g id="a_edge6_Node000006_Node000003"><a xlink:title=" ">
<path fill="none" stroke="#63b8ff" d="M342.22,-72.61C353.04,-75.3 364.34,-78.39 374.75,-81.75 394.73,-88.19 416.48,-96.95 433.95,-104.44"/>
<polygon fill="#63b8ff" stroke="#63b8ff" points="432.26,-107.52 442.83,-108.3 435.05,-101.1 432.26,-107.52"/>
</a>
</g>
</g>
</g>
</svg>
