<?xml version="1.0" encoding="UTF-8" standalone="no"?>
<!DOCTYPE svg PUBLIC "-//W3C//DTD SVG 1.1//EN"
 "http://www.w3.org/Graphics/SVG/1.1/DTD/svg11.dtd">
<!-- Generated by graphviz version 2.43.0 (0)
 -->
<!-- Title: main Pages: 1 -->
<!--zoomable 712 -->
<svg id="main" version="1.1" xmlns="http://www.w3.org/2000/svg" xmlns:xlink="http://www.w3.org/1999/xlink" xml:space="preserve" onload="init(evt)">
<style type="text/css"><![CDATA[
.edge:hover path { stroke: red; }
.edge:hover polygon { stroke: red; fill: red; }
]]></style>
<script type="text/javascript"><![CDATA[
var edges = document.getElementsByTagName('g');
if (edges && edges.length) {
  for (var i=0;i<edges.length;i++) {
    if (edges[i].id.substr(0,4)=='edge') {
      edges[i].setAttribute('class','edge');
    }
  }
}
]]></script>
        <defs>
                <circle id="rim" cx="0" cy="0" r="7"/>
                <circle id="rim2" cx="0" cy="0" r="3.5"/>
                <g id="zoomPlus">
                        <use xlink:href="#rim" fill="#404040">
                                <set attributeName="fill" to="#808080" begin="zoomplus.mouseover" end="zoomplus.mouseout"/>
                        </use>
                        <path d="M-4,0h8M0,-4v8" fill="none" stroke="white" stroke-width="1.5" pointer-events="none"/>
                </g>
                <g id="zoomMin">
                        <use xlink:href="#rim" fill="#404040">
                                <set attributeName="fill" to="#808080" begin="zoomminus.mouseover" end="zoomminus.mouseout"/>
                        </use>
                        <path d="M-4,0h8" fill="none" stroke="white" stroke-width="1.5" pointer-events="none"/>
                </g>
                <g id="dirArrow">
                        <path fill="none" stroke="white" stroke-width="1.5" d="M0,-3.0v7 M-2.5,-0.5L0,-3.0L2.5,-0.5"/>
                </g>
               <g id="resetDef">
                       <use xlink:href="#rim2" fill="#404040">
                               <set attributeName="fill" to="#808080" begin="reset.mouseover" end="reset.mouseout"/>
                       </use>
               </g>
        </defs>

<script type="text/javascript">
var viewWidth = 1333;
var viewHeight = 712;
var sectionId = 'dynsection-1';
</script>
<script xlink:href="svgpan.js"/>
<svg id="graph" class="graph">
<g id="viewport">
<title>main</title>
<!-- Node1 -->
<g id="node1" class="node">
<title>Node1</title>
<g id="a_node1"><a xlink:title=" ">
<polygon fill="#bfbfbf" stroke="black" points="0,-463.5 0,-482.5 41,-482.5 41,-463.5 0,-463.5"/>
<text text-anchor="middle" x="20.5" y="-470.5" font-family="Helvetica,sans-Serif" font-size="10.00">main</text>
</a>
</g>
</g>
<!-- Node2 -->
<g id="node2" class="node">
<title>Node2</title>
<g id="a_node2"><a xlink:href="classsteppable_1_1____internals_1_1utils_1_1ProgramArgs.html#a7e42c3d791cd01bb49566b341865f525" target="_top" xlink:title="This function is used to add a keyword argument to the class.">
<polygon fill="none" stroke="black" points="77,-662.5 77,-703.5 201,-703.5 201,-662.5 77,-662.5"/>
<text text-anchor="start" x="85" y="-691.5" font-family="Helvetica,sans-Serif" font-size="10.00">steppable::__internals</text>
<text text-anchor="start" x="85" y="-680.5" font-family="Helvetica,sans-Serif" font-size="10.00">::utils::ProgramArgs::</text>
<text text-anchor="middle" x="139" y="-669.5" font-family="Helvetica,sans-Serif" font-size="10.00">addKeywordArg</text>
</a>
</g>
</g>
<!-- Node1&#45;&gt;Node2 -->
<g id="edge1" class="edge">
<title>Node1&#45;&gt;Node2</title>
<path fill="none" stroke="midnightblue" d="M21.89,-482.86C23.55,-512.27 32.21,-600.51 77,-653 77.84,-653.98 78.72,-654.94 79.64,-655.87"/>
<polygon fill="midnightblue" stroke="midnightblue" points="77.39,-658.55 87.26,-662.42 81.96,-653.25 77.39,-658.55"/>
</g>
<!-- Node3 -->
<g id="node3" class="node">
<title>Node3</title>
<g id="a_node3"><a xlink:href="classsteppable_1_1____internals_1_1utils_1_1ProgramArgs.html#ab0090c50f11a473ffd6b410c82a73333" target="_top" xlink:title="This function is used to add a positional argument to the class.">
<polygon fill="none" stroke="black" points="77,-602.5 77,-643.5 201,-643.5 201,-602.5 77,-602.5"/>
<text text-anchor="start" x="85" y="-631.5" font-family="Helvetica,sans-Serif" font-size="10.00">steppable::__internals</text>
<text text-anchor="start" x="85" y="-620.5" font-family="Helvetica,sans-Serif" font-size="10.00">::utils::ProgramArgs::</text>
<text text-anchor="middle" x="139" y="-609.5" font-family="Helvetica,sans-Serif" font-size="10.00">addPosArg</text>
</a>
</g>
</g>
<!-- Node1&#45;&gt;Node3 -->
<g id="edge2" class="edge">
<title>Node1&#45;&gt;Node3</title>
<path fill="none" stroke="midnightblue" d="M23.62,-482.67C28.94,-504.84 44.77,-559.99 77,-593 78.06,-594.08 79.16,-595.13 80.3,-596.15"/>
<polygon fill="midnightblue" stroke="midnightblue" points="78.3,-599.02 88.35,-602.39 82.59,-593.49 78.3,-599.02"/>
</g>
<!-- Node4 -->
<g id="node4" class="node">
<title>Node4</title>
<g id="a_node4"><a xlink:href="classsteppable_1_1____internals_1_1utils_1_1ProgramArgs.html#a00f504dc3e9595c51b921021f8daef0a" target="_top" xlink:title="This function is used to add a switch to the class.">
<polygon fill="none" stroke="black" points="77,-542.5 77,-583.5 201,-583.5 201,-542.5 77,-542.5"/>
<text text-anchor="start" x="85" y="-571.5" font-family="Helvetica,sans-Serif" font-size="10.00">steppable::__internals</text>
<text text-anchor="start" x="85" y="-560.5" font-family="Helvetica,sans-Serif" font-size="10.00">::utils::ProgramArgs::</text>
<text text-anchor="middle" x="139" y="-549.5" font-family="Helvetica,sans-Serif" font-size="10.00">addSwitch</text>
</a>
</g>
</g>
<!-- Node1&#45;&gt;Node4 -->
<g id="edge3" class="edge">
<title>Node1&#45;&gt;Node4</title>
<path fill="none" stroke="midnightblue" d="M28.51,-482.54C38.25,-495.31 56.98,-518.07 77,-533 78.84,-534.38 80.76,-535.72 82.73,-537.02"/>
<polygon fill="midnightblue" stroke="midnightblue" points="81.27,-540.23 91.62,-542.47 84.93,-534.26 81.27,-540.23"/>
</g>
<!-- Node5 -->
<g id="node5" class="node">
<title>Node5</title>
<g id="a_node5"><a xlink:href="classsteppable_1_1____internals_1_1utils_1_1ProgramArgs.html#abc3534db8c4d346cbd23df19566f2432" target="_top" xlink:title="This function is used to get the value of a keyword argument.">
<polygon fill="none" stroke="black" points="77,-482.5 77,-523.5 201,-523.5 201,-482.5 77,-482.5"/>
<text text-anchor="start" x="85" y="-511.5" font-family="Helvetica,sans-Serif" font-size="10.00">steppable::__internals</text>
<text text-anchor="start" x="85" y="-500.5" font-family="Helvetica,sans-Serif" font-size="10.00">::utils::ProgramArgs::</text>
<text text-anchor="middle" x="139" y="-489.5" font-family="Helvetica,sans-Serif" font-size="10.00">getKeywordArgument</text>
</a>
</g>
</g>
<!-- Node1&#45;&gt;Node5 -->
<g id="edge4" class="edge">
<title>Node1&#45;&gt;Node5</title>
<path fill="none" stroke="midnightblue" d="M41.26,-478.09C48.68,-480 57.61,-482.3 67,-484.72"/>
<polygon fill="midnightblue" stroke="midnightblue" points="66.36,-488.17 76.92,-487.27 68.11,-481.39 66.36,-488.17"/>
</g>
<!-- Node6 -->
<g id="node6" class="node">
<title>Node6</title>
<g id="a_node6"><a xlink:href="classsteppable_1_1____internals_1_1utils_1_1ProgramArgs.html#a80ee5c4af4d6a642b3a72bea343ebbd9" target="_top" xlink:title="This function is used to get the value of a positional argument.">
<polygon fill="none" stroke="black" points="77,-422.5 77,-463.5 201,-463.5 201,-422.5 77,-422.5"/>
<text text-anchor="start" x="85" y="-451.5" font-family="Helvetica,sans-Serif" font-size="10.00">steppable::__internals</text>
<text text-anchor="start" x="85" y="-440.5" font-family="Helvetica,sans-Serif" font-size="10.00">::utils::ProgramArgs::</text>
<text text-anchor="middle" x="139" y="-429.5" font-family="Helvetica,sans-Serif" font-size="10.00">getPosArg</text>
</a>
</g>
</g>
<!-- Node1&#45;&gt;Node6 -->
<g id="edge5" class="edge">
<title>Node1&#45;&gt;Node6</title>
<path fill="none" stroke="midnightblue" d="M41.26,-467.91C48.68,-466 57.61,-463.7 67,-461.28"/>
<polygon fill="midnightblue" stroke="midnightblue" points="68.11,-464.61 76.92,-458.73 66.36,-457.83 68.11,-464.61"/>
</g>
<!-- Node7 -->
<g id="node7" class="node">
<title>Node7</title>
<g id="a_node7"><a xlink:href="classsteppable_1_1____internals_1_1utils_1_1ProgramArgs.html#abfbc6f2e68f3cc414843a59160a0cea6" target="_top" xlink:title="This function is used to get the value of a switch.">
<polygon fill="none" stroke="black" points="77,-362.5 77,-403.5 201,-403.5 201,-362.5 77,-362.5"/>
<text text-anchor="start" x="85" y="-391.5" font-family="Helvetica,sans-Serif" font-size="10.00">steppable::__internals</text>
<text text-anchor="start" x="85" y="-380.5" font-family="Helvetica,sans-Serif" font-size="10.00">::utils::ProgramArgs::</text>
<text text-anchor="middle" x="139" y="-369.5" font-family="Helvetica,sans-Serif" font-size="10.00">getSwitch</text>
</a>
</g>
</g>
<!-- Node1&#45;&gt;Node7 -->
<g id="edge6" class="edge">
<title>Node1&#45;&gt;Node7</title>
<path fill="none" stroke="midnightblue" d="M28.51,-463.46C38.25,-450.69 56.98,-427.93 77,-413 78.84,-411.62 80.76,-410.28 82.73,-408.98"/>
<polygon fill="midnightblue" stroke="midnightblue" points="84.93,-411.74 91.62,-403.53 81.27,-405.77 84.93,-411.74"/>
</g>
<!-- Node8 -->
<g id="node8" class="node">
<title>Node8</title>
<g id="a_node8"><a xlink:href="classsteppable_1_1____internals_1_1utils_1_1ProgramArgs.html#a1e29a694f062b4975a737c2519a98d89" target="_top" xlink:title="This function is used to parse the command&#45;line arguments and store them in the appropriate class mem...">
<polygon fill="none" stroke="black" points="77,-302.5 77,-343.5 201,-343.5 201,-302.5 77,-302.5"/>
<text text-anchor="start" x="85" y="-331.5" font-family="Helvetica,sans-Serif" font-size="10.00">steppable::__internals</text>
<text text-anchor="start" x="85" y="-320.5" font-family="Helvetica,sans-Serif" font-size="10.00">::utils::ProgramArgs::</text>
<text text-anchor="middle" x="139" y="-309.5" font-family="Helvetica,sans-Serif" font-size="10.00">parseArgs</text>
</a>
</g>
</g>
<!-- Node1&#45;&gt;Node8 -->
<g id="edge7" class="edge">
<title>Node1&#45;&gt;Node8</title>
<path fill="none" stroke="midnightblue" d="M23.62,-463.33C28.94,-441.16 44.77,-386.01 77,-353 78.06,-351.92 79.16,-350.87 80.3,-349.85"/>
<polygon fill="midnightblue" stroke="midnightblue" points="82.59,-352.51 88.35,-343.61 78.3,-346.98 82.59,-352.51"/>
</g>
<!-- Node9 -->
<g id="node9" class="node">
<title>Node9</title>
<g id="a_node9"><a xlink:href="namespacesteppable_1_1____internals_1_1arithmetic.html#ae61ae2915786a49aebb7025105cf058e" target="_top" xlink:title="Subtracts one string representation of a number from another string representation of a number.">
<polygon fill="none" stroke="black" points="77,-253 77,-283 201,-283 201,-253 77,-253"/>
<text text-anchor="start" x="85" y="-271" font-family="Helvetica,sans-Serif" font-size="10.00">steppable::__internals</text>
<text text-anchor="middle" x="139" y="-260" font-family="Helvetica,sans-Serif" font-size="10.00">::arithmetic::subtract</text>
</a>
</g>
</g>
<!-- Node1&#45;&gt;Node9 -->
<g id="edge8" class="edge">
<title>Node1&#45;&gt;Node9</title>
<path fill="none" stroke="midnightblue" d="M21.71,-463.41C22.86,-434.03 30.23,-344.17 77,-293 78.22,-291.66 79.52,-290.4 80.89,-289.2"/>
<polygon fill="midnightblue" stroke="midnightblue" points="83.35,-291.74 89.37,-283.02 79.23,-286.08 83.35,-291.74"/>
</g>
<!-- Node10 -->
<g id="node10" class="node">
<title>Node10</title>
<g id="a_node10"><a xlink:href="namespacesteppable_1_1____internals_1_1arithmetic.html#a1deb38d5027df01a66b6c3efd57aedca" target="_top" xlink:title="Adds two string representations of numbers, and performs with the column method.">
<polygon fill="none" stroke="black" points="237,-297 237,-327 361,-327 361,-297 237,-297"/>
<text text-anchor="start" x="245" y="-315" font-family="Helvetica,sans-Serif" font-size="10.00">steppable::__internals</text>
<text text-anchor="middle" x="299" y="-304" font-family="Helvetica,sans-Serif" font-size="10.00">::arithmetic::add</text>
</a>
</g>
</g>
<!-- Node9&#45;&gt;Node10 -->
<g id="edge9" class="edge">
<title>Node9&#45;&gt;Node10</title>
<path fill="none" stroke="midnightblue" d="M201.09,-278.42C218.78,-283.03 237.73,-288.47 254.15,-293.67"/>
<polygon fill="midnightblue" stroke="midnightblue" points="253.41,-297.11 264,-296.87 255.57,-290.45 253.41,-297.11"/>
</g>
<!-- Node11 -->
<g id="node11" class="node">
<title>Node11</title>
<g id="a_node11"><a xlink:href="namespacesteppable_1_1____internals_1_1numUtils.html#afce13d9dd949a08a7e75b27246a276b2" target="_top" xlink:title="Checks if a given string is a zero string.">
<polygon fill="none" stroke="black" points="1193,-272 1193,-302 1325,-302 1325,-272 1193,-272"/>
<text text-anchor="start" x="1201" y="-290" font-family="Helvetica,sans-Serif" font-size="10.00">steppable::__internals</text>
<text text-anchor="middle" x="1259" y="-279" font-family="Helvetica,sans-Serif" font-size="10.00">::numUtils::isZeroString</text>
</a>
</g>
</g>
<!-- Node9&#45;&gt;Node11 -->
<g id="edge35" class="edge">
<title>Node9&#45;&gt;Node11</title>
<path fill="none" stroke="midnightblue" d="M145.69,-252.84C157.95,-221.96 189.66,-151.14 237,-109 323.44,-32.04 357.76,0 473.5,0 473.5,0 473.5,0 875.5,0 1050.7,0 1196.97,-195.02 1242.95,-263.54"/>
<polygon fill="midnightblue" stroke="midnightblue" points="1240.1,-265.57 1248.53,-271.97 1245.94,-261.7 1240.1,-265.57"/>
</g>
<!-- Node18 -->
<g id="node18" class="node">
<title>Node18</title>
<g id="a_node18"><a xlink:href="namespacesteppable_1_1____internals_1_1utils_1_1formats.html#a588a3cdce1fef100d63d64816a37981a" target="_top" xlink:title="Set the text format to reverse.">
<polygon fill="none" stroke="black" points="409,-516 409,-546 540,-546 540,-516 409,-516"/>
<text text-anchor="start" x="417" y="-534" font-family="Helvetica,sans-Serif" font-size="10.00">steppable::__internals</text>
<text text-anchor="middle" x="474.5" y="-523" font-family="Helvetica,sans-Serif" font-size="10.00">::utils::formats::reverse</text>
</a>
</g>
</g>
<!-- Node9&#45;&gt;Node18 -->
<g id="edge40" class="edge">
<title>Node9&#45;&gt;Node18</title>
<path fill="none" stroke="midnightblue" d="M184.05,-283.01C190,-285.89 195.83,-289.22 201,-293 221.12,-307.71 220.31,-317.49 237,-336 305.39,-411.88 311.96,-444.4 397,-501 403.04,-505.02 409.7,-508.63 416.5,-511.83"/>
<polygon fill="midnightblue" stroke="midnightblue" points="415.24,-515.1 425.81,-515.94 418.07,-508.7 415.24,-515.1"/>
</g>
<!-- Node20 -->
<g id="node20" class="node">
<title>Node20</title>
<g id="a_node20"><a xlink:href="namespacesteppable_1_1____internals_1_1numUtils.html#ad13b8651b0d069d596f7e25f78a8b4ed" target="_top" xlink:title=" ">
<polygon fill="none" stroke="black" points="408,-297 408,-327 541,-327 541,-297 408,-297"/>
<text text-anchor="start" x="416" y="-315" font-family="Helvetica,sans-Serif" font-size="10.00">steppable::__internals</text>
<text text-anchor="middle" x="474.5" y="-304" font-family="Helvetica,sans-Serif" font-size="10.00">::numUtils::splitNumber</text>
</a>
</g>
</g>
<!-- Node9&#45;&gt;Node20 -->
<g id="edge41" class="edge">
<title>Node9&#45;&gt;Node20</title>
<path fill="none" stroke="midnightblue" d="M201.23,-271.07C245.74,-273.84 307.33,-278.77 361,-287 374.61,-289.09 389.02,-291.86 402.84,-294.79"/>
<polygon fill="midnightblue" stroke="midnightblue" points="402.25,-298.25 412.77,-296.95 403.74,-291.41 402.25,-298.25"/>
</g>
<!-- Node24 -->
<g id="node24" class="node">
<title>Node24</title>
<g id="a_node24"><a xlink:href="namespacesteppable_1_1____internals_1_1arithmetic.html#a5e20e50f3da461a8f9d50b14afd68ea8" target="_top" xlink:title="Compares two string representations of numbers.">
<polygon fill="none" stroke="black" points="237,-193 237,-223 361,-223 361,-193 237,-193"/>
<text text-anchor="start" x="245" y="-211" font-family="Helvetica,sans-Serif" font-size="10.00">steppable::__internals</text>
<text text-anchor="middle" x="299" y="-200" font-family="Helvetica,sans-Serif" font-size="10.00">::arithmetic::compare</text>
</a>
</g>
</g>
<!-- Node9&#45;&gt;Node24 -->
<g id="edge29" class="edge">
<title>Node9&#45;&gt;Node24</title>
<path fill="none" stroke="midnightblue" d="M179.87,-252.86C200.81,-244.91 226.67,-235.09 248.84,-226.67"/>
<polygon fill="midnightblue" stroke="midnightblue" points="250.31,-229.85 258.42,-223.03 247.83,-223.31 250.31,-229.85"/>
</g>
<!-- Node28 -->
<g id="node28" class="node">
<title>Node28</title>
<g id="a_node28"><a xlink:href="subtractReport_8cpp.html#ad21f3d209885b1c419ff73800bb3b33b" target="_top" xlink:title="Reports a subtraction operation to the user.">
<polygon fill="none" stroke="black" points="431.5,-68.5 431.5,-87.5 517.5,-87.5 517.5,-68.5 431.5,-68.5"/>
<text text-anchor="middle" x="474.5" y="-75.5" font-family="Helvetica,sans-Serif" font-size="10.00">reportSubtract</text>
</a>
</g>
</g>
<!-- Node9&#45;&gt;Node28 -->
<g id="edge36" class="edge">
<title>Node9&#45;&gt;Node28</title>
<path fill="none" stroke="midnightblue" d="M155.22,-252.69C173.59,-234.7 205.91,-204.57 237,-183 303.34,-136.99 321.68,-126.07 397,-97 404.72,-94.02 413.05,-91.39 421.28,-89.11"/>
<polygon fill="midnightblue" stroke="midnightblue" points="422.44,-92.43 431.23,-86.5 420.67,-85.65 422.44,-92.43"/>
</g>
<!-- Node10&#45;&gt;Node9 -->
<g id="edge28" class="edge">
<title>Node10&#45;&gt;Node9</title>
<path fill="none" stroke="midnightblue" d="M236.75,-301.54C219.06,-296.92 200.13,-291.49 183.74,-286.29"/>
<polygon fill="midnightblue" stroke="midnightblue" points="184.49,-282.86 173.89,-283.1 182.32,-289.51 184.49,-282.86"/>
</g>
<!-- Node10&#45;&gt;Node11 -->
<g id="edge10" class="edge">
<title>Node10&#45;&gt;Node11</title>
<path fill="none" stroke="midnightblue" d="M349.3,-327.12C353.3,-328.66 357.25,-330.29 361,-332 502.68,-396.41 519.37,-487 675,-487 675,-487 675,-487 875.5,-487 1027.63,-487 1179.03,-361.22 1235.18,-309.16"/>
<polygon fill="midnightblue" stroke="midnightblue" points="1237.87,-311.43 1242.76,-302.03 1233.08,-306.33 1237.87,-311.43"/>
</g>
<!-- Node12 -->
<g id="node12" class="node">
<title>Node12</title>
<g id="a_node12"><a xlink:href="addReport_8cpp.html#ad77bd53c675044525fecd7273407c4a6" target="_top" xlink:title="Reports the sum of two number strings.">
<polygon fill="none" stroke="black" points="442,-220.5 442,-239.5 507,-239.5 507,-220.5 442,-220.5"/>
<text text-anchor="middle" x="474.5" y="-227.5" font-family="Helvetica,sans-Serif" font-size="10.00">reportAdd</text>
</a>
</g>
</g>
<!-- Node10&#45;&gt;Node12 -->
<g id="edge11" class="edge">
<title>Node10&#45;&gt;Node12</title>
<path fill="none" stroke="midnightblue" d="M331.82,-296.96C363.92,-281.79 413.05,-258.57 444.21,-243.84"/>
<polygon fill="midnightblue" stroke="midnightblue" points="445.72,-247 453.26,-239.56 442.73,-240.67 445.72,-247"/>
</g>
<!-- Node10&#45;&gt;Node18 -->
<g id="edge19" class="edge">
<title>Node10&#45;&gt;Node18</title>
<path fill="none" stroke="midnightblue" d="M307.98,-327.1C319.71,-349.35 342.25,-392.28 361,-429 377.27,-460.86 370.59,-476.86 397,-501 401.15,-504.79 405.83,-508.12 410.78,-511.05"/>
<polygon fill="midnightblue" stroke="midnightblue" points="409.46,-514.31 419.93,-515.89 412.73,-508.12 409.46,-514.31"/>
</g>
<!-- Node10&#45;&gt;Node20 -->
<g id="edge21" class="edge">
<title>Node10&#45;&gt;Node20</title>
<path fill="none" stroke="midnightblue" d="M361.17,-312C372.98,-312 385.49,-312 397.71,-312"/>
<polygon fill="midnightblue" stroke="midnightblue" points="397.88,-315.5 407.88,-312 397.88,-308.5 397.88,-315.5"/>
</g>
<!-- Node12&#45;&gt;Node11 -->
<g id="edge12" class="edge">
<title>Node12&#45;&gt;Node11</title>
<path fill="none" stroke="midnightblue" d="M507.12,-227.48C521.84,-225.03 538.94,-220.27 552,-211 575.82,-194.09 562.3,-169.89 588,-156 656.81,-118.8 686.43,-145.89 764,-156 929.16,-177.53 1117.72,-237.92 1206.56,-268.6"/>
<polygon fill="midnightblue" stroke="midnightblue" points="1205.53,-271.95 1216.12,-271.93 1207.82,-265.34 1205.53,-271.95"/>
</g>
<!-- Node13 -->
<g id="node13" class="node">
<title>Node13</title>
<g id="a_node13"><a xlink:href="namespacesteppable_1_1____internals_1_1symbols.html#a69d3b3d195d72c87d2e9038acc4e8143" target="_top" xlink:title="Create a subscript string from a normal string.">
<polygon fill="none" stroke="black" points="605,-78 605,-108 747,-108 747,-78 605,-78"/>
<text text-anchor="start" x="613" y="-96" font-family="Helvetica,sans-Serif" font-size="10.00">steppable::__internals</text>
<text text-anchor="middle" x="676" y="-85" font-family="Helvetica,sans-Serif" font-size="10.00">::symbols::makeSubscript</text>
</a>
</g>
</g>
<!-- Node12&#45;&gt;Node13 -->
<g id="edge13" class="edge">
<title>Node12&#45;&gt;Node13</title>
<path fill="none" stroke="midnightblue" d="M507.19,-228.65C522.29,-226.51 539.68,-221.65 552,-211 583.96,-183.36 557.29,-152.03 588,-123 592.06,-119.16 596.64,-115.81 601.52,-112.88"/>
<polygon fill="midnightblue" stroke="midnightblue" points="603.39,-115.85 610.57,-108.07 600.1,-109.67 603.39,-115.85"/>
</g>
<!-- Node15 -->
<g id="node15" class="node">
<title>Node15</title>
<g id="a_node15"><a xlink:href="namespacesteppable_1_1____internals_1_1numUtils.html#a97316c4c4bc4640d519cec4841c7b0e9" target="_top" xlink:title="Standardizes a number string.">
<polygon fill="none" stroke="black" points="591.5,-166 591.5,-196 760.5,-196 760.5,-166 591.5,-166"/>
<text text-anchor="start" x="599.5" y="-184" font-family="Helvetica,sans-Serif" font-size="10.00">steppable::__internals</text>
<text text-anchor="middle" x="676" y="-173" font-family="Helvetica,sans-Serif" font-size="10.00">::numUtils::standardizeNumber</text>
</a>
</g>
</g>
<!-- Node12&#45;&gt;Node15 -->
<g id="edge15" class="edge">
<title>Node12&#45;&gt;Node15</title>
<path fill="none" stroke="midnightblue" d="M507.11,-222.24C533,-215.88 570.62,-206.64 603.68,-198.52"/>
<polygon fill="midnightblue" stroke="midnightblue" points="604.91,-201.82 613.78,-196.04 603.24,-195.02 604.91,-201.82"/>
</g>
<!-- Node14 -->
<g id="node14" class="node">
<title>Node14</title>
<g id="a_node14"><a xlink:href="namespacesteppable_1_1____internals_1_1stringUtils.html#a5dcad3b5c7b08e6541b5ae68cdf4ef0b" target="_top" xlink:title="Converts a Unicode character to UTF&#45;8 encoding.">
<polygon fill="none" stroke="black" points="800,-78 800,-108 949,-108 949,-78 800,-78"/>
<text text-anchor="start" x="808" y="-96" font-family="Helvetica,sans-Serif" font-size="10.00">steppable::__internals</text>
<text text-anchor="middle" x="874.5" y="-85" font-family="Helvetica,sans-Serif" font-size="10.00">::stringUtils::unicodeToUtf8</text>
</a>
</g>
</g>
<!-- Node13&#45;&gt;Node14 -->
<g id="edge14" class="edge">
<title>Node13&#45;&gt;Node14</title>
<path fill="none" stroke="midnightblue" d="M747.11,-93C760.86,-93 775.41,-93 789.55,-93"/>
<polygon fill="midnightblue" stroke="midnightblue" points="789.76,-96.5 799.76,-93 789.76,-89.5 789.76,-96.5"/>
</g>
<!-- Node16 -->
<g id="node16" class="node">
<title>Node16</title>
<g id="a_node16"><a xlink:href="namespacesteppable_1_1____internals_1_1numUtils.html#a32fc3a968fc9629ed8616c539e840472" target="_top" xlink:title="Simplifies a string with non&#45;standard polarity (e.g., –1, —1, etc.).">
<polygon fill="none" stroke="black" points="800,-253 800,-283 949,-283 949,-253 800,-253"/>
<text text-anchor="start" x="808" y="-271" font-family="Helvetica,sans-Serif" font-size="10.00">steppable::__internals</text>
<text text-anchor="middle" x="874.5" y="-260" font-family="Helvetica,sans-Serif" font-size="10.00">::numUtils::simplifyPolarity</text>
</a>
</g>
</g>
<!-- Node15&#45;&gt;Node16 -->
<g id="edge16" class="edge">
<title>Node15&#45;&gt;Node16</title>
<path fill="none" stroke="midnightblue" d="M738.97,-196.01C747.5,-198.68 756.05,-201.68 764,-205 791.8,-216.61 821.3,-233.9 842.66,-247.43"/>
<polygon fill="midnightblue" stroke="midnightblue" points="840.99,-250.52 851.29,-252.98 844.77,-244.63 840.99,-250.52"/>
</g>
<!-- Node17 -->
<g id="node17" class="node">
<title>Node17</title>
<g id="a_node17"><a xlink:href="namespacesteppable_1_1____internals_1_1numUtils.html#a5e6d1c6139edf65f76c0bd6aeba82066" target="_top" xlink:title="Simplifies a string that represents a number with non&#45;standard polarity.">
<polygon fill="none" stroke="black" points="985,-272 985,-302 1157,-302 1157,-272 985,-272"/>
<text text-anchor="start" x="993" y="-290" font-family="Helvetica,sans-Serif" font-size="10.00">steppable::__internals</text>
<text text-anchor="middle" x="1071" y="-279" font-family="Helvetica,sans-Serif" font-size="10.00">::numUtils::simplifyZeroPolarity</text>
</a>
</g>
</g>
<!-- Node16&#45;&gt;Node17 -->
<g id="edge17" class="edge">
<title>Node16&#45;&gt;Node17</title>
<path fill="none" stroke="midnightblue" d="M949.03,-275.18C957.46,-276.01 966.14,-276.85 974.8,-277.7"/>
<polygon fill="midnightblue" stroke="midnightblue" points="974.65,-281.2 984.94,-278.69 975.33,-274.23 974.65,-281.2"/>
</g>
<!-- Node17&#45;&gt;Node11 -->
<g id="edge18" class="edge">
<title>Node17&#45;&gt;Node11</title>
<path fill="none" stroke="midnightblue" d="M1157.11,-287C1165.68,-287 1174.33,-287 1182.79,-287"/>
<polygon fill="midnightblue" stroke="midnightblue" points="1182.98,-290.5 1192.98,-287 1182.98,-283.5 1182.98,-290.5"/>
</g>
<!-- Node19 -->
<g id="node19" class="node">
<title>Node19</title>
<g id="a_node19"><a xlink:href="namespacesteppable_1_1____internals_1_1utils.html#a65d6e9f0b589e6d5eab0da73a4ebb16c" target="_top" xlink:title="Check if the output stream is a terminal.">
<polygon fill="none" stroke="black" points="614,-516 614,-546 738,-546 738,-516 614,-516"/>
<text text-anchor="start" x="622" y="-534" font-family="Helvetica,sans-Serif" font-size="10.00">steppable::__internals</text>
<text text-anchor="middle" x="676" y="-523" font-family="Helvetica,sans-Serif" font-size="10.00">::utils::isTerminal</text>
</a>
</g>
</g>
<!-- Node18&#45;&gt;Node19 -->
<g id="edge20" class="edge">
<title>Node18&#45;&gt;Node19</title>
<path fill="none" stroke="midnightblue" d="M540.27,-531C560.61,-531 583.17,-531 603.92,-531"/>
<polygon fill="midnightblue" stroke="midnightblue" points="603.94,-534.5 613.94,-531 603.94,-527.5 603.94,-534.5"/>
</g>
<!-- Node20&#45;&gt;Node11 -->
<g id="edge22" class="edge">
<title>Node20&#45;&gt;Node11</title>
<path fill="none" stroke="midnightblue" d="M541.21,-316.09C556.56,-316.89 572.85,-317.6 588,-318 840.82,-324.74 906.08,-342.67 1157,-311 1169.28,-309.45 1182.23,-307.01 1194.62,-304.26"/>
<polygon fill="midnightblue" stroke="midnightblue" points="1195.45,-307.66 1204.41,-302 1193.87,-300.84 1195.45,-307.66"/>
</g>
<!-- Node20&#45;&gt;Node16 -->
<g id="edge25" class="edge">
<title>Node20&#45;&gt;Node16</title>
<path fill="none" stroke="midnightblue" d="M541.21,-303.61C556.56,-301.71 572.85,-299.74 588,-298 655.85,-290.21 732.86,-282.17 789.78,-276.37"/>
<polygon fill="midnightblue" stroke="midnightblue" points="790.22,-279.85 799.81,-275.35 789.51,-272.88 790.22,-279.85"/>
</g>
<!-- Node20&#45;&gt;Node17 -->
<g id="edge26" class="edge">
<title>Node20&#45;&gt;Node17</title>
<path fill="none" stroke="midnightblue" d="M541.11,-309.24C646.33,-304.82 853.3,-296.11 974.79,-291"/>
<polygon fill="midnightblue" stroke="midnightblue" points="974.99,-294.5 984.83,-290.58 974.69,-287.5 974.99,-294.5"/>
</g>
<!-- Node21 -->
<g id="node21" class="node">
<title>Node21</title>
<g id="a_node21"><a xlink:href="namespacesteppable_1_1____internals_1_1numUtils.html#a3d4e1e21ccf1afecd766d3152df87212" target="_top" xlink:title=" ">
<polygon fill="none" stroke="black" points="588,-215 588,-245 764,-245 764,-215 588,-215"/>
<text text-anchor="start" x="596" y="-233" font-family="Helvetica,sans-Serif" font-size="10.00">steppable::__internals</text>
<text text-anchor="middle" x="676" y="-222" font-family="Helvetica,sans-Serif" font-size="10.00">::numUtils::removeLeadingZeros</text>
</a>
</g>
</g>
<!-- Node20&#45;&gt;Node21 -->
<g id="edge23" class="edge">
<title>Node20&#45;&gt;Node21</title>
<path fill="none" stroke="midnightblue" d="M517.76,-296.95C529.06,-292.52 541.14,-287.4 552,-282 568.79,-273.66 571.04,-267.99 588,-260 596.69,-255.91 606.09,-252.08 615.4,-248.62"/>
<polygon fill="midnightblue" stroke="midnightblue" points="616.81,-251.84 625.03,-245.16 614.44,-245.25 616.81,-251.84"/>
</g>
<!-- Node22 -->
<g id="node22" class="node">
<title>Node22</title>
<g id="a_node22"><a xlink:href="namespacesteppable_1_1____internals_1_1numUtils.html#a5d7e8d74d304a1ac7fc2ad4dbf5b40ae" target="_top" xlink:title=" ">
<polygon fill="none" stroke="black" points="589.5,-428 589.5,-458 762.5,-458 762.5,-428 589.5,-428"/>
<text text-anchor="start" x="597.5" y="-446" font-family="Helvetica,sans-Serif" font-size="10.00">steppable::__internals</text>
<text text-anchor="middle" x="676" y="-435" font-family="Helvetica,sans-Serif" font-size="10.00">::numUtils::removeTrailingZeros</text>
</a>
</g>
</g>
<!-- Node20&#45;&gt;Node22 -->
<g id="edge24" class="edge">
<title>Node20&#45;&gt;Node22</title>
<path fill="none" stroke="midnightblue" d="M487.32,-327.01C506.18,-349.97 545.33,-393.7 588,-418 591.87,-420.2 595.95,-422.23 600.14,-424.08"/>
<polygon fill="midnightblue" stroke="midnightblue" points="598.88,-427.35 609.47,-427.87 601.52,-420.86 598.88,-427.35"/>
</g>
<!-- Node23 -->
<g id="node23" class="node">
<title>Node23</title>
<g id="a_node23"><a xlink:href="namespacesteppable_1_1____internals_1_1stringUtils.html#a2600efb348f0dd19cc0068946d06b1b7" target="_top" xlink:title="Splits a string into substrings based on a separator.">
<polygon fill="none" stroke="black" points="614,-379 614,-409 738,-409 738,-379 614,-379"/>
<text text-anchor="start" x="622" y="-397" font-family="Helvetica,sans-Serif" font-size="10.00">steppable::__internals</text>
<text text-anchor="middle" x="676" y="-386" font-family="Helvetica,sans-Serif" font-size="10.00">::stringUtils::split</text>
</a>
</g>
</g>
<!-- Node20&#45;&gt;Node23 -->
<g id="edge27" class="edge">
<title>Node20&#45;&gt;Node23</title>
<path fill="none" stroke="midnightblue" d="M506.17,-327.2C528.58,-338.05 559.85,-352.68 588,-364 597.99,-368.02 608.74,-372 619.17,-375.68"/>
<polygon fill="midnightblue" stroke="midnightblue" points="618.03,-378.99 628.63,-378.98 620.33,-372.38 618.03,-378.99"/>
</g>
<!-- Node24&#45;&gt;Node15 -->
<g id="edge34" class="edge">
<title>Node24&#45;&gt;Node15</title>
<path fill="none" stroke="midnightblue" d="M328.73,-223.07C377.16,-246.26 477.1,-284.5 552,-249 574.83,-238.18 566.83,-218.79 588,-205 590.46,-203.4 593.03,-201.9 595.68,-200.5"/>
<polygon fill="midnightblue" stroke="midnightblue" points="597.39,-203.57 604.93,-196.12 594.39,-197.24 597.39,-203.57"/>
</g>
<!-- Node24&#45;&gt;Node20 -->
<g id="edge33" class="edge">
<title>Node24&#45;&gt;Node20</title>
<path fill="none" stroke="midnightblue" d="M320.11,-223.05C332.03,-232 347.42,-243.6 361,-254 377.09,-266.32 379.38,-271.97 397,-282 404.05,-286.01 411.75,-289.72 419.45,-293.07"/>
<polygon fill="midnightblue" stroke="midnightblue" points="418.23,-296.35 428.81,-296.96 420.92,-289.89 418.23,-296.35"/>
</g>
<!-- Node25 -->
<g id="node25" class="node">
<title>Node25</title>
<g id="a_node25"><a xlink:href="comparisonReport_8cpp.html#a9837660fa80278748f7f9bc397f5fba4" target="_top" xlink:title="Reports the comparison based on the integer. If the integer parts are of different length,...">
<polygon fill="none" stroke="black" points="400,-182.5 400,-201.5 549,-201.5 549,-182.5 400,-182.5"/>
<text text-anchor="middle" x="474.5" y="-189.5" font-family="Helvetica,sans-Serif" font-size="10.00">reportComparisonAtInteger</text>
</a>
</g>
</g>
<!-- Node24&#45;&gt;Node25 -->
<g id="edge30" class="edge">
<title>Node24&#45;&gt;Node25</title>
<path fill="none" stroke="midnightblue" d="M361.17,-202.36C370.44,-201.5 380.13,-200.61 389.78,-199.72"/>
<polygon fill="midnightblue" stroke="midnightblue" points="390.16,-203.2 399.79,-198.8 389.52,-196.23 390.16,-203.2"/>
</g>
<!-- Node26 -->
<g id="node26" class="node">
<title>Node26</title>
<g id="a_node26"><a xlink:href="comparisonReport_8cpp.html#adc6ac398c16b4d30ab55b0ec5ceef9f3" target="_top" xlink:title="Compares each digit and see if one is larger.">
<polygon fill="none" stroke="black" points="404.5,-144.5 404.5,-163.5 544.5,-163.5 544.5,-144.5 404.5,-144.5"/>
<text text-anchor="middle" x="474.5" y="-151.5" font-family="Helvetica,sans-Serif" font-size="10.00">reportComparisonByDigit</text>
</a>
</g>
</g>
<!-- Node24&#45;&gt;Node26 -->
<g id="edge31" class="edge">
<title>Node24&#45;&gt;Node26</title>
<path fill="none" stroke="midnightblue" d="M338.87,-192.94C356.47,-186.39 377.64,-178.88 397,-173 405,-170.57 413.54,-168.22 421.9,-166.05"/>
<polygon fill="midnightblue" stroke="midnightblue" points="422.77,-169.44 431.6,-163.58 421.04,-162.65 422.77,-169.44"/>
</g>
<!-- Node27 -->
<g id="node27" class="node">
<title>Node27</title>
<g id="a_node27"><a xlink:href="comparisonReport_8cpp.html#a8bdddfcaa5a1d0339df5705ec6ff2aff" target="_top" xlink:title="Reports the comparison based on the polarity. If they are of different polarity, the one that is posi...">
<polygon fill="none" stroke="black" points="397,-106.5 397,-125.5 552,-125.5 552,-106.5 397,-106.5"/>
<text text-anchor="middle" x="474.5" y="-113.5" font-family="Helvetica,sans-Serif" font-size="10.00">reportComparisonByPolarity</text>
</a>
</g>
</g>
<!-- Node24&#45;&gt;Node27 -->
<g id="edge32" class="edge">
<title>Node24&#45;&gt;Node27</title>
<path fill="none" stroke="midnightblue" d="M315.82,-192.85C334,-176.27 365.41,-150.04 397,-135 402.02,-132.61 407.37,-130.5 412.83,-128.64"/>
<polygon fill="midnightblue" stroke="midnightblue" points="414.2,-131.88 422.7,-125.56 412.11,-125.2 414.2,-131.88"/>
</g>
<!-- Node28&#45;&gt;Node13 -->
<g id="edge37" class="edge">
<title>Node28&#45;&gt;Node13</title>
<path fill="none" stroke="midnightblue" d="M517.81,-81.18C540.22,-82.87 568.51,-84.99 594.88,-86.98"/>
<polygon fill="midnightblue" stroke="midnightblue" points="594.65,-90.47 604.88,-87.73 595.17,-83.49 594.65,-90.47"/>
</g>
<!-- Node28&#45;&gt;Node21 -->
<g id="edge38" class="edge">
<title>Node28&#45;&gt;Node21</title>
<path fill="none" stroke="midnightblue" d="M517.68,-80.79C530,-83.49 542.66,-88.36 552,-97 589.15,-131.35 551.48,-169.98 588,-205 589.49,-206.43 591.05,-207.77 592.68,-209.05"/>
<polygon fill="midnightblue" stroke="midnightblue" points="591.05,-212.16 601.31,-214.79 594.92,-206.33 591.05,-212.16"/>
</g>
<!-- Node29 -->
<g id="node29" class="node">
<title>Node29</title>
<g id="a_node29"><a xlink:href="namespacesteppable_1_1____internals_1_1numUtils.html#ae8dde3fc958f32009443d1aeaa2c0900" target="_top" xlink:title=" ">
<polygon fill="none" stroke="black" points="588.5,-29 588.5,-59 763.5,-59 763.5,-29 588.5,-29"/>
<text text-anchor="start" x="596.5" y="-47" font-family="Helvetica,sans-Serif" font-size="10.00">steppable::__internals</text>
<text text-anchor="middle" x="676" y="-36" font-family="Helvetica,sans-Serif" font-size="10.00">::numUtils::replaceLeadingZeros</text>
</a>
</g>
</g>
<!-- Node28&#45;&gt;Node29 -->
<g id="edge39" class="edge">
<title>Node28&#45;&gt;Node29</title>
<path fill="none" stroke="midnightblue" d="M517.81,-70.79C535.58,-67.76 557.05,-64.1 578.32,-60.48"/>
<polygon fill="midnightblue" stroke="midnightblue" points="579.13,-63.89 588.4,-58.76 577.96,-56.99 579.13,-63.89"/>
</g>
</g>
</svg>
        <g id="navigator" transform="translate(0 0)" fill="#404254">
                <rect fill="#f2f5e9" fill-opacity="0.5" stroke="#606060" stroke-width=".5" x="0" y="0" width="60" height="60"/>
                <use id="zoomplus" xlink:href="#zoomPlus" x="17" y="9" onmousedown="handleZoom(evt,'in')"/>
                <use id="zoomminus" xlink:href="#zoomMin" x="42" y="9" onmousedown="handleZoom(evt,'out')"/>
                <use id="reset" xlink:href="#resetDef" x="30" y="36" onmousedown="handleReset()"/>
                <g id="arrowUp" xlink:href="#dirArrow" transform="translate(30 24)" onmousedown="handlePan(0,-1)">
                  <use xlink:href="#rim" fill="#404040">
                        <set attributeName="fill" to="#808080" begin="arrowUp.mouseover" end="arrowUp.mouseout"/>
                  </use>
                  <path fill="none" stroke="white" stroke-width="1.5" d="M0,-3.0v7 M-2.5,-0.5L0,-3.0L2.5,-0.5"/>
                </g>
                <g id="arrowRight" xlink:href="#dirArrow" transform="rotate(90) translate(36 -43)" onmousedown="handlePan(1,0)">
                  <use xlink:href="#rim" fill="#404040">
                        <set attributeName="fill" to="#808080" begin="arrowRight.mouseover" end="arrowRight.mouseout"/>
                  </use>
                  <path fill="none" stroke="white" stroke-width="1.5" d="M0,-3.0v7 M-2.5,-0.5L0,-3.0L2.5,-0.5"/>
                </g>
                <g id="arrowDown" xlink:href="#dirArrow" transform="rotate(180) translate(-30 -48)" onmousedown="handlePan(0,1)">
                  <use xlink:href="#rim" fill="#404040">
                        <set attributeName="fill" to="#808080" begin="arrowDown.mouseover" end="arrowDown.mouseout"/>
                  </use>
                  <path fill="none" stroke="white" stroke-width="1.5" d="M0,-3.0v7 M-2.5,-0.5L0,-3.0L2.5,-0.5"/>
                </g>
                <g id="arrowLeft" xlink:href="#dirArrow" transform="rotate(270) translate(-36 17)" onmousedown="handlePan(-1,0)">
                  <use xlink:href="#rim" fill="#404040">
                        <set attributeName="fill" to="#808080" begin="arrowLeft.mouseover" end="arrowLeft.mouseout"/>
                  </use>
                  <path fill="none" stroke="white" stroke-width="1.5" d="M0,-3.0v7 M-2.5,-0.5L0,-3.0L2.5,-0.5"/>
                </g>
        </g>
        <svg viewBox="0 0 15 15" width="100%" height="30px" preserveAspectRatio="xMaxYMin meet">
         <g id="arrow_out" transform="scale(0.3 0.3)">
          <a xlink:href="subtract_8cpp_ac2c7bcd6d73ca32ee42312d0fa0b1aa9_cgraph_org.svg" target="_base">
           <rect id="button" ry="5" rx="5" y="6" x="6" height="38" width="38"
                fill="#f2f5e9" fill-opacity="0.5" stroke="#606060" stroke-width="1.0"/>
           <path id="arrow"
             d="M 11.500037,31.436501 C 11.940474,20.09759 22.043105,11.32322 32.158766,21.979434 L 37.068811,17.246167 C 37.068811,17.246167 37.088388,32 37.088388,32 L 22.160133,31.978069 C 22.160133,31.978069 26.997745,27.140456 26.997745,27.140456 C 18.528582,18.264221 13.291696,25.230495 11.500037,31.436501 z"
             style="fill:#404040;"/>
          </a>
         </g>
        </svg>
</svg>
