<?xml version="1.0" encoding="UTF-8" standalone="no"?>
<!DOCTYPE svg PUBLIC "-//W3C//DTD SVG 1.1//EN"
 "http://www.w3.org/Graphics/SVG/1.1/DTD/svg11.dtd">
<!-- Generated by graphviz version 2.43.0 (0)
 -->
<!-- Title: include/symbols.hpp Pages: 1 -->
<svg width="3415pt" height="218pt"
 viewBox="0.00 0.00 3414.50 218.00" xmlns="http://www.w3.org/2000/svg" xmlns:xlink="http://www.w3.org/1999/xlink">
<g id="graph0" class="graph" transform="scale(1 1) rotate(0) translate(4 214)">
<title>include/symbols.hpp</title>
<!-- Node1 -->
<g id="node1" class="node">
<title>Node1</title>
<g id="a_node1"><a xlink:title="This file contains the definitions of various symbols used in the project.">
<polygon fill="#bfbfbf" stroke="black" points="2470.5,-190.5 2470.5,-209.5 2587.5,-209.5 2587.5,-190.5 2470.5,-190.5"/>
<text text-anchor="middle" x="2529" y="-197.5" font-family="Helvetica,sans-Serif" font-size="10.00">include/symbols.hpp</text>
</a>
</g>
</g>
<!-- Node2 -->
<g id="node2" class="node">
<title>Node2</title>
<g id="a_node2"><a xlink:href="output_8hpp.html" target="_top" xlink:title="This file contains functions for displaying error, warning, and info messages.">
<polygon fill="none" stroke="black" points="1132.5,-129 1132.5,-148 1239.5,-148 1239.5,-129 1132.5,-129"/>
<text text-anchor="middle" x="1186" y="-136" font-family="Helvetica,sans-Serif" font-size="10.00">include/output.hpp</text>
</a>
</g>
</g>
<!-- Node1&#45;&gt;Node2 -->
<g id="edge1" class="edge">
<title>Node1&#45;&gt;Node2</title>
<path fill="none" stroke="midnightblue" d="M2460.27,-195.96C2224.41,-185.51 1450.84,-151.23 1239.67,-141.88"/>
<polygon fill="midnightblue" stroke="midnightblue" points="2460.28,-199.46 2470.43,-196.41 2460.59,-192.47 2460.28,-199.46"/>
</g>
<!-- Node15 -->
<g id="node15" class="node">
<title>Node15</title>
<g id="a_node15"><a xlink:href="multiplyReport_8cpp.html" target="_top" xlink:title="This file contains the implementation of the reportMultiply function, which reports the product of tw...">
<polygon fill="none" stroke="black" points="2030,-6 2030,-25 2200,-25 2200,-6 2030,-6"/>
<text text-anchor="middle" x="2115" y="-13" font-family="Helvetica,sans-Serif" font-size="10.00">src/multiply/multiplyReport.cpp</text>
</a>
</g>
</g>
<!-- Node1&#45;&gt;Node15 -->
<g id="edge32" class="edge">
<title>Node1&#45;&gt;Node15</title>
<path fill="none" stroke="midnightblue" d="M2460.11,-195.65C2409.18,-191.01 2339.22,-180.01 2283,-154 2211.17,-120.76 2144.14,-49.53 2122.37,-25"/>
<polygon fill="midnightblue" stroke="midnightblue" points="2460.09,-199.16 2470.35,-196.52 2460.68,-192.18 2460.09,-199.16"/>
</g>
<!-- Node18 -->
<g id="node18" class="node">
<title>Node18</title>
<g id="a_node18"><a xlink:href="powerReport_8cpp.html" target="_top" xlink:title="This file contains the implementation for the function reportPower, which reports the result of raisi...">
<polygon fill="none" stroke="black" points="2218.5,-6 2218.5,-25 2367.5,-25 2367.5,-6 2218.5,-6"/>
<text text-anchor="middle" x="2293" y="-13" font-family="Helvetica,sans-Serif" font-size="10.00">src/power/powerReport.cpp</text>
</a>
</g>
</g>
<!-- Node1&#45;&gt;Node18 -->
<g id="edge33" class="edge">
<title>Node1&#45;&gt;Node18</title>
<path fill="none" stroke="midnightblue" d="M2460.23,-194.42C2401.21,-188.93 2322.51,-177.37 2302,-154 2269.18,-116.6 2283.75,-49.2 2290.37,-25.24"/>
<polygon fill="midnightblue" stroke="midnightblue" points="2459.99,-197.91 2470.27,-195.31 2460.62,-190.94 2459.99,-197.91"/>
</g>
<!-- Node20 -->
<g id="node20" class="node">
<title>Node20</title>
<g id="a_node20"><a xlink:href="subtract_8cpp.html" target="_top" xlink:title="This file contains the implementation of the subtract function, which subtracts two numbers using the...">
<polygon fill="none" stroke="black" points="2385.5,-6 2385.5,-25 2522.5,-25 2522.5,-6 2385.5,-6"/>
<text text-anchor="middle" x="2454" y="-13" font-family="Helvetica,sans-Serif" font-size="10.00">src/subtract/subtract.cpp</text>
</a>
</g>
</g>
<!-- Node1&#45;&gt;Node20 -->
<g id="edge34" class="edge">
<title>Node1&#45;&gt;Node20</title>
<path fill="none" stroke="midnightblue" d="M2460.27,-193.8C2404.81,-188 2333.13,-176.34 2315,-154 2271.68,-100.63 2383.87,-45.66 2432.65,-25.01"/>
<polygon fill="midnightblue" stroke="midnightblue" points="2460.12,-197.3 2470.42,-194.81 2460.82,-190.33 2460.12,-197.3"/>
</g>
<!-- Node24 -->
<g id="node24" class="node">
<title>Node24</title>
<g id="a_node24"><a xlink:href="absReport_8cpp.html" target="_top" xlink:title="This file contains the implementation of the reportAbs function, which reports the absolute value of ...">
<polygon fill="none" stroke="black" points="2324,-129 2324,-148 2448,-148 2448,-129 2324,-129"/>
<text text-anchor="middle" x="2386" y="-136" font-family="Helvetica,sans-Serif" font-size="10.00">src/abs/absReport.cpp</text>
</a>
</g>
</g>
<!-- Node1&#45;&gt;Node24 -->
<g id="edge27" class="edge">
<title>Node1&#45;&gt;Node24</title>
<path fill="none" stroke="midnightblue" d="M2499.27,-186.63C2471.49,-175.07 2430.75,-158.12 2406.45,-148.01"/>
<polygon fill="midnightblue" stroke="midnightblue" points="2497.93,-189.86 2508.51,-190.48 2500.62,-183.4 2497.93,-189.86"/>
</g>
<!-- Node25 -->
<g id="node25" class="node">
<title>Node25</title>
<g id="a_node25"><a xlink:href="addReport_8cpp.html" target="_top" xlink:title="This file contains the implementation of the reportAdd function, which reports the sum of two number ...">
<polygon fill="none" stroke="black" points="2466.5,-129 2466.5,-148 2591.5,-148 2591.5,-129 2466.5,-129"/>
<text text-anchor="middle" x="2529" y="-136" font-family="Helvetica,sans-Serif" font-size="10.00">src/add/addReport.cpp</text>
</a>
</g>
</g>
<!-- Node1&#45;&gt;Node25 -->
<g id="edge28" class="edge">
<title>Node1&#45;&gt;Node25</title>
<path fill="none" stroke="midnightblue" d="M2529,-180.32C2529,-169.5 2529,-156.4 2529,-148.01"/>
<polygon fill="midnightblue" stroke="midnightblue" points="2525.5,-180.48 2529,-190.48 2532.5,-180.48 2525.5,-180.48"/>
</g>
<!-- Node26 -->
<g id="node26" class="node">
<title>Node26</title>
<g id="a_node26"><a xlink:href="baseConvertReport_8cpp.html" target="_top" xlink:title="This file contains the implementation of the reportBaseConvert function, which reports the converted ...">
<polygon fill="none" stroke="black" points="2610,-123.5 2610,-153.5 2770,-153.5 2770,-123.5 2610,-123.5"/>
<text text-anchor="start" x="2618" y="-141.5" font-family="Helvetica,sans-Serif" font-size="10.00">src/baseConvert/baseConvert</text>
<text text-anchor="middle" x="2690" y="-130.5" font-family="Helvetica,sans-Serif" font-size="10.00">Report.cpp</text>
</a>
</g>
</g>
<!-- Node1&#45;&gt;Node26 -->
<g id="edge29" class="edge">
<title>Node1&#45;&gt;Node26</title>
<path fill="none" stroke="midnightblue" d="M2561.54,-186.98C2587.71,-177.3 2624.54,-163.69 2652.06,-153.52"/>
<polygon fill="midnightblue" stroke="midnightblue" points="2560.23,-183.73 2552.07,-190.48 2562.66,-190.29 2560.23,-183.73"/>
</g>
<!-- Node27 -->
<g id="node27" class="node">
<title>Node27</title>
<g id="a_node27"><a xlink:href="comparisonReport_8cpp.html" target="_top" xlink:title=" ">
<polygon fill="none" stroke="black" points="2788.5,-123.5 2788.5,-153.5 2939.5,-153.5 2939.5,-123.5 2788.5,-123.5"/>
<text text-anchor="start" x="2796.5" y="-141.5" font-family="Helvetica,sans-Serif" font-size="10.00">src/comparison/comparison</text>
<text text-anchor="middle" x="2864" y="-130.5" font-family="Helvetica,sans-Serif" font-size="10.00">Report.cpp</text>
</a>
</g>
</g>
<!-- Node1&#45;&gt;Node27 -->
<g id="edge30" class="edge">
<title>Node1&#45;&gt;Node27</title>
<path fill="none" stroke="midnightblue" d="M2587.06,-188.69C2642.78,-178.79 2727.26,-163.79 2788.25,-152.95"/>
<polygon fill="midnightblue" stroke="midnightblue" points="2586.23,-185.28 2577,-190.48 2587.46,-192.17 2586.23,-185.28"/>
</g>
<!-- Node28 -->
<g id="node28" class="node">
<title>Node28</title>
<g id="a_node28"><a xlink:href="decimalConvertReport_8cpp.html" target="_top" xlink:title=" ">
<polygon fill="none" stroke="black" points="2957.5,-123.5 2957.5,-153.5 3106.5,-153.5 3106.5,-123.5 2957.5,-123.5"/>
<text text-anchor="start" x="2965.5" y="-141.5" font-family="Helvetica,sans-Serif" font-size="10.00">src/decimalConvert</text>
<text text-anchor="middle" x="3032" y="-130.5" font-family="Helvetica,sans-Serif" font-size="10.00">/decimalConvertReport.cpp</text>
</a>
</g>
</g>
<!-- Node1&#45;&gt;Node28 -->
<g id="edge31" class="edge">
<title>Node1&#45;&gt;Node28</title>
<path fill="none" stroke="midnightblue" d="M2597.68,-193.05C2680.99,-185.5 2825.61,-171.37 2949,-154 2951.75,-153.61 2954.55,-153.2 2957.38,-152.78"/>
<polygon fill="midnightblue" stroke="midnightblue" points="2597.23,-189.58 2587.58,-193.96 2597.86,-196.55 2597.23,-189.58"/>
</g>
<!-- Node29 -->
<g id="node29" class="node">
<title>Node29</title>
<g id="a_node29"><a xlink:href="subtractReport_8cpp.html" target="_top" xlink:title="This file contains the implementation of the reportSubtract function, which reports the result of a s...">
<polygon fill="none" stroke="black" points="3124.5,-129 3124.5,-148 3293.5,-148 3293.5,-129 3124.5,-129"/>
<text text-anchor="middle" x="3209" y="-136" font-family="Helvetica,sans-Serif" font-size="10.00">src/subtract/subtractReport.cpp</text>
</a>
</g>
</g>
<!-- Node1&#45;&gt;Node29 -->
<g id="edge35" class="edge">
<title>Node1&#45;&gt;Node29</title>
<path fill="none" stroke="midnightblue" d="M2598.17,-195.45C2708.11,-189.42 2929.37,-175.67 3116,-154 3129.96,-152.38 3145.04,-150.21 3158.9,-148.05"/>
<polygon fill="midnightblue" stroke="midnightblue" points="2597.68,-191.97 2587.88,-196.01 2598.06,-198.96 2597.68,-191.97"/>
</g>
<!-- Node30 -->
<g id="node30" class="node">
<title>Node30</title>
<g id="a_node30"><a xlink:href="symbols_8cpp.html" target="_top" xlink:title=" ">
<polygon fill="none" stroke="black" points="3311.5,-129 3311.5,-148 3406.5,-148 3406.5,-129 3311.5,-129"/>
<text text-anchor="middle" x="3359" y="-136" font-family="Helvetica,sans-Serif" font-size="10.00">src/symbols.cpp</text>
</a>
</g>
</g>
<!-- Node1&#45;&gt;Node30 -->
<g id="edge36" class="edge">
<title>Node1&#45;&gt;Node30</title>
<path fill="none" stroke="midnightblue" d="M2597.92,-199.49C2733.72,-199.46 3045.1,-194.49 3303,-154 3312.03,-152.58 3321.71,-150.34 3330.45,-148.04"/>
<polygon fill="midnightblue" stroke="midnightblue" points="2597.67,-195.99 2587.67,-199.48 2597.67,-202.99 2597.67,-195.99"/>
</g>
<!-- Node3 -->
<g id="node3" class="node">
<title>Node3</title>
<g id="a_node3"><a xlink:href="basicArithm_8hpp.html" target="_top" xlink:title="This file contains functions for basic arithmetic operations on strings.">
<polygon fill="none" stroke="black" points="1163.5,-67.5 1163.5,-86.5 1310.5,-86.5 1310.5,-67.5 1163.5,-67.5"/>
<text text-anchor="middle" x="1237" y="-74.5" font-family="Helvetica,sans-Serif" font-size="10.00">include/fn/basicArithm.hpp</text>
</a>
</g>
</g>
<!-- Node2&#45;&gt;Node3 -->
<g id="edge2" class="edge">
<title>Node2&#45;&gt;Node3</title>
<path fill="none" stroke="midnightblue" d="M1200,-121.17C1209.61,-109.95 1221.99,-95.52 1229.71,-86.51"/>
<polygon fill="midnightblue" stroke="midnightblue" points="1197.16,-119.1 1193.31,-128.98 1202.47,-123.66 1197.16,-119.1"/>
</g>
<!-- Node5 -->
<g id="node5" class="node">
<title>Node5</title>
<g id="a_node5"><a xlink:href="abs_8cpp.html" target="_top" xlink:title="This file contains the implementation of the abs function, which gets the absolute value of a number ...">
<polygon fill="none" stroke="black" points="0,-6 0,-25 92,-25 92,-6 0,-6"/>
<text text-anchor="middle" x="46" y="-13" font-family="Helvetica,sans-Serif" font-size="10.00">src/abs/abs.cpp</text>
</a>
</g>
</g>
<!-- Node2&#45;&gt;Node5 -->
<g id="edge21" class="edge">
<title>Node2&#45;&gt;Node5</title>
<path fill="none" stroke="midnightblue" d="M1155.54,-125.1C1132.51,-115.44 1100.31,-101.31 1073,-87 1057.81,-79.04 1056.43,-71.93 1040,-67 839.99,-6.97 307.54,-61.8 101,-31 91.92,-29.65 82.17,-27.36 73.45,-25"/>
<polygon fill="midnightblue" stroke="midnightblue" points="1154.22,-128.35 1164.8,-128.96 1156.91,-121.89 1154.22,-128.35"/>
</g>
<!-- Node7 -->
<g id="node7" class="node">
<title>Node7</title>
<g id="a_node7"><a xlink:href="baseConvert_8cpp.html" target="_top" xlink:title="This file contains the implementation of the baseConvert function, which converts any number to any b...">
<polygon fill="none" stroke="black" points="110,-6 110,-25 290,-25 290,-6 110,-6"/>
<text text-anchor="middle" x="200" y="-13" font-family="Helvetica,sans-Serif" font-size="10.00">src/baseConvert/baseConvert.cpp</text>
</a>
</g>
</g>
<!-- Node2&#45;&gt;Node7 -->
<g id="edge23" class="edge">
<title>Node2&#45;&gt;Node7</title>
<path fill="none" stroke="midnightblue" d="M1164.38,-123.18C1134.44,-103.48 1082.9,-70.09 1073,-67 908.61,-15.76 470.39,-47.5 299,-31 283.52,-29.51 266.77,-27.29 251.52,-25.03"/>
<polygon fill="midnightblue" stroke="midnightblue" points="1162.64,-126.22 1172.91,-128.81 1166.49,-120.38 1162.64,-126.22"/>
</g>
<!-- Node10 -->
<g id="node10" class="node">
<title>Node10</title>
<g id="a_node10"><a xlink:href="division_8cpp.html" target="_top" xlink:title="Performs division of two numbers represented in strings.">
<polygon fill="none" stroke="black" points="308,-6 308,-25 442,-25 442,-6 308,-6"/>
<text text-anchor="middle" x="375" y="-13" font-family="Helvetica,sans-Serif" font-size="10.00">src/division/division.cpp</text>
</a>
</g>
</g>
<!-- Node2&#45;&gt;Node10 -->
<g id="edge24" class="edge">
<title>Node2&#45;&gt;Node10</title>
<path fill="none" stroke="midnightblue" d="M1173.65,-120.31C1160.34,-103.34 1137.48,-78.33 1111,-67 975.97,-9.19 596.8,-48.8 451,-31 439,-29.53 426.04,-27.31 414.29,-25.04"/>
<polygon fill="midnightblue" stroke="midnightblue" points="1171.21,-122.89 1180.02,-128.77 1176.8,-118.68 1171.21,-122.89"/>
</g>
<!-- Node16 -->
<g id="node16" class="node">
<title>Node16</title>
<g id="a_node16"><a xlink:href="number_8cpp.html" target="_top" xlink:title=" ">
<polygon fill="none" stroke="black" points="1920.5,-6 1920.5,-25 2011.5,-25 2011.5,-6 1920.5,-6"/>
<text text-anchor="middle" x="1966" y="-13" font-family="Helvetica,sans-Serif" font-size="10.00">src/number.cpp</text>
</a>
</g>
</g>
<!-- Node2&#45;&gt;Node16 -->
<g id="edge25" class="edge">
<title>Node2&#45;&gt;Node16</title>
<path fill="none" stroke="midnightblue" d="M1220.28,-125.67C1247.39,-116.03 1286.04,-101.66 1319,-87 1336.8,-79.09 1339.22,-72.19 1358,-67 1595.41,-1.44 1667.9,-70.58 1911,-31 1919.87,-29.56 1929.38,-27.31 1937.96,-25.01"/>
<polygon fill="midnightblue" stroke="midnightblue" points="1219.11,-122.37 1210.84,-129 1221.44,-128.97 1219.11,-122.37"/>
</g>
<!-- Node22 -->
<g id="node22" class="node">
<title>Node22</title>
<g id="a_node22"><a xlink:href="argParse_8cpp.html" target="_top" xlink:title=" ">
<polygon fill="none" stroke="black" points="1367,-67.5 1367,-86.5 1463,-86.5 1463,-67.5 1367,-67.5"/>
<text text-anchor="middle" x="1415" y="-74.5" font-family="Helvetica,sans-Serif" font-size="10.00">src/argParse.cpp</text>
</a>
</g>
</g>
<!-- Node2&#45;&gt;Node22 -->
<g id="edge22" class="edge">
<title>Node2&#45;&gt;Node22</title>
<path fill="none" stroke="midnightblue" d="M1228.74,-126.4C1273.21,-114.84 1341.89,-97 1382.25,-86.51"/>
<polygon fill="midnightblue" stroke="midnightblue" points="1227.61,-123.07 1218.81,-128.98 1229.37,-129.85 1227.61,-123.07"/>
</g>
<!-- Node23 -->
<g id="node23" class="node">
<title>Node23</title>
<g id="a_node23"><a xlink:href="testing_8cpp.html" target="_top" xlink:title=" ">
<polygon fill="none" stroke="black" points="943,-67.5 943,-86.5 1031,-86.5 1031,-67.5 943,-67.5"/>
<text text-anchor="middle" x="987" y="-74.5" font-family="Helvetica,sans-Serif" font-size="10.00">src/testing.cpp</text>
</a>
</g>
</g>
<!-- Node2&#45;&gt;Node23 -->
<g id="edge26" class="edge">
<title>Node2&#45;&gt;Node23</title>
<path fill="none" stroke="midnightblue" d="M1147.63,-126.03C1108.96,-114.46 1050.16,-96.88 1015.46,-86.51"/>
<polygon fill="midnightblue" stroke="midnightblue" points="1146.9,-129.46 1157.49,-128.98 1148.91,-122.76 1146.9,-129.46"/>
</g>
<!-- Node4 -->
<g id="node4" class="node">
<title>Node4</title>
<g id="a_node4"><a xlink:href="bindings_8cpp.html" target="_top" xlink:title=" ">
<polygon fill="none" stroke="black" points="460.5,-6 460.5,-25 553.5,-25 553.5,-6 460.5,-6"/>
<text text-anchor="middle" x="507" y="-13" font-family="Helvetica,sans-Serif" font-size="10.00">lib/bindings.cpp</text>
</a>
</g>
</g>
<!-- Node3&#45;&gt;Node4 -->
<g id="edge3" class="edge">
<title>Node3&#45;&gt;Node4</title>
<path fill="none" stroke="midnightblue" d="M1152.9,-67.32C1151.59,-67.21 1150.29,-67.11 1149,-67 888.49,-45.7 820.06,-72.52 562,-31 553.13,-29.57 543.61,-27.33 535.03,-25.03"/>
<polygon fill="midnightblue" stroke="midnightblue" points="1152.81,-70.83 1163.08,-68.22 1153.42,-63.86 1152.81,-70.83"/>
</g>
<!-- Node3&#45;&gt;Node5 -->
<g id="edge4" class="edge">
<title>Node3&#45;&gt;Node5</title>
<path fill="none" stroke="midnightblue" d="M1153.05,-71.11C1127.37,-69.68 1099.03,-68.2 1073,-67 641.16,-47.16 528.61,-94.49 101,-31 91.92,-29.65 82.17,-27.37 73.45,-25.01"/>
<polygon fill="midnightblue" stroke="midnightblue" points="1152.95,-74.6 1163.13,-71.67 1153.34,-67.62 1152.95,-74.6"/>
</g>
<!-- Node6 -->
<g id="node6" class="node">
<title>Node6</title>
<g id="a_node6"><a xlink:href="add_8cpp.html" target="_top" xlink:title="This file contains the implementation of the add function, which add two number strings together.">
<polygon fill="none" stroke="black" points="571.5,-6 571.5,-25 664.5,-25 664.5,-6 571.5,-6"/>
<text text-anchor="middle" x="618" y="-13" font-family="Helvetica,sans-Serif" font-size="10.00">src/add/add.cpp</text>
</a>
</g>
</g>
<!-- Node3&#45;&gt;Node6 -->
<g id="edge5" class="edge">
<title>Node3&#45;&gt;Node6</title>
<path fill="none" stroke="midnightblue" d="M1152.9,-67.35C1151.59,-67.23 1150.29,-67.11 1149,-67 937.67,-48.21 882.22,-66.19 673,-31 664.24,-29.53 654.84,-27.3 646.33,-25.02"/>
<polygon fill="midnightblue" stroke="midnightblue" points="1152.79,-70.86 1163.07,-68.3 1153.44,-63.89 1152.79,-70.86"/>
</g>
<!-- Node3&#45;&gt;Node7 -->
<g id="edge6" class="edge">
<title>Node3&#45;&gt;Node7</title>
<path fill="none" stroke="midnightblue" d="M1153.22,-69.7C1139.13,-68.73 1124.65,-67.79 1111,-67 750.36,-46.13 658.62,-65.22 299,-31 283.44,-29.52 266.58,-27.29 251.26,-25.02"/>
<polygon fill="midnightblue" stroke="midnightblue" points="1153.18,-73.2 1163.4,-70.41 1153.67,-66.22 1153.18,-73.2"/>
</g>
<!-- Node8 -->
<g id="node8" class="node">
<title>Node8</title>
<g id="a_node8"><a xlink:href="comparison_8cpp.html" target="_top" xlink:title=" ">
<polygon fill="none" stroke="black" points="682.5,-6 682.5,-25 853.5,-25 853.5,-6 682.5,-6"/>
<text text-anchor="middle" x="768" y="-13" font-family="Helvetica,sans-Serif" font-size="10.00">src/comparison/comparison.cpp</text>
</a>
</g>
</g>
<!-- Node3&#45;&gt;Node8 -->
<g id="edge7" class="edge">
<title>Node3&#45;&gt;Node8</title>
<path fill="none" stroke="midnightblue" d="M1153.26,-66.77C1077.19,-58.19 961.94,-44.7 862,-31 848.75,-29.18 834.47,-27.06 821.15,-25.02"/>
<polygon fill="midnightblue" stroke="midnightblue" points="1152.93,-70.25 1163.26,-67.89 1153.71,-63.3 1152.93,-70.25"/>
</g>
<!-- Node9 -->
<g id="node9" class="node">
<title>Node9</title>
<g id="a_node9"><a xlink:href="decimalConvert_8cpp.html" target="_top" xlink:title="This file contains the implementation of the decimalConvert function, which converts a number from on...">
<polygon fill="none" stroke="black" points="871.5,-0.5 871.5,-30.5 988.5,-30.5 988.5,-0.5 871.5,-0.5"/>
<text text-anchor="start" x="879.5" y="-18.5" font-family="Helvetica,sans-Serif" font-size="10.00">src/decimalConvert</text>
<text text-anchor="middle" x="930" y="-7.5" font-family="Helvetica,sans-Serif" font-size="10.00">/decimalConvert.cpp</text>
</a>
</g>
</g>
<!-- Node3&#45;&gt;Node9 -->
<g id="edge8" class="edge">
<title>Node3&#45;&gt;Node9</title>
<path fill="none" stroke="midnightblue" d="M1179.79,-65.63C1131.33,-56.74 1060.03,-43.45 998,-31 994.92,-30.38 991.77,-29.74 988.59,-29.09"/>
<polygon fill="midnightblue" stroke="midnightblue" points="1179.31,-69.1 1189.77,-67.45 1180.57,-62.21 1179.31,-69.1"/>
</g>
<!-- Node3&#45;&gt;Node10 -->
<g id="edge9" class="edge">
<title>Node3&#45;&gt;Node10</title>
<path fill="none" stroke="midnightblue" d="M1152.91,-67.31C1151.59,-67.2 1150.29,-67.1 1149,-67 839.28,-43.19 759.4,-68.2 451,-31 439,-29.55 426.04,-27.33 414.28,-25.06"/>
<polygon fill="midnightblue" stroke="midnightblue" points="1152.82,-70.81 1163.08,-68.17 1153.41,-63.84 1152.82,-70.81"/>
</g>
<!-- Node11 -->
<g id="node11" class="node">
<title>Node11</title>
<g id="a_node11"><a xlink:href="divisionReport_8cpp.html" target="_top" xlink:title="This file contains the implementations for functions reportDivision and reportDivisionStep,...">
<polygon fill="none" stroke="black" points="1007,-6 1007,-25 1173,-25 1173,-6 1007,-6"/>
<text text-anchor="middle" x="1090" y="-13" font-family="Helvetica,sans-Serif" font-size="10.00">src/division/divisionReport.cpp</text>
</a>
</g>
</g>
<!-- Node3&#45;&gt;Node11 -->
<g id="edge10" class="edge">
<title>Node3&#45;&gt;Node11</title>
<path fill="none" stroke="midnightblue" d="M1206.44,-63.63C1177.88,-52.07 1136,-35.12 1111.02,-25.01"/>
<polygon fill="midnightblue" stroke="midnightblue" points="1205.36,-66.97 1215.94,-67.48 1207.98,-60.48 1205.36,-66.97"/>
</g>
<!-- Node12 -->
<g id="node12" class="node">
<title>Node12</title>
<g id="a_node12"><a xlink:href="fraction_8cpp.html" target="_top" xlink:title=" ">
<polygon fill="none" stroke="black" points="1191,-6 1191,-25 1283,-25 1283,-6 1191,-6"/>
<text text-anchor="middle" x="1237" y="-13" font-family="Helvetica,sans-Serif" font-size="10.00">src/fraction.cpp</text>
</a>
</g>
</g>
<!-- Node3&#45;&gt;Node12 -->
<g id="edge11" class="edge">
<title>Node3&#45;&gt;Node12</title>
<path fill="none" stroke="midnightblue" d="M1237,-57.32C1237,-46.5 1237,-33.4 1237,-25.01"/>
<polygon fill="midnightblue" stroke="midnightblue" points="1233.5,-57.48 1237,-67.48 1240.5,-57.48 1233.5,-57.48"/>
</g>
<!-- Node13 -->
<g id="node13" class="node">
<title>Node13</title>
<g id="a_node13"><a xlink:href="main_8cpp.html" target="_top" xlink:title=" ">
<polygon fill="none" stroke="black" points="1301.5,-6 1301.5,-25 1408.5,-25 1408.5,-6 1301.5,-6"/>
<text text-anchor="middle" x="1355" y="-13" font-family="Helvetica,sans-Serif" font-size="10.00">src/main/main.cpp</text>
</a>
</g>
</g>
<!-- Node3&#45;&gt;Node13 -->
<g id="edge12" class="edge">
<title>Node3&#45;&gt;Node13</title>
<path fill="none" stroke="midnightblue" d="M1263.05,-62.87C1285.92,-51.33 1318.51,-34.9 1338.12,-25.01"/>
<polygon fill="midnightblue" stroke="midnightblue" points="1261.26,-59.85 1253.91,-67.48 1264.41,-66.1 1261.26,-59.85"/>
</g>
<!-- Node14 -->
<g id="node14" class="node">
<title>Node14</title>
<g id="a_node14"><a xlink:href="multiply_8cpp.html" target="_top" xlink:title="This file contains the implementation of the multiply function, which can multiply two strings togeth...">
<polygon fill="none" stroke="black" points="1426.5,-6 1426.5,-25 1563.5,-25 1563.5,-6 1426.5,-6"/>
<text text-anchor="middle" x="1495" y="-13" font-family="Helvetica,sans-Serif" font-size="10.00">src/multiply/multiply.cpp</text>
</a>
</g>
</g>
<!-- Node3&#45;&gt;Node14 -->
<g id="edge13" class="edge">
<title>Node3&#45;&gt;Node14</title>
<path fill="none" stroke="midnightblue" d="M1283.89,-65.19C1333.95,-53.64 1412.25,-35.58 1458.1,-25.01"/>
<polygon fill="midnightblue" stroke="midnightblue" points="1282.92,-61.82 1273.97,-67.48 1284.5,-68.64 1282.92,-61.82"/>
</g>
<!-- Node3&#45;&gt;Node15 -->
<g id="edge14" class="edge">
<title>Node3&#45;&gt;Node15</title>
<path fill="none" stroke="midnightblue" d="M1320.56,-69.57C1333.11,-68.66 1345.89,-67.78 1358,-67 1652.05,-48.07 1726.9,-61.27 2020,-31 2034.77,-29.47 2050.75,-27.26 2065.32,-25.01"/>
<polygon fill="midnightblue" stroke="midnightblue" points="1320.29,-66.08 1310.57,-70.29 1320.8,-73.06 1320.29,-66.08"/>
</g>
<!-- Node3&#45;&gt;Node16 -->
<g id="edge15" class="edge">
<title>Node3&#45;&gt;Node16</title>
<path fill="none" stroke="midnightblue" d="M1321.1,-67.33C1322.41,-67.21 1323.71,-67.11 1325,-67 1585.07,-45.72 1653.38,-72.46 1911,-31 1919.87,-29.57 1929.39,-27.33 1937.97,-25.03"/>
<polygon fill="midnightblue" stroke="midnightblue" points="1320.58,-63.86 1310.92,-68.22 1321.19,-70.83 1320.58,-63.86"/>
</g>
<!-- Node17 -->
<g id="node17" class="node">
<title>Node17</title>
<g id="a_node17"><a xlink:href="power_8cpp.html" target="_top" xlink:title="This file contains the implementation for the function power, which raises a number to a power.">
<polygon fill="none" stroke="black" points="1582,-6 1582,-25 1698,-25 1698,-6 1582,-6"/>
<text text-anchor="middle" x="1640" y="-13" font-family="Helvetica,sans-Serif" font-size="10.00">src/power/power.cpp</text>
</a>
</g>
</g>
<!-- Node3&#45;&gt;Node17 -->
<g id="edge16" class="edge">
<title>Node3&#45;&gt;Node17</title>
<path fill="none" stroke="midnightblue" d="M1320.99,-66.53C1388.91,-58.43 1486.9,-45.77 1572,-31 1581.87,-29.29 1592.49,-27.16 1602.33,-25.07"/>
<polygon fill="midnightblue" stroke="midnightblue" points="1320.29,-63.08 1310.77,-67.74 1321.11,-70.04 1320.29,-63.08"/>
</g>
<!-- Node3&#45;&gt;Node18 -->
<g id="edge17" class="edge">
<title>Node3&#45;&gt;Node18</title>
<path fill="none" stroke="midnightblue" d="M1320.55,-69.43C1333.1,-68.55 1345.89,-67.71 1358,-67 1735.92,-44.96 1832.59,-71.28 2209,-31 2222.39,-29.57 2236.88,-27.32 2249.98,-25.02"/>
<polygon fill="midnightblue" stroke="midnightblue" points="1320.28,-65.95 1310.56,-70.15 1320.79,-72.93 1320.28,-65.95"/>
</g>
<!-- Node19 -->
<g id="node19" class="node">
<title>Node19</title>
<g id="a_node19"><a xlink:href="rounding_8cpp.html" target="_top" xlink:title=" ">
<polygon fill="none" stroke="black" points="1716.5,-6 1716.5,-25 1813.5,-25 1813.5,-6 1716.5,-6"/>
<text text-anchor="middle" x="1765" y="-13" font-family="Helvetica,sans-Serif" font-size="10.00">src/rounding.cpp</text>
</a>
</g>
</g>
<!-- Node3&#45;&gt;Node19 -->
<g id="edge18" class="edge">
<title>Node3&#45;&gt;Node19</title>
<path fill="none" stroke="midnightblue" d="M1321.1,-67.38C1322.41,-67.25 1323.71,-67.13 1325,-67 1494.71,-50.32 1538.91,-59.76 1707,-31 1716,-29.46 1725.67,-27.26 1734.48,-25.05"/>
<polygon fill="midnightblue" stroke="midnightblue" points="1320.54,-63.92 1310.94,-68.4 1321.23,-70.89 1320.54,-63.92"/>
</g>
<!-- Node3&#45;&gt;Node20 -->
<g id="edge19" class="edge">
<title>Node3&#45;&gt;Node20</title>
<path fill="none" stroke="midnightblue" d="M1320.55,-69.36C1333.1,-68.49 1345.88,-67.66 1358,-67 1810.05,-42.2 1925.99,-80.51 2376,-31 2388.6,-29.61 2402.21,-27.35 2414.49,-25.02"/>
<polygon fill="midnightblue" stroke="midnightblue" points="1320.28,-65.87 1310.56,-70.07 1320.78,-72.85 1320.28,-65.87"/>
</g>
<!-- Node21 -->
<g id="node21" class="node">
<title>Node21</title>
<g id="a_node21"><a xlink:href="util_8cpp.html" target="_top" xlink:title=" ">
<polygon fill="none" stroke="black" points="1832,-6 1832,-25 1902,-25 1902,-6 1832,-6"/>
<text text-anchor="middle" x="1867" y="-13" font-family="Helvetica,sans-Serif" font-size="10.00">src/util.cpp</text>
</a>
</g>
</g>
<!-- Node3&#45;&gt;Node21 -->
<g id="edge20" class="edge">
<title>Node3&#45;&gt;Node21</title>
<path fill="none" stroke="midnightblue" d="M1321.1,-67.34C1322.41,-67.23 1323.71,-67.11 1325,-67 1545.63,-47.73 1604.6,-73.26 1822,-31 1829.25,-29.59 1836.97,-27.38 1843.92,-25.11"/>
<polygon fill="midnightblue" stroke="midnightblue" points="1320.56,-63.88 1310.93,-68.28 1321.2,-70.85 1320.56,-63.88"/>
</g>
</g>
</svg>
