<?xml version="1.0" encoding="UTF-8" standalone="no"?>
<!DOCTYPE svg PUBLIC "-//W3C//DTD SVG 1.1//EN"
 "http://www.w3.org/Graphics/SVG/1.1/DTD/svg11.dtd">
<!-- Generated by graphviz version 2.43.0 (0)
 -->
<!-- Title: makeWider Pages: 1 -->
<!--zoomable 441 -->
<svg id="main" version="1.1" xmlns="http://www.w3.org/2000/svg" xmlns:xlink="http://www.w3.org/1999/xlink" xml:space="preserve" onload="init(evt)">
<style type="text/css"><![CDATA[
.edge:hover path { stroke: red; }
.edge:hover polygon { stroke: red; fill: red; }
]]></style>
<script type="text/javascript"><![CDATA[
var edges = document.getElementsByTagName('g');
if (edges && edges.length) {
  for (var i=0;i<edges.length;i++) {
    if (edges[i].id.substr(0,4)=='edge') {
      edges[i].setAttribute('class','edge');
    }
  }
}
]]></script>
        <defs>
                <circle id="rim" cx="0" cy="0" r="7"/>
                <circle id="rim2" cx="0" cy="0" r="3.5"/>
                <g id="zoomPlus">
                        <use xlink:href="#rim" fill="#404040">
                                <set attributeName="fill" to="#808080" begin="zoomplus.mouseover" end="zoomplus.mouseout"/>
                        </use>
                        <path d="M-4,0h8M0,-4v8" fill="none" stroke="white" stroke-width="1.5" pointer-events="none"/>
                </g>
                <g id="zoomMin">
                        <use xlink:href="#rim" fill="#404040">
                                <set attributeName="fill" to="#808080" begin="zoomminus.mouseover" end="zoomminus.mouseout"/>
                        </use>
                        <path d="M-4,0h8" fill="none" stroke="white" stroke-width="1.5" pointer-events="none"/>
                </g>
                <g id="dirArrow">
                        <path fill="none" stroke="white" stroke-width="1.5" d="M0,-3.0v7 M-2.5,-0.5L0,-3.0L2.5,-0.5"/>
                </g>
               <g id="resetDef">
                       <use xlink:href="#rim2" fill="#404040">
                               <set attributeName="fill" to="#808080" begin="reset.mouseover" end="reset.mouseout"/>
                       </use>
               </g>
        </defs>

<script type="text/javascript">
var viewWidth = 988;
var viewHeight = 441;
var sectionId = 'dynsection-6';
</script>
<script xlink:href="svgpan.js"/>
<svg id="graph" class="graph">
<g id="viewport">
<title>makeWider</title>
<!-- Node1 -->
<g id="node1" class="node">
<title>Node1</title>
<g id="a_node1"><a xlink:title="Makes the given string wider by adding 2 spaces between each character.">
<polygon fill="#bfbfbf" stroke="black" points="908,-375.5 908,-394.5 980,-394.5 980,-375.5 908,-375.5"/>
<text text-anchor="middle" x="944" y="-382.5" font-family="Helvetica,sans-Serif" font-size="10.00">makeWider</text>
</a>
</g>
</g>
<!-- Node2 -->
<g id="node2" class="node">
<title>Node2</title>
<g id="a_node2"><a xlink:href="basicArithm_8hpp.html#acb4215189a8d1cfd37f4f6fe13890a8f" target="_top" xlink:title="Divides a string representation of a number by another string representation of a number.">
<polygon fill="none" stroke="black" points="434,-251.5 434,-270.5 481,-270.5 481,-251.5 434,-251.5"/>
<text text-anchor="middle" x="457.5" y="-258.5" font-family="Helvetica,sans-Serif" font-size="10.00">divide</text>
</a>
</g>
</g>
<!-- Node1&#45;&gt;Node2 -->
<g id="edge1" class="edge">
<title>Node1&#45;&gt;Node2</title>
<path fill="none" stroke="midnightblue" d="M897.66,-388.4C801.24,-394.77 579.51,-404.63 517,-366 481.5,-344.06 465.76,-292.31 460.58,-270.73"/>
<polygon fill="midnightblue" stroke="midnightblue" points="897.95,-391.89 907.69,-387.72 897.48,-384.9 897.95,-391.89"/>
</g>
<!-- Node12 -->
<g id="node12" class="node">
<title>Node12</title>
<g id="a_node12"><a xlink:href="divisionReport_8cpp.html#a37e4e7cb6fe42ae3131cdc071b038687" target="_top" xlink:title=" ">
<polygon fill="none" stroke="black" points="664,-413.5 664,-432.5 750,-432.5 750,-413.5 664,-413.5"/>
<text text-anchor="middle" x="707" y="-420.5" font-family="Helvetica,sans-Serif" font-size="10.00">reportDivision</text>
</a>
</g>
</g>
<!-- Node1&#45;&gt;Node12 -->
<g id="edge12" class="edge">
<title>Node1&#45;&gt;Node12</title>
<path fill="none" stroke="midnightblue" d="M897.82,-394.26C889.26,-395.91 880.37,-397.56 872,-399 830.74,-406.08 783.4,-412.87 750.22,-417.4"/>
<polygon fill="midnightblue" stroke="midnightblue" points="898.53,-397.68 907.67,-392.32 897.18,-390.81 898.53,-397.68"/>
</g>
<!-- Node13 -->
<g id="node13" class="node">
<title>Node13</title>
<g id="a_node13"><a xlink:href="multiplyReport_8cpp.html#a66ad602068d3c80661db7d3cd3069681" target="_top" xlink:title=" ">
<polygon fill="none" stroke="black" points="786,-261.5 786,-280.5 872,-280.5 872,-261.5 786,-261.5"/>
<text text-anchor="middle" x="829" y="-268.5" font-family="Helvetica,sans-Serif" font-size="10.00">reportMultiply</text>
</a>
</g>
</g>
<!-- Node1&#45;&gt;Node13 -->
<g id="edge14" class="edge">
<title>Node1&#45;&gt;Node13</title>
<path fill="none" stroke="midnightblue" d="M926.32,-368.17C902.32,-343.96 858.85,-300.11 839.61,-280.69"/>
<polygon fill="midnightblue" stroke="midnightblue" points="923.84,-370.64 933.37,-375.28 928.81,-365.71 923.84,-370.64"/>
</g>
<!-- Node3 -->
<g id="node3" class="node">
<title>Node3</title>
<g id="a_node3"><a xlink:href="baseConvert_8cpp.html#a6443634f54179f61c6e58098cbb32210" target="_top" xlink:title=" ">
<polygon fill="none" stroke="black" points="320,-104.5 320,-123.5 398,-123.5 398,-104.5 320,-104.5"/>
<text text-anchor="middle" x="359" y="-111.5" font-family="Helvetica,sans-Serif" font-size="10.00">baseConvert</text>
</a>
</g>
</g>
<!-- Node2&#45;&gt;Node3 -->
<g id="edge2" class="edge">
<title>Node2&#45;&gt;Node3</title>
<path fill="none" stroke="midnightblue" d="M444.49,-242.71C423.88,-211.31 382.45,-148.2 366.48,-123.87"/>
<polygon fill="midnightblue" stroke="midnightblue" points="441.75,-244.92 450.17,-251.35 447.61,-241.07 441.75,-244.92"/>
</g>
<!-- Node5 -->
<g id="node5" class="node">
<title>Node5</title>
<g id="a_node5"><a xlink:href="division_8cpp.html#a065a3ee9a7ec43a06ab2fddbc3019a17" target="_top" xlink:title=" ">
<polygon fill="none" stroke="black" points="338.5,-251.5 338.5,-270.5 379.5,-270.5 379.5,-251.5 338.5,-251.5"/>
<text text-anchor="middle" x="359" y="-258.5" font-family="Helvetica,sans-Serif" font-size="10.00">main</text>
</a>
</g>
</g>
<!-- Node2&#45;&gt;Node5 -->
<g id="edge4" class="edge">
<title>Node2&#45;&gt;Node5</title>
<path fill="none" stroke="midnightblue" d="M423.49,-261C408.95,-261 392.35,-261 379.77,-261"/>
<polygon fill="midnightblue" stroke="midnightblue" points="423.63,-264.5 433.63,-261 423.63,-257.5 423.63,-264.5"/>
</g>
<!-- Node6 -->
<g id="node6" class="node">
<title>Node6</title>
<g id="a_node6"><a xlink:href="powerReport_8cpp.html#afff5f8aa771cf432836ef03f6f442dae" target="_top" xlink:title=" ">
<polygon fill="none" stroke="black" points="321,-47.5 321,-66.5 397,-66.5 397,-47.5 321,-47.5"/>
<text text-anchor="middle" x="359" y="-54.5" font-family="Helvetica,sans-Serif" font-size="10.00">reportPower</text>
</a>
</g>
</g>
<!-- Node2&#45;&gt;Node6 -->
<g id="edge5" class="edge">
<title>Node2&#45;&gt;Node6</title>
<path fill="none" stroke="midnightblue" d="M452.57,-241.37C445.46,-208.97 428.3,-143.11 398,-95 391.04,-83.95 380.33,-73.62 372.05,-66.53"/>
<polygon fill="midnightblue" stroke="midnightblue" points="449.19,-242.29 454.67,-251.35 456.04,-240.85 449.19,-242.29"/>
</g>
<!-- Node4 -->
<g id="node4" class="node">
<title>Node4</title>
<g id="a_node4"><a xlink:href="baseConvert_8cpp.html#ae66f6b31b5ad750f1fe042a706a4e3d4" target="_top" xlink:title=" ">
<polygon fill="none" stroke="black" points="240,-104.5 240,-123.5 281,-123.5 281,-104.5 240,-104.5"/>
<text text-anchor="middle" x="260.5" y="-111.5" font-family="Helvetica,sans-Serif" font-size="10.00">main</text>
</a>
</g>
</g>
<!-- Node3&#45;&gt;Node4 -->
<g id="edge3" class="edge">
<title>Node3&#45;&gt;Node4</title>
<path fill="none" stroke="midnightblue" d="M309.77,-114C299.61,-114 289.45,-114 281.09,-114"/>
<polygon fill="midnightblue" stroke="midnightblue" points="309.86,-117.5 319.86,-114 309.86,-110.5 309.86,-117.5"/>
</g>
<!-- Node7 -->
<g id="node7" class="node">
<title>Node7</title>
<g id="a_node7"><a xlink:href="basicArithm_8hpp.html#a5967cef8aeb4f6ea90014159becd286d" target="_top" xlink:title="Raises a string representation of a number to a power.">
<polygon fill="none" stroke="black" points="237,-47.5 237,-66.5 284,-66.5 284,-47.5 237,-47.5"/>
<text text-anchor="middle" x="260.5" y="-54.5" font-family="Helvetica,sans-Serif" font-size="10.00">power</text>
</a>
</g>
</g>
<!-- Node6&#45;&gt;Node7 -->
<g id="edge6" class="edge">
<title>Node6&#45;&gt;Node7</title>
<path fill="none" stroke="midnightblue" d="M310.9,-57C301.54,-57 292.12,-57 284.06,-57"/>
<polygon fill="midnightblue" stroke="midnightblue" points="310.97,-60.5 320.97,-57 310.97,-53.5 310.97,-60.5"/>
</g>
<!-- Node8 -->
<g id="node8" class="node">
<title>Node8</title>
<g id="a_node8"><a xlink:href="basicArithm_8hpp.html#aedf78136562346db852758c848f8e83d" target="_top" xlink:title="Converts a string representation of a number from one base to another.">
<polygon fill="none" stroke="black" points="92,-0.5 92,-19.5 186,-19.5 186,-0.5 92,-0.5"/>
<text text-anchor="middle" x="139" y="-7.5" font-family="Helvetica,sans-Serif" font-size="10.00">decimalConvert</text>
</a>
</g>
</g>
<!-- Node7&#45;&gt;Node8 -->
<g id="edge7" class="edge">
<title>Node7&#45;&gt;Node8</title>
<path fill="none" stroke="midnightblue" d="M227.2,-44.3C207.4,-36.51 182.45,-26.7 164.32,-19.56"/>
<polygon fill="midnightblue" stroke="midnightblue" points="226.15,-47.65 236.74,-48.05 228.72,-41.13 226.15,-47.65"/>
</g>
<!-- Node10 -->
<g id="node10" class="node">
<title>Node10</title>
<g id="a_node10"><a xlink:href="division_8cpp.html#a222752517a35fde0e4de4bb32cbaa9be" target="_top" xlink:title="Determines the scale of the quotient of division.">
<polygon fill="none" stroke="black" points="77,-147.5 77,-166.5 201,-166.5 201,-147.5 77,-147.5"/>
<text text-anchor="middle" x="139" y="-154.5" font-family="Helvetica,sans-Serif" font-size="10.00">determineResultScale</text>
</a>
</g>
</g>
<!-- Node7&#45;&gt;Node10 -->
<g id="edge9" class="edge">
<title>Node7&#45;&gt;Node10</title>
<path fill="none" stroke="midnightblue" d="M240.29,-73.07C215.24,-94.04 172.17,-130.08 151.6,-147.29"/>
<polygon fill="midnightblue" stroke="midnightblue" points="242.62,-75.69 248.04,-66.59 238.13,-70.32 242.62,-75.69"/>
</g>
<!-- Node11 -->
<g id="node11" class="node">
<title>Node11</title>
<g id="a_node11"><a xlink:href="power_8cpp.html#a065a3ee9a7ec43a06ab2fddbc3019a17" target="_top" xlink:title=" ">
<polygon fill="none" stroke="black" points="118.5,-47.5 118.5,-66.5 159.5,-66.5 159.5,-47.5 118.5,-47.5"/>
<text text-anchor="middle" x="139" y="-54.5" font-family="Helvetica,sans-Serif" font-size="10.00">main</text>
</a>
</g>
</g>
<!-- Node7&#45;&gt;Node11 -->
<g id="edge11" class="edge">
<title>Node7&#45;&gt;Node11</title>
<path fill="none" stroke="midnightblue" d="M226.71,-57C205.16,-57 177.69,-57 159.51,-57"/>
<polygon fill="midnightblue" stroke="midnightblue" points="226.74,-60.5 236.74,-57 226.74,-53.5 226.74,-60.5"/>
</g>
<!-- Node9 -->
<g id="node9" class="node">
<title>Node9</title>
<g id="a_node9"><a xlink:href="decimalConvert_8cpp.html#ac2c7bcd6d73ca32ee42312d0fa0b1aa9" target="_top" xlink:title=" ">
<polygon fill="none" stroke="black" points="0,-0.5 0,-19.5 41,-19.5 41,-0.5 0,-0.5"/>
<text text-anchor="middle" x="20.5" y="-7.5" font-family="Helvetica,sans-Serif" font-size="10.00">main</text>
</a>
</g>
</g>
<!-- Node8&#45;&gt;Node9 -->
<g id="edge8" class="edge">
<title>Node8&#45;&gt;Node9</title>
<path fill="none" stroke="midnightblue" d="M81.89,-10C67.24,-10 52.42,-10 41.12,-10"/>
<polygon fill="midnightblue" stroke="midnightblue" points="81.96,-13.5 91.96,-10 81.96,-6.5 81.96,-13.5"/>
</g>
<!-- Node10&#45;&gt;Node2 -->
<g id="edge10" class="edge">
<title>Node10&#45;&gt;Node2</title>
<path fill="none" stroke="midnightblue" d="M179.11,-169.85C246.08,-191.86 380.66,-236.08 433.99,-253.6"/>
<polygon fill="midnightblue" stroke="midnightblue" points="179.94,-166.44 169.35,-166.64 177.75,-173.09 179.94,-166.44"/>
</g>
<!-- Node12&#45;&gt;Node2 -->
<g id="edge13" class="edge">
<title>Node12&#45;&gt;Node2</title>
<path fill="none" stroke="midnightblue" d="M653.89,-429.59C612.71,-431.93 555.9,-428.45 517,-399 474.06,-366.48 462.31,-296.32 459.39,-270.66"/>
<polygon fill="midnightblue" stroke="midnightblue" points="654.27,-433.07 664,-428.88 653.78,-426.09 654.27,-433.07"/>
</g>
<!-- Node14 -->
<g id="node14" class="node">
<title>Node14</title>
<g id="a_node14"><a xlink:href="basicArithm_8hpp.html#ac99d69ea51545fe30da4a36290f3fedc" target="_top" xlink:title="Multiplies two string representations of numbers.">
<polygon fill="none" stroke="black" points="678.5,-185.5 678.5,-204.5 735.5,-204.5 735.5,-185.5 678.5,-185.5"/>
<text text-anchor="middle" x="707" y="-192.5" font-family="Helvetica,sans-Serif" font-size="10.00">multiply</text>
</a>
</g>
</g>
<!-- Node13&#45;&gt;Node14 -->
<g id="edge15" class="edge">
<title>Node13&#45;&gt;Node14</title>
<path fill="none" stroke="midnightblue" d="M804.23,-255.94C780.1,-240.66 743.48,-217.47 723.07,-204.55"/>
<polygon fill="midnightblue" stroke="midnightblue" points="802.48,-258.98 812.8,-261.37 806.23,-253.07 802.48,-258.98"/>
</g>
<!-- Node14&#45;&gt;Node3 -->
<g id="edge16" class="edge">
<title>Node14&#45;&gt;Node3</title>
<path fill="none" stroke="midnightblue" d="M697.14,-176.29C685.12,-153.39 661.27,-115.73 628,-100 547.55,-61.96 437.96,-88.48 387.5,-104.39"/>
<polygon fill="midnightblue" stroke="midnightblue" points="694.07,-177.99 701.69,-185.36 700.33,-174.85 694.07,-177.99"/>
</g>
<!-- Node14&#45;&gt;Node6 -->
<g id="edge26" class="edge">
<title>Node14&#45;&gt;Node6</title>
<path fill="none" stroke="midnightblue" d="M699.4,-175.53C689,-148.19 665.96,-99.27 628,-77 555.36,-34.38 451.92,-41.92 397.23,-50.07"/>
<polygon fill="midnightblue" stroke="midnightblue" points="696.19,-176.95 702.88,-185.16 702.78,-174.57 696.19,-176.95"/>
</g>
<!-- Node14&#45;&gt;Node8 -->
<g id="edge17" class="edge">
<title>Node14&#45;&gt;Node8</title>
<path fill="none" stroke="midnightblue" d="M701.78,-175.48C693.59,-142.54 672.33,-76.2 628,-42 566.95,5.1 535.61,-5 458.5,-5 458.5,-5 458.5,-5 358,-5 298.75,-5 230.47,-6.87 186.35,-8.32"/>
<polygon fill="midnightblue" stroke="midnightblue" points="698.38,-176.33 704.07,-185.27 705.2,-174.74 698.38,-176.33"/>
</g>
<!-- Node14&#45;&gt;Node10 -->
<g id="edge18" class="edge">
<title>Node14&#45;&gt;Node10</title>
<path fill="none" stroke="midnightblue" d="M668.54,-184.85C655.75,-181.66 641.32,-178.36 628,-176 553.36,-162.78 534.31,-157 458.5,-157 458.5,-157 458.5,-157 358,-157 305.01,-157 244.78,-157 201.08,-157"/>
<polygon fill="midnightblue" stroke="midnightblue" points="667.83,-188.28 678.38,-187.36 669.56,-181.5 667.83,-188.28"/>
</g>
<!-- Node15 -->
<g id="node15" class="node">
<title>Node15</title>
<g id="a_node15"><a xlink:href="multiply_8cpp.html#a065a3ee9a7ec43a06ab2fddbc3019a17" target="_top" xlink:title=" ">
<polygon fill="none" stroke="black" points="552,-337.5 552,-356.5 593,-356.5 593,-337.5 552,-337.5"/>
<text text-anchor="middle" x="572.5" y="-344.5" font-family="Helvetica,sans-Serif" font-size="10.00">main</text>
</a>
</g>
</g>
<!-- Node14&#45;&gt;Node15 -->
<g id="edge19" class="edge">
<title>Node14&#45;&gt;Node15</title>
<path fill="none" stroke="midnightblue" d="M699.61,-214.27C689.13,-243.03 665.59,-297.11 628,-328 618.01,-336.21 604.25,-340.97 593.06,-343.67"/>
<polygon fill="midnightblue" stroke="midnightblue" points="703,-215.18 702.99,-204.58 696.39,-212.87 703,-215.18"/>
</g>
<!-- Node16 -->
<g id="node16" class="node">
<title>Node16</title>
<g id="a_node16"><a xlink:href="classFraction.html#a76d9c8cbd0d7442c1c78cab88eb29cb2" target="_top" xlink:title="Multiplies two fractions together. This function does it by doing a simple fraction multiplication an...">
<polygon fill="none" stroke="black" points="518.5,-299.5 518.5,-318.5 626.5,-318.5 626.5,-299.5 518.5,-299.5"/>
<text text-anchor="middle" x="572.5" y="-306.5" font-family="Helvetica,sans-Serif" font-size="10.00">Fraction::operator*</text>
</a>
</g>
</g>
<!-- Node14&#45;&gt;Node16 -->
<g id="edge20" class="edge">
<title>Node14&#45;&gt;Node16</title>
<path fill="none" stroke="midnightblue" d="M695.37,-213.27C682.12,-234.53 657.59,-269.35 628,-290 622.58,-293.79 616.33,-296.88 610.04,-299.39"/>
<polygon fill="midnightblue" stroke="midnightblue" points="698.46,-214.92 700.64,-204.55 692.47,-211.3 698.46,-214.92"/>
</g>
<!-- Node17 -->
<g id="node17" class="node">
<title>Node17</title>
<g id="a_node17"><a xlink:href="classFraction.html#abf6c69e3adc859e25d9040583f3ca1d5" target="_top" xlink:title="Adds two fractions together. This function does it by doing a simple fraction addition and returns th...">
<polygon fill="none" stroke="black" points="517,-223.5 517,-242.5 628,-242.5 628,-223.5 517,-223.5"/>
<text text-anchor="middle" x="572.5" y="-230.5" font-family="Helvetica,sans-Serif" font-size="10.00">Fraction::operator+</text>
</a>
</g>
</g>
<!-- Node14&#45;&gt;Node17 -->
<g id="edge21" class="edge">
<title>Node14&#45;&gt;Node17</title>
<path fill="none" stroke="midnightblue" d="M668.5,-205.75C649.1,-211.32 625.63,-218.05 606.87,-223.43"/>
<polygon fill="midnightblue" stroke="midnightblue" points="669.58,-209.09 678.22,-202.97 667.65,-202.36 669.58,-209.09"/>
</g>
<!-- Node18 -->
<g id="node18" class="node">
<title>Node18</title>
<g id="a_node18"><a xlink:href="classFraction.html#a4f19125df2684e17c9a9f439eb38261d" target="_top" xlink:title="Subtracts a fraction from another fraction. This function does it by doing a simple fraction subtract...">
<polygon fill="none" stroke="black" points="519,-185.5 519,-204.5 626,-204.5 626,-185.5 519,-185.5"/>
<text text-anchor="middle" x="572.5" y="-192.5" font-family="Helvetica,sans-Serif" font-size="10.00">Fraction::operator&#45;</text>
</a>
</g>
</g>
<!-- Node14&#45;&gt;Node18 -->
<g id="edge22" class="edge">
<title>Node14&#45;&gt;Node18</title>
<path fill="none" stroke="midnightblue" d="M668.17,-195C655.09,-195 640.18,-195 626.13,-195"/>
<polygon fill="midnightblue" stroke="midnightblue" points="668.22,-198.5 678.22,-195 668.22,-191.5 668.22,-198.5"/>
</g>
<!-- Node19 -->
<g id="node19" class="node">
<title>Node19</title>
<g id="a_node19"><a xlink:href="classFraction.html#a6ed047b2c1c281d348f4358da6d62f2b" target="_top" xlink:title="Divides a fraction by abother fraction. This function does it by doing a simple fraction division (mu...">
<polygon fill="none" stroke="black" points="519.5,-109.5 519.5,-128.5 625.5,-128.5 625.5,-109.5 519.5,-109.5"/>
<text text-anchor="middle" x="572.5" y="-116.5" font-family="Helvetica,sans-Serif" font-size="10.00">Fraction::operator/</text>
</a>
</g>
</g>
<!-- Node14&#45;&gt;Node19 -->
<g id="edge23" class="edge">
<title>Node14&#45;&gt;Node19</title>
<path fill="none" stroke="midnightblue" d="M684.92,-179.49C669.57,-168.57 648.04,-153.99 628,-143 618.3,-137.68 607.19,-132.62 597.54,-128.52"/>
<polygon fill="midnightblue" stroke="midnightblue" points="683.03,-182.44 693.19,-185.45 687.12,-176.76 683.03,-182.44"/>
</g>
<!-- Node20 -->
<g id="node20" class="node">
<title>Node20</title>
<g id="a_node20"><a xlink:href="divisionReport_8cpp.html#aaebd1f284f6703b7629aa18d21f7ccf2" target="_top" xlink:title=" ">
<polygon fill="none" stroke="black" points="519,-261.5 519,-280.5 626,-280.5 626,-261.5 519,-261.5"/>
<text text-anchor="middle" x="572.5" y="-268.5" font-family="Helvetica,sans-Serif" font-size="10.00">reportDivisionStep</text>
</a>
</g>
</g>
<!-- Node14&#45;&gt;Node20 -->
<g id="edge24" class="edge">
<title>Node14&#45;&gt;Node20</title>
<path fill="none" stroke="midnightblue" d="M687.01,-211.37C671.84,-223.81 649.6,-240.66 628,-252 621.08,-255.63 613.32,-258.81 605.87,-261.48"/>
<polygon fill="midnightblue" stroke="midnightblue" points="689.65,-213.72 695.07,-204.62 685.16,-208.35 689.65,-213.72"/>
</g>
<!-- Node20&#45;&gt;Node2 -->
<g id="edge25" class="edge">
<title>Node20&#45;&gt;Node2</title>
<path fill="none" stroke="midnightblue" d="M508.71,-265.44C498.9,-264.58 489.35,-263.73 481.26,-263.01"/>
<polygon fill="midnightblue" stroke="midnightblue" points="508.7,-268.96 518.97,-266.35 509.32,-261.98 508.7,-268.96"/>
</g>
</g>
</svg>
        <g id="navigator" transform="translate(0 0)" fill="#404254">
                <rect fill="#f2f5e9" fill-opacity="0.5" stroke="#606060" stroke-width=".5" x="0" y="0" width="60" height="60"/>
                <use id="zoomplus" xlink:href="#zoomPlus" x="17" y="9" onmousedown="handleZoom(evt,'in')"/>
                <use id="zoomminus" xlink:href="#zoomMin" x="42" y="9" onmousedown="handleZoom(evt,'out')"/>
                <use id="reset" xlink:href="#resetDef" x="30" y="36" onmousedown="handleReset()"/>
                <g id="arrowUp" xlink:href="#dirArrow" transform="translate(30 24)" onmousedown="handlePan(0,-1)">
                  <use xlink:href="#rim" fill="#404040">
                        <set attributeName="fill" to="#808080" begin="arrowUp.mouseover" end="arrowUp.mouseout"/>
                  </use>
                  <path fill="none" stroke="white" stroke-width="1.5" d="M0,-3.0v7 M-2.5,-0.5L0,-3.0L2.5,-0.5"/>
                </g>
                <g id="arrowRight" xlink:href="#dirArrow" transform="rotate(90) translate(36 -43)" onmousedown="handlePan(1,0)">
                  <use xlink:href="#rim" fill="#404040">
                        <set attributeName="fill" to="#808080" begin="arrowRight.mouseover" end="arrowRight.mouseout"/>
                  </use>
                  <path fill="none" stroke="white" stroke-width="1.5" d="M0,-3.0v7 M-2.5,-0.5L0,-3.0L2.5,-0.5"/>
                </g>
                <g id="arrowDown" xlink:href="#dirArrow" transform="rotate(180) translate(-30 -48)" onmousedown="handlePan(0,1)">
                  <use xlink:href="#rim" fill="#404040">
                        <set attributeName="fill" to="#808080" begin="arrowDown.mouseover" end="arrowDown.mouseout"/>
                  </use>
                  <path fill="none" stroke="white" stroke-width="1.5" d="M0,-3.0v7 M-2.5,-0.5L0,-3.0L2.5,-0.5"/>
                </g>
                <g id="arrowLeft" xlink:href="#dirArrow" transform="rotate(270) translate(-36 17)" onmousedown="handlePan(-1,0)">
                  <use xlink:href="#rim" fill="#404040">
                        <set attributeName="fill" to="#808080" begin="arrowLeft.mouseover" end="arrowLeft.mouseout"/>
                  </use>
                  <path fill="none" stroke="white" stroke-width="1.5" d="M0,-3.0v7 M-2.5,-0.5L0,-3.0L2.5,-0.5"/>
                </g>
        </g>
        <svg viewBox="0 0 15 15" width="100%" height="30px" preserveAspectRatio="xMaxYMin meet">
         <g id="arrow_out" transform="scale(0.3 0.3)">
          <a xlink:href="util_8hpp_a93b9ba3fe803c8e3fa1b128f4e83924f_icgraph_org.svg" target="_base">
           <rect id="button" ry="5" rx="5" y="6" x="6" height="38" width="38"
                fill="#f2f5e9" fill-opacity="0.5" stroke="#606060" stroke-width="1.0"/>
           <path id="arrow"
             d="M 11.500037,31.436501 C 11.940474,20.09759 22.043105,11.32322 32.158766,21.979434 L 37.068811,17.246167 C 37.068811,17.246167 37.088388,32 37.088388,32 L 22.160133,31.978069 C 22.160133,31.978069 26.997745,27.140456 26.997745,27.140456 C 18.528582,18.264221 13.291696,25.230495 11.500037,31.436501 z"
             style="fill:#404040;"/>
          </a>
         </g>
        </svg>
</svg>
