<?xml version="1.0" encoding="UTF-8" standalone="no"?>
<!DOCTYPE svg PUBLIC "-//W3C//DTD SVG 1.1//EN"
 "http://www.w3.org/Graphics/SVG/1.1/DTD/svg11.dtd">
<!-- Generated by graphviz version 2.43.0 (0)
 -->
<!-- Title: makeWider Pages: 1 -->
<svg width="757pt" height="237pt"
 viewBox="0.00 0.00 757.00 237.29" xmlns="http://www.w3.org/2000/svg" xmlns:xlink="http://www.w3.org/1999/xlink">
<g id="graph0" class="graph" transform="scale(1 1) rotate(0) translate(4 233.29)">
<title>makeWider</title>
<!-- Node1 -->
<g id="node1" class="node">
<title>Node1</title>
<g id="a_node1"><a xlink:title="Makes the given string wider by adding 2 spaces between each character.">
<polygon fill="#bfbfbf" stroke="black" points="677,-190.5 677,-209.5 749,-209.5 749,-190.5 677,-190.5"/>
<text text-anchor="middle" x="713" y="-197.5" font-family="Helvetica,sans-Serif" font-size="10.00">makeWider</text>
</a>
</g>
</g>
<!-- Node2 -->
<g id="node2" class="node">
<title>Node2</title>
<g id="a_node2"><a xlink:href="basicArithm_8hpp.html#acb4215189a8d1cfd37f4f6fe13890a8f" target="_top" xlink:title="Divides a string representation of a number by another string representation of a number.">
<polygon fill="none" stroke="black" points="207,-171.5 207,-190.5 254,-190.5 254,-171.5 207,-171.5"/>
<text text-anchor="middle" x="230.5" y="-178.5" font-family="Helvetica,sans-Serif" font-size="10.00">divide</text>
</a>
</g>
</g>
<!-- Node1&#45;&gt;Node2 -->
<g id="edge1" class="edge">
<title>Node1&#45;&gt;Node2</title>
<path fill="none" stroke="midnightblue" d="M666.93,-209.97C658.35,-211.56 649.43,-213 641,-214 486.01,-232.35 441.77,-239.43 290,-203 277.44,-199.99 263.92,-195.02 253.04,-190.57"/>
<polygon fill="midnightblue" stroke="midnightblue" points="667.63,-213.4 676.78,-208.06 666.29,-206.53 667.63,-213.4"/>
</g>
<!-- Node4 -->
<g id="node4" class="node">
<title>Node4</title>
<g id="a_node4"><a xlink:href="divisionReport_8cpp.html#a9afa361808ea7e5b19048db0cd8b2d23" target="_top" xlink:title=" ">
<polygon fill="none" stroke="black" points="433,-190.5 433,-209.5 519,-209.5 519,-190.5 433,-190.5"/>
<text text-anchor="middle" x="476" y="-197.5" font-family="Helvetica,sans-Serif" font-size="10.00">reportDivision</text>
</a>
</g>
</g>
<!-- Node1&#45;&gt;Node4 -->
<g id="edge3" class="edge">
<title>Node1&#45;&gt;Node4</title>
<path fill="none" stroke="midnightblue" d="M666.72,-200C624.1,-200 560.77,-200 519.19,-200"/>
<polygon fill="midnightblue" stroke="midnightblue" points="666.82,-203.5 676.82,-200 666.82,-196.5 666.82,-203.5"/>
</g>
<!-- Node5 -->
<g id="node5" class="node">
<title>Node5</title>
<g id="a_node5"><a xlink:href="multiplyReport_8cpp.html#a3e493cd7dde79f0eaa41c2eddd4cb895" target="_top" xlink:title=" ">
<polygon fill="none" stroke="black" points="555,-114.5 555,-133.5 641,-133.5 641,-114.5 555,-114.5"/>
<text text-anchor="middle" x="598" y="-121.5" font-family="Helvetica,sans-Serif" font-size="10.00">reportMultiply</text>
</a>
</g>
</g>
<!-- Node1&#45;&gt;Node5 -->
<g id="edge5" class="edge">
<title>Node1&#45;&gt;Node5</title>
<path fill="none" stroke="midnightblue" d="M689.31,-184.74C666.59,-169.46 632.32,-146.41 613.2,-133.55"/>
<polygon fill="midnightblue" stroke="midnightblue" points="687.44,-187.7 697.69,-190.37 691.34,-181.89 687.44,-187.7"/>
</g>
<!-- Node3 -->
<g id="node3" class="node">
<title>Node3</title>
<g id="a_node3"><a xlink:href="division_8cpp.html#a065a3ee9a7ec43a06ab2fddbc3019a17" target="_top" xlink:title=" ">
<polygon fill="none" stroke="black" points="103.5,-171.5 103.5,-190.5 144.5,-190.5 144.5,-171.5 103.5,-171.5"/>
<text text-anchor="middle" x="124" y="-178.5" font-family="Helvetica,sans-Serif" font-size="10.00">main</text>
</a>
</g>
</g>
<!-- Node2&#45;&gt;Node3 -->
<g id="edge2" class="edge">
<title>Node2&#45;&gt;Node3</title>
<path fill="none" stroke="midnightblue" d="M196.72,-181C179.69,-181 159.44,-181 144.81,-181"/>
<polygon fill="midnightblue" stroke="midnightblue" points="196.83,-184.5 206.83,-181 196.83,-177.5 196.83,-184.5"/>
</g>
<!-- Node4&#45;&gt;Node2 -->
<g id="edge4" class="edge">
<title>Node4&#45;&gt;Node2</title>
<path fill="none" stroke="midnightblue" d="M422.76,-195.92C370.41,-191.84 292.28,-185.74 254.12,-182.76"/>
<polygon fill="midnightblue" stroke="midnightblue" points="422.62,-199.42 432.86,-196.71 423.17,-192.44 422.62,-199.42"/>
</g>
<!-- Node6 -->
<g id="node6" class="node">
<title>Node6</title>
<g id="a_node6"><a xlink:href="basicArithm_8hpp.html#ac99d69ea51545fe30da4a36290f3fedc" target="_top" xlink:title="Multiplies two string representations of numbers.">
<polygon fill="none" stroke="black" points="447.5,-95.5 447.5,-114.5 504.5,-114.5 504.5,-95.5 447.5,-95.5"/>
<text text-anchor="middle" x="476" y="-102.5" font-family="Helvetica,sans-Serif" font-size="10.00">multiply</text>
</a>
</g>
</g>
<!-- Node5&#45;&gt;Node6 -->
<g id="edge6" class="edge">
<title>Node5&#45;&gt;Node6</title>
<path fill="none" stroke="midnightblue" d="M544.78,-115.73C530.98,-113.55 516.61,-111.27 504.68,-109.38"/>
<polygon fill="midnightblue" stroke="midnightblue" points="544.27,-119.19 554.69,-117.3 545.36,-112.28 544.27,-119.19"/>
</g>
<!-- Node7 -->
<g id="node7" class="node">
<title>Node7</title>
<g id="a_node7"><a xlink:href="basicArithm_8hpp.html#aedf78136562346db852758c848f8e83d" target="_top" xlink:title="Converts a string representation of a number from one base to another.">
<polygon fill="none" stroke="black" points="77,-38.5 77,-57.5 171,-57.5 171,-38.5 77,-38.5"/>
<text text-anchor="middle" x="124" y="-45.5" font-family="Helvetica,sans-Serif" font-size="10.00">decimalConvert</text>
</a>
</g>
</g>
<!-- Node6&#45;&gt;Node7 -->
<g id="edge7" class="edge">
<title>Node6&#45;&gt;Node7</title>
<path fill="none" stroke="midnightblue" d="M450.81,-90.21C435.87,-81.85 415.98,-72.08 397,-67 319.72,-46.31 225.93,-44.66 171.12,-45.92"/>
<polygon fill="midnightblue" stroke="midnightblue" points="449.45,-93.46 459.86,-95.43 452.95,-87.4 449.45,-93.46"/>
</g>
<!-- Node9 -->
<g id="node9" class="node">
<title>Node9</title>
<g id="a_node9"><a xlink:href="division_8cpp.html#a8b6a82cb05abd6a1664e14df888f3cb7" target="_top" xlink:title=" ">
<polygon fill="none" stroke="black" points="300.5,-114.5 300.5,-133.5 386.5,-133.5 386.5,-114.5 300.5,-114.5"/>
<text text-anchor="middle" x="343.5" y="-121.5" font-family="Helvetica,sans-Serif" font-size="10.00">getRemainder</text>
</a>
</g>
</g>
<!-- Node6&#45;&gt;Node9 -->
<g id="edge9" class="edge">
<title>Node6&#45;&gt;Node9</title>
<path fill="none" stroke="midnightblue" d="M437.32,-110.49C421.43,-112.8 402.86,-115.5 386.53,-117.88"/>
<polygon fill="midnightblue" stroke="midnightblue" points="437.93,-113.93 447.32,-109.03 436.92,-107.01 437.93,-113.93"/>
</g>
<!-- Node10 -->
<g id="node10" class="node">
<title>Node10</title>
<g id="a_node10"><a xlink:href="multiply_8cpp.html#a065a3ee9a7ec43a06ab2fddbc3019a17" target="_top" xlink:title=" ">
<polygon fill="none" stroke="black" points="323,-0.5 323,-19.5 364,-19.5 364,-0.5 323,-0.5"/>
<text text-anchor="middle" x="343.5" y="-7.5" font-family="Helvetica,sans-Serif" font-size="10.00">main</text>
</a>
</g>
</g>
<!-- Node6&#45;&gt;Node10 -->
<g id="edge11" class="edge">
<title>Node6&#45;&gt;Node10</title>
<path fill="none" stroke="midnightblue" d="M459.21,-87.86C444.28,-72.36 420.68,-49.64 397,-34 386.8,-27.26 374.4,-21.5 364.21,-17.31"/>
<polygon fill="midnightblue" stroke="midnightblue" points="456.77,-90.38 466.19,-95.24 461.86,-85.57 456.77,-90.38"/>
</g>
<!-- Node11 -->
<g id="node11" class="node">
<title>Node11</title>
<g id="a_node11"><a xlink:href="divisionReport_8cpp.html#aaebd1f284f6703b7629aa18d21f7ccf2" target="_top" xlink:title=" ">
<polygon fill="none" stroke="black" points="290,-152.5 290,-171.5 397,-171.5 397,-152.5 290,-152.5"/>
<text text-anchor="middle" x="343.5" y="-159.5" font-family="Helvetica,sans-Serif" font-size="10.00">reportDivisionStep</text>
</a>
</g>
</g>
<!-- Node6&#45;&gt;Node11 -->
<g id="edge12" class="edge">
<title>Node6&#45;&gt;Node11</title>
<path fill="none" stroke="midnightblue" d="M447.55,-119.26C432.75,-126.72 414.07,-135.78 397,-143 389.14,-146.32 380.49,-149.61 372.5,-152.49"/>
<polygon fill="midnightblue" stroke="midnightblue" points="449.33,-122.28 456.66,-114.62 446.16,-116.04 449.33,-122.28"/>
</g>
<!-- Node12 -->
<g id="node12" class="node">
<title>Node12</title>
<g id="a_node12"><a xlink:href="powerReport_8cpp.html#ab0388ca2de3ef5b0250faf953f792db8" target="_top" xlink:title=" ">
<polygon fill="none" stroke="black" points="305.5,-76.5 305.5,-95.5 381.5,-95.5 381.5,-76.5 305.5,-76.5"/>
<text text-anchor="middle" x="343.5" y="-83.5" font-family="Helvetica,sans-Serif" font-size="10.00">reportPower</text>
</a>
</g>
</g>
<!-- Node6&#45;&gt;Node12 -->
<g id="edge14" class="edge">
<title>Node6&#45;&gt;Node12</title>
<path fill="none" stroke="midnightblue" d="M437.42,-99.53C419.86,-96.97 399.03,-93.94 381.55,-91.39"/>
<polygon fill="midnightblue" stroke="midnightblue" points="436.92,-102.99 447.32,-100.97 437.93,-96.07 436.92,-102.99"/>
</g>
<!-- Node8 -->
<g id="node8" class="node">
<title>Node8</title>
<g id="a_node8"><a xlink:href="decimalConvert_8cpp.html#ac2c7bcd6d73ca32ee42312d0fa0b1aa9" target="_top" xlink:title=" ">
<polygon fill="none" stroke="black" points="0,-38.5 0,-57.5 41,-57.5 41,-38.5 0,-38.5"/>
<text text-anchor="middle" x="20.5" y="-45.5" font-family="Helvetica,sans-Serif" font-size="10.00">main</text>
</a>
</g>
</g>
<!-- Node7&#45;&gt;Node8 -->
<g id="edge8" class="edge">
<title>Node7&#45;&gt;Node8</title>
<path fill="none" stroke="midnightblue" d="M66.69,-48C57.49,-48 48.54,-48 41.06,-48"/>
<polygon fill="midnightblue" stroke="midnightblue" points="66.71,-51.5 76.71,-48 66.71,-44.5 66.71,-51.5"/>
</g>
<!-- Node9&#45;&gt;Node2 -->
<g id="edge10" class="edge">
<title>Node9&#45;&gt;Node2</title>
<path fill="none" stroke="midnightblue" d="M302.77,-137.28C298.4,-139.06 294.06,-140.98 290,-143 273.52,-151.2 255.99,-163.06 244.46,-171.34"/>
<polygon fill="midnightblue" stroke="midnightblue" points="304.23,-140.46 312.3,-133.59 301.71,-133.93 304.23,-140.46"/>
</g>
<!-- Node11&#45;&gt;Node2 -->
<g id="edge13" class="edge">
<title>Node11&#45;&gt;Node2</title>
<path fill="none" stroke="midnightblue" d="M279.93,-172.71C270.77,-174.28 261.87,-175.8 254.25,-177.11"/>
<polygon fill="midnightblue" stroke="midnightblue" points="280.66,-176.14 289.93,-171 279.48,-169.24 280.66,-176.14"/>
</g>
<!-- Node13 -->
<g id="node13" class="node">
<title>Node13</title>
<g id="a_node13"><a xlink:href="basicArithm_8hpp.html#a5967cef8aeb4f6ea90014159becd286d" target="_top" xlink:title="Raises a string representation of a number to a power.">
<polygon fill="none" stroke="black" points="207,-76.5 207,-95.5 254,-95.5 254,-76.5 207,-76.5"/>
<text text-anchor="middle" x="230.5" y="-83.5" font-family="Helvetica,sans-Serif" font-size="10.00">power</text>
</a>
</g>
</g>
<!-- Node12&#45;&gt;Node13 -->
<g id="edge15" class="edge">
<title>Node12&#45;&gt;Node13</title>
<path fill="none" stroke="midnightblue" d="M295.1,-86C280.95,-86 266.08,-86 254.27,-86"/>
<polygon fill="midnightblue" stroke="midnightblue" points="295.23,-89.5 305.23,-86 295.23,-82.5 295.23,-89.5"/>
</g>
<!-- Node13&#45;&gt;Node7 -->
<g id="edge16" class="edge">
<title>Node13&#45;&gt;Node7</title>
<path fill="none" stroke="midnightblue" d="M197.11,-74.22C182.39,-68.87 165.22,-62.62 151.32,-57.57"/>
<polygon fill="midnightblue" stroke="midnightblue" points="196.23,-77.63 206.83,-77.75 198.62,-71.05 196.23,-77.63"/>
</g>
<!-- Node14 -->
<g id="node14" class="node">
<title>Node14</title>
<g id="a_node14"><a xlink:href="power_8cpp.html#a065a3ee9a7ec43a06ab2fddbc3019a17" target="_top" xlink:title=" ">
<polygon fill="none" stroke="black" points="103.5,-76.5 103.5,-95.5 144.5,-95.5 144.5,-76.5 103.5,-76.5"/>
<text text-anchor="middle" x="124" y="-83.5" font-family="Helvetica,sans-Serif" font-size="10.00">main</text>
</a>
</g>
</g>
<!-- Node13&#45;&gt;Node14 -->
<g id="edge17" class="edge">
<title>Node13&#45;&gt;Node14</title>
<path fill="none" stroke="midnightblue" d="M196.72,-86C179.69,-86 159.44,-86 144.81,-86"/>
<polygon fill="midnightblue" stroke="midnightblue" points="196.83,-89.5 206.83,-86 196.83,-82.5 196.83,-89.5"/>
</g>
</g>
</svg>
