<?xml version="1.0" encoding="UTF-8" standalone="no"?>
<!DOCTYPE svg PUBLIC "-//W3C//DTD SVG 1.1//EN"
 "http://www.w3.org/Graphics/SVG/1.1/DTD/svg11.dtd">
<!-- Generated by graphviz version 2.43.0 (0)
 -->
<!-- Title: simplifyZeroPolarity Pages: 1 -->
<!--zoomable 793 -->
<svg id="main" version="1.1" xmlns="http://www.w3.org/2000/svg" xmlns:xlink="http://www.w3.org/1999/xlink" xml:space="preserve" onload="init(evt)">
<style type="text/css"><![CDATA[
.edge:hover path { stroke: red; }
.edge:hover polygon { stroke: red; fill: red; }
]]></style>
<script type="text/javascript"><![CDATA[
var edges = document.getElementsByTagName('g');
if (edges && edges.length) {
  for (var i=0;i<edges.length;i++) {
    if (edges[i].id.substr(0,4)=='edge') {
      edges[i].setAttribute('class','edge');
    }
  }
}
]]></script>
        <defs>
                <circle id="rim" cx="0" cy="0" r="7"/>
                <circle id="rim2" cx="0" cy="0" r="3.5"/>
                <g id="zoomPlus">
                        <use xlink:href="#rim" fill="#404040">
                                <set attributeName="fill" to="#808080" begin="zoomplus.mouseover" end="zoomplus.mouseout"/>
                        </use>
                        <path d="M-4,0h8M0,-4v8" fill="none" stroke="white" stroke-width="1.5" pointer-events="none"/>
                </g>
                <g id="zoomMin">
                        <use xlink:href="#rim" fill="#404040">
                                <set attributeName="fill" to="#808080" begin="zoomminus.mouseover" end="zoomminus.mouseout"/>
                        </use>
                        <path d="M-4,0h8" fill="none" stroke="white" stroke-width="1.5" pointer-events="none"/>
                </g>
                <g id="dirArrow">
                        <path fill="none" stroke="white" stroke-width="1.5" d="M0,-3.0v7 M-2.5,-0.5L0,-3.0L2.5,-0.5"/>
                </g>
               <g id="resetDef">
                       <use xlink:href="#rim2" fill="#404040">
                               <set attributeName="fill" to="#808080" begin="reset.mouseover" end="reset.mouseout"/>
                       </use>
               </g>
        </defs>

<script type="text/javascript">
var viewWidth = 1409;
var viewHeight = 793;
var sectionId = 'dynsection-14';
</script>
<script xlink:href="svgpan.js"/>
<svg id="graph" class="graph">
<g id="viewport">
<title>simplifyZeroPolarity</title>
<!-- Node1 -->
<g id="node1" class="node">
<title>Node1</title>
<g id="a_node1"><a xlink:title="Simplifies a string that represents a number with non&#45;standard polarity.">
<polygon fill="#bfbfbf" stroke="black" points="1285,-357.89 1285,-376.89 1401,-376.89 1401,-357.89 1285,-357.89"/>
<text text-anchor="middle" x="1343" y="-364.89" font-family="Helvetica,sans-Serif" font-size="10.00">simplifyZeroPolarity</text>
</a>
</g>
</g>
<!-- Node2 -->
<g id="node2" class="node">
<title>Node2</title>
<g id="a_node2"><a xlink:href="util_8hpp.html#a32344e51c6ae485367b4fbf6bb535742" target="_top" xlink:title="Simplifies a string with non&#45;standard polarity (e.g., –1, —1, etc.).">
<polygon fill="none" stroke="black" points="1156,-376.89 1156,-395.89 1249,-395.89 1249,-376.89 1156,-376.89"/>
<text text-anchor="middle" x="1202.5" y="-383.89" font-family="Helvetica,sans-Serif" font-size="10.00">simplifyPolarity</text>
</a>
</g>
</g>
<!-- Node1&#45;&gt;Node2 -->
<g id="edge1" class="edge">
<title>Node1&#45;&gt;Node2</title>
<path fill="none" stroke="midnightblue" d="M1274.72,-376.62C1266.04,-377.81 1257.31,-379.01 1249.09,-380.14"/>
<polygon fill="midnightblue" stroke="midnightblue" points="1275.44,-380.06 1284.87,-375.23 1274.48,-373.12 1275.44,-380.06"/>
</g>
<!-- Node3 -->
<g id="node3" class="node">
<title>Node3</title>
<g id="a_node3"><a xlink:href="util_8hpp.html#a7e7fdd236a1593ed0124a3a7dd05946d" target="_top" xlink:title=" ">
<polygon fill="none" stroke="black" points="894,-338.89 894,-357.89 971,-357.89 971,-338.89 894,-338.89"/>
<text text-anchor="middle" x="932.5" y="-345.89" font-family="Helvetica,sans-Serif" font-size="10.00">splitNumber</text>
</a>
</g>
</g>
<!-- Node1&#45;&gt;Node3 -->
<g id="edge54" class="edge">
<title>Node1&#45;&gt;Node3</title>
<path fill="none" stroke="midnightblue" d="M1274.77,-364.27C1188.07,-360.23 1040.26,-353.36 971.17,-350.15"/>
<polygon fill="midnightblue" stroke="midnightblue" points="1274.62,-367.76 1284.77,-364.73 1274.94,-360.77 1274.62,-367.76"/>
</g>
<!-- Node2&#45;&gt;Node3 -->
<g id="edge2" class="edge">
<title>Node2&#45;&gt;Node3</title>
<path fill="none" stroke="midnightblue" d="M1145.71,-380.49C1106.75,-376.13 1053.59,-369.7 1007,-362.39 995.32,-360.56 982.66,-358.26 971.19,-356.06"/>
<polygon fill="midnightblue" stroke="midnightblue" points="1145.47,-383.98 1155.8,-381.61 1146.24,-377.03 1145.47,-383.98"/>
</g>
<!-- Node25 -->
<g id="node25" class="node">
<title>Node25</title>
<g id="a_node25"><a xlink:href="util_8hpp.html#afbed3096b7064ba07c83c6c15212b793" target="_top" xlink:title="Standardizes a number string.">
<polygon fill="none" stroke="black" points="1007,-485.89 1007,-504.89 1120,-504.89 1120,-485.89 1007,-485.89"/>
<text text-anchor="middle" x="1063.5" y="-492.89" font-family="Helvetica,sans-Serif" font-size="10.00">standardizeNumber</text>
</a>
</g>
</g>
<!-- Node2&#45;&gt;Node25 -->
<g id="edge47" class="edge">
<title>Node2&#45;&gt;Node25</title>
<path fill="none" stroke="midnightblue" d="M1181.19,-402.55C1152.37,-425.48 1100.46,-466.78 1076.83,-485.59"/>
<polygon fill="midnightblue" stroke="midnightblue" points="1183.7,-405.03 1189.34,-396.07 1179.34,-399.55 1183.7,-405.03"/>
</g>
<!-- Node4 -->
<g id="node4" class="node">
<title>Node4</title>
<g id="a_node4"><a xlink:href="basicArithm_8hpp.html#acf222f0bfc4ca97fbdc6db7fe808a9ee" target="_top" xlink:title="Adds two string representations of numbers, and performs with the column method.">
<polygon fill="none" stroke="black" points="811,-380.89 811,-399.89 846,-399.89 846,-380.89 811,-380.89"/>
<text text-anchor="middle" x="828.5" y="-387.89" font-family="Helvetica,sans-Serif" font-size="10.00">add</text>
</a>
</g>
</g>
<!-- Node3&#45;&gt;Node4 -->
<g id="edge3" class="edge">
<title>Node3&#45;&gt;Node4</title>
<path fill="none" stroke="midnightblue" d="M899.01,-361.77C881.44,-369.01 860.48,-377.64 846.2,-383.52"/>
<polygon fill="midnightblue" stroke="midnightblue" points="900.44,-364.97 908.35,-357.92 897.78,-358.5 900.44,-364.97"/>
</g>
<!-- Node9 -->
<g id="node9" class="node">
<title>Node9</title>
<g id="a_node9"><a xlink:href="basicArithm_8hpp.html#acb4215189a8d1cfd37f4f6fe13890a8f" target="_top" xlink:title="Divides a string representation of a number by another string representation of a number.">
<polygon fill="none" stroke="black" points="431.5,-272.89 431.5,-291.89 478.5,-291.89 478.5,-272.89 431.5,-272.89"/>
<text text-anchor="middle" x="455" y="-279.89" font-family="Helvetica,sans-Serif" font-size="10.00">divide</text>
</a>
</g>
</g>
<!-- Node3&#45;&gt;Node9 -->
<g id="edge38" class="edge">
<title>Node3&#45;&gt;Node9</title>
<path fill="none" stroke="midnightblue" d="M894.85,-335.54C860.95,-323.97 809,-307.04 763,-295.39 722.19,-285.06 711.91,-281.41 670,-277.39 613.37,-271.96 598.86,-275.74 542,-277.39 520.47,-278.02 495.95,-279.52 478.62,-280.72"/>
<polygon fill="midnightblue" stroke="midnightblue" points="893.74,-338.86 904.34,-338.8 896.02,-332.24 893.74,-338.86"/>
</g>
<!-- Node16 -->
<g id="node16" class="node">
<title>Node16</title>
<g id="a_node16"><a xlink:href="basicArithm_8hpp.html#a08faec0b8e863df19e3f978758166482" target="_top" xlink:title="Subtracts one string representation of a number from another string representation of a number.">
<polygon fill="none" stroke="black" points="706.5,-329.89 706.5,-348.89 762.5,-348.89 762.5,-329.89 706.5,-329.89"/>
<text text-anchor="middle" x="734.5" y="-336.89" font-family="Helvetica,sans-Serif" font-size="10.00">subtract</text>
</a>
</g>
</g>
<!-- Node3&#45;&gt;Node16 -->
<g id="edge46" class="edge">
<title>Node3&#45;&gt;Node16</title>
<path fill="none" stroke="midnightblue" d="M883.4,-346.18C845.46,-344.44 793.91,-342.08 762.77,-340.65"/>
<polygon fill="midnightblue" stroke="midnightblue" points="883.56,-349.7 893.71,-346.66 883.88,-342.7 883.56,-349.7"/>
</g>
<!-- Node20 -->
<g id="node20" class="node">
<title>Node20</title>
<g id="a_node20"><a xlink:href="basicArithm_8hpp.html#aabb709fcb471467879352bf51bb0030a" target="_top" xlink:title="Compares two string representations of numbers.">
<polygon fill="none" stroke="black" points="799,-556.89 799,-575.89 858,-575.89 858,-556.89 799,-556.89"/>
<text text-anchor="middle" x="828.5" y="-563.89" font-family="Helvetica,sans-Serif" font-size="10.00">compare</text>
</a>
</g>
</g>
<!-- Node3&#45;&gt;Node20 -->
<g id="edge28" class="edge">
<title>Node3&#45;&gt;Node20</title>
<path fill="none" stroke="midnightblue" d="M922.69,-367.22C901.74,-411.99 849.55,-523.55 833.96,-556.86"/>
<polygon fill="midnightblue" stroke="midnightblue" points="925.92,-368.58 926.99,-358.04 919.58,-365.62 925.92,-368.58"/>
</g>
<!-- Node23 -->
<g id="node23" class="node">
<title>Node23</title>
<g id="a_node23"><a xlink:href="basicArithm_8hpp.html#ac99d69ea51545fe30da4a36290f3fedc" target="_top" xlink:title="Multiplies two string representations of numbers.">
<polygon fill="none" stroke="black" points="706,-101.89 706,-120.89 763,-120.89 763,-101.89 706,-101.89"/>
<text text-anchor="middle" x="734.5" y="-108.89" font-family="Helvetica,sans-Serif" font-size="10.00">multiply</text>
</a>
</g>
</g>
<!-- Node3&#45;&gt;Node23 -->
<g id="edge39" class="edge">
<title>Node3&#45;&gt;Node23</title>
<path fill="none" stroke="midnightblue" d="M924.08,-329.25C912.68,-301.39 888.9,-248.89 858,-211.39 825.52,-171.99 775.57,-137.05 750.68,-120.9"/>
<polygon fill="midnightblue" stroke="midnightblue" points="920.87,-330.66 927.83,-338.65 927.38,-328.06 920.87,-330.66"/>
</g>
<!-- Node5 -->
<g id="node5" class="node">
<title>Node5</title>
<g id="a_node5"><a xlink:href="baseConvert_8cpp.html#a6443634f54179f61c6e58098cbb32210" target="_top" xlink:title=" ">
<polygon fill="none" stroke="black" points="290,-481.89 290,-500.89 368,-500.89 368,-481.89 290,-481.89"/>
<text text-anchor="middle" x="329" y="-488.89" font-family="Helvetica,sans-Serif" font-size="10.00">baseConvert</text>
</a>
</g>
</g>
<!-- Node4&#45;&gt;Node5 -->
<g id="edge4" class="edge">
<title>Node4&#45;&gt;Node5</title>
<path fill="none" stroke="midnightblue" d="M801.43,-400.9C789.78,-405.39 775.81,-410.48 763,-414.39 650.63,-448.72 621.98,-457.57 506,-476.39 458.93,-484.03 404.11,-487.93 368.31,-489.8"/>
<polygon fill="midnightblue" stroke="midnightblue" points="802.95,-404.07 810.98,-397.16 800.39,-397.55 802.95,-404.07"/>
</g>
<!-- Node7 -->
<g id="node7" class="node">
<title>Node7</title>
<g id="a_node7"><a xlink:href="basicArithm_8hpp.html#aedf78136562346db852758c848f8e83d" target="_top" xlink:title="Converts a string representation of a number from one base to another.">
<polygon fill="none" stroke="black" points="77,-547.89 77,-566.89 171,-566.89 171,-547.89 77,-547.89"/>
<text text-anchor="middle" x="124" y="-554.89" font-family="Helvetica,sans-Serif" font-size="10.00">decimalConvert</text>
</a>
</g>
</g>
<!-- Node4&#45;&gt;Node7 -->
<g id="edge6" class="edge">
<title>Node4&#45;&gt;Node7</title>
<path fill="none" stroke="midnightblue" d="M819.48,-409.29C809.25,-431.38 789.66,-467.78 763,-490.39 649.59,-586.57 604.7,-623.39 456,-623.39 456,-623.39 456,-623.39 328,-623.39 255.92,-623.39 176.19,-585.3 142.04,-566.99"/>
<polygon fill="midnightblue" stroke="midnightblue" points="822.75,-410.54 823.62,-399.98 816.36,-407.69 822.75,-410.54"/>
</g>
<!-- Node4&#45;&gt;Node9 -->
<g id="edge8" class="edge">
<title>Node4&#45;&gt;Node9</title>
<path fill="none" stroke="midnightblue" d="M816.05,-371.92C804.74,-355.44 785.85,-332.14 763,-320.39 666.75,-270.93 531.82,-275.79 478.73,-280.1"/>
<polygon fill="midnightblue" stroke="midnightblue" points="813.39,-374.26 821.8,-380.71 819.25,-370.42 813.39,-374.26"/>
</g>
<!-- Node11 -->
<g id="node11" class="node">
<title>Node11</title>
<g id="a_node11"><a xlink:href="powerReport_8cpp.html#afff5f8aa771cf432836ef03f6f442dae" target="_top" xlink:title=" ">
<polygon fill="none" stroke="black" points="291,-253.89 291,-272.89 367,-272.89 367,-253.89 291,-253.89"/>
<text text-anchor="middle" x="329" y="-260.89" font-family="Helvetica,sans-Serif" font-size="10.00">reportPower</text>
</a>
</g>
</g>
<!-- Node4&#45;&gt;Node11 -->
<g id="edge18" class="edge">
<title>Node4&#45;&gt;Node11</title>
<path fill="none" stroke="midnightblue" d="M819.02,-371.55C799.6,-331.18 747.54,-237.52 670,-206.39 553.64,-159.68 400.02,-227.6 348.06,-253.81"/>
<polygon fill="midnightblue" stroke="midnightblue" points="815.93,-373.22 823.34,-380.8 822.28,-370.26 815.93,-373.22"/>
</g>
<!-- Node14 -->
<g id="node14" class="node">
<title>Node14</title>
<g id="a_node14"><a xlink:href="basicArithm_8hpp.html#a4e1bb2f02ee5d9df627a57d0899ac07b" target="_top" xlink:title="Executes a given predicate function a specified number of times.">
<polygon fill="none" stroke="black" points="715.5,-461.89 715.5,-480.89 753.5,-480.89 753.5,-461.89 715.5,-461.89"/>
<text text-anchor="middle" x="734.5" y="-468.89" font-family="Helvetica,sans-Serif" font-size="10.00">loop</text>
</a>
</g>
</g>
<!-- Node4&#45;&gt;Node14 -->
<g id="edge15" class="edge">
<title>Node4&#45;&gt;Node14</title>
<path fill="none" stroke="midnightblue" d="M808.85,-406.93C795.98,-418.33 778.47,-433.8 763,-447.39 757.57,-452.16 751.53,-457.44 746.49,-461.83"/>
<polygon fill="midnightblue" stroke="midnightblue" points="811.4,-409.35 816.56,-400.1 806.76,-404.11 811.4,-409.35"/>
</g>
<!-- Node15 -->
<g id="node15" class="node">
<title>Node15</title>
<g id="a_node15"><a xlink:href="add_8cpp.html#a065a3ee9a7ec43a06ab2fddbc3019a17" target="_top" xlink:title=" ">
<polygon fill="none" stroke="black" points="714,-385.89 714,-404.89 755,-404.89 755,-385.89 714,-385.89"/>
<text text-anchor="middle" x="734.5" y="-392.89" font-family="Helvetica,sans-Serif" font-size="10.00">main</text>
</a>
</g>
</g>
<!-- Node4&#45;&gt;Node15 -->
<g id="edge17" class="edge">
<title>Node4&#45;&gt;Node15</title>
<path fill="none" stroke="midnightblue" d="M800.25,-391.87C785.77,-392.66 768.29,-393.61 755.14,-394.33"/>
<polygon fill="midnightblue" stroke="midnightblue" points="800.83,-395.35 810.63,-391.31 800.45,-388.36 800.83,-395.35"/>
</g>
<!-- Node4&#45;&gt;Node16 -->
<g id="edge19" class="edge">
<title>Node4&#45;&gt;Node16</title>
<path fill="none" stroke="midnightblue" d="M809.69,-375.05C796.34,-366.25 777.84,-355.74 762.65,-348.23"/>
<polygon fill="midnightblue" stroke="midnightblue" points="807.79,-378 818,-380.82 811.78,-372.24 807.79,-378"/>
</g>
<!-- Node6 -->
<g id="node6" class="node">
<title>Node6</title>
<g id="a_node6"><a xlink:href="baseConvert_8cpp.html#ae66f6b31b5ad750f1fe042a706a4e3d4" target="_top" xlink:title=" ">
<polygon fill="none" stroke="black" points="210,-528.89 210,-547.89 251,-547.89 251,-528.89 210,-528.89"/>
<text text-anchor="middle" x="230.5" y="-535.89" font-family="Helvetica,sans-Serif" font-size="10.00">main</text>
</a>
</g>
</g>
<!-- Node5&#45;&gt;Node6 -->
<g id="edge5" class="edge">
<title>Node5&#45;&gt;Node6</title>
<path fill="none" stroke="midnightblue" d="M299.33,-505.36C283.87,-512.89 265.18,-521.99 251.33,-528.74"/>
<polygon fill="midnightblue" stroke="midnightblue" points="301.01,-508.43 308.47,-500.9 297.95,-502.14 301.01,-508.43"/>
</g>
<!-- Node8 -->
<g id="node8" class="node">
<title>Node8</title>
<g id="a_node8"><a xlink:href="decimalConvert_8cpp.html#ac2c7bcd6d73ca32ee42312d0fa0b1aa9" target="_top" xlink:title=" ">
<polygon fill="none" stroke="black" points="0,-547.89 0,-566.89 41,-566.89 41,-547.89 0,-547.89"/>
<text text-anchor="middle" x="20.5" y="-554.89" font-family="Helvetica,sans-Serif" font-size="10.00">main</text>
</a>
</g>
</g>
<!-- Node7&#45;&gt;Node8 -->
<g id="edge7" class="edge">
<title>Node7&#45;&gt;Node8</title>
<path fill="none" stroke="midnightblue" d="M66.69,-557.39C57.49,-557.39 48.54,-557.39 41.06,-557.39"/>
<polygon fill="midnightblue" stroke="midnightblue" points="66.71,-560.89 76.71,-557.39 66.71,-553.89 66.71,-560.89"/>
</g>
<!-- Node9&#45;&gt;Node5 -->
<g id="edge9" class="edge">
<title>Node9&#45;&gt;Node5</title>
<path fill="none" stroke="midnightblue" d="M443.12,-300.74C417.65,-343.66 354.9,-449.43 335.68,-481.81"/>
<polygon fill="midnightblue" stroke="midnightblue" points="446.26,-302.3 448.35,-291.92 440.24,-298.73 446.26,-302.3"/>
</g>
<!-- Node10 -->
<g id="node10" class="node">
<title>Node10</title>
<g id="a_node10"><a xlink:href="division_8cpp.html#a065a3ee9a7ec43a06ab2fddbc3019a17" target="_top" xlink:title=" ">
<polygon fill="none" stroke="black" points="308.5,-291.89 308.5,-310.89 349.5,-310.89 349.5,-291.89 308.5,-291.89"/>
<text text-anchor="middle" x="329" y="-298.89" font-family="Helvetica,sans-Serif" font-size="10.00">main</text>
</a>
</g>
</g>
<!-- Node9&#45;&gt;Node10 -->
<g id="edge10" class="edge">
<title>Node9&#45;&gt;Node10</title>
<path fill="none" stroke="midnightblue" d="M421.35,-287.4C398.59,-290.88 368.98,-295.42 349.74,-298.37"/>
<polygon fill="midnightblue" stroke="midnightblue" points="421.9,-290.85 431.26,-285.88 420.84,-283.93 421.9,-290.85"/>
</g>
<!-- Node9&#45;&gt;Node11 -->
<g id="edge11" class="edge">
<title>Node9&#45;&gt;Node11</title>
<path fill="none" stroke="midnightblue" d="M420.96,-277.33C404.4,-274.79 384.3,-271.71 367.2,-269.09"/>
<polygon fill="midnightblue" stroke="midnightblue" points="420.84,-280.85 431.26,-278.91 421.9,-273.93 420.84,-280.85"/>
</g>
<!-- Node12 -->
<g id="node12" class="node">
<title>Node12</title>
<g id="a_node12"><a xlink:href="basicArithm_8hpp.html#a5967cef8aeb4f6ea90014159becd286d" target="_top" xlink:title="Raises a string representation of a number to a power.">
<polygon fill="none" stroke="black" points="207,-490.89 207,-509.89 254,-509.89 254,-490.89 207,-490.89"/>
<text text-anchor="middle" x="230.5" y="-497.89" font-family="Helvetica,sans-Serif" font-size="10.00">power</text>
</a>
</g>
</g>
<!-- Node11&#45;&gt;Node12 -->
<g id="edge12" class="edge">
<title>Node11&#45;&gt;Node12</title>
<path fill="none" stroke="midnightblue" d="M293.14,-279.05C292.02,-280.1 290.96,-281.22 290,-282.39 236.47,-347.96 231.63,-458.08 231.42,-490.89"/>
<polygon fill="midnightblue" stroke="midnightblue" points="295.37,-281.76 301.36,-273.02 291.23,-276.12 295.37,-281.76"/>
</g>
<!-- Node12&#45;&gt;Node7 -->
<g id="edge13" class="edge">
<title>Node12&#45;&gt;Node7</title>
<path fill="none" stroke="midnightblue" d="M202.74,-514.99C183.79,-525.32 158.91,-538.89 142.47,-547.87"/>
<polygon fill="midnightblue" stroke="midnightblue" points="204.67,-517.92 211.77,-510.06 201.32,-511.78 204.67,-517.92"/>
</g>
<!-- Node13 -->
<g id="node13" class="node">
<title>Node13</title>
<g id="a_node13"><a xlink:href="power_8cpp.html#a065a3ee9a7ec43a06ab2fddbc3019a17" target="_top" xlink:title=" ">
<polygon fill="none" stroke="black" points="103.5,-490.89 103.5,-509.89 144.5,-509.89 144.5,-490.89 103.5,-490.89"/>
<text text-anchor="middle" x="124" y="-497.89" font-family="Helvetica,sans-Serif" font-size="10.00">main</text>
</a>
</g>
</g>
<!-- Node12&#45;&gt;Node13 -->
<g id="edge14" class="edge">
<title>Node12&#45;&gt;Node13</title>
<path fill="none" stroke="midnightblue" d="M196.72,-500.39C179.69,-500.39 159.44,-500.39 144.81,-500.39"/>
<polygon fill="midnightblue" stroke="midnightblue" points="196.83,-503.89 206.83,-500.39 196.83,-496.89 196.83,-503.89"/>
</g>
<!-- Node14&#45;&gt;Node11 -->
<g id="edge16" class="edge">
<title>Node14&#45;&gt;Node11</title>
<path fill="none" stroke="midnightblue" d="M705.42,-462.44C667.38,-449.85 597.82,-425.22 542,-396.39 459.85,-353.98 448.15,-328.48 368,-282.39 362.37,-279.16 356.12,-275.9 350.35,-273.02"/>
<polygon fill="midnightblue" stroke="midnightblue" points="704.68,-465.88 715.27,-465.66 706.85,-459.22 704.68,-465.88"/>
</g>
<!-- Node16&#45;&gt;Node4 -->
<g id="edge20" class="edge">
<title>Node16&#45;&gt;Node4</title>
<path fill="none" stroke="midnightblue" d="M753.23,-354.68C769.79,-365.61 794.34,-379.19 810.63,-386.4"/>
<polygon fill="midnightblue" stroke="midnightblue" points="755.16,-351.76 744.95,-348.93 751.17,-357.51 755.16,-351.76"/>
</g>
<!-- Node16&#45;&gt;Node5 -->
<g id="edge21" class="edge">
<title>Node16&#45;&gt;Node5</title>
<path fill="none" stroke="midnightblue" d="M718.5,-356.58C706.55,-369.29 688.75,-386.1 670,-396.39 617.21,-425.37 445.14,-465.83 368.01,-483.08"/>
<polygon fill="midnightblue" stroke="midnightblue" points="721.32,-358.69 725.47,-348.94 716.15,-353.97 721.32,-358.69"/>
</g>
<!-- Node16&#45;&gt;Node16 -->
<g id="edge27" class="edge">
<title>Node16&#45;&gt;Node16</title>
<path fill="none" stroke="midnightblue" d="M751.91,-358.79C750.74,-363.71 744.94,-367.39 734.5,-367.39 717.79,-367.39 712.96,-357.96 720.01,-349.15"/>
<polygon fill="midnightblue" stroke="midnightblue" points="755.23,-357.71 748.99,-349.15 748.53,-359.74 755.23,-357.71"/>
</g>
<!-- Node17 -->
<g id="node17" class="node">
<title>Node17</title>
<g id="a_node17"><a xlink:href="basicArithm_8hpp.html#afe2f9d37fbb1090dfb3af32476b43fca" target="_top" xlink:title=" ">
<polygon fill="none" stroke="black" points="542,-367.89 542,-386.89 670,-386.89 670,-367.89 542,-367.89"/>
<text text-anchor="middle" x="606" y="-374.89" font-family="Helvetica,sans-Serif" font-size="10.00">getQuotientRemainder</text>
</a>
</g>
</g>
<!-- Node16&#45;&gt;Node17 -->
<g id="edge22" class="edge">
<title>Node16&#45;&gt;Node17</title>
<path fill="none" stroke="midnightblue" d="M696.64,-350.47C678.39,-355.95 656.56,-362.51 639.01,-367.78"/>
<polygon fill="midnightblue" stroke="midnightblue" points="697.79,-353.77 706.36,-347.55 695.78,-347.07 697.79,-353.77"/>
</g>
<!-- Node18 -->
<g id="node18" class="node">
<title>Node18</title>
<g id="a_node18"><a xlink:href="subtract_8cpp.html#ac2c7bcd6d73ca32ee42312d0fa0b1aa9" target="_top" xlink:title=" ">
<polygon fill="none" stroke="black" points="585.5,-329.89 585.5,-348.89 626.5,-348.89 626.5,-329.89 585.5,-329.89"/>
<text text-anchor="middle" x="606" y="-336.89" font-family="Helvetica,sans-Serif" font-size="10.00">main</text>
</a>
</g>
</g>
<!-- Node16&#45;&gt;Node18 -->
<g id="edge24" class="edge">
<title>Node16&#45;&gt;Node18</title>
<path fill="none" stroke="midnightblue" d="M696.32,-339.39C673.51,-339.39 645.21,-339.39 626.66,-339.39"/>
<polygon fill="midnightblue" stroke="midnightblue" points="696.36,-342.89 706.36,-339.39 696.36,-335.89 696.36,-342.89"/>
</g>
<!-- Node19 -->
<g id="node19" class="node">
<title>Node19</title>
<g id="a_node19"><a xlink:href="divisionReport_8cpp.html#aaebd1f284f6703b7629aa18d21f7ccf2" target="_top" xlink:title=" ">
<polygon fill="none" stroke="black" points="552.5,-215.89 552.5,-234.89 659.5,-234.89 659.5,-215.89 552.5,-215.89"/>
<text text-anchor="middle" x="606" y="-222.89" font-family="Helvetica,sans-Serif" font-size="10.00">reportDivisionStep</text>
</a>
</g>
</g>
<!-- Node16&#45;&gt;Node19 -->
<g id="edge25" class="edge">
<title>Node16&#45;&gt;Node19</title>
<path fill="none" stroke="midnightblue" d="M715.17,-322.87C688.39,-298.74 639.39,-254.59 617.76,-235.09"/>
<polygon fill="midnightblue" stroke="midnightblue" points="712.94,-325.58 722.71,-329.67 717.63,-320.38 712.94,-325.58"/>
</g>
<!-- Node17&#45;&gt;Node9 -->
<g id="edge23" class="edge">
<title>Node17&#45;&gt;Node9</title>
<path fill="none" stroke="midnightblue" d="M554.43,-364.3C550.13,-362.54 545.92,-360.58 542,-358.39 509.45,-340.26 478.57,-308.07 464.28,-292.03"/>
<polygon fill="midnightblue" stroke="midnightblue" points="553.36,-367.63 563.95,-367.82 555.79,-361.07 553.36,-367.63"/>
</g>
<!-- Node19&#45;&gt;Node9 -->
<g id="edge26" class="edge">
<title>Node19&#45;&gt;Node9</title>
<path fill="none" stroke="midnightblue" d="M570.24,-238.62C561.06,-242.12 551.15,-245.89 542,-249.39 520.49,-257.62 495.97,-267.03 478.63,-273.69"/>
<polygon fill="midnightblue" stroke="midnightblue" points="571.76,-241.79 579.86,-234.96 569.27,-235.24 571.76,-241.79"/>
</g>
<!-- Node20&#45;&gt;Node5 -->
<g id="edge29" class="edge">
<title>Node20&#45;&gt;Node5</title>
<path fill="none" stroke="midnightblue" d="M788.65,-574.55C711.75,-588.79 536.17,-611.82 404,-557.39 374.71,-545.33 349.3,-516.51 337.32,-501.26"/>
<polygon fill="midnightblue" stroke="midnightblue" points="789.67,-577.92 798.83,-572.6 788.35,-571.04 789.67,-577.92"/>
</g>
<!-- Node20&#45;&gt;Node7 -->
<g id="edge30" class="edge">
<title>Node20&#45;&gt;Node7</title>
<path fill="none" stroke="midnightblue" d="M821.87,-585.96C810.77,-623.11 785.2,-701.68 763,-718.39 707.2,-760.4 676.85,-737.39 607,-737.39 607,-737.39 607,-737.39 328,-737.39 224.37,-737.39 148.93,-604.46 129.77,-567.07"/>
<polygon fill="midnightblue" stroke="midnightblue" points="825.26,-586.85 824.72,-576.26 818.54,-584.87 825.26,-586.85"/>
</g>
<!-- Node20&#45;&gt;Node12 -->
<g id="edge34" class="edge">
<title>Node20&#45;&gt;Node12</title>
<path fill="none" stroke="midnightblue" d="M806.75,-582.17C769.11,-609.18 686.11,-661.39 607,-661.39 607,-661.39 607,-661.39 454,-661.39 428.01,-661.39 284.94,-544.64 243.03,-509.98"/>
<polygon fill="midnightblue" stroke="midnightblue" points="808.91,-584.93 814.91,-576.2 804.77,-579.29 808.91,-584.93"/>
</g>
<!-- Node20&#45;&gt;Node14 -->
<g id="edge32" class="edge">
<title>Node20&#45;&gt;Node14</title>
<path fill="none" stroke="midnightblue" d="M811,-549.36C791.68,-529.4 760.33,-497.03 744.81,-481.01"/>
<polygon fill="midnightblue" stroke="midnightblue" points="808.53,-551.84 818,-556.58 813.56,-546.97 808.53,-551.84"/>
</g>
<!-- Node20&#45;&gt;Node16 -->
<g id="edge37" class="edge">
<title>Node20&#45;&gt;Node16</title>
<path fill="none" stroke="midnightblue" d="M823.03,-546.93C814.47,-511.59 793.82,-435.12 763,-376.39 757.79,-366.47 750.06,-356.34 744.12,-349.19"/>
<polygon fill="midnightblue" stroke="midnightblue" points="819.68,-547.95 825.39,-556.88 826.49,-546.34 819.68,-547.95"/>
</g>
<!-- Node20&#45;&gt;Node17 -->
<g id="edge31" class="edge">
<title>Node20&#45;&gt;Node17</title>
<path fill="none" stroke="midnightblue" d="M799.83,-552.14C774.14,-538.23 735.53,-515.53 706,-490.39 666.67,-456.92 628.96,-407.63 613.89,-387.01"/>
<polygon fill="midnightblue" stroke="midnightblue" points="798.19,-555.24 808.66,-556.86 801.49,-549.06 798.19,-555.24"/>
</g>
<!-- Node21 -->
<g id="node21" class="node">
<title>Node21</title>
<g id="a_node21"><a xlink:href="comparison_8cpp.html#a01b8b8bd5868995ae4a51d8c87cc82dd" target="_top" xlink:title=" ">
<polygon fill="none" stroke="black" points="714,-689.89 714,-708.89 755,-708.89 755,-689.89 714,-689.89"/>
<text text-anchor="middle" x="734.5" y="-696.89" font-family="Helvetica,sans-Serif" font-size="10.00">main</text>
</a>
</g>
</g>
<!-- Node20&#45;&gt;Node21 -->
<g id="edge33" class="edge">
<title>Node20&#45;&gt;Node21</title>
<path fill="none" stroke="midnightblue" d="M818.64,-585.31C807.5,-608.03 786.9,-646.66 763,-675.39 758.62,-680.66 753.05,-685.75 748.06,-689.88"/>
<polygon fill="midnightblue" stroke="midnightblue" points="821.9,-586.62 823.07,-576.09 815.59,-583.59 821.9,-586.62"/>
</g>
<!-- Node22 -->
<g id="node22" class="node">
<title>Node22</title>
<g id="a_node22"><a xlink:href="baseConvert_8cpp.html#a80419d3463efc029e66b9cb0a1390912" target="_top" xlink:title=" ">
<polygon fill="none" stroke="black" points="404,-528.89 404,-547.89 506,-547.89 506,-528.89 404,-528.89"/>
<text text-anchor="middle" x="455" y="-535.89" font-family="Helvetica,sans-Serif" font-size="10.00">representNumber</text>
</a>
</g>
</g>
<!-- Node20&#45;&gt;Node22 -->
<g id="edge35" class="edge">
<title>Node20&#45;&gt;Node22</title>
<path fill="none" stroke="midnightblue" d="M788.73,-563.47C720.94,-558.36 580.98,-547.81 506,-542.16"/>
<polygon fill="midnightblue" stroke="midnightblue" points="788.73,-566.98 798.97,-564.24 789.26,-560 788.73,-566.98"/>
</g>
<!-- Node22&#45;&gt;Node5 -->
<g id="edge36" class="edge">
<title>Node22&#45;&gt;Node5</title>
<path fill="none" stroke="midnightblue" d="M419.4,-525.28C399.12,-517.59 373.94,-508.05 355.48,-501.05"/>
<polygon fill="midnightblue" stroke="midnightblue" points="418.32,-528.61 428.91,-528.88 420.8,-522.07 418.32,-528.61"/>
</g>
<!-- Node23&#45;&gt;Node5 -->
<g id="edge40" class="edge">
<title>Node23&#45;&gt;Node5</title>
<path fill="none" stroke="midnightblue" d="M695.6,-109.46C655.55,-108.9 591.48,-112.32 542,-135.39 466.18,-170.74 449.03,-192.89 404,-263.39 355.84,-338.8 336.38,-448.36 331.38,-481.52"/>
<polygon fill="midnightblue" stroke="midnightblue" points="695.65,-112.96 705.73,-109.69 695.81,-105.96 695.65,-112.96"/>
</g>
<!-- Node23&#45;&gt;Node7 -->
<g id="edge41" class="edge">
<title>Node23&#45;&gt;Node7</title>
<path fill="none" stroke="midnightblue" d="M695.71,-107.93C687.25,-107.29 678.33,-106.72 670,-106.39 550.26,-101.69 509.21,-93.04 404,-150.39 346.34,-181.83 329.47,-191.91 290,-244.39 209.95,-350.83 251,-412.92 171,-519.39 162.54,-530.66 150.08,-540.68 140.27,-547.6"/>
<polygon fill="midnightblue" stroke="midnightblue" points="695.46,-111.42 705.71,-108.73 696.02,-104.44 695.46,-111.42"/>
</g>
<!-- Node23&#45;&gt;Node9 -->
<g id="edge42" class="edge">
<title>Node23&#45;&gt;Node9</title>
<path fill="none" stroke="midnightblue" d="M700.01,-124.81C660.59,-141.3 593.95,-171.45 542,-206.39 511.58,-226.86 480.46,-257.17 465.36,-272.6"/>
<polygon fill="midnightblue" stroke="midnightblue" points="701.51,-127.97 709.41,-120.92 698.83,-121.51 701.51,-127.97"/>
</g>
<!-- Node23&#45;&gt;Node11 -->
<g id="edge45" class="edge">
<title>Node23&#45;&gt;Node11</title>
<path fill="none" stroke="midnightblue" d="M727.03,-92.19C718.19,-69.37 699.91,-32.38 670,-16.39 619.83,10.42 596.9,-1.47 542,-16.39 473.37,-35.05 451.41,-44.38 404,-97.39 360.04,-146.55 338.54,-226.08 332.12,-253.63"/>
<polygon fill="midnightblue" stroke="midnightblue" points="723.83,-93.62 730.53,-101.82 730.41,-91.23 723.83,-93.62"/>
</g>
<!-- Node23&#45;&gt;Node19 -->
<g id="edge44" class="edge">
<title>Node23&#45;&gt;Node19</title>
<path fill="none" stroke="midnightblue" d="M715.17,-127.91C688.39,-152.05 639.39,-196.2 617.76,-215.7"/>
<polygon fill="midnightblue" stroke="midnightblue" points="717.63,-130.41 722.71,-121.11 712.94,-125.21 717.63,-130.41"/>
</g>
<!-- Node24 -->
<g id="node24" class="node">
<title>Node24</title>
<g id="a_node24"><a xlink:href="multiply_8cpp.html#a065a3ee9a7ec43a06ab2fddbc3019a17" target="_top" xlink:title=" ">
<polygon fill="none" stroke="black" points="585.5,-25.89 585.5,-44.89 626.5,-44.89 626.5,-25.89 585.5,-25.89"/>
<text text-anchor="middle" x="606" y="-32.89" font-family="Helvetica,sans-Serif" font-size="10.00">main</text>
</a>
</g>
</g>
<!-- Node23&#45;&gt;Node24 -->
<g id="edge43" class="edge">
<title>Node23&#45;&gt;Node24</title>
<path fill="none" stroke="midnightblue" d="M716.34,-94.75C704.17,-83.62 687.03,-69.26 670,-59.39 656.33,-51.47 639.56,-45.23 626.76,-41.1"/>
<polygon fill="midnightblue" stroke="midnightblue" points="714.22,-97.56 723.91,-101.84 719.01,-92.45 714.22,-97.56"/>
</g>
<!-- Node25&#45;&gt;Node20 -->
<g id="edge48" class="edge">
<title>Node25&#45;&gt;Node20</title>
<path fill="none" stroke="midnightblue" d="M1021.24,-507.96C974.39,-522.24 899.14,-545.17 858.23,-557.64"/>
<polygon fill="midnightblue" stroke="midnightblue" points="1022.53,-511.23 1031.08,-504.97 1020.49,-504.54 1022.53,-511.23"/>
</g>
<!-- Node26 -->
<g id="node26" class="node">
<title>Node26</title>
<g id="a_node26"><a xlink:href="absReport_8cpp.html#a7e44e3e84696a88d84e6d9e3331ea6a3" target="_top" xlink:title=" ">
<polygon fill="none" stroke="black" points="900.5,-619.89 900.5,-638.89 964.5,-638.89 964.5,-619.89 900.5,-619.89"/>
<text text-anchor="middle" x="932.5" y="-626.89" font-family="Helvetica,sans-Serif" font-size="10.00">reportAbs</text>
</a>
</g>
</g>
<!-- Node25&#45;&gt;Node26 -->
<g id="edge49" class="edge">
<title>Node25&#45;&gt;Node26</title>
<path fill="none" stroke="midnightblue" d="M1046.27,-512.26C1018.88,-540.7 964.36,-597.33 942.69,-619.84"/>
<polygon fill="midnightblue" stroke="midnightblue" points="1048.81,-514.66 1053.22,-505.03 1043.77,-509.81 1048.81,-514.66"/>
</g>
<!-- Node29 -->
<g id="node29" class="node">
<title>Node29</title>
<g id="a_node29"><a xlink:href="addReport_8cpp.html#a790c309eb43b10e2fca286cee3a94ac1" target="_top" xlink:title=" ">
<polygon fill="none" stroke="black" points="900,-449.89 900,-468.89 965,-468.89 965,-449.89 900,-449.89"/>
<text text-anchor="middle" x="932.5" y="-456.89" font-family="Helvetica,sans-Serif" font-size="10.00">reportAdd</text>
</a>
</g>
</g>
<!-- Node25&#45;&gt;Node29 -->
<g id="edge52" class="edge">
<title>Node25&#45;&gt;Node29</title>
<path fill="none" stroke="midnightblue" d="M1018.3,-483.06C1000.86,-478.19 981.22,-472.71 965.23,-468.25"/>
<polygon fill="midnightblue" stroke="midnightblue" points="1017.7,-486.52 1028.27,-485.84 1019.58,-479.78 1017.7,-486.52"/>
</g>
<!-- Node27 -->
<g id="node27" class="node">
<title>Node27</title>
<g id="a_node27"><a xlink:href="basicArithm_8hpp.html#a0bf76a4df6c2748fbcb5b33b3e8166b3" target="_top" xlink:title="Calculates the absolute value of a string representation of a number.">
<polygon fill="none" stroke="black" points="811.5,-679.89 811.5,-698.89 845.5,-698.89 845.5,-679.89 811.5,-679.89"/>
<text text-anchor="middle" x="828.5" y="-686.89" font-family="Helvetica,sans-Serif" font-size="10.00">abs</text>
</a>
</g>
</g>
<!-- Node26&#45;&gt;Node27 -->
<g id="edge50" class="edge">
<title>Node26&#45;&gt;Node27</title>
<path fill="none" stroke="midnightblue" d="M906.37,-644.17C887.36,-655.36 861.82,-670.38 845.51,-679.98"/>
<polygon fill="midnightblue" stroke="midnightblue" points="908.27,-647.12 915.11,-639.03 904.72,-641.09 908.27,-647.12"/>
</g>
<!-- Node28 -->
<g id="node28" class="node">
<title>Node28</title>
<g id="a_node28"><a xlink:href="abs_8cpp.html#a065a3ee9a7ec43a06ab2fddbc3019a17" target="_top" xlink:title=" ">
<polygon fill="none" stroke="black" points="714,-765.89 714,-784.89 755,-784.89 755,-765.89 714,-765.89"/>
<text text-anchor="middle" x="734.5" y="-772.89" font-family="Helvetica,sans-Serif" font-size="10.00">main</text>
</a>
</g>
</g>
<!-- Node27&#45;&gt;Node28 -->
<g id="edge51" class="edge">
<title>Node27&#45;&gt;Node28</title>
<path fill="none" stroke="midnightblue" d="M810.31,-706.35C797.44,-718.94 779.31,-736.45 763,-751.39 757.77,-756.19 751.85,-761.38 746.85,-765.71"/>
<polygon fill="midnightblue" stroke="midnightblue" points="812.9,-708.71 817.59,-699.21 808,-703.72 812.9,-708.71"/>
</g>
<!-- Node29&#45;&gt;Node4 -->
<g id="edge53" class="edge">
<title>Node29&#45;&gt;Node4</title>
<path fill="none" stroke="midnightblue" d="M908.81,-444.05C888.85,-430.54 860.41,-411.3 843.56,-399.91"/>
<polygon fill="midnightblue" stroke="midnightblue" points="907.07,-447.1 917.32,-449.8 911,-441.3 907.07,-447.1"/>
</g>
</g>
</svg>
        <g id="navigator" transform="translate(0 0)" fill="#404254">
                <rect fill="#f2f5e9" fill-opacity="0.5" stroke="#606060" stroke-width=".5" x="0" y="0" width="60" height="60"/>
                <use id="zoomplus" xlink:href="#zoomPlus" x="17" y="9" onmousedown="handleZoom(evt,'in')"/>
                <use id="zoomminus" xlink:href="#zoomMin" x="42" y="9" onmousedown="handleZoom(evt,'out')"/>
                <use id="reset" xlink:href="#resetDef" x="30" y="36" onmousedown="handleReset()"/>
                <g id="arrowUp" xlink:href="#dirArrow" transform="translate(30 24)" onmousedown="handlePan(0,-1)">
                  <use xlink:href="#rim" fill="#404040">
                        <set attributeName="fill" to="#808080" begin="arrowUp.mouseover" end="arrowUp.mouseout"/>
                  </use>
                  <path fill="none" stroke="white" stroke-width="1.5" d="M0,-3.0v7 M-2.5,-0.5L0,-3.0L2.5,-0.5"/>
                </g>
                <g id="arrowRight" xlink:href="#dirArrow" transform="rotate(90) translate(36 -43)" onmousedown="handlePan(1,0)">
                  <use xlink:href="#rim" fill="#404040">
                        <set attributeName="fill" to="#808080" begin="arrowRight.mouseover" end="arrowRight.mouseout"/>
                  </use>
                  <path fill="none" stroke="white" stroke-width="1.5" d="M0,-3.0v7 M-2.5,-0.5L0,-3.0L2.5,-0.5"/>
                </g>
                <g id="arrowDown" xlink:href="#dirArrow" transform="rotate(180) translate(-30 -48)" onmousedown="handlePan(0,1)">
                  <use xlink:href="#rim" fill="#404040">
                        <set attributeName="fill" to="#808080" begin="arrowDown.mouseover" end="arrowDown.mouseout"/>
                  </use>
                  <path fill="none" stroke="white" stroke-width="1.5" d="M0,-3.0v7 M-2.5,-0.5L0,-3.0L2.5,-0.5"/>
                </g>
                <g id="arrowLeft" xlink:href="#dirArrow" transform="rotate(270) translate(-36 17)" onmousedown="handlePan(-1,0)">
                  <use xlink:href="#rim" fill="#404040">
                        <set attributeName="fill" to="#808080" begin="arrowLeft.mouseover" end="arrowLeft.mouseout"/>
                  </use>
                  <path fill="none" stroke="white" stroke-width="1.5" d="M0,-3.0v7 M-2.5,-0.5L0,-3.0L2.5,-0.5"/>
                </g>
        </g>
        <svg viewBox="0 0 15 15" width="100%" height="30px" preserveAspectRatio="xMaxYMin meet">
         <g id="arrow_out" transform="scale(0.3 0.3)">
          <a xlink:href="util_8hpp_a70584872ee14fa0befa8f25788f98a2b_icgraph_org.svg" target="_base">
           <rect id="button" ry="5" rx="5" y="6" x="6" height="38" width="38"
                fill="#f2f5e9" fill-opacity="0.5" stroke="#606060" stroke-width="1.0"/>
           <path id="arrow"
             d="M 11.500037,31.436501 C 11.940474,20.09759 22.043105,11.32322 32.158766,21.979434 L 37.068811,17.246167 C 37.068811,17.246167 37.088388,32 37.088388,32 L 22.160133,31.978069 C 22.160133,31.978069 26.997745,27.140456 26.997745,27.140456 C 18.528582,18.264221 13.291696,25.230495 11.500037,31.436501 z"
             style="fill:#404040;"/>
          </a>
         </g>
        </svg>
</svg>
