<?xml version="1.0" encoding="UTF-8" standalone="no"?>
<!DOCTYPE svg PUBLIC "-//W3C//DTD SVG 1.1//EN"
 "http://www.w3.org/Graphics/SVG/1.1/DTD/svg11.dtd">
<!-- Generated by graphviz version 2.43.0 (0)
 -->
<!-- Title: simplifyPolarity Pages: 1 -->
<svg width="365pt" height="28pt"
 viewBox="0.00 0.00 365.00 28.00" xmlns="http://www.w3.org/2000/svg" xmlns:xlink="http://www.w3.org/1999/xlink">
<g id="graph0" class="graph" transform="scale(1 1) rotate(0) translate(4 24)">
<title>simplifyPolarity</title>
<!-- Node1 -->
<g id="node1" class="node">
<title>Node1</title>
<g id="a_node1"><a xlink:title="Simplifies a string with non&#45;standard polarity (e.g., –1, —1, etc.).">
<polygon fill="#bfbfbf" stroke="black" points="0,-0.5 0,-19.5 93,-19.5 93,-0.5 0,-0.5"/>
<text text-anchor="middle" x="46.5" y="-7.5" font-family="Helvetica,sans-Serif" font-size="10.00">simplifyPolarity</text>
</a>
</g>
</g>
<!-- Node2 -->
<g id="node2" class="node">
<title>Node2</title>
<g id="a_node2"><a xlink:href="util_8cpp.html#a70584872ee14fa0befa8f25788f98a2b" target="_top" xlink:title="Simplifies a string that represents a number with non&#45;standard polarity.">
<polygon fill="none" stroke="black" points="129,-0.5 129,-19.5 245,-19.5 245,-0.5 129,-0.5"/>
<text text-anchor="middle" x="187" y="-7.5" font-family="Helvetica,sans-Serif" font-size="10.00">simplifyZeroPolarity</text>
</a>
</g>
</g>
<!-- Node1&#45;&gt;Node2 -->
<g id="edge1" class="edge">
<title>Node1&#45;&gt;Node2</title>
<path fill="none" stroke="midnightblue" d="M93.23,-10C101.39,-10 110.04,-10 118.65,-10"/>
<polygon fill="midnightblue" stroke="midnightblue" points="118.7,-13.5 128.7,-10 118.7,-6.5 118.7,-13.5"/>
</g>
<!-- Node3 -->
<g id="node3" class="node">
<title>Node3</title>
<g id="a_node3"><a xlink:href="util_8hpp.html#a183c024df291889f90106e47bb64fe0b" target="_top" xlink:title="Checks if a given string is a zero string.">
<polygon fill="none" stroke="black" points="281,-0.5 281,-19.5 357,-19.5 357,-0.5 281,-0.5"/>
<text text-anchor="middle" x="319" y="-7.5" font-family="Helvetica,sans-Serif" font-size="10.00">isZeroString</text>
</a>
</g>
</g>
<!-- Node2&#45;&gt;Node3 -->
<g id="edge2" class="edge">
<title>Node2&#45;&gt;Node3</title>
<path fill="none" stroke="midnightblue" d="M245.02,-10C253.56,-10 262.28,-10 270.59,-10"/>
<polygon fill="midnightblue" stroke="midnightblue" points="270.85,-13.5 280.85,-10 270.85,-6.5 270.85,-13.5"/>
</g>
</g>
</svg>
