<?xml version="1.0" encoding="UTF-8" standalone="no"?>
<!DOCTYPE svg PUBLIC "-//W3C//DTD SVG 1.1//EN"
 "http://www.w3.org/Graphics/SVG/1.1/DTD/svg11.dtd">
<!-- Generated by graphviz version 2.43.0 (0)
 -->
<!-- Title: removeLeadingZeros Pages: 1 -->
<svg width="1084pt" height="478pt"
 viewBox="0.00 0.00 1084.00 478.04" xmlns="http://www.w3.org/2000/svg" xmlns:xlink="http://www.w3.org/1999/xlink">
<g id="graph0" class="graph" transform="scale(1 1) rotate(0) translate(4 474.04)">
<title>removeLeadingZeros</title>
<!-- Node1 -->
<g id="node1" class="node">
<title>Node1</title>
<g id="a_node1"><a xlink:title=" ">
<polygon fill="#bfbfbf" stroke="black" points="956,-228.5 956,-247.5 1076,-247.5 1076,-228.5 956,-228.5"/>
<text text-anchor="middle" x="1016" y="-235.5" font-family="Helvetica,sans-Serif" font-size="10.00">removeLeadingZeros</text>
</a>
</g>
</g>
<!-- Node2 -->
<g id="node2" class="node">
<title>Node2</title>
<g id="a_node2"><a xlink:href="subtractReport_8cpp.html#ad21f3d209885b1c419ff73800bb3b33b" target="_top" xlink:title=" ">
<polygon fill="none" stroke="black" points="721,-247.5 721,-266.5 807,-266.5 807,-247.5 721,-247.5"/>
<text text-anchor="middle" x="764" y="-254.5" font-family="Helvetica,sans-Serif" font-size="10.00">reportSubtract</text>
</a>
</g>
</g>
<!-- Node1&#45;&gt;Node2 -->
<g id="edge1" class="edge">
<title>Node1&#45;&gt;Node2</title>
<path fill="none" stroke="midnightblue" d="M945.59,-243.28C901.1,-246.66 844.82,-250.93 807.01,-253.81"/>
<polygon fill="midnightblue" stroke="midnightblue" points="946.05,-246.75 955.75,-242.5 945.52,-239.77 946.05,-246.75"/>
</g>
<!-- Node18 -->
<g id="node18" class="node">
<title>Node18</title>
<g id="a_node18"><a xlink:href="util_8hpp.html#a7e7fdd236a1593ed0124a3a7dd05946d" target="_top" xlink:title=" ">
<polygon fill="none" stroke="black" points="843,-209.5 843,-228.5 920,-228.5 920,-209.5 843,-209.5"/>
<text text-anchor="middle" x="881.5" y="-216.5" font-family="Helvetica,sans-Serif" font-size="10.00">splitNumber</text>
</a>
</g>
</g>
<!-- Node1&#45;&gt;Node18 -->
<g id="edge25" class="edge">
<title>Node1&#45;&gt;Node18</title>
<path fill="none" stroke="midnightblue" d="M945.74,-228.07C936.89,-226.8 928.12,-225.54 920.05,-224.38"/>
<polygon fill="midnightblue" stroke="midnightblue" points="945.33,-231.55 955.73,-229.5 946.32,-224.62 945.33,-231.55"/>
</g>
<!-- Node3 -->
<g id="node3" class="node">
<title>Node3</title>
<g id="a_node3"><a xlink:href="basicArithm_8hpp.html#a08faec0b8e863df19e3f978758166482" target="_top" xlink:title="Subtracts one string representation of a number from another string representation of a number.">
<polygon fill="none" stroke="black" points="628.5,-228.5 628.5,-247.5 684.5,-247.5 684.5,-228.5 628.5,-228.5"/>
<text text-anchor="middle" x="656.5" y="-235.5" font-family="Helvetica,sans-Serif" font-size="10.00">subtract</text>
</a>
</g>
</g>
<!-- Node2&#45;&gt;Node3 -->
<g id="edge2" class="edge">
<title>Node2&#45;&gt;Node3</title>
<path fill="none" stroke="midnightblue" d="M710.61,-247.56C701.62,-245.95 692.62,-244.32 684.65,-242.89"/>
<polygon fill="midnightblue" stroke="midnightblue" points="710.23,-251.05 720.7,-249.38 711.48,-244.16 710.23,-251.05"/>
</g>
<!-- Node3&#45;&gt;Node3 -->
<g id="edge24" class="edge">
<title>Node3&#45;&gt;Node3</title>
<path fill="none" stroke="midnightblue" d="M676.13,-257.4C674.82,-262.31 668.27,-266 656.5,-266 637.66,-266 632.21,-256.57 640.16,-247.76"/>
<polygon fill="midnightblue" stroke="midnightblue" points="679.38,-256.09 672.84,-247.76 672.76,-258.35 679.38,-256.09"/>
</g>
<!-- Node4 -->
<g id="node4" class="node">
<title>Node4</title>
<g id="a_node4"><a xlink:href="basicArithm_8hpp.html#acf222f0bfc4ca97fbdc6db7fe808a9ee" target="_top" xlink:title="Adds two string representations of numbers, and performs with the column method.">
<polygon fill="none" stroke="black" points="521,-76.5 521,-95.5 556,-95.5 556,-76.5 521,-76.5"/>
<text text-anchor="middle" x="538.5" y="-83.5" font-family="Helvetica,sans-Serif" font-size="10.00">add</text>
</a>
</g>
</g>
<!-- Node3&#45;&gt;Node4 -->
<g id="edge3" class="edge">
<title>Node3&#45;&gt;Node4</title>
<path fill="none" stroke="midnightblue" d="M644.49,-219.41C622.23,-186.78 572.14,-121.15 550.17,-95.87"/>
<polygon fill="midnightblue" stroke="midnightblue" points="641.77,-221.64 650.21,-228.04 647.6,-217.77 641.77,-221.64"/>
</g>
<!-- Node7 -->
<g id="node7" class="node">
<title>Node7</title>
<g id="a_node7"><a xlink:href="basicArithm_8hpp.html#acb4215189a8d1cfd37f4f6fe13890a8f" target="_top" xlink:title="Divides a string representation of a number by another string representation of a number.">
<polygon fill="none" stroke="black" points="402,-266.5 402,-285.5 449,-285.5 449,-266.5 402,-266.5"/>
<text text-anchor="middle" x="425.5" y="-273.5" font-family="Helvetica,sans-Serif" font-size="10.00">divide</text>
</a>
</g>
</g>
<!-- Node3&#45;&gt;Node7 -->
<g id="edge16" class="edge">
<title>Node3&#45;&gt;Node7</title>
<path fill="none" stroke="midnightblue" d="M618.48,-250.27C609.86,-252.79 600.67,-255.22 592,-257 541.57,-267.35 481.26,-272.5 449.19,-274.67"/>
<polygon fill="midnightblue" stroke="midnightblue" points="619.71,-253.56 628.26,-247.3 617.68,-246.86 619.71,-253.56"/>
</g>
<!-- Node14 -->
<g id="node14" class="node">
<title>Node14</title>
<g id="a_node14"><a xlink:href="division_8cpp.html#ab006d1ea81d0490f752bcadaee51b984" target="_top" xlink:title=" ">
<polygon fill="none" stroke="black" points="501.5,-190.5 501.5,-209.5 575.5,-209.5 575.5,-190.5 501.5,-190.5"/>
<text text-anchor="middle" x="538.5" y="-197.5" font-family="Helvetica,sans-Serif" font-size="10.00">getQuotient</text>
</a>
</g>
</g>
<!-- Node3&#45;&gt;Node14 -->
<g id="edge17" class="edge">
<title>Node3&#45;&gt;Node14</title>
<path fill="none" stroke="midnightblue" d="M618.61,-225.92C602.43,-220.62 583.72,-214.49 568.55,-209.52"/>
<polygon fill="midnightblue" stroke="midnightblue" points="617.71,-229.3 628.3,-229.09 619.89,-222.65 617.71,-229.3"/>
</g>
<!-- Node15 -->
<g id="node15" class="node">
<title>Node15</title>
<g id="a_node15"><a xlink:href="division_8cpp.html#a8b6a82cb05abd6a1664e14df888f3cb7" target="_top" xlink:title=" ">
<polygon fill="none" stroke="black" points="495.5,-304.5 495.5,-323.5 581.5,-323.5 581.5,-304.5 495.5,-304.5"/>
<text text-anchor="middle" x="538.5" y="-311.5" font-family="Helvetica,sans-Serif" font-size="10.00">getRemainder</text>
</a>
</g>
</g>
<!-- Node3&#45;&gt;Node15 -->
<g id="edge19" class="edge">
<title>Node3&#45;&gt;Node15</title>
<path fill="none" stroke="midnightblue" d="M637.7,-254.69C625.46,-265.61 608.51,-279.71 592,-290 583.16,-295.51 572.83,-300.51 563.69,-304.5"/>
<polygon fill="midnightblue" stroke="midnightblue" points="640.31,-257.04 645.35,-247.72 635.6,-251.86 640.31,-257.04"/>
</g>
<!-- Node16 -->
<g id="node16" class="node">
<title>Node16</title>
<g id="a_node16"><a xlink:href="subtract_8cpp.html#ac2c7bcd6d73ca32ee42312d0fa0b1aa9" target="_top" xlink:title=" ">
<polygon fill="none" stroke="black" points="518,-228.5 518,-247.5 559,-247.5 559,-228.5 518,-228.5"/>
<text text-anchor="middle" x="538.5" y="-235.5" font-family="Helvetica,sans-Serif" font-size="10.00">main</text>
</a>
</g>
</g>
<!-- Node3&#45;&gt;Node16 -->
<g id="edge21" class="edge">
<title>Node3&#45;&gt;Node16</title>
<path fill="none" stroke="midnightblue" d="M618.16,-238C598.58,-238 575.38,-238 559.27,-238"/>
<polygon fill="midnightblue" stroke="midnightblue" points="618.3,-241.5 628.3,-238 618.3,-234.5 618.3,-241.5"/>
</g>
<!-- Node17 -->
<g id="node17" class="node">
<title>Node17</title>
<g id="a_node17"><a xlink:href="divisionReport_8cpp.html#aaebd1f284f6703b7629aa18d21f7ccf2" target="_top" xlink:title=" ">
<polygon fill="none" stroke="black" points="485,-342.5 485,-361.5 592,-361.5 592,-342.5 485,-342.5"/>
<text text-anchor="middle" x="538.5" y="-349.5" font-family="Helvetica,sans-Serif" font-size="10.00">reportDivisionStep</text>
</a>
</g>
</g>
<!-- Node3&#45;&gt;Node17 -->
<g id="edge22" class="edge">
<title>Node3&#45;&gt;Node17</title>
<path fill="none" stroke="midnightblue" d="M647.37,-256.83C637.29,-278.13 618.17,-312.5 592,-333 587.12,-336.83 581.39,-339.93 575.56,-342.42"/>
<polygon fill="midnightblue" stroke="midnightblue" points="650.64,-258.1 651.59,-247.55 644.27,-255.21 650.64,-258.1"/>
</g>
<!-- Node4&#45;&gt;Node3 -->
<g id="edge15" class="edge">
<title>Node4&#45;&gt;Node3</title>
<path fill="none" stroke="midnightblue" d="M550.32,-104.3C572.46,-136.82 622.74,-202.7 644.79,-228.09"/>
<polygon fill="midnightblue" stroke="midnightblue" points="553.07,-102.13 544.63,-95.72 547.24,-105.99 553.07,-102.13"/>
</g>
<!-- Node5 -->
<g id="node5" class="node">
<title>Node5</title>
<g id="a_node5"><a xlink:href="basicArithm_8hpp.html#aedf78136562346db852758c848f8e83d" target="_top" xlink:title="Converts a string representation of a number from one base to another.">
<polygon fill="none" stroke="black" points="77,-123.5 77,-142.5 171,-142.5 171,-123.5 77,-123.5"/>
<text text-anchor="middle" x="124" y="-130.5" font-family="Helvetica,sans-Serif" font-size="10.00">decimalConvert</text>
</a>
</g>
</g>
<!-- Node4&#45;&gt;Node5 -->
<g id="edge4" class="edge">
<title>Node4&#45;&gt;Node5</title>
<path fill="none" stroke="midnightblue" d="M510.93,-92.61C493.44,-96.74 469.98,-101.85 449,-105 350.59,-119.76 234.11,-127.47 171.09,-130.84"/>
<polygon fill="midnightblue" stroke="midnightblue" points="512.07,-95.94 520.98,-90.2 510.44,-89.13 512.07,-95.94"/>
</g>
<!-- Node4&#45;&gt;Node7 -->
<g id="edge6" class="edge">
<title>Node4&#45;&gt;Node7</title>
<path fill="none" stroke="midnightblue" d="M520.61,-103.29C509.56,-115.2 495.32,-131.75 485,-148 458.81,-189.25 437.84,-244.17 429.91,-266.23"/>
<polygon fill="midnightblue" stroke="midnightblue" points="523.32,-105.52 527.66,-95.85 518.24,-100.7 523.32,-105.52"/>
</g>
<!-- Node9 -->
<g id="node9" class="node">
<title>Node9</title>
<g id="a_node9"><a xlink:href="basicArithm_8hpp.html#a4e1bb2f02ee5d9df627a57d0899ac07b" target="_top" xlink:title="Executes a given predicate function a specified number of times.">
<polygon fill="none" stroke="black" points="406.5,-0.5 406.5,-19.5 444.5,-19.5 444.5,-0.5 406.5,-0.5"/>
<text text-anchor="middle" x="425.5" y="-7.5" font-family="Helvetica,sans-Serif" font-size="10.00">loop</text>
</a>
</g>
</g>
<!-- Node4&#45;&gt;Node9 -->
<g id="edge8" class="edge">
<title>Node4&#45;&gt;Node9</title>
<path fill="none" stroke="midnightblue" d="M514.92,-70.54C492.59,-55.25 459.15,-32.36 440.44,-19.55"/>
<polygon fill="midnightblue" stroke="midnightblue" points="513.21,-73.61 523.44,-76.37 517.17,-67.84 513.21,-73.61"/>
</g>
<!-- Node10 -->
<g id="node10" class="node">
<title>Node10</title>
<g id="a_node10"><a xlink:href="powerReport_8cpp.html#ab0388ca2de3ef5b0250faf953f792db8" target="_top" xlink:title=" ">
<polygon fill="none" stroke="black" points="290,-52.5 290,-71.5 366,-71.5 366,-52.5 290,-52.5"/>
<text text-anchor="middle" x="328" y="-59.5" font-family="Helvetica,sans-Serif" font-size="10.00">reportPower</text>
</a>
</g>
</g>
<!-- Node4&#45;&gt;Node10 -->
<g id="edge14" class="edge">
<title>Node4&#45;&gt;Node10</title>
<path fill="none" stroke="midnightblue" d="M510.65,-78.99C493.21,-74.75 469.91,-69.66 449,-67 421.39,-63.49 389.94,-62.28 366.17,-61.93"/>
<polygon fill="midnightblue" stroke="midnightblue" points="510.13,-82.47 520.68,-81.5 511.83,-75.68 510.13,-82.47"/>
</g>
<!-- Node13 -->
<g id="node13" class="node">
<title>Node13</title>
<g id="a_node13"><a xlink:href="add_8cpp.html#a065a3ee9a7ec43a06ab2fddbc3019a17" target="_top" xlink:title=" ">
<polygon fill="none" stroke="black" points="405,-76.5 405,-95.5 446,-95.5 446,-76.5 405,-76.5"/>
<text text-anchor="middle" x="425.5" y="-83.5" font-family="Helvetica,sans-Serif" font-size="10.00">main</text>
</a>
</g>
</g>
<!-- Node4&#45;&gt;Node13 -->
<g id="edge13" class="edge">
<title>Node4&#45;&gt;Node13</title>
<path fill="none" stroke="midnightblue" d="M510.38,-86C490.51,-86 464,-86 446.14,-86"/>
<polygon fill="midnightblue" stroke="midnightblue" points="510.64,-89.5 520.64,-86 510.64,-82.5 510.64,-89.5"/>
</g>
<!-- Node6 -->
<g id="node6" class="node">
<title>Node6</title>
<g id="a_node6"><a xlink:href="decimalConvert_8cpp.html#ac2c7bcd6d73ca32ee42312d0fa0b1aa9" target="_top" xlink:title=" ">
<polygon fill="none" stroke="black" points="0,-123.5 0,-142.5 41,-142.5 41,-123.5 0,-123.5"/>
<text text-anchor="middle" x="20.5" y="-130.5" font-family="Helvetica,sans-Serif" font-size="10.00">main</text>
</a>
</g>
</g>
<!-- Node5&#45;&gt;Node6 -->
<g id="edge5" class="edge">
<title>Node5&#45;&gt;Node6</title>
<path fill="none" stroke="midnightblue" d="M66.69,-133C57.49,-133 48.54,-133 41.06,-133"/>
<polygon fill="midnightblue" stroke="midnightblue" points="66.71,-136.5 76.71,-133 66.71,-129.5 66.71,-136.5"/>
</g>
<!-- Node8 -->
<g id="node8" class="node">
<title>Node8</title>
<g id="a_node8"><a xlink:href="division_8cpp.html#a065a3ee9a7ec43a06ab2fddbc3019a17" target="_top" xlink:title=" ">
<polygon fill="none" stroke="black" points="307.5,-266.5 307.5,-285.5 348.5,-285.5 348.5,-266.5 307.5,-266.5"/>
<text text-anchor="middle" x="328" y="-273.5" font-family="Helvetica,sans-Serif" font-size="10.00">main</text>
</a>
</g>
</g>
<!-- Node7&#45;&gt;Node8 -->
<g id="edge7" class="edge">
<title>Node7&#45;&gt;Node8</title>
<path fill="none" stroke="midnightblue" d="M391.83,-276C377.44,-276 361.01,-276 348.56,-276"/>
<polygon fill="midnightblue" stroke="midnightblue" points="391.87,-279.5 401.87,-276 391.87,-272.5 391.87,-279.5"/>
</g>
<!-- Node9&#45;&gt;Node10 -->
<g id="edge9" class="edge">
<title>Node9&#45;&gt;Node10</title>
<path fill="none" stroke="midnightblue" d="M397.92,-24.47C381.59,-33.37 361.1,-44.52 346.73,-52.35"/>
<polygon fill="midnightblue" stroke="midnightblue" points="399.88,-27.39 406.98,-19.54 396.53,-21.25 399.88,-27.39"/>
</g>
<!-- Node11 -->
<g id="node11" class="node">
<title>Node11</title>
<g id="a_node11"><a xlink:href="basicArithm_8hpp.html#a5967cef8aeb4f6ea90014159becd286d" target="_top" xlink:title="Raises a string representation of a number to a power.">
<polygon fill="none" stroke="black" points="207,-66.5 207,-85.5 254,-85.5 254,-66.5 207,-66.5"/>
<text text-anchor="middle" x="230.5" y="-73.5" font-family="Helvetica,sans-Serif" font-size="10.00">power</text>
</a>
</g>
</g>
<!-- Node10&#45;&gt;Node11 -->
<g id="edge10" class="edge">
<title>Node10&#45;&gt;Node11</title>
<path fill="none" stroke="midnightblue" d="M279.78,-68.92C270.83,-70.23 261.86,-71.55 254.12,-72.68"/>
<polygon fill="midnightblue" stroke="midnightblue" points="280.42,-72.37 289.8,-67.45 279.4,-65.44 280.42,-72.37"/>
</g>
<!-- Node11&#45;&gt;Node5 -->
<g id="edge11" class="edge">
<title>Node11&#45;&gt;Node5</title>
<path fill="none" stroke="midnightblue" d="M202.74,-90.59C183.79,-100.93 158.91,-114.5 142.47,-123.47"/>
<polygon fill="midnightblue" stroke="midnightblue" points="204.67,-93.53 211.77,-85.67 201.32,-87.39 204.67,-93.53"/>
</g>
<!-- Node12 -->
<g id="node12" class="node">
<title>Node12</title>
<g id="a_node12"><a xlink:href="power_8cpp.html#a065a3ee9a7ec43a06ab2fddbc3019a17" target="_top" xlink:title=" ">
<polygon fill="none" stroke="black" points="103.5,-66.5 103.5,-85.5 144.5,-85.5 144.5,-66.5 103.5,-66.5"/>
<text text-anchor="middle" x="124" y="-73.5" font-family="Helvetica,sans-Serif" font-size="10.00">main</text>
</a>
</g>
</g>
<!-- Node11&#45;&gt;Node12 -->
<g id="edge12" class="edge">
<title>Node11&#45;&gt;Node12</title>
<path fill="none" stroke="midnightblue" d="M196.72,-76C179.69,-76 159.44,-76 144.81,-76"/>
<polygon fill="midnightblue" stroke="midnightblue" points="196.83,-79.5 206.83,-76 196.83,-72.5 196.83,-79.5"/>
</g>
<!-- Node14&#45;&gt;Node7 -->
<g id="edge18" class="edge">
<title>Node14&#45;&gt;Node7</title>
<path fill="none" stroke="midnightblue" d="M494.98,-213.58C491.52,-215.23 488.14,-217.03 485,-219 464.09,-232.1 444.58,-253.73 434.23,-266.23"/>
<polygon fill="midnightblue" stroke="midnightblue" points="496.48,-216.75 504.29,-209.59 493.72,-210.32 496.48,-216.75"/>
</g>
<!-- Node15&#45;&gt;Node7 -->
<g id="edge20" class="edge">
<title>Node15&#45;&gt;Node7</title>
<path fill="none" stroke="midnightblue" d="M499.93,-301.14C483.12,-295.38 463.85,-288.79 449.27,-283.8"/>
<polygon fill="midnightblue" stroke="midnightblue" points="498.9,-304.48 509.49,-304.41 501.16,-297.86 498.9,-304.48"/>
</g>
<!-- Node17&#45;&gt;Node7 -->
<g id="edge23" class="edge">
<title>Node17&#45;&gt;Node7</title>
<path fill="none" stroke="midnightblue" d="M494.98,-338.42C491.52,-336.77 488.14,-334.97 485,-333 464.09,-319.9 444.58,-298.27 434.23,-285.77"/>
<polygon fill="midnightblue" stroke="midnightblue" points="493.72,-341.68 504.29,-342.41 496.48,-335.25 493.72,-341.68"/>
</g>
<!-- Node18&#45;&gt;Node3 -->
<g id="edge41" class="edge">
<title>Node18&#45;&gt;Node3</title>
<path fill="none" stroke="midnightblue" d="M832.78,-223.07C787.63,-226.91 721.45,-232.55 684.68,-235.68"/>
<polygon fill="midnightblue" stroke="midnightblue" points="833.26,-226.54 842.92,-222.2 832.66,-219.56 833.26,-226.54"/>
</g>
<!-- Node18&#45;&gt;Node4 -->
<g id="edge26" class="edge">
<title>Node18&#45;&gt;Node4</title>
<path fill="none" stroke="midnightblue" d="M866.42,-201.38C837.16,-166.52 765.78,-90.1 685,-67 639.69,-54.04 583.88,-69.73 556.41,-79.44"/>
<polygon fill="midnightblue" stroke="midnightblue" points="863.87,-203.8 872.93,-209.29 869.27,-199.35 863.87,-203.8"/>
</g>
<!-- Node18&#45;&gt;Node7 -->
<g id="edge34" class="edge">
<title>Node18&#45;&gt;Node7</title>
<path fill="none" stroke="midnightblue" d="M869.86,-237.19C856.93,-258.22 833.53,-292.99 807,-317 724.21,-391.93 699.56,-417.01 592,-447 546.19,-459.77 523.69,-474.65 485,-447 430.63,-408.14 426.24,-315.56 426.3,-285.56"/>
<polygon fill="midnightblue" stroke="midnightblue" points="872.88,-238.96 875.04,-228.59 866.88,-235.35 872.88,-238.96"/>
</g>
<!-- Node19 -->
<g id="node19" class="node">
<title>Node19</title>
<g id="a_node19"><a xlink:href="basicArithm_8hpp.html#aabb709fcb471467879352bf51bb0030a" target="_top" xlink:title="Compares two string representations of numbers.">
<polygon fill="none" stroke="black" points="734.5,-152.5 734.5,-171.5 793.5,-171.5 793.5,-152.5 734.5,-152.5"/>
<text text-anchor="middle" x="764" y="-159.5" font-family="Helvetica,sans-Serif" font-size="10.00">compare</text>
</a>
</g>
</g>
<!-- Node18&#45;&gt;Node19 -->
<g id="edge27" class="edge">
<title>Node18&#45;&gt;Node19</title>
<path fill="none" stroke="midnightblue" d="M852.06,-204.96C831.01,-194.58 802.91,-180.71 784.4,-171.57"/>
<polygon fill="midnightblue" stroke="midnightblue" points="850.65,-208.17 861.17,-209.46 853.75,-201.9 850.65,-208.17"/>
</g>
<!-- Node21 -->
<g id="node21" class="node">
<title>Node21</title>
<g id="a_node21"><a xlink:href="basicArithm_8hpp.html#ac99d69ea51545fe30da4a36290f3fedc" target="_top" xlink:title="Multiplies two string representations of numbers.">
<polygon fill="none" stroke="black" points="628,-361.5 628,-380.5 685,-380.5 685,-361.5 628,-361.5"/>
<text text-anchor="middle" x="656.5" y="-368.5" font-family="Helvetica,sans-Serif" font-size="10.00">multiply</text>
</a>
</g>
</g>
<!-- Node18&#45;&gt;Node21 -->
<g id="edge35" class="edge">
<title>Node18&#45;&gt;Node21</title>
<path fill="none" stroke="midnightblue" d="M860.95,-234.97C846.35,-246.69 825.77,-262.8 807,-276 759.71,-309.25 701.25,-344.9 673.53,-361.49"/>
<polygon fill="midnightblue" stroke="midnightblue" points="863.21,-237.64 868.79,-228.63 858.81,-232.19 863.21,-237.64"/>
</g>
<!-- Node19&#45;&gt;Node3 -->
<g id="edge33" class="edge">
<title>Node19&#45;&gt;Node3</title>
<path fill="none" stroke="midnightblue" d="M741.25,-177.67C720.04,-192.95 688.45,-215.7 670.75,-228.45"/>
<polygon fill="midnightblue" stroke="midnightblue" points="743.57,-180.31 749.64,-171.63 739.48,-174.63 743.57,-180.31"/>
</g>
<!-- Node19&#45;&gt;Node5 -->
<g id="edge28" class="edge">
<title>Node19&#45;&gt;Node5</title>
<path fill="none" stroke="midnightblue" d="M724.76,-150.17C712.22,-146.84 698.13,-143.67 685,-142 474.25,-115.19 419.18,-151.55 207,-141 195.43,-140.42 182.97,-139.41 171.34,-138.3"/>
<polygon fill="midnightblue" stroke="midnightblue" points="723.87,-153.56 734.44,-152.86 725.74,-146.81 723.87,-153.56"/>
</g>
<!-- Node19&#45;&gt;Node7 -->
<g id="edge29" class="edge">
<title>Node19&#45;&gt;Node7</title>
<path fill="none" stroke="midnightblue" d="M724.46,-154.24C667.58,-144.94 559.84,-135.78 485,-181 452.34,-200.73 435.3,-246.35 429.19,-266.33"/>
<polygon fill="midnightblue" stroke="midnightblue" points="724.02,-157.71 734.47,-155.96 725.21,-150.82 724.02,-157.71"/>
</g>
<!-- Node19&#45;&gt;Node9 -->
<g id="edge31" class="edge">
<title>Node19&#45;&gt;Node9</title>
<path fill="none" stroke="midnightblue" d="M752.97,-143.45C740.16,-121.62 715.92,-85.96 685,-67 605.28,-18.1 488.96,-10.93 444.6,-10.04"/>
<polygon fill="midnightblue" stroke="midnightblue" points="750.06,-145.41 758.03,-152.39 756.15,-141.97 750.06,-145.41"/>
</g>
<!-- Node19&#45;&gt;Node14 -->
<g id="edge30" class="edge">
<title>Node19&#45;&gt;Node14</title>
<path fill="none" stroke="midnightblue" d="M724.35,-169.05C711.8,-171.31 697.82,-173.79 685,-176 647.79,-182.41 605.15,-189.4 575.7,-194.17"/>
<polygon fill="midnightblue" stroke="midnightblue" points="725.27,-172.44 734.49,-167.22 724.03,-165.55 725.27,-172.44"/>
</g>
<!-- Node20 -->
<g id="node20" class="node">
<title>Node20</title>
<g id="a_node20"><a xlink:href="comparison_8cpp.html#a01b8b8bd5868995ae4a51d8c87cc82dd" target="_top" xlink:title=" ">
<polygon fill="none" stroke="black" points="636,-76.5 636,-95.5 677,-95.5 677,-76.5 636,-76.5"/>
<text text-anchor="middle" x="656.5" y="-83.5" font-family="Helvetica,sans-Serif" font-size="10.00">main</text>
</a>
</g>
</g>
<!-- Node19&#45;&gt;Node20 -->
<g id="edge32" class="edge">
<title>Node19&#45;&gt;Node20</title>
<path fill="none" stroke="midnightblue" d="M741.25,-146.33C720.04,-131.05 688.45,-108.3 670.75,-95.55"/>
<polygon fill="midnightblue" stroke="midnightblue" points="739.48,-149.37 749.64,-152.37 743.57,-143.69 739.48,-149.37"/>
</g>
<!-- Node21&#45;&gt;Node5 -->
<g id="edge36" class="edge">
<title>Node21&#45;&gt;Node5</title>
<path fill="none" stroke="midnightblue" d="M645.52,-389.72C634.84,-407.7 616.13,-433.99 592,-447 526.83,-482.14 500.54,-466 426.5,-466 426.5,-466 426.5,-466 327,-466 171.48,-466 132.36,-197.21 126.02,-142.61"/>
<polygon fill="midnightblue" stroke="midnightblue" points="648.73,-391.15 650.61,-380.72 642.64,-387.7 648.73,-391.15"/>
</g>
<!-- Node21&#45;&gt;Node10 -->
<g id="edge40" class="edge">
<title>Node21&#45;&gt;Node10</title>
<path fill="none" stroke="midnightblue" d="M617.85,-378.6C582.32,-384.04 528.19,-387.79 485,-371 438.38,-352.88 428.84,-337.2 402,-295 352.86,-217.74 334.67,-104.98 330.19,-71.63"/>
<polygon fill="midnightblue" stroke="midnightblue" points="618.51,-382.04 627.8,-376.96 617.37,-375.13 618.51,-382.04"/>
</g>
<!-- Node21&#45;&gt;Node15 -->
<g id="edge37" class="edge">
<title>Node21&#45;&gt;Node15</title>
<path fill="none" stroke="midnightblue" d="M632.55,-355.81C620.73,-348.37 605.92,-339.61 592,-333 584.73,-329.55 576.66,-326.34 569.07,-323.58"/>
<polygon fill="midnightblue" stroke="midnightblue" points="631,-358.97 641.31,-361.43 634.78,-353.08 631,-358.97"/>
</g>
<!-- Node21&#45;&gt;Node17 -->
<g id="edge39" class="edge">
<title>Node21&#45;&gt;Node17</title>
<path fill="none" stroke="midnightblue" d="M617.72,-364.81C609.52,-363.47 600.7,-362.02 592.05,-360.61"/>
<polygon fill="midnightblue" stroke="midnightblue" points="617.28,-368.29 627.72,-366.45 618.41,-361.38 617.28,-368.29"/>
</g>
<!-- Node22 -->
<g id="node22" class="node">
<title>Node22</title>
<g id="a_node22"><a xlink:href="multiply_8cpp.html#a065a3ee9a7ec43a06ab2fddbc3019a17" target="_top" xlink:title=" ">
<polygon fill="none" stroke="black" points="518,-418.5 518,-437.5 559,-437.5 559,-418.5 518,-418.5"/>
<text text-anchor="middle" x="538.5" y="-425.5" font-family="Helvetica,sans-Serif" font-size="10.00">main</text>
</a>
</g>
</g>
<!-- Node21&#45;&gt;Node22 -->
<g id="edge38" class="edge">
<title>Node21&#45;&gt;Node22</title>
<path fill="none" stroke="midnightblue" d="M628.64,-385.34C617.39,-391.25 604.12,-398.08 592,-404 581.19,-409.27 568.98,-414.88 559.06,-419.34"/>
<polygon fill="midnightblue" stroke="midnightblue" points="630.35,-388.4 637.56,-380.63 627.08,-382.21 630.35,-388.4"/>
</g>
</g>
</svg>
