<?xml version="1.0" encoding="UTF-8" standalone="no"?>
<!DOCTYPE svg PUBLIC "-//W3C//DTD SVG 1.1//EN"
 "http://www.w3.org/Graphics/SVG/1.1/DTD/svg11.dtd">
<!-- Generated by graphviz version 2.43.0 (0)
 -->
<!-- Title: isZeroString Pages: 1 -->
<svg width="1013pt" height="643pt"
 viewBox="0.00 0.00 1013.00 643.12" xmlns="http://www.w3.org/2000/svg" xmlns:xlink="http://www.w3.org/1999/xlink">
<g id="graph0" class="graph" transform="scale(1 1) rotate(0) translate(4 639.12)">
<title>isZeroString</title>
<!-- Node1 -->
<g id="node1" class="node">
<title>Node1</title>
<g id="a_node1"><a xlink:title="Checks if a given string is a zero string.">
<polygon fill="#bfbfbf" stroke="black" points="929,-389.5 929,-408.5 1005,-408.5 1005,-389.5 929,-389.5"/>
<text text-anchor="middle" x="967" y="-396.5" font-family="Helvetica,sans-Serif" font-size="10.00">isZeroString</text>
</a>
</g>
</g>
<!-- Node2 -->
<g id="node2" class="node">
<title>Node2</title>
<g id="a_node2"><a xlink:href="basicArithm_8hpp.html#acf222f0bfc4ca97fbdc6db7fe808a9ee" target="_top" xlink:title="Adds two string representations of numbers, and performs with the column method.">
<polygon fill="none" stroke="black" points="733,-484.5 733,-503.5 768,-503.5 768,-484.5 733,-484.5"/>
<text text-anchor="middle" x="750.5" y="-491.5" font-family="Helvetica,sans-Serif" font-size="10.00">add</text>
</a>
</g>
</g>
<!-- Node1&#45;&gt;Node2 -->
<g id="edge1" class="edge">
<title>Node1&#45;&gt;Node2</title>
<path fill="none" stroke="midnightblue" d="M954.14,-417.14C941.35,-435.07 919.26,-461.68 893,-475 851.89,-495.86 795.82,-496.44 768.23,-495.19"/>
<polygon fill="midnightblue" stroke="midnightblue" points="957.18,-418.9 959.95,-408.68 951.41,-414.94 957.18,-418.9"/>
</g>
<!-- Node5 -->
<g id="node5" class="node">
<title>Node5</title>
<g id="a_node5"><a xlink:href="basicArithm_8hpp.html#acb4215189a8d1cfd37f4f6fe13890a8f" target="_top" xlink:title="Divides a string representation of a number by another string representation of a number.">
<polygon fill="none" stroke="black" points="402,-294.5 402,-313.5 449,-313.5 449,-294.5 402,-294.5"/>
<text text-anchor="middle" x="425.5" y="-301.5" font-family="Helvetica,sans-Serif" font-size="10.00">divide</text>
</a>
</g>
</g>
<!-- Node1&#45;&gt;Node5 -->
<g id="edge25" class="edge">
<title>Node1&#45;&gt;Node5</title>
<path fill="none" stroke="midnightblue" d="M963.95,-379.3C954.91,-303.93 911.68,-38 751.5,-38 751.5,-38 751.5,-38 655.5,-38 579.25,-38 542.09,-6.46 485,-57 448.21,-89.57 431.12,-252.82 427.33,-294.37"/>
<polygon fill="midnightblue" stroke="midnightblue" points="960.48,-379.8 965.08,-389.34 967.44,-379.01 960.48,-379.8"/>
</g>
<!-- Node12 -->
<g id="node12" class="node">
<title>Node12</title>
<g id="a_node12"><a xlink:href="basicArithm_8hpp.html#a08faec0b8e863df19e3f978758166482" target="_top" xlink:title="Subtracts one string representation of a number from another string representation of a number.">
<polygon fill="none" stroke="black" points="628.5,-408.5 628.5,-427.5 684.5,-427.5 684.5,-408.5 628.5,-408.5"/>
<text text-anchor="middle" x="656.5" y="-415.5" font-family="Helvetica,sans-Serif" font-size="10.00">subtract</text>
</a>
</g>
</g>
<!-- Node1&#45;&gt;Node12 -->
<g id="edge47" class="edge">
<title>Node1&#45;&gt;Node12</title>
<path fill="none" stroke="midnightblue" d="M918.75,-401.91C853.39,-405.94 737.5,-413.07 684.87,-416.31"/>
<polygon fill="midnightblue" stroke="midnightblue" points="919.02,-405.4 928.79,-401.29 918.59,-398.41 919.02,-405.4"/>
</g>
<!-- Node17 -->
<g id="node17" class="node">
<title>Node17</title>
<g id="a_node17"><a xlink:href="basicArithm_8hpp.html#ac99d69ea51545fe30da4a36290f3fedc" target="_top" xlink:title="Multiplies two string representations of numbers.">
<polygon fill="none" stroke="black" points="628,-104.5 628,-123.5 685,-123.5 685,-104.5 628,-104.5"/>
<text text-anchor="middle" x="656.5" y="-111.5" font-family="Helvetica,sans-Serif" font-size="10.00">multiply</text>
</a>
</g>
</g>
<!-- Node1&#45;&gt;Node17 -->
<g id="edge26" class="edge">
<title>Node1&#45;&gt;Node17</title>
<path fill="none" stroke="midnightblue" d="M958.86,-379.81C939.13,-329.69 878.69,-194.5 780,-133 751.23,-115.07 711.49,-112.01 685.17,-112.31"/>
<polygon fill="midnightblue" stroke="midnightblue" points="955.7,-381.32 962.55,-389.41 962.23,-378.82 955.7,-381.32"/>
</g>
<!-- Node19 -->
<g id="node19" class="node">
<title>Node19</title>
<g id="a_node19"><a xlink:href="addReport_8cpp.html#a790c309eb43b10e2fca286cee3a94ac1" target="_top" xlink:title=" ">
<polygon fill="none" stroke="black" points="822,-446.5 822,-465.5 887,-465.5 887,-446.5 822,-446.5"/>
<text text-anchor="middle" x="854.5" y="-453.5" font-family="Helvetica,sans-Serif" font-size="10.00">reportAdd</text>
</a>
</g>
</g>
<!-- Node1&#45;&gt;Node19 -->
<g id="edge32" class="edge">
<title>Node1&#45;&gt;Node19</title>
<path fill="none" stroke="midnightblue" d="M938.26,-413.31C918.15,-423.68 891.52,-437.42 873.97,-446.47"/>
<polygon fill="midnightblue" stroke="midnightblue" points="939.97,-416.36 947.26,-408.67 936.76,-410.14 939.97,-416.36"/>
</g>
<!-- Node20 -->
<g id="node20" class="node">
<title>Node20</title>
<g id="a_node20"><a xlink:href="util_8hpp.html#a7e7fdd236a1593ed0124a3a7dd05946d" target="_top" xlink:title=" ">
<polygon fill="none" stroke="black" points="816,-351.5 816,-370.5 893,-370.5 893,-351.5 816,-351.5"/>
<text text-anchor="middle" x="854.5" y="-358.5" font-family="Helvetica,sans-Serif" font-size="10.00">splitNumber</text>
</a>
</g>
</g>
<!-- Node1&#45;&gt;Node20 -->
<g id="edge34" class="edge">
<title>Node1&#45;&gt;Node20</title>
<path fill="none" stroke="midnightblue" d="M928.28,-386.03C913.56,-380.97 896.98,-375.27 883.37,-370.59"/>
<polygon fill="midnightblue" stroke="midnightblue" points="927.52,-389.47 938.12,-389.41 929.8,-382.85 927.52,-389.47"/>
</g>
<!-- Node3 -->
<g id="node3" class="node">
<title>Node3</title>
<g id="a_node3"><a xlink:href="basicArithm_8hpp.html#aedf78136562346db852758c848f8e83d" target="_top" xlink:title="Converts a string representation of a number from one base to another.">
<polygon fill="none" stroke="black" points="77,-218.5 77,-237.5 171,-237.5 171,-218.5 77,-218.5"/>
<text text-anchor="middle" x="124" y="-225.5" font-family="Helvetica,sans-Serif" font-size="10.00">decimalConvert</text>
</a>
</g>
</g>
<!-- Node2&#45;&gt;Node3 -->
<g id="edge2" class="edge">
<title>Node2&#45;&gt;Node3</title>
<path fill="none" stroke="midnightblue" d="M735.35,-511.15C723.4,-524.37 705.05,-541.88 685,-551 625.63,-578 604.72,-570 539.5,-570 539.5,-570 539.5,-570 327,-570 287.26,-570 155.32,-292.74 129.43,-237.5"/>
<polygon fill="midnightblue" stroke="midnightblue" points="738.01,-513.43 741.93,-503.58 732.73,-508.83 738.01,-513.43"/>
</g>
<!-- Node2&#45;&gt;Node5 -->
<g id="edge4" class="edge">
<title>Node2&#45;&gt;Node5</title>
<path fill="none" stroke="midnightblue" d="M722.77,-495.68C663.13,-498.87 521.56,-503.17 485,-475 432.31,-434.4 426.77,-343.77 426.42,-313.82"/>
<polygon fill="midnightblue" stroke="midnightblue" points="723.12,-499.16 732.91,-495.1 722.73,-492.18 723.12,-499.16"/>
</g>
<!-- Node7 -->
<g id="node7" class="node">
<title>Node7</title>
<g id="a_node7"><a xlink:href="powerReport_8cpp.html#afff5f8aa771cf432836ef03f6f442dae" target="_top" xlink:title=" ">
<polygon fill="none" stroke="black" points="290,-351.5 290,-370.5 366,-370.5 366,-351.5 290,-351.5"/>
<text text-anchor="middle" x="328" y="-358.5" font-family="Helvetica,sans-Serif" font-size="10.00">reportPower</text>
</a>
</g>
</g>
<!-- Node2&#45;&gt;Node7 -->
<g id="edge13" class="edge">
<title>Node2&#45;&gt;Node7</title>
<path fill="none" stroke="midnightblue" d="M746.59,-513.52C740.89,-543.97 725.09,-601.88 685,-627 663.53,-640.45 652.3,-634.17 628,-627 513.3,-593.17 485.41,-566.69 402,-481 367.98,-446.05 342.56,-392.47 333.07,-370.7"/>
<polygon fill="midnightblue" stroke="midnightblue" points="750.04,-514.1 748.26,-503.65 743.14,-512.93 750.04,-514.1"/>
</g>
<!-- Node10 -->
<g id="node10" class="node">
<title>Node10</title>
<g id="a_node10"><a xlink:href="basicArithm_8hpp.html#a4e1bb2f02ee5d9df627a57d0899ac07b" target="_top" xlink:title="Executes a given predicate function a specified number of times.">
<polygon fill="none" stroke="black" points="637.5,-522.5 637.5,-541.5 675.5,-541.5 675.5,-522.5 637.5,-522.5"/>
<text text-anchor="middle" x="656.5" y="-529.5" font-family="Helvetica,sans-Serif" font-size="10.00">loop</text>
</a>
</g>
</g>
<!-- Node2&#45;&gt;Node10 -->
<g id="edge10" class="edge">
<title>Node2&#45;&gt;Node10</title>
<path fill="none" stroke="midnightblue" d="M723.2,-504.86C707.94,-511.17 689.11,-518.94 675.53,-524.55"/>
<polygon fill="midnightblue" stroke="midnightblue" points="724.72,-508.02 732.63,-500.97 722.05,-501.55 724.72,-508.02"/>
</g>
<!-- Node11 -->
<g id="node11" class="node">
<title>Node11</title>
<g id="a_node11"><a xlink:href="add_8cpp.html#a065a3ee9a7ec43a06ab2fddbc3019a17" target="_top" xlink:title=" ">
<polygon fill="none" stroke="black" points="636,-598.5 636,-617.5 677,-617.5 677,-598.5 636,-598.5"/>
<text text-anchor="middle" x="656.5" y="-605.5" font-family="Helvetica,sans-Serif" font-size="10.00">main</text>
</a>
</g>
</g>
<!-- Node2&#45;&gt;Node11 -->
<g id="edge12" class="edge">
<title>Node2&#45;&gt;Node11</title>
<path fill="none" stroke="midnightblue" d="M738.2,-512.28C726.13,-531.15 705.9,-561 685,-584 680.4,-589.07 674.78,-594.13 669.83,-598.29"/>
<polygon fill="midnightblue" stroke="midnightblue" points="741.21,-514.07 743.58,-503.74 735.29,-510.34 741.21,-514.07"/>
</g>
<!-- Node2&#45;&gt;Node12 -->
<g id="edge14" class="edge">
<title>Node2&#45;&gt;Node12</title>
<path fill="none" stroke="midnightblue" d="M734.91,-476.86C718.95,-461.62 693.34,-440.32 675.99,-427.74"/>
<polygon fill="midnightblue" stroke="midnightblue" points="732.72,-479.62 742.28,-484.19 737.66,-474.66 732.72,-479.62"/>
</g>
<!-- Node4 -->
<g id="node4" class="node">
<title>Node4</title>
<g id="a_node4"><a xlink:href="decimalConvert_8cpp.html#ac2c7bcd6d73ca32ee42312d0fa0b1aa9" target="_top" xlink:title=" ">
<polygon fill="none" stroke="black" points="0,-218.5 0,-237.5 41,-237.5 41,-218.5 0,-218.5"/>
<text text-anchor="middle" x="20.5" y="-225.5" font-family="Helvetica,sans-Serif" font-size="10.00">main</text>
</a>
</g>
</g>
<!-- Node3&#45;&gt;Node4 -->
<g id="edge3" class="edge">
<title>Node3&#45;&gt;Node4</title>
<path fill="none" stroke="midnightblue" d="M66.69,-228C57.49,-228 48.54,-228 41.06,-228"/>
<polygon fill="midnightblue" stroke="midnightblue" points="66.71,-231.5 76.71,-228 66.71,-224.5 66.71,-231.5"/>
</g>
<!-- Node6 -->
<g id="node6" class="node">
<title>Node6</title>
<g id="a_node6"><a xlink:href="division_8cpp.html#a065a3ee9a7ec43a06ab2fddbc3019a17" target="_top" xlink:title=" ">
<polygon fill="none" stroke="black" points="307.5,-294.5 307.5,-313.5 348.5,-313.5 348.5,-294.5 307.5,-294.5"/>
<text text-anchor="middle" x="328" y="-301.5" font-family="Helvetica,sans-Serif" font-size="10.00">main</text>
</a>
</g>
</g>
<!-- Node5&#45;&gt;Node6 -->
<g id="edge5" class="edge">
<title>Node5&#45;&gt;Node6</title>
<path fill="none" stroke="midnightblue" d="M391.83,-304C377.44,-304 361.01,-304 348.56,-304"/>
<polygon fill="midnightblue" stroke="midnightblue" points="391.87,-307.5 401.87,-304 391.87,-300.5 391.87,-307.5"/>
</g>
<!-- Node5&#45;&gt;Node7 -->
<g id="edge6" class="edge">
<title>Node5&#45;&gt;Node7</title>
<path fill="none" stroke="midnightblue" d="M399.33,-319.02C382.11,-329.3 359.79,-342.62 344.96,-351.47"/>
<polygon fill="midnightblue" stroke="midnightblue" points="401.51,-321.8 408.3,-313.67 397.92,-315.79 401.51,-321.8"/>
</g>
<!-- Node8 -->
<g id="node8" class="node">
<title>Node8</title>
<g id="a_node8"><a xlink:href="basicArithm_8hpp.html#a5967cef8aeb4f6ea90014159becd286d" target="_top" xlink:title="Raises a string representation of a number to a power.">
<polygon fill="none" stroke="black" points="207,-351.5 207,-370.5 254,-370.5 254,-351.5 207,-351.5"/>
<text text-anchor="middle" x="230.5" y="-358.5" font-family="Helvetica,sans-Serif" font-size="10.00">power</text>
</a>
</g>
</g>
<!-- Node7&#45;&gt;Node8 -->
<g id="edge7" class="edge">
<title>Node7&#45;&gt;Node8</title>
<path fill="none" stroke="midnightblue" d="M279.78,-361C270.83,-361 261.86,-361 254.12,-361"/>
<polygon fill="midnightblue" stroke="midnightblue" points="279.8,-364.5 289.8,-361 279.8,-357.5 279.8,-364.5"/>
</g>
<!-- Node8&#45;&gt;Node3 -->
<g id="edge8" class="edge">
<title>Node8&#45;&gt;Node3</title>
<path fill="none" stroke="midnightblue" d="M215.52,-343.21C193.2,-314.8 150.25,-260.14 132.73,-237.84"/>
<polygon fill="midnightblue" stroke="midnightblue" points="213.05,-345.73 221.98,-351.43 218.56,-341.41 213.05,-345.73"/>
</g>
<!-- Node9 -->
<g id="node9" class="node">
<title>Node9</title>
<g id="a_node9"><a xlink:href="power_8cpp.html#a065a3ee9a7ec43a06ab2fddbc3019a17" target="_top" xlink:title=" ">
<polygon fill="none" stroke="black" points="103.5,-351.5 103.5,-370.5 144.5,-370.5 144.5,-351.5 103.5,-351.5"/>
<text text-anchor="middle" x="124" y="-358.5" font-family="Helvetica,sans-Serif" font-size="10.00">main</text>
</a>
</g>
</g>
<!-- Node8&#45;&gt;Node9 -->
<g id="edge9" class="edge">
<title>Node8&#45;&gt;Node9</title>
<path fill="none" stroke="midnightblue" d="M196.72,-361C179.69,-361 159.44,-361 144.81,-361"/>
<polygon fill="midnightblue" stroke="midnightblue" points="196.83,-364.5 206.83,-361 196.83,-357.5 196.83,-364.5"/>
</g>
<!-- Node10&#45;&gt;Node7 -->
<g id="edge11" class="edge">
<title>Node10&#45;&gt;Node7</title>
<path fill="none" stroke="midnightblue" d="M627.28,-533.14C592.19,-533.43 531.27,-530.23 485,-508 414.89,-474.33 355.28,-397.66 335.75,-370.64"/>
<polygon fill="midnightblue" stroke="midnightblue" points="627.37,-536.63 637.3,-532.95 627.23,-529.64 627.37,-536.63"/>
</g>
<!-- Node12&#45;&gt;Node2 -->
<g id="edge15" class="edge">
<title>Node12&#45;&gt;Node2</title>
<path fill="none" stroke="midnightblue" d="M671.72,-434.79C688.15,-450.52 715.15,-472.94 732.63,-485.42"/>
<polygon fill="midnightblue" stroke="midnightblue" points="674.14,-432.26 664.59,-427.68 669.2,-437.22 674.14,-432.26"/>
</g>
<!-- Node12&#45;&gt;Node5 -->
<g id="edge16" class="edge">
<title>Node12&#45;&gt;Node5</title>
<path fill="none" stroke="midnightblue" d="M618.43,-410.68C582.44,-402.44 527.2,-386.73 485,-361 463.93,-348.16 444.48,-326.44 434.18,-313.84"/>
<polygon fill="midnightblue" stroke="midnightblue" points="617.98,-414.16 628.5,-412.9 619.49,-407.33 617.98,-414.16"/>
</g>
<!-- Node12&#45;&gt;Node12 -->
<g id="edge24" class="edge">
<title>Node12&#45;&gt;Node12</title>
<path fill="none" stroke="midnightblue" d="M673.91,-437.4C672.74,-442.31 666.94,-446 656.5,-446 639.79,-446 634.96,-436.57 642.01,-427.76"/>
<polygon fill="midnightblue" stroke="midnightblue" points="677.23,-436.31 670.99,-427.76 670.53,-438.34 677.23,-436.31"/>
</g>
<!-- Node13 -->
<g id="node13" class="node">
<title>Node13</title>
<g id="a_node13"><a xlink:href="division_8cpp.html#ab006d1ea81d0490f752bcadaee51b984" target="_top" xlink:title=" ">
<polygon fill="none" stroke="black" points="501.5,-332.5 501.5,-351.5 575.5,-351.5 575.5,-332.5 501.5,-332.5"/>
<text text-anchor="middle" x="538.5" y="-339.5" font-family="Helvetica,sans-Serif" font-size="10.00">getQuotient</text>
</a>
</g>
</g>
<!-- Node12&#45;&gt;Node13 -->
<g id="edge17" class="edge">
<title>Node12&#45;&gt;Node13</title>
<path fill="none" stroke="midnightblue" d="M637.7,-401.31C625.46,-390.39 608.51,-376.29 592,-366 583.16,-360.49 572.83,-355.49 563.69,-351.5"/>
<polygon fill="midnightblue" stroke="midnightblue" points="635.6,-404.14 645.35,-408.28 640.31,-398.96 635.6,-404.14"/>
</g>
<!-- Node14 -->
<g id="node14" class="node">
<title>Node14</title>
<g id="a_node14"><a xlink:href="division_8cpp.html#a8b6a82cb05abd6a1664e14df888f3cb7" target="_top" xlink:title=" ">
<polygon fill="none" stroke="black" points="495.5,-294.5 495.5,-313.5 581.5,-313.5 581.5,-294.5 495.5,-294.5"/>
<text text-anchor="middle" x="538.5" y="-301.5" font-family="Helvetica,sans-Serif" font-size="10.00">getRemainder</text>
</a>
</g>
</g>
<!-- Node12&#45;&gt;Node14 -->
<g id="edge19" class="edge">
<title>Node12&#45;&gt;Node14</title>
<path fill="none" stroke="midnightblue" d="M647.37,-399.17C637.29,-377.87 618.17,-343.5 592,-323 587.12,-319.17 581.39,-316.07 575.56,-313.58"/>
<polygon fill="midnightblue" stroke="midnightblue" points="644.27,-400.79 651.59,-408.45 650.64,-397.9 644.27,-400.79"/>
</g>
<!-- Node15 -->
<g id="node15" class="node">
<title>Node15</title>
<g id="a_node15"><a xlink:href="subtract_8cpp.html#ac2c7bcd6d73ca32ee42312d0fa0b1aa9" target="_top" xlink:title=" ">
<polygon fill="none" stroke="black" points="518,-446.5 518,-465.5 559,-465.5 559,-446.5 518,-446.5"/>
<text text-anchor="middle" x="538.5" y="-453.5" font-family="Helvetica,sans-Serif" font-size="10.00">main</text>
</a>
</g>
</g>
<!-- Node12&#45;&gt;Node15 -->
<g id="edge21" class="edge">
<title>Node12&#45;&gt;Node15</title>
<path fill="none" stroke="midnightblue" d="M618.7,-430.06C599,-436.51 575.53,-444.2 559.27,-449.52"/>
<polygon fill="midnightblue" stroke="midnightblue" points="619.89,-433.35 628.3,-426.91 617.71,-426.7 619.89,-433.35"/>
</g>
<!-- Node16 -->
<g id="node16" class="node">
<title>Node16</title>
<g id="a_node16"><a xlink:href="divisionReport_8cpp.html#aaebd1f284f6703b7629aa18d21f7ccf2" target="_top" xlink:title=" ">
<polygon fill="none" stroke="black" points="485,-256.5 485,-275.5 592,-275.5 592,-256.5 485,-256.5"/>
<text text-anchor="middle" x="538.5" y="-263.5" font-family="Helvetica,sans-Serif" font-size="10.00">reportDivisionStep</text>
</a>
</g>
</g>
<!-- Node12&#45;&gt;Node16 -->
<g id="edge22" class="edge">
<title>Node12&#45;&gt;Node16</title>
<path fill="none" stroke="midnightblue" d="M646.9,-399.03C630.65,-363.29 596.59,-289.16 592,-285 587.76,-281.16 582.69,-278.08 577.39,-275.61"/>
<polygon fill="midnightblue" stroke="midnightblue" points="643.83,-400.73 651.15,-408.39 650.21,-397.84 643.83,-400.73"/>
</g>
<!-- Node13&#45;&gt;Node5 -->
<g id="edge18" class="edge">
<title>Node13&#45;&gt;Node5</title>
<path fill="none" stroke="midnightblue" d="M499.93,-329.14C483.12,-323.38 463.85,-316.79 449.27,-311.8"/>
<polygon fill="midnightblue" stroke="midnightblue" points="498.9,-332.48 509.49,-332.41 501.16,-325.86 498.9,-332.48"/>
</g>
<!-- Node14&#45;&gt;Node5 -->
<g id="edge20" class="edge">
<title>Node14&#45;&gt;Node5</title>
<path fill="none" stroke="midnightblue" d="M485.15,-304C472.46,-304 459.56,-304 449.1,-304"/>
<polygon fill="midnightblue" stroke="midnightblue" points="485.22,-307.5 495.22,-304 485.22,-300.5 485.22,-307.5"/>
</g>
<!-- Node16&#45;&gt;Node5 -->
<g id="edge23" class="edge">
<title>Node16&#45;&gt;Node5</title>
<path fill="none" stroke="midnightblue" d="M499.93,-278.86C483.12,-284.62 463.85,-291.21 449.27,-296.2"/>
<polygon fill="midnightblue" stroke="midnightblue" points="501.16,-282.14 509.49,-275.59 498.9,-275.52 501.16,-282.14"/>
</g>
<!-- Node17&#45;&gt;Node3 -->
<g id="edge27" class="edge">
<title>Node17&#45;&gt;Node3</title>
<path fill="none" stroke="midnightblue" d="M639.91,-96.69C627.87,-84.2 610.23,-67.72 592,-57 524.94,-17.56 504.3,0 426.5,0 426.5,0 426.5,0 327,0 208.28,0 142.44,-175.34 128.03,-218.49"/>
<polygon fill="midnightblue" stroke="midnightblue" points="637.58,-99.32 646.97,-104.22 642.68,-94.53 637.58,-99.32"/>
</g>
<!-- Node17&#45;&gt;Node7 -->
<g id="edge31" class="edge">
<title>Node17&#45;&gt;Node7</title>
<path fill="none" stroke="midnightblue" d="M618.21,-121.43C581.7,-130.04 525.79,-146.91 485,-176 416.56,-224.81 421.82,-260.16 366,-323 357.19,-332.91 346.59,-343.7 338.99,-351.24"/>
<polygon fill="midnightblue" stroke="midnightblue" points="618.98,-124.84 627.96,-119.21 617.43,-118.01 618.98,-124.84"/>
</g>
<!-- Node17&#45;&gt;Node14 -->
<g id="edge28" class="edge">
<title>Node17&#45;&gt;Node14</title>
<path fill="none" stroke="midnightblue" d="M653.56,-133.57C649.07,-168.65 634.81,-242.54 592,-285 588.08,-288.89 583.3,-291.99 578.24,-294.46"/>
<polygon fill="midnightblue" stroke="midnightblue" points="657.04,-133.97 654.7,-123.63 650.08,-133.17 657.04,-133.97"/>
</g>
<!-- Node17&#45;&gt;Node16 -->
<g id="edge30" class="edge">
<title>Node17&#45;&gt;Node16</title>
<path fill="none" stroke="midnightblue" d="M642.06,-131.61C617.42,-163.9 565.79,-231.55 546.75,-256.5"/>
<polygon fill="midnightblue" stroke="midnightblue" points="644.96,-133.58 648.24,-123.51 639.39,-129.33 644.96,-133.58"/>
</g>
<!-- Node18 -->
<g id="node18" class="node">
<title>Node18</title>
<g id="a_node18"><a xlink:href="multiply_8cpp.html#a065a3ee9a7ec43a06ab2fddbc3019a17" target="_top" xlink:title=" ">
<polygon fill="none" stroke="black" points="518,-66.5 518,-85.5 559,-85.5 559,-66.5 518,-66.5"/>
<text text-anchor="middle" x="538.5" y="-73.5" font-family="Helvetica,sans-Serif" font-size="10.00">main</text>
</a>
</g>
</g>
<!-- Node17&#45;&gt;Node18 -->
<g id="edge29" class="edge">
<title>Node17&#45;&gt;Node18</title>
<path fill="none" stroke="midnightblue" d="M618.12,-101.75C598.46,-95.31 575.18,-87.69 559.07,-82.41"/>
<polygon fill="midnightblue" stroke="midnightblue" points="617.12,-105.11 627.72,-104.9 619.3,-98.46 617.12,-105.11"/>
</g>
<!-- Node19&#45;&gt;Node2 -->
<g id="edge33" class="edge">
<title>Node19&#45;&gt;Node2</title>
<path fill="none" stroke="midnightblue" d="M818.16,-469.17C801.24,-475.47 781.78,-482.72 768.27,-487.75"/>
<polygon fill="midnightblue" stroke="midnightblue" points="819.61,-472.36 827.76,-465.59 817.17,-465.8 819.61,-472.36"/>
</g>
<!-- Node20&#45;&gt;Node2 -->
<g id="edge35" class="edge">
<title>Node20&#45;&gt;Node2</title>
<path fill="none" stroke="midnightblue" d="M839.86,-378.79C818.07,-407.2 776.15,-461.86 759.04,-484.16"/>
<polygon fill="midnightblue" stroke="midnightblue" points="842.86,-380.63 846.16,-370.57 837.3,-376.37 842.86,-380.63"/>
</g>
<!-- Node20&#45;&gt;Node5 -->
<g id="edge44" class="edge">
<title>Node20&#45;&gt;Node5</title>
<path fill="none" stroke="midnightblue" d="M832.29,-345.57C789.48,-315.51 688.59,-250.02 592,-227 545.74,-215.97 527.6,-205.86 485,-227 456.27,-241.25 437.85,-277.1 430.34,-294.38"/>
<polygon fill="midnightblue" stroke="midnightblue" points="830.34,-348.48 840.52,-351.42 834.39,-342.77 830.34,-348.48"/>
</g>
<!-- Node20&#45;&gt;Node12 -->
<g id="edge46" class="edge">
<title>Node20&#45;&gt;Node12</title>
<path fill="none" stroke="midnightblue" d="M810.85,-373.4C772.52,-384.55 717.38,-400.59 684.72,-410.08"/>
<polygon fill="midnightblue" stroke="midnightblue" points="812.07,-376.69 820.69,-370.54 810.11,-369.97 812.07,-376.69"/>
</g>
<!-- Node20&#45;&gt;Node17 -->
<g id="edge45" class="edge">
<title>Node20&#45;&gt;Node17</title>
<path fill="none" stroke="midnightblue" d="M850.42,-341.35C843.75,-304.66 824.78,-225.02 780,-176 754.2,-147.75 712.6,-130.56 685.15,-121.65"/>
<polygon fill="midnightblue" stroke="midnightblue" points="846.98,-342.01 852.11,-351.28 853.88,-340.83 846.98,-342.01"/>
</g>
<!-- Node21 -->
<g id="node21" class="node">
<title>Node21</title>
<g id="a_node21"><a xlink:href="basicArithm_8hpp.html#aabb709fcb471467879352bf51bb0030a" target="_top" xlink:title="Compares two string representations of numbers.">
<polygon fill="none" stroke="black" points="721,-332.5 721,-351.5 780,-351.5 780,-332.5 721,-332.5"/>
<text text-anchor="middle" x="750.5" y="-339.5" font-family="Helvetica,sans-Serif" font-size="10.00">compare</text>
</a>
</g>
</g>
<!-- Node20&#45;&gt;Node21 -->
<g id="edge36" class="edge">
<title>Node20&#45;&gt;Node21</title>
<path fill="none" stroke="midnightblue" d="M805.95,-352.14C797.12,-350.5 788.15,-348.83 780.11,-347.33"/>
<polygon fill="midnightblue" stroke="midnightblue" points="805.34,-355.59 815.81,-353.98 806.62,-348.71 805.34,-355.59"/>
</g>
<!-- Node21&#45;&gt;Node3 -->
<g id="edge37" class="edge">
<title>Node21&#45;&gt;Node3</title>
<path fill="none" stroke="midnightblue" d="M735.67,-324.31C723.48,-309.54 704.64,-288.62 685,-274 643.65,-243.22 433.45,-152 426.5,-152 426.5,-152 426.5,-152 327,-152 252.44,-152 171.73,-197.92 139.49,-218.37"/>
<polygon fill="midnightblue" stroke="midnightblue" points="733.03,-326.62 742.03,-332.2 738.48,-322.22 733.03,-326.62"/>
</g>
<!-- Node21&#45;&gt;Node5 -->
<g id="edge38" class="edge">
<title>Node21&#45;&gt;Node5</title>
<path fill="none" stroke="midnightblue" d="M710.64,-344.85C684.85,-344.75 651.52,-340.58 628,-323 598.06,-300.63 623.58,-266.99 592,-247 551.82,-221.57 529.05,-229.09 485,-247 461.36,-256.61 442.04,-280.89 432.65,-294.45"/>
<polygon fill="midnightblue" stroke="midnightblue" points="710.89,-348.35 720.83,-344.69 710.78,-341.35 710.89,-348.35"/>
</g>
<!-- Node21&#45;&gt;Node8 -->
<g id="edge42" class="edge">
<title>Node21&#45;&gt;Node8</title>
<path fill="none" stroke="midnightblue" d="M710.72,-347.32C641.61,-356.46 492.53,-374.69 366,-380 332.25,-381.42 323.36,-385.28 290,-380 277.87,-378.08 264.83,-374.05 254.15,-370.19"/>
<polygon fill="midnightblue" stroke="midnightblue" points="711.26,-350.77 720.71,-345.98 710.34,-343.84 711.26,-350.77"/>
</g>
<!-- Node21&#45;&gt;Node10 -->
<g id="edge40" class="edge">
<title>Node21&#45;&gt;Node10</title>
<path fill="none" stroke="midnightblue" d="M740.39,-360.82C721.14,-400.57 676.91,-491.91 662.29,-522.11"/>
<polygon fill="midnightblue" stroke="midnightblue" points="743.6,-362.21 744.81,-351.68 737.3,-359.16 743.6,-362.21"/>
</g>
<!-- Node21&#45;&gt;Node12 -->
<g id="edge43" class="edge">
<title>Node21&#45;&gt;Node12</title>
<path fill="none" stroke="midnightblue" d="M730.04,-358.08C711.54,-373.35 684.35,-395.82 669.06,-408.45"/>
<polygon fill="midnightblue" stroke="midnightblue" points="732.37,-360.69 737.85,-351.63 727.91,-355.3 732.37,-360.69"/>
</g>
<!-- Node21&#45;&gt;Node13 -->
<g id="edge39" class="edge">
<title>Node21&#45;&gt;Node13</title>
<path fill="none" stroke="midnightblue" d="M736.04,-324.6C724.27,-310.91 705.83,-292.89 685,-285 661.31,-276.03 651.27,-274.99 628,-285 606.63,-294.19 611.46,-310.25 592,-323 586.24,-326.77 579.64,-329.91 573.11,-332.48"/>
<polygon fill="midnightblue" stroke="midnightblue" points="733.42,-326.92 742.47,-332.43 738.83,-322.48 733.42,-326.92"/>
</g>
<!-- Node22 -->
<g id="node22" class="node">
<title>Node22</title>
<g id="a_node22"><a xlink:href="comparison_8cpp.html#a01b8b8bd5868995ae4a51d8c87cc82dd" target="_top" xlink:title=" ">
<polygon fill="none" stroke="black" points="636,-294.5 636,-313.5 677,-313.5 677,-294.5 636,-294.5"/>
<text text-anchor="middle" x="656.5" y="-301.5" font-family="Helvetica,sans-Serif" font-size="10.00">main</text>
</a>
</g>
</g>
<!-- Node21&#45;&gt;Node22 -->
<g id="edge41" class="edge">
<title>Node21&#45;&gt;Node22</title>
<path fill="none" stroke="midnightblue" d="M716.99,-328.57C703.74,-323.1 688.85,-316.95 677.28,-312.17"/>
<polygon fill="midnightblue" stroke="midnightblue" points="715.71,-331.83 726.28,-332.41 718.38,-325.36 715.71,-331.83"/>
</g>
</g>
</svg>
